<?xml version="1.0" encoding="UTF-8" standalone="no"?>
<!-- Generator: Adobe Illustrator 19.1.0, SVG Export Plug-In . SVG Version: 6.00 Build 0)  -->

<svg
   xmlns:dc="http://purl.org/dc/elements/1.1/"
   xmlns:cc="http://creativecommons.org/ns#"
   xmlns:rdf="http://www.w3.org/1999/02/22-rdf-syntax-ns#"
   xmlns:svg="http://www.w3.org/2000/svg"
   xmlns="http://www.w3.org/2000/svg"
   xmlns:sodipodi="http://sodipodi.sourceforge.net/DTD/sodipodi-0.dtd"
   xmlns:inkscape="http://www.inkscape.org/namespaces/inkscape"
   version="1.1"
   id="Capa_1"
   x="0px"
   y="0px"
   viewBox="0 0 477.175 477.175"
   style="enable-background:new 0 0 477.175 477.175;"
   xml:space="preserve"
   inkscape:version="0.91 r13725"
   sodipodi:docname="next-black.svg"><metadata
     id="metadata3495"><rdf:RDF><cc:Work
         rdf:about=""><dc:format>image/svg+xml</dc:format><dc:type
           rdf:resource="http://purl.org/dc/dcmitype/StillImage" /><dc:title></dc:title></cc:Work></rdf:RDF></metadata><defs
     id="defs3493" /><sodipodi:namedview
     pagecolor="#ffffff"
     bordercolor="#666666"
     borderopacity="1"
     objecttolerance="10"
     gridtolerance="10"
     guidetolerance="10"
     inkscape:pageopacity="0"
     inkscape:pageshadow="2"
     inkscape:window-width="1855"
     inkscape:window-height="1056"
     id="namedview3491"
     showgrid="false"
     inkscape:zoom="1.9259182"
     inkscape:cx="238.58749"
     inkscape:cy="238.58749"
     inkscape:window-x="65"
     inkscape:window-y="24"
     inkscape:window-maximized="1"
     inkscape:current-layer="Capa_1" /><g
     id="g3457"
     transform="matrix(-1,0,0,-1,477.176,477.175)"><path
       d="m 145.188,238.575 215.5,-215.5 c 5.3,-5.3 5.3,-13.8 0,-19.1 -5.3,-5.3 -13.8,-5.3 -19.1,0 l -225.1,225.1 c -5.3,5.3 -5.3,13.8 0,19.1 l 225.1,225 c 2.6,2.6 6.1,4 9.5,4 3.4,0 6.9,-1.3 9.5,-4 5.3,-5.3 5.3,-13.8 0,-19.1 l -215.4,-215.5 z"
       id="path3459"
       inkscape:connector-curvature="0" /></g><g
     id="g3461"
     transform="matrix(-1,0,0,-1,-2.2070312e-6,954.34998)" /><g
     id="g3463"
     transform="matrix(-1,0,0,-1,-2.2070312e-6,954.34998)" /><g
     id="g3465"
     transform="matrix(-1,0,0,-1,-2.2070312e-6,954.34998)" /><g
     id="g3467"
     transform="matrix(-1,0,0,-1,-2.2070312e-6,954.34998)" /><g
     id="g3469"
     transform="matrix(-1,0,0,-1,-2.2070312e-6,954.34998)" /><g
     id="g3471"
     transform="matrix(-1,0,0,-1,-2.2070312e-6,954.34998)" /><g
     id="g3473"
     transform="matrix(-1,0,0,-1,-2.2070312e-6,954.34998)" /><g
     id="g3475"
     transform="matrix(-1,0,0,-1,-2.2070312e-6,954.34998)" /><g
     id="g3477"
     transform="matrix(-1,0,0,-1,-2.2070312e-6,954.34998)" /><g
     id="g3479"
     transform="matrix(-1,0,0,-1,-2.2070312e-6,954.34998)" /><g
     id="g3481"
     transform="matrix(-1,0,0,-1,-2.2070312e-6,954.34998)" /><g
     id="g3483"
     transform="matrix(-1,0,0,-1,-2.2070312e-6,954.34998)" /><g
     id="g3485"
     transform="matrix(-1,0,0,-1,-2.2070312e-6,954.34998)" /><g
     id="g3487"
     transform="matrix(-1,0,0,-1,-2.2070312e-6,954.34998)" /><g
     id="g3489"
     transform="matrix(-1,0,0,-1,-2.2070312e-6,954.34998)" /></svg>