<?xml version="1.0" encoding="UTF-8" standalone="no"?>
<!DOCTYPE svg PUBLIC "-//W3C//DTD SVG 1.1//EN"
 "http://www.w3.org/Graphics/SVG/1.1/DTD/svg11.dtd">
<!-- Generated by graphviz version 2.40.1 (20161225.0304)
 -->
<!-- Title: ItemCategoryFull Pages: 1 -->
<svg width="237pt" height="224pt"
 viewBox="0.00 0.00 236.78 224.00" xmlns="http://www.w3.org/2000/svg" xmlns:xlink="http://www.w3.org/1999/xlink">
<g id="graph0" class="graph" transform="scale(1 1) rotate(0) translate(4 220)">
<title>ItemCategoryFull</title>
<polygon fill="#ffffff" stroke="transparent" points="-4,4 -4,-220 232.7754,-220 232.7754,4 -4,4"/>
<!-- Node1 -->
<g id="node1" class="node">
<title>Node1</title>
<polygon fill="#bfbfbf" stroke="#000000" points="109.5244,-.5 109.5244,-18.5 201.6621,-18.5 201.6621,-.5 109.5244,-.5"/>
<text text-anchor="middle" x="155.5933" y="-6.5" font-family="Helvetica,sans-Serif" font-size="10.00" fill="#000000">ItemCategoryFull</text>
</g>
<!-- Node2 -->
<g id="node2" class="node">
<title>Node2</title>
<g id="a_node2"><a xlink:href="classlocomotor_1_1components_1_1models_1_1_item_category.html" target="_top" xlink:title="ItemCategory">
<polygon fill="#ffffff" stroke="#000000" points="40.5811,-56.5 40.5811,-74.5 116.6055,-74.5 116.6055,-56.5 40.5811,-56.5"/>
<text text-anchor="middle" x="78.5933" y="-62.5" font-family="Helvetica,sans-Serif" font-size="10.00" fill="#000000">ItemCategory</text>
</a>
</g>
</g>
<!-- Node2&#45;&gt;Node1 -->
<g id="edge1" class="edge">
<title>Node2&#45;&gt;Node1</title>
<path fill="none" stroke="#191970" d="M99.4024,-50.3661C113.3713,-40.2069 131.3106,-27.1601 143.1149,-18.5752"/>
<polygon fill="#191970" stroke="#191970" points="97.337,-47.5404 91.3082,-56.2527 101.4542,-53.2016 97.337,-47.5404"/>
</g>
<!-- Node3 -->
<g id="node3" class="node">
<title>Node3</title>
<g id="a_node3"><a xlink:href="classlocomotor_1_1components_1_1models_1_1_category.html" target="_top" xlink:title="Category">
<polygon fill="#ffffff" stroke="#000000" points="50.3052,-112.5 50.3052,-130.5 106.8813,-130.5 106.8813,-112.5 50.3052,-112.5"/>
<text text-anchor="middle" x="78.5933" y="-118.5" font-family="Helvetica,sans-Serif" font-size="10.00" fill="#000000">Category</text>
</a>
</g>
</g>
<!-- Node3&#45;&gt;Node2 -->
<g id="edge2" class="edge">
<title>Node3&#45;&gt;Node2</title>
<path fill="none" stroke="#191970" d="M78.5933,-102.2065C78.5933,-92.8384 78.5933,-82.0262 78.5933,-74.5752"/>
<polygon fill="#191970" stroke="#191970" points="75.0934,-102.2527 78.5933,-112.2527 82.0934,-102.2528 75.0934,-102.2527"/>
</g>
<!-- Node4 -->
<g id="node4" class="node">
<title>Node4</title>
<polygon fill="#ffffff" stroke="#bfbfbf" points="0,-177.5 0,-215.5 157.1865,-215.5 157.1865,-177.5 0,-177.5"/>
<text text-anchor="start" x="8" y="-203.5" font-family="Helvetica,sans-Serif" font-size="10.00" fill="#000000">ArrayList&lt;?extends</text>
<text text-anchor="start" x="8" y="-193.5" font-family="Helvetica,sans-Serif" font-size="10.00" fill="#000000"> locomotor.components.models.</text>
<text text-anchor="middle" x="78.5933" y="-183.5" font-family="Helvetica,sans-Serif" font-size="10.00" fill="#000000">Criteria &gt;</text>
</g>
<!-- Node4&#45;&gt;Node3 -->
<g id="edge3" class="edge">
<title>Node4&#45;&gt;Node3</title>
<path fill="none" stroke="#9a32cd" stroke-dasharray="5,2" d="M78.5933,-166.801C78.5933,-153.909 78.5933,-139.73 78.5933,-130.7294"/>
<polygon fill="#9a32cd" stroke="#9a32cd" points="75.0934,-167.1856 78.5933,-177.1856 82.0934,-167.1857 75.0934,-167.1856"/>
<text text-anchor="middle" x="100.2656" y="-151" font-family="Helvetica,sans-Serif" font-size="10.00" fill="#000000"> _criterias</text>
</g>
<!-- Node5 -->
<g id="node5" class="node">
<title>Node5</title>
<g id="a_node5"><a xlink:href="interfacelocomotor_1_1components_1_1_j_s_o_n_displayable.html" target="_top" xlink:title="JSONDisplayable">
<polygon fill="#ffffff" stroke="#000000" points="134.4111,-56.5 134.4111,-74.5 228.7754,-74.5 228.7754,-56.5 134.4111,-56.5"/>
<text text-anchor="middle" x="181.5933" y="-62.5" font-family="Helvetica,sans-Serif" font-size="10.00" fill="#000000">JSONDisplayable</text>
</a>
</g>
</g>
<!-- Node5&#45;&gt;Node1 -->
<g id="edge4" class="edge">
<title>Node5&#45;&gt;Node1</title>
<path fill="none" stroke="#191970" d="M173.0589,-47.1182C168.6151,-37.5471 163.379,-26.2692 159.8067,-18.5752"/>
<polygon fill="#191970" stroke="#191970" points="169.9142,-48.6565 177.2999,-56.2527 176.2633,-45.7087 169.9142,-48.6565"/>
</g>
</g>
</svg>
