<?xml version="1.0" encoding="UTF-8" standalone="no"?>
<!DOCTYPE svg PUBLIC "-//W3C//DTD SVG 1.1//EN"
 "http://www.w3.org/Graphics/SVG/1.1/DTD/svg11.dtd">
<!-- Generated by graphviz version 2.40.1 (20161225.0304)
 -->
<!-- Title: computeGradeOfCriteria Pages: 1 -->
<svg width="963pt" height="37pt"
 viewBox="0.00 0.00 963.20 37.00" xmlns="http://www.w3.org/2000/svg" xmlns:xlink="http://www.w3.org/1999/xlink">
<g id="graph0" class="graph" transform="scale(1 1) rotate(0) translate(4 33)">
<title>computeGradeOfCriteria</title>
<polygon fill="#ffffff" stroke="transparent" points="-4,4 -4,-33 959.1992,-33 959.1992,4 -4,4"/>
<!-- Node1 -->
<g id="node1" class="node">
<title>Node1</title>
<polygon fill="#bfbfbf" stroke="#000000" points="0,-5.5 0,-23.5 124.9307,-23.5 124.9307,-5.5 0,-5.5"/>
<text text-anchor="middle" x="62.4653" y="-11.5" font-family="Helvetica,sans-Serif" font-size="10.00" fill="#000000">computeGradeOfCriteria</text>
</g>
<!-- Node2 -->
<g id="node2" class="node">
<title>Node2</title>
<g id="a_node2"><a xlink:href="classlocomotor_1_1core_1_1_comparator.html#a3f526c90b5b3a645974bbb81e30d3c74" target="_top" xlink:title="computeGradeOfCategory">
<polygon fill="#ffffff" stroke="#000000" points="160.9307,-5.5 160.9307,-23.5 294.2109,-23.5 294.2109,-5.5 160.9307,-5.5"/>
<text text-anchor="middle" x="227.5708" y="-11.5" font-family="Helvetica,sans-Serif" font-size="10.00" fill="#000000">computeGradeOfCategory</text>
</a>
</g>
</g>
<!-- Node1&#45;&gt;Node2 -->
<g id="edge1" class="edge">
<title>Node1&#45;&gt;Node2</title>
<path fill="none" stroke="#191970" d="M135.5055,-14.5C143.9002,-14.5 152.4278,-14.5 160.735,-14.5"/>
<polygon fill="#191970" stroke="#191970" points="135.3557,-11.0001 125.3556,-14.5 135.3556,-18.0001 135.3557,-11.0001"/>
</g>
<!-- Node3 -->
<g id="node3" class="node">
<title>Node3</title>
<g id="a_node3"><a xlink:href="classlocomotor_1_1core_1_1_comparator.html#a589b06b817cbbc74ceb4812d0ba6c245" target="_top" xlink:title="computeGradeOfItem">
<polygon fill="#ffffff" stroke="#000000" points="330.2109,-5.5 330.2109,-23.5 442.3633,-23.5 442.3633,-5.5 330.2109,-5.5"/>
<text text-anchor="middle" x="386.2871" y="-11.5" font-family="Helvetica,sans-Serif" font-size="10.00" fill="#000000">computeGradeOfItem</text>
</a>
</g>
</g>
<!-- Node2&#45;&gt;Node3 -->
<g id="edge2" class="edge">
<title>Node2&#45;&gt;Node3</title>
<path fill="none" stroke="#191970" d="M304.4946,-14.5C313.1117,-14.5 321.7671,-14.5 330.0539,-14.5"/>
<polygon fill="#191970" stroke="#191970" points="304.4208,-11.0001 294.4208,-14.5 304.4208,-18.0001 304.4208,-11.0001"/>
</g>
<!-- Node4 -->
<g id="node4" class="node">
<title>Node4</title>
<g id="a_node4"><a xlink:href="classlocomotor_1_1core_1_1_comparator.html#a092fb76ad264eeccd8f30eadb70e36e3" target="_top" xlink:title="computeGradeOfItems">
<polygon fill="#ffffff" stroke="#000000" points="478.3633,-5.5 478.3633,-23.5 595.5156,-23.5 595.5156,-5.5 478.3633,-5.5"/>
<text text-anchor="middle" x="536.9395" y="-11.5" font-family="Helvetica,sans-Serif" font-size="10.00" fill="#000000">computeGradeOfItems</text>
</a>
</g>
</g>
<!-- Node3&#45;&gt;Node4 -->
<g id="edge3" class="edge">
<title>Node3&#45;&gt;Node4</title>
<path fill="none" stroke="#191970" d="M452.3967,-14.5C461.013,-14.5 469.7926,-14.5 478.2754,-14.5"/>
<polygon fill="#191970" stroke="#191970" points="452.3845,-11.0001 442.3845,-14.5 452.3844,-18.0001 452.3845,-11.0001"/>
</g>
<!-- Node5 -->
<g id="node5" class="node">
<title>Node5</title>
<g id="a_node5"><a xlink:href="classlocomotor_1_1components_1_1network_1_1_a_p_i.html#a547463fbc7fb7b485886f0917e2c0b78" target="_top" xlink:title="locomotor.components.network.\lAPI.createHooks">
<polygon fill="#ffffff" stroke="#000000" points="631.5156,-.5 631.5156,-28.5 788.7021,-28.5 788.7021,-.5 631.5156,-.5"/>
<text text-anchor="start" x="639.5156" y="-16.5" font-family="Helvetica,sans-Serif" font-size="10.00" fill="#000000">locomotor.components.network.</text>
<text text-anchor="middle" x="710.1089" y="-6.5" font-family="Helvetica,sans-Serif" font-size="10.00" fill="#000000">API.createHooks</text>
</a>
</g>
</g>
<!-- Node4&#45;&gt;Node5 -->
<g id="edge4" class="edge">
<title>Node4&#45;&gt;Node5</title>
<path fill="none" stroke="#191970" d="M605.6837,-14.5C614.0917,-14.5 622.7343,-14.5 631.2755,-14.5"/>
<polygon fill="#191970" stroke="#191970" points="605.5668,-11.0001 595.5667,-14.5 605.5667,-18.0001 605.5668,-11.0001"/>
</g>
<!-- Node6 -->
<g id="node6" class="node">
<title>Node6</title>
<g id="a_node6"><a xlink:href="classlocomotor_1_1core_1_1_main.html#a8b260eecbaabcef8473fd87ada040682" target="_top" xlink:title="locomotor.core.Main.main">
<polygon fill="#ffffff" stroke="#000000" points="824.7021,-5.5 824.7021,-23.5 955.1992,-23.5 955.1992,-5.5 824.7021,-5.5"/>
<text text-anchor="middle" x="889.9507" y="-11.5" font-family="Helvetica,sans-Serif" font-size="10.00" fill="#000000">locomotor.core.Main.main</text>
</a>
</g>
</g>
<!-- Node5&#45;&gt;Node6 -->
<g id="edge5" class="edge">
<title>Node5&#45;&gt;Node6</title>
<path fill="none" stroke="#191970" d="M798.9019,-14.5C807.5902,-14.5 816.2926,-14.5 824.6844,-14.5"/>
<polygon fill="#191970" stroke="#191970" points="798.7285,-11.0001 788.7285,-14.5 798.7285,-18.0001 798.7285,-11.0001"/>
</g>
</g>
</svg>
