<?xml version="1.0" encoding="UTF-8" standalone="no"?>
<!DOCTYPE svg PUBLIC "-//W3C//DTD SVG 1.1//EN"
 "http://www.w3.org/Graphics/SVG/1.1/DTD/svg11.dtd">
<!-- Generated by graphviz version 2.40.1 (20161225.0304)
 -->
<!-- Title: getModel Pages: 1 -->
<svg width="759pt" height="446pt"
 viewBox="0.00 0.00 758.64 446.00" xmlns="http://www.w3.org/2000/svg" xmlns:xlink="http://www.w3.org/1999/xlink">
<g id="graph0" class="graph" transform="scale(1 1) rotate(0) translate(4 442)">
<title>getModel</title>
<polygon fill="#ffffff" stroke="transparent" points="-4,4 -4,-442 754.6377,-442 754.6377,4 -4,4"/>
<!-- Node1 -->
<g id="node1" class="node">
<title>Node1</title>
<polygon fill="#bfbfbf" stroke="#000000" points="0,-310.5 0,-328.5 57.1377,-328.5 57.1377,-310.5 0,-310.5"/>
<text text-anchor="middle" x="28.5688" y="-316.5" font-family="Helvetica,sans-Serif" font-size="10.00" fill="#000000">getModel</text>
</g>
<!-- Node2 -->
<g id="node2" class="node">
<title>Node2</title>
<g id="a_node2"><a xlink:href="classlocomotor_1_1front_1_1components_1_1network_1_1_client_request.html#a5177dbc0e509337643b1931cab9832ca" target="_top" xlink:title="locomotor.front.components.network.\lClientRequest.addParam">
<polygon fill="#ffffff" stroke="#000000" points="349.6885,-282.5 349.6885,-310.5 529.6631,-310.5 529.6631,-282.5 349.6885,-282.5"/>
<text text-anchor="start" x="357.6885" y="-298.5" font-family="Helvetica,sans-Serif" font-size="10.00" fill="#000000">locomotor.front.components.network.</text>
<text text-anchor="middle" x="439.6758" y="-288.5" font-family="Helvetica,sans-Serif" font-size="10.00" fill="#000000">ClientRequest.addParam</text>
</a>
</g>
</g>
<!-- Node1&#45;&gt;Node2 -->
<g id="edge1" class="edge">
<title>Node1&#45;&gt;Node2</title>
<path fill="none" stroke="#191970" d="M57.1507,-317.9009C114.5425,-314.6901 246.2347,-307.3224 339.0004,-302.1324"/>
<polygon fill="#191970" stroke="#191970" points="339.474,-305.6115 349.2629,-301.5583 339.083,-298.6224 339.474,-305.6115"/>
</g>
<!-- Node4 -->
<g id="node4" class="node">
<title>Node4</title>
<g id="a_node4"><a xlink:href="classlocomotor_1_1front_1_1components_1_1network_1_1_client_request.html#af820b68be6077f053a589af5c865700c" target="_top" xlink:title="locomotor.front.components.network.\lClientRequest.requestJson">
<polygon fill="#ffffff" stroke="#000000" points="349.6885,-386.5 349.6885,-414.5 529.6631,-414.5 529.6631,-386.5 349.6885,-386.5"/>
<text text-anchor="start" x="357.6885" y="-402.5" font-family="Helvetica,sans-Serif" font-size="10.00" fill="#000000">locomotor.front.components.network.</text>
<text text-anchor="middle" x="439.6758" y="-392.5" font-family="Helvetica,sans-Serif" font-size="10.00" fill="#000000">ClientRequest.requestJson</text>
</a>
</g>
</g>
<!-- Node1&#45;&gt;Node4 -->
<g id="edge3" class="edge">
<title>Node1&#45;&gt;Node4</title>
<path fill="none" stroke="#191970" d="M37.1309,-328.829C48.5974,-340.6264 70.1741,-360.4856 93.1377,-369.5 171.9158,-400.4243 268.265,-406.7844 339.3547,-406.2054"/>
<polygon fill="#191970" stroke="#191970" points="339.7012,-409.7013 349.6549,-406.0717 339.6103,-402.7019 339.7012,-409.7013"/>
</g>
<!-- Node7 -->
<g id="node7" class="node">
<title>Node7</title>
<g id="a_node7"><a xlink:href="classlocomotor_1_1front_1_1components_1_1_front_resource_manager.html#aa21c4cd4a2808249949e545c69057811" target="_top" xlink:title="locomotor.front.components.\lFrontResourceManager.getInstance">
<polygon fill="#ffffff" stroke="#000000" points="113.1426,-331.5 113.1426,-359.5 288.6836,-359.5 288.6836,-331.5 113.1426,-331.5"/>
<text text-anchor="start" x="121.1426" y="-347.5" font-family="Helvetica,sans-Serif" font-size="10.00" fill="#000000">locomotor.front.components.</text>
<text text-anchor="middle" x="200.9131" y="-337.5" font-family="Helvetica,sans-Serif" font-size="10.00" fill="#000000">FrontResourceManager.getInstance</text>
</a>
</g>
</g>
<!-- Node1&#45;&gt;Node7 -->
<g id="edge6" class="edge">
<title>Node1&#45;&gt;Node7</title>
<path fill="none" stroke="#191970" d="M57.4154,-323.8518C70.1915,-325.7792 86.0445,-328.1708 102.5054,-330.6541"/>
<polygon fill="#191970" stroke="#191970" points="102.4009,-334.1779 112.8112,-332.2089 103.4452,-327.2562 102.4009,-334.1779"/>
</g>
<!-- Node9 -->
<g id="node9" class="node">
<title>Node9</title>
<g id="a_node9"><a xlink:href="classlocomotor_1_1front_1_1components_1_1_front_resource_manager.html#a90ec9cbe2d393ac172e03972abf97f1d" target="_top" xlink:title="locomotor.front.components.\lFrontResourceManager.getRemoteResource">
<polygon fill="#ffffff" stroke="#000000" points="93.1377,-165.5 93.1377,-193.5 308.6885,-193.5 308.6885,-165.5 93.1377,-165.5"/>
<text text-anchor="start" x="101.1377" y="-181.5" font-family="Helvetica,sans-Serif" font-size="10.00" fill="#000000">locomotor.front.components.</text>
<text text-anchor="middle" x="200.9131" y="-171.5" font-family="Helvetica,sans-Serif" font-size="10.00" fill="#000000">FrontResourceManager.getRemoteResource</text>
</a>
</g>
</g>
<!-- Node1&#45;&gt;Node9 -->
<g id="edge10" class="edge">
<title>Node1&#45;&gt;Node9</title>
<path fill="none" stroke="#191970" d="M39.8768,-310.3142C67.238,-288.088 137.5543,-230.9681 175.5863,-200.0737"/>
<polygon fill="#191970" stroke="#191970" points="178.0738,-202.5623 183.6288,-193.5405 173.6602,-197.129 178.0738,-202.5623"/>
</g>
<!-- Node3 -->
<g id="node3" class="node">
<title>Node3</title>
<g id="a_node3"><a xlink:href="classlocomotor_1_1front_1_1components_1_1network_1_1_file_upload.html#ab075e2b20b12151e05bf1fb51e40c1db" target="_top" xlink:title="locomotor.front.components.network.\lFileUpload.add">
<polygon fill="#ffffff" stroke="#000000" points="570.6631,-282.5 570.6631,-310.5 750.6377,-310.5 750.6377,-282.5 570.6631,-282.5"/>
<text text-anchor="start" x="578.6631" y="-298.5" font-family="Helvetica,sans-Serif" font-size="10.00" fill="#000000">locomotor.front.components.network.</text>
<text text-anchor="middle" x="660.6504" y="-288.5" font-family="Helvetica,sans-Serif" font-size="10.00" fill="#000000">FileUpload.add</text>
</a>
</g>
</g>
<!-- Node2&#45;&gt;Node3 -->
<g id="edge2" class="edge">
<title>Node2&#45;&gt;Node3</title>
<path fill="none" stroke="#191970" d="M529.8733,-296.5C539.8979,-296.5 550.1531,-296.5 560.2937,-296.5"/>
<polygon fill="#191970" stroke="#191970" points="560.3831,-300.0001 570.3831,-296.5 560.3831,-293.0001 560.3831,-300.0001"/>
</g>
<!-- Node5 -->
<g id="node5" class="node">
<title>Node5</title>
<g id="a_node5"><a xlink:href="classlocomotor_1_1front_1_1components_1_1network_1_1_file_upload.html#abbb8544c46b88f1a6f1e163725aaa1b3" target="_top" xlink:title="locomotor.front.components.network.\lFileUpload.send">
<polygon fill="#ffffff" stroke="#000000" points="570.6631,-362.5 570.6631,-390.5 750.6377,-390.5 750.6377,-362.5 570.6631,-362.5"/>
<text text-anchor="start" x="578.6631" y="-378.5" font-family="Helvetica,sans-Serif" font-size="10.00" fill="#000000">locomotor.front.components.network.</text>
<text text-anchor="middle" x="660.6504" y="-368.5" font-family="Helvetica,sans-Serif" font-size="10.00" fill="#000000">FileUpload.send</text>
</a>
</g>
</g>
<!-- Node4&#45;&gt;Node5 -->
<g id="edge4" class="edge">
<title>Node4&#45;&gt;Node5</title>
<path fill="none" stroke="#191970" d="M529.8733,-390.7037C539.8979,-389.6149 550.1531,-388.5011 560.2937,-387.3997"/>
<polygon fill="#191970" stroke="#191970" points="560.8195,-390.8633 570.3831,-386.3039 560.0636,-383.9042 560.8195,-390.8633"/>
</g>
<!-- Node6 -->
<g id="node6" class="node">
<title>Node6</title>
<g id="a_node6"><a xlink:href="classlocomotor_1_1front_1_1components_1_1network_1_1_file_upload.html#ad90278946fac31b255b0ea524061a60b" target="_top" xlink:title="locomotor.front.components.network.\lFileUpload.getURLConnection">
<polygon fill="#ffffff" stroke="#000000" points="570.6631,-409.5 570.6631,-437.5 750.6377,-437.5 750.6377,-409.5 570.6631,-409.5"/>
<text text-anchor="start" x="578.6631" y="-425.5" font-family="Helvetica,sans-Serif" font-size="10.00" fill="#000000">locomotor.front.components.network.</text>
<text text-anchor="middle" x="660.6504" y="-415.5" font-family="Helvetica,sans-Serif" font-size="10.00" fill="#000000">FileUpload.getURLConnection</text>
</a>
</g>
</g>
<!-- Node4&#45;&gt;Node6 -->
<g id="edge5" class="edge">
<title>Node4&#45;&gt;Node6</title>
<path fill="none" stroke="#191970" d="M529.8733,-409.8882C539.8979,-410.9315 550.1531,-411.999 560.2937,-413.0544"/>
<polygon fill="#191970" stroke="#191970" points="560.0745,-416.5504 570.3831,-414.1046 560.7992,-409.5881 560.0745,-416.5504"/>
</g>
<!-- Node7&#45;&gt;Node2 -->
<g id="edge8" class="edge">
<title>Node7&#45;&gt;Node2</title>
<path fill="none" stroke="#191970" d="M269.3329,-331.4586C298.0557,-325.5639 331.6238,-318.6749 361.3317,-312.5781"/>
<polygon fill="#191970" stroke="#191970" points="362.1538,-315.9825 371.246,-310.5435 360.7465,-309.1254 362.1538,-315.9825"/>
</g>
<!-- Node7&#45;&gt;Node4 -->
<g id="edge9" class="edge">
<title>Node7&#45;&gt;Node4</title>
<path fill="none" stroke="#191970" d="M261.7808,-359.5211C294.35,-367.0236 334.6386,-376.3042 368.6345,-384.1353"/>
<polygon fill="#191970" stroke="#191970" points="367.9741,-387.5748 378.5046,-386.4089 369.5454,-380.7534 367.9741,-387.5748"/>
</g>
<!-- Node8 -->
<g id="node8" class="node">
<title>Node8</title>
<g id="a_node8"><a xlink:href="classlocomotor_1_1front_1_1components_1_1_front_resource_manager.html#a0137fff2228ab372a477b862b10abd00" target="_top" xlink:title="locomotor.front.components.\lFrontResourceManager.FrontResource\lManager">
<polygon fill="#ffffff" stroke="#000000" points="344.6885,-329.5 344.6885,-367.5 534.6631,-367.5 534.6631,-329.5 344.6885,-329.5"/>
<text text-anchor="start" x="352.6885" y="-355.5" font-family="Helvetica,sans-Serif" font-size="10.00" fill="#000000">locomotor.front.components.</text>
<text text-anchor="start" x="352.6885" y="-345.5" font-family="Helvetica,sans-Serif" font-size="10.00" fill="#000000">FrontResourceManager.FrontResource</text>
<text text-anchor="middle" x="439.6758" y="-335.5" font-family="Helvetica,sans-Serif" font-size="10.00" fill="#000000">Manager</text>
</a>
</g>
</g>
<!-- Node7&#45;&gt;Node8 -->
<g id="edge7" class="edge">
<title>Node7&#45;&gt;Node8</title>
<path fill="none" stroke="#191970" d="M288.8023,-346.6043C303.4952,-346.7889 318.8734,-346.9821 333.9569,-347.1717"/>
<polygon fill="#191970" stroke="#191970" points="334.2969,-350.6761 344.3401,-347.3021 334.3849,-343.6767 334.2969,-350.6761"/>
</g>
<!-- Node9&#45;&gt;Node2 -->
<g id="edge12" class="edge">
<title>Node9&#45;&gt;Node2</title>
<path fill="none" stroke="#191970" d="M218.4331,-193.5727C244.4802,-213.8339 295.6309,-251.1302 344.6885,-272.5 350.4704,-275.0186 356.57,-277.3111 362.7741,-279.3902"/>
<polygon fill="#191970" stroke="#191970" points="361.9889,-282.8125 372.5786,-282.4834 364.095,-276.1368 361.9889,-282.8125"/>
</g>
<!-- Node10 -->
<g id="node10" class="node">
<title>Node10</title>
<g id="a_node10"><a xlink:href="classlocomotor_1_1components_1_1_resource_manager.html#a2a47b3989b5c854f2f6eb9a0483dc923" target="_top" xlink:title="locomotor.components.Resource\lManager.exists">
<polygon fill="#ffffff" stroke="#000000" points="358.5801,-94.5 358.5801,-122.5 520.7715,-122.5 520.7715,-94.5 358.5801,-94.5"/>
<text text-anchor="start" x="366.5801" y="-110.5" font-family="Helvetica,sans-Serif" font-size="10.00" fill="#000000">locomotor.components.Resource</text>
<text text-anchor="middle" x="439.6758" y="-100.5" font-family="Helvetica,sans-Serif" font-size="10.00" fill="#000000">Manager.exists</text>
</a>
</g>
</g>
<!-- Node9&#45;&gt;Node10 -->
<g id="edge11" class="edge">
<title>Node9&#45;&gt;Node10</title>
<path fill="none" stroke="#191970" d="M239.9928,-165.4562C268.7502,-155.3664 308.9013,-141.7866 344.6885,-131.5 352.398,-129.284 360.4997,-127.102 368.5856,-125.0171"/>
<polygon fill="#191970" stroke="#191970" points="369.5797,-128.3759 378.4134,-122.5264 367.86,-121.5904 369.5797,-128.3759"/>
</g>
<!-- Node11 -->
<g id="node11" class="node">
<title>Node11</title>
<g id="a_node11"><a xlink:href="classlocomotor_1_1front_1_1components_1_1network_1_1_client_request.html#a72ff6ced7eee9d7373f0c2ee95b0b208" target="_top" xlink:title="locomotor.front.components.network.\lClientRequest.requestBinary">
<polygon fill="#ffffff" stroke="#000000" points="349.6885,-47.5 349.6885,-75.5 529.6631,-75.5 529.6631,-47.5 349.6885,-47.5"/>
<text text-anchor="start" x="357.6885" y="-63.5" font-family="Helvetica,sans-Serif" font-size="10.00" fill="#000000">locomotor.front.components.network.</text>
<text text-anchor="middle" x="439.6758" y="-53.5" font-family="Helvetica,sans-Serif" font-size="10.00" fill="#000000">ClientRequest.requestBinary</text>
</a>
</g>
</g>
<!-- Node9&#45;&gt;Node11 -->
<g id="edge13" class="edge">
<title>Node9&#45;&gt;Node11</title>
<path fill="none" stroke="#191970" d="M217.9196,-165.3833C243.7259,-144.6587 295.0411,-106.1215 344.6885,-84.5 349.4757,-82.4152 354.4845,-80.4992 359.5925,-78.7417"/>
<polygon fill="#191970" stroke="#191970" points="361.057,-81.9473 369.5057,-75.5543 358.9143,-75.2833 361.057,-81.9473"/>
</g>
<!-- Node12 -->
<g id="node12" class="node">
<title>Node12</title>
<g id="a_node12"><a xlink:href="classlocomotor_1_1front_1_1components_1_1network_1_1_binary_object.html#a90388140e3ce171ba87fc79ee4b8196a" target="_top" xlink:title="locomotor.front.components.network.\lBinaryObject.isSuccess">
<polygon fill="#ffffff" stroke="#000000" points="349.6885,-.5 349.6885,-28.5 529.6631,-28.5 529.6631,-.5 349.6885,-.5"/>
<text text-anchor="start" x="357.6885" y="-16.5" font-family="Helvetica,sans-Serif" font-size="10.00" fill="#000000">locomotor.front.components.network.</text>
<text text-anchor="middle" x="439.6758" y="-6.5" font-family="Helvetica,sans-Serif" font-size="10.00" fill="#000000">BinaryObject.isSuccess</text>
</a>
</g>
</g>
<!-- Node9&#45;&gt;Node12 -->
<g id="edge14" class="edge">
<title>Node9&#45;&gt;Node12</title>
<path fill="none" stroke="#191970" d="M211.0058,-165.2713C232.2538,-136.4272 284.6219,-70.9708 344.6885,-37.5 347.9956,-35.6572 351.4477,-33.9609 354.9946,-32.3996"/>
<polygon fill="#191970" stroke="#191970" points="356.5821,-35.5344 364.5698,-28.574 353.985,-29.034 356.5821,-35.5344"/>
</g>
<!-- Node13 -->
<g id="node13" class="node">
<title>Node13</title>
<g id="a_node13"><a xlink:href="classlocomotor_1_1front_1_1components_1_1network_1_1_binary_object.html#aae3528e21078cf05c08e7f789fa882f3" target="_top" xlink:title="locomotor.front.components.network.\lBinaryObject.getAsBinary">
<polygon fill="#ffffff" stroke="#000000" points="349.6885,-235.5 349.6885,-263.5 529.6631,-263.5 529.6631,-235.5 349.6885,-235.5"/>
<text text-anchor="start" x="357.6885" y="-251.5" font-family="Helvetica,sans-Serif" font-size="10.00" fill="#000000">locomotor.front.components.network.</text>
<text text-anchor="middle" x="439.6758" y="-241.5" font-family="Helvetica,sans-Serif" font-size="10.00" fill="#000000">BinaryObject.getAsBinary</text>
</a>
</g>
</g>
<!-- Node9&#45;&gt;Node13 -->
<g id="edge15" class="edge">
<title>Node9&#45;&gt;Node13</title>
<path fill="none" stroke="#191970" d="M242.5418,-193.5746C271.1365,-203.0561 310.0424,-215.591 344.6885,-225.5 353.4554,-228.0074 362.7161,-230.5171 371.8792,-232.9182"/>
<polygon fill="#191970" stroke="#191970" points="371.1978,-236.3571 381.7559,-235.4758 372.9526,-229.5807 371.1978,-236.3571"/>
</g>
<!-- Node14 -->
<g id="node14" class="node">
<title>Node14</title>
<g id="a_node14"><a xlink:href="classlocomotor_1_1components_1_1_resource_manager.html#a4441d9d93c37b9fc580eb8f13f9d9590" target="_top" xlink:title="locomotor.components.Resource\lManager.getVersion">
<polygon fill="#ffffff" stroke="#000000" points="358.5801,-188.5 358.5801,-216.5 520.7715,-216.5 520.7715,-188.5 358.5801,-188.5"/>
<text text-anchor="start" x="366.5801" y="-204.5" font-family="Helvetica,sans-Serif" font-size="10.00" fill="#000000">locomotor.components.Resource</text>
<text text-anchor="middle" x="439.6758" y="-194.5" font-family="Helvetica,sans-Serif" font-size="10.00" fill="#000000">Manager.getVersion</text>
</a>
</g>
</g>
<!-- Node9&#45;&gt;Node14 -->
<g id="edge16" class="edge">
<title>Node9&#45;&gt;Node14</title>
<path fill="none" stroke="#191970" d="M308.7687,-189.8897C321.933,-191.1578 335.2861,-192.4441 348.1795,-193.6862"/>
<polygon fill="#191970" stroke="#191970" points="348.1193,-197.1965 358.4088,-194.6716 348.7906,-190.2287 348.1193,-197.1965"/>
</g>
<!-- Node15 -->
<g id="node15" class="node">
<title>Node15</title>
<g id="a_node15"><a xlink:href="classlocomotor_1_1front_1_1components_1_1network_1_1_binary_object.html#a8f518227eb38895cf5f2c5ece567d7cb" target="_top" xlink:title="locomotor.front.components.network.\lBinaryObject.getErrorMessage">
<polygon fill="#ffffff" stroke="#000000" points="349.6885,-141.5 349.6885,-169.5 529.6631,-169.5 529.6631,-141.5 349.6885,-141.5"/>
<text text-anchor="start" x="357.6885" y="-157.5" font-family="Helvetica,sans-Serif" font-size="10.00" fill="#000000">locomotor.front.components.network.</text>
<text text-anchor="middle" x="439.6758" y="-147.5" font-family="Helvetica,sans-Serif" font-size="10.00" fill="#000000">BinaryObject.getErrorMessage</text>
</a>
</g>
</g>
<!-- Node9&#45;&gt;Node15 -->
<g id="edge17" class="edge">
<title>Node9&#45;&gt;Node15</title>
<path fill="none" stroke="#191970" d="M308.7687,-168.6585C318.9642,-167.6337 329.2729,-166.5975 339.3936,-165.5802"/>
<polygon fill="#191970" stroke="#191970" points="339.8406,-169.053 349.4404,-164.5703 339.1405,-162.0881 339.8406,-169.053"/>
</g>
</g>
</svg>
