<?xml version="1.0" encoding="UTF-8" standalone="no"?>
<!DOCTYPE svg PUBLIC "-//W3C//DTD SVG 1.1//EN"
 "http://www.w3.org/Graphics/SVG/1.1/DTD/svg11.dtd">
<!-- Generated by graphviz version 2.40.1 (20161225.0304)
 -->
<!-- Title: getItemFromJson Pages: 1 -->
<!--zoomable 632 -->
<svg id="main" version="1.1" xmlns="http://www.w3.org/2000/svg" xmlns:xlink="http://www.w3.org/1999/xlink" xml:space="preserve" onload="init(evt)">
<style type="text/css"><![CDATA[
.edge:hover path { stroke: red; }
.edge:hover polygon { stroke: red; fill: red; }
]]></style>
<script type="text/javascript"><![CDATA[
var edges = document.getElementsByTagName('g');
if (edges && edges.length) {
  for (var i=0;i<edges.length;i++) {
    if (edges[i].id.substr(0,4)=='edge') {
      edges[i].setAttribute('class','edge');
    }
  }
}
]]></script>
        <defs>
                <circle id="rim" cx="0" cy="0" r="7"/>
                <circle id="rim2" cx="0" cy="0" r="3.5"/>
                <g id="zoomPlus">
                        <use xlink:href="#rim" fill="#404040">
                                <set attributeName="fill" to="#808080" begin="zoomplus.mouseover" end="zoomplus.mouseout"/>
                        </use>
                        <path d="M-4,0h8M0,-4v8" fill="none" stroke="white" stroke-width="1.5" pointer-events="none"/>
                </g>
                <g id="zoomMin">
                        <use xlink:href="#rim" fill="#404040">
                                <set attributeName="fill" to="#808080" begin="zoomminus.mouseover" end="zoomminus.mouseout"/>
                        </use>
                        <path d="M-4,0h8" fill="none" stroke="white" stroke-width="1.5" pointer-events="none"/>
                </g>
                <g id="dirArrow">
                        <path fill="none" stroke="white" stroke-width="1.5" d="M0,-3.0v7 M-2.5,-0.5L0,-3.0L2.5,-0.5"/>
                </g>
               <g id="resetDef">
                       <use xlink:href="#rim2" fill="#404040">
                               <set attributeName="fill" to="#808080" begin="reset.mouseover" end="reset.mouseout"/>
                       </use>
               </g>
        </defs>

<script type="text/javascript">
var viewWidth = 695;
var viewHeight = 632;
var sectionId = 'dynsection-3';
</script>
<script xlink:href="svgpan.js"/>
<svg id="graph" class="graph">
<g id="viewport">
<title>getItemFromJson</title>
<polygon fill="#ffffff" stroke="transparent" points="-4,4 -4,-628 691.2344,-628 691.2344,4 -4,4"/>
<!-- Node1 -->
<g id="node1" class="node">
<title>Node1</title>
<polygon fill="#bfbfbf" stroke="#000000" points="0,-355.5 0,-373.5 93.8027,-373.5 93.8027,-355.5 0,-355.5"/>
<text text-anchor="middle" x="46.9014" y="-361.5" font-family="Helvetica,sans-Serif" font-size="10.00" fill="#000000">getItemFromJson</text>
</g>
<!-- Node2 -->
<g id="node2" class="node">
<title>Node2</title>
<g id="a_node2"><a xlink:href="classlocomotor_1_1components_1_1types_1_1_c_integer.html#acc13169c043f180e6472a29d19ff5124" target="_top" xlink:title="locomotor.components.types.\lCInteger.fromJSON">
<polygon fill="#ffffff" stroke="#000000" points="132.0122,-501.5 132.0122,-529.5 278.0854,-529.5 278.0854,-501.5 132.0122,-501.5"/>
<text text-anchor="start" x="140.0122" y="-517.5" font-family="Helvetica,sans-Serif" font-size="10.00" fill="#000000">locomotor.components.types.</text>
<text text-anchor="middle" x="205.0488" y="-507.5" font-family="Helvetica,sans-Serif" font-size="10.00" fill="#000000">CInteger.fromJSON</text>
</a>
</g>
</g>
<!-- Node1&#45;&gt;Node2 -->
<g id="edge1" class="edge">
<title>Node1&#45;&gt;Node2</title>
<path fill="none" stroke="#191970" d="M54.7647,-373.714C69.0715,-390.298 100.5846,-426.0051 129.8027,-453.5 145.2597,-468.0454 163.6272,-483.2164 178.3457,-494.9105"/>
<polygon fill="#191970" stroke="#191970" points="176.5185,-497.9265 186.5405,-501.3631 180.849,-492.4268 176.5185,-497.9265"/>
</g>
<!-- Node5 -->
<g id="node5" class="node">
<title>Node5</title>
<g id="a_node5"><a xlink:href="classlocomotor_1_1components_1_1types_1_1_c_weighted_integer.html#af46cf72d2c75b781f89dcce0e0e5ef95" target="_top" xlink:title="locomotor.components.types.\lCWeightedInteger.fromJSON">
<polygon fill="#ffffff" stroke="#000000" points="132.0122,-548.5 132.0122,-576.5 278.0854,-576.5 278.0854,-548.5 132.0122,-548.5"/>
<text text-anchor="start" x="140.0122" y="-564.5" font-family="Helvetica,sans-Serif" font-size="10.00" fill="#000000">locomotor.components.types.</text>
<text text-anchor="middle" x="205.0488" y="-554.5" font-family="Helvetica,sans-Serif" font-size="10.00" fill="#000000">CWeightedInteger.fromJSON</text>
</a>
</g>
</g>
<!-- Node1&#45;&gt;Node5 -->
<g id="edge4" class="edge">
<title>Node1&#45;&gt;Node5</title>
<path fill="none" stroke="#191970" d="M48.546,-373.6912C54.2087,-402.6255 75.616,-492.6872 129.8027,-539.5 131.3145,-540.806 132.8991,-542.0379 134.5433,-543.1999"/>
<polygon fill="#191970" stroke="#191970" points="132.8336,-546.2562 143.1997,-548.4461 136.4617,-540.2699 132.8336,-546.2562"/>
</g>
<!-- Node7 -->
<g id="node7" class="node">
<title>Node7</title>
<g id="a_node7"><a xlink:href="classlocomotor_1_1components_1_1types_1_1_c_float.html#a06da3e8fd1fdad2882c5878589963311" target="_top" xlink:title="locomotor.components.types.\lCFloat.fromJSON">
<polygon fill="#ffffff" stroke="#000000" points="132.0122,-415.5 132.0122,-443.5 278.0854,-443.5 278.0854,-415.5 132.0122,-415.5"/>
<text text-anchor="start" x="140.0122" y="-431.5" font-family="Helvetica,sans-Serif" font-size="10.00" fill="#000000">locomotor.components.types.</text>
<text text-anchor="middle" x="205.0488" y="-421.5" font-family="Helvetica,sans-Serif" font-size="10.00" fill="#000000">CFloat.fromJSON</text>
</a>
</g>
</g>
<!-- Node1&#45;&gt;Node7 -->
<g id="edge7" class="edge">
<title>Node1&#45;&gt;Node7</title>
<path fill="none" stroke="#191970" d="M68.8911,-373.538C92.7087,-383.3272 131.3214,-399.1974 161.3555,-411.5417"/>
<polygon fill="#191970" stroke="#191970" points="160.196,-414.8491 170.7758,-415.4135 162.8571,-408.3747 160.196,-414.8491"/>
</g>
<!-- Node10 -->
<g id="node10" class="node">
<title>Node10</title>
<g id="a_node10"><a xlink:href="classlocomotor_1_1components_1_1types_1_1_c_boolean.html#a1bdea5ac8c77993c2f48a0a99a0ce032" target="_top" xlink:title="locomotor.components.types.\lCBoolean.fromJSON">
<polygon fill="#ffffff" stroke="#000000" points="132.0122,-356.5 132.0122,-384.5 278.0854,-384.5 278.0854,-356.5 132.0122,-356.5"/>
<text text-anchor="start" x="140.0122" y="-372.5" font-family="Helvetica,sans-Serif" font-size="10.00" fill="#000000">locomotor.components.types.</text>
<text text-anchor="middle" x="205.0488" y="-362.5" font-family="Helvetica,sans-Serif" font-size="10.00" fill="#000000">CBoolean.fromJSON</text>
</a>
</g>
</g>
<!-- Node1&#45;&gt;Node10 -->
<g id="edge11" class="edge">
<title>Node1&#45;&gt;Node10</title>
<path fill="none" stroke="#191970" d="M93.9226,-366.284C102.6819,-366.6163 112.0729,-366.9726 121.5488,-367.3321"/>
<polygon fill="#191970" stroke="#191970" points="121.7132,-370.8407 131.8388,-367.7225 121.9787,-363.8458 121.7132,-370.8407"/>
</g>
<!-- Node13 -->
<g id="node13" class="node">
<title>Node13</title>
<g id="a_node13"><a xlink:href="classlocomotor_1_1components_1_1types_1_1_c_interval_integer.html#a7325219bbe286c1651eac4d7cb1dcf89" target="_top" xlink:title="locomotor.components.types.\lCIntervalInteger.fromJSON">
<polygon fill="#ffffff" stroke="#000000" points="132.0122,-233.5 132.0122,-261.5 278.0854,-261.5 278.0854,-233.5 132.0122,-233.5"/>
<text text-anchor="start" x="140.0122" y="-249.5" font-family="Helvetica,sans-Serif" font-size="10.00" fill="#000000">locomotor.components.types.</text>
<text text-anchor="middle" x="205.0488" y="-239.5" font-family="Helvetica,sans-Serif" font-size="10.00" fill="#000000">CIntervalInteger.fromJSON</text>
</a>
</g>
</g>
<!-- Node1&#45;&gt;Node13 -->
<g id="edge14" class="edge">
<title>Node1&#45;&gt;Node13</title>
<path fill="none" stroke="#191970" d="M56.7324,-355.3959C71.8838,-341.5536 102.0961,-314.6917 129.8027,-294.5 143.0518,-284.8445 158.2912,-275.0933 171.5755,-266.9951"/>
<polygon fill="#191970" stroke="#191970" points="173.6504,-269.8312 180.4116,-261.6741 170.0393,-263.8346 173.6504,-269.8312"/>
</g>
<!-- Node17 -->
<g id="node17" class="node">
<title>Node17</title>
<g id="a_node17"><a xlink:href="classlocomotor_1_1components_1_1types_1_1_c_interval_double.html#a05b10f1076a88b090171dc5c92d1e51a" target="_top" xlink:title="locomotor.components.types.\lCIntervalDouble.fromJSON">
<polygon fill="#ffffff" stroke="#000000" points="132.0122,-303.5 132.0122,-331.5 278.0854,-331.5 278.0854,-303.5 132.0122,-303.5"/>
<text text-anchor="start" x="140.0122" y="-319.5" font-family="Helvetica,sans-Serif" font-size="10.00" fill="#000000">locomotor.components.types.</text>
<text text-anchor="middle" x="205.0488" y="-309.5" font-family="Helvetica,sans-Serif" font-size="10.00" fill="#000000">CIntervalDouble.fromJSON</text>
</a>
</g>
</g>
<!-- Node1&#45;&gt;Node17 -->
<g id="edge18" class="edge">
<title>Node1&#45;&gt;Node17</title>
<path fill="none" stroke="#191970" d="M77.3938,-355.4379C97.4314,-349.4829 124.2644,-341.5084 148.1574,-334.4076"/>
<polygon fill="#191970" stroke="#191970" points="149.2518,-337.7337 157.8404,-331.5299 147.2576,-331.0238 149.2518,-337.7337"/>
</g>
<!-- Node19 -->
<g id="node19" class="node">
<title>Node19</title>
<g id="a_node19"><a xlink:href="classlocomotor_1_1components_1_1types_1_1_c_mapped_string_list.html#a3834a44c64a57457335f1f296b272c79" target="_top" xlink:title="locomotor.components.types.\lCMappedStringList.fromJSON">
<polygon fill="#ffffff" stroke="#000000" points="129.8027,-133.5 129.8027,-161.5 280.2949,-161.5 280.2949,-133.5 129.8027,-133.5"/>
<text text-anchor="start" x="137.8027" y="-149.5" font-family="Helvetica,sans-Serif" font-size="10.00" fill="#000000">locomotor.components.types.</text>
<text text-anchor="middle" x="205.0488" y="-139.5" font-family="Helvetica,sans-Serif" font-size="10.00" fill="#000000">CMappedStringList.fromJSON</text>
</a>
</g>
</g>
<!-- Node1&#45;&gt;Node19 -->
<g id="edge22" class="edge">
<title>Node1&#45;&gt;Node19</title>
<path fill="none" stroke="#191970" d="M51.4325,-355.1774C62.9131,-331.9772 94.7344,-270.2251 129.8027,-224.5 145.3978,-204.1658 165.8708,-183.5267 181.524,-168.7416"/>
<polygon fill="#191970" stroke="#191970" points="184.2857,-170.9524 189.2189,-161.5761 179.5153,-165.8296 184.2857,-170.9524"/>
</g>
<!-- Node22 -->
<g id="node22" class="node">
<title>Node22</title>
<g id="a_node22"><a xlink:href="classlocomotor_1_1components_1_1types_1_1_c_tree.html#a82724a3000f4e1d5ff5fed5365e1480f" target="_top" xlink:title="locomotor.components.types.\lCTree.fromJSON">
<polygon fill="#ffffff" stroke="#000000" points="132.0122,-43.5 132.0122,-71.5 278.0854,-71.5 278.0854,-43.5 132.0122,-43.5"/>
<text text-anchor="start" x="140.0122" y="-59.5" font-family="Helvetica,sans-Serif" font-size="10.00" fill="#000000">locomotor.components.types.</text>
<text text-anchor="middle" x="205.0488" y="-49.5" font-family="Helvetica,sans-Serif" font-size="10.00" fill="#000000">CTree.fromJSON</text>
</a>
</g>
</g>
<!-- Node1&#45;&gt;Node22 -->
<g id="edge25" class="edge">
<title>Node1&#45;&gt;Node22</title>
<path fill="none" stroke="#191970" d="M48.3156,-355.4913C53.862,-322.277 76.5007,-204.4627 129.8027,-124.5 141.9179,-106.3251 160.1179,-89.9392 175.5837,-77.9217"/>
<polygon fill="#191970" stroke="#191970" points="177.9519,-80.52 183.8385,-71.711 173.7434,-74.9263 177.9519,-80.52"/>
</g>
<!-- Node3 -->
<g id="node3" class="node">
<title>Node3</title>
<g id="a_node3"><a xlink:href="classlocomotor_1_1components_1_1types_1_1_c_long.html#aef23d6d36c93f0f66355edabbc586fd4" target="_top" xlink:title="locomotor.components.types.\lCLong.value">
<polygon fill="#ffffff" stroke="#000000" points="337.6914,-548.5 337.6914,-576.5 483.7646,-576.5 483.7646,-548.5 337.6914,-548.5"/>
<text text-anchor="start" x="345.6914" y="-564.5" font-family="Helvetica,sans-Serif" font-size="10.00" fill="#000000">locomotor.components.types.</text>
<text text-anchor="middle" x="410.728" y="-554.5" font-family="Helvetica,sans-Serif" font-size="10.00" fill="#000000">CLong.value</text>
</a>
</g>
</g>
<!-- Node2&#45;&gt;Node3 -->
<g id="edge2" class="edge">
<title>Node2&#45;&gt;Node3</title>
<path fill="none" stroke="#191970" d="M266.4808,-529.5379C289.3711,-534.7686 315.547,-540.7501 339.2616,-546.1691"/>
<polygon fill="#191970" stroke="#191970" points="338.729,-549.6376 349.2575,-548.4533 340.2885,-542.8135 338.729,-549.6376"/>
</g>
<!-- Node4 -->
<g id="node4" class="node">
<title>Node4</title>
<g id="a_node4"><a xlink:href="classlocomotor_1_1components_1_1types_1_1_c_integer.html#a4af1398e767f4254cc4865f7b8fd9e3e" target="_top" xlink:title="locomotor.components.types.\lCInteger.CInteger">
<polygon fill="#ffffff" stroke="#000000" points="337.6914,-501.5 337.6914,-529.5 483.7646,-529.5 483.7646,-501.5 337.6914,-501.5"/>
<text text-anchor="start" x="345.6914" y="-517.5" font-family="Helvetica,sans-Serif" font-size="10.00" fill="#000000">locomotor.components.types.</text>
<text text-anchor="middle" x="410.728" y="-507.5" font-family="Helvetica,sans-Serif" font-size="10.00" fill="#000000">CInteger.CInteger</text>
</a>
</g>
</g>
<!-- Node2&#45;&gt;Node4 -->
<g id="edge3" class="edge">
<title>Node2&#45;&gt;Node4</title>
<path fill="none" stroke="#191970" d="M278.1427,-515.5C294.1112,-515.5 311.1266,-515.5 327.4582,-515.5"/>
<polygon fill="#191970" stroke="#191970" points="327.5232,-519.0001 337.5232,-515.5 327.5231,-512.0001 327.5232,-519.0001"/>
</g>
<!-- Node5&#45;&gt;Node3 -->
<g id="edge5" class="edge">
<title>Node5&#45;&gt;Node3</title>
<path fill="none" stroke="#191970" d="M278.1427,-562.5C294.1112,-562.5 311.1266,-562.5 327.4582,-562.5"/>
<polygon fill="#191970" stroke="#191970" points="327.5232,-566.0001 337.5232,-562.5 327.5231,-559.0001 327.5232,-566.0001"/>
</g>
<!-- Node6 -->
<g id="node6" class="node">
<title>Node6</title>
<g id="a_node6"><a xlink:href="classlocomotor_1_1components_1_1types_1_1_c_weighted_integer.html#ab843196350aff5010fe82cdfc6d1a432" target="_top" xlink:title="locomotor.components.types.\lCWeightedInteger.CWeightedInteger">
<polygon fill="#ffffff" stroke="#000000" points="321.1875,-595.5 321.1875,-623.5 500.2686,-623.5 500.2686,-595.5 321.1875,-595.5"/>
<text text-anchor="start" x="329.1875" y="-611.5" font-family="Helvetica,sans-Serif" font-size="10.00" fill="#000000">locomotor.components.types.</text>
<text text-anchor="middle" x="410.728" y="-601.5" font-family="Helvetica,sans-Serif" font-size="10.00" fill="#000000">CWeightedInteger.CWeightedInteger</text>
</a>
</g>
</g>
<!-- Node5&#45;&gt;Node6 -->
<g id="edge6" class="edge">
<title>Node5&#45;&gt;Node6</title>
<path fill="none" stroke="#191970" d="M266.4808,-576.5379C289.3711,-581.7686 315.547,-587.7501 339.2616,-593.1691"/>
<polygon fill="#191970" stroke="#191970" points="338.729,-596.6376 349.2575,-595.4533 340.2885,-589.8135 338.729,-596.6376"/>
</g>
<!-- Node8 -->
<g id="node8" class="node">
<title>Node8</title>
<g id="a_node8"><a xlink:href="classlocomotor_1_1components_1_1types_1_1_c_float.html#a0d891fca54de58865525ca2d63c39b65" target="_top" xlink:title="locomotor.components.types.\lCFloat.value">
<polygon fill="#ffffff" stroke="#000000" points="541.1611,-436.5 541.1611,-464.5 687.2344,-464.5 687.2344,-436.5 541.1611,-436.5"/>
<text text-anchor="start" x="549.1611" y="-452.5" font-family="Helvetica,sans-Serif" font-size="10.00" fill="#000000">locomotor.components.types.</text>
<text text-anchor="middle" x="614.1978" y="-442.5" font-family="Helvetica,sans-Serif" font-size="10.00" fill="#000000">CFloat.value</text>
</a>
</g>
</g>
<!-- Node7&#45;&gt;Node8 -->
<g id="edge8" class="edge">
<title>Node7&#45;&gt;Node8</title>
<path fill="none" stroke="#191970" d="M258.9936,-443.5492C277.0751,-447.6108 297.4343,-451.4887 316.2949,-453.5 388.4921,-461.1993 471.0873,-459.5526 530.9677,-456.4946"/>
<polygon fill="#191970" stroke="#191970" points="531.3269,-459.9805 541.1257,-455.9513 530.953,-452.9905 531.3269,-459.9805"/>
</g>
<!-- Node9 -->
<g id="node9" class="node">
<title>Node9</title>
<g id="a_node9"><a xlink:href="classlocomotor_1_1components_1_1types_1_1_c_float.html#aef395a3a5c07d801027ac513d66e27bc" target="_top" xlink:title="locomotor.components.types.\lCFloat.CFloat">
<polygon fill="#ffffff" stroke="#000000" points="337.6914,-415.5 337.6914,-443.5 483.7646,-443.5 483.7646,-415.5 337.6914,-415.5"/>
<text text-anchor="start" x="345.6914" y="-431.5" font-family="Helvetica,sans-Serif" font-size="10.00" fill="#000000">locomotor.components.types.</text>
<text text-anchor="middle" x="410.728" y="-421.5" font-family="Helvetica,sans-Serif" font-size="10.00" fill="#000000">CFloat.CFloat</text>
</a>
</g>
</g>
<!-- Node7&#45;&gt;Node9 -->
<g id="edge9" class="edge">
<title>Node7&#45;&gt;Node9</title>
<path fill="none" stroke="#191970" d="M278.1427,-429.5C294.1112,-429.5 311.1266,-429.5 327.4582,-429.5"/>
<polygon fill="#191970" stroke="#191970" points="327.5232,-433.0001 337.5232,-429.5 327.5231,-426.0001 327.5232,-433.0001"/>
</g>
<!-- Node9&#45;&gt;Node8 -->
<g id="edge10" class="edge">
<title>Node9&#45;&gt;Node8</title>
<path fill="none" stroke="#191970" d="M483.8978,-437.0518C499.1317,-438.6241 515.2954,-440.2923 530.8643,-441.8992"/>
<polygon fill="#191970" stroke="#191970" points="530.6872,-445.3994 540.9937,-442.9447 531.4059,-438.4364 530.6872,-445.3994"/>
</g>
<!-- Node11 -->
<g id="node11" class="node">
<title>Node11</title>
<g id="a_node11"><a xlink:href="classlocomotor_1_1components_1_1types_1_1_c_boolean.html#a04219e3dc4a138fa88ee6876fb62eebc" target="_top" xlink:title="locomotor.components.types.\lCBoolean.CBoolean">
<polygon fill="#ffffff" stroke="#000000" points="337.6914,-368.5 337.6914,-396.5 483.7646,-396.5 483.7646,-368.5 337.6914,-368.5"/>
<text text-anchor="start" x="345.6914" y="-384.5" font-family="Helvetica,sans-Serif" font-size="10.00" fill="#000000">locomotor.components.types.</text>
<text text-anchor="middle" x="410.728" y="-374.5" font-family="Helvetica,sans-Serif" font-size="10.00" fill="#000000">CBoolean.CBoolean</text>
</a>
</g>
</g>
<!-- Node10&#45;&gt;Node11 -->
<g id="edge12" class="edge">
<title>Node10&#45;&gt;Node11</title>
<path fill="none" stroke="#191970" d="M278.1427,-374.7645C294.1112,-375.6962 311.1266,-376.6889 327.4582,-377.6418"/>
<polygon fill="#191970" stroke="#191970" points="327.3362,-381.1405 337.5232,-378.229 327.744,-374.1524 327.3362,-381.1405"/>
</g>
<!-- Node12 -->
<g id="node12" class="node">
<title>Node12</title>
<g id="a_node12"><a xlink:href="classlocomotor_1_1components_1_1types_1_1_c_boolean.html#a9eac04fa64318139aa527377b2e03cc4" target="_top" xlink:title="locomotor.components.types.\lCBoolean.value">
<polygon fill="#ffffff" stroke="#000000" points="541.1611,-368.5 541.1611,-396.5 687.2344,-396.5 687.2344,-368.5 541.1611,-368.5"/>
<text text-anchor="start" x="549.1611" y="-384.5" font-family="Helvetica,sans-Serif" font-size="10.00" fill="#000000">locomotor.components.types.</text>
<text text-anchor="middle" x="614.1978" y="-374.5" font-family="Helvetica,sans-Serif" font-size="10.00" fill="#000000">CBoolean.value</text>
</a>
</g>
</g>
<!-- Node11&#45;&gt;Node12 -->
<g id="edge13" class="edge">
<title>Node11&#45;&gt;Node12</title>
<path fill="none" stroke="#191970" d="M483.8978,-382.5C499.1317,-382.5 515.2954,-382.5 530.8643,-382.5"/>
<polygon fill="#191970" stroke="#191970" points="530.9938,-386.0001 540.9937,-382.5 530.9937,-379.0001 530.9938,-386.0001"/>
</g>
<!-- Node14 -->
<g id="node14" class="node">
<title>Node14</title>
<g id="a_node14"><a xlink:href="classlocomotor_1_1components_1_1types_1_1_c_interval.html#a8977ca8c87b00639da116d1441a878ec" target="_top" xlink:title="locomotor.components.types.\lCInterval.min">
<polygon fill="#ffffff" stroke="#000000" points="337.6914,-274.5 337.6914,-302.5 483.7646,-302.5 483.7646,-274.5 337.6914,-274.5"/>
<text text-anchor="start" x="345.6914" y="-290.5" font-family="Helvetica,sans-Serif" font-size="10.00" fill="#000000">locomotor.components.types.</text>
<text text-anchor="middle" x="410.728" y="-280.5" font-family="Helvetica,sans-Serif" font-size="10.00" fill="#000000">CInterval.min</text>
</a>
</g>
</g>
<!-- Node13&#45;&gt;Node14 -->
<g id="edge15" class="edge">
<title>Node13&#45;&gt;Node14</title>
<path fill="none" stroke="#191970" d="M275.5442,-261.5525C293.2056,-265.0731 312.284,-268.8762 330.3846,-272.4844"/>
<polygon fill="#191970" stroke="#191970" points="329.8335,-275.9433 340.3248,-274.4659 331.202,-269.0784 329.8335,-275.9433"/>
</g>
<!-- Node15 -->
<g id="node15" class="node">
<title>Node15</title>
<g id="a_node15"><a xlink:href="classlocomotor_1_1components_1_1types_1_1_c_interval.html#a63edd36c00e0027edd899384e6f168f9" target="_top" xlink:title="locomotor.components.types.\lCInterval.max">
<polygon fill="#ffffff" stroke="#000000" points="337.6914,-227.5 337.6914,-255.5 483.7646,-255.5 483.7646,-227.5 337.6914,-227.5"/>
<text text-anchor="start" x="345.6914" y="-243.5" font-family="Helvetica,sans-Serif" font-size="10.00" fill="#000000">locomotor.components.types.</text>
<text text-anchor="middle" x="410.728" y="-233.5" font-family="Helvetica,sans-Serif" font-size="10.00" fill="#000000">CInterval.max</text>
</a>
</g>
</g>
<!-- Node13&#45;&gt;Node15 -->
<g id="edge16" class="edge">
<title>Node13&#45;&gt;Node15</title>
<path fill="none" stroke="#191970" d="M278.1427,-245.3677C294.1112,-244.9019 311.1266,-244.4055 327.4582,-243.9291"/>
<polygon fill="#191970" stroke="#191970" points="327.6295,-247.4257 337.5232,-243.6355 327.4253,-240.4287 327.6295,-247.4257"/>
</g>
<!-- Node16 -->
<g id="node16" class="node">
<title>Node16</title>
<g id="a_node16"><a xlink:href="classlocomotor_1_1components_1_1types_1_1_c_interval_integer.html#a4ece5be3d0255219efc9a1ec16f3775c" target="_top" xlink:title="locomotor.components.types.\lCIntervalInteger.CIntervalInteger">
<polygon fill="#ffffff" stroke="#000000" points="330.4648,-180.5 330.4648,-208.5 490.9912,-208.5 490.9912,-180.5 330.4648,-180.5"/>
<text text-anchor="start" x="338.4648" y="-196.5" font-family="Helvetica,sans-Serif" font-size="10.00" fill="#000000">locomotor.components.types.</text>
<text text-anchor="middle" x="410.728" y="-186.5" font-family="Helvetica,sans-Serif" font-size="10.00" fill="#000000">CIntervalInteger.CIntervalInteger</text>
</a>
</g>
</g>
<!-- Node13&#45;&gt;Node16 -->
<g id="edge17" class="edge">
<title>Node13&#45;&gt;Node16</title>
<path fill="none" stroke="#191970" d="M258.5039,-233.4943C276.822,-228.7136 297.4492,-223.3511 316.2949,-218.5 325.7554,-216.0647 335.7532,-213.5069 345.5644,-211.0056"/>
<polygon fill="#191970" stroke="#191970" points="346.4597,-214.3894 355.2867,-208.5299 344.7322,-207.6059 346.4597,-214.3894"/>
</g>
<!-- Node17&#45;&gt;Node14 -->
<g id="edge19" class="edge">
<title>Node17&#45;&gt;Node14</title>
<path fill="none" stroke="#191970" d="M278.1427,-307.194C294.1112,-304.9425 311.1266,-302.5434 327.4582,-300.2407"/>
<polygon fill="#191970" stroke="#191970" points="328.1098,-303.6836 337.5232,-298.8216 327.1324,-296.7521 328.1098,-303.6836"/>
</g>
<!-- Node17&#45;&gt;Node15 -->
<g id="edge20" class="edge">
<title>Node17&#45;&gt;Node15</title>
<path fill="none" stroke="#191970" d="M231.4281,-303.4411C253.6023,-292.0478 286.3802,-276.1853 316.2949,-265.5 323.5195,-262.9195 331.148,-260.5 338.8105,-258.2656"/>
<polygon fill="#191970" stroke="#191970" points="339.8294,-261.6149 348.5069,-255.536 337.9326,-254.8768 339.8294,-261.6149"/>
</g>
<!-- Node18 -->
<g id="node18" class="node">
<title>Node18</title>
<g id="a_node18"><a xlink:href="classlocomotor_1_1components_1_1types_1_1_c_interval_double.html#a1c646d0efc9520469e000c2282ca3386" target="_top" xlink:title="locomotor.components.types.\lCIntervalDouble.CIntervalDouble">
<polygon fill="#ffffff" stroke="#000000" points="329.6348,-321.5 329.6348,-349.5 491.8213,-349.5 491.8213,-321.5 329.6348,-321.5"/>
<text text-anchor="start" x="337.6348" y="-337.5" font-family="Helvetica,sans-Serif" font-size="10.00" fill="#000000">locomotor.components.types.</text>
<text text-anchor="middle" x="410.728" y="-327.5" font-family="Helvetica,sans-Serif" font-size="10.00" fill="#000000">CIntervalDouble.CIntervalDouble</text>
</a>
</g>
</g>
<!-- Node17&#45;&gt;Node18 -->
<g id="edge21" class="edge">
<title>Node17&#45;&gt;Node18</title>
<path fill="none" stroke="#191970" d="M278.1427,-323.8968C291.5223,-325.0677 305.6367,-326.3029 319.4682,-327.5134"/>
<polygon fill="#191970" stroke="#191970" points="319.208,-331.0039 329.4751,-328.3892 319.8183,-324.0306 319.208,-331.0039"/>
</g>
<!-- Node20 -->
<g id="node20" class="node">
<title>Node20</title>
<g id="a_node20"><a xlink:href="classlocomotor_1_1components_1_1types_1_1_c_string_list.html#aa9063c07592d04038c8a37cae1214de5" target="_top" xlink:title="locomotor.components.types.\lCStringList.treeFromJSON">
<polygon fill="#ffffff" stroke="#000000" points="337.6914,-133.5 337.6914,-161.5 483.7646,-161.5 483.7646,-133.5 337.6914,-133.5"/>
<text text-anchor="start" x="345.6914" y="-149.5" font-family="Helvetica,sans-Serif" font-size="10.00" fill="#000000">locomotor.components.types.</text>
<text text-anchor="middle" x="410.728" y="-139.5" font-family="Helvetica,sans-Serif" font-size="10.00" fill="#000000">CStringList.treeFromJSON</text>
</a>
</g>
</g>
<!-- Node19&#45;&gt;Node20 -->
<g id="edge23" class="edge">
<title>Node19&#45;&gt;Node20</title>
<path fill="none" stroke="#191970" d="M280.4683,-147.5C295.7042,-147.5 311.8063,-147.5 327.2986,-147.5"/>
<polygon fill="#191970" stroke="#191970" points="327.376,-151.0001 337.3759,-147.5 327.3759,-144.0001 327.376,-151.0001"/>
</g>
<!-- Node21 -->
<g id="node21" class="node">
<title>Node21</title>
<g id="a_node21"><a xlink:href="classlocomotor_1_1components_1_1types_1_1_c_mapped_string_list.html#a6ee84a38e1c5b58c08a7e9557cc959e1" target="_top" xlink:title="locomotor.components.types.\lCMappedStringList.CMappedStringList">
<polygon fill="#ffffff" stroke="#000000" points="316.2949,-86.5 316.2949,-114.5 505.1611,-114.5 505.1611,-86.5 316.2949,-86.5"/>
<text text-anchor="start" x="324.2949" y="-102.5" font-family="Helvetica,sans-Serif" font-size="10.00" fill="#000000">locomotor.components.types.</text>
<text text-anchor="middle" x="410.728" y="-92.5" font-family="Helvetica,sans-Serif" font-size="10.00" fill="#000000">CMappedStringList.CMappedStringList</text>
</a>
</g>
</g>
<!-- Node19&#45;&gt;Node21 -->
<g id="edge24" class="edge">
<title>Node19&#45;&gt;Node21</title>
<path fill="none" stroke="#191970" d="M266.4808,-133.4621C289.3711,-128.2314 315.547,-122.2499 339.2616,-116.8309"/>
<polygon fill="#191970" stroke="#191970" points="340.2885,-120.1865 349.2575,-114.5467 338.729,-113.3624 340.2885,-120.1865"/>
</g>
<!-- Node22&#45;&gt;Node22 -->
<g id="edge27" class="edge">
<title>Node22&#45;&gt;Node22</title>
<path fill="none" stroke="#191970" d="M178.0348,-71.5305C170.4309,-80.8898 179.4355,-90 205.0488,-90 221.0571,-90 230.5777,-86.4413 233.6105,-81.4873"/>
<polygon fill="#191970" stroke="#191970" points="237.0573,-80.8742 232.0628,-71.5305 230.1404,-81.9494 237.0573,-80.8742"/>
</g>
<!-- Node23 -->
<g id="node23" class="node">
<title>Node23</title>
<g id="a_node23"><a xlink:href="classlocomotor_1_1components_1_1types_1_1_c_tree.html#af0e7a198496b1627d0ff15ce0e6de1f2" target="_top" xlink:title="locomotor.components.types.\lCTree.CTree">
<polygon fill="#ffffff" stroke="#000000" points="541.1611,-22.5 541.1611,-50.5 687.2344,-50.5 687.2344,-22.5 541.1611,-22.5"/>
<text text-anchor="start" x="549.1611" y="-38.5" font-family="Helvetica,sans-Serif" font-size="10.00" fill="#000000">locomotor.components.types.</text>
<text text-anchor="middle" x="614.1978" y="-28.5" font-family="Helvetica,sans-Serif" font-size="10.00" fill="#000000">CTree.CTree</text>
</a>
</g>
</g>
<!-- Node22&#45;&gt;Node23 -->
<g id="edge26" class="edge">
<title>Node22&#45;&gt;Node23</title>
<path fill="none" stroke="#191970" d="M278.1965,-53.7456C349.1045,-50.1062 456.5442,-44.5917 530.7516,-40.783"/>
<polygon fill="#191970" stroke="#191970" points="531.1874,-44.2653 540.9948,-40.2572 530.8285,-37.2745 531.1874,-44.2653"/>
</g>
<!-- Node24 -->
<g id="node24" class="node">
<title>Node24</title>
<g id="a_node24"><a xlink:href="classlocomotor_1_1components_1_1types_1_1_c_tree.html#a74382cb3a3153edc32f1cfed8c4ee364" target="_top" xlink:title="locomotor.components.types.\lCTree.addChild">
<polygon fill="#ffffff" stroke="#000000" points="337.6914,-.5 337.6914,-28.5 483.7646,-28.5 483.7646,-.5 337.6914,-.5"/>
<text text-anchor="start" x="345.6914" y="-16.5" font-family="Helvetica,sans-Serif" font-size="10.00" fill="#000000">locomotor.components.types.</text>
<text text-anchor="middle" x="410.728" y="-6.5" font-family="Helvetica,sans-Serif" font-size="10.00" fill="#000000">CTree.addChild</text>
</a>
</g>
</g>
<!-- Node22&#45;&gt;Node24 -->
<g id="edge28" class="edge">
<title>Node22&#45;&gt;Node24</title>
<path fill="none" stroke="#191970" d="M272.1113,-43.4797C291.857,-39.3516 313.613,-34.8032 333.9196,-30.5578"/>
<polygon fill="#191970" stroke="#191970" points="334.6846,-33.9737 343.7567,-28.5013 333.252,-27.1218 334.6846,-33.9737"/>
</g>
<!-- Node24&#45;&gt;Node23 -->
<g id="edge29" class="edge">
<title>Node24&#45;&gt;Node23</title>
<path fill="none" stroke="#191970" d="M483.8978,-22.4114C499.1317,-24.0586 515.2954,-25.8063 530.8643,-27.4896"/>
<polygon fill="#191970" stroke="#191970" points="530.6754,-30.9895 540.9937,-28.5849 531.428,-24.0301 530.6754,-30.9895"/>
</g>
</g>
</svg>
        <g id="navigator" transform="translate(0 0)" fill="#404254">
                <rect fill="#f2f5e9" fill-opacity="0.5" stroke="#606060" stroke-width=".5" x="0" y="0" width="60" height="60"/>
                <use id="zoomplus" xlink:href="#zoomPlus" x="17" y="9" onmousedown="handleZoom(evt,'in')"/>
                <use id="zoomminus" xlink:href="#zoomMin" x="42" y="9" onmousedown="handleZoom(evt,'out')"/>
                <use id="reset" xlink:href="#resetDef" x="30" y="36" onmousedown="handleReset()"/>
                <g id="arrowUp" xlink:href="#dirArrow" transform="translate(30 24)" onmousedown="handlePan(0,-1)">
                  <use xlink:href="#rim" fill="#404040">
                        <set attributeName="fill" to="#808080" begin="arrowUp.mouseover" end="arrowUp.mouseout"/>
                  </use>
                  <path fill="none" stroke="white" stroke-width="1.5" d="M0,-3.0v7 M-2.5,-0.5L0,-3.0L2.5,-0.5"/>
                </g>
                <g id="arrowRight" xlink:href="#dirArrow" transform="rotate(90) translate(36 -43)" onmousedown="handlePan(1,0)">
                  <use xlink:href="#rim" fill="#404040">
                        <set attributeName="fill" to="#808080" begin="arrowRight.mouseover" end="arrowRight.mouseout"/>
                  </use>
                  <path fill="none" stroke="white" stroke-width="1.5" d="M0,-3.0v7 M-2.5,-0.5L0,-3.0L2.5,-0.5"/>
                </g>
                <g id="arrowDown" xlink:href="#dirArrow" transform="rotate(180) translate(-30 -48)" onmousedown="handlePan(0,1)">
                  <use xlink:href="#rim" fill="#404040">
                        <set attributeName="fill" to="#808080" begin="arrowDown.mouseover" end="arrowDown.mouseout"/>
                  </use>
                  <path fill="none" stroke="white" stroke-width="1.5" d="M0,-3.0v7 M-2.5,-0.5L0,-3.0L2.5,-0.5"/>
                </g>
                <g id="arrowLeft" xlink:href="#dirArrow" transform="rotate(270) translate(-36 17)" onmousedown="handlePan(-1,0)">
                  <use xlink:href="#rim" fill="#404040">
                        <set attributeName="fill" to="#808080" begin="arrowLeft.mouseover" end="arrowLeft.mouseout"/>
                  </use>
                  <path fill="none" stroke="white" stroke-width="1.5" d="M0,-3.0v7 M-2.5,-0.5L0,-3.0L2.5,-0.5"/>
                </g>
        </g>
        <svg viewBox="0 0 15 15" width="100%" height="30px" preserveAspectRatio="xMaxYMin meet">
         <g id="arrow_out" transform="scale(0.3 0.3)">
          <a xlink:href="classlocomotor_1_1components_1_1types_1_1_type_factory_a8827604831ff8a1764b7639c82820497_cgraph_org.svg" target="_base">
           <rect id="button" ry="5" rx="5" y="6" x="6" height="38" width="38"
                fill="#f2f5e9" fill-opacity="0.5" stroke="#606060" stroke-width="1.0"/>
           <path id="arrow"
             d="M 11.500037,31.436501 C 11.940474,20.09759 22.043105,11.32322 32.158766,21.979434 L 37.068811,17.246167 C 37.068811,17.246167 37.088388,32 37.088388,32 L 22.160133,31.978069 C 22.160133,31.978069 26.997745,27.140456 26.997745,27.140456 C 18.528582,18.264221 13.291696,25.230495 11.500037,31.436501 z"
             style="fill:#404040;"/>
          </a>
         </g>
        </svg>
</svg>
