<?xml version="1.0" encoding="UTF-8" standalone="no"?>
<!DOCTYPE svg PUBLIC "-//W3C//DTD SVG 1.1//EN"
 "http://www.w3.org/Graphics/SVG/1.1/DTD/svg11.dtd">
<!-- Generated by graphviz version 2.40.1 (20161225.0304)
 -->
<!-- Title: getDescription Pages: 1 -->
<svg width="826pt" height="64pt"
 viewBox="0.00 0.00 825.63 64.00" xmlns="http://www.w3.org/2000/svg" xmlns:xlink="http://www.w3.org/1999/xlink">
<g id="graph0" class="graph" transform="scale(1 1) rotate(0) translate(4 60)">
<title>getDescription</title>
<polygon fill="#ffffff" stroke="transparent" points="-4,4 -4,-60 821.6279,-60 821.6279,4 -4,4"/>
<!-- Node1 -->
<g id="node1" class="node">
<title>Node1</title>
<polygon fill="#bfbfbf" stroke="#000000" points="0,-18.5 0,-36.5 79.9209,-36.5 79.9209,-18.5 0,-18.5"/>
<text text-anchor="middle" x="39.9604" y="-24.5" font-family="Helvetica,sans-Serif" font-size="10.00" fill="#000000">getDescription</text>
</g>
<!-- Node2 -->
<g id="node2" class="node">
<title>Node2</title>
<g id="a_node2"><a xlink:href="classlocomotor_1_1core_1_1_d_b_h.html#ad067053be75a3170dc9c2ce7b922e176" target="_top" xlink:title="locomotor.core.DBH.checking\lParsingItem">
<polygon fill="#ffffff" stroke="#000000" points="115.9209,-13.5 115.9209,-41.5 263.6494,-41.5 263.6494,-13.5 115.9209,-13.5"/>
<text text-anchor="start" x="123.9209" y="-29.5" font-family="Helvetica,sans-Serif" font-size="10.00" fill="#000000">locomotor.core.DBH.checking</text>
<text text-anchor="middle" x="189.7852" y="-19.5" font-family="Helvetica,sans-Serif" font-size="10.00" fill="#000000">ParsingItem</text>
</a>
</g>
</g>
<!-- Node1&#45;&gt;Node2 -->
<g id="edge1" class="edge">
<title>Node1&#45;&gt;Node2</title>
<path fill="none" stroke="#191970" d="M90.2208,-27.5C98.4167,-27.5 107.0557,-27.5 115.6804,-27.5"/>
<polygon fill="#191970" stroke="#191970" points="90.1108,-24.0001 80.1107,-27.5 90.1107,-31.0001 90.1108,-24.0001"/>
</g>
<!-- Node3 -->
<g id="node3" class="node">
<title>Node3</title>
<g id="a_node3"><a xlink:href="classlocomotor_1_1core_1_1_d_b_h.html#ae26eef1ee7482f2e0167c6a18924d214" target="_top" xlink:title="locomotor.core.DBH.addItem">
<polygon fill="#ffffff" stroke="#000000" points="306.6001,-37.5 306.6001,-55.5 450.9937,-55.5 450.9937,-37.5 306.6001,-37.5"/>
<text text-anchor="middle" x="378.7969" y="-43.5" font-family="Helvetica,sans-Serif" font-size="10.00" fill="#000000">locomotor.core.DBH.addItem</text>
</a>
</g>
</g>
<!-- Node2&#45;&gt;Node3 -->
<g id="edge2" class="edge">
<title>Node2&#45;&gt;Node3</title>
<path fill="none" stroke="#191970" d="M273.6637,-35.9317C284.619,-37.033 295.7673,-38.1536 306.5095,-39.2335"/>
<polygon fill="#191970" stroke="#191970" points="273.974,-32.4454 263.6741,-34.9275 273.2739,-39.4103 273.974,-32.4454"/>
</g>
<!-- Node6 -->
<g id="node6" class="node">
<title>Node6</title>
<g id="a_node6"><a xlink:href="classlocomotor_1_1core_1_1_d_b_h.html#aa0e39c547d06fd9d0ad2de70251c9cc0" target="_top" xlink:title="locomotor.core.DBH.updateItem">
<polygon fill="#ffffff" stroke="#000000" points="299.6494,-.5 299.6494,-18.5 457.9443,-18.5 457.9443,-.5 299.6494,-.5"/>
<text text-anchor="middle" x="378.7969" y="-6.5" font-family="Helvetica,sans-Serif" font-size="10.00" fill="#000000">locomotor.core.DBH.updateItem</text>
</a>
</g>
</g>
<!-- Node2&#45;&gt;Node6 -->
<g id="edge5" class="edge">
<title>Node2&#45;&gt;Node6</title>
<path fill="none" stroke="#191970" d="M273.6341,-19.5149C282.1791,-18.7011 290.8418,-17.8762 299.338,-17.067"/>
<polygon fill="#191970" stroke="#191970" points="273.2972,-16.031 263.6741,-20.4634 273.9609,-22.9995 273.2972,-16.031"/>
</g>
<!-- Node4 -->
<g id="node4" class="node">
<title>Node4</title>
<g id="a_node4"><a xlink:href="classlocomotor_1_1components_1_1network_1_1_a_p_i.html#a547463fbc7fb7b485886f0917e2c0b78" target="_top" xlink:title="locomotor.components.network.\lAPI.createHooks">
<polygon fill="#ffffff" stroke="#000000" points="493.9443,-13.5 493.9443,-41.5 651.1309,-41.5 651.1309,-13.5 493.9443,-13.5"/>
<text text-anchor="start" x="501.9443" y="-29.5" font-family="Helvetica,sans-Serif" font-size="10.00" fill="#000000">locomotor.components.network.</text>
<text text-anchor="middle" x="572.5376" y="-19.5" font-family="Helvetica,sans-Serif" font-size="10.00" fill="#000000">API.createHooks</text>
</a>
</g>
</g>
<!-- Node3&#45;&gt;Node4 -->
<g id="edge3" class="edge">
<title>Node3&#45;&gt;Node4</title>
<path fill="none" stroke="#191970" d="M461.3961,-38.3996C472.1104,-37.3488 483.0628,-36.2747 493.7135,-35.2302"/>
<polygon fill="#191970" stroke="#191970" points="460.8249,-34.9387 451.2143,-39.3981 461.5082,-41.9053 460.8249,-34.9387"/>
</g>
<!-- Node5 -->
<g id="node5" class="node">
<title>Node5</title>
<g id="a_node5"><a xlink:href="classlocomotor_1_1core_1_1_main.html#a8b260eecbaabcef8473fd87ada040682" target="_top" xlink:title="locomotor.core.Main.main">
<polygon fill="#ffffff" stroke="#000000" points="687.1309,-18.5 687.1309,-36.5 817.6279,-36.5 817.6279,-18.5 687.1309,-18.5"/>
<text text-anchor="middle" x="752.3794" y="-24.5" font-family="Helvetica,sans-Serif" font-size="10.00" fill="#000000">locomotor.core.Main.main</text>
</a>
</g>
</g>
<!-- Node4&#45;&gt;Node5 -->
<g id="edge4" class="edge">
<title>Node4&#45;&gt;Node5</title>
<path fill="none" stroke="#191970" d="M661.3306,-27.5C670.0189,-27.5 678.7213,-27.5 687.1131,-27.5"/>
<polygon fill="#191970" stroke="#191970" points="661.1572,-24.0001 651.1572,-27.5 661.1572,-31.0001 661.1572,-24.0001"/>
</g>
<!-- Node6&#45;&gt;Node4 -->
<g id="edge6" class="edge">
<title>Node6&#45;&gt;Node4</title>
<path fill="none" stroke="#191970" d="M468.19,-17.8053C476.7808,-18.6035 485.4506,-19.4089 493.9268,-20.1965"/>
<polygon fill="#191970" stroke="#191970" points="468.4386,-14.3134 458.1576,-16.8732 467.791,-21.2834 468.4386,-14.3134"/>
</g>
</g>
</svg>
