<?xml version="1.0" encoding="UTF-8" standalone="no"?>
<!DOCTYPE svg PUBLIC "-//W3C//DTD SVG 1.1//EN"
 "http://www.w3.org/Graphics/SVG/1.1/DTD/svg11.dtd">
<!-- Generated by graphviz version 2.40.1 (20161225.0304)
 -->
<!-- Title: pdf Pages: 1 -->
<svg width="649pt" height="225pt"
 viewBox="0.00 0.00 649.46 225.00" xmlns="http://www.w3.org/2000/svg" xmlns:xlink="http://www.w3.org/1999/xlink">
<g id="graph0" class="graph" transform="scale(1 1) rotate(0) translate(4 221)">
<title>pdf</title>
<polygon fill="#ffffff" stroke="transparent" points="-4,4 -4,-221 645.4609,-221 645.4609,4 -4,4"/>
<!-- Node1 -->
<g id="node1" class="node">
<title>Node1</title>
<polygon fill="#bfbfbf" stroke="#000000" points="0,-103.5 0,-121.5 29.9014,-121.5 29.9014,-103.5 0,-103.5"/>
<text text-anchor="middle" x="14.9507" y="-109.5" font-family="Helvetica,sans-Serif" font-size="10.00" fill="#000000">pdf</text>
</g>
<!-- Node2 -->
<g id="node2" class="node">
<title>Node2</title>
<g id="a_node2"><a xlink:href="classlocomotor_1_1components_1_1_compare.html#a2a101cdb459b3ee3a59e76aaaa08750c" target="_top" xlink:title="locomotor.components.Compare.unique\lValue">
<polygon fill="#ffffff" stroke="#000000" points="264.9551,-117.5 264.9551,-145.5 458.2842,-145.5 458.2842,-117.5 264.9551,-117.5"/>
<text text-anchor="start" x="272.9551" y="-133.5" font-family="Helvetica,sans-Serif" font-size="10.00" fill="#000000">locomotor.components.Compare.unique</text>
<text text-anchor="middle" x="361.6196" y="-123.5" font-family="Helvetica,sans-Serif" font-size="10.00" fill="#000000">Value</text>
</a>
</g>
</g>
<!-- Node1&#45;&gt;Node2 -->
<g id="edge1" class="edge">
<title>Node1&#45;&gt;Node2</title>
<path fill="none" stroke="#191970" d="M40.3999,-113.8948C86.9655,-116.4469 188.12,-121.9909 264.5569,-126.1803"/>
<polygon fill="#191970" stroke="#191970" points="40.4705,-110.3935 30.2939,-113.3409 40.0874,-117.383 40.4705,-110.3935"/>
</g>
<!-- Node6 -->
<g id="node6" class="node">
<title>Node6</title>
<g id="a_node6"><a xlink:href="classlocomotor_1_1core_1_1_gaussian.html#aa4cd1241f20f836cbf5facbf2d8379e4" target="_top" xlink:title="Gaussian">
<polygon fill="#ffffff" stroke="#000000" points="65.9014,-84.5 65.9014,-102.5 124.1475,-102.5 124.1475,-84.5 65.9014,-84.5"/>
<text text-anchor="middle" x="95.0244" y="-90.5" font-family="Helvetica,sans-Serif" font-size="10.00" fill="#000000">Gaussian</text>
</a>
</g>
</g>
<!-- Node1&#45;&gt;Node6 -->
<g id="edge5" class="edge">
<title>Node1&#45;&gt;Node6</title>
<path fill="none" stroke="#191970" d="M39.766,-106.6118C47.9939,-104.6595 57.2295,-102.468 65.7601,-100.4439"/>
<polygon fill="#191970" stroke="#191970" points="38.9337,-103.212 30.0119,-108.9262 40.5499,-110.0229 38.9337,-103.212"/>
</g>
<!-- Node3 -->
<g id="node3" class="node">
<title>Node3</title>
<g id="a_node3"><a xlink:href="classlocomotor_1_1components_1_1types_1_1_c_float.html#a871921d9d041c5c7993927dde6332e2c" target="_top" xlink:title="locomotor.components.types.\lCFloat.compare">
<polygon fill="#ffffff" stroke="#000000" points="495.3877,-188.5 495.3877,-216.5 641.4609,-216.5 641.4609,-188.5 495.3877,-188.5"/>
<text text-anchor="start" x="503.3877" y="-204.5" font-family="Helvetica,sans-Serif" font-size="10.00" fill="#000000">locomotor.components.types.</text>
<text text-anchor="middle" x="568.4243" y="-194.5" font-family="Helvetica,sans-Serif" font-size="10.00" fill="#000000">CFloat.compare</text>
</a>
</g>
</g>
<!-- Node2&#45;&gt;Node3 -->
<g id="edge2" class="edge">
<title>Node2&#45;&gt;Node3</title>
<path fill="none" stroke="#191970" d="M408.9735,-149.0059C434.49,-158.3088 466.5667,-169.7953 495.3877,-179.5 504.2068,-182.4696 513.6638,-185.5349 522.7504,-188.4215"/>
<polygon fill="#191970" stroke="#191970" points="410.1295,-145.702 399.5357,-145.5557 407.726,-152.2765 410.1295,-145.702"/>
</g>
<!-- Node4 -->
<g id="node4" class="node">
<title>Node4</title>
<g id="a_node4"><a xlink:href="classlocomotor_1_1components_1_1types_1_1_c_integer.html#a535607ef73128c96e7b4c3831a537c15" target="_top" xlink:title="locomotor.components.types.\lCInteger.compare">
<polygon fill="#ffffff" stroke="#000000" points="495.3877,-141.5 495.3877,-169.5 641.4609,-169.5 641.4609,-141.5 495.3877,-141.5"/>
<text text-anchor="start" x="503.3877" y="-157.5" font-family="Helvetica,sans-Serif" font-size="10.00" fill="#000000">locomotor.components.types.</text>
<text text-anchor="middle" x="568.4243" y="-147.5" font-family="Helvetica,sans-Serif" font-size="10.00" fill="#000000">CInteger.compare</text>
</a>
</g>
</g>
<!-- Node2&#45;&gt;Node4 -->
<g id="edge3" class="edge">
<title>Node2&#45;&gt;Node4</title>
<path fill="none" stroke="#191970" d="M468.5512,-143.9096C477.5759,-144.9569 486.5647,-146.0001 495.2422,-147.0071"/>
<polygon fill="#191970" stroke="#191970" points="468.6983,-140.4032 458.3615,-142.727 467.8913,-147.3566 468.6983,-140.4032"/>
</g>
<!-- Node5 -->
<g id="node5" class="node">
<title>Node5</title>
<g id="a_node5"><a xlink:href="classlocomotor_1_1components_1_1types_1_1_c_weighted_integer.html#acb085d655773a5014997582a57ae2ab2" target="_top" xlink:title="locomotor.components.types.\lCWeightedInteger.compare">
<polygon fill="#ffffff" stroke="#000000" points="495.3877,-94.5 495.3877,-122.5 641.4609,-122.5 641.4609,-94.5 495.3877,-94.5"/>
<text text-anchor="start" x="503.3877" y="-110.5" font-family="Helvetica,sans-Serif" font-size="10.00" fill="#000000">locomotor.components.types.</text>
<text text-anchor="middle" x="568.4243" y="-100.5" font-family="Helvetica,sans-Serif" font-size="10.00" fill="#000000">CWeightedInteger.compare</text>
</a>
</g>
</g>
<!-- Node2&#45;&gt;Node5 -->
<g id="edge4" class="edge">
<title>Node2&#45;&gt;Node5</title>
<path fill="none" stroke="#191970" d="M468.5512,-119.6075C477.5759,-118.6038 486.5647,-117.6041 495.2422,-116.639"/>
<polygon fill="#191970" stroke="#191970" points="467.9133,-116.1568 458.3615,-120.7408 468.6871,-123.1139 467.9133,-116.1568"/>
</g>
<!-- Node7 -->
<g id="node7" class="node">
<title>Node7</title>
<g id="a_node7"><a xlink:href="classlocomotor_1_1core_1_1_gaussian.html#a2a6f2336ca6a2ad6a5406575827bbb56" target="_top" xlink:title="getInstance">
<polygon fill="#ffffff" stroke="#000000" points="160.1475,-84.5 160.1475,-102.5 227.8516,-102.5 227.8516,-84.5 160.1475,-84.5"/>
<text text-anchor="middle" x="193.9995" y="-90.5" font-family="Helvetica,sans-Serif" font-size="10.00" fill="#000000">getInstance</text>
</a>
</g>
</g>
<!-- Node6&#45;&gt;Node7 -->
<g id="edge6" class="edge">
<title>Node6&#45;&gt;Node7</title>
<path fill="none" stroke="#191970" d="M134.226,-93.5C142.6863,-93.5 151.5662,-93.5 159.8166,-93.5"/>
<polygon fill="#191970" stroke="#191970" points="134.1849,-90.0001 124.1849,-93.5 134.1849,-97.0001 134.1849,-90.0001"/>
</g>
<!-- Node7&#45;&gt;Node2 -->
<g id="edge7" class="edge">
<title>Node7&#45;&gt;Node2</title>
<path fill="none" stroke="#191970" d="M237.7272,-103.4132C256.6135,-107.6948 279.0519,-112.7816 299.6097,-117.4422"/>
<polygon fill="#191970" stroke="#191970" points="238.4463,-99.9875 227.9199,-101.1899 236.8986,-106.8143 238.4463,-99.9875"/>
</g>
<!-- Node8 -->
<g id="node8" class="node">
<title>Node8</title>
<g id="a_node8"><a xlink:href="classlocomotor_1_1components_1_1_compare.html#af1d05ce01ba9906df55e7a4976e44cc9" target="_top" xlink:title="locomotor.components.Compare.interval\lValue">
<polygon fill="#ffffff" stroke="#000000" points="263.8516,-47.5 263.8516,-75.5 459.3877,-75.5 459.3877,-47.5 263.8516,-47.5"/>
<text text-anchor="start" x="271.8516" y="-63.5" font-family="Helvetica,sans-Serif" font-size="10.00" fill="#000000">locomotor.components.Compare.interval</text>
<text text-anchor="middle" x="361.6196" y="-53.5" font-family="Helvetica,sans-Serif" font-size="10.00" fill="#000000">Value</text>
</a>
</g>
</g>
<!-- Node7&#45;&gt;Node8 -->
<g id="edge8" class="edge">
<title>Node7&#45;&gt;Node8</title>
<path fill="none" stroke="#191970" d="M238.0956,-85.0817C253.3729,-82.1652 270.9401,-78.8114 287.9427,-75.5655"/>
<polygon fill="#191970" stroke="#191970" points="237.0862,-81.7111 227.9199,-87.0243 238.3989,-88.5869 237.0862,-81.7111"/>
</g>
<!-- Node9 -->
<g id="node9" class="node">
<title>Node9</title>
<g id="a_node9"><a xlink:href="classlocomotor_1_1components_1_1types_1_1_c_interval_double.html#a871921d9d041c5c7993927dde6332e2c" target="_top" xlink:title="locomotor.components.types.\lCIntervalDouble.compare">
<polygon fill="#ffffff" stroke="#000000" points="495.3877,-47.5 495.3877,-75.5 641.4609,-75.5 641.4609,-47.5 495.3877,-47.5"/>
<text text-anchor="start" x="503.3877" y="-63.5" font-family="Helvetica,sans-Serif" font-size="10.00" fill="#000000">locomotor.components.types.</text>
<text text-anchor="middle" x="568.4243" y="-53.5" font-family="Helvetica,sans-Serif" font-size="10.00" fill="#000000">CIntervalDouble.compare</text>
</a>
</g>
</g>
<!-- Node8&#45;&gt;Node9 -->
<g id="edge9" class="edge">
<title>Node8&#45;&gt;Node9</title>
<path fill="none" stroke="#191970" d="M469.7103,-61.5C478.3423,-61.5 486.9307,-61.5 495.2342,-61.5"/>
<polygon fill="#191970" stroke="#191970" points="469.5714,-58.0001 459.5714,-61.5 469.5713,-65.0001 469.5714,-58.0001"/>
</g>
<!-- Node10 -->
<g id="node10" class="node">
<title>Node10</title>
<g id="a_node10"><a xlink:href="classlocomotor_1_1components_1_1types_1_1_c_interval_integer.html#a535607ef73128c96e7b4c3831a537c15" target="_top" xlink:title="locomotor.components.types.\lCIntervalInteger.compare">
<polygon fill="#ffffff" stroke="#000000" points="495.3877,-.5 495.3877,-28.5 641.4609,-28.5 641.4609,-.5 495.3877,-.5"/>
<text text-anchor="start" x="503.3877" y="-16.5" font-family="Helvetica,sans-Serif" font-size="10.00" fill="#000000">locomotor.components.types.</text>
<text text-anchor="middle" x="568.4243" y="-6.5" font-family="Helvetica,sans-Serif" font-size="10.00" fill="#000000">CIntervalInteger.compare</text>
</a>
</g>
</g>
<!-- Node8&#45;&gt;Node10 -->
<g id="edge10" class="edge">
<title>Node8&#45;&gt;Node10</title>
<path fill="none" stroke="#191970" d="M433.437,-45.1783C457.2785,-39.7598 483.5981,-33.7782 506.6174,-28.5467"/>
<polygon fill="#191970" stroke="#191970" points="432.3634,-41.8329 423.3877,-47.4621 433.9148,-48.6588 432.3634,-41.8329"/>
</g>
</g>
</svg>
