<?xml version="1.0" encoding="UTF-8" standalone="no"?>
<!DOCTYPE svg PUBLIC "-//W3C//DTD SVG 1.1//EN"
 "http://www.w3.org/Graphics/SVG/1.1/DTD/svg11.dtd">
<!-- Generated by graphviz version 2.40.1 (20161225.0304)
 -->
<!-- Title: auth Pages: 1 -->
<svg width="475pt" height="131pt"
 viewBox="0.00 0.00 475.41 131.00" xmlns="http://www.w3.org/2000/svg" xmlns:xlink="http://www.w3.org/1999/xlink">
<g id="graph0" class="graph" transform="scale(1 1) rotate(0) translate(4 127)">
<title>auth</title>
<polygon fill="#ffffff" stroke="transparent" points="-4,4 -4,-127 471.4121,-127 471.4121,4 -4,4"/>
<!-- Node1 -->
<g id="node1" class="node">
<title>Node1</title>
<polygon fill="#bfbfbf" stroke="#000000" points="0,-75.5 0,-93.5 35.4629,-93.5 35.4629,-75.5 0,-75.5"/>
<text text-anchor="middle" x="17.7314" y="-81.5" font-family="Helvetica,sans-Serif" font-size="10.00" fill="#000000">auth</text>
</g>
<!-- Node2 -->
<g id="node2" class="node">
<title>Node2</title>
<g id="a_node2"><a xlink:href="classlocomotor_1_1front_1_1components_1_1network_1_1_client_request.html#a5177dbc0e509337643b1931cab9832ca" target="_top" xlink:title="locomotor.front.components.network.\lClientRequest.addParam">
<polygon fill="#ffffff" stroke="#000000" points="71.4629,-94.5 71.4629,-122.5 251.4375,-122.5 251.4375,-94.5 71.4629,-94.5"/>
<text text-anchor="start" x="79.4629" y="-110.5" font-family="Helvetica,sans-Serif" font-size="10.00" fill="#000000">locomotor.front.components.network.</text>
<text text-anchor="middle" x="161.4502" y="-100.5" font-family="Helvetica,sans-Serif" font-size="10.00" fill="#000000">ClientRequest.addParam</text>
</a>
</g>
</g>
<!-- Node1&#45;&gt;Node2 -->
<g id="edge1" class="edge">
<title>Node1&#45;&gt;Node2</title>
<path fill="none" stroke="#191970" d="M35.6429,-87.4911C44.2258,-88.9244 55.2283,-90.7617 67.1465,-92.752"/>
<polygon fill="#191970" stroke="#191970" points="66.9001,-96.2592 77.34,-94.4542 68.0531,-89.3548 66.9001,-96.2592"/>
</g>
<!-- Node4 -->
<g id="node4" class="node">
<title>Node4</title>
<g id="a_node4"><a xlink:href="classlocomotor_1_1front_1_1components_1_1network_1_1_client_request.html#af820b68be6077f053a589af5c865700c" target="_top" xlink:title="locomotor.front.components.network.\lClientRequest.requestJson">
<polygon fill="#ffffff" stroke="#000000" points="71.4629,-47.5 71.4629,-75.5 251.4375,-75.5 251.4375,-47.5 71.4629,-47.5"/>
<text text-anchor="start" x="79.4629" y="-63.5" font-family="Helvetica,sans-Serif" font-size="10.00" fill="#000000">locomotor.front.components.network.</text>
<text text-anchor="middle" x="161.4502" y="-53.5" font-family="Helvetica,sans-Serif" font-size="10.00" fill="#000000">ClientRequest.requestJson</text>
</a>
</g>
</g>
<!-- Node1&#45;&gt;Node4 -->
<g id="edge3" class="edge">
<title>Node1&#45;&gt;Node4</title>
<path fill="none" stroke="#191970" d="M35.6429,-81.6335C43.4204,-80.3889 53.1847,-78.8262 63.8168,-77.1247"/>
<polygon fill="#191970" stroke="#191970" points="64.4716,-80.5646 73.7928,-75.5282 63.3654,-73.6525 64.4716,-80.5646"/>
</g>
<!-- Node3 -->
<g id="node3" class="node">
<title>Node3</title>
<g id="a_node3"><a xlink:href="classlocomotor_1_1front_1_1components_1_1network_1_1_file_upload.html#ab075e2b20b12151e05bf1fb51e40c1db" target="_top" xlink:title="locomotor.front.components.network.\lFileUpload.add">
<polygon fill="#ffffff" stroke="#000000" points="287.4375,-94.5 287.4375,-122.5 467.4121,-122.5 467.4121,-94.5 287.4375,-94.5"/>
<text text-anchor="start" x="295.4375" y="-110.5" font-family="Helvetica,sans-Serif" font-size="10.00" fill="#000000">locomotor.front.components.network.</text>
<text text-anchor="middle" x="377.4248" y="-100.5" font-family="Helvetica,sans-Serif" font-size="10.00" fill="#000000">FileUpload.add</text>
</a>
</g>
</g>
<!-- Node2&#45;&gt;Node3 -->
<g id="edge2" class="edge">
<title>Node2&#45;&gt;Node3</title>
<path fill="none" stroke="#191970" d="M251.479,-108.5C259.9645,-108.5 268.6022,-108.5 277.1745,-108.5"/>
<polygon fill="#191970" stroke="#191970" points="277.1947,-112.0001 287.1946,-108.5 277.1946,-105.0001 277.1947,-112.0001"/>
</g>
<!-- Node5 -->
<g id="node5" class="node">
<title>Node5</title>
<g id="a_node5"><a xlink:href="classlocomotor_1_1front_1_1components_1_1network_1_1_file_upload.html#abbb8544c46b88f1a6f1e163725aaa1b3" target="_top" xlink:title="locomotor.front.components.network.\lFileUpload.send">
<polygon fill="#ffffff" stroke="#000000" points="287.4375,-47.5 287.4375,-75.5 467.4121,-75.5 467.4121,-47.5 287.4375,-47.5"/>
<text text-anchor="start" x="295.4375" y="-63.5" font-family="Helvetica,sans-Serif" font-size="10.00" fill="#000000">locomotor.front.components.network.</text>
<text text-anchor="middle" x="377.4248" y="-53.5" font-family="Helvetica,sans-Serif" font-size="10.00" fill="#000000">FileUpload.send</text>
</a>
</g>
</g>
<!-- Node4&#45;&gt;Node5 -->
<g id="edge4" class="edge">
<title>Node4&#45;&gt;Node5</title>
<path fill="none" stroke="#191970" d="M251.479,-61.5C259.9645,-61.5 268.6022,-61.5 277.1745,-61.5"/>
<polygon fill="#191970" stroke="#191970" points="277.1947,-65.0001 287.1946,-61.5 277.1946,-58.0001 277.1947,-65.0001"/>
</g>
<!-- Node6 -->
<g id="node6" class="node">
<title>Node6</title>
<g id="a_node6"><a xlink:href="classlocomotor_1_1front_1_1components_1_1network_1_1_file_upload.html#ad90278946fac31b255b0ea524061a60b" target="_top" xlink:title="locomotor.front.components.network.\lFileUpload.getURLConnection">
<polygon fill="#ffffff" stroke="#000000" points="287.4375,-.5 287.4375,-28.5 467.4121,-28.5 467.4121,-.5 287.4375,-.5"/>
<text text-anchor="start" x="295.4375" y="-16.5" font-family="Helvetica,sans-Serif" font-size="10.00" fill="#000000">locomotor.front.components.network.</text>
<text text-anchor="middle" x="377.4248" y="-6.5" font-family="Helvetica,sans-Serif" font-size="10.00" fill="#000000">FileUpload.getURLConnection</text>
</a>
</g>
</g>
<!-- Node4&#45;&gt;Node6 -->
<g id="edge5" class="edge">
<title>Node4&#45;&gt;Node6</title>
<path fill="none" stroke="#191970" d="M225.9572,-47.4621C250.2078,-42.1847 277.9706,-36.1431 303.0474,-30.6859"/>
<polygon fill="#191970" stroke="#191970" points="303.8503,-34.0932 312.8773,-28.5467 302.3617,-27.2532 303.8503,-34.0932"/>
</g>
</g>
</svg>
