<?xml version="1.0" encoding="UTF-8" standalone="no"?>
<!DOCTYPE svg PUBLIC "-//W3C//DTD SVG 1.1//EN"
 "http://www.w3.org/Graphics/SVG/1.1/DTD/svg11.dtd">
<!-- Generated by graphviz version 2.40.1 (20161225.0304)
 -->
<!-- Title: distance Pages: 1 -->
<svg width="559pt" height="84pt"
 viewBox="0.00 0.00 559.10 84.00" xmlns="http://www.w3.org/2000/svg" xmlns:xlink="http://www.w3.org/1999/xlink">
<g id="graph0" class="graph" transform="scale(1 1) rotate(0) translate(4 80)">
<title>distance</title>
<polygon fill="#ffffff" stroke="transparent" points="-4,4 -4,-80 555.1016,-80 555.1016,4 -4,4"/>
<!-- Node1 -->
<g id="node1" class="node">
<title>Node1</title>
<polygon fill="#bfbfbf" stroke="#000000" points="0,-28.5 0,-46.5 53.2461,-46.5 53.2461,-28.5 0,-28.5"/>
<text text-anchor="middle" x="26.623" y="-34.5" font-family="Helvetica,sans-Serif" font-size="10.00" fill="#000000">distance</text>
</g>
<!-- Node2 -->
<g id="node2" class="node">
<title>Node2</title>
<g id="a_node2"><a xlink:href="classlocomotor_1_1components_1_1_compare.html#ac5771638a144db6c7e42db1c36288d48" target="_top" xlink:title="locomotor.components.Compare.graph\lValue">
<polygon fill="#ffffff" stroke="#000000" points="89.2461,-23.5 89.2461,-51.5 278.1221,-51.5 278.1221,-23.5 89.2461,-23.5"/>
<text text-anchor="start" x="97.2461" y="-39.5" font-family="Helvetica,sans-Serif" font-size="10.00" fill="#000000">locomotor.components.Compare.graph</text>
<text text-anchor="middle" x="183.6841" y="-29.5" font-family="Helvetica,sans-Serif" font-size="10.00" fill="#000000">Value</text>
</a>
</g>
</g>
<!-- Node1&#45;&gt;Node2 -->
<g id="edge1" class="edge">
<title>Node1&#45;&gt;Node2</title>
<path fill="none" stroke="#191970" d="M63.5358,-37.5C71.4631,-37.5 80.1861,-37.5 89.2019,-37.5"/>
<polygon fill="#191970" stroke="#191970" points="63.2663,-34.0001 53.2663,-37.5 63.2663,-41.0001 63.2663,-34.0001"/>
</g>
<!-- Node3 -->
<g id="node3" class="node">
<title>Node3</title>
<g id="a_node3"><a xlink:href="classlocomotor_1_1components_1_1types_1_1_c_set_graph.html#ad2c8768ec5b11a8e7e13195ef5f1ba2f" target="_top" xlink:title="compare">
<polygon fill="#ffffff" stroke="#000000" points="314.1221,-28.5 314.1221,-46.5 369.0283,-46.5 369.0283,-28.5 314.1221,-28.5"/>
<text text-anchor="middle" x="341.5752" y="-34.5" font-family="Helvetica,sans-Serif" font-size="10.00" fill="#000000">compare</text>
</a>
</g>
</g>
<!-- Node2&#45;&gt;Node3 -->
<g id="edge2" class="edge">
<title>Node2&#45;&gt;Node3</title>
<path fill="none" stroke="#191970" d="M288.4745,-37.5C297.7171,-37.5 306.4285,-37.5 314.0191,-37.5"/>
<polygon fill="#191970" stroke="#191970" points="288.2646,-34.0001 278.2646,-37.5 288.2646,-41.0001 288.2646,-34.0001"/>
</g>
<!-- Node4 -->
<g id="node4" class="node">
<title>Node4</title>
<g id="a_node4"><a xlink:href="classlocomotor_1_1components_1_1types_1_1_c_mapped_string_list.html#ae36471b20bdf46c47cf487ffe88a1e42" target="_top" xlink:title="locomotor.components.types.\lCMappedStringList.compare">
<polygon fill="#ffffff" stroke="#000000" points="405.0283,-47.5 405.0283,-75.5 551.1016,-75.5 551.1016,-47.5 405.0283,-47.5"/>
<text text-anchor="start" x="413.0283" y="-63.5" font-family="Helvetica,sans-Serif" font-size="10.00" fill="#000000">locomotor.components.types.</text>
<text text-anchor="middle" x="478.0649" y="-53.5" font-family="Helvetica,sans-Serif" font-size="10.00" fill="#000000">CMappedStringList.compare</text>
</a>
</g>
</g>
<!-- Node3&#45;&gt;Node4 -->
<g id="edge3" class="edge">
<title>Node3&#45;&gt;Node4</title>
<path fill="none" stroke="#191970" d="M379.0496,-44.0894C387.177,-45.5185 396.0407,-47.0771 405.0158,-48.6552"/>
<polygon fill="#191970" stroke="#191970" points="379.651,-40.6415 369.1959,-42.3568 378.4387,-47.5358 379.651,-40.6415"/>
</g>
<!-- Node5 -->
<g id="node5" class="node">
<title>Node5</title>
<g id="a_node5"><a xlink:href="classlocomotor_1_1components_1_1types_1_1_c_tree.html#a46596b48ff97821f142f902f7ac6d471" target="_top" xlink:title="locomotor.components.types.\lCTree.compare">
<polygon fill="#ffffff" stroke="#000000" points="405.0283,-.5 405.0283,-28.5 551.1016,-28.5 551.1016,-.5 405.0283,-.5"/>
<text text-anchor="start" x="413.0283" y="-16.5" font-family="Helvetica,sans-Serif" font-size="10.00" fill="#000000">locomotor.components.types.</text>
<text text-anchor="middle" x="478.0649" y="-6.5" font-family="Helvetica,sans-Serif" font-size="10.00" fill="#000000">CTree.compare</text>
</a>
</g>
</g>
<!-- Node3&#45;&gt;Node5 -->
<g id="edge4" class="edge">
<title>Node3&#45;&gt;Node5</title>
<path fill="none" stroke="#191970" d="M379.3208,-31.1395C387.3739,-29.7824 396.1404,-28.3052 405.0158,-26.8096"/>
<polygon fill="#191970" stroke="#191970" points="378.4753,-27.7325 369.1959,-32.8456 379.6385,-34.6352 378.4753,-27.7325"/>
</g>
</g>
</svg>
