<?xml version="1.0" encoding="UTF-8" standalone="no"?>
<!DOCTYPE svg PUBLIC "-//W3C//DTD SVG 1.1//EN"
 "http://www.w3.org/Graphics/SVG/1.1/DTD/svg11.dtd">
<!-- Generated by graphviz version 2.40.1 (20161225.0304)
 -->
<!-- Title: CWeightedStringList Pages: 1 -->
<svg width="465pt" height="260pt"
 viewBox="0.00 0.00 465.03 260.00" xmlns="http://www.w3.org/2000/svg" xmlns:xlink="http://www.w3.org/1999/xlink">
<g id="graph0" class="graph" transform="scale(1 1) rotate(0) translate(4 256)">
<title>CWeightedStringList</title>
<polygon fill="#ffffff" stroke="transparent" points="-4,4 -4,-256 461.0283,-256 461.0283,4 -4,4"/>
<!-- Node1 -->
<g id="node1" class="node">
<title>Node1</title>
<polygon fill="#bfbfbf" stroke="#000000" points="173.9648,-.5 173.9648,-18.5 280.9414,-18.5 280.9414,-.5 173.9648,-.5"/>
<text text-anchor="middle" x="227.4531" y="-6.5" font-family="Helvetica,sans-Serif" font-size="10.00" fill="#000000">CWeightedStringList</text>
</g>
<!-- Node2 -->
<g id="node2" class="node">
<title>Node2</title>
<g id="a_node2"><a xlink:href="classlocomotor_1_1components_1_1types_1_1_c_string_list.html" target="_top" xlink:title="CStringList">
<polygon fill="#ffffff" stroke="#000000" points="195,-56.5 195,-74.5 259.9063,-74.5 259.9063,-56.5 195,-56.5"/>
<text text-anchor="middle" x="227.4531" y="-62.5" font-family="Helvetica,sans-Serif" font-size="10.00" fill="#000000">CStringList</text>
</a>
</g>
</g>
<!-- Node2&#45;&gt;Node1 -->
<g id="edge1" class="edge">
<title>Node2&#45;&gt;Node1</title>
<path fill="none" stroke="#191970" d="M227.4531,-46.2065C227.4531,-36.8384 227.4531,-26.0262 227.4531,-18.5752"/>
<polygon fill="#191970" stroke="#191970" points="223.9532,-46.2527 227.4531,-56.2527 230.9532,-46.2528 223.9532,-46.2527"/>
</g>
<!-- Node3 -->
<g id="node3" class="node">
<title>Node3</title>
<g id="a_node3"><a xlink:href="interfacelocomotor_1_1components_1_1types_1_1_c_universe_type.html" target="_top" xlink:title="CUniverseType">
<polygon fill="#ffffff" stroke="#000000" points="43.271,-121.5 43.271,-139.5 127.6353,-139.5 127.6353,-121.5 43.271,-121.5"/>
<text text-anchor="middle" x="85.4531" y="-127.5" font-family="Helvetica,sans-Serif" font-size="10.00" fill="#000000">CUniverseType</text>
</a>
</g>
</g>
<!-- Node3&#45;&gt;Node2 -->
<g id="edge2" class="edge">
<title>Node3&#45;&gt;Node2</title>
<path fill="none" stroke="#191970" d="M114.3893,-117.2545C142.0907,-104.5743 183.152,-85.7787 207.4186,-74.6708"/>
<polygon fill="#191970" stroke="#191970" points="112.8335,-114.1174 105.1976,-121.462 115.7471,-120.4823 112.8335,-114.1174"/>
</g>
<!-- Node4 -->
<g id="node4" class="node">
<title>Node4</title>
<g id="a_node4"><a xlink:href="interfacelocomotor_1_1components_1_1types_1_1_c_type.html" target="_top" xlink:title="CType">
<polygon fill="#ffffff" stroke="#000000" points="0,-233.5 0,-251.5 44.9063,-251.5 44.9063,-233.5 0,-233.5"/>
<text text-anchor="middle" x="22.4531" y="-239.5" font-family="Helvetica,sans-Serif" font-size="10.00" fill="#000000">CType</text>
</a>
</g>
</g>
<!-- Node4&#45;&gt;Node3 -->
<g id="edge3" class="edge">
<title>Node4&#45;&gt;Node3</title>
<path fill="none" stroke="#191970" d="M20.8065,-223.2163C20.4913,-209.5402 21.854,-191.1737 29.4531,-177 38.2904,-160.5168 55.6264,-147.5507 68.6808,-139.5442"/>
<polygon fill="#191970" stroke="#191970" points="17.3229,-223.6129 21.3658,-233.406 24.3124,-223.2292 17.3229,-223.6129"/>
</g>
<!-- Node7 -->
<g id="node7" class="node">
<title>Node7</title>
<g id="a_node7"><a xlink:href="interfacelocomotor_1_1components_1_1types_1_1_c_comparable_type.html" target="_top" xlink:title="CComparableType">
<polygon fill="#ffffff" stroke="#000000" points="150.7637,-177.5 150.7637,-195.5 250.1426,-195.5 250.1426,-177.5 150.7637,-177.5"/>
<text text-anchor="middle" x="200.4531" y="-183.5" font-family="Helvetica,sans-Serif" font-size="10.00" fill="#000000">CComparableType</text>
</a>
</g>
</g>
<!-- Node4&#45;&gt;Node7 -->
<g id="edge7" class="edge">
<title>Node4&#45;&gt;Node7</title>
<path fill="none" stroke="#191970" d="M54.7162,-232.3498C88.0526,-221.862 139.6032,-205.6438 171.6194,-195.5713"/>
<polygon fill="#191970" stroke="#191970" points="53.4856,-229.0678 44.9969,-235.4076 55.5864,-235.7451 53.4856,-229.0678"/>
</g>
<!-- Node5 -->
<g id="node5" class="node">
<title>Node5</title>
<g id="a_node5"><a xlink:href="interfacelocomotor_1_1components_1_1_j_s_o_n_displayable.html" target="_top" xlink:title="JSONDisplayable">
<polygon fill="#ffffff" stroke="#000000" points="38.271,-177.5 38.271,-195.5 132.6353,-195.5 132.6353,-177.5 38.271,-177.5"/>
<text text-anchor="middle" x="85.4531" y="-183.5" font-family="Helvetica,sans-Serif" font-size="10.00" fill="#000000">JSONDisplayable</text>
</a>
</g>
</g>
<!-- Node5&#45;&gt;Node3 -->
<g id="edge4" class="edge">
<title>Node5&#45;&gt;Node3</title>
<path fill="none" stroke="#191970" d="M85.4531,-167.2065C85.4531,-157.8384 85.4531,-147.0262 85.4531,-139.5752"/>
<polygon fill="#191970" stroke="#191970" points="81.9532,-167.2527 85.4531,-177.2527 88.9532,-167.2528 81.9532,-167.2527"/>
</g>
<!-- Node6 -->
<g id="node6" class="node">
<title>Node6</title>
<g id="a_node6"><a xlink:href="interfacelocomotor_1_1components_1_1types_1_1_c_item_type.html" target="_top" xlink:title="CItemType">
<polygon fill="#ffffff" stroke="#000000" points="155.2759,-121.5 155.2759,-139.5 219.6304,-139.5 219.6304,-121.5 155.2759,-121.5"/>
<text text-anchor="middle" x="187.4531" y="-127.5" font-family="Helvetica,sans-Serif" font-size="10.00" fill="#000000">CItemType</text>
</a>
</g>
</g>
<!-- Node5&#45;&gt;Node6 -->
<g id="edge8" class="edge">
<title>Node5&#45;&gt;Node6</title>
<path fill="none" stroke="#191970" d="M111.2032,-172.3627C129.9446,-162.0733 154.7702,-148.4436 170.9233,-139.5752"/>
<polygon fill="#191970" stroke="#191970" points="109.3777,-169.3721 102.2964,-177.2527 112.7466,-175.5081 109.3777,-169.3721"/>
</g>
<!-- Node6&#45;&gt;Node2 -->
<g id="edge5" class="edge">
<title>Node6&#45;&gt;Node2</title>
<path fill="none" stroke="#191970" d="M198.473,-112.5926C205.9857,-100.3846 215.6318,-84.7097 221.6795,-74.8821"/>
<polygon fill="#191970" stroke="#191970" points="195.2752,-111.1111 193.015,-121.462 201.2368,-114.7798 195.2752,-111.1111"/>
</g>
<!-- Node7&#45;&gt;Node6 -->
<g id="edge6" class="edge">
<title>Node7&#45;&gt;Node6</title>
<path fill="none" stroke="#191970" d="M196.0451,-167.5115C193.8542,-158.0738 191.3084,-147.1072 189.5599,-139.5752"/>
<polygon fill="#191970" stroke="#191970" points="192.6357,-168.3032 198.3064,-177.2527 199.4544,-166.7203 192.6357,-168.3032"/>
</g>
<!-- Node9 -->
<g id="node9" class="node">
<title>Node9</title>
<g id="a_node9"><a xlink:href="interfacelocomotor_1_1components_1_1types_1_1_c_user_type.html" target="_top" xlink:title="CUserType">
<polygon fill="#ffffff" stroke="#000000" points="237.4434,-121.5 237.4434,-139.5 303.4629,-139.5 303.4629,-121.5 237.4434,-121.5"/>
<text text-anchor="middle" x="270.4531" y="-127.5" font-family="Helvetica,sans-Serif" font-size="10.00" fill="#000000">CUserType</text>
</a>
</g>
</g>
<!-- Node7&#45;&gt;Node9 -->
<g id="edge11" class="edge">
<title>Node7&#45;&gt;Node9</title>
<path fill="none" stroke="#191970" d="M220.0932,-170.788C232.683,-160.7161 248.5805,-147.9981 259.1091,-139.5752"/>
<polygon fill="#191970" stroke="#191970" points="217.6345,-168.2727 212.0122,-177.2527 222.0074,-173.7388 217.6345,-168.2727"/>
</g>
<!-- Node8 -->
<g id="node8" class="node">
<title>Node8</title>
<g id="a_node8"><a xlink:href="interfacelocomotor_1_1components_1_1_j_s_o_n_convertissable.html" target="_top" xlink:title="JSONConvertissable">
<polygon fill="#ffffff" stroke="#000000" points="268.0469,-177.5 268.0469,-195.5 376.8594,-195.5 376.8594,-177.5 268.0469,-177.5"/>
<text text-anchor="middle" x="322.4531" y="-183.5" font-family="Helvetica,sans-Serif" font-size="10.00" fill="#000000">JSONConvertissable</text>
</a>
</g>
</g>
<!-- Node8&#45;&gt;Node6 -->
<g id="edge9" class="edge">
<title>Node8&#45;&gt;Node6</title>
<path fill="none" stroke="#191970" d="M291.0399,-173.4693C266.0063,-163.085 231.593,-148.8099 209.4343,-139.6181"/>
<polygon fill="#191970" stroke="#191970" points="289.8847,-176.7793 300.4626,-177.378 292.5668,-170.3135 289.8847,-176.7793"/>
</g>
<!-- Node8&#45;&gt;Node9 -->
<g id="edge12" class="edge">
<title>Node8&#45;&gt;Node9</title>
<path fill="none" stroke="#191970" d="M307.0481,-169.9099C297.833,-159.986 286.4758,-147.7551 278.8801,-139.5752"/>
<polygon fill="#191970" stroke="#191970" points="304.4971,-172.3064 313.8664,-177.2527 309.6266,-167.5432 304.4971,-172.3064"/>
</g>
<!-- Node9&#45;&gt;Node2 -->
<g id="edge10" class="edge">
<title>Node9&#45;&gt;Node2</title>
<path fill="none" stroke="#191970" d="M258.8459,-112.9542C250.7364,-100.6956 240.2255,-84.807 233.6598,-74.8821"/>
<polygon fill="#191970" stroke="#191970" points="256.0377,-115.0529 264.4742,-121.462 261.8758,-111.1907 256.0377,-115.0529"/>
</g>
<!-- Node10 -->
<g id="node10" class="node">
<title>Node10</title>
<polygon fill="#ffffff" stroke="#bfbfbf" points="321.8779,-121.5 321.8779,-139.5 457.0283,-139.5 457.0283,-121.5 321.8779,-121.5"/>
<text text-anchor="middle" x="389.4531" y="-127.5" font-family="Helvetica,sans-Serif" font-size="10.00" fill="#000000">TreeMap&lt; Integer, String &gt;</text>
</g>
<!-- Node10&#45;&gt;Node2 -->
<g id="edge13" class="edge">
<title>Node10&#45;&gt;Node2</title>
<path fill="none" stroke="#9a32cd" stroke-dasharray="5,2" d="M357.2369,-117.5737C325.5301,-104.8519 277.9301,-85.7531 250.0478,-74.5658"/>
<polygon fill="#9a32cd" stroke="#9a32cd" points="356.3436,-120.9865 366.9277,-121.462 358.9502,-114.4899 356.3436,-120.9865"/>
<text text-anchor="middle" x="336.0762" y="-95" font-family="Helvetica,sans-Serif" font-size="10.00" fill="#000000"> _values</text>
</g>
</g>
</svg>
