<?xml version="1.0" encoding="UTF-8" standalone="no"?>
<!DOCTYPE svg PUBLIC "-//W3C//DTD SVG 1.1//EN"
 "http://www.w3.org/Graphics/SVG/1.1/DTD/svg11.dtd">
<!-- Generated by graphviz version 2.40.1 (20161225.0304)
 -->
<!-- Title: min Pages: 1 -->
<!--zoomable 98 -->
<svg id="main" version="1.1" xmlns="http://www.w3.org/2000/svg" xmlns:xlink="http://www.w3.org/1999/xlink" xml:space="preserve" onload="init(evt)">
<style type="text/css"><![CDATA[
.edge:hover path { stroke: red; }
.edge:hover polygon { stroke: red; fill: red; }
]]></style>
<script type="text/javascript"><![CDATA[
var edges = document.getElementsByTagName('g');
if (edges && edges.length) {
  for (var i=0;i<edges.length;i++) {
    if (edges[i].id.substr(0,4)=='edge') {
      edges[i].setAttribute('class','edge');
    }
  }
}
]]></script>
        <defs>
                <circle id="rim" cx="0" cy="0" r="7"/>
                <circle id="rim2" cx="0" cy="0" r="3.5"/>
                <g id="zoomPlus">
                        <use xlink:href="#rim" fill="#404040">
                                <set attributeName="fill" to="#808080" begin="zoomplus.mouseover" end="zoomplus.mouseout"/>
                        </use>
                        <path d="M-4,0h8M0,-4v8" fill="none" stroke="white" stroke-width="1.5" pointer-events="none"/>
                </g>
                <g id="zoomMin">
                        <use xlink:href="#rim" fill="#404040">
                                <set attributeName="fill" to="#808080" begin="zoomminus.mouseover" end="zoomminus.mouseout"/>
                        </use>
                        <path d="M-4,0h8" fill="none" stroke="white" stroke-width="1.5" pointer-events="none"/>
                </g>
                <g id="dirArrow">
                        <path fill="none" stroke="white" stroke-width="1.5" d="M0,-3.0v7 M-2.5,-0.5L0,-3.0L2.5,-0.5"/>
                </g>
               <g id="resetDef">
                       <use xlink:href="#rim2" fill="#404040">
                               <set attributeName="fill" to="#808080" begin="reset.mouseover" end="reset.mouseout"/>
                       </use>
               </g>
        </defs>

<script type="text/javascript">
var viewWidth = 1434;
var viewHeight = 98;
var sectionId = 'dynsection-7';
</script>
<script xlink:href="svgpan.js"/>
<svg id="graph" class="graph">
<g id="viewport">
<title>min</title>
<polygon fill="#ffffff" stroke="transparent" points="-4,4 -4,-94 1429.8379,-94 1429.8379,4 -4,4"/>
<!-- Node1 -->
<g id="node1" class="node">
<title>Node1</title>
<polygon fill="#bfbfbf" stroke="#000000" points="0,-24.5 0,-42.5 32.1133,-42.5 32.1133,-24.5 0,-24.5"/>
<text text-anchor="middle" x="16.0566" y="-30.5" font-family="Helvetica,sans-Serif" font-size="10.00" fill="#000000">min</text>
</g>
<!-- Node2 -->
<g id="node2" class="node">
<title>Node2</title>
<g id="a_node2"><a xlink:href="classlocomotor_1_1components_1_1types_1_1_c_weighted_integer.html#acb085d655773a5014997582a57ae2ab2" target="_top" xlink:title="locomotor.components.types.\lCWeightedInteger.compare">
<polygon fill="#ffffff" stroke="#000000" points="68.1133,-61.5 68.1133,-89.5 214.1865,-89.5 214.1865,-61.5 68.1133,-61.5"/>
<text text-anchor="start" x="76.1133" y="-77.5" font-family="Helvetica,sans-Serif" font-size="10.00" fill="#000000">locomotor.components.types.</text>
<text text-anchor="middle" x="141.1499" y="-67.5" font-family="Helvetica,sans-Serif" font-size="10.00" fill="#000000">CWeightedInteger.compare</text>
</a>
</g>
</g>
<!-- Node1&#45;&gt;Node2 -->
<g id="edge1" class="edge">
<title>Node1&#45;&gt;Node2</title>
<path fill="none" stroke="#191970" d="M41.9663,-43.2163C50.2883,-46.2673 59.5647,-49.5956 68.1133,-52.5 76.9243,-55.4936 86.3776,-58.5698 95.4632,-61.4595"/>
<polygon fill="#191970" stroke="#191970" points="42.9951,-39.8651 32.4019,-39.6793 40.5671,-46.4306 42.9951,-39.8651"/>
</g>
<!-- Node3 -->
<g id="node3" class="node">
<title>Node3</title>
<g id="a_node3"><a xlink:href="classlocomotor_1_1components_1_1types_1_1_c_weighted_string_list.html#af359d6fddb9c42710b6546ed2337eec7" target="_top" xlink:title="CWeightedStringList">
<polygon fill="#ffffff" stroke="#000000" points="87.6616,-24.5 87.6616,-42.5 194.6382,-42.5 194.6382,-24.5 87.6616,-24.5"/>
<text text-anchor="middle" x="141.1499" y="-30.5" font-family="Helvetica,sans-Serif" font-size="10.00" fill="#000000">CWeightedStringList</text>
</a>
</g>
</g>
<!-- Node1&#45;&gt;Node3 -->
<g id="edge2" class="edge">
<title>Node1&#45;&gt;Node3</title>
<path fill="none" stroke="#191970" d="M42.3194,-33.5C55.4367,-33.5 71.8085,-33.5 87.4306,-33.5"/>
<polygon fill="#191970" stroke="#191970" points="42.1543,-30.0001 32.1543,-33.5 42.1543,-37.0001 42.1543,-30.0001"/>
</g>
<!-- Node4 -->
<g id="node4" class="node">
<title>Node4</title>
<g id="a_node4"><a xlink:href="classlocomotor_1_1components_1_1types_1_1_c_weighted_string_list.html#a7a08dcf44cd83920ed5e14cef6361de8" target="_top" xlink:title="fromJSON">
<polygon fill="#ffffff" stroke="#000000" points="250.1865,-5.5 250.1865,-23.5 312.8564,-23.5 312.8564,-5.5 250.1865,-5.5"/>
<text text-anchor="middle" x="281.5215" y="-11.5" font-family="Helvetica,sans-Serif" font-size="10.00" fill="#000000">fromJSON</text>
</a>
</g>
</g>
<!-- Node1&#45;&gt;Node4 -->
<g id="edge10" class="edge">
<title>Node1&#45;&gt;Node4</title>
<path fill="none" stroke="#191970" d="M41.986,-22.6629C50.1943,-19.7435 59.4009,-16.9847 68.1133,-15.5 132.03,-4.6074 208.2864,-8.1397 250.1434,-11.4655"/>
<polygon fill="#191970" stroke="#191970" points="40.6815,-19.4142 32.5689,-26.2287 43.1603,-25.9607 40.6815,-19.4142"/>
</g>
<!-- Node3&#45;&gt;Node4 -->
<g id="edge3" class="edge">
<title>Node3&#45;&gt;Node4</title>
<path fill="none" stroke="#191970" d="M205.1461,-24.8378C220.6944,-22.7333 236.6511,-20.5734 249.9319,-18.7758"/>
<polygon fill="#191970" stroke="#191970" points="204.4599,-21.3987 195.0198,-26.2084 205.3989,-28.3354 204.4599,-21.3987"/>
</g>
<!-- Node5 -->
<g id="node5" class="node">
<title>Node5</title>
<g id="a_node5"><a xlink:href="classlocomotor_1_1components_1_1types_1_1_type_factory.html#a1a64701bf13afa82b6b32bf422a171e2" target="_top" xlink:title="locomotor.components.types.\lTypeFactory.getUser">
<polygon fill="#ffffff" stroke="#000000" points="348.8564,-.5 348.8564,-28.5 494.9297,-28.5 494.9297,-.5 348.8564,-.5"/>
<text text-anchor="start" x="356.8564" y="-16.5" font-family="Helvetica,sans-Serif" font-size="10.00" fill="#000000">locomotor.components.types.</text>
<text text-anchor="middle" x="421.8931" y="-6.5" font-family="Helvetica,sans-Serif" font-size="10.00" fill="#000000">TypeFactory.getUser</text>
</a>
</g>
</g>
<!-- Node4&#45;&gt;Node5 -->
<g id="edge4" class="edge">
<title>Node4&#45;&gt;Node5</title>
<path fill="none" stroke="#191970" d="M323.2143,-14.5C331.2646,-14.5 339.9174,-14.5 348.6335,-14.5"/>
<polygon fill="#191970" stroke="#191970" points="323.0236,-11.0001 313.0236,-14.5 323.0236,-18.0001 323.0236,-11.0001"/>
</g>
<!-- Node6 -->
<g id="node6" class="node">
<title>Node6</title>
<g id="a_node6"><a xlink:href="classlocomotor_1_1components_1_1models_1_1_user_criteria.html#aaca1c5ec640a1453943ce97d40e12a63" target="_top" xlink:title="locomotor.components.models.\lUserCriteria.fromJSON">
<polygon fill="#ffffff" stroke="#000000" points="530.9297,-.5 530.9297,-28.5 685.3379,-28.5 685.3379,-.5 530.9297,-.5"/>
<text text-anchor="start" x="538.9297" y="-16.5" font-family="Helvetica,sans-Serif" font-size="10.00" fill="#000000">locomotor.components.models.</text>
<text text-anchor="middle" x="608.1338" y="-6.5" font-family="Helvetica,sans-Serif" font-size="10.00" fill="#000000">UserCriteria.fromJSON</text>
</a>
</g>
</g>
<!-- Node5&#45;&gt;Node6 -->
<g id="edge5" class="edge">
<title>Node5&#45;&gt;Node6</title>
<path fill="none" stroke="#191970" d="M505.221,-14.5C513.6885,-14.5 522.2652,-14.5 530.6669,-14.5"/>
<polygon fill="#191970" stroke="#191970" points="504.9658,-11.0001 494.9658,-14.5 504.9658,-18.0001 504.9658,-11.0001"/>
</g>
<!-- Node7 -->
<g id="node7" class="node">
<title>Node7</title>
<g id="a_node7"><a xlink:href="classlocomotor_1_1components_1_1models_1_1_user_category.html#a52e02970889790bace019e61fb256ff0" target="_top" xlink:title="locomotor.components.models.\lUserCategory.fromJSON">
<polygon fill="#ffffff" stroke="#000000" points="721.3379,-.5 721.3379,-28.5 875.7461,-28.5 875.7461,-.5 721.3379,-.5"/>
<text text-anchor="start" x="729.3379" y="-16.5" font-family="Helvetica,sans-Serif" font-size="10.00" fill="#000000">locomotor.components.models.</text>
<text text-anchor="middle" x="798.542" y="-6.5" font-family="Helvetica,sans-Serif" font-size="10.00" fill="#000000">UserCategory.fromJSON</text>
</a>
</g>
</g>
<!-- Node6&#45;&gt;Node7 -->
<g id="edge6" class="edge">
<title>Node6&#45;&gt;Node7</title>
<path fill="none" stroke="#191970" d="M695.8342,-14.5C704.2878,-14.5 712.8208,-14.5 721.1643,-14.5"/>
<polygon fill="#191970" stroke="#191970" points="695.5801,-11.0001 685.5801,-14.5 695.5801,-18.0001 695.5801,-11.0001"/>
</g>
<!-- Node8 -->
<g id="node8" class="node">
<title>Node8</title>
<g id="a_node8"><a xlink:href="classlocomotor_1_1components_1_1models_1_1_user_item.html#ab97f79cf43a9a73bcd77cec6b449a79a" target="_top" xlink:title="locomotor.components.models.\lUserItem.fromJSON">
<polygon fill="#ffffff" stroke="#000000" points="911.7461,-.5 911.7461,-28.5 1066.1543,-28.5 1066.1543,-.5 911.7461,-.5"/>
<text text-anchor="start" x="919.7461" y="-16.5" font-family="Helvetica,sans-Serif" font-size="10.00" fill="#000000">locomotor.components.models.</text>
<text text-anchor="middle" x="988.9502" y="-6.5" font-family="Helvetica,sans-Serif" font-size="10.00" fill="#000000">UserItem.fromJSON</text>
</a>
</g>
</g>
<!-- Node7&#45;&gt;Node8 -->
<g id="edge7" class="edge">
<title>Node7&#45;&gt;Node8</title>
<path fill="none" stroke="#191970" d="M886.2424,-14.5C894.696,-14.5 903.229,-14.5 911.5725,-14.5"/>
<polygon fill="#191970" stroke="#191970" points="885.9883,-11.0001 875.9883,-14.5 885.9883,-18.0001 885.9883,-11.0001"/>
</g>
<!-- Node9 -->
<g id="node9" class="node">
<title>Node9</title>
<g id="a_node9"><a xlink:href="classlocomotor_1_1components_1_1network_1_1_a_p_i.html#a547463fbc7fb7b485886f0917e2c0b78" target="_top" xlink:title="locomotor.components.network.\lAPI.createHooks">
<polygon fill="#ffffff" stroke="#000000" points="1102.1543,-.5 1102.1543,-28.5 1259.3408,-28.5 1259.3408,-.5 1102.1543,-.5"/>
<text text-anchor="start" x="1110.1543" y="-16.5" font-family="Helvetica,sans-Serif" font-size="10.00" fill="#000000">locomotor.components.network.</text>
<text text-anchor="middle" x="1180.7476" y="-6.5" font-family="Helvetica,sans-Serif" font-size="10.00" fill="#000000">API.createHooks</text>
</a>
</g>
</g>
<!-- Node8&#45;&gt;Node9 -->
<g id="edge8" class="edge">
<title>Node8&#45;&gt;Node9</title>
<path fill="none" stroke="#191970" d="M1076.6748,-14.5C1085.1407,-14.5 1093.6922,-14.5 1102.0628,-14.5"/>
<polygon fill="#191970" stroke="#191970" points="1076.4087,-11.0001 1066.4087,-14.5 1076.4086,-18.0001 1076.4087,-11.0001"/>
</g>
<!-- Node10 -->
<g id="node10" class="node">
<title>Node10</title>
<g id="a_node10"><a xlink:href="classlocomotor_1_1core_1_1_main.html#a8b260eecbaabcef8473fd87ada040682" target="_top" xlink:title="locomotor.core.Main.main">
<polygon fill="#ffffff" stroke="#000000" points="1295.3408,-5.5 1295.3408,-23.5 1425.8379,-23.5 1425.8379,-5.5 1295.3408,-5.5"/>
<text text-anchor="middle" x="1360.5894" y="-11.5" font-family="Helvetica,sans-Serif" font-size="10.00" fill="#000000">locomotor.core.Main.main</text>
</a>
</g>
</g>
<!-- Node9&#45;&gt;Node10 -->
<g id="edge9" class="edge">
<title>Node9&#45;&gt;Node10</title>
<path fill="none" stroke="#191970" d="M1269.5406,-14.5C1278.2289,-14.5 1286.9312,-14.5 1295.3231,-14.5"/>
<polygon fill="#191970" stroke="#191970" points="1269.3672,-11.0001 1259.3672,-14.5 1269.3671,-18.0001 1269.3672,-11.0001"/>
</g>
</g>
</svg>
        <g id="navigator" transform="translate(0 0)" fill="#404254">
                <rect fill="#f2f5e9" fill-opacity="0.5" stroke="#606060" stroke-width=".5" x="0" y="0" width="60" height="60"/>
                <use id="zoomplus" xlink:href="#zoomPlus" x="17" y="9" onmousedown="handleZoom(evt,'in')"/>
                <use id="zoomminus" xlink:href="#zoomMin" x="42" y="9" onmousedown="handleZoom(evt,'out')"/>
                <use id="reset" xlink:href="#resetDef" x="30" y="36" onmousedown="handleReset()"/>
                <g id="arrowUp" xlink:href="#dirArrow" transform="translate(30 24)" onmousedown="handlePan(0,-1)">
                  <use xlink:href="#rim" fill="#404040">
                        <set attributeName="fill" to="#808080" begin="arrowUp.mouseover" end="arrowUp.mouseout"/>
                  </use>
                  <path fill="none" stroke="white" stroke-width="1.5" d="M0,-3.0v7 M-2.5,-0.5L0,-3.0L2.5,-0.5"/>
                </g>
                <g id="arrowRight" xlink:href="#dirArrow" transform="rotate(90) translate(36 -43)" onmousedown="handlePan(1,0)">
                  <use xlink:href="#rim" fill="#404040">
                        <set attributeName="fill" to="#808080" begin="arrowRight.mouseover" end="arrowRight.mouseout"/>
                  </use>
                  <path fill="none" stroke="white" stroke-width="1.5" d="M0,-3.0v7 M-2.5,-0.5L0,-3.0L2.5,-0.5"/>
                </g>
                <g id="arrowDown" xlink:href="#dirArrow" transform="rotate(180) translate(-30 -48)" onmousedown="handlePan(0,1)">
                  <use xlink:href="#rim" fill="#404040">
                        <set attributeName="fill" to="#808080" begin="arrowDown.mouseover" end="arrowDown.mouseout"/>
                  </use>
                  <path fill="none" stroke="white" stroke-width="1.5" d="M0,-3.0v7 M-2.5,-0.5L0,-3.0L2.5,-0.5"/>
                </g>
                <g id="arrowLeft" xlink:href="#dirArrow" transform="rotate(270) translate(-36 17)" onmousedown="handlePan(-1,0)">
                  <use xlink:href="#rim" fill="#404040">
                        <set attributeName="fill" to="#808080" begin="arrowLeft.mouseover" end="arrowLeft.mouseout"/>
                  </use>
                  <path fill="none" stroke="white" stroke-width="1.5" d="M0,-3.0v7 M-2.5,-0.5L0,-3.0L2.5,-0.5"/>
                </g>
        </g>
        <svg viewBox="0 0 15 15" width="100%" height="30px" preserveAspectRatio="xMaxYMin meet">
         <g id="arrow_out" transform="scale(0.3 0.3)">
          <a xlink:href="classlocomotor_1_1components_1_1types_1_1_c_weighted_string_list_a97eb4ff6ea197b3a02c2db1c768c989a_icgraph_org.svg" target="_base">
           <rect id="button" ry="5" rx="5" y="6" x="6" height="38" width="38"
                fill="#f2f5e9" fill-opacity="0.5" stroke="#606060" stroke-width="1.0"/>
           <path id="arrow"
             d="M 11.500037,31.436501 C 11.940474,20.09759 22.043105,11.32322 32.158766,21.979434 L 37.068811,17.246167 C 37.068811,17.246167 37.088388,32 37.088388,32 L 22.160133,31.978069 C 22.160133,31.978069 26.997745,27.140456 26.997745,27.140456 C 18.528582,18.264221 13.291696,25.230495 11.500037,31.436501 z"
             style="fill:#404040;"/>
          </a>
         </g>
        </svg>
</svg>
