<?xml version="1.0" encoding="UTF-8" standalone="no"?>
<!DOCTYPE svg PUBLIC "-//W3C//DTD SVG 1.1//EN"
 "http://www.w3.org/Graphics/SVG/1.1/DTD/svg11.dtd">
<!-- Generated by graphviz version 2.40.1 (20161225.0304)
 -->
<!-- Title: push Pages: 1 -->
<!--zoomable 969 -->
<svg id="main" version="1.1" xmlns="http://www.w3.org/2000/svg" xmlns:xlink="http://www.w3.org/1999/xlink" xml:space="preserve" onload="init(evt)">
<style type="text/css"><![CDATA[
.edge:hover path { stroke: red; }
.edge:hover polygon { stroke: red; fill: red; }
]]></style>
<script type="text/javascript"><![CDATA[
var edges = document.getElementsByTagName('g');
if (edges && edges.length) {
  for (var i=0;i<edges.length;i++) {
    if (edges[i].id.substr(0,4)=='edge') {
      edges[i].setAttribute('class','edge');
    }
  }
}
]]></script>
        <defs>
                <circle id="rim" cx="0" cy="0" r="7"/>
                <circle id="rim2" cx="0" cy="0" r="3.5"/>
                <g id="zoomPlus">
                        <use xlink:href="#rim" fill="#404040">
                                <set attributeName="fill" to="#808080" begin="zoomplus.mouseover" end="zoomplus.mouseout"/>
                        </use>
                        <path d="M-4,0h8M0,-4v8" fill="none" stroke="white" stroke-width="1.5" pointer-events="none"/>
                </g>
                <g id="zoomMin">
                        <use xlink:href="#rim" fill="#404040">
                                <set attributeName="fill" to="#808080" begin="zoomminus.mouseover" end="zoomminus.mouseout"/>
                        </use>
                        <path d="M-4,0h8" fill="none" stroke="white" stroke-width="1.5" pointer-events="none"/>
                </g>
                <g id="dirArrow">
                        <path fill="none" stroke="white" stroke-width="1.5" d="M0,-3.0v7 M-2.5,-0.5L0,-3.0L2.5,-0.5"/>
                </g>
               <g id="resetDef">
                       <use xlink:href="#rim2" fill="#404040">
                               <set attributeName="fill" to="#808080" begin="reset.mouseover" end="reset.mouseout"/>
                       </use>
               </g>
        </defs>

<script type="text/javascript">
var viewWidth = 1000;
var viewHeight = 969;
var sectionId = 'dynsection-9';
</script>
<script xlink:href="svgpan.js"/>
<svg id="graph" class="graph">
<g id="viewport">
<title>push</title>
<polygon fill="#ffffff" stroke="transparent" points="-4,4 -4,-965.1366 996.4746,-965.1366 996.4746,4 -4,4"/>
<!-- Node1 -->
<g id="node1" class="node">
<title>Node1</title>
<polygon fill="#bfbfbf" stroke="#000000" points="0,-508.1711 0,-526.1711 37.6846,-526.1711 37.6846,-508.1711 0,-508.1711"/>
<text text-anchor="middle" x="18.8423" y="-514.1711" font-family="Helvetica,sans-Serif" font-size="10.00" fill="#000000">push</text>
</g>
<!-- Node2 -->
<g id="node2" class="node">
<title>Node2</title>
<g id="a_node2"><a xlink:href="classlocomotor_1_1components_1_1models_1_1_item_category_full.html#a50ab7c0f8e4a65f80ca141f1fa1c7df8" target="_top" xlink:title="locomotor.components.models.\lItemCategoryFull.fromJSON">
<polygon fill="#ffffff" stroke="#000000" points="274.3735,-831.1711 274.3735,-859.1711 428.7817,-859.1711 428.7817,-831.1711 274.3735,-831.1711"/>
<text text-anchor="start" x="282.3735" y="-847.1711" font-family="Helvetica,sans-Serif" font-size="10.00" fill="#000000">locomotor.components.models.</text>
<text text-anchor="middle" x="351.5776" y="-837.1711" font-family="Helvetica,sans-Serif" font-size="10.00" fill="#000000">ItemCategoryFull.fromJSON</text>
</a>
</g>
</g>
<!-- Node1&#45;&gt;Node2 -->
<g id="edge1" class="edge">
<title>Node1&#45;&gt;Node2</title>
<path fill="none" stroke="#191970" d="M19.9679,-536.2756C23.6737,-592.3982 37.3984,-755.0882 73.6846,-791.1711 87.9078,-805.3147 196.9975,-823.3791 274.178,-834.6121"/>
<polygon fill="#191970" stroke="#191970" points="23.4595,-536.0312 19.3405,-526.2699 16.4733,-536.4693 23.4595,-536.0312"/>
</g>
<!-- Node3 -->
<g id="node3" class="node">
<title>Node3</title>
<g id="a_node3"><a xlink:href="classlocomotor_1_1components_1_1models_1_1_item_full.html#afe56c5f49cb59d04ec69bbf32b58a2f8" target="_top" xlink:title="locomotor.components.models.\lItemFull.fromJSON">
<polygon fill="#ffffff" stroke="#000000" points="473.3853,-831.1711 473.3853,-859.1711 627.7935,-859.1711 627.7935,-831.1711 473.3853,-831.1711"/>
<text text-anchor="start" x="481.3853" y="-847.1711" font-family="Helvetica,sans-Serif" font-size="10.00" fill="#000000">locomotor.components.models.</text>
<text text-anchor="middle" x="550.5894" y="-837.1711" font-family="Helvetica,sans-Serif" font-size="10.00" fill="#000000">ItemFull.fromJSON</text>
</a>
</g>
</g>
<!-- Node1&#45;&gt;Node3 -->
<g id="edge7" class="edge">
<title>Node1&#45;&gt;Node3</title>
<path fill="none" stroke="#191970" d="M19.9916,-536.8536C24.7428,-614.8454 44.0052,-899.2142 73.6846,-925.1711 133.6864,-977.6473 362.4237,-963.3681 432.3877,-925.1711 458.3575,-910.9929 444.6864,-886.8829 468.3877,-869.1711 473.6277,-865.2554 479.4947,-861.9766 485.6185,-859.2317"/>
<polygon fill="#191970" stroke="#191970" points="23.4655,-536.3104 19.3752,-526.537 16.478,-536.728 23.4655,-536.3104"/>
</g>
<!-- Node6 -->
<g id="node6" class="node">
<title>Node6</title>
<g id="a_node6"><a xlink:href="classlocomotor_1_1components_1_1models_1_1_item_criteria_full.html#a436730a3499b6d7b1d0359e12aa2f04a" target="_top" xlink:title="locomotor.components.models.\lItemCriteriaFull.fromJSON">
<polygon fill="#ffffff" stroke="#000000" points="77.022,-840.1711 77.022,-868.1711 231.4302,-868.1711 231.4302,-840.1711 77.022,-840.1711"/>
<text text-anchor="start" x="85.022" y="-856.1711" font-family="Helvetica,sans-Serif" font-size="10.00" fill="#000000">locomotor.components.models.</text>
<text text-anchor="middle" x="154.2261" y="-846.1711" font-family="Helvetica,sans-Serif" font-size="10.00" fill="#000000">ItemCriteriaFull.fromJSON</text>
</a>
</g>
</g>
<!-- Node1&#45;&gt;Node6 -->
<g id="edge5" class="edge">
<title>Node1&#45;&gt;Node6</title>
<path fill="none" stroke="#191970" d="M19.7956,-536.3612C23.1582,-596.6547 36.345,-780.9028 73.6846,-825.1711 78.9547,-831.4192 85.678,-836.3212 92.9867,-840.167"/>
<polygon fill="#191970" stroke="#191970" points="23.2878,-536.1199 19.264,-526.3189 16.2976,-536.49 23.2878,-536.1199"/>
</g>
<!-- Node7 -->
<g id="node7" class="node">
<title>Node7</title>
<g id="a_node7"><a xlink:href="classlocomotor_1_1components_1_1types_1_1_c_interval.html#afd960ea0d74219e2fa2bdc51004d05ba" target="_top" xlink:title="locomotor.components.types.\lCInterval.CInterval">
<polygon fill="#ffffff" stroke="#000000" points="81.1895,-887.1711 81.1895,-915.1711 227.2627,-915.1711 227.2627,-887.1711 81.1895,-887.1711"/>
<text text-anchor="start" x="89.1895" y="-903.1711" font-family="Helvetica,sans-Serif" font-size="10.00" fill="#000000">locomotor.components.types.</text>
<text text-anchor="middle" x="154.2261" y="-893.1711" font-family="Helvetica,sans-Serif" font-size="10.00" fill="#000000">CInterval.CInterval</text>
</a>
</g>
</g>
<!-- Node1&#45;&gt;Node7 -->
<g id="edge8" class="edge">
<title>Node1&#45;&gt;Node7</title>
<path fill="none" stroke="#191970" d="M19.1183,-536.6223C20.4701,-604.0801 28.3481,-826.657 73.6846,-878.1711 76.6628,-881.5552 80.1008,-884.457 83.8435,-886.9436"/>
<polygon fill="#191970" stroke="#191970" points="22.6109,-536.1578 18.9387,-526.2197 15.6119,-536.2787 22.6109,-536.1578"/>
</g>
<!-- Node9 -->
<g id="node9" class="node">
<title>Node9</title>
<g id="a_node9"><a xlink:href="classlocomotor_1_1core_1_1_d_b_h.html#a17eef13d222e2f7d4cc413a965de3069" target="_top" xlink:title="locomotor.core.DBH.registerUser">
<polygon fill="#ffffff" stroke="#000000" points="469.23,-878.1711 469.23,-896.1711 631.9487,-896.1711 631.9487,-878.1711 469.23,-878.1711"/>
<text text-anchor="middle" x="550.5894" y="-884.1711" font-family="Helvetica,sans-Serif" font-size="10.00" fill="#000000">locomotor.core.DBH.registerUser</text>
</a>
</g>
</g>
<!-- Node1&#45;&gt;Node9 -->
<g id="edge10" class="edge">
<title>Node1&#45;&gt;Node9</title>
<path fill="none" stroke="#191970" d="M19.792,-536.7659C23.9415,-618.3251 41.7169,-927.9485 73.6846,-956.1711 81.7847,-963.3223 406.1575,-962.2489 432.3877,-955.1711 475.5877,-943.5144 519.4271,-912.0055 539.4152,-896.3111"/>
<polygon fill="#191970" stroke="#191970" points="23.2713,-536.2617 19.2786,-526.448 16.28,-536.6097 23.2713,-536.2617"/>
</g>
<!-- Node10 -->
<g id="node10" class="node">
<title>Node10</title>
<g id="a_node10"><a xlink:href="classlocomotor_1_1core_1_1_d_b_h.html#a34b259b9443e3b412e5a704b154546a1" target="_top" xlink:title="locomotor.core.DBH.authUser">
<polygon fill="#ffffff" stroke="#000000" points="79.8076,-717.1711 79.8076,-735.1711 228.6445,-735.1711 228.6445,-717.1711 79.8076,-717.1711"/>
<text text-anchor="middle" x="154.2261" y="-723.1711" font-family="Helvetica,sans-Serif" font-size="10.00" fill="#000000">locomotor.core.DBH.authUser</text>
</a>
</g>
</g>
<!-- Node1&#45;&gt;Node10 -->
<g id="edge13" class="edge">
<title>Node1&#45;&gt;Node10</title>
<path fill="none" stroke="#191970" d="M22.1554,-536.3783C29.8318,-578.7686 49.9997,-678.4527 73.6846,-702.1711 80.2828,-708.7787 88.6158,-713.5825 97.4037,-717.0714"/>
<polygon fill="#191970" stroke="#191970" points="25.5931,-535.7184 20.4032,-526.4818 18.7003,-536.9389 25.5931,-535.7184"/>
</g>
<!-- Node11 -->
<g id="node11" class="node">
<title>Node11</title>
<g id="a_node11"><a xlink:href="classlocomotor_1_1core_1_1_d_b_h.html#ad707f520f60fe68ea8a8818698560d9d" target="_top" xlink:title="locomotor.core.DBH.authAdmin">
<polygon fill="#ffffff" stroke="#000000" points="273.5435,-717.1711 273.5435,-735.1711 429.6118,-735.1711 429.6118,-717.1711 273.5435,-717.1711"/>
<text text-anchor="middle" x="351.5776" y="-723.1711" font-family="Helvetica,sans-Serif" font-size="10.00" fill="#000000">locomotor.core.DBH.authAdmin</text>
</a>
</g>
</g>
<!-- Node1&#45;&gt;Node11 -->
<g id="edge47" class="edge">
<title>Node1&#45;&gt;Node11</title>
<path fill="none" stroke="#191970" d="M20.5997,-536.4679C24.4779,-567.3604 36.6165,-627.7332 73.6846,-660.1711 90.8968,-675.2335 227.6405,-702.8661 302.682,-717.1266"/>
<polygon fill="#191970" stroke="#191970" points="24.0791,-536.0873 19.5138,-526.5266 17.1205,-536.8475 24.0791,-536.0873"/>
</g>
<!-- Node12 -->
<g id="node12" class="node">
<title>Node12</title>
<g id="a_node12"><a xlink:href="classlocomotor_1_1core_1_1_d_b_h.html#a0c8f3a26e4a26089a068c98d8d6f5f9b" target="_top" xlink:title="locomotor.core.DBH.getUserInfo">
<polygon fill="#ffffff" stroke="#000000" points="271.6001,-666.1711 271.6001,-684.1711 431.5552,-684.1711 431.5552,-666.1711 271.6001,-666.1711"/>
<text text-anchor="middle" x="351.5776" y="-672.1711" font-family="Helvetica,sans-Serif" font-size="10.00" fill="#000000">locomotor.core.DBH.getUserInfo</text>
</a>
</g>
</g>
<!-- Node1&#45;&gt;Node12 -->
<g id="edge17" class="edge">
<title>Node1&#45;&gt;Node12</title>
<path fill="none" stroke="#191970" d="M22.8872,-536.2838C29.2053,-561.1492 43.9111,-604.0226 73.6846,-626.1711 104.3436,-648.9784 200.8292,-662.1849 271.5303,-669.0223"/>
<polygon fill="#191970" stroke="#191970" points="26.2305,-535.2091 20.5504,-526.2656 19.4135,-536.7992 26.2305,-535.2091"/>
</g>
<!-- Node13 -->
<g id="node13" class="node">
<title>Node13</title>
<g id="a_node13"><a xlink:href="classlocomotor_1_1core_1_1_d_b_h.html#a4f149cbfb499cbe94a2acb70753b056d" target="_top" xlink:title="locomotor.core.DBH.change\lUsername">
<polygon fill="#ffffff" stroke="#000000" points="480.0552,-631.1711 480.0552,-659.1711 621.1235,-659.1711 621.1235,-631.1711 480.0552,-631.1711"/>
<text text-anchor="start" x="488.0552" y="-647.1711" font-family="Helvetica,sans-Serif" font-size="10.00" fill="#000000">locomotor.core.DBH.change</text>
<text text-anchor="middle" x="550.5894" y="-637.1711" font-family="Helvetica,sans-Serif" font-size="10.00" fill="#000000">Username</text>
</a>
</g>
</g>
<!-- Node1&#45;&gt;Node13 -->
<g id="edge19" class="edge">
<title>Node1&#45;&gt;Node13</title>
<path fill="none" stroke="#191970" d="M29.6275,-535.223C39.2687,-549.6346 54.7749,-569.0351 73.6846,-579.1711 142.4731,-616.0434 364.6893,-634.2421 479.8782,-641.3898"/>
<polygon fill="#191970" stroke="#191970" points="32.4788,-533.1841 24.162,-526.6204 26.5704,-536.9379 32.4788,-533.1841"/>
</g>
<!-- Node14 -->
<g id="node14" class="node">
<title>Node14</title>
<g id="a_node14"><a xlink:href="classlocomotor_1_1core_1_1_d_b_h.html#a74b4c9978e018cf8fa6b5c48d563f6da" target="_top" xlink:title="locomotor.core.DBH.change\lPassword">
<polygon fill="#ffffff" stroke="#000000" points="281.0435,-566.1711 281.0435,-594.1711 422.1118,-594.1711 422.1118,-566.1711 281.0435,-566.1711"/>
<text text-anchor="start" x="289.0435" y="-582.1711" font-family="Helvetica,sans-Serif" font-size="10.00" fill="#000000">locomotor.core.DBH.change</text>
<text text-anchor="middle" x="351.5776" y="-572.1711" font-family="Helvetica,sans-Serif" font-size="10.00" fill="#000000">Password</text>
</a>
</g>
</g>
<!-- Node1&#45;&gt;Node14 -->
<g id="edge21" class="edge">
<title>Node1&#45;&gt;Node14</title>
<path fill="none" stroke="#191970" d="M39.0511,-532.232C48.9819,-538.8526 61.4283,-546.0467 73.6846,-550.1711 141.6368,-573.0382 223.7182,-579.5029 280.9847,-580.8814"/>
<polygon fill="#191970" stroke="#191970" points="40.9199,-529.2682 30.7157,-526.4177 36.915,-535.0095 40.9199,-529.2682"/>
</g>
<!-- Node15 -->
<g id="node15" class="node">
<title>Node15</title>
<g id="a_node15"><a xlink:href="classlocomotor_1_1core_1_1_d_b_h.html#a0986f5bb18ead6a7e6470747fb60a445" target="_top" xlink:title="locomotor.core.DBH.removeUser">
<polygon fill="#ffffff" stroke="#000000" points="469.23,-555.1711 469.23,-573.1711 631.9487,-573.1711 631.9487,-555.1711 469.23,-555.1711"/>
<text text-anchor="middle" x="550.5894" y="-561.1711" font-family="Helvetica,sans-Serif" font-size="10.00" fill="#000000">locomotor.core.DBH.removeUser</text>
</a>
</g>
</g>
<!-- Node1&#45;&gt;Node15 -->
<g id="edge23" class="edge">
<title>Node1&#45;&gt;Node15</title>
<path fill="none" stroke="#191970" d="M47.9031,-519.8374C56.2282,-520.5967 65.3151,-521.4211 73.6846,-522.1711 212.5558,-534.6166 374.2047,-548.7858 469.1511,-557.0758"/>
<polygon fill="#191970" stroke="#191970" points="48.1536,-516.3458 37.8765,-518.921 47.5164,-523.3168 48.1536,-516.3458"/>
</g>
<!-- Node16 -->
<g id="node16" class="node">
<title>Node16</title>
<g id="a_node16"><a xlink:href="classlocomotor_1_1core_1_1_d_b_h.html#ae573347d7e17b2bf2bac3c4a41caf0fa" target="_top" xlink:title="locomotor.core.DBH.getItem">
<polygon fill="#ffffff" stroke="#000000" points="280.7725,-490.1711 280.7725,-508.1711 422.3828,-508.1711 422.3828,-490.1711 280.7725,-490.1711"/>
<text text-anchor="middle" x="351.5776" y="-496.1711" font-family="Helvetica,sans-Serif" font-size="10.00" fill="#000000">locomotor.core.DBH.getItem</text>
</a>
</g>
</g>
<!-- Node1&#45;&gt;Node16 -->
<g id="edge25" class="edge">
<title>Node1&#45;&gt;Node16</title>
<path fill="none" stroke="#191970" d="M47.7568,-515.6069C99.1939,-512.8243 207.9854,-506.939 280.4416,-503.0194"/>
<polygon fill="#191970" stroke="#191970" points="47.4812,-512.1166 37.6849,-516.1518 47.8594,-519.1064 47.4812,-512.1166"/>
</g>
<!-- Node17 -->
<g id="node17" class="node">
<title>Node17</title>
<g id="a_node17"><a xlink:href="classlocomotor_1_1core_1_1_d_b_h.html#ad067053be75a3170dc9c2ce7b922e176" target="_top" xlink:title="locomotor.core.DBH.checking\lParsingItem">
<polygon fill="#ffffff" stroke="#000000" points="277.7134,-443.1711 277.7134,-471.1711 425.4419,-471.1711 425.4419,-443.1711 277.7134,-443.1711"/>
<text text-anchor="start" x="285.7134" y="-459.1711" font-family="Helvetica,sans-Serif" font-size="10.00" fill="#000000">locomotor.core.DBH.checking</text>
<text text-anchor="middle" x="351.5776" y="-449.1711" font-family="Helvetica,sans-Serif" font-size="10.00" fill="#000000">ParsingItem</text>
</a>
</g>
</g>
<!-- Node1&#45;&gt;Node17 -->
<g id="edge27" class="edge">
<title>Node1&#45;&gt;Node17</title>
<path fill="none" stroke="#191970" d="M47.4852,-508.7184C55.8827,-506.4085 65.1122,-504.032 73.6846,-502.1711 142.2222,-487.2932 221.2403,-474.9552 277.4538,-466.9845"/>
<polygon fill="#191970" stroke="#191970" points="46.4288,-505.3797 37.755,-511.4637 48.3297,-512.1167 46.4288,-505.3797"/>
</g>
<!-- Node20 -->
<g id="node20" class="node">
<title>Node20</title>
<g id="a_node20"><a xlink:href="classlocomotor_1_1core_1_1_d_b_h.html#a048720c7d5d922d646d5ee0ff38f78ad" target="_top" xlink:title="locomotor.core.DBH.removeItem">
<polygon fill="#ffffff" stroke="#000000" points="470.0625,-405.1711 470.0625,-423.1711 631.1162,-423.1711 631.1162,-405.1711 470.0625,-405.1711"/>
<text text-anchor="middle" x="550.5894" y="-411.1711" font-family="Helvetica,sans-Serif" font-size="10.00" fill="#000000">locomotor.core.DBH.removeItem</text>
</a>
</g>
</g>
<!-- Node1&#45;&gt;Node20 -->
<g id="edge32" class="edge">
<title>Node1&#45;&gt;Node20</title>
<path fill="none" stroke="#191970" d="M33.6796,-500.6094C43.9036,-490.2476 58.3671,-477.5149 73.6846,-470.1711 202.0405,-408.6326 371.3363,-404.2723 469.8561,-408.1926"/>
<polygon fill="#191970" stroke="#191970" points="31.0725,-498.2723 26.7437,-507.9425 36.1581,-503.0825 31.0725,-498.2723"/>
</g>
<!-- Node21 -->
<g id="node21" class="node">
<title>Node21</title>
<g id="a_node21"><a xlink:href="classlocomotor_1_1core_1_1_d_b_h.html#a0b14ef52a7a6a21455570af9f08c0fea" target="_top" xlink:title="locomotor.core.DBH.getUniverse">
<polygon fill="#ffffff" stroke="#000000" points="270.7676,-367.1711 270.7676,-385.1711 432.3877,-385.1711 432.3877,-367.1711 270.7676,-367.1711"/>
<text text-anchor="middle" x="351.5776" y="-373.1711" font-family="Helvetica,sans-Serif" font-size="10.00" fill="#000000">locomotor.core.DBH.getUniverse</text>
</a>
</g>
</g>
<!-- Node1&#45;&gt;Node21 -->
<g id="edge34" class="edge">
<title>Node1&#45;&gt;Node21</title>
<path fill="none" stroke="#191970" d="M21.8492,-497.7959C27.1394,-470.9296 40.8473,-423.088 73.6846,-400.1711 142.7809,-351.9493 246.3291,-358.1916 305.5753,-367.1382"/>
<polygon fill="#191970" stroke="#191970" points="18.3588,-497.4356 20.0661,-507.892 25.2521,-498.6531 18.3588,-497.4356"/>
</g>
<!-- Node22 -->
<g id="node22" class="node">
<title>Node22</title>
<g id="a_node22"><a xlink:href="classlocomotor_1_1core_1_1_d_b_h.html#a756e5af44b74ea39a44a71cde06102fd" target="_top" xlink:title="locomotor.core.DBH.checking\lParsingUniverse">
<polygon fill="#ffffff" stroke="#000000" points="277.7134,-320.1711 277.7134,-348.1711 425.4419,-348.1711 425.4419,-320.1711 277.7134,-320.1711"/>
<text text-anchor="start" x="285.7134" y="-336.1711" font-family="Helvetica,sans-Serif" font-size="10.00" fill="#000000">locomotor.core.DBH.checking</text>
<text text-anchor="middle" x="351.5776" y="-326.1711" font-family="Helvetica,sans-Serif" font-size="10.00" fill="#000000">ParsingUniverse</text>
</a>
</g>
</g>
<!-- Node1&#45;&gt;Node22 -->
<g id="edge36" class="edge">
<title>Node1&#45;&gt;Node22</title>
<path fill="none" stroke="#191970" d="M22.6522,-498.1868C30.7721,-459.7594 50.9101,-374.9042 73.6846,-357.1711 131.9347,-311.8153 219.399,-312.3348 280.6008,-320.1686"/>
<polygon fill="#191970" stroke="#191970" points="19.1998,-497.5993 20.6079,-508.1001 26.0555,-499.0131 19.1998,-497.5993"/>
</g>
<!-- Node25 -->
<g id="node25" class="node">
<title>Node25</title>
<g id="a_node25"><a xlink:href="classlocomotor_1_1core_1_1_d_b_h.html#a46cbafb4c7422171cf07c3d0521d3f47" target="_top" xlink:title="locomotor.core.DBH.remove\lUniverse">
<polygon fill="#ffffff" stroke="#000000" points="479.7866,-235.1711 479.7866,-263.1711 621.3921,-263.1711 621.3921,-235.1711 479.7866,-235.1711"/>
<text text-anchor="start" x="487.7866" y="-251.1711" font-family="Helvetica,sans-Serif" font-size="10.00" fill="#000000">locomotor.core.DBH.remove</text>
<text text-anchor="middle" x="550.5894" y="-241.1711" font-family="Helvetica,sans-Serif" font-size="10.00" fill="#000000">Universe</text>
</a>
</g>
</g>
<!-- Node1&#45;&gt;Node25 -->
<g id="edge41" class="edge">
<title>Node1&#45;&gt;Node25</title>
<path fill="none" stroke="#191970" d="M21.3602,-497.6897C27.7107,-451.7388 45.8821,-338.6148 73.6846,-314.1711 88.7754,-300.9034 350.4936,-270.8707 479.6538,-256.7618"/>
<polygon fill="#191970" stroke="#191970" points="17.8606,-497.4538 20.0016,-507.83 24.7986,-498.3834 17.8606,-497.4538"/>
</g>
<!-- Node26 -->
<g id="node26" class="node">
<title>Node26</title>
<g id="a_node26"><a xlink:href="classlocomotor_1_1core_1_1_d_b_h.html#a21cbb63c5e6f48995e2da4a48db8edff" target="_top" xlink:title="locomotor.core.DBH.getAll\lBooking">
<polygon fill="#ffffff" stroke="#000000" points="87.5884,-243.1711 87.5884,-271.1711 220.8638,-271.1711 220.8638,-243.1711 87.5884,-243.1711"/>
<text text-anchor="start" x="95.5884" y="-259.1711" font-family="Helvetica,sans-Serif" font-size="10.00" fill="#000000">locomotor.core.DBH.getAll</text>
<text text-anchor="middle" x="154.2261" y="-249.1711" font-family="Helvetica,sans-Serif" font-size="10.00" fill="#000000">Booking</text>
</a>
</g>
</g>
<!-- Node1&#45;&gt;Node26 -->
<g id="edge43" class="edge">
<title>Node1&#45;&gt;Node26</title>
<path fill="none" stroke="#191970" d="M21.0273,-498.1043C27.0495,-448.6491 45.3417,-317.8969 73.6846,-286.1711 79.2293,-279.9646 86.2022,-275.0858 93.7132,-271.2507"/>
<polygon fill="#191970" stroke="#191970" points="17.5444,-497.754 19.8444,-508.0961 24.4959,-498.577 17.5444,-497.754"/>
</g>
<!-- Node27 -->
<g id="node27" class="node">
<title>Node27</title>
<g id="a_node27"><a xlink:href="classlocomotor_1_1core_1_1_d_b_h.html#a3db8a57c024085b3b7a27d1cd79180a4" target="_top" xlink:title="locomotor.core.DBH.addBooking">
<polygon fill="#ffffff" stroke="#000000" points="73.6846,-206.1711 73.6846,-224.1711 234.7676,-224.1711 234.7676,-206.1711 73.6846,-206.1711"/>
<text text-anchor="middle" x="154.2261" y="-212.1711" font-family="Helvetica,sans-Serif" font-size="10.00" fill="#000000">locomotor.core.DBH.addBooking</text>
</a>
</g>
</g>
<!-- Node1&#45;&gt;Node27 -->
<g id="edge45" class="edge">
<title>Node1&#45;&gt;Node27</title>
<path fill="none" stroke="#191970" d="M19.8869,-497.8091C23.3967,-440.1552 36.6967,-271.2519 73.6846,-233.1711 77.1785,-229.5739 81.2226,-226.6239 85.601,-224.2113"/>
<polygon fill="#191970" stroke="#191970" points="16.3773,-497.877 19.2964,-508.0618 23.3657,-498.2796 16.3773,-497.877"/>
</g>
<!-- Node28 -->
<g id="node28" class="node">
<title>Node28</title>
<g id="a_node28"><a xlink:href="classlocomotor_1_1core_1_1_d_b_h.html#a3d7a9a94e400a13566495c07c3b1be00" target="_top" xlink:title="locomotor.core.DBH.admin\lStillExists">
<polygon fill="#ffffff" stroke="#000000" points="86.4775,-159.1711 86.4775,-187.1711 221.9746,-187.1711 221.9746,-159.1711 86.4775,-159.1711"/>
<text text-anchor="start" x="94.4775" y="-175.1711" font-family="Helvetica,sans-Serif" font-size="10.00" fill="#000000">locomotor.core.DBH.admin</text>
<text text-anchor="middle" x="154.2261" y="-165.1711" font-family="Helvetica,sans-Serif" font-size="10.00" fill="#000000">StillExists</text>
</a>
</g>
</g>
<!-- Node1&#45;&gt;Node28 -->
<g id="edge48" class="edge">
<title>Node1&#45;&gt;Node28</title>
<path fill="none" stroke="#191970" d="M19.5193,-497.8712C22.0927,-435.5707 33.2691,-241.2484 73.6846,-196.1711 77.2764,-192.165 81.5123,-188.8365 86.1313,-186.0734"/>
<polygon fill="#191970" stroke="#191970" points="16.0205,-497.7749 19.1338,-507.902 23.0154,-498.0438 16.0205,-497.7749"/>
</g>
<!-- Node29 -->
<g id="node29" class="node">
<title>Node29</title>
<g id="a_node29"><a xlink:href="classlocomotor_1_1core_1_1jwt_1_1_j_w_t_h.html#a9666df772d67ab0c2213cdb4a528549b" target="_top" xlink:title="locomotor.core.jwt.JWTH.verify\lTokenSignature">
<polygon fill="#ffffff" stroke="#000000" points="77.3223,-73.1711 77.3223,-101.1711 231.1299,-101.1711 231.1299,-73.1711 77.3223,-73.1711"/>
<text text-anchor="start" x="85.3223" y="-89.1711" font-family="Helvetica,sans-Serif" font-size="10.00" fill="#000000">locomotor.core.jwt.JWTH.verify</text>
<text text-anchor="middle" x="154.2261" y="-79.1711" font-family="Helvetica,sans-Serif" font-size="10.00" fill="#000000">TokenSignature</text>
</a>
</g>
</g>
<!-- Node1&#45;&gt;Node29 -->
<g id="edge50" class="edge">
<title>Node1&#45;&gt;Node29</title>
<path fill="none" stroke="#191970" d="M20.2938,-498.0901C26.2023,-422.447 49.2931,-146.2998 73.6846,-116.1711 78.7343,-109.9337 85.2373,-105.0373 92.3559,-101.1937"/>
<polygon fill="#191970" stroke="#191970" points="16.8016,-497.8542 19.5218,-508.0939 23.7809,-498.3929 16.8016,-497.8542"/>
</g>
<!-- Node30 -->
<g id="node30" class="node">
<title>Node30</title>
<g id="a_node30"><a xlink:href="classlocomotor_1_1core_1_1jwt_1_1_j_w_t_h.html#a5bfe06ebb1f388e7fb4fb42c6c2a3875" target="_top" xlink:title="locomotor.core.jwt.JWTH.check\lToken">
<polygon fill="#ffffff" stroke="#000000" points="273.5581,-73.1711 273.5581,-101.1711 429.5972,-101.1711 429.5972,-73.1711 273.5581,-73.1711"/>
<text text-anchor="start" x="281.5581" y="-89.1711" font-family="Helvetica,sans-Serif" font-size="10.00" fill="#000000">locomotor.core.jwt.JWTH.check</text>
<text text-anchor="middle" x="351.5776" y="-79.1711" font-family="Helvetica,sans-Serif" font-size="10.00" fill="#000000">Token</text>
</a>
</g>
</g>
<!-- Node1&#45;&gt;Node30 -->
<g id="edge57" class="edge">
<title>Node1&#45;&gt;Node30</title>
<path fill="none" stroke="#191970" d="M20.4532,-497.7742C26.6223,-425.55 49.6081,-175.0355 73.6846,-149.1711 77.3315,-145.2533 203.3176,-118.2423 284.3846,-101.1894"/>
<polygon fill="#191970" stroke="#191970" points="16.9345,-497.8505 19.582,-508.1092 23.9097,-498.4386 16.9345,-497.8505"/>
</g>
<!-- Node31 -->
<g id="node31" class="node">
<title>Node31</title>
<g id="a_node31"><a xlink:href="classlocomotor_1_1core_1_1jwt_1_1_j_w_t_h.html#a1ced72f10559e8525f069895d88d129e" target="_top" xlink:title="locomotor.core.jwt.JWTH.create\lShortToken">
<polygon fill="#ffffff" stroke="#000000" points="75.3716,-26.1711 75.3716,-54.1711 233.0806,-54.1711 233.0806,-26.1711 75.3716,-26.1711"/>
<text text-anchor="start" x="83.3716" y="-42.1711" font-family="Helvetica,sans-Serif" font-size="10.00" fill="#000000">locomotor.core.jwt.JWTH.create</text>
<text text-anchor="middle" x="154.2261" y="-32.1711" font-family="Helvetica,sans-Serif" font-size="10.00" fill="#000000">ShortToken</text>
</a>
</g>
</g>
<!-- Node1&#45;&gt;Node31 -->
<g id="edge53" class="edge">
<title>Node1&#45;&gt;Node31</title>
<path fill="none" stroke="#191970" d="M19.9377,-497.6694C24.7439,-415.0737 45.0112,-96.7729 73.6846,-63.1711 76.6108,-59.742 80.0093,-56.806 83.7229,-54.2942"/>
<polygon fill="#191970" stroke="#191970" points="16.4188,-497.8998 19.3416,-508.0835 23.4074,-498.2999 16.4188,-497.8998"/>
</g>
<!-- Node32 -->
<g id="node32" class="node">
<title>Node32</title>
<g id="a_node32"><a xlink:href="classlocomotor_1_1core_1_1jwt_1_1_j_w_t_h.html#aecfcf9e71a9ee5c1446176865a746a5c" target="_top" xlink:title="locomotor.core.jwt.JWTH.create\lLongToken">
<polygon fill="#ffffff" stroke="#000000" points="75.3716,-754.1711 75.3716,-782.1711 233.0806,-782.1711 233.0806,-754.1711 75.3716,-754.1711"/>
<text text-anchor="start" x="83.3716" y="-770.1711" font-family="Helvetica,sans-Serif" font-size="10.00" fill="#000000">locomotor.core.jwt.JWTH.create</text>
<text text-anchor="middle" x="154.2261" y="-760.1711" font-family="Helvetica,sans-Serif" font-size="10.00" fill="#000000">LongToken</text>
</a>
</g>
</g>
<!-- Node1&#45;&gt;Node32 -->
<g id="edge55" class="edge">
<title>Node1&#45;&gt;Node32</title>
<path fill="none" stroke="#191970" d="M21.0156,-536.3305C26.9529,-585.4035 44.9479,-713.8832 73.6846,-744.1711 77.4003,-748.0874 81.7243,-751.373 86.4033,-754.1284"/>
<polygon fill="#191970" stroke="#191970" points="24.4911,-535.9156 19.8483,-526.3922 17.5389,-536.7323 24.4911,-535.9156"/>
</g>
<!-- Node2&#45;&gt;Node3 -->
<g id="edge2" class="edge">
<title>Node2&#45;&gt;Node3</title>
<path fill="none" stroke="#191970" d="M439.1161,-845.1711C450.4257,-845.1711 461.9446,-845.1711 473.0769,-845.1711"/>
<polygon fill="#191970" stroke="#191970" points="438.8056,-841.6712 428.8056,-845.1711 438.8056,-848.6712 438.8056,-841.6712"/>
</g>
<!-- Node4 -->
<g id="node4" class="node">
<title>Node4</title>
<g id="a_node4"><a xlink:href="classlocomotor_1_1components_1_1network_1_1_a_p_i.html#a547463fbc7fb7b485886f0917e2c0b78" target="_top" xlink:title="locomotor.components.network.\lAPI.createHooks">
<polygon fill="#ffffff" stroke="#000000" points="668.791,-474.1711 668.791,-502.1711 825.9775,-502.1711 825.9775,-474.1711 668.791,-474.1711"/>
<text text-anchor="start" x="676.791" y="-490.1711" font-family="Helvetica,sans-Serif" font-size="10.00" fill="#000000">locomotor.components.network.</text>
<text text-anchor="middle" x="747.3843" y="-480.1711" font-family="Helvetica,sans-Serif" font-size="10.00" fill="#000000">API.createHooks</text>
</a>
</g>
</g>
<!-- Node3&#45;&gt;Node4 -->
<g id="edge3" class="edge">
<title>Node3&#45;&gt;Node4</title>
<path fill="none" stroke="#191970" d="M620.7777,-826.0117C625.1608,-823.1724 629.2318,-819.9129 632.791,-816.1711 671.4613,-775.5182 650.821,-748.3231 668.791,-695.1711 693.5375,-621.9756 727.8747,-536.1106 741.4867,-502.594"/>
<polygon fill="#191970" stroke="#191970" points="618.9954,-822.9987 612.0166,-830.9703 622.4434,-829.0906 618.9954,-822.9987"/>
</g>
<!-- Node5 -->
<g id="node5" class="node">
<title>Node5</title>
<g id="a_node5"><a xlink:href="classlocomotor_1_1core_1_1_main.html#a8b260eecbaabcef8473fd87ada040682" target="_top" xlink:title="locomotor.core.Main.main">
<polygon fill="#ffffff" stroke="#000000" points="861.9775,-500.1711 861.9775,-518.1711 992.4746,-518.1711 992.4746,-500.1711 861.9775,-500.1711"/>
<text text-anchor="middle" x="927.2261" y="-506.1711" font-family="Helvetica,sans-Serif" font-size="10.00" fill="#000000">locomotor.core.Main.main</text>
</a>
</g>
</g>
<!-- Node4&#45;&gt;Node5 -->
<g id="edge4" class="edge">
<title>Node4&#45;&gt;Node5</title>
<path fill="none" stroke="#191970" d="M836.1773,-498.5394C844.8656,-499.554 853.5679,-500.5701 861.9598,-501.55"/>
<polygon fill="#191970" stroke="#191970" points="836.3424,-495.035 826.0039,-497.3515 835.5304,-501.9878 836.3424,-495.035"/>
</g>
<!-- Node6&#45;&gt;Node2 -->
<g id="edge6" class="edge">
<title>Node6&#45;&gt;Node2</title>
<path fill="none" stroke="#191970" d="M241.9467,-850.1707C252.7523,-849.678 263.7353,-849.1771 274.3688,-848.6922"/>
<polygon fill="#191970" stroke="#191970" points="241.4884,-846.6879 231.6582,-850.6399 241.8073,-853.6806 241.4884,-846.6879"/>
</g>
<!-- Node8 -->
<g id="node8" class="node">
<title>Node8</title>
<g id="a_node8"><a xlink:href="classlocomotor_1_1components_1_1types_1_1_c_interval.html#ad295ddcb564ccdce4ae93f54dded98ff" target="_top" xlink:title="locomotor.components.types.\lCInterval.equals">
<polygon fill="#ffffff" stroke="#000000" points="278.541,-887.1711 278.541,-915.1711 424.6143,-915.1711 424.6143,-887.1711 278.541,-887.1711"/>
<text text-anchor="start" x="286.541" y="-903.1711" font-family="Helvetica,sans-Serif" font-size="10.00" fill="#000000">locomotor.components.types.</text>
<text text-anchor="middle" x="351.5776" y="-893.1711" font-family="Helvetica,sans-Serif" font-size="10.00" fill="#000000">CInterval.equals</text>
</a>
</g>
</g>
<!-- Node7&#45;&gt;Node8 -->
<g id="edge9" class="edge">
<title>Node7&#45;&gt;Node8</title>
<path fill="none" stroke="#191970" d="M237.7041,-901.1711C251.2595,-901.1711 265.2069,-901.1711 278.4899,-901.1711"/>
<polygon fill="#191970" stroke="#191970" points="237.4321,-897.6712 227.4321,-901.1711 237.432,-904.6712 237.4321,-897.6712"/>
</g>
<!-- Node9&#45;&gt;Node4 -->
<g id="edge11" class="edge">
<title>Node9&#45;&gt;Node4</title>
<path fill="none" stroke="#191970" d="M629.3704,-872.3041C630.5575,-871.3183 631.6998,-870.275 632.791,-869.1711 688.3086,-813.0085 646.7058,-770.9912 668.791,-695.1711 690.3992,-620.9885 726.5262,-535.6864 741.0521,-502.4573"/>
<polygon fill="#191970" stroke="#191970" points="627.2649,-869.5029 620.9483,-878.0089 631.1906,-875.2985 627.2649,-869.5029"/>
</g>
<!-- Node9&#45;&gt;Node5 -->
<g id="edge12" class="edge">
<title>Node9&#45;&gt;Node5</title>
<path fill="none" stroke="#191970" d="M622.7843,-874.4103C626.2576,-872.8586 629.6159,-871.1196 632.791,-869.1711 789.0054,-773.3069 899.6888,-564.3947 922.7609,-518.2932"/>
<polygon fill="#191970" stroke="#191970" points="621.4044,-871.1918 613.3682,-878.0962 623.956,-877.7102 621.4044,-871.1918"/>
</g>
<!-- Node10&#45;&gt;Node4 -->
<g id="edge14" class="edge">
<title>Node10&#45;&gt;Node4</title>
<path fill="none" stroke="#191970" d="M211.559,-736.8139C230.3546,-739.8235 251.3882,-742.6834 270.7676,-744.1711 431.2829,-756.494 499.5386,-822.5084 632.791,-732.1711 653.8061,-717.9242 721.5317,-552.5111 741.6791,-502.4425"/>
<polygon fill="#191970" stroke="#191970" points="212.1004,-733.356 201.6644,-735.1838 210.9624,-740.2629 212.1004,-733.356"/>
</g>
<!-- Node10&#45;&gt;Node11 -->
<g id="edge15" class="edge">
<title>Node10&#45;&gt;Node11</title>
<path fill="none" stroke="#191970" d="M239.1482,-726.1711C250.4713,-726.1711 262.0409,-726.1711 273.2447,-726.1711"/>
<polygon fill="#191970" stroke="#191970" points="238.8363,-722.6712 228.8362,-726.1711 238.8362,-729.6712 238.8363,-722.6712"/>
</g>
<!-- Node11&#45;&gt;Node4 -->
<g id="edge16" class="edge">
<title>Node11&#45;&gt;Node4</title>
<path fill="none" stroke="#191970" d="M421.8104,-736.0883C482.654,-740.9311 570.4591,-738.5468 632.791,-697.1711 704.5023,-649.5694 735.3322,-541.3478 744.3723,-502.4382"/>
<polygon fill="#191970" stroke="#191970" points="421.8006,-732.5739 411.5316,-735.1814 421.1853,-739.5468 421.8006,-732.5739"/>
</g>
<!-- Node12&#45;&gt;Node4 -->
<g id="edge18" class="edge">
<title>Node12&#45;&gt;Node4</title>
<path fill="none" stroke="#191970" d="M396.8302,-686.335C455.4249,-698.1815 558.7899,-709.9912 632.791,-668.1711 698.9068,-630.8074 732.617,-537.8589 743.4244,-502.3076"/>
<polygon fill="#191970" stroke="#191970" points="397.2834,-682.8536 386.7761,-684.2124 395.8374,-689.7026 397.2834,-682.8536"/>
</g>
<!-- Node13&#45;&gt;Node4 -->
<g id="edge20" class="edge">
<title>Node13&#45;&gt;Node4</title>
<path fill="none" stroke="#191970" d="M612.6082,-627.1385C619.675,-623.9778 626.566,-620.3381 632.791,-616.1711 680.3803,-584.3156 721.0443,-528.2434 738.4021,-502.1982"/>
<polygon fill="#191970" stroke="#191970" points="610.8084,-624.0955 602.9089,-631.156 613.4871,-630.5627 610.8084,-624.0955"/>
</g>
<!-- Node14&#45;&gt;Node4 -->
<g id="edge22" class="edge">
<title>Node14&#45;&gt;Node4</title>
<path fill="none" stroke="#191970" d="M432.4263,-595.16C490.0001,-602.4217 568.2825,-605.2443 632.791,-582.1711 677.3716,-566.2258 717.0666,-524.6413 735.8687,-502.5114"/>
<polygon fill="#191970" stroke="#191970" points="432.662,-591.6605 422.2872,-593.8086 431.7372,-598.5992 432.662,-591.6605"/>
</g>
<!-- Node15&#45;&gt;Node4 -->
<g id="edge24" class="edge">
<title>Node15&#45;&gt;Node4</title>
<path fill="none" stroke="#191970" d="M595.6949,-552.2513C607.8515,-548.7007 620.9204,-544.572 632.791,-540.1711 662.9035,-529.0072 696.2182,-513.5186 719.1286,-502.3529"/>
<polygon fill="#191970" stroke="#191970" points="594.3999,-548.9811 585.7443,-555.0911 596.321,-555.7123 594.3999,-548.9811"/>
</g>
<!-- Node16&#45;&gt;Node4 -->
<g id="edge26" class="edge">
<title>Node16&#45;&gt;Node4</title>
<path fill="none" stroke="#191970" d="M432.729,-505.5938C488.9647,-508.9668 565.5268,-511.4218 632.791,-506.1711 644.436,-505.2621 656.6865,-503.8411 668.6703,-502.1866"/>
<polygon fill="#191970" stroke="#191970" points="432.6702,-502.0834 422.472,-504.9549 432.235,-509.0699 432.6702,-502.0834"/>
</g>
<!-- Node18 -->
<g id="node18" class="node">
<title>Node18</title>
<g id="a_node18"><a xlink:href="classlocomotor_1_1core_1_1_d_b_h.html#ae26eef1ee7482f2e0167c6a18924d214" target="_top" xlink:title="locomotor.core.DBH.addItem">
<polygon fill="#ffffff" stroke="#000000" points="478.3926,-479.1711 478.3926,-497.1711 622.7861,-497.1711 622.7861,-479.1711 478.3926,-479.1711"/>
<text text-anchor="middle" x="550.5894" y="-485.1711" font-family="Helvetica,sans-Serif" font-size="10.00" fill="#000000">locomotor.core.DBH.addItem</text>
</a>
</g>
</g>
<!-- Node17&#45;&gt;Node18 -->
<g id="edge28" class="edge">
<title>Node17&#45;&gt;Node18</title>
<path fill="none" stroke="#191970" d="M435.6275,-470.2636C454.8125,-473.252 474.7831,-476.3628 492.5923,-479.137"/>
<polygon fill="#191970" stroke="#191970" points="436.1018,-466.7953 425.6823,-468.7144 435.0244,-473.7119 436.1018,-466.7953"/>
</g>
<!-- Node19 -->
<g id="node19" class="node">
<title>Node19</title>
<g id="a_node19"><a xlink:href="classlocomotor_1_1core_1_1_d_b_h.html#aa0e39c547d06fd9d0ad2de70251c9cc0" target="_top" xlink:title="locomotor.core.DBH.updateItem">
<polygon fill="#ffffff" stroke="#000000" points="471.4419,-442.1711 471.4419,-460.1711 629.7368,-460.1711 629.7368,-442.1711 471.4419,-442.1711"/>
<text text-anchor="middle" x="550.5894" y="-448.1711" font-family="Helvetica,sans-Serif" font-size="10.00" fill="#000000">locomotor.core.DBH.updateItem</text>
</a>
</g>
</g>
<!-- Node17&#45;&gt;Node19 -->
<g id="edge30" class="edge">
<title>Node17&#45;&gt;Node19</title>
<path fill="none" stroke="#191970" d="M435.9312,-454.628C447.698,-454.2732 459.7543,-453.9097 471.4209,-453.558"/>
<polygon fill="#191970" stroke="#191970" points="435.5722,-451.1371 425.6823,-454.937 435.7832,-458.1339 435.5722,-451.1371"/>
</g>
<!-- Node18&#45;&gt;Node4 -->
<g id="edge29" class="edge">
<title>Node18&#45;&gt;Node4</title>
<path fill="none" stroke="#191970" d="M633.199,-488.1711C644.8793,-488.1711 656.8644,-488.1711 668.4725,-488.1711"/>
<polygon fill="#191970" stroke="#191970" points="633.0302,-484.6712 623.0301,-488.1711 633.0301,-491.6712 633.0302,-484.6712"/>
</g>
<!-- Node19&#45;&gt;Node4 -->
<g id="edge31" class="edge">
<title>Node19&#45;&gt;Node4</title>
<path fill="none" stroke="#191970" d="M608.4248,-462.045C628.5522,-465.8292 651.4243,-470.1294 672.7193,-474.1331"/>
<polygon fill="#191970" stroke="#191970" points="608.9537,-458.5831 598.4792,-460.175 607.6602,-465.4626 608.9537,-458.5831"/>
</g>
<!-- Node20&#45;&gt;Node4 -->
<g id="edge33" class="edge">
<title>Node20&#45;&gt;Node4</title>
<path fill="none" stroke="#191970" d="M610.8741,-425.627C618.3306,-427.5537 625.788,-429.7328 632.791,-432.1711 665.2043,-443.4571 700.3761,-461.6057 723.0836,-474.1693"/>
<polygon fill="#191970" stroke="#191970" points="611.6559,-422.2151 601.1107,-423.2389 609.9927,-429.0146 611.6559,-422.2151"/>
</g>
<!-- Node21&#45;&gt;Node4 -->
<g id="edge35" class="edge">
<title>Node21&#45;&gt;Node4</title>
<path fill="none" stroke="#191970" d="M442.5898,-368.6077C499.1925,-367.1885 572.4319,-371.4395 632.791,-395.1711 676.4276,-412.3279 716.2348,-452.479 735.3891,-473.9826"/>
<polygon fill="#191970" stroke="#191970" points="442.4659,-365.1098 432.5806,-368.9217 442.6855,-372.1063 442.4659,-365.1098"/>
</g>
<!-- Node23 -->
<g id="node23" class="node">
<title>Node23</title>
<g id="a_node23"><a xlink:href="classlocomotor_1_1core_1_1_d_b_h.html#a2b2232ca307c4877316e8b6097902f2c" target="_top" xlink:title="locomotor.core.DBH.addUniverse">
<polygon fill="#ffffff" stroke="#000000" points="468.3877,-329.1711 468.3877,-347.1711 632.791,-347.1711 632.791,-329.1711 468.3877,-329.1711"/>
<text text-anchor="middle" x="550.5894" y="-335.1711" font-family="Helvetica,sans-Serif" font-size="10.00" fill="#000000">locomotor.core.DBH.addUniverse</text>
</a>
</g>
</g>
<!-- Node22&#45;&gt;Node23 -->
<g id="edge37" class="edge">
<title>Node22&#45;&gt;Node23</title>
<path fill="none" stroke="#191970" d="M435.8256,-335.8645C446.4991,-336.079 457.4125,-336.2983 468.0588,-336.5123"/>
<polygon fill="#191970" stroke="#191970" points="435.7506,-332.3623 425.6823,-335.6606 435.6099,-339.3609 435.7506,-332.3623"/>
</g>
<!-- Node24 -->
<g id="node24" class="node">
<title>Node24</title>
<g id="a_node24"><a xlink:href="classlocomotor_1_1core_1_1_d_b_h.html#a0565ab8a7a56491fca163a1b0977c0db" target="_top" xlink:title="locomotor.core.DBH.update\lUniverse">
<polygon fill="#ffffff" stroke="#000000" points="481.166,-282.1711 481.166,-310.1711 620.0127,-310.1711 620.0127,-282.1711 481.166,-282.1711"/>
<text text-anchor="start" x="489.166" y="-298.1711" font-family="Helvetica,sans-Serif" font-size="10.00" fill="#000000">locomotor.core.DBH.update</text>
<text text-anchor="middle" x="550.5894" y="-288.1711" font-family="Helvetica,sans-Serif" font-size="10.00" fill="#000000">Universe</text>
</a>
</g>
</g>
<!-- Node22&#45;&gt;Node24 -->
<g id="edge39" class="edge">
<title>Node22&#45;&gt;Node24</title>
<path fill="none" stroke="#191970" d="M435.0712,-318.2286C450.3564,-315.31 466.1593,-312.2925 480.9858,-309.4615"/>
<polygon fill="#191970" stroke="#191970" points="434.2829,-314.8158 425.1168,-320.1293 435.5958,-321.6916 434.2829,-314.8158"/>
</g>
<!-- Node23&#45;&gt;Node4 -->
<g id="edge38" class="edge">
<title>Node23&#45;&gt;Node4</title>
<path fill="none" stroke="#191970" d="M607.6461,-350.3757C616.4201,-353.4941 625.1057,-357.3697 632.791,-362.1711 680.939,-392.2517 721.3237,-448.0864 738.5068,-474.1237"/>
<polygon fill="#191970" stroke="#191970" points="608.7261,-347.0466 598.1339,-347.2811 606.5605,-353.7032 608.7261,-347.0466"/>
</g>
<!-- Node24&#45;&gt;Node4 -->
<g id="edge40" class="edge">
<title>Node24&#45;&gt;Node4</title>
<path fill="none" stroke="#191970" d="M626.2105,-314.9185C628.485,-316.2407 630.6862,-317.6561 632.791,-319.1711 690.6211,-360.7965 728.2832,-441.2405 741.7969,-473.885"/>
<polygon fill="#191970" stroke="#191970" points="627.6188,-311.7075 617.1225,-310.2662 624.429,-317.9385 627.6188,-311.7075"/>
</g>
<!-- Node25&#45;&gt;Node4 -->
<g id="edge42" class="edge">
<title>Node25&#45;&gt;Node4</title>
<path fill="none" stroke="#191970" d="M627.795,-268.515C629.5201,-269.6642 631.1895,-270.8815 632.791,-272.1711 701.5635,-327.5492 734.2301,-435.5317 744.0624,-474.0782"/>
<polygon fill="#191970" stroke="#191970" points="629.1734,-265.2702 618.7598,-263.3186 625.6834,-271.3382 629.1734,-265.2702"/>
</g>
<!-- Node26&#45;&gt;Node4 -->
<g id="edge44" class="edge">
<title>Node26&#45;&gt;Node4</title>
<path fill="none" stroke="#191970" d="M230.5672,-241.1799C348.6203,-218.232 568.5777,-183.1059 632.791,-225.1711 721.9481,-283.5767 742.1225,-428.1176 746.3424,-473.973"/>
<polygon fill="#191970" stroke="#191970" points="229.65,-237.7931 220.5111,-243.1532 230.9979,-244.6621 229.65,-237.7931"/>
</g>
<!-- Node27&#45;&gt;Node4 -->
<g id="edge46" class="edge">
<title>Node27&#45;&gt;Node4</title>
<path fill="none" stroke="#191970" d="M217.9904,-204.543C332.4509,-186.8897 566.9718,-157.6373 632.791,-202.1711 728.4837,-266.9176 744.2755,-426.0118 746.8742,-474.148"/>
<polygon fill="#191970" stroke="#191970" points="217.3038,-201.1077 207.9628,-206.1074 218.3828,-208.0241 217.3038,-201.1077"/>
</g>
<!-- Node28&#45;&gt;Node4 -->
<g id="edge49" class="edge">
<title>Node28&#45;&gt;Node4</title>
<path fill="none" stroke="#191970" d="M205.2235,-156.0894C299.3298,-128.0001 502.5476,-83.7514 632.791,-175.1711 685.0102,-211.8246 732.2888,-417.5471 744.3971,-473.8981"/>
<polygon fill="#191970" stroke="#191970" points="203.926,-152.8258 195.38,-159.0881 205.966,-159.5219 203.926,-152.8258"/>
</g>
<!-- Node29&#45;&gt;Node30 -->
<g id="edge51" class="edge">
<title>Node29&#45;&gt;Node30</title>
<path fill="none" stroke="#191970" d="M241.5173,-87.1711C252.1701,-87.1711 263.0022,-87.1711 273.5082,-87.1711"/>
<polygon fill="#191970" stroke="#191970" points="241.3753,-83.6712 231.3752,-87.1711 241.3752,-90.6712 241.3753,-83.6712"/>
</g>
<!-- Node30&#45;&gt;Node4 -->
<g id="edge52" class="edge">
<title>Node30&#45;&gt;Node4</title>
<path fill="none" stroke="#191970" d="M439.8098,-72.7784C500.6043,-67.9894 579.6972,-72.5854 632.791,-116.1711 691.1607,-164.088 734.9557,-411.88 745.1347,-474.0236"/>
<polygon fill="#191970" stroke="#191970" points="439.4871,-69.2932 429.8343,-73.6604 440.1037,-76.266 439.4871,-69.2932"/>
</g>
<!-- Node31&#45;&gt;Node4 -->
<g id="edge54" class="edge">
<title>Node31&#45;&gt;Node4</title>
<path fill="none" stroke="#191970" d="M213.7045,-23.7485C312.6324,-.3299 512.0236,29.7768 632.791,-68.1711 698.9775,-121.8514 737.4764,-406.8457 745.7105,-473.9925"/>
<polygon fill="#191970" stroke="#191970" points="212.7681,-20.374 203.8746,-26.1322 214.4178,-27.1768 212.7681,-20.374"/>
</g>
<!-- Node32&#45;&gt;Node4 -->
<g id="edge56" class="edge">
<title>Node32&#45;&gt;Node4</title>
<path fill="none" stroke="#191970" d="M243.4159,-780.2C364.1772,-794.5513 571.6541,-811.7642 632.791,-770.1711 634.2998,-769.1447 718.6047,-559.7287 741.6286,-502.4857"/>
<polygon fill="#191970" stroke="#191970" points="243.789,-776.7197 233.442,-778.9978 242.9512,-783.6694 243.789,-776.7197"/>
</g>
</g>
</svg>
        <g id="navigator" transform="translate(0 0)" fill="#404254">
                <rect fill="#f2f5e9" fill-opacity="0.5" stroke="#606060" stroke-width=".5" x="0" y="0" width="60" height="60"/>
                <use id="zoomplus" xlink:href="#zoomPlus" x="17" y="9" onmousedown="handleZoom(evt,'in')"/>
                <use id="zoomminus" xlink:href="#zoomMin" x="42" y="9" onmousedown="handleZoom(evt,'out')"/>
                <use id="reset" xlink:href="#resetDef" x="30" y="36" onmousedown="handleReset()"/>
                <g id="arrowUp" xlink:href="#dirArrow" transform="translate(30 24)" onmousedown="handlePan(0,-1)">
                  <use xlink:href="#rim" fill="#404040">
                        <set attributeName="fill" to="#808080" begin="arrowUp.mouseover" end="arrowUp.mouseout"/>
                  </use>
                  <path fill="none" stroke="white" stroke-width="1.5" d="M0,-3.0v7 M-2.5,-0.5L0,-3.0L2.5,-0.5"/>
                </g>
                <g id="arrowRight" xlink:href="#dirArrow" transform="rotate(90) translate(36 -43)" onmousedown="handlePan(1,0)">
                  <use xlink:href="#rim" fill="#404040">
                        <set attributeName="fill" to="#808080" begin="arrowRight.mouseover" end="arrowRight.mouseout"/>
                  </use>
                  <path fill="none" stroke="white" stroke-width="1.5" d="M0,-3.0v7 M-2.5,-0.5L0,-3.0L2.5,-0.5"/>
                </g>
                <g id="arrowDown" xlink:href="#dirArrow" transform="rotate(180) translate(-30 -48)" onmousedown="handlePan(0,1)">
                  <use xlink:href="#rim" fill="#404040">
                        <set attributeName="fill" to="#808080" begin="arrowDown.mouseover" end="arrowDown.mouseout"/>
                  </use>
                  <path fill="none" stroke="white" stroke-width="1.5" d="M0,-3.0v7 M-2.5,-0.5L0,-3.0L2.5,-0.5"/>
                </g>
                <g id="arrowLeft" xlink:href="#dirArrow" transform="rotate(270) translate(-36 17)" onmousedown="handlePan(-1,0)">
                  <use xlink:href="#rim" fill="#404040">
                        <set attributeName="fill" to="#808080" begin="arrowLeft.mouseover" end="arrowLeft.mouseout"/>
                  </use>
                  <path fill="none" stroke="white" stroke-width="1.5" d="M0,-3.0v7 M-2.5,-0.5L0,-3.0L2.5,-0.5"/>
                </g>
        </g>
        <svg viewBox="0 0 15 15" width="100%" height="30px" preserveAspectRatio="xMaxYMin meet">
         <g id="arrow_out" transform="scale(0.3 0.3)">
          <a xlink:href="classlocomotor_1_1components_1_1logging_1_1_error_handler_abd00a9c37627740763cef91d76a77437_icgraph_org.svg" target="_base">
           <rect id="button" ry="5" rx="5" y="6" x="6" height="38" width="38"
                fill="#f2f5e9" fill-opacity="0.5" stroke="#606060" stroke-width="1.0"/>
           <path id="arrow"
             d="M 11.500037,31.436501 C 11.940474,20.09759 22.043105,11.32322 32.158766,21.979434 L 37.068811,17.246167 C 37.068811,17.246167 37.088388,32 37.088388,32 L 22.160133,31.978069 C 22.160133,31.978069 26.997745,27.140456 26.997745,27.140456 C 18.528582,18.264221 13.291696,25.230495 11.500037,31.436501 z"
             style="fill:#404040;"/>
          </a>
         </g>
        </svg>
</svg>
