<?xml version="1.0" encoding="UTF-8" standalone="no"?>
<!DOCTYPE svg PUBLIC "-//W3C//DTD SVG 1.1//EN"
 "http://www.w3.org/Graphics/SVG/1.1/DTD/svg11.dtd">
<!-- Generated by graphviz version 2.40.1 (20161225.0304)
 -->
<!-- Title: getDiameter Pages: 1 -->
<svg width="576pt" height="84pt"
 viewBox="0.00 0.00 576.32 84.00" xmlns="http://www.w3.org/2000/svg" xmlns:xlink="http://www.w3.org/1999/xlink">
<g id="graph0" class="graph" transform="scale(1 1) rotate(0) translate(4 80)">
<title>getDiameter</title>
<polygon fill="#ffffff" stroke="transparent" points="-4,4 -4,-80 572.3232,-80 572.3232,4 -4,4"/>
<!-- Node1 -->
<g id="node1" class="node">
<title>Node1</title>
<polygon fill="#bfbfbf" stroke="#000000" points="0,-28.5 0,-46.5 70.4678,-46.5 70.4678,-28.5 0,-28.5"/>
<text text-anchor="middle" x="35.2339" y="-34.5" font-family="Helvetica,sans-Serif" font-size="10.00" fill="#000000">getDiameter</text>
</g>
<!-- Node2 -->
<g id="node2" class="node">
<title>Node2</title>
<g id="a_node2"><a xlink:href="classlocomotor_1_1components_1_1_compare.html#ac5771638a144db6c7e42db1c36288d48" target="_top" xlink:title="locomotor.components.Compare.graph\lValue">
<polygon fill="#ffffff" stroke="#000000" points="106.4678,-23.5 106.4678,-51.5 295.3438,-51.5 295.3438,-23.5 106.4678,-23.5"/>
<text text-anchor="start" x="114.4678" y="-39.5" font-family="Helvetica,sans-Serif" font-size="10.00" fill="#000000">locomotor.components.Compare.graph</text>
<text text-anchor="middle" x="200.9058" y="-29.5" font-family="Helvetica,sans-Serif" font-size="10.00" fill="#000000">Value</text>
</a>
</g>
</g>
<!-- Node1&#45;&gt;Node2 -->
<g id="edge1" class="edge">
<title>Node1&#45;&gt;Node2</title>
<path fill="none" stroke="#191970" d="M80.9112,-37.5C88.9026,-37.5 97.4761,-37.5 106.2297,-37.5"/>
<polygon fill="#191970" stroke="#191970" points="80.7747,-34.0001 70.7747,-37.5 80.7746,-41.0001 80.7747,-34.0001"/>
</g>
<!-- Node3 -->
<g id="node3" class="node">
<title>Node3</title>
<g id="a_node3"><a xlink:href="classlocomotor_1_1components_1_1types_1_1_c_set_graph.html#ad2c8768ec5b11a8e7e13195ef5f1ba2f" target="_top" xlink:title="compare">
<polygon fill="#ffffff" stroke="#000000" points="331.3438,-28.5 331.3438,-46.5 386.25,-46.5 386.25,-28.5 331.3438,-28.5"/>
<text text-anchor="middle" x="358.7969" y="-34.5" font-family="Helvetica,sans-Serif" font-size="10.00" fill="#000000">compare</text>
</a>
</g>
</g>
<!-- Node2&#45;&gt;Node3 -->
<g id="edge2" class="edge">
<title>Node2&#45;&gt;Node3</title>
<path fill="none" stroke="#191970" d="M305.6961,-37.5C314.9388,-37.5 323.6502,-37.5 331.2407,-37.5"/>
<polygon fill="#191970" stroke="#191970" points="305.4863,-34.0001 295.4863,-37.5 305.4862,-41.0001 305.4863,-34.0001"/>
</g>
<!-- Node4 -->
<g id="node4" class="node">
<title>Node4</title>
<g id="a_node4"><a xlink:href="classlocomotor_1_1components_1_1types_1_1_c_mapped_string_list.html#ae36471b20bdf46c47cf487ffe88a1e42" target="_top" xlink:title="locomotor.components.types.\lCMappedStringList.compare">
<polygon fill="#ffffff" stroke="#000000" points="422.25,-47.5 422.25,-75.5 568.3232,-75.5 568.3232,-47.5 422.25,-47.5"/>
<text text-anchor="start" x="430.25" y="-63.5" font-family="Helvetica,sans-Serif" font-size="10.00" fill="#000000">locomotor.components.types.</text>
<text text-anchor="middle" x="495.2866" y="-53.5" font-family="Helvetica,sans-Serif" font-size="10.00" fill="#000000">CMappedStringList.compare</text>
</a>
</g>
</g>
<!-- Node3&#45;&gt;Node4 -->
<g id="edge3" class="edge">
<title>Node3&#45;&gt;Node4</title>
<path fill="none" stroke="#191970" d="M396.2713,-44.0894C404.3986,-45.5185 413.2624,-47.0771 422.2374,-48.6552"/>
<polygon fill="#191970" stroke="#191970" points="396.8727,-40.6415 386.4176,-42.3568 395.6604,-47.5358 396.8727,-40.6415"/>
</g>
<!-- Node5 -->
<g id="node5" class="node">
<title>Node5</title>
<g id="a_node5"><a xlink:href="classlocomotor_1_1components_1_1types_1_1_c_tree.html#a46596b48ff97821f142f902f7ac6d471" target="_top" xlink:title="locomotor.components.types.\lCTree.compare">
<polygon fill="#ffffff" stroke="#000000" points="422.25,-.5 422.25,-28.5 568.3232,-28.5 568.3232,-.5 422.25,-.5"/>
<text text-anchor="start" x="430.25" y="-16.5" font-family="Helvetica,sans-Serif" font-size="10.00" fill="#000000">locomotor.components.types.</text>
<text text-anchor="middle" x="495.2866" y="-6.5" font-family="Helvetica,sans-Serif" font-size="10.00" fill="#000000">CTree.compare</text>
</a>
</g>
</g>
<!-- Node3&#45;&gt;Node5 -->
<g id="edge4" class="edge">
<title>Node3&#45;&gt;Node5</title>
<path fill="none" stroke="#191970" d="M396.5425,-31.1395C404.5956,-29.7824 413.3621,-28.3052 422.2374,-26.8096"/>
<polygon fill="#191970" stroke="#191970" points="395.697,-27.7325 386.4176,-32.8456 396.8602,-34.6352 395.697,-27.7325"/>
</g>
</g>
</svg>
