<?xml version="1.0" encoding="UTF-8" standalone="no"?>
<!DOCTYPE svg PUBLIC "-//W3C//DTD SVG 1.1//EN"
 "http://www.w3.org/Graphics/SVG/1.1/DTD/svg11.dtd">
<!-- Generated by graphviz version 2.40.1 (20161225.0304)
 -->
<!-- Title: getValue Pages: 1 -->
<svg width="1277pt" height="37pt"
 viewBox="0.00 0.00 1277.44 37.00" xmlns="http://www.w3.org/2000/svg" xmlns:xlink="http://www.w3.org/1999/xlink">
<g id="graph0" class="graph" transform="scale(1 1) rotate(0) translate(4 33)">
<title>getValue</title>
<polygon fill="#ffffff" stroke="transparent" points="-4,4 -4,-33 1273.4355,-33 1273.4355,4 -4,4"/>
<!-- Node1 -->
<g id="node1" class="node">
<title>Node1</title>
<polygon fill="#bfbfbf" stroke="#000000" points="0,-5.5 0,-23.5 54.7402,-23.5 54.7402,-5.5 0,-5.5"/>
<text text-anchor="middle" x="27.3701" y="-11.5" font-family="Helvetica,sans-Serif" font-size="10.00" fill="#000000">getValue</text>
</g>
<!-- Node2 -->
<g id="node2" class="node">
<title>Node2</title>
<g id="a_node2"><a xlink:href="classlocomotor_1_1core_1_1_comparator.html#a686a6117a0c0951d6b70fb883b2b5937" target="_top" xlink:title="locomotor.core.Comparator.compute\lGradeOfCriteria">
<polygon fill="#ffffff" stroke="#000000" points="90.7402,-.5 90.7402,-28.5 268.4932,-28.5 268.4932,-.5 90.7402,-.5"/>
<text text-anchor="start" x="98.7402" y="-16.5" font-family="Helvetica,sans-Serif" font-size="10.00" fill="#000000">locomotor.core.Comparator.compute</text>
<text text-anchor="middle" x="179.6167" y="-6.5" font-family="Helvetica,sans-Serif" font-size="10.00" fill="#000000">GradeOfCriteria</text>
</a>
</g>
</g>
<!-- Node1&#45;&gt;Node2 -->
<g id="edge1" class="edge">
<title>Node1&#45;&gt;Node2</title>
<path fill="none" stroke="#191970" d="M64.9487,-14.5C72.9317,-14.5 81.6829,-14.5 90.6799,-14.5"/>
<polygon fill="#191970" stroke="#191970" points="64.9409,-11.0001 54.9408,-14.5 64.9408,-18.0001 64.9409,-11.0001"/>
</g>
<!-- Node3 -->
<g id="node3" class="node">
<title>Node3</title>
<g id="a_node3"><a xlink:href="classlocomotor_1_1core_1_1_comparator.html#a3f526c90b5b3a645974bbb81e30d3c74" target="_top" xlink:title="locomotor.core.Comparator.compute\lGradeOfCategory">
<polygon fill="#ffffff" stroke="#000000" points="304.4932,-.5 304.4932,-28.5 482.2461,-28.5 482.2461,-.5 304.4932,-.5"/>
<text text-anchor="start" x="312.4932" y="-16.5" font-family="Helvetica,sans-Serif" font-size="10.00" fill="#000000">locomotor.core.Comparator.compute</text>
<text text-anchor="middle" x="393.3696" y="-6.5" font-family="Helvetica,sans-Serif" font-size="10.00" fill="#000000">GradeOfCategory</text>
</a>
</g>
</g>
<!-- Node2&#45;&gt;Node3 -->
<g id="edge2" class="edge">
<title>Node2&#45;&gt;Node3</title>
<path fill="none" stroke="#191970" d="M278.7321,-14.5C287.2989,-14.5 295.9325,-14.5 304.4113,-14.5"/>
<polygon fill="#191970" stroke="#191970" points="278.7194,-11.0001 268.7194,-14.5 278.7193,-18.0001 278.7194,-11.0001"/>
</g>
<!-- Node4 -->
<g id="node4" class="node">
<title>Node4</title>
<g id="a_node4"><a xlink:href="classlocomotor_1_1core_1_1_comparator.html#a589b06b817cbbc74ceb4812d0ba6c245" target="_top" xlink:title="locomotor.core.Comparator.compute\lGradeOfItem">
<polygon fill="#ffffff" stroke="#000000" points="518.2461,-.5 518.2461,-28.5 695.999,-28.5 695.999,-.5 518.2461,-.5"/>
<text text-anchor="start" x="526.2461" y="-16.5" font-family="Helvetica,sans-Serif" font-size="10.00" fill="#000000">locomotor.core.Comparator.compute</text>
<text text-anchor="middle" x="607.1226" y="-6.5" font-family="Helvetica,sans-Serif" font-size="10.00" fill="#000000">GradeOfItem</text>
</a>
</g>
</g>
<!-- Node3&#45;&gt;Node4 -->
<g id="edge3" class="edge">
<title>Node3&#45;&gt;Node4</title>
<path fill="none" stroke="#191970" d="M492.485,-14.5C501.0518,-14.5 509.6854,-14.5 518.1642,-14.5"/>
<polygon fill="#191970" stroke="#191970" points="492.4723,-11.0001 482.4723,-14.5 492.4723,-18.0001 492.4723,-11.0001"/>
</g>
<!-- Node5 -->
<g id="node5" class="node">
<title>Node5</title>
<g id="a_node5"><a xlink:href="classlocomotor_1_1core_1_1_comparator.html#a092fb76ad264eeccd8f30eadb70e36e3" target="_top" xlink:title="locomotor.core.Comparator.compute\lGradeOfItems">
<polygon fill="#ffffff" stroke="#000000" points="731.999,-.5 731.999,-28.5 909.752,-28.5 909.752,-.5 731.999,-.5"/>
<text text-anchor="start" x="739.999" y="-16.5" font-family="Helvetica,sans-Serif" font-size="10.00" fill="#000000">locomotor.core.Comparator.compute</text>
<text text-anchor="middle" x="820.8755" y="-6.5" font-family="Helvetica,sans-Serif" font-size="10.00" fill="#000000">GradeOfItems</text>
</a>
</g>
</g>
<!-- Node4&#45;&gt;Node5 -->
<g id="edge4" class="edge">
<title>Node4&#45;&gt;Node5</title>
<path fill="none" stroke="#191970" d="M706.2379,-14.5C714.8047,-14.5 723.4384,-14.5 731.9172,-14.5"/>
<polygon fill="#191970" stroke="#191970" points="706.2253,-11.0001 696.2252,-14.5 706.2252,-18.0001 706.2253,-11.0001"/>
</g>
<!-- Node6 -->
<g id="node6" class="node">
<title>Node6</title>
<g id="a_node6"><a xlink:href="classlocomotor_1_1components_1_1network_1_1_a_p_i.html#a547463fbc7fb7b485886f0917e2c0b78" target="_top" xlink:title="locomotor.components.network.\lAPI.createHooks">
<polygon fill="#ffffff" stroke="#000000" points="945.752,-.5 945.752,-28.5 1102.9385,-28.5 1102.9385,-.5 945.752,-.5"/>
<text text-anchor="start" x="953.752" y="-16.5" font-family="Helvetica,sans-Serif" font-size="10.00" fill="#000000">locomotor.components.network.</text>
<text text-anchor="middle" x="1024.3452" y="-6.5" font-family="Helvetica,sans-Serif" font-size="10.00" fill="#000000">API.createHooks</text>
</a>
</g>
</g>
<!-- Node5&#45;&gt;Node6 -->
<g id="edge5" class="edge">
<title>Node5&#45;&gt;Node6</title>
<path fill="none" stroke="#191970" d="M919.8807,-14.5C928.4699,-14.5 937.0851,-14.5 945.4812,-14.5"/>
<polygon fill="#191970" stroke="#191970" points="919.8243,-11.0001 909.8243,-14.5 919.8242,-18.0001 919.8243,-11.0001"/>
</g>
<!-- Node7 -->
<g id="node7" class="node">
<title>Node7</title>
<g id="a_node7"><a xlink:href="classlocomotor_1_1core_1_1_main.html#a8b260eecbaabcef8473fd87ada040682" target="_top" xlink:title="locomotor.core.Main.main">
<polygon fill="#ffffff" stroke="#000000" points="1138.9385,-5.5 1138.9385,-23.5 1269.4355,-23.5 1269.4355,-5.5 1138.9385,-5.5"/>
<text text-anchor="middle" x="1204.187" y="-11.5" font-family="Helvetica,sans-Serif" font-size="10.00" fill="#000000">locomotor.core.Main.main</text>
</a>
</g>
</g>
<!-- Node6&#45;&gt;Node7 -->
<g id="edge6" class="edge">
<title>Node6&#45;&gt;Node7</title>
<path fill="none" stroke="#191970" d="M1113.1382,-14.5C1121.8265,-14.5 1130.5289,-14.5 1138.9208,-14.5"/>
<polygon fill="#191970" stroke="#191970" points="1112.9649,-11.0001 1102.9648,-14.5 1112.9648,-18.0001 1112.9649,-11.0001"/>
</g>
</g>
</svg>
