<?xml version="1.0" encoding="UTF-8" standalone="no"?>
<!DOCTYPE svg PUBLIC "-//W3C//DTD SVG 1.1//EN"
 "http://www.w3.org/Graphics/SVG/1.1/DTD/svg11.dtd">
<!-- Generated by graphviz version 2.40.1 (20161225.0304)
 -->
<!-- Title: getUser Pages: 1 -->
<!--zoomable 529 -->
<svg id="main" version="1.1" xmlns="http://www.w3.org/2000/svg" xmlns:xlink="http://www.w3.org/1999/xlink" xml:space="preserve" onload="init(evt)">
<style type="text/css"><![CDATA[
.edge:hover path { stroke: red; }
.edge:hover polygon { stroke: red; fill: red; }
]]></style>
<script type="text/javascript"><![CDATA[
var edges = document.getElementsByTagName('g');
if (edges && edges.length) {
  for (var i=0;i<edges.length;i++) {
    if (edges[i].id.substr(0,4)=='edge') {
      edges[i].setAttribute('class','edge');
    }
  }
}
]]></script>
        <defs>
                <circle id="rim" cx="0" cy="0" r="7"/>
                <circle id="rim2" cx="0" cy="0" r="3.5"/>
                <g id="zoomPlus">
                        <use xlink:href="#rim" fill="#404040">
                                <set attributeName="fill" to="#808080" begin="zoomplus.mouseover" end="zoomplus.mouseout"/>
                        </use>
                        <path d="M-4,0h8M0,-4v8" fill="none" stroke="white" stroke-width="1.5" pointer-events="none"/>
                </g>
                <g id="zoomMin">
                        <use xlink:href="#rim" fill="#404040">
                                <set attributeName="fill" to="#808080" begin="zoomminus.mouseover" end="zoomminus.mouseout"/>
                        </use>
                        <path d="M-4,0h8" fill="none" stroke="white" stroke-width="1.5" pointer-events="none"/>
                </g>
                <g id="dirArrow">
                        <path fill="none" stroke="white" stroke-width="1.5" d="M0,-3.0v7 M-2.5,-0.5L0,-3.0L2.5,-0.5"/>
                </g>
               <g id="resetDef">
                       <use xlink:href="#rim2" fill="#404040">
                               <set attributeName="fill" to="#808080" begin="reset.mouseover" end="reset.mouseout"/>
                       </use>
               </g>
        </defs>

<script type="text/javascript">
var viewWidth = 670;
var viewHeight = 529;
var sectionId = 'dynsection-10';
</script>
<script xlink:href="svgpan.js"/>
<svg id="graph" class="graph">
<g id="viewport">
<title>getUser</title>
<polygon fill="#ffffff" stroke="transparent" points="-4,4 -4,-525 666.2441,-525 666.2441,4 -4,4"/>
<!-- Node1 -->
<g id="node1" class="node">
<title>Node1</title>
<polygon fill="#bfbfbf" stroke="#000000" points="0,-285.5 0,-303.5 51.0146,-303.5 51.0146,-285.5 0,-285.5"/>
<text text-anchor="middle" x="25.5073" y="-291.5" font-family="Helvetica,sans-Serif" font-size="10.00" fill="#000000">getUser</text>
</g>
<!-- Node2 -->
<g id="node2" class="node">
<title>Node2</title>
<g id="a_node2"><a xlink:href="classlocomotor_1_1components_1_1types_1_1_c_boolean.html#a1bdea5ac8c77993c2f48a0a99a0ce032" target="_top" xlink:title="locomotor.components.types.\lCBoolean.fromJSON">
<polygon fill="#ffffff" stroke="#000000" points="92.1904,-462.5 92.1904,-490.5 238.2637,-490.5 238.2637,-462.5 92.1904,-462.5"/>
<text text-anchor="start" x="100.1904" y="-478.5" font-family="Helvetica,sans-Serif" font-size="10.00" fill="#000000">locomotor.components.types.</text>
<text text-anchor="middle" x="165.2271" y="-468.5" font-family="Helvetica,sans-Serif" font-size="10.00" fill="#000000">CBoolean.fromJSON</text>
</a>
</g>
</g>
<!-- Node1&#45;&gt;Node2 -->
<g id="edge1" class="edge">
<title>Node1&#45;&gt;Node2</title>
<path fill="none" stroke="#191970" d="M27.9658,-303.6433C34.4221,-326.2968 53.6983,-385.9722 87.0146,-424.5 98.2134,-437.4506 113.3833,-448.5255 127.3827,-457.0847"/>
<polygon fill="#191970" stroke="#191970" points="125.9616,-460.3084 136.3597,-462.3405 129.4983,-454.2676 125.9616,-460.3084"/>
</g>
<!-- Node5 -->
<g id="node5" class="node">
<title>Node5</title>
<g id="a_node5"><a xlink:href="classlocomotor_1_1components_1_1types_1_1_c_interval_integer.html#a7325219bbe286c1651eac4d7cb1dcf89" target="_top" xlink:title="locomotor.components.types.\lCIntervalInteger.fromJSON">
<polygon fill="#ffffff" stroke="#000000" points="92.1904,-327.5 92.1904,-355.5 238.2637,-355.5 238.2637,-327.5 92.1904,-327.5"/>
<text text-anchor="start" x="100.1904" y="-343.5" font-family="Helvetica,sans-Serif" font-size="10.00" fill="#000000">locomotor.components.types.</text>
<text text-anchor="middle" x="165.2271" y="-333.5" font-family="Helvetica,sans-Serif" font-size="10.00" fill="#000000">CIntervalInteger.fromJSON</text>
</a>
</g>
</g>
<!-- Node1&#45;&gt;Node5 -->
<g id="edge4" class="edge">
<title>Node1&#45;&gt;Node5</title>
<path fill="none" stroke="#191970" d="M51.1341,-303.1205C68.6918,-309.0267 92.582,-317.0631 113.965,-324.2561"/>
<polygon fill="#191970" stroke="#191970" points="112.9874,-327.6199 123.5815,-327.4909 115.2193,-320.9852 112.9874,-327.6199"/>
</g>
<!-- Node9 -->
<g id="node9" class="node">
<title>Node9</title>
<g id="a_node9"><a xlink:href="classlocomotor_1_1components_1_1types_1_1_c_interval_double.html#a05b10f1076a88b090171dc5c92d1e51a" target="_top" xlink:title="locomotor.components.types.\lCIntervalDouble.fromJSON">
<polygon fill="#ffffff" stroke="#000000" points="92.1904,-386.5 92.1904,-414.5 238.2637,-414.5 238.2637,-386.5 92.1904,-386.5"/>
<text text-anchor="start" x="100.1904" y="-402.5" font-family="Helvetica,sans-Serif" font-size="10.00" fill="#000000">locomotor.components.types.</text>
<text text-anchor="middle" x="165.2271" y="-392.5" font-family="Helvetica,sans-Serif" font-size="10.00" fill="#000000">CIntervalDouble.fromJSON</text>
</a>
</g>
</g>
<!-- Node1&#45;&gt;Node9 -->
<g id="edge8" class="edge">
<title>Node1&#45;&gt;Node9</title>
<path fill="none" stroke="#191970" d="M31.65,-303.9435C41.6894,-318.7567 62.9249,-347.6074 87.0146,-365.5 95.6122,-371.8858 105.5595,-377.448 115.4176,-382.1447"/>
<polygon fill="#191970" stroke="#191970" points="114.2406,-385.4535 124.7947,-386.3812 117.1226,-379.0743 114.2406,-385.4535"/>
</g>
<!-- Node11 -->
<g id="node11" class="node">
<title>Node11</title>
<g id="a_node11"><a xlink:href="classlocomotor_1_1components_1_1types_1_1_c_mapped_string_list.html#a3834a44c64a57457335f1f296b272c79" target="_top" xlink:title="locomotor.components.types.\lCMappedStringList.fromJSON">
<polygon fill="#ffffff" stroke="#000000" points="89.981,-257.5 89.981,-285.5 240.4731,-285.5 240.4731,-257.5 89.981,-257.5"/>
<text text-anchor="start" x="97.981" y="-273.5" font-family="Helvetica,sans-Serif" font-size="10.00" fill="#000000">locomotor.components.types.</text>
<text text-anchor="middle" x="165.2271" y="-263.5" font-family="Helvetica,sans-Serif" font-size="10.00" fill="#000000">CMappedStringList.fromJSON</text>
</a>
</g>
</g>
<!-- Node1&#45;&gt;Node11 -->
<g id="edge12" class="edge">
<title>Node1&#45;&gt;Node11</title>
<path fill="none" stroke="#191970" d="M51.1341,-290.2814C59.552,-288.8957 69.4254,-287.2704 79.7803,-285.5658"/>
<polygon fill="#191970" stroke="#191970" points="80.5253,-288.9904 89.824,-283.9125 79.3882,-282.0834 80.5253,-288.9904"/>
</g>
<!-- Node14 -->
<g id="node14" class="node">
<title>Node14</title>
<g id="a_node14"><a xlink:href="classlocomotor_1_1components_1_1types_1_1_c_weighted_string_list.html#a7a08dcf44cd83920ed5e14cef6361de8" target="_top" xlink:title="locomotor.components.types.\lCWeightedStringList.fromJSON">
<polygon fill="#ffffff" stroke="#000000" points="87.0146,-146.5 87.0146,-174.5 243.4395,-174.5 243.4395,-146.5 87.0146,-146.5"/>
<text text-anchor="start" x="95.0146" y="-162.5" font-family="Helvetica,sans-Serif" font-size="10.00" fill="#000000">locomotor.components.types.</text>
<text text-anchor="middle" x="165.2271" y="-152.5" font-family="Helvetica,sans-Serif" font-size="10.00" fill="#000000">CWeightedStringList.fromJSON</text>
</a>
</g>
</g>
<!-- Node1&#45;&gt;Node14 -->
<g id="edge15" class="edge">
<title>Node1&#45;&gt;Node14</title>
<path fill="none" stroke="#191970" d="M35.1108,-285.2896C57.1636,-264.1397 111.9075,-211.6368 142.9031,-181.9101"/>
<polygon fill="#191970" stroke="#191970" points="145.4427,-184.324 150.2373,-174.8761 140.5974,-179.2719 145.4427,-184.324"/>
</g>
<!-- Node18 -->
<g id="node18" class="node">
<title>Node18</title>
<g id="a_node18"><a xlink:href="classlocomotor_1_1components_1_1types_1_1_c_tree.html#a82724a3000f4e1d5ff5fed5365e1480f" target="_top" xlink:title="locomotor.components.types.\lCTree.fromJSON">
<polygon fill="#ffffff" stroke="#000000" points="92.1904,-43.5 92.1904,-71.5 238.2637,-71.5 238.2637,-43.5 92.1904,-43.5"/>
<text text-anchor="start" x="100.1904" y="-59.5" font-family="Helvetica,sans-Serif" font-size="10.00" fill="#000000">locomotor.components.types.</text>
<text text-anchor="middle" x="165.2271" y="-49.5" font-family="Helvetica,sans-Serif" font-size="10.00" fill="#000000">CTree.fromJSON</text>
</a>
</g>
</g>
<!-- Node1&#45;&gt;Node18 -->
<g id="edge21" class="edge">
<title>Node1&#45;&gt;Node18</title>
<path fill="none" stroke="#191970" d="M27.6978,-285.4049C34.0165,-260.322 53.9648,-188.6399 87.0146,-137.5 101.6016,-114.9288 123.2672,-93.3873 140.0989,-78.3555"/>
<polygon fill="#191970" stroke="#191970" points="142.6921,-80.7377 147.9213,-71.5232 138.0872,-75.4655 142.6921,-80.7377"/>
</g>
<!-- Node3 -->
<g id="node3" class="node">
<title>Node3</title>
<g id="a_node3"><a xlink:href="classlocomotor_1_1components_1_1types_1_1_c_boolean.html#a04219e3dc4a138fa88ee6876fb62eebc" target="_top" xlink:title="locomotor.components.types.\lCBoolean.CBoolean">
<polygon fill="#ffffff" stroke="#000000" points="306.7686,-492.5 306.7686,-520.5 452.8418,-520.5 452.8418,-492.5 306.7686,-492.5"/>
<text text-anchor="start" x="314.7686" y="-508.5" font-family="Helvetica,sans-Serif" font-size="10.00" fill="#000000">locomotor.components.types.</text>
<text text-anchor="middle" x="379.8052" y="-498.5" font-family="Helvetica,sans-Serif" font-size="10.00" fill="#000000">CBoolean.CBoolean</text>
</a>
</g>
</g>
<!-- Node2&#45;&gt;Node3 -->
<g id="edge2" class="edge">
<title>Node2&#45;&gt;Node3</title>
<path fill="none" stroke="#191970" d="M238.4725,-486.7404C257.1857,-489.3567 277.4404,-492.1885 296.6125,-494.8689"/>
<polygon fill="#191970" stroke="#191970" points="296.1374,-498.3364 306.5257,-496.2549 297.1067,-491.4039 296.1374,-498.3364"/>
</g>
<!-- Node4 -->
<g id="node4" class="node">
<title>Node4</title>
<g id="a_node4"><a xlink:href="classlocomotor_1_1components_1_1types_1_1_c_boolean.html#a9eac04fa64318139aa527377b2e03cc4" target="_top" xlink:title="locomotor.components.types.\lCBoolean.value">
<polygon fill="#ffffff" stroke="#000000" points="516.1709,-492.5 516.1709,-520.5 662.2441,-520.5 662.2441,-492.5 516.1709,-492.5"/>
<text text-anchor="start" x="524.1709" y="-508.5" font-family="Helvetica,sans-Serif" font-size="10.00" fill="#000000">locomotor.components.types.</text>
<text text-anchor="middle" x="589.2075" y="-498.5" font-family="Helvetica,sans-Serif" font-size="10.00" fill="#000000">CBoolean.value</text>
</a>
</g>
</g>
<!-- Node3&#45;&gt;Node4 -->
<g id="edge3" class="edge">
<title>Node3&#45;&gt;Node4</title>
<path fill="none" stroke="#191970" d="M453.044,-506.5C470.1002,-506.5 488.3844,-506.5 505.8422,-506.5"/>
<polygon fill="#191970" stroke="#191970" points="506.0101,-510.0001 516.0101,-506.5 506.0101,-503.0001 506.0101,-510.0001"/>
</g>
<!-- Node6 -->
<g id="node6" class="node">
<title>Node6</title>
<g id="a_node6"><a xlink:href="classlocomotor_1_1components_1_1types_1_1_c_interval.html#a8977ca8c87b00639da116d1441a878ec" target="_top" xlink:title="locomotor.components.types.\lCInterval.min">
<polygon fill="#ffffff" stroke="#000000" points="306.7686,-398.5 306.7686,-426.5 452.8418,-426.5 452.8418,-398.5 306.7686,-398.5"/>
<text text-anchor="start" x="314.7686" y="-414.5" font-family="Helvetica,sans-Serif" font-size="10.00" fill="#000000">locomotor.components.types.</text>
<text text-anchor="middle" x="379.8052" y="-404.5" font-family="Helvetica,sans-Serif" font-size="10.00" fill="#000000">CInterval.min</text>
</a>
</g>
</g>
<!-- Node5&#45;&gt;Node6 -->
<g id="edge5" class="edge">
<title>Node5&#45;&gt;Node6</title>
<path fill="none" stroke="#191970" d="M194.753,-355.5715C217.506,-366.0048 249.9584,-380.0055 279.4395,-389.5 286.5382,-391.7862 293.9886,-393.938 301.4877,-395.9386"/>
<polygon fill="#191970" stroke="#191970" points="300.7914,-399.3735 311.3485,-398.4801 302.5385,-392.595 300.7914,-399.3735"/>
</g>
<!-- Node7 -->
<g id="node7" class="node">
<title>Node7</title>
<g id="a_node7"><a xlink:href="classlocomotor_1_1components_1_1types_1_1_c_interval.html#a63edd36c00e0027edd899384e6f168f9" target="_top" xlink:title="locomotor.components.types.\lCInterval.max">
<polygon fill="#ffffff" stroke="#000000" points="306.7686,-351.5 306.7686,-379.5 452.8418,-379.5 452.8418,-351.5 306.7686,-351.5"/>
<text text-anchor="start" x="314.7686" y="-367.5" font-family="Helvetica,sans-Serif" font-size="10.00" fill="#000000">locomotor.components.types.</text>
<text text-anchor="middle" x="379.8052" y="-357.5" font-family="Helvetica,sans-Serif" font-size="10.00" fill="#000000">CInterval.max</text>
</a>
</g>
</g>
<!-- Node5&#45;&gt;Node7 -->
<g id="edge6" class="edge">
<title>Node5&#45;&gt;Node7</title>
<path fill="none" stroke="#191970" d="M238.4725,-349.6923C257.0999,-351.7757 277.2546,-354.03 296.3486,-356.1656"/>
<polygon fill="#191970" stroke="#191970" points="296.1986,-359.6706 306.5257,-357.3039 296.9768,-352.7139 296.1986,-359.6706"/>
</g>
<!-- Node8 -->
<g id="node8" class="node">
<title>Node8</title>
<g id="a_node8"><a xlink:href="classlocomotor_1_1components_1_1types_1_1_c_interval_integer.html#a4ece5be3d0255219efc9a1ec16f3775c" target="_top" xlink:title="locomotor.components.types.\lCIntervalInteger.CIntervalInteger">
<polygon fill="#ffffff" stroke="#000000" points="299.542,-304.5 299.542,-332.5 460.0684,-332.5 460.0684,-304.5 299.542,-304.5"/>
<text text-anchor="start" x="307.542" y="-320.5" font-family="Helvetica,sans-Serif" font-size="10.00" fill="#000000">locomotor.components.types.</text>
<text text-anchor="middle" x="379.8052" y="-310.5" font-family="Helvetica,sans-Serif" font-size="10.00" fill="#000000">CIntervalInteger.CIntervalInteger</text>
</a>
</g>
</g>
<!-- Node5&#45;&gt;Node8 -->
<g id="edge7" class="edge">
<title>Node5&#45;&gt;Node8</title>
<path fill="none" stroke="#191970" d="M238.4725,-333.649C254.914,-331.8867 272.5454,-329.9969 289.5871,-328.1702"/>
<polygon fill="#191970" stroke="#191970" points="289.9694,-331.6494 299.5394,-327.1034 289.2233,-324.6892 289.9694,-331.6494"/>
</g>
<!-- Node9&#45;&gt;Node6 -->
<g id="edge9" class="edge">
<title>Node9&#45;&gt;Node6</title>
<path fill="none" stroke="#191970" d="M238.4725,-404.5962C257.0999,-405.6379 277.2546,-406.765 296.3486,-407.8328"/>
<polygon fill="#191970" stroke="#191970" points="296.3459,-411.338 306.5257,-408.4019 296.7368,-404.3489 296.3459,-411.338"/>
</g>
<!-- Node9&#45;&gt;Node7 -->
<g id="edge10" class="edge">
<title>Node9&#45;&gt;Node7</title>
<path fill="none" stroke="#191970" d="M238.4725,-388.5529C257.1857,-385.5006 277.4404,-382.1968 296.6125,-379.0696"/>
<polygon fill="#191970" stroke="#191970" points="297.2196,-382.5169 306.5257,-377.4527 296.0927,-375.6082 297.2196,-382.5169"/>
</g>
<!-- Node10 -->
<g id="node10" class="node">
<title>Node10</title>
<g id="a_node10"><a xlink:href="classlocomotor_1_1components_1_1types_1_1_c_interval_double.html#a1c646d0efc9520469e000c2282ca3386" target="_top" xlink:title="locomotor.components.types.\lCIntervalDouble.CIntervalDouble">
<polygon fill="#ffffff" stroke="#000000" points="298.7119,-445.5 298.7119,-473.5 460.8984,-473.5 460.8984,-445.5 298.7119,-445.5"/>
<text text-anchor="start" x="306.7119" y="-461.5" font-family="Helvetica,sans-Serif" font-size="10.00" fill="#000000">locomotor.components.types.</text>
<text text-anchor="middle" x="379.8052" y="-451.5" font-family="Helvetica,sans-Serif" font-size="10.00" fill="#000000">CIntervalDouble.CIntervalDouble</text>
</a>
</g>
</g>
<!-- Node9&#45;&gt;Node10 -->
<g id="edge11" class="edge">
<title>Node9&#45;&gt;Node10</title>
<path fill="none" stroke="#191970" d="M207.0278,-414.5593C228.5422,-421.57 255.2638,-429.9311 279.4395,-436.5 287.7744,-438.7647 296.5383,-440.9939 305.2724,-443.1202"/>
<polygon fill="#191970" stroke="#191970" points="304.556,-446.5475 315.0962,-445.4736 306.1868,-439.7401 304.556,-446.5475"/>
</g>
<!-- Node12 -->
<g id="node12" class="node">
<title>Node12</title>
<g id="a_node12"><a xlink:href="classlocomotor_1_1components_1_1types_1_1_c_string_list.html#aa9063c07592d04038c8a37cae1214de5" target="_top" xlink:title="locomotor.components.types.\lCStringList.treeFromJSON">
<polygon fill="#ffffff" stroke="#000000" points="306.7686,-257.5 306.7686,-285.5 452.8418,-285.5 452.8418,-257.5 306.7686,-257.5"/>
<text text-anchor="start" x="314.7686" y="-273.5" font-family="Helvetica,sans-Serif" font-size="10.00" fill="#000000">locomotor.components.types.</text>
<text text-anchor="middle" x="379.8052" y="-263.5" font-family="Helvetica,sans-Serif" font-size="10.00" fill="#000000">CStringList.treeFromJSON</text>
</a>
</g>
</g>
<!-- Node11&#45;&gt;Node12 -->
<g id="edge13" class="edge">
<title>Node11&#45;&gt;Node12</title>
<path fill="none" stroke="#191970" d="M240.5775,-271.5C258.6121,-271.5 277.9715,-271.5 296.3483,-271.5"/>
<polygon fill="#191970" stroke="#191970" points="296.442,-275.0001 306.442,-271.5 296.442,-268.0001 296.442,-275.0001"/>
</g>
<!-- Node13 -->
<g id="node13" class="node">
<title>Node13</title>
<g id="a_node13"><a xlink:href="classlocomotor_1_1components_1_1types_1_1_c_mapped_string_list.html#a6ee84a38e1c5b58c08a7e9557cc959e1" target="_top" xlink:title="locomotor.components.types.\lCMappedStringList.CMappedStringList">
<polygon fill="#ffffff" stroke="#000000" points="285.3721,-210.5 285.3721,-238.5 474.2383,-238.5 474.2383,-210.5 285.3721,-210.5"/>
<text text-anchor="start" x="293.3721" y="-226.5" font-family="Helvetica,sans-Serif" font-size="10.00" fill="#000000">locomotor.components.types.</text>
<text text-anchor="middle" x="379.8052" y="-216.5" font-family="Helvetica,sans-Serif" font-size="10.00" fill="#000000">CMappedStringList.CMappedStringList</text>
</a>
</g>
</g>
<!-- Node11&#45;&gt;Node13 -->
<g id="edge14" class="edge">
<title>Node11&#45;&gt;Node13</title>
<path fill="none" stroke="#191970" d="M229.3169,-257.4621C253.3042,-252.2081 280.75,-246.1965 305.5778,-240.7583"/>
<polygon fill="#191970" stroke="#191970" points="306.6555,-244.1054 315.675,-238.5467 305.1577,-237.2675 306.6555,-244.1054"/>
</g>
<!-- Node15 -->
<g id="node15" class="node">
<title>Node15</title>
<g id="a_node15"><a xlink:href="classlocomotor_1_1components_1_1types_1_1_c_weighted_string_list.html#a97eb4ff6ea197b3a02c2db1c768c989a" target="_top" xlink:title="locomotor.components.types.\lCWeightedStringList.min">
<polygon fill="#ffffff" stroke="#000000" points="516.1709,-148.5 516.1709,-176.5 662.2441,-176.5 662.2441,-148.5 516.1709,-148.5"/>
<text text-anchor="start" x="524.1709" y="-164.5" font-family="Helvetica,sans-Serif" font-size="10.00" fill="#000000">locomotor.components.types.</text>
<text text-anchor="middle" x="589.2075" y="-154.5" font-family="Helvetica,sans-Serif" font-size="10.00" fill="#000000">CWeightedStringList.min</text>
</a>
</g>
</g>
<!-- Node14&#45;&gt;Node15 -->
<g id="edge16" class="edge">
<title>Node14&#45;&gt;Node15</title>
<path fill="none" stroke="#191970" d="M243.5585,-162.0531C255.5753,-162.2388 267.8384,-162.3984 279.4395,-162.5 356.106,-163.1712 443.4499,-163.0948 505.8027,-162.8954"/>
<polygon fill="#191970" stroke="#191970" points="505.9897,-166.3949 515.9778,-162.861 505.966,-159.3949 505.9897,-166.3949"/>
</g>
<!-- Node16 -->
<g id="node16" class="node">
<title>Node16</title>
<g id="a_node16"><a xlink:href="classlocomotor_1_1components_1_1types_1_1_c_weighted_string_list.html#a1847175a80cbae9533f68b32190a708d" target="_top" xlink:title="locomotor.components.types.\lCWeightedStringList.max">
<polygon fill="#ffffff" stroke="#000000" points="516.1709,-91.5 516.1709,-119.5 662.2441,-119.5 662.2441,-91.5 516.1709,-91.5"/>
<text text-anchor="start" x="524.1709" y="-107.5" font-family="Helvetica,sans-Serif" font-size="10.00" fill="#000000">locomotor.components.types.</text>
<text text-anchor="middle" x="589.2075" y="-97.5" font-family="Helvetica,sans-Serif" font-size="10.00" fill="#000000">CWeightedStringList.max</text>
</a>
</g>
</g>
<!-- Node14&#45;&gt;Node16 -->
<g id="edge17" class="edge">
<title>Node14&#45;&gt;Node16</title>
<path fill="none" stroke="#191970" d="M193.0254,-146.4215C215.6542,-135.7372 248.759,-121.8407 279.4395,-115.5 354.9357,-99.8974 442.9536,-98.627 505.8301,-100.5334"/>
<polygon fill="#191970" stroke="#191970" points="505.9785,-104.0403 516.0908,-100.8794 506.2145,-97.0443 505.9785,-104.0403"/>
</g>
<!-- Node17 -->
<g id="node17" class="node">
<title>Node17</title>
<g id="a_node17"><a xlink:href="classlocomotor_1_1components_1_1types_1_1_c_weighted_string_list.html#af359d6fddb9c42710b6546ed2337eec7" target="_top" xlink:title="locomotor.components.types.\lCWeightedStringList.CWeightedStringList">
<polygon fill="#ffffff" stroke="#000000" points="279.4395,-124.5 279.4395,-152.5 480.1709,-152.5 480.1709,-124.5 279.4395,-124.5"/>
<text text-anchor="start" x="287.4395" y="-140.5" font-family="Helvetica,sans-Serif" font-size="10.00" fill="#000000">locomotor.components.types.</text>
<text text-anchor="middle" x="379.8052" y="-130.5" font-family="Helvetica,sans-Serif" font-size="10.00" fill="#000000">CWeightedStringList.CWeightedStringList</text>
</a>
</g>
</g>
<!-- Node14&#45;&gt;Node17 -->
<g id="edge18" class="edge">
<title>Node14&#45;&gt;Node17</title>
<path fill="none" stroke="#191970" d="M243.6055,-152.4641C251.9523,-151.6083 260.5514,-150.7267 269.1793,-149.8421"/>
<polygon fill="#191970" stroke="#191970" points="269.7166,-153.3055 279.3075,-148.8037 269.0026,-146.342 269.7166,-153.3055"/>
</g>
<!-- Node17&#45;&gt;Node15 -->
<g id="edge19" class="edge">
<title>Node17&#45;&gt;Node15</title>
<path fill="none" stroke="#191970" d="M480.213,-150.0079C488.7947,-150.9915 497.4149,-151.9795 505.8425,-152.9454"/>
<polygon fill="#191970" stroke="#191970" points="505.6777,-156.4493 516.0112,-154.1108 506.4748,-149.4948 505.6777,-156.4493"/>
</g>
<!-- Node17&#45;&gt;Node16 -->
<g id="edge20" class="edge">
<title>Node17&#45;&gt;Node16</title>
<path fill="none" stroke="#191970" d="M468.9143,-124.4572C481.1765,-122.5248 493.7305,-120.5463 505.8833,-118.6312"/>
<polygon fill="#191970" stroke="#191970" points="506.6487,-122.0538 515.982,-117.0397 505.559,-115.1392 506.6487,-122.0538"/>
</g>
<!-- Node18&#45;&gt;Node18 -->
<g id="edge23" class="edge">
<title>Node18&#45;&gt;Node18</title>
<path fill="none" stroke="#191970" d="M141.6325,-71.5305C134.9911,-80.8898 142.856,-90 165.2271,-90 179.209,-90 187.5244,-86.4413 190.1733,-81.4873"/>
<polygon fill="#191970" stroke="#191970" points="193.6351,-80.9687 188.8216,-71.5305 186.6988,-81.9105 193.6351,-80.9687"/>
</g>
<!-- Node19 -->
<g id="node19" class="node">
<title>Node19</title>
<g id="a_node19"><a xlink:href="classlocomotor_1_1components_1_1types_1_1_c_tree.html#af0e7a198496b1627d0ff15ce0e6de1f2" target="_top" xlink:title="locomotor.components.types.\lCTree.CTree">
<polygon fill="#ffffff" stroke="#000000" points="516.1709,-27.5 516.1709,-55.5 662.2441,-55.5 662.2441,-27.5 516.1709,-27.5"/>
<text text-anchor="start" x="524.1709" y="-43.5" font-family="Helvetica,sans-Serif" font-size="10.00" fill="#000000">locomotor.components.types.</text>
<text text-anchor="middle" x="589.2075" y="-33.5" font-family="Helvetica,sans-Serif" font-size="10.00" fill="#000000">CTree.CTree</text>
</a>
</g>
</g>
<!-- Node18&#45;&gt;Node19 -->
<g id="edge22" class="edge">
<title>Node18&#45;&gt;Node19</title>
<path fill="none" stroke="#191970" d="M238.5948,-54.7313C312.9935,-51.9237 427.9563,-47.5852 505.7781,-44.6484"/>
<polygon fill="#191970" stroke="#191970" points="506.1677,-48.1363 516.0286,-44.2616 505.9036,-41.1413 506.1677,-48.1363"/>
</g>
<!-- Node20 -->
<g id="node20" class="node">
<title>Node20</title>
<g id="a_node20"><a xlink:href="classlocomotor_1_1components_1_1types_1_1_c_tree.html#a74382cb3a3153edc32f1cfed8c4ee364" target="_top" xlink:title="locomotor.components.types.\lCTree.addChild">
<polygon fill="#ffffff" stroke="#000000" points="306.7686,-.5 306.7686,-28.5 452.8418,-28.5 452.8418,-.5 306.7686,-.5"/>
<text text-anchor="start" x="314.7686" y="-16.5" font-family="Helvetica,sans-Serif" font-size="10.00" fill="#000000">locomotor.components.types.</text>
<text text-anchor="middle" x="379.8052" y="-6.5" font-family="Helvetica,sans-Serif" font-size="10.00" fill="#000000">CTree.addChild</text>
</a>
</g>
</g>
<!-- Node18&#45;&gt;Node20 -->
<g id="edge24" class="edge">
<title>Node18&#45;&gt;Node20</title>
<path fill="none" stroke="#191970" d="M235.191,-43.4797C255.8847,-39.3328 278.6948,-34.7618 299.9623,-30.5"/>
<polygon fill="#191970" stroke="#191970" points="300.8189,-33.898 309.9362,-28.5013 299.4434,-27.0344 300.8189,-33.898"/>
</g>
<!-- Node20&#45;&gt;Node19 -->
<g id="edge25" class="edge">
<title>Node20&#45;&gt;Node19</title>
<path fill="none" stroke="#191970" d="M453.044,-23.9433C470.1002,-26.1425 488.3844,-28.5 505.8422,-30.751"/>
<polygon fill="#191970" stroke="#191970" points="505.6446,-34.2544 516.0101,-32.062 506.5398,-27.3119 505.6446,-34.2544"/>
</g>
</g>
</svg>
        <g id="navigator" transform="translate(0 0)" fill="#404254">
                <rect fill="#f2f5e9" fill-opacity="0.5" stroke="#606060" stroke-width=".5" x="0" y="0" width="60" height="60"/>
                <use id="zoomplus" xlink:href="#zoomPlus" x="17" y="9" onmousedown="handleZoom(evt,'in')"/>
                <use id="zoomminus" xlink:href="#zoomMin" x="42" y="9" onmousedown="handleZoom(evt,'out')"/>
                <use id="reset" xlink:href="#resetDef" x="30" y="36" onmousedown="handleReset()"/>
                <g id="arrowUp" xlink:href="#dirArrow" transform="translate(30 24)" onmousedown="handlePan(0,-1)">
                  <use xlink:href="#rim" fill="#404040">
                        <set attributeName="fill" to="#808080" begin="arrowUp.mouseover" end="arrowUp.mouseout"/>
                  </use>
                  <path fill="none" stroke="white" stroke-width="1.5" d="M0,-3.0v7 M-2.5,-0.5L0,-3.0L2.5,-0.5"/>
                </g>
                <g id="arrowRight" xlink:href="#dirArrow" transform="rotate(90) translate(36 -43)" onmousedown="handlePan(1,0)">
                  <use xlink:href="#rim" fill="#404040">
                        <set attributeName="fill" to="#808080" begin="arrowRight.mouseover" end="arrowRight.mouseout"/>
                  </use>
                  <path fill="none" stroke="white" stroke-width="1.5" d="M0,-3.0v7 M-2.5,-0.5L0,-3.0L2.5,-0.5"/>
                </g>
                <g id="arrowDown" xlink:href="#dirArrow" transform="rotate(180) translate(-30 -48)" onmousedown="handlePan(0,1)">
                  <use xlink:href="#rim" fill="#404040">
                        <set attributeName="fill" to="#808080" begin="arrowDown.mouseover" end="arrowDown.mouseout"/>
                  </use>
                  <path fill="none" stroke="white" stroke-width="1.5" d="M0,-3.0v7 M-2.5,-0.5L0,-3.0L2.5,-0.5"/>
                </g>
                <g id="arrowLeft" xlink:href="#dirArrow" transform="rotate(270) translate(-36 17)" onmousedown="handlePan(-1,0)">
                  <use xlink:href="#rim" fill="#404040">
                        <set attributeName="fill" to="#808080" begin="arrowLeft.mouseover" end="arrowLeft.mouseout"/>
                  </use>
                  <path fill="none" stroke="white" stroke-width="1.5" d="M0,-3.0v7 M-2.5,-0.5L0,-3.0L2.5,-0.5"/>
                </g>
        </g>
        <svg viewBox="0 0 15 15" width="100%" height="30px" preserveAspectRatio="xMaxYMin meet">
         <g id="arrow_out" transform="scale(0.3 0.3)">
          <a xlink:href="classlocomotor_1_1components_1_1types_1_1_type_factory_a1a64701bf13afa82b6b32bf422a171e2_cgraph_org.svg" target="_base">
           <rect id="button" ry="5" rx="5" y="6" x="6" height="38" width="38"
                fill="#f2f5e9" fill-opacity="0.5" stroke="#606060" stroke-width="1.0"/>
           <path id="arrow"
             d="M 11.500037,31.436501 C 11.940474,20.09759 22.043105,11.32322 32.158766,21.979434 L 37.068811,17.246167 C 37.068811,17.246167 37.088388,32 37.088388,32 L 22.160133,31.978069 C 22.160133,31.978069 26.997745,27.140456 26.997745,27.140456 C 18.528582,18.264221 13.291696,25.230495 11.500037,31.436501 z"
             style="fill:#404040;"/>
          </a>
         </g>
        </svg>
</svg>
