<?xml version="1.0" encoding="UTF-8" standalone="no"?>
<!DOCTYPE svg PUBLIC "-//W3C//DTD SVG 1.1//EN"
 "http://www.w3.org/Graphics/SVG/1.1/DTD/svg11.dtd">
<!-- Generated by graphviz version 2.40.1 (20161225.0304)
 -->
<!-- Title: getDescription Pages: 1 -->
<svg width="832pt" height="74pt"
 viewBox="0.00 0.00 831.74 74.00" xmlns="http://www.w3.org/2000/svg" xmlns:xlink="http://www.w3.org/1999/xlink">
<g id="graph0" class="graph" transform="scale(1 1) rotate(0) translate(4 70)">
<title>getDescription</title>
<polygon fill="#ffffff" stroke="transparent" points="-4,4 -4,-70 827.7363,-70 827.7363,4 -4,4"/>
<!-- Node1 -->
<g id="node1" class="node">
<title>Node1</title>
<polygon fill="#bfbfbf" stroke="#000000" points="0,-26.5 0,-44.5 79.9209,-44.5 79.9209,-26.5 0,-26.5"/>
<text text-anchor="middle" x="39.9604" y="-32.5" font-family="Helvetica,sans-Serif" font-size="10.00" fill="#000000">getDescription</text>
</g>
<!-- Node2 -->
<g id="node2" class="node">
<title>Node2</title>
<g id="a_node2"><a xlink:href="classlocomotor_1_1core_1_1_d_b_h.html#a756e5af44b74ea39a44a71cde06102fd" target="_top" xlink:title="locomotor.core.DBH.checking\lParsingUniverse">
<polygon fill="#ffffff" stroke="#000000" points="115.9209,-21.5 115.9209,-49.5 263.6494,-49.5 263.6494,-21.5 115.9209,-21.5"/>
<text text-anchor="start" x="123.9209" y="-37.5" font-family="Helvetica,sans-Serif" font-size="10.00" fill="#000000">locomotor.core.DBH.checking</text>
<text text-anchor="middle" x="189.7852" y="-27.5" font-family="Helvetica,sans-Serif" font-size="10.00" fill="#000000">ParsingUniverse</text>
</a>
</g>
</g>
<!-- Node1&#45;&gt;Node2 -->
<g id="edge1" class="edge">
<title>Node1&#45;&gt;Node2</title>
<path fill="none" stroke="#191970" d="M90.2208,-35.5C98.4167,-35.5 107.0557,-35.5 115.6804,-35.5"/>
<polygon fill="#191970" stroke="#191970" points="90.1108,-32.0001 80.1107,-35.5 90.1107,-39.0001 90.1108,-32.0001"/>
</g>
<!-- Node3 -->
<g id="node3" class="node">
<title>Node3</title>
<g id="a_node3"><a xlink:href="classlocomotor_1_1core_1_1_d_b_h.html#a2b2232ca307c4877316e8b6097902f2c" target="_top" xlink:title="locomotor.core.DBH.addUniverse">
<polygon fill="#ffffff" stroke="#000000" points="299.6494,-47.5 299.6494,-65.5 464.0527,-65.5 464.0527,-47.5 299.6494,-47.5"/>
<text text-anchor="middle" x="381.8511" y="-53.5" font-family="Helvetica,sans-Serif" font-size="10.00" fill="#000000">locomotor.core.DBH.addUniverse</text>
</a>
</g>
</g>
<!-- Node2&#45;&gt;Node3 -->
<g id="edge2" class="edge">
<title>Node2&#45;&gt;Node3</title>
<path fill="none" stroke="#191970" d="M273.7586,-44.6814C282.3343,-45.6191 291.0404,-46.571 299.5974,-47.5066"/>
<polygon fill="#191970" stroke="#191970" points="274.0893,-41.1968 263.7681,-43.5891 273.3284,-48.1554 274.0893,-41.1968"/>
</g>
<!-- Node6 -->
<g id="node6" class="node">
<title>Node6</title>
<g id="a_node6"><a xlink:href="classlocomotor_1_1core_1_1_d_b_h.html#a0565ab8a7a56491fca163a1b0977c0db" target="_top" xlink:title="locomotor.core.DBH.update\lUniverse">
<polygon fill="#ffffff" stroke="#000000" points="312.4277,-.5 312.4277,-28.5 451.2744,-28.5 451.2744,-.5 312.4277,-.5"/>
<text text-anchor="start" x="320.4277" y="-16.5" font-family="Helvetica,sans-Serif" font-size="10.00" fill="#000000">locomotor.core.DBH.update</text>
<text text-anchor="middle" x="381.8511" y="-6.5" font-family="Helvetica,sans-Serif" font-size="10.00" fill="#000000">Universe</text>
</a>
</g>
</g>
<!-- Node2&#45;&gt;Node6 -->
<g id="edge5" class="edge">
<title>Node2&#45;&gt;Node6</title>
<path fill="none" stroke="#191970" d="M273.9627,-26.2962C286.7731,-24.8956 299.8692,-23.4637 312.3205,-22.1023"/>
<polygon fill="#191970" stroke="#191970" points="273.3284,-22.8446 263.7681,-27.4109 274.0893,-29.8032 273.3284,-22.8446"/>
</g>
<!-- Node4 -->
<g id="node4" class="node">
<title>Node4</title>
<g id="a_node4"><a xlink:href="classlocomotor_1_1components_1_1network_1_1_a_p_i.html#a547463fbc7fb7b485886f0917e2c0b78" target="_top" xlink:title="locomotor.components.network.\lAPI.createHooks">
<polygon fill="#ffffff" stroke="#000000" points="500.0527,-21.5 500.0527,-49.5 657.2393,-49.5 657.2393,-21.5 500.0527,-21.5"/>
<text text-anchor="start" x="508.0527" y="-37.5" font-family="Helvetica,sans-Serif" font-size="10.00" fill="#000000">locomotor.components.network.</text>
<text text-anchor="middle" x="578.646" y="-27.5" font-family="Helvetica,sans-Serif" font-size="10.00" fill="#000000">API.createHooks</text>
</a>
</g>
</g>
<!-- Node3&#45;&gt;Node4 -->
<g id="edge3" class="edge">
<title>Node3&#45;&gt;Node4</title>
<path fill="none" stroke="#191970" d="M474.1824,-46.6473C482.7493,-45.7331 491.3778,-44.8124 499.8067,-43.9129"/>
<polygon fill="#191970" stroke="#191970" points="473.7417,-43.1744 464.1696,-47.7158 474.4845,-50.1349 473.7417,-43.1744"/>
</g>
<!-- Node5 -->
<g id="node5" class="node">
<title>Node5</title>
<g id="a_node5"><a xlink:href="classlocomotor_1_1core_1_1_main.html#a8b260eecbaabcef8473fd87ada040682" target="_top" xlink:title="locomotor.core.Main.main">
<polygon fill="#ffffff" stroke="#000000" points="693.2393,-26.5 693.2393,-44.5 823.7363,-44.5 823.7363,-26.5 693.2393,-26.5"/>
<text text-anchor="middle" x="758.4878" y="-32.5" font-family="Helvetica,sans-Serif" font-size="10.00" fill="#000000">locomotor.core.Main.main</text>
</a>
</g>
</g>
<!-- Node4&#45;&gt;Node5 -->
<g id="edge4" class="edge">
<title>Node4&#45;&gt;Node5</title>
<path fill="none" stroke="#191970" d="M667.439,-35.5C676.1273,-35.5 684.8297,-35.5 693.2215,-35.5"/>
<polygon fill="#191970" stroke="#191970" points="667.2656,-32.0001 657.2656,-35.5 667.2656,-39.0001 667.2656,-32.0001"/>
</g>
<!-- Node6&#45;&gt;Node4 -->
<g id="edge6" class="edge">
<title>Node6&#45;&gt;Node4</title>
<path fill="none" stroke="#191970" d="M461.5722,-23.007C474.2542,-24.3603 487.3659,-25.7595 500.0223,-27.1101"/>
<polygon fill="#191970" stroke="#191970" points="461.8255,-19.5143 451.5105,-21.9334 461.0827,-26.4748 461.8255,-19.5143"/>
</g>
</g>
</svg>
