<?xml version="1.0" encoding="UTF-8" standalone="no"?>
<!DOCTYPE svg PUBLIC "-//W3C//DTD SVG 1.1//EN"
 "http://www.w3.org/Graphics/SVG/1.1/DTD/svg11.dtd">
<!-- Generated by graphviz version 2.40.1 (20161225.0304)
 -->
<!-- Title: failure Pages: 1 -->
<svg width="630pt" height="176pt"
 viewBox="0.00 0.00 629.69 176.00" xmlns="http://www.w3.org/2000/svg" xmlns:xlink="http://www.w3.org/1999/xlink">
<g id="graph0" class="graph" transform="scale(1 1) rotate(0) translate(4 172)">
<title>failure</title>
<polygon fill="#ffffff" stroke="transparent" points="-4,4 -4,-172 625.6924,-172 625.6924,4 -4,4"/>
<!-- Node1 -->
<g id="node1" class="node">
<title>Node1</title>
<polygon fill="#bfbfbf" stroke="#000000" points="0,-79.5 0,-97.5 43.2363,-97.5 43.2363,-79.5 0,-79.5"/>
<text text-anchor="middle" x="21.6182" y="-85.5" font-family="Helvetica,sans-Serif" font-size="10.00" fill="#000000">failure</text>
</g>
<!-- Node2 -->
<g id="node2" class="node">
<title>Node2</title>
<g id="a_node2"><a xlink:href="classlocomotor_1_1components_1_1network_1_1_a_p_i.html#a547463fbc7fb7b485886f0917e2c0b78" target="_top" xlink:title="locomotor.components.network.\lAPI.createHooks">
<polygon fill="#ffffff" stroke="#000000" points="298.0088,-139.5 298.0088,-167.5 455.1953,-167.5 455.1953,-139.5 298.0088,-139.5"/>
<text text-anchor="start" x="306.0088" y="-155.5" font-family="Helvetica,sans-Serif" font-size="10.00" fill="#000000">locomotor.components.network.</text>
<text text-anchor="middle" x="376.6021" y="-145.5" font-family="Helvetica,sans-Serif" font-size="10.00" fill="#000000">API.createHooks</text>
</a>
</g>
</g>
<!-- Node1&#45;&gt;Node2 -->
<g id="edge1" class="edge">
<title>Node1&#45;&gt;Node2</title>
<path fill="none" stroke="#191970" d="M37.2276,-104.9502C47.9779,-115.1179 63.1754,-127.3609 79.2363,-133.5 149.6804,-160.4265 236.3009,-163.1755 297.8442,-160.5491"/>
<polygon fill="#191970" stroke="#191970" points="39.4976,-102.2721 29.933,-97.7149 34.5681,-107.2421 39.4976,-102.2721"/>
</g>
<!-- Node4 -->
<g id="node4" class="node">
<title>Node4</title>
<g id="a_node4"><a xlink:href="classlocomotor_1_1components_1_1network_1_1_i_endpoint_handler.html#ab14119ba2d6d06adbe73a9805f5130c6" target="_top" xlink:title="locomotor.components.network.\lIEndpointHandler.handle">
<polygon fill="#ffffff" stroke="#000000" points="92.0293,-96.5 92.0293,-124.5 249.2158,-124.5 249.2158,-96.5 92.0293,-96.5"/>
<text text-anchor="start" x="100.0293" y="-112.5" font-family="Helvetica,sans-Serif" font-size="10.00" fill="#000000">locomotor.components.network.</text>
<text text-anchor="middle" x="170.6226" y="-102.5" font-family="Helvetica,sans-Serif" font-size="10.00" fill="#000000">IEndpointHandler.handle</text>
</a>
</g>
</g>
<!-- Node1&#45;&gt;Node4 -->
<g id="edge3" class="edge">
<title>Node1&#45;&gt;Node4</title>
<path fill="none" stroke="#191970" d="M53.5135,-93.2092C64.8806,-94.8875 78.241,-96.8602 91.793,-98.8611"/>
<polygon fill="#191970" stroke="#191970" points="53.6887,-89.6972 43.2847,-91.699 52.6662,-96.6222 53.6887,-89.6972"/>
</g>
<!-- Node5 -->
<g id="node5" class="node">
<title>Node5</title>
<g id="a_node5"><a xlink:href="classlocomotor_1_1components_1_1network_1_1_network_handler.html#a63d431845f1fd2adc1f96432f6003e25" target="_top" xlink:title="locomotor.components.network.\lNetworkHandler.init">
<polygon fill="#ffffff" stroke="#000000" points="298.0088,-92.5 298.0088,-120.5 455.1953,-120.5 455.1953,-92.5 298.0088,-92.5"/>
<text text-anchor="start" x="306.0088" y="-108.5" font-family="Helvetica,sans-Serif" font-size="10.00" fill="#000000">locomotor.components.network.</text>
<text text-anchor="middle" x="376.6021" y="-98.5" font-family="Helvetica,sans-Serif" font-size="10.00" fill="#000000">NetworkHandler.init</text>
</a>
</g>
</g>
<!-- Node1&#45;&gt;Node5 -->
<g id="edge7" class="edge">
<title>Node1&#45;&gt;Node5</title>
<path fill="none" stroke="#191970" d="M53.623,-87.1915C61.9598,-86.9048 70.9331,-86.6441 79.2363,-86.5 160.4563,-85.0908 181.0796,-79.4907 262.0088,-86.5 276.797,-87.7808 292.5397,-89.9748 307.4698,-92.452"/>
<polygon fill="#191970" stroke="#191970" points="53.3671,-83.6984 43.5017,-87.5617 53.623,-90.6938 53.3671,-83.6984"/>
</g>
<!-- Node6 -->
<g id="node6" class="node">
<title>Node6</title>
<g id="a_node6"><a xlink:href="classlocomotor_1_1components_1_1network_1_1_i_endpoint_handler.html#a754e26560b323ad92f51d07b4cd02d2a" target="_top" xlink:title="locomotor.components.network.\lIEndpointHandler.sendDefaultMissing\lParametersMessage">
<polygon fill="#ffffff" stroke="#000000" points="79.2363,-.5 79.2363,-38.5 262.0088,-38.5 262.0088,-.5 79.2363,-.5"/>
<text text-anchor="start" x="87.2363" y="-26.5" font-family="Helvetica,sans-Serif" font-size="10.00" fill="#000000">locomotor.components.network.</text>
<text text-anchor="start" x="87.2363" y="-16.5" font-family="Helvetica,sans-Serif" font-size="10.00" fill="#000000">IEndpointHandler.sendDefaultMissing</text>
<text text-anchor="middle" x="170.6226" y="-6.5" font-family="Helvetica,sans-Serif" font-size="10.00" fill="#000000">ParametersMessage</text>
</a>
</g>
</g>
<!-- Node1&#45;&gt;Node6 -->
<g id="edge6" class="edge">
<title>Node1&#45;&gt;Node6</title>
<path fill="none" stroke="#191970" d="M43.4993,-73.8587C54.038,-67.1612 67.0156,-59.4188 79.2363,-53.5 90.3581,-48.1135 102.568,-43.0342 114.3411,-38.5251"/>
<polygon fill="#191970" stroke="#191970" points="41.4334,-71.0268 34.9462,-79.4033 45.2412,-76.9006 41.4334,-71.0268"/>
</g>
<!-- Node3 -->
<g id="node3" class="node">
<title>Node3</title>
<g id="a_node3"><a xlink:href="classlocomotor_1_1core_1_1_main.html#a8b260eecbaabcef8473fd87ada040682" target="_top" xlink:title="locomotor.core.Main.main">
<polygon fill="#ffffff" stroke="#000000" points="491.1953,-120.5 491.1953,-138.5 621.6924,-138.5 621.6924,-120.5 491.1953,-120.5"/>
<text text-anchor="middle" x="556.4438" y="-126.5" font-family="Helvetica,sans-Serif" font-size="10.00" fill="#000000">locomotor.core.Main.main</text>
</a>
</g>
</g>
<!-- Node2&#45;&gt;Node3 -->
<g id="edge2" class="edge">
<title>Node2&#45;&gt;Node3</title>
<path fill="none" stroke="#191970" d="M465.3951,-141.6505C474.0834,-140.4911 482.7857,-139.3297 491.1776,-138.2098"/>
<polygon fill="#191970" stroke="#191970" points="464.6708,-138.2161 455.2217,-143.0082 465.5968,-145.1545 464.6708,-138.2161"/>
</g>
<!-- Node4&#45;&gt;Node5 -->
<g id="edge4" class="edge">
<title>Node4&#45;&gt;Node5</title>
<path fill="none" stroke="#191970" d="M259.5317,-108.7734C272.2924,-108.5256 285.3471,-108.2721 297.892,-108.0285"/>
<polygon fill="#191970" stroke="#191970" points="259.3064,-105.2771 249.3763,-108.9706 259.4424,-112.2757 259.3064,-105.2771"/>
</g>
<!-- Node5&#45;&gt;Node3 -->
<g id="edge5" class="edge">
<title>Node5&#45;&gt;Node3</title>
<path fill="none" stroke="#191970" d="M465.3951,-117.8558C474.0834,-118.9669 482.7857,-120.0798 491.1776,-121.1531"/>
<polygon fill="#191970" stroke="#191970" points="465.5849,-114.3516 455.2217,-116.5547 464.6968,-121.2951 465.5849,-114.3516"/>
</g>
</g>
</svg>
