<?xml version="1.0" encoding="UTF-8" standalone="no"?>
<!DOCTYPE svg PUBLIC "-//W3C//DTD SVG 1.1//EN"
 "http://www.w3.org/Graphics/SVG/1.1/DTD/svg11.dtd">
<!-- Generated by graphviz version 2.40.1 (20161225.0304)
 -->
<!-- Title: computeGradeOfItem Pages: 1 -->
<svg width="633pt" height="37pt"
 viewBox="0.00 0.00 632.99 37.00" xmlns="http://www.w3.org/2000/svg" xmlns:xlink="http://www.w3.org/1999/xlink">
<g id="graph0" class="graph" transform="scale(1 1) rotate(0) translate(4 33)">
<title>computeGradeOfItem</title>
<polygon fill="#ffffff" stroke="transparent" points="-4,4 -4,-33 628.9883,-33 628.9883,4 -4,4"/>
<!-- Node1 -->
<g id="node1" class="node">
<title>Node1</title>
<polygon fill="#bfbfbf" stroke="#000000" points="0,-5.5 0,-23.5 112.1523,-23.5 112.1523,-5.5 0,-5.5"/>
<text text-anchor="middle" x="56.0762" y="-11.5" font-family="Helvetica,sans-Serif" font-size="10.00" fill="#000000">computeGradeOfItem</text>
</g>
<!-- Node2 -->
<g id="node2" class="node">
<title>Node2</title>
<g id="a_node2"><a xlink:href="classlocomotor_1_1core_1_1_comparator.html#a092fb76ad264eeccd8f30eadb70e36e3" target="_top" xlink:title="computeGradeOfItems">
<polygon fill="#ffffff" stroke="#000000" points="148.1523,-5.5 148.1523,-23.5 265.3047,-23.5 265.3047,-5.5 148.1523,-5.5"/>
<text text-anchor="middle" x="206.7285" y="-11.5" font-family="Helvetica,sans-Serif" font-size="10.00" fill="#000000">computeGradeOfItems</text>
</a>
</g>
</g>
<!-- Node1&#45;&gt;Node2 -->
<g id="edge1" class="edge">
<title>Node1&#45;&gt;Node2</title>
<path fill="none" stroke="#191970" d="M122.1857,-14.5C130.802,-14.5 139.5817,-14.5 148.0645,-14.5"/>
<polygon fill="#191970" stroke="#191970" points="122.1736,-11.0001 112.1735,-14.5 122.1735,-18.0001 122.1736,-11.0001"/>
</g>
<!-- Node3 -->
<g id="node3" class="node">
<title>Node3</title>
<g id="a_node3"><a xlink:href="classlocomotor_1_1components_1_1network_1_1_a_p_i.html#a547463fbc7fb7b485886f0917e2c0b78" target="_top" xlink:title="locomotor.components.network.\lAPI.createHooks">
<polygon fill="#ffffff" stroke="#000000" points="301.3047,-.5 301.3047,-28.5 458.4912,-28.5 458.4912,-.5 301.3047,-.5"/>
<text text-anchor="start" x="309.3047" y="-16.5" font-family="Helvetica,sans-Serif" font-size="10.00" fill="#000000">locomotor.components.network.</text>
<text text-anchor="middle" x="379.8979" y="-6.5" font-family="Helvetica,sans-Serif" font-size="10.00" fill="#000000">API.createHooks</text>
</a>
</g>
</g>
<!-- Node2&#45;&gt;Node3 -->
<g id="edge2" class="edge">
<title>Node2&#45;&gt;Node3</title>
<path fill="none" stroke="#191970" d="M275.4727,-14.5C283.8807,-14.5 292.5234,-14.5 301.0646,-14.5"/>
<polygon fill="#191970" stroke="#191970" points="275.3558,-11.0001 265.3558,-14.5 275.3558,-18.0001 275.3558,-11.0001"/>
</g>
<!-- Node4 -->
<g id="node4" class="node">
<title>Node4</title>
<g id="a_node4"><a xlink:href="classlocomotor_1_1core_1_1_main.html#a8b260eecbaabcef8473fd87ada040682" target="_top" xlink:title="locomotor.core.Main.main">
<polygon fill="#ffffff" stroke="#000000" points="494.4912,-5.5 494.4912,-23.5 624.9883,-23.5 624.9883,-5.5 494.4912,-5.5"/>
<text text-anchor="middle" x="559.7397" y="-11.5" font-family="Helvetica,sans-Serif" font-size="10.00" fill="#000000">locomotor.core.Main.main</text>
</a>
</g>
</g>
<!-- Node3&#45;&gt;Node4 -->
<g id="edge3" class="edge">
<title>Node3&#45;&gt;Node4</title>
<path fill="none" stroke="#191970" d="M468.691,-14.5C477.3793,-14.5 486.0816,-14.5 494.4735,-14.5"/>
<polygon fill="#191970" stroke="#191970" points="468.5176,-11.0001 458.5176,-14.5 468.5175,-18.0001 468.5176,-11.0001"/>
</g>
</g>
</svg>
