<?xml version="1.0" encoding="UTF-8" standalone="no"?>
<!DOCTYPE svg PUBLIC "-//W3C//DTD SVG 1.1//EN"
 "http://www.w3.org/Graphics/SVG/1.1/DTD/svg11.dtd">
<!-- Generated by graphviz version 2.40.1 (20161225.0304)
 -->
<!-- Title: ItemCriteria Pages: 1 -->
<svg width="92pt" height="137pt"
 viewBox="0.00 0.00 91.79 137.00" xmlns="http://www.w3.org/2000/svg" xmlns:xlink="http://www.w3.org/1999/xlink">
<g id="graph0" class="graph" transform="scale(1 1) rotate(0) translate(4 133)">
<title>ItemCriteria</title>
<polygon fill="#ffffff" stroke="transparent" points="-4,4 -4,-133 87.7881,-133 87.7881,4 -4,4"/>
<!-- Node1 -->
<g id="node1" class="node">
<title>Node1</title>
<polygon fill="#bfbfbf" stroke="#000000" points="8.0566,-55.5 8.0566,-73.5 75.7314,-73.5 75.7314,-55.5 8.0566,-55.5"/>
<text text-anchor="middle" x="41.894" y="-61.5" font-family="Helvetica,sans-Serif" font-size="10.00" fill="#000000">ItemCriteria</text>
</g>
<!-- Node3 -->
<g id="node3" class="node">
<title>Node3</title>
<g id="a_node3"><a xlink:href="classlocomotor_1_1components_1_1models_1_1_item_criteria_full.html" target="_top" xlink:title="ItemCriteriaFull">
<polygon fill="#ffffff" stroke="#000000" points="0,-.5 0,-18.5 83.7881,-18.5 83.7881,-.5 0,-.5"/>
<text text-anchor="middle" x="41.894" y="-6.5" font-family="Helvetica,sans-Serif" font-size="10.00" fill="#000000">ItemCriteriaFull</text>
</a>
</g>
</g>
<!-- Node1&#45;&gt;Node3 -->
<g id="edge2" class="edge">
<title>Node1&#45;&gt;Node3</title>
<path fill="none" stroke="#191970" d="M41.894,-45.383C41.894,-36.3738 41.894,-26.0373 41.894,-18.7795"/>
<polygon fill="#191970" stroke="#191970" points="38.3941,-45.4178 41.894,-55.4179 45.3941,-45.4179 38.3941,-45.4178"/>
</g>
<!-- Node2 -->
<g id="node2" class="node">
<title>Node2</title>
<g id="a_node2"><a xlink:href="classlocomotor_1_1components_1_1models_1_1_criteria.html" target="_top" xlink:title="Criteria">
<polygon fill="#ffffff" stroke="#000000" points="17.7808,-110.5 17.7808,-128.5 66.0073,-128.5 66.0073,-110.5 17.7808,-110.5"/>
<text text-anchor="middle" x="41.894" y="-116.5" font-family="Helvetica,sans-Serif" font-size="10.00" fill="#000000">Criteria</text>
</a>
</g>
</g>
<!-- Node2&#45;&gt;Node1 -->
<g id="edge1" class="edge">
<title>Node2&#45;&gt;Node1</title>
<path fill="none" stroke="#191970" d="M41.894,-100.383C41.894,-91.3738 41.894,-81.0373 41.894,-73.7795"/>
<polygon fill="#191970" stroke="#191970" points="38.3941,-100.4178 41.894,-110.4179 45.3941,-100.4179 38.3941,-100.4178"/>
</g>
</g>
</svg>
