<?xml version="1.0" encoding="UTF-8" standalone="no"?>
<!DOCTYPE svg PUBLIC "-//W3C//DTD SVG 1.1//EN"
 "http://www.w3.org/Graphics/SVG/1.1/DTD/svg11.dtd">
<!-- Generated by graphviz version 2.40.1 (20161225.0304)
 -->
<!-- Title: fromJSON Pages: 1 -->
<svg width="858pt" height="642pt"
 viewBox="0.00 0.00 858.46 642.00" xmlns="http://www.w3.org/2000/svg" xmlns:xlink="http://www.w3.org/1999/xlink">
<g id="graph0" class="graph" transform="scale(1 1) rotate(0) translate(4 638)">
<title>fromJSON</title>
<polygon fill="#ffffff" stroke="transparent" points="-4,4 -4,-638 854.4551,-638 854.4551,4 -4,4"/>
<!-- Node1 -->
<g id="node1" class="node">
<title>Node1</title>
<polygon fill="#bfbfbf" stroke="#000000" points="0,-112.5 0,-130.5 62.6699,-130.5 62.6699,-112.5 0,-112.5"/>
<text text-anchor="middle" x="31.335" y="-118.5" font-family="Helvetica,sans-Serif" font-size="10.00" fill="#000000">fromJSON</text>
</g>
<!-- Node2 -->
<g id="node2" class="node">
<title>Node2</title>
<g id="a_node2"><a xlink:href="classlocomotor_1_1components_1_1types_1_1_type_factory.html#a8827604831ff8a1764b7639c82820497" target="_top" xlink:title="locomotor.components.types.\lTypeFactory.getItemFromJson">
<polygon fill="#ffffff" stroke="#000000" points="100.4473,-237.5 100.4473,-265.5 251.3154,-265.5 251.3154,-237.5 100.4473,-237.5"/>
<text text-anchor="start" x="108.4473" y="-253.5" font-family="Helvetica,sans-Serif" font-size="10.00" fill="#000000">locomotor.components.types.</text>
<text text-anchor="middle" x="175.8813" y="-243.5" font-family="Helvetica,sans-Serif" font-size="10.00" fill="#000000">TypeFactory.getItemFromJson</text>
</a>
</g>
</g>
<!-- Node1&#45;&gt;Node2 -->
<g id="edge1" class="edge">
<title>Node1&#45;&gt;Node2</title>
<path fill="none" stroke="#191970" d="M35.6612,-130.5535C44.8736,-148.9917 68.1082,-191.2817 98.6699,-216.5 106.5028,-222.9633 115.7224,-228.4852 125.0122,-233.1035"/>
<polygon fill="#191970" stroke="#191970" points="123.7343,-236.3694 134.2767,-237.4221 126.6918,-230.0248 123.7343,-236.3694"/>
</g>
<!-- Node26 -->
<g id="node26" class="node">
<title>Node26</title>
<g id="a_node26"><a xlink:href="classlocomotor_1_1components_1_1models_1_1_criteria_model.html#a19fc0aeef83333878b7af08e6eb7dbea" target="_top" xlink:title="locomotor.components.models.\lCriteriaModel.getItemType">
<polygon fill="#ffffff" stroke="#000000" points="98.6772,-178.5 98.6772,-206.5 253.0854,-206.5 253.0854,-178.5 98.6772,-178.5"/>
<text text-anchor="start" x="106.6772" y="-194.5" font-family="Helvetica,sans-Serif" font-size="10.00" fill="#000000">locomotor.components.models.</text>
<text text-anchor="middle" x="175.8813" y="-184.5" font-family="Helvetica,sans-Serif" font-size="10.00" fill="#000000">CriteriaModel.getItemType</text>
</a>
</g>
</g>
<!-- Node1&#45;&gt;Node26 -->
<g id="edge31" class="edge">
<title>Node1&#45;&gt;Node26</title>
<path fill="none" stroke="#191970" d="M42.1095,-130.609C54.8832,-141.0171 77.1601,-157.9666 98.6699,-168.5 103.3562,-170.7949 108.3094,-172.9293 113.3533,-174.9015"/>
<polygon fill="#191970" stroke="#191970" points="112.5249,-178.326 123.1184,-178.4938 114.9417,-171.7564 112.5249,-178.326"/>
</g>
<!-- Node27 -->
<g id="node27" class="node">
<title>Node27</title>
<g id="a_node27"><a xlink:href="classlocomotor_1_1components_1_1models_1_1_criteria_model.html#afe6cac49dd51cda8f8dfedab30c83009" target="_top" xlink:title="locomotor.components.models.\lCriteriaModel.getUniverse">
<polygon fill="#ffffff" stroke="#000000" points="98.6772,-131.5 98.6772,-159.5 253.0854,-159.5 253.0854,-131.5 98.6772,-131.5"/>
<text text-anchor="start" x="106.6772" y="-147.5" font-family="Helvetica,sans-Serif" font-size="10.00" fill="#000000">locomotor.components.models.</text>
<text text-anchor="middle" x="175.8813" y="-137.5" font-family="Helvetica,sans-Serif" font-size="10.00" fill="#000000">CriteriaModel.getUniverse</text>
</a>
</g>
</g>
<!-- Node1&#45;&gt;Node27 -->
<g id="edge32" class="edge">
<title>Node1&#45;&gt;Node27</title>
<path fill="none" stroke="#191970" d="M62.6994,-126.7076C70.5653,-128.0137 79.3953,-129.4798 88.5632,-131.002"/>
<polygon fill="#191970" stroke="#191970" points="88.1761,-134.4856 98.6143,-132.6708 89.3227,-127.5801 88.1761,-134.4856"/>
</g>
<!-- Node28 -->
<g id="node28" class="node">
<title>Node28</title>
<g id="a_node28"><a xlink:href="classlocomotor_1_1components_1_1logging_1_1_error_handler.html#a75e8f6535bdb8db9a7d570e1b839af47" target="_top" xlink:title="locomotor.components.logging.\lErrorHandler.getInstance">
<polygon fill="#ffffff" stroke="#000000" points="98.6699,-84.5 98.6699,-112.5 253.0928,-112.5 253.0928,-84.5 98.6699,-84.5"/>
<text text-anchor="start" x="106.6699" y="-100.5" font-family="Helvetica,sans-Serif" font-size="10.00" fill="#000000">locomotor.components.logging.</text>
<text text-anchor="middle" x="175.8813" y="-90.5" font-family="Helvetica,sans-Serif" font-size="10.00" fill="#000000">ErrorHandler.getInstance</text>
</a>
</g>
</g>
<!-- Node1&#45;&gt;Node28 -->
<g id="edge33" class="edge">
<title>Node1&#45;&gt;Node28</title>
<path fill="none" stroke="#191970" d="M62.6994,-116.5093C70.5653,-115.2577 79.3953,-113.8527 88.5632,-112.3939"/>
<polygon fill="#191970" stroke="#191970" points="89.2886,-115.8226 98.6143,-110.7946 88.1886,-108.9096 89.2886,-115.8226"/>
</g>
<!-- Node29 -->
<g id="node29" class="node">
<title>Node29</title>
<g id="a_node29"><a xlink:href="classlocomotor_1_1components_1_1logging_1_1_error_handler.html#abd00a9c37627740763cef91d76a77437" target="_top" xlink:title="locomotor.components.logging.\lErrorHandler.push">
<polygon fill="#ffffff" stroke="#000000" points="98.6699,-37.5 98.6699,-65.5 253.0928,-65.5 253.0928,-37.5 98.6699,-37.5"/>
<text text-anchor="start" x="106.6699" y="-53.5" font-family="Helvetica,sans-Serif" font-size="10.00" fill="#000000">locomotor.components.logging.</text>
<text text-anchor="middle" x="175.8813" y="-43.5" font-family="Helvetica,sans-Serif" font-size="10.00" fill="#000000">ErrorHandler.push</text>
</a>
</g>
</g>
<!-- Node1&#45;&gt;Node29 -->
<g id="edge34" class="edge">
<title>Node1&#45;&gt;Node29</title>
<path fill="none" stroke="#191970" d="M42.0875,-112.3458C54.8405,-101.8951 77.0981,-84.9057 98.6699,-74.5 102.6756,-72.5677 106.8774,-70.7607 111.1648,-69.0775"/>
<polygon fill="#191970" stroke="#191970" points="112.4678,-72.3275 120.6444,-65.59 110.0509,-65.758 112.4678,-72.3275"/>
</g>
<!-- Node31 -->
<g id="node31" class="node">
<title>Node31</title>
<g id="a_node31"><a xlink:href="classlocomotor_1_1components_1_1models_1_1_item_criteria_full.html#a990d1940951b04ada03eba936462a0b2" target="_top" xlink:title="ItemCriteriaFull">
<polygon fill="#ffffff" stroke="#000000" points="133.9873,-.5 133.9873,-18.5 217.7754,-18.5 217.7754,-.5 133.9873,-.5"/>
<text text-anchor="middle" x="175.8813" y="-6.5" font-family="Helvetica,sans-Serif" font-size="10.00" fill="#000000">ItemCriteriaFull</text>
</a>
</g>
</g>
<!-- Node1&#45;&gt;Node31 -->
<g id="edge36" class="edge">
<title>Node1&#45;&gt;Node31</title>
<path fill="none" stroke="#191970" d="M35.1767,-112.3241C43.6398,-93.293 65.7896,-49.4731 98.6699,-27.5 106.3177,-22.3892 115.2343,-18.72 124.236,-16.0882"/>
<polygon fill="#191970" stroke="#191970" points="125.1465,-19.4682 133.9813,-13.6204 123.4281,-12.6824 125.1465,-19.4682"/>
</g>
<!-- Node3 -->
<g id="node3" class="node">
<title>Node3</title>
<g id="a_node3"><a xlink:href="classlocomotor_1_1components_1_1types_1_1_c_integer.html#acc13169c043f180e6472a29d19ff5124" target="_top" xlink:title="locomotor.components.types.\lCInteger.fromJSON">
<polygon fill="#ffffff" stroke="#000000" points="293.2676,-190.5 293.2676,-218.5 439.3408,-218.5 439.3408,-190.5 293.2676,-190.5"/>
<text text-anchor="start" x="301.2676" y="-206.5" font-family="Helvetica,sans-Serif" font-size="10.00" fill="#000000">locomotor.components.types.</text>
<text text-anchor="middle" x="366.3042" y="-196.5" font-family="Helvetica,sans-Serif" font-size="10.00" fill="#000000">CInteger.fromJSON</text>
</a>
</g>
</g>
<!-- Node2&#45;&gt;Node3 -->
<g id="edge2" class="edge">
<title>Node2&#45;&gt;Node3</title>
<path fill="none" stroke="#191970" d="M232.7565,-237.4621C253.7597,-232.2781 277.7508,-226.3567 299.5502,-220.9762"/>
<polygon fill="#191970" stroke="#191970" points="300.5233,-224.3411 309.3932,-218.5467 298.8459,-217.545 300.5233,-224.3411"/>
</g>
<!-- Node6 -->
<g id="node6" class="node">
<title>Node6</title>
<g id="a_node6"><a xlink:href="classlocomotor_1_1components_1_1types_1_1_c_weighted_integer.html#af46cf72d2c75b781f89dcce0e0e5ef95" target="_top" xlink:title="locomotor.components.types.\lCWeightedInteger.fromJSON">
<polygon fill="#ffffff" stroke="#000000" points="293.2676,-237.5 293.2676,-265.5 439.3408,-265.5 439.3408,-237.5 293.2676,-237.5"/>
<text text-anchor="start" x="301.2676" y="-253.5" font-family="Helvetica,sans-Serif" font-size="10.00" fill="#000000">locomotor.components.types.</text>
<text text-anchor="middle" x="366.3042" y="-243.5" font-family="Helvetica,sans-Serif" font-size="10.00" fill="#000000">CWeightedInteger.fromJSON</text>
</a>
</g>
</g>
<!-- Node2&#45;&gt;Node6 -->
<g id="edge5" class="edge">
<title>Node2&#45;&gt;Node6</title>
<path fill="none" stroke="#191970" d="M251.415,-251.5C261.802,-251.5 272.5157,-251.5 283.0321,-251.5"/>
<polygon fill="#191970" stroke="#191970" points="283.0371,-255.0001 293.0371,-251.5 283.0371,-248.0001 283.0371,-255.0001"/>
</g>
<!-- Node8 -->
<g id="node8" class="node">
<title>Node8</title>
<g id="a_node8"><a xlink:href="classlocomotor_1_1components_1_1types_1_1_c_float.html#a06da3e8fd1fdad2882c5878589963311" target="_top" xlink:title="locomotor.components.types.\lCFloat.fromJSON">
<polygon fill="#ffffff" stroke="#000000" points="293.2676,-120.5 293.2676,-148.5 439.3408,-148.5 439.3408,-120.5 293.2676,-120.5"/>
<text text-anchor="start" x="301.2676" y="-136.5" font-family="Helvetica,sans-Serif" font-size="10.00" fill="#000000">locomotor.components.types.</text>
<text text-anchor="middle" x="366.3042" y="-126.5" font-family="Helvetica,sans-Serif" font-size="10.00" fill="#000000">CFloat.fromJSON</text>
</a>
</g>
</g>
<!-- Node2&#45;&gt;Node8 -->
<g id="edge8" class="edge">
<title>Node2&#45;&gt;Node8</title>
<path fill="none" stroke="#191970" d="M213.7992,-237.4165C226.78,-231.8026 241.0545,-224.7085 253.0928,-216.5 271.5299,-203.9283 271.451,-195.1653 289.0928,-181.5 302.0962,-171.4276 317.3946,-161.7244 330.929,-153.7766"/>
<polygon fill="#191970" stroke="#191970" points="333.0481,-156.5952 339.9672,-148.5717 329.5548,-150.5291 333.0481,-156.5952"/>
</g>
<!-- Node11 -->
<g id="node11" class="node">
<title>Node11</title>
<g id="a_node11"><a xlink:href="classlocomotor_1_1components_1_1types_1_1_c_boolean.html#a1bdea5ac8c77993c2f48a0a99a0ce032" target="_top" xlink:title="locomotor.components.types.\lCBoolean.fromJSON">
<polygon fill="#ffffff" stroke="#000000" points="293.2676,-73.5 293.2676,-101.5 439.3408,-101.5 439.3408,-73.5 293.2676,-73.5"/>
<text text-anchor="start" x="301.2676" y="-89.5" font-family="Helvetica,sans-Serif" font-size="10.00" fill="#000000">locomotor.components.types.</text>
<text text-anchor="middle" x="366.3042" y="-79.5" font-family="Helvetica,sans-Serif" font-size="10.00" fill="#000000">CBoolean.fromJSON</text>
</a>
</g>
</g>
<!-- Node2&#45;&gt;Node11 -->
<g id="edge12" class="edge">
<title>Node2&#45;&gt;Node11</title>
<path fill="none" stroke="#191970" d="M223.1696,-237.3658C234.1537,-232.2469 244.9882,-225.4423 253.0928,-216.5 286.5051,-179.6344 253.2513,-145.0086 289.0928,-110.5 290.2263,-109.4086 291.4093,-108.3688 292.6353,-107.378"/>
<polygon fill="#191970" stroke="#191970" points="294.9614,-110.0299 301.2805,-101.5258 291.0374,-104.2331 294.9614,-110.0299"/>
</g>
<!-- Node14 -->
<g id="node14" class="node">
<title>Node14</title>
<g id="a_node14"><a xlink:href="classlocomotor_1_1components_1_1types_1_1_c_interval_integer.html#a7325219bbe286c1651eac4d7cb1dcf89" target="_top" xlink:title="locomotor.components.types.\lCIntervalInteger.fromJSON">
<polygon fill="#ffffff" stroke="#000000" points="293.2676,-355.5 293.2676,-383.5 439.3408,-383.5 439.3408,-355.5 293.2676,-355.5"/>
<text text-anchor="start" x="301.2676" y="-371.5" font-family="Helvetica,sans-Serif" font-size="10.00" fill="#000000">locomotor.components.types.</text>
<text text-anchor="middle" x="366.3042" y="-361.5" font-family="Helvetica,sans-Serif" font-size="10.00" fill="#000000">CIntervalInteger.fromJSON</text>
</a>
</g>
</g>
<!-- Node2&#45;&gt;Node14 -->
<g id="edge15" class="edge">
<title>Node2&#45;&gt;Node14</title>
<path fill="none" stroke="#191970" d="M192.7613,-265.6101C214.2401,-283.147 252.9065,-313.3411 289.0928,-334.5 299.4107,-340.5331 310.9525,-346.2607 321.9033,-351.2694"/>
<polygon fill="#191970" stroke="#191970" points="320.7707,-354.5967 331.329,-355.4756 323.6233,-348.2042 320.7707,-354.5967"/>
</g>
<!-- Node18 -->
<g id="node18" class="node">
<title>Node18</title>
<g id="a_node18"><a xlink:href="classlocomotor_1_1components_1_1types_1_1_c_interval_double.html#a05b10f1076a88b090171dc5c92d1e51a" target="_top" xlink:title="locomotor.components.types.\lCIntervalDouble.fromJSON">
<polygon fill="#ffffff" stroke="#000000" points="293.2676,-296.5 293.2676,-324.5 439.3408,-324.5 439.3408,-296.5 293.2676,-296.5"/>
<text text-anchor="start" x="301.2676" y="-312.5" font-family="Helvetica,sans-Serif" font-size="10.00" fill="#000000">locomotor.components.types.</text>
<text text-anchor="middle" x="366.3042" y="-302.5" font-family="Helvetica,sans-Serif" font-size="10.00" fill="#000000">CIntervalDouble.fromJSON</text>
</a>
</g>
</g>
<!-- Node2&#45;&gt;Node18 -->
<g id="edge19" class="edge">
<title>Node2&#45;&gt;Node18</title>
<path fill="none" stroke="#191970" d="M221.4924,-265.632C248.4607,-273.9877 282.7949,-284.6257 311.2624,-293.446"/>
<polygon fill="#191970" stroke="#191970" points="310.4775,-296.8669 321.0654,-296.4833 312.5492,-290.1805 310.4775,-296.8669"/>
</g>
<!-- Node20 -->
<g id="node20" class="node">
<title>Node20</title>
<g id="a_node20"><a xlink:href="classlocomotor_1_1components_1_1types_1_1_c_mapped_string_list.html#a3834a44c64a57457335f1f296b272c79" target="_top" xlink:title="locomotor.components.types.\lCMappedStringList.fromJSON">
<polygon fill="#ffffff" stroke="#000000" points="291.0581,-558.5 291.0581,-586.5 441.5503,-586.5 441.5503,-558.5 291.0581,-558.5"/>
<text text-anchor="start" x="299.0581" y="-574.5" font-family="Helvetica,sans-Serif" font-size="10.00" fill="#000000">locomotor.components.types.</text>
<text text-anchor="middle" x="366.3042" y="-564.5" font-family="Helvetica,sans-Serif" font-size="10.00" fill="#000000">CMappedStringList.fromJSON</text>
</a>
</g>
</g>
<!-- Node2&#45;&gt;Node20 -->
<g id="edge23" class="edge">
<title>Node2&#45;&gt;Node20</title>
<path fill="none" stroke="#191970" d="M178.5262,-265.5727C187.2549,-308.7732 218.6972,-441.5738 289.0928,-524.5 299.0521,-536.2321 312.6251,-545.9903 325.6144,-553.5762"/>
<polygon fill="#191970" stroke="#191970" points="324.0188,-556.6935 334.4622,-558.4786 327.4115,-550.5705 324.0188,-556.6935"/>
</g>
<!-- Node23 -->
<g id="node23" class="node">
<title>Node23</title>
<g id="a_node23"><a xlink:href="classlocomotor_1_1components_1_1types_1_1_c_tree.html#a82724a3000f4e1d5ff5fed5365e1480f" target="_top" xlink:title="locomotor.components.types.\lCTree.fromJSON">
<polygon fill="#ffffff" stroke="#000000" points="293.2676,-468.5 293.2676,-496.5 439.3408,-496.5 439.3408,-468.5 293.2676,-468.5"/>
<text text-anchor="start" x="301.2676" y="-484.5" font-family="Helvetica,sans-Serif" font-size="10.00" fill="#000000">locomotor.components.types.</text>
<text text-anchor="middle" x="366.3042" y="-474.5" font-family="Helvetica,sans-Serif" font-size="10.00" fill="#000000">CTree.fromJSON</text>
</a>
</g>
</g>
<!-- Node2&#45;&gt;Node23 -->
<g id="edge26" class="edge">
<title>Node2&#45;&gt;Node23</title>
<path fill="none" stroke="#191970" d="M186.9372,-265.765C206.9784,-291.5333 250.7844,-347.445 289.0928,-393.5 308.4906,-416.8204 331.3231,-442.9866 347.1024,-460.8769"/>
<polygon fill="#191970" stroke="#191970" points="344.573,-463.3001 353.8184,-468.4744 349.8177,-458.6639 344.573,-463.3001"/>
</g>
<!-- Node4 -->
<g id="node4" class="node">
<title>Node4</title>
<g id="a_node4"><a xlink:href="classlocomotor_1_1components_1_1types_1_1_c_long.html#aef23d6d36c93f0f66355edabbc586fd4" target="_top" xlink:title="locomotor.components.types.\lCLong.value">
<polygon fill="#ffffff" stroke="#000000" points="500.9121,-190.5 500.9121,-218.5 646.9854,-218.5 646.9854,-190.5 500.9121,-190.5"/>
<text text-anchor="start" x="508.9121" y="-206.5" font-family="Helvetica,sans-Serif" font-size="10.00" fill="#000000">locomotor.components.types.</text>
<text text-anchor="middle" x="573.9487" y="-196.5" font-family="Helvetica,sans-Serif" font-size="10.00" fill="#000000">CLong.value</text>
</a>
</g>
</g>
<!-- Node3&#45;&gt;Node4 -->
<g id="edge3" class="edge">
<title>Node3&#45;&gt;Node4</title>
<path fill="none" stroke="#191970" d="M439.5119,-204.5C455.9498,-204.5 473.5121,-204.5 490.3377,-204.5"/>
<polygon fill="#191970" stroke="#191970" points="490.7023,-208.0001 500.7022,-204.5 490.7022,-201.0001 490.7023,-208.0001"/>
</g>
<!-- Node5 -->
<g id="node5" class="node">
<title>Node5</title>
<g id="a_node5"><a xlink:href="classlocomotor_1_1components_1_1types_1_1_c_integer.html#a4af1398e767f4254cc4865f7b8fd9e3e" target="_top" xlink:title="locomotor.components.types.\lCInteger.CInteger">
<polygon fill="#ffffff" stroke="#000000" points="500.9121,-143.5 500.9121,-171.5 646.9854,-171.5 646.9854,-143.5 500.9121,-143.5"/>
<text text-anchor="start" x="508.9121" y="-159.5" font-family="Helvetica,sans-Serif" font-size="10.00" fill="#000000">locomotor.components.types.</text>
<text text-anchor="middle" x="573.9487" y="-149.5" font-family="Helvetica,sans-Serif" font-size="10.00" fill="#000000">CInteger.CInteger</text>
</a>
</g>
</g>
<!-- Node3&#45;&gt;Node5 -->
<g id="edge4" class="edge">
<title>Node3&#45;&gt;Node5</title>
<path fill="none" stroke="#191970" d="M428.3231,-190.4621C451.5353,-185.2081 478.0943,-179.1965 502.1199,-173.7583"/>
<polygon fill="#191970" stroke="#191970" points="502.9102,-177.1681 511.8908,-171.5467 501.3648,-170.3408 502.9102,-177.1681"/>
</g>
<!-- Node6&#45;&gt;Node4 -->
<g id="edge6" class="edge">
<title>Node6&#45;&gt;Node4</title>
<path fill="none" stroke="#191970" d="M428.3231,-237.4621C451.5353,-232.2081 478.0943,-226.1965 502.1199,-220.7583"/>
<polygon fill="#191970" stroke="#191970" points="502.9102,-224.1681 511.8908,-218.5467 501.3648,-217.3408 502.9102,-224.1681"/>
</g>
<!-- Node7 -->
<g id="node7" class="node">
<title>Node7</title>
<g id="a_node7"><a xlink:href="classlocomotor_1_1components_1_1types_1_1_c_weighted_integer.html#ab843196350aff5010fe82cdfc6d1a432" target="_top" xlink:title="locomotor.components.types.\lCWeightedInteger.CWeightedInteger">
<polygon fill="#ffffff" stroke="#000000" points="484.4082,-237.5 484.4082,-265.5 663.4893,-265.5 663.4893,-237.5 484.4082,-237.5"/>
<text text-anchor="start" x="492.4082" y="-253.5" font-family="Helvetica,sans-Serif" font-size="10.00" fill="#000000">locomotor.components.types.</text>
<text text-anchor="middle" x="573.9487" y="-243.5" font-family="Helvetica,sans-Serif" font-size="10.00" fill="#000000">CWeightedInteger.CWeightedInteger</text>
</a>
</g>
</g>
<!-- Node6&#45;&gt;Node7 -->
<g id="edge7" class="edge">
<title>Node6&#45;&gt;Node7</title>
<path fill="none" stroke="#191970" d="M439.5119,-251.5C450.7101,-251.5 462.4301,-251.5 474.0836,-251.5"/>
<polygon fill="#191970" stroke="#191970" points="474.2926,-255.0001 484.2926,-251.5 474.2926,-248.0001 474.2926,-255.0001"/>
</g>
<!-- Node9 -->
<g id="node9" class="node">
<title>Node9</title>
<g id="a_node9"><a xlink:href="classlocomotor_1_1components_1_1types_1_1_c_float.html#a0d891fca54de58865525ca2d63c39b65" target="_top" xlink:title="locomotor.components.types.\lCFloat.value">
<polygon fill="#ffffff" stroke="#000000" points="704.3818,-77.5 704.3818,-105.5 850.4551,-105.5 850.4551,-77.5 704.3818,-77.5"/>
<text text-anchor="start" x="712.3818" y="-93.5" font-family="Helvetica,sans-Serif" font-size="10.00" fill="#000000">locomotor.components.types.</text>
<text text-anchor="middle" x="777.4185" y="-83.5" font-family="Helvetica,sans-Serif" font-size="10.00" fill="#000000">CFloat.value</text>
</a>
</g>
</g>
<!-- Node8&#45;&gt;Node9 -->
<g id="edge9" class="edge">
<title>Node8&#45;&gt;Node9</title>
<path fill="none" stroke="#191970" d="M418.5869,-120.4914C427.0789,-117.582 435.6589,-114.2439 443.5156,-110.5 460.8751,-102.2279 461.1111,-92.0724 479.5156,-86.5 549.7429,-65.2369 633.611,-69.0733 694.4401,-76.722"/>
<polygon fill="#191970" stroke="#191970" points="694.0072,-80.1951 704.3786,-78.0312 694.9214,-73.2551 694.0072,-80.1951"/>
</g>
<!-- Node10 -->
<g id="node10" class="node">
<title>Node10</title>
<g id="a_node10"><a xlink:href="classlocomotor_1_1components_1_1types_1_1_c_float.html#aef395a3a5c07d801027ac513d66e27bc" target="_top" xlink:title="locomotor.components.types.\lCFloat.CFloat">
<polygon fill="#ffffff" stroke="#000000" points="500.9121,-96.5 500.9121,-124.5 646.9854,-124.5 646.9854,-96.5 500.9121,-96.5"/>
<text text-anchor="start" x="508.9121" y="-112.5" font-family="Helvetica,sans-Serif" font-size="10.00" fill="#000000">locomotor.components.types.</text>
<text text-anchor="middle" x="573.9487" y="-102.5" font-family="Helvetica,sans-Serif" font-size="10.00" fill="#000000">CFloat.CFloat</text>
</a>
</g>
</g>
<!-- Node8&#45;&gt;Node10 -->
<g id="edge10" class="edge">
<title>Node8&#45;&gt;Node10</title>
<path fill="none" stroke="#191970" d="M439.5119,-126.0385C455.9498,-124.1386 473.5121,-122.1087 490.3377,-120.1639"/>
<polygon fill="#191970" stroke="#191970" points="491.1703,-123.5911 500.7022,-118.966 490.3665,-116.6374 491.1703,-123.5911"/>
</g>
<!-- Node10&#45;&gt;Node9 -->
<g id="edge11" class="edge">
<title>Node10&#45;&gt;Node9</title>
<path fill="none" stroke="#191970" d="M647.1185,-103.6674C662.3524,-102.2449 678.5161,-100.7355 694.0851,-99.2817"/>
<polygon fill="#191970" stroke="#191970" points="694.5832,-102.7505 704.2144,-98.3358 693.9323,-95.7808 694.5832,-102.7505"/>
</g>
<!-- Node12 -->
<g id="node12" class="node">
<title>Node12</title>
<g id="a_node12"><a xlink:href="classlocomotor_1_1components_1_1types_1_1_c_boolean.html#a04219e3dc4a138fa88ee6876fb62eebc" target="_top" xlink:title="locomotor.components.types.\lCBoolean.CBoolean">
<polygon fill="#ffffff" stroke="#000000" points="500.9121,-10.5 500.9121,-38.5 646.9854,-38.5 646.9854,-10.5 500.9121,-10.5"/>
<text text-anchor="start" x="508.9121" y="-26.5" font-family="Helvetica,sans-Serif" font-size="10.00" fill="#000000">locomotor.components.types.</text>
<text text-anchor="middle" x="573.9487" y="-16.5" font-family="Helvetica,sans-Serif" font-size="10.00" fill="#000000">CBoolean.CBoolean</text>
</a>
</g>
</g>
<!-- Node11&#45;&gt;Node12 -->
<g id="edge13" class="edge">
<title>Node11&#45;&gt;Node12</title>
<path fill="none" stroke="#191970" d="M412.6452,-73.44C443.7333,-64.0078 484.8621,-51.5292 517.8077,-41.5334"/>
<polygon fill="#191970" stroke="#191970" points="519.1963,-44.7697 527.7493,-38.517 517.1639,-38.0712 519.1963,-44.7697"/>
</g>
<!-- Node13 -->
<g id="node13" class="node">
<title>Node13</title>
<g id="a_node13"><a xlink:href="classlocomotor_1_1components_1_1types_1_1_c_boolean.html#a9eac04fa64318139aa527377b2e03cc4" target="_top" xlink:title="locomotor.components.types.\lCBoolean.value">
<polygon fill="#ffffff" stroke="#000000" points="704.3818,-10.5 704.3818,-38.5 850.4551,-38.5 850.4551,-10.5 704.3818,-10.5"/>
<text text-anchor="start" x="712.3818" y="-26.5" font-family="Helvetica,sans-Serif" font-size="10.00" fill="#000000">locomotor.components.types.</text>
<text text-anchor="middle" x="777.4185" y="-16.5" font-family="Helvetica,sans-Serif" font-size="10.00" fill="#000000">CBoolean.value</text>
</a>
</g>
</g>
<!-- Node12&#45;&gt;Node13 -->
<g id="edge14" class="edge">
<title>Node12&#45;&gt;Node13</title>
<path fill="none" stroke="#191970" d="M647.1185,-24.5C662.3524,-24.5 678.5161,-24.5 694.0851,-24.5"/>
<polygon fill="#191970" stroke="#191970" points="694.2145,-28.0001 704.2144,-24.5 694.2144,-21.0001 694.2145,-28.0001"/>
</g>
<!-- Node15 -->
<g id="node15" class="node">
<title>Node15</title>
<g id="a_node15"><a xlink:href="classlocomotor_1_1components_1_1types_1_1_c_interval.html#a8977ca8c87b00639da116d1441a878ec" target="_top" xlink:title="locomotor.components.types.\lCInterval.min">
<polygon fill="#ffffff" stroke="#000000" points="500.9121,-331.5 500.9121,-359.5 646.9854,-359.5 646.9854,-331.5 500.9121,-331.5"/>
<text text-anchor="start" x="508.9121" y="-347.5" font-family="Helvetica,sans-Serif" font-size="10.00" fill="#000000">locomotor.components.types.</text>
<text text-anchor="middle" x="573.9487" y="-337.5" font-family="Helvetica,sans-Serif" font-size="10.00" fill="#000000">CInterval.min</text>
</a>
</g>
</g>
<!-- Node14&#45;&gt;Node15 -->
<g id="edge16" class="edge">
<title>Node14&#45;&gt;Node15</title>
<path fill="none" stroke="#191970" d="M439.5119,-361.0385C455.9498,-359.1386 473.5121,-357.1087 490.3377,-355.1639"/>
<polygon fill="#191970" stroke="#191970" points="491.1703,-358.5911 500.7022,-353.966 490.3665,-351.6374 491.1703,-358.5911"/>
</g>
<!-- Node16 -->
<g id="node16" class="node">
<title>Node16</title>
<g id="a_node16"><a xlink:href="classlocomotor_1_1components_1_1types_1_1_c_interval.html#a63edd36c00e0027edd899384e6f168f9" target="_top" xlink:title="locomotor.components.types.\lCInterval.max">
<polygon fill="#ffffff" stroke="#000000" points="500.9121,-378.5 500.9121,-406.5 646.9854,-406.5 646.9854,-378.5 500.9121,-378.5"/>
<text text-anchor="start" x="508.9121" y="-394.5" font-family="Helvetica,sans-Serif" font-size="10.00" fill="#000000">locomotor.components.types.</text>
<text text-anchor="middle" x="573.9487" y="-384.5" font-family="Helvetica,sans-Serif" font-size="10.00" fill="#000000">CInterval.max</text>
</a>
</g>
</g>
<!-- Node14&#45;&gt;Node16 -->
<g id="edge17" class="edge">
<title>Node14&#45;&gt;Node16</title>
<path fill="none" stroke="#191970" d="M439.5119,-377.6089C455.9498,-379.4297 473.5121,-381.375 490.3377,-383.2387"/>
<polygon fill="#191970" stroke="#191970" points="490.3777,-386.7645 500.7022,-384.3868 491.1484,-379.807 490.3777,-386.7645"/>
</g>
<!-- Node17 -->
<g id="node17" class="node">
<title>Node17</title>
<g id="a_node17"><a xlink:href="classlocomotor_1_1components_1_1types_1_1_c_interval_integer.html#a4ece5be3d0255219efc9a1ec16f3775c" target="_top" xlink:title="locomotor.components.types.\lCIntervalInteger.CIntervalInteger">
<polygon fill="#ffffff" stroke="#000000" points="493.6855,-425.5 493.6855,-453.5 654.2119,-453.5 654.2119,-425.5 493.6855,-425.5"/>
<text text-anchor="start" x="501.6855" y="-441.5" font-family="Helvetica,sans-Serif" font-size="10.00" fill="#000000">locomotor.components.types.</text>
<text text-anchor="middle" x="573.9487" y="-431.5" font-family="Helvetica,sans-Serif" font-size="10.00" fill="#000000">CIntervalInteger.CIntervalInteger</text>
</a>
</g>
</g>
<!-- Node14&#45;&gt;Node17 -->
<g id="edge18" class="edge">
<title>Node14&#45;&gt;Node17</title>
<path fill="none" stroke="#191970" d="M396.5736,-383.5695C419.1032,-393.6699 450.7945,-407.103 479.5156,-416.5 486.3515,-418.7366 493.5291,-420.866 500.7449,-422.862"/>
<polygon fill="#191970" stroke="#191970" points="500.0148,-426.2897 510.58,-425.4985 501.8273,-419.5285 500.0148,-426.2897"/>
</g>
<!-- Node18&#45;&gt;Node15 -->
<g id="edge20" class="edge">
<title>Node18&#45;&gt;Node15</title>
<path fill="none" stroke="#191970" d="M439.5119,-322.8397C456.1049,-325.6366 473.8436,-328.6265 490.8137,-331.487"/>
<polygon fill="#191970" stroke="#191970" points="490.2596,-334.9429 500.7022,-333.1538 491.4231,-328.0402 490.2596,-334.9429"/>
</g>
<!-- Node18&#45;&gt;Node16 -->
<g id="edge21" class="edge">
<title>Node18&#45;&gt;Node16</title>
<path fill="none" stroke="#191970" d="M399.0863,-324.6275C412.9961,-330.9174 429.2568,-338.6658 443.5156,-346.5 460.1561,-355.6428 462.0553,-362.0413 479.5156,-369.5 484.5103,-371.6336 489.7418,-373.5943 495.0717,-375.3918"/>
<polygon fill="#191970" stroke="#191970" points="494.1517,-378.7717 504.7418,-378.4532 496.2645,-372.0982 494.1517,-378.7717"/>
</g>
<!-- Node19 -->
<g id="node19" class="node">
<title>Node19</title>
<g id="a_node19"><a xlink:href="classlocomotor_1_1components_1_1types_1_1_c_interval_double.html#a1c646d0efc9520469e000c2282ca3386" target="_top" xlink:title="locomotor.components.types.\lCIntervalDouble.CIntervalDouble">
<polygon fill="#ffffff" stroke="#000000" points="492.8555,-284.5 492.8555,-312.5 655.042,-312.5 655.042,-284.5 492.8555,-284.5"/>
<text text-anchor="start" x="500.8555" y="-300.5" font-family="Helvetica,sans-Serif" font-size="10.00" fill="#000000">locomotor.components.types.</text>
<text text-anchor="middle" x="573.9487" y="-290.5" font-family="Helvetica,sans-Serif" font-size="10.00" fill="#000000">CIntervalDouble.CIntervalDouble</text>
</a>
</g>
</g>
<!-- Node18&#45;&gt;Node19 -->
<g id="edge22" class="edge">
<title>Node18&#45;&gt;Node19</title>
<path fill="none" stroke="#191970" d="M439.5119,-306.2692C453.3236,-305.4711 467.9291,-304.627 482.2244,-303.8008"/>
<polygon fill="#191970" stroke="#191970" points="482.7816,-307.2746 492.563,-303.2034 482.3777,-300.2862 482.7816,-307.2746"/>
</g>
<!-- Node21 -->
<g id="node21" class="node">
<title>Node21</title>
<g id="a_node21"><a xlink:href="classlocomotor_1_1components_1_1types_1_1_c_string_list.html#aa9063c07592d04038c8a37cae1214de5" target="_top" xlink:title="locomotor.components.types.\lCStringList.treeFromJSON">
<polygon fill="#ffffff" stroke="#000000" points="500.9121,-558.5 500.9121,-586.5 646.9854,-586.5 646.9854,-558.5 500.9121,-558.5"/>
<text text-anchor="start" x="508.9121" y="-574.5" font-family="Helvetica,sans-Serif" font-size="10.00" fill="#000000">locomotor.components.types.</text>
<text text-anchor="middle" x="573.9487" y="-564.5" font-family="Helvetica,sans-Serif" font-size="10.00" fill="#000000">CStringList.treeFromJSON</text>
</a>
</g>
</g>
<!-- Node20&#45;&gt;Node21 -->
<g id="edge24" class="edge">
<title>Node20&#45;&gt;Node21</title>
<path fill="none" stroke="#191970" d="M441.5622,-572.5C457.5173,-572.5 474.4483,-572.5 490.6809,-572.5"/>
<polygon fill="#191970" stroke="#191970" points="490.6829,-576.0001 500.6828,-572.5 490.6828,-569.0001 490.6829,-576.0001"/>
</g>
<!-- Node22 -->
<g id="node22" class="node">
<title>Node22</title>
<g id="a_node22"><a xlink:href="classlocomotor_1_1components_1_1types_1_1_c_mapped_string_list.html#a6ee84a38e1c5b58c08a7e9557cc959e1" target="_top" xlink:title="locomotor.components.types.\lCMappedStringList.CMappedStringList">
<polygon fill="#ffffff" stroke="#000000" points="479.5156,-605.5 479.5156,-633.5 668.3818,-633.5 668.3818,-605.5 479.5156,-605.5"/>
<text text-anchor="start" x="487.5156" y="-621.5" font-family="Helvetica,sans-Serif" font-size="10.00" fill="#000000">locomotor.components.types.</text>
<text text-anchor="middle" x="573.9487" y="-611.5" font-family="Helvetica,sans-Serif" font-size="10.00" fill="#000000">CMappedStringList.CMappedStringList</text>
</a>
</g>
</g>
<!-- Node20&#45;&gt;Node22 -->
<g id="edge25" class="edge">
<title>Node20&#45;&gt;Node22</title>
<path fill="none" stroke="#191970" d="M428.3231,-586.5379C451.5353,-591.7919 478.0943,-597.8035 502.1199,-603.2417"/>
<polygon fill="#191970" stroke="#191970" points="501.3648,-606.6592 511.8908,-605.4533 502.9102,-599.8319 501.3648,-606.6592"/>
</g>
<!-- Node23&#45;&gt;Node23 -->
<g id="edge28" class="edge">
<title>Node23&#45;&gt;Node23</title>
<path fill="none" stroke="#191970" d="M333.819,-496.5305C324.675,-505.8898 335.5034,-515 366.3042,-515 385.5547,-515 397.0035,-511.4413 400.6505,-506.4873"/>
<polygon fill="#191970" stroke="#191970" points="404.0673,-505.7171 398.7894,-496.5305 397.1864,-507.0033 404.0673,-505.7171"/>
</g>
<!-- Node24 -->
<g id="node24" class="node">
<title>Node24</title>
<g id="a_node24"><a xlink:href="classlocomotor_1_1components_1_1types_1_1_c_tree.html#af0e7a198496b1627d0ff15ce0e6de1f2" target="_top" xlink:title="locomotor.components.types.\lCTree.CTree">
<polygon fill="#ffffff" stroke="#000000" points="704.3818,-489.5 704.3818,-517.5 850.4551,-517.5 850.4551,-489.5 704.3818,-489.5"/>
<text text-anchor="start" x="712.3818" y="-505.5" font-family="Helvetica,sans-Serif" font-size="10.00" fill="#000000">locomotor.components.types.</text>
<text text-anchor="middle" x="777.4185" y="-495.5" font-family="Helvetica,sans-Serif" font-size="10.00" fill="#000000">CTree.CTree</text>
</a>
</g>
</g>
<!-- Node23&#45;&gt;Node24 -->
<g id="edge27" class="edge">
<title>Node23&#45;&gt;Node24</title>
<path fill="none" stroke="#191970" d="M439.8032,-486.2544C511.1621,-489.8994 619.3419,-495.4253 693.9175,-499.2347"/>
<polygon fill="#191970" stroke="#191970" points="694.0446,-502.7457 704.2101,-499.7605 694.4017,-495.7548 694.0446,-502.7457"/>
</g>
<!-- Node25 -->
<g id="node25" class="node">
<title>Node25</title>
<g id="a_node25"><a xlink:href="classlocomotor_1_1components_1_1types_1_1_c_tree.html#a74382cb3a3153edc32f1cfed8c4ee364" target="_top" xlink:title="locomotor.components.types.\lCTree.addChild">
<polygon fill="#ffffff" stroke="#000000" points="500.9121,-511.5 500.9121,-539.5 646.9854,-539.5 646.9854,-511.5 500.9121,-511.5"/>
<text text-anchor="start" x="508.9121" y="-527.5" font-family="Helvetica,sans-Serif" font-size="10.00" fill="#000000">locomotor.components.types.</text>
<text text-anchor="middle" x="573.9487" y="-517.5" font-family="Helvetica,sans-Serif" font-size="10.00" fill="#000000">CTree.addChild</text>
</a>
</g>
</g>
<!-- Node23&#45;&gt;Node25 -->
<g id="edge29" class="edge">
<title>Node23&#45;&gt;Node25</title>
<path fill="none" stroke="#191970" d="M434.0075,-496.5203C453.9419,-500.6484 475.9058,-505.1968 496.4064,-509.4422"/>
<polygon fill="#191970" stroke="#191970" points="495.8354,-512.8981 506.3374,-511.4987 497.255,-506.0436 495.8354,-512.8981"/>
</g>
<!-- Node25&#45;&gt;Node24 -->
<g id="edge30" class="edge">
<title>Node25&#45;&gt;Node24</title>
<path fill="none" stroke="#191970" d="M647.1185,-517.5886C662.3524,-515.9414 678.5161,-514.1937 694.0851,-512.5104"/>
<polygon fill="#191970" stroke="#191970" points="694.6487,-515.9699 704.2144,-511.4151 693.8961,-509.0105 694.6487,-515.9699"/>
</g>
<!-- Node30 -->
<g id="node30" class="node">
<title>Node30</title>
<g id="a_node30"><a xlink:href="classlocomotor_1_1components_1_1logging_1_1_error_context.html#afcf30b71bfc65c74878c7ab77c951842" target="_top" xlink:title="locomotor.components.logging.\lErrorContext.push">
<polygon fill="#ffffff" stroke="#000000" points="289.0928,-26.5 289.0928,-54.5 443.5156,-54.5 443.5156,-26.5 289.0928,-26.5"/>
<text text-anchor="start" x="297.0928" y="-42.5" font-family="Helvetica,sans-Serif" font-size="10.00" fill="#000000">locomotor.components.logging.</text>
<text text-anchor="middle" x="366.3042" y="-32.5" font-family="Helvetica,sans-Serif" font-size="10.00" fill="#000000">ErrorContext.push</text>
</a>
</g>
</g>
<!-- Node29&#45;&gt;Node30 -->
<g id="edge35" class="edge">
<title>Node29&#45;&gt;Node30</title>
<path fill="none" stroke="#191970" d="M253.3336,-47.0259C261.6788,-46.5438 270.2128,-46.0508 278.6666,-45.5625"/>
<polygon fill="#191970" stroke="#191970" points="279.1391,-49.0411 288.9206,-44.9702 278.7353,-42.0528 279.1391,-49.0411"/>
</g>
</g>
</svg>
