<?xml version="1.0" encoding="UTF-8" standalone="no"?>
<!DOCTYPE svg PUBLIC "-//W3C//DTD SVG 1.1//EN"
 "http://www.w3.org/Graphics/SVG/1.1/DTD/svg11.dtd">
<!-- Generated by graphviz version 2.40.1 (20161225.0304)
 -->
<!-- Title: adminStillExists Pages: 1 -->
<svg width="454pt" height="37pt"
 viewBox="0.00 0.00 453.70 37.00" xmlns="http://www.w3.org/2000/svg" xmlns:xlink="http://www.w3.org/1999/xlink">
<g id="graph0" class="graph" transform="scale(1 1) rotate(0) translate(4 33)">
<title>adminStillExists</title>
<polygon fill="#ffffff" stroke="transparent" points="-4,4 -4,-33 449.7031,-33 449.7031,4 -4,4"/>
<!-- Node1 -->
<g id="node1" class="node">
<title>Node1</title>
<polygon fill="#bfbfbf" stroke="#000000" points="0,-5.5 0,-23.5 86.0195,-23.5 86.0195,-5.5 0,-5.5"/>
<text text-anchor="middle" x="43.0098" y="-11.5" font-family="Helvetica,sans-Serif" font-size="10.00" fill="#000000">adminStillExists</text>
</g>
<!-- Node2 -->
<g id="node2" class="node">
<title>Node2</title>
<g id="a_node2"><a xlink:href="classlocomotor_1_1components_1_1network_1_1_a_p_i.html#a547463fbc7fb7b485886f0917e2c0b78" target="_top" xlink:title="locomotor.components.network.\lAPI.createHooks">
<polygon fill="#ffffff" stroke="#000000" points="122.0195,-.5 122.0195,-28.5 279.2061,-28.5 279.2061,-.5 122.0195,-.5"/>
<text text-anchor="start" x="130.0195" y="-16.5" font-family="Helvetica,sans-Serif" font-size="10.00" fill="#000000">locomotor.components.network.</text>
<text text-anchor="middle" x="200.6128" y="-6.5" font-family="Helvetica,sans-Serif" font-size="10.00" fill="#000000">API.createHooks</text>
</a>
</g>
</g>
<!-- Node1&#45;&gt;Node2 -->
<g id="edge1" class="edge">
<title>Node1&#45;&gt;Node2</title>
<path fill="none" stroke="#191970" d="M96.2652,-14.5C104.5114,-14.5 113.176,-14.5 121.8401,-14.5"/>
<polygon fill="#191970" stroke="#191970" points="96.0755,-11.0001 86.0755,-14.5 96.0755,-18.0001 96.0755,-11.0001"/>
</g>
<!-- Node3 -->
<g id="node3" class="node">
<title>Node3</title>
<g id="a_node3"><a xlink:href="classlocomotor_1_1core_1_1_main.html#a8b260eecbaabcef8473fd87ada040682" target="_top" xlink:title="locomotor.core.Main.main">
<polygon fill="#ffffff" stroke="#000000" points="315.2061,-5.5 315.2061,-23.5 445.7031,-23.5 445.7031,-5.5 315.2061,-5.5"/>
<text text-anchor="middle" x="380.4546" y="-11.5" font-family="Helvetica,sans-Serif" font-size="10.00" fill="#000000">locomotor.core.Main.main</text>
</a>
</g>
</g>
<!-- Node2&#45;&gt;Node3 -->
<g id="edge2" class="edge">
<title>Node2&#45;&gt;Node3</title>
<path fill="none" stroke="#191970" d="M289.4058,-14.5C298.0941,-14.5 306.7965,-14.5 315.1883,-14.5"/>
<polygon fill="#191970" stroke="#191970" points="289.2324,-11.0001 279.2324,-14.5 289.2324,-18.0001 289.2324,-11.0001"/>
</g>
</g>
</svg>
