<?xml version="1.0" encoding="UTF-8" standalone="no"?>
<!DOCTYPE svg PUBLIC "-//W3C//DTD SVG 1.1//EN"
 "http://www.w3.org/Graphics/SVG/1.1/DTD/svg11.dtd">
<!-- Generated by graphviz version 2.40.1 (20161225.0304)
 -->
<!-- Title: deleteItemWith Pages: 1 -->
<svg width="575pt" height="37pt"
 viewBox="0.00 0.00 575.18 37.00" xmlns="http://www.w3.org/2000/svg" xmlns:xlink="http://www.w3.org/1999/xlink">
<g id="graph0" class="graph" transform="scale(1 1) rotate(0) translate(4 33)">
<title>deleteItemWith</title>
<polygon fill="#ffffff" stroke="transparent" points="-4,4 -4,-33 571.1807,-33 571.1807,4 -4,4"/>
<!-- Node1 -->
<g id="node1" class="node">
<title>Node1</title>
<polygon fill="#bfbfbf" stroke="#000000" points="0,-5.5 0,-23.5 82.6943,-23.5 82.6943,-5.5 0,-5.5"/>
<text text-anchor="middle" x="41.3472" y="-11.5" font-family="Helvetica,sans-Serif" font-size="10.00" fill="#000000">deleteItemWith</text>
</g>
<!-- Node2 -->
<g id="node2" class="node">
<title>Node2</title>
<g id="a_node2"><a xlink:href="classlocomotor_1_1core_1_1_d_b_h.html#a46cbafb4c7422171cf07c3d0521d3f47" target="_top" xlink:title="removeUniverse">
<polygon fill="#ffffff" stroke="#000000" points="118.6943,-5.5 118.6943,-23.5 207.4971,-23.5 207.4971,-5.5 118.6943,-5.5"/>
<text text-anchor="middle" x="163.0957" y="-11.5" font-family="Helvetica,sans-Serif" font-size="10.00" fill="#000000">removeUniverse</text>
</a>
</g>
</g>
<!-- Node1&#45;&gt;Node2 -->
<g id="edge1" class="edge">
<title>Node1&#45;&gt;Node2</title>
<path fill="none" stroke="#191970" d="M93.0313,-14.5C101.4674,-14.5 110.1445,-14.5 118.3944,-14.5"/>
<polygon fill="#191970" stroke="#191970" points="92.9056,-11.0001 82.9056,-14.5 92.9056,-18.0001 92.9056,-11.0001"/>
</g>
<!-- Node3 -->
<g id="node3" class="node">
<title>Node3</title>
<g id="a_node3"><a xlink:href="classlocomotor_1_1components_1_1network_1_1_a_p_i.html#a547463fbc7fb7b485886f0917e2c0b78" target="_top" xlink:title="locomotor.components.network.\lAPI.createHooks">
<polygon fill="#ffffff" stroke="#000000" points="243.4971,-.5 243.4971,-28.5 400.6836,-28.5 400.6836,-.5 243.4971,-.5"/>
<text text-anchor="start" x="251.4971" y="-16.5" font-family="Helvetica,sans-Serif" font-size="10.00" fill="#000000">locomotor.components.network.</text>
<text text-anchor="middle" x="322.0903" y="-6.5" font-family="Helvetica,sans-Serif" font-size="10.00" fill="#000000">API.createHooks</text>
</a>
</g>
</g>
<!-- Node2&#45;&gt;Node3 -->
<g id="edge2" class="edge">
<title>Node2&#45;&gt;Node3</title>
<path fill="none" stroke="#191970" d="M217.9744,-14.5C226.1888,-14.5 234.7924,-14.5 243.3836,-14.5"/>
<polygon fill="#191970" stroke="#191970" points="217.8077,-11.0001 207.8077,-14.5 217.8077,-18.0001 217.8077,-11.0001"/>
</g>
<!-- Node4 -->
<g id="node4" class="node">
<title>Node4</title>
<g id="a_node4"><a xlink:href="classlocomotor_1_1core_1_1_main.html#a8b260eecbaabcef8473fd87ada040682" target="_top" xlink:title="locomotor.core.Main.main">
<polygon fill="#ffffff" stroke="#000000" points="436.6836,-5.5 436.6836,-23.5 567.1807,-23.5 567.1807,-5.5 436.6836,-5.5"/>
<text text-anchor="middle" x="501.9321" y="-11.5" font-family="Helvetica,sans-Serif" font-size="10.00" fill="#000000">locomotor.core.Main.main</text>
</a>
</g>
</g>
<!-- Node3&#45;&gt;Node4 -->
<g id="edge3" class="edge">
<title>Node3&#45;&gt;Node4</title>
<path fill="none" stroke="#191970" d="M410.8834,-14.5C419.5717,-14.5 428.274,-14.5 436.6659,-14.5"/>
<polygon fill="#191970" stroke="#191970" points="410.71,-11.0001 400.7099,-14.5 410.7099,-18.0001 410.71,-11.0001"/>
</g>
</g>
</svg>
