<?xml version="1.0" encoding="UTF-8" standalone="no"?>
<!DOCTYPE svg PUBLIC "-//W3C//DTD SVG 1.1//EN"
 "http://www.w3.org/Graphics/SVG/1.1/DTD/svg11.dtd">
<!-- Generated by graphviz version 2.40.1 (20161225.0304)
 -->
<!-- Title: getName Pages: 1 -->
<svg width="808pt" height="74pt"
 viewBox="0.00 0.00 808.39 74.00" xmlns="http://www.w3.org/2000/svg" xmlns:xlink="http://www.w3.org/1999/xlink">
<g id="graph0" class="graph" transform="scale(1 1) rotate(0) translate(4 70)">
<title>getName</title>
<polygon fill="#ffffff" stroke="transparent" points="-4,4 -4,-70 804.3916,-70 804.3916,4 -4,4"/>
<!-- Node1 -->
<g id="node1" class="node">
<title>Node1</title>
<polygon fill="#bfbfbf" stroke="#000000" points="0,-26.5 0,-44.5 56.5762,-44.5 56.5762,-26.5 0,-26.5"/>
<text text-anchor="middle" x="28.2881" y="-32.5" font-family="Helvetica,sans-Serif" font-size="10.00" fill="#000000">getName</text>
</g>
<!-- Node2 -->
<g id="node2" class="node">
<title>Node2</title>
<g id="a_node2"><a xlink:href="classlocomotor_1_1core_1_1_d_b_h.html#a756e5af44b74ea39a44a71cde06102fd" target="_top" xlink:title="locomotor.core.DBH.checking\lParsingUniverse">
<polygon fill="#ffffff" stroke="#000000" points="92.5762,-21.5 92.5762,-49.5 240.3047,-49.5 240.3047,-21.5 92.5762,-21.5"/>
<text text-anchor="start" x="100.5762" y="-37.5" font-family="Helvetica,sans-Serif" font-size="10.00" fill="#000000">locomotor.core.DBH.checking</text>
<text text-anchor="middle" x="166.4404" y="-27.5" font-family="Helvetica,sans-Serif" font-size="10.00" fill="#000000">ParsingUniverse</text>
</a>
</g>
</g>
<!-- Node1&#45;&gt;Node2 -->
<g id="edge1" class="edge">
<title>Node1&#45;&gt;Node2</title>
<path fill="none" stroke="#191970" d="M66.7516,-35.5C74.8352,-35.5 83.6199,-35.5 92.5125,-35.5"/>
<polygon fill="#191970" stroke="#191970" points="66.5787,-32.0001 56.5786,-35.5 66.5786,-39.0001 66.5787,-32.0001"/>
</g>
<!-- Node3 -->
<g id="node3" class="node">
<title>Node3</title>
<g id="a_node3"><a xlink:href="classlocomotor_1_1core_1_1_d_b_h.html#a2b2232ca307c4877316e8b6097902f2c" target="_top" xlink:title="locomotor.core.DBH.addUniverse">
<polygon fill="#ffffff" stroke="#000000" points="276.3047,-47.5 276.3047,-65.5 440.708,-65.5 440.708,-47.5 276.3047,-47.5"/>
<text text-anchor="middle" x="358.5063" y="-53.5" font-family="Helvetica,sans-Serif" font-size="10.00" fill="#000000">locomotor.core.DBH.addUniverse</text>
</a>
</g>
</g>
<!-- Node2&#45;&gt;Node3 -->
<g id="edge2" class="edge">
<title>Node2&#45;&gt;Node3</title>
<path fill="none" stroke="#191970" d="M250.4139,-44.6814C258.9896,-45.6191 267.6957,-46.571 276.2527,-47.5066"/>
<polygon fill="#191970" stroke="#191970" points="250.7446,-41.1968 240.4234,-43.5891 249.9837,-48.1554 250.7446,-41.1968"/>
</g>
<!-- Node6 -->
<g id="node6" class="node">
<title>Node6</title>
<g id="a_node6"><a xlink:href="classlocomotor_1_1core_1_1_d_b_h.html#a0565ab8a7a56491fca163a1b0977c0db" target="_top" xlink:title="locomotor.core.DBH.update\lUniverse">
<polygon fill="#ffffff" stroke="#000000" points="289.083,-.5 289.083,-28.5 427.9297,-28.5 427.9297,-.5 289.083,-.5"/>
<text text-anchor="start" x="297.083" y="-16.5" font-family="Helvetica,sans-Serif" font-size="10.00" fill="#000000">locomotor.core.DBH.update</text>
<text text-anchor="middle" x="358.5063" y="-6.5" font-family="Helvetica,sans-Serif" font-size="10.00" fill="#000000">Universe</text>
</a>
</g>
</g>
<!-- Node2&#45;&gt;Node6 -->
<g id="edge5" class="edge">
<title>Node2&#45;&gt;Node6</title>
<path fill="none" stroke="#191970" d="M250.618,-26.2962C263.4283,-24.8956 276.5245,-23.4637 288.9758,-22.1023"/>
<polygon fill="#191970" stroke="#191970" points="249.9837,-22.8446 240.4234,-27.4109 250.7446,-29.8032 249.9837,-22.8446"/>
</g>
<!-- Node4 -->
<g id="node4" class="node">
<title>Node4</title>
<g id="a_node4"><a xlink:href="classlocomotor_1_1components_1_1network_1_1_a_p_i.html#a547463fbc7fb7b485886f0917e2c0b78" target="_top" xlink:title="locomotor.components.network.\lAPI.createHooks">
<polygon fill="#ffffff" stroke="#000000" points="476.708,-21.5 476.708,-49.5 633.8945,-49.5 633.8945,-21.5 476.708,-21.5"/>
<text text-anchor="start" x="484.708" y="-37.5" font-family="Helvetica,sans-Serif" font-size="10.00" fill="#000000">locomotor.components.network.</text>
<text text-anchor="middle" x="555.3013" y="-27.5" font-family="Helvetica,sans-Serif" font-size="10.00" fill="#000000">API.createHooks</text>
</a>
</g>
</g>
<!-- Node3&#45;&gt;Node4 -->
<g id="edge3" class="edge">
<title>Node3&#45;&gt;Node4</title>
<path fill="none" stroke="#191970" d="M450.8377,-46.6473C459.4046,-45.7331 468.033,-44.8124 476.462,-43.9129"/>
<polygon fill="#191970" stroke="#191970" points="450.397,-43.1744 440.8248,-47.7158 451.1398,-50.1349 450.397,-43.1744"/>
</g>
<!-- Node5 -->
<g id="node5" class="node">
<title>Node5</title>
<g id="a_node5"><a xlink:href="classlocomotor_1_1core_1_1_main.html#a8b260eecbaabcef8473fd87ada040682" target="_top" xlink:title="locomotor.core.Main.main">
<polygon fill="#ffffff" stroke="#000000" points="669.8945,-26.5 669.8945,-44.5 800.3916,-44.5 800.3916,-26.5 669.8945,-26.5"/>
<text text-anchor="middle" x="735.1431" y="-32.5" font-family="Helvetica,sans-Serif" font-size="10.00" fill="#000000">locomotor.core.Main.main</text>
</a>
</g>
</g>
<!-- Node4&#45;&gt;Node5 -->
<g id="edge4" class="edge">
<title>Node4&#45;&gt;Node5</title>
<path fill="none" stroke="#191970" d="M644.0943,-35.5C652.7826,-35.5 661.4849,-35.5 669.8768,-35.5"/>
<polygon fill="#191970" stroke="#191970" points="643.9209,-32.0001 633.9209,-35.5 643.9208,-39.0001 643.9209,-32.0001"/>
</g>
<!-- Node6&#45;&gt;Node4 -->
<g id="edge6" class="edge">
<title>Node6&#45;&gt;Node4</title>
<path fill="none" stroke="#191970" d="M438.2275,-23.007C450.9095,-24.3603 464.0212,-25.7595 476.6776,-27.1101"/>
<polygon fill="#191970" stroke="#191970" points="438.4808,-19.5143 428.1658,-21.9334 437.738,-26.4748 438.4808,-19.5143"/>
</g>
</g>
</svg>
