<?xml version="1.0" encoding="UTF-8" standalone="no"?>
<!DOCTYPE svg PUBLIC "-//W3C//DTD SVG 1.1//EN"
 "http://www.w3.org/Graphics/SVG/1.1/DTD/svg11.dtd">
<!-- Generated by graphviz version 2.40.1 (20161225.0304)
 -->
<!-- Title: CFloat Pages: 1 -->
<svg width="1270pt" height="37pt"
 viewBox="0.00 0.00 1269.90 37.00" xmlns="http://www.w3.org/2000/svg" xmlns:xlink="http://www.w3.org/1999/xlink">
<g id="graph0" class="graph" transform="scale(1 1) rotate(0) translate(4 33)">
<title>CFloat</title>
<polygon fill="#ffffff" stroke="transparent" points="-4,4 -4,-33 1265.8994,-33 1265.8994,4 -4,4"/>
<!-- Node1 -->
<g id="node1" class="node">
<title>Node1</title>
<polygon fill="#bfbfbf" stroke="#000000" points="0,-5.5 0,-23.5 45.4531,-23.5 45.4531,-5.5 0,-5.5"/>
<text text-anchor="middle" x="22.7266" y="-11.5" font-family="Helvetica,sans-Serif" font-size="10.00" fill="#000000">CFloat</text>
</g>
<!-- Node2 -->
<g id="node2" class="node">
<title>Node2</title>
<g id="a_node2"><a xlink:href="classlocomotor_1_1components_1_1types_1_1_c_float.html#a06da3e8fd1fdad2882c5878589963311" target="_top" xlink:title="fromJSON">
<polygon fill="#ffffff" stroke="#000000" points="81.4531,-5.5 81.4531,-23.5 144.123,-23.5 144.123,-5.5 81.4531,-5.5"/>
<text text-anchor="middle" x="112.7881" y="-11.5" font-family="Helvetica,sans-Serif" font-size="10.00" fill="#000000">fromJSON</text>
</a>
</g>
</g>
<!-- Node1&#45;&gt;Node2 -->
<g id="edge1" class="edge">
<title>Node1&#45;&gt;Node2</title>
<path fill="none" stroke="#191970" d="M55.968,-14.5C64.2127,-14.5 73.0245,-14.5 81.1881,-14.5"/>
<polygon fill="#191970" stroke="#191970" points="55.9197,-11.0001 45.9196,-14.5 55.9196,-18.0001 55.9197,-11.0001"/>
</g>
<!-- Node3 -->
<g id="node3" class="node">
<title>Node3</title>
<g id="a_node3"><a xlink:href="classlocomotor_1_1components_1_1types_1_1_type_factory.html#a8827604831ff8a1764b7639c82820497" target="_top" xlink:title="locomotor.components.types.\lTypeFactory.getItemFromJson">
<polygon fill="#ffffff" stroke="#000000" points="180.123,-.5 180.123,-28.5 330.9912,-28.5 330.9912,-.5 180.123,-.5"/>
<text text-anchor="start" x="188.123" y="-16.5" font-family="Helvetica,sans-Serif" font-size="10.00" fill="#000000">locomotor.components.types.</text>
<text text-anchor="middle" x="255.5571" y="-6.5" font-family="Helvetica,sans-Serif" font-size="10.00" fill="#000000">TypeFactory.getItemFromJson</text>
</a>
</g>
</g>
<!-- Node2&#45;&gt;Node3 -->
<g id="edge2" class="edge">
<title>Node2&#45;&gt;Node3</title>
<path fill="none" stroke="#191970" d="M154.5931,-14.5C162.5877,-14.5 171.1836,-14.5 179.8648,-14.5"/>
<polygon fill="#191970" stroke="#191970" points="154.4732,-11.0001 144.4732,-14.5 154.4731,-18.0001 154.4732,-11.0001"/>
</g>
<!-- Node4 -->
<g id="node4" class="node">
<title>Node4</title>
<g id="a_node4"><a xlink:href="classlocomotor_1_1components_1_1models_1_1_item_criteria_full.html#a436730a3499b6d7b1d0359e12aa2f04a" target="_top" xlink:title="locomotor.components.models.\lItemCriteriaFull.fromJSON">
<polygon fill="#ffffff" stroke="#000000" points="366.9912,-.5 366.9912,-28.5 521.3994,-28.5 521.3994,-.5 366.9912,-.5"/>
<text text-anchor="start" x="374.9912" y="-16.5" font-family="Helvetica,sans-Serif" font-size="10.00" fill="#000000">locomotor.components.models.</text>
<text text-anchor="middle" x="444.1953" y="-6.5" font-family="Helvetica,sans-Serif" font-size="10.00" fill="#000000">ItemCriteriaFull.fromJSON</text>
</a>
</g>
</g>
<!-- Node3&#45;&gt;Node4 -->
<g id="edge3" class="edge">
<title>Node3&#45;&gt;Node4</title>
<path fill="none" stroke="#191970" d="M341.4114,-14.5C349.8376,-14.5 358.3547,-14.5 366.6906,-14.5"/>
<polygon fill="#191970" stroke="#191970" points="341.1966,-11.0001 331.1966,-14.5 341.1965,-18.0001 341.1966,-11.0001"/>
</g>
<!-- Node5 -->
<g id="node5" class="node">
<title>Node5</title>
<g id="a_node5"><a xlink:href="classlocomotor_1_1components_1_1models_1_1_item_category_full.html#a50ab7c0f8e4a65f80ca141f1fa1c7df8" target="_top" xlink:title="locomotor.components.models.\lItemCategoryFull.fromJSON">
<polygon fill="#ffffff" stroke="#000000" points="557.3994,-.5 557.3994,-28.5 711.8076,-28.5 711.8076,-.5 557.3994,-.5"/>
<text text-anchor="start" x="565.3994" y="-16.5" font-family="Helvetica,sans-Serif" font-size="10.00" fill="#000000">locomotor.components.models.</text>
<text text-anchor="middle" x="634.6035" y="-6.5" font-family="Helvetica,sans-Serif" font-size="10.00" fill="#000000">ItemCategoryFull.fromJSON</text>
</a>
</g>
</g>
<!-- Node4&#45;&gt;Node5 -->
<g id="edge4" class="edge">
<title>Node4&#45;&gt;Node5</title>
<path fill="none" stroke="#191970" d="M531.8957,-14.5C540.3493,-14.5 548.8823,-14.5 557.2258,-14.5"/>
<polygon fill="#191970" stroke="#191970" points="531.6417,-11.0001 521.6416,-14.5 531.6416,-18.0001 531.6417,-11.0001"/>
</g>
<!-- Node6 -->
<g id="node6" class="node">
<title>Node6</title>
<g id="a_node6"><a xlink:href="classlocomotor_1_1components_1_1models_1_1_item_full.html#afe56c5f49cb59d04ec69bbf32b58a2f8" target="_top" xlink:title="locomotor.components.models.\lItemFull.fromJSON">
<polygon fill="#ffffff" stroke="#000000" points="747.8076,-.5 747.8076,-28.5 902.2158,-28.5 902.2158,-.5 747.8076,-.5"/>
<text text-anchor="start" x="755.8076" y="-16.5" font-family="Helvetica,sans-Serif" font-size="10.00" fill="#000000">locomotor.components.models.</text>
<text text-anchor="middle" x="825.0117" y="-6.5" font-family="Helvetica,sans-Serif" font-size="10.00" fill="#000000">ItemFull.fromJSON</text>
</a>
</g>
</g>
<!-- Node5&#45;&gt;Node6 -->
<g id="edge5" class="edge">
<title>Node5&#45;&gt;Node6</title>
<path fill="none" stroke="#191970" d="M722.3039,-14.5C730.7575,-14.5 739.2905,-14.5 747.634,-14.5"/>
<polygon fill="#191970" stroke="#191970" points="722.0499,-11.0001 712.0498,-14.5 722.0498,-18.0001 722.0499,-11.0001"/>
</g>
<!-- Node7 -->
<g id="node7" class="node">
<title>Node7</title>
<g id="a_node7"><a xlink:href="classlocomotor_1_1components_1_1network_1_1_a_p_i.html#a547463fbc7fb7b485886f0917e2c0b78" target="_top" xlink:title="locomotor.components.network.\lAPI.createHooks">
<polygon fill="#ffffff" stroke="#000000" points="938.2158,-.5 938.2158,-28.5 1095.4023,-28.5 1095.4023,-.5 938.2158,-.5"/>
<text text-anchor="start" x="946.2158" y="-16.5" font-family="Helvetica,sans-Serif" font-size="10.00" fill="#000000">locomotor.components.network.</text>
<text text-anchor="middle" x="1016.8091" y="-6.5" font-family="Helvetica,sans-Serif" font-size="10.00" fill="#000000">API.createHooks</text>
</a>
</g>
</g>
<!-- Node6&#45;&gt;Node7 -->
<g id="edge6" class="edge">
<title>Node6&#45;&gt;Node7</title>
<path fill="none" stroke="#191970" d="M912.7364,-14.5C921.2023,-14.5 929.7537,-14.5 938.1243,-14.5"/>
<polygon fill="#191970" stroke="#191970" points="912.4702,-11.0001 902.4702,-14.5 912.4702,-18.0001 912.4702,-11.0001"/>
</g>
<!-- Node8 -->
<g id="node8" class="node">
<title>Node8</title>
<g id="a_node8"><a xlink:href="classlocomotor_1_1core_1_1_main.html#a8b260eecbaabcef8473fd87ada040682" target="_top" xlink:title="locomotor.core.Main.main">
<polygon fill="#ffffff" stroke="#000000" points="1131.4023,-5.5 1131.4023,-23.5 1261.8994,-23.5 1261.8994,-5.5 1131.4023,-5.5"/>
<text text-anchor="middle" x="1196.6509" y="-11.5" font-family="Helvetica,sans-Serif" font-size="10.00" fill="#000000">locomotor.core.Main.main</text>
</a>
</g>
</g>
<!-- Node7&#45;&gt;Node8 -->
<g id="edge7" class="edge">
<title>Node7&#45;&gt;Node8</title>
<path fill="none" stroke="#191970" d="M1105.6021,-14.5C1114.2904,-14.5 1122.9928,-14.5 1131.3846,-14.5"/>
<polygon fill="#191970" stroke="#191970" points="1105.4287,-11.0001 1095.4287,-14.5 1105.4287,-18.0001 1105.4287,-11.0001"/>
</g>
</g>
</svg>
