<?xml version="1.0" encoding="UTF-8" standalone="no"?>
<!DOCTYPE svg PUBLIC "-//W3C//DTD SVG 1.1//EN"
 "http://www.w3.org/Graphics/SVG/1.1/DTD/svg11.dtd">
<!-- Generated by graphviz version 2.40.1 (20161225.0304)
 -->
<!-- Title: createShortToken Pages: 1 -->
<svg width="483pt" height="129pt"
 viewBox="0.00 0.00 483.22 129.00" xmlns="http://www.w3.org/2000/svg" xmlns:xlink="http://www.w3.org/1999/xlink">
<g id="graph0" class="graph" transform="scale(1 1) rotate(0) translate(4 125)">
<title>createShortToken</title>
<polygon fill="#ffffff" stroke="transparent" points="-4,4 -4,-125 479.2246,-125 479.2246,4 -4,4"/>
<!-- Node1 -->
<g id="node1" class="node">
<title>Node1</title>
<polygon fill="#bfbfbf" stroke="#000000" points="0,-50.5 0,-68.5 94.3789,-68.5 94.3789,-50.5 0,-50.5"/>
<text text-anchor="middle" x="47.1895" y="-56.5" font-family="Helvetica,sans-Serif" font-size="10.00" fill="#000000">createShortToken</text>
</g>
<!-- Node2 -->
<g id="node2" class="node">
<title>Node2</title>
<g id="a_node2"><a xlink:href="classlocomotor_1_1components_1_1logging_1_1_error_handler.html#a75e8f6535bdb8db9a7d570e1b839af47" target="_top" xlink:title="locomotor.components.logging.\lErrorHandler.getInstance">
<polygon fill="#ffffff" stroke="#000000" points="130.3789,-92.5 130.3789,-120.5 284.8018,-120.5 284.8018,-92.5 130.3789,-92.5"/>
<text text-anchor="start" x="138.3789" y="-108.5" font-family="Helvetica,sans-Serif" font-size="10.00" fill="#000000">locomotor.components.logging.</text>
<text text-anchor="middle" x="207.5903" y="-98.5" font-family="Helvetica,sans-Serif" font-size="10.00" fill="#000000">ErrorHandler.getInstance</text>
</a>
</g>
</g>
<!-- Node1&#45;&gt;Node2 -->
<g id="edge1" class="edge">
<title>Node1&#45;&gt;Node2</title>
<path fill="none" stroke="#191970" d="M78.1164,-68.5621C98.4395,-74.5171 125.6548,-82.4916 149.8883,-89.5924"/>
<polygon fill="#191970" stroke="#191970" points="149.1285,-93.0168 159.7092,-92.4701 151.0969,-86.2993 149.1285,-93.0168"/>
</g>
<!-- Node3 -->
<g id="node3" class="node">
<title>Node3</title>
<g id="a_node3"><a xlink:href="classlocomotor_1_1components_1_1logging_1_1_error_handler.html#abd00a9c37627740763cef91d76a77437" target="_top" xlink:title="locomotor.components.logging.\lErrorHandler.push">
<polygon fill="#ffffff" stroke="#000000" points="130.3789,-45.5 130.3789,-73.5 284.8018,-73.5 284.8018,-45.5 130.3789,-45.5"/>
<text text-anchor="start" x="138.3789" y="-61.5" font-family="Helvetica,sans-Serif" font-size="10.00" fill="#000000">locomotor.components.logging.</text>
<text text-anchor="middle" x="207.5903" y="-51.5" font-family="Helvetica,sans-Serif" font-size="10.00" fill="#000000">ErrorHandler.push</text>
</a>
</g>
</g>
<!-- Node1&#45;&gt;Node3 -->
<g id="edge2" class="edge">
<title>Node1&#45;&gt;Node3</title>
<path fill="none" stroke="#191970" d="M94.4475,-59.5C102.6388,-59.5 111.3851,-59.5 120.2486,-59.5"/>
<polygon fill="#191970" stroke="#191970" points="120.2823,-63.0001 130.2823,-59.5 120.2823,-56.0001 120.2823,-63.0001"/>
</g>
<!-- Node5 -->
<g id="node5" class="node">
<title>Node5</title>
<g id="a_node5"><a xlink:href="classlocomotor_1_1core_1_1jwt_1_1_j_w_t_h.html#af3751461e4a7ff92b13b5988200d76d7" target="_top" xlink:title="createToken">
<polygon fill="#ffffff" stroke="#000000" points="172.3516,-7.5 172.3516,-25.5 242.8291,-25.5 242.8291,-7.5 172.3516,-7.5"/>
<text text-anchor="middle" x="207.5903" y="-13.5" font-family="Helvetica,sans-Serif" font-size="10.00" fill="#000000">createToken</text>
</a>
</g>
</g>
<!-- Node1&#45;&gt;Node5 -->
<g id="edge4" class="edge">
<title>Node1&#45;&gt;Node5</title>
<path fill="none" stroke="#191970" d="M79.5515,-50.4209C94.9336,-46.1393 113.5883,-40.9954 130.3789,-36.5 140.7182,-33.7318 151.853,-30.8119 162.3603,-28.0843"/>
<polygon fill="#191970" stroke="#191970" points="163.3913,-31.4329 172.1956,-25.5393 161.6377,-24.6561 163.3913,-31.4329"/>
</g>
<!-- Node4 -->
<g id="node4" class="node">
<title>Node4</title>
<g id="a_node4"><a xlink:href="classlocomotor_1_1components_1_1logging_1_1_error_context.html#afcf30b71bfc65c74878c7ab77c951842" target="_top" xlink:title="locomotor.components.logging.\lErrorContext.push">
<polygon fill="#ffffff" stroke="#000000" points="320.8018,-47.5 320.8018,-75.5 475.2246,-75.5 475.2246,-47.5 320.8018,-47.5"/>
<text text-anchor="start" x="328.8018" y="-63.5" font-family="Helvetica,sans-Serif" font-size="10.00" fill="#000000">locomotor.components.logging.</text>
<text text-anchor="middle" x="398.0132" y="-53.5" font-family="Helvetica,sans-Serif" font-size="10.00" fill="#000000">ErrorContext.push</text>
</a>
</g>
</g>
<!-- Node3&#45;&gt;Node4 -->
<g id="edge3" class="edge">
<title>Node3&#45;&gt;Node4</title>
<path fill="none" stroke="#191970" d="M285.0426,-60.3135C293.3878,-60.4011 301.9218,-60.4908 310.3756,-60.5795"/>
<polygon fill="#191970" stroke="#191970" points="310.5933,-64.0819 320.6296,-60.6872 310.6669,-57.0823 310.5933,-64.0819"/>
</g>
<!-- Node6 -->
<g id="node6" class="node">
<title>Node6</title>
<g id="a_node6"><a xlink:href="enumlocomotor_1_1core_1_1_accreditation_level.html#aae714dc01fe7f5bb1a175d0d1068bb92" target="_top" xlink:title="locomotor.core.Accreditation\lLevel.getValue">
<polygon fill="#ffffff" stroke="#000000" points="326.9248,-.5 326.9248,-28.5 469.1016,-28.5 469.1016,-.5 326.9248,-.5"/>
<text text-anchor="start" x="334.9248" y="-16.5" font-family="Helvetica,sans-Serif" font-size="10.00" fill="#000000">locomotor.core.Accreditation</text>
<text text-anchor="middle" x="398.0132" y="-6.5" font-family="Helvetica,sans-Serif" font-size="10.00" fill="#000000">Level.getValue</text>
</a>
</g>
</g>
<!-- Node5&#45;&gt;Node6 -->
<g id="edge5" class="edge">
<title>Node5&#45;&gt;Node6</title>
<path fill="none" stroke="#191970" d="M242.9611,-16.1285C263.6607,-15.9111 290.7062,-15.627 316.4023,-15.3572"/>
<polygon fill="#191970" stroke="#191970" points="316.5833,-18.8555 326.5459,-15.2506 316.5097,-11.8559 316.5833,-18.8555"/>
</g>
</g>
</svg>
