<?xml version="1.0" encoding="UTF-8" standalone="no"?>
<!DOCTYPE svg PUBLIC "-//W3C//DTD SVG 1.1//EN"
 "http://www.w3.org/Graphics/SVG/1.1/DTD/svg11.dtd">
<!-- Generated by graphviz version 2.40.1 (20161225.0304)
 -->
<!-- Title: fromJSON Pages: 1 -->
<svg width="872pt" height="529pt"
 viewBox="0.00 0.00 872.31 529.00" xmlns="http://www.w3.org/2000/svg" xmlns:xlink="http://www.w3.org/1999/xlink">
<g id="graph0" class="graph" transform="scale(1 1) rotate(0) translate(4 525)">
<title>fromJSON</title>
<polygon fill="#ffffff" stroke="transparent" points="-4,4 -4,-525 868.3076,-525 868.3076,4 -4,4"/>
<!-- Node1 -->
<g id="node1" class="node">
<title>Node1</title>
<polygon fill="#bfbfbf" stroke="#000000" points="0,-250.5 0,-268.5 62.6699,-268.5 62.6699,-250.5 0,-250.5"/>
<text text-anchor="middle" x="31.335" y="-256.5" font-family="Helvetica,sans-Serif" font-size="10.00" fill="#000000">fromJSON</text>
</g>
<!-- Node2 -->
<g id="node2" class="node">
<title>Node2</title>
<g id="a_node2"><a xlink:href="classlocomotor_1_1components_1_1types_1_1_type_factory.html#a1a64701bf13afa82b6b32bf422a171e2" target="_top" xlink:title="locomotor.components.types.\lTypeFactory.getUser">
<polygon fill="#ffffff" stroke="#000000" points="102.8374,-292.5 102.8374,-320.5 248.9106,-320.5 248.9106,-292.5 102.8374,-292.5"/>
<text text-anchor="start" x="110.8374" y="-308.5" font-family="Helvetica,sans-Serif" font-size="10.00" fill="#000000">locomotor.components.types.</text>
<text text-anchor="middle" x="175.874" y="-298.5" font-family="Helvetica,sans-Serif" font-size="10.00" fill="#000000">TypeFactory.getUser</text>
</a>
</g>
</g>
<!-- Node1&#45;&gt;Node2 -->
<g id="edge1" class="edge">
<title>Node1&#45;&gt;Node2</title>
<path fill="none" stroke="#191970" d="M55.8536,-268.5905C68.5732,-273.217 84.3966,-278.8338 98.6699,-283.5 104.6893,-285.4678 110.9947,-287.4591 117.2966,-289.404"/>
<polygon fill="#191970" stroke="#191970" points="116.5691,-292.8412 127.1552,-292.412 118.6119,-286.1459 116.5691,-292.8412"/>
</g>
<!-- Node22 -->
<g id="node22" class="node">
<title>Node22</title>
<g id="a_node22"><a xlink:href="classlocomotor_1_1components_1_1models_1_1_criteria_model.html#a7dd49780da667635d05b6f3155da39e6" target="_top" xlink:title="locomotor.components.models.\lCriteriaModel.getUserType">
<polygon fill="#ffffff" stroke="#000000" points="98.6699,-245.5 98.6699,-273.5 253.0781,-273.5 253.0781,-245.5 98.6699,-245.5"/>
<text text-anchor="start" x="106.6699" y="-261.5" font-family="Helvetica,sans-Serif" font-size="10.00" fill="#000000">locomotor.components.models.</text>
<text text-anchor="middle" x="175.874" y="-251.5" font-family="Helvetica,sans-Serif" font-size="10.00" fill="#000000">CriteriaModel.getUserType</text>
</a>
</g>
</g>
<!-- Node1&#45;&gt;Node22 -->
<g id="edge27" class="edge">
<title>Node1&#45;&gt;Node22</title>
<path fill="none" stroke="#191970" d="M62.6978,-259.5C70.5633,-259.5 79.3928,-259.5 88.5603,-259.5"/>
<polygon fill="#191970" stroke="#191970" points="88.611,-263.0001 98.6109,-259.5 88.6109,-256.0001 88.611,-263.0001"/>
</g>
<!-- Node23 -->
<g id="node23" class="node">
<title>Node23</title>
<g id="a_node23"><a xlink:href="classlocomotor_1_1components_1_1models_1_1_user_criteria.html#a73362947e669621a26c6ca400fd58e49" target="_top" xlink:title="UserCriteria">
<polygon fill="#ffffff" stroke="#000000" points="141.2041,-208.5 141.2041,-226.5 210.5439,-226.5 210.5439,-208.5 141.2041,-208.5"/>
<text text-anchor="middle" x="175.874" y="-214.5" font-family="Helvetica,sans-Serif" font-size="10.00" fill="#000000">UserCriteria</text>
</a>
</g>
</g>
<!-- Node1&#45;&gt;Node23 -->
<g id="edge28" class="edge">
<title>Node1&#45;&gt;Node23</title>
<path fill="none" stroke="#191970" d="M56.1107,-250.4549C68.7606,-245.9855 84.4449,-240.6711 98.6699,-236.5 109.1092,-233.439 120.4381,-230.4619 131.1194,-227.8072"/>
<polygon fill="#191970" stroke="#191970" points="132.2266,-231.1398 141.1116,-225.3685 130.5669,-224.3394 132.2266,-231.1398"/>
</g>
<!-- Node3 -->
<g id="node3" class="node">
<title>Node3</title>
<g id="a_node3"><a xlink:href="classlocomotor_1_1components_1_1types_1_1_c_boolean.html#a1bdea5ac8c77993c2f48a0a99a0ce032" target="_top" xlink:title="locomotor.components.types.\lCBoolean.fromJSON">
<polygon fill="#ffffff" stroke="#000000" points="294.2539,-462.5 294.2539,-490.5 440.3271,-490.5 440.3271,-462.5 294.2539,-462.5"/>
<text text-anchor="start" x="302.2539" y="-478.5" font-family="Helvetica,sans-Serif" font-size="10.00" fill="#000000">locomotor.components.types.</text>
<text text-anchor="middle" x="367.2905" y="-468.5" font-family="Helvetica,sans-Serif" font-size="10.00" fill="#000000">CBoolean.fromJSON</text>
</a>
</g>
</g>
<!-- Node2&#45;&gt;Node3 -->
<g id="edge2" class="edge">
<title>Node2&#45;&gt;Node3</title>
<path fill="none" stroke="#191970" d="M187.5515,-320.5451C207.1661,-343.6842 248.5709,-390.6268 289.0781,-424.5 303.1659,-436.2806 319.996,-447.7602 334.4288,-456.9235"/>
<polygon fill="#191970" stroke="#191970" points="332.7233,-459.9848 343.0595,-462.3116 336.4304,-454.0469 332.7233,-459.9848"/>
</g>
<!-- Node6 -->
<g id="node6" class="node">
<title>Node6</title>
<g id="a_node6"><a xlink:href="classlocomotor_1_1components_1_1types_1_1_c_interval_integer.html#a7325219bbe286c1651eac4d7cb1dcf89" target="_top" xlink:title="locomotor.components.types.\lCIntervalInteger.fromJSON">
<polygon fill="#ffffff" stroke="#000000" points="294.2539,-327.5 294.2539,-355.5 440.3271,-355.5 440.3271,-327.5 294.2539,-327.5"/>
<text text-anchor="start" x="302.2539" y="-343.5" font-family="Helvetica,sans-Serif" font-size="10.00" fill="#000000">locomotor.components.types.</text>
<text text-anchor="middle" x="367.2905" y="-333.5" font-family="Helvetica,sans-Serif" font-size="10.00" fill="#000000">CIntervalInteger.fromJSON</text>
</a>
</g>
</g>
<!-- Node2&#45;&gt;Node6 -->
<g id="edge5" class="edge">
<title>Node2&#45;&gt;Node6</title>
<path fill="none" stroke="#191970" d="M249.0597,-319.8818C260.488,-321.9714 272.3704,-324.1441 284.0039,-326.2713"/>
<polygon fill="#191970" stroke="#191970" points="283.6789,-329.7698 294.1454,-328.1256 284.938,-322.884 283.6789,-329.7698"/>
</g>
<!-- Node10 -->
<g id="node10" class="node">
<title>Node10</title>
<g id="a_node10"><a xlink:href="classlocomotor_1_1components_1_1types_1_1_c_interval_double.html#a05b10f1076a88b090171dc5c92d1e51a" target="_top" xlink:title="locomotor.components.types.\lCIntervalDouble.fromJSON">
<polygon fill="#ffffff" stroke="#000000" points="294.2539,-386.5 294.2539,-414.5 440.3271,-414.5 440.3271,-386.5 294.2539,-386.5"/>
<text text-anchor="start" x="302.2539" y="-402.5" font-family="Helvetica,sans-Serif" font-size="10.00" fill="#000000">locomotor.components.types.</text>
<text text-anchor="middle" x="367.2905" y="-392.5" font-family="Helvetica,sans-Serif" font-size="10.00" fill="#000000">CIntervalDouble.fromJSON</text>
</a>
</g>
</g>
<!-- Node2&#45;&gt;Node10 -->
<g id="edge9" class="edge">
<title>Node2&#45;&gt;Node10</title>
<path fill="none" stroke="#191970" d="M201.7291,-320.5364C224.5306,-332.7798 258.7536,-350.8287 289.0781,-365.5 300.8069,-371.1745 313.6653,-377.0631 325.5073,-382.355"/>
<polygon fill="#191970" stroke="#191970" points="324.1855,-385.5975 334.7455,-386.4556 327.0254,-379.1995 324.1855,-385.5975"/>
</g>
<!-- Node12 -->
<g id="node12" class="node">
<title>Node12</title>
<g id="a_node12"><a xlink:href="classlocomotor_1_1components_1_1types_1_1_c_mapped_string_list.html#a3834a44c64a57457335f1f296b272c79" target="_top" xlink:title="locomotor.components.types.\lCMappedStringList.fromJSON">
<polygon fill="#ffffff" stroke="#000000" points="292.0444,-257.5 292.0444,-285.5 442.5366,-285.5 442.5366,-257.5 292.0444,-257.5"/>
<text text-anchor="start" x="300.0444" y="-273.5" font-family="Helvetica,sans-Serif" font-size="10.00" fill="#000000">locomotor.components.types.</text>
<text text-anchor="middle" x="367.2905" y="-263.5" font-family="Helvetica,sans-Serif" font-size="10.00" fill="#000000">CMappedStringList.fromJSON</text>
</a>
</g>
</g>
<!-- Node2&#45;&gt;Node12 -->
<g id="edge13" class="edge">
<title>Node2&#45;&gt;Node12</title>
<path fill="none" stroke="#191970" d="M249.0597,-293.1182C259.8069,-291.1531 270.9558,-289.1146 281.9214,-287.1095"/>
<polygon fill="#191970" stroke="#191970" points="282.7163,-290.5223 291.9237,-285.2806 281.4572,-283.6364 282.7163,-290.5223"/>
</g>
<!-- Node15 -->
<g id="node15" class="node">
<title>Node15</title>
<g id="a_node15"><a xlink:href="classlocomotor_1_1components_1_1types_1_1_c_weighted_string_list.html#a7a08dcf44cd83920ed5e14cef6361de8" target="_top" xlink:title="locomotor.components.types.\lCWeightedStringList.fromJSON">
<polygon fill="#ffffff" stroke="#000000" points="289.0781,-146.5 289.0781,-174.5 445.5029,-174.5 445.5029,-146.5 289.0781,-146.5"/>
<text text-anchor="start" x="297.0781" y="-162.5" font-family="Helvetica,sans-Serif" font-size="10.00" fill="#000000">locomotor.components.types.</text>
<text text-anchor="middle" x="367.2905" y="-152.5" font-family="Helvetica,sans-Serif" font-size="10.00" fill="#000000">CWeightedStringList.fromJSON</text>
</a>
</g>
</g>
<!-- Node2&#45;&gt;Node15 -->
<g id="edge16" class="edge">
<title>Node2&#45;&gt;Node15</title>
<path fill="none" stroke="#191970" d="M235.0628,-292.478C241.3595,-289.9398 247.4949,-286.9692 253.0781,-283.5 264.43,-276.4463 318.1641,-216.3373 347.7075,-182.8357"/>
<polygon fill="#191970" stroke="#191970" points="350.6772,-184.7591 354.6569,-174.9401 345.4226,-180.1342 350.6772,-184.7591"/>
</g>
<!-- Node19 -->
<g id="node19" class="node">
<title>Node19</title>
<g id="a_node19"><a xlink:href="classlocomotor_1_1components_1_1types_1_1_c_tree.html#a82724a3000f4e1d5ff5fed5365e1480f" target="_top" xlink:title="locomotor.components.types.\lCTree.fromJSON">
<polygon fill="#ffffff" stroke="#000000" points="294.2539,-43.5 294.2539,-71.5 440.3271,-71.5 440.3271,-43.5 294.2539,-43.5"/>
<text text-anchor="start" x="302.2539" y="-59.5" font-family="Helvetica,sans-Serif" font-size="10.00" fill="#000000">locomotor.components.types.</text>
<text text-anchor="middle" x="367.2905" y="-49.5" font-family="Helvetica,sans-Serif" font-size="10.00" fill="#000000">CTree.fromJSON</text>
</a>
</g>
</g>
<!-- Node2&#45;&gt;Node19 -->
<g id="edge22" class="edge">
<title>Node2&#45;&gt;Node19</title>
<path fill="none" stroke="#191970" d="M241.9521,-292.3741C246.0257,-289.875 249.797,-286.9417 253.0781,-283.5 299.1932,-235.1268 256.5731,-195.8951 289.0781,-137.5 301.9866,-114.31 323.3973,-93.0841 340.5565,-78.3323"/>
<polygon fill="#191970" stroke="#191970" points="343.1501,-80.7263 348.5827,-71.6303 338.6635,-75.3532 343.1501,-80.7263"/>
</g>
<!-- Node4 -->
<g id="node4" class="node">
<title>Node4</title>
<g id="a_node4"><a xlink:href="classlocomotor_1_1components_1_1types_1_1_c_boolean.html#a04219e3dc4a138fa88ee6876fb62eebc" target="_top" xlink:title="locomotor.components.types.\lCBoolean.CBoolean">
<polygon fill="#ffffff" stroke="#000000" points="508.832,-492.5 508.832,-520.5 654.9053,-520.5 654.9053,-492.5 508.832,-492.5"/>
<text text-anchor="start" x="516.832" y="-508.5" font-family="Helvetica,sans-Serif" font-size="10.00" fill="#000000">locomotor.components.types.</text>
<text text-anchor="middle" x="581.8687" y="-498.5" font-family="Helvetica,sans-Serif" font-size="10.00" fill="#000000">CBoolean.CBoolean</text>
</a>
</g>
</g>
<!-- Node3&#45;&gt;Node4 -->
<g id="edge3" class="edge">
<title>Node3&#45;&gt;Node4</title>
<path fill="none" stroke="#191970" d="M440.536,-486.7404C459.2492,-489.3567 479.5038,-492.1885 498.676,-494.8689"/>
<polygon fill="#191970" stroke="#191970" points="498.2009,-498.3364 508.5892,-496.2549 499.1702,-491.4039 498.2009,-498.3364"/>
</g>
<!-- Node5 -->
<g id="node5" class="node">
<title>Node5</title>
<g id="a_node5"><a xlink:href="classlocomotor_1_1components_1_1types_1_1_c_boolean.html#a9eac04fa64318139aa527377b2e03cc4" target="_top" xlink:title="locomotor.components.types.\lCBoolean.value">
<polygon fill="#ffffff" stroke="#000000" points="718.2344,-492.5 718.2344,-520.5 864.3076,-520.5 864.3076,-492.5 718.2344,-492.5"/>
<text text-anchor="start" x="726.2344" y="-508.5" font-family="Helvetica,sans-Serif" font-size="10.00" fill="#000000">locomotor.components.types.</text>
<text text-anchor="middle" x="791.271" y="-498.5" font-family="Helvetica,sans-Serif" font-size="10.00" fill="#000000">CBoolean.value</text>
</a>
</g>
</g>
<!-- Node4&#45;&gt;Node5 -->
<g id="edge4" class="edge">
<title>Node4&#45;&gt;Node5</title>
<path fill="none" stroke="#191970" d="M655.1074,-506.5C672.1637,-506.5 690.4479,-506.5 707.9057,-506.5"/>
<polygon fill="#191970" stroke="#191970" points="708.0736,-510.0001 718.0736,-506.5 708.0735,-503.0001 708.0736,-510.0001"/>
</g>
<!-- Node7 -->
<g id="node7" class="node">
<title>Node7</title>
<g id="a_node7"><a xlink:href="classlocomotor_1_1components_1_1types_1_1_c_interval.html#a8977ca8c87b00639da116d1441a878ec" target="_top" xlink:title="locomotor.components.types.\lCInterval.min">
<polygon fill="#ffffff" stroke="#000000" points="508.832,-398.5 508.832,-426.5 654.9053,-426.5 654.9053,-398.5 508.832,-398.5"/>
<text text-anchor="start" x="516.832" y="-414.5" font-family="Helvetica,sans-Serif" font-size="10.00" fill="#000000">locomotor.components.types.</text>
<text text-anchor="middle" x="581.8687" y="-404.5" font-family="Helvetica,sans-Serif" font-size="10.00" fill="#000000">CInterval.min</text>
</a>
</g>
</g>
<!-- Node6&#45;&gt;Node7 -->
<g id="edge6" class="edge">
<title>Node6&#45;&gt;Node7</title>
<path fill="none" stroke="#191970" d="M396.8165,-355.5715C419.5695,-366.0048 452.0218,-380.0055 481.5029,-389.5 488.6016,-391.7862 496.0521,-393.938 503.5512,-395.9386"/>
<polygon fill="#191970" stroke="#191970" points="502.8549,-399.3735 513.412,-398.4801 504.602,-392.595 502.8549,-399.3735"/>
</g>
<!-- Node8 -->
<g id="node8" class="node">
<title>Node8</title>
<g id="a_node8"><a xlink:href="classlocomotor_1_1components_1_1types_1_1_c_interval.html#a63edd36c00e0027edd899384e6f168f9" target="_top" xlink:title="locomotor.components.types.\lCInterval.max">
<polygon fill="#ffffff" stroke="#000000" points="508.832,-351.5 508.832,-379.5 654.9053,-379.5 654.9053,-351.5 508.832,-351.5"/>
<text text-anchor="start" x="516.832" y="-367.5" font-family="Helvetica,sans-Serif" font-size="10.00" fill="#000000">locomotor.components.types.</text>
<text text-anchor="middle" x="581.8687" y="-357.5" font-family="Helvetica,sans-Serif" font-size="10.00" fill="#000000">CInterval.max</text>
</a>
</g>
</g>
<!-- Node6&#45;&gt;Node8 -->
<g id="edge7" class="edge">
<title>Node6&#45;&gt;Node8</title>
<path fill="none" stroke="#191970" d="M440.536,-349.6923C459.1633,-351.7757 479.318,-354.03 498.4121,-356.1656"/>
<polygon fill="#191970" stroke="#191970" points="498.2621,-359.6706 508.5892,-357.3039 499.0403,-352.7139 498.2621,-359.6706"/>
</g>
<!-- Node9 -->
<g id="node9" class="node">
<title>Node9</title>
<g id="a_node9"><a xlink:href="classlocomotor_1_1components_1_1types_1_1_c_interval_integer.html#a4ece5be3d0255219efc9a1ec16f3775c" target="_top" xlink:title="locomotor.components.types.\lCIntervalInteger.CIntervalInteger">
<polygon fill="#ffffff" stroke="#000000" points="501.6055,-304.5 501.6055,-332.5 662.1318,-332.5 662.1318,-304.5 501.6055,-304.5"/>
<text text-anchor="start" x="509.6055" y="-320.5" font-family="Helvetica,sans-Serif" font-size="10.00" fill="#000000">locomotor.components.types.</text>
<text text-anchor="middle" x="581.8687" y="-310.5" font-family="Helvetica,sans-Serif" font-size="10.00" fill="#000000">CIntervalInteger.CIntervalInteger</text>
</a>
</g>
</g>
<!-- Node6&#45;&gt;Node9 -->
<g id="edge8" class="edge">
<title>Node6&#45;&gt;Node9</title>
<path fill="none" stroke="#191970" d="M440.536,-333.649C456.9775,-331.8867 474.6089,-329.9969 491.6506,-328.1702"/>
<polygon fill="#191970" stroke="#191970" points="492.0329,-331.6494 501.6029,-327.1034 491.2868,-324.6892 492.0329,-331.6494"/>
</g>
<!-- Node10&#45;&gt;Node7 -->
<g id="edge10" class="edge">
<title>Node10&#45;&gt;Node7</title>
<path fill="none" stroke="#191970" d="M440.536,-404.5962C459.1633,-405.6379 479.318,-406.765 498.4121,-407.8328"/>
<polygon fill="#191970" stroke="#191970" points="498.4094,-411.338 508.5892,-408.4019 498.8003,-404.3489 498.4094,-411.338"/>
</g>
<!-- Node10&#45;&gt;Node8 -->
<g id="edge11" class="edge">
<title>Node10&#45;&gt;Node8</title>
<path fill="none" stroke="#191970" d="M440.536,-388.5529C459.2492,-385.5006 479.5038,-382.1968 498.676,-379.0696"/>
<polygon fill="#191970" stroke="#191970" points="499.2831,-382.5169 508.5892,-377.4527 498.1562,-375.6082 499.2831,-382.5169"/>
</g>
<!-- Node11 -->
<g id="node11" class="node">
<title>Node11</title>
<g id="a_node11"><a xlink:href="classlocomotor_1_1components_1_1types_1_1_c_interval_double.html#a1c646d0efc9520469e000c2282ca3386" target="_top" xlink:title="locomotor.components.types.\lCIntervalDouble.CIntervalDouble">
<polygon fill="#ffffff" stroke="#000000" points="500.7754,-445.5 500.7754,-473.5 662.9619,-473.5 662.9619,-445.5 500.7754,-445.5"/>
<text text-anchor="start" x="508.7754" y="-461.5" font-family="Helvetica,sans-Serif" font-size="10.00" fill="#000000">locomotor.components.types.</text>
<text text-anchor="middle" x="581.8687" y="-451.5" font-family="Helvetica,sans-Serif" font-size="10.00" fill="#000000">CIntervalDouble.CIntervalDouble</text>
</a>
</g>
</g>
<!-- Node10&#45;&gt;Node11 -->
<g id="edge12" class="edge">
<title>Node10&#45;&gt;Node11</title>
<path fill="none" stroke="#191970" d="M409.0913,-414.5593C430.6056,-421.57 457.3272,-429.9311 481.5029,-436.5 489.8379,-438.7647 498.6018,-440.9939 507.3358,-443.1202"/>
<polygon fill="#191970" stroke="#191970" points="506.6194,-446.5475 517.1597,-445.4736 508.2503,-439.7401 506.6194,-446.5475"/>
</g>
<!-- Node13 -->
<g id="node13" class="node">
<title>Node13</title>
<g id="a_node13"><a xlink:href="classlocomotor_1_1components_1_1types_1_1_c_string_list.html#aa9063c07592d04038c8a37cae1214de5" target="_top" xlink:title="locomotor.components.types.\lCStringList.treeFromJSON">
<polygon fill="#ffffff" stroke="#000000" points="508.832,-257.5 508.832,-285.5 654.9053,-285.5 654.9053,-257.5 508.832,-257.5"/>
<text text-anchor="start" x="516.832" y="-273.5" font-family="Helvetica,sans-Serif" font-size="10.00" fill="#000000">locomotor.components.types.</text>
<text text-anchor="middle" x="581.8687" y="-263.5" font-family="Helvetica,sans-Serif" font-size="10.00" fill="#000000">CStringList.treeFromJSON</text>
</a>
</g>
</g>
<!-- Node12&#45;&gt;Node13 -->
<g id="edge14" class="edge">
<title>Node12&#45;&gt;Node13</title>
<path fill="none" stroke="#191970" d="M442.641,-271.5C460.6756,-271.5 480.035,-271.5 498.4118,-271.5"/>
<polygon fill="#191970" stroke="#191970" points="498.5055,-275.0001 508.5055,-271.5 498.5054,-268.0001 498.5055,-275.0001"/>
</g>
<!-- Node14 -->
<g id="node14" class="node">
<title>Node14</title>
<g id="a_node14"><a xlink:href="classlocomotor_1_1components_1_1types_1_1_c_mapped_string_list.html#a6ee84a38e1c5b58c08a7e9557cc959e1" target="_top" xlink:title="locomotor.components.types.\lCMappedStringList.CMappedStringList">
<polygon fill="#ffffff" stroke="#000000" points="487.4355,-210.5 487.4355,-238.5 676.3018,-238.5 676.3018,-210.5 487.4355,-210.5"/>
<text text-anchor="start" x="495.4355" y="-226.5" font-family="Helvetica,sans-Serif" font-size="10.00" fill="#000000">locomotor.components.types.</text>
<text text-anchor="middle" x="581.8687" y="-216.5" font-family="Helvetica,sans-Serif" font-size="10.00" fill="#000000">CMappedStringList.CMappedStringList</text>
</a>
</g>
</g>
<!-- Node12&#45;&gt;Node14 -->
<g id="edge15" class="edge">
<title>Node12&#45;&gt;Node14</title>
<path fill="none" stroke="#191970" d="M431.3804,-257.4621C455.3677,-252.2081 482.8134,-246.1965 507.6413,-240.7583"/>
<polygon fill="#191970" stroke="#191970" points="508.719,-244.1054 517.7385,-238.5467 507.2212,-237.2675 508.719,-244.1054"/>
</g>
<!-- Node16 -->
<g id="node16" class="node">
<title>Node16</title>
<g id="a_node16"><a xlink:href="classlocomotor_1_1components_1_1types_1_1_c_weighted_string_list.html#a97eb4ff6ea197b3a02c2db1c768c989a" target="_top" xlink:title="locomotor.components.types.\lCWeightedStringList.min">
<polygon fill="#ffffff" stroke="#000000" points="718.2344,-148.5 718.2344,-176.5 864.3076,-176.5 864.3076,-148.5 718.2344,-148.5"/>
<text text-anchor="start" x="726.2344" y="-164.5" font-family="Helvetica,sans-Serif" font-size="10.00" fill="#000000">locomotor.components.types.</text>
<text text-anchor="middle" x="791.271" y="-154.5" font-family="Helvetica,sans-Serif" font-size="10.00" fill="#000000">CWeightedStringList.min</text>
</a>
</g>
</g>
<!-- Node15&#45;&gt;Node16 -->
<g id="edge17" class="edge">
<title>Node15&#45;&gt;Node16</title>
<path fill="none" stroke="#191970" d="M445.622,-162.0531C457.6388,-162.2388 469.9019,-162.3984 481.5029,-162.5 558.1695,-163.1712 645.5133,-163.0948 707.8662,-162.8954"/>
<polygon fill="#191970" stroke="#191970" points="708.0532,-166.3949 718.0413,-162.861 708.0295,-159.3949 708.0532,-166.3949"/>
</g>
<!-- Node17 -->
<g id="node17" class="node">
<title>Node17</title>
<g id="a_node17"><a xlink:href="classlocomotor_1_1components_1_1types_1_1_c_weighted_string_list.html#a1847175a80cbae9533f68b32190a708d" target="_top" xlink:title="locomotor.components.types.\lCWeightedStringList.max">
<polygon fill="#ffffff" stroke="#000000" points="718.2344,-91.5 718.2344,-119.5 864.3076,-119.5 864.3076,-91.5 718.2344,-91.5"/>
<text text-anchor="start" x="726.2344" y="-107.5" font-family="Helvetica,sans-Serif" font-size="10.00" fill="#000000">locomotor.components.types.</text>
<text text-anchor="middle" x="791.271" y="-97.5" font-family="Helvetica,sans-Serif" font-size="10.00" fill="#000000">CWeightedStringList.max</text>
</a>
</g>
</g>
<!-- Node15&#45;&gt;Node17 -->
<g id="edge18" class="edge">
<title>Node15&#45;&gt;Node17</title>
<path fill="none" stroke="#191970" d="M395.0889,-146.4215C417.7177,-135.7372 450.8225,-121.8407 481.5029,-115.5 556.9992,-99.8974 645.0171,-98.627 707.8935,-100.5334"/>
<polygon fill="#191970" stroke="#191970" points="708.042,-104.0403 718.1543,-100.8794 708.278,-97.0443 708.042,-104.0403"/>
</g>
<!-- Node18 -->
<g id="node18" class="node">
<title>Node18</title>
<g id="a_node18"><a xlink:href="classlocomotor_1_1components_1_1types_1_1_c_weighted_string_list.html#af359d6fddb9c42710b6546ed2337eec7" target="_top" xlink:title="locomotor.components.types.\lCWeightedStringList.CWeightedStringList">
<polygon fill="#ffffff" stroke="#000000" points="481.5029,-124.5 481.5029,-152.5 682.2344,-152.5 682.2344,-124.5 481.5029,-124.5"/>
<text text-anchor="start" x="489.5029" y="-140.5" font-family="Helvetica,sans-Serif" font-size="10.00" fill="#000000">locomotor.components.types.</text>
<text text-anchor="middle" x="581.8687" y="-130.5" font-family="Helvetica,sans-Serif" font-size="10.00" fill="#000000">CWeightedStringList.CWeightedStringList</text>
</a>
</g>
</g>
<!-- Node15&#45;&gt;Node18 -->
<g id="edge19" class="edge">
<title>Node15&#45;&gt;Node18</title>
<path fill="none" stroke="#191970" d="M445.669,-152.4641C454.0158,-151.6083 462.6149,-150.7267 471.2427,-149.8421"/>
<polygon fill="#191970" stroke="#191970" points="471.7801,-153.3055 481.371,-148.8037 471.0661,-146.342 471.7801,-153.3055"/>
</g>
<!-- Node18&#45;&gt;Node16 -->
<g id="edge20" class="edge">
<title>Node18&#45;&gt;Node16</title>
<path fill="none" stroke="#191970" d="M682.2765,-150.0079C690.8582,-150.9915 699.4784,-151.9795 707.906,-152.9454"/>
<polygon fill="#191970" stroke="#191970" points="707.7412,-156.4493 718.0747,-154.1108 708.5383,-149.4948 707.7412,-156.4493"/>
</g>
<!-- Node18&#45;&gt;Node17 -->
<g id="edge21" class="edge">
<title>Node18&#45;&gt;Node17</title>
<path fill="none" stroke="#191970" d="M670.9777,-124.4572C683.2399,-122.5248 695.794,-120.5463 707.9467,-118.6312"/>
<polygon fill="#191970" stroke="#191970" points="708.7122,-122.0538 718.0454,-117.0397 707.6225,-115.1392 708.7122,-122.0538"/>
</g>
<!-- Node19&#45;&gt;Node19 -->
<g id="edge24" class="edge">
<title>Node19&#45;&gt;Node19</title>
<path fill="none" stroke="#191970" d="M334.8053,-71.5305C325.6613,-80.8898 336.4897,-90 367.2905,-90 386.541,-90 397.9898,-86.4413 401.6369,-81.4873"/>
<polygon fill="#191970" stroke="#191970" points="405.0536,-80.7171 399.7757,-71.5305 398.1728,-82.0033 405.0536,-80.7171"/>
</g>
<!-- Node20 -->
<g id="node20" class="node">
<title>Node20</title>
<g id="a_node20"><a xlink:href="classlocomotor_1_1components_1_1types_1_1_c_tree.html#af0e7a198496b1627d0ff15ce0e6de1f2" target="_top" xlink:title="locomotor.components.types.\lCTree.CTree">
<polygon fill="#ffffff" stroke="#000000" points="718.2344,-27.5 718.2344,-55.5 864.3076,-55.5 864.3076,-27.5 718.2344,-27.5"/>
<text text-anchor="start" x="726.2344" y="-43.5" font-family="Helvetica,sans-Serif" font-size="10.00" fill="#000000">locomotor.components.types.</text>
<text text-anchor="middle" x="791.271" y="-33.5" font-family="Helvetica,sans-Serif" font-size="10.00" fill="#000000">CTree.CTree</text>
</a>
</g>
</g>
<!-- Node19&#45;&gt;Node20 -->
<g id="edge23" class="edge">
<title>Node19&#45;&gt;Node20</title>
<path fill="none" stroke="#191970" d="M440.6583,-54.7313C515.0569,-51.9237 630.0198,-47.5852 707.8416,-44.6484"/>
<polygon fill="#191970" stroke="#191970" points="708.2312,-48.1363 718.092,-44.2616 707.9671,-41.1413 708.2312,-48.1363"/>
</g>
<!-- Node21 -->
<g id="node21" class="node">
<title>Node21</title>
<g id="a_node21"><a xlink:href="classlocomotor_1_1components_1_1types_1_1_c_tree.html#a74382cb3a3153edc32f1cfed8c4ee364" target="_top" xlink:title="locomotor.components.types.\lCTree.addChild">
<polygon fill="#ffffff" stroke="#000000" points="508.832,-.5 508.832,-28.5 654.9053,-28.5 654.9053,-.5 508.832,-.5"/>
<text text-anchor="start" x="516.832" y="-16.5" font-family="Helvetica,sans-Serif" font-size="10.00" fill="#000000">locomotor.components.types.</text>
<text text-anchor="middle" x="581.8687" y="-6.5" font-family="Helvetica,sans-Serif" font-size="10.00" fill="#000000">CTree.addChild</text>
</a>
</g>
</g>
<!-- Node19&#45;&gt;Node21 -->
<g id="edge25" class="edge">
<title>Node19&#45;&gt;Node21</title>
<path fill="none" stroke="#191970" d="M437.2545,-43.4797C457.9482,-39.3328 480.7583,-34.7618 502.0258,-30.5"/>
<polygon fill="#191970" stroke="#191970" points="502.8824,-33.898 511.9997,-28.5013 501.5069,-27.0344 502.8824,-33.898"/>
</g>
<!-- Node21&#45;&gt;Node20 -->
<g id="edge26" class="edge">
<title>Node21&#45;&gt;Node20</title>
<path fill="none" stroke="#191970" d="M655.1074,-23.9433C672.1637,-26.1425 690.4479,-28.5 707.9057,-30.751"/>
<polygon fill="#191970" stroke="#191970" points="707.7081,-34.2544 718.0736,-32.062 708.6033,-27.3119 707.7081,-34.2544"/>
</g>
</g>
</svg>
