<?xml version="1.0" encoding="UTF-8" standalone="no"?>
<!DOCTYPE svg PUBLIC "-//W3C//DTD SVG 1.1//EN"
 "http://www.w3.org/Graphics/SVG/1.1/DTD/svg11.dtd">
<!-- Generated by graphviz version 2.40.1 (20161225.0304)
 -->
<!-- Title: getUniverse Pages: 1 -->
<!--zoomable 188 -->
<svg id="main" version="1.1" xmlns="http://www.w3.org/2000/svg" xmlns:xlink="http://www.w3.org/1999/xlink" xml:space="preserve" onload="init(evt)">
<style type="text/css"><![CDATA[
.edge:hover path { stroke: red; }
.edge:hover polygon { stroke: red; fill: red; }
]]></style>
<script type="text/javascript"><![CDATA[
var edges = document.getElementsByTagName('g');
if (edges && edges.length) {
  for (var i=0;i<edges.length;i++) {
    if (edges[i].id.substr(0,4)=='edge') {
      edges[i].setAttribute('class','edge');
    }
  }
}
]]></script>
        <defs>
                <circle id="rim" cx="0" cy="0" r="7"/>
                <circle id="rim2" cx="0" cy="0" r="3.5"/>
                <g id="zoomPlus">
                        <use xlink:href="#rim" fill="#404040">
                                <set attributeName="fill" to="#808080" begin="zoomplus.mouseover" end="zoomplus.mouseout"/>
                        </use>
                        <path d="M-4,0h8M0,-4v8" fill="none" stroke="white" stroke-width="1.5" pointer-events="none"/>
                </g>
                <g id="zoomMin">
                        <use xlink:href="#rim" fill="#404040">
                                <set attributeName="fill" to="#808080" begin="zoomminus.mouseover" end="zoomminus.mouseout"/>
                        </use>
                        <path d="M-4,0h8" fill="none" stroke="white" stroke-width="1.5" pointer-events="none"/>
                </g>
                <g id="dirArrow">
                        <path fill="none" stroke="white" stroke-width="1.5" d="M0,-3.0v7 M-2.5,-0.5L0,-3.0L2.5,-0.5"/>
                </g>
               <g id="resetDef">
                       <use xlink:href="#rim2" fill="#404040">
                               <set attributeName="fill" to="#808080" begin="reset.mouseover" end="reset.mouseout"/>
                       </use>
               </g>
        </defs>

<script type="text/javascript">
var viewWidth = 1012;
var viewHeight = 188;
var sectionId = 'dynsection-4';
</script>
<script xlink:href="svgpan.js"/>
<svg id="graph" class="graph">
<g id="viewport">
<title>getUniverse</title>
<polygon fill="#ffffff" stroke="transparent" points="-4,4 -4,-184 1008.1543,-184 1008.1543,4 -4,4"/>
<!-- Node1 -->
<g id="node1" class="node">
<title>Node1</title>
<polygon fill="#bfbfbf" stroke="#000000" points="0,-94.5 0,-112.5 69.3594,-112.5 69.3594,-94.5 0,-94.5"/>
<text text-anchor="middle" x="34.6797" y="-100.5" font-family="Helvetica,sans-Serif" font-size="10.00" fill="#000000">getUniverse</text>
</g>
<!-- Node2 -->
<g id="node2" class="node">
<title>Node2</title>
<g id="a_node2"><a xlink:href="classlocomotor_1_1components_1_1models_1_1_item_criteria_full.html#a436730a3499b6d7b1d0359e12aa2f04a" target="_top" xlink:title="locomotor.components.models.\lItemCriteriaFull.fromJSON">
<polygon fill="#ffffff" stroke="#000000" points="105.3594,-151.5 105.3594,-179.5 259.7676,-179.5 259.7676,-151.5 105.3594,-151.5"/>
<text text-anchor="start" x="113.3594" y="-167.5" font-family="Helvetica,sans-Serif" font-size="10.00" fill="#000000">locomotor.components.models.</text>
<text text-anchor="middle" x="182.5635" y="-157.5" font-family="Helvetica,sans-Serif" font-size="10.00" fill="#000000">ItemCriteriaFull.fromJSON</text>
</a>
</g>
</g>
<!-- Node1&#45;&gt;Node2 -->
<g id="edge1" class="edge">
<title>Node1&#45;&gt;Node2</title>
<path fill="none" stroke="#191970" d="M62.4043,-117.0512C75.3507,-123.2222 91.0346,-130.4762 105.3594,-136.5 117.6339,-141.6616 131.1791,-146.9003 143.4518,-151.4787"/>
<polygon fill="#191970" stroke="#191970" points="63.6347,-113.7594 53.1055,-112.5817 60.6022,-120.0684 63.6347,-113.7594"/>
</g>
<!-- Node7 -->
<g id="node7" class="node">
<title>Node7</title>
<g id="a_node7"><a xlink:href="classlocomotor_1_1core_1_1_d_b_h.html#ae573347d7e17b2bf2bac3c4a41caf0fa" target="_top" xlink:title="locomotor.core.DBH.getItem">
<polygon fill="#ffffff" stroke="#000000" points="302.1665,-113.5 302.1665,-131.5 443.7769,-131.5 443.7769,-113.5 302.1665,-113.5"/>
<text text-anchor="middle" x="372.9717" y="-119.5" font-family="Helvetica,sans-Serif" font-size="10.00" fill="#000000">locomotor.core.DBH.getItem</text>
</a>
</g>
</g>
<!-- Node1&#45;&gt;Node7 -->
<g id="edge6" class="edge">
<title>Node1&#45;&gt;Node7</title>
<path fill="none" stroke="#191970" d="M79.7273,-106.0301C136.603,-109.2245 235.0983,-114.7564 302.0981,-118.5194"/>
<polygon fill="#191970" stroke="#191970" points="79.7893,-102.5281 69.6087,-105.4618 79.3967,-109.5171 79.7893,-102.5281"/>
</g>
<!-- Node8 -->
<g id="node8" class="node">
<title>Node8</title>
<g id="a_node8"><a xlink:href="classlocomotor_1_1core_1_1_d_b_h.html#a6856661b356e5441d182e061ef940aaf" target="_top" xlink:title="locomotor.core.DBH.getItems">
<polygon fill="#ffffff" stroke="#000000" points="109.2583,-75.5 109.2583,-93.5 255.8687,-93.5 255.8687,-75.5 109.2583,-75.5"/>
<text text-anchor="middle" x="182.5635" y="-81.5" font-family="Helvetica,sans-Serif" font-size="10.00" fill="#000000">locomotor.core.DBH.getItems</text>
</a>
</g>
</g>
<!-- Node1&#45;&gt;Node8 -->
<g id="edge8" class="edge">
<title>Node1&#45;&gt;Node8</title>
<path fill="none" stroke="#191970" d="M79.7062,-97.715C90.0205,-96.3899 101.2258,-94.9502 112.3198,-93.5249"/>
<polygon fill="#191970" stroke="#191970" points="79.1985,-94.2514 69.7261,-98.9973 80.0906,-101.1943 79.1985,-94.2514"/>
</g>
<!-- Node9 -->
<g id="node9" class="node">
<title>Node9</title>
<g id="a_node9"><a xlink:href="classlocomotor_1_1core_1_1_d_b_h.html#ad067053be75a3170dc9c2ce7b922e176" target="_top" xlink:title="locomotor.core.DBH.checking\lParsingItem">
<polygon fill="#ffffff" stroke="#000000" points="299.1074,-27.5 299.1074,-55.5 446.8359,-55.5 446.8359,-27.5 299.1074,-27.5"/>
<text text-anchor="start" x="307.1074" y="-43.5" font-family="Helvetica,sans-Serif" font-size="10.00" fill="#000000">locomotor.core.DBH.checking</text>
<text text-anchor="middle" x="372.9717" y="-33.5" font-family="Helvetica,sans-Serif" font-size="10.00" fill="#000000">ParsingItem</text>
</a>
</g>
</g>
<!-- Node1&#45;&gt;Node9 -->
<g id="edge10" class="edge">
<title>Node1&#45;&gt;Node9</title>
<path fill="none" stroke="#191970" d="M56.3317,-88.8819C69.8316,-80.5423 87.903,-70.7353 105.3594,-65.5 168.9178,-46.4383 244.4706,-41.1501 299.0637,-40.2141"/>
<polygon fill="#191970" stroke="#191970" points="54.3215,-86.0129 47.7797,-94.3469 58.0908,-91.9114 54.3215,-86.0129"/>
</g>
<!-- Node3 -->
<g id="node3" class="node">
<title>Node3</title>
<g id="a_node3"><a xlink:href="classlocomotor_1_1components_1_1models_1_1_item_category_full.html#a50ab7c0f8e4a65f80ca141f1fa1c7df8" target="_top" xlink:title="locomotor.components.models.\lItemCategoryFull.fromJSON">
<polygon fill="#ffffff" stroke="#000000" points="295.7676,-151.5 295.7676,-179.5 450.1758,-179.5 450.1758,-151.5 295.7676,-151.5"/>
<text text-anchor="start" x="303.7676" y="-167.5" font-family="Helvetica,sans-Serif" font-size="10.00" fill="#000000">locomotor.components.models.</text>
<text text-anchor="middle" x="372.9717" y="-157.5" font-family="Helvetica,sans-Serif" font-size="10.00" fill="#000000">ItemCategoryFull.fromJSON</text>
</a>
</g>
</g>
<!-- Node2&#45;&gt;Node3 -->
<g id="edge2" class="edge">
<title>Node2&#45;&gt;Node3</title>
<path fill="none" stroke="#191970" d="M270.2639,-165.5C278.7175,-165.5 287.2505,-165.5 295.594,-165.5"/>
<polygon fill="#191970" stroke="#191970" points="270.0098,-162.0001 260.0098,-165.5 270.0097,-169.0001 270.0098,-162.0001"/>
</g>
<!-- Node4 -->
<g id="node4" class="node">
<title>Node4</title>
<g id="a_node4"><a xlink:href="classlocomotor_1_1components_1_1models_1_1_item_full.html#afe56c5f49cb59d04ec69bbf32b58a2f8" target="_top" xlink:title="locomotor.components.models.\lItemFull.fromJSON">
<polygon fill="#ffffff" stroke="#000000" points="488.1191,-151.5 488.1191,-179.5 642.5273,-179.5 642.5273,-151.5 488.1191,-151.5"/>
<text text-anchor="start" x="496.1191" y="-167.5" font-family="Helvetica,sans-Serif" font-size="10.00" fill="#000000">locomotor.components.models.</text>
<text text-anchor="middle" x="565.3232" y="-157.5" font-family="Helvetica,sans-Serif" font-size="10.00" fill="#000000">ItemFull.fromJSON</text>
</a>
</g>
</g>
<!-- Node3&#45;&gt;Node4 -->
<g id="edge3" class="edge">
<title>Node3&#45;&gt;Node4</title>
<path fill="none" stroke="#191970" d="M460.6472,-165.5C469.7985,-165.5 479.0532,-165.5 488.0764,-165.5"/>
<polygon fill="#191970" stroke="#191970" points="460.377,-162.0001 450.377,-165.5 460.3769,-169.0001 460.377,-162.0001"/>
</g>
<!-- Node5 -->
<g id="node5" class="node">
<title>Node5</title>
<g id="a_node5"><a xlink:href="classlocomotor_1_1components_1_1network_1_1_a_p_i.html#a547463fbc7fb7b485886f0917e2c0b78" target="_top" xlink:title="locomotor.components.network.\lAPI.createHooks">
<polygon fill="#ffffff" stroke="#000000" points="680.4707,-70.5 680.4707,-98.5 837.6572,-98.5 837.6572,-70.5 680.4707,-70.5"/>
<text text-anchor="start" x="688.4707" y="-86.5" font-family="Helvetica,sans-Serif" font-size="10.00" fill="#000000">locomotor.components.network.</text>
<text text-anchor="middle" x="759.064" y="-76.5" font-family="Helvetica,sans-Serif" font-size="10.00" fill="#000000">API.createHooks</text>
</a>
</g>
</g>
<!-- Node4&#45;&gt;Node5 -->
<g id="edge4" class="edge">
<title>Node4&#45;&gt;Node5</title>
<path fill="none" stroke="#191970" d="M615.0457,-147.9267C624.8501,-144.2804 635.0244,-140.3675 644.4707,-136.5 673.7871,-124.4972 706.6569,-109.4089 729.6496,-98.5811"/>
<polygon fill="#191970" stroke="#191970" points="613.5823,-144.7357 605.4053,-151.4727 615.9989,-151.3053 613.5823,-144.7357"/>
</g>
<!-- Node6 -->
<g id="node6" class="node">
<title>Node6</title>
<g id="a_node6"><a xlink:href="classlocomotor_1_1core_1_1_main.html#a8b260eecbaabcef8473fd87ada040682" target="_top" xlink:title="locomotor.core.Main.main">
<polygon fill="#ffffff" stroke="#000000" points="873.6572,-75.5 873.6572,-93.5 1004.1543,-93.5 1004.1543,-75.5 873.6572,-75.5"/>
<text text-anchor="middle" x="938.9058" y="-81.5" font-family="Helvetica,sans-Serif" font-size="10.00" fill="#000000">locomotor.core.Main.main</text>
</a>
</g>
</g>
<!-- Node5&#45;&gt;Node6 -->
<g id="edge5" class="edge">
<title>Node5&#45;&gt;Node6</title>
<path fill="none" stroke="#191970" d="M847.857,-84.5C856.5453,-84.5 865.2476,-84.5 873.6395,-84.5"/>
<polygon fill="#191970" stroke="#191970" points="847.6836,-81.0001 837.6836,-84.5 847.6835,-88.0001 847.6836,-81.0001"/>
</g>
<!-- Node7&#45;&gt;Node5 -->
<g id="edge7" class="edge">
<title>Node7&#45;&gt;Node5</title>
<path fill="none" stroke="#191970" d="M454.1204,-116.0394C508.1121,-111.5655 580.5875,-105.224 644.4707,-98.5 656.0315,-97.2832 668.236,-95.8991 680.199,-94.486"/>
<polygon fill="#191970" stroke="#191970" points="453.5974,-112.5706 443.9189,-116.8807 454.1728,-119.5469 453.5974,-112.5706"/>
</g>
<!-- Node8&#45;&gt;Node5 -->
<g id="edge9" class="edge">
<title>Node8&#45;&gt;Node5</title>
<path fill="none" stroke="#191970" d="M266.0134,-84.5C376.9859,-84.5 571.7193,-84.5 680.2828,-84.5"/>
<polygon fill="#191970" stroke="#191970" points="265.8703,-81.0001 255.8702,-84.5 265.8702,-88.0001 265.8703,-81.0001"/>
</g>
<!-- Node10 -->
<g id="node10" class="node">
<title>Node10</title>
<g id="a_node10"><a xlink:href="classlocomotor_1_1core_1_1_d_b_h.html#ae26eef1ee7482f2e0167c6a18924d214" target="_top" xlink:title="locomotor.core.DBH.addItem">
<polygon fill="#ffffff" stroke="#000000" points="493.1265,-37.5 493.1265,-55.5 637.52,-55.5 637.52,-37.5 493.1265,-37.5"/>
<text text-anchor="middle" x="565.3232" y="-43.5" font-family="Helvetica,sans-Serif" font-size="10.00" fill="#000000">locomotor.core.DBH.addItem</text>
</a>
</g>
</g>
<!-- Node9&#45;&gt;Node10 -->
<g id="edge11" class="edge">
<title>Node9&#45;&gt;Node10</title>
<path fill="none" stroke="#191970" d="M457.3779,-43.6941C469.2052,-44.0015 481.2735,-44.3152 492.8528,-44.6162"/>
<polygon fill="#191970" stroke="#191970" points="457.1523,-40.1871 447.0647,-43.426 456.9703,-47.1847 457.1523,-40.1871"/>
</g>
<!-- Node11 -->
<g id="node11" class="node">
<title>Node11</title>
<g id="a_node11"><a xlink:href="classlocomotor_1_1core_1_1_d_b_h.html#aa0e39c547d06fd9d0ad2de70251c9cc0" target="_top" xlink:title="locomotor.core.DBH.updateItem">
<polygon fill="#ffffff" stroke="#000000" points="486.1758,-.5 486.1758,-18.5 644.4707,-18.5 644.4707,-.5 486.1758,-.5"/>
<text text-anchor="middle" x="565.3232" y="-6.5" font-family="Helvetica,sans-Serif" font-size="10.00" fill="#000000">locomotor.core.DBH.updateItem</text>
</a>
</g>
</g>
<!-- Node9&#45;&gt;Node11 -->
<g id="edge13" class="edge">
<title>Node9&#45;&gt;Node11</title>
<path fill="none" stroke="#191970" d="M457.1306,-27.4992C475.3887,-24.4617 494.2337,-21.3266 510.9778,-18.541"/>
<polygon fill="#191970" stroke="#191970" points="456.3547,-24.08 447.0647,-29.1737 457.5035,-30.9851 456.3547,-24.08"/>
</g>
<!-- Node10&#45;&gt;Node5 -->
<g id="edge12" class="edge">
<title>Node10&#45;&gt;Node5</title>
<path fill="none" stroke="#191970" d="M621.1087,-57.4417C641.7616,-61.4925 665.4727,-66.1432 687.3457,-70.4333"/>
<polygon fill="#191970" stroke="#191970" points="621.7238,-53.9957 611.2371,-55.5055 620.3764,-60.8648 621.7238,-53.9957"/>
</g>
<!-- Node11&#45;&gt;Node5 -->
<g id="edge14" class="edge">
<title>Node11&#45;&gt;Node5</title>
<path fill="none" stroke="#191970" d="M623.3295,-21.0111C630.5237,-22.9296 637.7182,-25.0916 644.4707,-27.5 676.9101,-39.0699 712.0764,-57.5251 734.7755,-70.2866"/>
<polygon fill="#191970" stroke="#191970" points="624.1136,-17.5993 613.5612,-18.5457 622.4006,-24.3865 624.1136,-17.5993"/>
</g>
</g>
</svg>
        <g id="navigator" transform="translate(0 0)" fill="#404254">
                <rect fill="#f2f5e9" fill-opacity="0.5" stroke="#606060" stroke-width=".5" x="0" y="0" width="60" height="60"/>
                <use id="zoomplus" xlink:href="#zoomPlus" x="17" y="9" onmousedown="handleZoom(evt,'in')"/>
                <use id="zoomminus" xlink:href="#zoomMin" x="42" y="9" onmousedown="handleZoom(evt,'out')"/>
                <use id="reset" xlink:href="#resetDef" x="30" y="36" onmousedown="handleReset()"/>
                <g id="arrowUp" xlink:href="#dirArrow" transform="translate(30 24)" onmousedown="handlePan(0,-1)">
                  <use xlink:href="#rim" fill="#404040">
                        <set attributeName="fill" to="#808080" begin="arrowUp.mouseover" end="arrowUp.mouseout"/>
                  </use>
                  <path fill="none" stroke="white" stroke-width="1.5" d="M0,-3.0v7 M-2.5,-0.5L0,-3.0L2.5,-0.5"/>
                </g>
                <g id="arrowRight" xlink:href="#dirArrow" transform="rotate(90) translate(36 -43)" onmousedown="handlePan(1,0)">
                  <use xlink:href="#rim" fill="#404040">
                        <set attributeName="fill" to="#808080" begin="arrowRight.mouseover" end="arrowRight.mouseout"/>
                  </use>
                  <path fill="none" stroke="white" stroke-width="1.5" d="M0,-3.0v7 M-2.5,-0.5L0,-3.0L2.5,-0.5"/>
                </g>
                <g id="arrowDown" xlink:href="#dirArrow" transform="rotate(180) translate(-30 -48)" onmousedown="handlePan(0,1)">
                  <use xlink:href="#rim" fill="#404040">
                        <set attributeName="fill" to="#808080" begin="arrowDown.mouseover" end="arrowDown.mouseout"/>
                  </use>
                  <path fill="none" stroke="white" stroke-width="1.5" d="M0,-3.0v7 M-2.5,-0.5L0,-3.0L2.5,-0.5"/>
                </g>
                <g id="arrowLeft" xlink:href="#dirArrow" transform="rotate(270) translate(-36 17)" onmousedown="handlePan(-1,0)">
                  <use xlink:href="#rim" fill="#404040">
                        <set attributeName="fill" to="#808080" begin="arrowLeft.mouseover" end="arrowLeft.mouseout"/>
                  </use>
                  <path fill="none" stroke="white" stroke-width="1.5" d="M0,-3.0v7 M-2.5,-0.5L0,-3.0L2.5,-0.5"/>
                </g>
        </g>
        <svg viewBox="0 0 15 15" width="100%" height="30px" preserveAspectRatio="xMaxYMin meet">
         <g id="arrow_out" transform="scale(0.3 0.3)">
          <a xlink:href="classlocomotor_1_1components_1_1models_1_1_criteria_model_afe6cac49dd51cda8f8dfedab30c83009_icgraph_org.svg" target="_base">
           <rect id="button" ry="5" rx="5" y="6" x="6" height="38" width="38"
                fill="#f2f5e9" fill-opacity="0.5" stroke="#606060" stroke-width="1.0"/>
           <path id="arrow"
             d="M 11.500037,31.436501 C 11.940474,20.09759 22.043105,11.32322 32.158766,21.979434 L 37.068811,17.246167 C 37.068811,17.246167 37.088388,32 37.088388,32 L 22.160133,31.978069 C 22.160133,31.978069 26.997745,27.140456 26.997745,27.140456 C 18.528582,18.264221 13.291696,25.230495 11.500037,31.436501 z"
             style="fill:#404040;"/>
          </a>
         </g>
        </svg>
</svg>
