<?xml version="1.0" encoding="UTF-8" standalone="no"?>
<!DOCTYPE svg PUBLIC "-//W3C//DTD SVG 1.1//EN"
 "http://www.w3.org/Graphics/SVG/1.1/DTD/svg11.dtd">
<!-- Generated by graphviz version 2.40.1 (20161225.0304)
 -->
<!-- Title: getInstance Pages: 1 -->
<!--zoomable 564 -->
<svg id="main" version="1.1" xmlns="http://www.w3.org/2000/svg" xmlns:xlink="http://www.w3.org/1999/xlink" xml:space="preserve" onload="init(evt)">
<style type="text/css"><![CDATA[
.edge:hover path { stroke: red; }
.edge:hover polygon { stroke: red; fill: red; }
]]></style>
<script type="text/javascript"><![CDATA[
var edges = document.getElementsByTagName('g');
if (edges && edges.length) {
  for (var i=0;i<edges.length;i++) {
    if (edges[i].id.substr(0,4)=='edge') {
      edges[i].setAttribute('class','edge');
    }
  }
}
]]></script>
        <defs>
                <circle id="rim" cx="0" cy="0" r="7"/>
                <circle id="rim2" cx="0" cy="0" r="3.5"/>
                <g id="zoomPlus">
                        <use xlink:href="#rim" fill="#404040">
                                <set attributeName="fill" to="#808080" begin="zoomplus.mouseover" end="zoomplus.mouseout"/>
                        </use>
                        <path d="M-4,0h8M0,-4v8" fill="none" stroke="white" stroke-width="1.5" pointer-events="none"/>
                </g>
                <g id="zoomMin">
                        <use xlink:href="#rim" fill="#404040">
                                <set attributeName="fill" to="#808080" begin="zoomminus.mouseover" end="zoomminus.mouseout"/>
                        </use>
                        <path d="M-4,0h8" fill="none" stroke="white" stroke-width="1.5" pointer-events="none"/>
                </g>
                <g id="dirArrow">
                        <path fill="none" stroke="white" stroke-width="1.5" d="M0,-3.0v7 M-2.5,-0.5L0,-3.0L2.5,-0.5"/>
                </g>
               <g id="resetDef">
                       <use xlink:href="#rim2" fill="#404040">
                               <set attributeName="fill" to="#808080" begin="reset.mouseover" end="reset.mouseout"/>
                       </use>
               </g>
        </defs>

<script type="text/javascript">
var viewWidth = 860;
var viewHeight = 564;
var sectionId = 'dynsection-38';
</script>
<script xlink:href="svgpan.js"/>
<svg id="graph" class="graph">
<g id="viewport">
<title>getInstance</title>
<polygon fill="#ffffff" stroke="transparent" points="-4,4 -4,-559.9806 855.5488,-559.9806 855.5488,4 -4,4"/>
<!-- Node1 -->
<g id="node1" class="node">
<title>Node1</title>
<polygon fill="#bfbfbf" stroke="#000000" points="0,-250.1174 0,-268.1174 67.7041,-268.1174 67.7041,-250.1174 0,-250.1174"/>
<text text-anchor="middle" x="33.8521" y="-256.1174" font-family="Helvetica,sans-Serif" font-size="10.00" fill="#000000">getInstance</text>
</g>
<!-- Node2 -->
<g id="node2" class="node">
<title>Node2</title>
<g id="a_node2"><a xlink:href="classlocomotor_1_1components_1_1network_1_1_a_p_i.html#a547463fbc7fb7b485886f0917e2c0b78" target="_top" xlink:title="locomotor.components.network.\lAPI.createHooks">
<polygon fill="#ffffff" stroke="#000000" points="527.8652,-261.1174 527.8652,-289.1174 685.0518,-289.1174 685.0518,-261.1174 527.8652,-261.1174"/>
<text text-anchor="start" x="535.8652" y="-277.1174" font-family="Helvetica,sans-Serif" font-size="10.00" fill="#000000">locomotor.components.network.</text>
<text text-anchor="middle" x="606.4585" y="-267.1174" font-family="Helvetica,sans-Serif" font-size="10.00" fill="#000000">API.createHooks</text>
</a>
</g>
</g>
<!-- Node1&#45;&gt;Node2 -->
<g id="edge1" class="edge">
<title>Node1&#45;&gt;Node2</title>
<path fill="none" stroke="#191970" d="M37.0586,-278.6264C43.4196,-310.2282 60.9132,-371.731 103.7041,-398.1174 177.2133,-443.4459 412.7587,-413.7646 491.8652,-379.1174 537.8849,-358.9616 577.8179,-312.7594 596.0011,-289.3178"/>
<polygon fill="#191970" stroke="#191970" points="40.44,-277.6609 35.1925,-268.4569 33.5549,-278.9244 40.44,-277.6609"/>
</g>
<!-- Node3 -->
<g id="node3" class="node">
<title>Node3</title>
<g id="a_node3"><a xlink:href="classlocomotor_1_1core_1_1_main.html#a8b260eecbaabcef8473fd87ada040682" target="_top" xlink:title="locomotor.core.Main.main">
<polygon fill="#ffffff" stroke="#000000" points="721.0518,-457.1174 721.0518,-475.1174 851.5488,-475.1174 851.5488,-457.1174 721.0518,-457.1174"/>
<text text-anchor="middle" x="786.3003" y="-463.1174" font-family="Helvetica,sans-Serif" font-size="10.00" fill="#000000">locomotor.core.Main.main</text>
</a>
</g>
</g>
<!-- Node1&#45;&gt;Node3 -->
<g id="edge31" class="edge">
<title>Node1&#45;&gt;Node3</title>
<path fill="none" stroke="#191970" d="M37.1343,-278.3209C45.855,-326.8715 71.176,-452.4224 103.7041,-477.1174 313.0346,-636.039 671.8829,-511.3878 764.1559,-475.1893"/>
<polygon fill="#191970" stroke="#191970" points="40.5377,-277.465 35.3619,-268.2204 33.643,-278.6749 40.5377,-277.465"/>
</g>
<!-- Node4 -->
<g id="node4" class="node">
<title>Node4</title>
<g id="a_node4"><a xlink:href="classlocomotor_1_1core_1_1_comparator.html#a2ac714803f2cf6e544315619a14ff13c" target="_top" xlink:title="locomotor.core.Comparator.toJSON">
<polygon fill="#ffffff" stroke="#000000" points="103.7041,-306.1174 103.7041,-324.1174 278.1123,-324.1174 278.1123,-306.1174 103.7041,-306.1174"/>
<text text-anchor="middle" x="190.9082" y="-312.1174" font-family="Helvetica,sans-Serif" font-size="10.00" fill="#000000">locomotor.core.Comparator.toJSON</text>
</a>
</g>
</g>
<!-- Node1&#45;&gt;Node4 -->
<g id="edge3" class="edge">
<title>Node1&#45;&gt;Node4</title>
<path fill="none" stroke="#191970" d="M56.6012,-273.7228C69.8813,-281.6707 87.2213,-291.0841 103.7041,-297.1174 113.5755,-300.7307 124.3556,-303.6945 134.8651,-306.0989"/>
<polygon fill="#191970" stroke="#191970" points="58.0712,-270.5181 47.719,-268.2637 54.4059,-276.4818 58.0712,-270.5181"/>
</g>
<!-- Node6 -->
<g id="node6" class="node">
<title>Node6</title>
<g id="a_node6"><a xlink:href="classlocomotor_1_1core_1_1_d_b_h.html#a17eef13d222e2f7d4cc413a965de3069" target="_top" xlink:title="registerUser">
<polygon fill="#ffffff" stroke="#000000" points="367.7598,-457.1174 367.7598,-475.1174 438.2178,-475.1174 438.2178,-457.1174 367.7598,-457.1174"/>
<text text-anchor="middle" x="402.9888" y="-463.1174" font-family="Helvetica,sans-Serif" font-size="10.00" fill="#000000">registerUser</text>
</a>
</g>
</g>
<!-- Node1&#45;&gt;Node6 -->
<g id="edge6" class="edge">
<title>Node1&#45;&gt;Node6</title>
<path fill="none" stroke="#191970" d="M34.8285,-278.6558C37.9057,-317.1238 50.6799,-402.3833 103.7041,-442.1174 182.1257,-500.8832 306.7718,-486.2801 367.4568,-474.3759"/>
<polygon fill="#191970" stroke="#191970" points="38.2978,-278.0715 34.151,-268.3219 31.3128,-278.5295 38.2978,-278.0715"/>
</g>
<!-- Node7 -->
<g id="node7" class="node">
<title>Node7</title>
<g id="a_node7"><a xlink:href="classlocomotor_1_1core_1_1_d_b_h.html#ae26eef1ee7482f2e0167c6a18924d214" target="_top" xlink:title="addItem">
<polygon fill="#ffffff" stroke="#000000" points="376.9224,-228.1174 376.9224,-246.1174 429.0552,-246.1174 429.0552,-228.1174 376.9224,-228.1174"/>
<text text-anchor="middle" x="402.9888" y="-234.1174" font-family="Helvetica,sans-Serif" font-size="10.00" fill="#000000">addItem</text>
</a>
</g>
</g>
<!-- Node1&#45;&gt;Node7 -->
<g id="edge9" class="edge">
<title>Node1&#45;&gt;Node7</title>
<path fill="none" stroke="#191970" d="M78.3258,-256.4668C155.9964,-251.8378 314.0496,-242.4181 376.6265,-238.6886"/>
<polygon fill="#191970" stroke="#191970" points="77.6919,-252.9983 67.9179,-257.0871 78.1084,-259.9859 77.6919,-252.9983"/>
</g>
<!-- Node8 -->
<g id="node8" class="node">
<title>Node8</title>
<g id="a_node8"><a xlink:href="classlocomotor_1_1core_1_1_d_b_h.html#aa0e39c547d06fd9d0ad2de70251c9cc0" target="_top" xlink:title="updateItem">
<polygon fill="#ffffff" stroke="#000000" points="369.9717,-191.1174 369.9717,-209.1174 436.0059,-209.1174 436.0059,-191.1174 369.9717,-191.1174"/>
<text text-anchor="middle" x="402.9888" y="-197.1174" font-family="Helvetica,sans-Serif" font-size="10.00" fill="#000000">updateItem</text>
</a>
</g>
</g>
<!-- Node1&#45;&gt;Node8 -->
<g id="edge11" class="edge">
<title>Node1&#45;&gt;Node8</title>
<path fill="none" stroke="#191970" d="M44.1726,-241.3649C55.9338,-223.0992 77.0282,-195.7262 103.7041,-184.1174 196.9797,-143.5258 322.3326,-174.2626 376.3719,-191.0577"/>
<polygon fill="#191970" stroke="#191970" points="41.1475,-239.6026 38.8928,-249.9547 47.1111,-243.2681 41.1475,-239.6026"/>
</g>
<!-- Node9 -->
<g id="node9" class="node">
<title>Node9</title>
<g id="a_node9"><a xlink:href="classlocomotor_1_1core_1_1_d_b_h.html#ad067053be75a3170dc9c2ce7b922e176" target="_top" xlink:title="checkingParsingItem">
<polygon fill="#ffffff" stroke="#000000" points="136.4971,-193.1174 136.4971,-211.1174 245.3193,-211.1174 245.3193,-193.1174 136.4971,-193.1174"/>
<text text-anchor="middle" x="190.9082" y="-199.1174" font-family="Helvetica,sans-Serif" font-size="10.00" fill="#000000">checkingParsingItem</text>
</a>
</g>
</g>
<!-- Node1&#45;&gt;Node9 -->
<g id="edge13" class="edge">
<title>Node1&#45;&gt;Node9</title>
<path fill="none" stroke="#191970" d="M60.2089,-245.3424C73.0968,-238.9507 88.9723,-231.5779 103.7041,-226.1174 119.3112,-220.3326 136.9446,-215.2235 152.2505,-211.2225"/>
<polygon fill="#191970" stroke="#191970" points="58.3526,-242.3588 51.0042,-249.991 61.5083,-248.6072 58.3526,-242.3588"/>
</g>
<!-- Node10 -->
<g id="node10" class="node">
<title>Node10</title>
<g id="a_node10"><a xlink:href="classlocomotor_1_1core_1_1_d_b_h.html#a048720c7d5d922d646d5ee0ff38f78ad" target="_top" xlink:title="removeItem">
<polygon fill="#ffffff" stroke="#000000" points="156.5117,-117.1174 156.5117,-135.1174 225.3047,-135.1174 225.3047,-117.1174 156.5117,-117.1174"/>
<text text-anchor="middle" x="190.9082" y="-123.1174" font-family="Helvetica,sans-Serif" font-size="10.00" fill="#000000">removeItem</text>
</a>
</g>
</g>
<!-- Node1&#45;&gt;Node10 -->
<g id="edge16" class="edge">
<title>Node1&#45;&gt;Node10</title>
<path fill="none" stroke="#191970" d="M40.878,-240.3283C50.998,-215.8556 72.0156,-173.4521 103.7041,-150.1174 119.0036,-138.8512 139.322,-132.8734 156.4969,-129.7017"/>
<polygon fill="#191970" stroke="#191970" points="37.5179,-239.3084 37.1019,-249.895 44.029,-241.8784 37.5179,-239.3084"/>
</g>
<!-- Node11 -->
<g id="node11" class="node">
<title>Node11</title>
<g id="a_node11"><a xlink:href="classlocomotor_1_1core_1_1_d_b_h.html#a2b2232ca307c4877316e8b6097902f2c" target="_top" xlink:title="addUniverse">
<polygon fill="#ffffff" stroke="#000000" points="366.9175,-79.1174 366.9175,-97.1174 439.0601,-97.1174 439.0601,-79.1174 366.9175,-79.1174"/>
<text text-anchor="middle" x="402.9888" y="-85.1174" font-family="Helvetica,sans-Serif" font-size="10.00" fill="#000000">addUniverse</text>
</a>
</g>
</g>
<!-- Node1&#45;&gt;Node11 -->
<g id="edge18" class="edge">
<title>Node1&#45;&gt;Node11</title>
<path fill="none" stroke="#191970" d="M36.4791,-239.7219C42.1255,-206.4247 58.7738,-138.9961 103.7041,-108.1174 183.7441,-53.1094 306.0042,-67.6351 366.4883,-79.5764"/>
<polygon fill="#191970" stroke="#191970" points="32.9653,-239.5459 34.9124,-249.9603 39.8848,-240.6048 32.9653,-239.5459"/>
</g>
<!-- Node12 -->
<g id="node12" class="node">
<title>Node12</title>
<g id="a_node12"><a xlink:href="classlocomotor_1_1core_1_1_d_b_h.html#a0565ab8a7a56491fca163a1b0977c0db" target="_top" xlink:title="updateUniverse">
<polygon fill="#ffffff" stroke="#000000" points="359.9668,-41.1174 359.9668,-59.1174 446.0107,-59.1174 446.0107,-41.1174 359.9668,-41.1174"/>
<text text-anchor="middle" x="402.9888" y="-47.1174" font-family="Helvetica,sans-Serif" font-size="10.00" fill="#000000">updateUniverse</text>
</a>
</g>
</g>
<!-- Node1&#45;&gt;Node12 -->
<g id="edge20" class="edge">
<title>Node1&#45;&gt;Node12</title>
<path fill="none" stroke="#191970" d="M36.7768,-239.9722C44.8719,-189.7938 69.2719,-56.5803 103.7041,-31.1174 190.1467,32.8077 331.8684,-18.7591 383.4429,-41.0909"/>
<polygon fill="#191970" stroke="#191970" points="33.2807,-239.6742 35.1848,-250.0965 40.1957,-240.7615 33.2807,-239.6742"/>
</g>
<!-- Node13 -->
<g id="node13" class="node">
<title>Node13</title>
<g id="a_node13"><a xlink:href="classlocomotor_1_1core_1_1_d_b_h.html#a756e5af44b74ea39a44a71cde06102fd" target="_top" xlink:title="checkingParsingUniverse">
<polygon fill="#ffffff" stroke="#000000" points="126.4922,-41.1174 126.4922,-59.1174 255.3242,-59.1174 255.3242,-41.1174 126.4922,-41.1174"/>
<text text-anchor="middle" x="190.9082" y="-47.1174" font-family="Helvetica,sans-Serif" font-size="10.00" fill="#000000">checkingParsingUniverse</text>
</a>
</g>
</g>
<!-- Node1&#45;&gt;Node13 -->
<g id="edge22" class="edge">
<title>Node1&#45;&gt;Node13</title>
<path fill="none" stroke="#191970" d="M35.5019,-239.6789C39.7574,-202.0388 54.4986,-118.9713 103.7041,-74.1174 110.899,-67.5588 119.7238,-62.7694 128.967,-59.2768"/>
<polygon fill="#191970" stroke="#191970" points="32.0013,-239.5112 34.4913,-249.8093 38.9667,-240.2061 32.0013,-239.5112"/>
</g>
<!-- Node14 -->
<g id="node14" class="node">
<title>Node14</title>
<g id="a_node14"><a xlink:href="classlocomotor_1_1core_1_1_d_b_h.html#a46cbafb4c7422171cf07c3d0521d3f47" target="_top" xlink:title="removeUniverse">
<polygon fill="#ffffff" stroke="#000000" points="358.5874,-351.1174 358.5874,-369.1174 447.3901,-369.1174 447.3901,-351.1174 358.5874,-351.1174"/>
<text text-anchor="middle" x="402.9888" y="-357.1174" font-family="Helvetica,sans-Serif" font-size="10.00" fill="#000000">removeUniverse</text>
</a>
</g>
</g>
<!-- Node1&#45;&gt;Node14 -->
<g id="edge25" class="edge">
<title>Node1&#45;&gt;Node14</title>
<path fill="none" stroke="#191970" d="M39.2307,-277.8871C47.91,-304.232 67.7762,-351.1821 103.7041,-371.1174 193.7236,-421.0664 323.5279,-387.1703 377.7248,-369.2472"/>
<polygon fill="#191970" stroke="#191970" points="42.5635,-276.8171 36.2676,-268.2958 35.8754,-278.8834 42.5635,-276.8171"/>
</g>
<!-- Node15 -->
<g id="node15" class="node">
<title>Node15</title>
<g id="a_node15"><a xlink:href="classlocomotor_1_1core_1_1_d_b_h.html#a97b6d481686edd4c5a932108475e5e1c" target="_top" xlink:title="deleteItemWith">
<polygon fill="#ffffff" stroke="#000000" points="149.561,-343.1174 149.561,-361.1174 232.2554,-361.1174 232.2554,-343.1174 149.561,-343.1174"/>
<text text-anchor="middle" x="190.9082" y="-349.1174" font-family="Helvetica,sans-Serif" font-size="10.00" fill="#000000">deleteItemWith</text>
</a>
</g>
</g>
<!-- Node1&#45;&gt;Node15 -->
<g id="edge27" class="edge">
<title>Node1&#45;&gt;Node15</title>
<path fill="none" stroke="#191970" d="M45.4125,-276.8593C57.7242,-294.2543 78.8401,-320.1364 103.7041,-334.1174 117.4482,-341.8457 134.0839,-346.2731 149.1249,-348.8031"/>
<polygon fill="#191970" stroke="#191970" points="48.0341,-274.491 39.5106,-268.198 42.2494,-278.4328 48.0341,-274.491"/>
</g>
<!-- Node16 -->
<g id="node16" class="node">
<title>Node16</title>
<g id="a_node16"><a xlink:href="classlocomotor_1_1core_1_1_d_b_h.html#ad707f520f60fe68ea8a8818698560d9d" target="_top" xlink:title="authAdmin">
<polygon fill="#ffffff" stroke="#000000" points="159.0044,-269.1174 159.0044,-287.1174 222.812,-287.1174 222.812,-269.1174 159.0044,-269.1174"/>
<text text-anchor="middle" x="190.9082" y="-275.1174" font-family="Helvetica,sans-Serif" font-size="10.00" fill="#000000">authAdmin</text>
</a>
</g>
</g>
<!-- Node1&#45;&gt;Node16 -->
<g id="edge29" class="edge">
<title>Node1&#45;&gt;Node16</title>
<path fill="none" stroke="#191970" d="M78.1515,-264.4766C103.8054,-267.5801 135.5187,-271.4166 158.7718,-274.2297"/>
<polygon fill="#191970" stroke="#191970" points="78.2789,-260.9665 67.9309,-263.2401 77.4381,-267.9159 78.2789,-260.9665"/>
</g>
<!-- Node2&#45;&gt;Node3 -->
<g id="edge2" class="edge">
<title>Node2&#45;&gt;Node3</title>
<path fill="none" stroke="#191970" d="M626.6391,-296.5501C665.6865,-338.0202 750.1423,-427.716 777.5321,-456.8052"/>
<polygon fill="#191970" stroke="#191970" points="629.0861,-294.0433 619.6827,-289.1621 623.9897,-298.842 629.0861,-294.0433"/>
</g>
<!-- Node5 -->
<g id="node5" class="node">
<title>Node5</title>
<g id="a_node5"><a xlink:href="classlocomotor_1_1core_1_1_comparator.html#a092fb76ad264eeccd8f30eadb70e36e3" target="_top" xlink:title="locomotor.core.Comparator.compute\lGradeOfItems">
<polygon fill="#ffffff" stroke="#000000" points="314.1123,-304.1174 314.1123,-332.1174 491.8652,-332.1174 491.8652,-304.1174 314.1123,-304.1174"/>
<text text-anchor="start" x="322.1123" y="-320.1174" font-family="Helvetica,sans-Serif" font-size="10.00" fill="#000000">locomotor.core.Comparator.compute</text>
<text text-anchor="middle" x="402.9888" y="-310.1174" font-family="Helvetica,sans-Serif" font-size="10.00" fill="#000000">GradeOfItems</text>
</a>
</g>
</g>
<!-- Node4&#45;&gt;Node5 -->
<g id="edge4" class="edge">
<title>Node4&#45;&gt;Node5</title>
<path fill="none" stroke="#191970" d="M288.6496,-316.5C297.0981,-316.6195 305.6173,-316.74 313.9909,-316.8585"/>
<polygon fill="#191970" stroke="#191970" points="288.4425,-312.9968 278.3939,-316.3549 288.3434,-319.9961 288.4425,-312.9968"/>
</g>
<!-- Node5&#45;&gt;Node2 -->
<g id="edge5" class="edge">
<title>Node5&#45;&gt;Node2</title>
<path fill="none" stroke="#191970" d="M479.3389,-301.9821C499.3532,-297.7524 520.7678,-293.2267 540.2066,-289.1187"/>
<polygon fill="#191970" stroke="#191970" points="478.391,-298.605 469.3308,-304.0971 479.8384,-305.4537 478.391,-298.605"/>
</g>
<!-- Node6&#45;&gt;Node2 -->
<g id="edge7" class="edge">
<title>Node6&#45;&gt;Node2</title>
<path fill="none" stroke="#191970" d="M448.3888,-460.272C463.2303,-456.7566 479.1516,-451.1282 491.8652,-442.1174 549.5276,-401.2492 587.2854,-321.6063 600.8479,-289.2711"/>
<polygon fill="#191970" stroke="#191970" points="447.4057,-456.9021 438.3392,-462.3837 448.8452,-463.7525 447.4057,-456.9021"/>
</g>
<!-- Node6&#45;&gt;Node3 -->
<g id="edge8" class="edge">
<title>Node6&#45;&gt;Node3</title>
<path fill="none" stroke="#191970" d="M448.6898,-466.1174C516.3187,-466.1174 643.3806,-466.1174 720.8694,-466.1174"/>
<polygon fill="#191970" stroke="#191970" points="448.3628,-462.6175 438.3627,-466.1174 448.3627,-469.6175 448.3628,-462.6175"/>
</g>
<!-- Node7&#45;&gt;Node2 -->
<g id="edge10" class="edge">
<title>Node7&#45;&gt;Node2</title>
<path fill="none" stroke="#191970" d="M439.1469,-243.8703C464.6868,-248.6401 499.8352,-255.2044 531.3261,-261.0857"/>
<polygon fill="#191970" stroke="#191970" points="439.645,-240.4029 429.1723,-242.0075 438.3598,-247.2839 439.645,-240.4029"/>
</g>
<!-- Node8&#45;&gt;Node2 -->
<g id="edge12" class="edge">
<title>Node8&#45;&gt;Node2</title>
<path fill="none" stroke="#191970" d="M445.9206,-207.0985C460.6946,-210.0761 477.2029,-214.0529 491.8652,-219.1174 524.3064,-230.323 559.4723,-248.4885 582.1709,-261.078"/>
<polygon fill="#191970" stroke="#191970" points="446.4942,-203.6448 436.0135,-205.1957 445.1738,-210.5191 446.4942,-203.6448"/>
</g>
<!-- Node9&#45;&gt;Node7 -->
<g id="edge14" class="edge">
<title>Node9&#45;&gt;Node7</title>
<path fill="none" stroke="#191970" d="M255.4048,-212.7614C296.2222,-219.4976 346.7941,-227.8435 376.8906,-232.8104"/>
<polygon fill="#191970" stroke="#191970" points="255.9607,-209.3059 245.5242,-211.1308 254.8208,-216.2124 255.9607,-209.3059"/>
</g>
<!-- Node9&#45;&gt;Node8 -->
<g id="edge15" class="edge">
<title>Node9&#45;&gt;Node8</title>
<path fill="none" stroke="#191970" d="M255.905,-201.5045C293.5461,-201.1495 339.3461,-200.7176 369.7346,-200.431"/>
<polygon fill="#191970" stroke="#191970" points="255.4907,-198.0081 245.5242,-201.6024 255.5568,-205.0078 255.4907,-198.0081"/>
</g>
<!-- Node10&#45;&gt;Node2 -->
<g id="edge17" class="edge">
<title>Node10&#45;&gt;Node2</title>
<path fill="none" stroke="#191970" d="M235.5233,-127.5928C296.1695,-131.0859 406.8097,-142.8142 491.8652,-182.1174 533.9637,-201.5707 573.8167,-240.0059 593.5547,-260.8568"/>
<polygon fill="#191970" stroke="#191970" points="235.6848,-124.0965 225.5145,-127.0654 235.3165,-131.0868 235.6848,-124.0965"/>
</g>
<!-- Node11&#45;&gt;Node2 -->
<g id="edge19" class="edge">
<title>Node11&#45;&gt;Node2</title>
<path fill="none" stroke="#191970" d="M440.7974,-100.9366C457.4856,-107.7141 476.7084,-117.1393 491.8652,-129.1174 541.1631,-168.0761 581.8475,-232.3951 598.4372,-260.8352"/>
<polygon fill="#191970" stroke="#191970" points="441.9031,-97.6113 431.3144,-97.2527 439.3684,-104.1363 441.9031,-97.6113"/>
</g>
<!-- Node12&#45;&gt;Node2 -->
<g id="edge21" class="edge">
<title>Node12&#45;&gt;Node2</title>
<path fill="none" stroke="#191970" d="M456.2713,-53.9306C468.834,-56.7923 481.5555,-61.4912 491.8652,-69.1174 559.9722,-119.4962 592.8612,-223.0908 602.9564,-260.9024"/>
<polygon fill="#191970" stroke="#191970" points="456.7605,-50.4606 446.2794,-52.0086 455.4382,-57.3346 456.7605,-50.4606"/>
</g>
<!-- Node13&#45;&gt;Node11 -->
<g id="edge23" class="edge">
<title>Node13&#45;&gt;Node11</title>
<path fill="none" stroke="#191970" d="M251.4011,-60.9563C288.6207,-67.6253 335.0832,-75.9503 366.6909,-81.6137"/>
<polygon fill="#191970" stroke="#191970" points="251.6289,-57.4415 241.1683,-59.1229 250.3943,-64.3318 251.6289,-57.4415"/>
</g>
<!-- Node13&#45;&gt;Node12 -->
<g id="edge24" class="edge">
<title>Node13&#45;&gt;Node12</title>
<path fill="none" stroke="#191970" d="M265.5047,-50.1174C297.1106,-50.1174 332.8138,-50.1174 359.9144,-50.1174"/>
<polygon fill="#191970" stroke="#191970" points="265.4032,-46.6175 255.4032,-50.1174 265.4031,-53.6175 265.4032,-46.6175"/>
</g>
<!-- Node14&#45;&gt;Node2 -->
<g id="edge26" class="edge">
<title>Node14&#45;&gt;Node2</title>
<path fill="none" stroke="#191970" d="M457.6211,-352.0025C469.1321,-349.4796 481.0574,-346.2405 491.8652,-342.1174 527.393,-328.5638 564.7276,-304.6485 586.781,-289.3588"/>
<polygon fill="#191970" stroke="#191970" points="456.7476,-348.6086 447.6505,-354.0395 458.1488,-355.467 456.7476,-348.6086"/>
</g>
<!-- Node15&#45;&gt;Node14 -->
<g id="edge28" class="edge">
<title>Node15&#45;&gt;Node14</title>
<path fill="none" stroke="#191970" d="M242.4551,-354.0618C277.9167,-355.3995 324.5431,-357.1583 358.4035,-358.4356"/>
<polygon fill="#191970" stroke="#191970" points="242.4278,-350.5584 232.3029,-353.6789 242.1639,-357.5534 242.4278,-350.5584"/>
</g>
<!-- Node16&#45;&gt;Node2 -->
<g id="edge30" class="edge">
<title>Node16&#45;&gt;Node2</title>
<path fill="none" stroke="#191970" d="M232.8712,-277.8145C301.7604,-277.3171 439.9129,-276.3198 527.5405,-275.6871"/>
<polygon fill="#191970" stroke="#191970" points="232.8002,-274.3148 222.8257,-277.887 232.8508,-281.3146 232.8002,-274.3148"/>
</g>
</g>
</svg>
        <g id="navigator" transform="translate(0 0)" fill="#404254">
                <rect fill="#f2f5e9" fill-opacity="0.5" stroke="#606060" stroke-width=".5" x="0" y="0" width="60" height="60"/>
                <use id="zoomplus" xlink:href="#zoomPlus" x="17" y="9" onmousedown="handleZoom(evt,'in')"/>
                <use id="zoomminus" xlink:href="#zoomMin" x="42" y="9" onmousedown="handleZoom(evt,'out')"/>
                <use id="reset" xlink:href="#resetDef" x="30" y="36" onmousedown="handleReset()"/>
                <g id="arrowUp" xlink:href="#dirArrow" transform="translate(30 24)" onmousedown="handlePan(0,-1)">
                  <use xlink:href="#rim" fill="#404040">
                        <set attributeName="fill" to="#808080" begin="arrowUp.mouseover" end="arrowUp.mouseout"/>
                  </use>
                  <path fill="none" stroke="white" stroke-width="1.5" d="M0,-3.0v7 M-2.5,-0.5L0,-3.0L2.5,-0.5"/>
                </g>
                <g id="arrowRight" xlink:href="#dirArrow" transform="rotate(90) translate(36 -43)" onmousedown="handlePan(1,0)">
                  <use xlink:href="#rim" fill="#404040">
                        <set attributeName="fill" to="#808080" begin="arrowRight.mouseover" end="arrowRight.mouseout"/>
                  </use>
                  <path fill="none" stroke="white" stroke-width="1.5" d="M0,-3.0v7 M-2.5,-0.5L0,-3.0L2.5,-0.5"/>
                </g>
                <g id="arrowDown" xlink:href="#dirArrow" transform="rotate(180) translate(-30 -48)" onmousedown="handlePan(0,1)">
                  <use xlink:href="#rim" fill="#404040">
                        <set attributeName="fill" to="#808080" begin="arrowDown.mouseover" end="arrowDown.mouseout"/>
                  </use>
                  <path fill="none" stroke="white" stroke-width="1.5" d="M0,-3.0v7 M-2.5,-0.5L0,-3.0L2.5,-0.5"/>
                </g>
                <g id="arrowLeft" xlink:href="#dirArrow" transform="rotate(270) translate(-36 17)" onmousedown="handlePan(-1,0)">
                  <use xlink:href="#rim" fill="#404040">
                        <set attributeName="fill" to="#808080" begin="arrowLeft.mouseover" end="arrowLeft.mouseout"/>
                  </use>
                  <path fill="none" stroke="white" stroke-width="1.5" d="M0,-3.0v7 M-2.5,-0.5L0,-3.0L2.5,-0.5"/>
                </g>
        </g>
        <svg viewBox="0 0 15 15" width="100%" height="30px" preserveAspectRatio="xMaxYMin meet">
         <g id="arrow_out" transform="scale(0.3 0.3)">
          <a xlink:href="classlocomotor_1_1core_1_1_d_b_h_a0b2d292079fe232a4c3dae4636167641_icgraph_org.svg" target="_base">
           <rect id="button" ry="5" rx="5" y="6" x="6" height="38" width="38"
                fill="#f2f5e9" fill-opacity="0.5" stroke="#606060" stroke-width="1.0"/>
           <path id="arrow"
             d="M 11.500037,31.436501 C 11.940474,20.09759 22.043105,11.32322 32.158766,21.979434 L 37.068811,17.246167 C 37.068811,17.246167 37.088388,32 37.088388,32 L 22.160133,31.978069 C 22.160133,31.978069 26.997745,27.140456 26.997745,27.140456 C 18.528582,18.264221 13.291696,25.230495 11.500037,31.436501 z"
             style="fill:#404040;"/>
          </a>
         </g>
        </svg>
</svg>
