<?xml version="1.0" encoding="UTF-8" standalone="no"?>
<!DOCTYPE svg PUBLIC "-//W3C//DTD SVG 1.1//EN"
 "http://www.w3.org/Graphics/SVG/1.1/DTD/svg11.dtd">
<!-- Generated by graphviz version 2.40.1 (20161225.0304)
 -->
<!-- Title: addBooking Pages: 1 -->
<svg width="458pt" height="84pt"
 viewBox="0.00 0.00 457.67 84.00" xmlns="http://www.w3.org/2000/svg" xmlns:xlink="http://www.w3.org/1999/xlink">
<g id="graph0" class="graph" transform="scale(1 1) rotate(0) translate(4 80)">
<title>addBooking</title>
<polygon fill="#ffffff" stroke="transparent" points="-4,4 -4,-80 453.668,-80 453.668,4 -4,4"/>
<!-- Node1 -->
<g id="node1" class="node">
<title>Node1</title>
<polygon fill="#bfbfbf" stroke="#000000" points="0,-28.5 0,-46.5 68.8223,-46.5 68.8223,-28.5 0,-28.5"/>
<text text-anchor="middle" x="34.4111" y="-34.5" font-family="Helvetica,sans-Serif" font-size="10.00" fill="#000000">addBooking</text>
</g>
<!-- Node2 -->
<g id="node2" class="node">
<title>Node2</title>
<g id="a_node2"><a xlink:href="classlocomotor_1_1components_1_1logging_1_1_error_handler.html#a75e8f6535bdb8db9a7d570e1b839af47" target="_top" xlink:title="locomotor.components.logging.\lErrorHandler.getInstance">
<polygon fill="#ffffff" stroke="#000000" points="104.8223,-47.5 104.8223,-75.5 259.2451,-75.5 259.2451,-47.5 104.8223,-47.5"/>
<text text-anchor="start" x="112.8223" y="-63.5" font-family="Helvetica,sans-Serif" font-size="10.00" fill="#000000">locomotor.components.logging.</text>
<text text-anchor="middle" x="182.0337" y="-53.5" font-family="Helvetica,sans-Serif" font-size="10.00" fill="#000000">ErrorHandler.getInstance</text>
</a>
</g>
</g>
<!-- Node1&#45;&gt;Node2 -->
<g id="edge1" class="edge">
<title>Node1&#45;&gt;Node2</title>
<path fill="none" stroke="#191970" d="M69.0221,-43.1269C76.9702,-44.4191 85.7726,-45.8502 94.8544,-47.3267"/>
<polygon fill="#191970" stroke="#191970" points="94.3594,-50.7921 104.7915,-48.9422 95.4827,-43.8828 94.3594,-50.7921"/>
</g>
<!-- Node3 -->
<g id="node3" class="node">
<title>Node3</title>
<g id="a_node3"><a xlink:href="classlocomotor_1_1components_1_1logging_1_1_error_handler.html#abd00a9c37627740763cef91d76a77437" target="_top" xlink:title="locomotor.components.logging.\lErrorHandler.push">
<polygon fill="#ffffff" stroke="#000000" points="104.8223,-.5 104.8223,-28.5 259.2451,-28.5 259.2451,-.5 104.8223,-.5"/>
<text text-anchor="start" x="112.8223" y="-16.5" font-family="Helvetica,sans-Serif" font-size="10.00" fill="#000000">locomotor.components.logging.</text>
<text text-anchor="middle" x="182.0337" y="-6.5" font-family="Helvetica,sans-Serif" font-size="10.00" fill="#000000">ErrorHandler.push</text>
</a>
</g>
</g>
<!-- Node1&#45;&gt;Node3 -->
<g id="edge2" class="edge">
<title>Node1&#45;&gt;Node3</title>
<path fill="none" stroke="#191970" d="M69.0221,-32.1075C76.9702,-30.8692 85.7726,-29.4977 94.8544,-28.0828"/>
<polygon fill="#191970" stroke="#191970" points="95.4495,-31.5324 104.7915,-26.5345 94.3718,-24.6158 95.4495,-31.5324"/>
</g>
<!-- Node4 -->
<g id="node4" class="node">
<title>Node4</title>
<g id="a_node4"><a xlink:href="classlocomotor_1_1components_1_1logging_1_1_error_context.html#afcf30b71bfc65c74878c7ab77c951842" target="_top" xlink:title="locomotor.components.logging.\lErrorContext.push">
<polygon fill="#ffffff" stroke="#000000" points="295.2451,-.5 295.2451,-28.5 449.668,-28.5 449.668,-.5 295.2451,-.5"/>
<text text-anchor="start" x="303.2451" y="-16.5" font-family="Helvetica,sans-Serif" font-size="10.00" fill="#000000">locomotor.components.logging.</text>
<text text-anchor="middle" x="372.4565" y="-6.5" font-family="Helvetica,sans-Serif" font-size="10.00" fill="#000000">ErrorContext.push</text>
</a>
</g>
</g>
<!-- Node3&#45;&gt;Node4 -->
<g id="edge3" class="edge">
<title>Node3&#45;&gt;Node4</title>
<path fill="none" stroke="#191970" d="M259.486,-14.5C267.8312,-14.5 276.3651,-14.5 284.8189,-14.5"/>
<polygon fill="#191970" stroke="#191970" points="285.073,-18.0001 295.0729,-14.5 285.0729,-11.0001 285.073,-18.0001"/>
</g>
</g>
</svg>
