<?xml version="1.0" encoding="UTF-8" standalone="no"?>
<!DOCTYPE svg PUBLIC "-//W3C//DTD SVG 1.1//EN"
 "http://www.w3.org/Graphics/SVG/1.1/DTD/svg11.dtd">
<!-- Generated by graphviz version 2.40.1 (20161225.0304)
 -->
<!-- Title: ItemCategoryFull Pages: 1 -->
<svg width="749pt" height="37pt"
 viewBox="0.00 0.00 748.90 37.00" xmlns="http://www.w3.org/2000/svg" xmlns:xlink="http://www.w3.org/1999/xlink">
<g id="graph0" class="graph" transform="scale(1 1) rotate(0) translate(4 33)">
<title>ItemCategoryFull</title>
<polygon fill="#ffffff" stroke="transparent" points="-4,4 -4,-33 744.8994,-33 744.8994,4 -4,4"/>
<!-- Node1 -->
<g id="node1" class="node">
<title>Node1</title>
<polygon fill="#bfbfbf" stroke="#000000" points="0,-5.5 0,-23.5 92.1377,-23.5 92.1377,-5.5 0,-5.5"/>
<text text-anchor="middle" x="46.0688" y="-11.5" font-family="Helvetica,sans-Serif" font-size="10.00" fill="#000000">ItemCategoryFull</text>
</g>
<!-- Node2 -->
<g id="node2" class="node">
<title>Node2</title>
<g id="a_node2"><a xlink:href="classlocomotor_1_1components_1_1models_1_1_item_category_full.html#a50ab7c0f8e4a65f80ca141f1fa1c7df8" target="_top" xlink:title="fromJSON">
<polygon fill="#ffffff" stroke="#000000" points="128.1377,-5.5 128.1377,-23.5 190.8076,-23.5 190.8076,-5.5 128.1377,-5.5"/>
<text text-anchor="middle" x="159.4727" y="-11.5" font-family="Helvetica,sans-Serif" font-size="10.00" fill="#000000">fromJSON</text>
</a>
</g>
</g>
<!-- Node1&#45;&gt;Node2 -->
<g id="edge1" class="edge">
<title>Node1&#45;&gt;Node2</title>
<path fill="none" stroke="#191970" d="M102.4411,-14.5C111.2167,-14.5 120.0029,-14.5 127.9587,-14.5"/>
<polygon fill="#191970" stroke="#191970" points="102.1946,-11.0001 92.1945,-14.5 102.1945,-18.0001 102.1946,-11.0001"/>
</g>
<!-- Node3 -->
<g id="node3" class="node">
<title>Node3</title>
<g id="a_node3"><a xlink:href="classlocomotor_1_1components_1_1models_1_1_item_full.html#afe56c5f49cb59d04ec69bbf32b58a2f8" target="_top" xlink:title="locomotor.components.models.\lItemFull.fromJSON">
<polygon fill="#ffffff" stroke="#000000" points="226.8076,-.5 226.8076,-28.5 381.2158,-28.5 381.2158,-.5 226.8076,-.5"/>
<text text-anchor="start" x="234.8076" y="-16.5" font-family="Helvetica,sans-Serif" font-size="10.00" fill="#000000">locomotor.components.models.</text>
<text text-anchor="middle" x="304.0117" y="-6.5" font-family="Helvetica,sans-Serif" font-size="10.00" fill="#000000">ItemFull.fromJSON</text>
</a>
</g>
</g>
<!-- Node2&#45;&gt;Node3 -->
<g id="edge2" class="edge">
<title>Node2&#45;&gt;Node3</title>
<path fill="none" stroke="#191970" d="M201.0787,-14.5C209.1811,-14.5 217.9149,-14.5 226.7486,-14.5"/>
<polygon fill="#191970" stroke="#191970" points="200.8355,-11.0001 190.8355,-14.5 200.8354,-18.0001 200.8355,-11.0001"/>
</g>
<!-- Node4 -->
<g id="node4" class="node">
<title>Node4</title>
<g id="a_node4"><a xlink:href="classlocomotor_1_1components_1_1network_1_1_a_p_i.html#a547463fbc7fb7b485886f0917e2c0b78" target="_top" xlink:title="locomotor.components.network.\lAPI.createHooks">
<polygon fill="#ffffff" stroke="#000000" points="417.2158,-.5 417.2158,-28.5 574.4023,-28.5 574.4023,-.5 417.2158,-.5"/>
<text text-anchor="start" x="425.2158" y="-16.5" font-family="Helvetica,sans-Serif" font-size="10.00" fill="#000000">locomotor.components.network.</text>
<text text-anchor="middle" x="495.8091" y="-6.5" font-family="Helvetica,sans-Serif" font-size="10.00" fill="#000000">API.createHooks</text>
</a>
</g>
</g>
<!-- Node3&#45;&gt;Node4 -->
<g id="edge3" class="edge">
<title>Node3&#45;&gt;Node4</title>
<path fill="none" stroke="#191970" d="M391.7364,-14.5C400.2023,-14.5 408.7537,-14.5 417.1243,-14.5"/>
<polygon fill="#191970" stroke="#191970" points="391.4702,-11.0001 381.4702,-14.5 391.4702,-18.0001 391.4702,-11.0001"/>
</g>
<!-- Node5 -->
<g id="node5" class="node">
<title>Node5</title>
<g id="a_node5"><a xlink:href="classlocomotor_1_1core_1_1_main.html#a8b260eecbaabcef8473fd87ada040682" target="_top" xlink:title="locomotor.core.Main.main">
<polygon fill="#ffffff" stroke="#000000" points="610.4023,-5.5 610.4023,-23.5 740.8994,-23.5 740.8994,-5.5 610.4023,-5.5"/>
<text text-anchor="middle" x="675.6509" y="-11.5" font-family="Helvetica,sans-Serif" font-size="10.00" fill="#000000">locomotor.core.Main.main</text>
</a>
</g>
</g>
<!-- Node4&#45;&gt;Node5 -->
<g id="edge4" class="edge">
<title>Node4&#45;&gt;Node5</title>
<path fill="none" stroke="#191970" d="M584.6021,-14.5C593.2904,-14.5 601.9928,-14.5 610.3846,-14.5"/>
<polygon fill="#191970" stroke="#191970" points="584.4287,-11.0001 574.4287,-14.5 584.4287,-18.0001 584.4287,-11.0001"/>
</g>
</g>
</svg>
