<?xml version="1.0" encoding="UTF-8" standalone="no"?>
<!DOCTYPE svg PUBLIC "-//W3C//DTD SVG 1.1//EN"
 "http://www.w3.org/Graphics/SVG/1.1/DTD/svg11.dtd">
<!-- Generated by graphviz version 2.40.1 (20161225.0304)
 -->
<!-- Title: getVersion Pages: 1 -->
<svg width="511pt" height="84pt"
 viewBox="0.00 0.00 511.01 84.00" xmlns="http://www.w3.org/2000/svg" xmlns:xlink="http://www.w3.org/1999/xlink">
<g id="graph0" class="graph" transform="scale(1 1) rotate(0) translate(4 80)">
<title>getVersion</title>
<polygon fill="#ffffff" stroke="transparent" points="-4,4 -4,-80 507.0078,-80 507.0078,4 -4,4"/>
<!-- Node1 -->
<g id="node1" class="node">
<title>Node1</title>
<polygon fill="#bfbfbf" stroke="#000000" points="0,-28.5 0,-46.5 63.2607,-46.5 63.2607,-28.5 0,-28.5"/>
<text text-anchor="middle" x="31.6304" y="-34.5" font-family="Helvetica,sans-Serif" font-size="10.00" fill="#000000">getVersion</text>
</g>
<!-- Node2 -->
<g id="node2" class="node">
<title>Node2</title>
<g id="a_node2"><a xlink:href="classlocomotor_1_1components_1_1network_1_1_a_p_i.html#a547463fbc7fb7b485886f0917e2c0b78" target="_top" xlink:title="locomotor.components.network.\lAPI.createHooks">
<polygon fill="#ffffff" stroke="#000000" points="128.4429,-47.5 128.4429,-75.5 285.6294,-75.5 285.6294,-47.5 128.4429,-47.5"/>
<text text-anchor="start" x="136.4429" y="-63.5" font-family="Helvetica,sans-Serif" font-size="10.00" fill="#000000">locomotor.components.network.</text>
<text text-anchor="middle" x="207.0361" y="-53.5" font-family="Helvetica,sans-Serif" font-size="10.00" fill="#000000">API.createHooks</text>
</a>
</g>
</g>
<!-- Node1&#45;&gt;Node2 -->
<g id="edge1" class="edge">
<title>Node1&#45;&gt;Node2</title>
<path fill="none" stroke="#191970" d="M73.683,-43.2539C90.0375,-45.4916 109.3283,-48.1311 128.0804,-50.6968"/>
<polygon fill="#191970" stroke="#191970" points="73.7772,-39.7342 63.395,-41.8462 72.8282,-46.6696 73.7772,-39.7342"/>
</g>
<!-- Node4 -->
<g id="node4" class="node">
<title>Node4</title>
<g id="a_node4"><a xlink:href="classlocomotor_1_1front_1_1components_1_1_front_resource_manager.html#a90ec9cbe2d393ac172e03972abf97f1d" target="_top" xlink:title="locomotor.front.components.\lFrontResourceManager.getRemoteResource">
<polygon fill="#ffffff" stroke="#000000" points="99.2607,-.5 99.2607,-28.5 314.8115,-28.5 314.8115,-.5 99.2607,-.5"/>
<text text-anchor="start" x="107.2607" y="-16.5" font-family="Helvetica,sans-Serif" font-size="10.00" fill="#000000">locomotor.front.components.</text>
<text text-anchor="middle" x="207.0361" y="-6.5" font-family="Helvetica,sans-Serif" font-size="10.00" fill="#000000">FrontResourceManager.getRemoteResource</text>
</a>
</g>
</g>
<!-- Node1&#45;&gt;Node4 -->
<g id="edge3" class="edge">
<title>Node1&#45;&gt;Node4</title>
<path fill="none" stroke="#191970" d="M73.4547,-32.0158C81.7449,-30.9288 90.7965,-29.7419 100.1543,-28.5148"/>
<polygon fill="#191970" stroke="#191970" points="72.8551,-28.5644 63.395,-33.3349 73.7652,-35.505 72.8551,-28.5644"/>
</g>
<!-- Node3 -->
<g id="node3" class="node">
<title>Node3</title>
<g id="a_node3"><a xlink:href="classlocomotor_1_1core_1_1_main.html#a8b260eecbaabcef8473fd87ada040682" target="_top" xlink:title="locomotor.core.Main.main">
<polygon fill="#ffffff" stroke="#000000" points="361.6611,-52.5 361.6611,-70.5 492.1582,-70.5 492.1582,-52.5 361.6611,-52.5"/>
<text text-anchor="middle" x="426.9097" y="-58.5" font-family="Helvetica,sans-Serif" font-size="10.00" fill="#000000">locomotor.core.Main.main</text>
</a>
</g>
</g>
<!-- Node2&#45;&gt;Node3 -->
<g id="edge2" class="edge">
<title>Node2&#45;&gt;Node3</title>
<path fill="none" stroke="#191970" d="M296.0679,-61.5C317.9021,-61.5 340.8786,-61.5 361.3788,-61.5"/>
<polygon fill="#191970" stroke="#191970" points="295.7945,-58.0001 285.7945,-61.5 295.7945,-65.0001 295.7945,-58.0001"/>
</g>
<!-- Node5 -->
<g id="node5" class="node">
<title>Node5</title>
<g id="a_node5"><a xlink:href="classlocomotor_1_1front_1_1user_1_1_bridge.html#afa7ac789194b4e4f08000205a0f96f11" target="_top" xlink:title="locomotor.front.user.Bridge.get\lModel">
<polygon fill="#ffffff" stroke="#000000" points="350.8115,-.5 350.8115,-28.5 503.0078,-28.5 503.0078,-.5 350.8115,-.5"/>
<text text-anchor="start" x="358.8115" y="-16.5" font-family="Helvetica,sans-Serif" font-size="10.00" fill="#000000">locomotor.front.user.Bridge.get</text>
<text text-anchor="middle" x="426.9097" y="-6.5" font-family="Helvetica,sans-Serif" font-size="10.00" fill="#000000">Model</text>
</a>
</g>
</g>
<!-- Node4&#45;&gt;Node5 -->
<g id="edge4" class="edge">
<title>Node4&#45;&gt;Node5</title>
<path fill="none" stroke="#191970" d="M325.2063,-14.5C333.8504,-14.5 342.4262,-14.5 350.7184,-14.5"/>
<polygon fill="#191970" stroke="#191970" points="325.0405,-11.0001 315.0405,-14.5 325.0405,-18.0001 325.0405,-11.0001"/>
</g>
</g>
</svg>
