<?xml version="1.0" encoding="UTF-8" standalone="no"?>
<!DOCTYPE svg PUBLIC "-//W3C//DTD SVG 1.1//EN"
 "http://www.w3.org/Graphics/SVG/1.1/DTD/svg11.dtd">
<!-- Generated by graphviz version 2.40.1 (20161225.0304)
 -->
<!-- Title: getImage Pages: 1 -->
<svg width="803pt" height="64pt"
 viewBox="0.00 0.00 803.40 64.00" xmlns="http://www.w3.org/2000/svg" xmlns:xlink="http://www.w3.org/1999/xlink">
<g id="graph0" class="graph" transform="scale(1 1) rotate(0) translate(4 60)">
<title>getImage</title>
<polygon fill="#ffffff" stroke="transparent" points="-4,4 -4,-60 799.4014,-60 799.4014,4 -4,4"/>
<!-- Node1 -->
<g id="node1" class="node">
<title>Node1</title>
<polygon fill="#bfbfbf" stroke="#000000" points="0,-18.5 0,-36.5 57.6943,-36.5 57.6943,-18.5 0,-18.5"/>
<text text-anchor="middle" x="28.8472" y="-24.5" font-family="Helvetica,sans-Serif" font-size="10.00" fill="#000000">getImage</text>
</g>
<!-- Node2 -->
<g id="node2" class="node">
<title>Node2</title>
<g id="a_node2"><a xlink:href="classlocomotor_1_1core_1_1_d_b_h.html#ad067053be75a3170dc9c2ce7b922e176" target="_top" xlink:title="locomotor.core.DBH.checking\lParsingItem">
<polygon fill="#ffffff" stroke="#000000" points="93.6943,-13.5 93.6943,-41.5 241.4229,-41.5 241.4229,-13.5 93.6943,-13.5"/>
<text text-anchor="start" x="101.6943" y="-29.5" font-family="Helvetica,sans-Serif" font-size="10.00" fill="#000000">locomotor.core.DBH.checking</text>
<text text-anchor="middle" x="167.5586" y="-19.5" font-family="Helvetica,sans-Serif" font-size="10.00" fill="#000000">ParsingItem</text>
</a>
</g>
</g>
<!-- Node1&#45;&gt;Node2 -->
<g id="edge1" class="edge">
<title>Node1&#45;&gt;Node2</title>
<path fill="none" stroke="#191970" d="M68.0668,-27.5C76.112,-27.5 84.8289,-27.5 93.6443,-27.5"/>
<polygon fill="#191970" stroke="#191970" points="67.9257,-24.0001 57.9256,-27.5 67.9256,-31.0001 67.9257,-24.0001"/>
</g>
<!-- Node3 -->
<g id="node3" class="node">
<title>Node3</title>
<g id="a_node3"><a xlink:href="classlocomotor_1_1core_1_1_d_b_h.html#ae26eef1ee7482f2e0167c6a18924d214" target="_top" xlink:title="locomotor.core.DBH.addItem">
<polygon fill="#ffffff" stroke="#000000" points="284.3735,-37.5 284.3735,-55.5 428.7671,-55.5 428.7671,-37.5 284.3735,-37.5"/>
<text text-anchor="middle" x="356.5703" y="-43.5" font-family="Helvetica,sans-Serif" font-size="10.00" fill="#000000">locomotor.core.DBH.addItem</text>
</a>
</g>
</g>
<!-- Node2&#45;&gt;Node3 -->
<g id="edge2" class="edge">
<title>Node2&#45;&gt;Node3</title>
<path fill="none" stroke="#191970" d="M251.4371,-35.9317C262.3924,-37.033 273.5407,-38.1536 284.2829,-39.2335"/>
<polygon fill="#191970" stroke="#191970" points="251.7475,-32.4454 241.4475,-34.9275 251.0473,-39.4103 251.7475,-32.4454"/>
</g>
<!-- Node6 -->
<g id="node6" class="node">
<title>Node6</title>
<g id="a_node6"><a xlink:href="classlocomotor_1_1core_1_1_d_b_h.html#aa0e39c547d06fd9d0ad2de70251c9cc0" target="_top" xlink:title="locomotor.core.DBH.updateItem">
<polygon fill="#ffffff" stroke="#000000" points="277.4229,-.5 277.4229,-18.5 435.7178,-18.5 435.7178,-.5 277.4229,-.5"/>
<text text-anchor="middle" x="356.5703" y="-6.5" font-family="Helvetica,sans-Serif" font-size="10.00" fill="#000000">locomotor.core.DBH.updateItem</text>
</a>
</g>
</g>
<!-- Node2&#45;&gt;Node6 -->
<g id="edge5" class="edge">
<title>Node2&#45;&gt;Node6</title>
<path fill="none" stroke="#191970" d="M251.4075,-19.5149C259.9525,-18.7011 268.6153,-17.8762 277.1115,-17.067"/>
<polygon fill="#191970" stroke="#191970" points="251.0706,-16.031 241.4475,-20.4634 251.7343,-22.9995 251.0706,-16.031"/>
</g>
<!-- Node4 -->
<g id="node4" class="node">
<title>Node4</title>
<g id="a_node4"><a xlink:href="classlocomotor_1_1components_1_1network_1_1_a_p_i.html#a547463fbc7fb7b485886f0917e2c0b78" target="_top" xlink:title="locomotor.components.network.\lAPI.createHooks">
<polygon fill="#ffffff" stroke="#000000" points="471.7178,-13.5 471.7178,-41.5 628.9043,-41.5 628.9043,-13.5 471.7178,-13.5"/>
<text text-anchor="start" x="479.7178" y="-29.5" font-family="Helvetica,sans-Serif" font-size="10.00" fill="#000000">locomotor.components.network.</text>
<text text-anchor="middle" x="550.311" y="-19.5" font-family="Helvetica,sans-Serif" font-size="10.00" fill="#000000">API.createHooks</text>
</a>
</g>
</g>
<!-- Node3&#45;&gt;Node4 -->
<g id="edge3" class="edge">
<title>Node3&#45;&gt;Node4</title>
<path fill="none" stroke="#191970" d="M439.1696,-38.3996C449.8838,-37.3488 460.8362,-36.2747 471.4869,-35.2302"/>
<polygon fill="#191970" stroke="#191970" points="438.5983,-34.9387 428.9877,-39.3981 439.2816,-41.9053 438.5983,-34.9387"/>
</g>
<!-- Node5 -->
<g id="node5" class="node">
<title>Node5</title>
<g id="a_node5"><a xlink:href="classlocomotor_1_1core_1_1_main.html#a8b260eecbaabcef8473fd87ada040682" target="_top" xlink:title="locomotor.core.Main.main">
<polygon fill="#ffffff" stroke="#000000" points="664.9043,-18.5 664.9043,-36.5 795.4014,-36.5 795.4014,-18.5 664.9043,-18.5"/>
<text text-anchor="middle" x="730.1528" y="-24.5" font-family="Helvetica,sans-Serif" font-size="10.00" fill="#000000">locomotor.core.Main.main</text>
</a>
</g>
</g>
<!-- Node4&#45;&gt;Node5 -->
<g id="edge4" class="edge">
<title>Node4&#45;&gt;Node5</title>
<path fill="none" stroke="#191970" d="M639.1041,-27.5C647.7924,-27.5 656.4947,-27.5 664.8866,-27.5"/>
<polygon fill="#191970" stroke="#191970" points="638.9307,-24.0001 628.9306,-27.5 638.9306,-31.0001 638.9307,-24.0001"/>
</g>
<!-- Node6&#45;&gt;Node4 -->
<g id="edge6" class="edge">
<title>Node6&#45;&gt;Node4</title>
<path fill="none" stroke="#191970" d="M445.9634,-17.8053C454.5543,-18.6035 463.224,-19.4089 471.7002,-20.1965"/>
<polygon fill="#191970" stroke="#191970" points="446.212,-14.3134 435.9311,-16.8732 445.5644,-21.2834 446.212,-14.3134"/>
</g>
</g>
</svg>
