<?xml version="1.0" encoding="UTF-8" standalone="no"?>
<!DOCTYPE svg PUBLIC "-//W3C//DTD SVG 1.1//EN"
 "http://www.w3.org/Graphics/SVG/1.1/DTD/svg11.dtd">
<!-- Generated by graphviz version 2.40.1 (20161225.0304)
 -->
<!-- Title: getUserInfo Pages: 1 -->
<svg width="457pt" height="84pt"
 viewBox="0.00 0.00 456.54 84.00" xmlns="http://www.w3.org/2000/svg" xmlns:xlink="http://www.w3.org/1999/xlink">
<g id="graph0" class="graph" transform="scale(1 1) rotate(0) translate(4 80)">
<title>getUserInfo</title>
<polygon fill="#ffffff" stroke="transparent" points="-4,4 -4,-80 452.54,-80 452.54,4 -4,4"/>
<!-- Node1 -->
<g id="node1" class="node">
<title>Node1</title>
<polygon fill="#bfbfbf" stroke="#000000" points="0,-28.5 0,-46.5 67.6943,-46.5 67.6943,-28.5 0,-28.5"/>
<text text-anchor="middle" x="33.8472" y="-34.5" font-family="Helvetica,sans-Serif" font-size="10.00" fill="#000000">getUserInfo</text>
</g>
<!-- Node2 -->
<g id="node2" class="node">
<title>Node2</title>
<g id="a_node2"><a xlink:href="classlocomotor_1_1components_1_1logging_1_1_error_handler.html#a75e8f6535bdb8db9a7d570e1b839af47" target="_top" xlink:title="locomotor.components.logging.\lErrorHandler.getInstance">
<polygon fill="#ffffff" stroke="#000000" points="103.6943,-47.5 103.6943,-75.5 258.1172,-75.5 258.1172,-47.5 103.6943,-47.5"/>
<text text-anchor="start" x="111.6943" y="-63.5" font-family="Helvetica,sans-Serif" font-size="10.00" fill="#000000">locomotor.components.logging.</text>
<text text-anchor="middle" x="180.9058" y="-53.5" font-family="Helvetica,sans-Serif" font-size="10.00" fill="#000000">ErrorHandler.getInstance</text>
</a>
</g>
</g>
<!-- Node1&#45;&gt;Node2 -->
<g id="edge1" class="edge">
<title>Node1&#45;&gt;Node2</title>
<path fill="none" stroke="#191970" d="M67.955,-43.0664C75.8685,-44.3579 84.6469,-45.7905 93.7125,-47.27"/>
<polygon fill="#191970" stroke="#191970" points="93.2018,-50.7329 103.635,-48.8894 94.3294,-43.8243 93.2018,-50.7329"/>
</g>
<!-- Node3 -->
<g id="node3" class="node">
<title>Node3</title>
<g id="a_node3"><a xlink:href="classlocomotor_1_1components_1_1logging_1_1_error_handler.html#abd00a9c37627740763cef91d76a77437" target="_top" xlink:title="locomotor.components.logging.\lErrorHandler.push">
<polygon fill="#ffffff" stroke="#000000" points="103.6943,-.5 103.6943,-28.5 258.1172,-28.5 258.1172,-.5 103.6943,-.5"/>
<text text-anchor="start" x="111.6943" y="-16.5" font-family="Helvetica,sans-Serif" font-size="10.00" fill="#000000">locomotor.components.logging.</text>
<text text-anchor="middle" x="180.9058" y="-6.5" font-family="Helvetica,sans-Serif" font-size="10.00" fill="#000000">ErrorHandler.push</text>
</a>
</g>
</g>
<!-- Node1&#45;&gt;Node3 -->
<g id="edge2" class="edge">
<title>Node1&#45;&gt;Node3</title>
<path fill="none" stroke="#191970" d="M67.955,-32.1655C75.8685,-30.9279 84.6469,-29.5549 93.7125,-28.1371"/>
<polygon fill="#191970" stroke="#191970" points="94.296,-31.5884 103.635,-26.5852 93.2143,-24.6725 94.296,-31.5884"/>
</g>
<!-- Node4 -->
<g id="node4" class="node">
<title>Node4</title>
<g id="a_node4"><a xlink:href="classlocomotor_1_1components_1_1logging_1_1_error_context.html#afcf30b71bfc65c74878c7ab77c951842" target="_top" xlink:title="locomotor.components.logging.\lErrorContext.push">
<polygon fill="#ffffff" stroke="#000000" points="294.1172,-.5 294.1172,-28.5 448.54,-28.5 448.54,-.5 294.1172,-.5"/>
<text text-anchor="start" x="302.1172" y="-16.5" font-family="Helvetica,sans-Serif" font-size="10.00" fill="#000000">locomotor.components.logging.</text>
<text text-anchor="middle" x="371.3286" y="-6.5" font-family="Helvetica,sans-Serif" font-size="10.00" fill="#000000">ErrorContext.push</text>
</a>
</g>
</g>
<!-- Node3&#45;&gt;Node4 -->
<g id="edge3" class="edge">
<title>Node3&#45;&gt;Node4</title>
<path fill="none" stroke="#191970" d="M258.358,-14.5C266.7033,-14.5 275.2372,-14.5 283.691,-14.5"/>
<polygon fill="#191970" stroke="#191970" points="283.945,-18.0001 293.945,-14.5 283.945,-11.0001 283.945,-18.0001"/>
</g>
</g>
</svg>
