<?xml version="1.0" encoding="UTF-8" standalone="no"?>
<!DOCTYPE svg PUBLIC "-//W3C//DTD SVG 1.1//EN"
 "http://www.w3.org/Graphics/SVG/1.1/DTD/svg11.dtd">
<!-- Generated by graphviz version 2.40.1 (20161225.0304)
 -->
<!-- Title: getID Pages: 1 -->
<svg width="786pt" height="69pt"
 viewBox="0.00 0.00 785.61 69.00" xmlns="http://www.w3.org/2000/svg" xmlns:xlink="http://www.w3.org/1999/xlink">
<g id="graph0" class="graph" transform="scale(1 1) rotate(0) translate(4 65)">
<title>getID</title>
<polygon fill="#ffffff" stroke="transparent" points="-4,4 -4,-65 781.6084,-65 781.6084,4 -4,4"/>
<!-- Node1 -->
<g id="node1" class="node">
<title>Node1</title>
<polygon fill="#bfbfbf" stroke="#000000" points="0,-26.5 0,-44.5 39.9014,-44.5 39.9014,-26.5 0,-26.5"/>
<text text-anchor="middle" x="19.9507" y="-32.5" font-family="Helvetica,sans-Serif" font-size="10.00" fill="#000000">getID</text>
</g>
<!-- Node2 -->
<g id="node2" class="node">
<title>Node2</title>
<g id="a_node2"><a xlink:href="classlocomotor_1_1core_1_1_d_b_h.html#aa0e39c547d06fd9d0ad2de70251c9cc0" target="_top" xlink:title="locomotor.core.DBH.updateItem">
<polygon fill="#ffffff" stroke="#000000" points="259.6299,-42.5 259.6299,-60.5 417.9248,-60.5 417.9248,-42.5 259.6299,-42.5"/>
<text text-anchor="middle" x="338.7773" y="-48.5" font-family="Helvetica,sans-Serif" font-size="10.00" fill="#000000">locomotor.core.DBH.updateItem</text>
</a>
</g>
</g>
<!-- Node1&#45;&gt;Node2 -->
<g id="edge1" class="edge">
<title>Node1&#45;&gt;Node2</title>
<path fill="none" stroke="#191970" d="M50.6666,-37.0414C98.3977,-39.4368 191.9056,-44.1294 259.4717,-47.5201"/>
<polygon fill="#191970" stroke="#191970" points="50.5426,-33.5309 40.3797,-36.5252 50.1917,-40.5221 50.5426,-33.5309"/>
</g>
<!-- Node5 -->
<g id="node5" class="node">
<title>Node5</title>
<g id="a_node5"><a xlink:href="classlocomotor_1_1core_1_1_d_b_h.html#ad067053be75a3170dc9c2ce7b922e176" target="_top" xlink:title="locomotor.core.DBH.checking\lParsingItem">
<polygon fill="#ffffff" stroke="#000000" points="75.9014,-.5 75.9014,-28.5 223.6299,-28.5 223.6299,-.5 75.9014,-.5"/>
<text text-anchor="start" x="83.9014" y="-16.5" font-family="Helvetica,sans-Serif" font-size="10.00" fill="#000000">locomotor.core.DBH.checking</text>
<text text-anchor="middle" x="149.7656" y="-6.5" font-family="Helvetica,sans-Serif" font-size="10.00" fill="#000000">ParsingItem</text>
</a>
</g>
</g>
<!-- Node1&#45;&gt;Node5 -->
<g id="edge4" class="edge">
<title>Node1&#45;&gt;Node5</title>
<path fill="none" stroke="#191970" d="M50.0258,-30.6348C57.908,-29.3597 66.764,-27.9271 75.8604,-26.4556"/>
<polygon fill="#191970" stroke="#191970" points="49.2625,-27.2127 39.9498,-32.2648 50.3804,-34.1228 49.2625,-27.2127"/>
</g>
<!-- Node3 -->
<g id="node3" class="node">
<title>Node3</title>
<g id="a_node3"><a xlink:href="classlocomotor_1_1components_1_1network_1_1_a_p_i.html#a547463fbc7fb7b485886f0917e2c0b78" target="_top" xlink:title="locomotor.components.network.\lAPI.createHooks">
<polygon fill="#ffffff" stroke="#000000" points="453.9248,-18.5 453.9248,-46.5 611.1113,-46.5 611.1113,-18.5 453.9248,-18.5"/>
<text text-anchor="start" x="461.9248" y="-34.5" font-family="Helvetica,sans-Serif" font-size="10.00" fill="#000000">locomotor.components.network.</text>
<text text-anchor="middle" x="532.5181" y="-24.5" font-family="Helvetica,sans-Serif" font-size="10.00" fill="#000000">API.createHooks</text>
</a>
</g>
</g>
<!-- Node2&#45;&gt;Node3 -->
<g id="edge2" class="edge">
<title>Node2&#45;&gt;Node3</title>
<path fill="none" stroke="#191970" d="M428.1705,-42.7333C436.7613,-41.8908 445.431,-41.0406 453.9072,-40.2093"/>
<polygon fill="#191970" stroke="#191970" points="427.7487,-39.2578 418.1381,-43.7172 428.432,-46.2243 427.7487,-39.2578"/>
</g>
<!-- Node4 -->
<g id="node4" class="node">
<title>Node4</title>
<g id="a_node4"><a xlink:href="classlocomotor_1_1core_1_1_main.html#a8b260eecbaabcef8473fd87ada040682" target="_top" xlink:title="locomotor.core.Main.main">
<polygon fill="#ffffff" stroke="#000000" points="647.1113,-23.5 647.1113,-41.5 777.6084,-41.5 777.6084,-23.5 647.1113,-23.5"/>
<text text-anchor="middle" x="712.3599" y="-29.5" font-family="Helvetica,sans-Serif" font-size="10.00" fill="#000000">locomotor.core.Main.main</text>
</a>
</g>
</g>
<!-- Node3&#45;&gt;Node4 -->
<g id="edge3" class="edge">
<title>Node3&#45;&gt;Node4</title>
<path fill="none" stroke="#191970" d="M621.3111,-32.5C629.9994,-32.5 638.7017,-32.5 647.0936,-32.5"/>
<polygon fill="#191970" stroke="#191970" points="621.1377,-29.0001 611.1377,-32.5 621.1376,-36.0001 621.1377,-29.0001"/>
</g>
<!-- Node5&#45;&gt;Node2 -->
<g id="edge7" class="edge">
<title>Node5&#45;&gt;Node2</title>
<path fill="none" stroke="#191970" d="M231.3568,-30.4719C252.2909,-34.5698 274.0865,-38.8364 292.5304,-42.4469"/>
<polygon fill="#191970" stroke="#191970" points="231.9785,-27.0272 221.4924,-28.5409 230.6337,-33.8968 231.9785,-27.0272"/>
</g>
<!-- Node6 -->
<g id="node6" class="node">
<title>Node6</title>
<g id="a_node6"><a xlink:href="classlocomotor_1_1core_1_1_d_b_h.html#ae26eef1ee7482f2e0167c6a18924d214" target="_top" xlink:title="locomotor.core.DBH.addItem">
<polygon fill="#ffffff" stroke="#000000" points="266.5806,-5.5 266.5806,-23.5 410.9741,-23.5 410.9741,-5.5 266.5806,-5.5"/>
<text text-anchor="middle" x="338.7773" y="-11.5" font-family="Helvetica,sans-Serif" font-size="10.00" fill="#000000">locomotor.core.DBH.addItem</text>
</a>
</g>
</g>
<!-- Node5&#45;&gt;Node6 -->
<g id="edge5" class="edge">
<title>Node5&#45;&gt;Node6</title>
<path fill="none" stroke="#191970" d="M233.9796,-14.5C244.8269,-14.5 255.8573,-14.5 266.49,-14.5"/>
<polygon fill="#191970" stroke="#191970" points="233.6546,-11.0001 223.6546,-14.5 233.6545,-18.0001 233.6546,-11.0001"/>
</g>
<!-- Node6&#45;&gt;Node3 -->
<g id="edge6" class="edge">
<title>Node6&#45;&gt;Node3</title>
<path fill="none" stroke="#191970" d="M421.3766,-22.1741C432.0909,-23.1695 443.0433,-24.1871 453.6939,-25.1766"/>
<polygon fill="#191970" stroke="#191970" points="421.4757,-18.6683 411.1947,-21.2281 420.8281,-25.6383 421.4757,-18.6683"/>
</g>
</g>
</svg>
