<?xml version="1.0" encoding="UTF-8" standalone="no"?>
<!DOCTYPE svg PUBLIC "-//W3C//DTD SVG 1.1//EN"
 "http://www.w3.org/Graphics/SVG/1.1/DTD/svg11.dtd">
<!-- Generated by graphviz version 2.40.1 (20161225.0304)
 -->
<!-- Title: toSet Pages: 1 -->
<svg width="229pt" height="74pt"
 viewBox="0.00 0.00 229.42 74.00" xmlns="http://www.w3.org/2000/svg" xmlns:xlink="http://www.w3.org/1999/xlink">
<g id="graph0" class="graph" transform="scale(1 1) rotate(0) translate(4 70)">
<title>toSet</title>
<polygon fill="#ffffff" stroke="transparent" points="-4,4 -4,-70 225.4229,-70 225.4229,4 -4,4"/>
<!-- Node1 -->
<g id="node1" class="node">
<title>Node1</title>
<polygon fill="#bfbfbf" stroke="#000000" points="0,-21.5 0,-39.5 39.3496,-39.5 39.3496,-21.5 0,-21.5"/>
<text text-anchor="middle" x="19.6748" y="-27.5" font-family="Helvetica,sans-Serif" font-size="10.00" fill="#000000">toSet</text>
</g>
<!-- Node2 -->
<g id="node2" class="node">
<title>Node2</title>
<g id="a_node2"><a xlink:href="classlocomotor_1_1components_1_1types_1_1_c_graph_tree.html#a400adc948768886218e9e3b1af07f554" target="_top" xlink:title="locomotor.components.types.\lCGraphTree.CGraphTree">
<polygon fill="#ffffff" stroke="#000000" points="75.3496,-37.5 75.3496,-65.5 221.4229,-65.5 221.4229,-37.5 75.3496,-37.5"/>
<text text-anchor="start" x="83.3496" y="-53.5" font-family="Helvetica,sans-Serif" font-size="10.00" fill="#000000">locomotor.components.types.</text>
<text text-anchor="middle" x="148.3862" y="-43.5" font-family="Helvetica,sans-Serif" font-size="10.00" fill="#000000">CGraphTree.CGraphTree</text>
</a>
</g>
</g>
<!-- Node1&#45;&gt;Node2 -->
<g id="edge1" class="edge">
<title>Node1&#45;&gt;Node2</title>
<path fill="none" stroke="#191970" d="M49.4942,-35.3652C57.3094,-36.6403 66.0901,-38.0729 75.1092,-39.5444"/>
<polygon fill="#191970" stroke="#191970" points="49.937,-31.8913 39.5039,-33.7352 48.8098,-38.7999 49.937,-31.8913"/>
</g>
<!-- Node3 -->
<g id="node3" class="node">
<title>Node3</title>
<g id="a_node3"><a xlink:href="classlocomotor_1_1components_1_1types_1_1_c_tree.html#a46596b48ff97821f142f902f7ac6d471" target="_top" xlink:title="compare">
<polygon fill="#ffffff" stroke="#000000" points="120.9331,-.5 120.9331,-18.5 175.8394,-18.5 175.8394,-.5 120.9331,-.5"/>
<text text-anchor="middle" x="148.3862" y="-6.5" font-family="Helvetica,sans-Serif" font-size="10.00" fill="#000000">compare</text>
</a>
</g>
</g>
<!-- Node1&#45;&gt;Node3 -->
<g id="edge2" class="edge">
<title>Node1&#45;&gt;Node3</title>
<path fill="none" stroke="#191970" d="M49.3877,-25.6522C70.8554,-22.1496 99.6496,-17.4517 120.6484,-14.0256"/>
<polygon fill="#191970" stroke="#191970" points="48.8098,-22.2001 39.5039,-27.2648 49.937,-29.1087 48.8098,-22.2001"/>
</g>
</g>
</svg>
