<?xml version="1.0" encoding="UTF-8" standalone="no"?>
<!DOCTYPE svg PUBLIC "-//W3C//DTD SVG 1.1//EN"
 "http://www.w3.org/Graphics/SVG/1.1/DTD/svg11.dtd">
<!-- Generated by graphviz version 2.40.1 (20161225.0304)
 -->
<!-- Title: CWeightedStringList Pages: 1 -->
<svg width="186pt" height="64pt"
 viewBox="0.00 0.00 185.87 64.00" xmlns="http://www.w3.org/2000/svg" xmlns:xlink="http://www.w3.org/1999/xlink">
<g id="graph0" class="graph" transform="scale(1 1) rotate(0) translate(4 60)">
<title>CWeightedStringList</title>
<polygon fill="#ffffff" stroke="transparent" points="-4,4 -4,-60 181.8682,-60 181.8682,4 -4,4"/>
<!-- Node1 -->
<g id="node1" class="node">
<title>Node1</title>
<polygon fill="#bfbfbf" stroke="#000000" points="0,-18.5 0,-36.5 106.9766,-36.5 106.9766,-18.5 0,-18.5"/>
<text text-anchor="middle" x="53.4883" y="-24.5" font-family="Helvetica,sans-Serif" font-size="10.00" fill="#000000">CWeightedStringList</text>
</g>
<!-- Node2 -->
<g id="node2" class="node">
<title>Node2</title>
<g id="a_node2"><a xlink:href="classlocomotor_1_1components_1_1types_1_1_c_weighted_string_list.html#a97eb4ff6ea197b3a02c2db1c768c989a" target="_top" xlink:title="min">
<polygon fill="#ffffff" stroke="#000000" points="144.3657,-37.5 144.3657,-55.5 176.479,-55.5 176.479,-37.5 144.3657,-37.5"/>
<text text-anchor="middle" x="160.4224" y="-43.5" font-family="Helvetica,sans-Serif" font-size="10.00" fill="#000000">min</text>
</a>
</g>
</g>
<!-- Node1&#45;&gt;Node2 -->
<g id="edge1" class="edge">
<title>Node1&#45;&gt;Node2</title>
<path fill="none" stroke="#191970" d="M104.4499,-36.5548C114.8117,-38.3959 125.2994,-40.2594 134.3515,-41.8677"/>
<polygon fill="#191970" stroke="#191970" points="133.7668,-45.3186 144.2249,-43.6221 134.9915,-38.4265 133.7668,-45.3186"/>
</g>
<!-- Node3 -->
<g id="node3" class="node">
<title>Node3</title>
<g id="a_node3"><a xlink:href="classlocomotor_1_1components_1_1types_1_1_c_weighted_string_list.html#a1847175a80cbae9533f68b32190a708d" target="_top" xlink:title="max">
<polygon fill="#ffffff" stroke="#000000" points="142.9766,-.5 142.9766,-18.5 177.8682,-18.5 177.8682,-.5 142.9766,-.5"/>
<text text-anchor="middle" x="160.4224" y="-6.5" font-family="Helvetica,sans-Serif" font-size="10.00" fill="#000000">max</text>
</a>
</g>
</g>
<!-- Node1&#45;&gt;Node3 -->
<g id="edge2" class="edge">
<title>Node1&#45;&gt;Node3</title>
<path fill="none" stroke="#191970" d="M107.2686,-18.4473C116.1362,-16.9546 124.9922,-15.4639 132.8611,-14.1393"/>
<polygon fill="#191970" stroke="#191970" points="133.6076,-17.563 142.8879,-12.4515 132.4456,-10.6601 133.6076,-17.563"/>
</g>
</g>
</svg>
