<?xml version="1.0" encoding="UTF-8" standalone="no"?>
<!DOCTYPE svg PUBLIC "-//W3C//DTD SVG 1.1//EN"
 "http://www.w3.org/Graphics/SVG/1.1/DTD/svg11.dtd">
<!-- Generated by graphviz version 2.40.1 (20161225.0304)
 -->
<!-- Title: authUser Pages: 1 -->
<svg width="481pt" height="178pt"
 viewBox="0.00 0.00 480.97 178.00" xmlns="http://www.w3.org/2000/svg" xmlns:xlink="http://www.w3.org/1999/xlink">
<g id="graph0" class="graph" transform="scale(1 1) rotate(0) translate(4 174)">
<title>authUser</title>
<polygon fill="#ffffff" stroke="transparent" points="-4,4 -4,-174 476.9688,-174 476.9688,4 -4,4"/>
<!-- Node1 -->
<g id="node1" class="node">
<title>Node1</title>
<polygon fill="#bfbfbf" stroke="#000000" points="0,-75.5 0,-93.5 56.5762,-93.5 56.5762,-75.5 0,-75.5"/>
<text text-anchor="middle" x="28.2881" y="-81.5" font-family="Helvetica,sans-Serif" font-size="10.00" fill="#000000">authUser</text>
</g>
<!-- Node2 -->
<g id="node2" class="node">
<title>Node2</title>
<g id="a_node2"><a xlink:href="classlocomotor_1_1components_1_1logging_1_1_error_handler.html#a75e8f6535bdb8db9a7d570e1b839af47" target="_top" xlink:title="locomotor.components.logging.\lErrorHandler.getInstance">
<polygon fill="#ffffff" stroke="#000000" points="110.3496,-141.5 110.3496,-169.5 264.7725,-169.5 264.7725,-141.5 110.3496,-141.5"/>
<text text-anchor="start" x="118.3496" y="-157.5" font-family="Helvetica,sans-Serif" font-size="10.00" fill="#000000">locomotor.components.logging.</text>
<text text-anchor="middle" x="187.561" y="-147.5" font-family="Helvetica,sans-Serif" font-size="10.00" fill="#000000">ErrorHandler.getInstance</text>
</a>
</g>
</g>
<!-- Node1&#45;&gt;Node2 -->
<g id="edge1" class="edge">
<title>Node1&#45;&gt;Node2</title>
<path fill="none" stroke="#191970" d="M37.9239,-93.7007C49.8287,-104.5643 71.1469,-122.4257 92.5762,-132.5 96.9523,-134.5573 101.5313,-136.4416 106.2137,-138.1659"/>
<polygon fill="#191970" stroke="#191970" points="105.344,-141.5672 115.9385,-141.4847 107.605,-134.9424 105.344,-141.5672"/>
</g>
<!-- Node3 -->
<g id="node3" class="node">
<title>Node3</title>
<g id="a_node3"><a xlink:href="classlocomotor_1_1components_1_1logging_1_1_error_handler.html#abd00a9c37627740763cef91d76a77437" target="_top" xlink:title="locomotor.components.logging.\lErrorHandler.push">
<polygon fill="#ffffff" stroke="#000000" points="110.3496,-94.5 110.3496,-122.5 264.7725,-122.5 264.7725,-94.5 110.3496,-94.5"/>
<text text-anchor="start" x="118.3496" y="-110.5" font-family="Helvetica,sans-Serif" font-size="10.00" fill="#000000">locomotor.components.logging.</text>
<text text-anchor="middle" x="187.561" y="-100.5" font-family="Helvetica,sans-Serif" font-size="10.00" fill="#000000">ErrorHandler.push</text>
</a>
</g>
</g>
<!-- Node1&#45;&gt;Node3 -->
<g id="edge2" class="edge">
<title>Node1&#45;&gt;Node3</title>
<path fill="none" stroke="#191970" d="M56.7629,-88.7907C69.094,-90.6488 84.2632,-92.9346 99.8493,-95.2832"/>
<polygon fill="#191970" stroke="#191970" points="99.7163,-98.8026 110.1262,-96.8317 100.7593,-91.8807 99.7163,-98.8026"/>
</g>
<!-- Node5 -->
<g id="node5" class="node">
<title>Node5</title>
<g id="a_node5"><a xlink:href="classlocomotor_1_1core_1_1_password_storage.html#a94489a4402c7c9e62b25fd69c050b4f2" target="_top" xlink:title="locomotor.core.PasswordStorage.verify\lPassword">
<polygon fill="#ffffff" stroke="#000000" points="92.5762,-47.5 92.5762,-75.5 282.5459,-75.5 282.5459,-47.5 92.5762,-47.5"/>
<text text-anchor="start" x="100.5762" y="-63.5" font-family="Helvetica,sans-Serif" font-size="10.00" fill="#000000">locomotor.core.PasswordStorage.verify</text>
<text text-anchor="middle" x="187.561" y="-53.5" font-family="Helvetica,sans-Serif" font-size="10.00" fill="#000000">Password</text>
</a>
</g>
</g>
<!-- Node1&#45;&gt;Node5 -->
<g id="edge4" class="edge">
<title>Node1&#45;&gt;Node5</title>
<path fill="none" stroke="#191970" d="M56.7629,-80.3881C64.3853,-79.2873 73.0921,-78.03 82.3114,-76.6987"/>
<polygon fill="#191970" stroke="#191970" points="83.0924,-80.1223 92.4895,-75.2289 82.0919,-73.1942 83.0924,-80.1223"/>
</g>
<!-- Node6 -->
<g id="node6" class="node">
<title>Node6</title>
<g id="a_node6"><a xlink:href="enumlocomotor_1_1core_1_1_accreditation_level.html#a9ba37c7260408517fd4e4c0196cf4a28" target="_top" xlink:title="locomotor.core.Accreditation\lLevel.valueOf">
<polygon fill="#ffffff" stroke="#000000" points="116.4727,-.5 116.4727,-28.5 258.6494,-28.5 258.6494,-.5 116.4727,-.5"/>
<text text-anchor="start" x="124.4727" y="-16.5" font-family="Helvetica,sans-Serif" font-size="10.00" fill="#000000">locomotor.core.Accreditation</text>
<text text-anchor="middle" x="187.561" y="-6.5" font-family="Helvetica,sans-Serif" font-size="10.00" fill="#000000">Level.valueOf</text>
</a>
</g>
</g>
<!-- Node1&#45;&gt;Node6 -->
<g id="edge5" class="edge">
<title>Node1&#45;&gt;Node6</title>
<path fill="none" stroke="#191970" d="M38.4405,-75.3693C50.5098,-64.9801 71.6601,-48.2012 92.5762,-38.5 97.9139,-36.0243 103.5436,-33.7794 109.2887,-31.7482"/>
<polygon fill="#191970" stroke="#191970" points="110.6379,-34.9886 119.0353,-28.5285 108.4421,-28.3419 110.6379,-34.9886"/>
</g>
<!-- Node4 -->
<g id="node4" class="node">
<title>Node4</title>
<g id="a_node4"><a xlink:href="classlocomotor_1_1components_1_1logging_1_1_error_context.html#afcf30b71bfc65c74878c7ab77c951842" target="_top" xlink:title="locomotor.components.logging.\lErrorContext.push">
<polygon fill="#ffffff" stroke="#000000" points="318.5459,-94.5 318.5459,-122.5 472.9688,-122.5 472.9688,-94.5 318.5459,-94.5"/>
<text text-anchor="start" x="326.5459" y="-110.5" font-family="Helvetica,sans-Serif" font-size="10.00" fill="#000000">locomotor.components.logging.</text>
<text text-anchor="middle" x="395.7573" y="-100.5" font-family="Helvetica,sans-Serif" font-size="10.00" fill="#000000">ErrorContext.push</text>
</a>
</g>
</g>
<!-- Node3&#45;&gt;Node4 -->
<g id="edge3" class="edge">
<title>Node3&#45;&gt;Node4</title>
<path fill="none" stroke="#191970" d="M264.7898,-108.5C278.8511,-108.5 293.6146,-108.5 307.955,-108.5"/>
<polygon fill="#191970" stroke="#191970" points="308.3062,-112.0001 318.3061,-108.5 308.3061,-105.0001 308.3062,-112.0001"/>
</g>
</g>
</svg>
