<?xml version="1.0" encoding="UTF-8" standalone="no"?>
<!DOCTYPE svg PUBLIC "-//W3C//DTD SVG 1.1//EN"
 "http://www.w3.org/Graphics/SVG/1.1/DTD/svg11.dtd">
<!-- Generated by graphviz version 2.40.1 (20161225.0304)
 -->
<!-- Title: UserItem Pages: 1 -->
<svg width="523pt" height="37pt"
 viewBox="0.00 0.00 522.92 37.00" xmlns="http://www.w3.org/2000/svg" xmlns:xlink="http://www.w3.org/1999/xlink">
<g id="graph0" class="graph" transform="scale(1 1) rotate(0) translate(4 33)">
<title>UserItem</title>
<polygon fill="#ffffff" stroke="transparent" points="-4,4 -4,-33 518.915,-33 518.915,4 -4,4"/>
<!-- Node1 -->
<g id="node1" class="node">
<title>Node1</title>
<polygon fill="#bfbfbf" stroke="#000000" points="0,-5.5 0,-23.5 56.5615,-23.5 56.5615,-5.5 0,-5.5"/>
<text text-anchor="middle" x="28.2808" y="-11.5" font-family="Helvetica,sans-Serif" font-size="10.00" fill="#000000">UserItem</text>
</g>
<!-- Node2 -->
<g id="node2" class="node">
<title>Node2</title>
<g id="a_node2"><a xlink:href="classlocomotor_1_1components_1_1models_1_1_user_item.html#ab97f79cf43a9a73bcd77cec6b449a79a" target="_top" xlink:title="fromJSON">
<polygon fill="#ffffff" stroke="#000000" points="92.5615,-5.5 92.5615,-23.5 155.2314,-23.5 155.2314,-5.5 92.5615,-5.5"/>
<text text-anchor="middle" x="123.8965" y="-11.5" font-family="Helvetica,sans-Serif" font-size="10.00" fill="#000000">fromJSON</text>
</a>
</g>
</g>
<!-- Node1&#45;&gt;Node2 -->
<g id="edge1" class="edge">
<title>Node1&#45;&gt;Node2</title>
<path fill="none" stroke="#191970" d="M66.8025,-14.5C75.3049,-14.5 84.2148,-14.5 92.4,-14.5"/>
<polygon fill="#191970" stroke="#191970" points="66.7098,-11.0001 56.7098,-14.5 66.7097,-18.0001 66.7098,-11.0001"/>
</g>
<!-- Node3 -->
<g id="node3" class="node">
<title>Node3</title>
<g id="a_node3"><a xlink:href="classlocomotor_1_1components_1_1network_1_1_a_p_i.html#a547463fbc7fb7b485886f0917e2c0b78" target="_top" xlink:title="locomotor.components.network.\lAPI.createHooks">
<polygon fill="#ffffff" stroke="#000000" points="191.2314,-.5 191.2314,-28.5 348.418,-28.5 348.418,-.5 191.2314,-.5"/>
<text text-anchor="start" x="199.2314" y="-16.5" font-family="Helvetica,sans-Serif" font-size="10.00" fill="#000000">locomotor.components.network.</text>
<text text-anchor="middle" x="269.8247" y="-6.5" font-family="Helvetica,sans-Serif" font-size="10.00" fill="#000000">API.createHooks</text>
</a>
</g>
</g>
<!-- Node2&#45;&gt;Node3 -->
<g id="edge2" class="edge">
<title>Node2&#45;&gt;Node3</title>
<path fill="none" stroke="#191970" d="M165.7357,-14.5C173.7807,-14.5 182.4469,-14.5 191.2226,-14.5"/>
<polygon fill="#191970" stroke="#191970" points="165.5608,-11.0001 155.5607,-14.5 165.5607,-18.0001 165.5608,-11.0001"/>
</g>
<!-- Node4 -->
<g id="node4" class="node">
<title>Node4</title>
<g id="a_node4"><a xlink:href="classlocomotor_1_1core_1_1_main.html#a8b260eecbaabcef8473fd87ada040682" target="_top" xlink:title="locomotor.core.Main.main">
<polygon fill="#ffffff" stroke="#000000" points="384.418,-5.5 384.418,-23.5 514.915,-23.5 514.915,-5.5 384.418,-5.5"/>
<text text-anchor="middle" x="449.6665" y="-11.5" font-family="Helvetica,sans-Serif" font-size="10.00" fill="#000000">locomotor.core.Main.main</text>
</a>
</g>
</g>
<!-- Node3&#45;&gt;Node4 -->
<g id="edge3" class="edge">
<title>Node3&#45;&gt;Node4</title>
<path fill="none" stroke="#191970" d="M358.6177,-14.5C367.306,-14.5 376.0084,-14.5 384.4002,-14.5"/>
<polygon fill="#191970" stroke="#191970" points="358.4443,-11.0001 348.4443,-14.5 358.4443,-18.0001 358.4443,-11.0001"/>
</g>
</g>
</svg>
