<?xml version="1.0" encoding="UTF-8" standalone="no"?>
<!DOCTYPE svg PUBLIC "-//W3C//DTD SVG 1.1//EN"
 "http://www.w3.org/Graphics/SVG/1.1/DTD/svg11.dtd">
<!-- Generated by graphviz version 2.40.1 (20161225.0304)
 -->
<!-- Title: getInstance Pages: 1 -->
<svg width="489pt" height="225pt"
 viewBox="0.00 0.00 489.31 225.00" xmlns="http://www.w3.org/2000/svg" xmlns:xlink="http://www.w3.org/1999/xlink">
<g id="graph0" class="graph" transform="scale(1 1) rotate(0) translate(4 221)">
<title>getInstance</title>
<polygon fill="#ffffff" stroke="transparent" points="-4,4 -4,-221 485.3135,-221 485.3135,4 -4,4"/>
<!-- Node1 -->
<g id="node1" class="node">
<title>Node1</title>
<polygon fill="#bfbfbf" stroke="#000000" points="0,-75.5 0,-93.5 67.7041,-93.5 67.7041,-75.5 0,-75.5"/>
<text text-anchor="middle" x="33.8521" y="-81.5" font-family="Helvetica,sans-Serif" font-size="10.00" fill="#000000">getInstance</text>
</g>
<!-- Node2 -->
<g id="node2" class="node">
<title>Node2</title>
<g id="a_node2"><a xlink:href="classlocomotor_1_1components_1_1_compare.html#a2a101cdb459b3ee3a59e76aaaa08750c" target="_top" xlink:title="locomotor.components.Compare.unique\lValue">
<polygon fill="#ffffff" stroke="#000000" points="104.8076,-117.5 104.8076,-145.5 298.1367,-145.5 298.1367,-117.5 104.8076,-117.5"/>
<text text-anchor="start" x="112.8076" y="-133.5" font-family="Helvetica,sans-Serif" font-size="10.00" fill="#000000">locomotor.components.Compare.unique</text>
<text text-anchor="middle" x="201.4722" y="-123.5" font-family="Helvetica,sans-Serif" font-size="10.00" fill="#000000">Value</text>
</a>
</g>
</g>
<!-- Node1&#45;&gt;Node2 -->
<g id="edge1" class="edge">
<title>Node1&#45;&gt;Node2</title>
<path fill="none" stroke="#191970" d="M75.9478,-96.3035C98.8708,-102.731 127.3821,-110.7254 151.436,-117.4701"/>
<polygon fill="#191970" stroke="#191970" points="76.7445,-92.892 66.1709,-93.5621 74.8546,-99.632 76.7445,-92.892"/>
</g>
<!-- Node6 -->
<g id="node6" class="node">
<title>Node6</title>
<g id="a_node6"><a xlink:href="classlocomotor_1_1components_1_1_compare.html#af1d05ce01ba9906df55e7a4976e44cc9" target="_top" xlink:title="locomotor.components.Compare.interval\lValue">
<polygon fill="#ffffff" stroke="#000000" points="103.7041,-47.5 103.7041,-75.5 299.2402,-75.5 299.2402,-47.5 103.7041,-47.5"/>
<text text-anchor="start" x="111.7041" y="-63.5" font-family="Helvetica,sans-Serif" font-size="10.00" fill="#000000">locomotor.components.Compare.interval</text>
<text text-anchor="middle" x="201.4722" y="-53.5" font-family="Helvetica,sans-Serif" font-size="10.00" fill="#000000">Value</text>
</a>
</g>
</g>
<!-- Node1&#45;&gt;Node6 -->
<g id="edge5" class="edge">
<title>Node1&#45;&gt;Node6</title>
<path fill="none" stroke="#191970" d="M77.9116,-78.4544C85.9273,-77.3545 94.5744,-76.168 103.4402,-74.9515"/>
<polygon fill="#191970" stroke="#191970" points="77.2038,-75.0186 67.7725,-79.8456 78.1555,-81.9536 77.2038,-75.0186"/>
</g>
<!-- Node3 -->
<g id="node3" class="node">
<title>Node3</title>
<g id="a_node3"><a xlink:href="classlocomotor_1_1components_1_1types_1_1_c_float.html#a871921d9d041c5c7993927dde6332e2c" target="_top" xlink:title="locomotor.components.types.\lCFloat.compare">
<polygon fill="#ffffff" stroke="#000000" points="335.2402,-188.5 335.2402,-216.5 481.3135,-216.5 481.3135,-188.5 335.2402,-188.5"/>
<text text-anchor="start" x="343.2402" y="-204.5" font-family="Helvetica,sans-Serif" font-size="10.00" fill="#000000">locomotor.components.types.</text>
<text text-anchor="middle" x="408.2769" y="-194.5" font-family="Helvetica,sans-Serif" font-size="10.00" fill="#000000">CFloat.compare</text>
</a>
</g>
</g>
<!-- Node2&#45;&gt;Node3 -->
<g id="edge2" class="edge">
<title>Node2&#45;&gt;Node3</title>
<path fill="none" stroke="#191970" d="M248.826,-149.0059C274.3426,-158.3088 306.4192,-169.7953 335.2402,-179.5 344.0594,-182.4696 353.5163,-185.5349 362.603,-188.4215"/>
<polygon fill="#191970" stroke="#191970" points="249.9821,-145.702 239.3882,-145.5557 247.5785,-152.2765 249.9821,-145.702"/>
</g>
<!-- Node4 -->
<g id="node4" class="node">
<title>Node4</title>
<g id="a_node4"><a xlink:href="classlocomotor_1_1components_1_1types_1_1_c_integer.html#a535607ef73128c96e7b4c3831a537c15" target="_top" xlink:title="locomotor.components.types.\lCInteger.compare">
<polygon fill="#ffffff" stroke="#000000" points="335.2402,-141.5 335.2402,-169.5 481.3135,-169.5 481.3135,-141.5 335.2402,-141.5"/>
<text text-anchor="start" x="343.2402" y="-157.5" font-family="Helvetica,sans-Serif" font-size="10.00" fill="#000000">locomotor.components.types.</text>
<text text-anchor="middle" x="408.2769" y="-147.5" font-family="Helvetica,sans-Serif" font-size="10.00" fill="#000000">CInteger.compare</text>
</a>
</g>
</g>
<!-- Node2&#45;&gt;Node4 -->
<g id="edge3" class="edge">
<title>Node2&#45;&gt;Node4</title>
<path fill="none" stroke="#191970" d="M308.4037,-143.9096C317.4284,-144.9569 326.4172,-146.0001 335.0947,-147.0071"/>
<polygon fill="#191970" stroke="#191970" points="308.5508,-140.4032 298.214,-142.727 307.7438,-147.3566 308.5508,-140.4032"/>
</g>
<!-- Node5 -->
<g id="node5" class="node">
<title>Node5</title>
<g id="a_node5"><a xlink:href="classlocomotor_1_1components_1_1types_1_1_c_weighted_integer.html#acb085d655773a5014997582a57ae2ab2" target="_top" xlink:title="locomotor.components.types.\lCWeightedInteger.compare">
<polygon fill="#ffffff" stroke="#000000" points="335.2402,-94.5 335.2402,-122.5 481.3135,-122.5 481.3135,-94.5 335.2402,-94.5"/>
<text text-anchor="start" x="343.2402" y="-110.5" font-family="Helvetica,sans-Serif" font-size="10.00" fill="#000000">locomotor.components.types.</text>
<text text-anchor="middle" x="408.2769" y="-100.5" font-family="Helvetica,sans-Serif" font-size="10.00" fill="#000000">CWeightedInteger.compare</text>
</a>
</g>
</g>
<!-- Node2&#45;&gt;Node5 -->
<g id="edge4" class="edge">
<title>Node2&#45;&gt;Node5</title>
<path fill="none" stroke="#191970" d="M308.4037,-119.6075C317.4284,-118.6038 326.4172,-117.6041 335.0947,-116.639"/>
<polygon fill="#191970" stroke="#191970" points="307.7658,-116.1568 298.214,-120.7408 308.5396,-123.1139 307.7658,-116.1568"/>
</g>
<!-- Node7 -->
<g id="node7" class="node">
<title>Node7</title>
<g id="a_node7"><a xlink:href="classlocomotor_1_1components_1_1types_1_1_c_interval_double.html#a871921d9d041c5c7993927dde6332e2c" target="_top" xlink:title="locomotor.components.types.\lCIntervalDouble.compare">
<polygon fill="#ffffff" stroke="#000000" points="335.2402,-47.5 335.2402,-75.5 481.3135,-75.5 481.3135,-47.5 335.2402,-47.5"/>
<text text-anchor="start" x="343.2402" y="-63.5" font-family="Helvetica,sans-Serif" font-size="10.00" fill="#000000">locomotor.components.types.</text>
<text text-anchor="middle" x="408.2769" y="-53.5" font-family="Helvetica,sans-Serif" font-size="10.00" fill="#000000">CIntervalDouble.compare</text>
</a>
</g>
</g>
<!-- Node6&#45;&gt;Node7 -->
<g id="edge6" class="edge">
<title>Node6&#45;&gt;Node7</title>
<path fill="none" stroke="#191970" d="M309.5628,-61.5C318.1949,-61.5 326.7833,-61.5 335.0867,-61.5"/>
<polygon fill="#191970" stroke="#191970" points="309.4239,-58.0001 299.4239,-61.5 309.4239,-65.0001 309.4239,-58.0001"/>
</g>
<!-- Node8 -->
<g id="node8" class="node">
<title>Node8</title>
<g id="a_node8"><a xlink:href="classlocomotor_1_1components_1_1types_1_1_c_interval_integer.html#a535607ef73128c96e7b4c3831a537c15" target="_top" xlink:title="locomotor.components.types.\lCIntervalInteger.compare">
<polygon fill="#ffffff" stroke="#000000" points="335.2402,-.5 335.2402,-28.5 481.3135,-28.5 481.3135,-.5 335.2402,-.5"/>
<text text-anchor="start" x="343.2402" y="-16.5" font-family="Helvetica,sans-Serif" font-size="10.00" fill="#000000">locomotor.components.types.</text>
<text text-anchor="middle" x="408.2769" y="-6.5" font-family="Helvetica,sans-Serif" font-size="10.00" fill="#000000">CIntervalInteger.compare</text>
</a>
</g>
</g>
<!-- Node6&#45;&gt;Node8 -->
<g id="edge7" class="edge">
<title>Node6&#45;&gt;Node8</title>
<path fill="none" stroke="#191970" d="M273.2895,-45.1783C297.131,-39.7598 323.4507,-33.7782 346.4699,-28.5467"/>
<polygon fill="#191970" stroke="#191970" points="272.2159,-41.8329 263.2403,-47.4621 273.7673,-48.6588 272.2159,-41.8329"/>
</g>
</g>
</svg>
