<?xml version="1.0" encoding="UTF-8" standalone="no"?>
<!DOCTYPE svg PUBLIC "-//W3C//DTD SVG 1.1//EN"
 "http://www.w3.org/Graphics/SVG/1.1/DTD/svg11.dtd">
<!-- Generated by graphviz version 2.40.1 (20161225.0304)
 -->
<!-- Title: computeGradeOfCategory Pages: 1 -->
<svg width="802pt" height="37pt"
 viewBox="0.00 0.00 802.27 37.00" xmlns="http://www.w3.org/2000/svg" xmlns:xlink="http://www.w3.org/1999/xlink">
<g id="graph0" class="graph" transform="scale(1 1) rotate(0) translate(4 33)">
<title>computeGradeOfCategory</title>
<polygon fill="#ffffff" stroke="transparent" points="-4,4 -4,-33 798.2686,-33 798.2686,4 -4,4"/>
<!-- Node1 -->
<g id="node1" class="node">
<title>Node1</title>
<polygon fill="#bfbfbf" stroke="#000000" points="0,-5.5 0,-23.5 133.2803,-23.5 133.2803,-5.5 0,-5.5"/>
<text text-anchor="middle" x="66.6401" y="-11.5" font-family="Helvetica,sans-Serif" font-size="10.00" fill="#000000">computeGradeOfCategory</text>
</g>
<!-- Node2 -->
<g id="node2" class="node">
<title>Node2</title>
<g id="a_node2"><a xlink:href="classlocomotor_1_1core_1_1_comparator.html#a589b06b817cbbc74ceb4812d0ba6c245" target="_top" xlink:title="computeGradeOfItem">
<polygon fill="#ffffff" stroke="#000000" points="169.2803,-5.5 169.2803,-23.5 281.4326,-23.5 281.4326,-5.5 169.2803,-5.5"/>
<text text-anchor="middle" x="225.3564" y="-11.5" font-family="Helvetica,sans-Serif" font-size="10.00" fill="#000000">computeGradeOfItem</text>
</a>
</g>
</g>
<!-- Node1&#45;&gt;Node2 -->
<g id="edge1" class="edge">
<title>Node1&#45;&gt;Node2</title>
<path fill="none" stroke="#191970" d="M143.5639,-14.5C152.181,-14.5 160.8365,-14.5 169.1233,-14.5"/>
<polygon fill="#191970" stroke="#191970" points="143.4902,-11.0001 133.4901,-14.5 143.4901,-18.0001 143.4902,-11.0001"/>
</g>
<!-- Node3 -->
<g id="node3" class="node">
<title>Node3</title>
<g id="a_node3"><a xlink:href="classlocomotor_1_1core_1_1_comparator.html#a092fb76ad264eeccd8f30eadb70e36e3" target="_top" xlink:title="computeGradeOfItems">
<polygon fill="#ffffff" stroke="#000000" points="317.4326,-5.5 317.4326,-23.5 434.585,-23.5 434.585,-5.5 317.4326,-5.5"/>
<text text-anchor="middle" x="376.0088" y="-11.5" font-family="Helvetica,sans-Serif" font-size="10.00" fill="#000000">computeGradeOfItems</text>
</a>
</g>
</g>
<!-- Node2&#45;&gt;Node3 -->
<g id="edge2" class="edge">
<title>Node2&#45;&gt;Node3</title>
<path fill="none" stroke="#191970" d="M291.466,-14.5C300.0823,-14.5 308.8619,-14.5 317.3448,-14.5"/>
<polygon fill="#191970" stroke="#191970" points="291.4539,-11.0001 281.4538,-14.5 291.4538,-18.0001 291.4539,-11.0001"/>
</g>
<!-- Node4 -->
<g id="node4" class="node">
<title>Node4</title>
<g id="a_node4"><a xlink:href="classlocomotor_1_1components_1_1network_1_1_a_p_i.html#a547463fbc7fb7b485886f0917e2c0b78" target="_top" xlink:title="locomotor.components.network.\lAPI.createHooks">
<polygon fill="#ffffff" stroke="#000000" points="470.585,-.5 470.585,-28.5 627.7715,-28.5 627.7715,-.5 470.585,-.5"/>
<text text-anchor="start" x="478.585" y="-16.5" font-family="Helvetica,sans-Serif" font-size="10.00" fill="#000000">locomotor.components.network.</text>
<text text-anchor="middle" x="549.1782" y="-6.5" font-family="Helvetica,sans-Serif" font-size="10.00" fill="#000000">API.createHooks</text>
</a>
</g>
</g>
<!-- Node3&#45;&gt;Node4 -->
<g id="edge3" class="edge">
<title>Node3&#45;&gt;Node4</title>
<path fill="none" stroke="#191970" d="M444.753,-14.5C453.161,-14.5 461.8037,-14.5 470.3449,-14.5"/>
<polygon fill="#191970" stroke="#191970" points="444.6361,-11.0001 434.6361,-14.5 444.636,-18.0001 444.6361,-11.0001"/>
</g>
<!-- Node5 -->
<g id="node5" class="node">
<title>Node5</title>
<g id="a_node5"><a xlink:href="classlocomotor_1_1core_1_1_main.html#a8b260eecbaabcef8473fd87ada040682" target="_top" xlink:title="locomotor.core.Main.main">
<polygon fill="#ffffff" stroke="#000000" points="663.7715,-5.5 663.7715,-23.5 794.2686,-23.5 794.2686,-5.5 663.7715,-5.5"/>
<text text-anchor="middle" x="729.02" y="-11.5" font-family="Helvetica,sans-Serif" font-size="10.00" fill="#000000">locomotor.core.Main.main</text>
</a>
</g>
</g>
<!-- Node4&#45;&gt;Node5 -->
<g id="edge4" class="edge">
<title>Node4&#45;&gt;Node5</title>
<path fill="none" stroke="#191970" d="M637.9712,-14.5C646.6595,-14.5 655.3619,-14.5 663.7538,-14.5"/>
<polygon fill="#191970" stroke="#191970" points="637.7979,-11.0001 627.7978,-14.5 637.7978,-18.0001 637.7979,-11.0001"/>
</g>
</g>
</svg>
