<?xml version="1.0" encoding="UTF-8" standalone="no"?>
<!DOCTYPE svg PUBLIC "-//W3C//DTD SVG 1.1//EN"
 "http://www.w3.org/Graphics/SVG/1.1/DTD/svg11.dtd">
<!-- Generated by graphviz version 2.40.1 (20161225.0304)
 -->
<!-- Title: computeGradeOfCategory Pages: 1 -->
<svg width="528pt" height="251pt"
 viewBox="0.00 0.00 528.18 251.00" xmlns="http://www.w3.org/2000/svg" xmlns:xlink="http://www.w3.org/1999/xlink">
<g id="graph0" class="graph" transform="scale(1 1) rotate(0) translate(4 247)">
<title>computeGradeOfCategory</title>
<polygon fill="#ffffff" stroke="transparent" points="-4,4 -4,-247 524.1758,-247 524.1758,4 -4,4"/>
<!-- Node1 -->
<g id="node1" class="node">
<title>Node1</title>
<polygon fill="#bfbfbf" stroke="#000000" points="0,-176.5 0,-194.5 133.2803,-194.5 133.2803,-176.5 0,-176.5"/>
<text text-anchor="middle" x="66.6401" y="-182.5" font-family="Helvetica,sans-Serif" font-size="10.00" fill="#000000">computeGradeOfCategory</text>
</g>
<!-- Node2 -->
<g id="node2" class="node">
<title>Node2</title>
<g id="a_node2"><a xlink:href="classlocomotor_1_1components_1_1models_1_1_category.html#a0e11818fedf98727494278ea27386dea" target="_top" xlink:title="locomotor.components.models.\lCategory.getCriterias">
<polygon fill="#ffffff" stroke="#000000" points="169.2803,-214.5 169.2803,-242.5 323.6885,-242.5 323.6885,-214.5 169.2803,-214.5"/>
<text text-anchor="start" x="177.2803" y="-230.5" font-family="Helvetica,sans-Serif" font-size="10.00" fill="#000000">locomotor.components.models.</text>
<text text-anchor="middle" x="246.4844" y="-220.5" font-family="Helvetica,sans-Serif" font-size="10.00" fill="#000000">Category.getCriterias</text>
</a>
</g>
</g>
<!-- Node1&#45;&gt;Node2 -->
<g id="edge1" class="edge">
<title>Node1&#45;&gt;Node2</title>
<path fill="none" stroke="#191970" d="M104.3414,-194.5142C125.619,-199.6016 152.8662,-206.1163 177.8021,-212.0784"/>
<polygon fill="#191970" stroke="#191970" points="177.051,-215.4974 187.5908,-214.4188 178.6789,-208.6893 177.051,-215.4974"/>
</g>
<!-- Node3 -->
<g id="node3" class="node">
<title>Node3</title>
<g id="a_node3"><a xlink:href="classlocomotor_1_1core_1_1_comparator.html#a686a6117a0c0951d6b70fb883b2b5937" target="_top" xlink:title="computeGradeOfCriteria">
<polygon fill="#ffffff" stroke="#000000" points="184.019,-122.5 184.019,-140.5 308.9497,-140.5 308.9497,-122.5 184.019,-122.5"/>
<text text-anchor="middle" x="246.4844" y="-128.5" font-family="Helvetica,sans-Serif" font-size="10.00" fill="#000000">computeGradeOfCriteria</text>
</a>
</g>
</g>
<!-- Node1&#45;&gt;Node3 -->
<g id="edge2" class="edge">
<title>Node1&#45;&gt;Node3</title>
<path fill="none" stroke="#191970" d="M96.742,-176.4616C126.8279,-167.428 173.2643,-153.485 206.4451,-143.5222"/>
<polygon fill="#191970" stroke="#191970" points="207.7132,-146.7959 216.2843,-140.5679 205.7002,-140.0916 207.7132,-146.7959"/>
</g>
<!-- Node4 -->
<g id="node4" class="node">
<title>Node4</title>
<g id="a_node4"><a xlink:href="classlocomotor_1_1components_1_1models_1_1_criteria.html#a34e60b6081b4c555dc9f5b872cbe044e" target="_top" xlink:title="locomotor.components.models.\lCriteria.getID">
<polygon fill="#ffffff" stroke="#000000" points="362.728,-188.5 362.728,-216.5 517.1362,-216.5 517.1362,-188.5 362.728,-188.5"/>
<text text-anchor="start" x="370.728" y="-204.5" font-family="Helvetica,sans-Serif" font-size="10.00" fill="#000000">locomotor.components.models.</text>
<text text-anchor="middle" x="439.9321" y="-194.5" font-family="Helvetica,sans-Serif" font-size="10.00" fill="#000000">Criteria.getID</text>
</a>
</g>
</g>
<!-- Node1&#45;&gt;Node4 -->
<g id="edge8" class="edge">
<title>Node1&#45;&gt;Node4</title>
<path fill="none" stroke="#191970" d="M133.3773,-188.5393C194.5152,-191.3235 285.4199,-195.4634 352.3708,-198.5124"/>
<polygon fill="#191970" stroke="#191970" points="352.336,-202.0143 362.4849,-198.973 352.6545,-195.0216 352.336,-202.0143"/>
</g>
<!-- Node3&#45;&gt;Node4 -->
<g id="edge3" class="edge">
<title>Node3&#45;&gt;Node4</title>
<path fill="none" stroke="#191970" d="M265.8319,-140.5588C288.1461,-150.805 326.0805,-167.6082 359.6885,-179.5 365.5162,-181.5621 371.6298,-183.5755 377.7721,-185.4993"/>
<polygon fill="#191970" stroke="#191970" points="376.8247,-188.8695 387.4109,-188.4427 378.8691,-182.1747 376.8247,-188.8695"/>
</g>
<!-- Node5 -->
<g id="node5" class="node">
<title>Node5</title>
<g id="a_node5"><a xlink:href="classlocomotor_1_1components_1_1models_1_1_item_criteria.html#ad1dc198074d5d5e901d0e5159ded14fa" target="_top" xlink:title="locomotor.components.models.\lItemCriteria.getValue">
<polygon fill="#ffffff" stroke="#000000" points="362.728,-141.5 362.728,-169.5 517.1362,-169.5 517.1362,-141.5 362.728,-141.5"/>
<text text-anchor="start" x="370.728" y="-157.5" font-family="Helvetica,sans-Serif" font-size="10.00" fill="#000000">locomotor.components.models.</text>
<text text-anchor="middle" x="439.9321" y="-147.5" font-family="Helvetica,sans-Serif" font-size="10.00" fill="#000000">ItemCriteria.getValue</text>
</a>
</g>
</g>
<!-- Node3&#45;&gt;Node5 -->
<g id="edge4" class="edge">
<title>Node3&#45;&gt;Node5</title>
<path fill="none" stroke="#191970" d="M309.0242,-139.259C322.9261,-140.9837 337.9093,-142.8426 352.6007,-144.6653"/>
<polygon fill="#191970" stroke="#191970" points="352.3533,-148.1613 362.7082,-145.9193 353.2152,-141.2146 352.3533,-148.1613"/>
</g>
<!-- Node6 -->
<g id="node6" class="node">
<title>Node6</title>
<g id="a_node6"><a xlink:href="classlocomotor_1_1components_1_1models_1_1_user_criteria.html#ae439cd3f7be14d7e03f87a7ca9367d54" target="_top" xlink:title="locomotor.components.models.\lUserCriteria.getValue">
<polygon fill="#ffffff" stroke="#000000" points="362.728,-94.5 362.728,-122.5 517.1362,-122.5 517.1362,-94.5 362.728,-94.5"/>
<text text-anchor="start" x="370.728" y="-110.5" font-family="Helvetica,sans-Serif" font-size="10.00" fill="#000000">locomotor.components.models.</text>
<text text-anchor="middle" x="439.9321" y="-100.5" font-family="Helvetica,sans-Serif" font-size="10.00" fill="#000000">UserCriteria.getValue</text>
</a>
</g>
</g>
<!-- Node3&#45;&gt;Node6 -->
<g id="edge5" class="edge">
<title>Node3&#45;&gt;Node6</title>
<path fill="none" stroke="#191970" d="M309.0242,-124.0643C322.9261,-122.4114 337.9093,-120.63 352.6007,-118.8833"/>
<polygon fill="#191970" stroke="#191970" points="353.1914,-122.3378 362.7082,-117.6815 352.3649,-115.3868 353.1914,-122.3378"/>
</g>
<!-- Node7 -->
<g id="node7" class="node">
<title>Node7</title>
<g id="a_node7"><a xlink:href="classlocomotor_1_1components_1_1models_1_1_user_criteria.html#a671adef5afc1b82389174abfaff3c892" target="_top" xlink:title="locomotor.components.models.\lUserCriteria.getDisableFlexibility">
<polygon fill="#ffffff" stroke="#000000" points="359.6885,-47.5 359.6885,-75.5 520.1758,-75.5 520.1758,-47.5 359.6885,-47.5"/>
<text text-anchor="start" x="367.6885" y="-63.5" font-family="Helvetica,sans-Serif" font-size="10.00" fill="#000000">locomotor.components.models.</text>
<text text-anchor="middle" x="439.9321" y="-53.5" font-family="Helvetica,sans-Serif" font-size="10.00" fill="#000000">UserCriteria.getDisableFlexibility</text>
</a>
</g>
</g>
<!-- Node3&#45;&gt;Node7 -->
<g id="edge6" class="edge">
<title>Node3&#45;&gt;Node7</title>
<path fill="none" stroke="#191970" d="M266.2571,-122.4801C288.6432,-112.4593 326.3428,-96.1582 359.6885,-84.5 365.5239,-82.4598 371.6426,-80.461 377.7881,-78.5463"/>
<polygon fill="#191970" stroke="#191970" points="378.8821,-81.872 387.4306,-75.613 376.8448,-75.175 378.8821,-81.872"/>
</g>
<!-- Node8 -->
<g id="node8" class="node">
<title>Node8</title>
<g id="a_node8"><a xlink:href="interfacelocomotor_1_1components_1_1types_1_1_c_comparable.html#a1d9a08e9f962c76e6525f8da05ca7f21" target="_top" xlink:title="locomotor.components.types.\lCComparable.compare">
<polygon fill="#ffffff" stroke="#000000" points="366.8955,-.5 366.8955,-28.5 512.9688,-28.5 512.9688,-.5 366.8955,-.5"/>
<text text-anchor="start" x="374.8955" y="-16.5" font-family="Helvetica,sans-Serif" font-size="10.00" fill="#000000">locomotor.components.types.</text>
<text text-anchor="middle" x="439.9321" y="-6.5" font-family="Helvetica,sans-Serif" font-size="10.00" fill="#000000">CComparable.compare</text>
</a>
</g>
</g>
<!-- Node3&#45;&gt;Node8 -->
<g id="edge7" class="edge">
<title>Node3&#45;&gt;Node8</title>
<path fill="none" stroke="#191970" d="M254.9294,-122.2842C272.5785,-103.5651 315.418,-60.8899 359.6885,-37.5 363.1922,-35.6488 366.8629,-33.9307 370.625,-32.3384"/>
<polygon fill="#191970" stroke="#191970" points="372.0766,-35.5291 380.1216,-28.635 369.5333,-29.0074 372.0766,-35.5291"/>
</g>
</g>
</svg>
