<?xml version="1.0" encoding="UTF-8" standalone="no"?>
<!DOCTYPE svg PUBLIC "-//W3C//DTD SVG 1.1//EN"
 "http://www.w3.org/Graphics/SVG/1.1/DTD/svg11.dtd">
<!-- Generated by graphviz version 2.40.1 (20161225.0304)
 -->
<!-- Title: success Pages: 1 -->
<svg width="279pt" height="141pt"
 viewBox="0.00 0.00 278.87 141.00" xmlns="http://www.w3.org/2000/svg" xmlns:xlink="http://www.w3.org/1999/xlink">
<g id="graph0" class="graph" transform="scale(1 1) rotate(0) translate(4 137)">
<title>success</title>
<polygon fill="#ffffff" stroke="transparent" points="-4,4 -4,-137 274.8662,-137 274.8662,4 -4,4"/>
<!-- Node1 -->
<g id="node1" class="node">
<title>Node1</title>
<polygon fill="#bfbfbf" stroke="#000000" points="0,-52.5 0,-70.5 52.123,-70.5 52.123,-52.5 0,-52.5"/>
<text text-anchor="middle" x="26.0615" y="-58.5" font-family="Helvetica,sans-Serif" font-size="10.00" fill="#000000">success</text>
</g>
<!-- Node2 -->
<g id="node2" class="node">
<title>Node2</title>
<g id="a_node2"><a xlink:href="classlocomotor_1_1components_1_1network_1_1_network_response.html#a143bb7402270f3dc0872ab5586653f61" target="_top" xlink:title="locomotor.components.network.\lNetworkResponse.toByteArrayOutput\lStream">
<polygon fill="#ffffff" stroke="#000000" points="88.123,-94.5 88.123,-132.5 270.8662,-132.5 270.8662,-94.5 88.123,-94.5"/>
<text text-anchor="start" x="96.123" y="-120.5" font-family="Helvetica,sans-Serif" font-size="10.00" fill="#000000">locomotor.components.network.</text>
<text text-anchor="start" x="96.123" y="-110.5" font-family="Helvetica,sans-Serif" font-size="10.00" fill="#000000">NetworkResponse.toByteArrayOutput</text>
<text text-anchor="middle" x="179.4946" y="-100.5" font-family="Helvetica,sans-Serif" font-size="10.00" fill="#000000">Stream</text>
</a>
</g>
</g>
<!-- Node1&#45;&gt;Node2 -->
<g id="edge1" class="edge">
<title>Node1&#45;&gt;Node2</title>
<path fill="none" stroke="#191970" d="M48.3252,-70.5545C60.0852,-75.224 74.8044,-80.8907 88.123,-85.5 93.7478,-87.4466 99.5905,-89.3975 105.4796,-91.3133"/>
<polygon fill="#191970" stroke="#191970" points="104.8127,-94.775 115.4039,-94.4972 106.9512,-88.1096 104.8127,-94.775"/>
</g>
<!-- Node3 -->
<g id="node3" class="node">
<title>Node3</title>
<g id="a_node3"><a xlink:href="classlocomotor_1_1components_1_1network_1_1_network_response.html#a66b0dd722c150e0c2eac12c9e6e813ef" target="_top" xlink:title="locomotor.components.network.\lNetworkResponse.sendAnswer">
<polygon fill="#ffffff" stroke="#000000" points="100.9014,-47.5 100.9014,-75.5 258.0879,-75.5 258.0879,-47.5 100.9014,-47.5"/>
<text text-anchor="start" x="108.9014" y="-63.5" font-family="Helvetica,sans-Serif" font-size="10.00" fill="#000000">locomotor.components.network.</text>
<text text-anchor="middle" x="179.4946" y="-53.5" font-family="Helvetica,sans-Serif" font-size="10.00" fill="#000000">NetworkResponse.sendAnswer</text>
</a>
</g>
</g>
<!-- Node1&#45;&gt;Node3 -->
<g id="edge2" class="edge">
<title>Node1&#45;&gt;Node3</title>
<path fill="none" stroke="#191970" d="M52.4376,-61.5C63.3312,-61.5 76.6493,-61.5 90.5162,-61.5"/>
<polygon fill="#191970" stroke="#191970" points="90.6836,-65.0001 100.6835,-61.5 90.6835,-58.0001 90.6836,-65.0001"/>
</g>
<!-- Node4 -->
<g id="node4" class="node">
<title>Node4</title>
<g id="a_node4"><a xlink:href="classlocomotor_1_1components_1_1_mutable_integer.html#ab1285c4f05252364e32fd03079fa2f35" target="_top" xlink:title="locomotor.components.Mutable\lInteger.intValue">
<polygon fill="#ffffff" stroke="#000000" points="102.0098,-.5 102.0098,-28.5 256.9795,-28.5 256.9795,-.5 102.0098,-.5"/>
<text text-anchor="start" x="110.0098" y="-16.5" font-family="Helvetica,sans-Serif" font-size="10.00" fill="#000000">locomotor.components.Mutable</text>
<text text-anchor="middle" x="179.4946" y="-6.5" font-family="Helvetica,sans-Serif" font-size="10.00" fill="#000000">Integer.intValue</text>
</a>
</g>
</g>
<!-- Node1&#45;&gt;Node4 -->
<g id="edge3" class="edge">
<title>Node1&#45;&gt;Node4</title>
<path fill="none" stroke="#191970" d="M48.8648,-52.439C60.5159,-47.9656 74.9743,-42.6523 88.123,-38.5 95.9919,-36.0151 104.297,-33.5799 112.5629,-31.2708"/>
<polygon fill="#191970" stroke="#191970" points="113.5016,-34.6427 122.22,-28.6228 111.6504,-27.8919 113.5016,-34.6427"/>
</g>
</g>
</svg>
