<?xml version="1.0" encoding="UTF-8" standalone="no"?>
<!DOCTYPE svg PUBLIC "-//W3C//DTD SVG 1.1//EN"
 "http://www.w3.org/Graphics/SVG/1.1/DTD/svg11.dtd">
<!-- Generated by graphviz version 2.40.1 (20161225.0304)
 -->
<!-- Title: createHash Pages: 1 -->
<svg width="169pt" height="64pt"
 viewBox="0.00 0.00 169.39 64.00" xmlns="http://www.w3.org/2000/svg" xmlns:xlink="http://www.w3.org/1999/xlink">
<g id="graph0" class="graph" transform="scale(1 1) rotate(0) translate(4 60)">
<title>createHash</title>
<polygon fill="#ffffff" stroke="transparent" points="-4,4 -4,-60 165.3936,-60 165.3936,4 -4,4"/>
<!-- Node1 -->
<g id="node1" class="node">
<title>Node1</title>
<polygon fill="#bfbfbf" stroke="#000000" points="0,-18.5 0,-36.5 67.1377,-36.5 67.1377,-18.5 0,-18.5"/>
<text text-anchor="middle" x="33.5688" y="-24.5" font-family="Helvetica,sans-Serif" font-size="10.00" fill="#000000">createHash</text>
</g>
<!-- Node2 -->
<g id="node2" class="node">
<title>Node2</title>
<g id="a_node2"><a xlink:href="classlocomotor_1_1core_1_1_password_storage.html#a19edc31c5ae3911d65e566bfaf369f10" target="_top" xlink:title="pbkdf2">
<polygon fill="#ffffff" stroke="#000000" points="109.2534,-37.5 109.2534,-55.5 155.2778,-55.5 155.2778,-37.5 109.2534,-37.5"/>
<text text-anchor="middle" x="132.2656" y="-43.5" font-family="Helvetica,sans-Serif" font-size="10.00" fill="#000000">pbkdf2</text>
</a>
</g>
</g>
<!-- Node1&#45;&gt;Node2 -->
<g id="edge1" class="edge">
<title>Node1&#45;&gt;Node2</title>
<path fill="none" stroke="#191970" d="M67.2586,-33.9856C77.5617,-35.969 88.8807,-38.148 99.1455,-40.1241"/>
<polygon fill="#191970" stroke="#191970" points="98.5009,-43.5642 108.9823,-42.0178 99.8243,-36.6904 98.5009,-43.5642"/>
</g>
<!-- Node3 -->
<g id="node3" class="node">
<title>Node3</title>
<g id="a_node3"><a xlink:href="classlocomotor_1_1core_1_1_password_storage.html#a147b95f328abf09a494182bb4381f038" target="_top" xlink:title="toBase64">
<polygon fill="#ffffff" stroke="#000000" points="103.1377,-.5 103.1377,-18.5 161.3936,-18.5 161.3936,-.5 103.1377,-.5"/>
<text text-anchor="middle" x="132.2656" y="-6.5" font-family="Helvetica,sans-Serif" font-size="10.00" fill="#000000">toBase64</text>
</a>
</g>
</g>
<!-- Node1&#45;&gt;Node3 -->
<g id="edge2" class="edge">
<title>Node1&#45;&gt;Node3</title>
<path fill="none" stroke="#191970" d="M67.2586,-21.3558C75.5164,-19.8497 84.4269,-18.2247 92.9241,-16.675"/>
<polygon fill="#191970" stroke="#191970" points="93.8025,-20.0726 103.0123,-14.8351 92.5466,-13.1862 93.8025,-20.0726"/>
</g>
</g>
</svg>
