<?xml version="1.0" encoding="UTF-8" standalone="no"?>
<!DOCTYPE svg PUBLIC "-//W3C//DTD SVG 1.1//EN"
 "http://www.w3.org/Graphics/SVG/1.1/DTD/svg11.dtd">
<!-- Generated by graphviz version 2.40.1 (20161225.0304)
 -->
<!-- Title: requestBinary Pages: 1 -->
<svg width="525pt" height="37pt"
 viewBox="0.00 0.00 525.45 37.00" xmlns="http://www.w3.org/2000/svg" xmlns:xlink="http://www.w3.org/1999/xlink">
<g id="graph0" class="graph" transform="scale(1 1) rotate(0) translate(4 33)">
<title>requestBinary</title>
<polygon fill="#ffffff" stroke="transparent" points="-4,4 -4,-33 521.4463,-33 521.4463,4 -4,4"/>
<!-- Node1 -->
<g id="node1" class="node">
<title>Node1</title>
<polygon fill="#bfbfbf" stroke="#000000" points="0,-5.5 0,-23.5 77.6992,-23.5 77.6992,-5.5 0,-5.5"/>
<text text-anchor="middle" x="38.8496" y="-11.5" font-family="Helvetica,sans-Serif" font-size="10.00" fill="#000000">requestBinary</text>
</g>
<!-- Node2 -->
<g id="node2" class="node">
<title>Node2</title>
<g id="a_node2"><a xlink:href="classlocomotor_1_1front_1_1components_1_1_front_resource_manager.html#a90ec9cbe2d393ac172e03972abf97f1d" target="_top" xlink:title="locomotor.front.components.\lFrontResourceManager.getRemoteResource">
<polygon fill="#ffffff" stroke="#000000" points="113.6992,-.5 113.6992,-28.5 329.25,-28.5 329.25,-.5 113.6992,-.5"/>
<text text-anchor="start" x="121.6992" y="-16.5" font-family="Helvetica,sans-Serif" font-size="10.00" fill="#000000">locomotor.front.components.</text>
<text text-anchor="middle" x="221.4746" y="-6.5" font-family="Helvetica,sans-Serif" font-size="10.00" fill="#000000">FrontResourceManager.getRemoteResource</text>
</a>
</g>
</g>
<!-- Node1&#45;&gt;Node2 -->
<g id="edge1" class="edge">
<title>Node1&#45;&gt;Node2</title>
<path fill="none" stroke="#191970" d="M88.17,-14.5C96.1464,-14.5 104.6692,-14.5 113.4039,-14.5"/>
<polygon fill="#191970" stroke="#191970" points="88.0273,-11.0001 78.0273,-14.5 88.0272,-18.0001 88.0273,-11.0001"/>
</g>
<!-- Node3 -->
<g id="node3" class="node">
<title>Node3</title>
<g id="a_node3"><a xlink:href="classlocomotor_1_1front_1_1user_1_1_bridge.html#afa7ac789194b4e4f08000205a0f96f11" target="_top" xlink:title="locomotor.front.user.Bridge.get\lModel">
<polygon fill="#ffffff" stroke="#000000" points="365.25,-.5 365.25,-28.5 517.4463,-28.5 517.4463,-.5 365.25,-.5"/>
<text text-anchor="start" x="373.25" y="-16.5" font-family="Helvetica,sans-Serif" font-size="10.00" fill="#000000">locomotor.front.user.Bridge.get</text>
<text text-anchor="middle" x="441.3481" y="-6.5" font-family="Helvetica,sans-Serif" font-size="10.00" fill="#000000">Model</text>
</a>
</g>
</g>
<!-- Node2&#45;&gt;Node3 -->
<g id="edge2" class="edge">
<title>Node2&#45;&gt;Node3</title>
<path fill="none" stroke="#191970" d="M339.6448,-14.5C348.2889,-14.5 356.8647,-14.5 365.1568,-14.5"/>
<polygon fill="#191970" stroke="#191970" points="339.479,-11.0001 329.479,-14.5 339.4789,-18.0001 339.479,-11.0001"/>
</g>
</g>
</svg>
