<?xml version="1.0" encoding="UTF-8" standalone="no"?>
<!DOCTYPE svg PUBLIC "-//W3C//DTD SVG 1.1//EN"
 "http://www.w3.org/Graphics/SVG/1.1/DTD/svg11.dtd">
<!-- Generated by graphviz version 2.40.1 (20161225.0304)
 -->
<!-- Title: ErrorHandler Pages: 1 -->
<svg width="238pt" height="102pt"
 viewBox="0.00 0.00 238.49 102.00" xmlns="http://www.w3.org/2000/svg" xmlns:xlink="http://www.w3.org/1999/xlink">
<g id="graph0" class="graph" transform="scale(1 1) rotate(0) translate(4 98)">
<title>ErrorHandler</title>
<polygon fill="#ffffff" stroke="transparent" points="-4,4 -4,-98 234.4922,-98 234.4922,4 -4,4"/>
<!-- Node1 -->
<g id="node1" class="node">
<title>Node1</title>
<polygon fill="#bfbfbf" stroke="#000000" points="78.6255,-.5 78.6255,-18.5 151.8667,-18.5 151.8667,-.5 78.6255,-.5"/>
<text text-anchor="middle" x="115.2461" y="-6.5" font-family="Helvetica,sans-Serif" font-size="10.00" fill="#000000">ErrorHandler</text>
</g>
<!-- Node1&#45;&gt;Node1 -->
<g id="edge1" class="edge">
<title>Node1&#45;&gt;Node1</title>
<path fill="none" stroke="#9a32cd" stroke-dasharray="5,2" d="M162.1063,-14.4222C166.8446,-13.4454 169.8667,-11.8047 169.8667,-9.5 169.8667,-5.8125 162.1301,-3.8247 152.0061,-3.5366"/>
<polygon fill="#9a32cd" stroke="#9a32cd" points="161.5944,-10.9563 152.0061,-15.4634 162.3123,-17.9195 161.5944,-10.9563"/>
<text text-anchor="middle" x="179.5981" y="-6.5" font-family="Helvetica,sans-Serif" font-size="10.00" fill="#000000"> _eh</text>
</g>
<!-- Node2 -->
<g id="node2" class="node">
<title>Node2</title>
<polygon fill="#ffffff" stroke="#bfbfbf" points="0,-65.5 0,-93.5 230.4922,-93.5 230.4922,-65.5 0,-65.5"/>
<text text-anchor="start" x="8" y="-81.5" font-family="Helvetica,sans-Serif" font-size="10.00" fill="#000000">TreeMap&lt; Long, locomotor.components.logging.</text>
<text text-anchor="middle" x="115.2461" y="-71.5" font-family="Helvetica,sans-Serif" font-size="10.00" fill="#000000">ErrorContext &gt;</text>
</g>
<!-- Node2&#45;&gt;Node1 -->
<g id="edge2" class="edge">
<title>Node2&#45;&gt;Node1</title>
<path fill="none" stroke="#9a32cd" stroke-dasharray="5,2" d="M115.2461,-55.007C115.2461,-42.4648 115.2461,-27.9386 115.2461,-18.7368"/>
<polygon fill="#9a32cd" stroke="#9a32cd" points="111.7462,-55.3344 115.2461,-65.3345 118.7462,-55.3345 111.7462,-55.3344"/>
<text text-anchor="middle" x="135.5366" y="-39" font-family="Helvetica,sans-Serif" font-size="10.00" fill="#000000"> _context</text>
</g>
</g>
</svg>
