<?xml version="1.0" encoding="UTF-8" standalone="no"?>
<!DOCTYPE svg PUBLIC "-//W3C//DTD SVG 1.1//EN"
 "http://www.w3.org/Graphics/SVG/1.1/DTD/svg11.dtd">
<!-- Generated by graphviz version 2.40.1 (20161225.0304)
 -->
<!-- Title: compare Pages: 1 -->
<svg width="996pt" height="199pt"
 viewBox="0.00 0.00 995.51 199.00" xmlns="http://www.w3.org/2000/svg" xmlns:xlink="http://www.w3.org/1999/xlink">
<g id="graph0" class="graph" transform="scale(1 1) rotate(0) translate(4 195)">
<title>compare</title>
<polygon fill="#ffffff" stroke="transparent" points="-4,4 -4,-195 991.5137,-195 991.5137,4 -4,4"/>
<!-- Node1 -->
<g id="node1" class="node">
<title>Node1</title>
<polygon fill="#bfbfbf" stroke="#000000" points="0,-75.5 0,-93.5 54.9063,-93.5 54.9063,-75.5 0,-75.5"/>
<text text-anchor="middle" x="27.4531" y="-81.5" font-family="Helvetica,sans-Serif" font-size="10.00" fill="#000000">compare</text>
</g>
<!-- Node2 -->
<g id="node2" class="node">
<title>Node2</title>
<g id="a_node2"><a xlink:href="classlocomotor_1_1components_1_1_compare.html#a2a101cdb459b3ee3a59e76aaaa08750c" target="_top" xlink:title="locomotor.components.Compare.unique\lValue">
<polygon fill="#ffffff" stroke="#000000" points="90.9063,-141.5 90.9063,-169.5 284.2354,-169.5 284.2354,-141.5 90.9063,-141.5"/>
<text text-anchor="start" x="98.9063" y="-157.5" font-family="Helvetica,sans-Serif" font-size="10.00" fill="#000000">locomotor.components.Compare.unique</text>
<text text-anchor="middle" x="187.5708" y="-147.5" font-family="Helvetica,sans-Serif" font-size="10.00" fill="#000000">Value</text>
</a>
</g>
</g>
<!-- Node1&#45;&gt;Node2 -->
<g id="edge1" class="edge">
<title>Node1&#45;&gt;Node2</title>
<path fill="none" stroke="#191970" d="M37.4068,-93.8622C49.2565,-104.5082 70.0731,-121.6809 90.9063,-131.5 96.1669,-133.9794 101.7137,-136.2216 107.3807,-138.2461"/>
<polygon fill="#191970" stroke="#191970" points="106.4083,-141.6113 117.002,-141.4511 108.6207,-134.97 106.4083,-141.6113"/>
</g>
<!-- Node7 -->
<g id="node7" class="node">
<title>Node7</title>
<g id="a_node7"><a xlink:href="classlocomotor_1_1components_1_1types_1_1_c_interval.html#a8977ca8c87b00639da116d1441a878ec" target="_top" xlink:title="locomotor.components.types.\lCInterval.min">
<polygon fill="#ffffff" stroke="#000000" points="114.5342,-94.5 114.5342,-122.5 260.6074,-122.5 260.6074,-94.5 114.5342,-94.5"/>
<text text-anchor="start" x="122.5342" y="-110.5" font-family="Helvetica,sans-Serif" font-size="10.00" fill="#000000">locomotor.components.types.</text>
<text text-anchor="middle" x="187.5708" y="-100.5" font-family="Helvetica,sans-Serif" font-size="10.00" fill="#000000">CInterval.min</text>
</a>
</g>
</g>
<!-- Node1&#45;&gt;Node7 -->
<g id="edge7" class="edge">
<title>Node1&#45;&gt;Node7</title>
<path fill="none" stroke="#191970" d="M54.9783,-88.6257C68.8599,-90.7064 86.5141,-93.3526 104.3767,-96.0301"/>
<polygon fill="#191970" stroke="#191970" points="103.8909,-99.4963 114.2993,-97.5173 104.9286,-92.5736 103.8909,-99.4963"/>
</g>
<!-- Node8 -->
<g id="node8" class="node">
<title>Node8</title>
<g id="a_node8"><a xlink:href="classlocomotor_1_1components_1_1types_1_1_c_interval.html#a63edd36c00e0027edd899384e6f168f9" target="_top" xlink:title="locomotor.components.types.\lCInterval.max">
<polygon fill="#ffffff" stroke="#000000" points="114.5342,-47.5 114.5342,-75.5 260.6074,-75.5 260.6074,-47.5 114.5342,-47.5"/>
<text text-anchor="start" x="122.5342" y="-63.5" font-family="Helvetica,sans-Serif" font-size="10.00" fill="#000000">locomotor.components.types.</text>
<text text-anchor="middle" x="187.5708" y="-53.5" font-family="Helvetica,sans-Serif" font-size="10.00" fill="#000000">CInterval.max</text>
</a>
</g>
</g>
<!-- Node1&#45;&gt;Node8 -->
<g id="edge8" class="edge">
<title>Node1&#45;&gt;Node8</title>
<path fill="none" stroke="#191970" d="M54.9783,-80.5462C68.8599,-78.5522 86.5141,-76.0162 104.3767,-73.4504"/>
<polygon fill="#191970" stroke="#191970" points="104.8985,-76.9114 114.2993,-72.025 103.9032,-69.9825 104.8985,-76.9114"/>
</g>
<!-- Node9 -->
<g id="node9" class="node">
<title>Node9</title>
<g id="a_node9"><a xlink:href="classlocomotor_1_1components_1_1types_1_1_c_long.html#aef23d6d36c93f0f66355edabbc586fd4" target="_top" xlink:title="locomotor.components.types.\lCLong.value">
<polygon fill="#ffffff" stroke="#000000" points="114.5342,-.5 114.5342,-28.5 260.6074,-28.5 260.6074,-.5 114.5342,-.5"/>
<text text-anchor="start" x="122.5342" y="-16.5" font-family="Helvetica,sans-Serif" font-size="10.00" fill="#000000">locomotor.components.types.</text>
<text text-anchor="middle" x="187.5708" y="-6.5" font-family="Helvetica,sans-Serif" font-size="10.00" fill="#000000">CLong.value</text>
</a>
</g>
</g>
<!-- Node1&#45;&gt;Node9 -->
<g id="edge9" class="edge">
<title>Node1&#45;&gt;Node9</title>
<path fill="none" stroke="#191970" d="M36.9711,-75.4804C48.7284,-64.8325 69.7768,-47.3329 90.9063,-37.5 95.3172,-35.4473 99.9295,-33.5677 104.6452,-31.848"/>
<polygon fill="#191970" stroke="#191970" points="106.0856,-35.0558 114.4387,-28.5385 103.8445,-28.4242 106.0856,-35.0558"/>
</g>
<!-- Node3 -->
<g id="node3" class="node">
<title>Node3</title>
<g id="a_node3"><a xlink:href="classlocomotor_1_1core_1_1_gaussian.html#a2a6f2336ca6a2ad6a5406575827bbb56" target="_top" xlink:title="locomotor.core.Gaussian.get\lInstance">
<polygon fill="#ffffff" stroke="#000000" points="320.2354,-162.5 320.2354,-190.5 463.5303,-190.5 463.5303,-162.5 320.2354,-162.5"/>
<text text-anchor="start" x="328.2354" y="-178.5" font-family="Helvetica,sans-Serif" font-size="10.00" fill="#000000">locomotor.core.Gaussian.get</text>
<text text-anchor="middle" x="391.8828" y="-168.5" font-family="Helvetica,sans-Serif" font-size="10.00" fill="#000000">Instance</text>
</a>
</g>
</g>
<!-- Node2&#45;&gt;Node3 -->
<g id="edge2" class="edge">
<title>Node2&#45;&gt;Node3</title>
<path fill="none" stroke="#191970" d="M284.3419,-165.4465C292.9212,-166.3283 301.5512,-167.2154 309.9891,-168.0826"/>
<polygon fill="#191970" stroke="#191970" points="309.8644,-171.5882 320.1699,-169.1291 310.5802,-164.6249 309.8644,-171.5882"/>
</g>
<!-- Node5 -->
<g id="node5" class="node">
<title>Node5</title>
<g id="a_node5"><a xlink:href="classlocomotor_1_1core_1_1_gaussian.html#aaa66f1ce25c09e6e7cbd82c46ba0b4ae" target="_top" xlink:title="locomotor.core.Gaussian.pdf">
<polygon fill="#ffffff" stroke="#000000" points="664.9238,-145.5 664.9238,-163.5 808.2188,-163.5 808.2188,-145.5 664.9238,-145.5"/>
<text text-anchor="middle" x="736.5713" y="-151.5" font-family="Helvetica,sans-Serif" font-size="10.00" fill="#000000">locomotor.core.Gaussian.pdf</text>
</a>
</g>
</g>
<!-- Node2&#45;&gt;Node5 -->
<g id="edge6" class="edge">
<title>Node2&#45;&gt;Node5</title>
<path fill="none" stroke="#191970" d="M284.2956,-153.0584C296.3958,-152.8279 308.6019,-152.6315 320.2354,-152.5 457.4215,-150.9491 491.7349,-151.2257 628.9238,-152.5 637.2531,-152.5774 645.9444,-152.6884 654.6194,-152.819"/>
<polygon fill="#191970" stroke="#191970" points="654.7184,-156.321 664.7728,-152.9806 654.8298,-149.3218 654.7184,-156.321"/>
</g>
<!-- Node4 -->
<g id="node4" class="node">
<title>Node4</title>
<g id="a_node4"><a xlink:href="classlocomotor_1_1core_1_1_gaussian.html#aa4cd1241f20f836cbf5facbf2d8379e4" target="_top" xlink:title="locomotor.core.Gaussian.\lGaussian">
<polygon fill="#ffffff" stroke="#000000" points="499.5303,-162.5 499.5303,-190.5 628.9238,-190.5 628.9238,-162.5 499.5303,-162.5"/>
<text text-anchor="start" x="507.5303" y="-178.5" font-family="Helvetica,sans-Serif" font-size="10.00" fill="#000000">locomotor.core.Gaussian.</text>
<text text-anchor="middle" x="564.2271" y="-168.5" font-family="Helvetica,sans-Serif" font-size="10.00" fill="#000000">Gaussian</text>
</a>
</g>
</g>
<!-- Node3&#45;&gt;Node4 -->
<g id="edge3" class="edge">
<title>Node3&#45;&gt;Node4</title>
<path fill="none" stroke="#191970" d="M463.9737,-176.5C472.3019,-176.5 480.8105,-176.5 489.1769,-176.5"/>
<polygon fill="#191970" stroke="#191970" points="489.2898,-180.0001 499.2898,-176.5 489.2898,-173.0001 489.2898,-180.0001"/>
</g>
<!-- Node4&#45;&gt;Node5 -->
<g id="edge4" class="edge">
<title>Node4&#45;&gt;Node5</title>
<path fill="none" stroke="#191970" d="M629.383,-168.1827C638.0402,-167.0776 646.9988,-165.9341 655.8794,-164.8004"/>
<polygon fill="#191970" stroke="#191970" points="656.3763,-168.2655 665.8526,-163.5274 655.4898,-161.3218 656.3763,-168.2655"/>
</g>
<!-- Node6 -->
<g id="node6" class="node">
<title>Node6</title>
<g id="a_node6"><a xlink:href="classlocomotor_1_1core_1_1_gaussian.html#afd611f311f6fe230f8fad8bd0c7e0a51" target="_top" xlink:title="locomotor.core.Gaussian.get\lNearestStep">
<polygon fill="#ffffff" stroke="#000000" points="844.2188,-140.5 844.2188,-168.5 987.5137,-168.5 987.5137,-140.5 844.2188,-140.5"/>
<text text-anchor="start" x="852.2188" y="-156.5" font-family="Helvetica,sans-Serif" font-size="10.00" fill="#000000">locomotor.core.Gaussian.get</text>
<text text-anchor="middle" x="915.8662" y="-146.5" font-family="Helvetica,sans-Serif" font-size="10.00" fill="#000000">NearestStep</text>
</a>
</g>
</g>
<!-- Node5&#45;&gt;Node6 -->
<g id="edge5" class="edge">
<title>Node5&#45;&gt;Node6</title>
<path fill="none" stroke="#191970" d="M808.4643,-154.5C816.7758,-154.5 825.2994,-154.5 833.7337,-154.5"/>
<polygon fill="#191970" stroke="#191970" points="833.9571,-158.0001 843.9571,-154.5 833.957,-151.0001 833.9571,-158.0001"/>
</g>
</g>
</svg>
