<?xml version="1.0" encoding="UTF-8" standalone="no"?>
<!DOCTYPE svg PUBLIC "-//W3C//DTD SVG 1.1//EN"
 "http://www.w3.org/Graphics/SVG/1.1/DTD/svg11.dtd">
<!-- Generated by graphviz version 2.40.1 (20161225.0304)
 -->
<!-- Title: tokenAuth Pages: 1 -->
<svg width="501pt" height="131pt"
 viewBox="0.00 0.00 500.98 131.00" xmlns="http://www.w3.org/2000/svg" xmlns:xlink="http://www.w3.org/1999/xlink">
<g id="graph0" class="graph" transform="scale(1 1) rotate(0) translate(4 127)">
<title>tokenAuth</title>
<polygon fill="#ffffff" stroke="transparent" points="-4,4 -4,-127 496.9834,-127 496.9834,4 -4,4"/>
<!-- Node1 -->
<g id="node1" class="node">
<title>Node1</title>
<polygon fill="#bfbfbf" stroke="#000000" points="0,-75.5 0,-93.5 61.0342,-93.5 61.0342,-75.5 0,-75.5"/>
<text text-anchor="middle" x="30.5171" y="-81.5" font-family="Helvetica,sans-Serif" font-size="10.00" fill="#000000">tokenAuth</text>
</g>
<!-- Node2 -->
<g id="node2" class="node">
<title>Node2</title>
<g id="a_node2"><a xlink:href="classlocomotor_1_1front_1_1components_1_1network_1_1_client_request.html#a5177dbc0e509337643b1931cab9832ca" target="_top" xlink:title="locomotor.front.components.network.\lClientRequest.addParam">
<polygon fill="#ffffff" stroke="#000000" points="97.0342,-94.5 97.0342,-122.5 277.0088,-122.5 277.0088,-94.5 97.0342,-94.5"/>
<text text-anchor="start" x="105.0342" y="-110.5" font-family="Helvetica,sans-Serif" font-size="10.00" fill="#000000">locomotor.front.components.network.</text>
<text text-anchor="middle" x="187.0215" y="-100.5" font-family="Helvetica,sans-Serif" font-size="10.00" fill="#000000">ClientRequest.addParam</text>
</a>
</g>
</g>
<!-- Node1&#45;&gt;Node2 -->
<g id="edge1" class="edge">
<title>Node1&#45;&gt;Node2</title>
<path fill="none" stroke="#191970" d="M61.0642,-89.1844C68.8382,-90.3766 77.6279,-91.7245 86.8601,-93.1402"/>
<polygon fill="#191970" stroke="#191970" points="86.6097,-96.6426 97.0247,-94.699 87.6708,-89.7235 86.6097,-96.6426"/>
</g>
<!-- Node4 -->
<g id="node4" class="node">
<title>Node4</title>
<g id="a_node4"><a xlink:href="classlocomotor_1_1front_1_1components_1_1network_1_1_client_request.html#af820b68be6077f053a589af5c865700c" target="_top" xlink:title="locomotor.front.components.network.\lClientRequest.requestJson">
<polygon fill="#ffffff" stroke="#000000" points="97.0342,-47.5 97.0342,-75.5 277.0088,-75.5 277.0088,-47.5 97.0342,-47.5"/>
<text text-anchor="start" x="105.0342" y="-63.5" font-family="Helvetica,sans-Serif" font-size="10.00" fill="#000000">locomotor.front.components.network.</text>
<text text-anchor="middle" x="187.0215" y="-53.5" font-family="Helvetica,sans-Serif" font-size="10.00" fill="#000000">ClientRequest.requestJson</text>
</a>
</g>
</g>
<!-- Node1&#45;&gt;Node4 -->
<g id="edge3" class="edge">
<title>Node1&#45;&gt;Node4</title>
<path fill="none" stroke="#191970" d="M61.0642,-80.0108C68.8382,-78.8683 77.6279,-77.5766 86.8601,-76.2198"/>
<polygon fill="#191970" stroke="#191970" points="87.6399,-79.6429 97.0247,-74.726 86.622,-72.7173 87.6399,-79.6429"/>
</g>
<!-- Node3 -->
<g id="node3" class="node">
<title>Node3</title>
<g id="a_node3"><a xlink:href="classlocomotor_1_1front_1_1components_1_1network_1_1_file_upload.html#ab075e2b20b12151e05bf1fb51e40c1db" target="_top" xlink:title="locomotor.front.components.network.\lFileUpload.add">
<polygon fill="#ffffff" stroke="#000000" points="313.0088,-94.5 313.0088,-122.5 492.9834,-122.5 492.9834,-94.5 313.0088,-94.5"/>
<text text-anchor="start" x="321.0088" y="-110.5" font-family="Helvetica,sans-Serif" font-size="10.00" fill="#000000">locomotor.front.components.network.</text>
<text text-anchor="middle" x="402.9961" y="-100.5" font-family="Helvetica,sans-Serif" font-size="10.00" fill="#000000">FileUpload.add</text>
</a>
</g>
</g>
<!-- Node2&#45;&gt;Node3 -->
<g id="edge2" class="edge">
<title>Node2&#45;&gt;Node3</title>
<path fill="none" stroke="#191970" d="M277.0503,-108.5C285.5357,-108.5 294.1734,-108.5 302.7458,-108.5"/>
<polygon fill="#191970" stroke="#191970" points="302.7659,-112.0001 312.7659,-108.5 302.7659,-105.0001 302.7659,-112.0001"/>
</g>
<!-- Node5 -->
<g id="node5" class="node">
<title>Node5</title>
<g id="a_node5"><a xlink:href="classlocomotor_1_1front_1_1components_1_1network_1_1_file_upload.html#abbb8544c46b88f1a6f1e163725aaa1b3" target="_top" xlink:title="locomotor.front.components.network.\lFileUpload.send">
<polygon fill="#ffffff" stroke="#000000" points="313.0088,-47.5 313.0088,-75.5 492.9834,-75.5 492.9834,-47.5 313.0088,-47.5"/>
<text text-anchor="start" x="321.0088" y="-63.5" font-family="Helvetica,sans-Serif" font-size="10.00" fill="#000000">locomotor.front.components.network.</text>
<text text-anchor="middle" x="402.9961" y="-53.5" font-family="Helvetica,sans-Serif" font-size="10.00" fill="#000000">FileUpload.send</text>
</a>
</g>
</g>
<!-- Node4&#45;&gt;Node5 -->
<g id="edge4" class="edge">
<title>Node4&#45;&gt;Node5</title>
<path fill="none" stroke="#191970" d="M277.0503,-61.5C285.5357,-61.5 294.1734,-61.5 302.7458,-61.5"/>
<polygon fill="#191970" stroke="#191970" points="302.7659,-65.0001 312.7659,-61.5 302.7659,-58.0001 302.7659,-65.0001"/>
</g>
<!-- Node6 -->
<g id="node6" class="node">
<title>Node6</title>
<g id="a_node6"><a xlink:href="classlocomotor_1_1front_1_1components_1_1network_1_1_file_upload.html#ad90278946fac31b255b0ea524061a60b" target="_top" xlink:title="locomotor.front.components.network.\lFileUpload.getURLConnection">
<polygon fill="#ffffff" stroke="#000000" points="313.0088,-.5 313.0088,-28.5 492.9834,-28.5 492.9834,-.5 313.0088,-.5"/>
<text text-anchor="start" x="321.0088" y="-16.5" font-family="Helvetica,sans-Serif" font-size="10.00" fill="#000000">locomotor.front.components.network.</text>
<text text-anchor="middle" x="402.9961" y="-6.5" font-family="Helvetica,sans-Serif" font-size="10.00" fill="#000000">FileUpload.getURLConnection</text>
</a>
</g>
</g>
<!-- Node4&#45;&gt;Node6 -->
<g id="edge5" class="edge">
<title>Node4&#45;&gt;Node6</title>
<path fill="none" stroke="#191970" d="M251.5284,-47.4621C275.7791,-42.1847 303.5418,-36.1431 328.6187,-30.6859"/>
<polygon fill="#191970" stroke="#191970" points="329.4216,-34.0932 338.4486,-28.5467 327.933,-27.2532 329.4216,-34.0932"/>
</g>
</g>
</svg>
