<?xml version="1.0" encoding="UTF-8" standalone="no"?>
<!DOCTYPE svg PUBLIC "-//W3C//DTD SVG 1.1//EN"
 "http://www.w3.org/Graphics/SVG/1.1/DTD/svg11.dtd">
<!-- Generated by graphviz version 2.40.1 (20161225.0304)
 -->
<!-- Title: getInstance Pages: 1 -->
<svg width="357pt" height="27pt"
 viewBox="0.00 0.00 357.34 27.00" xmlns="http://www.w3.org/2000/svg" xmlns:xlink="http://www.w3.org/1999/xlink">
<g id="graph0" class="graph" transform="scale(1 1) rotate(0) translate(4 23)">
<title>getInstance</title>
<polygon fill="#ffffff" stroke="transparent" points="-4,4 -4,-23 353.3389,-23 353.3389,4 -4,4"/>
<!-- Node1 -->
<g id="node1" class="node">
<title>Node1</title>
<polygon fill="#bfbfbf" stroke="#000000" points="0,-.5 0,-18.5 67.7041,-18.5 67.7041,-.5 0,-.5"/>
<text text-anchor="middle" x="33.8521" y="-6.5" font-family="Helvetica,sans-Serif" font-size="10.00" fill="#000000">getInstance</text>
</g>
<!-- Node2 -->
<g id="node2" class="node">
<title>Node2</title>
<g id="a_node2"><a xlink:href="classlocomotor_1_1core_1_1_gaussian.html#aa4cd1241f20f836cbf5facbf2d8379e4" target="_top" xlink:title="Gaussian">
<polygon fill="#ffffff" stroke="#000000" points="103.7041,-.5 103.7041,-18.5 161.9502,-18.5 161.9502,-.5 103.7041,-.5"/>
<text text-anchor="middle" x="132.8271" y="-6.5" font-family="Helvetica,sans-Serif" font-size="10.00" fill="#000000">Gaussian</text>
</a>
</g>
</g>
<!-- Node1&#45;&gt;Node2 -->
<g id="edge1" class="edge">
<title>Node1&#45;&gt;Node2</title>
<path fill="none" stroke="#191970" d="M67.9137,-9.5C76.1825,-9.5 85.0898,-9.5 93.577,-9.5"/>
<polygon fill="#191970" stroke="#191970" points="93.65,-13.0001 103.65,-9.5 93.65,-6.0001 93.65,-13.0001"/>
</g>
<!-- Node3 -->
<g id="node3" class="node">
<title>Node3</title>
<g id="a_node3"><a xlink:href="classlocomotor_1_1core_1_1_gaussian.html#aaa66f1ce25c09e6e7cbd82c46ba0b4ae" target="_top" xlink:title="pdf">
<polygon fill="#ffffff" stroke="#000000" points="197.9502,-.5 197.9502,-18.5 227.8516,-18.5 227.8516,-.5 197.9502,-.5"/>
<text text-anchor="middle" x="212.9009" y="-6.5" font-family="Helvetica,sans-Serif" font-size="10.00" fill="#000000">pdf</text>
</a>
</g>
</g>
<!-- Node2&#45;&gt;Node3 -->
<g id="edge2" class="edge">
<title>Node2&#45;&gt;Node3</title>
<path fill="none" stroke="#191970" d="M162.189,-9.5C170.6305,-9.5 179.7551,-9.5 187.9063,-9.5"/>
<polygon fill="#191970" stroke="#191970" points="187.9219,-13.0001 197.9218,-9.5 187.9218,-6.0001 187.9219,-13.0001"/>
</g>
<!-- Node4 -->
<g id="node4" class="node">
<title>Node4</title>
<g id="a_node4"><a xlink:href="classlocomotor_1_1core_1_1_gaussian.html#afd611f311f6fe230f8fad8bd0c7e0a51" target="_top" xlink:title="getNearestStep">
<polygon fill="#ffffff" stroke="#000000" points="263.8516,-.5 263.8516,-18.5 349.3389,-18.5 349.3389,-.5 263.8516,-.5"/>
<text text-anchor="middle" x="306.5952" y="-6.5" font-family="Helvetica,sans-Serif" font-size="10.00" fill="#000000">getNearestStep</text>
</a>
</g>
</g>
<!-- Node3&#45;&gt;Node4 -->
<g id="edge3" class="edge">
<title>Node3&#45;&gt;Node4</title>
<path fill="none" stroke="#191970" d="M227.9545,-9.5C235.0963,-9.5 244.1047,-9.5 253.4537,-9.5"/>
<polygon fill="#191970" stroke="#191970" points="253.6599,-13.0001 263.6598,-9.5 253.6598,-6.0001 253.6599,-13.0001"/>
</g>
</g>
</svg>
