<?xml version="1.0" encoding="UTF-8" standalone="no"?>
<!DOCTYPE svg PUBLIC "-//W3C//DTD SVG 1.1//EN"
 "http://www.w3.org/Graphics/SVG/1.1/DTD/svg11.dtd">
<!-- Generated by graphviz version 2.40.1 (20161225.0304)
 -->
<!-- Title: sendAnswer Pages: 1 -->
<svg width="858pt" height="201pt"
 viewBox="0.00 0.00 858.44 201.00" xmlns="http://www.w3.org/2000/svg" xmlns:xlink="http://www.w3.org/1999/xlink">
<g id="graph0" class="graph" transform="scale(1 1) rotate(0) translate(4 197)">
<title>sendAnswer</title>
<polygon fill="#ffffff" stroke="transparent" points="-4,4 -4,-197 854.4355,-197 854.4355,4 -4,4"/>
<!-- Node1 -->
<g id="node1" class="node">
<title>Node1</title>
<polygon fill="#bfbfbf" stroke="#000000" points="0,-122.5 0,-140.5 71.0293,-140.5 71.0293,-122.5 0,-122.5"/>
<text text-anchor="middle" x="35.5146" y="-128.5" font-family="Helvetica,sans-Serif" font-size="10.00" fill="#000000">sendAnswer</text>
</g>
<!-- Node2 -->
<g id="node2" class="node">
<title>Node2</title>
<g id="a_node2"><a xlink:href="classlocomotor_1_1components_1_1network_1_1_network_binary_response.html#af449fa915233b6f7186e04299c61a633" target="_top" xlink:title="locomotor.components.network.\lNetworkBinaryResponse.success">
<polygon fill="#ffffff" stroke="#000000" points="107.0293,-164.5 107.0293,-192.5 271.9795,-192.5 271.9795,-164.5 107.0293,-164.5"/>
<text text-anchor="start" x="115.0293" y="-180.5" font-family="Helvetica,sans-Serif" font-size="10.00" fill="#000000">locomotor.components.network.</text>
<text text-anchor="middle" x="189.5044" y="-170.5" font-family="Helvetica,sans-Serif" font-size="10.00" fill="#000000">NetworkBinaryResponse.success</text>
</a>
</g>
</g>
<!-- Node1&#45;&gt;Node2 -->
<g id="edge1" class="edge">
<title>Node1&#45;&gt;Node2</title>
<path fill="none" stroke="#191970" d="M71.1973,-143.8794C82.6054,-147.7284 95.3128,-151.9029 107.0293,-155.5 116.8344,-158.5103 127.3456,-161.5687 137.4698,-164.4306"/>
<polygon fill="#191970" stroke="#191970" points="72.1586,-140.5095 61.5642,-140.6034 69.9048,-147.1368 72.1586,-140.5095"/>
</g>
<!-- Node5 -->
<g id="node5" class="node">
<title>Node5</title>
<g id="a_node5"><a xlink:href="classlocomotor_1_1components_1_1network_1_1_network_json_response.html#a611be806a1238aa7ec8c3166dca41509" target="_top" xlink:title="locomotor.components.network.\lNetworkJsonResponse.success">
<polygon fill="#ffffff" stroke="#000000" points="110.6401,-117.5 110.6401,-145.5 268.3687,-145.5 268.3687,-117.5 110.6401,-117.5"/>
<text text-anchor="start" x="118.6401" y="-133.5" font-family="Helvetica,sans-Serif" font-size="10.00" fill="#000000">locomotor.components.network.</text>
<text text-anchor="middle" x="189.5044" y="-123.5" font-family="Helvetica,sans-Serif" font-size="10.00" fill="#000000">NetworkJsonResponse.success</text>
</a>
</g>
</g>
<!-- Node1&#45;&gt;Node5 -->
<g id="edge4" class="edge">
<title>Node1&#45;&gt;Node5</title>
<path fill="none" stroke="#191970" d="M81.3007,-131.5C90.5229,-131.5 100.464,-131.5 110.4514,-131.5"/>
<polygon fill="#191970" stroke="#191970" points="81.2301,-128.0001 71.23,-131.5 81.23,-135.0001 81.2301,-128.0001"/>
</g>
<!-- Node6 -->
<g id="node6" class="node">
<title>Node6</title>
<g id="a_node6"><a xlink:href="classlocomotor_1_1components_1_1network_1_1_network_response.html#ab1be964e3a5f4dfc34483da5bfd13a8a" target="_top" xlink:title="failure">
<polygon fill="#ffffff" stroke="#000000" points="167.8862,-80.5 167.8862,-98.5 211.1226,-98.5 211.1226,-80.5 167.8862,-80.5"/>
<text text-anchor="middle" x="189.5044" y="-86.5" font-family="Helvetica,sans-Serif" font-size="10.00" fill="#000000">failure</text>
</a>
</g>
</g>
<!-- Node1&#45;&gt;Node6 -->
<g id="edge6" class="edge">
<title>Node1&#45;&gt;Node6</title>
<path fill="none" stroke="#191970" d="M70.2335,-119.0025C81.8492,-115.0485 94.922,-110.8421 107.0293,-107.5 127.3726,-101.8845 150.9253,-96.8911 167.6401,-93.5967"/>
<polygon fill="#191970" stroke="#191970" points="68.7673,-115.8062 60.4619,-122.3842 71.0567,-122.4212 68.7673,-115.8062"/>
</g>
<!-- Node3 -->
<g id="node3" class="node">
<title>Node3</title>
<g id="a_node3"><a xlink:href="classlocomotor_1_1components_1_1network_1_1_a_p_i.html#a547463fbc7fb7b485886f0917e2c0b78" target="_top" xlink:title="locomotor.components.network.\lAPI.createHooks">
<polygon fill="#ffffff" stroke="#000000" points="320.7725,-143.5 320.7725,-171.5 477.959,-171.5 477.959,-143.5 320.7725,-143.5"/>
<text text-anchor="start" x="328.7725" y="-159.5" font-family="Helvetica,sans-Serif" font-size="10.00" fill="#000000">locomotor.components.network.</text>
<text text-anchor="middle" x="399.3657" y="-149.5" font-family="Helvetica,sans-Serif" font-size="10.00" fill="#000000">API.createHooks</text>
</a>
</g>
</g>
<!-- Node2&#45;&gt;Node3 -->
<g id="edge2" class="edge">
<title>Node2&#45;&gt;Node3</title>
<path fill="none" stroke="#191970" d="M282.3165,-169.2127C295.0816,-167.9353 308.0891,-166.6337 320.5698,-165.3848"/>
<polygon fill="#191970" stroke="#191970" points="281.7477,-165.752 272.1459,-170.2304 282.4447,-172.7172 281.7477,-165.752"/>
</g>
<!-- Node4 -->
<g id="node4" class="node">
<title>Node4</title>
<g id="a_node4"><a xlink:href="classlocomotor_1_1core_1_1_main.html#a8b260eecbaabcef8473fd87ada040682" target="_top" xlink:title="locomotor.core.Main.main">
<polygon fill="#ffffff" stroke="#000000" points="719.9385,-122.5 719.9385,-140.5 850.4355,-140.5 850.4355,-122.5 719.9385,-122.5"/>
<text text-anchor="middle" x="785.187" y="-128.5" font-family="Helvetica,sans-Serif" font-size="10.00" fill="#000000">locomotor.core.Main.main</text>
</a>
</g>
</g>
<!-- Node3&#45;&gt;Node4 -->
<g id="edge3" class="edge">
<title>Node3&#45;&gt;Node4</title>
<path fill="none" stroke="#191970" d="M488.5928,-151.4871C559.2025,-146.7288 656.1788,-140.1937 719.7394,-135.9104"/>
<polygon fill="#191970" stroke="#191970" points="488.1154,-148.0112 478.3734,-152.1758 488.5862,-154.9954 488.1154,-148.0112"/>
</g>
<!-- Node5&#45;&gt;Node3 -->
<g id="edge5" class="edge">
<title>Node5&#45;&gt;Node3</title>
<path fill="none" stroke="#191970" d="M278.6498,-142.5443C292.6402,-144.2776 307.0138,-146.0584 320.7448,-147.7595"/>
<polygon fill="#191970" stroke="#191970" points="278.8994,-139.0486 268.5449,-141.2924 278.0387,-145.9955 278.8994,-139.0486"/>
</g>
<!-- Node6&#45;&gt;Node3 -->
<g id="edge7" class="edge">
<title>Node6&#45;&gt;Node3</title>
<path fill="none" stroke="#191970" d="M221.5519,-93.3604C237.2349,-96.0237 256.1065,-100.4081 271.9795,-107.5 289.9992,-115.5511 290.1325,-125.0728 307.9795,-133.5 316.1377,-137.3522 325.0087,-140.657 333.9095,-143.4718"/>
<polygon fill="#191970" stroke="#191970" points="221.6959,-89.8414 211.2799,-91.7794 220.631,-96.76 221.6959,-89.8414"/>
</g>
<!-- Node7 -->
<g id="node7" class="node">
<title>Node7</title>
<g id="a_node7"><a xlink:href="classlocomotor_1_1components_1_1network_1_1_i_endpoint_handler.html#ab14119ba2d6d06adbe73a9805f5130c6" target="_top" xlink:title="locomotor.components.network.\lIEndpointHandler.handle">
<polygon fill="#ffffff" stroke="#000000" points="320.7725,-96.5 320.7725,-124.5 477.959,-124.5 477.959,-96.5 320.7725,-96.5"/>
<text text-anchor="start" x="328.7725" y="-112.5" font-family="Helvetica,sans-Serif" font-size="10.00" fill="#000000">locomotor.components.network.</text>
<text text-anchor="middle" x="399.3657" y="-102.5" font-family="Helvetica,sans-Serif" font-size="10.00" fill="#000000">IEndpointHandler.handle</text>
</a>
</g>
</g>
<!-- Node6&#45;&gt;Node7 -->
<g id="edge8" class="edge">
<title>Node6&#45;&gt;Node7</title>
<path fill="none" stroke="#191970" d="M221.3115,-92.6828C247.6241,-95.3158 286.1368,-99.1696 320.6194,-102.6202"/>
<polygon fill="#191970" stroke="#191970" points="221.4716,-89.1814 211.1728,-91.6683 220.7746,-96.1467 221.4716,-89.1814"/>
</g>
<!-- Node8 -->
<g id="node8" class="node">
<title>Node8</title>
<g id="a_node8"><a xlink:href="classlocomotor_1_1components_1_1network_1_1_network_handler.html#a63d431845f1fd2adc1f96432f6003e25" target="_top" xlink:title="locomotor.components.network.\lNetworkHandler.init">
<polygon fill="#ffffff" stroke="#000000" points="526.752,-96.5 526.752,-124.5 683.9385,-124.5 683.9385,-96.5 526.752,-96.5"/>
<text text-anchor="start" x="534.752" y="-112.5" font-family="Helvetica,sans-Serif" font-size="10.00" fill="#000000">locomotor.components.network.</text>
<text text-anchor="middle" x="605.3452" y="-102.5" font-family="Helvetica,sans-Serif" font-size="10.00" fill="#000000">NetworkHandler.init</text>
</a>
</g>
</g>
<!-- Node6&#45;&gt;Node8 -->
<g id="edge12" class="edge">
<title>Node6&#45;&gt;Node8</title>
<path fill="none" stroke="#191970" d="M221.3027,-86.8307C276.3668,-82.7331 392.9629,-76.3696 490.752,-86.5 510.1613,-88.5107 531.1284,-92.3884 549.7553,-96.45"/>
<polygon fill="#191970" stroke="#191970" points="220.8356,-83.3563 211.1341,-87.6145 221.3736,-90.3356 220.8356,-83.3563"/>
</g>
<!-- Node9 -->
<g id="node9" class="node">
<title>Node9</title>
<g id="a_node9"><a xlink:href="classlocomotor_1_1components_1_1network_1_1_i_endpoint_handler.html#a754e26560b323ad92f51d07b4cd02d2a" target="_top" xlink:title="locomotor.components.network.\lIEndpointHandler.sendDefaultMissing\lParametersMessage">
<polygon fill="#ffffff" stroke="#000000" points="307.9795,-.5 307.9795,-38.5 490.752,-38.5 490.752,-.5 307.9795,-.5"/>
<text text-anchor="start" x="315.9795" y="-26.5" font-family="Helvetica,sans-Serif" font-size="10.00" fill="#000000">locomotor.components.network.</text>
<text text-anchor="start" x="315.9795" y="-16.5" font-family="Helvetica,sans-Serif" font-size="10.00" fill="#000000">IEndpointHandler.sendDefaultMissing</text>
<text text-anchor="middle" x="399.3657" y="-6.5" font-family="Helvetica,sans-Serif" font-size="10.00" fill="#000000">ParametersMessage</text>
</a>
</g>
</g>
<!-- Node6&#45;&gt;Node9 -->
<g id="edge11" class="edge">
<title>Node6&#45;&gt;Node9</title>
<path fill="none" stroke="#191970" d="M220.8833,-79.0335C252.896,-68.3555 303.2833,-51.5486 342.3688,-38.5115"/>
<polygon fill="#191970" stroke="#191970" points="219.5515,-75.788 211.1728,-82.2724 221.7665,-82.4284 219.5515,-75.788"/>
</g>
<!-- Node7&#45;&gt;Node8 -->
<g id="edge9" class="edge">
<title>Node7&#45;&gt;Node8</title>
<path fill="none" stroke="#191970" d="M488.2749,-110.5C501.0356,-110.5 514.0902,-110.5 526.6352,-110.5"/>
<polygon fill="#191970" stroke="#191970" points="488.1194,-107.0001 478.1194,-110.5 488.1194,-114.0001 488.1194,-107.0001"/>
</g>
<!-- Node8&#45;&gt;Node4 -->
<g id="edge10" class="edge">
<title>Node8&#45;&gt;Node4</title>
<path fill="none" stroke="#191970" d="M694.1382,-120.8683C702.8265,-121.8828 711.5289,-122.899 719.9208,-123.8789"/>
<polygon fill="#191970" stroke="#191970" points="694.3033,-117.3639 683.9648,-119.6804 693.4914,-124.3166 694.3033,-117.3639"/>
</g>
</g>
</svg>
