<?xml version="1.0" encoding="UTF-8" standalone="no"?>
<!DOCTYPE svg PUBLIC "-//W3C//DTD SVG 1.1//EN"
 "http://www.w3.org/Graphics/SVG/1.1/DTD/svg11.dtd">
<!-- Generated by graphviz version 2.40.1 (20161225.0304)
 -->
<!-- Title: value Pages: 1 -->
<svg width="1499pt" height="102pt"
 viewBox="0.00 0.00 1499.24 102.00" xmlns="http://www.w3.org/2000/svg" xmlns:xlink="http://www.w3.org/1999/xlink">
<g id="graph0" class="graph" transform="scale(1 1) rotate(0) translate(4 98)">
<title>value</title>
<polygon fill="#ffffff" stroke="transparent" points="-4,4 -4,-98 1495.2432,-98 1495.2432,4 -4,4"/>
<!-- Node1 -->
<g id="node1" class="node">
<title>Node1</title>
<polygon fill="#bfbfbf" stroke="#000000" points="0,-49.5 0,-67.5 39.9063,-67.5 39.9063,-49.5 0,-49.5"/>
<text text-anchor="middle" x="19.9531" y="-55.5" font-family="Helvetica,sans-Serif" font-size="10.00" fill="#000000">value</text>
</g>
<!-- Node2 -->
<g id="node2" class="node">
<title>Node2</title>
<g id="a_node2"><a xlink:href="classlocomotor_1_1components_1_1_compare.html#aa4a02ec72dfa0f8825c137d2e1149428" target="_top" xlink:title="locomotor.components.Compare.boolean\lValue">
<polygon fill="#ffffff" stroke="#000000" points="75.9063,-65.5 75.9063,-93.5 274.7969,-93.5 274.7969,-65.5 75.9063,-65.5"/>
<text text-anchor="start" x="83.9063" y="-81.5" font-family="Helvetica,sans-Serif" font-size="10.00" fill="#000000">locomotor.components.Compare.boolean</text>
<text text-anchor="middle" x="175.3516" y="-71.5" font-family="Helvetica,sans-Serif" font-size="10.00" fill="#000000">Value</text>
</a>
</g>
</g>
<!-- Node1&#45;&gt;Node2 -->
<g id="edge1" class="edge">
<title>Node1&#45;&gt;Node2</title>
<path fill="none" stroke="#191970" d="M50.1203,-62.5767C57.8342,-63.6191 66.563,-64.7987 75.7357,-66.0383"/>
<polygon fill="#191970" stroke="#191970" points="50.3293,-59.0732 39.9506,-61.2024 49.3918,-66.0101 50.3293,-59.0732"/>
</g>
<!-- Node4 -->
<g id="node4" class="node">
<title>Node4</title>
<g id="a_node4"><a xlink:href="classlocomotor_1_1components_1_1types_1_1_c_boolean.html#a04219e3dc4a138fa88ee6876fb62eebc" target="_top" xlink:title="CBoolean">
<polygon fill="#ffffff" stroke="#000000" points="145.3911,-28.5 145.3911,-46.5 205.312,-46.5 205.312,-28.5 145.3911,-28.5"/>
<text text-anchor="middle" x="175.3516" y="-34.5" font-family="Helvetica,sans-Serif" font-size="10.00" fill="#000000">CBoolean</text>
</a>
</g>
</g>
<!-- Node1&#45;&gt;Node4 -->
<g id="edge3" class="edge">
<title>Node1&#45;&gt;Node4</title>
<path fill="none" stroke="#191970" d="M50.1449,-54.42C77.5999,-50.7098 117.8983,-45.264 145.3072,-41.5601"/>
<polygon fill="#191970" stroke="#191970" points="49.3918,-50.9899 39.9506,-55.7976 50.3293,-57.9268 49.3918,-50.9899"/>
</g>
<!-- Node3 -->
<g id="node3" class="node">
<title>Node3</title>
<g id="a_node3"><a xlink:href="classlocomotor_1_1components_1_1types_1_1_c_boolean.html#aadc66c62939a3cc560856482c1b6cd9b" target="_top" xlink:title="compare">
<polygon fill="#ffffff" stroke="#000000" points="314.6787,-70.5 314.6787,-88.5 369.585,-88.5 369.585,-70.5 314.6787,-70.5"/>
<text text-anchor="middle" x="342.1318" y="-76.5" font-family="Helvetica,sans-Serif" font-size="10.00" fill="#000000">compare</text>
</a>
</g>
</g>
<!-- Node2&#45;&gt;Node3 -->
<g id="edge2" class="edge">
<title>Node2&#45;&gt;Node3</title>
<path fill="none" stroke="#191970" d="M285.2662,-79.5C295.9907,-79.5 306.0619,-79.5 314.6616,-79.5"/>
<polygon fill="#191970" stroke="#191970" points="285.2569,-76.0001 275.2569,-79.5 285.2569,-83.0001 285.2569,-76.0001"/>
</g>
<!-- Node5 -->
<g id="node5" class="node">
<title>Node5</title>
<g id="a_node5"><a xlink:href="classlocomotor_1_1components_1_1types_1_1_c_boolean.html#a1bdea5ac8c77993c2f48a0a99a0ce032" target="_top" xlink:title="fromJSON">
<polygon fill="#ffffff" stroke="#000000" points="310.7969,-28.5 310.7969,-46.5 373.4668,-46.5 373.4668,-28.5 310.7969,-28.5"/>
<text text-anchor="middle" x="342.1318" y="-34.5" font-family="Helvetica,sans-Serif" font-size="10.00" fill="#000000">fromJSON</text>
</a>
</g>
</g>
<!-- Node4&#45;&gt;Node5 -->
<g id="edge4" class="edge">
<title>Node4&#45;&gt;Node5</title>
<path fill="none" stroke="#191970" d="M215.8347,-37.5C245.032,-37.5 283.8746,-37.5 310.738,-37.5"/>
<polygon fill="#191970" stroke="#191970" points="215.5542,-34.0001 205.5542,-37.5 215.5542,-41.0001 215.5542,-34.0001"/>
</g>
<!-- Node6 -->
<g id="node6" class="node">
<title>Node6</title>
<g id="a_node6"><a xlink:href="classlocomotor_1_1components_1_1types_1_1_type_factory.html#a8827604831ff8a1764b7639c82820497" target="_top" xlink:title="locomotor.components.types.\lTypeFactory.getItemFromJson">
<polygon fill="#ffffff" stroke="#000000" points="409.4668,-47.5 409.4668,-75.5 560.335,-75.5 560.335,-47.5 409.4668,-47.5"/>
<text text-anchor="start" x="417.4668" y="-63.5" font-family="Helvetica,sans-Serif" font-size="10.00" fill="#000000">locomotor.components.types.</text>
<text text-anchor="middle" x="484.9009" y="-53.5" font-family="Helvetica,sans-Serif" font-size="10.00" fill="#000000">TypeFactory.getItemFromJson</text>
</a>
</g>
</g>
<!-- Node5&#45;&gt;Node6 -->
<g id="edge5" class="edge">
<title>Node5&#45;&gt;Node6</title>
<path fill="none" stroke="#191970" d="M383.9368,-44.5276C391.9314,-45.8715 400.5274,-47.3165 409.2086,-48.7758"/>
<polygon fill="#191970" stroke="#191970" points="384.2588,-41.0327 373.8169,-42.8264 383.0983,-47.9358 384.2588,-41.0327"/>
</g>
<!-- Node12 -->
<g id="node12" class="node">
<title>Node12</title>
<g id="a_node12"><a xlink:href="classlocomotor_1_1components_1_1types_1_1_type_factory.html#a1a64701bf13afa82b6b32bf422a171e2" target="_top" xlink:title="locomotor.components.types.\lTypeFactory.getUser">
<polygon fill="#ffffff" stroke="#000000" points="411.8643,-.5 411.8643,-28.5 557.9375,-28.5 557.9375,-.5 411.8643,-.5"/>
<text text-anchor="start" x="419.8643" y="-16.5" font-family="Helvetica,sans-Serif" font-size="10.00" fill="#000000">locomotor.components.types.</text>
<text text-anchor="middle" x="484.9009" y="-6.5" font-family="Helvetica,sans-Serif" font-size="10.00" fill="#000000">TypeFactory.getUser</text>
</a>
</g>
</g>
<!-- Node5&#45;&gt;Node12 -->
<g id="edge11" class="edge">
<title>Node5&#45;&gt;Node12</title>
<path fill="none" stroke="#191970" d="M383.8053,-30.7864C392.6386,-29.3634 402.2107,-27.8213 411.8238,-26.2727"/>
<polygon fill="#191970" stroke="#191970" points="383.1329,-27.3495 373.8169,-32.3956 384.2463,-34.2604 383.1329,-27.3495"/>
</g>
<!-- Node7 -->
<g id="node7" class="node">
<title>Node7</title>
<g id="a_node7"><a xlink:href="classlocomotor_1_1components_1_1models_1_1_item_criteria_full.html#a436730a3499b6d7b1d0359e12aa2f04a" target="_top" xlink:title="locomotor.components.models.\lItemCriteriaFull.fromJSON">
<polygon fill="#ffffff" stroke="#000000" points="596.335,-47.5 596.335,-75.5 750.7432,-75.5 750.7432,-47.5 596.335,-47.5"/>
<text text-anchor="start" x="604.335" y="-63.5" font-family="Helvetica,sans-Serif" font-size="10.00" fill="#000000">locomotor.components.models.</text>
<text text-anchor="middle" x="673.5391" y="-53.5" font-family="Helvetica,sans-Serif" font-size="10.00" fill="#000000">ItemCriteriaFull.fromJSON</text>
</a>
</g>
</g>
<!-- Node6&#45;&gt;Node7 -->
<g id="edge6" class="edge">
<title>Node6&#45;&gt;Node7</title>
<path fill="none" stroke="#191970" d="M570.7551,-61.5C579.1813,-61.5 587.6984,-61.5 596.0344,-61.5"/>
<polygon fill="#191970" stroke="#191970" points="570.5404,-58.0001 560.5403,-61.5 570.5403,-65.0001 570.5404,-58.0001"/>
</g>
<!-- Node8 -->
<g id="node8" class="node">
<title>Node8</title>
<g id="a_node8"><a xlink:href="classlocomotor_1_1components_1_1models_1_1_item_category_full.html#a50ab7c0f8e4a65f80ca141f1fa1c7df8" target="_top" xlink:title="locomotor.components.models.\lItemCategoryFull.fromJSON">
<polygon fill="#ffffff" stroke="#000000" points="786.7432,-47.5 786.7432,-75.5 941.1514,-75.5 941.1514,-47.5 786.7432,-47.5"/>
<text text-anchor="start" x="794.7432" y="-63.5" font-family="Helvetica,sans-Serif" font-size="10.00" fill="#000000">locomotor.components.models.</text>
<text text-anchor="middle" x="863.9473" y="-53.5" font-family="Helvetica,sans-Serif" font-size="10.00" fill="#000000">ItemCategoryFull.fromJSON</text>
</a>
</g>
</g>
<!-- Node7&#45;&gt;Node8 -->
<g id="edge7" class="edge">
<title>Node7&#45;&gt;Node8</title>
<path fill="none" stroke="#191970" d="M761.2395,-61.5C769.693,-61.5 778.226,-61.5 786.5696,-61.5"/>
<polygon fill="#191970" stroke="#191970" points="760.9854,-58.0001 750.9854,-61.5 760.9853,-65.0001 760.9854,-58.0001"/>
</g>
<!-- Node9 -->
<g id="node9" class="node">
<title>Node9</title>
<g id="a_node9"><a xlink:href="classlocomotor_1_1components_1_1models_1_1_item_full.html#afe56c5f49cb59d04ec69bbf32b58a2f8" target="_top" xlink:title="locomotor.components.models.\lItemFull.fromJSON">
<polygon fill="#ffffff" stroke="#000000" points="977.1514,-47.5 977.1514,-75.5 1131.5596,-75.5 1131.5596,-47.5 977.1514,-47.5"/>
<text text-anchor="start" x="985.1514" y="-63.5" font-family="Helvetica,sans-Serif" font-size="10.00" fill="#000000">locomotor.components.models.</text>
<text text-anchor="middle" x="1054.3555" y="-53.5" font-family="Helvetica,sans-Serif" font-size="10.00" fill="#000000">ItemFull.fromJSON</text>
</a>
</g>
</g>
<!-- Node8&#45;&gt;Node9 -->
<g id="edge8" class="edge">
<title>Node8&#45;&gt;Node9</title>
<path fill="none" stroke="#191970" d="M951.6477,-61.5C960.1013,-61.5 968.6342,-61.5 976.9778,-61.5"/>
<polygon fill="#191970" stroke="#191970" points="951.3936,-58.0001 941.3936,-61.5 951.3935,-65.0001 951.3936,-58.0001"/>
</g>
<!-- Node10 -->
<g id="node10" class="node">
<title>Node10</title>
<g id="a_node10"><a xlink:href="classlocomotor_1_1components_1_1network_1_1_a_p_i.html#a547463fbc7fb7b485886f0917e2c0b78" target="_top" xlink:title="locomotor.components.network.\lAPI.createHooks">
<polygon fill="#ffffff" stroke="#000000" points="1167.5596,-23.5 1167.5596,-51.5 1324.7461,-51.5 1324.7461,-23.5 1167.5596,-23.5"/>
<text text-anchor="start" x="1175.5596" y="-39.5" font-family="Helvetica,sans-Serif" font-size="10.00" fill="#000000">locomotor.components.network.</text>
<text text-anchor="middle" x="1246.1528" y="-29.5" font-family="Helvetica,sans-Serif" font-size="10.00" fill="#000000">API.createHooks</text>
</a>
</g>
</g>
<!-- Node9&#45;&gt;Node10 -->
<g id="edge9" class="edge">
<title>Node9&#45;&gt;Node10</title>
<path fill="none" stroke="#191970" d="M1141.8011,-50.5578C1150.358,-49.487 1159.0055,-48.4049 1167.4681,-47.346"/>
<polygon fill="#191970" stroke="#191970" points="1141.302,-47.0928 1131.8139,-51.8075 1142.1712,-54.0387 1141.302,-47.0928"/>
</g>
<!-- Node11 -->
<g id="node11" class="node">
<title>Node11</title>
<g id="a_node11"><a xlink:href="classlocomotor_1_1core_1_1_main.html#a8b260eecbaabcef8473fd87ada040682" target="_top" xlink:title="locomotor.core.Main.main">
<polygon fill="#ffffff" stroke="#000000" points="1360.7461,-28.5 1360.7461,-46.5 1491.2432,-46.5 1491.2432,-28.5 1360.7461,-28.5"/>
<text text-anchor="middle" x="1425.9946" y="-34.5" font-family="Helvetica,sans-Serif" font-size="10.00" fill="#000000">locomotor.core.Main.main</text>
</a>
</g>
</g>
<!-- Node10&#45;&gt;Node11 -->
<g id="edge10" class="edge">
<title>Node10&#45;&gt;Node11</title>
<path fill="none" stroke="#191970" d="M1334.9459,-37.5C1343.6342,-37.5 1352.3365,-37.5 1360.7284,-37.5"/>
<polygon fill="#191970" stroke="#191970" points="1334.7725,-34.0001 1324.7724,-37.5 1334.7724,-41.0001 1334.7725,-34.0001"/>
</g>
<!-- Node13 -->
<g id="node13" class="node">
<title>Node13</title>
<g id="a_node13"><a xlink:href="classlocomotor_1_1components_1_1models_1_1_user_criteria.html#aaca1c5ec640a1453943ce97d40e12a63" target="_top" xlink:title="locomotor.components.models.\lUserCriteria.fromJSON">
<polygon fill="#ffffff" stroke="#000000" points="596.335,-.5 596.335,-28.5 750.7432,-28.5 750.7432,-.5 596.335,-.5"/>
<text text-anchor="start" x="604.335" y="-16.5" font-family="Helvetica,sans-Serif" font-size="10.00" fill="#000000">locomotor.components.models.</text>
<text text-anchor="middle" x="673.5391" y="-6.5" font-family="Helvetica,sans-Serif" font-size="10.00" fill="#000000">UserCriteria.fromJSON</text>
</a>
</g>
</g>
<!-- Node12&#45;&gt;Node13 -->
<g id="edge12" class="edge">
<title>Node12&#45;&gt;Node13</title>
<path fill="none" stroke="#191970" d="M568.1824,-14.5C577.5404,-14.5 587.0455,-14.5 596.3221,-14.5"/>
<polygon fill="#191970" stroke="#191970" points="568.1034,-11.0001 558.1033,-14.5 568.1033,-18.0001 568.1034,-11.0001"/>
</g>
<!-- Node14 -->
<g id="node14" class="node">
<title>Node14</title>
<g id="a_node14"><a xlink:href="classlocomotor_1_1components_1_1models_1_1_user_category.html#a52e02970889790bace019e61fb256ff0" target="_top" xlink:title="locomotor.components.models.\lUserCategory.fromJSON">
<polygon fill="#ffffff" stroke="#000000" points="786.7432,-.5 786.7432,-28.5 941.1514,-28.5 941.1514,-.5 786.7432,-.5"/>
<text text-anchor="start" x="794.7432" y="-16.5" font-family="Helvetica,sans-Serif" font-size="10.00" fill="#000000">locomotor.components.models.</text>
<text text-anchor="middle" x="863.9473" y="-6.5" font-family="Helvetica,sans-Serif" font-size="10.00" fill="#000000">UserCategory.fromJSON</text>
</a>
</g>
</g>
<!-- Node13&#45;&gt;Node14 -->
<g id="edge13" class="edge">
<title>Node13&#45;&gt;Node14</title>
<path fill="none" stroke="#191970" d="M761.2395,-14.5C769.693,-14.5 778.226,-14.5 786.5696,-14.5"/>
<polygon fill="#191970" stroke="#191970" points="760.9854,-11.0001 750.9854,-14.5 760.9853,-18.0001 760.9854,-11.0001"/>
</g>
<!-- Node15 -->
<g id="node15" class="node">
<title>Node15</title>
<g id="a_node15"><a xlink:href="classlocomotor_1_1components_1_1models_1_1_user_item.html#ab97f79cf43a9a73bcd77cec6b449a79a" target="_top" xlink:title="locomotor.components.models.\lUserItem.fromJSON">
<polygon fill="#ffffff" stroke="#000000" points="977.1514,-.5 977.1514,-28.5 1131.5596,-28.5 1131.5596,-.5 977.1514,-.5"/>
<text text-anchor="start" x="985.1514" y="-16.5" font-family="Helvetica,sans-Serif" font-size="10.00" fill="#000000">locomotor.components.models.</text>
<text text-anchor="middle" x="1054.3555" y="-6.5" font-family="Helvetica,sans-Serif" font-size="10.00" fill="#000000">UserItem.fromJSON</text>
</a>
</g>
</g>
<!-- Node14&#45;&gt;Node15 -->
<g id="edge14" class="edge">
<title>Node14&#45;&gt;Node15</title>
<path fill="none" stroke="#191970" d="M951.6477,-14.5C960.1013,-14.5 968.6342,-14.5 976.9778,-14.5"/>
<polygon fill="#191970" stroke="#191970" points="951.3936,-11.0001 941.3936,-14.5 951.3935,-18.0001 951.3936,-11.0001"/>
</g>
<!-- Node15&#45;&gt;Node10 -->
<g id="edge15" class="edge">
<title>Node15&#45;&gt;Node10</title>
<path fill="none" stroke="#191970" d="M1141.8011,-24.9863C1150.358,-26.0125 1159.0055,-27.0494 1167.4681,-28.0643"/>
<polygon fill="#191970" stroke="#191970" points="1142.1596,-21.5043 1131.8139,-23.7887 1141.3261,-28.4545 1142.1596,-21.5043"/>
</g>
</g>
</svg>
