<?xml version="1.0" encoding="UTF-8" standalone="no"?>
<!DOCTYPE svg PUBLIC "-//W3C//DTD SVG 1.1//EN"
 "http://www.w3.org/Graphics/SVG/1.1/DTD/svg11.dtd">
<!-- Generated by graphviz version 2.40.1 (20161225.0304)
 -->
<!-- Title: updateUniverse Pages: 1 -->
<!--zoomable 346 -->
<svg id="main" version="1.1" xmlns="http://www.w3.org/2000/svg" xmlns:xlink="http://www.w3.org/1999/xlink" xml:space="preserve" onload="init(evt)">
<style type="text/css"><![CDATA[
.edge:hover path { stroke: red; }
.edge:hover polygon { stroke: red; fill: red; }
]]></style>
<script type="text/javascript"><![CDATA[
var edges = document.getElementsByTagName('g');
if (edges && edges.length) {
  for (var i=0;i<edges.length;i++) {
    if (edges[i].id.substr(0,4)=='edge') {
      edges[i].setAttribute('class','edge');
    }
  }
}
]]></script>
        <defs>
                <circle id="rim" cx="0" cy="0" r="7"/>
                <circle id="rim2" cx="0" cy="0" r="3.5"/>
                <g id="zoomPlus">
                        <use xlink:href="#rim" fill="#404040">
                                <set attributeName="fill" to="#808080" begin="zoomplus.mouseover" end="zoomplus.mouseout"/>
                        </use>
                        <path d="M-4,0h8M0,-4v8" fill="none" stroke="white" stroke-width="1.5" pointer-events="none"/>
                </g>
                <g id="zoomMin">
                        <use xlink:href="#rim" fill="#404040">
                                <set attributeName="fill" to="#808080" begin="zoomminus.mouseover" end="zoomminus.mouseout"/>
                        </use>
                        <path d="M-4,0h8" fill="none" stroke="white" stroke-width="1.5" pointer-events="none"/>
                </g>
                <g id="dirArrow">
                        <path fill="none" stroke="white" stroke-width="1.5" d="M0,-3.0v7 M-2.5,-0.5L0,-3.0L2.5,-0.5"/>
                </g>
               <g id="resetDef">
                       <use xlink:href="#rim2" fill="#404040">
                               <set attributeName="fill" to="#808080" begin="reset.mouseover" end="reset.mouseout"/>
                       </use>
               </g>
        </defs>

<script type="text/javascript">
var viewWidth = 640;
var viewHeight = 346;
var sectionId = 'dynsection-62';
</script>
<script xlink:href="svgpan.js"/>
<svg id="graph" class="graph">
<g id="viewport">
<title>updateUniverse</title>
<polygon fill="#ffffff" stroke="transparent" points="-4,4 -4,-342 635.7217,-342 635.7217,4 -4,4"/>
<!-- Node1 -->
<g id="node1" class="node">
<title>Node1</title>
<polygon fill="#bfbfbf" stroke="#000000" points="0,-277.5 0,-295.5 86.0439,-295.5 86.0439,-277.5 0,-277.5"/>
<text text-anchor="middle" x="43.022" y="-283.5" font-family="Helvetica,sans-Serif" font-size="10.00" fill="#000000">updateUniverse</text>
</g>
<!-- Node2 -->
<g id="node2" class="node">
<title>Node2</title>
<g id="a_node2"><a xlink:href="classlocomotor_1_1core_1_1_d_b_h.html#a0b2d292079fe232a4c3dae4636167641" target="_top" xlink:title="getInstance">
<polygon fill="#ffffff" stroke="#000000" points="330.2354,-319.5 330.2354,-337.5 397.9395,-337.5 397.9395,-319.5 330.2354,-319.5"/>
<text text-anchor="middle" x="364.0874" y="-325.5" font-family="Helvetica,sans-Serif" font-size="10.00" fill="#000000">getInstance</text>
</a>
</g>
</g>
<!-- Node1&#45;&gt;Node2 -->
<g id="edge1" class="edge">
<title>Node1&#45;&gt;Node2</title>
<path fill="none" stroke="#191970" d="M86.4208,-294.673C97.975,-296.7163 110.4637,-298.8059 122.0439,-300.5 190.87,-310.5685 271.1408,-319.2547 319.7579,-324.1804"/>
<polygon fill="#191970" stroke="#191970" points="319.6315,-327.6852 329.9314,-325.203 320.3317,-320.7203 319.6315,-327.6852"/>
</g>
<!-- Node4 -->
<g id="node4" class="node">
<title>Node4</title>
<g id="a_node4"><a xlink:href="classlocomotor_1_1core_1_1_d_b_h.html#a756e5af44b74ea39a44a71cde06102fd" target="_top" xlink:title="checkingParsingUniverse">
<polygon fill="#ffffff" stroke="#000000" points="122.0439,-188.5 122.0439,-206.5 250.876,-206.5 250.876,-188.5 122.0439,-188.5"/>
<text text-anchor="middle" x="186.46" y="-194.5" font-family="Helvetica,sans-Serif" font-size="10.00" fill="#000000">checkingParsingUniverse</text>
</a>
</g>
</g>
<!-- Node1&#45;&gt;Node4 -->
<g id="edge3" class="edge">
<title>Node1&#45;&gt;Node4</title>
<path fill="none" stroke="#191970" d="M57.5649,-277.4764C82.4796,-262.0175 133.5177,-230.3495 163.3525,-211.8376"/>
<polygon fill="#191970" stroke="#191970" points="165.2266,-214.7939 171.8785,-206.5475 161.536,-208.8458 165.2266,-214.7939"/>
</g>
<!-- Node5 -->
<g id="node5" class="node">
<title>Node5</title>
<g id="a_node5"><a xlink:href="classlocomotor_1_1components_1_1models_1_1_universe.html#a34e60b6081b4c555dc9f5b872cbe044e" target="_top" xlink:title="locomotor.components.models.\lUniverse.getID">
<polygon fill="#ffffff" stroke="#000000" points="286.8833,-272.5 286.8833,-300.5 441.2915,-300.5 441.2915,-272.5 286.8833,-272.5"/>
<text text-anchor="start" x="294.8833" y="-288.5" font-family="Helvetica,sans-Serif" font-size="10.00" fill="#000000">locomotor.components.models.</text>
<text text-anchor="middle" x="364.0874" y="-278.5" font-family="Helvetica,sans-Serif" font-size="10.00" fill="#000000">Universe.getID</text>
</a>
</g>
</g>
<!-- Node1&#45;&gt;Node5 -->
<g id="edge13" class="edge">
<title>Node1&#45;&gt;Node5</title>
<path fill="none" stroke="#191970" d="M86.3223,-286.5C134.8832,-286.5 214.9131,-286.5 276.6269,-286.5"/>
<polygon fill="#191970" stroke="#191970" points="276.7549,-290.0001 286.7549,-286.5 276.7549,-283.0001 276.7549,-290.0001"/>
</g>
<!-- Node3 -->
<g id="node3" class="node">
<title>Node3</title>
<g id="a_node3"><a xlink:href="classlocomotor_1_1core_1_1_d_b_h.html#a2d5f1f766f5863a46ed29b7e56118364" target="_top" xlink:title="DBH">
<polygon fill="#ffffff" stroke="#000000" points="535.9536,-319.5 535.9536,-337.5 573.0669,-337.5 573.0669,-319.5 535.9536,-319.5"/>
<text text-anchor="middle" x="554.5103" y="-325.5" font-family="Helvetica,sans-Serif" font-size="10.00" fill="#000000">DBH</text>
</a>
</g>
</g>
<!-- Node2&#45;&gt;Node3 -->
<g id="edge2" class="edge">
<title>Node2&#45;&gt;Node3</title>
<path fill="none" stroke="#191970" d="M398.1312,-328.5C434.4266,-328.5 491.2877,-328.5 525.5205,-328.5"/>
<polygon fill="#191970" stroke="#191970" points="525.7852,-332.0001 535.7852,-328.5 525.7852,-325.0001 525.7852,-332.0001"/>
</g>
<!-- Node4&#45;&gt;Node2 -->
<g id="edge6" class="edge">
<title>Node4&#45;&gt;Node2</title>
<path fill="none" stroke="#191970" d="M191.7023,-206.5222C204.7757,-228.167 241.0888,-283.261 286.876,-310.5 296.94,-316.4872 308.8426,-320.4829 320.2501,-323.1495"/>
<polygon fill="#191970" stroke="#191970" points="319.5895,-326.5868 330.0888,-325.1675 320.996,-319.7296 319.5895,-326.5868"/>
</g>
<!-- Node4&#45;&gt;Node5 -->
<g id="edge4" class="edge">
<title>Node4&#45;&gt;Node5</title>
<path fill="none" stroke="#191970" d="M197.8552,-206.6107C215.8226,-220.5889 252.2622,-247.3948 286.876,-263.5 290.9816,-265.4103 295.2836,-267.2052 299.6667,-268.8835"/>
<polygon fill="#191970" stroke="#191970" points="298.7526,-272.2743 309.347,-272.3705 301.1249,-265.6885 298.7526,-272.2743"/>
</g>
<!-- Node6 -->
<g id="node6" class="node">
<title>Node6</title>
<g id="a_node6"><a xlink:href="classlocomotor_1_1components_1_1models_1_1_universe.html#a78ee178b6a73658d65ca60da4d1e6683" target="_top" xlink:title="locomotor.components.models.\lUniverse.getName">
<polygon fill="#ffffff" stroke="#000000" points="286.8833,-225.5 286.8833,-253.5 441.2915,-253.5 441.2915,-225.5 286.8833,-225.5"/>
<text text-anchor="start" x="294.8833" y="-241.5" font-family="Helvetica,sans-Serif" font-size="10.00" fill="#000000">locomotor.components.models.</text>
<text text-anchor="middle" x="364.0874" y="-231.5" font-family="Helvetica,sans-Serif" font-size="10.00" fill="#000000">Universe.getName</text>
</a>
</g>
</g>
<!-- Node4&#45;&gt;Node6 -->
<g id="edge5" class="edge">
<title>Node4&#45;&gt;Node6</title>
<path fill="none" stroke="#191970" d="M224.5655,-206.5101C245.0827,-211.3614 271.0296,-217.4965 294.9667,-223.1564"/>
<polygon fill="#191970" stroke="#191970" points="294.1898,-226.5692 304.7269,-225.4642 295.8006,-219.757 294.1898,-226.5692"/>
</g>
<!-- Node7 -->
<g id="node7" class="node">
<title>Node7</title>
<g id="a_node7"><a xlink:href="classlocomotor_1_1core_1_1_d_b_h.html#a7c304d82522d66971ae49134140fae7c" target="_top" xlink:title="universeNameAlreadyTaken">
<polygon fill="#ffffff" stroke="#000000" points="293.5557,-188.5 293.5557,-206.5 434.6191,-206.5 434.6191,-188.5 293.5557,-188.5"/>
<text text-anchor="middle" x="364.0874" y="-194.5" font-family="Helvetica,sans-Serif" font-size="10.00" fill="#000000">universeNameAlreadyTaken</text>
</a>
</g>
</g>
<!-- Node4&#45;&gt;Node7 -->
<g id="edge7" class="edge">
<title>Node4&#45;&gt;Node7</title>
<path fill="none" stroke="#191970" d="M251.09,-197.5C261.5389,-197.5 272.4711,-197.5 283.2456,-197.5"/>
<polygon fill="#191970" stroke="#191970" points="283.5066,-201.0001 293.5066,-197.5 283.5065,-194.0001 283.5066,-201.0001"/>
</g>
<!-- Node8 -->
<g id="node8" class="node">
<title>Node8</title>
<g id="a_node8"><a xlink:href="classlocomotor_1_1components_1_1logging_1_1_error_handler.html#a75e8f6535bdb8db9a7d570e1b839af47" target="_top" xlink:title="locomotor.components.logging.\lErrorHandler.getInstance">
<polygon fill="#ffffff" stroke="#000000" points="286.876,-141.5 286.876,-169.5 441.2988,-169.5 441.2988,-141.5 286.876,-141.5"/>
<text text-anchor="start" x="294.876" y="-157.5" font-family="Helvetica,sans-Serif" font-size="10.00" fill="#000000">locomotor.components.logging.</text>
<text text-anchor="middle" x="364.0874" y="-147.5" font-family="Helvetica,sans-Serif" font-size="10.00" fill="#000000">ErrorHandler.getInstance</text>
</a>
</g>
</g>
<!-- Node4&#45;&gt;Node8 -->
<g id="edge8" class="edge">
<title>Node4&#45;&gt;Node8</title>
<path fill="none" stroke="#191970" d="M224.5655,-188.4899C245.0827,-183.6386 271.0296,-177.5035 294.9667,-171.8436"/>
<polygon fill="#191970" stroke="#191970" points="295.8006,-175.243 304.7269,-169.5358 294.1898,-168.4308 295.8006,-175.243"/>
</g>
<!-- Node9 -->
<g id="node9" class="node">
<title>Node9</title>
<g id="a_node9"><a xlink:href="classlocomotor_1_1components_1_1logging_1_1_error_handler.html#abd00a9c37627740763cef91d76a77437" target="_top" xlink:title="locomotor.components.logging.\lErrorHandler.push">
<polygon fill="#ffffff" stroke="#000000" points="286.876,-94.5 286.876,-122.5 441.2988,-122.5 441.2988,-94.5 286.876,-94.5"/>
<text text-anchor="start" x="294.876" y="-110.5" font-family="Helvetica,sans-Serif" font-size="10.00" fill="#000000">locomotor.components.logging.</text>
<text text-anchor="middle" x="364.0874" y="-100.5" font-family="Helvetica,sans-Serif" font-size="10.00" fill="#000000">ErrorHandler.push</text>
</a>
</g>
</g>
<!-- Node4&#45;&gt;Node9 -->
<g id="edge9" class="edge">
<title>Node4&#45;&gt;Node9</title>
<path fill="none" stroke="#191970" d="M198.2004,-188.364C216.3337,-174.6191 252.6468,-148.5277 286.876,-132.5 291.8022,-130.1933 297.0061,-128.0351 302.2908,-126.0332"/>
<polygon fill="#191970" stroke="#191970" points="303.6199,-129.2748 311.848,-122.6003 301.2536,-122.6869 303.6199,-129.2748"/>
</g>
<!-- Node11 -->
<g id="node11" class="node">
<title>Node11</title>
<g id="a_node11"><a xlink:href="classlocomotor_1_1components_1_1models_1_1_universe.html#ac7feffb7a33f63504ff1f87f19e2d2d8" target="_top" xlink:title="locomotor.components.models.\lUniverse.getDescription">
<polygon fill="#ffffff" stroke="#000000" points="286.8833,-47.5 286.8833,-75.5 441.2915,-75.5 441.2915,-47.5 286.8833,-47.5"/>
<text text-anchor="start" x="294.8833" y="-63.5" font-family="Helvetica,sans-Serif" font-size="10.00" fill="#000000">locomotor.components.models.</text>
<text text-anchor="middle" x="364.0874" y="-53.5" font-family="Helvetica,sans-Serif" font-size="10.00" fill="#000000">Universe.getDescription</text>
</a>
</g>
</g>
<!-- Node4&#45;&gt;Node11 -->
<g id="edge11" class="edge">
<title>Node4&#45;&gt;Node11</title>
<path fill="none" stroke="#191970" d="M192.0529,-188.4558C205.6259,-167.2546 242.481,-113.9948 286.876,-85.5 290.1708,-83.3852 293.6642,-81.4464 297.2737,-79.6702"/>
<polygon fill="#191970" stroke="#191970" points="298.7312,-82.8526 306.4384,-75.5828 295.8799,-76.4596 298.7312,-82.8526"/>
</g>
<!-- Node12 -->
<g id="node12" class="node">
<title>Node12</title>
<g id="a_node12"><a xlink:href="classlocomotor_1_1components_1_1models_1_1_universe.html#a832e57df908361dd86dc673520d7fb81" target="_top" xlink:title="locomotor.components.models.\lUniverse.getImage">
<polygon fill="#ffffff" stroke="#000000" points="286.8833,-.5 286.8833,-28.5 441.2915,-28.5 441.2915,-.5 286.8833,-.5"/>
<text text-anchor="start" x="294.8833" y="-16.5" font-family="Helvetica,sans-Serif" font-size="10.00" fill="#000000">locomotor.components.models.</text>
<text text-anchor="middle" x="364.0874" y="-6.5" font-family="Helvetica,sans-Serif" font-size="10.00" fill="#000000">Universe.getImage</text>
</a>
</g>
</g>
<!-- Node4&#45;&gt;Node12 -->
<g id="edge12" class="edge">
<title>Node4&#45;&gt;Node12</title>
<path fill="none" stroke="#191970" d="M189.5707,-188.2881C199.2919,-160.9149 231.7854,-79.3733 286.876,-37.5 288.7307,-36.0903 290.671,-34.7666 292.6777,-33.5238"/>
<polygon fill="#191970" stroke="#191970" points="294.7063,-36.4062 301.8437,-28.5762 291.3813,-30.2462 294.7063,-36.4062"/>
</g>
<!-- Node10 -->
<g id="node10" class="node">
<title>Node10</title>
<g id="a_node10"><a xlink:href="classlocomotor_1_1components_1_1logging_1_1_error_context.html#afcf30b71bfc65c74878c7ab77c951842" target="_top" xlink:title="locomotor.components.logging.\lErrorContext.push">
<polygon fill="#ffffff" stroke="#000000" points="477.2988,-94.5 477.2988,-122.5 631.7217,-122.5 631.7217,-94.5 477.2988,-94.5"/>
<text text-anchor="start" x="485.2988" y="-110.5" font-family="Helvetica,sans-Serif" font-size="10.00" fill="#000000">locomotor.components.logging.</text>
<text text-anchor="middle" x="554.5103" y="-100.5" font-family="Helvetica,sans-Serif" font-size="10.00" fill="#000000">ErrorContext.push</text>
</a>
</g>
</g>
<!-- Node9&#45;&gt;Node10 -->
<g id="edge10" class="edge">
<title>Node9&#45;&gt;Node10</title>
<path fill="none" stroke="#191970" d="M441.5397,-108.5C449.8849,-108.5 458.4188,-108.5 466.8727,-108.5"/>
<polygon fill="#191970" stroke="#191970" points="467.1267,-112.0001 477.1266,-108.5 467.1266,-105.0001 467.1267,-112.0001"/>
</g>
</g>
</svg>
        <g id="navigator" transform="translate(0 0)" fill="#404254">
                <rect fill="#f2f5e9" fill-opacity="0.5" stroke="#606060" stroke-width=".5" x="0" y="0" width="60" height="60"/>
                <use id="zoomplus" xlink:href="#zoomPlus" x="17" y="9" onmousedown="handleZoom(evt,'in')"/>
                <use id="zoomminus" xlink:href="#zoomMin" x="42" y="9" onmousedown="handleZoom(evt,'out')"/>
                <use id="reset" xlink:href="#resetDef" x="30" y="36" onmousedown="handleReset()"/>
                <g id="arrowUp" xlink:href="#dirArrow" transform="translate(30 24)" onmousedown="handlePan(0,-1)">
                  <use xlink:href="#rim" fill="#404040">
                        <set attributeName="fill" to="#808080" begin="arrowUp.mouseover" end="arrowUp.mouseout"/>
                  </use>
                  <path fill="none" stroke="white" stroke-width="1.5" d="M0,-3.0v7 M-2.5,-0.5L0,-3.0L2.5,-0.5"/>
                </g>
                <g id="arrowRight" xlink:href="#dirArrow" transform="rotate(90) translate(36 -43)" onmousedown="handlePan(1,0)">
                  <use xlink:href="#rim" fill="#404040">
                        <set attributeName="fill" to="#808080" begin="arrowRight.mouseover" end="arrowRight.mouseout"/>
                  </use>
                  <path fill="none" stroke="white" stroke-width="1.5" d="M0,-3.0v7 M-2.5,-0.5L0,-3.0L2.5,-0.5"/>
                </g>
                <g id="arrowDown" xlink:href="#dirArrow" transform="rotate(180) translate(-30 -48)" onmousedown="handlePan(0,1)">
                  <use xlink:href="#rim" fill="#404040">
                        <set attributeName="fill" to="#808080" begin="arrowDown.mouseover" end="arrowDown.mouseout"/>
                  </use>
                  <path fill="none" stroke="white" stroke-width="1.5" d="M0,-3.0v7 M-2.5,-0.5L0,-3.0L2.5,-0.5"/>
                </g>
                <g id="arrowLeft" xlink:href="#dirArrow" transform="rotate(270) translate(-36 17)" onmousedown="handlePan(-1,0)">
                  <use xlink:href="#rim" fill="#404040">
                        <set attributeName="fill" to="#808080" begin="arrowLeft.mouseover" end="arrowLeft.mouseout"/>
                  </use>
                  <path fill="none" stroke="white" stroke-width="1.5" d="M0,-3.0v7 M-2.5,-0.5L0,-3.0L2.5,-0.5"/>
                </g>
        </g>
        <svg viewBox="0 0 15 15" width="100%" height="30px" preserveAspectRatio="xMaxYMin meet">
         <g id="arrow_out" transform="scale(0.3 0.3)">
          <a xlink:href="classlocomotor_1_1core_1_1_d_b_h_a0565ab8a7a56491fca163a1b0977c0db_cgraph_org.svg" target="_base">
           <rect id="button" ry="5" rx="5" y="6" x="6" height="38" width="38"
                fill="#f2f5e9" fill-opacity="0.5" stroke="#606060" stroke-width="1.0"/>
           <path id="arrow"
             d="M 11.500037,31.436501 C 11.940474,20.09759 22.043105,11.32322 32.158766,21.979434 L 37.068811,17.246167 C 37.068811,17.246167 37.088388,32 37.088388,32 L 22.160133,31.978069 C 22.160133,31.978069 26.997745,27.140456 26.997745,27.140456 C 18.528582,18.264221 13.291696,25.230495 11.500037,31.436501 z"
             style="fill:#404040;"/>
          </a>
         </g>
        </svg>
</svg>
