<?xml version="1.0" encoding="UTF-8" standalone="no"?>
<!DOCTYPE svg PUBLIC "-//W3C//DTD SVG 1.1//EN"
 "http://www.w3.org/Graphics/SVG/1.1/DTD/svg11.dtd">
<!-- Generated by graphviz version 2.40.1 (20161225.0304)
 -->
<!-- Title: CoreResourceManager Pages: 1 -->
<svg width="591pt" height="37pt"
 viewBox="0.00 0.00 591.33 37.00" xmlns="http://www.w3.org/2000/svg" xmlns:xlink="http://www.w3.org/1999/xlink">
<g id="graph0" class="graph" transform="scale(1 1) rotate(0) translate(4 33)">
<title>CoreResourceManager</title>
<polygon fill="#ffffff" stroke="transparent" points="-4,4 -4,-33 587.3281,-33 587.3281,4 -4,4"/>
<!-- Node1 -->
<g id="node1" class="node">
<title>Node1</title>
<polygon fill="#bfbfbf" stroke="#000000" points="0,-5.5 0,-23.5 119.9404,-23.5 119.9404,-5.5 0,-5.5"/>
<text text-anchor="middle" x="59.9702" y="-11.5" font-family="Helvetica,sans-Serif" font-size="10.00" fill="#000000">CoreResourceManager</text>
</g>
<!-- Node2 -->
<g id="node2" class="node">
<title>Node2</title>
<g id="a_node2"><a xlink:href="classlocomotor_1_1core_1_1_core_resource_manager.html#a4c04d3bd59dc9e5462cf5afa87361366" target="_top" xlink:title="getInstance">
<polygon fill="#ffffff" stroke="#000000" points="155.9404,-5.5 155.9404,-23.5 223.6445,-23.5 223.6445,-5.5 155.9404,-5.5"/>
<text text-anchor="middle" x="189.7925" y="-11.5" font-family="Helvetica,sans-Serif" font-size="10.00" fill="#000000">getInstance</text>
</a>
</g>
</g>
<!-- Node1&#45;&gt;Node2 -->
<g id="edge1" class="edge">
<title>Node1&#45;&gt;Node2</title>
<path fill="none" stroke="#191970" d="M130.095,-14.5C139.0707,-14.5 147.9126,-14.5 155.9282,-14.5"/>
<polygon fill="#191970" stroke="#191970" points="129.9412,-11.0001 119.9412,-14.5 129.9412,-18.0001 129.9412,-11.0001"/>
</g>
<!-- Node3 -->
<g id="node3" class="node">
<title>Node3</title>
<g id="a_node3"><a xlink:href="classlocomotor_1_1components_1_1network_1_1_a_p_i.html#a547463fbc7fb7b485886f0917e2c0b78" target="_top" xlink:title="locomotor.components.network.\lAPI.createHooks">
<polygon fill="#ffffff" stroke="#000000" points="259.6445,-.5 259.6445,-28.5 416.8311,-28.5 416.8311,-.5 259.6445,-.5"/>
<text text-anchor="start" x="267.6445" y="-16.5" font-family="Helvetica,sans-Serif" font-size="10.00" fill="#000000">locomotor.components.network.</text>
<text text-anchor="middle" x="338.2378" y="-6.5" font-family="Helvetica,sans-Serif" font-size="10.00" fill="#000000">API.createHooks</text>
</a>
</g>
</g>
<!-- Node2&#45;&gt;Node3 -->
<g id="edge2" class="edge">
<title>Node2&#45;&gt;Node3</title>
<path fill="none" stroke="#191970" d="M234.1172,-14.5C242.2089,-14.5 250.8698,-14.5 259.6124,-14.5"/>
<polygon fill="#191970" stroke="#191970" points="233.8489,-11.0001 223.8488,-14.5 233.8488,-18.0001 233.8489,-11.0001"/>
</g>
<!-- Node4 -->
<g id="node4" class="node">
<title>Node4</title>
<g id="a_node4"><a xlink:href="classlocomotor_1_1core_1_1_main.html#a8b260eecbaabcef8473fd87ada040682" target="_top" xlink:title="locomotor.core.Main.main">
<polygon fill="#ffffff" stroke="#000000" points="452.8311,-5.5 452.8311,-23.5 583.3281,-23.5 583.3281,-5.5 452.8311,-5.5"/>
<text text-anchor="middle" x="518.0796" y="-11.5" font-family="Helvetica,sans-Serif" font-size="10.00" fill="#000000">locomotor.core.Main.main</text>
</a>
</g>
</g>
<!-- Node3&#45;&gt;Node4 -->
<g id="edge3" class="edge">
<title>Node3&#45;&gt;Node4</title>
<path fill="none" stroke="#191970" d="M427.0308,-14.5C435.7191,-14.5 444.4215,-14.5 452.8133,-14.5"/>
<polygon fill="#191970" stroke="#191970" points="426.8574,-11.0001 416.8574,-14.5 426.8574,-18.0001 426.8574,-11.0001"/>
</g>
</g>
</svg>
