<?xml version="1.0" encoding="UTF-8" standalone="no"?>
<!DOCTYPE svg PUBLIC "-//W3C//DTD SVG 1.1//EN"
 "http://www.w3.org/Graphics/SVG/1.1/DTD/svg11.dtd">
<!-- Generated by graphviz version 2.40.1 (20161225.0304)
 -->
<!-- Title: getImage Pages: 1 -->
<svg width="810pt" height="74pt"
 viewBox="0.00 0.00 809.51 74.00" xmlns="http://www.w3.org/2000/svg" xmlns:xlink="http://www.w3.org/1999/xlink">
<g id="graph0" class="graph" transform="scale(1 1) rotate(0) translate(4 70)">
<title>getImage</title>
<polygon fill="#ffffff" stroke="transparent" points="-4,4 -4,-70 805.5098,-70 805.5098,4 -4,4"/>
<!-- Node1 -->
<g id="node1" class="node">
<title>Node1</title>
<polygon fill="#bfbfbf" stroke="#000000" points="0,-26.5 0,-44.5 57.6943,-44.5 57.6943,-26.5 0,-26.5"/>
<text text-anchor="middle" x="28.8472" y="-32.5" font-family="Helvetica,sans-Serif" font-size="10.00" fill="#000000">getImage</text>
</g>
<!-- Node2 -->
<g id="node2" class="node">
<title>Node2</title>
<g id="a_node2"><a xlink:href="classlocomotor_1_1core_1_1_d_b_h.html#a756e5af44b74ea39a44a71cde06102fd" target="_top" xlink:title="locomotor.core.DBH.checking\lParsingUniverse">
<polygon fill="#ffffff" stroke="#000000" points="93.6943,-21.5 93.6943,-49.5 241.4229,-49.5 241.4229,-21.5 93.6943,-21.5"/>
<text text-anchor="start" x="101.6943" y="-37.5" font-family="Helvetica,sans-Serif" font-size="10.00" fill="#000000">locomotor.core.DBH.checking</text>
<text text-anchor="middle" x="167.5586" y="-27.5" font-family="Helvetica,sans-Serif" font-size="10.00" fill="#000000">ParsingUniverse</text>
</a>
</g>
</g>
<!-- Node1&#45;&gt;Node2 -->
<g id="edge1" class="edge">
<title>Node1&#45;&gt;Node2</title>
<path fill="none" stroke="#191970" d="M68.0668,-35.5C76.112,-35.5 84.8289,-35.5 93.6443,-35.5"/>
<polygon fill="#191970" stroke="#191970" points="67.9257,-32.0001 57.9256,-35.5 67.9256,-39.0001 67.9257,-32.0001"/>
</g>
<!-- Node3 -->
<g id="node3" class="node">
<title>Node3</title>
<g id="a_node3"><a xlink:href="classlocomotor_1_1core_1_1_d_b_h.html#a2b2232ca307c4877316e8b6097902f2c" target="_top" xlink:title="locomotor.core.DBH.addUniverse">
<polygon fill="#ffffff" stroke="#000000" points="277.4229,-47.5 277.4229,-65.5 441.8262,-65.5 441.8262,-47.5 277.4229,-47.5"/>
<text text-anchor="middle" x="359.6245" y="-53.5" font-family="Helvetica,sans-Serif" font-size="10.00" fill="#000000">locomotor.core.DBH.addUniverse</text>
</a>
</g>
</g>
<!-- Node2&#45;&gt;Node3 -->
<g id="edge2" class="edge">
<title>Node2&#45;&gt;Node3</title>
<path fill="none" stroke="#191970" d="M251.5321,-44.6814C260.1078,-45.6191 268.8138,-46.571 277.3708,-47.5066"/>
<polygon fill="#191970" stroke="#191970" points="251.8628,-41.1968 241.5416,-43.5891 251.1019,-48.1554 251.8628,-41.1968"/>
</g>
<!-- Node6 -->
<g id="node6" class="node">
<title>Node6</title>
<g id="a_node6"><a xlink:href="classlocomotor_1_1core_1_1_d_b_h.html#a0565ab8a7a56491fca163a1b0977c0db" target="_top" xlink:title="locomotor.core.DBH.update\lUniverse">
<polygon fill="#ffffff" stroke="#000000" points="290.2012,-.5 290.2012,-28.5 429.0479,-28.5 429.0479,-.5 290.2012,-.5"/>
<text text-anchor="start" x="298.2012" y="-16.5" font-family="Helvetica,sans-Serif" font-size="10.00" fill="#000000">locomotor.core.DBH.update</text>
<text text-anchor="middle" x="359.6245" y="-6.5" font-family="Helvetica,sans-Serif" font-size="10.00" fill="#000000">Universe</text>
</a>
</g>
</g>
<!-- Node2&#45;&gt;Node6 -->
<g id="edge5" class="edge">
<title>Node2&#45;&gt;Node6</title>
<path fill="none" stroke="#191970" d="M251.7362,-26.2962C264.5465,-24.8956 277.6427,-23.4637 290.0939,-22.1023"/>
<polygon fill="#191970" stroke="#191970" points="251.1019,-22.8446 241.5416,-27.4109 251.8628,-29.8032 251.1019,-22.8446"/>
</g>
<!-- Node4 -->
<g id="node4" class="node">
<title>Node4</title>
<g id="a_node4"><a xlink:href="classlocomotor_1_1components_1_1network_1_1_a_p_i.html#a547463fbc7fb7b485886f0917e2c0b78" target="_top" xlink:title="locomotor.components.network.\lAPI.createHooks">
<polygon fill="#ffffff" stroke="#000000" points="477.8262,-21.5 477.8262,-49.5 635.0127,-49.5 635.0127,-21.5 477.8262,-21.5"/>
<text text-anchor="start" x="485.8262" y="-37.5" font-family="Helvetica,sans-Serif" font-size="10.00" fill="#000000">locomotor.components.network.</text>
<text text-anchor="middle" x="556.4194" y="-27.5" font-family="Helvetica,sans-Serif" font-size="10.00" fill="#000000">API.createHooks</text>
</a>
</g>
</g>
<!-- Node3&#45;&gt;Node4 -->
<g id="edge3" class="edge">
<title>Node3&#45;&gt;Node4</title>
<path fill="none" stroke="#191970" d="M451.9559,-46.6473C460.5228,-45.7331 469.1512,-44.8124 477.5801,-43.9129"/>
<polygon fill="#191970" stroke="#191970" points="451.5152,-43.1744 441.943,-47.7158 452.258,-50.1349 451.5152,-43.1744"/>
</g>
<!-- Node5 -->
<g id="node5" class="node">
<title>Node5</title>
<g id="a_node5"><a xlink:href="classlocomotor_1_1core_1_1_main.html#a8b260eecbaabcef8473fd87ada040682" target="_top" xlink:title="locomotor.core.Main.main">
<polygon fill="#ffffff" stroke="#000000" points="671.0127,-26.5 671.0127,-44.5 801.5098,-44.5 801.5098,-26.5 671.0127,-26.5"/>
<text text-anchor="middle" x="736.2612" y="-32.5" font-family="Helvetica,sans-Serif" font-size="10.00" fill="#000000">locomotor.core.Main.main</text>
</a>
</g>
</g>
<!-- Node4&#45;&gt;Node5 -->
<g id="edge4" class="edge">
<title>Node4&#45;&gt;Node5</title>
<path fill="none" stroke="#191970" d="M645.2125,-35.5C653.9008,-35.5 662.6031,-35.5 670.995,-35.5"/>
<polygon fill="#191970" stroke="#191970" points="645.0391,-32.0001 635.039,-35.5 645.039,-39.0001 645.0391,-32.0001"/>
</g>
<!-- Node6&#45;&gt;Node4 -->
<g id="edge6" class="edge">
<title>Node6&#45;&gt;Node4</title>
<path fill="none" stroke="#191970" d="M439.3457,-23.007C452.0276,-24.3603 465.1393,-25.7595 477.7958,-27.1101"/>
<polygon fill="#191970" stroke="#191970" points="439.5989,-19.5143 429.284,-21.9334 438.8561,-26.4748 439.5989,-19.5143"/>
</g>
</g>
</svg>
