<?xml version="1.0" encoding="UTF-8" standalone="no"?>
<!DOCTYPE svg PUBLIC "-//W3C//DTD SVG 1.1//EN"
 "http://www.w3.org/Graphics/SVG/1.1/DTD/svg11.dtd">
<!-- Generated by graphviz version 2.40.1 (20161225.0304)
 -->
<!-- Title: getAllBooking Pages: 1 -->
<svg width="466pt" height="121pt"
 viewBox="0.00 0.00 466.00 121.00" xmlns="http://www.w3.org/2000/svg" xmlns:xlink="http://www.w3.org/1999/xlink">
<g id="graph0" class="graph" transform="scale(1 1) rotate(0) translate(4 117)">
<title>getAllBooking</title>
<polygon fill="#ffffff" stroke="transparent" points="-4,4 -4,-117 461.998,-117 461.998,4 -4,4"/>
<!-- Node1 -->
<g id="node1" class="node">
<title>Node1</title>
<polygon fill="#bfbfbf" stroke="#000000" points="0,-42.5 0,-60.5 77.1523,-60.5 77.1523,-42.5 0,-42.5"/>
<text text-anchor="middle" x="38.5762" y="-48.5" font-family="Helvetica,sans-Serif" font-size="10.00" fill="#000000">getAllBooking</text>
</g>
<!-- Node2 -->
<g id="node2" class="node">
<title>Node2</title>
<g id="a_node2"><a xlink:href="classlocomotor_1_1components_1_1logging_1_1_error_handler.html#a75e8f6535bdb8db9a7d570e1b839af47" target="_top" xlink:title="locomotor.components.logging.\lErrorHandler.getInstance">
<polygon fill="#ffffff" stroke="#000000" points="113.1523,-84.5 113.1523,-112.5 267.5752,-112.5 267.5752,-84.5 113.1523,-84.5"/>
<text text-anchor="start" x="121.1523" y="-100.5" font-family="Helvetica,sans-Serif" font-size="10.00" fill="#000000">locomotor.components.logging.</text>
<text text-anchor="middle" x="190.3638" y="-90.5" font-family="Helvetica,sans-Serif" font-size="10.00" fill="#000000">ErrorHandler.getInstance</text>
</a>
</g>
</g>
<!-- Node1&#45;&gt;Node2 -->
<g id="edge1" class="edge">
<title>Node1&#45;&gt;Node2</title>
<path fill="none" stroke="#191970" d="M66.1554,-60.534C80.2012,-65.0946 97.562,-70.6699 113.1523,-75.5 119.5257,-77.4745 126.2047,-79.5118 132.8544,-81.5199"/>
<polygon fill="#191970" stroke="#191970" points="131.9524,-84.9034 142.5367,-84.4304 133.9676,-78.1997 131.9524,-84.9034"/>
</g>
<!-- Node3 -->
<g id="node3" class="node">
<title>Node3</title>
<g id="a_node3"><a xlink:href="classlocomotor_1_1components_1_1logging_1_1_error_handler.html#abd00a9c37627740763cef91d76a77437" target="_top" xlink:title="locomotor.components.logging.\lErrorHandler.push">
<polygon fill="#ffffff" stroke="#000000" points="113.1523,-37.5 113.1523,-65.5 267.5752,-65.5 267.5752,-37.5 113.1523,-37.5"/>
<text text-anchor="start" x="121.1523" y="-53.5" font-family="Helvetica,sans-Serif" font-size="10.00" fill="#000000">locomotor.components.logging.</text>
<text text-anchor="middle" x="190.3638" y="-43.5" font-family="Helvetica,sans-Serif" font-size="10.00" fill="#000000">ErrorHandler.push</text>
</a>
</g>
</g>
<!-- Node1&#45;&gt;Node3 -->
<g id="edge2" class="edge">
<title>Node1&#45;&gt;Node3</title>
<path fill="none" stroke="#191970" d="M77.2713,-51.5C85.2484,-51.5 93.9539,-51.5 102.8785,-51.5"/>
<polygon fill="#191970" stroke="#191970" points="103.0205,-55.0001 113.0205,-51.5 103.0204,-48.0001 103.0205,-55.0001"/>
</g>
<!-- Node5 -->
<g id="node5" class="node">
<title>Node5</title>
<g id="a_node5"><a xlink:href="classlocomotor_1_1core_1_1_d_b_h.html#a187693f2e10c94113aefcb345fe5f518" target="_top" xlink:title="getPartialInfoOfItem">
<polygon fill="#ffffff" stroke="#000000" points="137.8984,-.5 137.8984,-18.5 242.8291,-18.5 242.8291,-.5 137.8984,-.5"/>
<text text-anchor="middle" x="190.3638" y="-6.5" font-family="Helvetica,sans-Serif" font-size="10.00" fill="#000000">getPartialInfoOfItem</text>
</a>
</g>
</g>
<!-- Node1&#45;&gt;Node5 -->
<g id="edge4" class="edge">
<title>Node1&#45;&gt;Node5</title>
<path fill="none" stroke="#191970" d="M66.4404,-42.487C80.4072,-38.0765 97.6141,-32.804 113.1523,-28.5 122.4338,-25.9291 132.3908,-23.3484 141.9658,-20.9541"/>
<polygon fill="#191970" stroke="#191970" points="142.8924,-24.3305 151.7614,-18.5347 141.2139,-17.5347 142.8924,-24.3305"/>
</g>
<!-- Node4 -->
<g id="node4" class="node">
<title>Node4</title>
<g id="a_node4"><a xlink:href="classlocomotor_1_1components_1_1logging_1_1_error_context.html#afcf30b71bfc65c74878c7ab77c951842" target="_top" xlink:title="locomotor.components.logging.\lErrorContext.push">
<polygon fill="#ffffff" stroke="#000000" points="303.5752,-37.5 303.5752,-65.5 457.998,-65.5 457.998,-37.5 303.5752,-37.5"/>
<text text-anchor="start" x="311.5752" y="-53.5" font-family="Helvetica,sans-Serif" font-size="10.00" fill="#000000">locomotor.components.logging.</text>
<text text-anchor="middle" x="380.7866" y="-43.5" font-family="Helvetica,sans-Serif" font-size="10.00" fill="#000000">ErrorContext.push</text>
</a>
</g>
</g>
<!-- Node3&#45;&gt;Node4 -->
<g id="edge3" class="edge">
<title>Node3&#45;&gt;Node4</title>
<path fill="none" stroke="#191970" d="M267.816,-51.5C276.1613,-51.5 284.6952,-51.5 293.149,-51.5"/>
<polygon fill="#191970" stroke="#191970" points="293.403,-55.0001 303.403,-51.5 293.403,-48.0001 293.403,-55.0001"/>
</g>
</g>
</svg>
