<?xml version="1.0" encoding="UTF-8" standalone="no"?>
<!DOCTYPE svg PUBLIC "-//W3C//DTD SVG 1.1//EN"
 "http://www.w3.org/Graphics/SVG/1.1/DTD/svg11.dtd">
<!-- Generated by graphviz version 2.40.1 (20161225.0304)
 -->
<!-- Title: getID Pages: 1 -->
<svg width="590pt" height="37pt"
 viewBox="0.00 0.00 590.20 37.00" xmlns="http://www.w3.org/2000/svg" xmlns:xlink="http://www.w3.org/1999/xlink">
<g id="graph0" class="graph" transform="scale(1 1) rotate(0) translate(4 33)">
<title>getID</title>
<polygon fill="#ffffff" stroke="transparent" points="-4,4 -4,-33 586.1953,-33 586.1953,4 -4,4"/>
<!-- Node1 -->
<g id="node1" class="node">
<title>Node1</title>
<polygon fill="#bfbfbf" stroke="#000000" points="0,-5.5 0,-23.5 39.9014,-23.5 39.9014,-5.5 0,-5.5"/>
<text text-anchor="middle" x="19.9507" y="-11.5" font-family="Helvetica,sans-Serif" font-size="10.00" fill="#000000">getID</text>
</g>
<!-- Node2 -->
<g id="node2" class="node">
<title>Node2</title>
<g id="a_node2"><a xlink:href="classlocomotor_1_1core_1_1_d_b_h.html#a6856661b356e5441d182e061ef940aaf" target="_top" xlink:title="locomotor.core.DBH.getItems">
<polygon fill="#ffffff" stroke="#000000" points="75.9014,-5.5 75.9014,-23.5 222.5117,-23.5 222.5117,-5.5 75.9014,-5.5"/>
<text text-anchor="middle" x="149.2065" y="-11.5" font-family="Helvetica,sans-Serif" font-size="10.00" fill="#000000">locomotor.core.DBH.getItems</text>
</a>
</g>
</g>
<!-- Node1&#45;&gt;Node2 -->
<g id="edge1" class="edge">
<title>Node1&#45;&gt;Node2</title>
<path fill="none" stroke="#191970" d="M50.1942,-14.5C58.0464,-14.5 66.854,-14.5 75.8924,-14.5"/>
<polygon fill="#191970" stroke="#191970" points="50.1469,-11.0001 40.1469,-14.5 50.1469,-18.0001 50.1469,-11.0001"/>
</g>
<!-- Node3 -->
<g id="node3" class="node">
<title>Node3</title>
<g id="a_node3"><a xlink:href="classlocomotor_1_1components_1_1network_1_1_a_p_i.html#a547463fbc7fb7b485886f0917e2c0b78" target="_top" xlink:title="locomotor.components.network.\lAPI.createHooks">
<polygon fill="#ffffff" stroke="#000000" points="258.5117,-.5 258.5117,-28.5 415.6982,-28.5 415.6982,-.5 258.5117,-.5"/>
<text text-anchor="start" x="266.5117" y="-16.5" font-family="Helvetica,sans-Serif" font-size="10.00" fill="#000000">locomotor.components.network.</text>
<text text-anchor="middle" x="337.105" y="-6.5" font-family="Helvetica,sans-Serif" font-size="10.00" fill="#000000">API.createHooks</text>
</a>
</g>
</g>
<!-- Node2&#45;&gt;Node3 -->
<g id="edge2" class="edge">
<title>Node2&#45;&gt;Node3</title>
<path fill="none" stroke="#191970" d="M232.9294,-14.5C241.4094,-14.5 250.0019,-14.5 258.426,-14.5"/>
<polygon fill="#191970" stroke="#191970" points="232.6603,-11.0001 222.6603,-14.5 232.6602,-18.0001 232.6603,-11.0001"/>
</g>
<!-- Node4 -->
<g id="node4" class="node">
<title>Node4</title>
<g id="a_node4"><a xlink:href="classlocomotor_1_1core_1_1_main.html#a8b260eecbaabcef8473fd87ada040682" target="_top" xlink:title="locomotor.core.Main.main">
<polygon fill="#ffffff" stroke="#000000" points="451.6982,-5.5 451.6982,-23.5 582.1953,-23.5 582.1953,-5.5 451.6982,-5.5"/>
<text text-anchor="middle" x="516.9468" y="-11.5" font-family="Helvetica,sans-Serif" font-size="10.00" fill="#000000">locomotor.core.Main.main</text>
</a>
</g>
</g>
<!-- Node3&#45;&gt;Node4 -->
<g id="edge3" class="edge">
<title>Node3&#45;&gt;Node4</title>
<path fill="none" stroke="#191970" d="M425.898,-14.5C434.5863,-14.5 443.2886,-14.5 451.6805,-14.5"/>
<polygon fill="#191970" stroke="#191970" points="425.7246,-11.0001 415.7246,-14.5 425.7246,-18.0001 425.7246,-11.0001"/>
</g>
</g>
</svg>
