<?xml version="1.0" encoding="UTF-8" standalone="no"?>
<!DOCTYPE svg PUBLIC "-//W3C//DTD SVG 1.1//EN"
 "http://www.w3.org/Graphics/SVG/1.1/DTD/svg11.dtd">
<!-- Generated by graphviz version 2.40.1 (20161225.0304)
 -->
<!-- Title: fromJSON Pages: 1 -->
<svg width="1253pt" height="529pt"
 viewBox="0.00 0.00 1253.12 529.00" xmlns="http://www.w3.org/2000/svg" xmlns:xlink="http://www.w3.org/1999/xlink">
<g id="graph0" class="graph" transform="scale(1 1) rotate(0) translate(4 525)">
<title>fromJSON</title>
<polygon fill="#ffffff" stroke="transparent" points="-4,4 -4,-525 1249.124,-525 1249.124,4 -4,4"/>
<!-- Node1 -->
<g id="node1" class="node">
<title>Node1</title>
<polygon fill="#bfbfbf" stroke="#000000" points="0,-229.5 0,-247.5 62.6699,-247.5 62.6699,-229.5 0,-229.5"/>
<text text-anchor="middle" x="31.335" y="-235.5" font-family="Helvetica,sans-Serif" font-size="10.00" fill="#000000">fromJSON</text>
</g>
<!-- Node2 -->
<g id="node2" class="node">
<title>Node2</title>
<g id="a_node2"><a xlink:href="classlocomotor_1_1components_1_1models_1_1_user_category.html#a52e02970889790bace019e61fb256ff0" target="_top" xlink:title="locomotor.components.models.\lUserCategory.fromJSON">
<polygon fill="#ffffff" stroke="#000000" points="98.6699,-245.5 98.6699,-273.5 253.0781,-273.5 253.0781,-245.5 98.6699,-245.5"/>
<text text-anchor="start" x="106.6699" y="-261.5" font-family="Helvetica,sans-Serif" font-size="10.00" fill="#000000">locomotor.components.models.</text>
<text text-anchor="middle" x="175.874" y="-251.5" font-family="Helvetica,sans-Serif" font-size="10.00" fill="#000000">UserCategory.fromJSON</text>
</a>
</g>
</g>
<!-- Node1&#45;&gt;Node2 -->
<g id="edge1" class="edge">
<title>Node1&#45;&gt;Node2</title>
<path fill="none" stroke="#191970" d="M62.6978,-243.0567C70.5633,-244.1995 79.3928,-245.4823 88.5603,-246.8142"/>
<polygon fill="#191970" stroke="#191970" points="88.2116,-250.3002 98.6109,-248.2745 89.2181,-243.373 88.2116,-250.3002"/>
</g>
<!-- Node28 -->
<g id="node28" class="node">
<title>Node28</title>
<g id="a_node28"><a xlink:href="classlocomotor_1_1components_1_1models_1_1_user_item.html#a662680960ac3caf839d1e9f0826b2587" target="_top" xlink:title="UserItem">
<polygon fill="#ffffff" stroke="#000000" points="147.5933,-208.5 147.5933,-226.5 204.1548,-226.5 204.1548,-208.5 147.5933,-208.5"/>
<text text-anchor="middle" x="175.874" y="-214.5" font-family="Helvetica,sans-Serif" font-size="10.00" fill="#000000">UserItem</text>
</a>
</g>
</g>
<!-- Node1&#45;&gt;Node28 -->
<g id="edge33" class="edge">
<title>Node1&#45;&gt;Node28</title>
<path fill="none" stroke="#191970" d="M62.6978,-233.9433C84.6845,-230.7489 114.2032,-226.4601 137.581,-223.0636"/>
<polygon fill="#191970" stroke="#191970" points="138.1189,-226.5223 147.5117,-221.6207 137.1124,-219.595 138.1189,-226.5223"/>
</g>
<!-- Node3 -->
<g id="node3" class="node">
<title>Node3</title>
<g id="a_node3"><a xlink:href="classlocomotor_1_1components_1_1models_1_1_category_model.html#a337145f3b2fdaaed1506d52b80d2ac86" target="_top" xlink:title="locomotor.components.models.\lCategoryModel.getCriterias">
<polygon fill="#ffffff" stroke="#000000" points="289.0781,-292.5 289.0781,-320.5 443.4863,-320.5 443.4863,-292.5 289.0781,-292.5"/>
<text text-anchor="start" x="297.0781" y="-308.5" font-family="Helvetica,sans-Serif" font-size="10.00" fill="#000000">locomotor.components.models.</text>
<text text-anchor="middle" x="366.2822" y="-298.5" font-family="Helvetica,sans-Serif" font-size="10.00" fill="#000000">CategoryModel.getCriterias</text>
</a>
</g>
</g>
<!-- Node2&#45;&gt;Node3 -->
<g id="edge2" class="edge">
<title>Node2&#45;&gt;Node3</title>
<path fill="none" stroke="#191970" d="M232.7448,-273.5379C253.7464,-278.7219 277.7356,-284.6433 299.5333,-290.0238"/>
<polygon fill="#191970" stroke="#191970" points="298.8283,-293.4548 309.3757,-292.4533 300.5058,-286.6587 298.8283,-293.4548"/>
</g>
<!-- Node4 -->
<g id="node4" class="node">
<title>Node4</title>
<g id="a_node4"><a xlink:href="classlocomotor_1_1components_1_1models_1_1_user_criteria.html#aaca1c5ec640a1453943ce97d40e12a63" target="_top" xlink:title="locomotor.components.models.\lUserCriteria.fromJSON">
<polygon fill="#ffffff" stroke="#000000" points="289.0781,-245.5 289.0781,-273.5 443.4863,-273.5 443.4863,-245.5 289.0781,-245.5"/>
<text text-anchor="start" x="297.0781" y="-261.5" font-family="Helvetica,sans-Serif" font-size="10.00" fill="#000000">locomotor.components.models.</text>
<text text-anchor="middle" x="366.2822" y="-251.5" font-family="Helvetica,sans-Serif" font-size="10.00" fill="#000000">UserCriteria.fromJSON</text>
</a>
</g>
</g>
<!-- Node2&#45;&gt;Node4 -->
<g id="edge3" class="edge">
<title>Node2&#45;&gt;Node4</title>
<path fill="none" stroke="#191970" d="M253.3203,-259.5C261.6649,-259.5 270.1982,-259.5 278.6514,-259.5"/>
<polygon fill="#191970" stroke="#191970" points="278.9046,-263.0001 288.9046,-259.5 278.9045,-256.0001 278.9046,-263.0001"/>
</g>
<!-- Node27 -->
<g id="node27" class="node">
<title>Node27</title>
<g id="a_node27"><a xlink:href="classlocomotor_1_1components_1_1models_1_1_user_category.html#a102c969efe0667dccd060943be8786ec" target="_top" xlink:title="locomotor.components.models.\lUserCategory.UserCategory">
<polygon fill="#ffffff" stroke="#000000" points="289.0781,-198.5 289.0781,-226.5 443.4863,-226.5 443.4863,-198.5 289.0781,-198.5"/>
<text text-anchor="start" x="297.0781" y="-214.5" font-family="Helvetica,sans-Serif" font-size="10.00" fill="#000000">locomotor.components.models.</text>
<text text-anchor="middle" x="366.2822" y="-204.5" font-family="Helvetica,sans-Serif" font-size="10.00" fill="#000000">UserCategory.UserCategory</text>
</a>
</g>
</g>
<!-- Node2&#45;&gt;Node27 -->
<g id="edge32" class="edge">
<title>Node2&#45;&gt;Node27</title>
<path fill="none" stroke="#191970" d="M232.7448,-245.4621C253.7464,-240.2781 277.7356,-234.3567 299.5333,-228.9762"/>
<polygon fill="#191970" stroke="#191970" points="300.5058,-232.3413 309.3757,-226.5467 298.8283,-225.5452 300.5058,-232.3413"/>
</g>
<!-- Node5 -->
<g id="node5" class="node">
<title>Node5</title>
<g id="a_node5"><a xlink:href="classlocomotor_1_1components_1_1types_1_1_type_factory.html#a1a64701bf13afa82b6b32bf422a171e2" target="_top" xlink:title="locomotor.components.types.\lTypeFactory.getUser">
<polygon fill="#ffffff" stroke="#000000" points="483.6538,-292.5 483.6538,-320.5 629.7271,-320.5 629.7271,-292.5 483.6538,-292.5"/>
<text text-anchor="start" x="491.6538" y="-308.5" font-family="Helvetica,sans-Serif" font-size="10.00" fill="#000000">locomotor.components.types.</text>
<text text-anchor="middle" x="556.6904" y="-298.5" font-family="Helvetica,sans-Serif" font-size="10.00" fill="#000000">TypeFactory.getUser</text>
</a>
</g>
</g>
<!-- Node4&#45;&gt;Node5 -->
<g id="edge4" class="edge">
<title>Node4&#45;&gt;Node5</title>
<path fill="none" stroke="#191970" d="M423.1531,-273.5379C444.1546,-278.7219 468.1438,-284.6433 489.9415,-290.0238"/>
<polygon fill="#191970" stroke="#191970" points="489.2365,-293.4548 499.7839,-292.4533 490.914,-286.6587 489.2365,-293.4548"/>
</g>
<!-- Node25 -->
<g id="node25" class="node">
<title>Node25</title>
<g id="a_node25"><a xlink:href="classlocomotor_1_1components_1_1models_1_1_criteria_model.html#a7dd49780da667635d05b6f3155da39e6" target="_top" xlink:title="locomotor.components.models.\lCriteriaModel.getUserType">
<polygon fill="#ffffff" stroke="#000000" points="479.4863,-245.5 479.4863,-273.5 633.8945,-273.5 633.8945,-245.5 479.4863,-245.5"/>
<text text-anchor="start" x="487.4863" y="-261.5" font-family="Helvetica,sans-Serif" font-size="10.00" fill="#000000">locomotor.components.models.</text>
<text text-anchor="middle" x="556.6904" y="-251.5" font-family="Helvetica,sans-Serif" font-size="10.00" fill="#000000">CriteriaModel.getUserType</text>
</a>
</g>
</g>
<!-- Node4&#45;&gt;Node25 -->
<g id="edge30" class="edge">
<title>Node4&#45;&gt;Node25</title>
<path fill="none" stroke="#191970" d="M443.7285,-259.5C452.0731,-259.5 460.6064,-259.5 469.0596,-259.5"/>
<polygon fill="#191970" stroke="#191970" points="469.3128,-263.0001 479.3128,-259.5 469.3127,-256.0001 469.3128,-263.0001"/>
</g>
<!-- Node26 -->
<g id="node26" class="node">
<title>Node26</title>
<g id="a_node26"><a xlink:href="classlocomotor_1_1components_1_1models_1_1_user_criteria.html#a73362947e669621a26c6ca400fd58e49" target="_top" xlink:title="locomotor.components.models.\lUserCriteria.UserCriteria">
<polygon fill="#ffffff" stroke="#000000" points="479.4863,-198.5 479.4863,-226.5 633.8945,-226.5 633.8945,-198.5 479.4863,-198.5"/>
<text text-anchor="start" x="487.4863" y="-214.5" font-family="Helvetica,sans-Serif" font-size="10.00" fill="#000000">locomotor.components.models.</text>
<text text-anchor="middle" x="556.6904" y="-204.5" font-family="Helvetica,sans-Serif" font-size="10.00" fill="#000000">UserCriteria.UserCriteria</text>
</a>
</g>
</g>
<!-- Node4&#45;&gt;Node26 -->
<g id="edge31" class="edge">
<title>Node4&#45;&gt;Node26</title>
<path fill="none" stroke="#191970" d="M423.1531,-245.4621C444.1546,-240.2781 468.1438,-234.3567 489.9415,-228.9762"/>
<polygon fill="#191970" stroke="#191970" points="490.914,-232.3413 499.7839,-226.5467 489.2365,-225.5452 490.914,-232.3413"/>
</g>
<!-- Node6 -->
<g id="node6" class="node">
<title>Node6</title>
<g id="a_node6"><a xlink:href="classlocomotor_1_1components_1_1types_1_1_c_boolean.html#a1bdea5ac8c77993c2f48a0a99a0ce032" target="_top" xlink:title="locomotor.components.types.\lCBoolean.fromJSON">
<polygon fill="#ffffff" stroke="#000000" points="675.0703,-462.5 675.0703,-490.5 821.1436,-490.5 821.1436,-462.5 675.0703,-462.5"/>
<text text-anchor="start" x="683.0703" y="-478.5" font-family="Helvetica,sans-Serif" font-size="10.00" fill="#000000">locomotor.components.types.</text>
<text text-anchor="middle" x="748.1069" y="-468.5" font-family="Helvetica,sans-Serif" font-size="10.00" fill="#000000">CBoolean.fromJSON</text>
</a>
</g>
</g>
<!-- Node5&#45;&gt;Node6 -->
<g id="edge5" class="edge">
<title>Node5&#45;&gt;Node6</title>
<path fill="none" stroke="#191970" d="M568.3679,-320.5451C587.9825,-343.6842 629.3873,-390.6268 669.8945,-424.5 683.9824,-436.2806 700.8124,-447.7602 715.2452,-456.9235"/>
<polygon fill="#191970" stroke="#191970" points="713.5397,-459.9848 723.8759,-462.3116 717.2468,-454.0469 713.5397,-459.9848"/>
</g>
<!-- Node9 -->
<g id="node9" class="node">
<title>Node9</title>
<g id="a_node9"><a xlink:href="classlocomotor_1_1components_1_1types_1_1_c_interval_integer.html#a7325219bbe286c1651eac4d7cb1dcf89" target="_top" xlink:title="locomotor.components.types.\lCIntervalInteger.fromJSON">
<polygon fill="#ffffff" stroke="#000000" points="675.0703,-327.5 675.0703,-355.5 821.1436,-355.5 821.1436,-327.5 675.0703,-327.5"/>
<text text-anchor="start" x="683.0703" y="-343.5" font-family="Helvetica,sans-Serif" font-size="10.00" fill="#000000">locomotor.components.types.</text>
<text text-anchor="middle" x="748.1069" y="-333.5" font-family="Helvetica,sans-Serif" font-size="10.00" fill="#000000">CIntervalInteger.fromJSON</text>
</a>
</g>
</g>
<!-- Node5&#45;&gt;Node9 -->
<g id="edge8" class="edge">
<title>Node5&#45;&gt;Node9</title>
<path fill="none" stroke="#191970" d="M629.8761,-319.8818C641.3044,-321.9714 653.1869,-324.1441 664.8203,-326.2713"/>
<polygon fill="#191970" stroke="#191970" points="664.4953,-329.7698 674.9618,-328.1256 665.7544,-322.884 664.4953,-329.7698"/>
</g>
<!-- Node13 -->
<g id="node13" class="node">
<title>Node13</title>
<g id="a_node13"><a xlink:href="classlocomotor_1_1components_1_1types_1_1_c_interval_double.html#a05b10f1076a88b090171dc5c92d1e51a" target="_top" xlink:title="locomotor.components.types.\lCIntervalDouble.fromJSON">
<polygon fill="#ffffff" stroke="#000000" points="675.0703,-386.5 675.0703,-414.5 821.1436,-414.5 821.1436,-386.5 675.0703,-386.5"/>
<text text-anchor="start" x="683.0703" y="-402.5" font-family="Helvetica,sans-Serif" font-size="10.00" fill="#000000">locomotor.components.types.</text>
<text text-anchor="middle" x="748.1069" y="-392.5" font-family="Helvetica,sans-Serif" font-size="10.00" fill="#000000">CIntervalDouble.fromJSON</text>
</a>
</g>
</g>
<!-- Node5&#45;&gt;Node13 -->
<g id="edge12" class="edge">
<title>Node5&#45;&gt;Node13</title>
<path fill="none" stroke="#191970" d="M582.5455,-320.5364C605.347,-332.7798 639.57,-350.8287 669.8945,-365.5 681.6234,-371.1745 694.4817,-377.0631 706.3237,-382.355"/>
<polygon fill="#191970" stroke="#191970" points="705.0019,-385.5975 715.5619,-386.4556 707.8418,-379.1995 705.0019,-385.5975"/>
</g>
<!-- Node15 -->
<g id="node15" class="node">
<title>Node15</title>
<g id="a_node15"><a xlink:href="classlocomotor_1_1components_1_1types_1_1_c_mapped_string_list.html#a3834a44c64a57457335f1f296b272c79" target="_top" xlink:title="locomotor.components.types.\lCMappedStringList.fromJSON">
<polygon fill="#ffffff" stroke="#000000" points="672.8608,-257.5 672.8608,-285.5 823.353,-285.5 823.353,-257.5 672.8608,-257.5"/>
<text text-anchor="start" x="680.8608" y="-273.5" font-family="Helvetica,sans-Serif" font-size="10.00" fill="#000000">locomotor.components.types.</text>
<text text-anchor="middle" x="748.1069" y="-263.5" font-family="Helvetica,sans-Serif" font-size="10.00" fill="#000000">CMappedStringList.fromJSON</text>
</a>
</g>
</g>
<!-- Node5&#45;&gt;Node15 -->
<g id="edge16" class="edge">
<title>Node5&#45;&gt;Node15</title>
<path fill="none" stroke="#191970" d="M629.8761,-293.1182C640.6233,-291.1531 651.7722,-289.1146 662.7379,-287.1095"/>
<polygon fill="#191970" stroke="#191970" points="663.5327,-290.5223 672.7401,-285.2806 662.2736,-283.6364 663.5327,-290.5223"/>
</g>
<!-- Node18 -->
<g id="node18" class="node">
<title>Node18</title>
<g id="a_node18"><a xlink:href="classlocomotor_1_1components_1_1types_1_1_c_weighted_string_list.html#a7a08dcf44cd83920ed5e14cef6361de8" target="_top" xlink:title="locomotor.components.types.\lCWeightedStringList.fromJSON">
<polygon fill="#ffffff" stroke="#000000" points="669.8945,-146.5 669.8945,-174.5 826.3193,-174.5 826.3193,-146.5 669.8945,-146.5"/>
<text text-anchor="start" x="677.8945" y="-162.5" font-family="Helvetica,sans-Serif" font-size="10.00" fill="#000000">locomotor.components.types.</text>
<text text-anchor="middle" x="748.1069" y="-152.5" font-family="Helvetica,sans-Serif" font-size="10.00" fill="#000000">CWeightedStringList.fromJSON</text>
</a>
</g>
</g>
<!-- Node5&#45;&gt;Node18 -->
<g id="edge19" class="edge">
<title>Node5&#45;&gt;Node18</title>
<path fill="none" stroke="#191970" d="M615.8793,-292.478C622.1759,-289.9398 628.3113,-286.9692 633.8945,-283.5 645.2464,-276.4463 698.9805,-216.3373 728.5239,-182.8357"/>
<polygon fill="#191970" stroke="#191970" points="731.4936,-184.7591 735.4733,-174.9401 726.239,-180.1342 731.4936,-184.7591"/>
</g>
<!-- Node22 -->
<g id="node22" class="node">
<title>Node22</title>
<g id="a_node22"><a xlink:href="classlocomotor_1_1components_1_1types_1_1_c_tree.html#a82724a3000f4e1d5ff5fed5365e1480f" target="_top" xlink:title="locomotor.components.types.\lCTree.fromJSON">
<polygon fill="#ffffff" stroke="#000000" points="675.0703,-43.5 675.0703,-71.5 821.1436,-71.5 821.1436,-43.5 675.0703,-43.5"/>
<text text-anchor="start" x="683.0703" y="-59.5" font-family="Helvetica,sans-Serif" font-size="10.00" fill="#000000">locomotor.components.types.</text>
<text text-anchor="middle" x="748.1069" y="-49.5" font-family="Helvetica,sans-Serif" font-size="10.00" fill="#000000">CTree.fromJSON</text>
</a>
</g>
</g>
<!-- Node5&#45;&gt;Node22 -->
<g id="edge25" class="edge">
<title>Node5&#45;&gt;Node22</title>
<path fill="none" stroke="#191970" d="M622.7686,-292.3741C626.8421,-289.875 630.6134,-286.9417 633.8945,-283.5 680.0096,-235.1268 637.3895,-195.8951 669.8945,-137.5 682.803,-114.31 704.2137,-93.0841 721.3729,-78.3323"/>
<polygon fill="#191970" stroke="#191970" points="723.9665,-80.7263 729.3991,-71.6303 719.4799,-75.3532 723.9665,-80.7263"/>
</g>
<!-- Node7 -->
<g id="node7" class="node">
<title>Node7</title>
<g id="a_node7"><a xlink:href="classlocomotor_1_1components_1_1types_1_1_c_boolean.html#a04219e3dc4a138fa88ee6876fb62eebc" target="_top" xlink:title="locomotor.components.types.\lCBoolean.CBoolean">
<polygon fill="#ffffff" stroke="#000000" points="889.6484,-492.5 889.6484,-520.5 1035.7217,-520.5 1035.7217,-492.5 889.6484,-492.5"/>
<text text-anchor="start" x="897.6484" y="-508.5" font-family="Helvetica,sans-Serif" font-size="10.00" fill="#000000">locomotor.components.types.</text>
<text text-anchor="middle" x="962.6851" y="-498.5" font-family="Helvetica,sans-Serif" font-size="10.00" fill="#000000">CBoolean.CBoolean</text>
</a>
</g>
</g>
<!-- Node6&#45;&gt;Node7 -->
<g id="edge6" class="edge">
<title>Node6&#45;&gt;Node7</title>
<path fill="none" stroke="#191970" d="M821.3524,-486.7404C840.0656,-489.3567 860.3202,-492.1885 879.4924,-494.8689"/>
<polygon fill="#191970" stroke="#191970" points="879.0173,-498.3364 889.4056,-496.2549 879.9866,-491.4039 879.0173,-498.3364"/>
</g>
<!-- Node8 -->
<g id="node8" class="node">
<title>Node8</title>
<g id="a_node8"><a xlink:href="classlocomotor_1_1components_1_1types_1_1_c_boolean.html#a9eac04fa64318139aa527377b2e03cc4" target="_top" xlink:title="locomotor.components.types.\lCBoolean.value">
<polygon fill="#ffffff" stroke="#000000" points="1099.0508,-492.5 1099.0508,-520.5 1245.124,-520.5 1245.124,-492.5 1099.0508,-492.5"/>
<text text-anchor="start" x="1107.0508" y="-508.5" font-family="Helvetica,sans-Serif" font-size="10.00" fill="#000000">locomotor.components.types.</text>
<text text-anchor="middle" x="1172.0874" y="-498.5" font-family="Helvetica,sans-Serif" font-size="10.00" fill="#000000">CBoolean.value</text>
</a>
</g>
</g>
<!-- Node7&#45;&gt;Node8 -->
<g id="edge7" class="edge">
<title>Node7&#45;&gt;Node8</title>
<path fill="none" stroke="#191970" d="M1035.9238,-506.5C1052.9801,-506.5 1071.2643,-506.5 1088.7221,-506.5"/>
<polygon fill="#191970" stroke="#191970" points="1088.89,-510.0001 1098.89,-506.5 1088.8899,-503.0001 1088.89,-510.0001"/>
</g>
<!-- Node10 -->
<g id="node10" class="node">
<title>Node10</title>
<g id="a_node10"><a xlink:href="classlocomotor_1_1components_1_1types_1_1_c_interval.html#a8977ca8c87b00639da116d1441a878ec" target="_top" xlink:title="locomotor.components.types.\lCInterval.min">
<polygon fill="#ffffff" stroke="#000000" points="889.6484,-398.5 889.6484,-426.5 1035.7217,-426.5 1035.7217,-398.5 889.6484,-398.5"/>
<text text-anchor="start" x="897.6484" y="-414.5" font-family="Helvetica,sans-Serif" font-size="10.00" fill="#000000">locomotor.components.types.</text>
<text text-anchor="middle" x="962.6851" y="-404.5" font-family="Helvetica,sans-Serif" font-size="10.00" fill="#000000">CInterval.min</text>
</a>
</g>
</g>
<!-- Node9&#45;&gt;Node10 -->
<g id="edge9" class="edge">
<title>Node9&#45;&gt;Node10</title>
<path fill="none" stroke="#191970" d="M777.6329,-355.5715C800.3859,-366.0048 832.8383,-380.0055 862.3193,-389.5 869.418,-391.7862 876.8685,-393.938 884.3676,-395.9386"/>
<polygon fill="#191970" stroke="#191970" points="883.6713,-399.3735 894.2284,-398.4801 885.4184,-392.595 883.6713,-399.3735"/>
</g>
<!-- Node11 -->
<g id="node11" class="node">
<title>Node11</title>
<g id="a_node11"><a xlink:href="classlocomotor_1_1components_1_1types_1_1_c_interval.html#a63edd36c00e0027edd899384e6f168f9" target="_top" xlink:title="locomotor.components.types.\lCInterval.max">
<polygon fill="#ffffff" stroke="#000000" points="889.6484,-351.5 889.6484,-379.5 1035.7217,-379.5 1035.7217,-351.5 889.6484,-351.5"/>
<text text-anchor="start" x="897.6484" y="-367.5" font-family="Helvetica,sans-Serif" font-size="10.00" fill="#000000">locomotor.components.types.</text>
<text text-anchor="middle" x="962.6851" y="-357.5" font-family="Helvetica,sans-Serif" font-size="10.00" fill="#000000">CInterval.max</text>
</a>
</g>
</g>
<!-- Node9&#45;&gt;Node11 -->
<g id="edge10" class="edge">
<title>Node9&#45;&gt;Node11</title>
<path fill="none" stroke="#191970" d="M821.3524,-349.6923C839.9797,-351.7757 860.1344,-354.03 879.2285,-356.1656"/>
<polygon fill="#191970" stroke="#191970" points="879.0785,-359.6706 889.4056,-357.3039 879.8567,-352.7139 879.0785,-359.6706"/>
</g>
<!-- Node12 -->
<g id="node12" class="node">
<title>Node12</title>
<g id="a_node12"><a xlink:href="classlocomotor_1_1components_1_1types_1_1_c_interval_integer.html#a4ece5be3d0255219efc9a1ec16f3775c" target="_top" xlink:title="locomotor.components.types.\lCIntervalInteger.CIntervalInteger">
<polygon fill="#ffffff" stroke="#000000" points="882.4219,-304.5 882.4219,-332.5 1042.9482,-332.5 1042.9482,-304.5 882.4219,-304.5"/>
<text text-anchor="start" x="890.4219" y="-320.5" font-family="Helvetica,sans-Serif" font-size="10.00" fill="#000000">locomotor.components.types.</text>
<text text-anchor="middle" x="962.6851" y="-310.5" font-family="Helvetica,sans-Serif" font-size="10.00" fill="#000000">CIntervalInteger.CIntervalInteger</text>
</a>
</g>
</g>
<!-- Node9&#45;&gt;Node12 -->
<g id="edge11" class="edge">
<title>Node9&#45;&gt;Node12</title>
<path fill="none" stroke="#191970" d="M821.3524,-333.649C837.7939,-331.8867 855.4253,-329.9969 872.467,-328.1702"/>
<polygon fill="#191970" stroke="#191970" points="872.8493,-331.6494 882.4193,-327.1034 872.1032,-324.6892 872.8493,-331.6494"/>
</g>
<!-- Node13&#45;&gt;Node10 -->
<g id="edge13" class="edge">
<title>Node13&#45;&gt;Node10</title>
<path fill="none" stroke="#191970" d="M821.3524,-404.5962C839.9797,-405.6379 860.1344,-406.765 879.2285,-407.8328"/>
<polygon fill="#191970" stroke="#191970" points="879.2258,-411.338 889.4056,-408.4019 879.6167,-404.3489 879.2258,-411.338"/>
</g>
<!-- Node13&#45;&gt;Node11 -->
<g id="edge14" class="edge">
<title>Node13&#45;&gt;Node11</title>
<path fill="none" stroke="#191970" d="M821.3524,-388.5529C840.0656,-385.5006 860.3202,-382.1968 879.4924,-379.0696"/>
<polygon fill="#191970" stroke="#191970" points="880.0995,-382.5169 889.4056,-377.4527 878.9726,-375.6082 880.0995,-382.5169"/>
</g>
<!-- Node14 -->
<g id="node14" class="node">
<title>Node14</title>
<g id="a_node14"><a xlink:href="classlocomotor_1_1components_1_1types_1_1_c_interval_double.html#a1c646d0efc9520469e000c2282ca3386" target="_top" xlink:title="locomotor.components.types.\lCIntervalDouble.CIntervalDouble">
<polygon fill="#ffffff" stroke="#000000" points="881.5918,-445.5 881.5918,-473.5 1043.7783,-473.5 1043.7783,-445.5 881.5918,-445.5"/>
<text text-anchor="start" x="889.5918" y="-461.5" font-family="Helvetica,sans-Serif" font-size="10.00" fill="#000000">locomotor.components.types.</text>
<text text-anchor="middle" x="962.6851" y="-451.5" font-family="Helvetica,sans-Serif" font-size="10.00" fill="#000000">CIntervalDouble.CIntervalDouble</text>
</a>
</g>
</g>
<!-- Node13&#45;&gt;Node14 -->
<g id="edge15" class="edge">
<title>Node13&#45;&gt;Node14</title>
<path fill="none" stroke="#191970" d="M789.9077,-414.5593C811.422,-421.57 838.1436,-429.9311 862.3193,-436.5 870.6543,-438.7647 879.4182,-440.9939 888.1523,-443.1202"/>
<polygon fill="#191970" stroke="#191970" points="887.4358,-446.5475 897.9761,-445.4736 889.0667,-439.7401 887.4358,-446.5475"/>
</g>
<!-- Node16 -->
<g id="node16" class="node">
<title>Node16</title>
<g id="a_node16"><a xlink:href="classlocomotor_1_1components_1_1types_1_1_c_string_list.html#aa9063c07592d04038c8a37cae1214de5" target="_top" xlink:title="locomotor.components.types.\lCStringList.treeFromJSON">
<polygon fill="#ffffff" stroke="#000000" points="889.6484,-257.5 889.6484,-285.5 1035.7217,-285.5 1035.7217,-257.5 889.6484,-257.5"/>
<text text-anchor="start" x="897.6484" y="-273.5" font-family="Helvetica,sans-Serif" font-size="10.00" fill="#000000">locomotor.components.types.</text>
<text text-anchor="middle" x="962.6851" y="-263.5" font-family="Helvetica,sans-Serif" font-size="10.00" fill="#000000">CStringList.treeFromJSON</text>
</a>
</g>
</g>
<!-- Node15&#45;&gt;Node16 -->
<g id="edge17" class="edge">
<title>Node15&#45;&gt;Node16</title>
<path fill="none" stroke="#191970" d="M823.4574,-271.5C841.492,-271.5 860.8514,-271.5 879.2282,-271.5"/>
<polygon fill="#191970" stroke="#191970" points="879.3219,-275.0001 889.3219,-271.5 879.3218,-268.0001 879.3219,-275.0001"/>
</g>
<!-- Node17 -->
<g id="node17" class="node">
<title>Node17</title>
<g id="a_node17"><a xlink:href="classlocomotor_1_1components_1_1types_1_1_c_mapped_string_list.html#a6ee84a38e1c5b58c08a7e9557cc959e1" target="_top" xlink:title="locomotor.components.types.\lCMappedStringList.CMappedStringList">
<polygon fill="#ffffff" stroke="#000000" points="868.252,-210.5 868.252,-238.5 1057.1182,-238.5 1057.1182,-210.5 868.252,-210.5"/>
<text text-anchor="start" x="876.252" y="-226.5" font-family="Helvetica,sans-Serif" font-size="10.00" fill="#000000">locomotor.components.types.</text>
<text text-anchor="middle" x="962.6851" y="-216.5" font-family="Helvetica,sans-Serif" font-size="10.00" fill="#000000">CMappedStringList.CMappedStringList</text>
</a>
</g>
</g>
<!-- Node15&#45;&gt;Node17 -->
<g id="edge18" class="edge">
<title>Node15&#45;&gt;Node17</title>
<path fill="none" stroke="#191970" d="M812.1968,-257.4621C836.1841,-252.2081 863.6298,-246.1965 888.4577,-240.7583"/>
<polygon fill="#191970" stroke="#191970" points="889.5354,-244.1054 898.5549,-238.5467 888.0376,-237.2675 889.5354,-244.1054"/>
</g>
<!-- Node19 -->
<g id="node19" class="node">
<title>Node19</title>
<g id="a_node19"><a xlink:href="classlocomotor_1_1components_1_1types_1_1_c_weighted_string_list.html#a97eb4ff6ea197b3a02c2db1c768c989a" target="_top" xlink:title="locomotor.components.types.\lCWeightedStringList.min">
<polygon fill="#ffffff" stroke="#000000" points="1099.0508,-148.5 1099.0508,-176.5 1245.124,-176.5 1245.124,-148.5 1099.0508,-148.5"/>
<text text-anchor="start" x="1107.0508" y="-164.5" font-family="Helvetica,sans-Serif" font-size="10.00" fill="#000000">locomotor.components.types.</text>
<text text-anchor="middle" x="1172.0874" y="-154.5" font-family="Helvetica,sans-Serif" font-size="10.00" fill="#000000">CWeightedStringList.min</text>
</a>
</g>
</g>
<!-- Node18&#45;&gt;Node19 -->
<g id="edge20" class="edge">
<title>Node18&#45;&gt;Node19</title>
<path fill="none" stroke="#191970" d="M826.4384,-162.0531C838.4552,-162.2388 850.7183,-162.3984 862.3193,-162.5 938.9859,-163.1712 1026.3298,-163.0948 1088.6826,-162.8954"/>
<polygon fill="#191970" stroke="#191970" points="1088.8696,-166.3949 1098.8577,-162.861 1088.8459,-159.3949 1088.8696,-166.3949"/>
</g>
<!-- Node20 -->
<g id="node20" class="node">
<title>Node20</title>
<g id="a_node20"><a xlink:href="classlocomotor_1_1components_1_1types_1_1_c_weighted_string_list.html#a1847175a80cbae9533f68b32190a708d" target="_top" xlink:title="locomotor.components.types.\lCWeightedStringList.max">
<polygon fill="#ffffff" stroke="#000000" points="1099.0508,-91.5 1099.0508,-119.5 1245.124,-119.5 1245.124,-91.5 1099.0508,-91.5"/>
<text text-anchor="start" x="1107.0508" y="-107.5" font-family="Helvetica,sans-Serif" font-size="10.00" fill="#000000">locomotor.components.types.</text>
<text text-anchor="middle" x="1172.0874" y="-97.5" font-family="Helvetica,sans-Serif" font-size="10.00" fill="#000000">CWeightedStringList.max</text>
</a>
</g>
</g>
<!-- Node18&#45;&gt;Node20 -->
<g id="edge21" class="edge">
<title>Node18&#45;&gt;Node20</title>
<path fill="none" stroke="#191970" d="M775.9053,-146.4215C798.5341,-135.7372 831.6389,-121.8407 862.3193,-115.5 937.8156,-99.8974 1025.8335,-98.627 1088.7099,-100.5334"/>
<polygon fill="#191970" stroke="#191970" points="1088.8584,-104.0403 1098.9707,-100.8794 1089.0944,-97.0443 1088.8584,-104.0403"/>
</g>
<!-- Node21 -->
<g id="node21" class="node">
<title>Node21</title>
<g id="a_node21"><a xlink:href="classlocomotor_1_1components_1_1types_1_1_c_weighted_string_list.html#af359d6fddb9c42710b6546ed2337eec7" target="_top" xlink:title="locomotor.components.types.\lCWeightedStringList.CWeightedStringList">
<polygon fill="#ffffff" stroke="#000000" points="862.3193,-124.5 862.3193,-152.5 1063.0508,-152.5 1063.0508,-124.5 862.3193,-124.5"/>
<text text-anchor="start" x="870.3193" y="-140.5" font-family="Helvetica,sans-Serif" font-size="10.00" fill="#000000">locomotor.components.types.</text>
<text text-anchor="middle" x="962.6851" y="-130.5" font-family="Helvetica,sans-Serif" font-size="10.00" fill="#000000">CWeightedStringList.CWeightedStringList</text>
</a>
</g>
</g>
<!-- Node18&#45;&gt;Node21 -->
<g id="edge22" class="edge">
<title>Node18&#45;&gt;Node21</title>
<path fill="none" stroke="#191970" d="M826.4854,-152.4641C834.8322,-151.6083 843.4313,-150.7267 852.0591,-149.8421"/>
<polygon fill="#191970" stroke="#191970" points="852.5965,-153.3055 862.1874,-148.8037 851.8825,-146.342 852.5965,-153.3055"/>
</g>
<!-- Node21&#45;&gt;Node19 -->
<g id="edge23" class="edge">
<title>Node21&#45;&gt;Node19</title>
<path fill="none" stroke="#191970" d="M1063.0929,-150.0079C1071.6746,-150.9915 1080.2948,-151.9795 1088.7224,-152.9454"/>
<polygon fill="#191970" stroke="#191970" points="1088.5576,-156.4493 1098.8911,-154.1108 1089.3547,-149.4948 1088.5576,-156.4493"/>
</g>
<!-- Node21&#45;&gt;Node20 -->
<g id="edge24" class="edge">
<title>Node21&#45;&gt;Node20</title>
<path fill="none" stroke="#191970" d="M1051.7941,-124.4572C1064.0563,-122.5248 1076.6104,-120.5463 1088.7631,-118.6312"/>
<polygon fill="#191970" stroke="#191970" points="1089.5286,-122.0538 1098.8618,-117.0397 1088.4389,-115.1392 1089.5286,-122.0538"/>
</g>
<!-- Node22&#45;&gt;Node22 -->
<g id="edge27" class="edge">
<title>Node22&#45;&gt;Node22</title>
<path fill="none" stroke="#191970" d="M715.6217,-71.5305C706.4778,-80.8898 717.3062,-90 748.1069,-90 767.3574,-90 778.8062,-86.4413 782.4533,-81.4873"/>
<polygon fill="#191970" stroke="#191970" points="785.87,-80.7171 780.5921,-71.5305 778.9892,-82.0033 785.87,-80.7171"/>
</g>
<!-- Node23 -->
<g id="node23" class="node">
<title>Node23</title>
<g id="a_node23"><a xlink:href="classlocomotor_1_1components_1_1types_1_1_c_tree.html#af0e7a198496b1627d0ff15ce0e6de1f2" target="_top" xlink:title="locomotor.components.types.\lCTree.CTree">
<polygon fill="#ffffff" stroke="#000000" points="1099.0508,-27.5 1099.0508,-55.5 1245.124,-55.5 1245.124,-27.5 1099.0508,-27.5"/>
<text text-anchor="start" x="1107.0508" y="-43.5" font-family="Helvetica,sans-Serif" font-size="10.00" fill="#000000">locomotor.components.types.</text>
<text text-anchor="middle" x="1172.0874" y="-33.5" font-family="Helvetica,sans-Serif" font-size="10.00" fill="#000000">CTree.CTree</text>
</a>
</g>
</g>
<!-- Node22&#45;&gt;Node23 -->
<g id="edge26" class="edge">
<title>Node22&#45;&gt;Node23</title>
<path fill="none" stroke="#191970" d="M821.4747,-54.7313C895.8733,-51.9237 1010.8362,-47.5852 1088.658,-44.6484"/>
<polygon fill="#191970" stroke="#191970" points="1089.0476,-48.1363 1098.9084,-44.2616 1088.7835,-41.1413 1089.0476,-48.1363"/>
</g>
<!-- Node24 -->
<g id="node24" class="node">
<title>Node24</title>
<g id="a_node24"><a xlink:href="classlocomotor_1_1components_1_1types_1_1_c_tree.html#a74382cb3a3153edc32f1cfed8c4ee364" target="_top" xlink:title="locomotor.components.types.\lCTree.addChild">
<polygon fill="#ffffff" stroke="#000000" points="889.6484,-.5 889.6484,-28.5 1035.7217,-28.5 1035.7217,-.5 889.6484,-.5"/>
<text text-anchor="start" x="897.6484" y="-16.5" font-family="Helvetica,sans-Serif" font-size="10.00" fill="#000000">locomotor.components.types.</text>
<text text-anchor="middle" x="962.6851" y="-6.5" font-family="Helvetica,sans-Serif" font-size="10.00" fill="#000000">CTree.addChild</text>
</a>
</g>
</g>
<!-- Node22&#45;&gt;Node24 -->
<g id="edge28" class="edge">
<title>Node22&#45;&gt;Node24</title>
<path fill="none" stroke="#191970" d="M818.0709,-43.4797C838.7646,-39.3328 861.5747,-34.7618 882.8422,-30.5"/>
<polygon fill="#191970" stroke="#191970" points="883.6988,-33.898 892.8161,-28.5013 882.3233,-27.0344 883.6988,-33.898"/>
</g>
<!-- Node24&#45;&gt;Node23 -->
<g id="edge29" class="edge">
<title>Node24&#45;&gt;Node23</title>
<path fill="none" stroke="#191970" d="M1035.9238,-23.9433C1052.9801,-26.1425 1071.2643,-28.5 1088.7221,-30.751"/>
<polygon fill="#191970" stroke="#191970" points="1088.5245,-34.2544 1098.89,-32.062 1089.4197,-27.3119 1088.5245,-34.2544"/>
</g>
</g>
</svg>
