<?xml version="1.0" encoding="UTF-8" standalone="no"?>
<!DOCTYPE svg PUBLIC "-//W3C//DTD SVG 1.1//EN"
 "http://www.w3.org/Graphics/SVG/1.1/DTD/svg11.dtd">
<!-- Generated by graphviz version 2.40.1 (20161225.0304)
 -->
<!-- Title: getUniverse Pages: 1 -->
<svg width="815pt" height="64pt"
 viewBox="0.00 0.00 815.07 64.00" xmlns="http://www.w3.org/2000/svg" xmlns:xlink="http://www.w3.org/1999/xlink">
<g id="graph0" class="graph" transform="scale(1 1) rotate(0) translate(4 60)">
<title>getUniverse</title>
<polygon fill="#ffffff" stroke="transparent" points="-4,4 -4,-60 811.0664,-60 811.0664,4 -4,4"/>
<!-- Node1 -->
<g id="node1" class="node">
<title>Node1</title>
<polygon fill="#bfbfbf" stroke="#000000" points="0,-18.5 0,-36.5 69.3594,-36.5 69.3594,-18.5 0,-18.5"/>
<text text-anchor="middle" x="34.6797" y="-24.5" font-family="Helvetica,sans-Serif" font-size="10.00" fill="#000000">getUniverse</text>
</g>
<!-- Node2 -->
<g id="node2" class="node">
<title>Node2</title>
<g id="a_node2"><a xlink:href="classlocomotor_1_1core_1_1_d_b_h.html#ad067053be75a3170dc9c2ce7b922e176" target="_top" xlink:title="locomotor.core.DBH.checking\lParsingItem">
<polygon fill="#ffffff" stroke="#000000" points="105.3594,-13.5 105.3594,-41.5 253.0879,-41.5 253.0879,-13.5 105.3594,-13.5"/>
<text text-anchor="start" x="113.3594" y="-29.5" font-family="Helvetica,sans-Serif" font-size="10.00" fill="#000000">locomotor.core.DBH.checking</text>
<text text-anchor="middle" x="179.2236" y="-19.5" font-family="Helvetica,sans-Serif" font-size="10.00" fill="#000000">ParsingItem</text>
</a>
</g>
</g>
<!-- Node1&#45;&gt;Node2 -->
<g id="edge1" class="edge">
<title>Node1&#45;&gt;Node2</title>
<path fill="none" stroke="#191970" d="M79.9048,-27.5C87.9507,-27.5 96.5192,-27.5 105.1223,-27.5"/>
<polygon fill="#191970" stroke="#191970" points="79.6698,-24.0001 69.6697,-27.5 79.6697,-31.0001 79.6698,-24.0001"/>
</g>
<!-- Node3 -->
<g id="node3" class="node">
<title>Node3</title>
<g id="a_node3"><a xlink:href="classlocomotor_1_1core_1_1_d_b_h.html#ae26eef1ee7482f2e0167c6a18924d214" target="_top" xlink:title="locomotor.core.DBH.addItem">
<polygon fill="#ffffff" stroke="#000000" points="296.0386,-37.5 296.0386,-55.5 440.4321,-55.5 440.4321,-37.5 296.0386,-37.5"/>
<text text-anchor="middle" x="368.2354" y="-43.5" font-family="Helvetica,sans-Serif" font-size="10.00" fill="#000000">locomotor.core.DBH.addItem</text>
</a>
</g>
</g>
<!-- Node2&#45;&gt;Node3 -->
<g id="edge2" class="edge">
<title>Node2&#45;&gt;Node3</title>
<path fill="none" stroke="#191970" d="M263.1022,-35.9317C274.0575,-37.033 285.2057,-38.1536 295.948,-39.2335"/>
<polygon fill="#191970" stroke="#191970" points="263.4125,-32.4454 253.1126,-34.9275 262.7123,-39.4103 263.4125,-32.4454"/>
</g>
<!-- Node6 -->
<g id="node6" class="node">
<title>Node6</title>
<g id="a_node6"><a xlink:href="classlocomotor_1_1core_1_1_d_b_h.html#aa0e39c547d06fd9d0ad2de70251c9cc0" target="_top" xlink:title="locomotor.core.DBH.updateItem">
<polygon fill="#ffffff" stroke="#000000" points="289.0879,-.5 289.0879,-18.5 447.3828,-18.5 447.3828,-.5 289.0879,-.5"/>
<text text-anchor="middle" x="368.2354" y="-6.5" font-family="Helvetica,sans-Serif" font-size="10.00" fill="#000000">locomotor.core.DBH.updateItem</text>
</a>
</g>
</g>
<!-- Node2&#45;&gt;Node6 -->
<g id="edge5" class="edge">
<title>Node2&#45;&gt;Node6</title>
<path fill="none" stroke="#191970" d="M263.0726,-19.5149C271.6176,-18.7011 280.2803,-17.8762 288.7765,-17.067"/>
<polygon fill="#191970" stroke="#191970" points="262.7357,-16.031 253.1126,-20.4634 263.3994,-22.9995 262.7357,-16.031"/>
</g>
<!-- Node4 -->
<g id="node4" class="node">
<title>Node4</title>
<g id="a_node4"><a xlink:href="classlocomotor_1_1components_1_1network_1_1_a_p_i.html#a547463fbc7fb7b485886f0917e2c0b78" target="_top" xlink:title="locomotor.components.network.\lAPI.createHooks">
<polygon fill="#ffffff" stroke="#000000" points="483.3828,-13.5 483.3828,-41.5 640.5693,-41.5 640.5693,-13.5 483.3828,-13.5"/>
<text text-anchor="start" x="491.3828" y="-29.5" font-family="Helvetica,sans-Serif" font-size="10.00" fill="#000000">locomotor.components.network.</text>
<text text-anchor="middle" x="561.9761" y="-19.5" font-family="Helvetica,sans-Serif" font-size="10.00" fill="#000000">API.createHooks</text>
</a>
</g>
</g>
<!-- Node3&#45;&gt;Node4 -->
<g id="edge3" class="edge">
<title>Node3&#45;&gt;Node4</title>
<path fill="none" stroke="#191970" d="M450.8346,-38.3996C461.5489,-37.3488 472.5013,-36.2747 483.1519,-35.2302"/>
<polygon fill="#191970" stroke="#191970" points="450.2634,-34.9387 440.6528,-39.3981 450.9466,-41.9053 450.2634,-34.9387"/>
</g>
<!-- Node5 -->
<g id="node5" class="node">
<title>Node5</title>
<g id="a_node5"><a xlink:href="classlocomotor_1_1core_1_1_main.html#a8b260eecbaabcef8473fd87ada040682" target="_top" xlink:title="locomotor.core.Main.main">
<polygon fill="#ffffff" stroke="#000000" points="676.5693,-18.5 676.5693,-36.5 807.0664,-36.5 807.0664,-18.5 676.5693,-18.5"/>
<text text-anchor="middle" x="741.8179" y="-24.5" font-family="Helvetica,sans-Serif" font-size="10.00" fill="#000000">locomotor.core.Main.main</text>
</a>
</g>
</g>
<!-- Node4&#45;&gt;Node5 -->
<g id="edge4" class="edge">
<title>Node4&#45;&gt;Node5</title>
<path fill="none" stroke="#191970" d="M650.7691,-27.5C659.4574,-27.5 668.1597,-27.5 676.5516,-27.5"/>
<polygon fill="#191970" stroke="#191970" points="650.5957,-24.0001 640.5957,-27.5 650.5956,-31.0001 650.5957,-24.0001"/>
</g>
<!-- Node6&#45;&gt;Node4 -->
<g id="edge6" class="edge">
<title>Node6&#45;&gt;Node4</title>
<path fill="none" stroke="#191970" d="M457.6285,-17.8053C466.2193,-18.6035 474.889,-19.4089 483.3652,-20.1965"/>
<polygon fill="#191970" stroke="#191970" points="457.8771,-14.3134 447.5961,-16.8732 457.2294,-21.2834 457.8771,-14.3134"/>
</g>
</g>
</svg>
