<?xml version="1.0" encoding="UTF-8" standalone="no"?>
<!DOCTYPE svg PUBLIC "-//W3C//DTD SVG 1.1//EN"
 "http://www.w3.org/Graphics/SVG/1.1/DTD/svg11.dtd">
<!-- Generated by graphviz version 2.40.1 (20161225.0304)
 -->
<!-- Title: CWeightedInteger Pages: 1 -->
<svg width="376pt" height="257pt"
 viewBox="0.00 0.00 375.55 257.00" xmlns="http://www.w3.org/2000/svg" xmlns:xlink="http://www.w3.org/1999/xlink">
<g id="graph0" class="graph" transform="scale(1 1) rotate(0) translate(4 253)">
<title>CWeightedInteger</title>
<polygon fill="#ffffff" stroke="transparent" points="-4,4 -4,-253 371.5532,-253 371.5532,4 -4,4"/>
<!-- Node1 -->
<g id="node1" class="node">
<title>Node1</title>
<polygon fill="#bfbfbf" stroke="#000000" points="177.4771,-.5 177.4771,-18.5 273.9019,-18.5 273.9019,-.5 177.4771,-.5"/>
<text text-anchor="middle" x="225.6895" y="-6.5" font-family="Helvetica,sans-Serif" font-size="10.00" fill="#000000">CWeightedInteger</text>
</g>
<!-- Node2 -->
<g id="node2" class="node">
<title>Node2</title>
<g id="a_node2"><a xlink:href="classlocomotor_1_1components_1_1types_1_1_c_long.html" target="_top" xlink:title="CLong">
<polygon fill="#ffffff" stroke="#000000" points="141.9556,-60.5 141.9556,-78.5 187.4233,-78.5 187.4233,-60.5 141.9556,-60.5"/>
<text text-anchor="middle" x="164.6895" y="-66.5" font-family="Helvetica,sans-Serif" font-size="10.00" fill="#000000">CLong</text>
</a>
</g>
</g>
<!-- Node2&#45;&gt;Node1 -->
<g id="edge1" class="edge">
<title>Node2&#45;&gt;Node1</title>
<path fill="none" stroke="#191970" d="M181.137,-53.3221C192.4212,-42.2229 206.9896,-27.8933 216.3377,-18.6985"/>
<polygon fill="#191970" stroke="#191970" points="178.629,-50.8796 173.954,-60.3873 183.5377,-55.8701 178.629,-50.8796"/>
</g>
<!-- Node3 -->
<g id="node3" class="node">
<title>Node3</title>
<g id="a_node3"><a xlink:href="interfacelocomotor_1_1components_1_1types_1_1_c_item_type.html" target="_top" xlink:title="CItemType">
<polygon fill="#ffffff" stroke="#000000" points="132.5122,-120.5 132.5122,-138.5 196.8667,-138.5 196.8667,-120.5 132.5122,-120.5"/>
<text text-anchor="middle" x="164.6895" y="-126.5" font-family="Helvetica,sans-Serif" font-size="10.00" fill="#000000">CItemType</text>
</a>
</g>
</g>
<!-- Node3&#45;&gt;Node2 -->
<g id="edge2" class="edge">
<title>Node3&#45;&gt;Node2</title>
<path fill="none" stroke="#191970" d="M164.6895,-110.3734C164.6895,-99.7812 164.6895,-87.0976 164.6895,-78.6985"/>
<polygon fill="#191970" stroke="#191970" points="161.1896,-110.3873 164.6895,-120.3873 168.1896,-110.3873 161.1896,-110.3873"/>
</g>
<!-- Node4 -->
<g id="node4" class="node">
<title>Node4</title>
<g id="a_node4"><a xlink:href="interfacelocomotor_1_1components_1_1types_1_1_c_comparable_type.html" target="_top" xlink:title="CComparableType">
<polygon fill="#ffffff" stroke="#000000" points="0,-175.5 0,-193.5 99.3789,-193.5 99.3789,-175.5 0,-175.5"/>
<text text-anchor="middle" x="49.6895" y="-181.5" font-family="Helvetica,sans-Serif" font-size="10.00" fill="#000000">CComparableType</text>
</a>
</g>
</g>
<!-- Node4&#45;&gt;Node3 -->
<g id="edge3" class="edge">
<title>Node4&#45;&gt;Node3</title>
<path fill="none" stroke="#191970" d="M77.7989,-171.0563C98.8851,-160.9716 127.1836,-147.4376 145.6713,-138.5956"/>
<polygon fill="#191970" stroke="#191970" points="76.1906,-167.9458 68.6794,-175.4179 79.2108,-174.2607 76.1906,-167.9458"/>
</g>
<!-- Node5 -->
<g id="node5" class="node">
<title>Node5</title>
<g id="a_node5"><a xlink:href="interfacelocomotor_1_1components_1_1types_1_1_c_type.html" target="_top" xlink:title="CType">
<polygon fill="#ffffff" stroke="#000000" points="27.2363,-230.5 27.2363,-248.5 72.1426,-248.5 72.1426,-230.5 27.2363,-230.5"/>
<text text-anchor="middle" x="49.6895" y="-236.5" font-family="Helvetica,sans-Serif" font-size="10.00" fill="#000000">CType</text>
</a>
</g>
</g>
<!-- Node5&#45;&gt;Node4 -->
<g id="edge4" class="edge">
<title>Node5&#45;&gt;Node4</title>
<path fill="none" stroke="#191970" d="M49.6895,-220.383C49.6895,-211.3738 49.6895,-201.0373 49.6895,-193.7795"/>
<polygon fill="#191970" stroke="#191970" points="46.1896,-220.4178 49.6895,-230.4179 53.1896,-220.4179 46.1896,-220.4178"/>
</g>
<!-- Node6 -->
<g id="node6" class="node">
<title>Node6</title>
<g id="a_node6"><a xlink:href="interfacelocomotor_1_1components_1_1_j_s_o_n_displayable.html" target="_top" xlink:title="JSONDisplayable">
<polygon fill="#ffffff" stroke="#000000" points="117.5073,-175.5 117.5073,-193.5 211.8716,-193.5 211.8716,-175.5 117.5073,-175.5"/>
<text text-anchor="middle" x="164.6895" y="-181.5" font-family="Helvetica,sans-Serif" font-size="10.00" fill="#000000">JSONDisplayable</text>
</a>
</g>
</g>
<!-- Node6&#45;&gt;Node3 -->
<g id="edge5" class="edge">
<title>Node6&#45;&gt;Node3</title>
<path fill="none" stroke="#191970" d="M164.6895,-165.383C164.6895,-156.3738 164.6895,-146.0373 164.6895,-138.7795"/>
<polygon fill="#191970" stroke="#191970" points="161.1896,-165.4178 164.6895,-175.4179 168.1896,-165.4179 161.1896,-165.4178"/>
</g>
<!-- Node7 -->
<g id="node7" class="node">
<title>Node7</title>
<g id="a_node7"><a xlink:href="interfacelocomotor_1_1components_1_1_j_s_o_n_convertissable.html" target="_top" xlink:title="JSONConvertissable">
<polygon fill="#ffffff" stroke="#000000" points="230.2832,-175.5 230.2832,-193.5 339.0957,-193.5 339.0957,-175.5 230.2832,-175.5"/>
<text text-anchor="middle" x="284.6895" y="-181.5" font-family="Helvetica,sans-Serif" font-size="10.00" fill="#000000">JSONConvertissable</text>
</a>
</g>
</g>
<!-- Node7&#45;&gt;Node3 -->
<g id="edge6" class="edge">
<title>Node7&#45;&gt;Node3</title>
<path fill="none" stroke="#191970" d="M255.6547,-171.1924C233.6211,-161.0937 203.9129,-147.4774 184.5345,-138.5956"/>
<polygon fill="#191970" stroke="#191970" points="254.3249,-174.433 264.8739,-175.4179 257.2415,-168.0695 254.3249,-174.433"/>
</g>
<!-- Node8 -->
<g id="node8" class="node">
<title>Node8</title>
<g id="a_node8"><a xlink:href="interfacelocomotor_1_1components_1_1types_1_1_c_comparable.html" target="_top" xlink:title="CComparable\&lt; CWeightedString\lList, CWeightedStringList \&gt;">
<polygon fill="#ffffff" stroke="#000000" points="205.8257,-55.5 205.8257,-83.5 367.5532,-83.5 367.5532,-55.5 205.8257,-55.5"/>
<text text-anchor="start" x="213.8257" y="-71.5" font-family="Helvetica,sans-Serif" font-size="10.00" fill="#000000">CComparable&lt; CWeightedString</text>
<text text-anchor="middle" x="286.6895" y="-61.5" font-family="Helvetica,sans-Serif" font-size="10.00" fill="#000000">List, CWeightedStringList &gt;</text>
</a>
</g>
</g>
<!-- Node8&#45;&gt;Node1 -->
<g id="edge7" class="edge">
<title>Node8&#45;&gt;Node1</title>
<path fill="none" stroke="#191970" d="M265.047,-48.2123C254.7124,-38.0471 242.8921,-26.4206 234.925,-18.5842"/>
<polygon fill="#191970" stroke="#191970" points="262.6497,-50.7637 272.2333,-55.2808 267.5584,-45.7732 262.6497,-50.7637"/>
</g>
</g>
</svg>
