<?xml version="1.0" encoding="UTF-8" standalone="no"?>
<!DOCTYPE svg PUBLIC "-//W3C//DTD SVG 1.1//EN"
 "http://www.w3.org/Graphics/SVG/1.1/DTD/svg11.dtd">
<!-- Generated by graphviz version 2.40.1 (20161225.0304)
 -->
<!-- Title: removeUniverse Pages: 1 -->
<!--zoomable 160 -->
<svg id="main" version="1.1" xmlns="http://www.w3.org/2000/svg" xmlns:xlink="http://www.w3.org/1999/xlink" xml:space="preserve" onload="init(evt)">
<style type="text/css"><![CDATA[
.edge:hover path { stroke: red; }
.edge:hover polygon { stroke: red; fill: red; }
]]></style>
<script type="text/javascript"><![CDATA[
var edges = document.getElementsByTagName('g');
if (edges && edges.length) {
  for (var i=0;i<edges.length;i++) {
    if (edges[i].id.substr(0,4)=='edge') {
      edges[i].setAttribute('class','edge');
    }
  }
}
]]></script>
        <defs>
                <circle id="rim" cx="0" cy="0" r="7"/>
                <circle id="rim2" cx="0" cy="0" r="3.5"/>
                <g id="zoomPlus">
                        <use xlink:href="#rim" fill="#404040">
                                <set attributeName="fill" to="#808080" begin="zoomplus.mouseover" end="zoomplus.mouseout"/>
                        </use>
                        <path d="M-4,0h8M0,-4v8" fill="none" stroke="white" stroke-width="1.5" pointer-events="none"/>
                </g>
                <g id="zoomMin">
                        <use xlink:href="#rim" fill="#404040">
                                <set attributeName="fill" to="#808080" begin="zoomminus.mouseover" end="zoomminus.mouseout"/>
                        </use>
                        <path d="M-4,0h8" fill="none" stroke="white" stroke-width="1.5" pointer-events="none"/>
                </g>
                <g id="dirArrow">
                        <path fill="none" stroke="white" stroke-width="1.5" d="M0,-3.0v7 M-2.5,-0.5L0,-3.0L2.5,-0.5"/>
                </g>
               <g id="resetDef">
                       <use xlink:href="#rim2" fill="#404040">
                               <set attributeName="fill" to="#808080" begin="reset.mouseover" end="reset.mouseout"/>
                       </use>
               </g>
        </defs>

<script type="text/javascript">
var viewWidth = 551;
var viewHeight = 160;
var sectionId = 'dynsection-54';
</script>
<script xlink:href="svgpan.js"/>
<svg id="graph" class="graph">
<g id="viewport">
<title>removeUniverse</title>
<polygon fill="#ffffff" stroke="transparent" points="-4,4 -4,-156 546.7617,-156 546.7617,4 -4,4"/>
<!-- Node1 -->
<g id="node1" class="node">
<title>Node1</title>
<polygon fill="#bfbfbf" stroke="#000000" points="0,-59.5 0,-77.5 88.8027,-77.5 88.8027,-59.5 0,-59.5"/>
<text text-anchor="middle" x="44.4014" y="-65.5" font-family="Helvetica,sans-Serif" font-size="10.00" fill="#000000">removeUniverse</text>
</g>
<!-- Node2 -->
<g id="node2" class="node">
<title>Node2</title>
<g id="a_node2"><a xlink:href="classlocomotor_1_1components_1_1logging_1_1_error_handler.html#a75e8f6535bdb8db9a7d570e1b839af47" target="_top" xlink:title="locomotor.components.logging.\lErrorHandler.getInstance">
<polygon fill="#ffffff" stroke="#000000" points="124.8027,-123.5 124.8027,-151.5 279.2256,-151.5 279.2256,-123.5 124.8027,-123.5"/>
<text text-anchor="start" x="132.8027" y="-139.5" font-family="Helvetica,sans-Serif" font-size="10.00" fill="#000000">locomotor.components.logging.</text>
<text text-anchor="middle" x="202.0142" y="-129.5" font-family="Helvetica,sans-Serif" font-size="10.00" fill="#000000">ErrorHandler.getInstance</text>
</a>
</g>
</g>
<!-- Node1&#45;&gt;Node2 -->
<g id="edge1" class="edge">
<title>Node1&#45;&gt;Node2</title>
<path fill="none" stroke="#191970" d="M58.1269,-77.6622C73.7414,-87.7695 100.2625,-103.9914 124.8027,-114.5 129.4254,-116.4795 134.2726,-118.3567 139.19,-120.1212"/>
<polygon fill="#191970" stroke="#191970" points="138.098,-123.4467 148.6926,-123.3729 140.3644,-116.8237 138.098,-123.4467"/>
</g>
<!-- Node3 -->
<g id="node3" class="node">
<title>Node3</title>
<g id="a_node3"><a xlink:href="classlocomotor_1_1components_1_1logging_1_1_error_handler.html#abd00a9c37627740763cef91d76a77437" target="_top" xlink:title="locomotor.components.logging.\lErrorHandler.push">
<polygon fill="#ffffff" stroke="#000000" points="124.8027,-76.5 124.8027,-104.5 279.2256,-104.5 279.2256,-76.5 124.8027,-76.5"/>
<text text-anchor="start" x="132.8027" y="-92.5" font-family="Helvetica,sans-Serif" font-size="10.00" fill="#000000">locomotor.components.logging.</text>
<text text-anchor="middle" x="202.0142" y="-82.5" font-family="Helvetica,sans-Serif" font-size="10.00" fill="#000000">ErrorHandler.push</text>
</a>
</g>
</g>
<!-- Node1&#45;&gt;Node3 -->
<g id="edge2" class="edge">
<title>Node1&#45;&gt;Node3</title>
<path fill="none" stroke="#191970" d="M89.1453,-74.7455C97.2125,-75.8715 105.8694,-77.0799 114.67,-78.3083"/>
<polygon fill="#191970" stroke="#191970" points="114.2556,-81.7843 124.6435,-79.7004 115.2234,-74.8515 114.2556,-81.7843"/>
</g>
<!-- Node5 -->
<g id="node5" class="node">
<title>Node5</title>
<g id="a_node5"><a xlink:href="classlocomotor_1_1core_1_1_d_b_h.html#a0b2d292079fe232a4c3dae4636167641" target="_top" xlink:title="getInstance">
<polygon fill="#ffffff" stroke="#000000" points="358.585,-38.5 358.585,-56.5 426.2891,-56.5 426.2891,-38.5 358.585,-38.5"/>
<text text-anchor="middle" x="392.437" y="-44.5" font-family="Helvetica,sans-Serif" font-size="10.00" fill="#000000">getInstance</text>
</a>
</g>
</g>
<!-- Node1&#45;&gt;Node5 -->
<g id="edge4" class="edge">
<title>Node1&#45;&gt;Node5</title>
<path fill="none" stroke="#191970" d="M88.8338,-65.819C155.6299,-61.7886 281.1925,-54.2123 347.9945,-50.1816"/>
<polygon fill="#191970" stroke="#191970" points="348.4223,-53.6622 358.1933,-49.5662 348.0006,-46.675 348.4223,-53.6622"/>
</g>
<!-- Node7 -->
<g id="node7" class="node">
<title>Node7</title>
<g id="a_node7"><a xlink:href="classlocomotor_1_1core_1_1_d_b_h.html#a97b6d481686edd4c5a932108475e5e1c" target="_top" xlink:title="deleteItemWith">
<polygon fill="#ffffff" stroke="#000000" points="160.667,-.5 160.667,-18.5 243.3613,-18.5 243.3613,-.5 160.667,-.5"/>
<text text-anchor="middle" x="202.0142" y="-6.5" font-family="Helvetica,sans-Serif" font-size="10.00" fill="#000000">deleteItemWith</text>
</a>
</g>
</g>
<!-- Node1&#45;&gt;Node7 -->
<g id="edge6" class="edge">
<title>Node1&#45;&gt;Node7</title>
<path fill="none" stroke="#191970" d="M63.6547,-59.4111C79.7927,-51.9649 103.5413,-41.4052 124.8027,-33.5 136.2003,-29.2623 148.7252,-25.1444 160.3095,-21.5506"/>
<polygon fill="#191970" stroke="#191970" points="161.6504,-24.8009 170.1955,-18.5374 159.6095,-18.105 161.6504,-24.8009"/>
</g>
<!-- Node4 -->
<g id="node4" class="node">
<title>Node4</title>
<g id="a_node4"><a xlink:href="classlocomotor_1_1components_1_1logging_1_1_error_context.html#afcf30b71bfc65c74878c7ab77c951842" target="_top" xlink:title="locomotor.components.logging.\lErrorContext.push">
<polygon fill="#ffffff" stroke="#000000" points="315.2256,-76.5 315.2256,-104.5 469.6484,-104.5 469.6484,-76.5 315.2256,-76.5"/>
<text text-anchor="start" x="323.2256" y="-92.5" font-family="Helvetica,sans-Serif" font-size="10.00" fill="#000000">locomotor.components.logging.</text>
<text text-anchor="middle" x="392.437" y="-82.5" font-family="Helvetica,sans-Serif" font-size="10.00" fill="#000000">ErrorContext.push</text>
</a>
</g>
</g>
<!-- Node3&#45;&gt;Node4 -->
<g id="edge3" class="edge">
<title>Node3&#45;&gt;Node4</title>
<path fill="none" stroke="#191970" d="M279.4664,-90.5C287.8117,-90.5 296.3456,-90.5 304.7994,-90.5"/>
<polygon fill="#191970" stroke="#191970" points="305.0534,-94.0001 315.0534,-90.5 305.0534,-87.0001 305.0534,-94.0001"/>
</g>
<!-- Node6 -->
<g id="node6" class="node">
<title>Node6</title>
<g id="a_node6"><a xlink:href="classlocomotor_1_1core_1_1_d_b_h.html#a2d5f1f766f5863a46ed29b7e56118364" target="_top" xlink:title="DBH">
<polygon fill="#ffffff" stroke="#000000" points="505.6484,-38.5 505.6484,-56.5 542.7617,-56.5 542.7617,-38.5 505.6484,-38.5"/>
<text text-anchor="middle" x="524.2051" y="-44.5" font-family="Helvetica,sans-Serif" font-size="10.00" fill="#000000">DBH</text>
</a>
</g>
</g>
<!-- Node5&#45;&gt;Node6 -->
<g id="edge5" class="edge">
<title>Node5&#45;&gt;Node6</title>
<path fill="none" stroke="#191970" d="M426.3706,-47.5C447.7008,-47.5 474.9263,-47.5 495.2387,-47.5"/>
<polygon fill="#191970" stroke="#191970" points="495.4462,-51.0001 505.4462,-47.5 495.4462,-44.0001 495.4462,-51.0001"/>
</g>
<!-- Node7&#45;&gt;Node5 -->
<g id="edge7" class="edge">
<title>Node7&#45;&gt;Node5</title>
<path fill="none" stroke="#191970" d="M243.8033,-17.8393C274.8231,-24.0294 317.0285,-32.4518 348.54,-38.7401"/>
<polygon fill="#191970" stroke="#191970" points="347.8759,-42.1765 358.3675,-40.7012 349.2458,-35.3118 347.8759,-42.1765"/>
</g>
<!-- Node8 -->
<g id="node8" class="node">
<title>Node8</title>
<g id="a_node8"><a xlink:href="classlocomotor_1_1core_1_1_d_b_h.html#ae57fb51ee28914968135398ce849d8e1" target="_top" xlink:title="deleteBookingWith">
<polygon fill="#ffffff" stroke="#000000" points="342.7451,-.5 342.7451,-18.5 442.1289,-18.5 442.1289,-.5 342.7451,-.5"/>
<text text-anchor="middle" x="392.437" y="-6.5" font-family="Helvetica,sans-Serif" font-size="10.00" fill="#000000">deleteBookingWith</text>
</a>
</g>
</g>
<!-- Node7&#45;&gt;Node8 -->
<g id="edge8" class="edge">
<title>Node7&#45;&gt;Node8</title>
<path fill="none" stroke="#191970" d="M243.8033,-9.5C269.7399,-9.5 303.4966,-9.5 332.2836,-9.5"/>
<polygon fill="#191970" stroke="#191970" points="332.6408,-13.0001 342.6408,-9.5 332.6408,-6.0001 332.6408,-13.0001"/>
</g>
</g>
</svg>
        <g id="navigator" transform="translate(0 0)" fill="#404254">
                <rect fill="#f2f5e9" fill-opacity="0.5" stroke="#606060" stroke-width=".5" x="0" y="0" width="60" height="60"/>
                <use id="zoomplus" xlink:href="#zoomPlus" x="17" y="9" onmousedown="handleZoom(evt,'in')"/>
                <use id="zoomminus" xlink:href="#zoomMin" x="42" y="9" onmousedown="handleZoom(evt,'out')"/>
                <use id="reset" xlink:href="#resetDef" x="30" y="36" onmousedown="handleReset()"/>
                <g id="arrowUp" xlink:href="#dirArrow" transform="translate(30 24)" onmousedown="handlePan(0,-1)">
                  <use xlink:href="#rim" fill="#404040">
                        <set attributeName="fill" to="#808080" begin="arrowUp.mouseover" end="arrowUp.mouseout"/>
                  </use>
                  <path fill="none" stroke="white" stroke-width="1.5" d="M0,-3.0v7 M-2.5,-0.5L0,-3.0L2.5,-0.5"/>
                </g>
                <g id="arrowRight" xlink:href="#dirArrow" transform="rotate(90) translate(36 -43)" onmousedown="handlePan(1,0)">
                  <use xlink:href="#rim" fill="#404040">
                        <set attributeName="fill" to="#808080" begin="arrowRight.mouseover" end="arrowRight.mouseout"/>
                  </use>
                  <path fill="none" stroke="white" stroke-width="1.5" d="M0,-3.0v7 M-2.5,-0.5L0,-3.0L2.5,-0.5"/>
                </g>
                <g id="arrowDown" xlink:href="#dirArrow" transform="rotate(180) translate(-30 -48)" onmousedown="handlePan(0,1)">
                  <use xlink:href="#rim" fill="#404040">
                        <set attributeName="fill" to="#808080" begin="arrowDown.mouseover" end="arrowDown.mouseout"/>
                  </use>
                  <path fill="none" stroke="white" stroke-width="1.5" d="M0,-3.0v7 M-2.5,-0.5L0,-3.0L2.5,-0.5"/>
                </g>
                <g id="arrowLeft" xlink:href="#dirArrow" transform="rotate(270) translate(-36 17)" onmousedown="handlePan(-1,0)">
                  <use xlink:href="#rim" fill="#404040">
                        <set attributeName="fill" to="#808080" begin="arrowLeft.mouseover" end="arrowLeft.mouseout"/>
                  </use>
                  <path fill="none" stroke="white" stroke-width="1.5" d="M0,-3.0v7 M-2.5,-0.5L0,-3.0L2.5,-0.5"/>
                </g>
        </g>
        <svg viewBox="0 0 15 15" width="100%" height="30px" preserveAspectRatio="xMaxYMin meet">
         <g id="arrow_out" transform="scale(0.3 0.3)">
          <a xlink:href="classlocomotor_1_1core_1_1_d_b_h_a46cbafb4c7422171cf07c3d0521d3f47_cgraph_org.svg" target="_base">
           <rect id="button" ry="5" rx="5" y="6" x="6" height="38" width="38"
                fill="#f2f5e9" fill-opacity="0.5" stroke="#606060" stroke-width="1.0"/>
           <path id="arrow"
             d="M 11.500037,31.436501 C 11.940474,20.09759 22.043105,11.32322 32.158766,21.979434 L 37.068811,17.246167 C 37.068811,17.246167 37.088388,32 37.088388,32 L 22.160133,31.978069 C 22.160133,31.978069 26.997745,27.140456 26.997745,27.140456 C 18.528582,18.264221 13.291696,25.230495 11.500037,31.436501 z"
             style="fill:#404040;"/>
          </a>
         </g>
        </svg>
</svg>
