<?xml version="1.0" encoding="UTF-8" standalone="no"?>
<!DOCTYPE svg PUBLIC "-//W3C//DTD SVG 1.1//EN"
 "http://www.w3.org/Graphics/SVG/1.1/DTD/svg11.dtd">
<!-- Generated by graphviz version 2.40.1 (20161225.0304)
 -->
<!-- Title: compare Pages: 1 -->
<svg width="652pt" height="84pt"
 viewBox="0.00 0.00 651.93 84.00" xmlns="http://www.w3.org/2000/svg" xmlns:xlink="http://www.w3.org/1999/xlink">
<g id="graph0" class="graph" transform="scale(1 1) rotate(0) translate(4 80)">
<title>compare</title>
<polygon fill="#ffffff" stroke="transparent" points="-4,4 -4,-80 647.9287,-80 647.9287,4 -4,4"/>
<!-- Node1 -->
<g id="node1" class="node">
<title>Node1</title>
<polygon fill="#bfbfbf" stroke="#000000" points="0,-28.5 0,-46.5 54.9063,-46.5 54.9063,-28.5 0,-28.5"/>
<text text-anchor="middle" x="27.4531" y="-34.5" font-family="Helvetica,sans-Serif" font-size="10.00" fill="#000000">compare</text>
</g>
<!-- Node2 -->
<g id="node2" class="node">
<title>Node2</title>
<g id="a_node2"><a xlink:href="classlocomotor_1_1components_1_1types_1_1_c_set_graph.html#ad2c8768ec5b11a8e7e13195ef5f1ba2f" target="_top" xlink:title="locomotor.components.types.\lCSetGraph.compare">
<polygon fill="#ffffff" stroke="#000000" points="90.9063,-23.5 90.9063,-51.5 236.9795,-51.5 236.9795,-23.5 90.9063,-23.5"/>
<text text-anchor="start" x="98.9063" y="-39.5" font-family="Helvetica,sans-Serif" font-size="10.00" fill="#000000">locomotor.components.types.</text>
<text text-anchor="middle" x="163.9429" y="-29.5" font-family="Helvetica,sans-Serif" font-size="10.00" fill="#000000">CSetGraph.compare</text>
</a>
</g>
</g>
<!-- Node1&#45;&gt;Node2 -->
<g id="edge1" class="edge">
<title>Node1&#45;&gt;Node2</title>
<path fill="none" stroke="#191970" d="M55.0739,-37.5C62.7965,-37.5 71.6104,-37.5 80.8033,-37.5"/>
<polygon fill="#191970" stroke="#191970" points="80.8937,-41.0001 90.8937,-37.5 80.8937,-34.0001 80.8937,-41.0001"/>
</g>
<!-- Node3 -->
<g id="node3" class="node">
<title>Node3</title>
<g id="a_node3"><a xlink:href="classlocomotor_1_1components_1_1_compare.html#ac5771638a144db6c7e42db1c36288d48" target="_top" xlink:title="locomotor.components.Compare.graph\lValue">
<polygon fill="#ffffff" stroke="#000000" points="272.9795,-23.5 272.9795,-51.5 461.8555,-51.5 461.8555,-23.5 272.9795,-23.5"/>
<text text-anchor="start" x="280.9795" y="-39.5" font-family="Helvetica,sans-Serif" font-size="10.00" fill="#000000">locomotor.components.Compare.graph</text>
<text text-anchor="middle" x="367.4175" y="-29.5" font-family="Helvetica,sans-Serif" font-size="10.00" fill="#000000">Value</text>
</a>
</g>
</g>
<!-- Node2&#45;&gt;Node3 -->
<g id="edge2" class="edge">
<title>Node2&#45;&gt;Node3</title>
<path fill="none" stroke="#191970" d="M237.1144,-37.5C245.4672,-37.5 254.0995,-37.5 262.7601,-37.5"/>
<polygon fill="#191970" stroke="#191970" points="262.9248,-41.0001 272.9248,-37.5 262.9247,-34.0001 262.9248,-41.0001"/>
</g>
<!-- Node4 -->
<g id="node4" class="node">
<title>Node4</title>
<g id="a_node4"><a xlink:href="classlocomotor_1_1components_1_1types_1_1_c_set_graph.html#a4687a55c850a2425f7c0a45169e8d688" target="_top" xlink:title="locomotor.components.types.\lCSetGraph.getDiameter">
<polygon fill="#ffffff" stroke="#000000" points="497.8555,-47.5 497.8555,-75.5 643.9287,-75.5 643.9287,-47.5 497.8555,-47.5"/>
<text text-anchor="start" x="505.8555" y="-63.5" font-family="Helvetica,sans-Serif" font-size="10.00" fill="#000000">locomotor.components.types.</text>
<text text-anchor="middle" x="570.8921" y="-53.5" font-family="Helvetica,sans-Serif" font-size="10.00" fill="#000000">CSetGraph.getDiameter</text>
</a>
</g>
</g>
<!-- Node3&#45;&gt;Node4 -->
<g id="edge3" class="edge">
<title>Node3&#45;&gt;Node4</title>
<path fill="none" stroke="#191970" d="M462.0066,-48.6569C470.5653,-49.6664 479.1919,-50.6839 487.6423,-51.6806"/>
<polygon fill="#191970" stroke="#191970" points="487.5051,-55.1886 497.8463,-52.8842 488.3251,-48.2368 487.5051,-55.1886"/>
</g>
<!-- Node5 -->
<g id="node5" class="node">
<title>Node5</title>
<g id="a_node5"><a xlink:href="classlocomotor_1_1components_1_1types_1_1_c_set_graph.html#a02a5132b9af1582e9f0759ed798cbca0" target="_top" xlink:title="locomotor.components.types.\lCSetGraph.distance">
<polygon fill="#ffffff" stroke="#000000" points="497.8555,-.5 497.8555,-28.5 643.9287,-28.5 643.9287,-.5 497.8555,-.5"/>
<text text-anchor="start" x="505.8555" y="-16.5" font-family="Helvetica,sans-Serif" font-size="10.00" fill="#000000">locomotor.components.types.</text>
<text text-anchor="middle" x="570.8921" y="-6.5" font-family="Helvetica,sans-Serif" font-size="10.00" fill="#000000">CSetGraph.distance</text>
</a>
</g>
</g>
<!-- Node3&#45;&gt;Node5 -->
<g id="edge4" class="edge">
<title>Node3&#45;&gt;Node5</title>
<path fill="none" stroke="#191970" d="M462.0066,-26.808C470.5653,-25.8406 479.1919,-24.8654 487.6423,-23.9102"/>
<polygon fill="#191970" stroke="#191970" points="488.3027,-27.358 497.8463,-22.7568 487.5164,-20.4023 488.3027,-27.358"/>
</g>
</g>
</svg>
