<?xml version="1.0" encoding="UTF-8" standalone="no"?>
<!DOCTYPE svg PUBLIC "-//W3C//DTD SVG 1.1//EN"
 "http://www.w3.org/Graphics/SVG/1.1/DTD/svg11.dtd">
<!-- Generated by graphviz version 2.40.1 (20161225.0304)
 -->
<!-- Title: removeUniverse Pages: 1 -->
<svg width="456pt" height="37pt"
 viewBox="0.00 0.00 456.49 37.00" xmlns="http://www.w3.org/2000/svg" xmlns:xlink="http://www.w3.org/1999/xlink">
<g id="graph0" class="graph" transform="scale(1 1) rotate(0) translate(4 33)">
<title>removeUniverse</title>
<polygon fill="#ffffff" stroke="transparent" points="-4,4 -4,-33 452.4863,-33 452.4863,4 -4,4"/>
<!-- Node1 -->
<g id="node1" class="node">
<title>Node1</title>
<polygon fill="#bfbfbf" stroke="#000000" points="0,-5.5 0,-23.5 88.8027,-23.5 88.8027,-5.5 0,-5.5"/>
<text text-anchor="middle" x="44.4014" y="-11.5" font-family="Helvetica,sans-Serif" font-size="10.00" fill="#000000">removeUniverse</text>
</g>
<!-- Node2 -->
<g id="node2" class="node">
<title>Node2</title>
<g id="a_node2"><a xlink:href="classlocomotor_1_1components_1_1network_1_1_a_p_i.html#a547463fbc7fb7b485886f0917e2c0b78" target="_top" xlink:title="locomotor.components.network.\lAPI.createHooks">
<polygon fill="#ffffff" stroke="#000000" points="124.8027,-.5 124.8027,-28.5 281.9893,-28.5 281.9893,-.5 124.8027,-.5"/>
<text text-anchor="start" x="132.8027" y="-16.5" font-family="Helvetica,sans-Serif" font-size="10.00" fill="#000000">locomotor.components.network.</text>
<text text-anchor="middle" x="203.396" y="-6.5" font-family="Helvetica,sans-Serif" font-size="10.00" fill="#000000">API.createHooks</text>
</a>
</g>
</g>
<!-- Node1&#45;&gt;Node2 -->
<g id="edge1" class="edge">
<title>Node1&#45;&gt;Node2</title>
<path fill="none" stroke="#191970" d="M99.28,-14.5C107.4945,-14.5 116.098,-14.5 124.6893,-14.5"/>
<polygon fill="#191970" stroke="#191970" points="99.1134,-11.0001 89.1133,-14.5 99.1133,-18.0001 99.1134,-11.0001"/>
</g>
<!-- Node3 -->
<g id="node3" class="node">
<title>Node3</title>
<g id="a_node3"><a xlink:href="classlocomotor_1_1core_1_1_main.html#a8b260eecbaabcef8473fd87ada040682" target="_top" xlink:title="locomotor.core.Main.main">
<polygon fill="#ffffff" stroke="#000000" points="317.9893,-5.5 317.9893,-23.5 448.4863,-23.5 448.4863,-5.5 317.9893,-5.5"/>
<text text-anchor="middle" x="383.2378" y="-11.5" font-family="Helvetica,sans-Serif" font-size="10.00" fill="#000000">locomotor.core.Main.main</text>
</a>
</g>
</g>
<!-- Node2&#45;&gt;Node3 -->
<g id="edge2" class="edge">
<title>Node2&#45;&gt;Node3</title>
<path fill="none" stroke="#191970" d="M292.189,-14.5C300.8773,-14.5 309.5797,-14.5 317.9715,-14.5"/>
<polygon fill="#191970" stroke="#191970" points="292.0156,-11.0001 282.0156,-14.5 292.0156,-18.0001 292.0156,-11.0001"/>
</g>
</g>
</svg>
