<?xml version="1.0" encoding="UTF-8" standalone="no"?>
<!DOCTYPE svg PUBLIC "-//W3C//DTD SVG 1.1//EN"
 "http://www.w3.org/Graphics/SVG/1.1/DTD/svg11.dtd">
<!-- Generated by graphviz version 2.40.1 (20161225.0304)
 -->
<!-- Title: isLeaf Pages: 1 -->
<svg width="415pt" height="184pt"
 viewBox="0.00 0.00 414.83 184.00" xmlns="http://www.w3.org/2000/svg" xmlns:xlink="http://www.w3.org/1999/xlink">
<g id="graph0" class="graph" transform="scale(1 1) rotate(0) translate(4 180)">
<title>isLeaf</title>
<polygon fill="#ffffff" stroke="transparent" points="-4,4 -4,-180 410.8311,-180 410.8311,4 -4,4"/>
<!-- Node1 -->
<g id="node1" class="node">
<title>Node1</title>
<polygon fill="#bfbfbf" stroke="#000000" points="0,-65.5 0,-83.5 42.6846,-83.5 42.6846,-65.5 0,-65.5"/>
<text text-anchor="middle" x="21.3423" y="-71.5" font-family="Helvetica,sans-Serif" font-size="10.00" fill="#000000">isLeaf</text>
</g>
<!-- Node2 -->
<g id="node2" class="node">
<title>Node2</title>
<g id="a_node2"><a xlink:href="classlocomotor_1_1components_1_1types_1_1_c_tree.html#ad146fa8579a5f8a876c4688cc5a68520" target="_top" xlink:title="toString">
<polygon fill="#ffffff" stroke="#000000" points="126.4897,-126.5 126.4897,-144.5 176.9526,-144.5 176.9526,-126.5 126.4897,-126.5"/>
<text text-anchor="middle" x="151.7212" y="-132.5" font-family="Helvetica,sans-Serif" font-size="10.00" fill="#000000">toString</text>
</a>
</g>
</g>
<!-- Node1&#45;&gt;Node2 -->
<g id="edge1" class="edge">
<title>Node1&#45;&gt;Node2</title>
<path fill="none" stroke="#191970" d="M41.2518,-89.7014C51.9228,-97.32 65.5478,-106.2324 78.6846,-112.5 93.9223,-119.7699 112.0163,-125.4873 126.3825,-129.4032"/>
<polygon fill="#191970" stroke="#191970" points="43.1922,-86.7842 33.0585,-83.6927 39.0525,-92.4289 43.1922,-86.7842"/>
</g>
<!-- Node4 -->
<g id="node4" class="node">
<title>Node4</title>
<g id="a_node4"><a xlink:href="classlocomotor_1_1components_1_1types_1_1_c_tree.html#aa4d32f3d6bb19d180861e5e8f1c4bec2" target="_top" xlink:title="toSet">
<polygon fill="#ffffff" stroke="#000000" points="132.0464,-84.5 132.0464,-102.5 171.396,-102.5 171.396,-84.5 132.0464,-84.5"/>
<text text-anchor="middle" x="151.7212" y="-90.5" font-family="Helvetica,sans-Serif" font-size="10.00" fill="#000000">toSet</text>
</a>
</g>
</g>
<!-- Node1&#45;&gt;Node4 -->
<g id="edge3" class="edge">
<title>Node1&#45;&gt;Node4</title>
<path fill="none" stroke="#191970" d="M52.8131,-79.0862C77.4178,-82.6718 110.8653,-87.5461 131.8707,-90.6072"/>
<polygon fill="#191970" stroke="#191970" points="53.2719,-75.6162 42.8717,-77.6375 52.2624,-82.543 53.2719,-75.6162"/>
</g>
<!-- Node7 -->
<g id="node7" class="node">
<title>Node7</title>
<g id="a_node7"><a xlink:href="classlocomotor_1_1components_1_1types_1_1_c_tree.html#a16e008a8f442c180f94c7c8f03f416bd" target="_top" xlink:title="toJSON">
<polygon fill="#ffffff" stroke="#000000" points="126.2163,-47.5 126.2163,-65.5 177.2261,-65.5 177.2261,-47.5 126.2163,-47.5"/>
<text text-anchor="middle" x="151.7212" y="-53.5" font-family="Helvetica,sans-Serif" font-size="10.00" fill="#000000">toJSON</text>
</a>
</g>
</g>
<!-- Node1&#45;&gt;Node7 -->
<g id="edge6" class="edge">
<title>Node1&#45;&gt;Node7</title>
<path fill="none" stroke="#191970" d="M52.9249,-70.1397C75.379,-67.0397 105.1548,-62.9289 126.1278,-60.0334"/>
<polygon fill="#191970" stroke="#191970" points="52.2991,-66.6928 42.8717,-71.5277 53.2564,-73.6271 52.2991,-66.6928"/>
</g>
<!-- Node9 -->
<g id="node9" class="node">
<title>Node9</title>
<g id="a_node9"><a xlink:href="classlocomotor_1_1components_1_1types_1_1_type_factory.html#a4f3bd968d433225df40aa83e43931496" target="_top" xlink:title="locomotor.components.types.\lTypeFactory.getTree">
<polygon fill="#ffffff" stroke="#000000" points="78.6846,-.5 78.6846,-28.5 224.7578,-28.5 224.7578,-.5 78.6846,-.5"/>
<text text-anchor="start" x="86.6846" y="-16.5" font-family="Helvetica,sans-Serif" font-size="10.00" fill="#000000">locomotor.components.types.</text>
<text text-anchor="middle" x="151.7212" y="-6.5" font-family="Helvetica,sans-Serif" font-size="10.00" fill="#000000">TypeFactory.getTree</text>
</a>
</g>
</g>
<!-- Node1&#45;&gt;Node9 -->
<g id="edge8" class="edge">
<title>Node1&#45;&gt;Node9</title>
<path fill="none" stroke="#191970" d="M42.539,-59.4566C53.0633,-52.4452 66.1763,-44.3742 78.6846,-38.5 86.4165,-34.8689 94.8472,-31.5534 103.1441,-28.6226"/>
<polygon fill="#191970" stroke="#191970" points="40.3207,-56.7333 34.037,-65.2635 44.2687,-62.5137 40.3207,-56.7333"/>
</g>
<!-- Node3 -->
<g id="node3" class="node">
<title>Node3</title>
<g id="a_node3"><a xlink:href="classlocomotor_1_1components_1_1types_1_1_c_graph_tree.html#ad146fa8579a5f8a876c4688cc5a68520" target="_top" xlink:title="locomotor.components.types.\lCGraphTree.toString">
<polygon fill="#ffffff" stroke="#000000" points="260.7578,-147.5 260.7578,-175.5 406.8311,-175.5 406.8311,-147.5 260.7578,-147.5"/>
<text text-anchor="start" x="268.7578" y="-163.5" font-family="Helvetica,sans-Serif" font-size="10.00" fill="#000000">locomotor.components.types.</text>
<text text-anchor="middle" x="333.7944" y="-153.5" font-family="Helvetica,sans-Serif" font-size="10.00" fill="#000000">CGraphTree.toString</text>
</a>
</g>
</g>
<!-- Node2&#45;&gt;Node3 -->
<g id="edge2" class="edge">
<title>Node2&#45;&gt;Node3</title>
<path fill="none" stroke="#191970" d="M187.0232,-140.5411C207.874,-143.5186 235.0655,-147.4015 260.3696,-151.015"/>
<polygon fill="#191970" stroke="#191970" points="187.4321,-137.0641 177.0377,-139.1152 186.4425,-143.9938 187.4321,-137.0641"/>
</g>
<!-- Node5 -->
<g id="node5" class="node">
<title>Node5</title>
<g id="a_node5"><a xlink:href="classlocomotor_1_1components_1_1types_1_1_c_graph_tree.html#a400adc948768886218e9e3b1af07f554" target="_top" xlink:title="locomotor.components.types.\lCGraphTree.CGraphTree">
<polygon fill="#ffffff" stroke="#000000" points="260.7578,-100.5 260.7578,-128.5 406.8311,-128.5 406.8311,-100.5 260.7578,-100.5"/>
<text text-anchor="start" x="268.7578" y="-116.5" font-family="Helvetica,sans-Serif" font-size="10.00" fill="#000000">locomotor.components.types.</text>
<text text-anchor="middle" x="333.7944" y="-106.5" font-family="Helvetica,sans-Serif" font-size="10.00" fill="#000000">CGraphTree.CGraphTree</text>
</a>
</g>
</g>
<!-- Node4&#45;&gt;Node5 -->
<g id="edge4" class="edge">
<title>Node4&#45;&gt;Node5</title>
<path fill="none" stroke="#191970" d="M181.646,-96.9515C203.0797,-99.4236 232.9105,-102.8642 260.4843,-106.0445"/>
<polygon fill="#191970" stroke="#191970" points="181.888,-93.4563 171.5528,-95.7873 181.0859,-100.4102 181.888,-93.4563"/>
</g>
<!-- Node6 -->
<g id="node6" class="node">
<title>Node6</title>
<g id="a_node6"><a xlink:href="classlocomotor_1_1components_1_1types_1_1_c_tree.html#a46596b48ff97821f142f902f7ac6d471" target="_top" xlink:title="compare">
<polygon fill="#ffffff" stroke="#000000" points="306.3413,-63.5 306.3413,-81.5 361.2476,-81.5 361.2476,-63.5 306.3413,-63.5"/>
<text text-anchor="middle" x="333.7944" y="-69.5" font-family="Helvetica,sans-Serif" font-size="10.00" fill="#000000">compare</text>
</a>
</g>
</g>
<!-- Node4&#45;&gt;Node6 -->
<g id="edge5" class="edge">
<title>Node4&#45;&gt;Node6</title>
<path fill="none" stroke="#191970" d="M181.5347,-90.0614C216.1339,-86.0707 272.7219,-79.544 306.3005,-75.6711"/>
<polygon fill="#191970" stroke="#191970" points="181.0859,-86.5898 171.5528,-91.2127 181.888,-93.5437 181.0859,-86.5898"/>
</g>
<!-- Node8 -->
<g id="node8" class="node">
<title>Node8</title>
<g id="a_node8"><a xlink:href="classlocomotor_1_1components_1_1types_1_1_c_graph_tree.html#aec36cb4b8921381211fc3027f939fc06" target="_top" xlink:title="locomotor.components.types.\lCGraphTree.toJSON">
<polygon fill="#ffffff" stroke="#000000" points="260.7578,-16.5 260.7578,-44.5 406.8311,-44.5 406.8311,-16.5 260.7578,-16.5"/>
<text text-anchor="start" x="268.7578" y="-32.5" font-family="Helvetica,sans-Serif" font-size="10.00" fill="#000000">locomotor.components.types.</text>
<text text-anchor="middle" x="333.7944" y="-22.5" font-family="Helvetica,sans-Serif" font-size="10.00" fill="#000000">CGraphTree.toJSON</text>
</a>
</g>
</g>
<!-- Node7&#45;&gt;Node8 -->
<g id="edge7" class="edge">
<title>Node7&#45;&gt;Node8</title>
<path fill="none" stroke="#191970" d="M187.4292,-51.4009C208.3084,-48.4194 235.443,-44.5446 260.6676,-40.9425"/>
<polygon fill="#191970" stroke="#191970" points="186.8264,-47.9514 177.4217,-52.83 187.8161,-54.8811 186.8264,-47.9514"/>
</g>
</g>
</svg>
