<?xml version="1.0" encoding="UTF-8" standalone="no"?>
<!DOCTYPE svg PUBLIC "-//W3C//DTD SVG 1.1//EN"
 "http://www.w3.org/Graphics/SVG/1.1/DTD/svg11.dtd">
<!-- Generated by graphviz version 2.40.1 (20161225.0304)
 -->
<!-- Title: registerUser Pages: 1 -->
<!--zoomable 289 -->
<svg id="main" version="1.1" xmlns="http://www.w3.org/2000/svg" xmlns:xlink="http://www.w3.org/1999/xlink" xml:space="preserve" onload="init(evt)">
<style type="text/css"><![CDATA[
.edge:hover path { stroke: red; }
.edge:hover polygon { stroke: red; fill: red; }
]]></style>
<script type="text/javascript"><![CDATA[
var edges = document.getElementsByTagName('g');
if (edges && edges.length) {
  for (var i=0;i<edges.length;i++) {
    if (edges[i].id.substr(0,4)=='edge') {
      edges[i].setAttribute('class','edge');
    }
  }
}
]]></script>
        <defs>
                <circle id="rim" cx="0" cy="0" r="7"/>
                <circle id="rim2" cx="0" cy="0" r="3.5"/>
                <g id="zoomPlus">
                        <use xlink:href="#rim" fill="#404040">
                                <set attributeName="fill" to="#808080" begin="zoomplus.mouseover" end="zoomplus.mouseout"/>
                        </use>
                        <path d="M-4,0h8M0,-4v8" fill="none" stroke="white" stroke-width="1.5" pointer-events="none"/>
                </g>
                <g id="zoomMin">
                        <use xlink:href="#rim" fill="#404040">
                                <set attributeName="fill" to="#808080" begin="zoomminus.mouseover" end="zoomminus.mouseout"/>
                        </use>
                        <path d="M-4,0h8" fill="none" stroke="white" stroke-width="1.5" pointer-events="none"/>
                </g>
                <g id="dirArrow">
                        <path fill="none" stroke="white" stroke-width="1.5" d="M0,-3.0v7 M-2.5,-0.5L0,-3.0L2.5,-0.5"/>
                </g>
               <g id="resetDef">
                       <use xlink:href="#rim2" fill="#404040">
                               <set attributeName="fill" to="#808080" begin="reset.mouseover" end="reset.mouseout"/>
                       </use>
               </g>
        </defs>

<script type="text/javascript">
var viewWidth = 522;
var viewHeight = 289;
var sectionId = 'dynsection-49';
</script>
<script xlink:href="svgpan.js"/>
<svg id="graph" class="graph">
<g id="viewport">
<title>registerUser</title>
<polygon fill="#ffffff" stroke="transparent" points="-4,4 -4,-285 518.0967,-285 518.0967,4 -4,4"/>
<!-- Node1 -->
<g id="node1" class="node">
<title>Node1</title>
<polygon fill="#bfbfbf" stroke="#000000" points="0,-136.5 0,-154.5 70.458,-154.5 70.458,-136.5 0,-136.5"/>
<text text-anchor="middle" x="35.229" y="-142.5" font-family="Helvetica,sans-Serif" font-size="10.00" fill="#000000">registerUser</text>
</g>
<!-- Node2 -->
<g id="node2" class="node">
<title>Node2</title>
<g id="a_node2"><a xlink:href="classlocomotor_1_1core_1_1_d_b_h.html#a0b2d292079fe232a4c3dae4636167641" target="_top" xlink:title="getInstance">
<polygon fill="#ffffff" stroke="#000000" points="181.2139,-262.5 181.2139,-280.5 248.918,-280.5 248.918,-262.5 181.2139,-262.5"/>
<text text-anchor="middle" x="215.0659" y="-268.5" font-family="Helvetica,sans-Serif" font-size="10.00" fill="#000000">getInstance</text>
</a>
</g>
</g>
<!-- Node1&#45;&gt;Node2 -->
<g id="edge1" class="edge">
<title>Node1&#45;&gt;Node2</title>
<path fill="none" stroke="#191970" d="M38.3208,-154.5903C46.057,-175.8317 68.4079,-228.7879 106.458,-253.5 125.4673,-265.8458 150.1722,-270.616 171.2162,-272.1799"/>
<polygon fill="#191970" stroke="#191970" points="171.0406,-275.6755 181.2118,-272.7093 171.4109,-268.6852 171.0406,-275.6755"/>
</g>
<!-- Node4 -->
<g id="node4" class="node">
<title>Node4</title>
<g id="a_node4"><a xlink:href="classlocomotor_1_1core_1_1_d_b_h.html#aaf30c71e17b7eba3eb56a3b121089e53" target="_top" xlink:title="usernameAlreadyTaken">
<polygon fill="#ffffff" stroke="#000000" points="154.5366,-225.5 154.5366,-243.5 275.5952,-243.5 275.5952,-225.5 154.5366,-225.5"/>
<text text-anchor="middle" x="215.0659" y="-231.5" font-family="Helvetica,sans-Serif" font-size="10.00" fill="#000000">usernameAlreadyTaken</text>
</a>
</g>
</g>
<!-- Node1&#45;&gt;Node4 -->
<g id="edge3" class="edge">
<title>Node1&#45;&gt;Node4</title>
<path fill="none" stroke="#191970" d="M41.4541,-154.6957C52.528,-170.2492 77.2519,-201.5165 106.458,-216.5 118.112,-222.4788 131.3097,-226.5465 144.3894,-229.2979"/>
<polygon fill="#191970" stroke="#191970" points="143.8686,-232.761 154.341,-231.1551 145.1528,-225.8798 143.8686,-232.761"/>
</g>
<!-- Node5 -->
<g id="node5" class="node">
<title>Node5</title>
<g id="a_node5"><a xlink:href="classlocomotor_1_1components_1_1logging_1_1_error_handler.html#a75e8f6535bdb8db9a7d570e1b839af47" target="_top" xlink:title="locomotor.components.logging.\lErrorHandler.getInstance">
<polygon fill="#ffffff" stroke="#000000" points="137.8545,-178.5 137.8545,-206.5 292.2773,-206.5 292.2773,-178.5 137.8545,-178.5"/>
<text text-anchor="start" x="145.8545" y="-194.5" font-family="Helvetica,sans-Serif" font-size="10.00" fill="#000000">locomotor.components.logging.</text>
<text text-anchor="middle" x="215.0659" y="-184.5" font-family="Helvetica,sans-Serif" font-size="10.00" fill="#000000">ErrorHandler.getInstance</text>
</a>
</g>
</g>
<!-- Node1&#45;&gt;Node5 -->
<g id="edge4" class="edge">
<title>Node1&#45;&gt;Node5</title>
<path fill="none" stroke="#191970" d="M59.735,-154.543C73.3727,-159.376 90.7237,-165.1989 106.458,-169.5 115.0595,-171.8513 124.0993,-174.104 133.138,-176.2168"/>
<polygon fill="#191970" stroke="#191970" points="132.3964,-179.6375 142.9248,-178.4526 133.9555,-172.8133 132.3964,-179.6375"/>
</g>
<!-- Node6 -->
<g id="node6" class="node">
<title>Node6</title>
<g id="a_node6"><a xlink:href="classlocomotor_1_1components_1_1logging_1_1_error_handler.html#abd00a9c37627740763cef91d76a77437" target="_top" xlink:title="locomotor.components.logging.\lErrorHandler.push">
<polygon fill="#ffffff" stroke="#000000" points="137.8545,-131.5 137.8545,-159.5 292.2773,-159.5 292.2773,-131.5 137.8545,-131.5"/>
<text text-anchor="start" x="145.8545" y="-147.5" font-family="Helvetica,sans-Serif" font-size="10.00" fill="#000000">locomotor.components.logging.</text>
<text text-anchor="middle" x="215.0659" y="-137.5" font-family="Helvetica,sans-Serif" font-size="10.00" fill="#000000">ErrorHandler.push</text>
</a>
</g>
</g>
<!-- Node1&#45;&gt;Node6 -->
<g id="edge5" class="edge">
<title>Node1&#45;&gt;Node6</title>
<path fill="none" stroke="#191970" d="M70.759,-145.5C87.1343,-145.5 107.3645,-145.5 127.442,-145.5"/>
<polygon fill="#191970" stroke="#191970" points="127.5859,-149.0001 137.5859,-145.5 127.5858,-142.0001 127.5859,-149.0001"/>
</g>
<!-- Node8 -->
<g id="node8" class="node">
<title>Node8</title>
<g id="a_node8"><a xlink:href="enumlocomotor_1_1core_1_1_accreditation_level.html#aae714dc01fe7f5bb1a175d0d1068bb92" target="_top" xlink:title="locomotor.core.Accreditation\lLevel.getValue">
<polygon fill="#ffffff" stroke="#000000" points="143.9775,-84.5 143.9775,-112.5 286.1543,-112.5 286.1543,-84.5 143.9775,-84.5"/>
<text text-anchor="start" x="151.9775" y="-100.5" font-family="Helvetica,sans-Serif" font-size="10.00" fill="#000000">locomotor.core.Accreditation</text>
<text text-anchor="middle" x="215.0659" y="-90.5" font-family="Helvetica,sans-Serif" font-size="10.00" fill="#000000">Level.getValue</text>
</a>
</g>
</g>
<!-- Node1&#45;&gt;Node8 -->
<g id="edge7" class="edge">
<title>Node1&#45;&gt;Node8</title>
<path fill="none" stroke="#191970" d="M61.1018,-136.4921C74.54,-131.9802 91.2827,-126.6168 106.458,-122.5 116.2736,-119.8372 126.6474,-117.2542 136.9343,-114.8309"/>
<polygon fill="#191970" stroke="#191970" points="137.7961,-118.224 146.7492,-112.559 136.2175,-111.4043 137.7961,-118.224"/>
</g>
<!-- Node9 -->
<g id="node9" class="node">
<title>Node9</title>
<g id="a_node9"><a xlink:href="classlocomotor_1_1core_1_1_password_storage.html#a8aed671707607cbe03d43c3d785f177e" target="_top" xlink:title="locomotor.core.PasswordStorage.createHash">
<polygon fill="#ffffff" stroke="#000000" points="106.458,-47.5 106.458,-65.5 323.6738,-65.5 323.6738,-47.5 106.458,-47.5"/>
<text text-anchor="middle" x="215.0659" y="-53.5" font-family="Helvetica,sans-Serif" font-size="10.00" fill="#000000">locomotor.core.PasswordStorage.createHash</text>
</a>
</g>
</g>
<!-- Node1&#45;&gt;Node9 -->
<g id="edge8" class="edge">
<title>Node1&#45;&gt;Node9</title>
<path fill="none" stroke="#191970" d="M41.5003,-136.462C52.6439,-121.1701 77.47,-90.4056 106.458,-75.5 111.6381,-72.8364 117.1213,-70.5375 122.7623,-68.5544"/>
<polygon fill="#191970" stroke="#191970" points="123.904,-71.8642 132.379,-65.5063 121.7889,-65.1914 123.904,-71.8642"/>
</g>
<!-- Node10 -->
<g id="node10" class="node">
<title>Node10</title>
<g id="a_node10"><a xlink:href="enumlocomotor_1_1core_1_1_accreditation_level.html#a9ba37c7260408517fd4e4c0196cf4a28" target="_top" xlink:title="locomotor.core.Accreditation\lLevel.valueOf">
<polygon fill="#ffffff" stroke="#000000" points="143.9775,-.5 143.9775,-28.5 286.1543,-28.5 286.1543,-.5 143.9775,-.5"/>
<text text-anchor="start" x="151.9775" y="-16.5" font-family="Helvetica,sans-Serif" font-size="10.00" fill="#000000">locomotor.core.Accreditation</text>
<text text-anchor="middle" x="215.0659" y="-6.5" font-family="Helvetica,sans-Serif" font-size="10.00" fill="#000000">Level.valueOf</text>
</a>
</g>
</g>
<!-- Node1&#45;&gt;Node10 -->
<g id="edge9" class="edge">
<title>Node1&#45;&gt;Node10</title>
<path fill="none" stroke="#191970" d="M38.5549,-136.3151C46.6454,-115.3526 69.4495,-63.8448 106.458,-38.5 114.7628,-32.8126 124.1883,-28.4463 133.9339,-25.0988"/>
<polygon fill="#191970" stroke="#191970" points="135.2262,-28.3633 143.7566,-22.0798 133.1696,-21.6722 135.2262,-28.3633"/>
</g>
<!-- Node3 -->
<g id="node3" class="node">
<title>Node3</title>
<g id="a_node3"><a xlink:href="classlocomotor_1_1core_1_1_d_b_h.html#a2d5f1f766f5863a46ed29b7e56118364" target="_top" xlink:title="DBH">
<polygon fill="#ffffff" stroke="#000000" points="418.3286,-262.5 418.3286,-280.5 455.4419,-280.5 455.4419,-262.5 418.3286,-262.5"/>
<text text-anchor="middle" x="436.8853" y="-268.5" font-family="Helvetica,sans-Serif" font-size="10.00" fill="#000000">DBH</text>
</a>
</g>
</g>
<!-- Node2&#45;&gt;Node3 -->
<g id="edge2" class="edge">
<title>Node2&#45;&gt;Node3</title>
<path fill="none" stroke="#191970" d="M249.2391,-271.5C292.7469,-271.5 367.1559,-271.5 407.9796,-271.5"/>
<polygon fill="#191970" stroke="#191970" points="408.0733,-275.0001 418.0732,-271.5 408.0732,-268.0001 408.0733,-275.0001"/>
</g>
<!-- Node7 -->
<g id="node7" class="node">
<title>Node7</title>
<g id="a_node7"><a xlink:href="classlocomotor_1_1components_1_1logging_1_1_error_context.html#afcf30b71bfc65c74878c7ab77c951842" target="_top" xlink:title="locomotor.components.logging.\lErrorContext.push">
<polygon fill="#ffffff" stroke="#000000" points="359.6738,-131.5 359.6738,-159.5 514.0967,-159.5 514.0967,-131.5 359.6738,-131.5"/>
<text text-anchor="start" x="367.6738" y="-147.5" font-family="Helvetica,sans-Serif" font-size="10.00" fill="#000000">locomotor.components.logging.</text>
<text text-anchor="middle" x="436.8853" y="-137.5" font-family="Helvetica,sans-Serif" font-size="10.00" fill="#000000">ErrorContext.push</text>
</a>
</g>
</g>
<!-- Node6&#45;&gt;Node7 -->
<g id="edge6" class="edge">
<title>Node6&#45;&gt;Node7</title>
<path fill="none" stroke="#191970" d="M292.3362,-145.5C310.7775,-145.5 330.5894,-145.5 349.4519,-145.5"/>
<polygon fill="#191970" stroke="#191970" points="349.5165,-149.0001 359.5165,-145.5 349.5165,-142.0001 349.5165,-149.0001"/>
</g>
</g>
</svg>
        <g id="navigator" transform="translate(0 0)" fill="#404254">
                <rect fill="#f2f5e9" fill-opacity="0.5" stroke="#606060" stroke-width=".5" x="0" y="0" width="60" height="60"/>
                <use id="zoomplus" xlink:href="#zoomPlus" x="17" y="9" onmousedown="handleZoom(evt,'in')"/>
                <use id="zoomminus" xlink:href="#zoomMin" x="42" y="9" onmousedown="handleZoom(evt,'out')"/>
                <use id="reset" xlink:href="#resetDef" x="30" y="36" onmousedown="handleReset()"/>
                <g id="arrowUp" xlink:href="#dirArrow" transform="translate(30 24)" onmousedown="handlePan(0,-1)">
                  <use xlink:href="#rim" fill="#404040">
                        <set attributeName="fill" to="#808080" begin="arrowUp.mouseover" end="arrowUp.mouseout"/>
                  </use>
                  <path fill="none" stroke="white" stroke-width="1.5" d="M0,-3.0v7 M-2.5,-0.5L0,-3.0L2.5,-0.5"/>
                </g>
                <g id="arrowRight" xlink:href="#dirArrow" transform="rotate(90) translate(36 -43)" onmousedown="handlePan(1,0)">
                  <use xlink:href="#rim" fill="#404040">
                        <set attributeName="fill" to="#808080" begin="arrowRight.mouseover" end="arrowRight.mouseout"/>
                  </use>
                  <path fill="none" stroke="white" stroke-width="1.5" d="M0,-3.0v7 M-2.5,-0.5L0,-3.0L2.5,-0.5"/>
                </g>
                <g id="arrowDown" xlink:href="#dirArrow" transform="rotate(180) translate(-30 -48)" onmousedown="handlePan(0,1)">
                  <use xlink:href="#rim" fill="#404040">
                        <set attributeName="fill" to="#808080" begin="arrowDown.mouseover" end="arrowDown.mouseout"/>
                  </use>
                  <path fill="none" stroke="white" stroke-width="1.5" d="M0,-3.0v7 M-2.5,-0.5L0,-3.0L2.5,-0.5"/>
                </g>
                <g id="arrowLeft" xlink:href="#dirArrow" transform="rotate(270) translate(-36 17)" onmousedown="handlePan(-1,0)">
                  <use xlink:href="#rim" fill="#404040">
                        <set attributeName="fill" to="#808080" begin="arrowLeft.mouseover" end="arrowLeft.mouseout"/>
                  </use>
                  <path fill="none" stroke="white" stroke-width="1.5" d="M0,-3.0v7 M-2.5,-0.5L0,-3.0L2.5,-0.5"/>
                </g>
        </g>
        <svg viewBox="0 0 15 15" width="100%" height="30px" preserveAspectRatio="xMaxYMin meet">
         <g id="arrow_out" transform="scale(0.3 0.3)">
          <a xlink:href="classlocomotor_1_1core_1_1_d_b_h_a17eef13d222e2f7d4cc413a965de3069_cgraph_org.svg" target="_base">
           <rect id="button" ry="5" rx="5" y="6" x="6" height="38" width="38"
                fill="#f2f5e9" fill-opacity="0.5" stroke="#606060" stroke-width="1.0"/>
           <path id="arrow"
             d="M 11.500037,31.436501 C 11.940474,20.09759 22.043105,11.32322 32.158766,21.979434 L 37.068811,17.246167 C 37.068811,17.246167 37.088388,32 37.088388,32 L 22.160133,31.978069 C 22.160133,31.978069 26.997745,27.140456 26.997745,27.140456 C 18.528582,18.264221 13.291696,25.230495 11.500037,31.436501 z"
             style="fill:#404040;"/>
          </a>
         </g>
        </svg>
</svg>
