<?xml version="1.0" encoding="UTF-8" standalone="no"?>
<!DOCTYPE svg PUBLIC "-//W3C//DTD SVG 1.1//EN"
 "http://www.w3.org/Graphics/SVG/1.1/DTD/svg11.dtd">
<!-- Generated by graphviz version 2.40.1 (20161225.0304)
 -->
<!-- Title: toByteArrayOutputStream Pages: 1 -->
<svg width="911pt" height="180pt"
 viewBox="0.00 0.00 910.68 180.00" xmlns="http://www.w3.org/2000/svg" xmlns:xlink="http://www.w3.org/1999/xlink">
<g id="graph0" class="graph" transform="scale(1 1) rotate(0) translate(4 176)">
<title>toByteArrayOutputStream</title>
<polygon fill="#ffffff" stroke="transparent" points="-4,4 -4,-176 906.6768,-176 906.6768,4 -4,4"/>
<!-- Node1 -->
<g id="node1" class="node">
<title>Node1</title>
<polygon fill="#bfbfbf" stroke="#000000" points="0,-101.5 0,-119.5 130.4922,-119.5 130.4922,-101.5 0,-101.5"/>
<text text-anchor="middle" x="65.2461" y="-107.5" font-family="Helvetica,sans-Serif" font-size="10.00" fill="#000000">toByteArrayOutputStream</text>
</g>
<!-- Node2 -->
<g id="node2" class="node">
<title>Node2</title>
<g id="a_node2"><a xlink:href="classlocomotor_1_1components_1_1network_1_1_network_json_response.html#a611be806a1238aa7ec8c3166dca41509" target="_top" xlink:title="locomotor.components.network.\lNetworkJsonResponse.success">
<polygon fill="#ffffff" stroke="#000000" points="166.4922,-140.5 166.4922,-168.5 324.2207,-168.5 324.2207,-140.5 166.4922,-140.5"/>
<text text-anchor="start" x="174.4922" y="-156.5" font-family="Helvetica,sans-Serif" font-size="10.00" fill="#000000">locomotor.components.network.</text>
<text text-anchor="middle" x="245.3564" y="-146.5" font-family="Helvetica,sans-Serif" font-size="10.00" fill="#000000">NetworkJsonResponse.success</text>
</a>
</g>
</g>
<!-- Node1&#45;&gt;Node2 -->
<g id="edge1" class="edge">
<title>Node1&#45;&gt;Node2</title>
<path fill="none" stroke="#191970" d="M112.0669,-121.9381C135.2589,-127.6038 163.4668,-134.4948 187.9506,-140.4761"/>
<polygon fill="#191970" stroke="#191970" points="112.6737,-118.4834 102.1287,-119.5102 111.0124,-125.2835 112.6737,-118.4834"/>
</g>
<!-- Node5 -->
<g id="node5" class="node">
<title>Node5</title>
<g id="a_node5"><a xlink:href="classlocomotor_1_1components_1_1network_1_1_network_response.html#ab1be964e3a5f4dfc34483da5bfd13a8a" target="_top" xlink:title="failure">
<polygon fill="#ffffff" stroke="#000000" points="223.7383,-101.5 223.7383,-119.5 266.9746,-119.5 266.9746,-101.5 223.7383,-101.5"/>
<text text-anchor="middle" x="245.3564" y="-107.5" font-family="Helvetica,sans-Serif" font-size="10.00" fill="#000000">failure</text>
</a>
</g>
</g>
<!-- Node1&#45;&gt;Node5 -->
<g id="edge4" class="edge">
<title>Node1&#45;&gt;Node5</title>
<path fill="none" stroke="#191970" d="M140.5886,-110.5C170.5758,-110.5 202.8,-110.5 223.4725,-110.5"/>
<polygon fill="#191970" stroke="#191970" points="140.5248,-107.0001 130.5247,-110.5 140.5247,-114.0001 140.5248,-107.0001"/>
</g>
<!-- Node9 -->
<g id="node9" class="node">
<title>Node9</title>
<g id="a_node9"><a xlink:href="classlocomotor_1_1components_1_1network_1_1_network_response.html#a4e62d21d6bba8cbbdb177019bddccfe0" target="_top" xlink:title="toByteArrayOutputStream">
<polygon fill="#ffffff" stroke="#000000" points="180.1104,-64.5 180.1104,-82.5 310.6025,-82.5 310.6025,-64.5 180.1104,-64.5"/>
<text text-anchor="middle" x="245.3564" y="-70.5" font-family="Helvetica,sans-Serif" font-size="10.00" fill="#000000">toByteArrayOutputStream</text>
</a>
</g>
</g>
<!-- Node1&#45;&gt;Node9 -->
<g id="edge11" class="edge">
<title>Node1&#45;&gt;Node9</title>
<path fill="none" stroke="#191970" d="M119.1155,-99.4336C145.4023,-94.0335 176.6231,-87.6199 201.4396,-82.5218"/>
<polygon fill="#191970" stroke="#191970" points="118.3972,-96.008 109.306,-101.4488 119.8058,-102.8648 118.3972,-96.008"/>
</g>
<!-- Node3 -->
<g id="node3" class="node">
<title>Node3</title>
<g id="a_node3"><a xlink:href="classlocomotor_1_1components_1_1network_1_1_a_p_i.html#a547463fbc7fb7b485886f0917e2c0b78" target="_top" xlink:title="locomotor.components.network.\lAPI.createHooks">
<polygon fill="#ffffff" stroke="#000000" points="373.0137,-143.5 373.0137,-171.5 530.2002,-171.5 530.2002,-143.5 373.0137,-143.5"/>
<text text-anchor="start" x="381.0137" y="-159.5" font-family="Helvetica,sans-Serif" font-size="10.00" fill="#000000">locomotor.components.network.</text>
<text text-anchor="middle" x="451.6069" y="-149.5" font-family="Helvetica,sans-Serif" font-size="10.00" fill="#000000">API.createHooks</text>
</a>
</g>
</g>
<!-- Node2&#45;&gt;Node3 -->
<g id="edge2" class="edge">
<title>Node2&#45;&gt;Node3</title>
<path fill="none" stroke="#191970" d="M334.665,-155.799C347.4252,-155.9846 360.4728,-156.1744 373.0073,-156.3567"/>
<polygon fill="#191970" stroke="#191970" points="334.5583,-152.2972 324.5084,-155.6513 334.4564,-159.2965 334.5583,-152.2972"/>
</g>
<!-- Node4 -->
<g id="node4" class="node">
<title>Node4</title>
<g id="a_node4"><a xlink:href="classlocomotor_1_1core_1_1_main.html#a8b260eecbaabcef8473fd87ada040682" target="_top" xlink:title="locomotor.core.Main.main">
<polygon fill="#ffffff" stroke="#000000" points="772.1797,-122.5 772.1797,-140.5 902.6768,-140.5 902.6768,-122.5 772.1797,-122.5"/>
<text text-anchor="middle" x="837.4282" y="-128.5" font-family="Helvetica,sans-Serif" font-size="10.00" fill="#000000">locomotor.core.Main.main</text>
</a>
</g>
</g>
<!-- Node3&#45;&gt;Node4 -->
<g id="edge3" class="edge">
<title>Node3&#45;&gt;Node4</title>
<path fill="none" stroke="#191970" d="M540.834,-151.4871C611.4437,-146.7288 708.42,-140.1937 771.9806,-135.9104"/>
<polygon fill="#191970" stroke="#191970" points="540.3567,-148.0112 530.6146,-152.1758 540.8274,-154.9954 540.3567,-148.0112"/>
</g>
<!-- Node5&#45;&gt;Node3 -->
<g id="edge5" class="edge">
<title>Node5&#45;&gt;Node3</title>
<path fill="none" stroke="#191970" d="M276.9466,-117.6987C306.9483,-124.5354 352.8719,-135.0004 390.1003,-143.484"/>
<polygon fill="#191970" stroke="#191970" points="277.5668,-114.2504 267.039,-115.441 276.0114,-121.0754 277.5668,-114.2504"/>
</g>
<!-- Node6 -->
<g id="node6" class="node">
<title>Node6</title>
<g id="a_node6"><a xlink:href="classlocomotor_1_1components_1_1network_1_1_i_endpoint_handler.html#ab14119ba2d6d06adbe73a9805f5130c6" target="_top" xlink:title="locomotor.components.network.\lIEndpointHandler.handle">
<polygon fill="#ffffff" stroke="#000000" points="373.0137,-96.5 373.0137,-124.5 530.2002,-124.5 530.2002,-96.5 373.0137,-96.5"/>
<text text-anchor="start" x="381.0137" y="-112.5" font-family="Helvetica,sans-Serif" font-size="10.00" fill="#000000">locomotor.components.network.</text>
<text text-anchor="middle" x="451.6069" y="-102.5" font-family="Helvetica,sans-Serif" font-size="10.00" fill="#000000">IEndpointHandler.handle</text>
</a>
</g>
</g>
<!-- Node5&#45;&gt;Node6 -->
<g id="edge6" class="edge">
<title>Node5&#45;&gt;Node6</title>
<path fill="none" stroke="#191970" d="M277.2053,-110.5C302.6462,-110.5 339.4165,-110.5 372.6415,-110.5"/>
<polygon fill="#191970" stroke="#191970" points="277.0391,-107.0001 267.039,-110.5 277.039,-114.0001 277.0391,-107.0001"/>
</g>
<!-- Node7 -->
<g id="node7" class="node">
<title>Node7</title>
<g id="a_node7"><a xlink:href="classlocomotor_1_1components_1_1network_1_1_network_handler.html#a63d431845f1fd2adc1f96432f6003e25" target="_top" xlink:title="locomotor.components.network.\lNetworkHandler.init">
<polygon fill="#ffffff" stroke="#000000" points="578.9932,-96.5 578.9932,-124.5 736.1797,-124.5 736.1797,-96.5 578.9932,-96.5"/>
<text text-anchor="start" x="586.9932" y="-112.5" font-family="Helvetica,sans-Serif" font-size="10.00" fill="#000000">locomotor.components.network.</text>
<text text-anchor="middle" x="657.5864" y="-102.5" font-family="Helvetica,sans-Serif" font-size="10.00" fill="#000000">NetworkHandler.init</text>
</a>
</g>
</g>
<!-- Node5&#45;&gt;Node7 -->
<g id="edge10" class="edge">
<title>Node5&#45;&gt;Node7</title>
<path fill="none" stroke="#191970" d="M277.0458,-102.3988C299.9712,-96.97 331.789,-90.3186 360.2207,-87.5 441.0567,-79.4864 462.159,-79.468 542.9932,-87.5 561.4688,-89.3358 581.3766,-92.7976 599.3325,-96.4884"/>
<polygon fill="#191970" stroke="#191970" points="276.0768,-99.0322 267.1823,-104.7889 277.7253,-105.8354 276.0768,-99.0322"/>
</g>
<!-- Node8 -->
<g id="node8" class="node">
<title>Node8</title>
<g id="a_node8"><a xlink:href="classlocomotor_1_1components_1_1network_1_1_i_endpoint_handler.html#a754e26560b323ad92f51d07b4cd02d2a" target="_top" xlink:title="locomotor.components.network.\lIEndpointHandler.sendDefaultMissing\lParametersMessage">
<polygon fill="#ffffff" stroke="#000000" points="360.2207,-.5 360.2207,-38.5 542.9932,-38.5 542.9932,-.5 360.2207,-.5"/>
<text text-anchor="start" x="368.2207" y="-26.5" font-family="Helvetica,sans-Serif" font-size="10.00" fill="#000000">locomotor.components.network.</text>
<text text-anchor="start" x="368.2207" y="-16.5" font-family="Helvetica,sans-Serif" font-size="10.00" fill="#000000">IEndpointHandler.sendDefaultMissing</text>
<text text-anchor="middle" x="451.6069" y="-6.5" font-family="Helvetica,sans-Serif" font-size="10.00" fill="#000000">ParametersMessage</text>
</a>
</g>
</g>
<!-- Node5&#45;&gt;Node8 -->
<g id="edge9" class="edge">
<title>Node5&#45;&gt;Node8</title>
<path fill="none" stroke="#191970" d="M276.9703,-107.6754C292.0605,-105.2632 309.9027,-100.7911 324.2207,-92.5 344.6342,-80.6792 340.6298,-66.6393 360.2207,-53.5 368.7967,-47.7482 378.4744,-42.8071 388.2418,-38.6169"/>
<polygon fill="#191970" stroke="#191970" points="276.4714,-104.2109 267.04,-109.0379 277.423,-111.146 276.4714,-104.2109"/>
</g>
<!-- Node6&#45;&gt;Node7 -->
<g id="edge7" class="edge">
<title>Node6&#45;&gt;Node7</title>
<path fill="none" stroke="#191970" d="M540.5161,-110.5C553.2768,-110.5 566.3314,-110.5 578.8764,-110.5"/>
<polygon fill="#191970" stroke="#191970" points="540.3607,-107.0001 530.3606,-110.5 540.3606,-114.0001 540.3607,-107.0001"/>
</g>
<!-- Node7&#45;&gt;Node4 -->
<g id="edge8" class="edge">
<title>Node7&#45;&gt;Node4</title>
<path fill="none" stroke="#191970" d="M746.3794,-120.8683C755.0678,-121.8828 763.7701,-122.899 772.162,-123.8789"/>
<polygon fill="#191970" stroke="#191970" points="746.5445,-117.3639 736.206,-119.6804 745.7326,-124.3166 746.5445,-117.3639"/>
</g>
</g>
</svg>
