<?xml version="1.0" encoding="UTF-8" standalone="no"?>
<!DOCTYPE svg PUBLIC "-//W3C//DTD SVG 1.1//EN"
 "http://www.w3.org/Graphics/SVG/1.1/DTD/svg11.dtd">
<!-- Generated by graphviz version 2.40.1 (20161225.0304)
 -->
<!-- Title: userStillExists Pages: 1 -->
<svg width="446pt" height="37pt"
 viewBox="0.00 0.00 445.92 37.00" xmlns="http://www.w3.org/2000/svg" xmlns:xlink="http://www.w3.org/1999/xlink">
<g id="graph0" class="graph" transform="scale(1 1) rotate(0) translate(4 33)">
<title>userStillExists</title>
<polygon fill="#ffffff" stroke="transparent" points="-4,4 -4,-33 441.9199,-33 441.9199,4 -4,4"/>
<!-- Node1 -->
<g id="node1" class="node">
<title>Node1</title>
<polygon fill="#bfbfbf" stroke="#000000" points="0,-5.5 0,-23.5 78.2363,-23.5 78.2363,-5.5 0,-5.5"/>
<text text-anchor="middle" x="39.1182" y="-11.5" font-family="Helvetica,sans-Serif" font-size="10.00" fill="#000000">userStillExists</text>
</g>
<!-- Node2 -->
<g id="node2" class="node">
<title>Node2</title>
<g id="a_node2"><a xlink:href="classlocomotor_1_1components_1_1network_1_1_a_p_i.html#a547463fbc7fb7b485886f0917e2c0b78" target="_top" xlink:title="locomotor.components.network.\lAPI.createHooks">
<polygon fill="#ffffff" stroke="#000000" points="114.2363,-.5 114.2363,-28.5 271.4229,-28.5 271.4229,-.5 114.2363,-.5"/>
<text text-anchor="start" x="122.2363" y="-16.5" font-family="Helvetica,sans-Serif" font-size="10.00" fill="#000000">locomotor.components.network.</text>
<text text-anchor="middle" x="192.8296" y="-6.5" font-family="Helvetica,sans-Serif" font-size="10.00" fill="#000000">API.createHooks</text>
</a>
</g>
</g>
<!-- Node1&#45;&gt;Node2 -->
<g id="edge1" class="edge">
<title>Node1&#45;&gt;Node2</title>
<path fill="none" stroke="#191970" d="M88.4561,-14.5C96.7039,-14.5 105.4388,-14.5 114.2044,-14.5"/>
<polygon fill="#191970" stroke="#191970" points="88.3038,-11.0001 78.3038,-14.5 88.3037,-18.0001 88.3038,-11.0001"/>
</g>
<!-- Node3 -->
<g id="node3" class="node">
<title>Node3</title>
<g id="a_node3"><a xlink:href="classlocomotor_1_1core_1_1_main.html#a8b260eecbaabcef8473fd87ada040682" target="_top" xlink:title="locomotor.core.Main.main">
<polygon fill="#ffffff" stroke="#000000" points="307.4229,-5.5 307.4229,-23.5 437.9199,-23.5 437.9199,-5.5 307.4229,-5.5"/>
<text text-anchor="middle" x="372.6714" y="-11.5" font-family="Helvetica,sans-Serif" font-size="10.00" fill="#000000">locomotor.core.Main.main</text>
</a>
</g>
</g>
<!-- Node2&#45;&gt;Node3 -->
<g id="edge2" class="edge">
<title>Node2&#45;&gt;Node3</title>
<path fill="none" stroke="#191970" d="M281.6226,-14.5C290.3109,-14.5 299.0133,-14.5 307.4051,-14.5"/>
<polygon fill="#191970" stroke="#191970" points="281.4492,-11.0001 271.4492,-14.5 281.4492,-18.0001 281.4492,-11.0001"/>
</g>
</g>
</svg>
