<?xml version="1.0" encoding="UTF-8" standalone="no"?>
<!DOCTYPE svg PUBLIC "-//W3C//DTD SVG 1.1//EN"
 "http://www.w3.org/Graphics/SVG/1.1/DTD/svg11.dtd">
<!-- Generated by graphviz version 2.40.1 (20161225.0304)
 -->
<!-- Title: FrontResourceManager Pages: 1 -->
<svg width="422pt" height="37pt"
 viewBox="0.00 0.00 421.51 37.00" xmlns="http://www.w3.org/2000/svg" xmlns:xlink="http://www.w3.org/1999/xlink">
<g id="graph0" class="graph" transform="scale(1 1) rotate(0) translate(4 33)">
<title>FrontResourceManager</title>
<polygon fill="#ffffff" stroke="transparent" points="-4,4 -4,-33 417.5059,-33 417.5059,4 -4,4"/>
<!-- Node1 -->
<g id="node1" class="node">
<title>Node1</title>
<polygon fill="#bfbfbf" stroke="#000000" points="0,-5.5 0,-23.5 121.6055,-23.5 121.6055,-5.5 0,-5.5"/>
<text text-anchor="middle" x="60.8027" y="-11.5" font-family="Helvetica,sans-Serif" font-size="10.00" fill="#000000">FrontResourceManager</text>
</g>
<!-- Node2 -->
<g id="node2" class="node">
<title>Node2</title>
<g id="a_node2"><a xlink:href="classlocomotor_1_1front_1_1components_1_1_front_resource_manager.html#aa21c4cd4a2808249949e545c69057811" target="_top" xlink:title="getInstance">
<polygon fill="#ffffff" stroke="#000000" points="157.6055,-5.5 157.6055,-23.5 225.3096,-23.5 225.3096,-5.5 157.6055,-5.5"/>
<text text-anchor="middle" x="191.4575" y="-11.5" font-family="Helvetica,sans-Serif" font-size="10.00" fill="#000000">getInstance</text>
</a>
</g>
</g>
<!-- Node1&#45;&gt;Node2 -->
<g id="edge1" class="edge">
<title>Node1&#45;&gt;Node2</title>
<path fill="none" stroke="#191970" d="M131.9557,-14.5C140.8194,-14.5 149.539,-14.5 157.4546,-14.5"/>
<polygon fill="#191970" stroke="#191970" points="131.9222,-11.0001 121.9222,-14.5 131.9221,-18.0001 131.9222,-11.0001"/>
</g>
<!-- Node3 -->
<g id="node3" class="node">
<title>Node3</title>
<g id="a_node3"><a xlink:href="classlocomotor_1_1front_1_1user_1_1_bridge.html#afa7ac789194b4e4f08000205a0f96f11" target="_top" xlink:title="locomotor.front.user.Bridge.get\lModel">
<polygon fill="#ffffff" stroke="#000000" points="261.3096,-.5 261.3096,-28.5 413.5059,-28.5 413.5059,-.5 261.3096,-.5"/>
<text text-anchor="start" x="269.3096" y="-16.5" font-family="Helvetica,sans-Serif" font-size="10.00" fill="#000000">locomotor.front.user.Bridge.get</text>
<text text-anchor="middle" x="337.4077" y="-6.5" font-family="Helvetica,sans-Serif" font-size="10.00" fill="#000000">Model</text>
</a>
</g>
</g>
<!-- Node2&#45;&gt;Node3 -->
<g id="edge2" class="edge">
<title>Node2&#45;&gt;Node3</title>
<path fill="none" stroke="#191970" d="M235.8527,-14.5C243.8638,-14.5 252.4205,-14.5 261.0406,-14.5"/>
<polygon fill="#191970" stroke="#191970" points="235.6764,-11.0001 225.6764,-14.5 235.6763,-18.0001 235.6764,-11.0001"/>
</g>
</g>
</svg>
