<?xml version="1.0" encoding="UTF-8" standalone="no"?>
<!DOCTYPE svg PUBLIC "-//W3C//DTD SVG 1.1//EN"
 "http://www.w3.org/Graphics/SVG/1.1/DTD/svg11.dtd">
<!-- Generated by graphviz version 2.40.1 (20161225.0304)
 -->
<!-- Title: intervalValue Pages: 1 -->
<svg width="263pt" height="84pt"
 viewBox="0.00 0.00 263.15 84.00" xmlns="http://www.w3.org/2000/svg" xmlns:xlink="http://www.w3.org/1999/xlink">
<g id="graph0" class="graph" transform="scale(1 1) rotate(0) translate(4 80)">
<title>intervalValue</title>
<polygon fill="#ffffff" stroke="transparent" points="-4,4 -4,-80 259.1484,-80 259.1484,4 -4,4"/>
<!-- Node1 -->
<g id="node1" class="node">
<title>Node1</title>
<polygon fill="#bfbfbf" stroke="#000000" points="0,-28.5 0,-46.5 73.0752,-46.5 73.0752,-28.5 0,-28.5"/>
<text text-anchor="middle" x="36.5376" y="-34.5" font-family="Helvetica,sans-Serif" font-size="10.00" fill="#000000">intervalValue</text>
</g>
<!-- Node2 -->
<g id="node2" class="node">
<title>Node2</title>
<g id="a_node2"><a xlink:href="classlocomotor_1_1components_1_1types_1_1_c_interval_double.html#a871921d9d041c5c7993927dde6332e2c" target="_top" xlink:title="locomotor.components.types.\lCIntervalDouble.compare">
<polygon fill="#ffffff" stroke="#000000" points="109.0752,-47.5 109.0752,-75.5 255.1484,-75.5 255.1484,-47.5 109.0752,-47.5"/>
<text text-anchor="start" x="117.0752" y="-63.5" font-family="Helvetica,sans-Serif" font-size="10.00" fill="#000000">locomotor.components.types.</text>
<text text-anchor="middle" x="182.1118" y="-53.5" font-family="Helvetica,sans-Serif" font-size="10.00" fill="#000000">CIntervalDouble.compare</text>
</a>
</g>
</g>
<!-- Node1&#45;&gt;Node2 -->
<g id="edge1" class="edge">
<title>Node1&#45;&gt;Node2</title>
<path fill="none" stroke="#191970" d="M83.3715,-45.2212C91.5889,-46.576 100.3142,-48.0145 109.0448,-49.4539"/>
<polygon fill="#191970" stroke="#191970" points="83.7083,-41.7296 73.2721,-43.5562 82.5696,-48.6364 83.7083,-41.7296"/>
</g>
<!-- Node3 -->
<g id="node3" class="node">
<title>Node3</title>
<g id="a_node3"><a xlink:href="classlocomotor_1_1components_1_1types_1_1_c_interval_integer.html#a535607ef73128c96e7b4c3831a537c15" target="_top" xlink:title="locomotor.components.types.\lCIntervalInteger.compare">
<polygon fill="#ffffff" stroke="#000000" points="109.0752,-.5 109.0752,-28.5 255.1484,-28.5 255.1484,-.5 109.0752,-.5"/>
<text text-anchor="start" x="117.0752" y="-16.5" font-family="Helvetica,sans-Serif" font-size="10.00" fill="#000000">locomotor.components.types.</text>
<text text-anchor="middle" x="182.1118" y="-6.5" font-family="Helvetica,sans-Serif" font-size="10.00" fill="#000000">CIntervalInteger.compare</text>
</a>
</g>
</g>
<!-- Node1&#45;&gt;Node3 -->
<g id="edge2" class="edge">
<title>Node1&#45;&gt;Node3</title>
<path fill="none" stroke="#191970" d="M83.3715,-30.1005C91.5889,-28.8022 100.3142,-27.4236 109.0448,-26.0442"/>
<polygon fill="#191970" stroke="#191970" points="82.6034,-26.6783 73.2721,-31.6961 83.6958,-33.5926 82.6034,-26.6783"/>
</g>
</g>
</svg>
