<?xml version="1.0" encoding="UTF-8" standalone="no"?>
<!DOCTYPE svg PUBLIC "-//W3C//DTD SVG 1.1//EN"
 "http://www.w3.org/Graphics/SVG/1.1/DTD/svg11.dtd">
<!-- Generated by graphviz version 2.40.1 (20161225.0304)
 -->
<!-- Title: ItemFull Pages: 1 -->
<svg width="518pt" height="37pt"
 viewBox="0.00 0.00 517.92 37.00" xmlns="http://www.w3.org/2000/svg" xmlns:xlink="http://www.w3.org/1999/xlink">
<g id="graph0" class="graph" transform="scale(1 1) rotate(0) translate(4 33)">
<title>ItemFull</title>
<polygon fill="#ffffff" stroke="transparent" points="-4,4 -4,-33 513.915,-33 513.915,4 -4,4"/>
<!-- Node1 -->
<g id="node1" class="node">
<title>Node1</title>
<polygon fill="#bfbfbf" stroke="#000000" points="0,-5.5 0,-23.5 51.5615,-23.5 51.5615,-5.5 0,-5.5"/>
<text text-anchor="middle" x="25.7808" y="-11.5" font-family="Helvetica,sans-Serif" font-size="10.00" fill="#000000">ItemFull</text>
</g>
<!-- Node2 -->
<g id="node2" class="node">
<title>Node2</title>
<g id="a_node2"><a xlink:href="classlocomotor_1_1components_1_1models_1_1_item_full.html#afe56c5f49cb59d04ec69bbf32b58a2f8" target="_top" xlink:title="fromJSON">
<polygon fill="#ffffff" stroke="#000000" points="87.5615,-5.5 87.5615,-23.5 150.2314,-23.5 150.2314,-5.5 87.5615,-5.5"/>
<text text-anchor="middle" x="118.8965" y="-11.5" font-family="Helvetica,sans-Serif" font-size="10.00" fill="#000000">fromJSON</text>
</a>
</g>
</g>
<!-- Node1&#45;&gt;Node2 -->
<g id="edge1" class="edge">
<title>Node1&#45;&gt;Node2</title>
<path fill="none" stroke="#191970" d="M61.7404,-14.5C70.2248,-14.5 79.205,-14.5 87.4711,-14.5"/>
<polygon fill="#191970" stroke="#191970" points="61.7187,-11.0001 51.7187,-14.5 61.7186,-18.0001 61.7187,-11.0001"/>
</g>
<!-- Node3 -->
<g id="node3" class="node">
<title>Node3</title>
<g id="a_node3"><a xlink:href="classlocomotor_1_1components_1_1network_1_1_a_p_i.html#a547463fbc7fb7b485886f0917e2c0b78" target="_top" xlink:title="locomotor.components.network.\lAPI.createHooks">
<polygon fill="#ffffff" stroke="#000000" points="186.2314,-.5 186.2314,-28.5 343.418,-28.5 343.418,-.5 186.2314,-.5"/>
<text text-anchor="start" x="194.2314" y="-16.5" font-family="Helvetica,sans-Serif" font-size="10.00" fill="#000000">locomotor.components.network.</text>
<text text-anchor="middle" x="264.8247" y="-6.5" font-family="Helvetica,sans-Serif" font-size="10.00" fill="#000000">API.createHooks</text>
</a>
</g>
</g>
<!-- Node2&#45;&gt;Node3 -->
<g id="edge2" class="edge">
<title>Node2&#45;&gt;Node3</title>
<path fill="none" stroke="#191970" d="M160.7357,-14.5C168.7807,-14.5 177.4469,-14.5 186.2226,-14.5"/>
<polygon fill="#191970" stroke="#191970" points="160.5608,-11.0001 150.5607,-14.5 160.5607,-18.0001 160.5608,-11.0001"/>
</g>
<!-- Node4 -->
<g id="node4" class="node">
<title>Node4</title>
<g id="a_node4"><a xlink:href="classlocomotor_1_1core_1_1_main.html#a8b260eecbaabcef8473fd87ada040682" target="_top" xlink:title="locomotor.core.Main.main">
<polygon fill="#ffffff" stroke="#000000" points="379.418,-5.5 379.418,-23.5 509.915,-23.5 509.915,-5.5 379.418,-5.5"/>
<text text-anchor="middle" x="444.6665" y="-11.5" font-family="Helvetica,sans-Serif" font-size="10.00" fill="#000000">locomotor.core.Main.main</text>
</a>
</g>
</g>
<!-- Node3&#45;&gt;Node4 -->
<g id="edge3" class="edge">
<title>Node3&#45;&gt;Node4</title>
<path fill="none" stroke="#191970" d="M353.6177,-14.5C362.306,-14.5 371.0084,-14.5 379.4002,-14.5"/>
<polygon fill="#191970" stroke="#191970" points="353.4443,-11.0001 343.4443,-14.5 353.4443,-18.0001 353.4443,-11.0001"/>
</g>
</g>
</svg>
