<?xml version="1.0" encoding="UTF-8" standalone="no"?>
<!DOCTYPE svg PUBLIC "-//W3C//DTD SVG 1.1//EN"
 "http://www.w3.org/Graphics/SVG/1.1/DTD/svg11.dtd">
<!-- Generated by graphviz version 2.40.1 (20161225.0304)
 -->
<!-- Title: updateItem Pages: 1 -->
<svg width="964pt" height="843pt"
 viewBox="0.00 0.00 963.85 843.00" xmlns="http://www.w3.org/2000/svg" xmlns:xlink="http://www.w3.org/1999/xlink">
<g id="graph0" class="graph" transform="scale(1 1) rotate(0) translate(4 839)">
<title>updateItem</title>
<polygon fill="#ffffff" stroke="transparent" points="-4,4 -4,-839 959.8486,-839 959.8486,4 -4,4"/>
<!-- Node1 -->
<g id="node1" class="node">
<title>Node1</title>
<polygon fill="#bfbfbf" stroke="#000000" points="0,-774.5 0,-792.5 66.0342,-792.5 66.0342,-774.5 0,-774.5"/>
<text text-anchor="middle" x="33.0171" y="-780.5" font-family="Helvetica,sans-Serif" font-size="10.00" fill="#000000">updateItem</text>
</g>
<!-- Node2 -->
<g id="node2" class="node">
<title>Node2</title>
<g id="a_node2"><a xlink:href="classlocomotor_1_1core_1_1_d_b_h.html#a0b2d292079fe232a4c3dae4636167641" target="_top" xlink:title="getInstance">
<polygon fill="#ffffff" stroke="#000000" points="290.2158,-816.5 290.2158,-834.5 357.9199,-834.5 357.9199,-816.5 290.2158,-816.5"/>
<text text-anchor="middle" x="324.0679" y="-822.5" font-family="Helvetica,sans-Serif" font-size="10.00" fill="#000000">getInstance</text>
</a>
</g>
</g>
<!-- Node1&#45;&gt;Node2 -->
<g id="edge1" class="edge">
<title>Node1&#45;&gt;Node2</title>
<path fill="none" stroke="#191970" d="M66.2738,-790.7689C77.5886,-793.1025 90.3316,-795.5779 102.0342,-797.5 163.5678,-807.6064 235.2177,-816.0462 280.1127,-820.9367"/>
<polygon fill="#191970" stroke="#191970" points="279.7817,-824.4212 290.0995,-822.014 280.5326,-817.4616 279.7817,-824.4212"/>
</g>
<!-- Node4 -->
<g id="node4" class="node">
<title>Node4</title>
<g id="a_node4"><a xlink:href="classlocomotor_1_1core_1_1_d_b_h.html#ad067053be75a3170dc9c2ce7b922e176" target="_top" xlink:title="checkingParsingItem">
<polygon fill="#ffffff" stroke="#000000" points="102.0342,-424.5 102.0342,-442.5 210.8564,-442.5 210.8564,-424.5 102.0342,-424.5"/>
<text text-anchor="middle" x="156.4453" y="-430.5" font-family="Helvetica,sans-Serif" font-size="10.00" fill="#000000">checkingParsingItem</text>
</a>
</g>
</g>
<!-- Node1&#45;&gt;Node4 -->
<g id="edge3" class="edge">
<title>Node1&#45;&gt;Node4</title>
<path fill="none" stroke="#191970" d="M36.1922,-774.4965C52.4932,-728.2725 126.8987,-517.2839 149.7503,-452.4847"/>
<polygon fill="#191970" stroke="#191970" points="153.1524,-453.3614 153.1774,-442.7666 146.5508,-451.0333 153.1524,-453.3614"/>
</g>
<!-- Node7 -->
<g id="node7" class="node">
<title>Node7</title>
<g id="a_node7"><a xlink:href="classlocomotor_1_1components_1_1models_1_1_item.html#a34e60b6081b4c555dc9f5b872cbe044e" target="_top" xlink:title="locomotor.components.models.\lItem.getID">
<polygon fill="#ffffff" stroke="#000000" points="246.8638,-769.5 246.8638,-797.5 401.272,-797.5 401.272,-769.5 246.8638,-769.5"/>
<text text-anchor="start" x="254.8638" y="-785.5" font-family="Helvetica,sans-Serif" font-size="10.00" fill="#000000">locomotor.components.models.</text>
<text text-anchor="middle" x="324.0679" y="-775.5" font-family="Helvetica,sans-Serif" font-size="10.00" fill="#000000">Item.getID</text>
</a>
</g>
</g>
<!-- Node1&#45;&gt;Node7 -->
<g id="edge31" class="edge">
<title>Node1&#45;&gt;Node7</title>
<path fill="none" stroke="#191970" d="M66.1209,-783.5C107.3031,-783.5 179.1969,-783.5 236.6406,-783.5"/>
<polygon fill="#191970" stroke="#191970" points="236.8216,-787.0001 246.8216,-783.5 236.8215,-780.0001 236.8216,-787.0001"/>
</g>
<!-- Node3 -->
<g id="node3" class="node">
<title>Node3</title>
<g id="a_node3"><a xlink:href="classlocomotor_1_1core_1_1_d_b_h.html#a2d5f1f766f5863a46ed29b7e56118364" target="_top" xlink:title="DBH">
<polygon fill="#ffffff" stroke="#000000" points="495.9341,-816.5 495.9341,-834.5 533.0474,-834.5 533.0474,-816.5 495.9341,-816.5"/>
<text text-anchor="middle" x="514.4907" y="-822.5" font-family="Helvetica,sans-Serif" font-size="10.00" fill="#000000">DBH</text>
</a>
</g>
</g>
<!-- Node2&#45;&gt;Node3 -->
<g id="edge2" class="edge">
<title>Node2&#45;&gt;Node3</title>
<path fill="none" stroke="#191970" d="M358.1117,-825.5C394.407,-825.5 451.2682,-825.5 485.501,-825.5"/>
<polygon fill="#191970" stroke="#191970" points="485.7657,-829.0001 495.7657,-825.5 485.7656,-822.0001 485.7657,-829.0001"/>
</g>
<!-- Node4&#45;&gt;Node2 -->
<g id="edge5" class="edge">
<title>Node4&#45;&gt;Node2</title>
<path fill="none" stroke="#191970" d="M157.3659,-442.6157C162.7987,-494.6222 192.3148,-753.4013 246.8564,-807.5 255.6363,-816.2085 267.7635,-821.0215 279.8071,-823.6007"/>
<polygon fill="#191970" stroke="#191970" points="279.3881,-827.0792 289.8287,-825.2782 280.5438,-820.1752 279.3881,-827.0792"/>
</g>
<!-- Node5 -->
<g id="node5" class="node">
<title>Node5</title>
<g id="a_node5"><a xlink:href="classlocomotor_1_1components_1_1models_1_1_item_full.html#a27e15ff845320cbae7ca4dbb6a882eb4" target="_top" xlink:title="locomotor.components.models.\lItemFull.getUniverse">
<polygon fill="#ffffff" stroke="#000000" points="246.8638,-440.5 246.8638,-468.5 401.272,-468.5 401.272,-440.5 246.8638,-440.5"/>
<text text-anchor="start" x="254.8638" y="-456.5" font-family="Helvetica,sans-Serif" font-size="10.00" fill="#000000">locomotor.components.models.</text>
<text text-anchor="middle" x="324.0679" y="-446.5" font-family="Helvetica,sans-Serif" font-size="10.00" fill="#000000">ItemFull.getUniverse</text>
</a>
</g>
</g>
<!-- Node4&#45;&gt;Node5 -->
<g id="edge4" class="edge">
<title>Node4&#45;&gt;Node5</title>
<path fill="none" stroke="#191970" d="M210.8676,-440.3181C219.2023,-441.3623 227.9809,-442.4621 236.8107,-443.5683"/>
<polygon fill="#191970" stroke="#191970" points="236.423,-447.047 246.7806,-444.8173 237.2933,-440.1013 236.423,-447.047"/>
</g>
<!-- Node6 -->
<g id="node6" class="node">
<title>Node6</title>
<g id="a_node6"><a xlink:href="classlocomotor_1_1core_1_1_d_b_h.html#ad8a1ee8704cdfdf81c7e495c1f388874" target="_top" xlink:title="universeStillExists">
<polygon fill="#ffffff" stroke="#000000" points="275.7773,-403.5 275.7773,-421.5 372.3584,-421.5 372.3584,-403.5 275.7773,-403.5"/>
<text text-anchor="middle" x="324.0679" y="-409.5" font-family="Helvetica,sans-Serif" font-size="10.00" fill="#000000">universeStillExists</text>
</a>
</g>
</g>
<!-- Node4&#45;&gt;Node6 -->
<g id="edge6" class="edge">
<title>Node4&#45;&gt;Node6</title>
<path fill="none" stroke="#191970" d="M210.8676,-426.6819C228.2883,-424.4994 247.6486,-422.0739 265.361,-419.8549"/>
<polygon fill="#191970" stroke="#191970" points="266.0849,-423.2916 275.5722,-418.5756 265.2146,-416.3459 266.0849,-423.2916"/>
</g>
<!-- Node4&#45;&gt;Node7 -->
<g id="edge7" class="edge">
<title>Node4&#45;&gt;Node7</title>
<path fill="none" stroke="#191970" d="M157.7664,-442.6591C164.8581,-490.631 199.848,-712.553 246.8564,-760.5 247.9274,-761.5924 249.0479,-762.6334 250.2115,-763.6255"/>
<polygon fill="#191970" stroke="#191970" points="248.2762,-766.5439 258.4539,-769.4876 252.3333,-760.8395 248.2762,-766.5439"/>
</g>
<!-- Node8 -->
<g id="node8" class="node">
<title>Node8</title>
<g id="a_node8"><a xlink:href="classlocomotor_1_1components_1_1models_1_1_item_full.html#a78ee178b6a73658d65ca60da4d1e6683" target="_top" xlink:title="locomotor.components.models.\lItemFull.getName">
<polygon fill="#ffffff" stroke="#000000" points="246.8638,-356.5 246.8638,-384.5 401.272,-384.5 401.272,-356.5 246.8638,-356.5"/>
<text text-anchor="start" x="254.8638" y="-372.5" font-family="Helvetica,sans-Serif" font-size="10.00" fill="#000000">locomotor.components.models.</text>
<text text-anchor="middle" x="324.0679" y="-362.5" font-family="Helvetica,sans-Serif" font-size="10.00" fill="#000000">ItemFull.getName</text>
</a>
</g>
</g>
<!-- Node4&#45;&gt;Node8 -->
<g id="edge8" class="edge">
<title>Node4&#45;&gt;Node8</title>
<path fill="none" stroke="#191970" d="M175.2064,-424.3606C193.2947,-415.7505 221.5708,-402.8167 246.8564,-393.5 252.3215,-391.4864 258.0515,-389.5192 263.8157,-387.6368"/>
<polygon fill="#191970" stroke="#191970" points="265.0384,-390.9208 273.508,-384.5555 262.9175,-384.2498 265.0384,-390.9208"/>
</g>
<!-- Node9 -->
<g id="node9" class="node">
<title>Node9</title>
<g id="a_node9"><a xlink:href="classlocomotor_1_1core_1_1_d_b_h.html#af8f30eaa4ef362f206b2cbd21045cf0a" target="_top" xlink:title="itemNameAlreadyTaken">
<polygon fill="#ffffff" stroke="#000000" points="262.9893,-319.5 262.9893,-337.5 385.1465,-337.5 385.1465,-319.5 262.9893,-319.5"/>
<text text-anchor="middle" x="324.0679" y="-325.5" font-family="Helvetica,sans-Serif" font-size="10.00" fill="#000000">itemNameAlreadyTaken</text>
</a>
</g>
</g>
<!-- Node4&#45;&gt;Node9 -->
<g id="edge9" class="edge">
<title>Node4&#45;&gt;Node9</title>
<path fill="none" stroke="#191970" d="M163.0411,-424.4886C176.6103,-406.6412 209.5303,-366.7754 246.8564,-346.5 250.7722,-344.373 254.9324,-342.4961 259.2126,-340.84"/>
<polygon fill="#191970" stroke="#191970" points="260.4155,-344.1275 268.7262,-337.5561 258.1314,-337.5106 260.4155,-344.1275"/>
</g>
<!-- Node10 -->
<g id="node10" class="node">
<title>Node10</title>
<g id="a_node10"><a xlink:href="classlocomotor_1_1components_1_1logging_1_1_error_handler.html#a75e8f6535bdb8db9a7d570e1b839af47" target="_top" xlink:title="locomotor.components.logging.\lErrorHandler.getInstance">
<polygon fill="#ffffff" stroke="#000000" points="246.8564,-272.5 246.8564,-300.5 401.2793,-300.5 401.2793,-272.5 246.8564,-272.5"/>
<text text-anchor="start" x="254.8564" y="-288.5" font-family="Helvetica,sans-Serif" font-size="10.00" fill="#000000">locomotor.components.logging.</text>
<text text-anchor="middle" x="324.0679" y="-278.5" font-family="Helvetica,sans-Serif" font-size="10.00" fill="#000000">ErrorHandler.getInstance</text>
</a>
</g>
</g>
<!-- Node4&#45;&gt;Node10 -->
<g id="edge10" class="edge">
<title>Node4&#45;&gt;Node10</title>
<path fill="none" stroke="#191970" d="M160.4695,-424.4496C171.108,-401.5733 202.2515,-341.0186 246.8564,-309.5 249.0054,-307.9815 251.2554,-306.562 253.5801,-305.2352"/>
<polygon fill="#191970" stroke="#191970" points="255.5027,-308.1859 262.8609,-300.5631 252.355,-301.9334 255.5027,-308.1859"/>
</g>
<!-- Node11 -->
<g id="node11" class="node">
<title>Node11</title>
<g id="a_node11"><a xlink:href="classlocomotor_1_1components_1_1logging_1_1_error_handler.html#abd00a9c37627740763cef91d76a77437" target="_top" xlink:title="locomotor.components.logging.\lErrorHandler.push">
<polygon fill="#ffffff" stroke="#000000" points="246.8564,-225.5 246.8564,-253.5 401.2793,-253.5 401.2793,-225.5 246.8564,-225.5"/>
<text text-anchor="start" x="254.8564" y="-241.5" font-family="Helvetica,sans-Serif" font-size="10.00" fill="#000000">locomotor.components.logging.</text>
<text text-anchor="middle" x="324.0679" y="-231.5" font-family="Helvetica,sans-Serif" font-size="10.00" fill="#000000">ErrorHandler.push</text>
</a>
</g>
</g>
<!-- Node4&#45;&gt;Node11 -->
<g id="edge11" class="edge">
<title>Node4&#45;&gt;Node11</title>
<path fill="none" stroke="#191970" d="M158.5599,-424.4868C165.6884,-396.1186 191.5527,-307.8637 246.8564,-262.5 248.438,-261.2027 250.0909,-259.9785 251.8017,-258.8234"/>
<polygon fill="#191970" stroke="#191970" points="253.8922,-261.6566 260.7775,-253.6041 250.3734,-255.6053 253.8922,-261.6566"/>
</g>
<!-- Node13 -->
<g id="node13" class="node">
<title>Node13</title>
<g id="a_node13"><a xlink:href="classlocomotor_1_1components_1_1models_1_1_item_full.html#ac7feffb7a33f63504ff1f87f19e2d2d8" target="_top" xlink:title="locomotor.components.models.\lItemFull.getDescription">
<polygon fill="#ffffff" stroke="#000000" points="246.8638,-178.5 246.8638,-206.5 401.272,-206.5 401.272,-178.5 246.8638,-178.5"/>
<text text-anchor="start" x="254.8638" y="-194.5" font-family="Helvetica,sans-Serif" font-size="10.00" fill="#000000">locomotor.components.models.</text>
<text text-anchor="middle" x="324.0679" y="-184.5" font-family="Helvetica,sans-Serif" font-size="10.00" fill="#000000">ItemFull.getDescription</text>
</a>
</g>
</g>
<!-- Node4&#45;&gt;Node13 -->
<g id="edge13" class="edge">
<title>Node4&#45;&gt;Node13</title>
<path fill="none" stroke="#191970" d="M157.4446,-424.4691C161.5976,-391.3389 180.5106,-275.3038 246.8564,-215.5 248.1778,-214.3089 249.5585,-213.1794 250.9893,-212.1083"/>
<polygon fill="#191970" stroke="#191970" points="253.1073,-214.9092 259.6683,-206.5903 249.3516,-209.0021 253.1073,-214.9092"/>
</g>
<!-- Node14 -->
<g id="node14" class="node">
<title>Node14</title>
<g id="a_node14"><a xlink:href="classlocomotor_1_1components_1_1models_1_1_item_full.html#a832e57df908361dd86dc673520d7fb81" target="_top" xlink:title="locomotor.components.models.\lItemFull.getImage">
<polygon fill="#ffffff" stroke="#000000" points="246.8638,-131.5 246.8638,-159.5 401.272,-159.5 401.272,-131.5 246.8638,-131.5"/>
<text text-anchor="start" x="254.8638" y="-147.5" font-family="Helvetica,sans-Serif" font-size="10.00" fill="#000000">locomotor.components.models.</text>
<text text-anchor="middle" x="324.0679" y="-137.5" font-family="Helvetica,sans-Serif" font-size="10.00" fill="#000000">ItemFull.getImage</text>
</a>
</g>
</g>
<!-- Node4&#45;&gt;Node14 -->
<g id="edge14" class="edge">
<title>Node4&#45;&gt;Node14</title>
<path fill="none" stroke="#191970" d="M156.6998,-424.4247C158.2518,-387.0013 169.2397,-243.1266 246.8564,-168.5 247.9907,-167.4094 249.1744,-166.3703 250.401,-165.3801"/>
<polygon fill="#191970" stroke="#191970" points="252.7267,-168.0326 259.0496,-159.5314 248.8052,-162.2341 252.7267,-168.0326"/>
</g>
<!-- Node15 -->
<g id="node15" class="node">
<title>Node15</title>
<g id="a_node15"><a xlink:href="classlocomotor_1_1core_1_1_d_b_h.html#a910cd77455fb55ffce6f9b65cb8104cc" target="_top" xlink:title="getCategoriesModel">
<polygon fill="#ffffff" stroke="#000000" points="271.3193,-94.5 271.3193,-112.5 376.8164,-112.5 376.8164,-94.5 271.3193,-94.5"/>
<text text-anchor="middle" x="324.0679" y="-100.5" font-family="Helvetica,sans-Serif" font-size="10.00" fill="#000000">getCategoriesModel</text>
</a>
</g>
</g>
<!-- Node4&#45;&gt;Node15 -->
<g id="edge15" class="edge">
<title>Node4&#45;&gt;Node15</title>
<path fill="none" stroke="#191970" d="M157.8268,-424.4015C165.0914,-377.7267 200.3096,-165.6422 246.8564,-121.5 251.2072,-117.374 256.313,-114.1311 261.7909,-111.59"/>
<polygon fill="#191970" stroke="#191970" points="263.2107,-114.7941 271.2936,-107.9444 260.7034,-108.2586 263.2107,-114.7941"/>
</g>
<!-- Node19 -->
<g id="node19" class="node">
<title>Node19</title>
<g id="a_node19"><a xlink:href="classlocomotor_1_1components_1_1models_1_1_item.html#aac70f654e73d90f5caea40c18ace4312" target="_top" xlink:title="locomotor.components.models.\lItem.getCategories">
<polygon fill="#ffffff" stroke="#000000" points="246.8638,-47.5 246.8638,-75.5 401.272,-75.5 401.272,-47.5 246.8638,-47.5"/>
<text text-anchor="start" x="254.8638" y="-63.5" font-family="Helvetica,sans-Serif" font-size="10.00" fill="#000000">locomotor.components.models.</text>
<text text-anchor="middle" x="324.0679" y="-53.5" font-family="Helvetica,sans-Serif" font-size="10.00" fill="#000000">Item.getCategories</text>
</a>
</g>
</g>
<!-- Node4&#45;&gt;Node19 -->
<g id="edge19" class="edge">
<title>Node4&#45;&gt;Node19</title>
<path fill="none" stroke="#191970" d="M157.5899,-424.3937C164.0156,-374.6452 197.102,-136.0801 246.8564,-84.5 247.785,-83.5374 248.7519,-82.6146 249.7531,-81.7299"/>
<polygon fill="#191970" stroke="#191970" points="252.0292,-84.4013 258.0289,-75.6689 247.8932,-78.7538 252.0292,-84.4013"/>
</g>
<!-- Node20 -->
<g id="node20" class="node">
<title>Node20</title>
<g id="a_node20"><a xlink:href="classlocomotor_1_1components_1_1models_1_1_category.html#a0e11818fedf98727494278ea27386dea" target="_top" xlink:title="locomotor.components.models.\lCategory.getCriterias">
<polygon fill="#ffffff" stroke="#000000" points="246.8638,-.5 246.8638,-28.5 401.272,-28.5 401.272,-.5 246.8638,-.5"/>
<text text-anchor="start" x="254.8638" y="-16.5" font-family="Helvetica,sans-Serif" font-size="10.00" fill="#000000">locomotor.components.models.</text>
<text text-anchor="middle" x="324.0679" y="-6.5" font-family="Helvetica,sans-Serif" font-size="10.00" fill="#000000">Category.getCriterias</text>
</a>
</g>
</g>
<!-- Node4&#45;&gt;Node20 -->
<g id="edge20" class="edge">
<title>Node4&#45;&gt;Node20</title>
<path fill="none" stroke="#191970" d="M157.3037,-424.2607C162.4893,-370.3536 191.2868,-96.8073 246.8564,-37.5 247.7709,-36.524 248.7248,-35.5888 249.7139,-34.6928"/>
<polygon fill="#191970" stroke="#191970" points="252.002,-37.3522 257.9161,-28.5617 247.811,-31.7455 252.002,-37.3522"/>
</g>
<!-- Node21 -->
<g id="node21" class="node">
<title>Node21</title>
<g id="a_node21"><a xlink:href="classlocomotor_1_1components_1_1models_1_1_criteria.html#a34e60b6081b4c555dc9f5b872cbe044e" target="_top" xlink:title="locomotor.components.models.\lCriteria.getID">
<polygon fill="#ffffff" stroke="#000000" points="246.8638,-722.5 246.8638,-750.5 401.272,-750.5 401.272,-722.5 246.8638,-722.5"/>
<text text-anchor="start" x="254.8638" y="-738.5" font-family="Helvetica,sans-Serif" font-size="10.00" fill="#000000">locomotor.components.models.</text>
<text text-anchor="middle" x="324.0679" y="-728.5" font-family="Helvetica,sans-Serif" font-size="10.00" fill="#000000">Criteria.getID</text>
</a>
</g>
</g>
<!-- Node4&#45;&gt;Node21 -->
<g id="edge21" class="edge">
<title>Node4&#45;&gt;Node21</title>
<path fill="none" stroke="#191970" d="M158.2356,-442.762C166.8909,-486.6513 205.6684,-673.2411 246.8564,-713.5 247.9505,-714.5693 249.0919,-715.5893 250.2748,-716.5621"/>
<polygon fill="#191970" stroke="#191970" points="248.4007,-719.5213 258.6186,-722.3227 252.3778,-713.7609 248.4007,-719.5213"/>
</g>
<!-- Node22 -->
<g id="node22" class="node">
<title>Node22</title>
<g id="a_node22"><a xlink:href="classlocomotor_1_1components_1_1types_1_1_type_factory.html#a5f92827e8d1d5348ebff49dc8bae4f65" target="_top" xlink:title="locomotor.components.types.\lTypeFactory.getItem">
<polygon fill="#ffffff" stroke="#000000" points="251.0313,-675.5 251.0313,-703.5 397.1045,-703.5 397.1045,-675.5 251.0313,-675.5"/>
<text text-anchor="start" x="259.0313" y="-691.5" font-family="Helvetica,sans-Serif" font-size="10.00" fill="#000000">locomotor.components.types.</text>
<text text-anchor="middle" x="324.0679" y="-681.5" font-family="Helvetica,sans-Serif" font-size="10.00" fill="#000000">TypeFactory.getItem</text>
</a>
</g>
</g>
<!-- Node4&#45;&gt;Node22 -->
<g id="edge22" class="edge">
<title>Node4&#45;&gt;Node22</title>
<path fill="none" stroke="#191970" d="M157.2255,-442.5928C160.6734,-477.0572 177.6059,-600.9499 246.8564,-665.5 248.5668,-667.0942 250.3814,-668.5826 252.2795,-669.9721"/>
<polygon fill="#191970" stroke="#191970" points="250.7342,-673.1332 261.0719,-675.4534 254.4374,-667.193 250.7342,-673.1332"/>
</g>
<!-- Node27 -->
<g id="node27" class="node">
<title>Node27</title>
<g id="a_node27"><a xlink:href="classlocomotor_1_1components_1_1models_1_1_criteria_model.html#a19fc0aeef83333878b7af08e6eb7dbea" target="_top" xlink:title="locomotor.components.models.\lCriteriaModel.getItemType">
<polygon fill="#ffffff" stroke="#000000" points="246.8638,-628.5 246.8638,-656.5 401.272,-656.5 401.272,-628.5 246.8638,-628.5"/>
<text text-anchor="start" x="254.8638" y="-644.5" font-family="Helvetica,sans-Serif" font-size="10.00" fill="#000000">locomotor.components.models.</text>
<text text-anchor="middle" x="324.0679" y="-634.5" font-family="Helvetica,sans-Serif" font-size="10.00" fill="#000000">CriteriaModel.getItemType</text>
</a>
</g>
</g>
<!-- Node4&#45;&gt;Node27 -->
<g id="edge27" class="edge">
<title>Node4&#45;&gt;Node27</title>
<path fill="none" stroke="#191970" d="M158.2579,-442.7837C164.6218,-472.8842 188.7806,-568.7037 246.8564,-618.5 248.8612,-620.2189 250.9883,-621.8148 253.2088,-623.2965"/>
<polygon fill="#191970" stroke="#191970" points="251.7645,-626.5037 262.1764,-628.4638 255.2593,-620.4385 251.7645,-626.5037"/>
</g>
<!-- Node28 -->
<g id="node28" class="node">
<title>Node28</title>
<g id="a_node28"><a xlink:href="classlocomotor_1_1components_1_1models_1_1_item_criteria.html#ad1dc198074d5d5e901d0e5159ded14fa" target="_top" xlink:title="locomotor.components.models.\lItemCriteria.getValue">
<polygon fill="#ffffff" stroke="#000000" points="246.8638,-581.5 246.8638,-609.5 401.272,-609.5 401.272,-581.5 246.8638,-581.5"/>
<text text-anchor="start" x="254.8638" y="-597.5" font-family="Helvetica,sans-Serif" font-size="10.00" fill="#000000">locomotor.components.models.</text>
<text text-anchor="middle" x="324.0679" y="-587.5" font-family="Helvetica,sans-Serif" font-size="10.00" fill="#000000">ItemCriteria.getValue</text>
</a>
</g>
</g>
<!-- Node4&#45;&gt;Node28 -->
<g id="edge28" class="edge">
<title>Node4&#45;&gt;Node28</title>
<path fill="none" stroke="#191970" d="M159.9113,-442.8087C169.6214,-467.6074 199.517,-535.8038 246.8564,-571.5 249.3538,-573.3831 252.0012,-575.1202 254.7539,-576.7225"/>
<polygon fill="#191970" stroke="#191970" points="253.3533,-579.9378 263.8475,-581.3944 256.5522,-573.7114 253.3533,-579.9378"/>
</g>
<!-- Node29 -->
<g id="node29" class="node">
<title>Node29</title>
<g id="a_node29"><a xlink:href="classlocomotor_1_1components_1_1models_1_1_criteria_model.html#afe6cac49dd51cda8f8dfedab30c83009" target="_top" xlink:title="locomotor.components.models.\lCriteriaModel.getUniverse">
<polygon fill="#ffffff" stroke="#000000" points="246.8638,-534.5 246.8638,-562.5 401.272,-562.5 401.272,-534.5 246.8638,-534.5"/>
<text text-anchor="start" x="254.8638" y="-550.5" font-family="Helvetica,sans-Serif" font-size="10.00" fill="#000000">locomotor.components.models.</text>
<text text-anchor="middle" x="324.0679" y="-540.5" font-family="Helvetica,sans-Serif" font-size="10.00" fill="#000000">CriteriaModel.getUniverse</text>
</a>
</g>
</g>
<!-- Node4&#45;&gt;Node29 -->
<g id="edge29" class="edge">
<title>Node4&#45;&gt;Node29</title>
<path fill="none" stroke="#191970" d="M163.0735,-442.7032C176.701,-460.9712 209.7207,-501.9863 246.8564,-524.5 250.4351,-526.6695 254.2273,-528.6593 258.1349,-530.4816"/>
<polygon fill="#191970" stroke="#191970" points="256.8439,-533.736 267.4156,-534.4359 259.5878,-527.2962 256.8439,-533.736"/>
</g>
<!-- Node30 -->
<g id="node30" class="node">
<title>Node30</title>
<g id="a_node30"><a xlink:href="classlocomotor_1_1components_1_1models_1_1_category.html#a34e60b6081b4c555dc9f5b872cbe044e" target="_top" xlink:title="locomotor.components.models.\lCategory.getID">
<polygon fill="#ffffff" stroke="#000000" points="246.8638,-487.5 246.8638,-515.5 401.272,-515.5 401.272,-487.5 246.8638,-487.5"/>
<text text-anchor="start" x="254.8638" y="-503.5" font-family="Helvetica,sans-Serif" font-size="10.00" fill="#000000">locomotor.components.models.</text>
<text text-anchor="middle" x="324.0679" y="-493.5" font-family="Helvetica,sans-Serif" font-size="10.00" fill="#000000">Category.getID</text>
</a>
</g>
</g>
<!-- Node4&#45;&gt;Node30 -->
<g id="edge30" class="edge">
<title>Node4&#45;&gt;Node30</title>
<path fill="none" stroke="#191970" d="M173.0978,-442.5527C190.9821,-452.0485 220.4021,-467.0213 246.8564,-477.5 252.6804,-479.8069 258.8201,-482.0388 264.9885,-484.1518"/>
<polygon fill="#191970" stroke="#191970" points="264.0705,-487.5349 274.664,-487.3679 266.2785,-480.8922 264.0705,-487.5349"/>
</g>
<!-- Node12 -->
<g id="node12" class="node">
<title>Node12</title>
<g id="a_node12"><a xlink:href="classlocomotor_1_1components_1_1logging_1_1_error_context.html#afcf30b71bfc65c74878c7ab77c951842" target="_top" xlink:title="locomotor.components.logging.\lErrorContext.push">
<polygon fill="#ffffff" stroke="#000000" points="437.2793,-225.5 437.2793,-253.5 591.7021,-253.5 591.7021,-225.5 437.2793,-225.5"/>
<text text-anchor="start" x="445.2793" y="-241.5" font-family="Helvetica,sans-Serif" font-size="10.00" fill="#000000">locomotor.components.logging.</text>
<text text-anchor="middle" x="514.4907" y="-231.5" font-family="Helvetica,sans-Serif" font-size="10.00" fill="#000000">ErrorContext.push</text>
</a>
</g>
</g>
<!-- Node11&#45;&gt;Node12 -->
<g id="edge12" class="edge">
<title>Node11&#45;&gt;Node12</title>
<path fill="none" stroke="#191970" d="M401.5201,-239.5C409.8654,-239.5 418.3993,-239.5 426.8531,-239.5"/>
<polygon fill="#191970" stroke="#191970" points="427.1071,-243.0001 437.1071,-239.5 427.1071,-236.0001 427.1071,-243.0001"/>
</g>
<!-- Node16 -->
<g id="node16" class="node">
<title>Node16</title>
<g id="a_node16"><a xlink:href="enumlocomotor_1_1components_1_1types_1_1_c_enum_universe_type.html#a27351fda5fe6de820d869025880f326c" target="_top" xlink:title="locomotor.components.types.\lCEnumUniverseType.valueOf">
<polygon fill="#ffffff" stroke="#000000" points="440.6265,-89.5 440.6265,-117.5 588.355,-117.5 588.355,-89.5 440.6265,-89.5"/>
<text text-anchor="start" x="448.6265" y="-105.5" font-family="Helvetica,sans-Serif" font-size="10.00" fill="#000000">locomotor.components.types.</text>
<text text-anchor="middle" x="514.4907" y="-95.5" font-family="Helvetica,sans-Serif" font-size="10.00" fill="#000000">CEnumUniverseType.valueOf</text>
</a>
</g>
</g>
<!-- Node15&#45;&gt;Node16 -->
<g id="edge16" class="edge">
<title>Node15&#45;&gt;Node16</title>
<path fill="none" stroke="#191970" d="M376.8584,-103.5C393.482,-103.5 412.2744,-103.5 430.5094,-103.5"/>
<polygon fill="#191970" stroke="#191970" points="430.5654,-107.0001 440.5654,-103.5 430.5653,-100.0001 430.5654,-107.0001"/>
</g>
<!-- Node17 -->
<g id="node17" class="node">
<title>Node17</title>
<g id="a_node17"><a xlink:href="enumlocomotor_1_1components_1_1types_1_1_c_enum_item_type.html#ab48bf5b7b36a336edf6c49f42c126494" target="_top" xlink:title="locomotor.components.types.\lCEnumItemType.valueOf">
<polygon fill="#ffffff" stroke="#000000" points="441.4541,-42.5 441.4541,-70.5 587.5273,-70.5 587.5273,-42.5 441.4541,-42.5"/>
<text text-anchor="start" x="449.4541" y="-58.5" font-family="Helvetica,sans-Serif" font-size="10.00" fill="#000000">locomotor.components.types.</text>
<text text-anchor="middle" x="514.4907" y="-48.5" font-family="Helvetica,sans-Serif" font-size="10.00" fill="#000000">CEnumItemType.valueOf</text>
</a>
</g>
</g>
<!-- Node15&#45;&gt;Node17 -->
<g id="edge17" class="edge">
<title>Node15&#45;&gt;Node17</title>
<path fill="none" stroke="#191970" d="M360.9875,-94.4243C373.7511,-91.2842 388.1445,-87.7404 401.2793,-84.5 416.3565,-80.7804 432.5616,-76.7763 447.8653,-72.992"/>
<polygon fill="#191970" stroke="#191970" points="448.9038,-76.3407 457.7709,-70.5421 447.2231,-69.5454 448.9038,-76.3407"/>
</g>
<!-- Node18 -->
<g id="node18" class="node">
<title>Node18</title>
<g id="a_node18"><a xlink:href="enumlocomotor_1_1components_1_1types_1_1_c_enum_user_type.html#a9dece4179b4a5039a4651e4885dfeec8" target="_top" xlink:title="locomotor.components.types.\lCEnumUserType.valueOf">
<polygon fill="#ffffff" stroke="#000000" points="441.4541,-136.5 441.4541,-164.5 587.5273,-164.5 587.5273,-136.5 441.4541,-136.5"/>
<text text-anchor="start" x="449.4541" y="-152.5" font-family="Helvetica,sans-Serif" font-size="10.00" fill="#000000">locomotor.components.types.</text>
<text text-anchor="middle" x="514.4907" y="-142.5" font-family="Helvetica,sans-Serif" font-size="10.00" fill="#000000">CEnumUserType.valueOf</text>
</a>
</g>
</g>
<!-- Node15&#45;&gt;Node18 -->
<g id="edge18" class="edge">
<title>Node15&#45;&gt;Node18</title>
<path fill="none" stroke="#191970" d="M363.7836,-112.5846C375.8394,-115.3892 389.1126,-118.5239 401.2793,-121.5 417.3554,-125.4324 434.6808,-129.8031 450.8272,-133.9336"/>
<polygon fill="#191970" stroke="#191970" points="450.1505,-137.3732 460.7066,-136.4682 451.8901,-130.5928 450.1505,-137.3732"/>
</g>
<!-- Node23 -->
<g id="node23" class="node">
<title>Node23</title>
<g id="a_node23"><a xlink:href="classlocomotor_1_1components_1_1types_1_1_type_factory.html#aa1f74ce70c02a7665f32b4ec438a6c3c" target="_top" xlink:title="locomotor.components.types.\lTypeFactory.getTree">
<polygon fill="#ffffff" stroke="#000000" points="441.4541,-651.5 441.4541,-679.5 587.5273,-679.5 587.5273,-651.5 441.4541,-651.5"/>
<text text-anchor="start" x="449.4541" y="-667.5" font-family="Helvetica,sans-Serif" font-size="10.00" fill="#000000">locomotor.components.types.</text>
<text text-anchor="middle" x="514.4907" y="-657.5" font-family="Helvetica,sans-Serif" font-size="10.00" fill="#000000">TypeFactory.getTree</text>
</a>
</g>
</g>
<!-- Node22&#45;&gt;Node23 -->
<g id="edge23" class="edge">
<title>Node22&#45;&gt;Node23</title>
<path fill="none" stroke="#191970" d="M397.1457,-680.2896C408.3404,-678.8787 419.9672,-677.4133 431.3595,-675.9775"/>
<polygon fill="#191970" stroke="#191970" points="431.81,-679.4485 441.2938,-674.7254 430.9346,-672.5034 431.81,-679.4485"/>
</g>
<!-- Node26 -->
<g id="node26" class="node">
<title>Node26</title>
<g id="a_node26"><a xlink:href="classlocomotor_1_1components_1_1types_1_1_c_graph_tree.html#a83eddfad98b66bd627c4b0d1cb7056ac" target="_top" xlink:title="locomotor.components.types.\lCGraphTree.getTree">
<polygon fill="#ffffff" stroke="#000000" points="441.4541,-698.5 441.4541,-726.5 587.5273,-726.5 587.5273,-698.5 441.4541,-698.5"/>
<text text-anchor="start" x="449.4541" y="-714.5" font-family="Helvetica,sans-Serif" font-size="10.00" fill="#000000">locomotor.components.types.</text>
<text text-anchor="middle" x="514.4907" y="-704.5" font-family="Helvetica,sans-Serif" font-size="10.00" fill="#000000">CGraphTree.getTree</text>
</a>
</g>
</g>
<!-- Node22&#45;&gt;Node26 -->
<g id="edge26" class="edge">
<title>Node22&#45;&gt;Node26</title>
<path fill="none" stroke="#191970" d="M397.1457,-698.3266C408.3404,-699.6788 419.9672,-701.0831 431.3595,-702.4591"/>
<polygon fill="#191970" stroke="#191970" points="430.9462,-705.9345 441.2938,-703.659 431.7857,-698.985 430.9462,-705.9345"/>
</g>
<!-- Node24 -->
<g id="node24" class="node">
<title>Node24</title>
<g id="a_node24"><a xlink:href="classlocomotor_1_1components_1_1types_1_1_c_tree.html#a74382cb3a3153edc32f1cfed8c4ee364" target="_top" xlink:title="locomotor.components.types.\lCTree.addChild">
<polygon fill="#ffffff" stroke="#000000" points="627.7021,-651.5 627.7021,-679.5 773.7754,-679.5 773.7754,-651.5 627.7021,-651.5"/>
<text text-anchor="start" x="635.7021" y="-667.5" font-family="Helvetica,sans-Serif" font-size="10.00" fill="#000000">locomotor.components.types.</text>
<text text-anchor="middle" x="700.7388" y="-657.5" font-family="Helvetica,sans-Serif" font-size="10.00" fill="#000000">CTree.addChild</text>
</a>
</g>
</g>
<!-- Node23&#45;&gt;Node24 -->
<g id="edge24" class="edge">
<title>Node23&#45;&gt;Node24</title>
<path fill="none" stroke="#191970" d="M587.5663,-665.5C597.3235,-665.5 607.389,-665.5 617.3062,-665.5"/>
<polygon fill="#191970" stroke="#191970" points="617.5682,-669.0001 627.5682,-665.5 617.5682,-662.0001 617.5682,-669.0001"/>
</g>
<!-- Node25 -->
<g id="node25" class="node">
<title>Node25</title>
<g id="a_node25"><a xlink:href="classlocomotor_1_1components_1_1types_1_1_c_tree.html#af0e7a198496b1627d0ff15ce0e6de1f2" target="_top" xlink:title="locomotor.components.types.\lCTree.CTree">
<polygon fill="#ffffff" stroke="#000000" points="809.7754,-651.5 809.7754,-679.5 955.8486,-679.5 955.8486,-651.5 809.7754,-651.5"/>
<text text-anchor="start" x="817.7754" y="-667.5" font-family="Helvetica,sans-Serif" font-size="10.00" fill="#000000">locomotor.components.types.</text>
<text text-anchor="middle" x="882.812" y="-657.5" font-family="Helvetica,sans-Serif" font-size="10.00" fill="#000000">CTree.CTree</text>
</a>
</g>
</g>
<!-- Node24&#45;&gt;Node25 -->
<g id="edge25" class="edge">
<title>Node24&#45;&gt;Node25</title>
<path fill="none" stroke="#191970" d="M774.0079,-665.5C782.3678,-665.5 790.9357,-665.5 799.4146,-665.5"/>
<polygon fill="#191970" stroke="#191970" points="799.6929,-669.0001 809.6929,-665.5 799.6928,-662.0001 799.6929,-669.0001"/>
</g>
</g>
</svg>
