<?xml version="1.0" encoding="UTF-8" standalone="no"?>
<!DOCTYPE svg PUBLIC "-//W3C//DTD SVG 1.1//EN"
 "http://www.w3.org/Graphics/SVG/1.1/DTD/svg11.dtd">
<!-- Generated by graphviz version 2.40.1 (20161225.0304)
 -->
<!-- Title: max Pages: 1 -->
<svg width="1437pt" height="98pt"
 viewBox="0.00 0.00 1436.62 98.00" xmlns="http://www.w3.org/2000/svg" xmlns:xlink="http://www.w3.org/1999/xlink">
<g id="graph0" class="graph" transform="scale(1 1) rotate(0) translate(4 94)">
<title>max</title>
<polygon fill="#ffffff" stroke="transparent" points="-4,4 -4,-94 1432.6162,-94 1432.6162,4 -4,4"/>
<!-- Node1 -->
<g id="node1" class="node">
<title>Node1</title>
<polygon fill="#bfbfbf" stroke="#000000" points="0,-24.5 0,-42.5 34.8916,-42.5 34.8916,-24.5 0,-24.5"/>
<text text-anchor="middle" x="17.4458" y="-30.5" font-family="Helvetica,sans-Serif" font-size="10.00" fill="#000000">max</text>
</g>
<!-- Node2 -->
<g id="node2" class="node">
<title>Node2</title>
<g id="a_node2"><a xlink:href="classlocomotor_1_1components_1_1types_1_1_c_weighted_integer.html#acb085d655773a5014997582a57ae2ab2" target="_top" xlink:title="locomotor.components.types.\lCWeightedInteger.compare">
<polygon fill="#ffffff" stroke="#000000" points="70.8916,-61.5 70.8916,-89.5 216.9648,-89.5 216.9648,-61.5 70.8916,-61.5"/>
<text text-anchor="start" x="78.8916" y="-77.5" font-family="Helvetica,sans-Serif" font-size="10.00" fill="#000000">locomotor.components.types.</text>
<text text-anchor="middle" x="143.9282" y="-67.5" font-family="Helvetica,sans-Serif" font-size="10.00" fill="#000000">CWeightedInteger.compare</text>
</a>
</g>
</g>
<!-- Node1&#45;&gt;Node2 -->
<g id="edge1" class="edge">
<title>Node1&#45;&gt;Node2</title>
<path fill="none" stroke="#191970" d="M44.8433,-43.4561C53.1851,-46.429 62.3946,-49.6528 70.8916,-52.5 79.7151,-55.4566 89.1741,-58.516 98.2613,-61.4009"/>
<polygon fill="#191970" stroke="#191970" points="45.7993,-40.0806 35.2048,-39.9964 43.4344,-46.669 45.7993,-40.0806"/>
</g>
<!-- Node3 -->
<g id="node3" class="node">
<title>Node3</title>
<g id="a_node3"><a xlink:href="classlocomotor_1_1components_1_1types_1_1_c_weighted_string_list.html#af359d6fddb9c42710b6546ed2337eec7" target="_top" xlink:title="CWeightedStringList">
<polygon fill="#ffffff" stroke="#000000" points="90.4399,-24.5 90.4399,-42.5 197.4165,-42.5 197.4165,-24.5 90.4399,-24.5"/>
<text text-anchor="middle" x="143.9282" y="-30.5" font-family="Helvetica,sans-Serif" font-size="10.00" fill="#000000">CWeightedStringList</text>
</a>
</g>
</g>
<!-- Node1&#45;&gt;Node3 -->
<g id="edge2" class="edge">
<title>Node1&#45;&gt;Node3</title>
<path fill="none" stroke="#191970" d="M45.3613,-33.5C58.6106,-33.5 74.9054,-33.5 90.4029,-33.5"/>
<polygon fill="#191970" stroke="#191970" points="45.0327,-30.0001 35.0326,-33.5 45.0326,-37.0001 45.0327,-30.0001"/>
</g>
<!-- Node4 -->
<g id="node4" class="node">
<title>Node4</title>
<g id="a_node4"><a xlink:href="classlocomotor_1_1components_1_1types_1_1_c_weighted_string_list.html#a7a08dcf44cd83920ed5e14cef6361de8" target="_top" xlink:title="fromJSON">
<polygon fill="#ffffff" stroke="#000000" points="252.9648,-5.5 252.9648,-23.5 315.6348,-23.5 315.6348,-5.5 252.9648,-5.5"/>
<text text-anchor="middle" x="284.2998" y="-11.5" font-family="Helvetica,sans-Serif" font-size="10.00" fill="#000000">fromJSON</text>
</a>
</g>
</g>
<!-- Node1&#45;&gt;Node4 -->
<g id="edge10" class="edge">
<title>Node1&#45;&gt;Node4</title>
<path fill="none" stroke="#191970" d="M44.4794,-22.5277C52.8087,-19.6583 62.1026,-16.9614 70.8916,-15.5 134.8517,-4.8647 211.0921,-8.3026 252.9347,-11.5428"/>
<polygon fill="#191970" stroke="#191970" points="43.0804,-19.3127 34.8968,-26.0417 45.4904,-25.8848 43.0804,-19.3127"/>
</g>
<!-- Node3&#45;&gt;Node4 -->
<g id="edge3" class="edge">
<title>Node3&#45;&gt;Node4</title>
<path fill="none" stroke="#191970" d="M207.9244,-24.8378C223.4727,-22.7333 239.4294,-20.5734 252.7102,-18.7758"/>
<polygon fill="#191970" stroke="#191970" points="207.2382,-21.3987 197.7981,-26.2084 208.1772,-28.3354 207.2382,-21.3987"/>
</g>
<!-- Node5 -->
<g id="node5" class="node">
<title>Node5</title>
<g id="a_node5"><a xlink:href="classlocomotor_1_1components_1_1types_1_1_type_factory.html#a1a64701bf13afa82b6b32bf422a171e2" target="_top" xlink:title="locomotor.components.types.\lTypeFactory.getUser">
<polygon fill="#ffffff" stroke="#000000" points="351.6348,-.5 351.6348,-28.5 497.708,-28.5 497.708,-.5 351.6348,-.5"/>
<text text-anchor="start" x="359.6348" y="-16.5" font-family="Helvetica,sans-Serif" font-size="10.00" fill="#000000">locomotor.components.types.</text>
<text text-anchor="middle" x="424.6714" y="-6.5" font-family="Helvetica,sans-Serif" font-size="10.00" fill="#000000">TypeFactory.getUser</text>
</a>
</g>
</g>
<!-- Node4&#45;&gt;Node5 -->
<g id="edge4" class="edge">
<title>Node4&#45;&gt;Node5</title>
<path fill="none" stroke="#191970" d="M325.9926,-14.5C334.043,-14.5 342.6957,-14.5 351.4118,-14.5"/>
<polygon fill="#191970" stroke="#191970" points="325.802,-11.0001 315.8019,-14.5 325.8019,-18.0001 325.802,-11.0001"/>
</g>
<!-- Node6 -->
<g id="node6" class="node">
<title>Node6</title>
<g id="a_node6"><a xlink:href="classlocomotor_1_1components_1_1models_1_1_user_criteria.html#aaca1c5ec640a1453943ce97d40e12a63" target="_top" xlink:title="locomotor.components.models.\lUserCriteria.fromJSON">
<polygon fill="#ffffff" stroke="#000000" points="533.708,-.5 533.708,-28.5 688.1162,-28.5 688.1162,-.5 533.708,-.5"/>
<text text-anchor="start" x="541.708" y="-16.5" font-family="Helvetica,sans-Serif" font-size="10.00" fill="#000000">locomotor.components.models.</text>
<text text-anchor="middle" x="610.9121" y="-6.5" font-family="Helvetica,sans-Serif" font-size="10.00" fill="#000000">UserCriteria.fromJSON</text>
</a>
</g>
</g>
<!-- Node5&#45;&gt;Node6 -->
<g id="edge5" class="edge">
<title>Node5&#45;&gt;Node6</title>
<path fill="none" stroke="#191970" d="M507.9993,-14.5C516.4668,-14.5 525.0435,-14.5 533.4452,-14.5"/>
<polygon fill="#191970" stroke="#191970" points="507.7442,-11.0001 497.7441,-14.5 507.7441,-18.0001 507.7442,-11.0001"/>
</g>
<!-- Node7 -->
<g id="node7" class="node">
<title>Node7</title>
<g id="a_node7"><a xlink:href="classlocomotor_1_1components_1_1models_1_1_user_category.html#a52e02970889790bace019e61fb256ff0" target="_top" xlink:title="locomotor.components.models.\lUserCategory.fromJSON">
<polygon fill="#ffffff" stroke="#000000" points="724.1162,-.5 724.1162,-28.5 878.5244,-28.5 878.5244,-.5 724.1162,-.5"/>
<text text-anchor="start" x="732.1162" y="-16.5" font-family="Helvetica,sans-Serif" font-size="10.00" fill="#000000">locomotor.components.models.</text>
<text text-anchor="middle" x="801.3203" y="-6.5" font-family="Helvetica,sans-Serif" font-size="10.00" fill="#000000">UserCategory.fromJSON</text>
</a>
</g>
</g>
<!-- Node6&#45;&gt;Node7 -->
<g id="edge6" class="edge">
<title>Node6&#45;&gt;Node7</title>
<path fill="none" stroke="#191970" d="M698.6125,-14.5C707.0661,-14.5 715.5991,-14.5 723.9426,-14.5"/>
<polygon fill="#191970" stroke="#191970" points="698.3584,-11.0001 688.3584,-14.5 698.3584,-18.0001 698.3584,-11.0001"/>
</g>
<!-- Node8 -->
<g id="node8" class="node">
<title>Node8</title>
<g id="a_node8"><a xlink:href="classlocomotor_1_1components_1_1models_1_1_user_item.html#ab97f79cf43a9a73bcd77cec6b449a79a" target="_top" xlink:title="locomotor.components.models.\lUserItem.fromJSON">
<polygon fill="#ffffff" stroke="#000000" points="914.5244,-.5 914.5244,-28.5 1068.9326,-28.5 1068.9326,-.5 914.5244,-.5"/>
<text text-anchor="start" x="922.5244" y="-16.5" font-family="Helvetica,sans-Serif" font-size="10.00" fill="#000000">locomotor.components.models.</text>
<text text-anchor="middle" x="991.7285" y="-6.5" font-family="Helvetica,sans-Serif" font-size="10.00" fill="#000000">UserItem.fromJSON</text>
</a>
</g>
</g>
<!-- Node7&#45;&gt;Node8 -->
<g id="edge7" class="edge">
<title>Node7&#45;&gt;Node8</title>
<path fill="none" stroke="#191970" d="M889.0207,-14.5C897.4743,-14.5 906.0073,-14.5 914.3508,-14.5"/>
<polygon fill="#191970" stroke="#191970" points="888.7667,-11.0001 878.7666,-14.5 888.7666,-18.0001 888.7667,-11.0001"/>
</g>
<!-- Node9 -->
<g id="node9" class="node">
<title>Node9</title>
<g id="a_node9"><a xlink:href="classlocomotor_1_1components_1_1network_1_1_a_p_i.html#a547463fbc7fb7b485886f0917e2c0b78" target="_top" xlink:title="locomotor.components.network.\lAPI.createHooks">
<polygon fill="#ffffff" stroke="#000000" points="1104.9326,-.5 1104.9326,-28.5 1262.1191,-28.5 1262.1191,-.5 1104.9326,-.5"/>
<text text-anchor="start" x="1112.9326" y="-16.5" font-family="Helvetica,sans-Serif" font-size="10.00" fill="#000000">locomotor.components.network.</text>
<text text-anchor="middle" x="1183.5259" y="-6.5" font-family="Helvetica,sans-Serif" font-size="10.00" fill="#000000">API.createHooks</text>
</a>
</g>
</g>
<!-- Node8&#45;&gt;Node9 -->
<g id="edge8" class="edge">
<title>Node8&#45;&gt;Node9</title>
<path fill="none" stroke="#191970" d="M1079.4532,-14.5C1087.9191,-14.5 1096.4705,-14.5 1104.8411,-14.5"/>
<polygon fill="#191970" stroke="#191970" points="1079.187,-11.0001 1069.187,-14.5 1079.187,-18.0001 1079.187,-11.0001"/>
</g>
<!-- Node10 -->
<g id="node10" class="node">
<title>Node10</title>
<g id="a_node10"><a xlink:href="classlocomotor_1_1core_1_1_main.html#a8b260eecbaabcef8473fd87ada040682" target="_top" xlink:title="locomotor.core.Main.main">
<polygon fill="#ffffff" stroke="#000000" points="1298.1191,-5.5 1298.1191,-23.5 1428.6162,-23.5 1428.6162,-5.5 1298.1191,-5.5"/>
<text text-anchor="middle" x="1363.3677" y="-11.5" font-family="Helvetica,sans-Serif" font-size="10.00" fill="#000000">locomotor.core.Main.main</text>
</a>
</g>
</g>
<!-- Node9&#45;&gt;Node10 -->
<g id="edge9" class="edge">
<title>Node9&#45;&gt;Node10</title>
<path fill="none" stroke="#191970" d="M1272.3189,-14.5C1281.0072,-14.5 1289.7095,-14.5 1298.1014,-14.5"/>
<polygon fill="#191970" stroke="#191970" points="1272.1455,-11.0001 1262.1455,-14.5 1272.1455,-18.0001 1272.1455,-11.0001"/>
</g>
</g>
</svg>
