<?xml version="1.0" encoding="UTF-8" standalone="no"?>
<!DOCTYPE svg PUBLIC "-//W3C//DTD SVG 1.1//EN"
 "http://www.w3.org/Graphics/SVG/1.1/DTD/svg11.dtd">
<!-- Generated by graphviz version 2.40.1 (20161225.0304)
 -->
<!-- Title: createLongToken Pages: 1 -->
<svg width="460pt" height="37pt"
 viewBox="0.00 0.00 460.41 37.00" xmlns="http://www.w3.org/2000/svg" xmlns:xlink="http://www.w3.org/1999/xlink">
<g id="graph0" class="graph" transform="scale(1 1) rotate(0) translate(4 33)">
<title>createLongToken</title>
<polygon fill="#ffffff" stroke="transparent" points="-4,4 -4,-33 456.4072,-33 456.4072,4 -4,4"/>
<!-- Node1 -->
<g id="node1" class="node">
<title>Node1</title>
<polygon fill="#bfbfbf" stroke="#000000" points="0,-5.5 0,-23.5 92.7236,-23.5 92.7236,-5.5 0,-5.5"/>
<text text-anchor="middle" x="46.3618" y="-11.5" font-family="Helvetica,sans-Serif" font-size="10.00" fill="#000000">createLongToken</text>
</g>
<!-- Node2 -->
<g id="node2" class="node">
<title>Node2</title>
<g id="a_node2"><a xlink:href="classlocomotor_1_1components_1_1network_1_1_a_p_i.html#a547463fbc7fb7b485886f0917e2c0b78" target="_top" xlink:title="locomotor.components.network.\lAPI.createHooks">
<polygon fill="#ffffff" stroke="#000000" points="128.7236,-.5 128.7236,-28.5 285.9102,-28.5 285.9102,-.5 128.7236,-.5"/>
<text text-anchor="start" x="136.7236" y="-16.5" font-family="Helvetica,sans-Serif" font-size="10.00" fill="#000000">locomotor.components.network.</text>
<text text-anchor="middle" x="207.3169" y="-6.5" font-family="Helvetica,sans-Serif" font-size="10.00" fill="#000000">API.createHooks</text>
</a>
</g>
</g>
<!-- Node1&#45;&gt;Node2 -->
<g id="edge1" class="edge">
<title>Node1&#45;&gt;Node2</title>
<path fill="none" stroke="#191970" d="M103.1777,-14.5C111.4569,-14.5 120.1028,-14.5 128.7199,-14.5"/>
<polygon fill="#191970" stroke="#191970" points="102.9167,-11.0001 92.9167,-14.5 102.9167,-18.0001 102.9167,-11.0001"/>
</g>
<!-- Node3 -->
<g id="node3" class="node">
<title>Node3</title>
<g id="a_node3"><a xlink:href="classlocomotor_1_1core_1_1_main.html#a8b260eecbaabcef8473fd87ada040682" target="_top" xlink:title="locomotor.core.Main.main">
<polygon fill="#ffffff" stroke="#000000" points="321.9102,-5.5 321.9102,-23.5 452.4072,-23.5 452.4072,-5.5 321.9102,-5.5"/>
<text text-anchor="middle" x="387.1587" y="-11.5" font-family="Helvetica,sans-Serif" font-size="10.00" fill="#000000">locomotor.core.Main.main</text>
</a>
</g>
</g>
<!-- Node2&#45;&gt;Node3 -->
<g id="edge2" class="edge">
<title>Node2&#45;&gt;Node3</title>
<path fill="none" stroke="#191970" d="M296.1099,-14.5C304.7982,-14.5 313.5006,-14.5 321.8924,-14.5"/>
<polygon fill="#191970" stroke="#191970" points="295.9365,-11.0001 285.9365,-14.5 295.9365,-18.0001 295.9365,-11.0001"/>
</g>
</g>
</svg>
