<?xml version="1.0" encoding="UTF-8" standalone="no"?>
<!DOCTYPE svg PUBLIC "-//W3C//DTD SVG 1.1//EN"
 "http://www.w3.org/Graphics/SVG/1.1/DTD/svg11.dtd">
<!-- Generated by graphviz version 2.40.1 (20161225.0304)
 -->
<!-- Title: createToken Pages: 1 -->
<svg width="569pt" height="64pt"
 viewBox="0.00 0.00 568.54 64.00" xmlns="http://www.w3.org/2000/svg" xmlns:xlink="http://www.w3.org/1999/xlink">
<g id="graph0" class="graph" transform="scale(1 1) rotate(0) translate(4 60)">
<title>createToken</title>
<polygon fill="#ffffff" stroke="transparent" points="-4,4 -4,-60 564.54,-60 564.54,4 -4,4"/>
<!-- Node1 -->
<g id="node1" class="node">
<title>Node1</title>
<polygon fill="#bfbfbf" stroke="#000000" points="0,-18.5 0,-36.5 70.4775,-36.5 70.4775,-18.5 0,-18.5"/>
<text text-anchor="middle" x="35.2388" y="-24.5" font-family="Helvetica,sans-Serif" font-size="10.00" fill="#000000">createToken</text>
</g>
<!-- Node2 -->
<g id="node2" class="node">
<title>Node2</title>
<g id="a_node2"><a xlink:href="classlocomotor_1_1core_1_1jwt_1_1_j_w_t_h.html#a1ced72f10559e8525f069895d88d129e" target="_top" xlink:title="createShortToken">
<polygon fill="#ffffff" stroke="#000000" points="106.4775,-37.5 106.4775,-55.5 200.8564,-55.5 200.8564,-37.5 106.4775,-37.5"/>
<text text-anchor="middle" x="153.667" y="-43.5" font-family="Helvetica,sans-Serif" font-size="10.00" fill="#000000">createShortToken</text>
</a>
</g>
</g>
<!-- Node1&#45;&gt;Node2 -->
<g id="edge1" class="edge">
<title>Node1&#45;&gt;Node2</title>
<path fill="none" stroke="#191970" d="M80.75,-34.8016C89.128,-36.1457 97.8933,-37.552 106.3238,-38.9045"/>
<polygon fill="#191970" stroke="#191970" points="81.1993,-31.329 70.7711,-33.2006 80.0904,-38.2406 81.1993,-31.329"/>
</g>
<!-- Node5 -->
<g id="node5" class="node">
<title>Node5</title>
<g id="a_node5"><a xlink:href="classlocomotor_1_1core_1_1jwt_1_1_j_w_t_h.html#aecfcf9e71a9ee5c1446176865a746a5c" target="_top" xlink:title="createLongToken">
<polygon fill="#ffffff" stroke="#000000" points="107.3052,-.5 107.3052,-18.5 200.0288,-18.5 200.0288,-.5 107.3052,-.5"/>
<text text-anchor="middle" x="153.667" y="-6.5" font-family="Helvetica,sans-Serif" font-size="10.00" fill="#000000">createLongToken</text>
</a>
</g>
</g>
<!-- Node1&#45;&gt;Node5 -->
<g id="edge4" class="edge">
<title>Node1&#45;&gt;Node5</title>
<path fill="none" stroke="#191970" d="M80.7163,-20.5878C89.3919,-19.2692 98.4839,-17.8873 107.1903,-16.564"/>
<polygon fill="#191970" stroke="#191970" points="80.1316,-17.1364 70.7711,-22.0994 81.1836,-24.0569 80.1316,-17.1364"/>
</g>
<!-- Node3 -->
<g id="node3" class="node">
<title>Node3</title>
<g id="a_node3"><a xlink:href="classlocomotor_1_1components_1_1network_1_1_a_p_i.html#a547463fbc7fb7b485886f0917e2c0b78" target="_top" xlink:title="locomotor.components.network.\lAPI.createHooks">
<polygon fill="#ffffff" stroke="#000000" points="236.8564,-13.5 236.8564,-41.5 394.043,-41.5 394.043,-13.5 236.8564,-13.5"/>
<text text-anchor="start" x="244.8564" y="-29.5" font-family="Helvetica,sans-Serif" font-size="10.00" fill="#000000">locomotor.components.network.</text>
<text text-anchor="middle" x="315.4497" y="-19.5" font-family="Helvetica,sans-Serif" font-size="10.00" fill="#000000">API.createHooks</text>
</a>
</g>
</g>
<!-- Node2&#45;&gt;Node3 -->
<g id="edge2" class="edge">
<title>Node2&#45;&gt;Node3</title>
<path fill="none" stroke="#191970" d="M210.9219,-39.7759C219.3149,-38.7902 228.0802,-37.7608 236.8104,-36.7355"/>
<polygon fill="#191970" stroke="#191970" points="210.4196,-36.3107 200.8962,-40.9533 211.2362,-43.263 210.4196,-36.3107"/>
</g>
<!-- Node4 -->
<g id="node4" class="node">
<title>Node4</title>
<g id="a_node4"><a xlink:href="classlocomotor_1_1core_1_1_main.html#a8b260eecbaabcef8473fd87ada040682" target="_top" xlink:title="locomotor.core.Main.main">
<polygon fill="#ffffff" stroke="#000000" points="430.043,-18.5 430.043,-36.5 560.54,-36.5 560.54,-18.5 430.043,-18.5"/>
<text text-anchor="middle" x="495.2915" y="-24.5" font-family="Helvetica,sans-Serif" font-size="10.00" fill="#000000">locomotor.core.Main.main</text>
</a>
</g>
</g>
<!-- Node3&#45;&gt;Node4 -->
<g id="edge3" class="edge">
<title>Node3&#45;&gt;Node4</title>
<path fill="none" stroke="#191970" d="M404.2427,-27.5C412.931,-27.5 421.6334,-27.5 430.0252,-27.5"/>
<polygon fill="#191970" stroke="#191970" points="404.0693,-24.0001 394.0693,-27.5 404.0693,-31.0001 404.0693,-24.0001"/>
</g>
<!-- Node5&#45;&gt;Node3 -->
<g id="edge5" class="edge">
<title>Node5&#45;&gt;Node3</title>
<path fill="none" stroke="#191970" d="M210.5826,-15.8324C219.0605,-16.7757 227.9247,-17.7619 236.7539,-18.7443"/>
<polygon fill="#191970" stroke="#191970" points="210.787,-12.3337 200.4613,-14.7063 210.0129,-19.2907 210.787,-12.3337"/>
</g>
</g>
</svg>
