<?xml version="1.0" encoding="UTF-8" standalone="no"?>
<!DOCTYPE svg PUBLIC "-//W3C//DTD SVG 1.1//EN"
 "http://www.w3.org/Graphics/SVG/1.1/DTD/svg11.dtd">
<!-- Generated by graphviz version 2.40.1 (20161225.0304)
 -->
<!-- Title: removeBooking Pages: 1 -->
<svg width="453pt" height="37pt"
 viewBox="0.00 0.00 453.17 37.00" xmlns="http://www.w3.org/2000/svg" xmlns:xlink="http://www.w3.org/1999/xlink">
<g id="graph0" class="graph" transform="scale(1 1) rotate(0) translate(4 33)">
<title>removeBooking</title>
<polygon fill="#ffffff" stroke="transparent" points="-4,4 -4,-33 449.166,-33 449.166,4 -4,4"/>
<!-- Node1 -->
<g id="node1" class="node">
<title>Node1</title>
<polygon fill="#bfbfbf" stroke="#000000" points="0,-5.5 0,-23.5 85.4824,-23.5 85.4824,-5.5 0,-5.5"/>
<text text-anchor="middle" x="42.7412" y="-11.5" font-family="Helvetica,sans-Serif" font-size="10.00" fill="#000000">removeBooking</text>
</g>
<!-- Node2 -->
<g id="node2" class="node">
<title>Node2</title>
<g id="a_node2"><a xlink:href="classlocomotor_1_1components_1_1network_1_1_a_p_i.html#a547463fbc7fb7b485886f0917e2c0b78" target="_top" xlink:title="locomotor.components.network.\lAPI.createHooks">
<polygon fill="#ffffff" stroke="#000000" points="121.4824,-.5 121.4824,-28.5 278.6689,-28.5 278.6689,-.5 121.4824,-.5"/>
<text text-anchor="start" x="129.4824" y="-16.5" font-family="Helvetica,sans-Serif" font-size="10.00" fill="#000000">locomotor.components.network.</text>
<text text-anchor="middle" x="200.0757" y="-6.5" font-family="Helvetica,sans-Serif" font-size="10.00" fill="#000000">API.createHooks</text>
</a>
</g>
</g>
<!-- Node1&#45;&gt;Node2 -->
<g id="edge1" class="edge">
<title>Node1&#45;&gt;Node2</title>
<path fill="none" stroke="#191970" d="M95.9059,-14.5C104.138,-14.5 112.7879,-14.5 121.4373,-14.5"/>
<polygon fill="#191970" stroke="#191970" points="95.7336,-11.0001 85.7335,-14.5 95.7335,-18.0001 95.7336,-11.0001"/>
</g>
<!-- Node3 -->
<g id="node3" class="node">
<title>Node3</title>
<g id="a_node3"><a xlink:href="classlocomotor_1_1core_1_1_main.html#a8b260eecbaabcef8473fd87ada040682" target="_top" xlink:title="locomotor.core.Main.main">
<polygon fill="#ffffff" stroke="#000000" points="314.6689,-5.5 314.6689,-23.5 445.166,-23.5 445.166,-5.5 314.6689,-5.5"/>
<text text-anchor="middle" x="379.9175" y="-11.5" font-family="Helvetica,sans-Serif" font-size="10.00" fill="#000000">locomotor.core.Main.main</text>
</a>
</g>
</g>
<!-- Node2&#45;&gt;Node3 -->
<g id="edge2" class="edge">
<title>Node2&#45;&gt;Node3</title>
<path fill="none" stroke="#191970" d="M288.8687,-14.5C297.557,-14.5 306.2594,-14.5 314.6512,-14.5"/>
<polygon fill="#191970" stroke="#191970" points="288.6953,-11.0001 278.6953,-14.5 288.6953,-18.0001 288.6953,-11.0001"/>
</g>
</g>
</svg>
