<?xml version="1.0" encoding="UTF-8" standalone="no"?>
<!DOCTYPE svg PUBLIC "-//W3C//DTD SVG 1.1//EN"
 "http://www.w3.org/Graphics/SVG/1.1/DTD/svg11.dtd">
<!-- Generated by graphviz version 2.40.1 (20161225.0304)
 -->
<!-- Title: getUniverse Pages: 1 -->
<svg width="437pt" height="37pt"
 viewBox="0.00 0.00 437.04 37.00" xmlns="http://www.w3.org/2000/svg" xmlns:xlink="http://www.w3.org/1999/xlink">
<g id="graph0" class="graph" transform="scale(1 1) rotate(0) translate(4 33)">
<title>getUniverse</title>
<polygon fill="#ffffff" stroke="transparent" points="-4,4 -4,-33 433.043,-33 433.043,4 -4,4"/>
<!-- Node1 -->
<g id="node1" class="node">
<title>Node1</title>
<polygon fill="#bfbfbf" stroke="#000000" points="0,-5.5 0,-23.5 69.3594,-23.5 69.3594,-5.5 0,-5.5"/>
<text text-anchor="middle" x="34.6797" y="-11.5" font-family="Helvetica,sans-Serif" font-size="10.00" fill="#000000">getUniverse</text>
</g>
<!-- Node2 -->
<g id="node2" class="node">
<title>Node2</title>
<g id="a_node2"><a xlink:href="classlocomotor_1_1components_1_1network_1_1_a_p_i.html#a547463fbc7fb7b485886f0917e2c0b78" target="_top" xlink:title="locomotor.components.network.\lAPI.createHooks">
<polygon fill="#ffffff" stroke="#000000" points="105.3594,-.5 105.3594,-28.5 262.5459,-28.5 262.5459,-.5 105.3594,-.5"/>
<text text-anchor="start" x="113.3594" y="-16.5" font-family="Helvetica,sans-Serif" font-size="10.00" fill="#000000">locomotor.components.network.</text>
<text text-anchor="middle" x="183.9526" y="-6.5" font-family="Helvetica,sans-Serif" font-size="10.00" fill="#000000">API.createHooks</text>
</a>
</g>
</g>
<!-- Node1&#45;&gt;Node2 -->
<g id="edge1" class="edge">
<title>Node1&#45;&gt;Node2</title>
<path fill="none" stroke="#191970" d="M79.9161,-14.5C87.9729,-14.5 96.5737,-14.5 105.2479,-14.5"/>
<polygon fill="#191970" stroke="#191970" points="79.6776,-11.0001 69.6776,-14.5 79.6775,-18.0001 79.6776,-11.0001"/>
</g>
<!-- Node3 -->
<g id="node3" class="node">
<title>Node3</title>
<g id="a_node3"><a xlink:href="classlocomotor_1_1core_1_1_main.html#a8b260eecbaabcef8473fd87ada040682" target="_top" xlink:title="locomotor.core.Main.main">
<polygon fill="#ffffff" stroke="#000000" points="298.5459,-5.5 298.5459,-23.5 429.043,-23.5 429.043,-5.5 298.5459,-5.5"/>
<text text-anchor="middle" x="363.7944" y="-11.5" font-family="Helvetica,sans-Serif" font-size="10.00" fill="#000000">locomotor.core.Main.main</text>
</a>
</g>
</g>
<!-- Node2&#45;&gt;Node3 -->
<g id="edge2" class="edge">
<title>Node2&#45;&gt;Node3</title>
<path fill="none" stroke="#191970" d="M272.7457,-14.5C281.434,-14.5 290.1363,-14.5 298.5282,-14.5"/>
<polygon fill="#191970" stroke="#191970" points="272.5723,-11.0001 262.5722,-14.5 272.5722,-18.0001 272.5723,-11.0001"/>
</g>
</g>
</svg>
