<?xml version="1.0" encoding="UTF-8" standalone="no"?>
<!DOCTYPE svg PUBLIC "-//W3C//DTD SVG 1.1//EN"
 "http://www.w3.org/Graphics/SVG/1.1/DTD/svg11.dtd">
<!-- Generated by graphviz version 2.40.1 (20161225.0304)
 -->
<!-- Title: deleteItemWith Pages: 1 -->
<svg width="299pt" height="64pt"
 viewBox="0.00 0.00 299.19 64.00" xmlns="http://www.w3.org/2000/svg" xmlns:xlink="http://www.w3.org/1999/xlink">
<g id="graph0" class="graph" transform="scale(1 1) rotate(0) translate(4 60)">
<title>deleteItemWith</title>
<polygon fill="#ffffff" stroke="transparent" points="-4,4 -4,-60 295.1914,-60 295.1914,4 -4,4"/>
<!-- Node1 -->
<g id="node1" class="node">
<title>Node1</title>
<polygon fill="#bfbfbf" stroke="#000000" points="0,-18.5 0,-36.5 82.6943,-36.5 82.6943,-18.5 0,-18.5"/>
<text text-anchor="middle" x="41.3472" y="-24.5" font-family="Helvetica,sans-Serif" font-size="10.00" fill="#000000">deleteItemWith</text>
</g>
<!-- Node2 -->
<g id="node2" class="node">
<title>Node2</title>
<g id="a_node2"><a xlink:href="classlocomotor_1_1core_1_1_d_b_h.html#a0b2d292079fe232a4c3dae4636167641" target="_top" xlink:title="getInstance">
<polygon fill="#ffffff" stroke="#000000" points="134.5342,-37.5 134.5342,-55.5 202.2383,-55.5 202.2383,-37.5 134.5342,-37.5"/>
<text text-anchor="middle" x="168.3862" y="-43.5" font-family="Helvetica,sans-Serif" font-size="10.00" fill="#000000">getInstance</text>
</a>
</g>
</g>
<!-- Node1&#45;&gt;Node2 -->
<g id="edge1" class="edge">
<title>Node1&#45;&gt;Node2</title>
<path fill="none" stroke="#191970" d="M82.9445,-33.7213C96.2073,-35.7049 110.9235,-37.9059 124.353,-39.9144"/>
<polygon fill="#191970" stroke="#191970" points="123.9187,-43.3883 134.3264,-41.406 124.9542,-36.4653 123.9187,-43.3883"/>
</g>
<!-- Node4 -->
<g id="node4" class="node">
<title>Node4</title>
<g id="a_node4"><a xlink:href="classlocomotor_1_1core_1_1_d_b_h.html#ae57fb51ee28914968135398ce849d8e1" target="_top" xlink:title="deleteBookingWith">
<polygon fill="#ffffff" stroke="#000000" points="118.6943,-.5 118.6943,-18.5 218.0781,-18.5 218.0781,-.5 118.6943,-.5"/>
<text text-anchor="middle" x="168.3862" y="-6.5" font-family="Helvetica,sans-Serif" font-size="10.00" fill="#000000">deleteBookingWith</text>
</a>
</g>
</g>
<!-- Node1&#45;&gt;Node4 -->
<g id="edge3" class="edge">
<title>Node1&#45;&gt;Node4</title>
<path fill="none" stroke="#191970" d="M82.9445,-21.6061C91.0582,-20.4565 99.7159,-19.2298 108.2901,-18.0149"/>
<polygon fill="#191970" stroke="#191970" points="108.8695,-21.4679 118.2796,-16.5995 107.8875,-14.5371 108.8695,-21.4679"/>
</g>
<!-- Node3 -->
<g id="node3" class="node">
<title>Node3</title>
<g id="a_node3"><a xlink:href="classlocomotor_1_1core_1_1_d_b_h.html#a2d5f1f766f5863a46ed29b7e56118364" target="_top" xlink:title="DBH">
<polygon fill="#ffffff" stroke="#000000" points="254.0781,-37.5 254.0781,-55.5 291.1914,-55.5 291.1914,-37.5 254.0781,-37.5"/>
<text text-anchor="middle" x="272.6348" y="-43.5" font-family="Helvetica,sans-Serif" font-size="10.00" fill="#000000">DBH</text>
</a>
</g>
</g>
<!-- Node2&#45;&gt;Node3 -->
<g id="edge2" class="edge">
<title>Node2&#45;&gt;Node3</title>
<path fill="none" stroke="#191970" d="M202.5211,-46.5C215.8819,-46.5 231.0401,-46.5 243.8357,-46.5"/>
<polygon fill="#191970" stroke="#191970" points="243.9371,-50.0001 253.9371,-46.5 243.937,-43.0001 243.9371,-50.0001"/>
</g>
</g>
</svg>
