<?xml version="1.0" encoding="UTF-8" standalone="no"?>
<!DOCTYPE svg PUBLIC "-//W3C//DTD SVG 1.1//EN"
 "http://www.w3.org/Graphics/SVG/1.1/DTD/svg11.dtd">
<!-- Generated by graphviz version 2.40.1 (20161225.0304)
 -->
<!-- Title: getItemType Pages: 1 -->
<!--zoomable 188 -->
<svg id="main" version="1.1" xmlns="http://www.w3.org/2000/svg" xmlns:xlink="http://www.w3.org/1999/xlink" xml:space="preserve" onload="init(evt)">
<style type="text/css"><![CDATA[
.edge:hover path { stroke: red; }
.edge:hover polygon { stroke: red; fill: red; }
]]></style>
<script type="text/javascript"><![CDATA[
var edges = document.getElementsByTagName('g');
if (edges && edges.length) {
  for (var i=0;i<edges.length;i++) {
    if (edges[i].id.substr(0,4)=='edge') {
      edges[i].setAttribute('class','edge');
    }
  }
}
]]></script>
        <defs>
                <circle id="rim" cx="0" cy="0" r="7"/>
                <circle id="rim2" cx="0" cy="0" r="3.5"/>
                <g id="zoomPlus">
                        <use xlink:href="#rim" fill="#404040">
                                <set attributeName="fill" to="#808080" begin="zoomplus.mouseover" end="zoomplus.mouseout"/>
                        </use>
                        <path d="M-4,0h8M0,-4v8" fill="none" stroke="white" stroke-width="1.5" pointer-events="none"/>
                </g>
                <g id="zoomMin">
                        <use xlink:href="#rim" fill="#404040">
                                <set attributeName="fill" to="#808080" begin="zoomminus.mouseover" end="zoomminus.mouseout"/>
                        </use>
                        <path d="M-4,0h8" fill="none" stroke="white" stroke-width="1.5" pointer-events="none"/>
                </g>
                <g id="dirArrow">
                        <path fill="none" stroke="white" stroke-width="1.5" d="M0,-3.0v7 M-2.5,-0.5L0,-3.0L2.5,-0.5"/>
                </g>
               <g id="resetDef">
                       <use xlink:href="#rim2" fill="#404040">
                               <set attributeName="fill" to="#808080" begin="reset.mouseover" end="reset.mouseout"/>
                       </use>
               </g>
        </defs>

<script type="text/javascript">
var viewWidth = 1014;
var viewHeight = 188;
var sectionId = 'dynsection-2';
</script>
<script xlink:href="svgpan.js"/>
<svg id="graph" class="graph">
<g id="viewport">
<title>getItemType</title>
<polygon fill="#ffffff" stroke="transparent" points="-4,4 -4,-184 1009.8291,-184 1009.8291,4 -4,4"/>
<!-- Node1 -->
<g id="node1" class="node">
<title>Node1</title>
<polygon fill="#bfbfbf" stroke="#000000" points="0,-94.5 0,-112.5 71.0342,-112.5 71.0342,-94.5 0,-94.5"/>
<text text-anchor="middle" x="35.5171" y="-100.5" font-family="Helvetica,sans-Serif" font-size="10.00" fill="#000000">getItemType</text>
</g>
<!-- Node2 -->
<g id="node2" class="node">
<title>Node2</title>
<g id="a_node2"><a xlink:href="classlocomotor_1_1components_1_1models_1_1_item_criteria_full.html#a436730a3499b6d7b1d0359e12aa2f04a" target="_top" xlink:title="locomotor.components.models.\lItemCriteriaFull.fromJSON">
<polygon fill="#ffffff" stroke="#000000" points="107.0342,-151.5 107.0342,-179.5 261.4424,-179.5 261.4424,-151.5 107.0342,-151.5"/>
<text text-anchor="start" x="115.0342" y="-167.5" font-family="Helvetica,sans-Serif" font-size="10.00" fill="#000000">locomotor.components.models.</text>
<text text-anchor="middle" x="184.2383" y="-157.5" font-family="Helvetica,sans-Serif" font-size="10.00" fill="#000000">ItemCriteriaFull.fromJSON</text>
</a>
</g>
</g>
<!-- Node1&#45;&gt;Node2 -->
<g id="edge1" class="edge">
<title>Node1&#45;&gt;Node2</title>
<path fill="none" stroke="#191970" d="M63.5853,-117.0274C76.6882,-123.1934 92.5562,-130.4501 107.0342,-136.5 119.3203,-141.634 132.8686,-146.8651 145.1407,-151.4451"/>
<polygon fill="#191970" stroke="#191970" points="64.7083,-113.6863 54.1732,-112.5628 61.7083,-120.0109 64.7083,-113.6863"/>
</g>
<!-- Node7 -->
<g id="node7" class="node">
<title>Node7</title>
<g id="a_node7"><a xlink:href="classlocomotor_1_1core_1_1_d_b_h.html#ae573347d7e17b2bf2bac3c4a41caf0fa" target="_top" xlink:title="locomotor.core.DBH.getItem">
<polygon fill="#ffffff" stroke="#000000" points="303.8413,-113.5 303.8413,-131.5 445.4517,-131.5 445.4517,-113.5 303.8413,-113.5"/>
<text text-anchor="middle" x="374.6465" y="-119.5" font-family="Helvetica,sans-Serif" font-size="10.00" fill="#000000">locomotor.core.DBH.getItem</text>
</a>
</g>
</g>
<!-- Node1&#45;&gt;Node7 -->
<g id="edge6" class="edge">
<title>Node1&#45;&gt;Node7</title>
<path fill="none" stroke="#191970" d="M81.3371,-106.0671C138.4457,-109.2667 236.6654,-114.7695 303.5716,-118.518"/>
<polygon fill="#191970" stroke="#191970" points="81.3491,-102.5624 71.1689,-105.4974 80.9574,-109.5514 81.3491,-102.5624"/>
</g>
<!-- Node8 -->
<g id="node8" class="node">
<title>Node8</title>
<g id="a_node8"><a xlink:href="classlocomotor_1_1core_1_1_d_b_h.html#a6856661b356e5441d182e061ef940aaf" target="_top" xlink:title="locomotor.core.DBH.getItems">
<polygon fill="#ffffff" stroke="#000000" points="110.9331,-75.5 110.9331,-93.5 257.5435,-93.5 257.5435,-75.5 110.9331,-75.5"/>
<text text-anchor="middle" x="184.2383" y="-81.5" font-family="Helvetica,sans-Serif" font-size="10.00" fill="#000000">locomotor.core.DBH.getItems</text>
</a>
</g>
</g>
<!-- Node1&#45;&gt;Node8 -->
<g id="edge8" class="edge">
<title>Node1&#45;&gt;Node8</title>
<path fill="none" stroke="#191970" d="M81.1049,-97.6759C91.3964,-96.3611 102.5572,-94.9352 113.6079,-93.5234"/>
<polygon fill="#191970" stroke="#191970" points="80.6153,-94.2099 71.1395,-98.949 81.5025,-101.1535 80.6153,-94.2099"/>
</g>
<!-- Node9 -->
<g id="node9" class="node">
<title>Node9</title>
<g id="a_node9"><a xlink:href="classlocomotor_1_1core_1_1_d_b_h.html#ad067053be75a3170dc9c2ce7b922e176" target="_top" xlink:title="locomotor.core.DBH.checking\lParsingItem">
<polygon fill="#ffffff" stroke="#000000" points="300.7822,-27.5 300.7822,-55.5 448.5107,-55.5 448.5107,-27.5 300.7822,-27.5"/>
<text text-anchor="start" x="308.7822" y="-43.5" font-family="Helvetica,sans-Serif" font-size="10.00" fill="#000000">locomotor.core.DBH.checking</text>
<text text-anchor="middle" x="374.6465" y="-33.5" font-family="Helvetica,sans-Serif" font-size="10.00" fill="#000000">ParsingItem</text>
</a>
</g>
</g>
<!-- Node1&#45;&gt;Node9 -->
<g id="edge10" class="edge">
<title>Node1&#45;&gt;Node9</title>
<path fill="none" stroke="#191970" d="M57.4495,-88.8856C71.118,-80.5473 89.4042,-70.7403 107.0342,-65.5 170.6391,-46.594 246.1867,-41.2885 300.766,-40.3063"/>
<polygon fill="#191970" stroke="#191970" points="55.3791,-86.0534 48.7892,-94.3494 59.1143,-91.9736 55.3791,-86.0534"/>
</g>
<!-- Node3 -->
<g id="node3" class="node">
<title>Node3</title>
<g id="a_node3"><a xlink:href="classlocomotor_1_1components_1_1models_1_1_item_category_full.html#a50ab7c0f8e4a65f80ca141f1fa1c7df8" target="_top" xlink:title="locomotor.components.models.\lItemCategoryFull.fromJSON">
<polygon fill="#ffffff" stroke="#000000" points="297.4424,-151.5 297.4424,-179.5 451.8506,-179.5 451.8506,-151.5 297.4424,-151.5"/>
<text text-anchor="start" x="305.4424" y="-167.5" font-family="Helvetica,sans-Serif" font-size="10.00" fill="#000000">locomotor.components.models.</text>
<text text-anchor="middle" x="374.6465" y="-157.5" font-family="Helvetica,sans-Serif" font-size="10.00" fill="#000000">ItemCategoryFull.fromJSON</text>
</a>
</g>
</g>
<!-- Node2&#45;&gt;Node3 -->
<g id="edge2" class="edge">
<title>Node2&#45;&gt;Node3</title>
<path fill="none" stroke="#191970" d="M271.9387,-165.5C280.3923,-165.5 288.9253,-165.5 297.2688,-165.5"/>
<polygon fill="#191970" stroke="#191970" points="271.6846,-162.0001 261.6846,-165.5 271.6846,-169.0001 271.6846,-162.0001"/>
</g>
<!-- Node4 -->
<g id="node4" class="node">
<title>Node4</title>
<g id="a_node4"><a xlink:href="classlocomotor_1_1components_1_1models_1_1_item_full.html#afe56c5f49cb59d04ec69bbf32b58a2f8" target="_top" xlink:title="locomotor.components.models.\lItemFull.fromJSON">
<polygon fill="#ffffff" stroke="#000000" points="489.7939,-151.5 489.7939,-179.5 644.2021,-179.5 644.2021,-151.5 489.7939,-151.5"/>
<text text-anchor="start" x="497.7939" y="-167.5" font-family="Helvetica,sans-Serif" font-size="10.00" fill="#000000">locomotor.components.models.</text>
<text text-anchor="middle" x="566.998" y="-157.5" font-family="Helvetica,sans-Serif" font-size="10.00" fill="#000000">ItemFull.fromJSON</text>
</a>
</g>
</g>
<!-- Node3&#45;&gt;Node4 -->
<g id="edge3" class="edge">
<title>Node3&#45;&gt;Node4</title>
<path fill="none" stroke="#191970" d="M462.322,-165.5C471.4733,-165.5 480.728,-165.5 489.7512,-165.5"/>
<polygon fill="#191970" stroke="#191970" points="462.0518,-162.0001 452.0518,-165.5 462.0517,-169.0001 462.0518,-162.0001"/>
</g>
<!-- Node5 -->
<g id="node5" class="node">
<title>Node5</title>
<g id="a_node5"><a xlink:href="classlocomotor_1_1components_1_1network_1_1_a_p_i.html#a547463fbc7fb7b485886f0917e2c0b78" target="_top" xlink:title="locomotor.components.network.\lAPI.createHooks">
<polygon fill="#ffffff" stroke="#000000" points="682.1455,-70.5 682.1455,-98.5 839.332,-98.5 839.332,-70.5 682.1455,-70.5"/>
<text text-anchor="start" x="690.1455" y="-86.5" font-family="Helvetica,sans-Serif" font-size="10.00" fill="#000000">locomotor.components.network.</text>
<text text-anchor="middle" x="760.7388" y="-76.5" font-family="Helvetica,sans-Serif" font-size="10.00" fill="#000000">API.createHooks</text>
</a>
</g>
</g>
<!-- Node4&#45;&gt;Node5 -->
<g id="edge4" class="edge">
<title>Node4&#45;&gt;Node5</title>
<path fill="none" stroke="#191970" d="M616.7205,-147.9267C626.5249,-144.2804 636.6992,-140.3675 646.1455,-136.5 675.4619,-124.4972 708.3317,-109.4089 731.3244,-98.5811"/>
<polygon fill="#191970" stroke="#191970" points="615.2571,-144.7357 607.0801,-151.4727 617.6737,-151.3053 615.2571,-144.7357"/>
</g>
<!-- Node6 -->
<g id="node6" class="node">
<title>Node6</title>
<g id="a_node6"><a xlink:href="classlocomotor_1_1core_1_1_main.html#a8b260eecbaabcef8473fd87ada040682" target="_top" xlink:title="locomotor.core.Main.main">
<polygon fill="#ffffff" stroke="#000000" points="875.332,-75.5 875.332,-93.5 1005.8291,-93.5 1005.8291,-75.5 875.332,-75.5"/>
<text text-anchor="middle" x="940.5806" y="-81.5" font-family="Helvetica,sans-Serif" font-size="10.00" fill="#000000">locomotor.core.Main.main</text>
</a>
</g>
</g>
<!-- Node5&#45;&gt;Node6 -->
<g id="edge5" class="edge">
<title>Node5&#45;&gt;Node6</title>
<path fill="none" stroke="#191970" d="M849.5318,-84.5C858.2201,-84.5 866.9224,-84.5 875.3143,-84.5"/>
<polygon fill="#191970" stroke="#191970" points="849.3584,-81.0001 839.3584,-84.5 849.3583,-88.0001 849.3584,-81.0001"/>
</g>
<!-- Node7&#45;&gt;Node5 -->
<g id="edge7" class="edge">
<title>Node7&#45;&gt;Node5</title>
<path fill="none" stroke="#191970" d="M455.7952,-116.0394C509.7869,-111.5655 582.2623,-105.224 646.1455,-98.5 657.7063,-97.2832 669.9108,-95.8991 681.8738,-94.486"/>
<polygon fill="#191970" stroke="#191970" points="455.2722,-112.5706 445.5937,-116.8807 455.8476,-119.5469 455.2722,-112.5706"/>
</g>
<!-- Node8&#45;&gt;Node5 -->
<g id="edge9" class="edge">
<title>Node8&#45;&gt;Node5</title>
<path fill="none" stroke="#191970" d="M267.6882,-84.5C378.6608,-84.5 573.3941,-84.5 681.9576,-84.5"/>
<polygon fill="#191970" stroke="#191970" points="267.5451,-81.0001 257.545,-84.5 267.545,-88.0001 267.5451,-81.0001"/>
</g>
<!-- Node10 -->
<g id="node10" class="node">
<title>Node10</title>
<g id="a_node10"><a xlink:href="classlocomotor_1_1core_1_1_d_b_h.html#ae26eef1ee7482f2e0167c6a18924d214" target="_top" xlink:title="locomotor.core.DBH.addItem">
<polygon fill="#ffffff" stroke="#000000" points="494.8013,-37.5 494.8013,-55.5 639.1948,-55.5 639.1948,-37.5 494.8013,-37.5"/>
<text text-anchor="middle" x="566.998" y="-43.5" font-family="Helvetica,sans-Serif" font-size="10.00" fill="#000000">locomotor.core.DBH.addItem</text>
</a>
</g>
</g>
<!-- Node9&#45;&gt;Node10 -->
<g id="edge11" class="edge">
<title>Node9&#45;&gt;Node10</title>
<path fill="none" stroke="#191970" d="M459.0527,-43.6941C470.88,-44.0015 482.9483,-44.3152 494.5276,-44.6162"/>
<polygon fill="#191970" stroke="#191970" points="458.8271,-40.1871 448.7395,-43.426 458.6451,-47.1847 458.8271,-40.1871"/>
</g>
<!-- Node11 -->
<g id="node11" class="node">
<title>Node11</title>
<g id="a_node11"><a xlink:href="classlocomotor_1_1core_1_1_d_b_h.html#aa0e39c547d06fd9d0ad2de70251c9cc0" target="_top" xlink:title="locomotor.core.DBH.updateItem">
<polygon fill="#ffffff" stroke="#000000" points="487.8506,-.5 487.8506,-18.5 646.1455,-18.5 646.1455,-.5 487.8506,-.5"/>
<text text-anchor="middle" x="566.998" y="-6.5" font-family="Helvetica,sans-Serif" font-size="10.00" fill="#000000">locomotor.core.DBH.updateItem</text>
</a>
</g>
</g>
<!-- Node9&#45;&gt;Node11 -->
<g id="edge13" class="edge">
<title>Node9&#45;&gt;Node11</title>
<path fill="none" stroke="#191970" d="M458.8054,-27.4992C477.0635,-24.4617 495.9085,-21.3266 512.6526,-18.541"/>
<polygon fill="#191970" stroke="#191970" points="458.0295,-24.08 448.7395,-29.1737 459.1783,-30.9851 458.0295,-24.08"/>
</g>
<!-- Node10&#45;&gt;Node5 -->
<g id="edge12" class="edge">
<title>Node10&#45;&gt;Node5</title>
<path fill="none" stroke="#191970" d="M622.7835,-57.4417C643.4364,-61.4925 667.1475,-66.1432 689.0205,-70.4333"/>
<polygon fill="#191970" stroke="#191970" points="623.3986,-53.9957 612.9119,-55.5055 622.0512,-60.8648 623.3986,-53.9957"/>
</g>
<!-- Node11&#45;&gt;Node5 -->
<g id="edge14" class="edge">
<title>Node11&#45;&gt;Node5</title>
<path fill="none" stroke="#191970" d="M625.0043,-21.0111C632.1985,-22.9296 639.393,-25.0916 646.1455,-27.5 678.5849,-39.0699 713.7512,-57.5251 736.4503,-70.2866"/>
<polygon fill="#191970" stroke="#191970" points="625.7884,-17.5993 615.236,-18.5457 624.0754,-24.3865 625.7884,-17.5993"/>
</g>
</g>
</svg>
        <g id="navigator" transform="translate(0 0)" fill="#404254">
                <rect fill="#f2f5e9" fill-opacity="0.5" stroke="#606060" stroke-width=".5" x="0" y="0" width="60" height="60"/>
                <use id="zoomplus" xlink:href="#zoomPlus" x="17" y="9" onmousedown="handleZoom(evt,'in')"/>
                <use id="zoomminus" xlink:href="#zoomMin" x="42" y="9" onmousedown="handleZoom(evt,'out')"/>
                <use id="reset" xlink:href="#resetDef" x="30" y="36" onmousedown="handleReset()"/>
                <g id="arrowUp" xlink:href="#dirArrow" transform="translate(30 24)" onmousedown="handlePan(0,-1)">
                  <use xlink:href="#rim" fill="#404040">
                        <set attributeName="fill" to="#808080" begin="arrowUp.mouseover" end="arrowUp.mouseout"/>
                  </use>
                  <path fill="none" stroke="white" stroke-width="1.5" d="M0,-3.0v7 M-2.5,-0.5L0,-3.0L2.5,-0.5"/>
                </g>
                <g id="arrowRight" xlink:href="#dirArrow" transform="rotate(90) translate(36 -43)" onmousedown="handlePan(1,0)">
                  <use xlink:href="#rim" fill="#404040">
                        <set attributeName="fill" to="#808080" begin="arrowRight.mouseover" end="arrowRight.mouseout"/>
                  </use>
                  <path fill="none" stroke="white" stroke-width="1.5" d="M0,-3.0v7 M-2.5,-0.5L0,-3.0L2.5,-0.5"/>
                </g>
                <g id="arrowDown" xlink:href="#dirArrow" transform="rotate(180) translate(-30 -48)" onmousedown="handlePan(0,1)">
                  <use xlink:href="#rim" fill="#404040">
                        <set attributeName="fill" to="#808080" begin="arrowDown.mouseover" end="arrowDown.mouseout"/>
                  </use>
                  <path fill="none" stroke="white" stroke-width="1.5" d="M0,-3.0v7 M-2.5,-0.5L0,-3.0L2.5,-0.5"/>
                </g>
                <g id="arrowLeft" xlink:href="#dirArrow" transform="rotate(270) translate(-36 17)" onmousedown="handlePan(-1,0)">
                  <use xlink:href="#rim" fill="#404040">
                        <set attributeName="fill" to="#808080" begin="arrowLeft.mouseover" end="arrowLeft.mouseout"/>
                  </use>
                  <path fill="none" stroke="white" stroke-width="1.5" d="M0,-3.0v7 M-2.5,-0.5L0,-3.0L2.5,-0.5"/>
                </g>
        </g>
        <svg viewBox="0 0 15 15" width="100%" height="30px" preserveAspectRatio="xMaxYMin meet">
         <g id="arrow_out" transform="scale(0.3 0.3)">
          <a xlink:href="classlocomotor_1_1components_1_1models_1_1_criteria_model_a19fc0aeef83333878b7af08e6eb7dbea_icgraph_org.svg" target="_base">
           <rect id="button" ry="5" rx="5" y="6" x="6" height="38" width="38"
                fill="#f2f5e9" fill-opacity="0.5" stroke="#606060" stroke-width="1.0"/>
           <path id="arrow"
             d="M 11.500037,31.436501 C 11.940474,20.09759 22.043105,11.32322 32.158766,21.979434 L 37.068811,17.246167 C 37.068811,17.246167 37.088388,32 37.088388,32 L 22.160133,31.978069 C 22.160133,31.978069 26.997745,27.140456 26.997745,27.140456 C 18.528582,18.264221 13.291696,25.230495 11.500037,31.436501 z"
             style="fill:#404040;"/>
          </a>
         </g>
        </svg>
</svg>
