<?xml version="1.0" encoding="UTF-8" standalone="no"?>
<!DOCTYPE svg PUBLIC "-//W3C//DTD SVG 1.1//EN"
 "http://www.w3.org/Graphics/SVG/1.1/DTD/svg11.dtd">
<!-- Generated by graphviz version 2.40.1 (20161225.0304)
 -->
<!-- Title: FileUpload Pages: 1 -->
<svg width="312pt" height="92pt"
 viewBox="0.00 0.00 312.04 92.00" xmlns="http://www.w3.org/2000/svg" xmlns:xlink="http://www.w3.org/1999/xlink">
<g id="graph0" class="graph" transform="scale(1 1) rotate(0) translate(4 88)">
<title>FileUpload</title>
<polygon fill="#ffffff" stroke="transparent" points="-4,4 -4,-88 308.0439,-88 308.0439,4 -4,4"/>
<!-- Node1 -->
<g id="node1" class="node">
<title>Node1</title>
<polygon fill="#bfbfbf" stroke="#000000" points="114.0664,-.5 114.0664,-18.5 177.8691,-18.5 177.8691,-.5 114.0664,-.5"/>
<text text-anchor="middle" x="145.9678" y="-6.5" font-family="Helvetica,sans-Serif" font-size="10.00" fill="#000000">FileUpload</text>
</g>
<!-- Node2 -->
<g id="node2" class="node">
<title>Node2</title>
<polygon fill="#ffffff" stroke="#bfbfbf" points="0,-65.5 0,-83.5 109.9355,-83.5 109.9355,-65.5 0,-65.5"/>
<text text-anchor="middle" x="54.9678" y="-71.5" font-family="Helvetica,sans-Serif" font-size="10.00" fill="#000000">HttpsURLConnection</text>
</g>
<!-- Node2&#45;&gt;Node1 -->
<g id="edge1" class="edge">
<title>Node2&#45;&gt;Node1</title>
<path fill="none" stroke="#9a32cd" stroke-dasharray="5,2" d="M66.2256,-57.2573C71.3977,-50.3041 77.9975,-42.6162 85.2588,-37 95.3266,-29.2132 107.9511,-23.0408 119.0764,-18.5331"/>
<polygon fill="#9a32cd" stroke="#9a32cd" points="63.3526,-55.2583 60.4955,-65.4606 69.0913,-59.2668 63.3526,-55.2583"/>
<text text-anchor="middle" x="114.3223" y="-39" font-family="Helvetica,sans-Serif" font-size="10.00" fill="#000000"> _connection</text>
</g>
<!-- Node3 -->
<g id="node3" class="node">
<title>Node3</title>
<polygon fill="#ffffff" stroke="#bfbfbf" points="127.9653,-65.5 127.9653,-83.5 163.9702,-83.5 163.9702,-65.5 127.9653,-65.5"/>
<text text-anchor="middle" x="145.9678" y="-71.5" font-family="Helvetica,sans-Serif" font-size="10.00" fill="#000000">URL</text>
</g>
<!-- Node3&#45;&gt;Node1 -->
<g id="edge2" class="edge">
<title>Node3&#45;&gt;Node1</title>
<path fill="none" stroke="#9a32cd" stroke-dasharray="5,2" d="M145.9678,-55.1265C145.9678,-43.1522 145.9678,-28.3205 145.9678,-18.8821"/>
<polygon fill="#9a32cd" stroke="#9a32cd" points="142.4679,-55.462 145.9678,-65.462 149.4679,-55.4621 142.4679,-55.462"/>
<text text-anchor="middle" x="155.6943" y="-39" font-family="Helvetica,sans-Serif" font-size="10.00" fill="#000000"> _url</text>
</g>
<!-- Node4 -->
<g id="node4" class="node">
<title>Node4</title>
<polygon fill="#ffffff" stroke="#bfbfbf" points="181.8916,-65.5 181.8916,-83.5 304.0439,-83.5 304.0439,-65.5 181.8916,-65.5"/>
<text text-anchor="middle" x="242.9678" y="-71.5" font-family="Helvetica,sans-Serif" font-size="10.00" fill="#000000">ByteArrayOutputStream</text>
</g>
<!-- Node4&#45;&gt;Node1 -->
<g id="edge3" class="edge">
<title>Node4&#45;&gt;Node1</title>
<path fill="none" stroke="#9a32cd" stroke-dasharray="5,2" d="M220.9294,-59.732C202.0917,-47.1088 175.5783,-29.3421 159.6534,-18.6708"/>
<polygon fill="#9a32cd" stroke="#9a32cd" points="219.2246,-62.8028 229.4803,-65.462 223.1214,-56.9877 219.2246,-62.8028"/>
<text text-anchor="middle" x="227.2041" y="-39" font-family="Helvetica,sans-Serif" font-size="10.00" fill="#000000"> _outStream</text>
</g>
</g>
</svg>
