<?xml version="1.0" encoding="UTF-8" standalone="no"?>
<!DOCTYPE svg PUBLIC "-//W3C//DTD SVG 1.1//EN"
 "http://www.w3.org/Graphics/SVG/1.1/DTD/svg11.dtd">
<!-- Generated by graphviz version 2.40.1 (20161225.0304)
 -->
<!-- Title: send Pages: 1 -->
<svg width="669pt" height="187pt"
 viewBox="0.00 0.00 669.18 187.00" xmlns="http://www.w3.org/2000/svg" xmlns:xlink="http://www.w3.org/1999/xlink">
<g id="graph0" class="graph" transform="scale(1 1) rotate(0) translate(4 183)">
<title>send</title>
<polygon fill="#ffffff" stroke="transparent" points="-4,4 -4,-183 665.1846,-183 665.1846,4 -4,4"/>
<!-- Node1 -->
<g id="node1" class="node">
<title>Node1</title>
<polygon fill="#bfbfbf" stroke="#000000" points="0,-97.5 0,-115.5 37.6846,-115.5 37.6846,-97.5 0,-97.5"/>
<text text-anchor="middle" x="18.8423" y="-103.5" font-family="Helvetica,sans-Serif" font-size="10.00" fill="#000000">send</text>
</g>
<!-- Node2 -->
<g id="node2" class="node">
<title>Node2</title>
<g id="a_node2"><a xlink:href="classlocomotor_1_1front_1_1components_1_1network_1_1_client_request.html#a59600462d6c0408758265fc36016fb6b" target="_top" xlink:title="locomotor.front.components.network.\lClientRequest.requestBinary">
<polygon fill="#ffffff" stroke="#000000" points="73.6846,-116.5 73.6846,-144.5 253.6592,-144.5 253.6592,-116.5 73.6846,-116.5"/>
<text text-anchor="start" x="81.6846" y="-132.5" font-family="Helvetica,sans-Serif" font-size="10.00" fill="#000000">locomotor.front.components.network.</text>
<text text-anchor="middle" x="163.6719" y="-122.5" font-family="Helvetica,sans-Serif" font-size="10.00" fill="#000000">ClientRequest.requestBinary</text>
</a>
</g>
</g>
<!-- Node1&#45;&gt;Node2 -->
<g id="edge1" class="edge">
<title>Node1&#45;&gt;Node2</title>
<path fill="none" stroke="#191970" d="M47.9153,-111.3178C57.197,-112.8558 67.9815,-114.643 79.162,-116.4957"/>
<polygon fill="#191970" stroke="#191970" points="48.2139,-107.8196 37.7762,-109.6376 47.0695,-114.7254 48.2139,-107.8196"/>
</g>
<!-- Node3 -->
<g id="node3" class="node">
<title>Node3</title>
<g id="a_node3"><a xlink:href="classlocomotor_1_1front_1_1components_1_1network_1_1_client_request.html#af820b68be6077f053a589af5c865700c" target="_top" xlink:title="locomotor.front.components.network.\lClientRequest.requestJson">
<polygon fill="#ffffff" stroke="#000000" points="73.6846,-69.5 73.6846,-97.5 253.6592,-97.5 253.6592,-69.5 73.6846,-69.5"/>
<text text-anchor="start" x="81.6846" y="-85.5" font-family="Helvetica,sans-Serif" font-size="10.00" fill="#000000">locomotor.front.components.network.</text>
<text text-anchor="middle" x="163.6719" y="-75.5" font-family="Helvetica,sans-Serif" font-size="10.00" fill="#000000">ClientRequest.requestJson</text>
</a>
</g>
</g>
<!-- Node1&#45;&gt;Node3 -->
<g id="edge2" class="edge">
<title>Node1&#45;&gt;Node3</title>
<path fill="none" stroke="#191970" d="M47.8397,-101.895C56.0632,-100.5891 65.4709,-99.095 75.2908,-97.5356"/>
<polygon fill="#191970" stroke="#191970" points="47.1035,-98.468 37.7762,-103.4932 48.2014,-105.3813 47.1035,-98.468"/>
</g>
<!-- Node4 -->
<g id="node4" class="node">
<title>Node4</title>
<g id="a_node4"><a xlink:href="classlocomotor_1_1front_1_1components_1_1_front_resource_manager.html#aa21c4cd4a2808249949e545c69057811" target="_top" xlink:title="locomotor.front.components.\lFrontResourceManager.getInstance">
<polygon fill="#ffffff" stroke="#000000" points="293.5532,-150.5 293.5532,-178.5 469.0942,-178.5 469.0942,-150.5 293.5532,-150.5"/>
<text text-anchor="start" x="301.5532" y="-166.5" font-family="Helvetica,sans-Serif" font-size="10.00" fill="#000000">locomotor.front.components.</text>
<text text-anchor="middle" x="381.3237" y="-156.5" font-family="Helvetica,sans-Serif" font-size="10.00" fill="#000000">FrontResourceManager.getInstance</text>
</a>
</g>
</g>
<!-- Node3&#45;&gt;Node4 -->
<g id="edge3" class="edge">
<title>Node3&#45;&gt;Node4</title>
<path fill="none" stroke="#191970" d="M239.0091,-101.1306C244.0525,-103.0595 248.9819,-105.1778 253.6592,-107.5 271.8144,-116.514 271.715,-126.0729 289.6592,-135.5 300.8892,-141.3998 313.5303,-146.3525 325.7548,-150.4004"/>
<polygon fill="#191970" stroke="#191970" points="239.8008,-97.6977 229.206,-97.6511 237.4592,-104.2945 239.8008,-97.6977"/>
</g>
<!-- Node5 -->
<g id="node5" class="node">
<title>Node5</title>
<g id="a_node5"><a xlink:href="classlocomotor_1_1front_1_1user_1_1_bridge.html#afa7ac789194b4e4f08000205a0f96f11" target="_top" xlink:title="locomotor.front.user.Bridge.get\lModel">
<polygon fill="#ffffff" stroke="#000000" points="508.9883,-128.5 508.9883,-156.5 661.1846,-156.5 661.1846,-128.5 508.9883,-128.5"/>
<text text-anchor="start" x="516.9883" y="-144.5" font-family="Helvetica,sans-Serif" font-size="10.00" fill="#000000">locomotor.front.user.Bridge.get</text>
<text text-anchor="middle" x="585.0864" y="-134.5" font-family="Helvetica,sans-Serif" font-size="10.00" fill="#000000">Model</text>
</a>
</g>
</g>
<!-- Node3&#45;&gt;Node5 -->
<g id="edge8" class="edge">
<title>Node3&#45;&gt;Node5</title>
<path fill="none" stroke="#191970" d="M263.7064,-98.7269C272.4811,-100.0199 281.2271,-101.2934 289.6592,-102.5 364.0788,-113.1491 449.1545,-124.5909 508.8367,-132.4976"/>
<polygon fill="#191970" stroke="#191970" points="264.2071,-95.263 253.8025,-97.2614 263.1824,-102.1876 264.2071,-95.263"/>
</g>
<!-- Node6 -->
<g id="node6" class="node">
<title>Node6</title>
<g id="a_node6"><a xlink:href="classlocomotor_1_1front_1_1user_1_1_bridge.html#a581292d008b50003a8bd95e9c511ad00" target="_top" xlink:title="locomotor.front.user.Bridge.auth">
<polygon fill="#ffffff" stroke="#000000" points="302.4448,-74.5 302.4448,-92.5 460.2026,-92.5 460.2026,-74.5 302.4448,-74.5"/>
<text text-anchor="middle" x="381.3237" y="-80.5" font-family="Helvetica,sans-Serif" font-size="10.00" fill="#000000">locomotor.front.user.Bridge.auth</text>
</a>
</g>
</g>
<!-- Node3&#45;&gt;Node6 -->
<g id="edge5" class="edge">
<title>Node3&#45;&gt;Node6</title>
<path fill="none" stroke="#191970" d="M264.0449,-83.5C276.9162,-83.5 289.9461,-83.5 302.4086,-83.5"/>
<polygon fill="#191970" stroke="#191970" points="263.7704,-80.0001 253.7703,-83.5 263.7703,-87.0001 263.7704,-80.0001"/>
</g>
<!-- Node7 -->
<g id="node7" class="node">
<title>Node7</title>
<g id="a_node7"><a xlink:href="classlocomotor_1_1front_1_1user_1_1_bridge.html#a1780491711ed9d08ecb55808f269c1ff" target="_top" xlink:title="locomotor.front.user.Bridge.tokenAuth">
<polygon fill="#ffffff" stroke="#000000" points="289.6592,-37.5 289.6592,-55.5 472.9883,-55.5 472.9883,-37.5 289.6592,-37.5"/>
<text text-anchor="middle" x="381.3237" y="-43.5" font-family="Helvetica,sans-Serif" font-size="10.00" fill="#000000">locomotor.front.user.Bridge.tokenAuth</text>
</a>
</g>
</g>
<!-- Node3&#45;&gt;Node7 -->
<g id="edge6" class="edge">
<title>Node3&#45;&gt;Node7</title>
<path fill="none" stroke="#191970" d="M256.3183,-67.7505C280.8225,-63.5848 306.4461,-59.2289 328.0692,-55.5531"/>
<polygon fill="#191970" stroke="#191970" points="255.539,-64.3326 246.2671,-69.4591 256.7122,-71.2336 255.539,-64.3326"/>
</g>
<!-- Node8 -->
<g id="node8" class="node">
<title>Node8</title>
<g id="a_node8"><a xlink:href="classlocomotor_1_1front_1_1user_1_1_bridge.html#ae0a6da5df3d6b00c1721fd865cbd8098" target="_top" xlink:title="locomotor.front.user.Bridge.register">
<polygon fill="#ffffff" stroke="#000000" points="295.5039,-.5 295.5039,-18.5 467.1436,-18.5 467.1436,-.5 295.5039,-.5"/>
<text text-anchor="middle" x="381.3237" y="-6.5" font-family="Helvetica,sans-Serif" font-size="10.00" fill="#000000">locomotor.front.user.Bridge.register</text>
</a>
</g>
</g>
<!-- Node3&#45;&gt;Node8 -->
<g id="edge7" class="edge">
<title>Node3&#45;&gt;Node8</title>
<path fill="none" stroke="#191970" d="M200.56,-64.9743C225.2689,-53.1744 258.8041,-38.3157 289.6592,-28.5 302.0491,-24.5585 315.647,-21.2249 328.4879,-18.5043"/>
<polygon fill="#191970" stroke="#191970" points="199.0272,-61.8277 191.5462,-69.3301 202.0729,-68.1304 199.0272,-61.8277"/>
</g>
<!-- Node4&#45;&gt;Node5 -->
<g id="edge4" class="edge">
<title>Node4&#45;&gt;Node5</title>
<path fill="none" stroke="#191970" d="M479.4272,-153.9079C489.257,-152.8466 499.1338,-151.7802 508.6908,-150.7483"/>
<polygon fill="#191970" stroke="#191970" points="478.7824,-150.4571 469.2159,-155.0104 479.5339,-157.4166 478.7824,-150.4571"/>
</g>
</g>
</svg>
