<?xml version="1.0" encoding="UTF-8" standalone="no"?>
<!DOCTYPE svg PUBLIC "-//W3C//DTD SVG 1.1//EN"
 "http://www.w3.org/Graphics/SVG/1.1/DTD/svg11.dtd">
<!-- Generated by graphviz version 2.40.1 (20161225.0304)
 -->
<!-- Title: getErrorMessage Pages: 1 -->
<svg width="540pt" height="37pt"
 viewBox="0.00 0.00 540.45 37.00" xmlns="http://www.w3.org/2000/svg" xmlns:xlink="http://www.w3.org/1999/xlink">
<g id="graph0" class="graph" transform="scale(1 1) rotate(0) translate(4 33)">
<title>getErrorMessage</title>
<polygon fill="#ffffff" stroke="transparent" points="-4,4 -4,-33 536.4463,-33 536.4463,4 -4,4"/>
<!-- Node1 -->
<g id="node1" class="node">
<title>Node1</title>
<polygon fill="#bfbfbf" stroke="#000000" points="0,-5.5 0,-23.5 92.6992,-23.5 92.6992,-5.5 0,-5.5"/>
<text text-anchor="middle" x="46.3496" y="-11.5" font-family="Helvetica,sans-Serif" font-size="10.00" fill="#000000">getErrorMessage</text>
</g>
<!-- Node2 -->
<g id="node2" class="node">
<title>Node2</title>
<g id="a_node2"><a xlink:href="classlocomotor_1_1front_1_1components_1_1_front_resource_manager.html#a90ec9cbe2d393ac172e03972abf97f1d" target="_top" xlink:title="locomotor.front.components.\lFrontResourceManager.getRemoteResource">
<polygon fill="#ffffff" stroke="#000000" points="128.6992,-.5 128.6992,-28.5 344.25,-28.5 344.25,-.5 128.6992,-.5"/>
<text text-anchor="start" x="136.6992" y="-16.5" font-family="Helvetica,sans-Serif" font-size="10.00" fill="#000000">locomotor.front.components.</text>
<text text-anchor="middle" x="236.4746" y="-6.5" font-family="Helvetica,sans-Serif" font-size="10.00" fill="#000000">FrontResourceManager.getRemoteResource</text>
</a>
</g>
</g>
<!-- Node1&#45;&gt;Node2 -->
<g id="edge1" class="edge">
<title>Node1&#45;&gt;Node2</title>
<path fill="none" stroke="#191970" d="M102.9404,-14.5C111.1099,-14.5 119.7354,-14.5 128.5103,-14.5"/>
<polygon fill="#191970" stroke="#191970" points="102.8595,-11.0001 92.8594,-14.5 102.8594,-18.0001 102.8595,-11.0001"/>
</g>
<!-- Node3 -->
<g id="node3" class="node">
<title>Node3</title>
<g id="a_node3"><a xlink:href="classlocomotor_1_1front_1_1user_1_1_bridge.html#afa7ac789194b4e4f08000205a0f96f11" target="_top" xlink:title="locomotor.front.user.Bridge.get\lModel">
<polygon fill="#ffffff" stroke="#000000" points="380.25,-.5 380.25,-28.5 532.4463,-28.5 532.4463,-.5 380.25,-.5"/>
<text text-anchor="start" x="388.25" y="-16.5" font-family="Helvetica,sans-Serif" font-size="10.00" fill="#000000">locomotor.front.user.Bridge.get</text>
<text text-anchor="middle" x="456.3481" y="-6.5" font-family="Helvetica,sans-Serif" font-size="10.00" fill="#000000">Model</text>
</a>
</g>
</g>
<!-- Node2&#45;&gt;Node3 -->
<g id="edge2" class="edge">
<title>Node2&#45;&gt;Node3</title>
<path fill="none" stroke="#191970" d="M354.6448,-14.5C363.2889,-14.5 371.8647,-14.5 380.1568,-14.5"/>
<polygon fill="#191970" stroke="#191970" points="354.479,-11.0001 344.479,-14.5 354.4789,-18.0001 354.479,-11.0001"/>
</g>
</g>
</svg>
