<?xml version="1.0" encoding="UTF-8" standalone="no"?>
<!DOCTYPE svg PUBLIC "-//W3C//DTD SVG 1.1//EN"
 "http://www.w3.org/Graphics/SVG/1.1/DTD/svg11.dtd">
<!-- Generated by graphviz version 2.40.1 (20161225.0304)
 -->
<!-- Title: getRight Pages: 1 -->
<svg width="845pt" height="98pt"
 viewBox="0.00 0.00 845.09 97.95" xmlns="http://www.w3.org/2000/svg" xmlns:xlink="http://www.w3.org/1999/xlink">
<g id="graph0" class="graph" transform="scale(1 1) rotate(0) translate(4 93.9483)">
<title>getRight</title>
<polygon fill="#ffffff" stroke="transparent" points="-4,4 -4,-93.9483 841.0908,-93.9483 841.0908,4 -4,4"/>
<!-- Node1 -->
<g id="node1" class="node">
<title>Node1</title>
<polygon fill="#bfbfbf" stroke="#000000" points="0,-42.5 0,-60.5 53.2461,-60.5 53.2461,-42.5 0,-42.5"/>
<text text-anchor="middle" x="26.623" y="-48.5" font-family="Helvetica,sans-Serif" font-size="10.00" fill="#000000">getRight</text>
</g>
<!-- Node2 -->
<g id="node2" class="node">
<title>Node2</title>
<g id="a_node2"><a xlink:href="classlocomotor_1_1components_1_1network_1_1_a_p_i.html#a547463fbc7fb7b485886f0917e2c0b78" target="_top" xlink:title="locomotor.components.network.\lAPI.createHooks">
<polygon fill="#ffffff" stroke="#000000" points="513.4072,-37.5 513.4072,-65.5 670.5938,-65.5 670.5938,-37.5 513.4072,-37.5"/>
<text text-anchor="start" x="521.4072" y="-53.5" font-family="Helvetica,sans-Serif" font-size="10.00" fill="#000000">locomotor.components.network.</text>
<text text-anchor="middle" x="592.0005" y="-43.5" font-family="Helvetica,sans-Serif" font-size="10.00" fill="#000000">API.createHooks</text>
</a>
</g>
</g>
<!-- Node1&#45;&gt;Node2 -->
<g id="edge1" class="edge">
<title>Node1&#45;&gt;Node2</title>
<path fill="none" stroke="#191970" d="M60.5345,-63.6123C69.7339,-66.394 79.7723,-68.9792 89.2461,-70.5 259.5956,-97.8454 305.7953,-93.278 477.4072,-75.5 496.8166,-73.4893 517.7836,-69.6116 536.4106,-65.55"/>
<polygon fill="#191970" stroke="#191970" points="61.5384,-60.2588 50.9478,-60.5576 59.4132,-66.9285 61.5384,-60.2588"/>
</g>
<!-- Node4 -->
<g id="node4" class="node">
<title>Node4</title>
<g id="a_node4"><a xlink:href="classlocomotor_1_1core_1_1_comparator.html#a2ac714803f2cf6e544315619a14ff13c" target="_top" xlink:title="locomotor.core.Comparator.toJSON">
<polygon fill="#ffffff" stroke="#000000" points="89.2461,-42.5 89.2461,-60.5 263.6543,-60.5 263.6543,-42.5 89.2461,-42.5"/>
<text text-anchor="middle" x="176.4502" y="-48.5" font-family="Helvetica,sans-Serif" font-size="10.00" fill="#000000">locomotor.core.Comparator.toJSON</text>
</a>
</g>
</g>
<!-- Node1&#45;&gt;Node4 -->
<g id="edge3" class="edge">
<title>Node1&#45;&gt;Node4</title>
<path fill="none" stroke="#191970" d="M63.419,-51.5C71.4141,-51.5 80.1989,-51.5 89.2291,-51.5"/>
<polygon fill="#191970" stroke="#191970" points="63.4092,-48.0001 53.4091,-51.5 63.4091,-55.0001 63.4092,-48.0001"/>
</g>
<!-- Node6 -->
<g id="node6" class="node">
<title>Node6</title>
<g id="a_node6"><a xlink:href="classlocomotor_1_1core_1_1_d_b_h.html#ad707f520f60fe68ea8a8818698560d9d" target="_top" xlink:title="locomotor.core.DBH.authAdmin">
<polygon fill="#ffffff" stroke="#000000" points="310.4966,-.5 310.4966,-18.5 466.5649,-18.5 466.5649,-.5 310.4966,-.5"/>
<text text-anchor="middle" x="388.5308" y="-6.5" font-family="Helvetica,sans-Serif" font-size="10.00" fill="#000000">locomotor.core.DBH.authAdmin</text>
</a>
</g>
</g>
<!-- Node1&#45;&gt;Node6 -->
<g id="edge6" class="edge">
<title>Node1&#45;&gt;Node6</title>
<path fill="none" stroke="#191970" d="M61.6022,-39.4209C70.5222,-36.7478 80.1596,-34.2064 89.2461,-32.5 163.5107,-18.5531 249.6628,-13.0267 310.4108,-10.8563"/>
<polygon fill="#191970" stroke="#191970" points="60.4012,-36.1293 51.9038,-42.4574 62.4928,-42.8096 60.4012,-36.1293"/>
</g>
<!-- Node3 -->
<g id="node3" class="node">
<title>Node3</title>
<g id="a_node3"><a xlink:href="classlocomotor_1_1core_1_1_main.html#a8b260eecbaabcef8473fd87ada040682" target="_top" xlink:title="locomotor.core.Main.main">
<polygon fill="#ffffff" stroke="#000000" points="706.5938,-42.5 706.5938,-60.5 837.0908,-60.5 837.0908,-42.5 706.5938,-42.5"/>
<text text-anchor="middle" x="771.8423" y="-48.5" font-family="Helvetica,sans-Serif" font-size="10.00" fill="#000000">locomotor.core.Main.main</text>
</a>
</g>
</g>
<!-- Node2&#45;&gt;Node3 -->
<g id="edge2" class="edge">
<title>Node2&#45;&gt;Node3</title>
<path fill="none" stroke="#191970" d="M680.7935,-51.5C689.4818,-51.5 698.1842,-51.5 706.576,-51.5"/>
<polygon fill="#191970" stroke="#191970" points="680.6201,-48.0001 670.6201,-51.5 680.6201,-55.0001 680.6201,-48.0001"/>
</g>
<!-- Node5 -->
<g id="node5" class="node">
<title>Node5</title>
<g id="a_node5"><a xlink:href="classlocomotor_1_1core_1_1_comparator.html#a092fb76ad264eeccd8f30eadb70e36e3" target="_top" xlink:title="locomotor.core.Comparator.compute\lGradeOfItems">
<polygon fill="#ffffff" stroke="#000000" points="299.6543,-37.5 299.6543,-65.5 477.4072,-65.5 477.4072,-37.5 299.6543,-37.5"/>
<text text-anchor="start" x="307.6543" y="-53.5" font-family="Helvetica,sans-Serif" font-size="10.00" fill="#000000">locomotor.core.Comparator.compute</text>
<text text-anchor="middle" x="388.5308" y="-43.5" font-family="Helvetica,sans-Serif" font-size="10.00" fill="#000000">GradeOfItems</text>
</a>
</g>
</g>
<!-- Node4&#45;&gt;Node5 -->
<g id="edge4" class="edge">
<title>Node4&#45;&gt;Node5</title>
<path fill="none" stroke="#191970" d="M274.1916,-51.5C282.6401,-51.5 291.1593,-51.5 299.5329,-51.5"/>
<polygon fill="#191970" stroke="#191970" points="273.9359,-48.0001 263.9359,-51.5 273.9359,-55.0001 273.9359,-48.0001"/>
</g>
<!-- Node5&#45;&gt;Node2 -->
<g id="edge5" class="edge">
<title>Node5&#45;&gt;Node2</title>
<path fill="none" stroke="#191970" d="M487.536,-51.5C496.1252,-51.5 504.7404,-51.5 513.1364,-51.5"/>
<polygon fill="#191970" stroke="#191970" points="487.4796,-48.0001 477.4795,-51.5 487.4795,-55.0001 487.4796,-48.0001"/>
</g>
<!-- Node6&#45;&gt;Node2 -->
<g id="edge7" class="edge">
<title>Node6&#45;&gt;Node2</title>
<path fill="none" stroke="#191970" d="M443.4421,-20.5619C454.6808,-22.8425 466.4281,-25.2385 477.4072,-27.5 492.9357,-30.6986 509.6398,-34.176 525.3614,-37.4655"/>
<polygon fill="#191970" stroke="#191970" points="443.7963,-17.0626 433.3004,-18.5069 442.4062,-23.9232 443.7963,-17.0626"/>
</g>
</g>
</svg>
