<?xml version="1.0" encoding="UTF-8" standalone="no"?>
<!DOCTYPE svg PUBLIC "-//W3C//DTD SVG 1.1//EN"
 "http://www.w3.org/Graphics/SVG/1.1/DTD/svg11.dtd">
<!-- Generated by graphviz version 2.40.1 (20161225.0304)
 -->
<!-- Title: CoreResourceManager Pages: 1 -->
<svg width="192pt" height="83pt"
 viewBox="0.00 0.00 191.53 83.00" xmlns="http://www.w3.org/2000/svg" xmlns:xlink="http://www.w3.org/1999/xlink">
<g id="graph0" class="graph" transform="scale(1 1) rotate(0) translate(4 79)">
<title>CoreResourceManager</title>
<polygon fill="#ffffff" stroke="transparent" points="-4,4 -4,-79 187.5264,-79 187.5264,4 -4,4"/>
<!-- Node1 -->
<g id="node1" class="node">
<title>Node1</title>
<polygon fill="#bfbfbf" stroke="#000000" points="0,-.5 0,-18.5 119.9404,-18.5 119.9404,-.5 0,-.5"/>
<text text-anchor="middle" x="59.9702" y="-6.5" font-family="Helvetica,sans-Serif" font-size="10.00" fill="#000000">CoreResourceManager</text>
</g>
<!-- Node1&#45;&gt;Node1 -->
<g id="edge3" class="edge">
<title>Node1&#45;&gt;Node1</title>
<path fill="none" stroke="#9a32cd" stroke-dasharray="5,2" d="M130.3782,-13.2683C135.0851,-12.3967 137.9404,-11.1406 137.9404,-9.5 137.9404,-6.875 130.6307,-5.2344 120.123,-4.5781"/>
<polygon fill="#9a32cd" stroke="#9a32cd" points="129.6691,-9.8259 120.123,-14.4219 130.4516,-16.782 129.6691,-9.8259"/>
<text text-anchor="middle" x="160.7334" y="-6.5" font-family="Helvetica,sans-Serif" font-size="10.00" fill="#000000"> _instance</text>
</g>
<!-- Node2 -->
<g id="node2" class="node">
<title>Node2</title>
<g id="a_node2"><a xlink:href="classlocomotor_1_1components_1_1_resource_manager.html" target="_top" xlink:title="ResourceManager">
<polygon fill="#ffffff" stroke="#000000" points="10.8374,-56.5 10.8374,-74.5 109.103,-74.5 109.103,-56.5 10.8374,-56.5"/>
<text text-anchor="middle" x="59.9702" y="-62.5" font-family="Helvetica,sans-Serif" font-size="10.00" fill="#000000">ResourceManager</text>
</a>
</g>
</g>
<!-- Node2&#45;&gt;Node1 -->
<g id="edge1" class="edge">
<title>Node2&#45;&gt;Node1</title>
<path fill="none" stroke="#191970" d="M59.9702,-46.2065C59.9702,-36.8384 59.9702,-26.0262 59.9702,-18.5752"/>
<polygon fill="#191970" stroke="#191970" points="56.4703,-46.2527 59.9702,-56.2527 63.4703,-46.2528 56.4703,-46.2527"/>
</g>
<!-- Node2&#45;&gt;Node2 -->
<g id="edge2" class="edge">
<title>Node2&#45;&gt;Node2</title>
<path fill="none" stroke="#9a32cd" stroke-dasharray="5,2" d="M119.4108,-69.5033C124.162,-68.6289 127.103,-67.2944 127.103,-65.5 127.103,-62.6289 119.5739,-60.9354 109.1479,-60.4195"/>
<polygon fill="#9a32cd" stroke="#9a32cd" points="118.7279,-66.0557 109.1479,-70.5805 119.4587,-73.0174 118.7279,-66.0557"/>
<text text-anchor="middle" x="149.896" y="-62.5" font-family="Helvetica,sans-Serif" font-size="10.00" fill="#000000"> _instance</text>
</g>
</g>
</svg>
