<?xml version="1.0" encoding="UTF-8" standalone="no"?>
<!DOCTYPE svg PUBLIC "-//W3C//DTD SVG 1.1//EN"
 "http://www.w3.org/Graphics/SVG/1.1/DTD/svg11.dtd">
<!-- Generated by graphviz version 2.40.1 (20161225.0304)
 -->
<!-- Title: value Pages: 1 -->
<svg width="1346pt" height="51pt"
 viewBox="0.00 0.00 1345.81 51.00" xmlns="http://www.w3.org/2000/svg" xmlns:xlink="http://www.w3.org/1999/xlink">
<g id="graph0" class="graph" transform="scale(1 1) rotate(0) translate(4 47)">
<title>value</title>
<polygon fill="#ffffff" stroke="transparent" points="-4,4 -4,-47 1341.8057,-47 1341.8057,4 -4,4"/>
<!-- Node1 -->
<g id="node1" class="node">
<title>Node1</title>
<polygon fill="#bfbfbf" stroke="#000000" points="0,-5.5 0,-23.5 39.9063,-23.5 39.9063,-5.5 0,-5.5"/>
<text text-anchor="middle" x="19.9531" y="-11.5" font-family="Helvetica,sans-Serif" font-size="10.00" fill="#000000">value</text>
</g>
<!-- Node2 -->
<g id="node2" class="node">
<title>Node2</title>
<g id="a_node2"><a xlink:href="classlocomotor_1_1components_1_1types_1_1_c_float.html#aef395a3a5c07d801027ac513d66e27bc" target="_top" xlink:title="CFloat">
<polygon fill="#ffffff" stroke="#000000" points="75.9063,-24.5 75.9063,-42.5 121.3594,-42.5 121.3594,-24.5 75.9063,-24.5"/>
<text text-anchor="middle" x="98.6328" y="-30.5" font-family="Helvetica,sans-Serif" font-size="10.00" fill="#000000">CFloat</text>
</a>
</g>
</g>
<!-- Node1&#45;&gt;Node2 -->
<g id="edge1" class="edge">
<title>Node1&#45;&gt;Node2</title>
<path fill="none" stroke="#191970" d="M50.1374,-21.7891C58.6091,-23.8348 67.6805,-26.0255 75.6589,-27.9521"/>
<polygon fill="#191970" stroke="#191970" points="50.7573,-18.3382 40.2151,-19.393 49.1141,-25.1426 50.7573,-18.3382"/>
</g>
<!-- Node3 -->
<g id="node3" class="node">
<title>Node3</title>
<g id="a_node3"><a xlink:href="classlocomotor_1_1components_1_1types_1_1_c_float.html#a06da3e8fd1fdad2882c5878589963311" target="_top" xlink:title="fromJSON">
<polygon fill="#ffffff" stroke="#000000" points="157.3594,-5.5 157.3594,-23.5 220.0293,-23.5 220.0293,-5.5 157.3594,-5.5"/>
<text text-anchor="middle" x="188.6943" y="-11.5" font-family="Helvetica,sans-Serif" font-size="10.00" fill="#000000">fromJSON</text>
</a>
</g>
</g>
<!-- Node1&#45;&gt;Node3 -->
<g id="edge9" class="edge">
<title>Node1&#45;&gt;Node3</title>
<path fill="none" stroke="#191970" d="M50.3198,-14.5C80.5188,-14.5 126.6405,-14.5 157.2213,-14.5"/>
<polygon fill="#191970" stroke="#191970" points="49.9726,-11.0001 39.9726,-14.5 49.9726,-18.0001 49.9726,-11.0001"/>
</g>
<!-- Node2&#45;&gt;Node3 -->
<g id="edge2" class="edge">
<title>Node2&#45;&gt;Node3</title>
<path fill="none" stroke="#191970" d="M131.8743,-26.4871C140.1189,-24.7478 148.9308,-22.8888 157.0944,-21.1665"/>
<polygon fill="#191970" stroke="#191970" points="130.888,-23.1181 121.8259,-28.607 132.333,-29.9673 130.888,-23.1181"/>
</g>
<!-- Node4 -->
<g id="node4" class="node">
<title>Node4</title>
<g id="a_node4"><a xlink:href="classlocomotor_1_1components_1_1types_1_1_type_factory.html#a8827604831ff8a1764b7639c82820497" target="_top" xlink:title="locomotor.components.types.\lTypeFactory.getItemFromJson">
<polygon fill="#ffffff" stroke="#000000" points="256.0293,-.5 256.0293,-28.5 406.8975,-28.5 406.8975,-.5 256.0293,-.5"/>
<text text-anchor="start" x="264.0293" y="-16.5" font-family="Helvetica,sans-Serif" font-size="10.00" fill="#000000">locomotor.components.types.</text>
<text text-anchor="middle" x="331.4634" y="-6.5" font-family="Helvetica,sans-Serif" font-size="10.00" fill="#000000">TypeFactory.getItemFromJson</text>
</a>
</g>
</g>
<!-- Node3&#45;&gt;Node4 -->
<g id="edge3" class="edge">
<title>Node3&#45;&gt;Node4</title>
<path fill="none" stroke="#191970" d="M230.4993,-14.5C238.4939,-14.5 247.0899,-14.5 255.7711,-14.5"/>
<polygon fill="#191970" stroke="#191970" points="230.3794,-11.0001 220.3794,-14.5 230.3794,-18.0001 230.3794,-11.0001"/>
</g>
<!-- Node5 -->
<g id="node5" class="node">
<title>Node5</title>
<g id="a_node5"><a xlink:href="classlocomotor_1_1components_1_1models_1_1_item_criteria_full.html#a436730a3499b6d7b1d0359e12aa2f04a" target="_top" xlink:title="locomotor.components.models.\lItemCriteriaFull.fromJSON">
<polygon fill="#ffffff" stroke="#000000" points="442.8975,-.5 442.8975,-28.5 597.3057,-28.5 597.3057,-.5 442.8975,-.5"/>
<text text-anchor="start" x="450.8975" y="-16.5" font-family="Helvetica,sans-Serif" font-size="10.00" fill="#000000">locomotor.components.models.</text>
<text text-anchor="middle" x="520.1016" y="-6.5" font-family="Helvetica,sans-Serif" font-size="10.00" fill="#000000">ItemCriteriaFull.fromJSON</text>
</a>
</g>
</g>
<!-- Node4&#45;&gt;Node5 -->
<g id="edge4" class="edge">
<title>Node4&#45;&gt;Node5</title>
<path fill="none" stroke="#191970" d="M417.3176,-14.5C425.7438,-14.5 434.2609,-14.5 442.5969,-14.5"/>
<polygon fill="#191970" stroke="#191970" points="417.1029,-11.0001 407.1028,-14.5 417.1028,-18.0001 417.1029,-11.0001"/>
</g>
<!-- Node6 -->
<g id="node6" class="node">
<title>Node6</title>
<g id="a_node6"><a xlink:href="classlocomotor_1_1components_1_1models_1_1_item_category_full.html#a50ab7c0f8e4a65f80ca141f1fa1c7df8" target="_top" xlink:title="locomotor.components.models.\lItemCategoryFull.fromJSON">
<polygon fill="#ffffff" stroke="#000000" points="633.3057,-.5 633.3057,-28.5 787.7139,-28.5 787.7139,-.5 633.3057,-.5"/>
<text text-anchor="start" x="641.3057" y="-16.5" font-family="Helvetica,sans-Serif" font-size="10.00" fill="#000000">locomotor.components.models.</text>
<text text-anchor="middle" x="710.5098" y="-6.5" font-family="Helvetica,sans-Serif" font-size="10.00" fill="#000000">ItemCategoryFull.fromJSON</text>
</a>
</g>
</g>
<!-- Node5&#45;&gt;Node6 -->
<g id="edge5" class="edge">
<title>Node5&#45;&gt;Node6</title>
<path fill="none" stroke="#191970" d="M607.802,-14.5C616.2555,-14.5 624.7885,-14.5 633.1321,-14.5"/>
<polygon fill="#191970" stroke="#191970" points="607.5479,-11.0001 597.5479,-14.5 607.5478,-18.0001 607.5479,-11.0001"/>
</g>
<!-- Node7 -->
<g id="node7" class="node">
<title>Node7</title>
<g id="a_node7"><a xlink:href="classlocomotor_1_1components_1_1models_1_1_item_full.html#afe56c5f49cb59d04ec69bbf32b58a2f8" target="_top" xlink:title="locomotor.components.models.\lItemFull.fromJSON">
<polygon fill="#ffffff" stroke="#000000" points="823.7139,-.5 823.7139,-28.5 978.1221,-28.5 978.1221,-.5 823.7139,-.5"/>
<text text-anchor="start" x="831.7139" y="-16.5" font-family="Helvetica,sans-Serif" font-size="10.00" fill="#000000">locomotor.components.models.</text>
<text text-anchor="middle" x="900.918" y="-6.5" font-family="Helvetica,sans-Serif" font-size="10.00" fill="#000000">ItemFull.fromJSON</text>
</a>
</g>
</g>
<!-- Node6&#45;&gt;Node7 -->
<g id="edge6" class="edge">
<title>Node6&#45;&gt;Node7</title>
<path fill="none" stroke="#191970" d="M798.2102,-14.5C806.6638,-14.5 815.1967,-14.5 823.5403,-14.5"/>
<polygon fill="#191970" stroke="#191970" points="797.9561,-11.0001 787.9561,-14.5 797.956,-18.0001 797.9561,-11.0001"/>
</g>
<!-- Node8 -->
<g id="node8" class="node">
<title>Node8</title>
<g id="a_node8"><a xlink:href="classlocomotor_1_1components_1_1network_1_1_a_p_i.html#a547463fbc7fb7b485886f0917e2c0b78" target="_top" xlink:title="locomotor.components.network.\lAPI.createHooks">
<polygon fill="#ffffff" stroke="#000000" points="1014.1221,-.5 1014.1221,-28.5 1171.3086,-28.5 1171.3086,-.5 1014.1221,-.5"/>
<text text-anchor="start" x="1022.1221" y="-16.5" font-family="Helvetica,sans-Serif" font-size="10.00" fill="#000000">locomotor.components.network.</text>
<text text-anchor="middle" x="1092.7153" y="-6.5" font-family="Helvetica,sans-Serif" font-size="10.00" fill="#000000">API.createHooks</text>
</a>
</g>
</g>
<!-- Node7&#45;&gt;Node8 -->
<g id="edge7" class="edge">
<title>Node7&#45;&gt;Node8</title>
<path fill="none" stroke="#191970" d="M988.6426,-14.5C997.1085,-14.5 1005.66,-14.5 1014.0306,-14.5"/>
<polygon fill="#191970" stroke="#191970" points="988.3765,-11.0001 978.3764,-14.5 988.3764,-18.0001 988.3765,-11.0001"/>
</g>
<!-- Node9 -->
<g id="node9" class="node">
<title>Node9</title>
<g id="a_node9"><a xlink:href="classlocomotor_1_1core_1_1_main.html#a8b260eecbaabcef8473fd87ada040682" target="_top" xlink:title="locomotor.core.Main.main">
<polygon fill="#ffffff" stroke="#000000" points="1207.3086,-5.5 1207.3086,-23.5 1337.8057,-23.5 1337.8057,-5.5 1207.3086,-5.5"/>
<text text-anchor="middle" x="1272.5571" y="-11.5" font-family="Helvetica,sans-Serif" font-size="10.00" fill="#000000">locomotor.core.Main.main</text>
</a>
</g>
</g>
<!-- Node8&#45;&gt;Node9 -->
<g id="edge8" class="edge">
<title>Node8&#45;&gt;Node9</title>
<path fill="none" stroke="#191970" d="M1181.5084,-14.5C1190.1967,-14.5 1198.899,-14.5 1207.2909,-14.5"/>
<polygon fill="#191970" stroke="#191970" points="1181.335,-11.0001 1171.3349,-14.5 1181.3349,-18.0001 1181.335,-11.0001"/>
</g>
</g>
</svg>
