<?xml version="1.0" encoding="UTF-8" standalone="no"?>
<!DOCTYPE svg PUBLIC "-//W3C//DTD SVG 1.1//EN"
 "http://www.w3.org/Graphics/SVG/1.1/DTD/svg11.dtd">
<!-- Generated by graphviz version 2.40.1 (20161225.0304)
 -->
<!-- Title: uniqueValue Pages: 1 -->
<svg width="782pt" height="59pt"
 viewBox="0.00 0.00 782.15 59.00" xmlns="http://www.w3.org/2000/svg" xmlns:xlink="http://www.w3.org/1999/xlink">
<g id="graph0" class="graph" transform="scale(1 1) rotate(0) translate(4 55)">
<title>uniqueValue</title>
<polygon fill="#ffffff" stroke="transparent" points="-4,4 -4,-55 778.1465,-55 778.1465,4 -4,4"/>
<!-- Node1 -->
<g id="node1" class="node">
<title>Node1</title>
<polygon fill="#bfbfbf" stroke="#000000" points="0,-5.5 0,-23.5 70.8682,-23.5 70.8682,-5.5 0,-5.5"/>
<text text-anchor="middle" x="35.4341" y="-11.5" font-family="Helvetica,sans-Serif" font-size="10.00" fill="#000000">uniqueValue</text>
</g>
<!-- Node2 -->
<g id="node2" class="node">
<title>Node2</title>
<g id="a_node2"><a xlink:href="classlocomotor_1_1core_1_1_gaussian.html#a2a6f2336ca6a2ad6a5406575827bbb56" target="_top" xlink:title="locomotor.core.Gaussian.get\lInstance">
<polygon fill="#ffffff" stroke="#000000" points="106.8682,-22.5 106.8682,-50.5 250.1631,-50.5 250.1631,-22.5 106.8682,-22.5"/>
<text text-anchor="start" x="114.8682" y="-38.5" font-family="Helvetica,sans-Serif" font-size="10.00" fill="#000000">locomotor.core.Gaussian.get</text>
<text text-anchor="middle" x="178.5156" y="-28.5" font-family="Helvetica,sans-Serif" font-size="10.00" fill="#000000">Instance</text>
</a>
</g>
</g>
<!-- Node1&#45;&gt;Node2 -->
<g id="edge1" class="edge">
<title>Node1&#45;&gt;Node2</title>
<path fill="none" stroke="#191970" d="M71.1705,-19.9948C79.0488,-21.2061 87.7076,-22.5375 96.5845,-23.9024"/>
<polygon fill="#191970" stroke="#191970" points="96.2537,-27.3926 106.6695,-25.453 97.3176,-20.4739 96.2537,-27.3926"/>
</g>
<!-- Node4 -->
<g id="node4" class="node">
<title>Node4</title>
<g id="a_node4"><a xlink:href="classlocomotor_1_1core_1_1_gaussian.html#aaa66f1ce25c09e6e7cbd82c46ba0b4ae" target="_top" xlink:title="locomotor.core.Gaussian.pdf">
<polygon fill="#ffffff" stroke="#000000" points="451.5566,-5.5 451.5566,-23.5 594.8516,-23.5 594.8516,-5.5 451.5566,-5.5"/>
<text text-anchor="middle" x="523.2041" y="-11.5" font-family="Helvetica,sans-Serif" font-size="10.00" fill="#000000">locomotor.core.Gaussian.pdf</text>
</a>
</g>
</g>
<!-- Node1&#45;&gt;Node4 -->
<g id="edge5" class="edge">
<title>Node1&#45;&gt;Node4</title>
<path fill="none" stroke="#191970" d="M71.0383,-13.307C82.4784,-12.9762 95.2071,-12.6632 106.8682,-12.5 244.0496,-10.58 278.3677,-11.2257 415.5566,-12.5 423.8859,-12.5774 432.5772,-12.6884 441.2522,-12.819"/>
<polygon fill="#191970" stroke="#191970" points="441.3512,-16.321 451.4056,-12.9806 441.4626,-9.3218 441.3512,-16.321"/>
</g>
<!-- Node3 -->
<g id="node3" class="node">
<title>Node3</title>
<g id="a_node3"><a xlink:href="classlocomotor_1_1core_1_1_gaussian.html#aa4cd1241f20f836cbf5facbf2d8379e4" target="_top" xlink:title="locomotor.core.Gaussian.\lGaussian">
<polygon fill="#ffffff" stroke="#000000" points="286.1631,-22.5 286.1631,-50.5 415.5566,-50.5 415.5566,-22.5 286.1631,-22.5"/>
<text text-anchor="start" x="294.1631" y="-38.5" font-family="Helvetica,sans-Serif" font-size="10.00" fill="#000000">locomotor.core.Gaussian.</text>
<text text-anchor="middle" x="350.8599" y="-28.5" font-family="Helvetica,sans-Serif" font-size="10.00" fill="#000000">Gaussian</text>
</a>
</g>
</g>
<!-- Node2&#45;&gt;Node3 -->
<g id="edge2" class="edge">
<title>Node2&#45;&gt;Node3</title>
<path fill="none" stroke="#191970" d="M250.6065,-36.5C258.9348,-36.5 267.4434,-36.5 275.8097,-36.5"/>
<polygon fill="#191970" stroke="#191970" points="275.9227,-40.0001 285.9226,-36.5 275.9226,-33.0001 275.9227,-40.0001"/>
</g>
<!-- Node3&#45;&gt;Node4 -->
<g id="edge3" class="edge">
<title>Node3&#45;&gt;Node4</title>
<path fill="none" stroke="#191970" d="M416.0158,-28.1827C424.673,-27.0776 433.6316,-25.9341 442.5122,-24.8004"/>
<polygon fill="#191970" stroke="#191970" points="443.0091,-28.2655 452.4854,-23.5274 442.1227,-21.3218 443.0091,-28.2655"/>
</g>
<!-- Node5 -->
<g id="node5" class="node">
<title>Node5</title>
<g id="a_node5"><a xlink:href="classlocomotor_1_1core_1_1_gaussian.html#afd611f311f6fe230f8fad8bd0c7e0a51" target="_top" xlink:title="locomotor.core.Gaussian.get\lNearestStep">
<polygon fill="#ffffff" stroke="#000000" points="630.8516,-.5 630.8516,-28.5 774.1465,-28.5 774.1465,-.5 630.8516,-.5"/>
<text text-anchor="start" x="638.8516" y="-16.5" font-family="Helvetica,sans-Serif" font-size="10.00" fill="#000000">locomotor.core.Gaussian.get</text>
<text text-anchor="middle" x="702.499" y="-6.5" font-family="Helvetica,sans-Serif" font-size="10.00" fill="#000000">NearestStep</text>
</a>
</g>
</g>
<!-- Node4&#45;&gt;Node5 -->
<g id="edge4" class="edge">
<title>Node4&#45;&gt;Node5</title>
<path fill="none" stroke="#191970" d="M595.0971,-14.5C603.4086,-14.5 611.9322,-14.5 620.3665,-14.5"/>
<polygon fill="#191970" stroke="#191970" points="620.5899,-18.0001 630.5899,-14.5 620.5898,-11.0001 620.5899,-18.0001"/>
</g>
</g>
</svg>
