<?xml version="1.0" encoding="UTF-8" standalone="no"?>
<!DOCTYPE svg PUBLIC "-//W3C//DTD SVG 1.1//EN"
 "http://www.w3.org/Graphics/SVG/1.1/DTD/svg11.dtd">
<!-- Generated by graphviz version 2.40.1 (20161225.0304)
 -->
<!-- Title: min Pages: 1 -->
<svg width="1340pt" height="356pt"
 viewBox="0.00 0.00 1339.96 356.00" xmlns="http://www.w3.org/2000/svg" xmlns:xlink="http://www.w3.org/1999/xlink">
<g id="graph0" class="graph" transform="scale(1 1) rotate(0) translate(4 352)">
<title>min</title>
<polygon fill="#ffffff" stroke="transparent" points="-4,4 -4,-352 1335.9629,-352 1335.9629,4 -4,4"/>
<!-- Node1 -->
<g id="node1" class="node">
<title>Node1</title>
<polygon fill="#bfbfbf" stroke="#000000" points="0,-169.5 0,-187.5 32.1133,-187.5 32.1133,-169.5 0,-169.5"/>
<text text-anchor="middle" x="16.0566" y="-175.5" font-family="Helvetica,sans-Serif" font-size="10.00" fill="#000000">min</text>
</g>
<!-- Node2 -->
<g id="node2" class="node">
<title>Node2</title>
<g id="a_node2"><a xlink:href="classlocomotor_1_1components_1_1types_1_1_c_float.html#a871921d9d041c5c7993927dde6332e2c" target="_top" xlink:title="locomotor.components.types.\lCFloat.compare">
<polygon fill="#ffffff" stroke="#000000" points="68.1133,-319.5 68.1133,-347.5 214.1865,-347.5 214.1865,-319.5 68.1133,-319.5"/>
<text text-anchor="start" x="76.1133" y="-335.5" font-family="Helvetica,sans-Serif" font-size="10.00" fill="#000000">locomotor.components.types.</text>
<text text-anchor="middle" x="141.1499" y="-325.5" font-family="Helvetica,sans-Serif" font-size="10.00" fill="#000000">CFloat.compare</text>
</a>
</g>
</g>
<!-- Node1&#45;&gt;Node2 -->
<g id="edge1" class="edge">
<title>Node1&#45;&gt;Node2</title>
<path fill="none" stroke="#191970" d="M18.3791,-197.6167C22.8582,-226.1958 35.3373,-279.9588 68.1133,-310.5 71.8091,-313.9438 76.017,-316.8721 80.5035,-319.3619"/>
<polygon fill="#191970" stroke="#191970" points="21.8408,-197.099 16.9895,-187.6801 14.9083,-198.0685 21.8408,-197.099"/>
</g>
<!-- Node3 -->
<g id="node3" class="node">
<title>Node3</title>
<g id="a_node3"><a xlink:href="classlocomotor_1_1components_1_1types_1_1_c_integer.html#a535607ef73128c96e7b4c3831a537c15" target="_top" xlink:title="locomotor.components.types.\lCInteger.compare">
<polygon fill="#ffffff" stroke="#000000" points="68.1133,-272.5 68.1133,-300.5 214.1865,-300.5 214.1865,-272.5 68.1133,-272.5"/>
<text text-anchor="start" x="76.1133" y="-288.5" font-family="Helvetica,sans-Serif" font-size="10.00" fill="#000000">locomotor.components.types.</text>
<text text-anchor="middle" x="141.1499" y="-278.5" font-family="Helvetica,sans-Serif" font-size="10.00" fill="#000000">CInteger.compare</text>
</a>
</g>
</g>
<!-- Node1&#45;&gt;Node3 -->
<g id="edge2" class="edge">
<title>Node1&#45;&gt;Node3</title>
<path fill="none" stroke="#191970" d="M22.898,-197.1833C30.888,-216.4806 45.907,-246.152 68.1133,-263.5 72.5132,-266.9373 77.4353,-269.8658 82.5898,-272.36"/>
<polygon fill="#191970" stroke="#191970" points="26.0815,-195.7138 19.1812,-187.6741 19.5618,-198.2621 26.0815,-195.7138"/>
</g>
<!-- Node4 -->
<g id="node4" class="node">
<title>Node4</title>
<g id="a_node4"><a xlink:href="classlocomotor_1_1components_1_1types_1_1_c_interval.html#afd960ea0d74219e2fa2bdc51004d05ba" target="_top" xlink:title="CInterval">
<polygon fill="#ffffff" stroke="#000000" points="113.1426,-235.5 113.1426,-253.5 169.1572,-253.5 169.1572,-235.5 113.1426,-235.5"/>
<text text-anchor="middle" x="141.1499" y="-241.5" font-family="Helvetica,sans-Serif" font-size="10.00" fill="#000000">CInterval</text>
</a>
</g>
</g>
<!-- Node1&#45;&gt;Node4 -->
<g id="edge3" class="edge">
<title>Node1&#45;&gt;Node4</title>
<path fill="none" stroke="#191970" d="M30.3401,-195.4666C39.9928,-205.8875 53.5888,-218.692 68.1133,-226.5 81.9164,-233.9203 98.8272,-238.3391 112.8993,-240.94"/>
<polygon fill="#191970" stroke="#191970" points="32.7574,-192.9175 23.5019,-187.7612 27.5218,-197.5639 32.7574,-192.9175"/>
</g>
<!-- Node6 -->
<g id="node6" class="node">
<title>Node6</title>
<g id="a_node6"><a xlink:href="classlocomotor_1_1components_1_1types_1_1_c_interval_double.html#a871921d9d041c5c7993927dde6332e2c" target="_top" xlink:title="locomotor.components.types.\lCIntervalDouble.compare">
<polygon fill="#ffffff" stroke="#000000" points="68.1133,-188.5 68.1133,-216.5 214.1865,-216.5 214.1865,-188.5 68.1133,-188.5"/>
<text text-anchor="start" x="76.1133" y="-204.5" font-family="Helvetica,sans-Serif" font-size="10.00" fill="#000000">locomotor.components.types.</text>
<text text-anchor="middle" x="141.1499" y="-194.5" font-family="Helvetica,sans-Serif" font-size="10.00" fill="#000000">CIntervalDouble.compare</text>
</a>
</g>
</g>
<!-- Node1&#45;&gt;Node6 -->
<g id="edge5" class="edge">
<title>Node1&#45;&gt;Node6</title>
<path fill="none" stroke="#191970" d="M42.017,-183.4807C49.8449,-184.9825 58.8518,-186.7105 68.1769,-188.4996"/>
<polygon fill="#191970" stroke="#191970" points="42.6347,-180.0354 32.1543,-181.5884 41.3157,-186.91 42.6347,-180.0354"/>
</g>
<!-- Node7 -->
<g id="node7" class="node">
<title>Node7</title>
<g id="a_node7"><a xlink:href="classlocomotor_1_1components_1_1types_1_1_c_interval_double.html#a05b10f1076a88b090171dc5c92d1e51a" target="_top" xlink:title="locomotor.components.types.\lCIntervalDouble.fromJSON">
<polygon fill="#ffffff" stroke="#000000" points="68.1133,-141.5 68.1133,-169.5 214.1865,-169.5 214.1865,-141.5 68.1133,-141.5"/>
<text text-anchor="start" x="76.1133" y="-157.5" font-family="Helvetica,sans-Serif" font-size="10.00" fill="#000000">locomotor.components.types.</text>
<text text-anchor="middle" x="141.1499" y="-147.5" font-family="Helvetica,sans-Serif" font-size="10.00" fill="#000000">CIntervalDouble.fromJSON</text>
</a>
</g>
</g>
<!-- Node1&#45;&gt;Node7 -->
<g id="edge6" class="edge">
<title>Node1&#45;&gt;Node7</title>
<path fill="none" stroke="#191970" d="M42.2087,-173.6916C49.913,-172.2751 58.7472,-170.6508 67.8963,-168.9686"/>
<polygon fill="#191970" stroke="#191970" points="41.3565,-170.2895 32.1543,-175.5402 42.6224,-177.1741 41.3565,-170.2895"/>
</g>
<!-- Node18 -->
<g id="node18" class="node">
<title>Node18</title>
<g id="a_node18"><a xlink:href="classlocomotor_1_1components_1_1types_1_1_c_interval_integer.html#a535607ef73128c96e7b4c3831a537c15" target="_top" xlink:title="locomotor.components.types.\lCIntervalInteger.compare">
<polygon fill="#ffffff" stroke="#000000" points="68.1133,-47.5 68.1133,-75.5 214.1865,-75.5 214.1865,-47.5 68.1133,-47.5"/>
<text text-anchor="start" x="76.1133" y="-63.5" font-family="Helvetica,sans-Serif" font-size="10.00" fill="#000000">locomotor.components.types.</text>
<text text-anchor="middle" x="141.1499" y="-53.5" font-family="Helvetica,sans-Serif" font-size="10.00" fill="#000000">CIntervalInteger.compare</text>
</a>
</g>
</g>
<!-- Node1&#45;&gt;Node18 -->
<g id="edge18" class="edge">
<title>Node1&#45;&gt;Node18</title>
<path fill="none" stroke="#191970" d="M21.9215,-159.6822C29.3929,-138.6982 44.2752,-105.1341 68.1133,-85.5 72.8524,-81.5967 78.2465,-78.3212 83.9073,-75.574"/>
<polygon fill="#191970" stroke="#191970" points="18.5345,-158.7745 18.6817,-169.3684 25.173,-160.995 18.5345,-158.7745"/>
</g>
<!-- Node19 -->
<g id="node19" class="node">
<title>Node19</title>
<g id="a_node19"><a xlink:href="classlocomotor_1_1components_1_1types_1_1_c_interval_integer.html#a7325219bbe286c1651eac4d7cb1dcf89" target="_top" xlink:title="locomotor.components.types.\lCIntervalInteger.fromJSON">
<polygon fill="#ffffff" stroke="#000000" points="68.1133,-94.5 68.1133,-122.5 214.1865,-122.5 214.1865,-94.5 68.1133,-94.5"/>
<text text-anchor="start" x="76.1133" y="-110.5" font-family="Helvetica,sans-Serif" font-size="10.00" fill="#000000">locomotor.components.types.</text>
<text text-anchor="middle" x="141.1499" y="-100.5" font-family="Helvetica,sans-Serif" font-size="10.00" fill="#000000">CIntervalInteger.fromJSON</text>
</a>
</g>
</g>
<!-- Node1&#45;&gt;Node19 -->
<g id="edge19" class="edge">
<title>Node1&#45;&gt;Node19</title>
<path fill="none" stroke="#191970" d="M31.3701,-161.9258C41.1001,-152.2169 54.4087,-140.3576 68.1133,-132.5 74.7132,-128.7159 81.995,-125.4271 89.3277,-122.6006"/>
<polygon fill="#191970" stroke="#191970" points="28.8339,-159.5136 24.3948,-169.1337 33.8642,-164.3816 28.8339,-159.5136"/>
</g>
<!-- Node20 -->
<g id="node20" class="node">
<title>Node20</title>
<g id="a_node20"><a xlink:href="classlocomotor_1_1components_1_1types_1_1_type_factory.html#a39ed3e5526f1adf859a3e8cf86ee8302" target="_top" xlink:title="locomotor.components.types.\lTypeFactory.getItem">
<polygon fill="#ffffff" stroke="#000000" points="68.1133,-.5 68.1133,-28.5 214.1865,-28.5 214.1865,-.5 68.1133,-.5"/>
<text text-anchor="start" x="76.1133" y="-16.5" font-family="Helvetica,sans-Serif" font-size="10.00" fill="#000000">locomotor.components.types.</text>
<text text-anchor="middle" x="141.1499" y="-6.5" font-family="Helvetica,sans-Serif" font-size="10.00" fill="#000000">TypeFactory.getItem</text>
</a>
</g>
</g>
<!-- Node1&#45;&gt;Node20 -->
<g id="edge22" class="edge">
<title>Node1&#45;&gt;Node20</title>
<path fill="none" stroke="#191970" d="M17.9637,-159.1377C21.9389,-129.1511 33.8152,-71.5022 68.1133,-38.5 72.1527,-34.6132 76.8326,-31.3557 81.8341,-28.6258"/>
<polygon fill="#191970" stroke="#191970" points="14.4761,-158.8293 16.7968,-169.1668 21.4292,-159.6384 14.4761,-158.8293"/>
</g>
<!-- Node5 -->
<g id="node5" class="node">
<title>Node5</title>
<g id="a_node5"><a xlink:href="classlocomotor_1_1components_1_1types_1_1_c_interval.html#ad295ddcb564ccdce4ae93f54dded98ff" target="_top" xlink:title="equals">
<polygon fill="#ffffff" stroke="#000000" points="302.8867,-235.5 302.8867,-253.5 348.3545,-253.5 348.3545,-235.5 302.8867,-235.5"/>
<text text-anchor="middle" x="325.6206" y="-241.5" font-family="Helvetica,sans-Serif" font-size="10.00" fill="#000000">equals</text>
</a>
</g>
</g>
<!-- Node4&#45;&gt;Node5 -->
<g id="edge4" class="edge">
<title>Node4&#45;&gt;Node5</title>
<path fill="none" stroke="#191970" d="M179.6357,-244.5C216.8988,-244.5 272.139,-244.5 302.8781,-244.5"/>
<polygon fill="#191970" stroke="#191970" points="179.1671,-241.0001 169.167,-244.5 179.167,-248.0001 179.1671,-241.0001"/>
</g>
<!-- Node8 -->
<g id="node8" class="node">
<title>Node8</title>
<g id="a_node8"><a xlink:href="classlocomotor_1_1components_1_1types_1_1_type_factory.html#a8827604831ff8a1764b7639c82820497" target="_top" xlink:title="locomotor.components.types.\lTypeFactory.getItemFromJson">
<polygon fill="#ffffff" stroke="#000000" points="250.1865,-94.5 250.1865,-122.5 401.0547,-122.5 401.0547,-94.5 250.1865,-94.5"/>
<text text-anchor="start" x="258.1865" y="-110.5" font-family="Helvetica,sans-Serif" font-size="10.00" fill="#000000">locomotor.components.types.</text>
<text text-anchor="middle" x="325.6206" y="-100.5" font-family="Helvetica,sans-Serif" font-size="10.00" fill="#000000">TypeFactory.getItemFromJson</text>
</a>
</g>
</g>
<!-- Node7&#45;&gt;Node8 -->
<g id="edge7" class="edge">
<title>Node7&#45;&gt;Node8</title>
<path fill="none" stroke="#191970" d="M206.3111,-138.898C227.3343,-133.5417 250.4166,-127.6607 270.6305,-122.5106"/>
<polygon fill="#191970" stroke="#191970" points="205.3235,-135.5378 196.4972,-141.3985 207.0518,-142.3211 205.3235,-135.5378"/>
</g>
<!-- Node14 -->
<g id="node14" class="node">
<title>Node14</title>
<g id="a_node14"><a xlink:href="classlocomotor_1_1components_1_1types_1_1_type_factory.html#a1a64701bf13afa82b6b32bf422a171e2" target="_top" xlink:title="locomotor.components.types.\lTypeFactory.getUser">
<polygon fill="#ffffff" stroke="#000000" points="252.584,-141.5 252.584,-169.5 398.6572,-169.5 398.6572,-141.5 252.584,-141.5"/>
<text text-anchor="start" x="260.584" y="-157.5" font-family="Helvetica,sans-Serif" font-size="10.00" fill="#000000">locomotor.components.types.</text>
<text text-anchor="middle" x="325.6206" y="-147.5" font-family="Helvetica,sans-Serif" font-size="10.00" fill="#000000">TypeFactory.getUser</text>
</a>
</g>
</g>
<!-- Node7&#45;&gt;Node14 -->
<g id="edge13" class="edge">
<title>Node7&#45;&gt;Node14</title>
<path fill="none" stroke="#191970" d="M224.4285,-155.5C233.804,-155.5 243.3041,-155.5 252.5365,-155.5"/>
<polygon fill="#191970" stroke="#191970" points="224.3226,-152.0001 214.3226,-155.5 224.3225,-159.0001 224.3226,-152.0001"/>
</g>
<!-- Node9 -->
<g id="node9" class="node">
<title>Node9</title>
<g id="a_node9"><a xlink:href="classlocomotor_1_1components_1_1models_1_1_item_criteria_full.html#a436730a3499b6d7b1d0359e12aa2f04a" target="_top" xlink:title="locomotor.components.models.\lItemCriteriaFull.fromJSON">
<polygon fill="#ffffff" stroke="#000000" points="437.0547,-94.5 437.0547,-122.5 591.4629,-122.5 591.4629,-94.5 437.0547,-94.5"/>
<text text-anchor="start" x="445.0547" y="-110.5" font-family="Helvetica,sans-Serif" font-size="10.00" fill="#000000">locomotor.components.models.</text>
<text text-anchor="middle" x="514.2588" y="-100.5" font-family="Helvetica,sans-Serif" font-size="10.00" fill="#000000">ItemCriteriaFull.fromJSON</text>
</a>
</g>
</g>
<!-- Node8&#45;&gt;Node9 -->
<g id="edge8" class="edge">
<title>Node8&#45;&gt;Node9</title>
<path fill="none" stroke="#191970" d="M411.4749,-108.5C419.9011,-108.5 428.4181,-108.5 436.7541,-108.5"/>
<polygon fill="#191970" stroke="#191970" points="411.2601,-105.0001 401.26,-108.5 411.26,-112.0001 411.2601,-105.0001"/>
</g>
<!-- Node10 -->
<g id="node10" class="node">
<title>Node10</title>
<g id="a_node10"><a xlink:href="classlocomotor_1_1components_1_1models_1_1_item_category_full.html#a50ab7c0f8e4a65f80ca141f1fa1c7df8" target="_top" xlink:title="locomotor.components.models.\lItemCategoryFull.fromJSON">
<polygon fill="#ffffff" stroke="#000000" points="627.4629,-94.5 627.4629,-122.5 781.8711,-122.5 781.8711,-94.5 627.4629,-94.5"/>
<text text-anchor="start" x="635.4629" y="-110.5" font-family="Helvetica,sans-Serif" font-size="10.00" fill="#000000">locomotor.components.models.</text>
<text text-anchor="middle" x="704.667" y="-100.5" font-family="Helvetica,sans-Serif" font-size="10.00" fill="#000000">ItemCategoryFull.fromJSON</text>
</a>
</g>
</g>
<!-- Node9&#45;&gt;Node10 -->
<g id="edge9" class="edge">
<title>Node9&#45;&gt;Node10</title>
<path fill="none" stroke="#191970" d="M601.9592,-108.5C610.4128,-108.5 618.9458,-108.5 627.2893,-108.5"/>
<polygon fill="#191970" stroke="#191970" points="601.7051,-105.0001 591.7051,-108.5 601.7051,-112.0001 601.7051,-105.0001"/>
</g>
<!-- Node11 -->
<g id="node11" class="node">
<title>Node11</title>
<g id="a_node11"><a xlink:href="classlocomotor_1_1components_1_1models_1_1_item_full.html#afe56c5f49cb59d04ec69bbf32b58a2f8" target="_top" xlink:title="locomotor.components.models.\lItemFull.fromJSON">
<polygon fill="#ffffff" stroke="#000000" points="817.8711,-94.5 817.8711,-122.5 972.2793,-122.5 972.2793,-94.5 817.8711,-94.5"/>
<text text-anchor="start" x="825.8711" y="-110.5" font-family="Helvetica,sans-Serif" font-size="10.00" fill="#000000">locomotor.components.models.</text>
<text text-anchor="middle" x="895.0752" y="-100.5" font-family="Helvetica,sans-Serif" font-size="10.00" fill="#000000">ItemFull.fromJSON</text>
</a>
</g>
</g>
<!-- Node10&#45;&gt;Node11 -->
<g id="edge10" class="edge">
<title>Node10&#45;&gt;Node11</title>
<path fill="none" stroke="#191970" d="M792.3674,-108.5C800.821,-108.5 809.354,-108.5 817.6975,-108.5"/>
<polygon fill="#191970" stroke="#191970" points="792.1133,-105.0001 782.1133,-108.5 792.1133,-112.0001 792.1133,-105.0001"/>
</g>
<!-- Node12 -->
<g id="node12" class="node">
<title>Node12</title>
<g id="a_node12"><a xlink:href="classlocomotor_1_1components_1_1network_1_1_a_p_i.html#a547463fbc7fb7b485886f0917e2c0b78" target="_top" xlink:title="locomotor.components.network.\lAPI.createHooks">
<polygon fill="#ffffff" stroke="#000000" points="1008.2793,-117.5 1008.2793,-145.5 1165.4658,-145.5 1165.4658,-117.5 1008.2793,-117.5"/>
<text text-anchor="start" x="1016.2793" y="-133.5" font-family="Helvetica,sans-Serif" font-size="10.00" fill="#000000">locomotor.components.network.</text>
<text text-anchor="middle" x="1086.8726" y="-123.5" font-family="Helvetica,sans-Serif" font-size="10.00" fill="#000000">API.createHooks</text>
</a>
</g>
</g>
<!-- Node11&#45;&gt;Node12 -->
<g id="edge11" class="edge">
<title>Node11&#45;&gt;Node12</title>
<path fill="none" stroke="#191970" d="M982.5208,-118.9863C991.0778,-120.0125 999.7252,-121.0494 1008.1878,-122.0643"/>
<polygon fill="#191970" stroke="#191970" points="982.8793,-115.5043 972.5337,-117.7887 982.0458,-122.4545 982.8793,-115.5043"/>
</g>
<!-- Node13 -->
<g id="node13" class="node">
<title>Node13</title>
<g id="a_node13"><a xlink:href="classlocomotor_1_1core_1_1_main.html#a8b260eecbaabcef8473fd87ada040682" target="_top" xlink:title="locomotor.core.Main.main">
<polygon fill="#ffffff" stroke="#000000" points="1201.4658,-122.5 1201.4658,-140.5 1331.9629,-140.5 1331.9629,-122.5 1201.4658,-122.5"/>
<text text-anchor="middle" x="1266.7144" y="-128.5" font-family="Helvetica,sans-Serif" font-size="10.00" fill="#000000">locomotor.core.Main.main</text>
</a>
</g>
</g>
<!-- Node12&#45;&gt;Node13 -->
<g id="edge12" class="edge">
<title>Node12&#45;&gt;Node13</title>
<path fill="none" stroke="#191970" d="M1175.6656,-131.5C1184.3539,-131.5 1193.0562,-131.5 1201.4481,-131.5"/>
<polygon fill="#191970" stroke="#191970" points="1175.4922,-128.0001 1165.4922,-131.5 1175.4921,-135.0001 1175.4922,-128.0001"/>
</g>
<!-- Node15 -->
<g id="node15" class="node">
<title>Node15</title>
<g id="a_node15"><a xlink:href="classlocomotor_1_1components_1_1models_1_1_user_criteria.html#aaca1c5ec640a1453943ce97d40e12a63" target="_top" xlink:title="locomotor.components.models.\lUserCriteria.fromJSON">
<polygon fill="#ffffff" stroke="#000000" points="437.0547,-141.5 437.0547,-169.5 591.4629,-169.5 591.4629,-141.5 437.0547,-141.5"/>
<text text-anchor="start" x="445.0547" y="-157.5" font-family="Helvetica,sans-Serif" font-size="10.00" fill="#000000">locomotor.components.models.</text>
<text text-anchor="middle" x="514.2588" y="-147.5" font-family="Helvetica,sans-Serif" font-size="10.00" fill="#000000">UserCriteria.fromJSON</text>
</a>
</g>
</g>
<!-- Node14&#45;&gt;Node15 -->
<g id="edge14" class="edge">
<title>Node14&#45;&gt;Node15</title>
<path fill="none" stroke="#191970" d="M408.9021,-155.5C418.2602,-155.5 427.7652,-155.5 437.0418,-155.5"/>
<polygon fill="#191970" stroke="#191970" points="408.8231,-152.0001 398.823,-155.5 408.823,-159.0001 408.8231,-152.0001"/>
</g>
<!-- Node16 -->
<g id="node16" class="node">
<title>Node16</title>
<g id="a_node16"><a xlink:href="classlocomotor_1_1components_1_1models_1_1_user_category.html#a52e02970889790bace019e61fb256ff0" target="_top" xlink:title="locomotor.components.models.\lUserCategory.fromJSON">
<polygon fill="#ffffff" stroke="#000000" points="627.4629,-141.5 627.4629,-169.5 781.8711,-169.5 781.8711,-141.5 627.4629,-141.5"/>
<text text-anchor="start" x="635.4629" y="-157.5" font-family="Helvetica,sans-Serif" font-size="10.00" fill="#000000">locomotor.components.models.</text>
<text text-anchor="middle" x="704.667" y="-147.5" font-family="Helvetica,sans-Serif" font-size="10.00" fill="#000000">UserCategory.fromJSON</text>
</a>
</g>
</g>
<!-- Node15&#45;&gt;Node16 -->
<g id="edge15" class="edge">
<title>Node15&#45;&gt;Node16</title>
<path fill="none" stroke="#191970" d="M601.9592,-155.5C610.4128,-155.5 618.9458,-155.5 627.2893,-155.5"/>
<polygon fill="#191970" stroke="#191970" points="601.7051,-152.0001 591.7051,-155.5 601.7051,-159.0001 601.7051,-152.0001"/>
</g>
<!-- Node17 -->
<g id="node17" class="node">
<title>Node17</title>
<g id="a_node17"><a xlink:href="classlocomotor_1_1components_1_1models_1_1_user_item.html#ab97f79cf43a9a73bcd77cec6b449a79a" target="_top" xlink:title="locomotor.components.models.\lUserItem.fromJSON">
<polygon fill="#ffffff" stroke="#000000" points="817.8711,-141.5 817.8711,-169.5 972.2793,-169.5 972.2793,-141.5 817.8711,-141.5"/>
<text text-anchor="start" x="825.8711" y="-157.5" font-family="Helvetica,sans-Serif" font-size="10.00" fill="#000000">locomotor.components.models.</text>
<text text-anchor="middle" x="895.0752" y="-147.5" font-family="Helvetica,sans-Serif" font-size="10.00" fill="#000000">UserItem.fromJSON</text>
</a>
</g>
</g>
<!-- Node16&#45;&gt;Node17 -->
<g id="edge16" class="edge">
<title>Node16&#45;&gt;Node17</title>
<path fill="none" stroke="#191970" d="M792.3674,-155.5C800.821,-155.5 809.354,-155.5 817.6975,-155.5"/>
<polygon fill="#191970" stroke="#191970" points="792.1133,-152.0001 782.1133,-155.5 792.1133,-159.0001 792.1133,-152.0001"/>
</g>
<!-- Node17&#45;&gt;Node12 -->
<g id="edge17" class="edge">
<title>Node17&#45;&gt;Node12</title>
<path fill="none" stroke="#191970" d="M982.5208,-144.5578C991.0778,-143.487 999.7252,-142.4049 1008.1878,-141.346"/>
<polygon fill="#191970" stroke="#191970" points="982.0217,-141.0928 972.5337,-145.8075 982.8909,-148.0387 982.0217,-141.0928"/>
</g>
<!-- Node19&#45;&gt;Node8 -->
<g id="edge20" class="edge">
<title>Node19&#45;&gt;Node8</title>
<path fill="none" stroke="#191970" d="M224.3375,-108.5C232.9256,-108.5 241.6192,-108.5 250.1169,-108.5"/>
<polygon fill="#191970" stroke="#191970" points="224.3226,-105.0001 214.3226,-108.5 224.3225,-112.0001 224.3226,-105.0001"/>
</g>
<!-- Node19&#45;&gt;Node14 -->
<g id="edge21" class="edge">
<title>Node19&#45;&gt;Node14</title>
<path fill="none" stroke="#191970" d="M206.3111,-125.102C227.3343,-130.4583 250.4166,-136.3393 270.6305,-141.4894"/>
<polygon fill="#191970" stroke="#191970" points="207.0518,-121.6789 196.4972,-122.6015 205.3235,-128.4622 207.0518,-121.6789"/>
</g>
</g>
</svg>
