<?xml version="1.0" encoding="UTF-8" standalone="no"?>
<!DOCTYPE svg PUBLIC "-//W3C//DTD SVG 1.1//EN"
 "http://www.w3.org/Graphics/SVG/1.1/DTD/svg11.dtd">
<!-- Generated by graphviz version 2.40.1 (20161225.0304)
 -->
<!-- Title: getTree Pages: 1 -->
<svg width="978pt" height="102pt"
 viewBox="0.00 0.00 977.88 102.00" xmlns="http://www.w3.org/2000/svg" xmlns:xlink="http://www.w3.org/1999/xlink">
<g id="graph0" class="graph" transform="scale(1 1) rotate(0) translate(4 98)">
<title>getTree</title>
<polygon fill="#ffffff" stroke="transparent" points="-4,4 -4,-98 973.877,-98 973.877,4 -4,4"/>
<!-- Node1 -->
<g id="node1" class="node">
<title>Node1</title>
<polygon fill="#bfbfbf" stroke="#000000" points="0,-54.5 0,-72.5 50.0967,-72.5 50.0967,-54.5 0,-54.5"/>
<text text-anchor="middle" x="25.0483" y="-60.5" font-family="Helvetica,sans-Serif" font-size="10.00" fill="#000000">getTree</text>
</g>
<!-- Node2 -->
<g id="node2" class="node">
<title>Node2</title>
<g id="a_node2"><a xlink:href="classlocomotor_1_1components_1_1types_1_1_type_factory.html#a5f92827e8d1d5348ebff49dc8bae4f65" target="_top" xlink:title="locomotor.components.types.\lTypeFactory.getItem">
<polygon fill="#ffffff" stroke="#000000" points="86.0967,-49.5 86.0967,-77.5 232.1699,-77.5 232.1699,-49.5 86.0967,-49.5"/>
<text text-anchor="start" x="94.0967" y="-65.5" font-family="Helvetica,sans-Serif" font-size="10.00" fill="#000000">locomotor.components.types.</text>
<text text-anchor="middle" x="159.1333" y="-55.5" font-family="Helvetica,sans-Serif" font-size="10.00" fill="#000000">TypeFactory.getItem</text>
</a>
</g>
</g>
<!-- Node1&#45;&gt;Node2 -->
<g id="edge1" class="edge">
<title>Node1&#45;&gt;Node2</title>
<path fill="none" stroke="#191970" d="M60.5277,-63.5C68.4388,-63.5 77.1096,-63.5 85.9238,-63.5"/>
<polygon fill="#191970" stroke="#191970" points="60.2687,-60.0001 50.2687,-63.5 60.2687,-67.0001 60.2687,-60.0001"/>
</g>
<!-- Node3 -->
<g id="node3" class="node">
<title>Node3</title>
<g id="a_node3"><a xlink:href="classlocomotor_1_1core_1_1_d_b_h.html#ae573347d7e17b2bf2bac3c4a41caf0fa" target="_top" xlink:title="locomotor.core.DBH.getItem">
<polygon fill="#ffffff" stroke="#000000" points="271.229,-75.5 271.229,-93.5 412.8394,-93.5 412.8394,-75.5 271.229,-75.5"/>
<text text-anchor="middle" x="342.0342" y="-81.5" font-family="Helvetica,sans-Serif" font-size="10.00" fill="#000000">locomotor.core.DBH.getItem</text>
</a>
</g>
</g>
<!-- Node2&#45;&gt;Node3 -->
<g id="edge2" class="edge">
<title>Node2&#45;&gt;Node3</title>
<path fill="none" stroke="#191970" d="M242.2189,-73.0396C251.8855,-74.1495 261.6778,-75.2738 271.1589,-76.3624"/>
<polygon fill="#191970" stroke="#191970" points="242.5431,-69.5539 232.2091,-71.8903 241.7446,-76.5082 242.5431,-69.5539"/>
</g>
<!-- Node6 -->
<g id="node6" class="node">
<title>Node6</title>
<g id="a_node6"><a xlink:href="classlocomotor_1_1core_1_1_d_b_h.html#ad067053be75a3170dc9c2ce7b922e176" target="_top" xlink:title="locomotor.core.DBH.checking\lParsingItem">
<polygon fill="#ffffff" stroke="#000000" points="268.1699,-28.5 268.1699,-56.5 415.8984,-56.5 415.8984,-28.5 268.1699,-28.5"/>
<text text-anchor="start" x="276.1699" y="-44.5" font-family="Helvetica,sans-Serif" font-size="10.00" fill="#000000">locomotor.core.DBH.checking</text>
<text text-anchor="middle" x="342.0342" y="-34.5" font-family="Helvetica,sans-Serif" font-size="10.00" fill="#000000">ParsingItem</text>
</a>
</g>
</g>
<!-- Node2&#45;&gt;Node6 -->
<g id="edge5" class="edge">
<title>Node2&#45;&gt;Node6</title>
<path fill="none" stroke="#191970" d="M242.1976,-53.9629C250.7605,-52.9797 259.4223,-51.9852 267.8793,-51.0142"/>
<polygon fill="#191970" stroke="#191970" points="241.7446,-50.4918 232.2091,-55.1097 242.5431,-57.4461 241.7446,-50.4918"/>
</g>
<!-- Node4 -->
<g id="node4" class="node">
<title>Node4</title>
<g id="a_node4"><a xlink:href="classlocomotor_1_1components_1_1network_1_1_a_p_i.html#a547463fbc7fb7b485886f0917e2c0b78" target="_top" xlink:title="locomotor.components.network.\lAPI.createHooks">
<polygon fill="#ffffff" stroke="#000000" points="646.1934,-32.5 646.1934,-60.5 803.3799,-60.5 803.3799,-32.5 646.1934,-32.5"/>
<text text-anchor="start" x="654.1934" y="-48.5" font-family="Helvetica,sans-Serif" font-size="10.00" fill="#000000">locomotor.components.network.</text>
<text text-anchor="middle" x="724.7866" y="-38.5" font-family="Helvetica,sans-Serif" font-size="10.00" fill="#000000">API.createHooks</text>
</a>
</g>
</g>
<!-- Node3&#45;&gt;Node4 -->
<g id="edge3" class="edge">
<title>Node3&#45;&gt;Node4</title>
<path fill="none" stroke="#191970" d="M423.1341,-80.7329C476.4209,-77.7708 547.5991,-72.8903 610.1934,-65.5 621.9093,-64.1167 634.2546,-62.3735 646.3299,-60.5071"/>
<polygon fill="#191970" stroke="#191970" points="422.856,-77.2428 413.0613,-81.2819 423.237,-84.2324 422.856,-77.2428"/>
</g>
<!-- Node5 -->
<g id="node5" class="node">
<title>Node5</title>
<g id="a_node5"><a xlink:href="classlocomotor_1_1core_1_1_main.html#a8b260eecbaabcef8473fd87ada040682" target="_top" xlink:title="locomotor.core.Main.main">
<polygon fill="#ffffff" stroke="#000000" points="839.3799,-37.5 839.3799,-55.5 969.877,-55.5 969.877,-37.5 839.3799,-37.5"/>
<text text-anchor="middle" x="904.6284" y="-43.5" font-family="Helvetica,sans-Serif" font-size="10.00" fill="#000000">locomotor.core.Main.main</text>
</a>
</g>
</g>
<!-- Node4&#45;&gt;Node5 -->
<g id="edge4" class="edge">
<title>Node4&#45;&gt;Node5</title>
<path fill="none" stroke="#191970" d="M813.5796,-46.5C822.2679,-46.5 830.9703,-46.5 839.3622,-46.5"/>
<polygon fill="#191970" stroke="#191970" points="813.4063,-43.0001 803.4062,-46.5 813.4062,-50.0001 813.4063,-43.0001"/>
</g>
<!-- Node7 -->
<g id="node7" class="node">
<title>Node7</title>
<g id="a_node7"><a xlink:href="classlocomotor_1_1core_1_1_d_b_h.html#ae26eef1ee7482f2e0167c6a18924d214" target="_top" xlink:title="locomotor.core.DBH.addItem">
<polygon fill="#ffffff" stroke="#000000" points="458.8491,-37.5 458.8491,-55.5 603.2427,-55.5 603.2427,-37.5 458.8491,-37.5"/>
<text text-anchor="middle" x="531.0459" y="-43.5" font-family="Helvetica,sans-Serif" font-size="10.00" fill="#000000">locomotor.core.DBH.addItem</text>
</a>
</g>
</g>
<!-- Node6&#45;&gt;Node7 -->
<g id="edge6" class="edge">
<title>Node6&#45;&gt;Node7</title>
<path fill="none" stroke="#191970" d="M426.2481,-44.2822C437.0955,-44.5118 448.1259,-44.7452 458.7585,-44.9702"/>
<polygon fill="#191970" stroke="#191970" points="425.995,-40.7761 415.9231,-44.0637 425.8468,-47.7746 425.995,-40.7761"/>
</g>
<!-- Node8 -->
<g id="node8" class="node">
<title>Node8</title>
<g id="a_node8"><a xlink:href="classlocomotor_1_1core_1_1_d_b_h.html#aa0e39c547d06fd9d0ad2de70251c9cc0" target="_top" xlink:title="locomotor.core.DBH.updateItem">
<polygon fill="#ffffff" stroke="#000000" points="451.8984,-.5 451.8984,-18.5 610.1934,-18.5 610.1934,-.5 451.8984,-.5"/>
<text text-anchor="middle" x="531.0459" y="-6.5" font-family="Helvetica,sans-Serif" font-size="10.00" fill="#000000">locomotor.core.DBH.updateItem</text>
</a>
</g>
</g>
<!-- Node6&#45;&gt;Node8 -->
<g id="edge8" class="edge">
<title>Node6&#45;&gt;Node8</title>
<path fill="none" stroke="#191970" d="M425.962,-27.8468C444.1616,-24.6693 462.891,-21.3993 479.4049,-18.5161"/>
<polygon fill="#191970" stroke="#191970" points="425.1721,-24.4317 415.9231,-29.5996 426.3761,-31.3274 425.1721,-24.4317"/>
</g>
<!-- Node7&#45;&gt;Node4 -->
<g id="edge7" class="edge">
<title>Node7&#45;&gt;Node4</title>
<path fill="none" stroke="#191970" d="M613.6452,-46.5C624.3594,-46.5 635.3118,-46.5 645.9625,-46.5"/>
<polygon fill="#191970" stroke="#191970" points="613.4633,-43.0001 603.4633,-46.5 613.4633,-50.0001 613.4633,-43.0001"/>
</g>
<!-- Node8&#45;&gt;Node4 -->
<g id="edge9" class="edge">
<title>Node8&#45;&gt;Node4</title>
<path fill="none" stroke="#191970" d="M588.5022,-20.4728C608.2448,-24.2432 630.6206,-28.5165 651.4509,-32.4946"/>
<polygon fill="#191970" stroke="#191970" points="588.9193,-16.9893 578.4402,-18.5512 587.6061,-23.865 588.9193,-16.9893"/>
</g>
</g>
</svg>
