<?xml version="1.0" encoding="UTF-8" standalone="no"?>
<!DOCTYPE svg PUBLIC "-//W3C//DTD SVG 1.1//EN"
 "http://www.w3.org/Graphics/SVG/1.1/DTD/svg11.dtd">
<!-- Generated by graphviz version 2.40.1 (20161225.0304)
 -->
<!-- Title: createShortToken Pages: 1 -->
<svg width="462pt" height="37pt"
 viewBox="0.00 0.00 462.06 37.00" xmlns="http://www.w3.org/2000/svg" xmlns:xlink="http://www.w3.org/1999/xlink">
<g id="graph0" class="graph" transform="scale(1 1) rotate(0) translate(4 33)">
<title>createShortToken</title>
<polygon fill="#ffffff" stroke="transparent" points="-4,4 -4,-33 458.0625,-33 458.0625,4 -4,4"/>
<!-- Node1 -->
<g id="node1" class="node">
<title>Node1</title>
<polygon fill="#bfbfbf" stroke="#000000" points="0,-5.5 0,-23.5 94.3789,-23.5 94.3789,-5.5 0,-5.5"/>
<text text-anchor="middle" x="47.1895" y="-11.5" font-family="Helvetica,sans-Serif" font-size="10.00" fill="#000000">createShortToken</text>
</g>
<!-- Node2 -->
<g id="node2" class="node">
<title>Node2</title>
<g id="a_node2"><a xlink:href="classlocomotor_1_1components_1_1network_1_1_a_p_i.html#a547463fbc7fb7b485886f0917e2c0b78" target="_top" xlink:title="locomotor.components.network.\lAPI.createHooks">
<polygon fill="#ffffff" stroke="#000000" points="130.3789,-.5 130.3789,-28.5 287.5654,-28.5 287.5654,-.5 130.3789,-.5"/>
<text text-anchor="start" x="138.3789" y="-16.5" font-family="Helvetica,sans-Serif" font-size="10.00" fill="#000000">locomotor.components.network.</text>
<text text-anchor="middle" x="208.9722" y="-6.5" font-family="Helvetica,sans-Serif" font-size="10.00" fill="#000000">API.createHooks</text>
</a>
</g>
</g>
<!-- Node1&#45;&gt;Node2 -->
<g id="edge1" class="edge">
<title>Node1&#45;&gt;Node2</title>
<path fill="none" stroke="#191970" d="M104.4444,-14.5C112.8374,-14.5 121.6026,-14.5 130.3328,-14.5"/>
<polygon fill="#191970" stroke="#191970" points="104.4187,-11.0001 94.4186,-14.5 104.4186,-18.0001 104.4187,-11.0001"/>
</g>
<!-- Node3 -->
<g id="node3" class="node">
<title>Node3</title>
<g id="a_node3"><a xlink:href="classlocomotor_1_1core_1_1_main.html#a8b260eecbaabcef8473fd87ada040682" target="_top" xlink:title="locomotor.core.Main.main">
<polygon fill="#ffffff" stroke="#000000" points="323.5654,-5.5 323.5654,-23.5 454.0625,-23.5 454.0625,-5.5 323.5654,-5.5"/>
<text text-anchor="middle" x="388.814" y="-11.5" font-family="Helvetica,sans-Serif" font-size="10.00" fill="#000000">locomotor.core.Main.main</text>
</a>
</g>
</g>
<!-- Node2&#45;&gt;Node3 -->
<g id="edge2" class="edge">
<title>Node2&#45;&gt;Node3</title>
<path fill="none" stroke="#191970" d="M297.7652,-14.5C306.4535,-14.5 315.1558,-14.5 323.5477,-14.5"/>
<polygon fill="#191970" stroke="#191970" points="297.5918,-11.0001 287.5918,-14.5 297.5917,-18.0001 297.5918,-11.0001"/>
</g>
</g>
</svg>
