<?xml version="1.0" encoding="UTF-8" standalone="no"?>
<!DOCTYPE svg PUBLIC "-//W3C//DTD SVG 1.1//EN"
 "http://www.w3.org/Graphics/SVG/1.1/DTD/svg11.dtd">
<!-- Generated by graphviz version 2.40.1 (20161225.0304)
 -->
<!-- Title: add Pages: 1 -->
<svg width="466pt" height="37pt"
 viewBox="0.00 0.00 466.27 37.00" xmlns="http://www.w3.org/2000/svg" xmlns:xlink="http://www.w3.org/1999/xlink">
<g id="graph0" class="graph" transform="scale(1 1) rotate(0) translate(4 33)">
<title>add</title>
<polygon fill="#ffffff" stroke="transparent" points="-4,4 -4,-33 462.2695,-33 462.2695,4 -4,4"/>
<!-- Node1 -->
<g id="node1" class="node">
<title>Node1</title>
<polygon fill="#bfbfbf" stroke="#000000" points="0,-5.5 0,-23.5 32.6846,-23.5 32.6846,-5.5 0,-5.5"/>
<text text-anchor="middle" x="16.3423" y="-11.5" font-family="Helvetica,sans-Serif" font-size="10.00" fill="#000000">add</text>
</g>
<!-- Node2 -->
<g id="node2" class="node">
<title>Node2</title>
<g id="a_node2"><a xlink:href="classlocomotor_1_1components_1_1logging_1_1_error_handler.html#aa1c41229680fc7d6f82fd73a7e40c4f8" target="_top" xlink:title="get">
<polygon fill="#ffffff" stroke="#000000" points="68.6846,-5.5 68.6846,-23.5 98.5859,-23.5 98.5859,-5.5 68.6846,-5.5"/>
<text text-anchor="middle" x="83.6353" y="-11.5" font-family="Helvetica,sans-Serif" font-size="10.00" fill="#000000">get</text>
</a>
</g>
</g>
<!-- Node1&#45;&gt;Node2 -->
<g id="edge1" class="edge">
<title>Node1&#45;&gt;Node2</title>
<path fill="none" stroke="#191970" d="M43.0728,-14.5C51.745,-14.5 61.0577,-14.5 68.5701,-14.5"/>
<polygon fill="#191970" stroke="#191970" points="42.9765,-11.0001 32.9765,-14.5 42.9765,-18.0001 42.9765,-11.0001"/>
</g>
<!-- Node3 -->
<g id="node3" class="node">
<title>Node3</title>
<g id="a_node3"><a xlink:href="classlocomotor_1_1components_1_1network_1_1_network_handler.html#a63d431845f1fd2adc1f96432f6003e25" target="_top" xlink:title="locomotor.components.network.\lNetworkHandler.init">
<polygon fill="#ffffff" stroke="#000000" points="134.5859,-.5 134.5859,-28.5 291.7725,-28.5 291.7725,-.5 134.5859,-.5"/>
<text text-anchor="start" x="142.5859" y="-16.5" font-family="Helvetica,sans-Serif" font-size="10.00" fill="#000000">locomotor.components.network.</text>
<text text-anchor="middle" x="213.1792" y="-6.5" font-family="Helvetica,sans-Serif" font-size="10.00" fill="#000000">NetworkHandler.init</text>
</a>
</g>
</g>
<!-- Node2&#45;&gt;Node3 -->
<g id="edge2" class="edge">
<title>Node2&#45;&gt;Node3</title>
<path fill="none" stroke="#191970" d="M108.9688,-14.5C116.5792,-14.5 125.3625,-14.5 134.5352,-14.5"/>
<polygon fill="#191970" stroke="#191970" points="108.7492,-11.0001 98.7491,-14.5 108.7491,-18.0001 108.7492,-11.0001"/>
</g>
<!-- Node4 -->
<g id="node4" class="node">
<title>Node4</title>
<g id="a_node4"><a xlink:href="classlocomotor_1_1core_1_1_main.html#a8b260eecbaabcef8473fd87ada040682" target="_top" xlink:title="locomotor.core.Main.main">
<polygon fill="#ffffff" stroke="#000000" points="327.7725,-5.5 327.7725,-23.5 458.2695,-23.5 458.2695,-5.5 327.7725,-5.5"/>
<text text-anchor="middle" x="393.021" y="-11.5" font-family="Helvetica,sans-Serif" font-size="10.00" fill="#000000">locomotor.core.Main.main</text>
</a>
</g>
</g>
<!-- Node3&#45;&gt;Node4 -->
<g id="edge3" class="edge">
<title>Node3&#45;&gt;Node4</title>
<path fill="none" stroke="#191970" d="M301.9722,-14.5C310.6605,-14.5 319.3629,-14.5 327.7547,-14.5"/>
<polygon fill="#191970" stroke="#191970" points="301.7988,-11.0001 291.7988,-14.5 301.7988,-18.0001 301.7988,-11.0001"/>
</g>
</g>
</svg>
