<?xml version="1.0" encoding="UTF-8" standalone="no"?>
<!DOCTYPE svg PUBLIC "-//W3C//DTD SVG 1.1//EN"
 "http://www.w3.org/Graphics/SVG/1.1/DTD/svg11.dtd">
<!-- Generated by graphviz version 2.40.1 (20161225.0304)
 -->
<!-- Title: fromJSON Pages: 1 -->
<svg width="621pt" height="37pt"
 viewBox="0.00 0.00 620.76 37.00" xmlns="http://www.w3.org/2000/svg" xmlns:xlink="http://www.w3.org/1999/xlink">
<g id="graph0" class="graph" transform="scale(1 1) rotate(0) translate(4 33)">
<title>fromJSON</title>
<polygon fill="#ffffff" stroke="transparent" points="-4,4 -4,-33 616.7617,-33 616.7617,4 -4,4"/>
<!-- Node1 -->
<g id="node1" class="node">
<title>Node1</title>
<polygon fill="#bfbfbf" stroke="#000000" points="0,-5.5 0,-23.5 62.6699,-23.5 62.6699,-5.5 0,-5.5"/>
<text text-anchor="middle" x="31.335" y="-11.5" font-family="Helvetica,sans-Serif" font-size="10.00" fill="#000000">fromJSON</text>
</g>
<!-- Node2 -->
<g id="node2" class="node">
<title>Node2</title>
<g id="a_node2"><a xlink:href="classlocomotor_1_1components_1_1models_1_1_item_full.html#afe56c5f49cb59d04ec69bbf32b58a2f8" target="_top" xlink:title="locomotor.components.models.\lItemFull.fromJSON">
<polygon fill="#ffffff" stroke="#000000" points="98.6699,-.5 98.6699,-28.5 253.0781,-28.5 253.0781,-.5 98.6699,-.5"/>
<text text-anchor="start" x="106.6699" y="-16.5" font-family="Helvetica,sans-Serif" font-size="10.00" fill="#000000">locomotor.components.models.</text>
<text text-anchor="middle" x="175.874" y="-6.5" font-family="Helvetica,sans-Serif" font-size="10.00" fill="#000000">ItemFull.fromJSON</text>
</a>
</g>
</g>
<!-- Node1&#45;&gt;Node2 -->
<g id="edge1" class="edge">
<title>Node1&#45;&gt;Node2</title>
<path fill="none" stroke="#191970" d="M72.941,-14.5C81.0434,-14.5 89.7772,-14.5 98.6109,-14.5"/>
<polygon fill="#191970" stroke="#191970" points="72.6978,-11.0001 62.6978,-14.5 72.6978,-18.0001 72.6978,-11.0001"/>
</g>
<!-- Node3 -->
<g id="node3" class="node">
<title>Node3</title>
<g id="a_node3"><a xlink:href="classlocomotor_1_1components_1_1network_1_1_a_p_i.html#a547463fbc7fb7b485886f0917e2c0b78" target="_top" xlink:title="locomotor.components.network.\lAPI.createHooks">
<polygon fill="#ffffff" stroke="#000000" points="289.0781,-.5 289.0781,-28.5 446.2646,-28.5 446.2646,-.5 289.0781,-.5"/>
<text text-anchor="start" x="297.0781" y="-16.5" font-family="Helvetica,sans-Serif" font-size="10.00" fill="#000000">locomotor.components.network.</text>
<text text-anchor="middle" x="367.6714" y="-6.5" font-family="Helvetica,sans-Serif" font-size="10.00" fill="#000000">API.createHooks</text>
</a>
</g>
</g>
<!-- Node2&#45;&gt;Node3 -->
<g id="edge2" class="edge">
<title>Node2&#45;&gt;Node3</title>
<path fill="none" stroke="#191970" d="M263.5987,-14.5C272.0646,-14.5 280.616,-14.5 288.9866,-14.5"/>
<polygon fill="#191970" stroke="#191970" points="263.3325,-11.0001 253.3325,-14.5 263.3325,-18.0001 263.3325,-11.0001"/>
</g>
<!-- Node4 -->
<g id="node4" class="node">
<title>Node4</title>
<g id="a_node4"><a xlink:href="classlocomotor_1_1core_1_1_main.html#a8b260eecbaabcef8473fd87ada040682" target="_top" xlink:title="locomotor.core.Main.main">
<polygon fill="#ffffff" stroke="#000000" points="482.2646,-5.5 482.2646,-23.5 612.7617,-23.5 612.7617,-5.5 482.2646,-5.5"/>
<text text-anchor="middle" x="547.5132" y="-11.5" font-family="Helvetica,sans-Serif" font-size="10.00" fill="#000000">locomotor.core.Main.main</text>
</a>
</g>
</g>
<!-- Node3&#45;&gt;Node4 -->
<g id="edge3" class="edge">
<title>Node3&#45;&gt;Node4</title>
<path fill="none" stroke="#191970" d="M456.4644,-14.5C465.1527,-14.5 473.8551,-14.5 482.2469,-14.5"/>
<polygon fill="#191970" stroke="#191970" points="456.291,-11.0001 446.291,-14.5 456.291,-18.0001 456.291,-11.0001"/>
</g>
</g>
</svg>
