<?xml version="1.0" encoding="UTF-8" standalone="no"?>
<!DOCTYPE svg PUBLIC "-//W3C//DTD SVG 1.1//EN"
 "http://www.w3.org/Graphics/SVG/1.1/DTD/svg11.dtd">
<!-- Generated by graphviz version 2.40.1 (20161225.0304)
 -->
<!-- Title: getCategoriesModel Pages: 1 -->
<svg width="297pt" height="131pt"
 viewBox="0.00 0.00 297.23 131.00" xmlns="http://www.w3.org/2000/svg" xmlns:xlink="http://www.w3.org/1999/xlink">
<g id="graph0" class="graph" transform="scale(1 1) rotate(0) translate(4 127)">
<title>getCategoriesModel</title>
<polygon fill="#ffffff" stroke="transparent" points="-4,4 -4,-127 293.2256,-127 293.2256,4 -4,4"/>
<!-- Node1 -->
<g id="node1" class="node">
<title>Node1</title>
<polygon fill="#bfbfbf" stroke="#000000" points="0,-52.5 0,-70.5 105.4971,-70.5 105.4971,-52.5 0,-52.5"/>
<text text-anchor="middle" x="52.7485" y="-58.5" font-family="Helvetica,sans-Serif" font-size="10.00" fill="#000000">getCategoriesModel</text>
</g>
<!-- Node2 -->
<g id="node2" class="node">
<title>Node2</title>
<g id="a_node2"><a xlink:href="enumlocomotor_1_1components_1_1types_1_1_c_enum_universe_type.html#a27351fda5fe6de820d869025880f326c" target="_top" xlink:title="locomotor.components.types.\lCEnumUniverseType.valueOf">
<polygon fill="#ffffff" stroke="#000000" points="141.4971,-94.5 141.4971,-122.5 289.2256,-122.5 289.2256,-94.5 141.4971,-94.5"/>
<text text-anchor="start" x="149.4971" y="-110.5" font-family="Helvetica,sans-Serif" font-size="10.00" fill="#000000">locomotor.components.types.</text>
<text text-anchor="middle" x="215.3613" y="-100.5" font-family="Helvetica,sans-Serif" font-size="10.00" fill="#000000">CEnumUniverseType.valueOf</text>
</a>
</g>
</g>
<!-- Node1&#45;&gt;Node2 -->
<g id="edge1" class="edge">
<title>Node1&#45;&gt;Node2</title>
<path fill="none" stroke="#191970" d="M84.1019,-70.5621C104.7969,-76.5435 132.5413,-84.5625 157.191,-91.687"/>
<polygon fill="#191970" stroke="#191970" points="156.2413,-95.0557 166.8199,-94.4701 158.185,-88.331 156.2413,-95.0557"/>
</g>
<!-- Node3 -->
<g id="node3" class="node">
<title>Node3</title>
<g id="a_node3"><a xlink:href="enumlocomotor_1_1components_1_1types_1_1_c_enum_item_type.html#ab48bf5b7b36a336edf6c49f42c126494" target="_top" xlink:title="locomotor.components.types.\lCEnumItemType.valueOf">
<polygon fill="#ffffff" stroke="#000000" points="142.3247,-47.5 142.3247,-75.5 288.3979,-75.5 288.3979,-47.5 142.3247,-47.5"/>
<text text-anchor="start" x="150.3247" y="-63.5" font-family="Helvetica,sans-Serif" font-size="10.00" fill="#000000">locomotor.components.types.</text>
<text text-anchor="middle" x="215.3613" y="-53.5" font-family="Helvetica,sans-Serif" font-size="10.00" fill="#000000">CEnumItemType.valueOf</text>
</a>
</g>
</g>
<!-- Node1&#45;&gt;Node3 -->
<g id="edge2" class="edge">
<title>Node1&#45;&gt;Node3</title>
<path fill="none" stroke="#191970" d="M105.5442,-61.5C114.0341,-61.5 122.9989,-61.5 131.9972,-61.5"/>
<polygon fill="#191970" stroke="#191970" points="132.1475,-65.0001 142.1475,-61.5 132.1474,-58.0001 132.1475,-65.0001"/>
</g>
<!-- Node4 -->
<g id="node4" class="node">
<title>Node4</title>
<g id="a_node4"><a xlink:href="enumlocomotor_1_1components_1_1types_1_1_c_enum_user_type.html#a9dece4179b4a5039a4651e4885dfeec8" target="_top" xlink:title="locomotor.components.types.\lCEnumUserType.valueOf">
<polygon fill="#ffffff" stroke="#000000" points="142.3247,-.5 142.3247,-28.5 288.3979,-28.5 288.3979,-.5 142.3247,-.5"/>
<text text-anchor="start" x="150.3247" y="-16.5" font-family="Helvetica,sans-Serif" font-size="10.00" fill="#000000">locomotor.components.types.</text>
<text text-anchor="middle" x="215.3613" y="-6.5" font-family="Helvetica,sans-Serif" font-size="10.00" fill="#000000">CEnumUserType.valueOf</text>
</a>
</g>
</g>
<!-- Node1&#45;&gt;Node4 -->
<g id="edge3" class="edge">
<title>Node1&#45;&gt;Node4</title>
<path fill="none" stroke="#191970" d="M84.1019,-52.4379C104.7969,-46.4565 132.5413,-38.4375 157.191,-31.313"/>
<polygon fill="#191970" stroke="#191970" points="158.185,-34.669 166.8199,-28.5299 156.2413,-27.9443 158.185,-34.669"/>
</g>
</g>
</svg>
