<?xml version="1.0" encoding="UTF-8" standalone="no"?>
<!DOCTYPE svg PUBLIC "-//W3C//DTD SVG 1.1//EN"
 "http://www.w3.org/Graphics/SVG/1.1/DTD/svg11.dtd">
<!-- Generated by graphviz version 2.40.1 (20161225.0304)
 -->
<!-- Title: computeGradeOfItems Pages: 1 -->
<!--zoomable 289 -->
<svg id="main" version="1.1" xmlns="http://www.w3.org/2000/svg" xmlns:xlink="http://www.w3.org/1999/xlink" xml:space="preserve" onload="init(evt)">
<style type="text/css"><![CDATA[
.edge:hover path { stroke: red; }
.edge:hover polygon { stroke: red; fill: red; }
]]></style>
<script type="text/javascript"><![CDATA[
var edges = document.getElementsByTagName('g');
if (edges && edges.length) {
  for (var i=0;i<edges.length;i++) {
    if (edges[i].id.substr(0,4)=='edge') {
      edges[i].setAttribute('class','edge');
    }
  }
}
]]></script>
        <defs>
                <circle id="rim" cx="0" cy="0" r="7"/>
                <circle id="rim2" cx="0" cy="0" r="3.5"/>
                <g id="zoomPlus">
                        <use xlink:href="#rim" fill="#404040">
                                <set attributeName="fill" to="#808080" begin="zoomplus.mouseover" end="zoomplus.mouseout"/>
                        </use>
                        <path d="M-4,0h8M0,-4v8" fill="none" stroke="white" stroke-width="1.5" pointer-events="none"/>
                </g>
                <g id="zoomMin">
                        <use xlink:href="#rim" fill="#404040">
                                <set attributeName="fill" to="#808080" begin="zoomminus.mouseover" end="zoomminus.mouseout"/>
                        </use>
                        <path d="M-4,0h8" fill="none" stroke="white" stroke-width="1.5" pointer-events="none"/>
                </g>
                <g id="dirArrow">
                        <path fill="none" stroke="white" stroke-width="1.5" d="M0,-3.0v7 M-2.5,-0.5L0,-3.0L2.5,-0.5"/>
                </g>
               <g id="resetDef">
                       <use xlink:href="#rim2" fill="#404040">
                               <set attributeName="fill" to="#808080" begin="reset.mouseover" end="reset.mouseout"/>
                       </use>
               </g>
        </defs>

<script type="text/javascript">
var viewWidth = 866;
var viewHeight = 289;
var sectionId = 'dynsection-7';
</script>
<script xlink:href="svgpan.js"/>
<svg id="graph" class="graph">
<g id="viewport">
<title>computeGradeOfItems</title>
<polygon fill="#ffffff" stroke="transparent" points="-4,4 -4,-285 862.1895,-285 862.1895,4 -4,4"/>
<!-- Node1 -->
<g id="node1" class="node">
<title>Node1</title>
<polygon fill="#bfbfbf" stroke="#000000" points="0,-131.5 0,-149.5 117.1523,-149.5 117.1523,-131.5 0,-131.5"/>
<text text-anchor="middle" x="58.5762" y="-137.5" font-family="Helvetica,sans-Serif" font-size="10.00" fill="#000000">computeGradeOfItems</text>
</g>
<!-- Node2 -->
<g id="node2" class="node">
<title>Node2</title>
<g id="a_node2"><a xlink:href="classlocomotor_1_1core_1_1_comparator.html#a589b06b817cbbc74ceb4812d0ba6c245" target="_top" xlink:title="computeGradeOfItem">
<polygon fill="#ffffff" stroke="#000000" points="153.1523,-168.5 153.1523,-186.5 265.3047,-186.5 265.3047,-168.5 153.1523,-168.5"/>
<text text-anchor="middle" x="209.2285" y="-174.5" font-family="Helvetica,sans-Serif" font-size="10.00" fill="#000000">computeGradeOfItem</text>
</a>
</g>
</g>
<!-- Node1&#45;&gt;Node2 -->
<g id="edge1" class="edge">
<title>Node1&#45;&gt;Node2</title>
<path fill="none" stroke="#191970" d="M95.4299,-149.5512C115.6588,-154.5194 140.948,-160.7304 162.5457,-166.0348"/>
<polygon fill="#191970" stroke="#191970" points="161.9483,-169.492 172.4945,-168.4782 163.6179,-162.694 161.9483,-169.492"/>
</g>
<!-- Node13 -->
<g id="node13" class="node">
<title>Node13</title>
<g id="a_node13"><a xlink:href="classlocomotor_1_1core_1_1_comparator.html#aa3aafa0139df54622b181928d3518488" target="_top" xlink:title="filterResults">
<polygon fill="#ffffff" stroke="#000000" points="175.1104,-131.5 175.1104,-149.5 243.3467,-149.5 243.3467,-131.5 175.1104,-131.5"/>
<text text-anchor="middle" x="209.2285" y="-137.5" font-family="Helvetica,sans-Serif" font-size="10.00" fill="#000000">filterResults</text>
</a>
</g>
</g>
<!-- Node1&#45;&gt;Node13 -->
<g id="edge13" class="edge">
<title>Node1&#45;&gt;Node13</title>
<path fill="none" stroke="#191970" d="M117.2537,-140.5C132.9434,-140.5 149.6476,-140.5 164.4552,-140.5"/>
<polygon fill="#191970" stroke="#191970" points="164.8606,-144.0001 174.8606,-140.5 164.8605,-137.0001 164.8606,-144.0001"/>
</g>
<!-- Node14 -->
<g id="node14" class="node">
<title>Node14</title>
<g id="a_node14"><a xlink:href="classlocomotor_1_1core_1_1_comparator.html#a2ac714803f2cf6e544315619a14ff13c" target="_top" xlink:title="toJSON">
<polygon fill="#ffffff" stroke="#000000" points="183.7236,-94.5 183.7236,-112.5 234.7334,-112.5 234.7334,-94.5 183.7236,-94.5"/>
<text text-anchor="middle" x="209.2285" y="-100.5" font-family="Helvetica,sans-Serif" font-size="10.00" fill="#000000">toJSON</text>
</a>
</g>
</g>
<!-- Node1&#45;&gt;Node14 -->
<g id="edge14" class="edge">
<title>Node1&#45;&gt;Node14</title>
<path fill="none" stroke="#191970" d="M95.4299,-131.4488C119.2566,-125.597 150.1034,-118.0211 173.6696,-112.2332"/>
<polygon fill="#191970" stroke="#191970" points="174.7305,-115.5768 183.6071,-109.7926 173.0609,-108.7788 174.7305,-115.5768"/>
</g>
<!-- Node3 -->
<g id="node3" class="node">
<title>Node3</title>
<g id="a_node3"><a xlink:href="classlocomotor_1_1components_1_1models_1_1_item.html#aac70f654e73d90f5caea40c18ace4312" target="_top" xlink:title="locomotor.components.models.\lItem.getCategories">
<polygon fill="#ffffff" stroke="#000000" points="309.0952,-252.5 309.0952,-280.5 463.5034,-280.5 463.5034,-252.5 309.0952,-252.5"/>
<text text-anchor="start" x="317.0952" y="-268.5" font-family="Helvetica,sans-Serif" font-size="10.00" fill="#000000">locomotor.components.models.</text>
<text text-anchor="middle" x="386.2993" y="-258.5" font-family="Helvetica,sans-Serif" font-size="10.00" fill="#000000">Item.getCategories</text>
</a>
</g>
</g>
<!-- Node2&#45;&gt;Node3 -->
<g id="edge2" class="edge">
<title>Node2&#45;&gt;Node3</title>
<path fill="none" stroke="#191970" d="M219.2232,-186.5436C235.3475,-200.6768 268.6105,-227.9845 301.3047,-243.5 305.5687,-245.5235 310.0405,-247.3935 314.6079,-249.1176"/>
<polygon fill="#191970" stroke="#191970" points="313.4867,-252.4334 324.0815,-252.4539 315.8119,-245.8308 313.4867,-252.4334"/>
</g>
<!-- Node4 -->
<g id="node4" class="node">
<title>Node4</title>
<g id="a_node4"><a xlink:href="classlocomotor_1_1components_1_1models_1_1_user_item.html#a9bd0f78e7cc56fec919e63d723a4806a" target="_top" xlink:title="locomotor.components.models.\lUserItem.getCategories">
<polygon fill="#ffffff" stroke="#000000" points="309.0952,-205.5 309.0952,-233.5 463.5034,-233.5 463.5034,-205.5 309.0952,-205.5"/>
<text text-anchor="start" x="317.0952" y="-221.5" font-family="Helvetica,sans-Serif" font-size="10.00" fill="#000000">locomotor.components.models.</text>
<text text-anchor="middle" x="386.2993" y="-211.5" font-family="Helvetica,sans-Serif" font-size="10.00" fill="#000000">UserItem.getCategories</text>
</a>
</g>
</g>
<!-- Node2&#45;&gt;Node4 -->
<g id="edge3" class="edge">
<title>Node2&#45;&gt;Node4</title>
<path fill="none" stroke="#191970" d="M247.2146,-186.5101C267.5767,-191.3398 293.3033,-197.442 317.077,-203.0809"/>
<polygon fill="#191970" stroke="#191970" points="316.587,-206.5617 327.1248,-205.4642 318.2025,-199.7507 316.587,-206.5617"/>
</g>
<!-- Node5 -->
<g id="node5" class="node">
<title>Node5</title>
<g id="a_node5"><a xlink:href="classlocomotor_1_1core_1_1_comparator.html#a3f526c90b5b3a645974bbb81e30d3c74" target="_top" xlink:title="computeGradeOfCategory">
<polygon fill="#ffffff" stroke="#000000" points="319.6592,-168.5 319.6592,-186.5 452.9395,-186.5 452.9395,-168.5 319.6592,-168.5"/>
<text text-anchor="middle" x="386.2993" y="-174.5" font-family="Helvetica,sans-Serif" font-size="10.00" fill="#000000">computeGradeOfCategory</text>
</a>
</g>
</g>
<!-- Node2&#45;&gt;Node5 -->
<g id="edge4" class="edge">
<title>Node2&#45;&gt;Node5</title>
<path fill="none" stroke="#191970" d="M265.7417,-177.5C279.6395,-177.5 294.7539,-177.5 309.4328,-177.5"/>
<polygon fill="#191970" stroke="#191970" points="309.5053,-181.0001 319.5053,-177.5 309.5053,-174.0001 309.5053,-181.0001"/>
</g>
<!-- Node6 -->
<g id="node6" class="node">
<title>Node6</title>
<g id="a_node6"><a xlink:href="classlocomotor_1_1components_1_1models_1_1_category.html#a0e11818fedf98727494278ea27386dea" target="_top" xlink:title="locomotor.components.models.\lCategory.getCriterias">
<polygon fill="#ffffff" stroke="#000000" points="507.2939,-207.5 507.2939,-235.5 661.7021,-235.5 661.7021,-207.5 507.2939,-207.5"/>
<text text-anchor="start" x="515.2939" y="-223.5" font-family="Helvetica,sans-Serif" font-size="10.00" fill="#000000">locomotor.components.models.</text>
<text text-anchor="middle" x="584.498" y="-213.5" font-family="Helvetica,sans-Serif" font-size="10.00" fill="#000000">Category.getCriterias</text>
</a>
</g>
</g>
<!-- Node5&#45;&gt;Node6 -->
<g id="edge5" class="edge">
<title>Node5&#45;&gt;Node6</title>
<path fill="none" stroke="#191970" d="M426.8861,-186.5102C451.2001,-191.9079 482.8355,-198.931 511.3775,-205.2673"/>
<polygon fill="#191970" stroke="#191970" points="510.8061,-208.7256 521.327,-207.4761 512.3232,-201.8919 510.8061,-208.7256"/>
</g>
<!-- Node7 -->
<g id="node7" class="node">
<title>Node7</title>
<g id="a_node7"><a xlink:href="classlocomotor_1_1core_1_1_comparator.html#a686a6117a0c0951d6b70fb883b2b5937" target="_top" xlink:title="computeGradeOfCriteria">
<polygon fill="#ffffff" stroke="#000000" points="522.0327,-131.5 522.0327,-149.5 646.9634,-149.5 646.9634,-131.5 522.0327,-131.5"/>
<text text-anchor="middle" x="584.498" y="-137.5" font-family="Helvetica,sans-Serif" font-size="10.00" fill="#000000">computeGradeOfCriteria</text>
</a>
</g>
</g>
<!-- Node5&#45;&gt;Node7 -->
<g id="edge6" class="edge">
<title>Node5&#45;&gt;Node7</title>
<path fill="none" stroke="#191970" d="M434.5307,-168.4961C462.1031,-163.3488 496.8834,-156.856 526.0063,-151.4193"/>
<polygon fill="#191970" stroke="#191970" points="526.8625,-154.82 536.0503,-149.5443 525.5778,-147.9389 526.8625,-154.82"/>
</g>
<!-- Node8 -->
<g id="node8" class="node">
<title>Node8</title>
<g id="a_node8"><a xlink:href="classlocomotor_1_1components_1_1models_1_1_criteria.html#a34e60b6081b4c555dc9f5b872cbe044e" target="_top" xlink:title="locomotor.components.models.\lCriteria.getID">
<polygon fill="#ffffff" stroke="#000000" points="700.7417,-197.5 700.7417,-225.5 855.1499,-225.5 855.1499,-197.5 700.7417,-197.5"/>
<text text-anchor="start" x="708.7417" y="-213.5" font-family="Helvetica,sans-Serif" font-size="10.00" fill="#000000">locomotor.components.models.</text>
<text text-anchor="middle" x="777.9458" y="-203.5" font-family="Helvetica,sans-Serif" font-size="10.00" fill="#000000">Criteria.getID</text>
</a>
</g>
</g>
<!-- Node5&#45;&gt;Node8 -->
<g id="edge12" class="edge">
<title>Node5&#45;&gt;Node8</title>
<path fill="none" stroke="#191970" d="M453.1362,-181.9343C508.9426,-185.7956 590.5677,-191.8124 661.7021,-198.5 671.0055,-199.3746 680.7201,-200.3549 690.3976,-201.3745"/>
<polygon fill="#191970" stroke="#191970" points="690.1349,-204.8663 700.4502,-202.4485 690.8786,-197.9059 690.1349,-204.8663"/>
</g>
<!-- Node7&#45;&gt;Node8 -->
<g id="edge7" class="edge">
<title>Node7&#45;&gt;Node8</title>
<path fill="none" stroke="#191970" d="M621.0582,-149.5335C634.1877,-153.3793 648.9044,-158.4015 661.7021,-164.5 679.0615,-172.7723 680.2518,-180.4213 697.7021,-188.5 701.9968,-190.4882 706.5016,-192.3435 711.0929,-194.0673"/>
<polygon fill="#191970" stroke="#191970" points="710.0045,-197.3947 720.5993,-197.4217 712.3338,-190.7936 710.0045,-197.3947"/>
</g>
<!-- Node9 -->
<g id="node9" class="node">
<title>Node9</title>
<g id="a_node9"><a xlink:href="classlocomotor_1_1components_1_1models_1_1_item_criteria.html#ad1dc198074d5d5e901d0e5159ded14fa" target="_top" xlink:title="locomotor.components.models.\lItemCriteria.getValue">
<polygon fill="#ffffff" stroke="#000000" points="700.7417,-150.5 700.7417,-178.5 855.1499,-178.5 855.1499,-150.5 700.7417,-150.5"/>
<text text-anchor="start" x="708.7417" y="-166.5" font-family="Helvetica,sans-Serif" font-size="10.00" fill="#000000">locomotor.components.models.</text>
<text text-anchor="middle" x="777.9458" y="-156.5" font-family="Helvetica,sans-Serif" font-size="10.00" fill="#000000">ItemCriteria.getValue</text>
</a>
</g>
</g>
<!-- Node7&#45;&gt;Node9 -->
<g id="edge8" class="edge">
<title>Node7&#45;&gt;Node9</title>
<path fill="none" stroke="#191970" d="M647.0378,-148.259C660.9398,-149.9837 675.923,-151.8426 690.6144,-153.6653"/>
<polygon fill="#191970" stroke="#191970" points="690.367,-157.1613 700.7219,-154.9193 691.2289,-150.2146 690.367,-157.1613"/>
</g>
<!-- Node10 -->
<g id="node10" class="node">
<title>Node10</title>
<g id="a_node10"><a xlink:href="classlocomotor_1_1components_1_1models_1_1_user_criteria.html#ae439cd3f7be14d7e03f87a7ca9367d54" target="_top" xlink:title="locomotor.components.models.\lUserCriteria.getValue">
<polygon fill="#ffffff" stroke="#000000" points="700.7417,-103.5 700.7417,-131.5 855.1499,-131.5 855.1499,-103.5 700.7417,-103.5"/>
<text text-anchor="start" x="708.7417" y="-119.5" font-family="Helvetica,sans-Serif" font-size="10.00" fill="#000000">locomotor.components.models.</text>
<text text-anchor="middle" x="777.9458" y="-109.5" font-family="Helvetica,sans-Serif" font-size="10.00" fill="#000000">UserCriteria.getValue</text>
</a>
</g>
</g>
<!-- Node7&#45;&gt;Node10 -->
<g id="edge9" class="edge">
<title>Node7&#45;&gt;Node10</title>
<path fill="none" stroke="#191970" d="M647.0378,-133.0643C660.9398,-131.4114 675.923,-129.63 690.6144,-127.8833"/>
<polygon fill="#191970" stroke="#191970" points="691.2051,-131.3378 700.7219,-126.6815 690.3786,-124.3868 691.2051,-131.3378"/>
</g>
<!-- Node11 -->
<g id="node11" class="node">
<title>Node11</title>
<g id="a_node11"><a xlink:href="classlocomotor_1_1components_1_1models_1_1_user_criteria.html#a671adef5afc1b82389174abfaff3c892" target="_top" xlink:title="locomotor.components.models.\lUserCriteria.getDisableFlexibility">
<polygon fill="#ffffff" stroke="#000000" points="697.7021,-56.5 697.7021,-84.5 858.1895,-84.5 858.1895,-56.5 697.7021,-56.5"/>
<text text-anchor="start" x="705.7021" y="-72.5" font-family="Helvetica,sans-Serif" font-size="10.00" fill="#000000">locomotor.components.models.</text>
<text text-anchor="middle" x="777.9458" y="-62.5" font-family="Helvetica,sans-Serif" font-size="10.00" fill="#000000">UserCriteria.getDisableFlexibility</text>
</a>
</g>
</g>
<!-- Node7&#45;&gt;Node11 -->
<g id="edge10" class="edge">
<title>Node7&#45;&gt;Node11</title>
<path fill="none" stroke="#191970" d="M634.5875,-131.4311C643.8482,-128.8517 653.2551,-125.5927 661.7021,-121.5 679.9437,-112.6619 679.6311,-102.6816 697.7021,-93.5 701.4813,-91.5799 705.4444,-89.7983 709.5001,-88.1486"/>
<polygon fill="#191970" stroke="#191970" points="710.9649,-91.337 719.0885,-84.5357 708.4966,-84.7866 710.9649,-91.337"/>
</g>
<!-- Node12 -->
<g id="node12" class="node">
<title>Node12</title>
<g id="a_node12"><a xlink:href="interfacelocomotor_1_1components_1_1types_1_1_c_comparable.html#a1d9a08e9f962c76e6525f8da05ca7f21" target="_top" xlink:title="locomotor.components.types.\lCComparable.compare">
<polygon fill="#ffffff" stroke="#000000" points="704.9092,-9.5 704.9092,-37.5 850.9824,-37.5 850.9824,-9.5 704.9092,-9.5"/>
<text text-anchor="start" x="712.9092" y="-25.5" font-family="Helvetica,sans-Serif" font-size="10.00" fill="#000000">locomotor.components.types.</text>
<text text-anchor="middle" x="777.9458" y="-15.5" font-family="Helvetica,sans-Serif" font-size="10.00" fill="#000000">CComparable.compare</text>
</a>
</g>
</g>
<!-- Node7&#45;&gt;Node12 -->
<g id="edge11" class="edge">
<title>Node7&#45;&gt;Node12</title>
<path fill="none" stroke="#191970" d="M644.7826,-131.3661C650.8783,-128.8201 656.6669,-125.5909 661.7021,-121.5 690.3991,-98.1849 669.4514,-70.3538 697.7021,-46.5 699.2385,-45.2028 700.8441,-43.9786 702.5068,-42.8233"/>
<polygon fill="#191970" stroke="#191970" points="704.4533,-45.7375 711.2411,-37.6027 700.8619,-39.729 704.4533,-45.7375"/>
</g>
<!-- Node15 -->
<g id="node15" class="node">
<title>Node15</title>
<g id="a_node15"><a xlink:href="classlocomotor_1_1components_1_1_pair.html#a54ce528c748b0b56861a8179404e34f5" target="_top" xlink:title="locomotor.components.Pair.getLeft">
<polygon fill="#ffffff" stroke="#000000" points="301.3047,-131.5 301.3047,-149.5 471.2939,-149.5 471.2939,-131.5 301.3047,-131.5"/>
<text text-anchor="middle" x="386.2993" y="-137.5" font-family="Helvetica,sans-Serif" font-size="10.00" fill="#000000">locomotor.components.Pair.getLeft</text>
</a>
</g>
</g>
<!-- Node14&#45;&gt;Node15 -->
<g id="edge15" class="edge">
<title>Node14&#45;&gt;Node15</title>
<path fill="none" stroke="#191970" d="M234.9761,-108.8801C260.6193,-114.2384 300.7408,-122.622 333.2292,-129.4107"/>
<polygon fill="#191970" stroke="#191970" points="332.5377,-132.8417 343.0422,-131.4612 333.9695,-125.9897 332.5377,-132.8417"/>
</g>
<!-- Node16 -->
<g id="node16" class="node">
<title>Node16</title>
<g id="a_node16"><a xlink:href="classlocomotor_1_1core_1_1_d_b_h.html#a0b2d292079fe232a4c3dae4636167641" target="_top" xlink:title="locomotor.core.DBH.getInstance">
<polygon fill="#ffffff" stroke="#000000" points="306.3169,-94.5 306.3169,-112.5 466.2817,-112.5 466.2817,-94.5 306.3169,-94.5"/>
<text text-anchor="middle" x="386.2993" y="-100.5" font-family="Helvetica,sans-Serif" font-size="10.00" fill="#000000">locomotor.core.DBH.getInstance</text>
</a>
</g>
</g>
<!-- Node14&#45;&gt;Node16 -->
<g id="edge16" class="edge">
<title>Node14&#45;&gt;Node16</title>
<path fill="none" stroke="#191970" d="M234.9761,-103.5C251.2792,-103.5 273.4345,-103.5 295.7598,-103.5"/>
<polygon fill="#191970" stroke="#191970" points="296.0089,-107.0001 306.0089,-103.5 296.0089,-100.0001 296.0089,-107.0001"/>
</g>
<!-- Node18 -->
<g id="node18" class="node">
<title>Node18</title>
<g id="a_node18"><a xlink:href="classlocomotor_1_1core_1_1_d_b_h.html#a187693f2e10c94113aefcb345fe5f518" target="_top" xlink:title="locomotor.core.DBH.getPartial\lInfoOfItem">
<polygon fill="#ffffff" stroke="#000000" points="311.0459,-47.5 311.0459,-75.5 461.5527,-75.5 461.5527,-47.5 311.0459,-47.5"/>
<text text-anchor="start" x="319.0459" y="-63.5" font-family="Helvetica,sans-Serif" font-size="10.00" fill="#000000">locomotor.core.DBH.getPartial</text>
<text text-anchor="middle" x="386.2993" y="-53.5" font-family="Helvetica,sans-Serif" font-size="10.00" fill="#000000">InfoOfItem</text>
</a>
</g>
</g>
<!-- Node14&#45;&gt;Node18 -->
<g id="edge18" class="edge">
<title>Node14&#45;&gt;Node18</title>
<path fill="none" stroke="#191970" d="M234.9761,-97.3928C256.5124,-92.2846 288.2608,-84.7541 317.1231,-77.9081"/>
<polygon fill="#191970" stroke="#191970" points="318.268,-81.2338 327.1902,-75.5203 316.6524,-74.4227 318.268,-81.2338"/>
</g>
<!-- Node19 -->
<g id="node19" class="node">
<title>Node19</title>
<g id="a_node19"><a xlink:href="classlocomotor_1_1components_1_1_pair.html#a372a73c0f39951186746e06a624f43d8" target="_top" xlink:title="locomotor.components.Pair.get\lRight">
<polygon fill="#ffffff" stroke="#000000" points="309.6445,-.5 309.6445,-28.5 462.9541,-28.5 462.9541,-.5 309.6445,-.5"/>
<text text-anchor="start" x="317.6445" y="-16.5" font-family="Helvetica,sans-Serif" font-size="10.00" fill="#000000">locomotor.components.Pair.get</text>
<text text-anchor="middle" x="386.2993" y="-6.5" font-family="Helvetica,sans-Serif" font-size="10.00" fill="#000000">Right</text>
</a>
</g>
</g>
<!-- Node14&#45;&gt;Node19 -->
<g id="edge19" class="edge">
<title>Node14&#45;&gt;Node19</title>
<path fill="none" stroke="#191970" d="M219.2232,-94.4564C235.3475,-80.3232 268.6105,-53.0155 301.3047,-37.5 305.5687,-35.4765 310.0405,-33.6065 314.6079,-31.8824"/>
<polygon fill="#191970" stroke="#191970" points="315.8119,-35.1692 324.0815,-28.5461 313.4867,-28.5666 315.8119,-35.1692"/>
</g>
<!-- Node17 -->
<g id="node17" class="node">
<title>Node17</title>
<g id="a_node17"><a xlink:href="classlocomotor_1_1core_1_1_d_b_h.html#a2d5f1f766f5863a46ed29b7e56118364" target="_top" xlink:title="locomotor.core.DBH.DBH">
<polygon fill="#ffffff" stroke="#000000" points="519.811,-94.5 519.811,-112.5 649.1851,-112.5 649.1851,-94.5 519.811,-94.5"/>
<text text-anchor="middle" x="584.498" y="-100.5" font-family="Helvetica,sans-Serif" font-size="10.00" fill="#000000">locomotor.core.DBH.DBH</text>
</a>
</g>
</g>
<!-- Node16&#45;&gt;Node17 -->
<g id="edge17" class="edge">
<title>Node16&#45;&gt;Node17</title>
<path fill="none" stroke="#191970" d="M466.343,-103.5C480.6077,-103.5 495.4198,-103.5 509.5362,-103.5"/>
<polygon fill="#191970" stroke="#191970" points="509.6743,-107.0001 519.6743,-103.5 509.6743,-100.0001 509.6743,-107.0001"/>
</g>
</g>
</svg>
        <g id="navigator" transform="translate(0 0)" fill="#404254">
                <rect fill="#f2f5e9" fill-opacity="0.5" stroke="#606060" stroke-width=".5" x="0" y="0" width="60" height="60"/>
                <use id="zoomplus" xlink:href="#zoomPlus" x="17" y="9" onmousedown="handleZoom(evt,'in')"/>
                <use id="zoomminus" xlink:href="#zoomMin" x="42" y="9" onmousedown="handleZoom(evt,'out')"/>
                <use id="reset" xlink:href="#resetDef" x="30" y="36" onmousedown="handleReset()"/>
                <g id="arrowUp" xlink:href="#dirArrow" transform="translate(30 24)" onmousedown="handlePan(0,-1)">
                  <use xlink:href="#rim" fill="#404040">
                        <set attributeName="fill" to="#808080" begin="arrowUp.mouseover" end="arrowUp.mouseout"/>
                  </use>
                  <path fill="none" stroke="white" stroke-width="1.5" d="M0,-3.0v7 M-2.5,-0.5L0,-3.0L2.5,-0.5"/>
                </g>
                <g id="arrowRight" xlink:href="#dirArrow" transform="rotate(90) translate(36 -43)" onmousedown="handlePan(1,0)">
                  <use xlink:href="#rim" fill="#404040">
                        <set attributeName="fill" to="#808080" begin="arrowRight.mouseover" end="arrowRight.mouseout"/>
                  </use>
                  <path fill="none" stroke="white" stroke-width="1.5" d="M0,-3.0v7 M-2.5,-0.5L0,-3.0L2.5,-0.5"/>
                </g>
                <g id="arrowDown" xlink:href="#dirArrow" transform="rotate(180) translate(-30 -48)" onmousedown="handlePan(0,1)">
                  <use xlink:href="#rim" fill="#404040">
                        <set attributeName="fill" to="#808080" begin="arrowDown.mouseover" end="arrowDown.mouseout"/>
                  </use>
                  <path fill="none" stroke="white" stroke-width="1.5" d="M0,-3.0v7 M-2.5,-0.5L0,-3.0L2.5,-0.5"/>
                </g>
                <g id="arrowLeft" xlink:href="#dirArrow" transform="rotate(270) translate(-36 17)" onmousedown="handlePan(-1,0)">
                  <use xlink:href="#rim" fill="#404040">
                        <set attributeName="fill" to="#808080" begin="arrowLeft.mouseover" end="arrowLeft.mouseout"/>
                  </use>
                  <path fill="none" stroke="white" stroke-width="1.5" d="M0,-3.0v7 M-2.5,-0.5L0,-3.0L2.5,-0.5"/>
                </g>
        </g>
        <svg viewBox="0 0 15 15" width="100%" height="30px" preserveAspectRatio="xMaxYMin meet">
         <g id="arrow_out" transform="scale(0.3 0.3)">
          <a xlink:href="classlocomotor_1_1core_1_1_comparator_a092fb76ad264eeccd8f30eadb70e36e3_cgraph_org.svg" target="_base">
           <rect id="button" ry="5" rx="5" y="6" x="6" height="38" width="38"
                fill="#f2f5e9" fill-opacity="0.5" stroke="#606060" stroke-width="1.0"/>
           <path id="arrow"
             d="M 11.500037,31.436501 C 11.940474,20.09759 22.043105,11.32322 32.158766,21.979434 L 37.068811,17.246167 C 37.068811,17.246167 37.088388,32 37.088388,32 L 22.160133,31.978069 C 22.160133,31.978069 26.997745,27.140456 26.997745,27.140456 C 18.528582,18.264221 13.291696,25.230495 11.500037,31.436501 z"
             style="fill:#404040;"/>
          </a>
         </g>
        </svg>
</svg>
