<?xml version="1.0" encoding="UTF-8" standalone="no"?>
<!DOCTYPE svg PUBLIC "-//W3C//DTD SVG 1.1//EN"
 "http://www.w3.org/Graphics/SVG/1.1/DTD/svg11.dtd">
<!-- Generated by graphviz version 2.40.1 (20161225.0304)
 -->
<!-- Title: CInteger Pages: 1 -->
<svg width="1279pt" height="37pt"
 viewBox="0.00 0.00 1278.80 37.00" xmlns="http://www.w3.org/2000/svg" xmlns:xlink="http://www.w3.org/1999/xlink">
<g id="graph0" class="graph" transform="scale(1 1) rotate(0) translate(4 33)">
<title>CInteger</title>
<polygon fill="#ffffff" stroke="transparent" points="-4,4 -4,-33 1274.8008,-33 1274.8008,4 -4,4"/>
<!-- Node1 -->
<g id="node1" class="node">
<title>Node1</title>
<polygon fill="#bfbfbf" stroke="#000000" points="0,-5.5 0,-23.5 54.3545,-23.5 54.3545,-5.5 0,-5.5"/>
<text text-anchor="middle" x="27.1772" y="-11.5" font-family="Helvetica,sans-Serif" font-size="10.00" fill="#000000">CInteger</text>
</g>
<!-- Node2 -->
<g id="node2" class="node">
<title>Node2</title>
<g id="a_node2"><a xlink:href="classlocomotor_1_1components_1_1types_1_1_c_integer.html#acc13169c043f180e6472a29d19ff5124" target="_top" xlink:title="fromJSON">
<polygon fill="#ffffff" stroke="#000000" points="90.3545,-5.5 90.3545,-23.5 153.0244,-23.5 153.0244,-5.5 90.3545,-5.5"/>
<text text-anchor="middle" x="121.6895" y="-11.5" font-family="Helvetica,sans-Serif" font-size="10.00" fill="#000000">fromJSON</text>
</a>
</g>
</g>
<!-- Node1&#45;&gt;Node2 -->
<g id="edge1" class="edge">
<title>Node1&#45;&gt;Node2</title>
<path fill="none" stroke="#191970" d="M64.5329,-14.5C72.9901,-14.5 81.8901,-14.5 90.0827,-14.5"/>
<polygon fill="#191970" stroke="#191970" points="64.5141,-11.0001 54.5141,-14.5 64.5141,-18.0001 64.5141,-11.0001"/>
</g>
<!-- Node3 -->
<g id="node3" class="node">
<title>Node3</title>
<g id="a_node3"><a xlink:href="classlocomotor_1_1components_1_1types_1_1_type_factory.html#a8827604831ff8a1764b7639c82820497" target="_top" xlink:title="locomotor.components.types.\lTypeFactory.getItemFromJson">
<polygon fill="#ffffff" stroke="#000000" points="189.0244,-.5 189.0244,-28.5 339.8926,-28.5 339.8926,-.5 189.0244,-.5"/>
<text text-anchor="start" x="197.0244" y="-16.5" font-family="Helvetica,sans-Serif" font-size="10.00" fill="#000000">locomotor.components.types.</text>
<text text-anchor="middle" x="264.4585" y="-6.5" font-family="Helvetica,sans-Serif" font-size="10.00" fill="#000000">TypeFactory.getItemFromJson</text>
</a>
</g>
</g>
<!-- Node2&#45;&gt;Node3 -->
<g id="edge2" class="edge">
<title>Node2&#45;&gt;Node3</title>
<path fill="none" stroke="#191970" d="M163.4945,-14.5C171.489,-14.5 180.085,-14.5 188.7662,-14.5"/>
<polygon fill="#191970" stroke="#191970" points="163.3746,-11.0001 153.3745,-14.5 163.3745,-18.0001 163.3746,-11.0001"/>
</g>
<!-- Node4 -->
<g id="node4" class="node">
<title>Node4</title>
<g id="a_node4"><a xlink:href="classlocomotor_1_1components_1_1models_1_1_item_criteria_full.html#a436730a3499b6d7b1d0359e12aa2f04a" target="_top" xlink:title="locomotor.components.models.\lItemCriteriaFull.fromJSON">
<polygon fill="#ffffff" stroke="#000000" points="375.8926,-.5 375.8926,-28.5 530.3008,-28.5 530.3008,-.5 375.8926,-.5"/>
<text text-anchor="start" x="383.8926" y="-16.5" font-family="Helvetica,sans-Serif" font-size="10.00" fill="#000000">locomotor.components.models.</text>
<text text-anchor="middle" x="453.0967" y="-6.5" font-family="Helvetica,sans-Serif" font-size="10.00" fill="#000000">ItemCriteriaFull.fromJSON</text>
</a>
</g>
</g>
<!-- Node3&#45;&gt;Node4 -->
<g id="edge3" class="edge">
<title>Node3&#45;&gt;Node4</title>
<path fill="none" stroke="#191970" d="M350.3127,-14.5C358.739,-14.5 367.256,-14.5 375.592,-14.5"/>
<polygon fill="#191970" stroke="#191970" points="350.098,-11.0001 340.0979,-14.5 350.0979,-18.0001 350.098,-11.0001"/>
</g>
<!-- Node5 -->
<g id="node5" class="node">
<title>Node5</title>
<g id="a_node5"><a xlink:href="classlocomotor_1_1components_1_1models_1_1_item_category_full.html#a50ab7c0f8e4a65f80ca141f1fa1c7df8" target="_top" xlink:title="locomotor.components.models.\lItemCategoryFull.fromJSON">
<polygon fill="#ffffff" stroke="#000000" points="566.3008,-.5 566.3008,-28.5 720.709,-28.5 720.709,-.5 566.3008,-.5"/>
<text text-anchor="start" x="574.3008" y="-16.5" font-family="Helvetica,sans-Serif" font-size="10.00" fill="#000000">locomotor.components.models.</text>
<text text-anchor="middle" x="643.5049" y="-6.5" font-family="Helvetica,sans-Serif" font-size="10.00" fill="#000000">ItemCategoryFull.fromJSON</text>
</a>
</g>
</g>
<!-- Node4&#45;&gt;Node5 -->
<g id="edge4" class="edge">
<title>Node4&#45;&gt;Node5</title>
<path fill="none" stroke="#191970" d="M540.7971,-14.5C549.2507,-14.5 557.7837,-14.5 566.1272,-14.5"/>
<polygon fill="#191970" stroke="#191970" points="540.543,-11.0001 530.543,-14.5 540.543,-18.0001 540.543,-11.0001"/>
</g>
<!-- Node6 -->
<g id="node6" class="node">
<title>Node6</title>
<g id="a_node6"><a xlink:href="classlocomotor_1_1components_1_1models_1_1_item_full.html#afe56c5f49cb59d04ec69bbf32b58a2f8" target="_top" xlink:title="locomotor.components.models.\lItemFull.fromJSON">
<polygon fill="#ffffff" stroke="#000000" points="756.709,-.5 756.709,-28.5 911.1172,-28.5 911.1172,-.5 756.709,-.5"/>
<text text-anchor="start" x="764.709" y="-16.5" font-family="Helvetica,sans-Serif" font-size="10.00" fill="#000000">locomotor.components.models.</text>
<text text-anchor="middle" x="833.9131" y="-6.5" font-family="Helvetica,sans-Serif" font-size="10.00" fill="#000000">ItemFull.fromJSON</text>
</a>
</g>
</g>
<!-- Node5&#45;&gt;Node6 -->
<g id="edge5" class="edge">
<title>Node5&#45;&gt;Node6</title>
<path fill="none" stroke="#191970" d="M731.2053,-14.5C739.6589,-14.5 748.1919,-14.5 756.5354,-14.5"/>
<polygon fill="#191970" stroke="#191970" points="730.9512,-11.0001 720.9512,-14.5 730.9512,-18.0001 730.9512,-11.0001"/>
</g>
<!-- Node7 -->
<g id="node7" class="node">
<title>Node7</title>
<g id="a_node7"><a xlink:href="classlocomotor_1_1components_1_1network_1_1_a_p_i.html#a547463fbc7fb7b485886f0917e2c0b78" target="_top" xlink:title="locomotor.components.network.\lAPI.createHooks">
<polygon fill="#ffffff" stroke="#000000" points="947.1172,-.5 947.1172,-28.5 1104.3037,-28.5 1104.3037,-.5 947.1172,-.5"/>
<text text-anchor="start" x="955.1172" y="-16.5" font-family="Helvetica,sans-Serif" font-size="10.00" fill="#000000">locomotor.components.network.</text>
<text text-anchor="middle" x="1025.7104" y="-6.5" font-family="Helvetica,sans-Serif" font-size="10.00" fill="#000000">API.createHooks</text>
</a>
</g>
</g>
<!-- Node6&#45;&gt;Node7 -->
<g id="edge6" class="edge">
<title>Node6&#45;&gt;Node7</title>
<path fill="none" stroke="#191970" d="M921.6377,-14.5C930.1036,-14.5 938.6551,-14.5 947.0257,-14.5"/>
<polygon fill="#191970" stroke="#191970" points="921.3716,-11.0001 911.3716,-14.5 921.3715,-18.0001 921.3716,-11.0001"/>
</g>
<!-- Node8 -->
<g id="node8" class="node">
<title>Node8</title>
<g id="a_node8"><a xlink:href="classlocomotor_1_1core_1_1_main.html#a8b260eecbaabcef8473fd87ada040682" target="_top" xlink:title="locomotor.core.Main.main">
<polygon fill="#ffffff" stroke="#000000" points="1140.3037,-5.5 1140.3037,-23.5 1270.8008,-23.5 1270.8008,-5.5 1140.3037,-5.5"/>
<text text-anchor="middle" x="1205.5522" y="-11.5" font-family="Helvetica,sans-Serif" font-size="10.00" fill="#000000">locomotor.core.Main.main</text>
</a>
</g>
</g>
<!-- Node7&#45;&gt;Node8 -->
<g id="edge7" class="edge">
<title>Node7&#45;&gt;Node8</title>
<path fill="none" stroke="#191970" d="M1114.5035,-14.5C1123.1918,-14.5 1131.8941,-14.5 1140.286,-14.5"/>
<polygon fill="#191970" stroke="#191970" points="1114.3301,-11.0001 1104.3301,-14.5 1114.33,-18.0001 1114.3301,-11.0001"/>
</g>
</g>
</svg>
