<?xml version="1.0" encoding="UTF-8" standalone="no"?>
<!DOCTYPE svg PUBLIC "-//W3C//DTD SVG 1.1//EN"
 "http://www.w3.org/Graphics/SVG/1.1/DTD/svg11.dtd">
<!-- Generated by graphviz version 2.40.1 (20161225.0304)
 -->
<!-- Title: deleteBookingWith Pages: 1 -->
<svg width="711pt" height="64pt"
 viewBox="0.00 0.00 710.56 64.00" xmlns="http://www.w3.org/2000/svg" xmlns:xlink="http://www.w3.org/1999/xlink">
<g id="graph0" class="graph" transform="scale(1 1) rotate(0) translate(4 60)">
<title>deleteBookingWith</title>
<polygon fill="#ffffff" stroke="transparent" points="-4,4 -4,-60 706.5645,-60 706.5645,4 -4,4"/>
<!-- Node1 -->
<g id="node1" class="node">
<title>Node1</title>
<polygon fill="#bfbfbf" stroke="#000000" points="0,-19.5 0,-37.5 99.3838,-37.5 99.3838,-19.5 0,-19.5"/>
<text text-anchor="middle" x="49.6919" y="-25.5" font-family="Helvetica,sans-Serif" font-size="10.00" fill="#000000">deleteBookingWith</text>
</g>
<!-- Node2 -->
<g id="node2" class="node">
<title>Node2</title>
<g id="a_node2"><a xlink:href="classlocomotor_1_1core_1_1_d_b_h.html#a048720c7d5d922d646d5ee0ff38f78ad" target="_top" xlink:title="removeItem">
<polygon fill="#ffffff" stroke="#000000" points="264.083,-37.5 264.083,-55.5 332.876,-55.5 332.876,-37.5 264.083,-37.5"/>
<text text-anchor="middle" x="298.4795" y="-43.5" font-family="Helvetica,sans-Serif" font-size="10.00" fill="#000000">removeItem</text>
</a>
</g>
</g>
<!-- Node1&#45;&gt;Node2 -->
<g id="edge1" class="edge">
<title>Node1&#45;&gt;Node2</title>
<path fill="none" stroke="#191970" d="M109.4632,-32.8245C157.7919,-36.3211 224.1374,-41.1213 264.0092,-44.006"/>
<polygon fill="#191970" stroke="#191970" points="109.6664,-29.3301 99.4398,-32.0993 109.1612,-36.3119 109.6664,-29.3301"/>
</g>
<!-- Node5 -->
<g id="node5" class="node">
<title>Node5</title>
<g id="a_node5"><a xlink:href="classlocomotor_1_1core_1_1_d_b_h.html#a97b6d481686edd4c5a932108475e5e1c" target="_top" xlink:title="deleteItemWith">
<polygon fill="#ffffff" stroke="#000000" points="135.3838,-.5 135.3838,-18.5 218.0781,-18.5 218.0781,-.5 135.3838,-.5"/>
<text text-anchor="middle" x="176.731" y="-6.5" font-family="Helvetica,sans-Serif" font-size="10.00" fill="#000000">deleteItemWith</text>
</a>
</g>
</g>
<!-- Node1&#45;&gt;Node5 -->
<g id="edge4" class="edge">
<title>Node1&#45;&gt;Node5</title>
<path fill="none" stroke="#191970" d="M109.6258,-19.5363C118.2883,-18.2407 127.0401,-16.9318 135.2339,-15.7063"/>
<polygon fill="#191970" stroke="#191970" points="108.9087,-16.1045 99.5365,-21.0452 109.9442,-23.0275 108.9087,-16.1045"/>
</g>
<!-- Node3 -->
<g id="node3" class="node">
<title>Node3</title>
<g id="a_node3"><a xlink:href="classlocomotor_1_1components_1_1network_1_1_a_p_i.html#a547463fbc7fb7b485886f0917e2c0b78" target="_top" xlink:title="locomotor.components.network.\lAPI.createHooks">
<polygon fill="#ffffff" stroke="#000000" points="378.8809,-13.5 378.8809,-41.5 536.0674,-41.5 536.0674,-13.5 378.8809,-13.5"/>
<text text-anchor="start" x="386.8809" y="-29.5" font-family="Helvetica,sans-Serif" font-size="10.00" fill="#000000">locomotor.components.network.</text>
<text text-anchor="middle" x="457.4741" y="-19.5" font-family="Helvetica,sans-Serif" font-size="10.00" fill="#000000">API.createHooks</text>
</a>
</g>
</g>
<!-- Node2&#45;&gt;Node3 -->
<g id="edge2" class="edge">
<title>Node2&#45;&gt;Node3</title>
<path fill="none" stroke="#191970" d="M343.218,-41.1537C354.2946,-39.83 366.4922,-38.3724 378.6682,-36.9174"/>
<polygon fill="#191970" stroke="#191970" points="342.493,-37.7154 332.979,-42.3773 343.3236,-44.6659 342.493,-37.7154"/>
</g>
<!-- Node4 -->
<g id="node4" class="node">
<title>Node4</title>
<g id="a_node4"><a xlink:href="classlocomotor_1_1core_1_1_main.html#a8b260eecbaabcef8473fd87ada040682" target="_top" xlink:title="locomotor.core.Main.main">
<polygon fill="#ffffff" stroke="#000000" points="572.0674,-18.5 572.0674,-36.5 702.5645,-36.5 702.5645,-18.5 572.0674,-18.5"/>
<text text-anchor="middle" x="637.3159" y="-24.5" font-family="Helvetica,sans-Serif" font-size="10.00" fill="#000000">locomotor.core.Main.main</text>
</a>
</g>
</g>
<!-- Node3&#45;&gt;Node4 -->
<g id="edge3" class="edge">
<title>Node3&#45;&gt;Node4</title>
<path fill="none" stroke="#191970" d="M546.2671,-27.5C554.9554,-27.5 563.6578,-27.5 572.0497,-27.5"/>
<polygon fill="#191970" stroke="#191970" points="546.0938,-24.0001 536.0937,-27.5 546.0937,-31.0001 546.0938,-24.0001"/>
</g>
<!-- Node6 -->
<g id="node6" class="node">
<title>Node6</title>
<g id="a_node6"><a xlink:href="classlocomotor_1_1core_1_1_d_b_h.html#a46cbafb4c7422171cf07c3d0521d3f47" target="_top" xlink:title="removeUniverse">
<polygon fill="#ffffff" stroke="#000000" points="254.0781,-.5 254.0781,-18.5 342.8809,-18.5 342.8809,-.5 254.0781,-.5"/>
<text text-anchor="middle" x="298.4795" y="-6.5" font-family="Helvetica,sans-Serif" font-size="10.00" fill="#000000">removeUniverse</text>
</a>
</g>
</g>
<!-- Node5&#45;&gt;Node6 -->
<g id="edge5" class="edge">
<title>Node5&#45;&gt;Node6</title>
<path fill="none" stroke="#191970" d="M228.4151,-9.5C236.8512,-9.5 245.5283,-9.5 253.7782,-9.5"/>
<polygon fill="#191970" stroke="#191970" points="228.2894,-6.0001 218.2894,-9.5 228.2893,-13.0001 228.2894,-6.0001"/>
</g>
<!-- Node6&#45;&gt;Node3 -->
<g id="edge6" class="edge">
<title>Node6&#45;&gt;Node3</title>
<path fill="none" stroke="#191970" d="M353.3581,-15.7129C361.5726,-16.6429 370.1762,-17.6169 378.7674,-18.5895"/>
<polygon fill="#191970" stroke="#191970" points="353.5218,-12.2091 343.1915,-14.5619 352.7342,-19.1647 353.5218,-12.2091"/>
</g>
</g>
</svg>
