<?xml version="1.0" encoding="UTF-8" standalone="no"?>
<!DOCTYPE svg PUBLIC "-//W3C//DTD SVG 1.1//EN"
 "http://www.w3.org/Graphics/SVG/1.1/DTD/svg11.dtd">
<!-- Generated by graphviz version 2.40.1 (20161225.0304)
 -->
<!-- Title: CTree Pages: 1 -->
<svg width="553pt" height="177pt"
 viewBox="0.00 0.00 552.64 177.00" xmlns="http://www.w3.org/2000/svg" xmlns:xlink="http://www.w3.org/1999/xlink">
<g id="graph0" class="graph" transform="scale(1 1) rotate(0) translate(4 173)">
<title>CTree</title>
<polygon fill="#ffffff" stroke="transparent" points="-4,4 -4,-173 548.6396,-173 548.6396,4 -4,4"/>
<!-- Node1 -->
<g id="node1" class="node">
<title>Node1</title>
<polygon fill="#bfbfbf" stroke="#000000" points="501.2227,-64.5 501.2227,-82.5 544.6396,-82.5 544.6396,-64.5 501.2227,-64.5"/>
<text text-anchor="middle" x="522.9312" y="-70.5" font-family="Helvetica,sans-Serif" font-size="10.00" fill="#000000">CTree</text>
</g>
<!-- Node2 -->
<g id="node2" class="node">
<title>Node2</title>
<g id="a_node2"><a xlink:href="interfacelocomotor_1_1components_1_1types_1_1_c_item_type.html" target="_top" xlink:title="CItemType">
<polygon fill="#ffffff" stroke="#000000" points="292.6138,-94.5 292.6138,-112.5 356.9683,-112.5 356.9683,-94.5 292.6138,-94.5"/>
<text text-anchor="middle" x="324.791" y="-100.5" font-family="Helvetica,sans-Serif" font-size="10.00" fill="#000000">CItemType</text>
</a>
</g>
</g>
<!-- Node2&#45;&gt;Node1 -->
<g id="edge1" class="edge">
<title>Node2&#45;&gt;Node1</title>
<path fill="none" stroke="#191970" d="M367.3079,-97.6842C399.2377,-93.2301 444.0216,-86.7992 483.2227,-80.5 489.0283,-79.5671 495.2992,-78.4927 501.1051,-77.4702"/>
<polygon fill="#191970" stroke="#191970" points="366.4224,-94.2735 356.9989,-99.1159 367.3854,-101.207 366.4224,-94.2735"/>
</g>
<!-- Node3 -->
<g id="node3" class="node">
<title>Node3</title>
<g id="a_node3"><a xlink:href="interfacelocomotor_1_1components_1_1types_1_1_c_comparable_type.html" target="_top" xlink:title="CComparableType">
<polygon fill="#ffffff" stroke="#000000" points="86.623,-150.5 86.623,-168.5 186.002,-168.5 186.002,-150.5 86.623,-150.5"/>
<text text-anchor="middle" x="136.3125" y="-156.5" font-family="Helvetica,sans-Serif" font-size="10.00" fill="#000000">CComparableType</text>
</a>
</g>
</g>
<!-- Node3&#45;&gt;Node2 -->
<g id="edge2" class="edge">
<title>Node3&#45;&gt;Node2</title>
<path fill="none" stroke="#191970" d="M176.0443,-147.1519C181.0284,-145.3701 186.0221,-143.4689 190.7188,-141.5 207.7672,-134.3531 210.2535,-128.5574 227.7188,-122.5 248.6484,-115.2411 273.1336,-110.4733 292.2766,-107.5292"/>
<polygon fill="#191970" stroke="#191970" points="174.8694,-143.8547 166.5521,-150.4177 177.1468,-150.4739 174.8694,-143.8547"/>
</g>
<!-- Node7 -->
<g id="node7" class="node">
<title>Node7</title>
<g id="a_node7"><a xlink:href="interfacelocomotor_1_1components_1_1types_1_1_c_user_type.html" target="_top" xlink:title="CUserType">
<polygon fill="#ffffff" stroke="#000000" points="291.7813,-131.5 291.7813,-149.5 357.8008,-149.5 357.8008,-131.5 291.7813,-131.5"/>
<text text-anchor="middle" x="324.791" y="-137.5" font-family="Helvetica,sans-Serif" font-size="10.00" fill="#000000">CUserType</text>
</a>
</g>
</g>
<!-- Node3&#45;&gt;Node7 -->
<g id="edge7" class="edge">
<title>Node3&#45;&gt;Node7</title>
<path fill="none" stroke="#191970" d="M196.462,-163.9716C200.6083,-164.1819 204.7244,-164.3622 208.7188,-164.5 240.1839,-165.5851 275.4986,-156.8005 298.8222,-149.5561"/>
<polygon fill="#191970" stroke="#191970" points="196.3251,-160.4585 186.1451,-163.3943 195.934,-167.4476 196.3251,-160.4585"/>
</g>
<!-- Node4 -->
<g id="node4" class="node">
<title>Node4</title>
<g id="a_node4"><a xlink:href="interfacelocomotor_1_1components_1_1types_1_1_c_type.html" target="_top" xlink:title="CType">
<polygon fill="#ffffff" stroke="#000000" points="0,-150.5 0,-168.5 44.9063,-168.5 44.9063,-150.5 0,-150.5"/>
<text text-anchor="middle" x="22.4531" y="-156.5" font-family="Helvetica,sans-Serif" font-size="10.00" fill="#000000">CType</text>
</a>
</g>
</g>
<!-- Node4&#45;&gt;Node3 -->
<g id="edge3" class="edge">
<title>Node4&#45;&gt;Node3</title>
<path fill="none" stroke="#191970" d="M55.0617,-159.5C64.8787,-159.5 75.8838,-159.5 86.5481,-159.5"/>
<polygon fill="#191970" stroke="#191970" points="54.9481,-156.0001 44.9481,-159.5 54.948,-163.0001 54.9481,-156.0001"/>
</g>
<!-- Node5 -->
<g id="node5" class="node">
<title>Node5</title>
<g id="a_node5"><a xlink:href="interfacelocomotor_1_1components_1_1_j_s_o_n_displayable.html" target="_top" xlink:title="JSONDisplayable">
<polygon fill="#ffffff" stroke="#000000" points="89.1304,-69.5 89.1304,-87.5 183.4946,-87.5 183.4946,-69.5 89.1304,-69.5"/>
<text text-anchor="middle" x="136.3125" y="-75.5" font-family="Helvetica,sans-Serif" font-size="10.00" fill="#000000">JSONDisplayable</text>
</a>
</g>
</g>
<!-- Node5&#45;&gt;Node2 -->
<g id="edge4" class="edge">
<title>Node5&#45;&gt;Node2</title>
<path fill="none" stroke="#191970" d="M194.0946,-86.1643C226.3794,-90.4466 265.4131,-95.624 292.3703,-99.1997"/>
<polygon fill="#191970" stroke="#191970" points="194.247,-82.6539 183.8736,-84.8086 193.3265,-89.5931 194.247,-82.6539"/>
</g>
<!-- Node6 -->
<g id="node6" class="node">
<title>Node6</title>
<g id="a_node6"><a xlink:href="interfacelocomotor_1_1components_1_1_j_s_o_n_convertissable.html" target="_top" xlink:title="JSONConvertissable">
<polygon fill="#ffffff" stroke="#000000" points="81.9063,-113.5 81.9063,-131.5 190.7188,-131.5 190.7188,-113.5 81.9063,-113.5"/>
<text text-anchor="middle" x="136.3125" y="-119.5" font-family="Helvetica,sans-Serif" font-size="10.00" fill="#000000">JSONConvertissable</text>
</a>
</g>
</g>
<!-- Node6&#45;&gt;Node2 -->
<g id="edge5" class="edge">
<title>Node6&#45;&gt;Node2</title>
<path fill="none" stroke="#191970" d="M201.0888,-115.9701C231.9381,-112.8602 267.4707,-109.2783 292.5159,-106.7536"/>
<polygon fill="#191970" stroke="#191970" points="200.4268,-112.519 190.8283,-117.0044 201.1289,-119.4837 200.4268,-112.519"/>
</g>
<!-- Node6&#45;&gt;Node7 -->
<g id="edge8" class="edge">
<title>Node6&#45;&gt;Node7</title>
<path fill="none" stroke="#191970" d="M200.9852,-128.6763C231.5187,-131.5923 266.6598,-134.9484 291.6841,-137.3382"/>
<polygon fill="#191970" stroke="#191970" points="201.1158,-125.173 190.8283,-127.7063 200.4502,-132.1413 201.1158,-125.173"/>
</g>
<!-- Node7&#45;&gt;Node1 -->
<g id="edge6" class="edge">
<title>Node7&#45;&gt;Node1</title>
<path fill="none" stroke="#191970" d="M368.1593,-134.3981C385.0956,-131.5128 404.5645,-127.5704 421.8633,-122.5 450.1219,-114.2171 456.9055,-110.7122 483.2227,-97.5 492.0053,-93.0908 501.4353,-87.4334 508.9009,-82.7189"/>
<polygon fill="#191970" stroke="#191970" points="367.2891,-130.9937 357.9833,-136.0587 368.4165,-137.9023 367.2891,-130.9937"/>
</g>
<!-- Node8 -->
<g id="node8" class="node">
<title>Node8</title>
<g id="a_node8"><a xlink:href="interfacelocomotor_1_1components_1_1types_1_1_c_comparable.html" target="_top" xlink:title="CComparable\&lt; CTree,\l CGraphTree \&gt;">
<polygon fill="#ffffff" stroke="#000000" points="266.5371,-47.5 266.5371,-75.5 383.0449,-75.5 383.0449,-47.5 266.5371,-47.5"/>
<text text-anchor="start" x="274.5371" y="-63.5" font-family="Helvetica,sans-Serif" font-size="10.00" fill="#000000">CComparable&lt; CTree,</text>
<text text-anchor="middle" x="324.791" y="-53.5" font-family="Helvetica,sans-Serif" font-size="10.00" fill="#000000"> CGraphTree &gt;</text>
</a>
</g>
</g>
<!-- Node8&#45;&gt;Node1 -->
<g id="edge9" class="edge">
<title>Node8&#45;&gt;Node1</title>
<path fill="none" stroke="#191970" d="M393.5617,-65.665C431.0883,-67.9377 475.0326,-70.5991 500.8384,-72.162"/>
<polygon fill="#191970" stroke="#191970" points="393.3612,-62.1465 383.1679,-65.0355 392.938,-69.1337 393.3612,-62.1465"/>
</g>
<!-- Node9 -->
<g id="node9" class="node">
<title>Node9</title>
<polygon fill="#ffffff" stroke="#bfbfbf" points="227.7188,-.5 227.7188,-28.5 421.8633,-28.5 421.8633,-.5 227.7188,-.5"/>
<text text-anchor="start" x="235.7188" y="-16.5" font-family="Helvetica,sans-Serif" font-size="10.00" fill="#000000">ArrayList&lt; locomotor.components.types.</text>
<text text-anchor="middle" x="324.791" y="-6.5" font-family="Helvetica,sans-Serif" font-size="10.00" fill="#000000">CTree &gt;</text>
</g>
<!-- Node9&#45;&gt;Node1 -->
<g id="edge10" class="edge">
<title>Node9&#45;&gt;Node1</title>
<path fill="none" stroke="#9a32cd" stroke-dasharray="5,2" d="M402.9528,-30.8386C428.8479,-37.1454 457.5906,-45.1237 483.2227,-54.5 490.8305,-57.283 498.9461,-61.0188 505.8445,-64.4413"/>
<polygon fill="#9a32cd" stroke="#9a32cd" points="403.7197,-27.4234 393.1801,-28.5039 402.0931,-34.2318 403.7197,-27.4234"/>
<text text-anchor="middle" x="461.543" y="-56.5" font-family="Helvetica,sans-Serif" font-size="10.00" fill="#000000"> _children</text>
</g>
</g>
</svg>
