<?xml version="1.0" encoding="UTF-8" standalone="no"?>
<!DOCTYPE svg PUBLIC "-//W3C//DTD SVG 1.1//EN"
 "http://www.w3.org/Graphics/SVG/1.1/DTD/svg11.dtd">
<!-- Generated by graphviz version 2.40.1 (20161225.0304)
 -->
<!-- Title: getID Pages: 1 -->
<svg width="1263pt" height="112pt"
 viewBox="0.00 0.00 1262.60 112.07" xmlns="http://www.w3.org/2000/svg" xmlns:xlink="http://www.w3.org/1999/xlink">
<g id="graph0" class="graph" transform="scale(1 1) rotate(0) translate(4 108.0677)">
<title>getID</title>
<polygon fill="#ffffff" stroke="transparent" points="-4,4 -4,-108.0677 1258.5967,-108.0677 1258.5967,4 -4,4"/>
<!-- Node1 -->
<g id="node1" class="node">
<title>Node1</title>
<polygon fill="#bfbfbf" stroke="#000000" points="0,-59.5 0,-77.5 39.9014,-77.5 39.9014,-59.5 0,-59.5"/>
<text text-anchor="middle" x="19.9507" y="-65.5" font-family="Helvetica,sans-Serif" font-size="10.00" fill="#000000">getID</text>
</g>
<!-- Node2 -->
<g id="node2" class="node">
<title>Node2</title>
<g id="a_node2"><a xlink:href="classlocomotor_1_1core_1_1_comparator.html#a3f526c90b5b3a645974bbb81e30d3c74" target="_top" xlink:title="locomotor.core.Comparator.compute\lGradeOfCategory">
<polygon fill="#ffffff" stroke="#000000" points="289.6543,-74.5 289.6543,-102.5 467.4072,-102.5 467.4072,-74.5 289.6543,-74.5"/>
<text text-anchor="start" x="297.6543" y="-90.5" font-family="Helvetica,sans-Serif" font-size="10.00" fill="#000000">locomotor.core.Comparator.compute</text>
<text text-anchor="middle" x="378.5308" y="-80.5" font-family="Helvetica,sans-Serif" font-size="10.00" fill="#000000">GradeOfCategory</text>
</a>
</g>
</g>
<!-- Node1&#45;&gt;Node2 -->
<g id="edge1" class="edge">
<title>Node1&#45;&gt;Node2</title>
<path fill="none" stroke="#191970" d="M45.5782,-82.0749C54.8639,-86.2909 65.6046,-90.3848 75.9014,-92.5 146.6721,-107.038 228.7241,-104.8051 289.5224,-99.6228"/>
<polygon fill="#191970" stroke="#191970" points="47.0371,-78.8929 36.5079,-77.7151 44.0045,-85.2019 47.0371,-78.8929"/>
</g>
<!-- Node7 -->
<g id="node7" class="node">
<title>Node7</title>
<g id="a_node7"><a xlink:href="classlocomotor_1_1core_1_1_comparator.html#a686a6117a0c0951d6b70fb883b2b5937" target="_top" xlink:title="locomotor.core.Comparator.compute\lGradeOfCriteria">
<polygon fill="#ffffff" stroke="#000000" points="75.9014,-54.5 75.9014,-82.5 253.6543,-82.5 253.6543,-54.5 75.9014,-54.5"/>
<text text-anchor="start" x="83.9014" y="-70.5" font-family="Helvetica,sans-Serif" font-size="10.00" fill="#000000">locomotor.core.Comparator.compute</text>
<text text-anchor="middle" x="164.7778" y="-60.5" font-family="Helvetica,sans-Serif" font-size="10.00" fill="#000000">GradeOfCriteria</text>
</a>
</g>
</g>
<!-- Node1&#45;&gt;Node7 -->
<g id="edge6" class="edge">
<title>Node1&#45;&gt;Node7</title>
<path fill="none" stroke="#191970" d="M50.276,-68.5C57.9865,-68.5 66.6721,-68.5 75.7245,-68.5"/>
<polygon fill="#191970" stroke="#191970" points="50.0883,-65.0001 40.0883,-68.5 50.0882,-72.0001 50.0883,-65.0001"/>
</g>
<!-- Node8 -->
<g id="node8" class="node">
<title>Node8</title>
<g id="a_node8"><a xlink:href="classlocomotor_1_1core_1_1_d_b_h.html#ad067053be75a3170dc9c2ce7b922e176" target="_top" xlink:title="locomotor.core.DBH.checking\lParsingItem">
<polygon fill="#ffffff" stroke="#000000" points="518.4194,-11.5 518.4194,-39.5 666.1479,-39.5 666.1479,-11.5 518.4194,-11.5"/>
<text text-anchor="start" x="526.4194" y="-27.5" font-family="Helvetica,sans-Serif" font-size="10.00" fill="#000000">locomotor.core.DBH.checking</text>
<text text-anchor="middle" x="592.2837" y="-17.5" font-family="Helvetica,sans-Serif" font-size="10.00" fill="#000000">ParsingItem</text>
</a>
</g>
</g>
<!-- Node1&#45;&gt;Node8 -->
<g id="edge8" class="edge">
<title>Node1&#45;&gt;Node8</title>
<path fill="none" stroke="#191970" d="M46.8041,-55.2264C55.8332,-51.3737 66.1044,-47.6329 75.9014,-45.5 230.4082,-11.8623 416.9316,-15.0621 518.15,-20.3202"/>
<polygon fill="#191970" stroke="#191970" points="45.2576,-52.0842 37.5752,-59.3803 48.1307,-58.4675 45.2576,-52.0842"/>
</g>
<!-- Node3 -->
<g id="node3" class="node">
<title>Node3</title>
<g id="a_node3"><a xlink:href="classlocomotor_1_1core_1_1_comparator.html#a589b06b817cbbc74ceb4812d0ba6c245" target="_top" xlink:title="locomotor.core.Comparator.compute\lGradeOfItem">
<polygon fill="#ffffff" stroke="#000000" points="503.4072,-74.5 503.4072,-102.5 681.1602,-102.5 681.1602,-74.5 503.4072,-74.5"/>
<text text-anchor="start" x="511.4072" y="-90.5" font-family="Helvetica,sans-Serif" font-size="10.00" fill="#000000">locomotor.core.Comparator.compute</text>
<text text-anchor="middle" x="592.2837" y="-80.5" font-family="Helvetica,sans-Serif" font-size="10.00" fill="#000000">GradeOfItem</text>
</a>
</g>
</g>
<!-- Node2&#45;&gt;Node3 -->
<g id="edge2" class="edge">
<title>Node2&#45;&gt;Node3</title>
<path fill="none" stroke="#191970" d="M477.6461,-88.5C486.2129,-88.5 494.8466,-88.5 503.3254,-88.5"/>
<polygon fill="#191970" stroke="#191970" points="477.6335,-85.0001 467.6334,-88.5 477.6334,-92.0001 477.6335,-85.0001"/>
</g>
<!-- Node4 -->
<g id="node4" class="node">
<title>Node4</title>
<g id="a_node4"><a xlink:href="classlocomotor_1_1core_1_1_comparator.html#a092fb76ad264eeccd8f30eadb70e36e3" target="_top" xlink:title="locomotor.core.Comparator.compute\lGradeOfItems">
<polygon fill="#ffffff" stroke="#000000" points="717.1602,-74.5 717.1602,-102.5 894.9131,-102.5 894.9131,-74.5 717.1602,-74.5"/>
<text text-anchor="start" x="725.1602" y="-90.5" font-family="Helvetica,sans-Serif" font-size="10.00" fill="#000000">locomotor.core.Comparator.compute</text>
<text text-anchor="middle" x="806.0366" y="-80.5" font-family="Helvetica,sans-Serif" font-size="10.00" fill="#000000">GradeOfItems</text>
</a>
</g>
</g>
<!-- Node3&#45;&gt;Node4 -->
<g id="edge3" class="edge">
<title>Node3&#45;&gt;Node4</title>
<path fill="none" stroke="#191970" d="M691.399,-88.5C699.9658,-88.5 708.5995,-88.5 717.0783,-88.5"/>
<polygon fill="#191970" stroke="#191970" points="691.3864,-85.0001 681.3864,-88.5 691.3863,-92.0001 691.3864,-85.0001"/>
</g>
<!-- Node5 -->
<g id="node5" class="node">
<title>Node5</title>
<g id="a_node5"><a xlink:href="classlocomotor_1_1components_1_1network_1_1_a_p_i.html#a547463fbc7fb7b485886f0917e2c0b78" target="_top" xlink:title="locomotor.components.network.\lAPI.createHooks">
<polygon fill="#ffffff" stroke="#000000" points="930.9131,-32.5 930.9131,-60.5 1088.0996,-60.5 1088.0996,-32.5 930.9131,-32.5"/>
<text text-anchor="start" x="938.9131" y="-48.5" font-family="Helvetica,sans-Serif" font-size="10.00" fill="#000000">locomotor.components.network.</text>
<text text-anchor="middle" x="1009.5063" y="-38.5" font-family="Helvetica,sans-Serif" font-size="10.00" fill="#000000">API.createHooks</text>
</a>
</g>
</g>
<!-- Node4&#45;&gt;Node5 -->
<g id="edge4" class="edge">
<title>Node4&#45;&gt;Node5</title>
<path fill="none" stroke="#191970" d="M883.8814,-72.4314C902.8739,-68.511 923.0437,-64.3475 941.5351,-60.5306"/>
<polygon fill="#191970" stroke="#191970" points="883.1579,-69.0068 874.072,-74.4562 884.5731,-75.8623 883.1579,-69.0068"/>
</g>
<!-- Node6 -->
<g id="node6" class="node">
<title>Node6</title>
<g id="a_node6"><a xlink:href="classlocomotor_1_1core_1_1_main.html#a8b260eecbaabcef8473fd87ada040682" target="_top" xlink:title="locomotor.core.Main.main">
<polygon fill="#ffffff" stroke="#000000" points="1124.0996,-37.5 1124.0996,-55.5 1254.5967,-55.5 1254.5967,-37.5 1124.0996,-37.5"/>
<text text-anchor="middle" x="1189.3481" y="-43.5" font-family="Helvetica,sans-Serif" font-size="10.00" fill="#000000">locomotor.core.Main.main</text>
</a>
</g>
</g>
<!-- Node5&#45;&gt;Node6 -->
<g id="edge5" class="edge">
<title>Node5&#45;&gt;Node6</title>
<path fill="none" stroke="#191970" d="M1098.2994,-46.5C1106.9877,-46.5 1115.69,-46.5 1124.0819,-46.5"/>
<polygon fill="#191970" stroke="#191970" points="1098.126,-43.0001 1088.126,-46.5 1098.1259,-50.0001 1098.126,-43.0001"/>
</g>
<!-- Node7&#45;&gt;Node2 -->
<g id="edge7" class="edge">
<title>Node7&#45;&gt;Node2</title>
<path fill="none" stroke="#191970" d="M263.8932,-77.7738C272.46,-78.5754 281.0936,-79.3832 289.5724,-80.1765"/>
<polygon fill="#191970" stroke="#191970" points="264.1631,-74.2839 253.8805,-76.837 263.5109,-81.2534 264.1631,-74.2839"/>
</g>
<!-- Node9 -->
<g id="node9" class="node">
<title>Node9</title>
<g id="a_node9"><a xlink:href="classlocomotor_1_1core_1_1_d_b_h.html#ae26eef1ee7482f2e0167c6a18924d214" target="_top" xlink:title="locomotor.core.DBH.addItem">
<polygon fill="#ffffff" stroke="#000000" points="733.8398,-37.5 733.8398,-55.5 878.2334,-55.5 878.2334,-37.5 733.8398,-37.5"/>
<text text-anchor="middle" x="806.0366" y="-43.5" font-family="Helvetica,sans-Serif" font-size="10.00" fill="#000000">locomotor.core.DBH.addItem</text>
</a>
</g>
</g>
<!-- Node8&#45;&gt;Node9 -->
<g id="edge9" class="edge">
<title>Node8&#45;&gt;Node9</title>
<path fill="none" stroke="#191970" d="M676.5445,-33.7781C695.4831,-35.6388 715.4147,-37.5969 733.8105,-39.4042"/>
<polygon fill="#191970" stroke="#191970" points="676.7385,-30.2804 666.4442,-32.7858 676.0541,-37.2469 676.7385,-30.2804"/>
</g>
<!-- Node10 -->
<g id="node10" class="node">
<title>Node10</title>
<g id="a_node10"><a xlink:href="classlocomotor_1_1core_1_1_d_b_h.html#aa0e39c547d06fd9d0ad2de70251c9cc0" target="_top" xlink:title="locomotor.core.DBH.updateItem">
<polygon fill="#ffffff" stroke="#000000" points="726.8892,-.5 726.8892,-18.5 885.1841,-18.5 885.1841,-.5 726.8892,-.5"/>
<text text-anchor="middle" x="806.0366" y="-6.5" font-family="Helvetica,sans-Serif" font-size="10.00" fill="#000000">locomotor.core.DBH.updateItem</text>
</a>
</g>
</g>
<!-- Node8&#45;&gt;Node10 -->
<g id="edge11" class="edge">
<title>Node8&#45;&gt;Node10</title>
<path fill="none" stroke="#191970" d="M676.5806,-19.1901C693.0396,-17.9581 710.2471,-16.6701 726.5438,-15.4503"/>
<polygon fill="#191970" stroke="#191970" points="676.155,-15.7121 666.4442,-19.9489 676.6776,-22.6926 676.155,-15.7121"/>
</g>
<!-- Node9&#45;&gt;Node5 -->
<g id="edge10" class="edge">
<title>Node9&#45;&gt;Node5</title>
<path fill="none" stroke="#191970" d="M888.4393,-46.5C902.4468,-46.5 916.962,-46.5 930.8692,-46.5"/>
<polygon fill="#191970" stroke="#191970" points="888.3454,-43.0001 878.3453,-46.5 888.3453,-50.0001 888.3454,-43.0001"/>
</g>
<!-- Node10&#45;&gt;Node5 -->
<g id="edge12" class="edge">
<title>Node10&#45;&gt;Node5</title>
<path fill="none" stroke="#191970" d="M865.5488,-20.322C886.4278,-24.1187 910.1911,-28.44 932.3089,-32.462"/>
<polygon fill="#191970" stroke="#191970" points="866.0156,-16.8496 855.5507,-18.5039 864.7632,-23.7366 866.0156,-16.8496"/>
</g>
</g>
</svg>
