<?xml version="1.0" encoding="UTF-8" standalone="no"?>
<!DOCTYPE svg PUBLIC "-//W3C//DTD SVG 1.1//EN"
 "http://www.w3.org/Graphics/SVG/1.1/DTD/svg11.dtd">
<!-- Generated by graphviz version 2.40.1 (20161225.0304)
 -->
<!-- Title: intervalValue Pages: 1 -->
<svg width="798pt" height="75pt"
 viewBox="0.00 0.00 797.69 75.00" xmlns="http://www.w3.org/2000/svg" xmlns:xlink="http://www.w3.org/1999/xlink">
<g id="graph0" class="graph" transform="scale(1 1) rotate(0) translate(4 71)">
<title>intervalValue</title>
<polygon fill="#ffffff" stroke="transparent" points="-4,4 -4,-71 793.6934,-71 793.6934,4 -4,4"/>
<!-- Node1 -->
<g id="node1" class="node">
<title>Node1</title>
<polygon fill="#bfbfbf" stroke="#000000" points="0,-21.5 0,-39.5 73.0752,-39.5 73.0752,-21.5 0,-21.5"/>
<text text-anchor="middle" x="36.5376" y="-27.5" font-family="Helvetica,sans-Serif" font-size="10.00" fill="#000000">intervalValue</text>
</g>
<!-- Node2 -->
<g id="node2" class="node">
<title>Node2</title>
<g id="a_node2"><a xlink:href="classlocomotor_1_1core_1_1_gaussian.html#a2a6f2336ca6a2ad6a5406575827bbb56" target="_top" xlink:title="locomotor.core.Gaussian.get\lInstance">
<polygon fill="#ffffff" stroke="#000000" points="109.0752,-38.5 109.0752,-66.5 252.3701,-66.5 252.3701,-38.5 109.0752,-38.5"/>
<text text-anchor="start" x="117.0752" y="-54.5" font-family="Helvetica,sans-Serif" font-size="10.00" fill="#000000">locomotor.core.Gaussian.get</text>
<text text-anchor="middle" x="180.7227" y="-44.5" font-family="Helvetica,sans-Serif" font-size="10.00" fill="#000000">Instance</text>
</a>
</g>
</g>
<!-- Node1&#45;&gt;Node2 -->
<g id="edge1" class="edge">
<title>Node1&#45;&gt;Node2</title>
<path fill="none" stroke="#191970" d="M73.2946,-36.1085C81.2359,-37.3201 89.9371,-38.6478 98.8414,-40.0064"/>
<polygon fill="#191970" stroke="#191970" points="98.5375,-43.5005 108.9511,-41.549 99.5934,-36.5806 98.5375,-43.5005"/>
</g>
<!-- Node6 -->
<g id="node6" class="node">
<title>Node6</title>
<g id="a_node6"><a xlink:href="classlocomotor_1_1core_1_1_gaussian.html#ab70945dfe6d593e49a767670c903e653" target="_top" xlink:title="locomotor.core.Gaussian.cdf">
<polygon fill="#ffffff" stroke="#000000" points="288.3701,-.5 288.3701,-18.5 431.1035,-18.5 431.1035,-.5 288.3701,-.5"/>
<text text-anchor="middle" x="359.7368" y="-6.5" font-family="Helvetica,sans-Serif" font-size="10.00" fill="#000000">locomotor.core.Gaussian.cdf</text>
</a>
</g>
</g>
<!-- Node1&#45;&gt;Node6 -->
<g id="edge5" class="edge">
<title>Node1&#45;&gt;Node6</title>
<path fill="none" stroke="#191970" d="M73.298,-28.1115C122.7681,-24.8971 212.1469,-19.0897 277.9501,-14.8141"/>
<polygon fill="#191970" stroke="#191970" points="278.547,-18.2828 288.299,-14.1417 278.093,-11.2975 278.547,-18.2828"/>
</g>
<!-- Node3 -->
<g id="node3" class="node">
<title>Node3</title>
<g id="a_node3"><a xlink:href="classlocomotor_1_1core_1_1_gaussian.html#aa4cd1241f20f836cbf5facbf2d8379e4" target="_top" xlink:title="locomotor.core.Gaussian.\lGaussian">
<polygon fill="#ffffff" stroke="#000000" points="295.04,-37.5 295.04,-65.5 424.4336,-65.5 424.4336,-37.5 295.04,-37.5"/>
<text text-anchor="start" x="303.04" y="-53.5" font-family="Helvetica,sans-Serif" font-size="10.00" fill="#000000">locomotor.core.Gaussian.</text>
<text text-anchor="middle" x="359.7368" y="-43.5" font-family="Helvetica,sans-Serif" font-size="10.00" fill="#000000">Gaussian</text>
</a>
</g>
</g>
<!-- Node2&#45;&gt;Node3 -->
<g id="edge2" class="edge">
<title>Node2&#45;&gt;Node3</title>
<path fill="none" stroke="#191970" d="M252.5031,-52.099C263.1179,-52.0397 274.0791,-51.9785 284.757,-51.9188"/>
<polygon fill="#191970" stroke="#191970" points="284.9069,-55.4182 294.8871,-51.8623 284.8677,-48.4183 284.9069,-55.4182"/>
</g>
<!-- Node4 -->
<g id="node4" class="node">
<title>Node4</title>
<g id="a_node4"><a xlink:href="classlocomotor_1_1core_1_1_gaussian.html#aaa66f1ce25c09e6e7cbd82c46ba0b4ae" target="_top" xlink:title="locomotor.core.Gaussian.pdf">
<polygon fill="#ffffff" stroke="#000000" points="467.1035,-41.5 467.1035,-59.5 610.3984,-59.5 610.3984,-41.5 467.1035,-41.5"/>
<text text-anchor="middle" x="538.751" y="-47.5" font-family="Helvetica,sans-Serif" font-size="10.00" fill="#000000">locomotor.core.Gaussian.pdf</text>
</a>
</g>
</g>
<!-- Node3&#45;&gt;Node4 -->
<g id="edge3" class="edge">
<title>Node3&#45;&gt;Node4</title>
<path fill="none" stroke="#191970" d="M424.6181,-51.1376C435.0064,-51.0795 445.8746,-51.0188 456.6009,-50.9589"/>
<polygon fill="#191970" stroke="#191970" points="456.8408,-54.4577 466.8211,-50.9018 456.8017,-47.4578 456.8408,-54.4577"/>
</g>
<!-- Node5 -->
<g id="node5" class="node">
<title>Node5</title>
<g id="a_node5"><a xlink:href="classlocomotor_1_1core_1_1_gaussian.html#afd611f311f6fe230f8fad8bd0c7e0a51" target="_top" xlink:title="locomotor.core.Gaussian.get\lNearestStep">
<polygon fill="#ffffff" stroke="#000000" points="646.3984,-16.5 646.3984,-44.5 789.6934,-44.5 789.6934,-16.5 646.3984,-16.5"/>
<text text-anchor="start" x="654.3984" y="-32.5" font-family="Helvetica,sans-Serif" font-size="10.00" fill="#000000">locomotor.core.Gaussian.get</text>
<text text-anchor="middle" x="718.0459" y="-22.5" font-family="Helvetica,sans-Serif" font-size="10.00" fill="#000000">NearestStep</text>
</a>
</g>
</g>
<!-- Node4&#45;&gt;Node5 -->
<g id="edge4" class="edge">
<title>Node4&#45;&gt;Node5</title>
<path fill="none" stroke="#191970" d="M610.644,-42.4805C619.0468,-41.5432 627.6665,-40.5816 636.1914,-39.6307"/>
<polygon fill="#191970" stroke="#191970" points="636.5864,-43.1084 646.1368,-38.5213 635.8104,-36.1516 636.5864,-43.1084"/>
</g>
<!-- Node6&#45;&gt;Node5 -->
<g id="edge6" class="edge">
<title>Node6&#45;&gt;Node5</title>
<path fill="none" stroke="#191970" d="M431.3848,-13.6992C490.4857,-17.163 574.3561,-22.0785 636.115,-25.6981"/>
<polygon fill="#191970" stroke="#191970" points="636.028,-29.199 646.2157,-26.2901 636.4376,-22.211 636.028,-29.199"/>
</g>
</g>
</svg>
