<?xml version="1.0" encoding="UTF-8" standalone="no"?>
<!DOCTYPE svg PUBLIC "-//W3C//DTD SVG 1.1//EN"
 "http://www.w3.org/Graphics/SVG/1.1/DTD/svg11.dtd">
<!-- Generated by graphviz version 2.40.1 (20161225.0304)
 -->
<!-- Title: getRight Pages: 1 -->
<!--zoomable 98 -->
<svg id="main" version="1.1" xmlns="http://www.w3.org/2000/svg" xmlns:xlink="http://www.w3.org/1999/xlink" xml:space="preserve" onload="init(evt)">
<style type="text/css"><![CDATA[
.edge:hover path { stroke: red; }
.edge:hover polygon { stroke: red; fill: red; }
]]></style>
<script type="text/javascript"><![CDATA[
var edges = document.getElementsByTagName('g');
if (edges && edges.length) {
  for (var i=0;i<edges.length;i++) {
    if (edges[i].id.substr(0,4)=='edge') {
      edges[i].setAttribute('class','edge');
    }
  }
}
]]></script>
        <defs>
                <circle id="rim" cx="0" cy="0" r="7"/>
                <circle id="rim2" cx="0" cy="0" r="3.5"/>
                <g id="zoomPlus">
                        <use xlink:href="#rim" fill="#404040">
                                <set attributeName="fill" to="#808080" begin="zoomplus.mouseover" end="zoomplus.mouseout"/>
                        </use>
                        <path d="M-4,0h8M0,-4v8" fill="none" stroke="white" stroke-width="1.5" pointer-events="none"/>
                </g>
                <g id="zoomMin">
                        <use xlink:href="#rim" fill="#404040">
                                <set attributeName="fill" to="#808080" begin="zoomminus.mouseover" end="zoomminus.mouseout"/>
                        </use>
                        <path d="M-4,0h8" fill="none" stroke="white" stroke-width="1.5" pointer-events="none"/>
                </g>
                <g id="dirArrow">
                        <path fill="none" stroke="white" stroke-width="1.5" d="M0,-3.0v7 M-2.5,-0.5L0,-3.0L2.5,-0.5"/>
                </g>
               <g id="resetDef">
                       <use xlink:href="#rim2" fill="#404040">
                               <set attributeName="fill" to="#808080" begin="reset.mouseover" end="reset.mouseout"/>
                       </use>
               </g>
        </defs>

<script type="text/javascript">
var viewWidth = 845;
var viewHeight = 98;
var sectionId = 'dynsection-1';
</script>
<script xlink:href="svgpan.js"/>
<svg id="graph" class="graph">
<g id="viewport">
<title>getRight</title>
<polygon fill="#ffffff" stroke="transparent" points="-4,4 -4,-93.9483 841.0908,-93.9483 841.0908,4 -4,4"/>
<!-- Node1 -->
<g id="node1" class="node">
<title>Node1</title>
<polygon fill="#bfbfbf" stroke="#000000" points="0,-42.5 0,-60.5 53.2461,-60.5 53.2461,-42.5 0,-42.5"/>
<text text-anchor="middle" x="26.623" y="-48.5" font-family="Helvetica,sans-Serif" font-size="10.00" fill="#000000">getRight</text>
</g>
<!-- Node2 -->
<g id="node2" class="node">
<title>Node2</title>
<g id="a_node2"><a xlink:href="classlocomotor_1_1components_1_1network_1_1_a_p_i.html#a547463fbc7fb7b485886f0917e2c0b78" target="_top" xlink:title="locomotor.components.network.\lAPI.createHooks">
<polygon fill="#ffffff" stroke="#000000" points="513.4072,-37.5 513.4072,-65.5 670.5938,-65.5 670.5938,-37.5 513.4072,-37.5"/>
<text text-anchor="start" x="521.4072" y="-53.5" font-family="Helvetica,sans-Serif" font-size="10.00" fill="#000000">locomotor.components.network.</text>
<text text-anchor="middle" x="592.0005" y="-43.5" font-family="Helvetica,sans-Serif" font-size="10.00" fill="#000000">API.createHooks</text>
</a>
</g>
</g>
<!-- Node1&#45;&gt;Node2 -->
<g id="edge1" class="edge">
<title>Node1&#45;&gt;Node2</title>
<path fill="none" stroke="#191970" d="M60.5345,-63.6123C69.7339,-66.394 79.7723,-68.9792 89.2461,-70.5 259.5956,-97.8454 305.7953,-93.278 477.4072,-75.5 496.8166,-73.4893 517.7836,-69.6116 536.4106,-65.55"/>
<polygon fill="#191970" stroke="#191970" points="61.5384,-60.2588 50.9478,-60.5576 59.4132,-66.9285 61.5384,-60.2588"/>
</g>
<!-- Node4 -->
<g id="node4" class="node">
<title>Node4</title>
<g id="a_node4"><a xlink:href="classlocomotor_1_1core_1_1_comparator.html#a2ac714803f2cf6e544315619a14ff13c" target="_top" xlink:title="locomotor.core.Comparator.toJSON">
<polygon fill="#ffffff" stroke="#000000" points="89.2461,-42.5 89.2461,-60.5 263.6543,-60.5 263.6543,-42.5 89.2461,-42.5"/>
<text text-anchor="middle" x="176.4502" y="-48.5" font-family="Helvetica,sans-Serif" font-size="10.00" fill="#000000">locomotor.core.Comparator.toJSON</text>
</a>
</g>
</g>
<!-- Node1&#45;&gt;Node4 -->
<g id="edge3" class="edge">
<title>Node1&#45;&gt;Node4</title>
<path fill="none" stroke="#191970" d="M63.419,-51.5C71.4141,-51.5 80.1989,-51.5 89.2291,-51.5"/>
<polygon fill="#191970" stroke="#191970" points="63.4092,-48.0001 53.4091,-51.5 63.4091,-55.0001 63.4092,-48.0001"/>
</g>
<!-- Node6 -->
<g id="node6" class="node">
<title>Node6</title>
<g id="a_node6"><a xlink:href="classlocomotor_1_1core_1_1_d_b_h.html#ad707f520f60fe68ea8a8818698560d9d" target="_top" xlink:title="locomotor.core.DBH.authAdmin">
<polygon fill="#ffffff" stroke="#000000" points="310.4966,-.5 310.4966,-18.5 466.5649,-18.5 466.5649,-.5 310.4966,-.5"/>
<text text-anchor="middle" x="388.5308" y="-6.5" font-family="Helvetica,sans-Serif" font-size="10.00" fill="#000000">locomotor.core.DBH.authAdmin</text>
</a>
</g>
</g>
<!-- Node1&#45;&gt;Node6 -->
<g id="edge6" class="edge">
<title>Node1&#45;&gt;Node6</title>
<path fill="none" stroke="#191970" d="M61.6022,-39.4209C70.5222,-36.7478 80.1596,-34.2064 89.2461,-32.5 163.5107,-18.5531 249.6628,-13.0267 310.4108,-10.8563"/>
<polygon fill="#191970" stroke="#191970" points="60.4012,-36.1293 51.9038,-42.4574 62.4928,-42.8096 60.4012,-36.1293"/>
</g>
<!-- Node3 -->
<g id="node3" class="node">
<title>Node3</title>
<g id="a_node3"><a xlink:href="classlocomotor_1_1core_1_1_main.html#a8b260eecbaabcef8473fd87ada040682" target="_top" xlink:title="locomotor.core.Main.main">
<polygon fill="#ffffff" stroke="#000000" points="706.5938,-42.5 706.5938,-60.5 837.0908,-60.5 837.0908,-42.5 706.5938,-42.5"/>
<text text-anchor="middle" x="771.8423" y="-48.5" font-family="Helvetica,sans-Serif" font-size="10.00" fill="#000000">locomotor.core.Main.main</text>
</a>
</g>
</g>
<!-- Node2&#45;&gt;Node3 -->
<g id="edge2" class="edge">
<title>Node2&#45;&gt;Node3</title>
<path fill="none" stroke="#191970" d="M680.7935,-51.5C689.4818,-51.5 698.1842,-51.5 706.576,-51.5"/>
<polygon fill="#191970" stroke="#191970" points="680.6201,-48.0001 670.6201,-51.5 680.6201,-55.0001 680.6201,-48.0001"/>
</g>
<!-- Node5 -->
<g id="node5" class="node">
<title>Node5</title>
<g id="a_node5"><a xlink:href="classlocomotor_1_1core_1_1_comparator.html#a092fb76ad264eeccd8f30eadb70e36e3" target="_top" xlink:title="locomotor.core.Comparator.compute\lGradeOfItems">
<polygon fill="#ffffff" stroke="#000000" points="299.6543,-37.5 299.6543,-65.5 477.4072,-65.5 477.4072,-37.5 299.6543,-37.5"/>
<text text-anchor="start" x="307.6543" y="-53.5" font-family="Helvetica,sans-Serif" font-size="10.00" fill="#000000">locomotor.core.Comparator.compute</text>
<text text-anchor="middle" x="388.5308" y="-43.5" font-family="Helvetica,sans-Serif" font-size="10.00" fill="#000000">GradeOfItems</text>
</a>
</g>
</g>
<!-- Node4&#45;&gt;Node5 -->
<g id="edge4" class="edge">
<title>Node4&#45;&gt;Node5</title>
<path fill="none" stroke="#191970" d="M274.1916,-51.5C282.6401,-51.5 291.1593,-51.5 299.5329,-51.5"/>
<polygon fill="#191970" stroke="#191970" points="273.9359,-48.0001 263.9359,-51.5 273.9359,-55.0001 273.9359,-48.0001"/>
</g>
<!-- Node5&#45;&gt;Node2 -->
<g id="edge5" class="edge">
<title>Node5&#45;&gt;Node2</title>
<path fill="none" stroke="#191970" d="M487.536,-51.5C496.1252,-51.5 504.7404,-51.5 513.1364,-51.5"/>
<polygon fill="#191970" stroke="#191970" points="487.4796,-48.0001 477.4795,-51.5 487.4795,-55.0001 487.4796,-48.0001"/>
</g>
<!-- Node6&#45;&gt;Node2 -->
<g id="edge7" class="edge">
<title>Node6&#45;&gt;Node2</title>
<path fill="none" stroke="#191970" d="M443.4421,-20.5619C454.6808,-22.8425 466.4281,-25.2385 477.4072,-27.5 492.9357,-30.6986 509.6398,-34.176 525.3614,-37.4655"/>
<polygon fill="#191970" stroke="#191970" points="443.7963,-17.0626 433.3004,-18.5069 442.4062,-23.9232 443.7963,-17.0626"/>
</g>
</g>
</svg>
        <g id="navigator" transform="translate(0 0)" fill="#404254">
                <rect fill="#f2f5e9" fill-opacity="0.5" stroke="#606060" stroke-width=".5" x="0" y="0" width="60" height="60"/>
                <use id="zoomplus" xlink:href="#zoomPlus" x="17" y="9" onmousedown="handleZoom(evt,'in')"/>
                <use id="zoomminus" xlink:href="#zoomMin" x="42" y="9" onmousedown="handleZoom(evt,'out')"/>
                <use id="reset" xlink:href="#resetDef" x="30" y="36" onmousedown="handleReset()"/>
                <g id="arrowUp" xlink:href="#dirArrow" transform="translate(30 24)" onmousedown="handlePan(0,-1)">
                  <use xlink:href="#rim" fill="#404040">
                        <set attributeName="fill" to="#808080" begin="arrowUp.mouseover" end="arrowUp.mouseout"/>
                  </use>
                  <path fill="none" stroke="white" stroke-width="1.5" d="M0,-3.0v7 M-2.5,-0.5L0,-3.0L2.5,-0.5"/>
                </g>
                <g id="arrowRight" xlink:href="#dirArrow" transform="rotate(90) translate(36 -43)" onmousedown="handlePan(1,0)">
                  <use xlink:href="#rim" fill="#404040">
                        <set attributeName="fill" to="#808080" begin="arrowRight.mouseover" end="arrowRight.mouseout"/>
                  </use>
                  <path fill="none" stroke="white" stroke-width="1.5" d="M0,-3.0v7 M-2.5,-0.5L0,-3.0L2.5,-0.5"/>
                </g>
                <g id="arrowDown" xlink:href="#dirArrow" transform="rotate(180) translate(-30 -48)" onmousedown="handlePan(0,1)">
                  <use xlink:href="#rim" fill="#404040">
                        <set attributeName="fill" to="#808080" begin="arrowDown.mouseover" end="arrowDown.mouseout"/>
                  </use>
                  <path fill="none" stroke="white" stroke-width="1.5" d="M0,-3.0v7 M-2.5,-0.5L0,-3.0L2.5,-0.5"/>
                </g>
                <g id="arrowLeft" xlink:href="#dirArrow" transform="rotate(270) translate(-36 17)" onmousedown="handlePan(-1,0)">
                  <use xlink:href="#rim" fill="#404040">
                        <set attributeName="fill" to="#808080" begin="arrowLeft.mouseover" end="arrowLeft.mouseout"/>
                  </use>
                  <path fill="none" stroke="white" stroke-width="1.5" d="M0,-3.0v7 M-2.5,-0.5L0,-3.0L2.5,-0.5"/>
                </g>
        </g>
        <svg viewBox="0 0 15 15" width="100%" height="30px" preserveAspectRatio="xMaxYMin meet">
         <g id="arrow_out" transform="scale(0.3 0.3)">
          <a xlink:href="classlocomotor_1_1components_1_1_pair_a372a73c0f39951186746e06a624f43d8_icgraph_org.svg" target="_base">
           <rect id="button" ry="5" rx="5" y="6" x="6" height="38" width="38"
                fill="#f2f5e9" fill-opacity="0.5" stroke="#606060" stroke-width="1.0"/>
           <path id="arrow"
             d="M 11.500037,31.436501 C 11.940474,20.09759 22.043105,11.32322 32.158766,21.979434 L 37.068811,17.246167 C 37.068811,17.246167 37.088388,32 37.088388,32 L 22.160133,31.978069 C 22.160133,31.978069 26.997745,27.140456 26.997745,27.140456 C 18.528582,18.264221 13.291696,25.230495 11.500037,31.436501 z"
             style="fill:#404040;"/>
          </a>
         </g>
        </svg>
</svg>
