<?xml version="1.0" encoding="UTF-8" standalone="no"?>
<!DOCTYPE svg PUBLIC "-//W3C//DTD SVG 1.1//EN"
 "http://www.w3.org/Graphics/SVG/1.1/DTD/svg11.dtd">
<!-- Generated by graphviz version 2.40.1 (20161225.0304)
 -->
<!-- Title: handle Pages: 1 -->
<svg width="414pt" height="37pt"
 viewBox="0.00 0.00 413.71 37.00" xmlns="http://www.w3.org/2000/svg" xmlns:xlink="http://www.w3.org/1999/xlink">
<g id="graph0" class="graph" transform="scale(1 1) rotate(0) translate(4 33)">
<title>handle</title>
<polygon fill="#ffffff" stroke="transparent" points="-4,4 -4,-33 409.7129,-33 409.7129,4 -4,4"/>
<!-- Node1 -->
<g id="node1" class="node">
<title>Node1</title>
<polygon fill="#bfbfbf" stroke="#000000" points="0,-5.5 0,-23.5 46.0293,-23.5 46.0293,-5.5 0,-5.5"/>
<text text-anchor="middle" x="23.0146" y="-11.5" font-family="Helvetica,sans-Serif" font-size="10.00" fill="#000000">handle</text>
</g>
<!-- Node2 -->
<g id="node2" class="node">
<title>Node2</title>
<g id="a_node2"><a xlink:href="classlocomotor_1_1components_1_1network_1_1_network_handler.html#a63d431845f1fd2adc1f96432f6003e25" target="_top" xlink:title="locomotor.components.network.\lNetworkHandler.init">
<polygon fill="#ffffff" stroke="#000000" points="82.0293,-.5 82.0293,-28.5 239.2158,-28.5 239.2158,-.5 82.0293,-.5"/>
<text text-anchor="start" x="90.0293" y="-16.5" font-family="Helvetica,sans-Serif" font-size="10.00" fill="#000000">locomotor.components.network.</text>
<text text-anchor="middle" x="160.6226" y="-6.5" font-family="Helvetica,sans-Serif" font-size="10.00" fill="#000000">NetworkHandler.init</text>
</a>
</g>
</g>
<!-- Node1&#45;&gt;Node2 -->
<g id="edge1" class="edge">
<title>Node1&#45;&gt;Node2</title>
<path fill="none" stroke="#191970" d="M56.2436,-14.5C64.1586,-14.5 72.94,-14.5 81.9521,-14.5"/>
<polygon fill="#191970" stroke="#191970" points="56.0472,-11.0001 46.0471,-14.5 56.0471,-18.0001 56.0472,-11.0001"/>
</g>
<!-- Node3 -->
<g id="node3" class="node">
<title>Node3</title>
<g id="a_node3"><a xlink:href="classlocomotor_1_1core_1_1_main.html#a8b260eecbaabcef8473fd87ada040682" target="_top" xlink:title="locomotor.core.Main.main">
<polygon fill="#ffffff" stroke="#000000" points="275.2158,-5.5 275.2158,-23.5 405.7129,-23.5 405.7129,-5.5 275.2158,-5.5"/>
<text text-anchor="middle" x="340.4644" y="-11.5" font-family="Helvetica,sans-Serif" font-size="10.00" fill="#000000">locomotor.core.Main.main</text>
</a>
</g>
</g>
<!-- Node2&#45;&gt;Node3 -->
<g id="edge2" class="edge">
<title>Node2&#45;&gt;Node3</title>
<path fill="none" stroke="#191970" d="M249.4156,-14.5C258.1039,-14.5 266.8062,-14.5 275.1981,-14.5"/>
<polygon fill="#191970" stroke="#191970" points="249.2422,-11.0001 239.2422,-14.5 249.2421,-18.0001 249.2422,-11.0001"/>
</g>
</g>
</svg>
