<?xml version="1.0" encoding="UTF-8" standalone="no"?>
<!DOCTYPE svg PUBLIC "-//W3C//DTD SVG 1.1//EN"
 "http://www.w3.org/Graphics/SVG/1.1/DTD/svg11.dtd">
<!-- Generated by graphviz version 2.40.1 (20161225.0304)
 -->
<!-- Title: removeItem Pages: 1 -->
<svg width="436pt" height="37pt"
 viewBox="0.00 0.00 436.48 37.00" xmlns="http://www.w3.org/2000/svg" xmlns:xlink="http://www.w3.org/1999/xlink">
<g id="graph0" class="graph" transform="scale(1 1) rotate(0) translate(4 33)">
<title>removeItem</title>
<polygon fill="#ffffff" stroke="transparent" points="-4,4 -4,-33 432.4766,-33 432.4766,4 -4,4"/>
<!-- Node1 -->
<g id="node1" class="node">
<title>Node1</title>
<polygon fill="#bfbfbf" stroke="#000000" points="0,-5.5 0,-23.5 68.793,-23.5 68.793,-5.5 0,-5.5"/>
<text text-anchor="middle" x="34.3965" y="-11.5" font-family="Helvetica,sans-Serif" font-size="10.00" fill="#000000">removeItem</text>
</g>
<!-- Node2 -->
<g id="node2" class="node">
<title>Node2</title>
<g id="a_node2"><a xlink:href="classlocomotor_1_1components_1_1network_1_1_a_p_i.html#a547463fbc7fb7b485886f0917e2c0b78" target="_top" xlink:title="locomotor.components.network.\lAPI.createHooks">
<polygon fill="#ffffff" stroke="#000000" points="104.793,-.5 104.793,-28.5 261.9795,-28.5 261.9795,-.5 104.793,-.5"/>
<text text-anchor="start" x="112.793" y="-16.5" font-family="Helvetica,sans-Serif" font-size="10.00" fill="#000000">locomotor.components.network.</text>
<text text-anchor="middle" x="183.3862" y="-6.5" font-family="Helvetica,sans-Serif" font-size="10.00" fill="#000000">API.createHooks</text>
</a>
</g>
</g>
<!-- Node1&#45;&gt;Node2 -->
<g id="edge1" class="edge">
<title>Node1&#45;&gt;Node2</title>
<path fill="none" stroke="#191970" d="M79.1727,-14.5C87.2201,-14.5 95.8208,-14.5 104.5014,-14.5"/>
<polygon fill="#191970" stroke="#191970" points="78.9522,-11.0001 68.9522,-14.5 78.9522,-18.0001 78.9522,-11.0001"/>
</g>
<!-- Node3 -->
<g id="node3" class="node">
<title>Node3</title>
<g id="a_node3"><a xlink:href="classlocomotor_1_1core_1_1_main.html#a8b260eecbaabcef8473fd87ada040682" target="_top" xlink:title="locomotor.core.Main.main">
<polygon fill="#ffffff" stroke="#000000" points="297.9795,-5.5 297.9795,-23.5 428.4766,-23.5 428.4766,-5.5 297.9795,-5.5"/>
<text text-anchor="middle" x="363.228" y="-11.5" font-family="Helvetica,sans-Serif" font-size="10.00" fill="#000000">locomotor.core.Main.main</text>
</a>
</g>
</g>
<!-- Node2&#45;&gt;Node3 -->
<g id="edge2" class="edge">
<title>Node2&#45;&gt;Node3</title>
<path fill="none" stroke="#191970" d="M272.1793,-14.5C280.8676,-14.5 289.5699,-14.5 297.9618,-14.5"/>
<polygon fill="#191970" stroke="#191970" points="272.0059,-11.0001 262.0058,-14.5 272.0058,-18.0001 272.0059,-11.0001"/>
</g>
</g>
</svg>
