<?xml version="1.0" encoding="UTF-8" standalone="no"?>
<!DOCTYPE svg PUBLIC "-//W3C//DTD SVG 1.1//EN"
 "http://www.w3.org/Graphics/SVG/1.1/DTD/svg11.dtd">
<!-- Generated by graphviz version 2.40.1 (20161225.0304)
 -->
<!-- Title: addItem Pages: 1 -->
<svg width="420pt" height="37pt"
 viewBox="0.00 0.00 419.82 37.00" xmlns="http://www.w3.org/2000/svg" xmlns:xlink="http://www.w3.org/1999/xlink">
<g id="graph0" class="graph" transform="scale(1 1) rotate(0) translate(4 33)">
<title>addItem</title>
<polygon fill="#ffffff" stroke="transparent" points="-4,4 -4,-33 415.8164,-33 415.8164,4 -4,4"/>
<!-- Node1 -->
<g id="node1" class="node">
<title>Node1</title>
<polygon fill="#bfbfbf" stroke="#000000" points="0,-5.5 0,-23.5 52.1328,-23.5 52.1328,-5.5 0,-5.5"/>
<text text-anchor="middle" x="26.0664" y="-11.5" font-family="Helvetica,sans-Serif" font-size="10.00" fill="#000000">addItem</text>
</g>
<!-- Node2 -->
<g id="node2" class="node">
<title>Node2</title>
<g id="a_node2"><a xlink:href="classlocomotor_1_1components_1_1network_1_1_a_p_i.html#a547463fbc7fb7b485886f0917e2c0b78" target="_top" xlink:title="locomotor.components.network.\lAPI.createHooks">
<polygon fill="#ffffff" stroke="#000000" points="88.1328,-.5 88.1328,-28.5 245.3193,-28.5 245.3193,-.5 88.1328,-.5"/>
<text text-anchor="start" x="96.1328" y="-16.5" font-family="Helvetica,sans-Serif" font-size="10.00" fill="#000000">locomotor.components.network.</text>
<text text-anchor="middle" x="166.7261" y="-6.5" font-family="Helvetica,sans-Serif" font-size="10.00" fill="#000000">API.createHooks</text>
</a>
</g>
</g>
<!-- Node1&#45;&gt;Node2 -->
<g id="edge1" class="edge">
<title>Node1&#45;&gt;Node2</title>
<path fill="none" stroke="#191970" d="M62.4497,-14.5C70.3519,-14.5 79.0062,-14.5 87.8433,-14.5"/>
<polygon fill="#191970" stroke="#191970" points="62.1938,-11.0001 52.1938,-14.5 62.1937,-18.0001 62.1938,-11.0001"/>
</g>
<!-- Node3 -->
<g id="node3" class="node">
<title>Node3</title>
<g id="a_node3"><a xlink:href="classlocomotor_1_1core_1_1_main.html#a8b260eecbaabcef8473fd87ada040682" target="_top" xlink:title="locomotor.core.Main.main">
<polygon fill="#ffffff" stroke="#000000" points="281.3193,-5.5 281.3193,-23.5 411.8164,-23.5 411.8164,-5.5 281.3193,-5.5"/>
<text text-anchor="middle" x="346.5679" y="-11.5" font-family="Helvetica,sans-Serif" font-size="10.00" fill="#000000">locomotor.core.Main.main</text>
</a>
</g>
</g>
<!-- Node2&#45;&gt;Node3 -->
<g id="edge2" class="edge">
<title>Node2&#45;&gt;Node3</title>
<path fill="none" stroke="#191970" d="M255.5191,-14.5C264.2074,-14.5 272.9097,-14.5 281.3016,-14.5"/>
<polygon fill="#191970" stroke="#191970" points="255.3457,-11.0001 245.3457,-14.5 255.3456,-18.0001 255.3457,-11.0001"/>
</g>
</g>
</svg>
