<?xml version="1.0" encoding="UTF-8" standalone="no"?>
<!DOCTYPE svg PUBLIC "-//W3C//DTD SVG 1.1//EN"
 "http://www.w3.org/Graphics/SVG/1.1/DTD/svg11.dtd">
<!-- Generated by graphviz version 2.40.1 (20161225.0304)
 -->
<!-- Title: fromJSON Pages: 1 -->
<svg width="1049pt" height="632pt"
 viewBox="0.00 0.00 1048.86 632.00" xmlns="http://www.w3.org/2000/svg" xmlns:xlink="http://www.w3.org/1999/xlink">
<g id="graph0" class="graph" transform="scale(1 1) rotate(0) translate(4 628)">
<title>fromJSON</title>
<polygon fill="#ffffff" stroke="transparent" points="-4,4 -4,-628 1044.8633,-628 1044.8633,4 -4,4"/>
<!-- Node1 -->
<g id="node1" class="node">
<title>Node1</title>
<polygon fill="#bfbfbf" stroke="#000000" points="0,-466.5 0,-484.5 62.6699,-484.5 62.6699,-466.5 0,-466.5"/>
<text text-anchor="middle" x="31.335" y="-472.5" font-family="Helvetica,sans-Serif" font-size="10.00" fill="#000000">fromJSON</text>
</g>
<!-- Node2 -->
<g id="node2" class="node">
<title>Node2</title>
<g id="a_node2"><a xlink:href="classlocomotor_1_1components_1_1models_1_1_category_model.html#a337145f3b2fdaaed1506d52b80d2ac86" target="_top" xlink:title="locomotor.components.models.\lCategoryModel.getCriterias">
<polygon fill="#ffffff" stroke="#000000" points="98.6699,-542.5 98.6699,-570.5 253.0781,-570.5 253.0781,-542.5 98.6699,-542.5"/>
<text text-anchor="start" x="106.6699" y="-558.5" font-family="Helvetica,sans-Serif" font-size="10.00" fill="#000000">locomotor.components.models.</text>
<text text-anchor="middle" x="175.874" y="-548.5" font-family="Helvetica,sans-Serif" font-size="10.00" fill="#000000">CategoryModel.getCriterias</text>
</a>
</g>
</g>
<!-- Node1&#45;&gt;Node2 -->
<g id="edge1" class="edge">
<title>Node1&#45;&gt;Node2</title>
<path fill="none" stroke="#191970" d="M41.1588,-484.627C53.711,-495.91 76.479,-515.1322 98.6699,-527.5 106.041,-531.6082 114.1102,-535.3618 122.1653,-538.7065"/>
<polygon fill="#191970" stroke="#191970" points="120.9863,-542.0041 131.5721,-542.4417 123.5697,-535.4982 120.9863,-542.0041"/>
</g>
<!-- Node3 -->
<g id="node3" class="node">
<title>Node3</title>
<g id="a_node3"><a xlink:href="classlocomotor_1_1components_1_1logging_1_1_error_handler.html#a75e8f6535bdb8db9a7d570e1b839af47" target="_top" xlink:title="locomotor.components.logging.\lErrorHandler.getInstance">
<polygon fill="#ffffff" stroke="#000000" points="289.0781,-509.5 289.0781,-537.5 443.501,-537.5 443.501,-509.5 289.0781,-509.5"/>
<text text-anchor="start" x="297.0781" y="-525.5" font-family="Helvetica,sans-Serif" font-size="10.00" fill="#000000">locomotor.components.logging.</text>
<text text-anchor="middle" x="366.2896" y="-515.5" font-family="Helvetica,sans-Serif" font-size="10.00" fill="#000000">ErrorHandler.getInstance</text>
</a>
</g>
</g>
<!-- Node1&#45;&gt;Node3 -->
<g id="edge2" class="edge">
<title>Node1&#45;&gt;Node3</title>
<path fill="none" stroke="#191970" d="M62.7257,-483.1521C74.0116,-485.7282 86.8678,-488.4627 98.6699,-490.5 158.585,-500.8428 226.5894,-509.1849 279.053,-514.8943"/>
<polygon fill="#191970" stroke="#191970" points="278.6794,-518.3742 288.9967,-515.9652 279.429,-511.4145 278.6794,-518.3742"/>
</g>
<!-- Node4 -->
<g id="node4" class="node">
<title>Node4</title>
<g id="a_node4"><a xlink:href="classlocomotor_1_1components_1_1logging_1_1_error_handler.html#abd00a9c37627740763cef91d76a77437" target="_top" xlink:title="locomotor.components.logging.\lErrorHandler.push">
<polygon fill="#ffffff" stroke="#000000" points="289.0781,-462.5 289.0781,-490.5 443.501,-490.5 443.501,-462.5 289.0781,-462.5"/>
<text text-anchor="start" x="297.0781" y="-478.5" font-family="Helvetica,sans-Serif" font-size="10.00" fill="#000000">locomotor.components.logging.</text>
<text text-anchor="middle" x="366.2896" y="-468.5" font-family="Helvetica,sans-Serif" font-size="10.00" fill="#000000">ErrorHandler.push</text>
</a>
</g>
</g>
<!-- Node1&#45;&gt;Node4 -->
<g id="edge3" class="edge">
<title>Node1&#45;&gt;Node4</title>
<path fill="none" stroke="#191970" d="M62.8467,-475.5941C111.7417,-475.7401 207.6348,-476.0263 278.594,-476.2382"/>
<polygon fill="#191970" stroke="#191970" points="278.8635,-479.7389 288.874,-476.2689 278.8845,-472.7389 278.8635,-479.7389"/>
</g>
<!-- Node6 -->
<g id="node6" class="node">
<title>Node6</title>
<g id="a_node6"><a xlink:href="classlocomotor_1_1components_1_1models_1_1_item_criteria_full.html#a436730a3499b6d7b1d0359e12aa2f04a" target="_top" xlink:title="locomotor.components.models.\lItemCriteriaFull.fromJSON">
<polygon fill="#ffffff" stroke="#000000" points="98.6699,-416.5 98.6699,-444.5 253.0781,-444.5 253.0781,-416.5 98.6699,-416.5"/>
<text text-anchor="start" x="106.6699" y="-432.5" font-family="Helvetica,sans-Serif" font-size="10.00" fill="#000000">locomotor.components.models.</text>
<text text-anchor="middle" x="175.874" y="-422.5" font-family="Helvetica,sans-Serif" font-size="10.00" fill="#000000">ItemCriteriaFull.fromJSON</text>
</a>
</g>
</g>
<!-- Node1&#45;&gt;Node6 -->
<g id="edge5" class="edge">
<title>Node1&#45;&gt;Node6</title>
<path fill="none" stroke="#191970" d="M60.5846,-466.3936C77.9603,-460.9839 100.5524,-453.9502 121.1279,-447.5443"/>
<polygon fill="#191970" stroke="#191970" points="122.2156,-450.8715 130.7231,-444.557 120.1347,-444.1879 122.2156,-450.8715"/>
</g>
<!-- Node34 -->
<g id="node34" class="node">
<title>Node34</title>
<g id="a_node34"><a xlink:href="classlocomotor_1_1components_1_1models_1_1_item_category_full.html#ac4cc3afe3a775553661da4e09cbe967f" target="_top" xlink:title="ItemCategoryFull">
<polygon fill="#ffffff" stroke="#000000" points="129.8052,-379.5 129.8052,-397.5 221.9429,-397.5 221.9429,-379.5 129.8052,-379.5"/>
<text text-anchor="middle" x="175.874" y="-385.5" font-family="Helvetica,sans-Serif" font-size="10.00" fill="#000000">ItemCategoryFull</text>
</a>
</g>
</g>
<!-- Node1&#45;&gt;Node34 -->
<g id="edge41" class="edge">
<title>Node1&#45;&gt;Node34</title>
<path fill="none" stroke="#191970" d="M37.6021,-466.2737C48.293,-451.2856 71.5499,-421.7887 98.6699,-406.5 105.2555,-402.7874 112.5694,-399.8393 119.9959,-397.4986"/>
<polygon fill="#191970" stroke="#191970" points="121.0878,-400.8275 129.7719,-394.7581 119.1983,-394.0873 121.0878,-400.8275"/>
</g>
<!-- Node5 -->
<g id="node5" class="node">
<title>Node5</title>
<g id="a_node5"><a xlink:href="classlocomotor_1_1components_1_1logging_1_1_error_context.html#afcf30b71bfc65c74878c7ab77c951842" target="_top" xlink:title="locomotor.components.logging.\lErrorContext.push">
<polygon fill="#ffffff" stroke="#000000" points="479.501,-582.5 479.501,-610.5 633.9238,-610.5 633.9238,-582.5 479.501,-582.5"/>
<text text-anchor="start" x="487.501" y="-598.5" font-family="Helvetica,sans-Serif" font-size="10.00" fill="#000000">locomotor.components.logging.</text>
<text text-anchor="middle" x="556.7124" y="-588.5" font-family="Helvetica,sans-Serif" font-size="10.00" fill="#000000">ErrorContext.push</text>
</a>
</g>
</g>
<!-- Node4&#45;&gt;Node5 -->
<g id="edge4" class="edge">
<title>Node4&#45;&gt;Node5</title>
<path fill="none" stroke="#191970" d="M428.1664,-490.5533C433.6857,-493.2984 438.9117,-496.5792 443.501,-500.5 471.0053,-523.9979 451.8578,-550.1655 479.501,-573.5 481.024,-574.7857 482.6167,-575.9994 484.2667,-577.1454"/>
<polygon fill="#191970" stroke="#191970" points="482.5562,-580.2006 492.9353,-582.3283 486.1485,-574.1926 482.5562,-580.2006"/>
</g>
<!-- Node6&#45;&gt;Node3 -->
<g id="edge38" class="edge">
<title>Node6&#45;&gt;Node3</title>
<path fill="none" stroke="#191970" d="M195.0339,-444.5509C216.8708,-460.0286 254.0797,-484.801 289.0781,-500.5 293.473,-502.4714 298.0826,-504.3286 302.7698,-506.0666"/>
<polygon fill="#191970" stroke="#191970" points="301.8608,-509.4568 312.4556,-509.4653 304.1785,-502.8517 301.8608,-509.4568"/>
</g>
<!-- Node6&#45;&gt;Node4 -->
<g id="edge39" class="edge">
<title>Node6&#45;&gt;Node4</title>
<path fill="none" stroke="#191970" d="M234.0396,-444.5515C254.3394,-449.4554 277.3009,-455.0024 298.3266,-460.0817"/>
<polygon fill="#191970" stroke="#191970" points="297.61,-463.5092 308.1523,-462.4554 299.2538,-456.705 297.61,-463.5092"/>
</g>
<!-- Node7 -->
<g id="node7" class="node">
<title>Node7</title>
<g id="a_node7"><a xlink:href="classlocomotor_1_1components_1_1types_1_1_type_factory.html#a8827604831ff8a1764b7639c82820497" target="_top" xlink:title="locomotor.components.types.\lTypeFactory.getItemFromJson">
<polygon fill="#ffffff" stroke="#000000" points="290.8555,-321.5 290.8555,-349.5 441.7236,-349.5 441.7236,-321.5 290.8555,-321.5"/>
<text text-anchor="start" x="298.8555" y="-337.5" font-family="Helvetica,sans-Serif" font-size="10.00" fill="#000000">locomotor.components.types.</text>
<text text-anchor="middle" x="366.2896" y="-327.5" font-family="Helvetica,sans-Serif" font-size="10.00" fill="#000000">TypeFactory.getItemFromJson</text>
</a>
</g>
</g>
<!-- Node6&#45;&gt;Node7 -->
<g id="edge6" class="edge">
<title>Node6&#45;&gt;Node7</title>
<path fill="none" stroke="#191970" d="M235.05,-416.4061C241.4176,-413.6546 247.5727,-410.3836 253.0781,-406.5 274.8688,-391.1287 267.1965,-373.7416 289.0781,-358.5 291.3144,-356.9424 293.6575,-355.4886 296.0782,-354.1319"/>
<polygon fill="#191970" stroke="#191970" points="297.7341,-357.2174 305.131,-349.6321 294.6183,-350.9491 297.7341,-357.2174"/>
</g>
<!-- Node31 -->
<g id="node31" class="node">
<title>Node31</title>
<g id="a_node31"><a xlink:href="classlocomotor_1_1components_1_1models_1_1_criteria_model.html#a19fc0aeef83333878b7af08e6eb7dbea" target="_top" xlink:title="locomotor.components.models.\lCriteriaModel.getItemType">
<polygon fill="#ffffff" stroke="#000000" points="289.0854,-274.5 289.0854,-302.5 443.4937,-302.5 443.4937,-274.5 289.0854,-274.5"/>
<text text-anchor="start" x="297.0854" y="-290.5" font-family="Helvetica,sans-Serif" font-size="10.00" fill="#000000">locomotor.components.models.</text>
<text text-anchor="middle" x="366.2896" y="-280.5" font-family="Helvetica,sans-Serif" font-size="10.00" fill="#000000">CriteriaModel.getItemType</text>
</a>
</g>
</g>
<!-- Node6&#45;&gt;Node31 -->
<g id="edge36" class="edge">
<title>Node6&#45;&gt;Node31</title>
<path fill="none" stroke="#191970" d="M238.903,-416.4944C244.058,-413.7397 248.887,-410.4436 253.0781,-406.5 285.9617,-375.5583 256.0113,-342.2458 289.0781,-311.5 290.2305,-310.4285 291.4307,-309.4068 292.6722,-308.4326"/>
<polygon fill="#191970" stroke="#191970" points="294.9851,-311.0994 301.3994,-302.6669 291.1265,-305.2589 294.9851,-311.0994"/>
</g>
<!-- Node32 -->
<g id="node32" class="node">
<title>Node32</title>
<g id="a_node32"><a xlink:href="classlocomotor_1_1components_1_1models_1_1_criteria_model.html#afe6cac49dd51cda8f8dfedab30c83009" target="_top" xlink:title="locomotor.components.models.\lCriteriaModel.getUniverse">
<polygon fill="#ffffff" stroke="#000000" points="289.0854,-415.5 289.0854,-443.5 443.4937,-443.5 443.4937,-415.5 289.0854,-415.5"/>
<text text-anchor="start" x="297.0854" y="-431.5" font-family="Helvetica,sans-Serif" font-size="10.00" fill="#000000">locomotor.components.models.</text>
<text text-anchor="middle" x="366.2896" y="-421.5" font-family="Helvetica,sans-Serif" font-size="10.00" fill="#000000">CriteriaModel.getUniverse</text>
</a>
</g>
</g>
<!-- Node6&#45;&gt;Node32 -->
<g id="edge37" class="edge">
<title>Node6&#45;&gt;Node32</title>
<path fill="none" stroke="#191970" d="M253.3233,-430.0933C261.6682,-430.0494 270.2018,-430.0046 278.6553,-429.9602"/>
<polygon fill="#191970" stroke="#191970" points="278.9275,-433.4589 288.9089,-429.9064 278.8906,-426.459 278.9275,-433.4589"/>
</g>
<!-- Node33 -->
<g id="node33" class="node">
<title>Node33</title>
<g id="a_node33"><a xlink:href="classlocomotor_1_1components_1_1models_1_1_item_criteria_full.html#a990d1940951b04ada03eba936462a0b2" target="_top" xlink:title="locomotor.components.models.\lItemCriteriaFull.ItemCriteriaFull">
<polygon fill="#ffffff" stroke="#000000" points="289.0854,-368.5 289.0854,-396.5 443.4937,-396.5 443.4937,-368.5 289.0854,-368.5"/>
<text text-anchor="start" x="297.0854" y="-384.5" font-family="Helvetica,sans-Serif" font-size="10.00" fill="#000000">locomotor.components.models.</text>
<text text-anchor="middle" x="366.2896" y="-374.5" font-family="Helvetica,sans-Serif" font-size="10.00" fill="#000000">ItemCriteriaFull.ItemCriteriaFull</text>
</a>
</g>
</g>
<!-- Node6&#45;&gt;Node33 -->
<g id="edge40" class="edge">
<title>Node6&#45;&gt;Node33</title>
<path fill="none" stroke="#191970" d="M231.462,-416.4874C253.1683,-411.0156 278.2187,-404.7009 300.7925,-399.0105"/>
<polygon fill="#191970" stroke="#191970" points="301.7914,-402.3683 310.6325,-396.53 300.0803,-395.5806 301.7914,-402.3683"/>
</g>
<!-- Node8 -->
<g id="node8" class="node">
<title>Node8</title>
<g id="a_node8"><a xlink:href="classlocomotor_1_1components_1_1types_1_1_c_integer.html#acc13169c043f180e6472a29d19ff5124" target="_top" xlink:title="locomotor.components.types.\lCInteger.fromJSON">
<polygon fill="#ffffff" stroke="#000000" points="483.6758,-180.5 483.6758,-208.5 629.749,-208.5 629.749,-180.5 483.6758,-180.5"/>
<text text-anchor="start" x="491.6758" y="-196.5" font-family="Helvetica,sans-Serif" font-size="10.00" fill="#000000">locomotor.components.types.</text>
<text text-anchor="middle" x="556.7124" y="-186.5" font-family="Helvetica,sans-Serif" font-size="10.00" fill="#000000">CInteger.fromJSON</text>
</a>
</g>
</g>
<!-- Node7&#45;&gt;Node8 -->
<g id="edge7" class="edge">
<title>Node7&#45;&gt;Node8</title>
<path fill="none" stroke="#191970" d="M429.3098,-321.4794C434.4683,-318.7278 439.3025,-315.4365 443.501,-311.5 476.1364,-280.9008 446.6848,-247.9052 479.501,-217.5 480.6552,-216.4306 481.8571,-215.4107 483.1003,-214.4381"/>
<polygon fill="#191970" stroke="#191970" points="485.4117,-217.1065 491.8356,-208.6813 481.5598,-211.2617 485.4117,-217.1065"/>
</g>
<!-- Node11 -->
<g id="node11" class="node">
<title>Node11</title>
<g id="a_node11"><a xlink:href="classlocomotor_1_1components_1_1types_1_1_c_weighted_integer.html#af46cf72d2c75b781f89dcce0e0e5ef95" target="_top" xlink:title="locomotor.components.types.\lCWeightedInteger.fromJSON">
<polygon fill="#ffffff" stroke="#000000" points="483.6758,-227.5 483.6758,-255.5 629.749,-255.5 629.749,-227.5 483.6758,-227.5"/>
<text text-anchor="start" x="491.6758" y="-243.5" font-family="Helvetica,sans-Serif" font-size="10.00" fill="#000000">locomotor.components.types.</text>
<text text-anchor="middle" x="556.7124" y="-233.5" font-family="Helvetica,sans-Serif" font-size="10.00" fill="#000000">CWeightedInteger.fromJSON</text>
</a>
</g>
</g>
<!-- Node7&#45;&gt;Node11 -->
<g id="edge10" class="edge">
<title>Node7&#45;&gt;Node11</title>
<path fill="none" stroke="#191970" d="M418.0524,-321.3979C426.6909,-318.4828 435.4535,-315.1671 443.501,-311.5 474.1314,-297.5422 506.5578,-276.8051 528.8195,-261.5225"/>
<polygon fill="#191970" stroke="#191970" points="530.9057,-264.3349 537.1195,-255.7535 526.9105,-258.587 530.9057,-264.3349"/>
</g>
<!-- Node13 -->
<g id="node13" class="node">
<title>Node13</title>
<g id="a_node13"><a xlink:href="classlocomotor_1_1components_1_1types_1_1_c_float.html#a06da3e8fd1fdad2882c5878589963311" target="_top" xlink:title="locomotor.components.types.\lCFloat.fromJSON">
<polygon fill="#ffffff" stroke="#000000" points="483.6758,-86.5 483.6758,-114.5 629.749,-114.5 629.749,-86.5 483.6758,-86.5"/>
<text text-anchor="start" x="491.6758" y="-102.5" font-family="Helvetica,sans-Serif" font-size="10.00" fill="#000000">locomotor.components.types.</text>
<text text-anchor="middle" x="556.7124" y="-92.5" font-family="Helvetica,sans-Serif" font-size="10.00" fill="#000000">CFloat.fromJSON</text>
</a>
</g>
</g>
<!-- Node7&#45;&gt;Node13 -->
<g id="edge13" class="edge">
<title>Node7&#45;&gt;Node13</title>
<path fill="none" stroke="#191970" d="M430.9102,-321.3431C435.5429,-318.6157 439.8273,-315.3675 443.501,-311.5 488.0444,-264.6066 446.1283,-225.902 479.501,-170.5 491.4264,-150.7026 510.674,-133.2341 526.9677,-120.6992"/>
<polygon fill="#191970" stroke="#191970" points="529.2259,-123.3818 535.1647,-114.6078 525.0506,-117.7633 529.2259,-123.3818"/>
</g>
<!-- Node16 -->
<g id="node16" class="node">
<title>Node16</title>
<g id="a_node16"><a xlink:href="classlocomotor_1_1components_1_1types_1_1_c_boolean.html#a1bdea5ac8c77993c2f48a0a99a0ce032" target="_top" xlink:title="locomotor.components.types.\lCBoolean.fromJSON">
<polygon fill="#ffffff" stroke="#000000" points="483.6758,-20.5 483.6758,-48.5 629.749,-48.5 629.749,-20.5 483.6758,-20.5"/>
<text text-anchor="start" x="491.6758" y="-36.5" font-family="Helvetica,sans-Serif" font-size="10.00" fill="#000000">locomotor.components.types.</text>
<text text-anchor="middle" x="556.7124" y="-26.5" font-family="Helvetica,sans-Serif" font-size="10.00" fill="#000000">CBoolean.fromJSON</text>
</a>
</g>
</g>
<!-- Node7&#45;&gt;Node16 -->
<g id="edge17" class="edge">
<title>Node7&#45;&gt;Node16</title>
<path fill="none" stroke="#191970" d="M432.0455,-321.276C436.3078,-318.5574 440.2042,-315.33 443.501,-311.5 512.4332,-231.4189 418.7706,-162.9666 479.501,-76.5 486.2166,-66.9384 495.8224,-59.3392 505.9887,-53.3839"/>
<polygon fill="#191970" stroke="#191970" points="507.8373,-56.3645 515.0085,-48.5655 504.539,-50.1903 507.8373,-56.3645"/>
</g>
<!-- Node19 -->
<g id="node19" class="node">
<title>Node19</title>
<g id="a_node19"><a xlink:href="classlocomotor_1_1components_1_1types_1_1_c_interval_integer.html#a7325219bbe286c1651eac4d7cb1dcf89" target="_top" xlink:title="locomotor.components.types.\lCIntervalInteger.fromJSON">
<polygon fill="#ffffff" stroke="#000000" points="483.6758,-368.5 483.6758,-396.5 629.749,-396.5 629.749,-368.5 483.6758,-368.5"/>
<text text-anchor="start" x="491.6758" y="-384.5" font-family="Helvetica,sans-Serif" font-size="10.00" fill="#000000">locomotor.components.types.</text>
<text text-anchor="middle" x="556.7124" y="-374.5" font-family="Helvetica,sans-Serif" font-size="10.00" fill="#000000">CIntervalInteger.fromJSON</text>
</a>
</g>
</g>
<!-- Node7&#45;&gt;Node19 -->
<g id="edge20" class="edge">
<title>Node7&#45;&gt;Node19</title>
<path fill="none" stroke="#191970" d="M423.1648,-349.5379C444.1679,-354.7219 468.159,-360.6433 489.9584,-366.0238"/>
<polygon fill="#191970" stroke="#191970" points="489.2541,-369.455 499.8015,-368.4533 490.9315,-362.6589 489.2541,-369.455"/>
</g>
<!-- Node23 -->
<g id="node23" class="node">
<title>Node23</title>
<g id="a_node23"><a xlink:href="classlocomotor_1_1components_1_1types_1_1_c_interval_double.html#a05b10f1076a88b090171dc5c92d1e51a" target="_top" xlink:title="locomotor.components.types.\lCIntervalDouble.fromJSON">
<polygon fill="#ffffff" stroke="#000000" points="483.6758,-321.5 483.6758,-349.5 629.749,-349.5 629.749,-321.5 483.6758,-321.5"/>
<text text-anchor="start" x="491.6758" y="-337.5" font-family="Helvetica,sans-Serif" font-size="10.00" fill="#000000">locomotor.components.types.</text>
<text text-anchor="middle" x="556.7124" y="-327.5" font-family="Helvetica,sans-Serif" font-size="10.00" fill="#000000">CIntervalDouble.fromJSON</text>
</a>
</g>
</g>
<!-- Node7&#45;&gt;Node23 -->
<g id="edge24" class="edge">
<title>Node7&#45;&gt;Node23</title>
<path fill="none" stroke="#191970" d="M441.8232,-335.5C452.2102,-335.5 462.9239,-335.5 473.4403,-335.5"/>
<polygon fill="#191970" stroke="#191970" points="473.4453,-339.0001 483.4453,-335.5 473.4453,-332.0001 473.4453,-339.0001"/>
</g>
<!-- Node25 -->
<g id="node25" class="node">
<title>Node25</title>
<g id="a_node25"><a xlink:href="classlocomotor_1_1components_1_1types_1_1_c_mapped_string_list.html#a3834a44c64a57457335f1f296b272c79" target="_top" xlink:title="locomotor.components.types.\lCMappedStringList.fromJSON">
<polygon fill="#ffffff" stroke="#000000" points="481.4663,-535.5 481.4663,-563.5 631.9585,-563.5 631.9585,-535.5 481.4663,-535.5"/>
<text text-anchor="start" x="489.4663" y="-551.5" font-family="Helvetica,sans-Serif" font-size="10.00" fill="#000000">locomotor.components.types.</text>
<text text-anchor="middle" x="556.7124" y="-541.5" font-family="Helvetica,sans-Serif" font-size="10.00" fill="#000000">CMappedStringList.fromJSON</text>
</a>
</g>
</g>
<!-- Node7&#45;&gt;Node25 -->
<g id="edge28" class="edge">
<title>Node7&#45;&gt;Node25</title>
<path fill="none" stroke="#191970" d="M432.4322,-349.5702C436.4926,-352.0822 440.2454,-355.0336 443.501,-358.5 492.2133,-410.3673 434.4277,-459.4408 479.501,-514.5 484.6795,-520.8259 491.246,-526.0544 498.3541,-530.3639"/>
<polygon fill="#191970" stroke="#191970" points="497.1213,-533.6757 507.5839,-535.3446 500.4456,-527.5154 497.1213,-533.6757"/>
</g>
<!-- Node28 -->
<g id="node28" class="node">
<title>Node28</title>
<g id="a_node28"><a xlink:href="classlocomotor_1_1components_1_1types_1_1_c_tree.html#a82724a3000f4e1d5ff5fed5365e1480f" target="_top" xlink:title="locomotor.components.types.\lCTree.fromJSON">
<polygon fill="#ffffff" stroke="#000000" points="483.6758,-458.5 483.6758,-486.5 629.749,-486.5 629.749,-458.5 483.6758,-458.5"/>
<text text-anchor="start" x="491.6758" y="-474.5" font-family="Helvetica,sans-Serif" font-size="10.00" fill="#000000">locomotor.components.types.</text>
<text text-anchor="middle" x="556.7124" y="-464.5" font-family="Helvetica,sans-Serif" font-size="10.00" fill="#000000">CTree.fromJSON</text>
</a>
</g>
</g>
<!-- Node7&#45;&gt;Node28 -->
<g id="edge31" class="edge">
<title>Node7&#45;&gt;Node28</title>
<path fill="none" stroke="#191970" d="M427.0162,-349.5112C432.8267,-352.0372 438.4333,-355.0081 443.501,-358.5 465.1679,-373.4295 461.472,-386.3349 479.501,-405.5 495.1997,-422.188 514.6997,-439.0828 530.1752,-451.7324"/>
<polygon fill="#191970" stroke="#191970" points="528.3284,-454.7395 538.3089,-458.2948 532.7239,-449.2916 528.3284,-454.7395"/>
</g>
<!-- Node9 -->
<g id="node9" class="node">
<title>Node9</title>
<g id="a_node9"><a xlink:href="classlocomotor_1_1components_1_1types_1_1_c_long.html#aef23d6d36c93f0f66355edabbc586fd4" target="_top" xlink:title="locomotor.components.types.\lCLong.value">
<polygon fill="#ffffff" stroke="#000000" points="691.3203,-180.5 691.3203,-208.5 837.3936,-208.5 837.3936,-180.5 691.3203,-180.5"/>
<text text-anchor="start" x="699.3203" y="-196.5" font-family="Helvetica,sans-Serif" font-size="10.00" fill="#000000">locomotor.components.types.</text>
<text text-anchor="middle" x="764.3569" y="-186.5" font-family="Helvetica,sans-Serif" font-size="10.00" fill="#000000">CLong.value</text>
</a>
</g>
</g>
<!-- Node8&#45;&gt;Node9 -->
<g id="edge8" class="edge">
<title>Node8&#45;&gt;Node9</title>
<path fill="none" stroke="#191970" d="M629.9201,-194.5C646.358,-194.5 663.9203,-194.5 680.7459,-194.5"/>
<polygon fill="#191970" stroke="#191970" points="681.1105,-198.0001 691.1104,-194.5 681.1104,-191.0001 681.1105,-198.0001"/>
</g>
<!-- Node10 -->
<g id="node10" class="node">
<title>Node10</title>
<g id="a_node10"><a xlink:href="classlocomotor_1_1components_1_1types_1_1_c_integer.html#a4af1398e767f4254cc4865f7b8fd9e3e" target="_top" xlink:title="locomotor.components.types.\lCInteger.CInteger">
<polygon fill="#ffffff" stroke="#000000" points="691.3203,-133.5 691.3203,-161.5 837.3936,-161.5 837.3936,-133.5 691.3203,-133.5"/>
<text text-anchor="start" x="699.3203" y="-149.5" font-family="Helvetica,sans-Serif" font-size="10.00" fill="#000000">locomotor.components.types.</text>
<text text-anchor="middle" x="764.3569" y="-139.5" font-family="Helvetica,sans-Serif" font-size="10.00" fill="#000000">CInteger.CInteger</text>
</a>
</g>
</g>
<!-- Node8&#45;&gt;Node10 -->
<g id="edge9" class="edge">
<title>Node8&#45;&gt;Node10</title>
<path fill="none" stroke="#191970" d="M618.7313,-180.4621C641.9435,-175.2081 668.5025,-169.1965 692.5281,-163.7583"/>
<polygon fill="#191970" stroke="#191970" points="693.3184,-167.1681 702.299,-161.5467 691.773,-160.3408 693.3184,-167.1681"/>
</g>
<!-- Node11&#45;&gt;Node9 -->
<g id="edge11" class="edge">
<title>Node11&#45;&gt;Node9</title>
<path fill="none" stroke="#191970" d="M618.7313,-227.4621C641.9435,-222.2081 668.5025,-216.1965 692.5281,-210.7583"/>
<polygon fill="#191970" stroke="#191970" points="693.3184,-214.1681 702.299,-208.5467 691.773,-207.3408 693.3184,-214.1681"/>
</g>
<!-- Node12 -->
<g id="node12" class="node">
<title>Node12</title>
<g id="a_node12"><a xlink:href="classlocomotor_1_1components_1_1types_1_1_c_weighted_integer.html#ab843196350aff5010fe82cdfc6d1a432" target="_top" xlink:title="locomotor.components.types.\lCWeightedInteger.CWeightedInteger">
<polygon fill="#ffffff" stroke="#000000" points="674.8164,-227.5 674.8164,-255.5 853.8975,-255.5 853.8975,-227.5 674.8164,-227.5"/>
<text text-anchor="start" x="682.8164" y="-243.5" font-family="Helvetica,sans-Serif" font-size="10.00" fill="#000000">locomotor.components.types.</text>
<text text-anchor="middle" x="764.3569" y="-233.5" font-family="Helvetica,sans-Serif" font-size="10.00" fill="#000000">CWeightedInteger.CWeightedInteger</text>
</a>
</g>
</g>
<!-- Node11&#45;&gt;Node12 -->
<g id="edge12" class="edge">
<title>Node11&#45;&gt;Node12</title>
<path fill="none" stroke="#191970" d="M629.9201,-241.5C641.1183,-241.5 652.8383,-241.5 664.4918,-241.5"/>
<polygon fill="#191970" stroke="#191970" points="664.7008,-245.0001 674.7008,-241.5 664.7008,-238.0001 664.7008,-245.0001"/>
</g>
<!-- Node14 -->
<g id="node14" class="node">
<title>Node14</title>
<g id="a_node14"><a xlink:href="classlocomotor_1_1components_1_1types_1_1_c_float.html#a0d891fca54de58865525ca2d63c39b65" target="_top" xlink:title="locomotor.components.types.\lCFloat.value">
<polygon fill="#ffffff" stroke="#000000" points="894.79,-67.5 894.79,-95.5 1040.8633,-95.5 1040.8633,-67.5 894.79,-67.5"/>
<text text-anchor="start" x="902.79" y="-83.5" font-family="Helvetica,sans-Serif" font-size="10.00" fill="#000000">locomotor.components.types.</text>
<text text-anchor="middle" x="967.8267" y="-73.5" font-family="Helvetica,sans-Serif" font-size="10.00" fill="#000000">CFloat.value</text>
</a>
</g>
</g>
<!-- Node13&#45;&gt;Node14 -->
<g id="edge14" class="edge">
<title>Node13&#45;&gt;Node14</title>
<path fill="none" stroke="#191970" d="M611.6232,-86.4503C630.025,-82.3887 650.741,-78.511 669.9238,-76.5 742.1412,-68.9293 824.7345,-71.165 884.6089,-74.7287"/>
<polygon fill="#191970" stroke="#191970" points="884.5683,-78.2328 894.7659,-75.3589 885.0018,-71.2462 884.5683,-78.2328"/>
</g>
<!-- Node15 -->
<g id="node15" class="node">
<title>Node15</title>
<g id="a_node15"><a xlink:href="classlocomotor_1_1components_1_1types_1_1_c_float.html#aef395a3a5c07d801027ac513d66e27bc" target="_top" xlink:title="locomotor.components.types.\lCFloat.CFloat">
<polygon fill="#ffffff" stroke="#000000" points="691.3203,-86.5 691.3203,-114.5 837.3936,-114.5 837.3936,-86.5 691.3203,-86.5"/>
<text text-anchor="start" x="699.3203" y="-102.5" font-family="Helvetica,sans-Serif" font-size="10.00" fill="#000000">locomotor.components.types.</text>
<text text-anchor="middle" x="764.3569" y="-92.5" font-family="Helvetica,sans-Serif" font-size="10.00" fill="#000000">CFloat.CFloat</text>
</a>
</g>
</g>
<!-- Node13&#45;&gt;Node15 -->
<g id="edge15" class="edge">
<title>Node13&#45;&gt;Node15</title>
<path fill="none" stroke="#191970" d="M629.9201,-100.5C646.358,-100.5 663.9203,-100.5 680.7459,-100.5"/>
<polygon fill="#191970" stroke="#191970" points="681.1105,-104.0001 691.1104,-100.5 681.1104,-97.0001 681.1105,-104.0001"/>
</g>
<!-- Node15&#45;&gt;Node14 -->
<g id="edge16" class="edge">
<title>Node15&#45;&gt;Node14</title>
<path fill="none" stroke="#191970" d="M837.5267,-93.6674C852.7606,-92.2449 868.9243,-90.7355 884.4933,-89.2817"/>
<polygon fill="#191970" stroke="#191970" points="884.9914,-92.7505 894.6226,-88.3358 884.3405,-85.7808 884.9914,-92.7505"/>
</g>
<!-- Node17 -->
<g id="node17" class="node">
<title>Node17</title>
<g id="a_node17"><a xlink:href="classlocomotor_1_1components_1_1types_1_1_c_boolean.html#a04219e3dc4a138fa88ee6876fb62eebc" target="_top" xlink:title="locomotor.components.types.\lCBoolean.CBoolean">
<polygon fill="#ffffff" stroke="#000000" points="691.3203,-.5 691.3203,-28.5 837.3936,-28.5 837.3936,-.5 691.3203,-.5"/>
<text text-anchor="start" x="699.3203" y="-16.5" font-family="Helvetica,sans-Serif" font-size="10.00" fill="#000000">locomotor.components.types.</text>
<text text-anchor="middle" x="764.3569" y="-6.5" font-family="Helvetica,sans-Serif" font-size="10.00" fill="#000000">CBoolean.CBoolean</text>
</a>
</g>
</g>
<!-- Node16&#45;&gt;Node17 -->
<g id="edge18" class="edge">
<title>Node16&#45;&gt;Node17</title>
<path fill="none" stroke="#191970" d="M629.9201,-27.4487C646.358,-25.8655 663.9203,-24.1739 680.7459,-22.5533"/>
<polygon fill="#191970" stroke="#191970" points="681.4921,-25.9977 691.1104,-21.555 680.8209,-19.0299 681.4921,-25.9977"/>
</g>
<!-- Node18 -->
<g id="node18" class="node">
<title>Node18</title>
<g id="a_node18"><a xlink:href="classlocomotor_1_1components_1_1types_1_1_c_boolean.html#a9eac04fa64318139aa527377b2e03cc4" target="_top" xlink:title="locomotor.components.types.\lCBoolean.value">
<polygon fill="#ffffff" stroke="#000000" points="894.79,-.5 894.79,-28.5 1040.8633,-28.5 1040.8633,-.5 894.79,-.5"/>
<text text-anchor="start" x="902.79" y="-16.5" font-family="Helvetica,sans-Serif" font-size="10.00" fill="#000000">locomotor.components.types.</text>
<text text-anchor="middle" x="967.8267" y="-6.5" font-family="Helvetica,sans-Serif" font-size="10.00" fill="#000000">CBoolean.value</text>
</a>
</g>
</g>
<!-- Node17&#45;&gt;Node18 -->
<g id="edge19" class="edge">
<title>Node17&#45;&gt;Node18</title>
<path fill="none" stroke="#191970" d="M837.5267,-14.5C852.7606,-14.5 868.9243,-14.5 884.4933,-14.5"/>
<polygon fill="#191970" stroke="#191970" points="884.6227,-18.0001 894.6226,-14.5 884.6226,-11.0001 884.6227,-18.0001"/>
</g>
<!-- Node20 -->
<g id="node20" class="node">
<title>Node20</title>
<g id="a_node20"><a xlink:href="classlocomotor_1_1components_1_1types_1_1_c_interval.html#a8977ca8c87b00639da116d1441a878ec" target="_top" xlink:title="locomotor.components.types.\lCInterval.min">
<polygon fill="#ffffff" stroke="#000000" points="691.3203,-321.5 691.3203,-349.5 837.3936,-349.5 837.3936,-321.5 691.3203,-321.5"/>
<text text-anchor="start" x="699.3203" y="-337.5" font-family="Helvetica,sans-Serif" font-size="10.00" fill="#000000">locomotor.components.types.</text>
<text text-anchor="middle" x="764.3569" y="-327.5" font-family="Helvetica,sans-Serif" font-size="10.00" fill="#000000">CInterval.min</text>
</a>
</g>
</g>
<!-- Node19&#45;&gt;Node20 -->
<g id="edge21" class="edge">
<title>Node19&#45;&gt;Node20</title>
<path fill="none" stroke="#191970" d="M618.7313,-368.4621C641.9435,-363.2081 668.5025,-357.1965 692.5281,-351.7583"/>
<polygon fill="#191970" stroke="#191970" points="693.3184,-355.1681 702.299,-349.5467 691.773,-348.3408 693.3184,-355.1681"/>
</g>
<!-- Node21 -->
<g id="node21" class="node">
<title>Node21</title>
<g id="a_node21"><a xlink:href="classlocomotor_1_1components_1_1types_1_1_c_interval.html#a63edd36c00e0027edd899384e6f168f9" target="_top" xlink:title="locomotor.components.types.\lCInterval.max">
<polygon fill="#ffffff" stroke="#000000" points="691.3203,-368.5 691.3203,-396.5 837.3936,-396.5 837.3936,-368.5 691.3203,-368.5"/>
<text text-anchor="start" x="699.3203" y="-384.5" font-family="Helvetica,sans-Serif" font-size="10.00" fill="#000000">locomotor.components.types.</text>
<text text-anchor="middle" x="764.3569" y="-374.5" font-family="Helvetica,sans-Serif" font-size="10.00" fill="#000000">CInterval.max</text>
</a>
</g>
</g>
<!-- Node19&#45;&gt;Node21 -->
<g id="edge22" class="edge">
<title>Node19&#45;&gt;Node21</title>
<path fill="none" stroke="#191970" d="M629.9201,-382.5C646.358,-382.5 663.9203,-382.5 680.7459,-382.5"/>
<polygon fill="#191970" stroke="#191970" points="681.1105,-386.0001 691.1104,-382.5 681.1104,-379.0001 681.1105,-386.0001"/>
</g>
<!-- Node22 -->
<g id="node22" class="node">
<title>Node22</title>
<g id="a_node22"><a xlink:href="classlocomotor_1_1components_1_1types_1_1_c_interval_integer.html#a4ece5be3d0255219efc9a1ec16f3775c" target="_top" xlink:title="locomotor.components.types.\lCIntervalInteger.CIntervalInteger">
<polygon fill="#ffffff" stroke="#000000" points="684.0938,-415.5 684.0938,-443.5 844.6201,-443.5 844.6201,-415.5 684.0938,-415.5"/>
<text text-anchor="start" x="692.0938" y="-431.5" font-family="Helvetica,sans-Serif" font-size="10.00" fill="#000000">locomotor.components.types.</text>
<text text-anchor="middle" x="764.3569" y="-421.5" font-family="Helvetica,sans-Serif" font-size="10.00" fill="#000000">CIntervalInteger.CIntervalInteger</text>
</a>
</g>
</g>
<!-- Node19&#45;&gt;Node22 -->
<g id="edge23" class="edge">
<title>Node19&#45;&gt;Node22</title>
<path fill="none" stroke="#191970" d="M618.7313,-396.5379C641.9435,-401.7919 668.5025,-407.8035 692.5281,-413.2417"/>
<polygon fill="#191970" stroke="#191970" points="691.773,-416.6592 702.299,-415.4533 693.3184,-409.8319 691.773,-416.6592"/>
</g>
<!-- Node23&#45;&gt;Node20 -->
<g id="edge25" class="edge">
<title>Node23&#45;&gt;Node20</title>
<path fill="none" stroke="#191970" d="M629.9201,-335.5C646.358,-335.5 663.9203,-335.5 680.7459,-335.5"/>
<polygon fill="#191970" stroke="#191970" points="681.1105,-339.0001 691.1104,-335.5 681.1104,-332.0001 681.1105,-339.0001"/>
</g>
<!-- Node23&#45;&gt;Node21 -->
<g id="edge26" class="edge">
<title>Node23&#45;&gt;Node21</title>
<path fill="none" stroke="#191970" d="M618.7313,-349.5379C641.9435,-354.7919 668.5025,-360.8035 692.5281,-366.2417"/>
<polygon fill="#191970" stroke="#191970" points="691.773,-369.6592 702.299,-368.4533 693.3184,-362.8319 691.773,-369.6592"/>
</g>
<!-- Node24 -->
<g id="node24" class="node">
<title>Node24</title>
<g id="a_node24"><a xlink:href="classlocomotor_1_1components_1_1types_1_1_c_interval_double.html#a1c646d0efc9520469e000c2282ca3386" target="_top" xlink:title="locomotor.components.types.\lCIntervalDouble.CIntervalDouble">
<polygon fill="#ffffff" stroke="#000000" points="683.2637,-274.5 683.2637,-302.5 845.4502,-302.5 845.4502,-274.5 683.2637,-274.5"/>
<text text-anchor="start" x="691.2637" y="-290.5" font-family="Helvetica,sans-Serif" font-size="10.00" fill="#000000">locomotor.components.types.</text>
<text text-anchor="middle" x="764.3569" y="-280.5" font-family="Helvetica,sans-Serif" font-size="10.00" fill="#000000">CIntervalDouble.CIntervalDouble</text>
</a>
</g>
</g>
<!-- Node23&#45;&gt;Node24 -->
<g id="edge27" class="edge">
<title>Node23&#45;&gt;Node24</title>
<path fill="none" stroke="#191970" d="M618.7313,-321.4621C641.9435,-316.2081 668.5025,-310.1965 692.5281,-304.7583"/>
<polygon fill="#191970" stroke="#191970" points="693.3184,-308.1681 702.299,-302.5467 691.773,-301.3408 693.3184,-308.1681"/>
</g>
<!-- Node26 -->
<g id="node26" class="node">
<title>Node26</title>
<g id="a_node26"><a xlink:href="classlocomotor_1_1components_1_1types_1_1_c_string_list.html#aa9063c07592d04038c8a37cae1214de5" target="_top" xlink:title="locomotor.components.types.\lCStringList.treeFromJSON">
<polygon fill="#ffffff" stroke="#000000" points="691.3203,-548.5 691.3203,-576.5 837.3936,-576.5 837.3936,-548.5 691.3203,-548.5"/>
<text text-anchor="start" x="699.3203" y="-564.5" font-family="Helvetica,sans-Serif" font-size="10.00" fill="#000000">locomotor.components.types.</text>
<text text-anchor="middle" x="764.3569" y="-554.5" font-family="Helvetica,sans-Serif" font-size="10.00" fill="#000000">CStringList.treeFromJSON</text>
</a>
</g>
</g>
<!-- Node25&#45;&gt;Node26 -->
<g id="edge29" class="edge">
<title>Node25&#45;&gt;Node26</title>
<path fill="none" stroke="#191970" d="M631.9704,-554.2117C647.9255,-555.2106 664.8565,-556.2706 681.0891,-557.2869"/>
<polygon fill="#191970" stroke="#191970" points="680.8919,-560.7813 691.091,-557.913 681.3293,-553.7949 680.8919,-560.7813"/>
</g>
<!-- Node27 -->
<g id="node27" class="node">
<title>Node27</title>
<g id="a_node27"><a xlink:href="classlocomotor_1_1components_1_1types_1_1_c_mapped_string_list.html#a6ee84a38e1c5b58c08a7e9557cc959e1" target="_top" xlink:title="locomotor.components.types.\lCMappedStringList.CMappedStringList">
<polygon fill="#ffffff" stroke="#000000" points="669.9238,-595.5 669.9238,-623.5 858.79,-623.5 858.79,-595.5 669.9238,-595.5"/>
<text text-anchor="start" x="677.9238" y="-611.5" font-family="Helvetica,sans-Serif" font-size="10.00" fill="#000000">locomotor.components.types.</text>
<text text-anchor="middle" x="764.3569" y="-601.5" font-family="Helvetica,sans-Serif" font-size="10.00" fill="#000000">CMappedStringList.CMappedStringList</text>
</a>
</g>
</g>
<!-- Node25&#45;&gt;Node27 -->
<g id="edge30" class="edge">
<title>Node25&#45;&gt;Node27</title>
<path fill="none" stroke="#191970" d="M602.9581,-563.5014C613.1838,-566.7012 623.9434,-570.1487 633.9238,-573.5 650.0502,-578.915 653.6362,-581.5912 669.9238,-586.5 677.3077,-588.7253 685.0649,-590.8892 692.8268,-592.9425"/>
<polygon fill="#191970" stroke="#191970" points="692.0753,-596.3633 702.6333,-595.4807 693.8293,-589.5866 692.0753,-596.3633"/>
</g>
<!-- Node28&#45;&gt;Node28 -->
<g id="edge33" class="edge">
<title>Node28&#45;&gt;Node28</title>
<path fill="none" stroke="#191970" d="M524.2272,-486.5305C515.0832,-495.8898 525.9116,-505 556.7124,-505 575.9629,-505 587.4117,-501.4413 591.0587,-496.4873"/>
<polygon fill="#191970" stroke="#191970" points="594.4755,-495.7171 589.1976,-486.5305 587.5946,-497.0033 594.4755,-495.7171"/>
</g>
<!-- Node29 -->
<g id="node29" class="node">
<title>Node29</title>
<g id="a_node29"><a xlink:href="classlocomotor_1_1components_1_1types_1_1_c_tree.html#af0e7a198496b1627d0ff15ce0e6de1f2" target="_top" xlink:title="locomotor.components.types.\lCTree.CTree">
<polygon fill="#ffffff" stroke="#000000" points="894.79,-479.5 894.79,-507.5 1040.8633,-507.5 1040.8633,-479.5 894.79,-479.5"/>
<text text-anchor="start" x="902.79" y="-495.5" font-family="Helvetica,sans-Serif" font-size="10.00" fill="#000000">locomotor.components.types.</text>
<text text-anchor="middle" x="967.8267" y="-485.5" font-family="Helvetica,sans-Serif" font-size="10.00" fill="#000000">CTree.CTree</text>
</a>
</g>
</g>
<!-- Node28&#45;&gt;Node29 -->
<g id="edge32" class="edge">
<title>Node28&#45;&gt;Node29</title>
<path fill="none" stroke="#191970" d="M630.2114,-476.2544C701.5703,-479.8994 809.7501,-485.4253 884.3257,-489.2347"/>
<polygon fill="#191970" stroke="#191970" points="884.4528,-492.7457 894.6183,-489.7605 884.8099,-485.7548 884.4528,-492.7457"/>
</g>
<!-- Node30 -->
<g id="node30" class="node">
<title>Node30</title>
<g id="a_node30"><a xlink:href="classlocomotor_1_1components_1_1types_1_1_c_tree.html#a74382cb3a3153edc32f1cfed8c4ee364" target="_top" xlink:title="locomotor.components.types.\lCTree.addChild">
<polygon fill="#ffffff" stroke="#000000" points="691.3203,-501.5 691.3203,-529.5 837.3936,-529.5 837.3936,-501.5 691.3203,-501.5"/>
<text text-anchor="start" x="699.3203" y="-517.5" font-family="Helvetica,sans-Serif" font-size="10.00" fill="#000000">locomotor.components.types.</text>
<text text-anchor="middle" x="764.3569" y="-507.5" font-family="Helvetica,sans-Serif" font-size="10.00" fill="#000000">CTree.addChild</text>
</a>
</g>
</g>
<!-- Node28&#45;&gt;Node30 -->
<g id="edge34" class="edge">
<title>Node28&#45;&gt;Node30</title>
<path fill="none" stroke="#191970" d="M624.4157,-486.5203C644.3501,-490.6484 666.314,-495.1968 686.8146,-499.4422"/>
<polygon fill="#191970" stroke="#191970" points="686.2436,-502.8981 696.7456,-501.4987 687.6632,-496.0436 686.2436,-502.8981"/>
</g>
<!-- Node30&#45;&gt;Node29 -->
<g id="edge35" class="edge">
<title>Node30&#45;&gt;Node29</title>
<path fill="none" stroke="#191970" d="M837.5267,-507.5886C852.7606,-505.9414 868.9243,-504.1937 884.4933,-502.5104"/>
<polygon fill="#191970" stroke="#191970" points="885.0569,-505.9699 894.6226,-501.4151 884.3043,-499.0105 885.0569,-505.9699"/>
</g>
</g>
</svg>
