<?xml version="1.0" encoding="UTF-8" standalone="no"?>
<!DOCTYPE svg PUBLIC "-//W3C//DTD SVG 1.1//EN"
 "http://www.w3.org/Graphics/SVG/1.1/DTD/svg11.dtd">
<!-- Generated by graphviz version 2.40.1 (20161225.0304)
 -->
<!-- Title: compare Pages: 1 -->
<svg width="1011pt" height="152pt"
 viewBox="0.00 0.00 1011.06 152.00" xmlns="http://www.w3.org/2000/svg" xmlns:xlink="http://www.w3.org/1999/xlink">
<g id="graph0" class="graph" transform="scale(1 1) rotate(0) translate(4 148)">
<title>compare</title>
<polygon fill="#ffffff" stroke="transparent" points="-4,4 -4,-148 1007.0605,-148 1007.0605,4 -4,4"/>
<!-- Node1 -->
<g id="node1" class="node">
<title>Node1</title>
<polygon fill="#bfbfbf" stroke="#000000" points="0,-52.5 0,-70.5 54.9063,-70.5 54.9063,-52.5 0,-52.5"/>
<text text-anchor="middle" x="27.4531" y="-58.5" font-family="Helvetica,sans-Serif" font-size="10.00" fill="#000000">compare</text>
</g>
<!-- Node2 -->
<g id="node2" class="node">
<title>Node2</title>
<g id="a_node2"><a xlink:href="classlocomotor_1_1components_1_1_compare.html#af1d05ce01ba9906df55e7a4976e44cc9" target="_top" xlink:title="locomotor.components.Compare.interval\lValue">
<polygon fill="#ffffff" stroke="#000000" points="90.9063,-94.5 90.9063,-122.5 286.4424,-122.5 286.4424,-94.5 90.9063,-94.5"/>
<text text-anchor="start" x="98.9063" y="-110.5" font-family="Helvetica,sans-Serif" font-size="10.00" fill="#000000">locomotor.components.Compare.interval</text>
<text text-anchor="middle" x="188.6743" y="-100.5" font-family="Helvetica,sans-Serif" font-size="10.00" fill="#000000">Value</text>
</a>
</g>
</g>
<!-- Node1&#45;&gt;Node2 -->
<g id="edge1" class="edge">
<title>Node1&#45;&gt;Node2</title>
<path fill="none" stroke="#191970" d="M50.4595,-70.5121C62.4196,-75.0251 77.3373,-80.3883 90.9063,-84.5 99.4433,-87.0869 108.4624,-89.5963 117.4321,-91.9563"/>
<polygon fill="#191970" stroke="#191970" points="116.5633,-95.3467 127.1205,-94.455 118.3115,-88.5685 116.5633,-95.3467"/>
</g>
<!-- Node8 -->
<g id="node8" class="node">
<title>Node8</title>
<g id="a_node8"><a xlink:href="classlocomotor_1_1components_1_1types_1_1_c_interval.html#a8977ca8c87b00639da116d1441a878ec" target="_top" xlink:title="locomotor.components.types.\lCInterval.min">
<polygon fill="#ffffff" stroke="#000000" points="115.6377,-47.5 115.6377,-75.5 261.7109,-75.5 261.7109,-47.5 115.6377,-47.5"/>
<text text-anchor="start" x="123.6377" y="-63.5" font-family="Helvetica,sans-Serif" font-size="10.00" fill="#000000">locomotor.components.types.</text>
<text text-anchor="middle" x="188.6743" y="-53.5" font-family="Helvetica,sans-Serif" font-size="10.00" fill="#000000">CInterval.min</text>
</a>
</g>
</g>
<!-- Node1&#45;&gt;Node8 -->
<g id="edge8" class="edge">
<title>Node1&#45;&gt;Node8</title>
<path fill="none" stroke="#191970" d="M55.168,-61.5C69.2972,-61.5 87.308,-61.5 105.4935,-61.5"/>
<polygon fill="#191970" stroke="#191970" points="105.5909,-65.0001 115.5909,-61.5 105.5909,-58.0001 105.5909,-65.0001"/>
</g>
<!-- Node9 -->
<g id="node9" class="node">
<title>Node9</title>
<g id="a_node9"><a xlink:href="classlocomotor_1_1components_1_1types_1_1_c_interval.html#a63edd36c00e0027edd899384e6f168f9" target="_top" xlink:title="locomotor.components.types.\lCInterval.max">
<polygon fill="#ffffff" stroke="#000000" points="115.6377,-.5 115.6377,-28.5 261.7109,-28.5 261.7109,-.5 115.6377,-.5"/>
<text text-anchor="start" x="123.6377" y="-16.5" font-family="Helvetica,sans-Serif" font-size="10.00" fill="#000000">locomotor.components.types.</text>
<text text-anchor="middle" x="188.6743" y="-6.5" font-family="Helvetica,sans-Serif" font-size="10.00" fill="#000000">CInterval.max</text>
</a>
</g>
</g>
<!-- Node1&#45;&gt;Node9 -->
<g id="edge9" class="edge">
<title>Node1&#45;&gt;Node9</title>
<path fill="none" stroke="#191970" d="M49.2336,-52.4554C61.3672,-47.6218 76.8256,-41.799 90.9063,-37.5 98.2936,-35.2445 106.0518,-33.081 113.8311,-31.045"/>
<polygon fill="#191970" stroke="#191970" points="114.8444,-34.3987 123.67,-28.5371 113.1153,-27.6156 114.8444,-34.3987"/>
</g>
<!-- Node3 -->
<g id="node3" class="node">
<title>Node3</title>
<g id="a_node3"><a xlink:href="classlocomotor_1_1core_1_1_gaussian.html#a2a6f2336ca6a2ad6a5406575827bbb56" target="_top" xlink:title="locomotor.core.Gaussian.get\lInstance">
<polygon fill="#ffffff" stroke="#000000" points="322.4424,-115.5 322.4424,-143.5 465.7373,-143.5 465.7373,-115.5 322.4424,-115.5"/>
<text text-anchor="start" x="330.4424" y="-131.5" font-family="Helvetica,sans-Serif" font-size="10.00" fill="#000000">locomotor.core.Gaussian.get</text>
<text text-anchor="middle" x="394.0898" y="-121.5" font-family="Helvetica,sans-Serif" font-size="10.00" fill="#000000">Instance</text>
</a>
</g>
</g>
<!-- Node2&#45;&gt;Node3 -->
<g id="edge2" class="edge">
<title>Node2&#45;&gt;Node3</title>
<path fill="none" stroke="#191970" d="M286.5692,-118.508C295.1645,-119.3867 303.8048,-120.27 312.2487,-121.1332"/>
<polygon fill="#191970" stroke="#191970" points="312.1306,-124.6393 322.4347,-122.1746 312.8426,-117.6756 312.1306,-124.6393"/>
</g>
<!-- Node7 -->
<g id="node7" class="node">
<title>Node7</title>
<g id="a_node7"><a xlink:href="classlocomotor_1_1core_1_1_gaussian.html#ab70945dfe6d593e49a767670c903e653" target="_top" xlink:title="locomotor.core.Gaussian.cdf">
<polygon fill="#ffffff" stroke="#000000" points="501.7373,-77.5 501.7373,-95.5 644.4707,-95.5 644.4707,-77.5 501.7373,-77.5"/>
<text text-anchor="middle" x="573.104" y="-83.5" font-family="Helvetica,sans-Serif" font-size="10.00" fill="#000000">locomotor.core.Gaussian.cdf</text>
</a>
</g>
</g>
<!-- Node2&#45;&gt;Node7 -->
<g id="edge6" class="edge">
<title>Node2&#45;&gt;Node7</title>
<path fill="none" stroke="#191970" d="M286.6768,-102.8915C350.0791,-99.2632 431.6503,-94.5951 491.5158,-91.1691"/>
<polygon fill="#191970" stroke="#191970" points="491.8963,-94.6531 501.68,-90.5874 491.4963,-87.6646 491.8963,-94.6531"/>
</g>
<!-- Node4 -->
<g id="node4" class="node">
<title>Node4</title>
<g id="a_node4"><a xlink:href="classlocomotor_1_1core_1_1_gaussian.html#aa4cd1241f20f836cbf5facbf2d8379e4" target="_top" xlink:title="locomotor.core.Gaussian.\lGaussian">
<polygon fill="#ffffff" stroke="#000000" points="508.4072,-114.5 508.4072,-142.5 637.8008,-142.5 637.8008,-114.5 508.4072,-114.5"/>
<text text-anchor="start" x="516.4072" y="-130.5" font-family="Helvetica,sans-Serif" font-size="10.00" fill="#000000">locomotor.core.Gaussian.</text>
<text text-anchor="middle" x="573.104" y="-120.5" font-family="Helvetica,sans-Serif" font-size="10.00" fill="#000000">Gaussian</text>
</a>
</g>
</g>
<!-- Node3&#45;&gt;Node4 -->
<g id="edge3" class="edge">
<title>Node3&#45;&gt;Node4</title>
<path fill="none" stroke="#191970" d="M465.8703,-129.099C476.4851,-129.0397 487.4463,-128.9785 498.1242,-128.9188"/>
<polygon fill="#191970" stroke="#191970" points="498.2741,-132.4182 508.2543,-128.8623 498.2349,-125.4183 498.2741,-132.4182"/>
</g>
<!-- Node5 -->
<g id="node5" class="node">
<title>Node5</title>
<g id="a_node5"><a xlink:href="classlocomotor_1_1core_1_1_gaussian.html#aaa66f1ce25c09e6e7cbd82c46ba0b4ae" target="_top" xlink:title="locomotor.core.Gaussian.pdf">
<polygon fill="#ffffff" stroke="#000000" points="680.4707,-118.5 680.4707,-136.5 823.7656,-136.5 823.7656,-118.5 680.4707,-118.5"/>
<text text-anchor="middle" x="752.1182" y="-124.5" font-family="Helvetica,sans-Serif" font-size="10.00" fill="#000000">locomotor.core.Gaussian.pdf</text>
</a>
</g>
</g>
<!-- Node4&#45;&gt;Node5 -->
<g id="edge4" class="edge">
<title>Node4&#45;&gt;Node5</title>
<path fill="none" stroke="#191970" d="M637.9853,-128.1376C648.3736,-128.0795 659.2418,-128.0188 669.9681,-127.9589"/>
<polygon fill="#191970" stroke="#191970" points="670.208,-131.4577 680.1883,-127.9018 670.1688,-124.4578 670.208,-131.4577"/>
</g>
<!-- Node6 -->
<g id="node6" class="node">
<title>Node6</title>
<g id="a_node6"><a xlink:href="classlocomotor_1_1core_1_1_gaussian.html#afd611f311f6fe230f8fad8bd0c7e0a51" target="_top" xlink:title="locomotor.core.Gaussian.get\lNearestStep">
<polygon fill="#ffffff" stroke="#000000" points="859.7656,-93.5 859.7656,-121.5 1003.0605,-121.5 1003.0605,-93.5 859.7656,-93.5"/>
<text text-anchor="start" x="867.7656" y="-109.5" font-family="Helvetica,sans-Serif" font-size="10.00" fill="#000000">locomotor.core.Gaussian.get</text>
<text text-anchor="middle" x="931.4131" y="-99.5" font-family="Helvetica,sans-Serif" font-size="10.00" fill="#000000">NearestStep</text>
</a>
</g>
</g>
<!-- Node5&#45;&gt;Node6 -->
<g id="edge5" class="edge">
<title>Node5&#45;&gt;Node6</title>
<path fill="none" stroke="#191970" d="M824.0112,-119.4805C832.414,-118.5432 841.0337,-117.5816 849.5586,-116.6307"/>
<polygon fill="#191970" stroke="#191970" points="849.9536,-120.1084 859.5039,-115.5213 849.1775,-113.1516 849.9536,-120.1084"/>
</g>
<!-- Node7&#45;&gt;Node6 -->
<g id="edge7" class="edge">
<title>Node7&#45;&gt;Node6</title>
<path fill="none" stroke="#191970" d="M644.752,-90.6992C703.8529,-94.163 787.7232,-99.0785 849.4822,-102.6981"/>
<polygon fill="#191970" stroke="#191970" points="849.3952,-106.199 859.5829,-103.2901 849.8048,-99.211 849.3952,-106.199"/>
</g>
</g>
</svg>
