<?xml version="1.0" encoding="UTF-8" standalone="no"?>
<!DOCTYPE svg PUBLIC "-//W3C//DTD SVG 1.1//EN"
 "http://www.w3.org/Graphics/SVG/1.1/DTD/svg11.dtd">
<!-- Generated by graphviz version 2.40.1 (20161225.0304)
 -->
<!-- Title: isSuccess Pages: 1 -->
<svg width="509pt" height="37pt"
 viewBox="0.00 0.00 508.76 37.00" xmlns="http://www.w3.org/2000/svg" xmlns:xlink="http://www.w3.org/1999/xlink">
<g id="graph0" class="graph" transform="scale(1 1) rotate(0) translate(4 33)">
<title>isSuccess</title>
<polygon fill="#ffffff" stroke="transparent" points="-4,4 -4,-33 504.7617,-33 504.7617,4 -4,4"/>
<!-- Node1 -->
<g id="node1" class="node">
<title>Node1</title>
<polygon fill="#bfbfbf" stroke="#000000" points="0,-5.5 0,-23.5 61.0146,-23.5 61.0146,-5.5 0,-5.5"/>
<text text-anchor="middle" x="30.5073" y="-11.5" font-family="Helvetica,sans-Serif" font-size="10.00" fill="#000000">isSuccess</text>
</g>
<!-- Node2 -->
<g id="node2" class="node">
<title>Node2</title>
<g id="a_node2"><a xlink:href="classlocomotor_1_1front_1_1components_1_1_front_resource_manager.html#a90ec9cbe2d393ac172e03972abf97f1d" target="_top" xlink:title="locomotor.front.components.\lFrontResourceManager.getRemoteResource">
<polygon fill="#ffffff" stroke="#000000" points="97.0146,-.5 97.0146,-28.5 312.5654,-28.5 312.5654,-.5 97.0146,-.5"/>
<text text-anchor="start" x="105.0146" y="-16.5" font-family="Helvetica,sans-Serif" font-size="10.00" fill="#000000">locomotor.front.components.</text>
<text text-anchor="middle" x="204.79" y="-6.5" font-family="Helvetica,sans-Serif" font-size="10.00" fill="#000000">FrontResourceManager.getRemoteResource</text>
</a>
</g>
</g>
<!-- Node1&#45;&gt;Node2 -->
<g id="edge1" class="edge">
<title>Node1&#45;&gt;Node2</title>
<path fill="none" stroke="#191970" d="M71.4841,-14.5C79.3243,-14.5 87.8654,-14.5 96.7126,-14.5"/>
<polygon fill="#191970" stroke="#191970" points="71.2644,-11.0001 61.2644,-14.5 71.2644,-18.0001 71.2644,-11.0001"/>
</g>
<!-- Node3 -->
<g id="node3" class="node">
<title>Node3</title>
<g id="a_node3"><a xlink:href="classlocomotor_1_1front_1_1user_1_1_bridge.html#afa7ac789194b4e4f08000205a0f96f11" target="_top" xlink:title="locomotor.front.user.Bridge.get\lModel">
<polygon fill="#ffffff" stroke="#000000" points="348.5654,-.5 348.5654,-28.5 500.7617,-28.5 500.7617,-.5 348.5654,-.5"/>
<text text-anchor="start" x="356.5654" y="-16.5" font-family="Helvetica,sans-Serif" font-size="10.00" fill="#000000">locomotor.front.user.Bridge.get</text>
<text text-anchor="middle" x="424.6636" y="-6.5" font-family="Helvetica,sans-Serif" font-size="10.00" fill="#000000">Model</text>
</a>
</g>
</g>
<!-- Node2&#45;&gt;Node3 -->
<g id="edge2" class="edge">
<title>Node2&#45;&gt;Node3</title>
<path fill="none" stroke="#191970" d="M322.9602,-14.5C331.6043,-14.5 340.1801,-14.5 348.4723,-14.5"/>
<polygon fill="#191970" stroke="#191970" points="322.7944,-11.0001 312.7944,-14.5 322.7944,-18.0001 322.7944,-11.0001"/>
</g>
</g>
</svg>
