<?xml version="1.0" encoding="UTF-8" standalone="no"?>
<!DOCTYPE svg PUBLIC "-//W3C//DTD SVG 1.1//EN"
 "http://www.w3.org/Graphics/SVG/1.1/DTD/svg11.dtd">
<!-- Generated by graphviz version 2.40.1 (20161225.0304)
 -->
<!-- Title: getInstance Pages: 1 -->
<!--zoomable 1127 -->
<svg id="main" version="1.1" xmlns="http://www.w3.org/2000/svg" xmlns:xlink="http://www.w3.org/1999/xlink" xml:space="preserve" onload="init(evt)">
<style type="text/css"><![CDATA[
.edge:hover path { stroke: red; }
.edge:hover polygon { stroke: red; fill: red; }
]]></style>
<script type="text/javascript"><![CDATA[
var edges = document.getElementsByTagName('g');
if (edges && edges.length) {
  for (var i=0;i<edges.length;i++) {
    if (edges[i].id.substr(0,4)=='edge') {
      edges[i].setAttribute('class','edge');
    }
  }
}
]]></script>
        <defs>
                <circle id="rim" cx="0" cy="0" r="7"/>
                <circle id="rim2" cx="0" cy="0" r="3.5"/>
                <g id="zoomPlus">
                        <use xlink:href="#rim" fill="#404040">
                                <set attributeName="fill" to="#808080" begin="zoomplus.mouseover" end="zoomplus.mouseout"/>
                        </use>
                        <path d="M-4,0h8M0,-4v8" fill="none" stroke="white" stroke-width="1.5" pointer-events="none"/>
                </g>
                <g id="zoomMin">
                        <use xlink:href="#rim" fill="#404040">
                                <set attributeName="fill" to="#808080" begin="zoomminus.mouseover" end="zoomminus.mouseout"/>
                        </use>
                        <path d="M-4,0h8" fill="none" stroke="white" stroke-width="1.5" pointer-events="none"/>
                </g>
                <g id="dirArrow">
                        <path fill="none" stroke="white" stroke-width="1.5" d="M0,-3.0v7 M-2.5,-0.5L0,-3.0L2.5,-0.5"/>
                </g>
               <g id="resetDef">
                       <use xlink:href="#rim2" fill="#404040">
                               <set attributeName="fill" to="#808080" begin="reset.mouseover" end="reset.mouseout"/>
                       </use>
               </g>
        </defs>

<script type="text/javascript">
var viewWidth = 1030;
var viewHeight = 1127;
var sectionId = 'dynsection-4';
</script>
<script xlink:href="svgpan.js"/>
<svg id="graph" class="graph">
<g id="viewport">
<title>getInstance</title>
<polygon fill="#ffffff" stroke="transparent" points="-4,4 -4,-1123.1014 1026.4941,-1123.1014 1026.4941,4 -4,4"/>
<!-- Node1 -->
<g id="node1" class="node">
<title>Node1</title>
<polygon fill="#bfbfbf" stroke="#000000" points="0,-541.8757 0,-559.8757 67.7041,-559.8757 67.7041,-541.8757 0,-541.8757"/>
<text text-anchor="middle" x="33.8521" y="-547.8757" font-family="Helvetica,sans-Serif" font-size="10.00" fill="#000000">getInstance</text>
</g>
<!-- Node2 -->
<g id="node2" class="node">
<title>Node2</title>
<g id="a_node2"><a xlink:href="classlocomotor_1_1components_1_1models_1_1_item_category_full.html#a50ab7c0f8e4a65f80ca141f1fa1c7df8" target="_top" xlink:title="locomotor.components.models.\lItemCategoryFull.fromJSON">
<polygon fill="#ffffff" stroke="#000000" points="304.3931,-930.8757 304.3931,-958.8757 458.8013,-958.8757 458.8013,-930.8757 304.3931,-930.8757"/>
<text text-anchor="start" x="312.3931" y="-946.8757" font-family="Helvetica,sans-Serif" font-size="10.00" fill="#000000">locomotor.components.models.</text>
<text text-anchor="middle" x="381.5972" y="-936.8757" font-family="Helvetica,sans-Serif" font-size="10.00" fill="#000000">ItemCategoryFull.fromJSON</text>
</a>
</g>
</g>
<!-- Node1&#45;&gt;Node2 -->
<g id="edge1" class="edge">
<title>Node1&#45;&gt;Node2</title>
<path fill="none" stroke="#191970" d="M35.6117,-570.0618C43.003,-648.5825 72.5968,-942.5354 103.7041,-968.8757 175.5834,-1029.74 298.6519,-984.2652 353.6341,-958.9034"/>
<polygon fill="#191970" stroke="#191970" points="39.0961,-569.7302 34.6848,-560.0974 32.1262,-570.3787 39.0961,-569.7302"/>
</g>
<!-- Node3 -->
<g id="node3" class="node">
<title>Node3</title>
<g id="a_node3"><a xlink:href="classlocomotor_1_1components_1_1models_1_1_item_full.html#afe56c5f49cb59d04ec69bbf32b58a2f8" target="_top" xlink:title="locomotor.components.models.\lItemFull.fromJSON">
<polygon fill="#ffffff" stroke="#000000" points="503.4048,-887.8757 503.4048,-915.8757 657.813,-915.8757 657.813,-887.8757 503.4048,-887.8757"/>
<text text-anchor="start" x="511.4048" y="-903.8757" font-family="Helvetica,sans-Serif" font-size="10.00" fill="#000000">locomotor.components.models.</text>
<text text-anchor="middle" x="580.6089" y="-893.8757" font-family="Helvetica,sans-Serif" font-size="10.00" fill="#000000">ItemFull.fromJSON</text>
</a>
</g>
</g>
<!-- Node1&#45;&gt;Node3 -->
<g id="edge7" class="edge">
<title>Node1&#45;&gt;Node3</title>
<path fill="none" stroke="#191970" d="M34.9386,-570.3875C38.981,-635.1312 55.4865,-841.0674 103.7041,-881.8757 161.9779,-931.195 383.409,-919.8816 502.9539,-909.6657"/>
<polygon fill="#191970" stroke="#191970" points="38.4093,-569.7886 34.3239,-560.0131 31.4216,-570.2027 38.4093,-569.7886"/>
</g>
<!-- Node4 -->
<g id="node4" class="node">
<title>Node4</title>
<g id="a_node4"><a xlink:href="classlocomotor_1_1components_1_1network_1_1_a_p_i.html#a547463fbc7fb7b485886f0917e2c0b78" target="_top" xlink:title="locomotor.components.network.\lAPI.createHooks">
<polygon fill="#ffffff" stroke="#000000" points="698.8105,-468.8757 698.8105,-496.8757 855.9971,-496.8757 855.9971,-468.8757 698.8105,-468.8757"/>
<text text-anchor="start" x="706.8105" y="-484.8757" font-family="Helvetica,sans-Serif" font-size="10.00" fill="#000000">locomotor.components.network.</text>
<text text-anchor="middle" x="777.4038" y="-474.8757" font-family="Helvetica,sans-Serif" font-size="10.00" fill="#000000">API.createHooks</text>
</a>
</g>
</g>
<!-- Node1&#45;&gt;Node4 -->
<g id="edge8" class="edge">
<title>Node1&#45;&gt;Node4</title>
<path fill="none" stroke="#191970" d="M36.3532,-570.0386C43.6696,-622.79 66.8673,-768.0735 103.7041,-795.8757 109.2631,-800.0713 433.0385,-795.632 462.4072,-793.8757 551.8507,-788.5268 591.5504,-826.1964 662.8105,-771.8757 755.3132,-701.3621 773.2823,-544.773 776.6526,-496.9921"/>
<polygon fill="#191970" stroke="#191970" points="39.8052,-569.4467 35.0001,-560.0042 32.8679,-570.3823 39.8052,-569.4467"/>
</g>
<!-- Node6 -->
<g id="node6" class="node">
<title>Node6</title>
<g id="a_node6"><a xlink:href="classlocomotor_1_1components_1_1models_1_1_item_criteria_full.html#a436730a3499b6d7b1d0359e12aa2f04a" target="_top" xlink:title="locomotor.components.models.\lItemCriteriaFull.fromJSON">
<polygon fill="#ffffff" stroke="#000000" points="107.0415,-930.8757 107.0415,-958.8757 261.4497,-958.8757 261.4497,-930.8757 107.0415,-930.8757"/>
<text text-anchor="start" x="115.0415" y="-946.8757" font-family="Helvetica,sans-Serif" font-size="10.00" fill="#000000">locomotor.components.models.</text>
<text text-anchor="middle" x="184.2456" y="-936.8757" font-family="Helvetica,sans-Serif" font-size="10.00" fill="#000000">ItemCriteriaFull.fromJSON</text>
</a>
</g>
</g>
<!-- Node1&#45;&gt;Node6 -->
<g id="edge5" class="edge">
<title>Node1&#45;&gt;Node6</title>
<path fill="none" stroke="#191970" d="M35.0584,-570.0501C39.6662,-637.5063 58.2372,-862.6708 103.7041,-915.8757 109.0144,-922.0897 115.7605,-926.9722 123.0804,-930.8086"/>
<polygon fill="#191970" stroke="#191970" points="38.5456,-569.7387 34.3964,-559.9901 31.5607,-570.1984 38.5456,-569.7387"/>
</g>
<!-- Node7 -->
<g id="node7" class="node">
<title>Node7</title>
<g id="a_node7"><a xlink:href="classlocomotor_1_1components_1_1network_1_1_network_handler.html#a63d431845f1fd2adc1f96432f6003e25" target="_top" xlink:title="locomotor.components.network.\lNetworkHandler.init">
<polygon fill="#ffffff" stroke="#000000" points="698.8105,-1029.8757 698.8105,-1057.8757 855.9971,-1057.8757 855.9971,-1029.8757 698.8105,-1029.8757"/>
<text text-anchor="start" x="706.8105" y="-1045.8757" font-family="Helvetica,sans-Serif" font-size="10.00" fill="#000000">locomotor.components.network.</text>
<text text-anchor="middle" x="777.4038" y="-1035.8757" font-family="Helvetica,sans-Serif" font-size="10.00" fill="#000000">NetworkHandler.init</text>
</a>
</g>
</g>
<!-- Node1&#45;&gt;Node7 -->
<g id="edge9" class="edge">
<title>Node1&#45;&gt;Node7</title>
<path fill="none" stroke="#191970" d="M35.2451,-570.1143C41.5867,-655.0939 68.9236,-993.9786 103.7041,-1024.8757 287.6238,-1188.2599 623.8621,-1096.0886 738.167,-1057.9264"/>
<polygon fill="#191970" stroke="#191970" points="38.7297,-569.7759 34.505,-560.0599 31.7486,-570.2898 38.7297,-569.7759"/>
</g>
<!-- Node8 -->
<g id="node8" class="node">
<title>Node8</title>
<g id="a_node8"><a xlink:href="classlocomotor_1_1components_1_1types_1_1_c_interval.html#afd960ea0d74219e2fa2bdc51004d05ba" target="_top" xlink:title="locomotor.components.types.\lCInterval.CInterval">
<polygon fill="#ffffff" stroke="#000000" points="111.209,-844.8757 111.209,-872.8757 257.2822,-872.8757 257.2822,-844.8757 111.209,-844.8757"/>
<text text-anchor="start" x="119.209" y="-860.8757" font-family="Helvetica,sans-Serif" font-size="10.00" fill="#000000">locomotor.components.types.</text>
<text text-anchor="middle" x="184.2456" y="-850.8757" font-family="Helvetica,sans-Serif" font-size="10.00" fill="#000000">CInterval.CInterval</text>
</a>
</g>
</g>
<!-- Node1&#45;&gt;Node8 -->
<g id="edge11" class="edge">
<title>Node1&#45;&gt;Node8</title>
<path fill="none" stroke="#191970" d="M36.2965,-570.1133C43.8363,-626.6585 68.3742,-790.8122 103.7041,-829.8757 109.2867,-836.0482 116.2809,-840.9079 123.802,-844.7339"/>
<polygon fill="#191970" stroke="#191970" points="39.746,-569.4982 34.9822,-560.0348 32.8048,-570.4034 39.746,-569.4982"/>
</g>
<!-- Node10 -->
<g id="node10" class="node">
<title>Node10</title>
<g id="a_node10"><a xlink:href="classlocomotor_1_1core_1_1_d_b_h.html#a17eef13d222e2f7d4cc413a965de3069" target="_top" xlink:title="locomotor.core.DBH.registerUser">
<polygon fill="#ffffff" stroke="#000000" points="499.2495,-972.8757 499.2495,-990.8757 661.9683,-990.8757 661.9683,-972.8757 499.2495,-972.8757"/>
<text text-anchor="middle" x="580.6089" y="-978.8757" font-family="Helvetica,sans-Serif" font-size="10.00" fill="#000000">locomotor.core.DBH.registerUser</text>
</a>
</g>
</g>
<!-- Node1&#45;&gt;Node10 -->
<g id="edge13" class="edge">
<title>Node1&#45;&gt;Node10</title>
<path fill="none" stroke="#191970" d="M35.4172,-570.3157C42.2362,-652.6185 70.5022,-969.4593 103.7041,-997.8757 167.3506,-1052.3486 428.0963,-1010.7635 534.7834,-990.8996"/>
<polygon fill="#191970" stroke="#191970" points="38.8719,-569.6183 34.5687,-559.9367 31.8952,-570.1887 38.8719,-569.6183"/>
</g>
<!-- Node11 -->
<g id="node11" class="node">
<title>Node11</title>
<g id="a_node11"><a xlink:href="classlocomotor_1_1core_1_1_d_b_h.html#a34b259b9443e3b412e5a704b154546a1" target="_top" xlink:title="locomotor.core.DBH.authUser">
<polygon fill="#ffffff" stroke="#000000" points="109.8271,-674.8757 109.8271,-692.8757 258.6641,-692.8757 258.6641,-674.8757 109.8271,-674.8757"/>
<text text-anchor="middle" x="184.2456" y="-680.8757" font-family="Helvetica,sans-Serif" font-size="10.00" fill="#000000">locomotor.core.DBH.authUser</text>
</a>
</g>
</g>
<!-- Node1&#45;&gt;Node11 -->
<g id="edge16" class="edge">
<title>Node1&#45;&gt;Node11</title>
<path fill="none" stroke="#191970" d="M40.9521,-569.5653C51.1543,-593.9276 72.2628,-636.209 103.7041,-659.8757 112.5635,-666.5444 123.2611,-671.3688 133.9248,-674.8562"/>
<polygon fill="#191970" stroke="#191970" points="44.107,-568.0284 37.1412,-560.0453 37.6083,-570.6298 44.107,-568.0284"/>
</g>
<!-- Node12 -->
<g id="node12" class="node">
<title>Node12</title>
<g id="a_node12"><a xlink:href="classlocomotor_1_1core_1_1_d_b_h.html#ad707f520f60fe68ea8a8818698560d9d" target="_top" xlink:title="locomotor.core.DBH.authAdmin">
<polygon fill="#ffffff" stroke="#000000" points="303.563,-654.8757 303.563,-672.8757 459.6313,-672.8757 459.6313,-654.8757 303.563,-654.8757"/>
<text text-anchor="middle" x="381.5972" y="-660.8757" font-family="Helvetica,sans-Serif" font-size="10.00" fill="#000000">locomotor.core.DBH.authAdmin</text>
</a>
</g>
</g>
<!-- Node1&#45;&gt;Node12 -->
<g id="edge50" class="edge">
<title>Node1&#45;&gt;Node12</title>
<path fill="none" stroke="#191970" d="M48.0658,-567.8707C61.0411,-582.2043 81.5303,-602.0629 103.7041,-612.8757 166.6403,-643.5659 245.7951,-655.8871 303.5118,-660.7823"/>
<polygon fill="#191970" stroke="#191970" points="50.5567,-565.4024 41.3384,-560.1799 45.288,-570.0111 50.5567,-565.4024"/>
</g>
<!-- Node13 -->
<g id="node13" class="node">
<title>Node13</title>
<g id="a_node13"><a xlink:href="classlocomotor_1_1core_1_1_d_b_h.html#a0c8f3a26e4a26089a068c98d8d6f5f9b" target="_top" xlink:title="locomotor.core.DBH.getUserInfo">
<polygon fill="#ffffff" stroke="#000000" points="301.6196,-612.8757 301.6196,-630.8757 461.5747,-630.8757 461.5747,-612.8757 301.6196,-612.8757"/>
<text text-anchor="middle" x="381.5972" y="-618.8757" font-family="Helvetica,sans-Serif" font-size="10.00" fill="#000000">locomotor.core.DBH.getUserInfo</text>
</a>
</g>
</g>
<!-- Node1&#45;&gt;Node13 -->
<g id="edge20" class="edge">
<title>Node1&#45;&gt;Node13</title>
<path fill="none" stroke="#191970" d="M58.2382,-564.6545C71.3334,-571.4657 87.9777,-579.2063 103.7041,-583.8757 168.7062,-603.1758 245.2151,-612.7228 301.4802,-617.4166"/>
<polygon fill="#191970" stroke="#191970" points="59.8615,-561.5536 49.394,-559.9164 56.5559,-567.724 59.8615,-561.5536"/>
</g>
<!-- Node14 -->
<g id="node14" class="node">
<title>Node14</title>
<g id="a_node14"><a xlink:href="classlocomotor_1_1core_1_1_d_b_h.html#a4f149cbfb499cbe94a2acb70753b056d" target="_top" xlink:title="locomotor.core.DBH.change\lUsername">
<polygon fill="#ffffff" stroke="#000000" points="510.0747,-568.8757 510.0747,-596.8757 651.1431,-596.8757 651.1431,-568.8757 510.0747,-568.8757"/>
<text text-anchor="start" x="518.0747" y="-584.8757" font-family="Helvetica,sans-Serif" font-size="10.00" fill="#000000">locomotor.core.DBH.change</text>
<text text-anchor="middle" x="580.6089" y="-574.8757" font-family="Helvetica,sans-Serif" font-size="10.00" fill="#000000">Username</text>
</a>
</g>
</g>
<!-- Node1&#45;&gt;Node14 -->
<g id="edge22" class="edge">
<title>Node1&#45;&gt;Node14</title>
<path fill="none" stroke="#191970" d="M78.0946,-554.1426C86.5928,-554.7418 95.4232,-555.3449 103.7041,-555.8757 247.9112,-565.1185 416.7568,-574.288 509.8882,-579.2018"/>
<polygon fill="#191970" stroke="#191970" points="78.1764,-550.6396 67.9526,-553.4188 77.678,-557.6219 78.1764,-550.6396"/>
</g>
<!-- Node15 -->
<g id="node15" class="node">
<title>Node15</title>
<g id="a_node15"><a xlink:href="classlocomotor_1_1core_1_1_d_b_h.html#a74b4c9978e018cf8fa6b5c48d563f6da" target="_top" xlink:title="locomotor.core.DBH.change\lPassword">
<polygon fill="#ffffff" stroke="#000000" points="311.063,-522.8757 311.063,-550.8757 452.1313,-550.8757 452.1313,-522.8757 311.063,-522.8757"/>
<text text-anchor="start" x="319.063" y="-538.8757" font-family="Helvetica,sans-Serif" font-size="10.00" fill="#000000">locomotor.core.DBH.change</text>
<text text-anchor="middle" x="381.5972" y="-528.8757" font-family="Helvetica,sans-Serif" font-size="10.00" fill="#000000">Password</text>
</a>
</g>
</g>
<!-- Node1&#45;&gt;Node15 -->
<g id="edge24" class="edge">
<title>Node1&#45;&gt;Node15</title>
<path fill="none" stroke="#191970" d="M77.8842,-549.103C136.5604,-546.7407 241.0798,-542.5328 310.8722,-539.723"/>
<polygon fill="#191970" stroke="#191970" points="77.6796,-545.6083 67.8285,-549.5078 77.9612,-552.6026 77.6796,-545.6083"/>
</g>
<!-- Node16 -->
<g id="node16" class="node">
<title>Node16</title>
<g id="a_node16"><a xlink:href="classlocomotor_1_1core_1_1_d_b_h.html#a0986f5bb18ead6a7e6470747fb60a445" target="_top" xlink:title="locomotor.core.DBH.removeUser">
<polygon fill="#ffffff" stroke="#000000" points="499.2495,-492.8757 499.2495,-510.8757 661.9683,-510.8757 661.9683,-492.8757 499.2495,-492.8757"/>
<text text-anchor="middle" x="580.6089" y="-498.8757" font-family="Helvetica,sans-Serif" font-size="10.00" fill="#000000">locomotor.core.DBH.removeUser</text>
</a>
</g>
</g>
<!-- Node1&#45;&gt;Node16 -->
<g id="edge26" class="edge">
<title>Node1&#45;&gt;Node16</title>
<path fill="none" stroke="#191970" d="M77.7549,-542.3044C86.3442,-540.7409 95.2949,-539.1904 103.7041,-537.8757 190.9387,-524.237 212.7948,-520.1723 300.7871,-512.8757 367.4078,-507.3513 443.1881,-504.588 499.0694,-503.2134"/>
<polygon fill="#191970" stroke="#191970" points="77.0864,-538.8686 67.8918,-544.1326 78.3622,-545.7514 77.0864,-538.8686"/>
</g>
<!-- Node17 -->
<g id="node17" class="node">
<title>Node17</title>
<g id="a_node17"><a xlink:href="classlocomotor_1_1core_1_1_d_b_h.html#ae573347d7e17b2bf2bac3c4a41caf0fa" target="_top" xlink:title="locomotor.core.DBH.getItem">
<polygon fill="#ffffff" stroke="#000000" points="310.792,-446.8757 310.792,-464.8757 452.4023,-464.8757 452.4023,-446.8757 310.792,-446.8757"/>
<text text-anchor="middle" x="381.5972" y="-452.8757" font-family="Helvetica,sans-Serif" font-size="10.00" fill="#000000">locomotor.core.DBH.getItem</text>
</a>
</g>
</g>
<!-- Node1&#45;&gt;Node17 -->
<g id="edge28" class="edge">
<title>Node1&#45;&gt;Node17</title>
<path fill="none" stroke="#191970" d="M45.515,-533.2119C57.7828,-516.2811 78.7538,-491.6172 103.7041,-479.8757 168.9894,-449.1527 252.4177,-446.0629 310.7533,-448.8473"/>
<polygon fill="#191970" stroke="#191970" points="42.4555,-531.4814 39.625,-541.6911 48.2046,-535.4749 42.4555,-531.4814"/>
</g>
<!-- Node18 -->
<g id="node18" class="node">
<title>Node18</title>
<g id="a_node18"><a xlink:href="classlocomotor_1_1core_1_1_d_b_h.html#ad067053be75a3170dc9c2ce7b922e176" target="_top" xlink:title="locomotor.core.DBH.checking\lParsingItem">
<polygon fill="#ffffff" stroke="#000000" points="307.7329,-399.8757 307.7329,-427.8757 455.4614,-427.8757 455.4614,-399.8757 307.7329,-399.8757"/>
<text text-anchor="start" x="315.7329" y="-415.8757" font-family="Helvetica,sans-Serif" font-size="10.00" fill="#000000">locomotor.core.DBH.checking</text>
<text text-anchor="middle" x="381.5972" y="-405.8757" font-family="Helvetica,sans-Serif" font-size="10.00" fill="#000000">ParsingItem</text>
</a>
</g>
</g>
<!-- Node1&#45;&gt;Node18 -->
<g id="edge30" class="edge">
<title>Node1&#45;&gt;Node18</title>
<path fill="none" stroke="#191970" d="M40.3691,-532.2104C50.0244,-507.622 70.635,-465.133 103.7041,-444.8757 164.9691,-407.3464 248.2762,-402.8493 307.6628,-405.7342"/>
<polygon fill="#191970" stroke="#191970" points="37.0006,-531.2274 36.7976,-541.8203 43.5621,-533.6661 37.0006,-531.2274"/>
</g>
<!-- Node21 -->
<g id="node21" class="node">
<title>Node21</title>
<g id="a_node21"><a xlink:href="classlocomotor_1_1core_1_1_d_b_h.html#a048720c7d5d922d646d5ee0ff38f78ad" target="_top" xlink:title="locomotor.core.DBH.removeItem">
<polygon fill="#ffffff" stroke="#000000" points="500.082,-342.8757 500.082,-360.8757 661.1357,-360.8757 661.1357,-342.8757 500.082,-342.8757"/>
<text text-anchor="middle" x="580.6089" y="-348.8757" font-family="Helvetica,sans-Serif" font-size="10.00" fill="#000000">locomotor.core.DBH.removeItem</text>
</a>
</g>
</g>
<!-- Node1&#45;&gt;Node21 -->
<g id="edge35" class="edge">
<title>Node1&#45;&gt;Node21</title>
<path fill="none" stroke="#191970" d="M36.7704,-531.4356C42.8105,-498.6715 59.9758,-432.9907 103.7041,-401.8757 165.5148,-357.8941 381.0234,-351.1937 500.0634,-350.9832"/>
<polygon fill="#191970" stroke="#191970" points="33.2779,-531.0996 35.0726,-541.5413 40.1811,-532.2594 33.2779,-531.0996"/>
</g>
<!-- Node22 -->
<g id="node22" class="node">
<title>Node22</title>
<g id="a_node22"><a xlink:href="classlocomotor_1_1core_1_1_d_b_h.html#a0b14ef52a7a6a21455570af9f08c0fea" target="_top" xlink:title="locomotor.core.DBH.getUniverse">
<polygon fill="#ffffff" stroke="#000000" points="300.7871,-318.8757 300.7871,-336.8757 462.4072,-336.8757 462.4072,-318.8757 300.7871,-318.8757"/>
<text text-anchor="middle" x="381.5972" y="-324.8757" font-family="Helvetica,sans-Serif" font-size="10.00" fill="#000000">locomotor.core.DBH.getUniverse</text>
</a>
</g>
</g>
<!-- Node1&#45;&gt;Node22 -->
<g id="edge37" class="edge">
<title>Node1&#45;&gt;Node22</title>
<path fill="none" stroke="#191970" d="M37.9247,-532.0302C47.9254,-487.5989 74.9771,-378.338 103.7041,-355.8757 170.647,-303.5315 276.1665,-309.7321 336.0739,-318.8518"/>
<polygon fill="#191970" stroke="#191970" points="34.4978,-531.3177 35.7589,-541.8372 41.3331,-532.8273 34.4978,-531.3177"/>
</g>
<!-- Node23 -->
<g id="node23" class="node">
<title>Node23</title>
<g id="a_node23"><a xlink:href="classlocomotor_1_1core_1_1_d_b_h.html#a756e5af44b74ea39a44a71cde06102fd" target="_top" xlink:title="locomotor.core.DBH.checking\lParsingUniverse">
<polygon fill="#ffffff" stroke="#000000" points="307.7329,-270.8757 307.7329,-298.8757 455.4614,-298.8757 455.4614,-270.8757 307.7329,-270.8757"/>
<text text-anchor="start" x="315.7329" y="-286.8757" font-family="Helvetica,sans-Serif" font-size="10.00" fill="#000000">locomotor.core.DBH.checking</text>
<text text-anchor="middle" x="381.5972" y="-276.8757" font-family="Helvetica,sans-Serif" font-size="10.00" fill="#000000">ParsingUniverse</text>
</a>
</g>
</g>
<!-- Node1&#45;&gt;Node23 -->
<g id="edge39" class="edge">
<title>Node1&#45;&gt;Node23</title>
<path fill="none" stroke="#191970" d="M36.5679,-531.7547C44.3643,-479.7647 68.533,-337.7838 103.7041,-308.8757 161.5961,-261.2926 251.0427,-262.4669 312.7405,-270.839"/>
<polygon fill="#191970" stroke="#191970" points="33.1025,-531.264 35.1183,-541.6653 40.0288,-532.2772 33.1025,-531.264"/>
</g>
<!-- Node26 -->
<g id="node26" class="node">
<title>Node26</title>
<g id="a_node26"><a xlink:href="classlocomotor_1_1core_1_1_d_b_h.html#a46cbafb4c7422171cf07c3d0521d3f47" target="_top" xlink:title="locomotor.core.DBH.remove\lUniverse">
<polygon fill="#ffffff" stroke="#000000" points="509.8062,-172.8757 509.8062,-200.8757 651.4116,-200.8757 651.4116,-172.8757 509.8062,-172.8757"/>
<text text-anchor="start" x="517.8062" y="-188.8757" font-family="Helvetica,sans-Serif" font-size="10.00" fill="#000000">locomotor.core.DBH.remove</text>
<text text-anchor="middle" x="580.6089" y="-178.8757" font-family="Helvetica,sans-Serif" font-size="10.00" fill="#000000">Universe</text>
</a>
</g>
</g>
<!-- Node1&#45;&gt;Node26 -->
<g id="edge44" class="edge">
<title>Node1&#45;&gt;Node26</title>
<path fill="none" stroke="#191970" d="M35.7516,-531.8386C41.9551,-473.6616 63.5662,-299.9276 103.7041,-262.8757 133.1206,-235.7209 384.114,-206.7803 509.6752,-193.8345"/>
<polygon fill="#191970" stroke="#191970" points="32.2627,-531.5515 34.7154,-541.8585 39.2256,-532.2716 32.2627,-531.5515"/>
</g>
<!-- Node27 -->
<g id="node27" class="node">
<title>Node27</title>
<g id="a_node27"><a xlink:href="classlocomotor_1_1core_1_1_d_b_h.html#a21cbb63c5e6f48995e2da4a48db8edff" target="_top" xlink:title="locomotor.core.DBH.getAll\lBooking">
<polygon fill="#ffffff" stroke="#000000" points="117.6079,-184.8757 117.6079,-212.8757 250.8833,-212.8757 250.8833,-184.8757 117.6079,-184.8757"/>
<text text-anchor="start" x="125.6079" y="-200.8757" font-family="Helvetica,sans-Serif" font-size="10.00" fill="#000000">locomotor.core.DBH.getAll</text>
<text text-anchor="middle" x="184.2456" y="-190.8757" font-family="Helvetica,sans-Serif" font-size="10.00" fill="#000000">Booking</text>
</a>
</g>
</g>
<!-- Node1&#45;&gt;Node27 -->
<g id="edge46" class="edge">
<title>Node1&#45;&gt;Node27</title>
<path fill="none" stroke="#191970" d="M35.5961,-531.5251C41.5895,-469.0506 63.2355,-274.1019 103.7041,-227.8757 109.0882,-221.7256 115.8765,-216.8795 123.217,-213.061"/>
<polygon fill="#191970" stroke="#191970" points="32.1019,-531.3013 34.6582,-541.5831 39.0717,-531.9513 32.1019,-531.3013"/>
</g>
<!-- Node28 -->
<g id="node28" class="node">
<title>Node28</title>
<g id="a_node28"><a xlink:href="classlocomotor_1_1core_1_1_d_b_h.html#a3db8a57c024085b3b7a27d1cd79180a4" target="_top" xlink:title="locomotor.core.DBH.addBooking">
<polygon fill="#ffffff" stroke="#000000" points="103.7041,-147.8757 103.7041,-165.8757 264.7871,-165.8757 264.7871,-147.8757 103.7041,-147.8757"/>
<text text-anchor="middle" x="184.2456" y="-153.8757" font-family="Helvetica,sans-Serif" font-size="10.00" fill="#000000">locomotor.core.DBH.addBooking</text>
</a>
</g>
</g>
<!-- Node1&#45;&gt;Node28 -->
<g id="edge48" class="edge">
<title>Node1&#45;&gt;Node28</title>
<path fill="none" stroke="#191970" d="M34.7192,-531.3726C38.2171,-461.7493 53.5982,-226.8286 103.7041,-174.8757 107.1853,-171.2662 111.2201,-168.3071 115.5921,-165.8882"/>
<polygon fill="#191970" stroke="#191970" points="31.2058,-531.574 34.227,-541.7289 38.1979,-531.9064 31.2058,-531.574"/>
</g>
<!-- Node29 -->
<g id="node29" class="node">
<title>Node29</title>
<g id="a_node29"><a xlink:href="classlocomotor_1_1core_1_1_d_b_h.html#a3d7a9a94e400a13566495c07c3b1be00" target="_top" xlink:title="locomotor.core.DBH.admin\lStillExists">
<polygon fill="#ffffff" stroke="#000000" points="116.4971,-100.8757 116.4971,-128.8757 251.9941,-128.8757 251.9941,-100.8757 116.4971,-100.8757"/>
<text text-anchor="start" x="124.4971" y="-116.8757" font-family="Helvetica,sans-Serif" font-size="10.00" fill="#000000">locomotor.core.DBH.admin</text>
<text text-anchor="middle" x="184.2456" y="-106.8757" font-family="Helvetica,sans-Serif" font-size="10.00" fill="#000000">StillExists</text>
</a>
</g>
</g>
<!-- Node1&#45;&gt;Node29 -->
<g id="edge51" class="edge">
<title>Node1&#45;&gt;Node29</title>
<path fill="none" stroke="#191970" d="M34.4695,-531.478C37.2005,-457.9113 50.5318,-197.2807 103.7041,-137.8757 107.2926,-133.8666 111.5262,-130.536 116.1435,-127.7714"/>
<polygon fill="#191970" stroke="#191970" points="30.9666,-531.5041 34.1178,-541.6195 37.9624,-531.7468 30.9666,-531.5041"/>
</g>
<!-- Node30 -->
<g id="node30" class="node">
<title>Node30</title>
<g id="a_node30"><a xlink:href="classlocomotor_1_1core_1_1jwt_1_1_j_w_t_h.html#a9666df772d67ab0c2213cdb4a528549b" target="_top" xlink:title="locomotor.core.jwt.JWTH.verify\lTokenSignature">
<polygon fill="#ffffff" stroke="#000000" points="107.3418,-53.8757 107.3418,-81.8757 261.1494,-81.8757 261.1494,-53.8757 107.3418,-53.8757"/>
<text text-anchor="start" x="115.3418" y="-69.8757" font-family="Helvetica,sans-Serif" font-size="10.00" fill="#000000">locomotor.core.jwt.JWTH.verify</text>
<text text-anchor="middle" x="184.2456" y="-59.8757" font-family="Helvetica,sans-Serif" font-size="10.00" fill="#000000">TokenSignature</text>
</a>
</g>
</g>
<!-- Node1&#45;&gt;Node30 -->
<g id="edge53" class="edge">
<title>Node1&#45;&gt;Node30</title>
<path fill="none" stroke="#191970" d="M34.1026,-531.3475C35.5104,-452.4075 44.6975,-157.927 103.7041,-90.8757 106.6822,-87.4915 110.1201,-84.5897 113.8628,-82.103"/>
<polygon fill="#191970" stroke="#191970" points="30.597,-531.6876 33.9416,-541.7406 37.5961,-531.7961 30.597,-531.6876"/>
</g>
<!-- Node31 -->
<g id="node31" class="node">
<title>Node31</title>
<g id="a_node31"><a xlink:href="classlocomotor_1_1core_1_1jwt_1_1_j_w_t_h.html#a5bfe06ebb1f388e7fb4fb42c6c2a3875" target="_top" xlink:title="locomotor.core.jwt.JWTH.check\lToken">
<polygon fill="#ffffff" stroke="#000000" points="303.5776,-10.8757 303.5776,-38.8757 459.6167,-38.8757 459.6167,-10.8757 303.5776,-10.8757"/>
<text text-anchor="start" x="311.5776" y="-26.8757" font-family="Helvetica,sans-Serif" font-size="10.00" fill="#000000">locomotor.core.jwt.JWTH.check</text>
<text text-anchor="middle" x="381.5972" y="-16.8757" font-family="Helvetica,sans-Serif" font-size="10.00" fill="#000000">Token</text>
</a>
</g>
</g>
<!-- Node1&#45;&gt;Node31 -->
<g id="edge60" class="edge">
<title>Node1&#45;&gt;Node31</title>
<path fill="none" stroke="#191970" d="M35.0969,-531.4634C40.9784,-442.6534 67.2277,-77.9303 103.7041,-43.8757 163.7949,12.2254 266.6226,2.1958 328.9285,-10.874"/>
<polygon fill="#191970" stroke="#191970" points="31.6006,-531.2936 34.4417,-541.5004 38.5857,-531.7496 31.6006,-531.2936"/>
</g>
<!-- Node32 -->
<g id="node32" class="node">
<title>Node32</title>
<g id="a_node32"><a xlink:href="classlocomotor_1_1core_1_1jwt_1_1_j_w_t_h.html#a1ced72f10559e8525f069895d88d129e" target="_top" xlink:title="locomotor.core.jwt.JWTH.create\lShortToken">
<polygon fill="#ffffff" stroke="#000000" points="105.3911,-758.8757 105.3911,-786.8757 263.1001,-786.8757 263.1001,-758.8757 105.3911,-758.8757"/>
<text text-anchor="start" x="113.3911" y="-774.8757" font-family="Helvetica,sans-Serif" font-size="10.00" fill="#000000">locomotor.core.jwt.JWTH.create</text>
<text text-anchor="middle" x="184.2456" y="-764.8757" font-family="Helvetica,sans-Serif" font-size="10.00" fill="#000000">ShortToken</text>
</a>
</g>
</g>
<!-- Node1&#45;&gt;Node32 -->
<g id="edge56" class="edge">
<title>Node1&#45;&gt;Node32</title>
<path fill="none" stroke="#191970" d="M35.0045,-569.9333C38.4168,-609.1798 51.7922,-699.4744 103.7041,-748.8757 107.8262,-752.7984 112.5616,-756.083 117.6278,-758.8327"/>
<polygon fill="#191970" stroke="#191970" points="38.4898,-569.6045 34.2578,-559.8916 31.5091,-570.1237 38.4898,-569.6045"/>
</g>
<!-- Node33 -->
<g id="node33" class="node">
<title>Node33</title>
<g id="a_node33"><a xlink:href="classlocomotor_1_1core_1_1jwt_1_1_j_w_t_h.html#aecfcf9e71a9ee5c1446176865a746a5c" target="_top" xlink:title="locomotor.core.jwt.JWTH.create\lLongToken">
<polygon fill="#ffffff" stroke="#000000" points="105.3911,-711.8757 105.3911,-739.8757 263.1001,-739.8757 263.1001,-711.8757 105.3911,-711.8757"/>
<text text-anchor="start" x="113.3911" y="-727.8757" font-family="Helvetica,sans-Serif" font-size="10.00" fill="#000000">locomotor.core.jwt.JWTH.create</text>
<text text-anchor="middle" x="184.2456" y="-717.8757" font-family="Helvetica,sans-Serif" font-size="10.00" fill="#000000">LongToken</text>
</a>
</g>
</g>
<!-- Node1&#45;&gt;Node33 -->
<g id="edge58" class="edge">
<title>Node1&#45;&gt;Node33</title>
<path fill="none" stroke="#191970" d="M37.3456,-569.7302C44.2512,-601.6606 62.6818,-666.3611 103.7041,-701.8757 108.2268,-705.7912 113.3667,-709.0681 118.8101,-711.8105"/>
<polygon fill="#191970" stroke="#191970" points="40.7721,-569.0157 35.3656,-559.9042 33.9101,-570.3986 40.7721,-569.0157"/>
</g>
<!-- Node2&#45;&gt;Node3 -->
<g id="edge2" class="edge">
<title>Node2&#45;&gt;Node3</title>
<path fill="none" stroke="#191970" d="M456.2745,-928.7404C475.8503,-924.5106 496.7957,-919.985 515.8085,-915.877"/>
<polygon fill="#191970" stroke="#191970" points="455.5209,-925.3223 446.4857,-930.8554 456.9993,-932.1644 455.5209,-925.3223"/>
</g>
<!-- Node3&#45;&gt;Node4 -->
<g id="edge3" class="edge">
<title>Node3&#45;&gt;Node4</title>
<path fill="none" stroke="#191970" d="M610.5958,-881.8473C628.0007,-868.8556 649.1219,-850.5334 662.8105,-829.8757 738.6817,-715.3779 768.1826,-546.3632 775.4801,-496.9322"/>
<polygon fill="#191970" stroke="#191970" points="608.4451,-879.0834 602.399,-887.7837 612.5511,-884.7527 608.4451,-879.0834"/>
</g>
<!-- Node5 -->
<g id="node5" class="node">
<title>Node5</title>
<g id="a_node5"><a xlink:href="classlocomotor_1_1core_1_1_main.html#a8b260eecbaabcef8473fd87ada040682" target="_top" xlink:title="locomotor.core.Main.main">
<polygon fill="#ffffff" stroke="#000000" points="891.9971,-972.8757 891.9971,-990.8757 1022.4941,-990.8757 1022.4941,-972.8757 891.9971,-972.8757"/>
<text text-anchor="middle" x="957.2456" y="-978.8757" font-family="Helvetica,sans-Serif" font-size="10.00" fill="#000000">locomotor.core.Main.main</text>
</a>
</g>
</g>
<!-- Node4&#45;&gt;Node5 -->
<g id="edge4" class="edge">
<title>Node4&#45;&gt;Node5</title>
<path fill="none" stroke="#191970" d="M785.948,-506.5829C818.3495,-596.4862 932.8753,-914.2563 953.9124,-972.6273"/>
<polygon fill="#191970" stroke="#191970" points="789.1797,-505.2269 782.4964,-497.006 782.5944,-507.6004 789.1797,-505.2269"/>
</g>
<!-- Node6&#45;&gt;Node2 -->
<g id="edge6" class="edge">
<title>Node6&#45;&gt;Node2</title>
<path fill="none" stroke="#191970" d="M271.9662,-944.8757C282.7718,-944.8757 293.7548,-944.8757 304.3883,-944.8757"/>
<polygon fill="#191970" stroke="#191970" points="271.6778,-941.3758 261.6777,-944.8757 271.6777,-948.3758 271.6778,-941.3758"/>
</g>
<!-- Node7&#45;&gt;Node5 -->
<g id="edge10" class="edge">
<title>Node7&#45;&gt;Node5</title>
<path fill="none" stroke="#191970" d="M827.8574,-1026.4819C861.4096,-1014.9149 904.1073,-1000.195 931.068,-990.9004"/>
<polygon fill="#191970" stroke="#191970" points="826.5259,-1023.2388 818.2127,-1029.8069 828.8074,-1029.8565 826.5259,-1023.2388"/>
</g>
<!-- Node9 -->
<g id="node9" class="node">
<title>Node9</title>
<g id="a_node9"><a xlink:href="classlocomotor_1_1components_1_1types_1_1_c_interval.html#ad295ddcb564ccdce4ae93f54dded98ff" target="_top" xlink:title="locomotor.components.types.\lCInterval.equals">
<polygon fill="#ffffff" stroke="#000000" points="308.5605,-844.8757 308.5605,-872.8757 454.6338,-872.8757 454.6338,-844.8757 308.5605,-844.8757"/>
<text text-anchor="start" x="316.5605" y="-860.8757" font-family="Helvetica,sans-Serif" font-size="10.00" fill="#000000">locomotor.components.types.</text>
<text text-anchor="middle" x="381.5972" y="-850.8757" font-family="Helvetica,sans-Serif" font-size="10.00" fill="#000000">CInterval.equals</text>
</a>
</g>
</g>
<!-- Node8&#45;&gt;Node9 -->
<g id="edge12" class="edge">
<title>Node8&#45;&gt;Node9</title>
<path fill="none" stroke="#191970" d="M267.7236,-858.8757C281.279,-858.8757 295.2265,-858.8757 308.5094,-858.8757"/>
<polygon fill="#191970" stroke="#191970" points="267.4516,-855.3758 257.4516,-858.8757 267.4516,-862.3758 267.4516,-855.3758"/>
</g>
<!-- Node10&#45;&gt;Node4 -->
<g id="edge14" class="edge">
<title>Node10&#45;&gt;Node4</title>
<path fill="none" stroke="#191970" d="M610.2137,-968.1301C627.9759,-958.4301 649.6116,-943.7972 662.8105,-924.8757 713.9469,-851.5686 763.9098,-564.4543 775.0892,-497.081"/>
<polygon fill="#191970" stroke="#191970" points="608.5961,-965.0262 601.3434,-972.7495 611.8294,-971.2347 608.5961,-965.0262"/>
</g>
<!-- Node10&#45;&gt;Node5 -->
<g id="edge15" class="edge">
<title>Node10&#45;&gt;Node5</title>
<path fill="none" stroke="#191970" d="M672.6068,-981.8757C740.5362,-981.8757 831.346,-981.8757 891.9429,-981.8757"/>
<polygon fill="#191970" stroke="#191970" points="672.3335,-978.3758 662.3334,-981.8757 672.3334,-985.3758 672.3335,-978.3758"/>
</g>
<!-- Node11&#45;&gt;Node4 -->
<g id="edge17" class="edge">
<title>Node11&#45;&gt;Node4</title>
<path fill="none" stroke="#191970" d="M269.2766,-690.7358C388.7412,-698.7594 598.839,-706.4819 662.8105,-667.8757 729.2828,-627.7603 762.8778,-532.8382 773.5454,-496.9495"/>
<polygon fill="#191970" stroke="#191970" points="269.2841,-687.2281 259.0678,-690.0346 268.8044,-694.2117 269.2841,-687.2281"/>
</g>
<!-- Node11&#45;&gt;Node12 -->
<g id="edge18" class="edge">
<title>Node11&#45;&gt;Node12</title>
<path fill="none" stroke="#191970" d="M268.8212,-675.3046C280.2547,-674.146 291.9461,-672.9611 303.2642,-671.8141"/>
<polygon fill="#191970" stroke="#191970" points="268.4519,-671.8241 258.8558,-676.3146 269.1577,-678.7884 268.4519,-671.8241"/>
</g>
<!-- Node12&#45;&gt;Node4 -->
<g id="edge19" class="edge">
<title>Node12&#45;&gt;Node4</title>
<path fill="none" stroke="#191970" d="M470.0126,-672.3401C528.3318,-673.865 604.4431,-667.8144 662.8105,-634.8757 720.0852,-602.5536 757.5602,-528.6343 771.4088,-497.3194"/>
<polygon fill="#191970" stroke="#191970" points="469.8219,-668.8316 459.7081,-671.9877 469.5826,-675.8275 469.8219,-668.8316"/>
</g>
<!-- Node13&#45;&gt;Node4 -->
<g id="edge21" class="edge">
<title>Node13&#45;&gt;Node4</title>
<path fill="none" stroke="#191970" d="M451.2403,-631.8649C510.3916,-637.1767 596.0645,-637.2007 662.8105,-605.8757 713.8023,-581.9445 753.0399,-524.187 769.2641,-497.2088"/>
<polygon fill="#191970" stroke="#191970" points="451.5409,-628.3777 441.2494,-630.895 450.8644,-635.345 451.5409,-628.3777"/>
</g>
<!-- Node14&#45;&gt;Node4 -->
<g id="edge23" class="edge">
<title>Node14&#45;&gt;Node4</title>
<path fill="none" stroke="#191970" d="M635.6284,-565.3203C644.8434,-561.8555 654.2013,-558.0018 662.8105,-553.8757 697.6339,-537.1859 735.1722,-512.5154 757.4593,-497.0852"/>
<polygon fill="#191970" stroke="#191970" points="634.3131,-562.0744 626.1147,-568.7855 636.7087,-568.6517 634.3131,-562.0744"/>
</g>
<!-- Node15&#45;&gt;Node4 -->
<g id="edge25" class="edge">
<title>Node15&#45;&gt;Node4</title>
<path fill="none" stroke="#191970" d="M462.7206,-537.3537C519.2564,-536.3795 596.1831,-532.4372 662.8105,-519.8757 689.9287,-514.763 719.5481,-505.0856 741.8794,-496.9102"/>
<polygon fill="#191970" stroke="#191970" points="462.3569,-533.8585 452.4084,-537.5025 462.4579,-540.8578 462.3569,-533.8585"/>
</g>
<!-- Node16&#45;&gt;Node4 -->
<g id="edge27" class="edge">
<title>Node16&#45;&gt;Node4</title>
<path fill="none" stroke="#191970" d="M672.3107,-493.0222C681.0733,-492.1761 689.9072,-491.3233 698.5324,-490.4905"/>
<polygon fill="#191970" stroke="#191970" points="671.6908,-489.5656 662.0735,-494.0105 672.3636,-496.5332 671.6908,-489.5656"/>
</g>
<!-- Node17&#45;&gt;Node4 -->
<g id="edge29" class="edge">
<title>Node17&#45;&gt;Node4</title>
<path fill="none" stroke="#191970" d="M463.2032,-461.4425C532.1994,-466.1491 630.4247,-472.8495 698.6107,-477.5008"/>
<polygon fill="#191970" stroke="#191970" points="463.0316,-457.9227 452.8166,-460.7339 462.5552,-464.9065 463.0316,-457.9227"/>
</g>
<!-- Node19 -->
<g id="node19" class="node">
<title>Node19</title>
<g id="a_node19"><a xlink:href="classlocomotor_1_1core_1_1_d_b_h.html#ae26eef1ee7482f2e0167c6a18924d214" target="_top" xlink:title="locomotor.core.DBH.addItem">
<polygon fill="#ffffff" stroke="#000000" points="508.4121,-416.8757 508.4121,-434.8757 652.8057,-434.8757 652.8057,-416.8757 508.4121,-416.8757"/>
<text text-anchor="middle" x="580.6089" y="-422.8757" font-family="Helvetica,sans-Serif" font-size="10.00" fill="#000000">locomotor.core.DBH.addItem</text>
</a>
</g>
</g>
<!-- Node18&#45;&gt;Node19 -->
<g id="edge31" class="edge">
<title>Node18&#45;&gt;Node19</title>
<path fill="none" stroke="#191970" d="M465.8451,-418.9557C479.8989,-419.8031 494.3687,-420.6756 508.0969,-421.5034"/>
<polygon fill="#191970" stroke="#191970" points="465.8943,-415.4524 455.7018,-418.3441 465.473,-422.4397 465.8943,-415.4524"/>
</g>
<!-- Node20 -->
<g id="node20" class="node">
<title>Node20</title>
<g id="a_node20"><a xlink:href="classlocomotor_1_1core_1_1_d_b_h.html#aa0e39c547d06fd9d0ad2de70251c9cc0" target="_top" xlink:title="locomotor.core.DBH.updateItem">
<polygon fill="#ffffff" stroke="#000000" points="501.4614,-379.8757 501.4614,-397.8757 659.7563,-397.8757 659.7563,-379.8757 501.4614,-379.8757"/>
<text text-anchor="middle" x="580.6089" y="-385.8757" font-family="Helvetica,sans-Serif" font-size="10.00" fill="#000000">locomotor.core.DBH.updateItem</text>
</a>
</g>
</g>
<!-- Node18&#45;&gt;Node20 -->
<g id="edge33" class="edge">
<title>Node18&#45;&gt;Node20</title>
<path fill="none" stroke="#191970" d="M465.9771,-403.2758C480.2149,-401.4873 494.8757,-399.6456 508.7567,-397.9018"/>
<polygon fill="#191970" stroke="#191970" points="465.1875,-399.8474 455.7018,-404.5666 466.0601,-406.7928 465.1875,-399.8474"/>
</g>
<!-- Node19&#45;&gt;Node4 -->
<g id="edge32" class="edge">
<title>Node19&#45;&gt;Node4</title>
<path fill="none" stroke="#191970" d="M621.4733,-437.7117C652.6655,-446.7463 695.7476,-459.2247 728.7243,-468.7761"/>
<polygon fill="#191970" stroke="#191970" points="622.3706,-434.3278 611.7916,-434.9075 620.4231,-441.0515 622.3706,-434.3278"/>
</g>
<!-- Node20&#45;&gt;Node4 -->
<g id="edge34" class="edge">
<title>Node20&#45;&gt;Node4</title>
<path fill="none" stroke="#191970" d="M645.4894,-400.6959C651.4376,-402.4906 657.295,-404.5399 662.8105,-406.8757 700.6203,-422.8877 739.3525,-451.6912 760.6996,-468.8696"/>
<polygon fill="#191970" stroke="#191970" points="646.0092,-397.2081 635.4377,-397.9104 644.1398,-403.9539 646.0092,-397.2081"/>
</g>
<!-- Node21&#45;&gt;Node4 -->
<g id="edge36" class="edge">
<title>Node21&#45;&gt;Node4</title>
<path fill="none" stroke="#191970" d="M650.4118,-364.2021C654.7052,-365.8603 658.8757,-367.7415 662.8105,-369.8757 708.9839,-394.9198 749.141,-444.122 767.2167,-468.4937"/>
<polygon fill="#191970" stroke="#191970" points="651.4549,-360.8597 640.8602,-360.9167 649.1781,-367.4791 651.4549,-360.8597"/>
</g>
<!-- Node22&#45;&gt;Node4 -->
<g id="edge38" class="edge">
<title>Node22&#45;&gt;Node4</title>
<path fill="none" stroke="#191970" d="M428.6642,-316.8377C487.0421,-305.7121 587.993,-295.0495 662.8105,-332.8757 721.3027,-362.4481 758.3431,-437.3664 771.7493,-468.728"/>
<polygon fill="#191970" stroke="#191970" points="427.7485,-313.4512 418.6242,-318.8363 429.1151,-320.3165 427.7485,-313.4512"/>
</g>
<!-- Node24 -->
<g id="node24" class="node">
<title>Node24</title>
<g id="a_node24"><a xlink:href="classlocomotor_1_1core_1_1_d_b_h.html#a2b2232ca307c4877316e8b6097902f2c" target="_top" xlink:title="locomotor.core.DBH.addUniverse">
<polygon fill="#ffffff" stroke="#000000" points="498.4072,-266.8757 498.4072,-284.8757 662.8105,-284.8757 662.8105,-266.8757 498.4072,-266.8757"/>
<text text-anchor="middle" x="580.6089" y="-272.8757" font-family="Helvetica,sans-Serif" font-size="10.00" fill="#000000">locomotor.core.DBH.addUniverse</text>
</a>
</g>
</g>
<!-- Node23&#45;&gt;Node24 -->
<g id="edge40" class="edge">
<title>Node23&#45;&gt;Node24</title>
<path fill="none" stroke="#191970" d="M465.8451,-281.0657C476.5186,-280.583 487.432,-280.0895 498.0783,-279.608"/>
<polygon fill="#191970" stroke="#191970" points="465.5334,-277.5761 455.7018,-281.5244 465.8497,-284.569 465.5334,-277.5761"/>
</g>
<!-- Node25 -->
<g id="node25" class="node">
<title>Node25</title>
<g id="a_node25"><a xlink:href="classlocomotor_1_1core_1_1_d_b_h.html#a0565ab8a7a56491fca163a1b0977c0db" target="_top" xlink:title="locomotor.core.DBH.update\lUniverse">
<polygon fill="#ffffff" stroke="#000000" points="511.1855,-219.8757 511.1855,-247.8757 650.0322,-247.8757 650.0322,-219.8757 511.1855,-219.8757"/>
<text text-anchor="start" x="519.1855" y="-235.8757" font-family="Helvetica,sans-Serif" font-size="10.00" fill="#000000">locomotor.core.DBH.update</text>
<text text-anchor="middle" x="580.6089" y="-225.8757" font-family="Helvetica,sans-Serif" font-size="10.00" fill="#000000">Universe</text>
</a>
</g>
</g>
<!-- Node23&#45;&gt;Node25 -->
<g id="edge42" class="edge">
<title>Node23&#45;&gt;Node25</title>
<path fill="none" stroke="#191970" d="M446.2563,-268.3057C471.923,-261.7282 501.1301,-254.2434 525.7414,-247.9364"/>
<polygon fill="#191970" stroke="#191970" points="445.0593,-264.9993 436.2412,-270.8723 446.7971,-271.7802 445.0593,-264.9993"/>
</g>
<!-- Node24&#45;&gt;Node4 -->
<g id="edge41" class="edge">
<title>Node24&#45;&gt;Node4</title>
<path fill="none" stroke="#191970" d="M642.2556,-288.4159C649.5848,-291.447 656.6417,-295.2085 662.8105,-299.8757 723.6445,-345.9019 760.1735,-434.3915 772.5977,-468.7503"/>
<polygon fill="#191970" stroke="#191970" points="643.4661,-285.1319 632.8727,-284.954 641.043,-291.6992 643.4661,-285.1319"/>
</g>
<!-- Node25&#45;&gt;Node4 -->
<g id="edge43" class="edge">
<title>Node25&#45;&gt;Node4</title>
<path fill="none" stroke="#191970" d="M657.8467,-253.18C659.5624,-254.3408 661.221,-255.5714 662.8105,-256.8757 733.8861,-315.2 765.2872,-428.925 774.4216,-468.7175"/>
<polygon fill="#191970" stroke="#191970" points="659.2518,-249.9479 648.8496,-247.9368 655.7273,-255.9959 659.2518,-249.9479"/>
</g>
<!-- Node26&#45;&gt;Node4 -->
<g id="edge45" class="edge">
<title>Node26&#45;&gt;Node4</title>
<path fill="none" stroke="#191970" d="M658.6407,-206.5136C660.0811,-207.5762 661.4738,-208.6959 662.8105,-209.8757 745.0914,-282.4941 769.8334,-423.8669 775.7808,-468.8057"/>
<polygon fill="#191970" stroke="#191970" points="660.2545,-203.3938 649.9267,-201.0301 656.5263,-209.3184 660.2545,-203.3938"/>
</g>
<!-- Node27&#45;&gt;Node4 -->
<g id="edge47" class="edge">
<title>Node27&#45;&gt;Node4</title>
<path fill="none" stroke="#191970" d="M255.83,-182.6844C373.0014,-157.929 599.0957,-118.0152 662.8105,-162.8757 716.1273,-200.415 762.7905,-411.6218 774.5534,-468.672"/>
<polygon fill="#191970" stroke="#191970" points="254.9197,-179.2997 245.8692,-184.8078 256.3792,-186.1459 254.9197,-179.2997"/>
</g>
<!-- Node28&#45;&gt;Node4 -->
<g id="edge49" class="edge">
<title>Node28&#45;&gt;Node4</title>
<path fill="none" stroke="#191970" d="M242.5983,-146.0507C355.222,-126.5226 597.2444,-91.6087 662.8105,-138.8757 719.6183,-179.8287 764.2426,-409.4533 774.9488,-468.8491"/>
<polygon fill="#191970" stroke="#191970" points="241.6836,-142.6576 232.4381,-147.8317 242.8923,-149.5524 241.6836,-142.6576"/>
</g>
<!-- Node29&#45;&gt;Node4 -->
<g id="edge52" class="edge">
<title>Node29&#45;&gt;Node4</title>
<path fill="none" stroke="#191970" d="M262.6063,-103.4387C381.8267,-87.8179 601.4171,-66.5834 662.8105,-111.8757 723.432,-156.5985 765.5469,-406.0113 775.2631,-468.618"/>
<polygon fill="#191970" stroke="#191970" points="261.8963,-100.0021 252.4442,-104.7884 262.818,-106.9412 261.8963,-100.0021"/>
</g>
<!-- Node30&#45;&gt;Node31 -->
<g id="edge54" class="edge">
<title>Node30&#45;&gt;Node31</title>
<path fill="none" stroke="#191970" d="M258.566,-51.6824C277.9021,-47.4693 298.5692,-42.9663 317.3374,-38.877"/>
<polygon fill="#191970" stroke="#191970" points="257.6184,-48.3066 248.5928,-53.8554 259.1087,-55.1462 257.6184,-48.3066"/>
</g>
<!-- Node31&#45;&gt;Node4 -->
<g id="edge55" class="edge">
<title>Node31&#45;&gt;Node4</title>
<path fill="none" stroke="#191970" d="M469.7239,-9.9212C530.843,-4.7614 610.3731,-9.1434 662.8105,-53.8757 728.938,-110.2863 767.4819,-400.1841 775.7276,-468.4606"/>
<polygon fill="#191970" stroke="#191970" points="469.3228,-6.4434 459.6954,-10.8663 469.9797,-13.4125 469.3228,-6.4434"/>
</g>
<!-- Node32&#45;&gt;Node4 -->
<g id="edge57" class="edge">
<title>Node32&#45;&gt;Node4</title>
<path fill="none" stroke="#191970" d="M273.3694,-777.5916C394.57,-782.1803 603.138,-783.0279 662.8105,-738.8757 746.1873,-677.1846 770.1501,-540.9287 775.8477,-496.8957"/>
<polygon fill="#191970" stroke="#191970" points="273.4903,-774.0937 263.3601,-777.1966 273.2143,-781.0883 273.4903,-774.0937"/>
</g>
<!-- Node33&#45;&gt;Node4 -->
<g id="edge59" class="edge">
<title>Node33&#45;&gt;Node4</title>
<path fill="none" stroke="#191970" d="M255.5366,-741.7351C355.2568,-759.7412 538.1389,-777.1338 662.8105,-696.8757 736.8723,-649.1981 766.3837,-536.734 774.7235,-497.0456"/>
<polygon fill="#191970" stroke="#191970" points="256.0336,-738.2676 245.5624,-739.8817 254.7547,-745.1498 256.0336,-738.2676"/>
</g>
</g>
</svg>
        <g id="navigator" transform="translate(0 0)" fill="#404254">
                <rect fill="#f2f5e9" fill-opacity="0.5" stroke="#606060" stroke-width=".5" x="0" y="0" width="60" height="60"/>
                <use id="zoomplus" xlink:href="#zoomPlus" x="17" y="9" onmousedown="handleZoom(evt,'in')"/>
                <use id="zoomminus" xlink:href="#zoomMin" x="42" y="9" onmousedown="handleZoom(evt,'out')"/>
                <use id="reset" xlink:href="#resetDef" x="30" y="36" onmousedown="handleReset()"/>
                <g id="arrowUp" xlink:href="#dirArrow" transform="translate(30 24)" onmousedown="handlePan(0,-1)">
                  <use xlink:href="#rim" fill="#404040">
                        <set attributeName="fill" to="#808080" begin="arrowUp.mouseover" end="arrowUp.mouseout"/>
                  </use>
                  <path fill="none" stroke="white" stroke-width="1.5" d="M0,-3.0v7 M-2.5,-0.5L0,-3.0L2.5,-0.5"/>
                </g>
                <g id="arrowRight" xlink:href="#dirArrow" transform="rotate(90) translate(36 -43)" onmousedown="handlePan(1,0)">
                  <use xlink:href="#rim" fill="#404040">
                        <set attributeName="fill" to="#808080" begin="arrowRight.mouseover" end="arrowRight.mouseout"/>
                  </use>
                  <path fill="none" stroke="white" stroke-width="1.5" d="M0,-3.0v7 M-2.5,-0.5L0,-3.0L2.5,-0.5"/>
                </g>
                <g id="arrowDown" xlink:href="#dirArrow" transform="rotate(180) translate(-30 -48)" onmousedown="handlePan(0,1)">
                  <use xlink:href="#rim" fill="#404040">
                        <set attributeName="fill" to="#808080" begin="arrowDown.mouseover" end="arrowDown.mouseout"/>
                  </use>
                  <path fill="none" stroke="white" stroke-width="1.5" d="M0,-3.0v7 M-2.5,-0.5L0,-3.0L2.5,-0.5"/>
                </g>
                <g id="arrowLeft" xlink:href="#dirArrow" transform="rotate(270) translate(-36 17)" onmousedown="handlePan(-1,0)">
                  <use xlink:href="#rim" fill="#404040">
                        <set attributeName="fill" to="#808080" begin="arrowLeft.mouseover" end="arrowLeft.mouseout"/>
                  </use>
                  <path fill="none" stroke="white" stroke-width="1.5" d="M0,-3.0v7 M-2.5,-0.5L0,-3.0L2.5,-0.5"/>
                </g>
        </g>
        <svg viewBox="0 0 15 15" width="100%" height="30px" preserveAspectRatio="xMaxYMin meet">
         <g id="arrow_out" transform="scale(0.3 0.3)">
          <a xlink:href="classlocomotor_1_1components_1_1logging_1_1_error_handler_a75e8f6535bdb8db9a7d570e1b839af47_icgraph_org.svg" target="_base">
           <rect id="button" ry="5" rx="5" y="6" x="6" height="38" width="38"
                fill="#f2f5e9" fill-opacity="0.5" stroke="#606060" stroke-width="1.0"/>
           <path id="arrow"
             d="M 11.500037,31.436501 C 11.940474,20.09759 22.043105,11.32322 32.158766,21.979434 L 37.068811,17.246167 C 37.068811,17.246167 37.088388,32 37.088388,32 L 22.160133,31.978069 C 22.160133,31.978069 26.997745,27.140456 26.997745,27.140456 C 18.528582,18.264221 13.291696,25.230495 11.500037,31.436501 z"
             style="fill:#404040;"/>
          </a>
         </g>
        </svg>
</svg>
