<?xml version="1.0" encoding="UTF-8" standalone="no"?>
<!DOCTYPE svg PUBLIC "-//W3C//DTD SVG 1.1//EN"
 "http://www.w3.org/Graphics/SVG/1.1/DTD/svg11.dtd">
<!-- Generated by graphviz version 2.40.1 (20161225.0304)
 -->
<!-- Title: compare Pages: 1 -->
<svg width="245pt" height="84pt"
 viewBox="0.00 0.00 244.98 84.00" xmlns="http://www.w3.org/2000/svg" xmlns:xlink="http://www.w3.org/1999/xlink">
<g id="graph0" class="graph" transform="scale(1 1) rotate(0) translate(4 80)">
<title>compare</title>
<polygon fill="#ffffff" stroke="transparent" points="-4,4 -4,-80 240.9795,-80 240.9795,4 -4,4"/>
<!-- Node1 -->
<g id="node1" class="node">
<title>Node1</title>
<polygon fill="#bfbfbf" stroke="#000000" points="0,-28.5 0,-46.5 54.9063,-46.5 54.9063,-28.5 0,-28.5"/>
<text text-anchor="middle" x="27.4531" y="-34.5" font-family="Helvetica,sans-Serif" font-size="10.00" fill="#000000">compare</text>
</g>
<!-- Node2 -->
<g id="node2" class="node">
<title>Node2</title>
<g id="a_node2"><a xlink:href="classlocomotor_1_1components_1_1types_1_1_c_mapped_string_list.html#ae36471b20bdf46c47cf487ffe88a1e42" target="_top" xlink:title="locomotor.components.types.\lCMappedStringList.compare">
<polygon fill="#ffffff" stroke="#000000" points="90.9063,-47.5 90.9063,-75.5 236.9795,-75.5 236.9795,-47.5 90.9063,-47.5"/>
<text text-anchor="start" x="98.9063" y="-63.5" font-family="Helvetica,sans-Serif" font-size="10.00" fill="#000000">locomotor.components.types.</text>
<text text-anchor="middle" x="163.9429" y="-53.5" font-family="Helvetica,sans-Serif" font-size="10.00" fill="#000000">CMappedStringList.compare</text>
</a>
</g>
</g>
<!-- Node1&#45;&gt;Node2 -->
<g id="edge1" class="edge">
<title>Node1&#45;&gt;Node2</title>
<path fill="none" stroke="#191970" d="M64.9276,-44.0894C73.0549,-45.5185 81.9186,-47.0771 90.8937,-48.6552"/>
<polygon fill="#191970" stroke="#191970" points="65.5289,-40.6415 55.0739,-42.3568 64.3166,-47.5358 65.5289,-40.6415"/>
</g>
<!-- Node3 -->
<g id="node3" class="node">
<title>Node3</title>
<g id="a_node3"><a xlink:href="classlocomotor_1_1components_1_1types_1_1_c_tree.html#a46596b48ff97821f142f902f7ac6d471" target="_top" xlink:title="locomotor.components.types.\lCTree.compare">
<polygon fill="#ffffff" stroke="#000000" points="90.9063,-.5 90.9063,-28.5 236.9795,-28.5 236.9795,-.5 90.9063,-.5"/>
<text text-anchor="start" x="98.9063" y="-16.5" font-family="Helvetica,sans-Serif" font-size="10.00" fill="#000000">locomotor.components.types.</text>
<text text-anchor="middle" x="163.9429" y="-6.5" font-family="Helvetica,sans-Serif" font-size="10.00" fill="#000000">CTree.compare</text>
</a>
</g>
</g>
<!-- Node1&#45;&gt;Node3 -->
<g id="edge2" class="edge">
<title>Node1&#45;&gt;Node3</title>
<path fill="none" stroke="#191970" d="M65.1987,-31.1395C73.2519,-29.7824 82.0183,-28.3052 90.8937,-26.8096"/>
<polygon fill="#191970" stroke="#191970" points="64.3532,-27.7325 55.0739,-32.8456 65.5165,-34.6352 64.3532,-27.7325"/>
</g>
</g>
</svg>
