<?xml version="1.0" encoding="UTF-8" standalone="no"?>
<!DOCTYPE svg PUBLIC "-//W3C//DTD SVG 1.1//EN"
 "http://www.w3.org/Graphics/SVG/1.1/DTD/svg11.dtd">
<!-- Generated by graphviz version 2.40.1 (20161225.0304)
 -->
<!-- Title: CLong Pages: 1 -->
<svg width="347pt" height="192pt"
 viewBox="0.00 0.00 347.10 192.00" xmlns="http://www.w3.org/2000/svg" xmlns:xlink="http://www.w3.org/1999/xlink">
<g id="graph0" class="graph" transform="scale(1 1) rotate(0) translate(4 188)">
<title>CLong</title>
<polygon fill="#ffffff" stroke="transparent" points="-4,4 -4,-188 343.0957,-188 343.0957,4 -4,4"/>
<!-- Node1 -->
<g id="node1" class="node">
<title>Node1</title>
<polygon fill="#bfbfbf" stroke="#000000" points="141.9556,-.5 141.9556,-18.5 187.4233,-18.5 187.4233,-.5 141.9556,-.5"/>
<text text-anchor="middle" x="164.6895" y="-6.5" font-family="Helvetica,sans-Serif" font-size="10.00" fill="#000000">CLong</text>
</g>
<!-- Node2 -->
<g id="node2" class="node">
<title>Node2</title>
<g id="a_node2"><a xlink:href="interfacelocomotor_1_1components_1_1types_1_1_c_item_type.html" target="_top" xlink:title="CItemType">
<polygon fill="#ffffff" stroke="#000000" points="132.5122,-55.5 132.5122,-73.5 196.8667,-73.5 196.8667,-55.5 132.5122,-55.5"/>
<text text-anchor="middle" x="164.6895" y="-61.5" font-family="Helvetica,sans-Serif" font-size="10.00" fill="#000000">CItemType</text>
</a>
</g>
</g>
<!-- Node2&#45;&gt;Node1 -->
<g id="edge1" class="edge">
<title>Node2&#45;&gt;Node1</title>
<path fill="none" stroke="#191970" d="M164.6895,-45.383C164.6895,-36.3738 164.6895,-26.0373 164.6895,-18.7795"/>
<polygon fill="#191970" stroke="#191970" points="161.1896,-45.4178 164.6895,-55.4179 168.1896,-45.4179 161.1896,-45.4178"/>
</g>
<!-- Node3 -->
<g id="node3" class="node">
<title>Node3</title>
<g id="a_node3"><a xlink:href="interfacelocomotor_1_1components_1_1types_1_1_c_comparable_type.html" target="_top" xlink:title="CComparableType">
<polygon fill="#ffffff" stroke="#000000" points="0,-110.5 0,-128.5 99.3789,-128.5 99.3789,-110.5 0,-110.5"/>
<text text-anchor="middle" x="49.6895" y="-116.5" font-family="Helvetica,sans-Serif" font-size="10.00" fill="#000000">CComparableType</text>
</a>
</g>
</g>
<!-- Node3&#45;&gt;Node2 -->
<g id="edge2" class="edge">
<title>Node3&#45;&gt;Node2</title>
<path fill="none" stroke="#191970" d="M77.7989,-106.0563C98.8851,-95.9716 127.1836,-82.4376 145.6713,-73.5956"/>
<polygon fill="#191970" stroke="#191970" points="76.1906,-102.9458 68.6794,-110.4179 79.2108,-109.2607 76.1906,-102.9458"/>
</g>
<!-- Node4 -->
<g id="node4" class="node">
<title>Node4</title>
<g id="a_node4"><a xlink:href="interfacelocomotor_1_1components_1_1types_1_1_c_type.html" target="_top" xlink:title="CType">
<polygon fill="#ffffff" stroke="#000000" points="27.2363,-165.5 27.2363,-183.5 72.1426,-183.5 72.1426,-165.5 27.2363,-165.5"/>
<text text-anchor="middle" x="49.6895" y="-171.5" font-family="Helvetica,sans-Serif" font-size="10.00" fill="#000000">CType</text>
</a>
</g>
</g>
<!-- Node4&#45;&gt;Node3 -->
<g id="edge3" class="edge">
<title>Node4&#45;&gt;Node3</title>
<path fill="none" stroke="#191970" d="M49.6895,-155.383C49.6895,-146.3738 49.6895,-136.0373 49.6895,-128.7795"/>
<polygon fill="#191970" stroke="#191970" points="46.1896,-155.4178 49.6895,-165.4179 53.1896,-155.4179 46.1896,-155.4178"/>
</g>
<!-- Node5 -->
<g id="node5" class="node">
<title>Node5</title>
<g id="a_node5"><a xlink:href="interfacelocomotor_1_1components_1_1_j_s_o_n_displayable.html" target="_top" xlink:title="JSONDisplayable">
<polygon fill="#ffffff" stroke="#000000" points="117.5073,-110.5 117.5073,-128.5 211.8716,-128.5 211.8716,-110.5 117.5073,-110.5"/>
<text text-anchor="middle" x="164.6895" y="-116.5" font-family="Helvetica,sans-Serif" font-size="10.00" fill="#000000">JSONDisplayable</text>
</a>
</g>
</g>
<!-- Node5&#45;&gt;Node2 -->
<g id="edge4" class="edge">
<title>Node5&#45;&gt;Node2</title>
<path fill="none" stroke="#191970" d="M164.6895,-100.383C164.6895,-91.3738 164.6895,-81.0373 164.6895,-73.7795"/>
<polygon fill="#191970" stroke="#191970" points="161.1896,-100.4178 164.6895,-110.4179 168.1896,-100.4179 161.1896,-100.4178"/>
</g>
<!-- Node6 -->
<g id="node6" class="node">
<title>Node6</title>
<g id="a_node6"><a xlink:href="interfacelocomotor_1_1components_1_1_j_s_o_n_convertissable.html" target="_top" xlink:title="JSONConvertissable">
<polygon fill="#ffffff" stroke="#000000" points="230.2832,-110.5 230.2832,-128.5 339.0957,-128.5 339.0957,-110.5 230.2832,-110.5"/>
<text text-anchor="middle" x="284.6895" y="-116.5" font-family="Helvetica,sans-Serif" font-size="10.00" fill="#000000">JSONConvertissable</text>
</a>
</g>
</g>
<!-- Node6&#45;&gt;Node2 -->
<g id="edge5" class="edge">
<title>Node6&#45;&gt;Node2</title>
<path fill="none" stroke="#191970" d="M255.6547,-106.1924C233.6211,-96.0937 203.9129,-82.4774 184.5345,-73.5956"/>
<polygon fill="#191970" stroke="#191970" points="254.3249,-109.433 264.8739,-110.4179 257.2415,-103.0695 254.3249,-109.433"/>
</g>
</g>
</svg>
