<?xml version="1.0" encoding="UTF-8" standalone="no"?>
<!DOCTYPE svg PUBLIC "-//W3C//DTD SVG 1.1//EN"
 "http://www.w3.org/Graphics/SVG/1.1/DTD/svg11.dtd">
<!-- Generated by graphviz version 2.40.1 (20161225.0304)
 -->
<!-- Title: intervalValue Pages: 1 -->
<!--zoomable 75 -->
<svg id="main" version="1.1" xmlns="http://www.w3.org/2000/svg" xmlns:xlink="http://www.w3.org/1999/xlink" xml:space="preserve" onload="init(evt)">
<style type="text/css"><![CDATA[
.edge:hover path { stroke: red; }
.edge:hover polygon { stroke: red; fill: red; }
]]></style>
<script type="text/javascript"><![CDATA[
var edges = document.getElementsByTagName('g');
if (edges && edges.length) {
  for (var i=0;i<edges.length;i++) {
    if (edges[i].id.substr(0,4)=='edge') {
      edges[i].setAttribute('class','edge');
    }
  }
}
]]></script>
        <defs>
                <circle id="rim" cx="0" cy="0" r="7"/>
                <circle id="rim2" cx="0" cy="0" r="3.5"/>
                <g id="zoomPlus">
                        <use xlink:href="#rim" fill="#404040">
                                <set attributeName="fill" to="#808080" begin="zoomplus.mouseover" end="zoomplus.mouseout"/>
                        </use>
                        <path d="M-4,0h8M0,-4v8" fill="none" stroke="white" stroke-width="1.5" pointer-events="none"/>
                </g>
                <g id="zoomMin">
                        <use xlink:href="#rim" fill="#404040">
                                <set attributeName="fill" to="#808080" begin="zoomminus.mouseover" end="zoomminus.mouseout"/>
                        </use>
                        <path d="M-4,0h8" fill="none" stroke="white" stroke-width="1.5" pointer-events="none"/>
                </g>
                <g id="dirArrow">
                        <path fill="none" stroke="white" stroke-width="1.5" d="M0,-3.0v7 M-2.5,-0.5L0,-3.0L2.5,-0.5"/>
                </g>
               <g id="resetDef">
                       <use xlink:href="#rim2" fill="#404040">
                               <set attributeName="fill" to="#808080" begin="reset.mouseover" end="reset.mouseout"/>
                       </use>
               </g>
        </defs>

<script type="text/javascript">
var viewWidth = 798;
var viewHeight = 75;
var sectionId = 'dynsection-4';
</script>
<script xlink:href="svgpan.js"/>
<svg id="graph" class="graph">
<g id="viewport">
<title>intervalValue</title>
<polygon fill="#ffffff" stroke="transparent" points="-4,4 -4,-71 793.6934,-71 793.6934,4 -4,4"/>
<!-- Node1 -->
<g id="node1" class="node">
<title>Node1</title>
<polygon fill="#bfbfbf" stroke="#000000" points="0,-21.5 0,-39.5 73.0752,-39.5 73.0752,-21.5 0,-21.5"/>
<text text-anchor="middle" x="36.5376" y="-27.5" font-family="Helvetica,sans-Serif" font-size="10.00" fill="#000000">intervalValue</text>
</g>
<!-- Node2 -->
<g id="node2" class="node">
<title>Node2</title>
<g id="a_node2"><a xlink:href="classlocomotor_1_1core_1_1_gaussian.html#a2a6f2336ca6a2ad6a5406575827bbb56" target="_top" xlink:title="locomotor.core.Gaussian.get\lInstance">
<polygon fill="#ffffff" stroke="#000000" points="109.0752,-38.5 109.0752,-66.5 252.3701,-66.5 252.3701,-38.5 109.0752,-38.5"/>
<text text-anchor="start" x="117.0752" y="-54.5" font-family="Helvetica,sans-Serif" font-size="10.00" fill="#000000">locomotor.core.Gaussian.get</text>
<text text-anchor="middle" x="180.7227" y="-44.5" font-family="Helvetica,sans-Serif" font-size="10.00" fill="#000000">Instance</text>
</a>
</g>
</g>
<!-- Node1&#45;&gt;Node2 -->
<g id="edge1" class="edge">
<title>Node1&#45;&gt;Node2</title>
<path fill="none" stroke="#191970" d="M73.2946,-36.1085C81.2359,-37.3201 89.9371,-38.6478 98.8414,-40.0064"/>
<polygon fill="#191970" stroke="#191970" points="98.5375,-43.5005 108.9511,-41.549 99.5934,-36.5806 98.5375,-43.5005"/>
</g>
<!-- Node6 -->
<g id="node6" class="node">
<title>Node6</title>
<g id="a_node6"><a xlink:href="classlocomotor_1_1core_1_1_gaussian.html#ab70945dfe6d593e49a767670c903e653" target="_top" xlink:title="locomotor.core.Gaussian.cdf">
<polygon fill="#ffffff" stroke="#000000" points="288.3701,-.5 288.3701,-18.5 431.1035,-18.5 431.1035,-.5 288.3701,-.5"/>
<text text-anchor="middle" x="359.7368" y="-6.5" font-family="Helvetica,sans-Serif" font-size="10.00" fill="#000000">locomotor.core.Gaussian.cdf</text>
</a>
</g>
</g>
<!-- Node1&#45;&gt;Node6 -->
<g id="edge5" class="edge">
<title>Node1&#45;&gt;Node6</title>
<path fill="none" stroke="#191970" d="M73.298,-28.1115C122.7681,-24.8971 212.1469,-19.0897 277.9501,-14.8141"/>
<polygon fill="#191970" stroke="#191970" points="278.547,-18.2828 288.299,-14.1417 278.093,-11.2975 278.547,-18.2828"/>
</g>
<!-- Node3 -->
<g id="node3" class="node">
<title>Node3</title>
<g id="a_node3"><a xlink:href="classlocomotor_1_1core_1_1_gaussian.html#aa4cd1241f20f836cbf5facbf2d8379e4" target="_top" xlink:title="locomotor.core.Gaussian.\lGaussian">
<polygon fill="#ffffff" stroke="#000000" points="295.04,-37.5 295.04,-65.5 424.4336,-65.5 424.4336,-37.5 295.04,-37.5"/>
<text text-anchor="start" x="303.04" y="-53.5" font-family="Helvetica,sans-Serif" font-size="10.00" fill="#000000">locomotor.core.Gaussian.</text>
<text text-anchor="middle" x="359.7368" y="-43.5" font-family="Helvetica,sans-Serif" font-size="10.00" fill="#000000">Gaussian</text>
</a>
</g>
</g>
<!-- Node2&#45;&gt;Node3 -->
<g id="edge2" class="edge">
<title>Node2&#45;&gt;Node3</title>
<path fill="none" stroke="#191970" d="M252.5031,-52.099C263.1179,-52.0397 274.0791,-51.9785 284.757,-51.9188"/>
<polygon fill="#191970" stroke="#191970" points="284.9069,-55.4182 294.8871,-51.8623 284.8677,-48.4183 284.9069,-55.4182"/>
</g>
<!-- Node4 -->
<g id="node4" class="node">
<title>Node4</title>
<g id="a_node4"><a xlink:href="classlocomotor_1_1core_1_1_gaussian.html#aaa66f1ce25c09e6e7cbd82c46ba0b4ae" target="_top" xlink:title="locomotor.core.Gaussian.pdf">
<polygon fill="#ffffff" stroke="#000000" points="467.1035,-41.5 467.1035,-59.5 610.3984,-59.5 610.3984,-41.5 467.1035,-41.5"/>
<text text-anchor="middle" x="538.751" y="-47.5" font-family="Helvetica,sans-Serif" font-size="10.00" fill="#000000">locomotor.core.Gaussian.pdf</text>
</a>
</g>
</g>
<!-- Node3&#45;&gt;Node4 -->
<g id="edge3" class="edge">
<title>Node3&#45;&gt;Node4</title>
<path fill="none" stroke="#191970" d="M424.6181,-51.1376C435.0064,-51.0795 445.8746,-51.0188 456.6009,-50.9589"/>
<polygon fill="#191970" stroke="#191970" points="456.8408,-54.4577 466.8211,-50.9018 456.8017,-47.4578 456.8408,-54.4577"/>
</g>
<!-- Node5 -->
<g id="node5" class="node">
<title>Node5</title>
<g id="a_node5"><a xlink:href="classlocomotor_1_1core_1_1_gaussian.html#afd611f311f6fe230f8fad8bd0c7e0a51" target="_top" xlink:title="locomotor.core.Gaussian.get\lNearestStep">
<polygon fill="#ffffff" stroke="#000000" points="646.3984,-16.5 646.3984,-44.5 789.6934,-44.5 789.6934,-16.5 646.3984,-16.5"/>
<text text-anchor="start" x="654.3984" y="-32.5" font-family="Helvetica,sans-Serif" font-size="10.00" fill="#000000">locomotor.core.Gaussian.get</text>
<text text-anchor="middle" x="718.0459" y="-22.5" font-family="Helvetica,sans-Serif" font-size="10.00" fill="#000000">NearestStep</text>
</a>
</g>
</g>
<!-- Node4&#45;&gt;Node5 -->
<g id="edge4" class="edge">
<title>Node4&#45;&gt;Node5</title>
<path fill="none" stroke="#191970" d="M610.644,-42.4805C619.0468,-41.5432 627.6665,-40.5816 636.1914,-39.6307"/>
<polygon fill="#191970" stroke="#191970" points="636.5864,-43.1084 646.1368,-38.5213 635.8104,-36.1516 636.5864,-43.1084"/>
</g>
<!-- Node6&#45;&gt;Node5 -->
<g id="edge6" class="edge">
<title>Node6&#45;&gt;Node5</title>
<path fill="none" stroke="#191970" d="M431.3848,-13.6992C490.4857,-17.163 574.3561,-22.0785 636.115,-25.6981"/>
<polygon fill="#191970" stroke="#191970" points="636.028,-29.199 646.2157,-26.2901 636.4376,-22.211 636.028,-29.199"/>
</g>
</g>
</svg>
        <g id="navigator" transform="translate(0 0)" fill="#404254">
                <rect fill="#f2f5e9" fill-opacity="0.5" stroke="#606060" stroke-width=".5" x="0" y="0" width="60" height="60"/>
                <use id="zoomplus" xlink:href="#zoomPlus" x="17" y="9" onmousedown="handleZoom(evt,'in')"/>
                <use id="zoomminus" xlink:href="#zoomMin" x="42" y="9" onmousedown="handleZoom(evt,'out')"/>
                <use id="reset" xlink:href="#resetDef" x="30" y="36" onmousedown="handleReset()"/>
                <g id="arrowUp" xlink:href="#dirArrow" transform="translate(30 24)" onmousedown="handlePan(0,-1)">
                  <use xlink:href="#rim" fill="#404040">
                        <set attributeName="fill" to="#808080" begin="arrowUp.mouseover" end="arrowUp.mouseout"/>
                  </use>
                  <path fill="none" stroke="white" stroke-width="1.5" d="M0,-3.0v7 M-2.5,-0.5L0,-3.0L2.5,-0.5"/>
                </g>
                <g id="arrowRight" xlink:href="#dirArrow" transform="rotate(90) translate(36 -43)" onmousedown="handlePan(1,0)">
                  <use xlink:href="#rim" fill="#404040">
                        <set attributeName="fill" to="#808080" begin="arrowRight.mouseover" end="arrowRight.mouseout"/>
                  </use>
                  <path fill="none" stroke="white" stroke-width="1.5" d="M0,-3.0v7 M-2.5,-0.5L0,-3.0L2.5,-0.5"/>
                </g>
                <g id="arrowDown" xlink:href="#dirArrow" transform="rotate(180) translate(-30 -48)" onmousedown="handlePan(0,1)">
                  <use xlink:href="#rim" fill="#404040">
                        <set attributeName="fill" to="#808080" begin="arrowDown.mouseover" end="arrowDown.mouseout"/>
                  </use>
                  <path fill="none" stroke="white" stroke-width="1.5" d="M0,-3.0v7 M-2.5,-0.5L0,-3.0L2.5,-0.5"/>
                </g>
                <g id="arrowLeft" xlink:href="#dirArrow" transform="rotate(270) translate(-36 17)" onmousedown="handlePan(-1,0)">
                  <use xlink:href="#rim" fill="#404040">
                        <set attributeName="fill" to="#808080" begin="arrowLeft.mouseover" end="arrowLeft.mouseout"/>
                  </use>
                  <path fill="none" stroke="white" stroke-width="1.5" d="M0,-3.0v7 M-2.5,-0.5L0,-3.0L2.5,-0.5"/>
                </g>
        </g>
        <svg viewBox="0 0 15 15" width="100%" height="30px" preserveAspectRatio="xMaxYMin meet">
         <g id="arrow_out" transform="scale(0.3 0.3)">
          <a xlink:href="classlocomotor_1_1components_1_1_compare_af1d05ce01ba9906df55e7a4976e44cc9_cgraph_org.svg" target="_base">
           <rect id="button" ry="5" rx="5" y="6" x="6" height="38" width="38"
                fill="#f2f5e9" fill-opacity="0.5" stroke="#606060" stroke-width="1.0"/>
           <path id="arrow"
             d="M 11.500037,31.436501 C 11.940474,20.09759 22.043105,11.32322 32.158766,21.979434 L 37.068811,17.246167 C 37.068811,17.246167 37.088388,32 37.088388,32 L 22.160133,31.978069 C 22.160133,31.978069 26.997745,27.140456 26.997745,27.140456 C 18.528582,18.264221 13.291696,25.230495 11.500037,31.436501 z"
             style="fill:#404040;"/>
          </a>
         </g>
        </svg>
</svg>
