<?xml version="1.0" encoding="UTF-8" standalone="no"?>
<!DOCTYPE svg PUBLIC "-//W3C//DTD SVG 1.1//EN"
 "http://www.w3.org/Graphics/SVG/1.1/DTD/svg11.dtd">
<!-- Generated by graphviz version 2.40.1 (20161225.0304)
 -->
<!-- Title: changeUsername Pages: 1 -->
<svg width="484pt" height="121pt"
 viewBox="0.00 0.00 483.78 121.00" xmlns="http://www.w3.org/2000/svg" xmlns:xlink="http://www.w3.org/1999/xlink">
<g id="graph0" class="graph" transform="scale(1 1) rotate(0) translate(4 117)">
<title>changeUsername</title>
<polygon fill="#ffffff" stroke="transparent" points="-4,4 -4,-117 479.7813,-117 479.7813,4 -4,4"/>
<!-- Node1 -->
<g id="node1" class="node">
<title>Node1</title>
<polygon fill="#bfbfbf" stroke="#000000" points="0,-42.5 0,-60.5 94.9355,-60.5 94.9355,-42.5 0,-42.5"/>
<text text-anchor="middle" x="47.4678" y="-48.5" font-family="Helvetica,sans-Serif" font-size="10.00" fill="#000000">changeUsername</text>
</g>
<!-- Node2 -->
<g id="node2" class="node">
<title>Node2</title>
<g id="a_node2"><a xlink:href="classlocomotor_1_1components_1_1logging_1_1_error_handler.html#a75e8f6535bdb8db9a7d570e1b839af47" target="_top" xlink:title="locomotor.components.logging.\lErrorHandler.getInstance">
<polygon fill="#ffffff" stroke="#000000" points="130.9355,-84.5 130.9355,-112.5 285.3584,-112.5 285.3584,-84.5 130.9355,-84.5"/>
<text text-anchor="start" x="138.9355" y="-100.5" font-family="Helvetica,sans-Serif" font-size="10.00" fill="#000000">locomotor.components.logging.</text>
<text text-anchor="middle" x="208.147" y="-90.5" font-family="Helvetica,sans-Serif" font-size="10.00" fill="#000000">ErrorHandler.getInstance</text>
</a>
</g>
</g>
<!-- Node1&#45;&gt;Node2 -->
<g id="edge1" class="edge">
<title>Node1&#45;&gt;Node2</title>
<path fill="none" stroke="#191970" d="M78.4483,-60.5621C98.8068,-66.5171 126.0693,-74.4916 150.3448,-81.5924"/>
<polygon fill="#191970" stroke="#191970" points="149.6023,-85.0218 160.1827,-84.4701 151.5675,-78.3033 149.6023,-85.0218"/>
</g>
<!-- Node3 -->
<g id="node3" class="node">
<title>Node3</title>
<g id="a_node3"><a xlink:href="classlocomotor_1_1components_1_1logging_1_1_error_handler.html#abd00a9c37627740763cef91d76a77437" target="_top" xlink:title="locomotor.components.logging.\lErrorHandler.push">
<polygon fill="#ffffff" stroke="#000000" points="130.9355,-37.5 130.9355,-65.5 285.3584,-65.5 285.3584,-37.5 130.9355,-37.5"/>
<text text-anchor="start" x="138.9355" y="-53.5" font-family="Helvetica,sans-Serif" font-size="10.00" fill="#000000">locomotor.components.logging.</text>
<text text-anchor="middle" x="208.147" y="-43.5" font-family="Helvetica,sans-Serif" font-size="10.00" fill="#000000">ErrorHandler.push</text>
</a>
</g>
</g>
<!-- Node1&#45;&gt;Node3 -->
<g id="edge2" class="edge">
<title>Node1&#45;&gt;Node3</title>
<path fill="none" stroke="#191970" d="M95.2418,-51.5C103.2871,-51.5 111.8568,-51.5 120.5407,-51.5"/>
<polygon fill="#191970" stroke="#191970" points="120.7627,-55.0001 130.7627,-51.5 120.7627,-48.0001 120.7627,-55.0001"/>
</g>
<!-- Node5 -->
<g id="node5" class="node">
<title>Node5</title>
<g id="a_node5"><a xlink:href="classlocomotor_1_1core_1_1_d_b_h.html#aaf30c71e17b7eba3eb56a3b121089e53" target="_top" xlink:title="usernameAlreadyTaken">
<polygon fill="#ffffff" stroke="#000000" points="147.6177,-.5 147.6177,-18.5 268.6763,-18.5 268.6763,-.5 147.6177,-.5"/>
<text text-anchor="middle" x="208.147" y="-6.5" font-family="Helvetica,sans-Serif" font-size="10.00" fill="#000000">usernameAlreadyTaken</text>
</a>
</g>
</g>
<!-- Node1&#45;&gt;Node5 -->
<g id="edge4" class="edge">
<title>Node1&#45;&gt;Node5</title>
<path fill="none" stroke="#191970" d="M79.5174,-42.4459C95.0213,-38.123 113.9183,-32.9375 130.9355,-28.5 140.4531,-26.0182 150.6538,-23.446 160.42,-21.0261"/>
<polygon fill="#191970" stroke="#191970" points="161.5207,-24.3597 170.3934,-18.5696 159.8465,-17.5629 161.5207,-24.3597"/>
</g>
<!-- Node4 -->
<g id="node4" class="node">
<title>Node4</title>
<g id="a_node4"><a xlink:href="classlocomotor_1_1components_1_1logging_1_1_error_context.html#afcf30b71bfc65c74878c7ab77c951842" target="_top" xlink:title="locomotor.components.logging.\lErrorContext.push">
<polygon fill="#ffffff" stroke="#000000" points="321.3584,-37.5 321.3584,-65.5 475.7813,-65.5 475.7813,-37.5 321.3584,-37.5"/>
<text text-anchor="start" x="329.3584" y="-53.5" font-family="Helvetica,sans-Serif" font-size="10.00" fill="#000000">locomotor.components.logging.</text>
<text text-anchor="middle" x="398.5698" y="-43.5" font-family="Helvetica,sans-Serif" font-size="10.00" fill="#000000">ErrorContext.push</text>
</a>
</g>
</g>
<!-- Node3&#45;&gt;Node4 -->
<g id="edge3" class="edge">
<title>Node3&#45;&gt;Node4</title>
<path fill="none" stroke="#191970" d="M285.5992,-51.5C293.9445,-51.5 302.4784,-51.5 310.9322,-51.5"/>
<polygon fill="#191970" stroke="#191970" points="311.1862,-55.0001 321.1862,-51.5 311.1862,-48.0001 311.1862,-55.0001"/>
</g>
</g>
</svg>
