<?xml version="1.0" encoding="UTF-8" standalone="no"?>
<!DOCTYPE svg PUBLIC "-//W3C//DTD SVG 1.1//EN"
 "http://www.w3.org/Graphics/SVG/1.1/DTD/svg11.dtd">
<!-- Generated by graphviz version 2.40.1 (20161225.0304)
 -->
<!-- Title: fromJSON Pages: 1 -->
<svg width="253pt" height="74pt"
 viewBox="0.00 0.00 252.74 74.00" xmlns="http://www.w3.org/2000/svg" xmlns:xlink="http://www.w3.org/1999/xlink">
<g id="graph0" class="graph" transform="scale(1 1) rotate(0) translate(4 70)">
<title>fromJSON</title>
<polygon fill="#ffffff" stroke="transparent" points="-4,4 -4,-70 248.7432,-70 248.7432,4 -4,4"/>
<!-- Node1 -->
<g id="node1" class="node">
<title>Node1</title>
<polygon fill="#bfbfbf" stroke="#000000" points="0,-21.5 0,-39.5 62.6699,-39.5 62.6699,-21.5 0,-21.5"/>
<text text-anchor="middle" x="31.335" y="-27.5" font-family="Helvetica,sans-Serif" font-size="10.00" fill="#000000">fromJSON</text>
</g>
<!-- Node2 -->
<g id="node2" class="node">
<title>Node2</title>
<g id="a_node2"><a xlink:href="classlocomotor_1_1components_1_1types_1_1_c_long.html#aef23d6d36c93f0f66355edabbc586fd4" target="_top" xlink:title="locomotor.components.types.\lCLong.value">
<polygon fill="#ffffff" stroke="#000000" points="98.6699,-37.5 98.6699,-65.5 244.7432,-65.5 244.7432,-37.5 98.6699,-37.5"/>
<text text-anchor="start" x="106.6699" y="-53.5" font-family="Helvetica,sans-Serif" font-size="10.00" fill="#000000">locomotor.components.types.</text>
<text text-anchor="middle" x="171.7065" y="-43.5" font-family="Helvetica,sans-Serif" font-size="10.00" fill="#000000">CLong.value</text>
</a>
</g>
</g>
<!-- Node1&#45;&gt;Node2 -->
<g id="edge1" class="edge">
<title>Node1&#45;&gt;Node2</title>
<path fill="none" stroke="#191970" d="M62.8371,-35.2128C70.6728,-36.3851 79.444,-37.6972 88.5155,-39.0544"/>
<polygon fill="#191970" stroke="#191970" points="88.0391,-42.522 98.4469,-40.5401 89.0749,-35.599 88.0391,-42.522"/>
</g>
<!-- Node3 -->
<g id="node3" class="node">
<title>Node3</title>
<g id="a_node3"><a xlink:href="classlocomotor_1_1components_1_1types_1_1_c_integer.html#a4af1398e767f4254cc4865f7b8fd9e3e" target="_top" xlink:title="CInteger">
<polygon fill="#ffffff" stroke="#000000" points="144.5293,-.5 144.5293,-18.5 198.8838,-18.5 198.8838,-.5 144.5293,-.5"/>
<text text-anchor="middle" x="171.7065" y="-6.5" font-family="Helvetica,sans-Serif" font-size="10.00" fill="#000000">CInteger</text>
</a>
</g>
</g>
<!-- Node1&#45;&gt;Node3 -->
<g id="edge2" class="edge">
<title>Node1&#45;&gt;Node3</title>
<path fill="none" stroke="#191970" d="M62.8371,-25.7872C83.911,-22.6345 111.7515,-18.4695 134.0033,-15.1405"/>
<polygon fill="#191970" stroke="#191970" points="134.7338,-18.5703 144.1058,-13.6291 133.698,-11.6473 134.7338,-18.5703"/>
</g>
</g>
</svg>
