<?xml version="1.0" encoding="UTF-8" standalone="no"?>
<!DOCTYPE svg PUBLIC "-//W3C//DTD SVG 1.1//EN"
 "http://www.w3.org/Graphics/SVG/1.1/DTD/svg11.dtd">
<!-- Generated by graphviz version 2.40.1 (20161225.0304)
 -->
<!-- Title: CInterval&lt; T extends Number &gt; Pages: 1 -->
<svg width="359pt" height="202pt"
 viewBox="0.00 0.00 358.60 202.00" xmlns="http://www.w3.org/2000/svg" xmlns:xlink="http://www.w3.org/1999/xlink">
<g id="graph0" class="graph" transform="scale(1 1) rotate(0) translate(4 198)">
<title>CInterval&lt; T extends Number &gt;</title>
<polygon fill="#ffffff" stroke="transparent" points="-4,4 -4,-198 354.5991,-198 354.5991,4 -4,4"/>
<!-- Node1 -->
<g id="node1" class="node">
<title>Node1</title>
<polygon fill="#bfbfbf" stroke="#000000" points="108.0966,-.5 108.0966,-28.5 216.289,-28.5 216.289,-.5 108.0966,-.5"/>
<text text-anchor="start" x="116.0966" y="-16.5" font-family="Helvetica,sans-Serif" font-size="10.00" fill="#000000">CInterval&lt; T extends</text>
<text text-anchor="middle" x="162.1928" y="-6.5" font-family="Helvetica,sans-Serif" font-size="10.00" fill="#000000"> Number &gt;</text>
</g>
<!-- Node2 -->
<g id="node2" class="node">
<title>Node2</title>
<g id="a_node2"><a xlink:href="interfacelocomotor_1_1components_1_1types_1_1_c_universe_type.html" target="_top" xlink:title="CUniverseType">
<polygon fill="#ffffff" stroke="#000000" points="17.0107,-65.5 17.0107,-83.5 101.3749,-83.5 101.3749,-65.5 17.0107,-65.5"/>
<text text-anchor="middle" x="59.1928" y="-71.5" font-family="Helvetica,sans-Serif" font-size="10.00" fill="#000000">CUniverseType</text>
</a>
</g>
</g>
<!-- Node2&#45;&gt;Node1 -->
<g id="edge1" class="edge">
<title>Node2&#45;&gt;Node1</title>
<path fill="none" stroke="#191970" d="M83.8269,-60.15C100.2169,-50.6025 121.6489,-38.1178 137.9564,-28.6183"/>
<polygon fill="#191970" stroke="#191970" points="81.7154,-57.3295 74.8363,-65.3873 85.2389,-63.378 81.7154,-57.3295"/>
</g>
<!-- Node3 -->
<g id="node3" class="node">
<title>Node3</title>
<g id="a_node3"><a xlink:href="interfacelocomotor_1_1components_1_1types_1_1_c_type.html" target="_top" xlink:title="CType">
<polygon fill="#ffffff" stroke="#000000" points="56.7397,-175.5 56.7397,-193.5 101.6459,-193.5 101.6459,-175.5 56.7397,-175.5"/>
<text text-anchor="middle" x="79.1928" y="-181.5" font-family="Helvetica,sans-Serif" font-size="10.00" fill="#000000">CType</text>
</a>
</g>
</g>
<!-- Node3&#45;&gt;Node2 -->
<g id="edge2" class="edge">
<title>Node3&#45;&gt;Node2</title>
<path fill="none" stroke="#191970" d="M46.6735,-173.8103C30.5431,-166.6728 12.5499,-155.5079 3.1928,-139 -9.3851,-116.8101 20.2178,-95.3215 40.999,-83.6088"/>
<polygon fill="#191970" stroke="#191970" points="45.7999,-177.2328 56.3823,-177.7457 48.4295,-170.7454 45.7999,-177.2328"/>
</g>
<!-- Node6 -->
<g id="node6" class="node">
<title>Node6</title>
<g id="a_node6"><a xlink:href="interfacelocomotor_1_1components_1_1types_1_1_c_comparable_type.html" target="_top" xlink:title="CComparableType">
<polygon fill="#ffffff" stroke="#000000" points="124.5034,-120.5 124.5034,-138.5 223.8823,-138.5 223.8823,-120.5 124.5034,-120.5"/>
<text text-anchor="middle" x="174.1928" y="-126.5" font-family="Helvetica,sans-Serif" font-size="10.00" fill="#000000">CComparableType</text>
</a>
</g>
</g>
<!-- Node3&#45;&gt;Node6 -->
<g id="edge6" class="edge">
<title>Node3&#45;&gt;Node6</title>
<path fill="none" stroke="#191970" d="M103.8388,-170.2313C121.0904,-160.2435 143.6225,-147.1986 158.4822,-138.5956"/>
<polygon fill="#191970" stroke="#191970" points="101.7808,-167.3785 94.8801,-175.4179 105.288,-173.4365 101.7808,-167.3785"/>
</g>
<!-- Node4 -->
<g id="node4" class="node">
<title>Node4</title>
<g id="a_node4"><a xlink:href="interfacelocomotor_1_1components_1_1_j_s_o_n_displayable.html" target="_top" xlink:title="JSONDisplayable">
<polygon fill="#ffffff" stroke="#000000" points="12.0107,-120.5 12.0107,-138.5 106.3749,-138.5 106.3749,-120.5 12.0107,-120.5"/>
<text text-anchor="middle" x="59.1928" y="-126.5" font-family="Helvetica,sans-Serif" font-size="10.00" fill="#000000">JSONDisplayable</text>
</a>
</g>
</g>
<!-- Node4&#45;&gt;Node2 -->
<g id="edge3" class="edge">
<title>Node4&#45;&gt;Node2</title>
<path fill="none" stroke="#191970" d="M59.1928,-110.383C59.1928,-101.3738 59.1928,-91.0373 59.1928,-83.7795"/>
<polygon fill="#191970" stroke="#191970" points="55.6929,-110.4178 59.1928,-120.4179 62.6929,-110.4179 55.6929,-110.4178"/>
</g>
<!-- Node5 -->
<g id="node5" class="node">
<title>Node5</title>
<g id="a_node5"><a xlink:href="interfacelocomotor_1_1components_1_1types_1_1_c_item_type.html" target="_top" xlink:title="CItemType">
<polygon fill="#ffffff" stroke="#000000" points="130.0156,-65.5 130.0156,-83.5 194.37,-83.5 194.37,-65.5 130.0156,-65.5"/>
<text text-anchor="middle" x="162.1928" y="-71.5" font-family="Helvetica,sans-Serif" font-size="10.00" fill="#000000">CItemType</text>
</a>
</g>
</g>
<!-- Node4&#45;&gt;Node5 -->
<g id="edge7" class="edge">
<title>Node4&#45;&gt;Node5</title>
<path fill="none" stroke="#191970" d="M85.1383,-115.6456C103.9384,-105.6067 128.8244,-92.3181 145.1592,-83.5956"/>
<polygon fill="#191970" stroke="#191970" points="83.3737,-112.6201 76.2012,-120.4179 86.671,-118.7949 83.3737,-112.6201"/>
</g>
<!-- Node5&#45;&gt;Node1 -->
<g id="edge4" class="edge">
<title>Node5&#45;&gt;Node1</title>
<path fill="none" stroke="#191970" d="M162.1928,-55.1865C162.1928,-46.6283 162.1928,-36.7354 162.1928,-28.8477"/>
<polygon fill="#191970" stroke="#191970" points="158.6929,-55.3873 162.1928,-65.3873 165.6929,-55.3873 158.6929,-55.3873"/>
</g>
<!-- Node6&#45;&gt;Node5 -->
<g id="edge5" class="edge">
<title>Node6&#45;&gt;Node5</title>
<path fill="none" stroke="#191970" d="M170.0218,-110.383C168.0562,-101.3738 165.801,-91.0373 164.2174,-83.7795"/>
<polygon fill="#191970" stroke="#191970" points="166.6599,-111.3938 172.2112,-120.4179 173.4991,-109.9016 166.6599,-111.3938"/>
</g>
<!-- Node8 -->
<g id="node8" class="node">
<title>Node8</title>
<g id="a_node8"><a xlink:href="interfacelocomotor_1_1components_1_1types_1_1_c_user_type.html" target="_top" xlink:title="CUserType">
<polygon fill="#ffffff" stroke="#000000" points="212.183,-65.5 212.183,-83.5 278.2026,-83.5 278.2026,-65.5 212.183,-65.5"/>
<text text-anchor="middle" x="245.1928" y="-71.5" font-family="Helvetica,sans-Serif" font-size="10.00" fill="#000000">CUserType</text>
</a>
</g>
</g>
<!-- Node6&#45;&gt;Node8 -->
<g id="edge10" class="edge">
<title>Node6&#45;&gt;Node8</title>
<path fill="none" stroke="#191970" d="M194.0082,-114.15C206.6076,-104.3899 222.5061,-92.0742 233.2139,-83.7795"/>
<polygon fill="#191970" stroke="#191970" points="191.6791,-111.5269 185.917,-120.4179 195.9659,-117.0608 191.6791,-111.5269"/>
</g>
<!-- Node7 -->
<g id="node7" class="node">
<title>Node7</title>
<g id="a_node7"><a xlink:href="interfacelocomotor_1_1components_1_1_j_s_o_n_convertissable.html" target="_top" xlink:title="JSONConvertissable">
<polygon fill="#ffffff" stroke="#000000" points="241.7866,-120.5 241.7866,-138.5 350.5991,-138.5 350.5991,-120.5 241.7866,-120.5"/>
<text text-anchor="middle" x="296.1928" y="-126.5" font-family="Helvetica,sans-Serif" font-size="10.00" fill="#000000">JSONConvertissable</text>
</a>
</g>
</g>
<!-- Node7&#45;&gt;Node5 -->
<g id="edge8" class="edge">
<title>Node7&#45;&gt;Node5</title>
<path fill="none" stroke="#191970" d="M264.7589,-116.598C240.0611,-106.4609 206.2834,-92.5969 184.3531,-83.5956"/>
<polygon fill="#191970" stroke="#191970" points="263.4854,-119.8586 274.0654,-120.4179 266.1434,-113.3829 263.4854,-119.8586"/>
</g>
<!-- Node7&#45;&gt;Node8 -->
<g id="edge11" class="edge">
<title>Node7&#45;&gt;Node8</title>
<path fill="none" stroke="#191970" d="M280.9048,-113.0129C272.036,-103.4485 261.193,-91.7552 253.7974,-83.7795"/>
<polygon fill="#191970" stroke="#191970" points="278.4053,-115.465 287.7712,-120.4179 283.5382,-110.7054 278.4053,-115.465"/>
</g>
<!-- Node8&#45;&gt;Node1 -->
<g id="edge9" class="edge">
<title>Node8&#45;&gt;Node1</title>
<path fill="none" stroke="#191970" d="M224.2217,-59.3402C211.1694,-49.9048 194.4956,-37.8515 181.7231,-28.6183"/>
<polygon fill="#191970" stroke="#191970" points="222.4322,-62.3653 232.5869,-65.3873 226.5331,-56.6923 222.4322,-62.3653"/>
</g>
</g>
</svg>
