<?xml version="1.0" encoding="UTF-8" standalone="no"?>
<!DOCTYPE svg PUBLIC "-//W3C//DTD SVG 1.1//EN"
 "http://www.w3.org/Graphics/SVG/1.1/DTD/svg11.dtd">
<!-- Generated by graphviz version 2.40.1 (20161225.0304)
 -->
<!-- Title: fromJSON Pages: 1 -->
<svg width="228pt" height="46pt"
 viewBox="0.00 0.00 228.03 46.00" xmlns="http://www.w3.org/2000/svg" xmlns:xlink="http://www.w3.org/1999/xlink">
<g id="graph0" class="graph" transform="scale(1 1) rotate(0) translate(4 42)">
<title>fromJSON</title>
<polygon fill="#ffffff" stroke="transparent" points="-4,4 -4,-42 224.0293,-42 224.0293,4 -4,4"/>
<!-- Node1 -->
<g id="node1" class="node">
<title>Node1</title>
<polygon fill="#bfbfbf" stroke="#000000" points="0,-19.5 0,-37.5 62.6699,-37.5 62.6699,-19.5 0,-19.5"/>
<text text-anchor="middle" x="31.335" y="-25.5" font-family="Helvetica,sans-Serif" font-size="10.00" fill="#000000">fromJSON</text>
</g>
<!-- Node2 -->
<g id="node2" class="node">
<title>Node2</title>
<g id="a_node2"><a xlink:href="classlocomotor_1_1components_1_1types_1_1_c_float.html#a0d891fca54de58865525ca2d63c39b65" target="_top" xlink:title="value">
<polygon fill="#ffffff" stroke="#000000" points="180.123,-19.5 180.123,-37.5 220.0293,-37.5 220.0293,-19.5 180.123,-19.5"/>
<text text-anchor="middle" x="200.0762" y="-25.5" font-family="Helvetica,sans-Serif" font-size="10.00" fill="#000000">value</text>
</a>
</g>
</g>
<!-- Node1&#45;&gt;Node2 -->
<g id="edge1" class="edge">
<title>Node1&#45;&gt;Node2</title>
<path fill="none" stroke="#191970" d="M62.6784,-28.5C93.2372,-28.5 139.4037,-28.5 169.6466,-28.5"/>
<polygon fill="#191970" stroke="#191970" points="170.0098,-32.0001 180.0098,-28.5 170.0097,-25.0001 170.0098,-32.0001"/>
</g>
<!-- Node3 -->
<g id="node3" class="node">
<title>Node3</title>
<g id="a_node3"><a xlink:href="classlocomotor_1_1components_1_1types_1_1_c_float.html#aef395a3a5c07d801027ac513d66e27bc" target="_top" xlink:title="CFloat">
<polygon fill="#ffffff" stroke="#000000" points="98.6699,-.5 98.6699,-18.5 144.123,-18.5 144.123,-.5 98.6699,-.5"/>
<text text-anchor="middle" x="121.3965" y="-6.5" font-family="Helvetica,sans-Serif" font-size="10.00" fill="#000000">CFloat</text>
</a>
</g>
</g>
<!-- Node1&#45;&gt;Node3 -->
<g id="edge2" class="edge">
<title>Node1&#45;&gt;Node3</title>
<path fill="none" stroke="#191970" d="M62.8341,-21.8547C71.2005,-20.0897 80.254,-18.1797 88.6836,-16.4013"/>
<polygon fill="#191970" stroke="#191970" points="89.5062,-19.8049 98.5683,-14.316 88.0612,-12.9557 89.5062,-19.8049"/>
</g>
<!-- Node3&#45;&gt;Node2 -->
<g id="edge3" class="edge">
<title>Node3&#45;&gt;Node2</title>
<path fill="none" stroke="#191970" d="M144.1539,-14.9956C152.309,-16.9649 161.6278,-19.2153 170.2891,-21.3068"/>
<polygon fill="#191970" stroke="#191970" points="169.5033,-24.7176 180.0455,-23.6629 171.1465,-17.9132 169.5033,-24.7176"/>
</g>
</g>
</svg>
