<?xml version="1.0" encoding="UTF-8" standalone="no"?>
<!DOCTYPE svg PUBLIC "-//W3C//DTD SVG 1.1//EN"
 "http://www.w3.org/Graphics/SVG/1.1/DTD/svg11.dtd">
<!-- Generated by graphviz version 2.40.1 (20161225.0304)
 -->
<!-- Title: universeStillExists Pages: 1 -->
<svg width="711pt" height="64pt"
 viewBox="0.00 0.00 711.12 64.00" xmlns="http://www.w3.org/2000/svg" xmlns:xlink="http://www.w3.org/1999/xlink">
<g id="graph0" class="graph" transform="scale(1 1) rotate(0) translate(4 60)">
<title>universeStillExists</title>
<polygon fill="#ffffff" stroke="transparent" points="-4,4 -4,-60 707.1211,-60 707.1211,4 -4,4"/>
<!-- Node1 -->
<g id="node1" class="node">
<title>Node1</title>
<polygon fill="#bfbfbf" stroke="#000000" points="0,-18.5 0,-36.5 96.5811,-36.5 96.5811,-18.5 0,-18.5"/>
<text text-anchor="middle" x="48.2905" y="-24.5" font-family="Helvetica,sans-Serif" font-size="10.00" fill="#000000">universeStillExists</text>
</g>
<!-- Node2 -->
<g id="node2" class="node">
<title>Node2</title>
<g id="a_node2"><a xlink:href="classlocomotor_1_1core_1_1_d_b_h.html#ad067053be75a3170dc9c2ce7b922e176" target="_top" xlink:title="checkingParsingItem">
<polygon fill="#ffffff" stroke="#000000" points="132.5811,-18.5 132.5811,-36.5 241.4033,-36.5 241.4033,-18.5 132.5811,-18.5"/>
<text text-anchor="middle" x="186.9922" y="-24.5" font-family="Helvetica,sans-Serif" font-size="10.00" fill="#000000">checkingParsingItem</text>
</a>
</g>
</g>
<!-- Node1&#45;&gt;Node2 -->
<g id="edge1" class="edge">
<title>Node1&#45;&gt;Node2</title>
<path fill="none" stroke="#191970" d="M106.8664,-27.5C115.2326,-27.5 123.8132,-27.5 132.1052,-27.5"/>
<polygon fill="#191970" stroke="#191970" points="106.8017,-24.0001 96.8016,-27.5 106.8016,-31.0001 106.8017,-24.0001"/>
</g>
<!-- Node3 -->
<g id="node3" class="node">
<title>Node3</title>
<g id="a_node3"><a xlink:href="classlocomotor_1_1core_1_1_d_b_h.html#ae26eef1ee7482f2e0167c6a18924d214" target="_top" xlink:title="addItem">
<polygon fill="#ffffff" stroke="#000000" points="284.354,-37.5 284.354,-55.5 336.4868,-55.5 336.4868,-37.5 284.354,-37.5"/>
<text text-anchor="middle" x="310.4204" y="-43.5" font-family="Helvetica,sans-Serif" font-size="10.00" fill="#000000">addItem</text>
</a>
</g>
</g>
<!-- Node2&#45;&gt;Node3 -->
<g id="edge2" class="edge">
<title>Node2&#45;&gt;Node3</title>
<path fill="none" stroke="#191970" d="M251.6308,-37.4502C263.1779,-39.2277 274.5882,-40.9841 284.2397,-42.4699"/>
<polygon fill="#191970" stroke="#191970" points="251.905,-33.9512 241.4889,-35.889 250.8399,-40.8698 251.905,-33.9512"/>
</g>
<!-- Node6 -->
<g id="node6" class="node">
<title>Node6</title>
<g id="a_node6"><a xlink:href="classlocomotor_1_1core_1_1_d_b_h.html#aa0e39c547d06fd9d0ad2de70251c9cc0" target="_top" xlink:title="updateItem">
<polygon fill="#ffffff" stroke="#000000" points="277.4033,-.5 277.4033,-18.5 343.4375,-18.5 343.4375,-.5 277.4033,-.5"/>
<text text-anchor="middle" x="310.4204" y="-6.5" font-family="Helvetica,sans-Serif" font-size="10.00" fill="#000000">updateItem</text>
</a>
</g>
</g>
<!-- Node2&#45;&gt;Node6 -->
<g id="edge5" class="edge">
<title>Node2&#45;&gt;Node6</title>
<path fill="none" stroke="#191970" d="M251.4939,-18.0935C260.3611,-16.8003 269.1515,-15.5184 277.1308,-14.3548"/>
<polygon fill="#191970" stroke="#191970" points="250.8791,-14.646 241.4889,-19.5525 251.8893,-21.5727 250.8791,-14.646"/>
</g>
<!-- Node4 -->
<g id="node4" class="node">
<title>Node4</title>
<g id="a_node4"><a xlink:href="classlocomotor_1_1components_1_1network_1_1_a_p_i.html#a547463fbc7fb7b485886f0917e2c0b78" target="_top" xlink:title="locomotor.components.network.\lAPI.createHooks">
<polygon fill="#ffffff" stroke="#000000" points="379.4375,-13.5 379.4375,-41.5 536.624,-41.5 536.624,-13.5 379.4375,-13.5"/>
<text text-anchor="start" x="387.4375" y="-29.5" font-family="Helvetica,sans-Serif" font-size="10.00" fill="#000000">locomotor.components.network.</text>
<text text-anchor="middle" x="458.0308" y="-19.5" font-family="Helvetica,sans-Serif" font-size="10.00" fill="#000000">API.createHooks</text>
</a>
</g>
</g>
<!-- Node3&#45;&gt;Node4 -->
<g id="edge3" class="edge">
<title>Node3&#45;&gt;Node4</title>
<path fill="none" stroke="#191970" d="M347.0329,-41.7873C356.9376,-40.5124 368.0521,-39.0818 379.3198,-37.6315"/>
<polygon fill="#191970" stroke="#191970" points="346.2815,-38.3551 336.8102,-43.1032 347.1752,-45.2978 346.2815,-38.3551"/>
</g>
<!-- Node5 -->
<g id="node5" class="node">
<title>Node5</title>
<g id="a_node5"><a xlink:href="classlocomotor_1_1core_1_1_main.html#a8b260eecbaabcef8473fd87ada040682" target="_top" xlink:title="locomotor.core.Main.main">
<polygon fill="#ffffff" stroke="#000000" points="572.624,-18.5 572.624,-36.5 703.1211,-36.5 703.1211,-18.5 572.624,-18.5"/>
<text text-anchor="middle" x="637.8726" y="-24.5" font-family="Helvetica,sans-Serif" font-size="10.00" fill="#000000">locomotor.core.Main.main</text>
</a>
</g>
</g>
<!-- Node4&#45;&gt;Node5 -->
<g id="edge4" class="edge">
<title>Node4&#45;&gt;Node5</title>
<path fill="none" stroke="#191970" d="M546.8238,-27.5C555.5121,-27.5 564.2144,-27.5 572.6063,-27.5"/>
<polygon fill="#191970" stroke="#191970" points="546.6504,-24.0001 536.6504,-27.5 546.6503,-31.0001 546.6504,-24.0001"/>
</g>
<!-- Node6&#45;&gt;Node4 -->
<g id="edge6" class="edge">
<title>Node6&#45;&gt;Node4</title>
<path fill="none" stroke="#191970" d="M353.4868,-14.7516C361.6203,-15.7435 370.3602,-16.8092 379.1967,-17.8868"/>
<polygon fill="#191970" stroke="#191970" points="353.8972,-11.2758 343.5471,-13.5396 353.0498,-18.2244 353.8972,-11.2758"/>
</g>
</g>
</svg>
