<?xml version="1.0" encoding="UTF-8" standalone="no"?>
<!DOCTYPE svg PUBLIC "-//W3C//DTD SVG 1.1//EN"
 "http://www.w3.org/Graphics/SVG/1.1/DTD/svg11.dtd">
<!-- Generated by graphviz version 2.40.1 (20161225.0304)
 -->
<!-- Title: handle Pages: 1 -->
<!--zoomable 201 -->
<svg id="main" version="1.1" xmlns="http://www.w3.org/2000/svg" xmlns:xlink="http://www.w3.org/1999/xlink" xml:space="preserve" onload="init(evt)">
<style type="text/css"><![CDATA[
.edge:hover path { stroke: red; }
.edge:hover polygon { stroke: red; fill: red; }
]]></style>
<script type="text/javascript"><![CDATA[
var edges = document.getElementsByTagName('g');
if (edges && edges.length) {
  for (var i=0;i<edges.length;i++) {
    if (edges[i].id.substr(0,4)=='edge') {
      edges[i].setAttribute('class','edge');
    }
  }
}
]]></script>
        <defs>
                <circle id="rim" cx="0" cy="0" r="7"/>
                <circle id="rim2" cx="0" cy="0" r="3.5"/>
                <g id="zoomPlus">
                        <use xlink:href="#rim" fill="#404040">
                                <set attributeName="fill" to="#808080" begin="zoomplus.mouseover" end="zoomplus.mouseout"/>
                        </use>
                        <path d="M-4,0h8M0,-4v8" fill="none" stroke="white" stroke-width="1.5" pointer-events="none"/>
                </g>
                <g id="zoomMin">
                        <use xlink:href="#rim" fill="#404040">
                                <set attributeName="fill" to="#808080" begin="zoomminus.mouseover" end="zoomminus.mouseout"/>
                        </use>
                        <path d="M-4,0h8" fill="none" stroke="white" stroke-width="1.5" pointer-events="none"/>
                </g>
                <g id="dirArrow">
                        <path fill="none" stroke="white" stroke-width="1.5" d="M0,-3.0v7 M-2.5,-0.5L0,-3.0L2.5,-0.5"/>
                </g>
               <g id="resetDef">
                       <use xlink:href="#rim2" fill="#404040">
                               <set attributeName="fill" to="#808080" begin="reset.mouseover" end="reset.mouseout"/>
                       </use>
               </g>
        </defs>

<script type="text/javascript">
var viewWidth = 517;
var viewHeight = 201;
var sectionId = 'dynsection-2';
</script>
<script xlink:href="svgpan.js"/>
<svg id="graph" class="graph">
<g id="viewport">
<title>handle</title>
<polygon fill="#ffffff" stroke="transparent" points="-4,4 -4,-197 512.7305,-197 512.7305,4 -4,4"/>
<!-- Node1 -->
<g id="node1" class="node">
<title>Node1</title>
<polygon fill="#bfbfbf" stroke="#000000" points="0,-122.5 0,-140.5 46.0293,-140.5 46.0293,-122.5 0,-122.5"/>
<text text-anchor="middle" x="23.0146" y="-128.5" font-family="Helvetica,sans-Serif" font-size="10.00" fill="#000000">handle</text>
</g>
<!-- Node2 -->
<g id="node2" class="node">
<title>Node2</title>
<g id="a_node2"><a xlink:href="classlocomotor_1_1components_1_1network_1_1_network_data.html#a487d5f454cff4db530ed7b5b690ec71d" target="_top" xlink:title="locomotor.components.network.\lNetworkData.isValid">
<polygon fill="#ffffff" stroke="#000000" points="104.7222,-164.5 104.7222,-192.5 261.9087,-192.5 261.9087,-164.5 104.7222,-164.5"/>
<text text-anchor="start" x="112.7222" y="-180.5" font-family="Helvetica,sans-Serif" font-size="10.00" fill="#000000">locomotor.components.network.</text>
<text text-anchor="middle" x="183.3154" y="-170.5" font-family="Helvetica,sans-Serif" font-size="10.00" fill="#000000">NetworkData.isValid</text>
</a>
</g>
</g>
<!-- Node1&#45;&gt;Node2 -->
<g id="edge1" class="edge">
<title>Node1&#45;&gt;Node2</title>
<path fill="none" stroke="#191970" d="M42.929,-140.546C54.2314,-145.4388 68.7354,-151.3181 82.0293,-155.5 89.3465,-157.8018 97.0286,-159.9737 104.7523,-161.9953"/>
<polygon fill="#191970" stroke="#191970" points="103.9802,-165.4102 114.5336,-164.4741 105.6999,-158.6247 103.9802,-165.4102"/>
</g>
<!-- Node3 -->
<g id="node3" class="node">
<title>Node3</title>
<g id="a_node3"><a xlink:href="classlocomotor_1_1components_1_1network_1_1_network_response_factory.html#ac0b036a3baf908af83be69be93f1ec75" target="_top" xlink:title="locomotor.components.network.\lNetworkResponseFactory.getJsonContext">
<polygon fill="#ffffff" stroke="#000000" points="82.0293,-117.5 82.0293,-145.5 284.6016,-145.5 284.6016,-117.5 82.0293,-117.5"/>
<text text-anchor="start" x="90.0293" y="-133.5" font-family="Helvetica,sans-Serif" font-size="10.00" fill="#000000">locomotor.components.network.</text>
<text text-anchor="middle" x="183.3154" y="-123.5" font-family="Helvetica,sans-Serif" font-size="10.00" fill="#000000">NetworkResponseFactory.getJsonContext</text>
</a>
</g>
</g>
<!-- Node1&#45;&gt;Node3 -->
<g id="edge2" class="edge">
<title>Node1&#45;&gt;Node3</title>
<path fill="none" stroke="#191970" d="M46.3238,-131.5C53.7352,-131.5 62.4826,-131.5 71.9145,-131.5"/>
<polygon fill="#191970" stroke="#191970" points="71.9641,-135.0001 81.9641,-131.5 71.9641,-128.0001 71.9641,-135.0001"/>
</g>
<!-- Node4 -->
<g id="node4" class="node">
<title>Node4</title>
<g id="a_node4"><a xlink:href="classlocomotor_1_1components_1_1network_1_1_network_response.html#ab1be964e3a5f4dfc34483da5bfd13a8a" target="_top" xlink:title="locomotor.components.network.\lNetworkResponse.failure">
<polygon fill="#ffffff" stroke="#000000" points="104.7222,-70.5 104.7222,-98.5 261.9087,-98.5 261.9087,-70.5 104.7222,-70.5"/>
<text text-anchor="start" x="112.7222" y="-86.5" font-family="Helvetica,sans-Serif" font-size="10.00" fill="#000000">locomotor.components.network.</text>
<text text-anchor="middle" x="183.3154" y="-76.5" font-family="Helvetica,sans-Serif" font-size="10.00" fill="#000000">NetworkResponse.failure</text>
</a>
</g>
</g>
<!-- Node1&#45;&gt;Node4 -->
<g id="edge3" class="edge">
<title>Node1&#45;&gt;Node4</title>
<path fill="none" stroke="#191970" d="M44.0678,-122.4732C55.2183,-117.9027 69.2216,-112.492 82.0293,-108.5 90.4279,-105.8823 99.2948,-103.3923 108.1482,-101.0761"/>
<polygon fill="#191970" stroke="#191970" points="109.2863,-104.398 118.1126,-98.5374 107.558,-97.6147 109.2863,-104.398"/>
</g>
<!-- Node5 -->
<g id="node5" class="node">
<title>Node5</title>
<g id="a_node5"><a xlink:href="classlocomotor_1_1components_1_1network_1_1_network_response.html#a143bb7402270f3dc0872ab5586653f61" target="_top" xlink:title="locomotor.components.network.\lNetworkResponse.toByteArrayOutput\lStream">
<polygon fill="#ffffff" stroke="#000000" points="323.2944,-141.5 323.2944,-179.5 506.0376,-179.5 506.0376,-141.5 323.2944,-141.5"/>
<text text-anchor="start" x="331.2944" y="-167.5" font-family="Helvetica,sans-Serif" font-size="10.00" fill="#000000">locomotor.components.network.</text>
<text text-anchor="start" x="331.2944" y="-157.5" font-family="Helvetica,sans-Serif" font-size="10.00" fill="#000000">NetworkResponse.toByteArrayOutput</text>
<text text-anchor="middle" x="414.666" y="-147.5" font-family="Helvetica,sans-Serif" font-size="10.00" fill="#000000">Stream</text>
</a>
</g>
</g>
<!-- Node4&#45;&gt;Node5 -->
<g id="edge4" class="edge">
<title>Node4&#45;&gt;Node5</title>
<path fill="none" stroke="#191970" d="M256.5379,-98.554C266.1523,-101.3503 275.736,-104.6432 284.6016,-108.5 302.2349,-116.171 303.1926,-124.3327 320.6016,-132.5 324.6146,-134.3827 328.7835,-136.1719 333.035,-137.8672"/>
<polygon fill="#191970" stroke="#191970" points="331.8546,-141.1627 342.4461,-141.4283 334.332,-134.6157 331.8546,-141.1627"/>
</g>
<!-- Node6 -->
<g id="node6" class="node">
<title>Node6</title>
<g id="a_node6"><a xlink:href="classlocomotor_1_1components_1_1network_1_1_network_response.html#a66b0dd722c150e0c2eac12c9e6e813ef" target="_top" xlink:title="locomotor.components.network.\lNetworkResponse.sendAnswer">
<polygon fill="#ffffff" stroke="#000000" points="336.0728,-94.5 336.0728,-122.5 493.2593,-122.5 493.2593,-94.5 336.0728,-94.5"/>
<text text-anchor="start" x="344.0728" y="-110.5" font-family="Helvetica,sans-Serif" font-size="10.00" fill="#000000">locomotor.components.network.</text>
<text text-anchor="middle" x="414.666" y="-100.5" font-family="Helvetica,sans-Serif" font-size="10.00" fill="#000000">NetworkResponse.sendAnswer</text>
</a>
</g>
</g>
<!-- Node4&#45;&gt;Node6 -->
<g id="edge5" class="edge">
<title>Node4&#45;&gt;Node6</title>
<path fill="none" stroke="#191970" d="M261.963,-92.6588C282.4513,-94.7842 304.672,-97.0894 325.6548,-99.2661"/>
<polygon fill="#191970" stroke="#191970" points="325.5352,-102.7724 335.843,-100.323 326.2576,-95.8098 325.5352,-102.7724"/>
</g>
<!-- Node7 -->
<g id="node7" class="node">
<title>Node7</title>
<g id="a_node7"><a xlink:href="enumlocomotor_1_1components_1_1network_1_1_network_response_1_1_error_code.html#aae714dc01fe7f5bb1a175d0d1068bb92" target="_top" xlink:title="locomotor.components.network.\lNetworkResponse.ErrorCode.getValue">
<polygon fill="#ffffff" stroke="#000000" points="320.6016,-47.5 320.6016,-75.5 508.7305,-75.5 508.7305,-47.5 320.6016,-47.5"/>
<text text-anchor="start" x="328.6016" y="-63.5" font-family="Helvetica,sans-Serif" font-size="10.00" fill="#000000">locomotor.components.network.</text>
<text text-anchor="middle" x="414.666" y="-53.5" font-family="Helvetica,sans-Serif" font-size="10.00" fill="#000000">NetworkResponse.ErrorCode.getValue</text>
</a>
</g>
</g>
<!-- Node4&#45;&gt;Node7 -->
<g id="edge6" class="edge">
<title>Node4&#45;&gt;Node7</title>
<path fill="none" stroke="#191970" d="M261.963,-76.6812C277.4756,-75.139 293.9813,-73.498 310.1909,-71.8865"/>
<polygon fill="#191970" stroke="#191970" points="310.6292,-75.3603 320.2338,-70.8881 309.9366,-68.3946 310.6292,-75.3603"/>
</g>
<!-- Node8 -->
<g id="node8" class="node">
<title>Node8</title>
<g id="a_node8"><a xlink:href="classlocomotor_1_1components_1_1_mutable_integer.html#ab1285c4f05252364e32fd03079fa2f35" target="_top" xlink:title="locomotor.components.Mutable\lInteger.intValue">
<polygon fill="#ffffff" stroke="#000000" points="337.1812,-.5 337.1812,-28.5 492.1509,-28.5 492.1509,-.5 337.1812,-.5"/>
<text text-anchor="start" x="345.1812" y="-16.5" font-family="Helvetica,sans-Serif" font-size="10.00" fill="#000000">locomotor.components.Mutable</text>
<text text-anchor="middle" x="414.666" y="-6.5" font-family="Helvetica,sans-Serif" font-size="10.00" fill="#000000">Integer.intValue</text>
</a>
</g>
</g>
<!-- Node4&#45;&gt;Node8 -->
<g id="edge7" class="edge">
<title>Node4&#45;&gt;Node8</title>
<path fill="none" stroke="#191970" d="M222.7221,-70.4394C250.0332,-60.906 287.3274,-48.305 320.6016,-38.5 329.0587,-36.0079 337.9873,-33.5322 346.8416,-31.1701"/>
<polygon fill="#191970" stroke="#191970" points="347.9969,-34.4854 356.7777,-28.5568 346.2163,-27.7156 347.9969,-34.4854"/>
</g>
</g>
</svg>
        <g id="navigator" transform="translate(0 0)" fill="#404254">
                <rect fill="#f2f5e9" fill-opacity="0.5" stroke="#606060" stroke-width=".5" x="0" y="0" width="60" height="60"/>
                <use id="zoomplus" xlink:href="#zoomPlus" x="17" y="9" onmousedown="handleZoom(evt,'in')"/>
                <use id="zoomminus" xlink:href="#zoomMin" x="42" y="9" onmousedown="handleZoom(evt,'out')"/>
                <use id="reset" xlink:href="#resetDef" x="30" y="36" onmousedown="handleReset()"/>
                <g id="arrowUp" xlink:href="#dirArrow" transform="translate(30 24)" onmousedown="handlePan(0,-1)">
                  <use xlink:href="#rim" fill="#404040">
                        <set attributeName="fill" to="#808080" begin="arrowUp.mouseover" end="arrowUp.mouseout"/>
                  </use>
                  <path fill="none" stroke="white" stroke-width="1.5" d="M0,-3.0v7 M-2.5,-0.5L0,-3.0L2.5,-0.5"/>
                </g>
                <g id="arrowRight" xlink:href="#dirArrow" transform="rotate(90) translate(36 -43)" onmousedown="handlePan(1,0)">
                  <use xlink:href="#rim" fill="#404040">
                        <set attributeName="fill" to="#808080" begin="arrowRight.mouseover" end="arrowRight.mouseout"/>
                  </use>
                  <path fill="none" stroke="white" stroke-width="1.5" d="M0,-3.0v7 M-2.5,-0.5L0,-3.0L2.5,-0.5"/>
                </g>
                <g id="arrowDown" xlink:href="#dirArrow" transform="rotate(180) translate(-30 -48)" onmousedown="handlePan(0,1)">
                  <use xlink:href="#rim" fill="#404040">
                        <set attributeName="fill" to="#808080" begin="arrowDown.mouseover" end="arrowDown.mouseout"/>
                  </use>
                  <path fill="none" stroke="white" stroke-width="1.5" d="M0,-3.0v7 M-2.5,-0.5L0,-3.0L2.5,-0.5"/>
                </g>
                <g id="arrowLeft" xlink:href="#dirArrow" transform="rotate(270) translate(-36 17)" onmousedown="handlePan(-1,0)">
                  <use xlink:href="#rim" fill="#404040">
                        <set attributeName="fill" to="#808080" begin="arrowLeft.mouseover" end="arrowLeft.mouseout"/>
                  </use>
                  <path fill="none" stroke="white" stroke-width="1.5" d="M0,-3.0v7 M-2.5,-0.5L0,-3.0L2.5,-0.5"/>
                </g>
        </g>
        <svg viewBox="0 0 15 15" width="100%" height="30px" preserveAspectRatio="xMaxYMin meet">
         <g id="arrow_out" transform="scale(0.3 0.3)">
          <a xlink:href="classlocomotor_1_1components_1_1network_1_1_i_endpoint_handler_ab14119ba2d6d06adbe73a9805f5130c6_cgraph_org.svg" target="_base">
           <rect id="button" ry="5" rx="5" y="6" x="6" height="38" width="38"
                fill="#f2f5e9" fill-opacity="0.5" stroke="#606060" stroke-width="1.0"/>
           <path id="arrow"
             d="M 11.500037,31.436501 C 11.940474,20.09759 22.043105,11.32322 32.158766,21.979434 L 37.068811,17.246167 C 37.068811,17.246167 37.088388,32 37.088388,32 L 22.160133,31.978069 C 22.160133,31.978069 26.997745,27.140456 26.997745,27.140456 C 18.528582,18.264221 13.291696,25.230495 11.500037,31.436501 z"
             style="fill:#404040;"/>
          </a>
         </g>
        </svg>
</svg>
