<?xml version="1.0" encoding="UTF-8" standalone="no"?>
<!DOCTYPE svg PUBLIC "-//W3C//DTD SVG 1.1//EN"
 "http://www.w3.org/Graphics/SVG/1.1/DTD/svg11.dtd">
<!-- Generated by graphviz version 2.40.1 (20161225.0304)
 -->
<!-- Title: set Pages: 1 -->
<svg width="256pt" height="47pt"
 viewBox="0.00 0.00 256.08 47.00" xmlns="http://www.w3.org/2000/svg" xmlns:xlink="http://www.w3.org/1999/xlink">
<g id="graph0" class="graph" transform="scale(1 1) rotate(0) translate(4 43)">
<title>set</title>
<polygon fill="#ffffff" stroke="transparent" points="-4,4 -4,-43 252.083,-43 252.083,4 -4,4"/>
<!-- Node1 -->
<g id="node1" class="node">
<title>Node1</title>
<polygon fill="#bfbfbf" stroke="#000000" points="0,-10.5 0,-28.5 29.3398,-28.5 29.3398,-10.5 0,-10.5"/>
<text text-anchor="middle" x="14.6699" y="-16.5" font-family="Helvetica,sans-Serif" font-size="10.00" fill="#000000">set</text>
</g>
<!-- Node2 -->
<g id="node2" class="node">
<title>Node2</title>
<g id="a_node2"><a xlink:href="classlocomotor_1_1components_1_1network_1_1_network_response.html#acdc44a91367688b4b2d1295b63a21e84" target="_top" xlink:title="locomotor.components.network.\lNetworkResponse.toByteArrayOutput\lStream">
<polygon fill="#ffffff" stroke="#000000" points="65.3398,-.5 65.3398,-38.5 248.083,-38.5 248.083,-.5 65.3398,-.5"/>
<text text-anchor="start" x="73.3398" y="-26.5" font-family="Helvetica,sans-Serif" font-size="10.00" fill="#000000">locomotor.components.network.</text>
<text text-anchor="start" x="73.3398" y="-16.5" font-family="Helvetica,sans-Serif" font-size="10.00" fill="#000000">NetworkResponse.toByteArrayOutput</text>
<text text-anchor="middle" x="156.7114" y="-6.5" font-family="Helvetica,sans-Serif" font-size="10.00" fill="#000000">Stream</text>
</a>
</g>
</g>
<!-- Node1&#45;&gt;Node2 -->
<g id="edge1" class="edge">
<title>Node1&#45;&gt;Node2</title>
<path fill="none" stroke="#191970" d="M39.6761,-19.5C47.1983,-19.5 55.9297,-19.5 65.1679,-19.5"/>
<polygon fill="#191970" stroke="#191970" points="39.6024,-16.0001 29.6024,-19.5 39.6024,-23.0001 39.6024,-16.0001"/>
</g>
</g>
</svg>
