<?xml version="1.0" encoding="UTF-8" standalone="no"?>
<!DOCTYPE svg PUBLIC "-//W3C//DTD SVG 1.1//EN"
 "http://www.w3.org/Graphics/SVG/1.1/DTD/svg11.dtd">
<!-- Generated by graphviz version 2.40.1 (20161225.0304)
 -->
<!-- Title: pbkdf2 Pages: 1 -->
<svg width="174pt" height="64pt"
 viewBox="0.00 0.00 173.82 64.00" xmlns="http://www.w3.org/2000/svg" xmlns:xlink="http://www.w3.org/1999/xlink">
<g id="graph0" class="graph" transform="scale(1 1) rotate(0) translate(4 60)">
<title>pbkdf2</title>
<polygon fill="#ffffff" stroke="transparent" points="-4,4 -4,-60 169.8223,-60 169.8223,4 -4,4"/>
<!-- Node1 -->
<g id="node1" class="node">
<title>Node1</title>
<polygon fill="#bfbfbf" stroke="#000000" points="0,-18.5 0,-36.5 46.0244,-36.5 46.0244,-18.5 0,-18.5"/>
<text text-anchor="middle" x="23.0122" y="-24.5" font-family="Helvetica,sans-Serif" font-size="10.00" fill="#000000">pbkdf2</text>
</g>
<!-- Node2 -->
<g id="node2" class="node">
<title>Node2</title>
<g id="a_node2"><a xlink:href="classlocomotor_1_1core_1_1_password_storage.html#a34b3a794e1d174c2d549a1250a85cf08" target="_top" xlink:title="createHash">
<polygon fill="#ffffff" stroke="#000000" points="90.3545,-37.5 90.3545,-55.5 157.4922,-55.5 157.4922,-37.5 90.3545,-37.5"/>
<text text-anchor="middle" x="123.9233" y="-43.5" font-family="Helvetica,sans-Serif" font-size="10.00" fill="#000000">createHash</text>
</a>
</g>
</g>
<!-- Node1&#45;&gt;Node2 -->
<g id="edge1" class="edge">
<title>Node1&#45;&gt;Node2</title>
<path fill="none" stroke="#191970" d="M56.1669,-33.7425C67.0751,-35.7964 79.2108,-38.0813 90.1636,-40.1436"/>
<polygon fill="#191970" stroke="#191970" points="56.6382,-30.2698 46.1633,-31.859 55.3429,-37.149 56.6382,-30.2698"/>
</g>
<!-- Node3 -->
<g id="node3" class="node">
<title>Node3</title>
<g id="a_node3"><a xlink:href="classlocomotor_1_1core_1_1_password_storage.html#a8a6ce760f103855b72b3eeec78e64d58" target="_top" xlink:title="verifyPassword">
<polygon fill="#ffffff" stroke="#000000" points="82.0244,-.5 82.0244,-18.5 165.8223,-18.5 165.8223,-.5 82.0244,-.5"/>
<text text-anchor="middle" x="123.9233" y="-6.5" font-family="Helvetica,sans-Serif" font-size="10.00" fill="#000000">verifyPassword</text>
</a>
</g>
</g>
<!-- Node1&#45;&gt;Node3 -->
<g id="edge2" class="edge">
<title>Node1&#45;&gt;Node3</title>
<path fill="none" stroke="#191970" d="M56.1247,-21.5936C64.3457,-20.1272 73.266,-18.536 81.8529,-17.0043"/>
<polygon fill="#191970" stroke="#191970" points="55.3932,-18.1687 46.1633,-23.3704 56.6225,-25.0599 55.3932,-18.1687"/>
</g>
</g>
</svg>
