<?xml version="1.0" encoding="UTF-8" standalone="no"?>
<!DOCTYPE svg PUBLIC "-//W3C//DTD SVG 1.1//EN"
 "http://www.w3.org/Graphics/SVG/1.1/DTD/svg11.dtd">
<!-- Generated by graphviz version 2.40.1 (20161225.0304)
 -->
<!-- Title: isValid Pages: 1 -->
<svg width="606pt" height="37pt"
 viewBox="0.00 0.00 605.59 37.00" xmlns="http://www.w3.org/2000/svg" xmlns:xlink="http://www.w3.org/1999/xlink">
<g id="graph0" class="graph" transform="scale(1 1) rotate(0) translate(4 33)">
<title>isValid</title>
<polygon fill="#ffffff" stroke="transparent" points="-4,4 -4,-33 601.5908,-33 601.5908,4 -4,4"/>
<!-- Node1 -->
<g id="node1" class="node">
<title>Node1</title>
<polygon fill="#bfbfbf" stroke="#000000" points="0,-5.5 0,-23.5 44.7207,-23.5 44.7207,-5.5 0,-5.5"/>
<text text-anchor="middle" x="22.3604" y="-11.5" font-family="Helvetica,sans-Serif" font-size="10.00" fill="#000000">isValid</text>
</g>
<!-- Node2 -->
<g id="node2" class="node">
<title>Node2</title>
<g id="a_node2"><a xlink:href="classlocomotor_1_1components_1_1network_1_1_i_endpoint_handler.html#ab14119ba2d6d06adbe73a9805f5130c6" target="_top" xlink:title="locomotor.components.network.\lIEndpointHandler.handle">
<polygon fill="#ffffff" stroke="#000000" points="80.7207,-.5 80.7207,-28.5 237.9072,-28.5 237.9072,-.5 80.7207,-.5"/>
<text text-anchor="start" x="88.7207" y="-16.5" font-family="Helvetica,sans-Serif" font-size="10.00" fill="#000000">locomotor.components.network.</text>
<text text-anchor="middle" x="159.314" y="-6.5" font-family="Helvetica,sans-Serif" font-size="10.00" fill="#000000">IEndpointHandler.handle</text>
</a>
</g>
</g>
<!-- Node1&#45;&gt;Node2 -->
<g id="edge1" class="edge">
<title>Node1&#45;&gt;Node2</title>
<path fill="none" stroke="#191970" d="M55.0302,-14.5C62.8397,-14.5 71.5136,-14.5 80.4286,-14.5"/>
<polygon fill="#191970" stroke="#191970" points="54.9755,-11.0001 44.9755,-14.5 54.9754,-18.0001 54.9755,-11.0001"/>
</g>
<!-- Node3 -->
<g id="node3" class="node">
<title>Node3</title>
<g id="a_node3"><a xlink:href="classlocomotor_1_1components_1_1network_1_1_network_handler.html#a63d431845f1fd2adc1f96432f6003e25" target="_top" xlink:title="locomotor.components.network.\lNetworkHandler.init">
<polygon fill="#ffffff" stroke="#000000" points="273.9072,-.5 273.9072,-28.5 431.0938,-28.5 431.0938,-.5 273.9072,-.5"/>
<text text-anchor="start" x="281.9072" y="-16.5" font-family="Helvetica,sans-Serif" font-size="10.00" fill="#000000">locomotor.components.network.</text>
<text text-anchor="middle" x="352.5005" y="-6.5" font-family="Helvetica,sans-Serif" font-size="10.00" fill="#000000">NetworkHandler.init</text>
</a>
</g>
</g>
<!-- Node2&#45;&gt;Node3 -->
<g id="edge2" class="edge">
<title>Node2&#45;&gt;Node3</title>
<path fill="none" stroke="#191970" d="M248.1867,-14.5C256.7662,-14.5 265.4275,-14.5 273.8975,-14.5"/>
<polygon fill="#191970" stroke="#191970" points="248.169,-11.0001 238.169,-14.5 248.1689,-18.0001 248.169,-11.0001"/>
</g>
<!-- Node4 -->
<g id="node4" class="node">
<title>Node4</title>
<g id="a_node4"><a xlink:href="classlocomotor_1_1core_1_1_main.html#a8b260eecbaabcef8473fd87ada040682" target="_top" xlink:title="locomotor.core.Main.main">
<polygon fill="#ffffff" stroke="#000000" points="467.0938,-5.5 467.0938,-23.5 597.5908,-23.5 597.5908,-5.5 467.0938,-5.5"/>
<text text-anchor="middle" x="532.3423" y="-11.5" font-family="Helvetica,sans-Serif" font-size="10.00" fill="#000000">locomotor.core.Main.main</text>
</a>
</g>
</g>
<!-- Node3&#45;&gt;Node4 -->
<g id="edge3" class="edge">
<title>Node3&#45;&gt;Node4</title>
<path fill="none" stroke="#191970" d="M441.2935,-14.5C449.9818,-14.5 458.6842,-14.5 467.076,-14.5"/>
<polygon fill="#191970" stroke="#191970" points="441.1201,-11.0001 431.1201,-14.5 441.1201,-18.0001 441.1201,-11.0001"/>
</g>
</g>
</svg>
