<?xml version="1.0" encoding="UTF-8" standalone="no"?>
<!DOCTYPE svg PUBLIC "-//W3C//DTD SVG 1.1//EN"
 "http://www.w3.org/Graphics/SVG/1.1/DTD/svg11.dtd">
<!-- Generated by graphviz version 2.40.1 (20161225.0304)
 -->
<!-- Title: checkingParsingItem Pages: 1 -->
<svg width="579pt" height="64pt"
 viewBox="0.00 0.00 578.54 64.00" xmlns="http://www.w3.org/2000/svg" xmlns:xlink="http://www.w3.org/1999/xlink">
<g id="graph0" class="graph" transform="scale(1 1) rotate(0) translate(4 60)">
<title>checkingParsingItem</title>
<polygon fill="#ffffff" stroke="transparent" points="-4,4 -4,-60 574.54,-60 574.54,4 -4,4"/>
<!-- Node1 -->
<g id="node1" class="node">
<title>Node1</title>
<polygon fill="#bfbfbf" stroke="#000000" points="0,-18.5 0,-36.5 108.8223,-36.5 108.8223,-18.5 0,-18.5"/>
<text text-anchor="middle" x="54.4111" y="-24.5" font-family="Helvetica,sans-Serif" font-size="10.00" fill="#000000">checkingParsingItem</text>
</g>
<!-- Node2 -->
<g id="node2" class="node">
<title>Node2</title>
<g id="a_node2"><a xlink:href="classlocomotor_1_1core_1_1_d_b_h.html#ae26eef1ee7482f2e0167c6a18924d214" target="_top" xlink:title="addItem">
<polygon fill="#ffffff" stroke="#000000" points="151.7729,-37.5 151.7729,-55.5 203.9058,-55.5 203.9058,-37.5 151.7729,-37.5"/>
<text text-anchor="middle" x="177.8394" y="-43.5" font-family="Helvetica,sans-Serif" font-size="10.00" fill="#000000">addItem</text>
</a>
</g>
</g>
<!-- Node1&#45;&gt;Node2 -->
<g id="edge1" class="edge">
<title>Node1&#45;&gt;Node2</title>
<path fill="none" stroke="#191970" d="M119.0497,-37.4502C130.5968,-39.2277 142.0071,-40.9841 151.6587,-42.4699"/>
<polygon fill="#191970" stroke="#191970" points="119.324,-33.9512 108.9078,-35.889 118.2589,-40.8698 119.324,-33.9512"/>
</g>
<!-- Node5 -->
<g id="node5" class="node">
<title>Node5</title>
<g id="a_node5"><a xlink:href="classlocomotor_1_1core_1_1_d_b_h.html#aa0e39c547d06fd9d0ad2de70251c9cc0" target="_top" xlink:title="updateItem">
<polygon fill="#ffffff" stroke="#000000" points="144.8223,-.5 144.8223,-18.5 210.8564,-18.5 210.8564,-.5 144.8223,-.5"/>
<text text-anchor="middle" x="177.8394" y="-6.5" font-family="Helvetica,sans-Serif" font-size="10.00" fill="#000000">updateItem</text>
</a>
</g>
</g>
<!-- Node1&#45;&gt;Node5 -->
<g id="edge4" class="edge">
<title>Node1&#45;&gt;Node5</title>
<path fill="none" stroke="#191970" d="M118.9128,-18.0935C127.7801,-16.8003 136.5705,-15.5184 144.5497,-14.3548"/>
<polygon fill="#191970" stroke="#191970" points="118.2981,-14.646 108.9078,-19.5525 119.3083,-21.5727 118.2981,-14.646"/>
</g>
<!-- Node3 -->
<g id="node3" class="node">
<title>Node3</title>
<g id="a_node3"><a xlink:href="classlocomotor_1_1components_1_1network_1_1_a_p_i.html#a547463fbc7fb7b485886f0917e2c0b78" target="_top" xlink:title="locomotor.components.network.\lAPI.createHooks">
<polygon fill="#ffffff" stroke="#000000" points="246.8564,-13.5 246.8564,-41.5 404.043,-41.5 404.043,-13.5 246.8564,-13.5"/>
<text text-anchor="start" x="254.8564" y="-29.5" font-family="Helvetica,sans-Serif" font-size="10.00" fill="#000000">locomotor.components.network.</text>
<text text-anchor="middle" x="325.4497" y="-19.5" font-family="Helvetica,sans-Serif" font-size="10.00" fill="#000000">API.createHooks</text>
</a>
</g>
</g>
<!-- Node2&#45;&gt;Node3 -->
<g id="edge2" class="edge">
<title>Node2&#45;&gt;Node3</title>
<path fill="none" stroke="#191970" d="M214.4519,-41.7873C224.3565,-40.5124 235.4711,-39.0818 246.7387,-37.6315"/>
<polygon fill="#191970" stroke="#191970" points="213.7004,-38.3551 204.2291,-43.1032 214.5942,-45.2978 213.7004,-38.3551"/>
</g>
<!-- Node4 -->
<g id="node4" class="node">
<title>Node4</title>
<g id="a_node4"><a xlink:href="classlocomotor_1_1core_1_1_main.html#a8b260eecbaabcef8473fd87ada040682" target="_top" xlink:title="locomotor.core.Main.main">
<polygon fill="#ffffff" stroke="#000000" points="440.043,-18.5 440.043,-36.5 570.54,-36.5 570.54,-18.5 440.043,-18.5"/>
<text text-anchor="middle" x="505.2915" y="-24.5" font-family="Helvetica,sans-Serif" font-size="10.00" fill="#000000">locomotor.core.Main.main</text>
</a>
</g>
</g>
<!-- Node3&#45;&gt;Node4 -->
<g id="edge3" class="edge">
<title>Node3&#45;&gt;Node4</title>
<path fill="none" stroke="#191970" d="M414.2427,-27.5C422.931,-27.5 431.6334,-27.5 440.0252,-27.5"/>
<polygon fill="#191970" stroke="#191970" points="414.0693,-24.0001 404.0693,-27.5 414.0693,-31.0001 414.0693,-24.0001"/>
</g>
<!-- Node5&#45;&gt;Node3 -->
<g id="edge5" class="edge">
<title>Node5&#45;&gt;Node3</title>
<path fill="none" stroke="#191970" d="M220.9058,-14.7516C229.0393,-15.7435 237.7792,-16.8092 246.6157,-17.8868"/>
<polygon fill="#191970" stroke="#191970" points="221.3162,-11.2758 210.966,-13.5396 220.4688,-18.2244 221.3162,-11.2758"/>
</g>
</g>
</svg>
