<?xml version="1.0" encoding="UTF-8" standalone="no"?>
<!DOCTYPE svg PUBLIC "-//W3C//DTD SVG 1.1//EN"
 "http://www.w3.org/Graphics/SVG/1.1/DTD/svg11.dtd">
<!-- Generated by graphviz version 2.40.1 (20161225.0304)
 -->
<!-- Title: CIntervalInteger Pages: 1 -->
<svg width="402pt" height="257pt"
 viewBox="0.00 0.00 402.04 257.00" xmlns="http://www.w3.org/2000/svg" xmlns:xlink="http://www.w3.org/1999/xlink">
<g id="graph0" class="graph" transform="scale(1 1) rotate(0) translate(4 253)">
<title>CIntervalInteger</title>
<polygon fill="#ffffff" stroke="transparent" points="-4,4 -4,-253 398.0385,-253 398.0385,4 -4,4"/>
<!-- Node1 -->
<g id="node1" class="node">
<title>Node1</title>
<polygon fill="#bfbfbf" stroke="#000000" points="194.6191,-.5 194.6191,-18.5 281.7665,-18.5 281.7665,-.5 194.6191,-.5"/>
<text text-anchor="middle" x="238.1928" y="-6.5" font-family="Helvetica,sans-Serif" font-size="10.00" fill="#000000">CIntervalInteger</text>
</g>
<!-- Node2 -->
<g id="node2" class="node">
<title>Node2</title>
<g id="a_node2"><a xlink:href="classlocomotor_1_1components_1_1types_1_1_c_interval.html" target="_top" xlink:title="CInterval\&lt; T extends\l Number \&gt;">
<polygon fill="#ffffff" stroke="#000000" points="108.0966,-55.5 108.0966,-83.5 216.289,-83.5 216.289,-55.5 108.0966,-55.5"/>
<text text-anchor="start" x="116.0966" y="-71.5" font-family="Helvetica,sans-Serif" font-size="10.00" fill="#000000">CInterval&lt; T extends</text>
<text text-anchor="middle" x="162.1928" y="-61.5" font-family="Helvetica,sans-Serif" font-size="10.00" fill="#000000"> Number &gt;</text>
</a>
</g>
</g>
<!-- Node2&#45;&gt;Node1 -->
<g id="edge1" class="edge">
<title>Node2&#45;&gt;Node1</title>
<path fill="none" stroke="#191970" d="M188.4093,-48.8028C201.4594,-38.5001 216.5672,-26.5728 226.6862,-18.5842"/>
<polygon fill="#191970" stroke="#191970" points="185.8838,-46.3373 180.2037,-55.2808 190.2214,-51.8315 185.8838,-46.3373"/>
</g>
<!-- Node3 -->
<g id="node3" class="node">
<title>Node3</title>
<g id="a_node3"><a xlink:href="interfacelocomotor_1_1components_1_1types_1_1_c_universe_type.html" target="_top" xlink:title="CUniverseType">
<polygon fill="#ffffff" stroke="#000000" points="17.0107,-120.5 17.0107,-138.5 101.3749,-138.5 101.3749,-120.5 17.0107,-120.5"/>
<text text-anchor="middle" x="59.1928" y="-126.5" font-family="Helvetica,sans-Serif" font-size="10.00" fill="#000000">CUniverseType</text>
</a>
</g>
</g>
<!-- Node3&#45;&gt;Node2 -->
<g id="edge2" class="edge">
<title>Node3&#45;&gt;Node2</title>
<path fill="none" stroke="#191970" d="M83.8269,-115.15C100.2169,-105.6025 121.6489,-93.1178 137.9564,-83.6183"/>
<polygon fill="#191970" stroke="#191970" points="81.7154,-112.3295 74.8363,-120.3873 85.2389,-118.378 81.7154,-112.3295"/>
</g>
<!-- Node4 -->
<g id="node4" class="node">
<title>Node4</title>
<g id="a_node4"><a xlink:href="interfacelocomotor_1_1components_1_1types_1_1_c_type.html" target="_top" xlink:title="CType">
<polygon fill="#ffffff" stroke="#000000" points="56.7397,-230.5 56.7397,-248.5 101.6459,-248.5 101.6459,-230.5 56.7397,-230.5"/>
<text text-anchor="middle" x="79.1928" y="-236.5" font-family="Helvetica,sans-Serif" font-size="10.00" fill="#000000">CType</text>
</a>
</g>
</g>
<!-- Node4&#45;&gt;Node3 -->
<g id="edge3" class="edge">
<title>Node4&#45;&gt;Node3</title>
<path fill="none" stroke="#191970" d="M46.6735,-228.8103C30.5431,-221.6728 12.5499,-210.5079 3.1928,-194 -9.3851,-171.8101 20.2178,-150.3215 40.999,-138.6088"/>
<polygon fill="#191970" stroke="#191970" points="45.7999,-232.2328 56.3823,-232.7457 48.4295,-225.7454 45.7999,-232.2328"/>
</g>
<!-- Node7 -->
<g id="node7" class="node">
<title>Node7</title>
<g id="a_node7"><a xlink:href="interfacelocomotor_1_1components_1_1types_1_1_c_comparable_type.html" target="_top" xlink:title="CComparableType">
<polygon fill="#ffffff" stroke="#000000" points="124.5034,-175.5 124.5034,-193.5 223.8823,-193.5 223.8823,-175.5 124.5034,-175.5"/>
<text text-anchor="middle" x="174.1928" y="-181.5" font-family="Helvetica,sans-Serif" font-size="10.00" fill="#000000">CComparableType</text>
</a>
</g>
</g>
<!-- Node4&#45;&gt;Node7 -->
<g id="edge7" class="edge">
<title>Node4&#45;&gt;Node7</title>
<path fill="none" stroke="#191970" d="M103.8388,-225.2313C121.0904,-215.2435 143.6225,-202.1986 158.4822,-193.5956"/>
<polygon fill="#191970" stroke="#191970" points="101.7808,-222.3785 94.8801,-230.4179 105.288,-228.4365 101.7808,-222.3785"/>
</g>
<!-- Node5 -->
<g id="node5" class="node">
<title>Node5</title>
<g id="a_node5"><a xlink:href="interfacelocomotor_1_1components_1_1_j_s_o_n_displayable.html" target="_top" xlink:title="JSONDisplayable">
<polygon fill="#ffffff" stroke="#000000" points="12.0107,-175.5 12.0107,-193.5 106.3749,-193.5 106.3749,-175.5 12.0107,-175.5"/>
<text text-anchor="middle" x="59.1928" y="-181.5" font-family="Helvetica,sans-Serif" font-size="10.00" fill="#000000">JSONDisplayable</text>
</a>
</g>
</g>
<!-- Node5&#45;&gt;Node3 -->
<g id="edge4" class="edge">
<title>Node5&#45;&gt;Node3</title>
<path fill="none" stroke="#191970" d="M59.1928,-165.383C59.1928,-156.3738 59.1928,-146.0373 59.1928,-138.7795"/>
<polygon fill="#191970" stroke="#191970" points="55.6929,-165.4178 59.1928,-175.4179 62.6929,-165.4179 55.6929,-165.4178"/>
</g>
<!-- Node6 -->
<g id="node6" class="node">
<title>Node6</title>
<g id="a_node6"><a xlink:href="interfacelocomotor_1_1components_1_1types_1_1_c_item_type.html" target="_top" xlink:title="CItemType">
<polygon fill="#ffffff" stroke="#000000" points="130.0156,-120.5 130.0156,-138.5 194.37,-138.5 194.37,-120.5 130.0156,-120.5"/>
<text text-anchor="middle" x="162.1928" y="-126.5" font-family="Helvetica,sans-Serif" font-size="10.00" fill="#000000">CItemType</text>
</a>
</g>
</g>
<!-- Node5&#45;&gt;Node6 -->
<g id="edge8" class="edge">
<title>Node5&#45;&gt;Node6</title>
<path fill="none" stroke="#191970" d="M85.1383,-170.6456C103.9384,-160.6067 128.8244,-147.3181 145.1592,-138.5956"/>
<polygon fill="#191970" stroke="#191970" points="83.3737,-167.6201 76.2012,-175.4179 86.671,-173.7949 83.3737,-167.6201"/>
</g>
<!-- Node6&#45;&gt;Node2 -->
<g id="edge5" class="edge">
<title>Node6&#45;&gt;Node2</title>
<path fill="none" stroke="#191970" d="M162.1928,-110.1865C162.1928,-101.6283 162.1928,-91.7354 162.1928,-83.8477"/>
<polygon fill="#191970" stroke="#191970" points="158.6929,-110.3873 162.1928,-120.3873 165.6929,-110.3873 158.6929,-110.3873"/>
</g>
<!-- Node7&#45;&gt;Node6 -->
<g id="edge6" class="edge">
<title>Node7&#45;&gt;Node6</title>
<path fill="none" stroke="#191970" d="M170.0218,-165.383C168.0562,-156.3738 165.801,-146.0373 164.2174,-138.7795"/>
<polygon fill="#191970" stroke="#191970" points="166.6599,-166.3938 172.2112,-175.4179 173.4991,-164.9016 166.6599,-166.3938"/>
</g>
<!-- Node9 -->
<g id="node9" class="node">
<title>Node9</title>
<g id="a_node9"><a xlink:href="interfacelocomotor_1_1components_1_1types_1_1_c_user_type.html" target="_top" xlink:title="CUserType">
<polygon fill="#ffffff" stroke="#000000" points="212.183,-120.5 212.183,-138.5 278.2026,-138.5 278.2026,-120.5 212.183,-120.5"/>
<text text-anchor="middle" x="245.1928" y="-126.5" font-family="Helvetica,sans-Serif" font-size="10.00" fill="#000000">CUserType</text>
</a>
</g>
</g>
<!-- Node7&#45;&gt;Node9 -->
<g id="edge11" class="edge">
<title>Node7&#45;&gt;Node9</title>
<path fill="none" stroke="#191970" d="M194.0082,-169.15C206.6076,-159.3899 222.5061,-147.0742 233.2139,-138.7795"/>
<polygon fill="#191970" stroke="#191970" points="191.6791,-166.5269 185.917,-175.4179 195.9659,-172.0608 191.6791,-166.5269"/>
</g>
<!-- Node8 -->
<g id="node8" class="node">
<title>Node8</title>
<g id="a_node8"><a xlink:href="interfacelocomotor_1_1components_1_1_j_s_o_n_convertissable.html" target="_top" xlink:title="JSONConvertissable">
<polygon fill="#ffffff" stroke="#000000" points="241.7866,-175.5 241.7866,-193.5 350.5991,-193.5 350.5991,-175.5 241.7866,-175.5"/>
<text text-anchor="middle" x="296.1928" y="-181.5" font-family="Helvetica,sans-Serif" font-size="10.00" fill="#000000">JSONConvertissable</text>
</a>
</g>
</g>
<!-- Node8&#45;&gt;Node6 -->
<g id="edge9" class="edge">
<title>Node8&#45;&gt;Node6</title>
<path fill="none" stroke="#191970" d="M264.7589,-171.598C240.0611,-161.4609 206.2834,-147.5969 184.3531,-138.5956"/>
<polygon fill="#191970" stroke="#191970" points="263.4854,-174.8586 274.0654,-175.4179 266.1434,-168.3829 263.4854,-174.8586"/>
</g>
<!-- Node8&#45;&gt;Node9 -->
<g id="edge12" class="edge">
<title>Node8&#45;&gt;Node9</title>
<path fill="none" stroke="#191970" d="M280.9048,-168.0129C272.036,-158.4485 261.193,-146.7552 253.7974,-138.7795"/>
<polygon fill="#191970" stroke="#191970" points="278.4053,-170.465 287.7712,-175.4179 283.5382,-165.7054 278.4053,-170.465"/>
</g>
<!-- Node9&#45;&gt;Node2 -->
<g id="edge10" class="edge">
<title>Node9&#45;&gt;Node2</title>
<path fill="none" stroke="#191970" d="M224.2217,-114.3402C211.1694,-104.9048 194.4956,-92.8515 181.7231,-83.6183"/>
<polygon fill="#191970" stroke="#191970" points="222.4322,-117.3653 232.5869,-120.3873 226.5331,-111.6923 222.4322,-117.3653"/>
</g>
<!-- Node10 -->
<g id="node10" class="node">
<title>Node10</title>
<g id="a_node10"><a xlink:href="interfacelocomotor_1_1components_1_1types_1_1_c_comparable.html" target="_top" xlink:title="CComparable\&lt; CIntervalInteger,\l CIntervalInteger \&gt;">
<polygon fill="#ffffff" stroke="#000000" points="234.3471,-55.5 234.3471,-83.5 394.0385,-83.5 394.0385,-55.5 234.3471,-55.5"/>
<text text-anchor="start" x="242.3471" y="-71.5" font-family="Helvetica,sans-Serif" font-size="10.00" fill="#000000">CComparable&lt; CIntervalInteger,</text>
<text text-anchor="middle" x="314.1928" y="-61.5" font-family="Helvetica,sans-Serif" font-size="10.00" fill="#000000"> CIntervalInteger &gt;</text>
</a>
</g>
</g>
<!-- Node10&#45;&gt;Node1 -->
<g id="edge13" class="edge">
<title>Node10&#45;&gt;Node1</title>
<path fill="none" stroke="#191970" d="M287.9763,-48.8028C274.9262,-38.5001 259.8184,-26.5728 249.6994,-18.5842"/>
<polygon fill="#191970" stroke="#191970" points="286.1642,-51.8315 296.1819,-55.2808 290.5018,-46.3373 286.1642,-51.8315"/>
</g>
</g>
</svg>
