<?xml version="1.0" encoding="UTF-8" standalone="no"?>
<!DOCTYPE svg PUBLIC "-//W3C//DTD SVG 1.1//EN"
 "http://www.w3.org/Graphics/SVG/1.1/DTD/svg11.dtd">
<!-- Generated by graphviz version 2.40.1 (20161225.0304)
 -->
<!-- Title: verifyPassword Pages: 1 -->
<svg width="198pt" height="101pt"
 viewBox="0.00 0.00 197.71 101.00" xmlns="http://www.w3.org/2000/svg" xmlns:xlink="http://www.w3.org/1999/xlink">
<g id="graph0" class="graph" transform="scale(1 1) rotate(0) translate(4 97)">
<title>verifyPassword</title>
<polygon fill="#ffffff" stroke="transparent" points="-4,4 -4,-97 193.7139,-97 193.7139,4 -4,4"/>
<!-- Node1 -->
<g id="node1" class="node">
<title>Node1</title>
<polygon fill="#bfbfbf" stroke="#000000" points="0,-37.5 0,-55.5 83.7979,-55.5 83.7979,-37.5 0,-37.5"/>
<text text-anchor="middle" x="41.8989" y="-43.5" font-family="Helvetica,sans-Serif" font-size="10.00" fill="#000000">verifyPassword</text>
</g>
<!-- Node2 -->
<g id="node2" class="node">
<title>Node2</title>
<g id="a_node2"><a xlink:href="classlocomotor_1_1core_1_1_password_storage.html#a3b25ec8123fea2733c6b373456e8895d" target="_top" xlink:title="fromBase64">
<polygon fill="#ffffff" stroke="#000000" points="119.7979,-74.5 119.7979,-92.5 189.7139,-92.5 189.7139,-74.5 119.7979,-74.5"/>
<text text-anchor="middle" x="154.7559" y="-80.5" font-family="Helvetica,sans-Serif" font-size="10.00" fill="#000000">fromBase64</text>
</a>
</g>
</g>
<!-- Node1&#45;&gt;Node2 -->
<g id="edge1" class="edge">
<title>Node1&#45;&gt;Node2</title>
<path fill="none" stroke="#191970" d="M69.5068,-55.5512C83.853,-60.2546 101.5965,-66.0718 117.1748,-71.1791"/>
<polygon fill="#191970" stroke="#191970" points="116.4491,-74.6244 127.0418,-74.414 118.6299,-67.9728 116.4491,-74.6244"/>
</g>
<!-- Node3 -->
<g id="node3" class="node">
<title>Node3</title>
<g id="a_node3"><a xlink:href="classlocomotor_1_1core_1_1_password_storage.html#a19edc31c5ae3911d65e566bfaf369f10" target="_top" xlink:title="pbkdf2">
<polygon fill="#ffffff" stroke="#000000" points="131.7437,-37.5 131.7437,-55.5 177.7681,-55.5 177.7681,-37.5 131.7437,-37.5"/>
<text text-anchor="middle" x="154.7559" y="-43.5" font-family="Helvetica,sans-Serif" font-size="10.00" fill="#000000">pbkdf2</text>
</a>
</g>
</g>
<!-- Node1&#45;&gt;Node3 -->
<g id="edge2" class="edge">
<title>Node1&#45;&gt;Node3</title>
<path fill="none" stroke="#191970" d="M83.9227,-46.5C96.3019,-46.5 109.6723,-46.5 121.4266,-46.5"/>
<polygon fill="#191970" stroke="#191970" points="121.6922,-50.0001 131.6921,-46.5 121.6921,-43.0001 121.6922,-50.0001"/>
</g>
<!-- Node4 -->
<g id="node4" class="node">
<title>Node4</title>
<g id="a_node4"><a xlink:href="classlocomotor_1_1core_1_1_password_storage.html#aa42e158b2aab0d24945289af4e5fc5d3" target="_top" xlink:title="slowEquals">
<polygon fill="#ffffff" stroke="#000000" points="121.4653,-.5 121.4653,-18.5 188.0464,-18.5 188.0464,-.5 121.4653,-.5"/>
<text text-anchor="middle" x="154.7559" y="-6.5" font-family="Helvetica,sans-Serif" font-size="10.00" fill="#000000">slowEquals</text>
</a>
</g>
</g>
<!-- Node1&#45;&gt;Node4 -->
<g id="edge3" class="edge">
<title>Node1&#45;&gt;Node4</title>
<path fill="none" stroke="#191970" d="M69.5068,-37.4488C83.853,-32.7454 101.5965,-26.9282 117.1748,-21.8209"/>
<polygon fill="#191970" stroke="#191970" points="118.6299,-25.0272 127.0418,-18.586 116.4491,-18.3756 118.6299,-25.0272"/>
</g>
</g>
</svg>
