<?xml version="1.0" encoding="UTF-8" standalone="no"?>
<!DOCTYPE svg PUBLIC "-//W3C//DTD SVG 1.1//EN"
 "http://www.w3.org/Graphics/SVG/1.1/DTD/svg11.dtd">
<!-- Generated by graphviz version 2.40.1 (20161225.0304)
 -->
<!-- Title: getUniverse Pages: 1 -->
<!--zoomable 64 -->
<svg id="main" version="1.1" xmlns="http://www.w3.org/2000/svg" xmlns:xlink="http://www.w3.org/1999/xlink" xml:space="preserve" onload="init(evt)">
<style type="text/css"><![CDATA[
.edge:hover path { stroke: red; }
.edge:hover polygon { stroke: red; fill: red; }
]]></style>
<script type="text/javascript"><![CDATA[
var edges = document.getElementsByTagName('g');
if (edges && edges.length) {
  for (var i=0;i<edges.length;i++) {
    if (edges[i].id.substr(0,4)=='edge') {
      edges[i].setAttribute('class','edge');
    }
  }
}
]]></script>
        <defs>
                <circle id="rim" cx="0" cy="0" r="7"/>
                <circle id="rim2" cx="0" cy="0" r="3.5"/>
                <g id="zoomPlus">
                        <use xlink:href="#rim" fill="#404040">
                                <set attributeName="fill" to="#808080" begin="zoomplus.mouseover" end="zoomplus.mouseout"/>
                        </use>
                        <path d="M-4,0h8M0,-4v8" fill="none" stroke="white" stroke-width="1.5" pointer-events="none"/>
                </g>
                <g id="zoomMin">
                        <use xlink:href="#rim" fill="#404040">
                                <set attributeName="fill" to="#808080" begin="zoomminus.mouseover" end="zoomminus.mouseout"/>
                        </use>
                        <path d="M-4,0h8" fill="none" stroke="white" stroke-width="1.5" pointer-events="none"/>
                </g>
                <g id="dirArrow">
                        <path fill="none" stroke="white" stroke-width="1.5" d="M0,-3.0v7 M-2.5,-0.5L0,-3.0L2.5,-0.5"/>
                </g>
               <g id="resetDef">
                       <use xlink:href="#rim2" fill="#404040">
                               <set attributeName="fill" to="#808080" begin="reset.mouseover" end="reset.mouseout"/>
                       </use>
               </g>
        </defs>

<script type="text/javascript">
var viewWidth = 815;
var viewHeight = 64;
var sectionId = 'dynsection-8';
</script>
<script xlink:href="svgpan.js"/>
<svg id="graph" class="graph">
<g id="viewport">
<title>getUniverse</title>
<polygon fill="#ffffff" stroke="transparent" points="-4,4 -4,-60 811.0664,-60 811.0664,4 -4,4"/>
<!-- Node1 -->
<g id="node1" class="node">
<title>Node1</title>
<polygon fill="#bfbfbf" stroke="#000000" points="0,-18.5 0,-36.5 69.3594,-36.5 69.3594,-18.5 0,-18.5"/>
<text text-anchor="middle" x="34.6797" y="-24.5" font-family="Helvetica,sans-Serif" font-size="10.00" fill="#000000">getUniverse</text>
</g>
<!-- Node2 -->
<g id="node2" class="node">
<title>Node2</title>
<g id="a_node2"><a xlink:href="classlocomotor_1_1core_1_1_d_b_h.html#ad067053be75a3170dc9c2ce7b922e176" target="_top" xlink:title="locomotor.core.DBH.checking\lParsingItem">
<polygon fill="#ffffff" stroke="#000000" points="105.3594,-13.5 105.3594,-41.5 253.0879,-41.5 253.0879,-13.5 105.3594,-13.5"/>
<text text-anchor="start" x="113.3594" y="-29.5" font-family="Helvetica,sans-Serif" font-size="10.00" fill="#000000">locomotor.core.DBH.checking</text>
<text text-anchor="middle" x="179.2236" y="-19.5" font-family="Helvetica,sans-Serif" font-size="10.00" fill="#000000">ParsingItem</text>
</a>
</g>
</g>
<!-- Node1&#45;&gt;Node2 -->
<g id="edge1" class="edge">
<title>Node1&#45;&gt;Node2</title>
<path fill="none" stroke="#191970" d="M79.9048,-27.5C87.9507,-27.5 96.5192,-27.5 105.1223,-27.5"/>
<polygon fill="#191970" stroke="#191970" points="79.6698,-24.0001 69.6697,-27.5 79.6697,-31.0001 79.6698,-24.0001"/>
</g>
<!-- Node3 -->
<g id="node3" class="node">
<title>Node3</title>
<g id="a_node3"><a xlink:href="classlocomotor_1_1core_1_1_d_b_h.html#ae26eef1ee7482f2e0167c6a18924d214" target="_top" xlink:title="locomotor.core.DBH.addItem">
<polygon fill="#ffffff" stroke="#000000" points="296.0386,-37.5 296.0386,-55.5 440.4321,-55.5 440.4321,-37.5 296.0386,-37.5"/>
<text text-anchor="middle" x="368.2354" y="-43.5" font-family="Helvetica,sans-Serif" font-size="10.00" fill="#000000">locomotor.core.DBH.addItem</text>
</a>
</g>
</g>
<!-- Node2&#45;&gt;Node3 -->
<g id="edge2" class="edge">
<title>Node2&#45;&gt;Node3</title>
<path fill="none" stroke="#191970" d="M263.1022,-35.9317C274.0575,-37.033 285.2057,-38.1536 295.948,-39.2335"/>
<polygon fill="#191970" stroke="#191970" points="263.4125,-32.4454 253.1126,-34.9275 262.7123,-39.4103 263.4125,-32.4454"/>
</g>
<!-- Node6 -->
<g id="node6" class="node">
<title>Node6</title>
<g id="a_node6"><a xlink:href="classlocomotor_1_1core_1_1_d_b_h.html#aa0e39c547d06fd9d0ad2de70251c9cc0" target="_top" xlink:title="locomotor.core.DBH.updateItem">
<polygon fill="#ffffff" stroke="#000000" points="289.0879,-.5 289.0879,-18.5 447.3828,-18.5 447.3828,-.5 289.0879,-.5"/>
<text text-anchor="middle" x="368.2354" y="-6.5" font-family="Helvetica,sans-Serif" font-size="10.00" fill="#000000">locomotor.core.DBH.updateItem</text>
</a>
</g>
</g>
<!-- Node2&#45;&gt;Node6 -->
<g id="edge5" class="edge">
<title>Node2&#45;&gt;Node6</title>
<path fill="none" stroke="#191970" d="M263.0726,-19.5149C271.6176,-18.7011 280.2803,-17.8762 288.7765,-17.067"/>
<polygon fill="#191970" stroke="#191970" points="262.7357,-16.031 253.1126,-20.4634 263.3994,-22.9995 262.7357,-16.031"/>
</g>
<!-- Node4 -->
<g id="node4" class="node">
<title>Node4</title>
<g id="a_node4"><a xlink:href="classlocomotor_1_1components_1_1network_1_1_a_p_i.html#a547463fbc7fb7b485886f0917e2c0b78" target="_top" xlink:title="locomotor.components.network.\lAPI.createHooks">
<polygon fill="#ffffff" stroke="#000000" points="483.3828,-13.5 483.3828,-41.5 640.5693,-41.5 640.5693,-13.5 483.3828,-13.5"/>
<text text-anchor="start" x="491.3828" y="-29.5" font-family="Helvetica,sans-Serif" font-size="10.00" fill="#000000">locomotor.components.network.</text>
<text text-anchor="middle" x="561.9761" y="-19.5" font-family="Helvetica,sans-Serif" font-size="10.00" fill="#000000">API.createHooks</text>
</a>
</g>
</g>
<!-- Node3&#45;&gt;Node4 -->
<g id="edge3" class="edge">
<title>Node3&#45;&gt;Node4</title>
<path fill="none" stroke="#191970" d="M450.8346,-38.3996C461.5489,-37.3488 472.5013,-36.2747 483.1519,-35.2302"/>
<polygon fill="#191970" stroke="#191970" points="450.2634,-34.9387 440.6528,-39.3981 450.9466,-41.9053 450.2634,-34.9387"/>
</g>
<!-- Node5 -->
<g id="node5" class="node">
<title>Node5</title>
<g id="a_node5"><a xlink:href="classlocomotor_1_1core_1_1_main.html#a8b260eecbaabcef8473fd87ada040682" target="_top" xlink:title="locomotor.core.Main.main">
<polygon fill="#ffffff" stroke="#000000" points="676.5693,-18.5 676.5693,-36.5 807.0664,-36.5 807.0664,-18.5 676.5693,-18.5"/>
<text text-anchor="middle" x="741.8179" y="-24.5" font-family="Helvetica,sans-Serif" font-size="10.00" fill="#000000">locomotor.core.Main.main</text>
</a>
</g>
</g>
<!-- Node4&#45;&gt;Node5 -->
<g id="edge4" class="edge">
<title>Node4&#45;&gt;Node5</title>
<path fill="none" stroke="#191970" d="M650.7691,-27.5C659.4574,-27.5 668.1597,-27.5 676.5516,-27.5"/>
<polygon fill="#191970" stroke="#191970" points="650.5957,-24.0001 640.5957,-27.5 650.5956,-31.0001 650.5957,-24.0001"/>
</g>
<!-- Node6&#45;&gt;Node4 -->
<g id="edge6" class="edge">
<title>Node6&#45;&gt;Node4</title>
<path fill="none" stroke="#191970" d="M457.6285,-17.8053C466.2193,-18.6035 474.889,-19.4089 483.3652,-20.1965"/>
<polygon fill="#191970" stroke="#191970" points="457.8771,-14.3134 447.5961,-16.8732 457.2294,-21.2834 457.8771,-14.3134"/>
</g>
</g>
</svg>
        <g id="navigator" transform="translate(0 0)" fill="#404254">
                <rect fill="#f2f5e9" fill-opacity="0.5" stroke="#606060" stroke-width=".5" x="0" y="0" width="60" height="60"/>
                <use id="zoomplus" xlink:href="#zoomPlus" x="17" y="9" onmousedown="handleZoom(evt,'in')"/>
                <use id="zoomminus" xlink:href="#zoomMin" x="42" y="9" onmousedown="handleZoom(evt,'out')"/>
                <use id="reset" xlink:href="#resetDef" x="30" y="36" onmousedown="handleReset()"/>
                <g id="arrowUp" xlink:href="#dirArrow" transform="translate(30 24)" onmousedown="handlePan(0,-1)">
                  <use xlink:href="#rim" fill="#404040">
                        <set attributeName="fill" to="#808080" begin="arrowUp.mouseover" end="arrowUp.mouseout"/>
                  </use>
                  <path fill="none" stroke="white" stroke-width="1.5" d="M0,-3.0v7 M-2.5,-0.5L0,-3.0L2.5,-0.5"/>
                </g>
                <g id="arrowRight" xlink:href="#dirArrow" transform="rotate(90) translate(36 -43)" onmousedown="handlePan(1,0)">
                  <use xlink:href="#rim" fill="#404040">
                        <set attributeName="fill" to="#808080" begin="arrowRight.mouseover" end="arrowRight.mouseout"/>
                  </use>
                  <path fill="none" stroke="white" stroke-width="1.5" d="M0,-3.0v7 M-2.5,-0.5L0,-3.0L2.5,-0.5"/>
                </g>
                <g id="arrowDown" xlink:href="#dirArrow" transform="rotate(180) translate(-30 -48)" onmousedown="handlePan(0,1)">
                  <use xlink:href="#rim" fill="#404040">
                        <set attributeName="fill" to="#808080" begin="arrowDown.mouseover" end="arrowDown.mouseout"/>
                  </use>
                  <path fill="none" stroke="white" stroke-width="1.5" d="M0,-3.0v7 M-2.5,-0.5L0,-3.0L2.5,-0.5"/>
                </g>
                <g id="arrowLeft" xlink:href="#dirArrow" transform="rotate(270) translate(-36 17)" onmousedown="handlePan(-1,0)">
                  <use xlink:href="#rim" fill="#404040">
                        <set attributeName="fill" to="#808080" begin="arrowLeft.mouseover" end="arrowLeft.mouseout"/>
                  </use>
                  <path fill="none" stroke="white" stroke-width="1.5" d="M0,-3.0v7 M-2.5,-0.5L0,-3.0L2.5,-0.5"/>
                </g>
        </g>
        <svg viewBox="0 0 15 15" width="100%" height="30px" preserveAspectRatio="xMaxYMin meet">
         <g id="arrow_out" transform="scale(0.3 0.3)">
          <a xlink:href="classlocomotor_1_1components_1_1models_1_1_item_full_a27e15ff845320cbae7ca4dbb6a882eb4_icgraph_org.svg" target="_base">
           <rect id="button" ry="5" rx="5" y="6" x="6" height="38" width="38"
                fill="#f2f5e9" fill-opacity="0.5" stroke="#606060" stroke-width="1.0"/>
           <path id="arrow"
             d="M 11.500037,31.436501 C 11.940474,20.09759 22.043105,11.32322 32.158766,21.979434 L 37.068811,17.246167 C 37.068811,17.246167 37.088388,32 37.088388,32 L 22.160133,31.978069 C 22.160133,31.978069 26.997745,27.140456 26.997745,27.140456 C 18.528582,18.264221 13.291696,25.230495 11.500037,31.436501 z"
             style="fill:#404040;"/>
          </a>
         </g>
        </svg>
</svg>
