<?xml version="1.0" encoding="UTF-8" standalone="no"?>
<!DOCTYPE svg PUBLIC "-//W3C//DTD SVG 1.1//EN"
 "http://www.w3.org/Graphics/SVG/1.1/DTD/svg11.dtd">
<!-- Generated by graphviz version 2.40.1 (20161225.0304)
 -->
<!-- Title: CStringList Pages: 1 -->
<svg width="359pt" height="247pt"
 viewBox="0.00 0.00 358.60 247.00" xmlns="http://www.w3.org/2000/svg" xmlns:xlink="http://www.w3.org/1999/xlink">
<g id="graph0" class="graph" transform="scale(1 1) rotate(0) translate(4 243)">
<title>CStringList</title>
<polygon fill="#ffffff" stroke="transparent" points="-4,4 -4,-243 354.5991,-243 354.5991,4 -4,4"/>
<!-- Node1 -->
<g id="node1" class="node">
<title>Node1</title>
<polygon fill="#bfbfbf" stroke="#000000" points="129.7397,-55.5 129.7397,-73.5 194.6459,-73.5 194.6459,-55.5 129.7397,-55.5"/>
<text text-anchor="middle" x="162.1928" y="-61.5" font-family="Helvetica,sans-Serif" font-size="10.00" fill="#000000">CStringList</text>
</g>
<!-- Node9 -->
<g id="node9" class="node">
<title>Node9</title>
<g id="a_node9"><a xlink:href="classlocomotor_1_1components_1_1types_1_1_c_mapped_string_list.html" target="_top" xlink:title="CMappedStringList">
<polygon fill="#ffffff" stroke="#000000" points="50.6708,-.5 50.6708,-18.5 151.7148,-18.5 151.7148,-.5 50.6708,-.5"/>
<text text-anchor="middle" x="101.1928" y="-6.5" font-family="Helvetica,sans-Serif" font-size="10.00" fill="#000000">CMappedStringList</text>
</a>
</g>
</g>
<!-- Node1&#45;&gt;Node9 -->
<g id="edge12" class="edge">
<title>Node1&#45;&gt;Node9</title>
<path fill="none" stroke="#191970" d="M144.5407,-48.5841C133.8198,-38.9177 120.5073,-26.9147 111.4846,-18.7795"/>
<polygon fill="#191970" stroke="#191970" points="142.3492,-51.3209 152.1199,-55.4179 147.0367,-46.122 142.3492,-51.3209"/>
</g>
<!-- Node10 -->
<g id="node10" class="node">
<title>Node10</title>
<g id="a_node10"><a xlink:href="classlocomotor_1_1components_1_1types_1_1_c_weighted_string_list.html" target="_top" xlink:title="CWeightedStringList">
<polygon fill="#ffffff" stroke="#000000" points="169.7045,-.5 169.7045,-18.5 276.6811,-18.5 276.6811,-.5 169.7045,-.5"/>
<text text-anchor="middle" x="223.1928" y="-6.5" font-family="Helvetica,sans-Serif" font-size="10.00" fill="#000000">CWeightedStringList</text>
</a>
</g>
</g>
<!-- Node1&#45;&gt;Node10 -->
<g id="edge13" class="edge">
<title>Node1&#45;&gt;Node10</title>
<path fill="none" stroke="#191970" d="M179.8449,-48.5841C190.5658,-38.9177 203.8783,-26.9147 212.901,-18.7795"/>
<polygon fill="#191970" stroke="#191970" points="177.3489,-46.122 172.2657,-55.4179 182.0364,-51.3209 177.3489,-46.122"/>
</g>
<!-- Node2 -->
<g id="node2" class="node">
<title>Node2</title>
<g id="a_node2"><a xlink:href="interfacelocomotor_1_1components_1_1types_1_1_c_universe_type.html" target="_top" xlink:title="CUniverseType">
<polygon fill="#ffffff" stroke="#000000" points="17.0107,-110.5 17.0107,-128.5 101.3749,-128.5 101.3749,-110.5 17.0107,-110.5"/>
<text text-anchor="middle" x="59.1928" y="-116.5" font-family="Helvetica,sans-Serif" font-size="10.00" fill="#000000">CUniverseType</text>
</a>
</g>
</g>
<!-- Node2&#45;&gt;Node1 -->
<g id="edge1" class="edge">
<title>Node2&#45;&gt;Node1</title>
<path fill="none" stroke="#191970" d="M85.1383,-105.6456C103.9384,-95.6067 128.8244,-82.3181 145.1592,-73.5956"/>
<polygon fill="#191970" stroke="#191970" points="83.3737,-102.6201 76.2012,-110.4179 86.671,-108.7949 83.3737,-102.6201"/>
</g>
<!-- Node3 -->
<g id="node3" class="node">
<title>Node3</title>
<g id="a_node3"><a xlink:href="interfacelocomotor_1_1components_1_1types_1_1_c_type.html" target="_top" xlink:title="CType">
<polygon fill="#ffffff" stroke="#000000" points="56.7397,-220.5 56.7397,-238.5 101.6459,-238.5 101.6459,-220.5 56.7397,-220.5"/>
<text text-anchor="middle" x="79.1928" y="-226.5" font-family="Helvetica,sans-Serif" font-size="10.00" fill="#000000">CType</text>
</a>
</g>
</g>
<!-- Node3&#45;&gt;Node2 -->
<g id="edge2" class="edge">
<title>Node3&#45;&gt;Node2</title>
<path fill="none" stroke="#191970" d="M46.6735,-218.8103C30.5431,-211.6728 12.5499,-200.5079 3.1928,-184 -9.3851,-161.8101 20.2178,-140.3215 40.999,-128.6088"/>
<polygon fill="#191970" stroke="#191970" points="45.7999,-222.2328 56.3823,-222.7457 48.4295,-215.7454 45.7999,-222.2328"/>
</g>
<!-- Node6 -->
<g id="node6" class="node">
<title>Node6</title>
<g id="a_node6"><a xlink:href="interfacelocomotor_1_1components_1_1types_1_1_c_comparable_type.html" target="_top" xlink:title="CComparableType">
<polygon fill="#ffffff" stroke="#000000" points="124.5034,-165.5 124.5034,-183.5 223.8823,-183.5 223.8823,-165.5 124.5034,-165.5"/>
<text text-anchor="middle" x="174.1928" y="-171.5" font-family="Helvetica,sans-Serif" font-size="10.00" fill="#000000">CComparableType</text>
</a>
</g>
</g>
<!-- Node3&#45;&gt;Node6 -->
<g id="edge6" class="edge">
<title>Node3&#45;&gt;Node6</title>
<path fill="none" stroke="#191970" d="M103.8388,-215.2313C121.0904,-205.2435 143.6225,-192.1986 158.4822,-183.5956"/>
<polygon fill="#191970" stroke="#191970" points="101.7808,-212.3785 94.8801,-220.4179 105.288,-218.4365 101.7808,-212.3785"/>
</g>
<!-- Node4 -->
<g id="node4" class="node">
<title>Node4</title>
<g id="a_node4"><a xlink:href="interfacelocomotor_1_1components_1_1_j_s_o_n_displayable.html" target="_top" xlink:title="JSONDisplayable">
<polygon fill="#ffffff" stroke="#000000" points="12.0107,-165.5 12.0107,-183.5 106.3749,-183.5 106.3749,-165.5 12.0107,-165.5"/>
<text text-anchor="middle" x="59.1928" y="-171.5" font-family="Helvetica,sans-Serif" font-size="10.00" fill="#000000">JSONDisplayable</text>
</a>
</g>
</g>
<!-- Node4&#45;&gt;Node2 -->
<g id="edge3" class="edge">
<title>Node4&#45;&gt;Node2</title>
<path fill="none" stroke="#191970" d="M59.1928,-155.383C59.1928,-146.3738 59.1928,-136.0373 59.1928,-128.7795"/>
<polygon fill="#191970" stroke="#191970" points="55.6929,-155.4178 59.1928,-165.4179 62.6929,-155.4179 55.6929,-155.4178"/>
</g>
<!-- Node5 -->
<g id="node5" class="node">
<title>Node5</title>
<g id="a_node5"><a xlink:href="interfacelocomotor_1_1components_1_1types_1_1_c_item_type.html" target="_top" xlink:title="CItemType">
<polygon fill="#ffffff" stroke="#000000" points="130.0156,-110.5 130.0156,-128.5 194.37,-128.5 194.37,-110.5 130.0156,-110.5"/>
<text text-anchor="middle" x="162.1928" y="-116.5" font-family="Helvetica,sans-Serif" font-size="10.00" fill="#000000">CItemType</text>
</a>
</g>
</g>
<!-- Node4&#45;&gt;Node5 -->
<g id="edge7" class="edge">
<title>Node4&#45;&gt;Node5</title>
<path fill="none" stroke="#191970" d="M85.1383,-160.6456C103.9384,-150.6067 128.8244,-137.3181 145.1592,-128.5956"/>
<polygon fill="#191970" stroke="#191970" points="83.3737,-157.6201 76.2012,-165.4179 86.671,-163.7949 83.3737,-157.6201"/>
</g>
<!-- Node5&#45;&gt;Node1 -->
<g id="edge4" class="edge">
<title>Node5&#45;&gt;Node1</title>
<path fill="none" stroke="#191970" d="M162.1928,-100.383C162.1928,-91.3738 162.1928,-81.0373 162.1928,-73.7795"/>
<polygon fill="#191970" stroke="#191970" points="158.6929,-100.4178 162.1928,-110.4179 165.6929,-100.4179 158.6929,-100.4178"/>
</g>
<!-- Node6&#45;&gt;Node5 -->
<g id="edge5" class="edge">
<title>Node6&#45;&gt;Node5</title>
<path fill="none" stroke="#191970" d="M170.0218,-155.383C168.0562,-146.3738 165.801,-136.0373 164.2174,-128.7795"/>
<polygon fill="#191970" stroke="#191970" points="166.6599,-156.3938 172.2112,-165.4179 173.4991,-154.9016 166.6599,-156.3938"/>
</g>
<!-- Node8 -->
<g id="node8" class="node">
<title>Node8</title>
<g id="a_node8"><a xlink:href="interfacelocomotor_1_1components_1_1types_1_1_c_user_type.html" target="_top" xlink:title="CUserType">
<polygon fill="#ffffff" stroke="#000000" points="212.183,-110.5 212.183,-128.5 278.2026,-128.5 278.2026,-110.5 212.183,-110.5"/>
<text text-anchor="middle" x="245.1928" y="-116.5" font-family="Helvetica,sans-Serif" font-size="10.00" fill="#000000">CUserType</text>
</a>
</g>
</g>
<!-- Node6&#45;&gt;Node8 -->
<g id="edge10" class="edge">
<title>Node6&#45;&gt;Node8</title>
<path fill="none" stroke="#191970" d="M194.0082,-159.15C206.6076,-149.3899 222.5061,-137.0742 233.2139,-128.7795"/>
<polygon fill="#191970" stroke="#191970" points="191.6791,-156.5269 185.917,-165.4179 195.9659,-162.0608 191.6791,-156.5269"/>
</g>
<!-- Node7 -->
<g id="node7" class="node">
<title>Node7</title>
<g id="a_node7"><a xlink:href="interfacelocomotor_1_1components_1_1_j_s_o_n_convertissable.html" target="_top" xlink:title="JSONConvertissable">
<polygon fill="#ffffff" stroke="#000000" points="241.7866,-165.5 241.7866,-183.5 350.5991,-183.5 350.5991,-165.5 241.7866,-165.5"/>
<text text-anchor="middle" x="296.1928" y="-171.5" font-family="Helvetica,sans-Serif" font-size="10.00" fill="#000000">JSONConvertissable</text>
</a>
</g>
</g>
<!-- Node7&#45;&gt;Node5 -->
<g id="edge8" class="edge">
<title>Node7&#45;&gt;Node5</title>
<path fill="none" stroke="#191970" d="M264.7589,-161.598C240.0611,-151.4609 206.2834,-137.5969 184.3531,-128.5956"/>
<polygon fill="#191970" stroke="#191970" points="263.4854,-164.8586 274.0654,-165.4179 266.1434,-158.3829 263.4854,-164.8586"/>
</g>
<!-- Node7&#45;&gt;Node8 -->
<g id="edge11" class="edge">
<title>Node7&#45;&gt;Node8</title>
<path fill="none" stroke="#191970" d="M280.9048,-158.0129C272.036,-148.4485 261.193,-136.7552 253.7974,-128.7795"/>
<polygon fill="#191970" stroke="#191970" points="278.4053,-160.465 287.7712,-165.4179 283.5382,-155.7054 278.4053,-160.465"/>
</g>
<!-- Node8&#45;&gt;Node1 -->
<g id="edge9" class="edge">
<title>Node8&#45;&gt;Node1</title>
<path fill="none" stroke="#191970" d="M222.8179,-104.6733C207.8607,-94.7619 188.6612,-82.0393 175.9189,-73.5956"/>
<polygon fill="#191970" stroke="#191970" points="221.2178,-107.8116 231.487,-110.4179 225.0844,-101.9764 221.2178,-107.8116"/>
</g>
</g>
</svg>
