<?xml version="1.0" encoding="UTF-8" standalone="no"?>
<!DOCTYPE svg PUBLIC "-//W3C//DTD SVG 1.1//EN"
 "http://www.w3.org/Graphics/SVG/1.1/DTD/svg11.dtd">
<!-- Generated by graphviz version 2.40.1 (20161225.0304)
 -->
<!-- Title: ItemFull Pages: 1 -->
<svg width="217pt" height="168pt"
 viewBox="0.00 0.00 216.78 168.00" xmlns="http://www.w3.org/2000/svg" xmlns:xlink="http://www.w3.org/1999/xlink">
<g id="graph0" class="graph" transform="scale(1 1) rotate(0) translate(4 164)">
<title>ItemFull</title>
<polygon fill="#ffffff" stroke="transparent" points="-4,4 -4,-164 212.7754,-164 212.7754,4 -4,4"/>
<!-- Node1 -->
<g id="node1" class="node">
<title>Node1</title>
<polygon fill="#bfbfbf" stroke="#000000" points="93.8125,-.5 93.8125,-18.5 145.374,-18.5 145.374,-.5 93.8125,-.5"/>
<text text-anchor="middle" x="119.5933" y="-6.5" font-family="Helvetica,sans-Serif" font-size="10.00" fill="#000000">ItemFull</text>
</g>
<!-- Node2 -->
<g id="node2" class="node">
<title>Node2</title>
<g id="a_node2"><a xlink:href="classlocomotor_1_1components_1_1models_1_1_item.html" target="_top" xlink:title="Item">
<polygon fill="#ffffff" stroke="#000000" points="60.8691,-56.5 60.8691,-74.5 96.3174,-74.5 96.3174,-56.5 60.8691,-56.5"/>
<text text-anchor="middle" x="78.5933" y="-62.5" font-family="Helvetica,sans-Serif" font-size="10.00" fill="#000000">Item</text>
</a>
</g>
</g>
<!-- Node2&#45;&gt;Node1 -->
<g id="edge1" class="edge">
<title>Node2&#45;&gt;Node1</title>
<path fill="none" stroke="#191970" d="M91.3913,-48.0197C98.5347,-38.263 107.1379,-26.5122 112.9489,-18.5752"/>
<polygon fill="#191970" stroke="#191970" points="88.447,-46.1165 85.3636,-56.2527 94.095,-50.2517 88.447,-46.1165"/>
</g>
<!-- Node3 -->
<g id="node3" class="node">
<title>Node3</title>
<polygon fill="#ffffff" stroke="#bfbfbf" points="0,-121.5 0,-159.5 157.1865,-159.5 157.1865,-121.5 0,-121.5"/>
<text text-anchor="start" x="8" y="-147.5" font-family="Helvetica,sans-Serif" font-size="10.00" fill="#000000">ArrayList&lt;?extends</text>
<text text-anchor="start" x="8" y="-137.5" font-family="Helvetica,sans-Serif" font-size="10.00" fill="#000000"> locomotor.components.models.</text>
<text text-anchor="middle" x="78.5933" y="-127.5" font-family="Helvetica,sans-Serif" font-size="10.00" fill="#000000">ItemCategory &gt;</text>
</g>
<!-- Node3&#45;&gt;Node2 -->
<g id="edge2" class="edge">
<title>Node3&#45;&gt;Node2</title>
<path fill="none" stroke="#9a32cd" stroke-dasharray="5,2" d="M78.5933,-110.801C78.5933,-97.909 78.5933,-83.73 78.5933,-74.7294"/>
<polygon fill="#9a32cd" stroke="#9a32cd" points="75.0934,-111.1856 78.5933,-121.1856 82.0934,-111.1857 75.0934,-111.1856"/>
<text text-anchor="middle" x="105.832" y="-95" font-family="Helvetica,sans-Serif" font-size="10.00" fill="#000000"> _categories</text>
</g>
<!-- Node4 -->
<g id="node4" class="node">
<title>Node4</title>
<g id="a_node4"><a xlink:href="interfacelocomotor_1_1components_1_1_j_s_o_n_displayable.html" target="_top" xlink:title="JSONDisplayable">
<polygon fill="#ffffff" stroke="#000000" points="114.4111,-56.5 114.4111,-74.5 208.7754,-74.5 208.7754,-56.5 114.4111,-56.5"/>
<text text-anchor="middle" x="161.5933" y="-62.5" font-family="Helvetica,sans-Serif" font-size="10.00" fill="#000000">JSONDisplayable</text>
</a>
</g>
</g>
<!-- Node4&#45;&gt;Node1 -->
<g id="edge3" class="edge">
<title>Node4&#45;&gt;Node1</title>
<path fill="none" stroke="#191970" d="M148.483,-48.0197C141.1655,-38.263 132.3524,-26.5122 126.3997,-18.5752"/>
<polygon fill="#191970" stroke="#191970" points="145.8578,-50.3527 154.6578,-56.2527 151.4578,-46.1527 145.8578,-50.3527"/>
</g>
</g>
</svg>
