<?xml version="1.0" encoding="UTF-8" standalone="no"?>
<!DOCTYPE svg PUBLIC "-//W3C//DTD SVG 1.1//EN"
 "http://www.w3.org/Graphics/SVG/1.1/DTD/svg11.dtd">
<!-- Generated by graphviz version 2.40.1 (20161225.0304)
 -->
<!-- Title: getAsString Pages: 1 -->
<svg width="435pt" height="37pt"
 viewBox="0.00 0.00 435.38 37.00" xmlns="http://www.w3.org/2000/svg" xmlns:xlink="http://www.w3.org/1999/xlink">
<g id="graph0" class="graph" transform="scale(1 1) rotate(0) translate(4 33)">
<title>getAsString</title>
<polygon fill="#ffffff" stroke="transparent" points="-4,4 -4,-33 431.3779,-33 431.3779,4 -4,4"/>
<!-- Node1 -->
<g id="node1" class="node">
<title>Node1</title>
<polygon fill="#bfbfbf" stroke="#000000" points="0,-5.5 0,-23.5 67.6943,-23.5 67.6943,-5.5 0,-5.5"/>
<text text-anchor="middle" x="33.8472" y="-11.5" font-family="Helvetica,sans-Serif" font-size="10.00" fill="#000000">getAsString</text>
</g>
<!-- Node2 -->
<g id="node2" class="node">
<title>Node2</title>
<g id="a_node2"><a xlink:href="classlocomotor_1_1components_1_1network_1_1_a_p_i.html#a547463fbc7fb7b485886f0917e2c0b78" target="_top" xlink:title="locomotor.components.network.\lAPI.createHooks">
<polygon fill="#ffffff" stroke="#000000" points="103.6943,-.5 103.6943,-28.5 260.8809,-28.5 260.8809,-.5 103.6943,-.5"/>
<text text-anchor="start" x="111.6943" y="-16.5" font-family="Helvetica,sans-Serif" font-size="10.00" fill="#000000">locomotor.components.network.</text>
<text text-anchor="middle" x="182.2876" y="-6.5" font-family="Helvetica,sans-Serif" font-size="10.00" fill="#000000">API.createHooks</text>
</a>
</g>
</g>
<!-- Node1&#45;&gt;Node2 -->
<g id="edge1" class="edge">
<title>Node1&#45;&gt;Node2</title>
<path fill="none" stroke="#191970" d="M78.1705,-14.5C86.2619,-14.5 94.9225,-14.5 103.6648,-14.5"/>
<polygon fill="#191970" stroke="#191970" points="77.9024,-11.0001 67.9024,-14.5 77.9024,-18.0001 77.9024,-11.0001"/>
</g>
<!-- Node3 -->
<g id="node3" class="node">
<title>Node3</title>
<g id="a_node3"><a xlink:href="classlocomotor_1_1core_1_1_main.html#a8b260eecbaabcef8473fd87ada040682" target="_top" xlink:title="locomotor.core.Main.main">
<polygon fill="#ffffff" stroke="#000000" points="296.8809,-5.5 296.8809,-23.5 427.3779,-23.5 427.3779,-5.5 296.8809,-5.5"/>
<text text-anchor="middle" x="362.1294" y="-11.5" font-family="Helvetica,sans-Serif" font-size="10.00" fill="#000000">locomotor.core.Main.main</text>
</a>
</g>
</g>
<!-- Node2&#45;&gt;Node3 -->
<g id="edge2" class="edge">
<title>Node2&#45;&gt;Node3</title>
<path fill="none" stroke="#191970" d="M271.0806,-14.5C279.7689,-14.5 288.4713,-14.5 296.8631,-14.5"/>
<polygon fill="#191970" stroke="#191970" points="270.9072,-11.0001 260.9072,-14.5 270.9072,-18.0001 270.9072,-11.0001"/>
</g>
</g>
</svg>
