<?xml version="1.0" encoding="UTF-8" standalone="no"?>
<!DOCTYPE svg PUBLIC "-//W3C//DTD SVG 1.1//EN"
 "http://www.w3.org/Graphics/SVG/1.1/DTD/svg11.dtd">
<!-- Generated by graphviz version 2.40.1 (20161225.0304)
 -->
<!-- Title: CategoryModel Pages: 1 -->
<svg width="210pt" height="102pt"
 viewBox="0.00 0.00 210.48 102.00" xmlns="http://www.w3.org/2000/svg" xmlns:xlink="http://www.w3.org/1999/xlink">
<g id="graph0" class="graph" transform="scale(1 1) rotate(0) translate(4 98)">
<title>CategoryModel</title>
<polygon fill="#ffffff" stroke="transparent" points="-4,4 -4,-98 206.4795,-98 206.4795,4 -4,4"/>
<!-- Node1 -->
<g id="node1" class="node">
<title>Node1</title>
<polygon fill="#bfbfbf" stroke="#000000" points="59.3335,-.5 59.3335,-18.5 143.146,-18.5 143.146,-.5 59.3335,-.5"/>
<text text-anchor="middle" x="101.2397" y="-6.5" font-family="Helvetica,sans-Serif" font-size="10.00" fill="#000000">CategoryModel</text>
</g>
<!-- Node2 -->
<g id="node2" class="node">
<title>Node2</title>
<polygon fill="#ffffff" stroke="#bfbfbf" points="0,-65.5 0,-93.5 202.4795,-93.5 202.4795,-65.5 0,-65.5"/>
<text text-anchor="start" x="8" y="-81.5" font-family="Helvetica,sans-Serif" font-size="10.00" fill="#000000">ArrayList&lt; locomotor.components.models.</text>
<text text-anchor="middle" x="101.2397" y="-71.5" font-family="Helvetica,sans-Serif" font-size="10.00" fill="#000000">CriteriaModel &gt;</text>
</g>
<!-- Node2&#45;&gt;Node1 -->
<g id="edge1" class="edge">
<title>Node2&#45;&gt;Node1</title>
<path fill="none" stroke="#9a32cd" stroke-dasharray="5,2" d="M101.2397,-55.007C101.2397,-42.4648 101.2397,-27.9386 101.2397,-18.7368"/>
<polygon fill="#9a32cd" stroke="#9a32cd" points="97.7398,-55.3344 101.2397,-65.3345 104.7398,-55.3345 97.7398,-55.3344"/>
<text text-anchor="middle" x="122.9121" y="-39" font-family="Helvetica,sans-Serif" font-size="10.00" fill="#000000"> _criterias</text>
</g>
</g>
</svg>
