<?xml version="1.0" encoding="UTF-8" standalone="no"?>
<!DOCTYPE svg PUBLIC "-//W3C//DTD SVG 1.1//EN"
 "http://www.w3.org/Graphics/SVG/1.1/DTD/svg11.dtd">
<!-- Generated by graphviz version 2.40.1 (20161225.0304)
 -->
<!-- Title: createLongToken Pages: 1 -->
<svg width="482pt" height="129pt"
 viewBox="0.00 0.00 481.57 129.00" xmlns="http://www.w3.org/2000/svg" xmlns:xlink="http://www.w3.org/1999/xlink">
<g id="graph0" class="graph" transform="scale(1 1) rotate(0) translate(4 125)">
<title>createLongToken</title>
<polygon fill="#ffffff" stroke="transparent" points="-4,4 -4,-125 477.5693,-125 477.5693,4 -4,4"/>
<!-- Node1 -->
<g id="node1" class="node">
<title>Node1</title>
<polygon fill="#bfbfbf" stroke="#000000" points="0,-50.5 0,-68.5 92.7236,-68.5 92.7236,-50.5 0,-50.5"/>
<text text-anchor="middle" x="46.3618" y="-56.5" font-family="Helvetica,sans-Serif" font-size="10.00" fill="#000000">createLongToken</text>
</g>
<!-- Node2 -->
<g id="node2" class="node">
<title>Node2</title>
<g id="a_node2"><a xlink:href="classlocomotor_1_1components_1_1logging_1_1_error_handler.html#a75e8f6535bdb8db9a7d570e1b839af47" target="_top" xlink:title="locomotor.components.logging.\lErrorHandler.getInstance">
<polygon fill="#ffffff" stroke="#000000" points="128.7236,-92.5 128.7236,-120.5 283.1465,-120.5 283.1465,-92.5 128.7236,-92.5"/>
<text text-anchor="start" x="136.7236" y="-108.5" font-family="Helvetica,sans-Serif" font-size="10.00" fill="#000000">locomotor.components.logging.</text>
<text text-anchor="middle" x="205.9351" y="-98.5" font-family="Helvetica,sans-Serif" font-size="10.00" fill="#000000">ErrorHandler.getInstance</text>
</a>
</g>
</g>
<!-- Node1&#45;&gt;Node2 -->
<g id="edge1" class="edge">
<title>Node1&#45;&gt;Node2</title>
<path fill="none" stroke="#191970" d="M77.1291,-68.5621C97.3474,-74.5171 124.4223,-82.4916 148.5308,-89.5924"/>
<polygon fill="#191970" stroke="#191970" points="147.7195,-93.002 158.301,-92.4701 149.6973,-86.2872 147.7195,-93.002"/>
</g>
<!-- Node3 -->
<g id="node3" class="node">
<title>Node3</title>
<g id="a_node3"><a xlink:href="classlocomotor_1_1components_1_1logging_1_1_error_handler.html#abd00a9c37627740763cef91d76a77437" target="_top" xlink:title="locomotor.components.logging.\lErrorHandler.push">
<polygon fill="#ffffff" stroke="#000000" points="128.7236,-45.5 128.7236,-73.5 283.1465,-73.5 283.1465,-45.5 128.7236,-45.5"/>
<text text-anchor="start" x="136.7236" y="-61.5" font-family="Helvetica,sans-Serif" font-size="10.00" fill="#000000">locomotor.components.logging.</text>
<text text-anchor="middle" x="205.9351" y="-51.5" font-family="Helvetica,sans-Serif" font-size="10.00" fill="#000000">ErrorHandler.push</text>
</a>
</g>
</g>
<!-- Node1&#45;&gt;Node3 -->
<g id="edge2" class="edge">
<title>Node1&#45;&gt;Node3</title>
<path fill="none" stroke="#191970" d="M92.946,-59.5C101.1003,-59.5 109.8177,-59.5 118.6589,-59.5"/>
<polygon fill="#191970" stroke="#191970" points="118.67,-63.0001 128.67,-59.5 118.67,-56.0001 118.67,-63.0001"/>
</g>
<!-- Node5 -->
<g id="node5" class="node">
<title>Node5</title>
<g id="a_node5"><a xlink:href="classlocomotor_1_1core_1_1jwt_1_1_j_w_t_h.html#af3751461e4a7ff92b13b5988200d76d7" target="_top" xlink:title="createToken">
<polygon fill="#ffffff" stroke="#000000" points="170.6963,-7.5 170.6963,-25.5 241.1738,-25.5 241.1738,-7.5 170.6963,-7.5"/>
<text text-anchor="middle" x="205.9351" y="-13.5" font-family="Helvetica,sans-Serif" font-size="10.00" fill="#000000">createToken</text>
</a>
</g>
</g>
<!-- Node1&#45;&gt;Node5 -->
<g id="edge4" class="edge">
<title>Node1&#45;&gt;Node5</title>
<path fill="none" stroke="#191970" d="M78.3964,-50.4029C93.6242,-46.1173 112.0939,-40.9753 128.7236,-36.5 139.0593,-33.7185 150.1927,-30.7933 160.6998,-28.0648"/>
<polygon fill="#191970" stroke="#191970" points="161.7307,-31.4134 170.5352,-25.5202 159.9773,-24.6366 161.7307,-31.4134"/>
</g>
<!-- Node4 -->
<g id="node4" class="node">
<title>Node4</title>
<g id="a_node4"><a xlink:href="classlocomotor_1_1components_1_1logging_1_1_error_context.html#afcf30b71bfc65c74878c7ab77c951842" target="_top" xlink:title="locomotor.components.logging.\lErrorContext.push">
<polygon fill="#ffffff" stroke="#000000" points="319.1465,-47.5 319.1465,-75.5 473.5693,-75.5 473.5693,-47.5 319.1465,-47.5"/>
<text text-anchor="start" x="327.1465" y="-63.5" font-family="Helvetica,sans-Serif" font-size="10.00" fill="#000000">locomotor.components.logging.</text>
<text text-anchor="middle" x="396.3579" y="-53.5" font-family="Helvetica,sans-Serif" font-size="10.00" fill="#000000">ErrorContext.push</text>
</a>
</g>
</g>
<!-- Node3&#45;&gt;Node4 -->
<g id="edge3" class="edge">
<title>Node3&#45;&gt;Node4</title>
<path fill="none" stroke="#191970" d="M283.3873,-60.3135C291.7326,-60.4011 300.2665,-60.4908 308.7203,-60.5795"/>
<polygon fill="#191970" stroke="#191970" points="308.938,-64.0819 318.9743,-60.6872 309.0116,-57.0823 308.938,-64.0819"/>
</g>
<!-- Node6 -->
<g id="node6" class="node">
<title>Node6</title>
<g id="a_node6"><a xlink:href="enumlocomotor_1_1core_1_1_accreditation_level.html#aae714dc01fe7f5bb1a175d0d1068bb92" target="_top" xlink:title="locomotor.core.Accreditation\lLevel.getValue">
<polygon fill="#ffffff" stroke="#000000" points="325.2695,-.5 325.2695,-28.5 467.4463,-28.5 467.4463,-.5 325.2695,-.5"/>
<text text-anchor="start" x="333.2695" y="-16.5" font-family="Helvetica,sans-Serif" font-size="10.00" fill="#000000">locomotor.core.Accreditation</text>
<text text-anchor="middle" x="396.3579" y="-6.5" font-family="Helvetica,sans-Serif" font-size="10.00" fill="#000000">Level.getValue</text>
</a>
</g>
</g>
<!-- Node5&#45;&gt;Node6 -->
<g id="edge5" class="edge">
<title>Node5&#45;&gt;Node6</title>
<path fill="none" stroke="#191970" d="M241.3059,-16.1285C262.0054,-15.9111 289.0509,-15.627 314.747,-15.3572"/>
<polygon fill="#191970" stroke="#191970" points="314.928,-18.8555 324.8906,-15.2506 314.8544,-11.8559 314.928,-18.8555"/>
</g>
</g>
</svg>
