<?xml version="1.0" encoding="UTF-8" standalone="no"?>
<!DOCTYPE svg PUBLIC "-//W3C//DTD SVG 1.1//EN"
 "http://www.w3.org/Graphics/SVG/1.1/DTD/svg11.dtd">
<!-- Generated by graphviz version 2.40.1 (20161225.0304)
 -->
<!-- Title: getUniverse Pages: 1 -->
<svg width="528pt" height="37pt"
 viewBox="0.00 0.00 527.60 37.00" xmlns="http://www.w3.org/2000/svg" xmlns:xlink="http://www.w3.org/1999/xlink">
<g id="graph0" class="graph" transform="scale(1 1) rotate(0) translate(4 33)">
<title>getUniverse</title>
<polygon fill="#ffffff" stroke="transparent" points="-4,4 -4,-33 523.6025,-33 523.6025,4 -4,4"/>
<!-- Node1 -->
<g id="node1" class="node">
<title>Node1</title>
<polygon fill="#bfbfbf" stroke="#000000" points="0,-5.5 0,-23.5 69.3594,-23.5 69.3594,-5.5 0,-5.5"/>
<text text-anchor="middle" x="34.6797" y="-11.5" font-family="Helvetica,sans-Serif" font-size="10.00" fill="#000000">getUniverse</text>
</g>
<!-- Node2 -->
<g id="node2" class="node">
<title>Node2</title>
<g id="a_node2"><a xlink:href="classlocomotor_1_1components_1_1types_1_1_type_factory.html#aa1f74ce70c02a7665f32b4ec438a6c3c" target="_top" xlink:title="getTree">
<polygon fill="#ffffff" stroke="#000000" points="105.3594,-5.5 105.3594,-23.5 155.4561,-23.5 155.4561,-5.5 105.3594,-5.5"/>
<text text-anchor="middle" x="130.4077" y="-11.5" font-family="Helvetica,sans-Serif" font-size="10.00" fill="#000000">getTree</text>
</a>
</g>
</g>
<!-- Node1&#45;&gt;Node2 -->
<g id="edge1" class="edge">
<title>Node1&#45;&gt;Node2</title>
<path fill="none" stroke="#191970" d="M69.5105,-14.5C77.8551,-14.5 86.7718,-14.5 95.1362,-14.5"/>
<polygon fill="#191970" stroke="#191970" points="95.3511,-18.0001 105.3511,-14.5 95.351,-11.0001 95.3511,-18.0001"/>
</g>
<!-- Node3 -->
<g id="node3" class="node">
<title>Node3</title>
<g id="a_node3"><a xlink:href="classlocomotor_1_1components_1_1types_1_1_c_tree.html#a74382cb3a3153edc32f1cfed8c4ee364" target="_top" xlink:title="locomotor.components.types.\lCTree.addChild">
<polygon fill="#ffffff" stroke="#000000" points="191.4561,-.5 191.4561,-28.5 337.5293,-28.5 337.5293,-.5 191.4561,-.5"/>
<text text-anchor="start" x="199.4561" y="-16.5" font-family="Helvetica,sans-Serif" font-size="10.00" fill="#000000">locomotor.components.types.</text>
<text text-anchor="middle" x="264.4927" y="-6.5" font-family="Helvetica,sans-Serif" font-size="10.00" fill="#000000">CTree.addChild</text>
</a>
</g>
</g>
<!-- Node2&#45;&gt;Node3 -->
<g id="edge2" class="edge">
<title>Node2&#45;&gt;Node3</title>
<path fill="none" stroke="#191970" d="M155.6281,-14.5C163.2047,-14.5 171.968,-14.5 181.1665,-14.5"/>
<polygon fill="#191970" stroke="#191970" points="181.2832,-18.0001 191.2832,-14.5 181.2832,-11.0001 181.2832,-18.0001"/>
</g>
<!-- Node4 -->
<g id="node4" class="node">
<title>Node4</title>
<g id="a_node4"><a xlink:href="classlocomotor_1_1components_1_1types_1_1_c_tree.html#af0e7a198496b1627d0ff15ce0e6de1f2" target="_top" xlink:title="locomotor.components.types.\lCTree.CTree">
<polygon fill="#ffffff" stroke="#000000" points="373.5293,-.5 373.5293,-28.5 519.6025,-28.5 519.6025,-.5 373.5293,-.5"/>
<text text-anchor="start" x="381.5293" y="-16.5" font-family="Helvetica,sans-Serif" font-size="10.00" fill="#000000">locomotor.components.types.</text>
<text text-anchor="middle" x="446.5659" y="-6.5" font-family="Helvetica,sans-Serif" font-size="10.00" fill="#000000">CTree.CTree</text>
</a>
</g>
</g>
<!-- Node3&#45;&gt;Node4 -->
<g id="edge3" class="edge">
<title>Node3&#45;&gt;Node4</title>
<path fill="none" stroke="#191970" d="M337.7618,-14.5C346.1217,-14.5 354.6896,-14.5 363.1685,-14.5"/>
<polygon fill="#191970" stroke="#191970" points="363.4468,-18.0001 373.4468,-14.5 363.4467,-11.0001 363.4468,-18.0001"/>
</g>
</g>
</svg>
