<?xml version="1.0" encoding="UTF-8" standalone="no"?>
<!DOCTYPE svg PUBLIC "-//W3C//DTD SVG 1.1//EN"
 "http://www.w3.org/Graphics/SVG/1.1/DTD/svg11.dtd">
<!-- Generated by graphviz version 2.40.1 (20161225.0304)
 -->
<!-- Title: get Pages: 1 -->
<svg width="398pt" height="37pt"
 viewBox="0.00 0.00 397.58 37.00" xmlns="http://www.w3.org/2000/svg" xmlns:xlink="http://www.w3.org/1999/xlink">
<g id="graph0" class="graph" transform="scale(1 1) rotate(0) translate(4 33)">
<title>get</title>
<polygon fill="#ffffff" stroke="transparent" points="-4,4 -4,-33 393.585,-33 393.585,4 -4,4"/>
<!-- Node1 -->
<g id="node1" class="node">
<title>Node1</title>
<polygon fill="#bfbfbf" stroke="#000000" points="0,-5.5 0,-23.5 29.9014,-23.5 29.9014,-5.5 0,-5.5"/>
<text text-anchor="middle" x="14.9507" y="-11.5" font-family="Helvetica,sans-Serif" font-size="10.00" fill="#000000">get</text>
</g>
<!-- Node2 -->
<g id="node2" class="node">
<title>Node2</title>
<g id="a_node2"><a xlink:href="classlocomotor_1_1components_1_1network_1_1_network_handler.html#a63d431845f1fd2adc1f96432f6003e25" target="_top" xlink:title="locomotor.components.network.\lNetworkHandler.init">
<polygon fill="#ffffff" stroke="#000000" points="65.9014,-.5 65.9014,-28.5 223.0879,-28.5 223.0879,-.5 65.9014,-.5"/>
<text text-anchor="start" x="73.9014" y="-16.5" font-family="Helvetica,sans-Serif" font-size="10.00" fill="#000000">locomotor.components.network.</text>
<text text-anchor="middle" x="144.4946" y="-6.5" font-family="Helvetica,sans-Serif" font-size="10.00" fill="#000000">NetworkHandler.init</text>
</a>
</g>
</g>
<!-- Node1&#45;&gt;Node2 -->
<g id="edge1" class="edge">
<title>Node1&#45;&gt;Node2</title>
<path fill="none" stroke="#191970" d="M40.2842,-14.5C47.8947,-14.5 56.6779,-14.5 65.8507,-14.5"/>
<polygon fill="#191970" stroke="#191970" points="40.0646,-11.0001 30.0646,-14.5 40.0645,-18.0001 40.0646,-11.0001"/>
</g>
<!-- Node3 -->
<g id="node3" class="node">
<title>Node3</title>
<g id="a_node3"><a xlink:href="classlocomotor_1_1core_1_1_main.html#a8b260eecbaabcef8473fd87ada040682" target="_top" xlink:title="locomotor.core.Main.main">
<polygon fill="#ffffff" stroke="#000000" points="259.0879,-5.5 259.0879,-23.5 389.585,-23.5 389.585,-5.5 259.0879,-5.5"/>
<text text-anchor="middle" x="324.3364" y="-11.5" font-family="Helvetica,sans-Serif" font-size="10.00" fill="#000000">locomotor.core.Main.main</text>
</a>
</g>
</g>
<!-- Node2&#45;&gt;Node3 -->
<g id="edge2" class="edge">
<title>Node2&#45;&gt;Node3</title>
<path fill="none" stroke="#191970" d="M233.2877,-14.5C241.976,-14.5 250.6783,-14.5 259.0702,-14.5"/>
<polygon fill="#191970" stroke="#191970" points="233.1143,-11.0001 223.1142,-14.5 233.1142,-18.0001 233.1143,-11.0001"/>
</g>
</g>
</svg>
