<?xml version="1.0" encoding="UTF-8" standalone="no"?>
<!DOCTYPE svg PUBLIC "-//W3C//DTD SVG 1.1//EN"
 "http://www.w3.org/Graphics/SVG/1.1/DTD/svg11.dtd">
<!-- Generated by graphviz version 2.40.1 (20161225.0304)
 -->
<!-- Title: getNearestStep Pages: 1 -->
<!--zoomable 225 -->
<svg id="main" version="1.1" xmlns="http://www.w3.org/2000/svg" xmlns:xlink="http://www.w3.org/1999/xlink" xml:space="preserve" onload="init(evt)">
<style type="text/css"><![CDATA[
.edge:hover path { stroke: red; }
.edge:hover polygon { stroke: red; fill: red; }
]]></style>
<script type="text/javascript"><![CDATA[
var edges = document.getElementsByTagName('g');
if (edges && edges.length) {
  for (var i=0;i<edges.length;i++) {
    if (edges[i].id.substr(0,4)=='edge') {
      edges[i].setAttribute('class','edge');
    }
  }
}
]]></script>
        <defs>
                <circle id="rim" cx="0" cy="0" r="7"/>
                <circle id="rim2" cx="0" cy="0" r="3.5"/>
                <g id="zoomPlus">
                        <use xlink:href="#rim" fill="#404040">
                                <set attributeName="fill" to="#808080" begin="zoomplus.mouseover" end="zoomplus.mouseout"/>
                        </use>
                        <path d="M-4,0h8M0,-4v8" fill="none" stroke="white" stroke-width="1.5" pointer-events="none"/>
                </g>
                <g id="zoomMin">
                        <use xlink:href="#rim" fill="#404040">
                                <set attributeName="fill" to="#808080" begin="zoomminus.mouseover" end="zoomminus.mouseout"/>
                        </use>
                        <path d="M-4,0h8" fill="none" stroke="white" stroke-width="1.5" pointer-events="none"/>
                </g>
                <g id="dirArrow">
                        <path fill="none" stroke="white" stroke-width="1.5" d="M0,-3.0v7 M-2.5,-0.5L0,-3.0L2.5,-0.5"/>
                </g>
               <g id="resetDef">
                       <use xlink:href="#rim2" fill="#404040">
                               <set attributeName="fill" to="#808080" begin="reset.mouseover" end="reset.mouseout"/>
                       </use>
               </g>
        </defs>

<script type="text/javascript">
var viewWidth = 771;
var viewHeight = 225;
var sectionId = 'dynsection-7';
</script>
<script xlink:href="svgpan.js"/>
<svg id="graph" class="graph">
<g id="viewport">
<title>getNearestStep</title>
<polygon fill="#ffffff" stroke="transparent" points="-4,4 -4,-221 766.9482,-221 766.9482,4 -4,4"/>
<!-- Node1 -->
<g id="node1" class="node">
<title>Node1</title>
<polygon fill="#bfbfbf" stroke="#000000" points="0,-71.5 0,-89.5 85.4873,-89.5 85.4873,-71.5 0,-71.5"/>
<text text-anchor="middle" x="42.7437" y="-77.5" font-family="Helvetica,sans-Serif" font-size="10.00" fill="#000000">getNearestStep</text>
</g>
<!-- Node2 -->
<g id="node2" class="node">
<title>Node2</title>
<g id="a_node2"><a xlink:href="classlocomotor_1_1core_1_1_gaussian.html#aaa66f1ce25c09e6e7cbd82c46ba0b4ae" target="_top" xlink:title="pdf">
<polygon fill="#ffffff" stroke="#000000" points="121.4873,-90.5 121.4873,-108.5 151.3887,-108.5 151.3887,-90.5 121.4873,-90.5"/>
<text text-anchor="middle" x="136.438" y="-96.5" font-family="Helvetica,sans-Serif" font-size="10.00" fill="#000000">pdf</text>
</a>
</g>
</g>
<!-- Node1&#45;&gt;Node2 -->
<g id="edge1" class="edge">
<title>Node1&#45;&gt;Node2</title>
<path fill="none" stroke="#191970" d="M95.5855,-91.2156C104.9706,-93.1188 114.0293,-94.9558 121.2216,-96.4143"/>
<polygon fill="#191970" stroke="#191970" points="96.2479,-87.7788 85.7517,-89.2215 94.8566,-94.6392 96.2479,-87.7788"/>
</g>
<!-- Node12 -->
<g id="node12" class="node">
<title>Node12</title>
<g id="a_node12"><a xlink:href="classlocomotor_1_1core_1_1_gaussian.html#ab70945dfe6d593e49a767670c903e653" target="_top" xlink:title="cdf">
<polygon fill="#ffffff" stroke="#000000" points="201.8418,-52.5 201.8418,-70.5 231.1816,-70.5 231.1816,-52.5 201.8418,-52.5"/>
<text text-anchor="middle" x="216.5117" y="-58.5" font-family="Helvetica,sans-Serif" font-size="10.00" fill="#000000">cdf</text>
</a>
</g>
</g>
<!-- Node1&#45;&gt;Node12 -->
<g id="edge12" class="edge">
<title>Node1&#45;&gt;Node12</title>
<path fill="none" stroke="#191970" d="M95.7465,-74.7046C132.3653,-70.7007 178.5051,-65.6557 201.7245,-63.1169"/>
<polygon fill="#191970" stroke="#191970" points="95.2579,-71.2371 85.6976,-75.8034 96.0188,-78.1956 95.2579,-71.2371"/>
</g>
<!-- Node3 -->
<g id="node3" class="node">
<title>Node3</title>
<g id="a_node3"><a xlink:href="classlocomotor_1_1components_1_1_compare.html#a2a101cdb459b3ee3a59e76aaaa08750c" target="_top" xlink:title="locomotor.components.Compare.unique\lValue">
<polygon fill="#ffffff" stroke="#000000" points="386.4424,-123.5 386.4424,-151.5 579.7715,-151.5 579.7715,-123.5 386.4424,-123.5"/>
<text text-anchor="start" x="394.4424" y="-139.5" font-family="Helvetica,sans-Serif" font-size="10.00" fill="#000000">locomotor.components.Compare.unique</text>
<text text-anchor="middle" x="483.1069" y="-129.5" font-family="Helvetica,sans-Serif" font-size="10.00" fill="#000000">Value</text>
</a>
</g>
</g>
<!-- Node2&#45;&gt;Node3 -->
<g id="edge2" class="edge">
<title>Node2&#45;&gt;Node3</title>
<path fill="none" stroke="#191970" d="M161.0712,-110.3418C169.2886,-113.5085 178.5936,-116.6203 187.3887,-118.5 252.7913,-132.4776 328.0273,-137.1588 386.244,-138.3808"/>
<polygon fill="#191970" stroke="#191970" points="162.2765,-107.0537 151.6946,-106.5311 159.641,-113.5386 162.2765,-107.0537"/>
</g>
<!-- Node7 -->
<g id="node7" class="node">
<title>Node7</title>
<g id="a_node7"><a xlink:href="classlocomotor_1_1core_1_1_gaussian.html#aa4cd1241f20f836cbf5facbf2d8379e4" target="_top" xlink:title="Gaussian">
<polygon fill="#ffffff" stroke="#000000" points="187.3887,-90.5 187.3887,-108.5 245.6348,-108.5 245.6348,-90.5 187.3887,-90.5"/>
<text text-anchor="middle" x="216.5117" y="-96.5" font-family="Helvetica,sans-Serif" font-size="10.00" fill="#000000">Gaussian</text>
</a>
</g>
</g>
<!-- Node2&#45;&gt;Node7 -->
<g id="edge6" class="edge">
<title>Node2&#45;&gt;Node7</title>
<path fill="none" stroke="#191970" d="M161.528,-99.5C169.6864,-99.5 178.8116,-99.5 187.2474,-99.5"/>
<polygon fill="#191970" stroke="#191970" points="161.4993,-96.0001 151.4992,-99.5 161.4992,-103.0001 161.4993,-96.0001"/>
</g>
<!-- Node4 -->
<g id="node4" class="node">
<title>Node4</title>
<g id="a_node4"><a xlink:href="classlocomotor_1_1components_1_1types_1_1_c_float.html#a871921d9d041c5c7993927dde6332e2c" target="_top" xlink:title="locomotor.components.types.\lCFloat.compare">
<polygon fill="#ffffff" stroke="#000000" points="616.875,-188.5 616.875,-216.5 762.9482,-216.5 762.9482,-188.5 616.875,-188.5"/>
<text text-anchor="start" x="624.875" y="-204.5" font-family="Helvetica,sans-Serif" font-size="10.00" fill="#000000">locomotor.components.types.</text>
<text text-anchor="middle" x="689.9116" y="-194.5" font-family="Helvetica,sans-Serif" font-size="10.00" fill="#000000">CFloat.compare</text>
</a>
</g>
</g>
<!-- Node3&#45;&gt;Node4 -->
<g id="edge3" class="edge">
<title>Node3&#45;&gt;Node4</title>
<path fill="none" stroke="#191970" d="M537.3717,-154.5558C570.8947,-165.0922 613.3955,-178.4505 645.0162,-188.3891"/>
<polygon fill="#191970" stroke="#191970" points="538.3152,-151.1836 527.7259,-151.524 536.2163,-157.8615 538.3152,-151.1836"/>
</g>
<!-- Node5 -->
<g id="node5" class="node">
<title>Node5</title>
<g id="a_node5"><a xlink:href="classlocomotor_1_1components_1_1types_1_1_c_integer.html#a535607ef73128c96e7b4c3831a537c15" target="_top" xlink:title="locomotor.components.types.\lCInteger.compare">
<polygon fill="#ffffff" stroke="#000000" points="616.875,-141.5 616.875,-169.5 762.9482,-169.5 762.9482,-141.5 616.875,-141.5"/>
<text text-anchor="start" x="624.875" y="-157.5" font-family="Helvetica,sans-Serif" font-size="10.00" fill="#000000">locomotor.components.types.</text>
<text text-anchor="middle" x="689.9116" y="-147.5" font-family="Helvetica,sans-Serif" font-size="10.00" fill="#000000">CInteger.compare</text>
</a>
</g>
</g>
<!-- Node3&#45;&gt;Node5 -->
<g id="edge4" class="edge">
<title>Node3&#45;&gt;Node5</title>
<path fill="none" stroke="#191970" d="M590.0385,-146.8072C599.0632,-147.5927 608.052,-148.375 616.7295,-149.1303"/>
<polygon fill="#191970" stroke="#191970" points="590.1146,-143.3007 579.8488,-145.9203 589.5076,-150.2743 590.1146,-143.3007"/>
</g>
<!-- Node6 -->
<g id="node6" class="node">
<title>Node6</title>
<g id="a_node6"><a xlink:href="classlocomotor_1_1components_1_1types_1_1_c_weighted_integer.html#acb085d655773a5014997582a57ae2ab2" target="_top" xlink:title="locomotor.components.types.\lCWeightedInteger.compare">
<polygon fill="#ffffff" stroke="#000000" points="616.875,-94.5 616.875,-122.5 762.9482,-122.5 762.9482,-94.5 616.875,-94.5"/>
<text text-anchor="start" x="624.875" y="-110.5" font-family="Helvetica,sans-Serif" font-size="10.00" fill="#000000">locomotor.components.types.</text>
<text text-anchor="middle" x="689.9116" y="-100.5" font-family="Helvetica,sans-Serif" font-size="10.00" fill="#000000">CWeightedInteger.compare</text>
</a>
</g>
</g>
<!-- Node3&#45;&gt;Node6 -->
<g id="edge5" class="edge">
<title>Node3&#45;&gt;Node6</title>
<path fill="none" stroke="#191970" d="M590.0385,-122.5051C599.0632,-121.2396 608.052,-119.9791 616.7295,-118.7623"/>
<polygon fill="#191970" stroke="#191970" points="589.2658,-119.0791 579.8488,-123.934 590.238,-126.0113 589.2658,-119.0791"/>
</g>
<!-- Node8 -->
<g id="node8" class="node">
<title>Node8</title>
<g id="a_node8"><a xlink:href="classlocomotor_1_1core_1_1_gaussian.html#a2a6f2336ca6a2ad6a5406575827bbb56" target="_top" xlink:title="getInstance">
<polygon fill="#ffffff" stroke="#000000" points="281.6348,-90.5 281.6348,-108.5 349.3389,-108.5 349.3389,-90.5 281.6348,-90.5"/>
<text text-anchor="middle" x="315.4868" y="-96.5" font-family="Helvetica,sans-Serif" font-size="10.00" fill="#000000">getInstance</text>
</a>
</g>
</g>
<!-- Node7&#45;&gt;Node8 -->
<g id="edge7" class="edge">
<title>Node7&#45;&gt;Node8</title>
<path fill="none" stroke="#191970" d="M255.7133,-99.5C264.1736,-99.5 273.0535,-99.5 281.3039,-99.5"/>
<polygon fill="#191970" stroke="#191970" points="255.6722,-96.0001 245.6722,-99.5 255.6722,-103.0001 255.6722,-96.0001"/>
</g>
<!-- Node8&#45;&gt;Node3 -->
<g id="edge8" class="edge">
<title>Node8&#45;&gt;Node3</title>
<path fill="none" stroke="#191970" d="M359.2145,-109.4132C378.1008,-113.6948 400.5392,-118.7816 421.097,-123.4422"/>
<polygon fill="#191970" stroke="#191970" points="359.9336,-105.9875 349.4072,-107.1899 358.3859,-112.8143 359.9336,-105.9875"/>
</g>
<!-- Node9 -->
<g id="node9" class="node">
<title>Node9</title>
<g id="a_node9"><a xlink:href="classlocomotor_1_1components_1_1_compare.html#af1d05ce01ba9906df55e7a4976e44cc9" target="_top" xlink:title="locomotor.components.Compare.interval\lValue">
<polygon fill="#ffffff" stroke="#000000" points="385.3389,-47.5 385.3389,-75.5 580.875,-75.5 580.875,-47.5 385.3389,-47.5"/>
<text text-anchor="start" x="393.3389" y="-63.5" font-family="Helvetica,sans-Serif" font-size="10.00" fill="#000000">locomotor.components.Compare.interval</text>
<text text-anchor="middle" x="483.1069" y="-53.5" font-family="Helvetica,sans-Serif" font-size="10.00" fill="#000000">Value</text>
</a>
</g>
</g>
<!-- Node8&#45;&gt;Node9 -->
<g id="edge9" class="edge">
<title>Node8&#45;&gt;Node9</title>
<path fill="none" stroke="#191970" d="M359.2145,-89.5868C378.1008,-85.3052 400.5392,-80.2184 421.097,-75.5578"/>
<polygon fill="#191970" stroke="#191970" points="358.3859,-86.1857 349.4072,-91.8101 359.9336,-93.0125 358.3859,-86.1857"/>
</g>
<!-- Node10 -->
<g id="node10" class="node">
<title>Node10</title>
<g id="a_node10"><a xlink:href="classlocomotor_1_1components_1_1types_1_1_c_interval_double.html#a871921d9d041c5c7993927dde6332e2c" target="_top" xlink:title="locomotor.components.types.\lCIntervalDouble.compare">
<polygon fill="#ffffff" stroke="#000000" points="616.875,-47.5 616.875,-75.5 762.9482,-75.5 762.9482,-47.5 616.875,-47.5"/>
<text text-anchor="start" x="624.875" y="-63.5" font-family="Helvetica,sans-Serif" font-size="10.00" fill="#000000">locomotor.components.types.</text>
<text text-anchor="middle" x="689.9116" y="-53.5" font-family="Helvetica,sans-Serif" font-size="10.00" fill="#000000">CIntervalDouble.compare</text>
</a>
</g>
</g>
<!-- Node9&#45;&gt;Node10 -->
<g id="edge10" class="edge">
<title>Node9&#45;&gt;Node10</title>
<path fill="none" stroke="#191970" d="M591.1976,-61.5C599.8296,-61.5 608.418,-61.5 616.7215,-61.5"/>
<polygon fill="#191970" stroke="#191970" points="591.0587,-58.0001 581.0587,-61.5 591.0586,-65.0001 591.0587,-58.0001"/>
</g>
<!-- Node11 -->
<g id="node11" class="node">
<title>Node11</title>
<g id="a_node11"><a xlink:href="classlocomotor_1_1components_1_1types_1_1_c_interval_integer.html#a535607ef73128c96e7b4c3831a537c15" target="_top" xlink:title="locomotor.components.types.\lCIntervalInteger.compare">
<polygon fill="#ffffff" stroke="#000000" points="616.875,-.5 616.875,-28.5 762.9482,-28.5 762.9482,-.5 616.875,-.5"/>
<text text-anchor="start" x="624.875" y="-16.5" font-family="Helvetica,sans-Serif" font-size="10.00" fill="#000000">locomotor.components.types.</text>
<text text-anchor="middle" x="689.9116" y="-6.5" font-family="Helvetica,sans-Serif" font-size="10.00" fill="#000000">CIntervalInteger.compare</text>
</a>
</g>
</g>
<!-- Node9&#45;&gt;Node11 -->
<g id="edge11" class="edge">
<title>Node9&#45;&gt;Node11</title>
<path fill="none" stroke="#191970" d="M554.9243,-45.1783C578.7658,-39.7598 605.0854,-33.7782 628.1047,-28.5467"/>
<polygon fill="#191970" stroke="#191970" points="553.8507,-41.8329 544.875,-47.4621 555.4021,-48.6588 553.8507,-41.8329"/>
</g>
<!-- Node12&#45;&gt;Node9 -->
<g id="edge13" class="edge">
<title>Node12&#45;&gt;Node9</title>
<path fill="none" stroke="#191970" d="M241.234,-61.5C273.9306,-61.5 333.4743,-61.5 385.2989,-61.5"/>
<polygon fill="#191970" stroke="#191970" points="241.2248,-58.0001 231.2248,-61.5 241.2247,-65.0001 241.2248,-58.0001"/>
</g>
</g>
</svg>
        <g id="navigator" transform="translate(0 0)" fill="#404254">
                <rect fill="#f2f5e9" fill-opacity="0.5" stroke="#606060" stroke-width=".5" x="0" y="0" width="60" height="60"/>
                <use id="zoomplus" xlink:href="#zoomPlus" x="17" y="9" onmousedown="handleZoom(evt,'in')"/>
                <use id="zoomminus" xlink:href="#zoomMin" x="42" y="9" onmousedown="handleZoom(evt,'out')"/>
                <use id="reset" xlink:href="#resetDef" x="30" y="36" onmousedown="handleReset()"/>
                <g id="arrowUp" xlink:href="#dirArrow" transform="translate(30 24)" onmousedown="handlePan(0,-1)">
                  <use xlink:href="#rim" fill="#404040">
                        <set attributeName="fill" to="#808080" begin="arrowUp.mouseover" end="arrowUp.mouseout"/>
                  </use>
                  <path fill="none" stroke="white" stroke-width="1.5" d="M0,-3.0v7 M-2.5,-0.5L0,-3.0L2.5,-0.5"/>
                </g>
                <g id="arrowRight" xlink:href="#dirArrow" transform="rotate(90) translate(36 -43)" onmousedown="handlePan(1,0)">
                  <use xlink:href="#rim" fill="#404040">
                        <set attributeName="fill" to="#808080" begin="arrowRight.mouseover" end="arrowRight.mouseout"/>
                  </use>
                  <path fill="none" stroke="white" stroke-width="1.5" d="M0,-3.0v7 M-2.5,-0.5L0,-3.0L2.5,-0.5"/>
                </g>
                <g id="arrowDown" xlink:href="#dirArrow" transform="rotate(180) translate(-30 -48)" onmousedown="handlePan(0,1)">
                  <use xlink:href="#rim" fill="#404040">
                        <set attributeName="fill" to="#808080" begin="arrowDown.mouseover" end="arrowDown.mouseout"/>
                  </use>
                  <path fill="none" stroke="white" stroke-width="1.5" d="M0,-3.0v7 M-2.5,-0.5L0,-3.0L2.5,-0.5"/>
                </g>
                <g id="arrowLeft" xlink:href="#dirArrow" transform="rotate(270) translate(-36 17)" onmousedown="handlePan(-1,0)">
                  <use xlink:href="#rim" fill="#404040">
                        <set attributeName="fill" to="#808080" begin="arrowLeft.mouseover" end="arrowLeft.mouseout"/>
                  </use>
                  <path fill="none" stroke="white" stroke-width="1.5" d="M0,-3.0v7 M-2.5,-0.5L0,-3.0L2.5,-0.5"/>
                </g>
        </g>
        <svg viewBox="0 0 15 15" width="100%" height="30px" preserveAspectRatio="xMaxYMin meet">
         <g id="arrow_out" transform="scale(0.3 0.3)">
          <a xlink:href="classlocomotor_1_1core_1_1_gaussian_afd611f311f6fe230f8fad8bd0c7e0a51_icgraph_org.svg" target="_base">
           <rect id="button" ry="5" rx="5" y="6" x="6" height="38" width="38"
                fill="#f2f5e9" fill-opacity="0.5" stroke="#606060" stroke-width="1.0"/>
           <path id="arrow"
             d="M 11.500037,31.436501 C 11.940474,20.09759 22.043105,11.32322 32.158766,21.979434 L 37.068811,17.246167 C 37.068811,17.246167 37.088388,32 37.088388,32 L 22.160133,31.978069 C 22.160133,31.978069 26.997745,27.140456 26.997745,27.140456 C 18.528582,18.264221 13.291696,25.230495 11.500037,31.436501 z"
             style="fill:#404040;"/>
          </a>
         </g>
        </svg>
</svg>
