<?xml version="1.0" encoding="UTF-8" standalone="no"?>
<!DOCTYPE svg PUBLIC "-//W3C//DTD SVG 1.1//EN"
 "http://www.w3.org/Graphics/SVG/1.1/DTD/svg11.dtd">
<!-- Generated by graphviz version 2.40.1 (20161225.0304)
 -->
<!-- Title: fromJSON Pages: 1 -->
<svg width="1063pt" height="529pt"
 viewBox="0.00 0.00 1062.72 529.00" xmlns="http://www.w3.org/2000/svg" xmlns:xlink="http://www.w3.org/1999/xlink">
<g id="graph0" class="graph" transform="scale(1 1) rotate(0) translate(4 525)">
<title>fromJSON</title>
<polygon fill="#ffffff" stroke="transparent" points="-4,4 -4,-525 1058.7158,-525 1058.7158,4 -4,4"/>
<!-- Node1 -->
<g id="node1" class="node">
<title>Node1</title>
<polygon fill="#bfbfbf" stroke="#000000" points="0,-250.5 0,-268.5 62.6699,-268.5 62.6699,-250.5 0,-250.5"/>
<text text-anchor="middle" x="31.335" y="-256.5" font-family="Helvetica,sans-Serif" font-size="10.00" fill="#000000">fromJSON</text>
</g>
<!-- Node2 -->
<g id="node2" class="node">
<title>Node2</title>
<g id="a_node2"><a xlink:href="classlocomotor_1_1components_1_1models_1_1_category_model.html#a337145f3b2fdaaed1506d52b80d2ac86" target="_top" xlink:title="locomotor.components.models.\lCategoryModel.getCriterias">
<polygon fill="#ffffff" stroke="#000000" points="98.6699,-292.5 98.6699,-320.5 253.0781,-320.5 253.0781,-292.5 98.6699,-292.5"/>
<text text-anchor="start" x="106.6699" y="-308.5" font-family="Helvetica,sans-Serif" font-size="10.00" fill="#000000">locomotor.components.models.</text>
<text text-anchor="middle" x="175.874" y="-298.5" font-family="Helvetica,sans-Serif" font-size="10.00" fill="#000000">CategoryModel.getCriterias</text>
</a>
</g>
</g>
<!-- Node1&#45;&gt;Node2 -->
<g id="edge1" class="edge">
<title>Node1&#45;&gt;Node2</title>
<path fill="none" stroke="#191970" d="M55.8536,-268.5905C68.5732,-273.217 84.3966,-278.8338 98.6699,-283.5 104.6893,-285.4678 110.9947,-287.4591 117.2966,-289.404"/>
<polygon fill="#191970" stroke="#191970" points="116.5691,-292.8412 127.1552,-292.412 118.6119,-286.1459 116.5691,-292.8412"/>
</g>
<!-- Node3 -->
<g id="node3" class="node">
<title>Node3</title>
<g id="a_node3"><a xlink:href="classlocomotor_1_1components_1_1models_1_1_user_criteria.html#aaca1c5ec640a1453943ce97d40e12a63" target="_top" xlink:title="locomotor.components.models.\lUserCriteria.fromJSON">
<polygon fill="#ffffff" stroke="#000000" points="98.6699,-245.5 98.6699,-273.5 253.0781,-273.5 253.0781,-245.5 98.6699,-245.5"/>
<text text-anchor="start" x="106.6699" y="-261.5" font-family="Helvetica,sans-Serif" font-size="10.00" fill="#000000">locomotor.components.models.</text>
<text text-anchor="middle" x="175.874" y="-251.5" font-family="Helvetica,sans-Serif" font-size="10.00" fill="#000000">UserCriteria.fromJSON</text>
</a>
</g>
</g>
<!-- Node1&#45;&gt;Node3 -->
<g id="edge2" class="edge">
<title>Node1&#45;&gt;Node3</title>
<path fill="none" stroke="#191970" d="M62.6978,-259.5C70.5633,-259.5 79.3928,-259.5 88.5603,-259.5"/>
<polygon fill="#191970" stroke="#191970" points="88.611,-263.0001 98.6109,-259.5 88.6109,-256.0001 88.611,-263.0001"/>
</g>
<!-- Node26 -->
<g id="node26" class="node">
<title>Node26</title>
<g id="a_node26"><a xlink:href="classlocomotor_1_1components_1_1models_1_1_user_category.html#a102c969efe0667dccd060943be8786ec" target="_top" xlink:title="UserCategory">
<polygon fill="#ffffff" stroke="#000000" points="137.0293,-208.5 137.0293,-226.5 214.7188,-226.5 214.7188,-208.5 137.0293,-208.5"/>
<text text-anchor="middle" x="175.874" y="-214.5" font-family="Helvetica,sans-Serif" font-size="10.00" fill="#000000">UserCategory</text>
</a>
</g>
</g>
<!-- Node1&#45;&gt;Node26 -->
<g id="edge31" class="edge">
<title>Node1&#45;&gt;Node26</title>
<path fill="none" stroke="#191970" d="M56.1107,-250.4549C68.7606,-245.9855 84.4449,-240.6711 98.6699,-236.5 107.7163,-233.8474 117.4308,-231.2578 126.813,-228.8864"/>
<polygon fill="#191970" stroke="#191970" points="127.9521,-232.2101 136.8159,-226.4062 126.2675,-225.4158 127.9521,-232.2101"/>
</g>
<!-- Node4 -->
<g id="node4" class="node">
<title>Node4</title>
<g id="a_node4"><a xlink:href="classlocomotor_1_1components_1_1types_1_1_type_factory.html#a1a64701bf13afa82b6b32bf422a171e2" target="_top" xlink:title="locomotor.components.types.\lTypeFactory.getUser">
<polygon fill="#ffffff" stroke="#000000" points="293.2456,-292.5 293.2456,-320.5 439.3188,-320.5 439.3188,-292.5 293.2456,-292.5"/>
<text text-anchor="start" x="301.2456" y="-308.5" font-family="Helvetica,sans-Serif" font-size="10.00" fill="#000000">locomotor.components.types.</text>
<text text-anchor="middle" x="366.2822" y="-298.5" font-family="Helvetica,sans-Serif" font-size="10.00" fill="#000000">TypeFactory.getUser</text>
</a>
</g>
</g>
<!-- Node3&#45;&gt;Node4 -->
<g id="edge3" class="edge">
<title>Node3&#45;&gt;Node4</title>
<path fill="none" stroke="#191970" d="M232.7448,-273.5379C253.7464,-278.7219 277.7356,-284.6433 299.5333,-290.0238"/>
<polygon fill="#191970" stroke="#191970" points="298.8283,-293.4548 309.3757,-292.4533 300.5058,-286.6587 298.8283,-293.4548"/>
</g>
<!-- Node24 -->
<g id="node24" class="node">
<title>Node24</title>
<g id="a_node24"><a xlink:href="classlocomotor_1_1components_1_1models_1_1_criteria_model.html#a7dd49780da667635d05b6f3155da39e6" target="_top" xlink:title="locomotor.components.models.\lCriteriaModel.getUserType">
<polygon fill="#ffffff" stroke="#000000" points="289.0781,-245.5 289.0781,-273.5 443.4863,-273.5 443.4863,-245.5 289.0781,-245.5"/>
<text text-anchor="start" x="297.0781" y="-261.5" font-family="Helvetica,sans-Serif" font-size="10.00" fill="#000000">locomotor.components.models.</text>
<text text-anchor="middle" x="366.2822" y="-251.5" font-family="Helvetica,sans-Serif" font-size="10.00" fill="#000000">CriteriaModel.getUserType</text>
</a>
</g>
</g>
<!-- Node3&#45;&gt;Node24 -->
<g id="edge29" class="edge">
<title>Node3&#45;&gt;Node24</title>
<path fill="none" stroke="#191970" d="M253.3203,-259.5C261.6649,-259.5 270.1982,-259.5 278.6514,-259.5"/>
<polygon fill="#191970" stroke="#191970" points="278.9046,-263.0001 288.9046,-259.5 278.9045,-256.0001 278.9046,-263.0001"/>
</g>
<!-- Node25 -->
<g id="node25" class="node">
<title>Node25</title>
<g id="a_node25"><a xlink:href="classlocomotor_1_1components_1_1models_1_1_user_criteria.html#a73362947e669621a26c6ca400fd58e49" target="_top" xlink:title="locomotor.components.models.\lUserCriteria.UserCriteria">
<polygon fill="#ffffff" stroke="#000000" points="289.0781,-198.5 289.0781,-226.5 443.4863,-226.5 443.4863,-198.5 289.0781,-198.5"/>
<text text-anchor="start" x="297.0781" y="-214.5" font-family="Helvetica,sans-Serif" font-size="10.00" fill="#000000">locomotor.components.models.</text>
<text text-anchor="middle" x="366.2822" y="-204.5" font-family="Helvetica,sans-Serif" font-size="10.00" fill="#000000">UserCriteria.UserCriteria</text>
</a>
</g>
</g>
<!-- Node3&#45;&gt;Node25 -->
<g id="edge30" class="edge">
<title>Node3&#45;&gt;Node25</title>
<path fill="none" stroke="#191970" d="M232.7448,-245.4621C253.7464,-240.2781 277.7356,-234.3567 299.5333,-228.9762"/>
<polygon fill="#191970" stroke="#191970" points="300.5058,-232.3413 309.3757,-226.5467 298.8283,-225.5452 300.5058,-232.3413"/>
</g>
<!-- Node5 -->
<g id="node5" class="node">
<title>Node5</title>
<g id="a_node5"><a xlink:href="classlocomotor_1_1components_1_1types_1_1_c_boolean.html#a1bdea5ac8c77993c2f48a0a99a0ce032" target="_top" xlink:title="locomotor.components.types.\lCBoolean.fromJSON">
<polygon fill="#ffffff" stroke="#000000" points="484.6621,-462.5 484.6621,-490.5 630.7354,-490.5 630.7354,-462.5 484.6621,-462.5"/>
<text text-anchor="start" x="492.6621" y="-478.5" font-family="Helvetica,sans-Serif" font-size="10.00" fill="#000000">locomotor.components.types.</text>
<text text-anchor="middle" x="557.6987" y="-468.5" font-family="Helvetica,sans-Serif" font-size="10.00" fill="#000000">CBoolean.fromJSON</text>
</a>
</g>
</g>
<!-- Node4&#45;&gt;Node5 -->
<g id="edge4" class="edge">
<title>Node4&#45;&gt;Node5</title>
<path fill="none" stroke="#191970" d="M377.9597,-320.5451C397.5743,-343.6842 438.9791,-390.6268 479.4863,-424.5 493.5742,-436.2806 510.4042,-447.7602 524.837,-456.9235"/>
<polygon fill="#191970" stroke="#191970" points="523.1315,-459.9848 533.4677,-462.3116 526.8386,-454.0469 523.1315,-459.9848"/>
</g>
<!-- Node8 -->
<g id="node8" class="node">
<title>Node8</title>
<g id="a_node8"><a xlink:href="classlocomotor_1_1components_1_1types_1_1_c_interval_integer.html#a7325219bbe286c1651eac4d7cb1dcf89" target="_top" xlink:title="locomotor.components.types.\lCIntervalInteger.fromJSON">
<polygon fill="#ffffff" stroke="#000000" points="484.6621,-327.5 484.6621,-355.5 630.7354,-355.5 630.7354,-327.5 484.6621,-327.5"/>
<text text-anchor="start" x="492.6621" y="-343.5" font-family="Helvetica,sans-Serif" font-size="10.00" fill="#000000">locomotor.components.types.</text>
<text text-anchor="middle" x="557.6987" y="-333.5" font-family="Helvetica,sans-Serif" font-size="10.00" fill="#000000">CIntervalInteger.fromJSON</text>
</a>
</g>
</g>
<!-- Node4&#45;&gt;Node8 -->
<g id="edge7" class="edge">
<title>Node4&#45;&gt;Node8</title>
<path fill="none" stroke="#191970" d="M439.4679,-319.8818C450.8962,-321.9714 462.7787,-324.1441 474.4121,-326.2713"/>
<polygon fill="#191970" stroke="#191970" points="474.0871,-329.7698 484.5536,-328.1256 475.3462,-322.884 474.0871,-329.7698"/>
</g>
<!-- Node12 -->
<g id="node12" class="node">
<title>Node12</title>
<g id="a_node12"><a xlink:href="classlocomotor_1_1components_1_1types_1_1_c_interval_double.html#a05b10f1076a88b090171dc5c92d1e51a" target="_top" xlink:title="locomotor.components.types.\lCIntervalDouble.fromJSON">
<polygon fill="#ffffff" stroke="#000000" points="484.6621,-386.5 484.6621,-414.5 630.7354,-414.5 630.7354,-386.5 484.6621,-386.5"/>
<text text-anchor="start" x="492.6621" y="-402.5" font-family="Helvetica,sans-Serif" font-size="10.00" fill="#000000">locomotor.components.types.</text>
<text text-anchor="middle" x="557.6987" y="-392.5" font-family="Helvetica,sans-Serif" font-size="10.00" fill="#000000">CIntervalDouble.fromJSON</text>
</a>
</g>
</g>
<!-- Node4&#45;&gt;Node12 -->
<g id="edge11" class="edge">
<title>Node4&#45;&gt;Node12</title>
<path fill="none" stroke="#191970" d="M392.1373,-320.5364C414.9388,-332.7798 449.1618,-350.8287 479.4863,-365.5 491.2151,-371.1745 504.0735,-377.0631 515.9155,-382.355"/>
<polygon fill="#191970" stroke="#191970" points="514.5937,-385.5975 525.1537,-386.4556 517.4336,-379.1995 514.5937,-385.5975"/>
</g>
<!-- Node14 -->
<g id="node14" class="node">
<title>Node14</title>
<g id="a_node14"><a xlink:href="classlocomotor_1_1components_1_1types_1_1_c_mapped_string_list.html#a3834a44c64a57457335f1f296b272c79" target="_top" xlink:title="locomotor.components.types.\lCMappedStringList.fromJSON">
<polygon fill="#ffffff" stroke="#000000" points="482.4526,-257.5 482.4526,-285.5 632.9448,-285.5 632.9448,-257.5 482.4526,-257.5"/>
<text text-anchor="start" x="490.4526" y="-273.5" font-family="Helvetica,sans-Serif" font-size="10.00" fill="#000000">locomotor.components.types.</text>
<text text-anchor="middle" x="557.6987" y="-263.5" font-family="Helvetica,sans-Serif" font-size="10.00" fill="#000000">CMappedStringList.fromJSON</text>
</a>
</g>
</g>
<!-- Node4&#45;&gt;Node14 -->
<g id="edge15" class="edge">
<title>Node4&#45;&gt;Node14</title>
<path fill="none" stroke="#191970" d="M439.4679,-293.1182C450.2151,-291.1531 461.364,-289.1146 472.3297,-287.1095"/>
<polygon fill="#191970" stroke="#191970" points="473.1245,-290.5223 482.3319,-285.2806 471.8654,-283.6364 473.1245,-290.5223"/>
</g>
<!-- Node17 -->
<g id="node17" class="node">
<title>Node17</title>
<g id="a_node17"><a xlink:href="classlocomotor_1_1components_1_1types_1_1_c_weighted_string_list.html#a7a08dcf44cd83920ed5e14cef6361de8" target="_top" xlink:title="locomotor.components.types.\lCWeightedStringList.fromJSON">
<polygon fill="#ffffff" stroke="#000000" points="479.4863,-146.5 479.4863,-174.5 635.9111,-174.5 635.9111,-146.5 479.4863,-146.5"/>
<text text-anchor="start" x="487.4863" y="-162.5" font-family="Helvetica,sans-Serif" font-size="10.00" fill="#000000">locomotor.components.types.</text>
<text text-anchor="middle" x="557.6987" y="-152.5" font-family="Helvetica,sans-Serif" font-size="10.00" fill="#000000">CWeightedStringList.fromJSON</text>
</a>
</g>
</g>
<!-- Node4&#45;&gt;Node17 -->
<g id="edge18" class="edge">
<title>Node4&#45;&gt;Node17</title>
<path fill="none" stroke="#191970" d="M425.4711,-292.478C431.7677,-289.9398 437.9031,-286.9692 443.4863,-283.5 454.8382,-276.4463 508.5723,-216.3373 538.1157,-182.8357"/>
<polygon fill="#191970" stroke="#191970" points="541.0854,-184.7591 545.0651,-174.9401 535.8308,-180.1342 541.0854,-184.7591"/>
</g>
<!-- Node21 -->
<g id="node21" class="node">
<title>Node21</title>
<g id="a_node21"><a xlink:href="classlocomotor_1_1components_1_1types_1_1_c_tree.html#a82724a3000f4e1d5ff5fed5365e1480f" target="_top" xlink:title="locomotor.components.types.\lCTree.fromJSON">
<polygon fill="#ffffff" stroke="#000000" points="484.6621,-43.5 484.6621,-71.5 630.7354,-71.5 630.7354,-43.5 484.6621,-43.5"/>
<text text-anchor="start" x="492.6621" y="-59.5" font-family="Helvetica,sans-Serif" font-size="10.00" fill="#000000">locomotor.components.types.</text>
<text text-anchor="middle" x="557.6987" y="-49.5" font-family="Helvetica,sans-Serif" font-size="10.00" fill="#000000">CTree.fromJSON</text>
</a>
</g>
</g>
<!-- Node4&#45;&gt;Node21 -->
<g id="edge24" class="edge">
<title>Node4&#45;&gt;Node21</title>
<path fill="none" stroke="#191970" d="M432.3603,-292.3741C436.4339,-289.875 440.2052,-286.9417 443.4863,-283.5 489.6014,-235.1268 446.9813,-195.8951 479.4863,-137.5 492.3948,-114.31 513.8055,-93.0841 530.9647,-78.3323"/>
<polygon fill="#191970" stroke="#191970" points="533.5583,-80.7263 538.9909,-71.6303 529.0717,-75.3532 533.5583,-80.7263"/>
</g>
<!-- Node6 -->
<g id="node6" class="node">
<title>Node6</title>
<g id="a_node6"><a xlink:href="classlocomotor_1_1components_1_1types_1_1_c_boolean.html#a04219e3dc4a138fa88ee6876fb62eebc" target="_top" xlink:title="locomotor.components.types.\lCBoolean.CBoolean">
<polygon fill="#ffffff" stroke="#000000" points="699.2402,-492.5 699.2402,-520.5 845.3135,-520.5 845.3135,-492.5 699.2402,-492.5"/>
<text text-anchor="start" x="707.2402" y="-508.5" font-family="Helvetica,sans-Serif" font-size="10.00" fill="#000000">locomotor.components.types.</text>
<text text-anchor="middle" x="772.2769" y="-498.5" font-family="Helvetica,sans-Serif" font-size="10.00" fill="#000000">CBoolean.CBoolean</text>
</a>
</g>
</g>
<!-- Node5&#45;&gt;Node6 -->
<g id="edge5" class="edge">
<title>Node5&#45;&gt;Node6</title>
<path fill="none" stroke="#191970" d="M630.9442,-486.7404C649.6574,-489.3567 669.912,-492.1885 689.0842,-494.8689"/>
<polygon fill="#191970" stroke="#191970" points="688.6091,-498.3364 698.9974,-496.2549 689.5784,-491.4039 688.6091,-498.3364"/>
</g>
<!-- Node7 -->
<g id="node7" class="node">
<title>Node7</title>
<g id="a_node7"><a xlink:href="classlocomotor_1_1components_1_1types_1_1_c_boolean.html#a9eac04fa64318139aa527377b2e03cc4" target="_top" xlink:title="locomotor.components.types.\lCBoolean.value">
<polygon fill="#ffffff" stroke="#000000" points="908.6426,-492.5 908.6426,-520.5 1054.7158,-520.5 1054.7158,-492.5 908.6426,-492.5"/>
<text text-anchor="start" x="916.6426" y="-508.5" font-family="Helvetica,sans-Serif" font-size="10.00" fill="#000000">locomotor.components.types.</text>
<text text-anchor="middle" x="981.6792" y="-498.5" font-family="Helvetica,sans-Serif" font-size="10.00" fill="#000000">CBoolean.value</text>
</a>
</g>
</g>
<!-- Node6&#45;&gt;Node7 -->
<g id="edge6" class="edge">
<title>Node6&#45;&gt;Node7</title>
<path fill="none" stroke="#191970" d="M845.5156,-506.5C862.5719,-506.5 880.8561,-506.5 898.3139,-506.5"/>
<polygon fill="#191970" stroke="#191970" points="898.4818,-510.0001 908.4818,-506.5 898.4817,-503.0001 898.4818,-510.0001"/>
</g>
<!-- Node9 -->
<g id="node9" class="node">
<title>Node9</title>
<g id="a_node9"><a xlink:href="classlocomotor_1_1components_1_1types_1_1_c_interval.html#a8977ca8c87b00639da116d1441a878ec" target="_top" xlink:title="locomotor.components.types.\lCInterval.min">
<polygon fill="#ffffff" stroke="#000000" points="699.2402,-398.5 699.2402,-426.5 845.3135,-426.5 845.3135,-398.5 699.2402,-398.5"/>
<text text-anchor="start" x="707.2402" y="-414.5" font-family="Helvetica,sans-Serif" font-size="10.00" fill="#000000">locomotor.components.types.</text>
<text text-anchor="middle" x="772.2769" y="-404.5" font-family="Helvetica,sans-Serif" font-size="10.00" fill="#000000">CInterval.min</text>
</a>
</g>
</g>
<!-- Node8&#45;&gt;Node9 -->
<g id="edge8" class="edge">
<title>Node8&#45;&gt;Node9</title>
<path fill="none" stroke="#191970" d="M587.2247,-355.5715C609.9777,-366.0048 642.4301,-380.0055 671.9111,-389.5 679.0098,-391.7862 686.4603,-393.938 693.9594,-395.9386"/>
<polygon fill="#191970" stroke="#191970" points="693.2631,-399.3735 703.8202,-398.4801 695.0102,-392.595 693.2631,-399.3735"/>
</g>
<!-- Node10 -->
<g id="node10" class="node">
<title>Node10</title>
<g id="a_node10"><a xlink:href="classlocomotor_1_1components_1_1types_1_1_c_interval.html#a63edd36c00e0027edd899384e6f168f9" target="_top" xlink:title="locomotor.components.types.\lCInterval.max">
<polygon fill="#ffffff" stroke="#000000" points="699.2402,-351.5 699.2402,-379.5 845.3135,-379.5 845.3135,-351.5 699.2402,-351.5"/>
<text text-anchor="start" x="707.2402" y="-367.5" font-family="Helvetica,sans-Serif" font-size="10.00" fill="#000000">locomotor.components.types.</text>
<text text-anchor="middle" x="772.2769" y="-357.5" font-family="Helvetica,sans-Serif" font-size="10.00" fill="#000000">CInterval.max</text>
</a>
</g>
</g>
<!-- Node8&#45;&gt;Node10 -->
<g id="edge9" class="edge">
<title>Node8&#45;&gt;Node10</title>
<path fill="none" stroke="#191970" d="M630.9442,-349.6923C649.5715,-351.7757 669.7262,-354.03 688.8203,-356.1656"/>
<polygon fill="#191970" stroke="#191970" points="688.6703,-359.6706 698.9974,-357.3039 689.4485,-352.7139 688.6703,-359.6706"/>
</g>
<!-- Node11 -->
<g id="node11" class="node">
<title>Node11</title>
<g id="a_node11"><a xlink:href="classlocomotor_1_1components_1_1types_1_1_c_interval_integer.html#a4ece5be3d0255219efc9a1ec16f3775c" target="_top" xlink:title="locomotor.components.types.\lCIntervalInteger.CIntervalInteger">
<polygon fill="#ffffff" stroke="#000000" points="692.0137,-304.5 692.0137,-332.5 852.54,-332.5 852.54,-304.5 692.0137,-304.5"/>
<text text-anchor="start" x="700.0137" y="-320.5" font-family="Helvetica,sans-Serif" font-size="10.00" fill="#000000">locomotor.components.types.</text>
<text text-anchor="middle" x="772.2769" y="-310.5" font-family="Helvetica,sans-Serif" font-size="10.00" fill="#000000">CIntervalInteger.CIntervalInteger</text>
</a>
</g>
</g>
<!-- Node8&#45;&gt;Node11 -->
<g id="edge10" class="edge">
<title>Node8&#45;&gt;Node11</title>
<path fill="none" stroke="#191970" d="M630.9442,-333.649C647.3857,-331.8867 665.0171,-329.9969 682.0588,-328.1702"/>
<polygon fill="#191970" stroke="#191970" points="682.4411,-331.6494 692.0111,-327.1034 681.695,-324.6892 682.4411,-331.6494"/>
</g>
<!-- Node12&#45;&gt;Node9 -->
<g id="edge12" class="edge">
<title>Node12&#45;&gt;Node9</title>
<path fill="none" stroke="#191970" d="M630.9442,-404.5962C649.5715,-405.6379 669.7262,-406.765 688.8203,-407.8328"/>
<polygon fill="#191970" stroke="#191970" points="688.8176,-411.338 698.9974,-408.4019 689.2085,-404.3489 688.8176,-411.338"/>
</g>
<!-- Node12&#45;&gt;Node10 -->
<g id="edge13" class="edge">
<title>Node12&#45;&gt;Node10</title>
<path fill="none" stroke="#191970" d="M630.9442,-388.5529C649.6574,-385.5006 669.912,-382.1968 689.0842,-379.0696"/>
<polygon fill="#191970" stroke="#191970" points="689.6913,-382.5169 698.9974,-377.4527 688.5644,-375.6082 689.6913,-382.5169"/>
</g>
<!-- Node13 -->
<g id="node13" class="node">
<title>Node13</title>
<g id="a_node13"><a xlink:href="classlocomotor_1_1components_1_1types_1_1_c_interval_double.html#a1c646d0efc9520469e000c2282ca3386" target="_top" xlink:title="locomotor.components.types.\lCIntervalDouble.CIntervalDouble">
<polygon fill="#ffffff" stroke="#000000" points="691.1836,-445.5 691.1836,-473.5 853.3701,-473.5 853.3701,-445.5 691.1836,-445.5"/>
<text text-anchor="start" x="699.1836" y="-461.5" font-family="Helvetica,sans-Serif" font-size="10.00" fill="#000000">locomotor.components.types.</text>
<text text-anchor="middle" x="772.2769" y="-451.5" font-family="Helvetica,sans-Serif" font-size="10.00" fill="#000000">CIntervalDouble.CIntervalDouble</text>
</a>
</g>
</g>
<!-- Node12&#45;&gt;Node13 -->
<g id="edge14" class="edge">
<title>Node12&#45;&gt;Node13</title>
<path fill="none" stroke="#191970" d="M599.4995,-414.5593C621.0138,-421.57 647.7354,-429.9311 671.9111,-436.5 680.2461,-438.7647 689.01,-440.9939 697.744,-443.1202"/>
<polygon fill="#191970" stroke="#191970" points="697.0276,-446.5475 707.5679,-445.4736 698.6585,-439.7401 697.0276,-446.5475"/>
</g>
<!-- Node15 -->
<g id="node15" class="node">
<title>Node15</title>
<g id="a_node15"><a xlink:href="classlocomotor_1_1components_1_1types_1_1_c_string_list.html#aa9063c07592d04038c8a37cae1214de5" target="_top" xlink:title="locomotor.components.types.\lCStringList.treeFromJSON">
<polygon fill="#ffffff" stroke="#000000" points="699.2402,-257.5 699.2402,-285.5 845.3135,-285.5 845.3135,-257.5 699.2402,-257.5"/>
<text text-anchor="start" x="707.2402" y="-273.5" font-family="Helvetica,sans-Serif" font-size="10.00" fill="#000000">locomotor.components.types.</text>
<text text-anchor="middle" x="772.2769" y="-263.5" font-family="Helvetica,sans-Serif" font-size="10.00" fill="#000000">CStringList.treeFromJSON</text>
</a>
</g>
</g>
<!-- Node14&#45;&gt;Node15 -->
<g id="edge16" class="edge">
<title>Node14&#45;&gt;Node15</title>
<path fill="none" stroke="#191970" d="M633.0492,-271.5C651.0838,-271.5 670.4432,-271.5 688.82,-271.5"/>
<polygon fill="#191970" stroke="#191970" points="688.9137,-275.0001 698.9137,-271.5 688.9136,-268.0001 688.9137,-275.0001"/>
</g>
<!-- Node16 -->
<g id="node16" class="node">
<title>Node16</title>
<g id="a_node16"><a xlink:href="classlocomotor_1_1components_1_1types_1_1_c_mapped_string_list.html#a6ee84a38e1c5b58c08a7e9557cc959e1" target="_top" xlink:title="locomotor.components.types.\lCMappedStringList.CMappedStringList">
<polygon fill="#ffffff" stroke="#000000" points="677.8438,-210.5 677.8438,-238.5 866.71,-238.5 866.71,-210.5 677.8438,-210.5"/>
<text text-anchor="start" x="685.8438" y="-226.5" font-family="Helvetica,sans-Serif" font-size="10.00" fill="#000000">locomotor.components.types.</text>
<text text-anchor="middle" x="772.2769" y="-216.5" font-family="Helvetica,sans-Serif" font-size="10.00" fill="#000000">CMappedStringList.CMappedStringList</text>
</a>
</g>
</g>
<!-- Node14&#45;&gt;Node16 -->
<g id="edge17" class="edge">
<title>Node14&#45;&gt;Node16</title>
<path fill="none" stroke="#191970" d="M621.7886,-257.4621C645.7759,-252.2081 673.2216,-246.1965 698.0495,-240.7583"/>
<polygon fill="#191970" stroke="#191970" points="699.1272,-244.1054 708.1467,-238.5467 697.6294,-237.2675 699.1272,-244.1054"/>
</g>
<!-- Node18 -->
<g id="node18" class="node">
<title>Node18</title>
<g id="a_node18"><a xlink:href="classlocomotor_1_1components_1_1types_1_1_c_weighted_string_list.html#a97eb4ff6ea197b3a02c2db1c768c989a" target="_top" xlink:title="locomotor.components.types.\lCWeightedStringList.min">
<polygon fill="#ffffff" stroke="#000000" points="908.6426,-148.5 908.6426,-176.5 1054.7158,-176.5 1054.7158,-148.5 908.6426,-148.5"/>
<text text-anchor="start" x="916.6426" y="-164.5" font-family="Helvetica,sans-Serif" font-size="10.00" fill="#000000">locomotor.components.types.</text>
<text text-anchor="middle" x="981.6792" y="-154.5" font-family="Helvetica,sans-Serif" font-size="10.00" fill="#000000">CWeightedStringList.min</text>
</a>
</g>
</g>
<!-- Node17&#45;&gt;Node18 -->
<g id="edge19" class="edge">
<title>Node17&#45;&gt;Node18</title>
<path fill="none" stroke="#191970" d="M636.0302,-162.0531C648.047,-162.2388 660.3101,-162.3984 671.9111,-162.5 748.5777,-163.1712 835.9215,-163.0948 898.2744,-162.8954"/>
<polygon fill="#191970" stroke="#191970" points="898.4614,-166.3949 908.4495,-162.861 898.4377,-159.3949 898.4614,-166.3949"/>
</g>
<!-- Node19 -->
<g id="node19" class="node">
<title>Node19</title>
<g id="a_node19"><a xlink:href="classlocomotor_1_1components_1_1types_1_1_c_weighted_string_list.html#a1847175a80cbae9533f68b32190a708d" target="_top" xlink:title="locomotor.components.types.\lCWeightedStringList.max">
<polygon fill="#ffffff" stroke="#000000" points="908.6426,-91.5 908.6426,-119.5 1054.7158,-119.5 1054.7158,-91.5 908.6426,-91.5"/>
<text text-anchor="start" x="916.6426" y="-107.5" font-family="Helvetica,sans-Serif" font-size="10.00" fill="#000000">locomotor.components.types.</text>
<text text-anchor="middle" x="981.6792" y="-97.5" font-family="Helvetica,sans-Serif" font-size="10.00" fill="#000000">CWeightedStringList.max</text>
</a>
</g>
</g>
<!-- Node17&#45;&gt;Node19 -->
<g id="edge20" class="edge">
<title>Node17&#45;&gt;Node19</title>
<path fill="none" stroke="#191970" d="M585.4971,-146.4215C608.1259,-135.7372 641.2307,-121.8407 671.9111,-115.5 747.4074,-99.8974 835.4253,-98.627 898.3017,-100.5334"/>
<polygon fill="#191970" stroke="#191970" points="898.4502,-104.0403 908.5625,-100.8794 898.6862,-97.0443 898.4502,-104.0403"/>
</g>
<!-- Node20 -->
<g id="node20" class="node">
<title>Node20</title>
<g id="a_node20"><a xlink:href="classlocomotor_1_1components_1_1types_1_1_c_weighted_string_list.html#af359d6fddb9c42710b6546ed2337eec7" target="_top" xlink:title="locomotor.components.types.\lCWeightedStringList.CWeightedStringList">
<polygon fill="#ffffff" stroke="#000000" points="671.9111,-124.5 671.9111,-152.5 872.6426,-152.5 872.6426,-124.5 671.9111,-124.5"/>
<text text-anchor="start" x="679.9111" y="-140.5" font-family="Helvetica,sans-Serif" font-size="10.00" fill="#000000">locomotor.components.types.</text>
<text text-anchor="middle" x="772.2769" y="-130.5" font-family="Helvetica,sans-Serif" font-size="10.00" fill="#000000">CWeightedStringList.CWeightedStringList</text>
</a>
</g>
</g>
<!-- Node17&#45;&gt;Node20 -->
<g id="edge21" class="edge">
<title>Node17&#45;&gt;Node20</title>
<path fill="none" stroke="#191970" d="M636.0772,-152.4641C644.424,-151.6083 653.0231,-150.7267 661.6509,-149.8421"/>
<polygon fill="#191970" stroke="#191970" points="662.1883,-153.3055 671.7792,-148.8037 661.4743,-146.342 662.1883,-153.3055"/>
</g>
<!-- Node20&#45;&gt;Node18 -->
<g id="edge22" class="edge">
<title>Node20&#45;&gt;Node18</title>
<path fill="none" stroke="#191970" d="M872.6847,-150.0079C881.2664,-150.9915 889.8866,-151.9795 898.3142,-152.9454"/>
<polygon fill="#191970" stroke="#191970" points="898.1494,-156.4493 908.4829,-154.1108 898.9465,-149.4948 898.1494,-156.4493"/>
</g>
<!-- Node20&#45;&gt;Node19 -->
<g id="edge23" class="edge">
<title>Node20&#45;&gt;Node19</title>
<path fill="none" stroke="#191970" d="M861.3859,-124.4572C873.6481,-122.5248 886.2022,-120.5463 898.3549,-118.6312"/>
<polygon fill="#191970" stroke="#191970" points="899.1204,-122.0538 908.4536,-117.0397 898.0307,-115.1392 899.1204,-122.0538"/>
</g>
<!-- Node21&#45;&gt;Node21 -->
<g id="edge26" class="edge">
<title>Node21&#45;&gt;Node21</title>
<path fill="none" stroke="#191970" d="M525.2135,-71.5305C516.0695,-80.8898 526.8979,-90 557.6987,-90 576.9492,-90 588.398,-86.4413 592.0451,-81.4873"/>
<polygon fill="#191970" stroke="#191970" points="595.4618,-80.7171 590.1839,-71.5305 588.581,-82.0033 595.4618,-80.7171"/>
</g>
<!-- Node22 -->
<g id="node22" class="node">
<title>Node22</title>
<g id="a_node22"><a xlink:href="classlocomotor_1_1components_1_1types_1_1_c_tree.html#af0e7a198496b1627d0ff15ce0e6de1f2" target="_top" xlink:title="locomotor.components.types.\lCTree.CTree">
<polygon fill="#ffffff" stroke="#000000" points="908.6426,-27.5 908.6426,-55.5 1054.7158,-55.5 1054.7158,-27.5 908.6426,-27.5"/>
<text text-anchor="start" x="916.6426" y="-43.5" font-family="Helvetica,sans-Serif" font-size="10.00" fill="#000000">locomotor.components.types.</text>
<text text-anchor="middle" x="981.6792" y="-33.5" font-family="Helvetica,sans-Serif" font-size="10.00" fill="#000000">CTree.CTree</text>
</a>
</g>
</g>
<!-- Node21&#45;&gt;Node22 -->
<g id="edge25" class="edge">
<title>Node21&#45;&gt;Node22</title>
<path fill="none" stroke="#191970" d="M631.0665,-54.7313C705.4651,-51.9237 820.428,-47.5852 898.2498,-44.6484"/>
<polygon fill="#191970" stroke="#191970" points="898.6394,-48.1363 908.5002,-44.2616 898.3753,-41.1413 898.6394,-48.1363"/>
</g>
<!-- Node23 -->
<g id="node23" class="node">
<title>Node23</title>
<g id="a_node23"><a xlink:href="classlocomotor_1_1components_1_1types_1_1_c_tree.html#a74382cb3a3153edc32f1cfed8c4ee364" target="_top" xlink:title="locomotor.components.types.\lCTree.addChild">
<polygon fill="#ffffff" stroke="#000000" points="699.2402,-.5 699.2402,-28.5 845.3135,-28.5 845.3135,-.5 699.2402,-.5"/>
<text text-anchor="start" x="707.2402" y="-16.5" font-family="Helvetica,sans-Serif" font-size="10.00" fill="#000000">locomotor.components.types.</text>
<text text-anchor="middle" x="772.2769" y="-6.5" font-family="Helvetica,sans-Serif" font-size="10.00" fill="#000000">CTree.addChild</text>
</a>
</g>
</g>
<!-- Node21&#45;&gt;Node23 -->
<g id="edge27" class="edge">
<title>Node21&#45;&gt;Node23</title>
<path fill="none" stroke="#191970" d="M627.6627,-43.4797C648.3564,-39.3328 671.1665,-34.7618 692.434,-30.5"/>
<polygon fill="#191970" stroke="#191970" points="693.2906,-33.898 702.4079,-28.5013 691.9151,-27.0344 693.2906,-33.898"/>
</g>
<!-- Node23&#45;&gt;Node22 -->
<g id="edge28" class="edge">
<title>Node23&#45;&gt;Node22</title>
<path fill="none" stroke="#191970" d="M845.5156,-23.9433C862.5719,-26.1425 880.8561,-28.5 898.3139,-30.751"/>
<polygon fill="#191970" stroke="#191970" points="898.1163,-34.2544 908.4818,-32.062 899.0115,-27.3119 898.1163,-34.2544"/>
</g>
</g>
</svg>
