<?xml version="1.0" encoding="UTF-8" standalone="no"?>
<!DOCTYPE svg PUBLIC "-//W3C//DTD SVG 1.1//EN"
 "http://www.w3.org/Graphics/SVG/1.1/DTD/svg11.dtd">
<!-- Generated by graphviz version 2.40.1 (20161225.0304)
 -->
<!-- Title: CTree Pages: 1 -->
<svg width="425pt" height="202pt"
 viewBox="0.00 0.00 425.44 202.00" xmlns="http://www.w3.org/2000/svg" xmlns:xlink="http://www.w3.org/1999/xlink">
<g id="graph0" class="graph" transform="scale(1 1) rotate(0) translate(4 198)">
<title>CTree</title>
<polygon fill="#ffffff" stroke="transparent" points="-4,4 -4,-198 421.436,-198 421.436,4 -4,4"/>
<!-- Node1 -->
<g id="node1" class="node">
<title>Node1</title>
<polygon fill="#bfbfbf" stroke="#000000" points="228.4736,-.5 228.4736,-18.5 271.8906,-18.5 271.8906,-.5 228.4736,-.5"/>
<text text-anchor="middle" x="250.1821" y="-6.5" font-family="Helvetica,sans-Serif" font-size="10.00" fill="#000000">CTree</text>
</g>
<!-- Node2 -->
<g id="node2" class="node">
<title>Node2</title>
<g id="a_node2"><a xlink:href="interfacelocomotor_1_1components_1_1types_1_1_c_item_type.html" target="_top" xlink:title="CItemType">
<polygon fill="#ffffff" stroke="#000000" points="135.0049,-60.5 135.0049,-78.5 199.3594,-78.5 199.3594,-60.5 135.0049,-60.5"/>
<text text-anchor="middle" x="167.1821" y="-66.5" font-family="Helvetica,sans-Serif" font-size="10.00" fill="#000000">CItemType</text>
</a>
</g>
</g>
<!-- Node2&#45;&gt;Node1 -->
<g id="edge1" class="edge">
<title>Node2&#45;&gt;Node1</title>
<path fill="none" stroke="#191970" d="M188.2974,-54.2359C203.921,-42.9418 224.6728,-27.9405 237.7295,-18.5019"/>
<polygon fill="#191970" stroke="#191970" points="185.8418,-51.6923 179.788,-60.3873 189.9428,-57.3653 185.8418,-51.6923"/>
</g>
<!-- Node3 -->
<g id="node3" class="node">
<title>Node3</title>
<g id="a_node3"><a xlink:href="interfacelocomotor_1_1components_1_1types_1_1_c_comparable_type.html" target="_top" xlink:title="CComparableType">
<polygon fill="#ffffff" stroke="#000000" points="239.4927,-120.5 239.4927,-138.5 338.8716,-138.5 338.8716,-120.5 239.4927,-120.5"/>
<text text-anchor="middle" x="289.1821" y="-126.5" font-family="Helvetica,sans-Serif" font-size="10.00" fill="#000000">CComparableType</text>
</a>
</g>
</g>
<!-- Node3&#45;&gt;Node2 -->
<g id="edge2" class="edge">
<title>Node3&#45;&gt;Node2</title>
<path fill="none" stroke="#191970" d="M261.6242,-115.9469C238.3461,-104.4987 205.6643,-88.4257 185.4859,-78.5019"/>
<polygon fill="#191970" stroke="#191970" points="260.1348,-119.1148 270.653,-120.3873 263.2241,-112.8333 260.1348,-119.1148"/>
</g>
<!-- Node7 -->
<g id="node7" class="node">
<title>Node7</title>
<g id="a_node7"><a xlink:href="interfacelocomotor_1_1components_1_1types_1_1_c_user_type.html" target="_top" xlink:title="CUserType">
<polygon fill="#ffffff" stroke="#000000" points="217.1724,-60.5 217.1724,-78.5 283.1919,-78.5 283.1919,-60.5 217.1724,-60.5"/>
<text text-anchor="middle" x="250.1821" y="-66.5" font-family="Helvetica,sans-Serif" font-size="10.00" fill="#000000">CUserType</text>
</a>
</g>
</g>
<!-- Node3&#45;&gt;Node7 -->
<g id="edge7" class="edge">
<title>Node3&#45;&gt;Node7</title>
<path fill="none" stroke="#191970" d="M277.612,-111.6998C270.5641,-100.8569 261.8505,-87.4513 256.1611,-78.6985"/>
<polygon fill="#191970" stroke="#191970" points="274.8744,-113.9103 283.2589,-120.3873 280.7435,-110.0954 274.8744,-113.9103"/>
</g>
<!-- Node4 -->
<g id="node4" class="node">
<title>Node4</title>
<g id="a_node4"><a xlink:href="interfacelocomotor_1_1components_1_1types_1_1_c_type.html" target="_top" xlink:title="CType">
<polygon fill="#ffffff" stroke="#000000" points="266.729,-175.5 266.729,-193.5 311.6353,-193.5 311.6353,-175.5 266.729,-175.5"/>
<text text-anchor="middle" x="289.1821" y="-181.5" font-family="Helvetica,sans-Serif" font-size="10.00" fill="#000000">CType</text>
</a>
</g>
</g>
<!-- Node4&#45;&gt;Node3 -->
<g id="edge3" class="edge">
<title>Node4&#45;&gt;Node3</title>
<path fill="none" stroke="#191970" d="M289.1821,-165.383C289.1821,-156.3738 289.1821,-146.0373 289.1821,-138.7795"/>
<polygon fill="#191970" stroke="#191970" points="285.6822,-165.4178 289.1821,-175.4179 292.6822,-165.4179 285.6822,-165.4178"/>
</g>
<!-- Node5 -->
<g id="node5" class="node">
<title>Node5</title>
<g id="a_node5"><a xlink:href="interfacelocomotor_1_1components_1_1_j_s_o_n_displayable.html" target="_top" xlink:title="JSONDisplayable">
<polygon fill="#ffffff" stroke="#000000" points="0,-120.5 0,-138.5 94.3643,-138.5 94.3643,-120.5 0,-120.5"/>
<text text-anchor="middle" x="47.1821" y="-126.5" font-family="Helvetica,sans-Serif" font-size="10.00" fill="#000000">JSONDisplayable</text>
</a>
</g>
</g>
<!-- Node5&#45;&gt;Node2 -->
<g id="edge4" class="edge">
<title>Node5&#45;&gt;Node2</title>
<path fill="none" stroke="#191970" d="M74.5941,-115.794C97.4703,-104.3559 129.419,-88.3815 149.1784,-78.5019"/>
<polygon fill="#191970" stroke="#191970" points="72.7866,-112.7846 65.4075,-120.3873 75.9171,-119.0456 72.7866,-112.7846"/>
</g>
<!-- Node6 -->
<g id="node6" class="node">
<title>Node6</title>
<g id="a_node6"><a xlink:href="interfacelocomotor_1_1components_1_1_j_s_o_n_convertissable.html" target="_top" xlink:title="JSONConvertissable">
<polygon fill="#ffffff" stroke="#000000" points="112.7759,-120.5 112.7759,-138.5 221.5884,-138.5 221.5884,-120.5 112.7759,-120.5"/>
<text text-anchor="middle" x="167.1821" y="-126.5" font-family="Helvetica,sans-Serif" font-size="10.00" fill="#000000">JSONConvertissable</text>
</a>
</g>
</g>
<!-- Node6&#45;&gt;Node2 -->
<g id="edge5" class="edge">
<title>Node6&#45;&gt;Node2</title>
<path fill="none" stroke="#191970" d="M167.1821,-110.3734C167.1821,-99.7812 167.1821,-87.0976 167.1821,-78.6985"/>
<polygon fill="#191970" stroke="#191970" points="163.6822,-110.3873 167.1821,-120.3873 170.6822,-110.3873 163.6822,-110.3873"/>
</g>
<!-- Node6&#45;&gt;Node7 -->
<g id="edge8" class="edge">
<title>Node6&#45;&gt;Node7</title>
<path fill="none" stroke="#191970" d="M188.2974,-114.2359C203.921,-102.9418 224.6728,-87.9405 237.7295,-78.5019"/>
<polygon fill="#191970" stroke="#191970" points="185.8418,-111.6923 179.788,-120.3873 189.9428,-117.3653 185.8418,-111.6923"/>
</g>
<!-- Node7&#45;&gt;Node1 -->
<g id="edge6" class="edge">
<title>Node7&#45;&gt;Node1</title>
<path fill="none" stroke="#191970" d="M250.1821,-50.3734C250.1821,-39.7812 250.1821,-27.0976 250.1821,-18.6985"/>
<polygon fill="#191970" stroke="#191970" points="246.6822,-50.3873 250.1821,-60.3873 253.6822,-50.3873 246.6822,-50.3873"/>
</g>
<!-- Node8 -->
<g id="node8" class="node">
<title>Node8</title>
<g id="a_node8"><a xlink:href="interfacelocomotor_1_1components_1_1types_1_1_c_comparable.html" target="_top" xlink:title="CComparable\&lt; CTree,\l CGraphTree \&gt;">
<polygon fill="#ffffff" stroke="#000000" points="300.9282,-55.5 300.9282,-83.5 417.436,-83.5 417.436,-55.5 300.9282,-55.5"/>
<text text-anchor="start" x="308.9282" y="-71.5" font-family="Helvetica,sans-Serif" font-size="10.00" fill="#000000">CComparable&lt; CTree,</text>
<text text-anchor="middle" x="359.1821" y="-61.5" font-family="Helvetica,sans-Serif" font-size="10.00" fill="#000000"> CGraphTree &gt;</text>
</a>
</g>
</g>
<!-- Node8&#45;&gt;Node1 -->
<g id="edge9" class="edge">
<title>Node8&#45;&gt;Node1</title>
<path fill="none" stroke="#191970" d="M324.7709,-50.558C305.4099,-39.9006 282.1162,-27.0784 266.7702,-18.6311"/>
<polygon fill="#191970" stroke="#191970" points="323.1782,-53.6765 333.6265,-55.4327 326.5538,-47.5442 323.1782,-53.6765"/>
</g>
</g>
</svg>
