<?xml version="1.0" encoding="UTF-8" standalone="no"?>
<!DOCTYPE svg PUBLIC "-//W3C//DTD SVG 1.1//EN"
 "http://www.w3.org/Graphics/SVG/1.1/DTD/svg11.dtd">
<!-- Generated by graphviz version 2.40.1 (20161225.0304)
 -->
<!-- Title: removeUser Pages: 1 -->
<svg width="495pt" height="131pt"
 viewBox="0.00 0.00 494.85 131.00" xmlns="http://www.w3.org/2000/svg" xmlns:xlink="http://www.w3.org/1999/xlink">
<g id="graph0" class="graph" transform="scale(1 1) rotate(0) translate(4 127)">
<title>removeUser</title>
<polygon fill="#ffffff" stroke="transparent" points="-4,4 -4,-127 490.8506,-127 490.8506,4 -4,4"/>
<!-- Node1 -->
<g id="node1" class="node">
<title>Node1</title>
<polygon fill="#bfbfbf" stroke="#000000" points="0,-52.5 0,-70.5 70.458,-70.5 70.458,-52.5 0,-52.5"/>
<text text-anchor="middle" x="35.229" y="-58.5" font-family="Helvetica,sans-Serif" font-size="10.00" fill="#000000">removeUser</text>
</g>
<!-- Node2 -->
<g id="node2" class="node">
<title>Node2</title>
<g id="a_node2"><a xlink:href="classlocomotor_1_1components_1_1logging_1_1_error_handler.html#a75e8f6535bdb8db9a7d570e1b839af47" target="_top" xlink:title="locomotor.components.logging.\lErrorHandler.getInstance">
<polygon fill="#ffffff" stroke="#000000" points="124.2314,-94.5 124.2314,-122.5 278.6543,-122.5 278.6543,-94.5 124.2314,-94.5"/>
<text text-anchor="start" x="132.2314" y="-110.5" font-family="Helvetica,sans-Serif" font-size="10.00" fill="#000000">locomotor.components.logging.</text>
<text text-anchor="middle" x="201.4429" y="-100.5" font-family="Helvetica,sans-Serif" font-size="10.00" fill="#000000">ErrorHandler.getInstance</text>
</a>
</g>
</g>
<!-- Node1&#45;&gt;Node2 -->
<g id="edge1" class="edge">
<title>Node1&#45;&gt;Node2</title>
<path fill="none" stroke="#191970" d="M60.4432,-70.595C73.9927,-75.3301 91.0382,-81.0446 106.458,-85.5 114.1643,-87.7267 122.2638,-89.9154 130.3483,-92.0041"/>
<polygon fill="#191970" stroke="#191970" points="129.6212,-95.4305 140.175,-94.4983 131.3434,-88.6456 129.6212,-95.4305"/>
</g>
<!-- Node3 -->
<g id="node3" class="node">
<title>Node3</title>
<g id="a_node3"><a xlink:href="classlocomotor_1_1components_1_1logging_1_1_error_handler.html#abd00a9c37627740763cef91d76a77437" target="_top" xlink:title="locomotor.components.logging.\lErrorHandler.push">
<polygon fill="#ffffff" stroke="#000000" points="124.2314,-47.5 124.2314,-75.5 278.6543,-75.5 278.6543,-47.5 124.2314,-47.5"/>
<text text-anchor="start" x="132.2314" y="-63.5" font-family="Helvetica,sans-Serif" font-size="10.00" fill="#000000">locomotor.components.logging.</text>
<text text-anchor="middle" x="201.4429" y="-53.5" font-family="Helvetica,sans-Serif" font-size="10.00" fill="#000000">ErrorHandler.push</text>
</a>
</g>
</g>
<!-- Node1&#45;&gt;Node3 -->
<g id="edge2" class="edge">
<title>Node1&#45;&gt;Node3</title>
<path fill="none" stroke="#191970" d="M70.4787,-61.5C83.3769,-61.5 98.6081,-61.5 114.0374,-61.5"/>
<polygon fill="#191970" stroke="#191970" points="114.1827,-65.0001 124.1827,-61.5 114.1827,-58.0001 114.1827,-65.0001"/>
</g>
<!-- Node5 -->
<g id="node5" class="node">
<title>Node5</title>
<g id="a_node5"><a xlink:href="classlocomotor_1_1core_1_1_password_storage.html#a94489a4402c7c9e62b25fd69c050b4f2" target="_top" xlink:title="locomotor.core.PasswordStorage.verify\lPassword">
<polygon fill="#ffffff" stroke="#000000" points="106.458,-.5 106.458,-28.5 296.4277,-28.5 296.4277,-.5 106.458,-.5"/>
<text text-anchor="start" x="114.458" y="-16.5" font-family="Helvetica,sans-Serif" font-size="10.00" fill="#000000">locomotor.core.PasswordStorage.verify</text>
<text text-anchor="middle" x="201.4429" y="-6.5" font-family="Helvetica,sans-Serif" font-size="10.00" fill="#000000">Password</text>
</a>
</g>
</g>
<!-- Node1&#45;&gt;Node5 -->
<g id="edge4" class="edge">
<title>Node1&#45;&gt;Node5</title>
<path fill="none" stroke="#191970" d="M61.8244,-52.4597C75.1599,-48.0425 91.596,-42.7722 106.458,-38.5 115.1613,-35.9981 124.353,-33.4988 133.4534,-31.1092"/>
<polygon fill="#191970" stroke="#191970" points="134.4642,-34.463 143.2651,-28.5644 132.7067,-27.6872 134.4642,-34.463"/>
</g>
<!-- Node4 -->
<g id="node4" class="node">
<title>Node4</title>
<g id="a_node4"><a xlink:href="classlocomotor_1_1components_1_1logging_1_1_error_context.html#afcf30b71bfc65c74878c7ab77c951842" target="_top" xlink:title="locomotor.components.logging.\lErrorContext.push">
<polygon fill="#ffffff" stroke="#000000" points="332.4277,-47.5 332.4277,-75.5 486.8506,-75.5 486.8506,-47.5 332.4277,-47.5"/>
<text text-anchor="start" x="340.4277" y="-63.5" font-family="Helvetica,sans-Serif" font-size="10.00" fill="#000000">locomotor.components.logging.</text>
<text text-anchor="middle" x="409.6392" y="-53.5" font-family="Helvetica,sans-Serif" font-size="10.00" fill="#000000">ErrorContext.push</text>
</a>
</g>
</g>
<!-- Node3&#45;&gt;Node4 -->
<g id="edge3" class="edge">
<title>Node3&#45;&gt;Node4</title>
<path fill="none" stroke="#191970" d="M278.6716,-61.5C292.733,-61.5 307.4964,-61.5 321.8368,-61.5"/>
<polygon fill="#191970" stroke="#191970" points="322.188,-65.0001 332.188,-61.5 322.1879,-58.0001 322.188,-65.0001"/>
</g>
</g>
</svg>
