<?xml version="1.0" encoding="UTF-8" standalone="no"?>
<!DOCTYPE svg PUBLIC "-//W3C//DTD SVG 1.1//EN"
 "http://www.w3.org/Graphics/SVG/1.1/DTD/svg11.dtd">
<!-- Generated by graphviz version 2.40.1 (20161225.0304)
 -->
<!-- Title: fromJSON Pages: 1 -->
<svg width="242pt" height="64pt"
 viewBox="0.00 0.00 241.56 64.00" xmlns="http://www.w3.org/2000/svg" xmlns:xlink="http://www.w3.org/1999/xlink">
<g id="graph0" class="graph" transform="scale(1 1) rotate(0) translate(4 60)">
<title>fromJSON</title>
<polygon fill="#ffffff" stroke="transparent" points="-4,4 -4,-60 237.5596,-60 237.5596,4 -4,4"/>
<!-- Node1 -->
<g id="node1" class="node">
<title>Node1</title>
<polygon fill="#bfbfbf" stroke="#000000" points="0,-19.5 0,-37.5 62.6699,-37.5 62.6699,-19.5 0,-19.5"/>
<text text-anchor="middle" x="31.335" y="-25.5" font-family="Helvetica,sans-Serif" font-size="10.00" fill="#000000">fromJSON</text>
</g>
<!-- Node1&#45;&gt;Node1 -->
<g id="edge2" class="edge">
<title>Node1&#45;&gt;Node1</title>
<path fill="none" stroke="#191970" d="M17.3288,-37.5134C9.592,-46.322 14.2607,-56 31.335,-56 42.0063,-56 47.8318,-52.2195 48.8114,-47.2336"/>
<polygon fill="#191970" stroke="#191970" points="51.9998,-45.7544 45.3412,-37.5134 45.4073,-48.1081 51.9998,-45.7544"/>
</g>
<!-- Node2 -->
<g id="node2" class="node">
<title>Node2</title>
<g id="a_node2"><a xlink:href="classlocomotor_1_1components_1_1types_1_1_c_tree.html#af0e7a198496b1627d0ff15ce0e6de1f2" target="_top" xlink:title="CTree">
<polygon fill="#ffffff" stroke="#000000" points="190.1426,-19.5 190.1426,-37.5 233.5596,-37.5 233.5596,-19.5 190.1426,-19.5"/>
<text text-anchor="middle" x="211.8511" y="-25.5" font-family="Helvetica,sans-Serif" font-size="10.00" fill="#000000">CTree</text>
</a>
</g>
</g>
<!-- Node1&#45;&gt;Node2 -->
<g id="edge1" class="edge">
<title>Node1&#45;&gt;Node2</title>
<path fill="none" stroke="#191970" d="M62.7785,-28.5C95.6833,-28.5 147.0601,-28.5 180.085,-28.5"/>
<polygon fill="#191970" stroke="#191970" points="180.1159,-32.0001 190.1159,-28.5 180.1159,-25.0001 180.1159,-32.0001"/>
</g>
<!-- Node3 -->
<g id="node3" class="node">
<title>Node3</title>
<g id="a_node3"><a xlink:href="classlocomotor_1_1components_1_1types_1_1_c_tree.html#a74382cb3a3153edc32f1cfed8c4ee364" target="_top" xlink:title="addChild">
<polygon fill="#ffffff" stroke="#000000" points="98.6699,-.5 98.6699,-18.5 154.1426,-18.5 154.1426,-.5 98.6699,-.5"/>
<text text-anchor="middle" x="126.4063" y="-6.5" font-family="Helvetica,sans-Serif" font-size="10.00" fill="#000000">addChild</text>
</a>
</g>
</g>
<!-- Node1&#45;&gt;Node3 -->
<g id="edge3" class="edge">
<title>Node1&#45;&gt;Node3</title>
<path fill="none" stroke="#191970" d="M62.7283,-22.226C71.0475,-20.5635 80.1151,-18.7513 88.7307,-17.0295"/>
<polygon fill="#191970" stroke="#191970" points="89.445,-20.456 98.5651,-15.064 88.0731,-13.5917 89.445,-20.456"/>
</g>
<!-- Node3&#45;&gt;Node2 -->
<g id="edge4" class="edge">
<title>Node3&#45;&gt;Node2</title>
<path fill="none" stroke="#191970" d="M154.3841,-15.7213C162.6193,-17.5525 171.6876,-19.569 180.139,-21.4483"/>
<polygon fill="#191970" stroke="#191970" points="179.5231,-24.8968 190.0444,-23.651 181.0426,-18.0637 179.5231,-24.8968"/>
</g>
</g>
</svg>
