<?xml version="1.0" encoding="UTF-8" standalone="no"?>
<!DOCTYPE svg PUBLIC "-//W3C//DTD SVG 1.1//EN"
 "http://www.w3.org/Graphics/SVG/1.1/DTD/svg11.dtd">
<!-- Generated by graphviz version 2.40.1 (20161225.0304)
 -->
<!-- Title: compare Pages: 1 -->
<svg width="374pt" height="37pt"
 viewBox="0.00 0.00 373.70 37.00" xmlns="http://www.w3.org/2000/svg" xmlns:xlink="http://www.w3.org/1999/xlink">
<g id="graph0" class="graph" transform="scale(1 1) rotate(0) translate(4 33)">
<title>compare</title>
<polygon fill="#ffffff" stroke="transparent" points="-4,4 -4,-33 369.7031,-33 369.7031,4 -4,4"/>
<!-- Node1 -->
<g id="node1" class="node">
<title>Node1</title>
<polygon fill="#bfbfbf" stroke="#000000" points="0,-5.5 0,-23.5 54.9063,-23.5 54.9063,-5.5 0,-5.5"/>
<text text-anchor="middle" x="27.4531" y="-11.5" font-family="Helvetica,sans-Serif" font-size="10.00" fill="#000000">compare</text>
</g>
<!-- Node2 -->
<g id="node2" class="node">
<title>Node2</title>
<g id="a_node2"><a xlink:href="classlocomotor_1_1components_1_1_compare.html#aa4a02ec72dfa0f8825c137d2e1149428" target="_top" xlink:title="locomotor.components.Compare.boolean\lValue">
<polygon fill="#ffffff" stroke="#000000" points="90.9063,-.5 90.9063,-28.5 289.7969,-28.5 289.7969,-.5 90.9063,-.5"/>
<text text-anchor="start" x="98.9063" y="-16.5" font-family="Helvetica,sans-Serif" font-size="10.00" fill="#000000">locomotor.components.Compare.boolean</text>
<text text-anchor="middle" x="190.3516" y="-6.5" font-family="Helvetica,sans-Serif" font-size="10.00" fill="#000000">Value</text>
</a>
</g>
</g>
<!-- Node1&#45;&gt;Node2 -->
<g id="edge1" class="edge">
<title>Node1&#45;&gt;Node2</title>
<path fill="none" stroke="#191970" d="M55.0866,-14.5C62.6193,-14.5 71.2636,-14.5 80.4613,-14.5"/>
<polygon fill="#191970" stroke="#191970" points="80.6325,-18.0001 90.6324,-14.5 80.6324,-11.0001 80.6325,-18.0001"/>
</g>
<!-- Node3 -->
<g id="node3" class="node">
<title>Node3</title>
<g id="a_node3"><a xlink:href="classlocomotor_1_1components_1_1types_1_1_c_boolean.html#a9eac04fa64318139aa527377b2e03cc4" target="_top" xlink:title="value">
<polygon fill="#ffffff" stroke="#000000" points="325.7969,-5.5 325.7969,-23.5 365.7031,-23.5 365.7031,-5.5 325.7969,-5.5"/>
<text text-anchor="middle" x="345.75" y="-11.5" font-family="Helvetica,sans-Serif" font-size="10.00" fill="#000000">value</text>
</a>
</g>
</g>
<!-- Node2&#45;&gt;Node3 -->
<g id="edge2" class="edge">
<title>Node2&#45;&gt;Node3</title>
<path fill="none" stroke="#191970" d="M290.0865,-14.5C299.1659,-14.5 307.8076,-14.5 315.4571,-14.5"/>
<polygon fill="#191970" stroke="#191970" points="315.5527,-18.0001 325.5527,-14.5 315.5526,-11.0001 315.5527,-18.0001"/>
</g>
</g>
</svg>
