<?xml version="1.0" encoding="UTF-8" standalone="no"?>
<!DOCTYPE svg PUBLIC "-//W3C//DTD SVG 1.1//EN"
 "http://www.w3.org/Graphics/SVG/1.1/DTD/svg11.dtd">
<!-- Generated by graphviz version 2.40.1 (20161225.0304)
 -->
<!-- Title: getItem Pages: 1 -->
<svg width="417pt" height="37pt"
 viewBox="0.00 0.00 417.03 37.00" xmlns="http://www.w3.org/2000/svg" xmlns:xlink="http://www.w3.org/1999/xlink">
<g id="graph0" class="graph" transform="scale(1 1) rotate(0) translate(4 33)">
<title>getItem</title>
<polygon fill="#ffffff" stroke="transparent" points="-4,4 -4,-33 413.0332,-33 413.0332,4 -4,4"/>
<!-- Node1 -->
<g id="node1" class="node">
<title>Node1</title>
<polygon fill="#bfbfbf" stroke="#000000" points="0,-5.5 0,-23.5 49.3496,-23.5 49.3496,-5.5 0,-5.5"/>
<text text-anchor="middle" x="24.6748" y="-11.5" font-family="Helvetica,sans-Serif" font-size="10.00" fill="#000000">getItem</text>
</g>
<!-- Node2 -->
<g id="node2" class="node">
<title>Node2</title>
<g id="a_node2"><a xlink:href="classlocomotor_1_1components_1_1network_1_1_a_p_i.html#a547463fbc7fb7b485886f0917e2c0b78" target="_top" xlink:title="locomotor.components.network.\lAPI.createHooks">
<polygon fill="#ffffff" stroke="#000000" points="85.3496,-.5 85.3496,-28.5 242.5361,-28.5 242.5361,-.5 85.3496,-.5"/>
<text text-anchor="start" x="93.3496" y="-16.5" font-family="Helvetica,sans-Serif" font-size="10.00" fill="#000000">locomotor.components.network.</text>
<text text-anchor="middle" x="163.9429" y="-6.5" font-family="Helvetica,sans-Serif" font-size="10.00" fill="#000000">API.createHooks</text>
</a>
</g>
</g>
<!-- Node1&#45;&gt;Node2 -->
<g id="edge1" class="edge">
<title>Node1&#45;&gt;Node2</title>
<path fill="none" stroke="#191970" d="M59.7833,-14.5C67.6712,-14.5 76.3502,-14.5 85.2297,-14.5"/>
<polygon fill="#191970" stroke="#191970" points="59.5732,-11.0001 49.5731,-14.5 59.5731,-18.0001 59.5732,-11.0001"/>
</g>
<!-- Node3 -->
<g id="node3" class="node">
<title>Node3</title>
<g id="a_node3"><a xlink:href="classlocomotor_1_1core_1_1_main.html#a8b260eecbaabcef8473fd87ada040682" target="_top" xlink:title="locomotor.core.Main.main">
<polygon fill="#ffffff" stroke="#000000" points="278.5361,-5.5 278.5361,-23.5 409.0332,-23.5 409.0332,-5.5 278.5361,-5.5"/>
<text text-anchor="middle" x="343.7847" y="-11.5" font-family="Helvetica,sans-Serif" font-size="10.00" fill="#000000">locomotor.core.Main.main</text>
</a>
</g>
</g>
<!-- Node2&#45;&gt;Node3 -->
<g id="edge2" class="edge">
<title>Node2&#45;&gt;Node3</title>
<path fill="none" stroke="#191970" d="M252.7359,-14.5C261.4242,-14.5 270.1265,-14.5 278.5184,-14.5"/>
<polygon fill="#191970" stroke="#191970" points="252.5625,-11.0001 242.5625,-14.5 252.5624,-18.0001 252.5625,-11.0001"/>
</g>
</g>
</svg>
