<?xml version="1.0" encoding="UTF-8" standalone="no"?>
<!DOCTYPE svg PUBLIC "-//W3C//DTD SVG 1.1//EN"
 "http://www.w3.org/Graphics/SVG/1.1/DTD/svg11.dtd">
<!-- Generated by graphviz version 2.40.1 (20161225.0304)
 -->
<!-- Title: verifyTokenSignature Pages: 1 -->
<svg width="582pt" height="37pt"
 viewBox="0.00 0.00 581.88 37.00" xmlns="http://www.w3.org/2000/svg" xmlns:xlink="http://www.w3.org/1999/xlink">
<g id="graph0" class="graph" transform="scale(1 1) rotate(0) translate(4 33)">
<title>verifyTokenSignature</title>
<polygon fill="#ffffff" stroke="transparent" points="-4,4 -4,-33 577.875,-33 577.875,4 -4,4"/>
<!-- Node1 -->
<g id="node1" class="node">
<title>Node1</title>
<polygon fill="#bfbfbf" stroke="#000000" points="0,-5.5 0,-23.5 109.3838,-23.5 109.3838,-5.5 0,-5.5"/>
<text text-anchor="middle" x="54.6919" y="-11.5" font-family="Helvetica,sans-Serif" font-size="10.00" fill="#000000">verifyTokenSignature</text>
</g>
<!-- Node2 -->
<g id="node2" class="node">
<title>Node2</title>
<g id="a_node2"><a xlink:href="classlocomotor_1_1core_1_1jwt_1_1_j_w_t_h.html#a5bfe06ebb1f388e7fb4fb42c6c2a3875" target="_top" xlink:title="checkToken">
<polygon fill="#ffffff" stroke="#000000" points="145.3838,-5.5 145.3838,-23.5 214.1914,-23.5 214.1914,-5.5 145.3838,-5.5"/>
<text text-anchor="middle" x="179.7876" y="-11.5" font-family="Helvetica,sans-Serif" font-size="10.00" fill="#000000">checkToken</text>
</a>
</g>
</g>
<!-- Node1&#45;&gt;Node2 -->
<g id="edge1" class="edge">
<title>Node1&#45;&gt;Node2</title>
<path fill="none" stroke="#191970" d="M119.8037,-14.5C128.5379,-14.5 137.2053,-14.5 145.1232,-14.5"/>
<polygon fill="#191970" stroke="#191970" points="119.5607,-11.0001 109.5607,-14.5 119.5607,-18.0001 119.5607,-11.0001"/>
</g>
<!-- Node3 -->
<g id="node3" class="node">
<title>Node3</title>
<g id="a_node3"><a xlink:href="classlocomotor_1_1components_1_1network_1_1_a_p_i.html#a547463fbc7fb7b485886f0917e2c0b78" target="_top" xlink:title="locomotor.components.network.\lAPI.createHooks">
<polygon fill="#ffffff" stroke="#000000" points="250.1914,-.5 250.1914,-28.5 407.3779,-28.5 407.3779,-.5 250.1914,-.5"/>
<text text-anchor="start" x="258.1914" y="-16.5" font-family="Helvetica,sans-Serif" font-size="10.00" fill="#000000">locomotor.components.network.</text>
<text text-anchor="middle" x="328.7847" y="-6.5" font-family="Helvetica,sans-Serif" font-size="10.00" fill="#000000">API.createHooks</text>
</a>
</g>
</g>
<!-- Node2&#45;&gt;Node3 -->
<g id="edge2" class="edge">
<title>Node2&#45;&gt;Node3</title>
<path fill="none" stroke="#191970" d="M224.566,-14.5C232.6138,-14.5 241.215,-14.5 249.896,-14.5"/>
<polygon fill="#191970" stroke="#191970" points="224.3451,-11.0001 214.345,-14.5 224.345,-18.0001 224.3451,-11.0001"/>
</g>
<!-- Node4 -->
<g id="node4" class="node">
<title>Node4</title>
<g id="a_node4"><a xlink:href="classlocomotor_1_1core_1_1_main.html#a8b260eecbaabcef8473fd87ada040682" target="_top" xlink:title="locomotor.core.Main.main">
<polygon fill="#ffffff" stroke="#000000" points="443.3779,-5.5 443.3779,-23.5 573.875,-23.5 573.875,-5.5 443.3779,-5.5"/>
<text text-anchor="middle" x="508.6265" y="-11.5" font-family="Helvetica,sans-Serif" font-size="10.00" fill="#000000">locomotor.core.Main.main</text>
</a>
</g>
</g>
<!-- Node3&#45;&gt;Node4 -->
<g id="edge3" class="edge">
<title>Node3&#45;&gt;Node4</title>
<path fill="none" stroke="#191970" d="M417.5777,-14.5C426.266,-14.5 434.9683,-14.5 443.3602,-14.5"/>
<polygon fill="#191970" stroke="#191970" points="417.4043,-11.0001 407.4043,-14.5 417.4042,-18.0001 417.4043,-11.0001"/>
</g>
</g>
</svg>
