<?xml version="1.0" encoding="UTF-8" standalone="no"?>
<!DOCTYPE svg PUBLIC "-//W3C//DTD SVG 1.1//EN"
 "http://www.w3.org/Graphics/SVG/1.1/DTD/svg11.dtd">
<!-- Generated by graphviz version 2.40.1 (20161225.0304)
 -->
<!-- Title: fromJSON Pages: 1 -->
<svg width="242pt" height="27pt"
 viewBox="0.00 0.00 242.50 27.00" xmlns="http://www.w3.org/2000/svg" xmlns:xlink="http://www.w3.org/1999/xlink">
<g id="graph0" class="graph" transform="scale(1 1) rotate(0) translate(4 23)">
<title>fromJSON</title>
<polygon fill="#ffffff" stroke="transparent" points="-4,4 -4,-23 238.4971,-23 238.4971,4 -4,4"/>
<!-- Node1 -->
<g id="node1" class="node">
<title>Node1</title>
<polygon fill="#bfbfbf" stroke="#000000" points="0,-.5 0,-18.5 62.6699,-18.5 62.6699,-.5 0,-.5"/>
<text text-anchor="middle" x="31.335" y="-6.5" font-family="Helvetica,sans-Serif" font-size="10.00" fill="#000000">fromJSON</text>
</g>
<!-- Node2 -->
<g id="node2" class="node">
<title>Node2</title>
<g id="a_node2"><a xlink:href="classlocomotor_1_1components_1_1types_1_1_c_boolean.html#a04219e3dc4a138fa88ee6876fb62eebc" target="_top" xlink:title="CBoolean">
<polygon fill="#ffffff" stroke="#000000" points="98.6699,-.5 98.6699,-18.5 158.5908,-18.5 158.5908,-.5 98.6699,-.5"/>
<text text-anchor="middle" x="128.6304" y="-6.5" font-family="Helvetica,sans-Serif" font-size="10.00" fill="#000000">CBoolean</text>
</a>
</g>
</g>
<!-- Node1&#45;&gt;Node2 -->
<g id="edge1" class="edge">
<title>Node1&#45;&gt;Node2</title>
<path fill="none" stroke="#191970" d="M62.924,-9.5C71.0503,-9.5 79.9038,-9.5 88.4035,-9.5"/>
<polygon fill="#191970" stroke="#191970" points="88.5233,-13.0001 98.5232,-9.5 88.5232,-6.0001 88.5233,-13.0001"/>
</g>
<!-- Node3 -->
<g id="node3" class="node">
<title>Node3</title>
<g id="a_node3"><a xlink:href="classlocomotor_1_1components_1_1types_1_1_c_boolean.html#a9eac04fa64318139aa527377b2e03cc4" target="_top" xlink:title="value">
<polygon fill="#ffffff" stroke="#000000" points="194.5908,-.5 194.5908,-18.5 234.4971,-18.5 234.4971,-.5 194.5908,-.5"/>
<text text-anchor="middle" x="214.5439" y="-6.5" font-family="Helvetica,sans-Serif" font-size="10.00" fill="#000000">value</text>
</a>
</g>
</g>
<!-- Node2&#45;&gt;Node3 -->
<g id="edge2" class="edge">
<title>Node2&#45;&gt;Node3</title>
<path fill="none" stroke="#191970" d="M158.6788,-9.5C166.9804,-9.5 175.9912,-9.5 184.3037,-9.5"/>
<polygon fill="#191970" stroke="#191970" points="184.3536,-13.0001 194.3535,-9.5 184.3535,-6.0001 184.3536,-13.0001"/>
</g>
</g>
</svg>
