<?xml version="1.0" encoding="UTF-8" standalone="no"?>
<!DOCTYPE svg PUBLIC "-//W3C//DTD SVG 1.1//EN"
 "http://www.w3.org/Graphics/SVG/1.1/DTD/svg11.dtd">
<!-- Generated by graphviz version 2.40.1 (20161225.0304)
 -->
<!-- Title: checkToken Pages: 1 -->
<svg width="636pt" height="148pt"
 viewBox="0.00 0.00 635.83 148.00" xmlns="http://www.w3.org/2000/svg" xmlns:xlink="http://www.w3.org/1999/xlink">
<g id="graph0" class="graph" transform="scale(1 1) rotate(0) translate(4 144)">
<title>checkToken</title>
<polygon fill="#ffffff" stroke="transparent" points="-4,4 -4,-144 631.8301,-144 631.8301,4 -4,4"/>
<!-- Node1 -->
<g id="node1" class="node">
<title>Node1</title>
<polygon fill="#bfbfbf" stroke="#000000" points="0,-67.5 0,-85.5 68.8076,-85.5 68.8076,-67.5 0,-67.5"/>
<text text-anchor="middle" x="34.4038" y="-73.5" font-family="Helvetica,sans-Serif" font-size="10.00" fill="#000000">checkToken</text>
</g>
<!-- Node2 -->
<g id="node2" class="node">
<title>Node2</title>
<g id="a_node2"><a xlink:href="classlocomotor_1_1components_1_1logging_1_1_error_handler.html#a75e8f6535bdb8db9a7d570e1b839af47" target="_top" xlink:title="locomotor.components.logging.\lErrorHandler.getInstance">
<polygon fill="#ffffff" stroke="#000000" points="282.9844,-111.5 282.9844,-139.5 437.4072,-139.5 437.4072,-111.5 282.9844,-111.5"/>
<text text-anchor="start" x="290.9844" y="-127.5" font-family="Helvetica,sans-Serif" font-size="10.00" fill="#000000">locomotor.components.logging.</text>
<text text-anchor="middle" x="360.1958" y="-117.5" font-family="Helvetica,sans-Serif" font-size="10.00" fill="#000000">ErrorHandler.getInstance</text>
</a>
</g>
</g>
<!-- Node1&#45;&gt;Node2 -->
<g id="edge1" class="edge">
<title>Node1&#45;&gt;Node2</title>
<path fill="none" stroke="#191970" d="M47.1358,-85.689C60.6842,-94.8914 83.1155,-108.5201 104.8076,-114.5 159.2429,-129.5062 222.654,-132.3132 272.6723,-131.3404"/>
<polygon fill="#191970" stroke="#191970" points="272.9023,-134.8358 282.8121,-131.0882 272.7282,-127.838 272.9023,-134.8358"/>
</g>
<!-- Node3 -->
<g id="node3" class="node">
<title>Node3</title>
<g id="a_node3"><a xlink:href="classlocomotor_1_1components_1_1logging_1_1_error_handler.html#abd00a9c37627740763cef91d76a77437" target="_top" xlink:title="locomotor.components.logging.\lErrorHandler.push">
<polygon fill="#ffffff" stroke="#000000" points="282.9844,-57.5 282.9844,-85.5 437.4072,-85.5 437.4072,-57.5 282.9844,-57.5"/>
<text text-anchor="start" x="290.9844" y="-73.5" font-family="Helvetica,sans-Serif" font-size="10.00" fill="#000000">locomotor.components.logging.</text>
<text text-anchor="middle" x="360.1958" y="-63.5" font-family="Helvetica,sans-Serif" font-size="10.00" fill="#000000">ErrorHandler.push</text>
</a>
</g>
</g>
<!-- Node1&#45;&gt;Node3 -->
<g id="edge2" class="edge">
<title>Node1&#45;&gt;Node3</title>
<path fill="none" stroke="#191970" d="M68.9608,-75.9696C117.0148,-75.2322 205.6479,-73.8719 272.5628,-72.8449"/>
<polygon fill="#191970" stroke="#191970" points="272.7428,-76.3427 282.6879,-72.6895 272.6353,-69.3435 272.7428,-76.3427"/>
</g>
<!-- Node5 -->
<g id="node5" class="node">
<title>Node5</title>
<g id="a_node5"><a xlink:href="classlocomotor_1_1core_1_1jwt_1_1_j_w_t_h.html#a9666df772d67ab0c2213cdb4a528549b" target="_top" xlink:title="verifyTokenSignature">
<polygon fill="#ffffff" stroke="#000000" points="121.2041,-86.5 121.2041,-104.5 230.5879,-104.5 230.5879,-86.5 121.2041,-86.5"/>
<text text-anchor="middle" x="175.896" y="-92.5" font-family="Helvetica,sans-Serif" font-size="10.00" fill="#000000">verifyTokenSignature</text>
</a>
</g>
</g>
<!-- Node1&#45;&gt;Node5 -->
<g id="edge4" class="edge">
<title>Node1&#45;&gt;Node5</title>
<path fill="none" stroke="#191970" d="M69.0167,-81.1479C81.7131,-82.8528 96.532,-84.8428 111.0202,-86.7883"/>
<polygon fill="#191970" stroke="#191970" points="110.5907,-90.2619 120.9675,-88.124 111.5223,-83.3242 110.5907,-90.2619"/>
</g>
<!-- Node6 -->
<g id="node6" class="node">
<title>Node6</title>
<g id="a_node6"><a xlink:href="enumlocomotor_1_1core_1_1_accreditation_level.html#a9ba37c7260408517fd4e4c0196cf4a28" target="_top" xlink:title="locomotor.core.Accreditation\lLevel.valueOf">
<polygon fill="#ffffff" stroke="#000000" points="104.8076,-.5 104.8076,-28.5 246.9844,-28.5 246.9844,-.5 104.8076,-.5"/>
<text text-anchor="start" x="112.8076" y="-16.5" font-family="Helvetica,sans-Serif" font-size="10.00" fill="#000000">locomotor.core.Accreditation</text>
<text text-anchor="middle" x="175.896" y="-6.5" font-family="Helvetica,sans-Serif" font-size="10.00" fill="#000000">Level.valueOf</text>
</a>
</g>
</g>
<!-- Node1&#45;&gt;Node6 -->
<g id="edge7" class="edge">
<title>Node1&#45;&gt;Node6</title>
<path fill="none" stroke="#191970" d="M53.1108,-67.4139C67.23,-60.6339 87.1258,-51.2446 104.8076,-43.5 113.2359,-39.8085 122.2878,-35.9991 131.0142,-32.4039"/>
<polygon fill="#191970" stroke="#191970" points="132.3792,-35.6271 140.3105,-28.6025 129.7297,-29.1479 132.3792,-35.6271"/>
</g>
<!-- Node4 -->
<g id="node4" class="node">
<title>Node4</title>
<g id="a_node4"><a xlink:href="classlocomotor_1_1components_1_1logging_1_1_error_context.html#afcf30b71bfc65c74878c7ab77c951842" target="_top" xlink:title="locomotor.components.logging.\lErrorContext.push">
<polygon fill="#ffffff" stroke="#000000" points="473.4072,-57.5 473.4072,-85.5 627.8301,-85.5 627.8301,-57.5 473.4072,-57.5"/>
<text text-anchor="start" x="481.4072" y="-73.5" font-family="Helvetica,sans-Serif" font-size="10.00" fill="#000000">locomotor.components.logging.</text>
<text text-anchor="middle" x="550.6187" y="-63.5" font-family="Helvetica,sans-Serif" font-size="10.00" fill="#000000">ErrorContext.push</text>
</a>
</g>
</g>
<!-- Node3&#45;&gt;Node4 -->
<g id="edge3" class="edge">
<title>Node3&#45;&gt;Node4</title>
<path fill="none" stroke="#191970" d="M437.6481,-71.5C445.9933,-71.5 454.5272,-71.5 462.9811,-71.5"/>
<polygon fill="#191970" stroke="#191970" points="463.2351,-75.0001 473.235,-71.5 463.235,-68.0001 463.2351,-75.0001"/>
</g>
<!-- Node5&#45;&gt;Node2 -->
<g id="edge5" class="edge">
<title>Node5&#45;&gt;Node2</title>
<path fill="none" stroke="#191970" d="M230.693,-104.4198C243.9696,-106.5809 258.4914,-108.9447 272.8569,-111.2831"/>
<polygon fill="#191970" stroke="#191970" points="272.3276,-114.743 282.76,-112.8951 273.4523,-107.8339 272.3276,-114.743"/>
</g>
<!-- Node5&#45;&gt;Node3 -->
<g id="edge6" class="edge">
<title>Node5&#45;&gt;Node3</title>
<path fill="none" stroke="#191970" d="M230.693,-88.3642C243.8419,-86.6519 258.2123,-84.7806 272.4425,-82.9275"/>
<polygon fill="#191970" stroke="#191970" points="273.2957,-86.346 282.76,-81.5839 272.3917,-79.4046 273.2957,-86.346"/>
</g>
</g>
</svg>
