<?xml version="1.0" encoding="UTF-8" standalone="no"?>
<!DOCTYPE svg PUBLIC "-//W3C//DTD SVG 1.1//EN"
 "http://www.w3.org/Graphics/SVG/1.1/DTD/svg11.dtd">
<!-- Generated by graphviz version 2.40.1 (20161225.0304)
 -->
<!-- Title: CriteriaModel Pages: 1 -->
<svg width="572pt" height="205pt"
 viewBox="0.00 0.00 571.85 205.00" xmlns="http://www.w3.org/2000/svg" xmlns:xlink="http://www.w3.org/1999/xlink">
<g id="graph0" class="graph" transform="scale(1 1) rotate(0) translate(4 201)">
<title>CriteriaModel</title>
<polygon fill="#ffffff" stroke="transparent" points="-4,4 -4,-201 567.8525,-201 567.8525,4 -4,4"/>
<!-- Node1 -->
<g id="node1" class="node">
<title>Node1</title>
<polygon fill="#bfbfbf" stroke="#000000" points="488.3896,-102.5 488.3896,-120.5 563.8525,-120.5 563.8525,-102.5 488.3896,-102.5"/>
<text text-anchor="middle" x="526.1211" y="-108.5" font-family="Helvetica,sans-Serif" font-size="10.00" fill="#000000">CriteriaModel</text>
</g>
<!-- Node2 -->
<g id="node2" class="node">
<title>Node2</title>
<g id="a_node2"><a xlink:href="enumlocomotor_1_1components_1_1types_1_1_c_enum_universe_type.html" target="_top" xlink:title="CEnumUniverseType">
<polygon fill="#ffffff" stroke="#000000" points="274.0801,-166.5 274.0801,-184.5 384.5674,-184.5 384.5674,-166.5 274.0801,-166.5"/>
<text text-anchor="middle" x="329.3237" y="-172.5" font-family="Helvetica,sans-Serif" font-size="10.00" fill="#000000">CEnumUniverseType</text>
</a>
</g>
</g>
<!-- Node2&#45;&gt;Node1 -->
<g id="edge1" class="edge">
<title>Node2&#45;&gt;Node1</title>
<path fill="none" stroke="#9a32cd" stroke-dasharray="5,2" d="M380.3811,-164.0144C407.4758,-157.3539 441.127,-148.1757 470.3896,-137.5 483.4288,-132.743 497.5967,-126.1126 508.3845,-120.7382"/>
<polygon fill="#9a32cd" stroke="#9a32cd" points="379.2382,-160.6898 370.3406,-166.4417 380.8831,-167.4938 379.2382,-160.6898"/>
<text text-anchor="middle" x="436.4785" y="-159.5" font-family="Helvetica,sans-Serif" font-size="10.00" fill="#000000"> _universeType</text>
</g>
<!-- Node3 -->
<g id="node3" class="node">
<title>Node3</title>
<polygon fill="#ffffff" stroke="#bfbfbf" points="0,-168.5 0,-196.5 210.2871,-196.5 210.2871,-168.5 0,-168.5"/>
<text text-anchor="start" x="8" y="-184.5" font-family="Helvetica,sans-Serif" font-size="10.00" fill="#000000">Map&lt; Integer, locomotor.components.types.</text>
<text text-anchor="middle" x="105.1436" y="-174.5" font-family="Helvetica,sans-Serif" font-size="10.00" fill="#000000">CEnumUniverseType &gt;</text>
</g>
<!-- Node3&#45;&gt;Node2 -->
<g id="edge2" class="edge">
<title>Node3&#45;&gt;Node2</title>
<path fill="none" stroke="#9a32cd" stroke-dasharray="5,2" d="M220.3885,-178.9015C239.0244,-178.3196 257.5438,-177.7413 273.8842,-177.2311"/>
<polygon fill="#9a32cd" stroke="#9a32cd" points="220.2272,-175.4047 210.3413,-179.2152 220.4457,-182.4013 220.2272,-175.4047"/>
<text text-anchor="middle" x="242.1836" y="-180.5" font-family="Helvetica,sans-Serif" font-size="10.00" fill="#000000"> _map</text>
</g>
<!-- Node4 -->
<g id="node4" class="node">
<title>Node4</title>
<g id="a_node4"><a xlink:href="enumlocomotor_1_1components_1_1types_1_1_c_enum_user_type.html" target="_top" xlink:title="CEnumUserType">
<polygon fill="#ffffff" stroke="#000000" points="283.2524,-123.5 283.2524,-141.5 375.395,-141.5 375.395,-123.5 283.2524,-123.5"/>
<text text-anchor="middle" x="329.3237" y="-129.5" font-family="Helvetica,sans-Serif" font-size="10.00" fill="#000000">CEnumUserType</text>
</a>
</g>
</g>
<!-- Node4&#45;&gt;Node1 -->
<g id="edge3" class="edge">
<title>Node4&#45;&gt;Node1</title>
<path fill="none" stroke="#9a32cd" stroke-dasharray="5,2" d="M385.833,-126.47C418.6727,-122.9657 459.166,-118.6447 488.193,-115.5473"/>
<polygon fill="#9a32cd" stroke="#9a32cd" points="385.0361,-123.035 375.464,-127.5764 385.7789,-129.9955 385.0361,-123.035"/>
<text text-anchor="middle" x="436.4785" y="-125.5" font-family="Helvetica,sans-Serif" font-size="10.00" fill="#000000"> _userType</text>
</g>
<!-- Node5 -->
<g id="node5" class="node">
<title>Node5</title>
<polygon fill="#ffffff" stroke="#bfbfbf" points="0,-121.5 0,-149.5 210.2871,-149.5 210.2871,-121.5 0,-121.5"/>
<text text-anchor="start" x="8" y="-137.5" font-family="Helvetica,sans-Serif" font-size="10.00" fill="#000000">Map&lt; Integer, locomotor.components.types.</text>
<text text-anchor="middle" x="105.1436" y="-127.5" font-family="Helvetica,sans-Serif" font-size="10.00" fill="#000000">CEnumUserType &gt;</text>
</g>
<!-- Node5&#45;&gt;Node4 -->
<g id="edge4" class="edge">
<title>Node5&#45;&gt;Node4</title>
<path fill="none" stroke="#9a32cd" stroke-dasharray="5,2" d="M220.5527,-133.9556C242.7782,-133.6582 264.8295,-133.3631 283.2073,-133.1171"/>
<polygon fill="#9a32cd" stroke="#9a32cd" points="220.2936,-130.4586 210.3413,-134.0922 220.3873,-137.458 220.2936,-130.4586"/>
<text text-anchor="middle" x="242.1836" y="-135.5" font-family="Helvetica,sans-Serif" font-size="10.00" fill="#000000"> _map</text>
</g>
<!-- Node6 -->
<g id="node6" class="node">
<title>Node6</title>
<g id="a_node6"><a xlink:href="enumlocomotor_1_1components_1_1types_1_1_c_enum_item_type.html" target="_top" xlink:title="CEnumItemType">
<polygon fill="#ffffff" stroke="#000000" points="284.085,-84.5 284.085,-102.5 374.5625,-102.5 374.5625,-84.5 284.085,-84.5"/>
<text text-anchor="middle" x="329.3237" y="-90.5" font-family="Helvetica,sans-Serif" font-size="10.00" fill="#000000">CEnumItemType</text>
</a>
</g>
</g>
<!-- Node6&#45;&gt;Node1 -->
<g id="edge5" class="edge">
<title>Node6&#45;&gt;Node1</title>
<path fill="none" stroke="#9a32cd" stroke-dasharray="5,2" d="M384.7246,-92.2934C410.8245,-92.4335 442.3216,-93.6239 470.3896,-97.5 478.4932,-98.6191 487.1235,-100.4577 495.1116,-102.44"/>
<polygon fill="#9a32cd" stroke="#9a32cd" points="384.6382,-88.7934 374.6367,-92.2892 384.6353,-95.7934 384.6382,-88.7934"/>
<text text-anchor="middle" x="436.4785" y="-99.5" font-family="Helvetica,sans-Serif" font-size="10.00" fill="#000000"> _itemType</text>
</g>
<!-- Node7 -->
<g id="node7" class="node">
<title>Node7</title>
<polygon fill="#ffffff" stroke="#bfbfbf" points="0,-74.5 0,-102.5 210.2871,-102.5 210.2871,-74.5 0,-74.5"/>
<text text-anchor="start" x="8" y="-90.5" font-family="Helvetica,sans-Serif" font-size="10.00" fill="#000000">Map&lt; Integer, locomotor.components.types.</text>
<text text-anchor="middle" x="105.1436" y="-80.5" font-family="Helvetica,sans-Serif" font-size="10.00" fill="#000000">CEnumItemType &gt;</text>
</g>
<!-- Node7&#45;&gt;Node6 -->
<g id="edge6" class="edge">
<title>Node7&#45;&gt;Node6</title>
<path fill="none" stroke="#9a32cd" stroke-dasharray="5,2" d="M220.3845,-91.0703C243.0086,-91.5749 265.4615,-92.0756 284.0524,-92.4903"/>
<polygon fill="#9a32cd" stroke="#9a32cd" points="220.4169,-87.5702 210.3413,-90.8463 220.2608,-94.5685 220.4169,-87.5702"/>
<text text-anchor="middle" x="242.1836" y="-93.5" font-family="Helvetica,sans-Serif" font-size="10.00" fill="#000000"> _map</text>
</g>
<!-- Node8 -->
<g id="node8" class="node">
<title>Node8</title>
<g id="a_node8"><a xlink:href="interfacelocomotor_1_1components_1_1types_1_1_c_universe_type.html" target="_top" xlink:title="CUniverseType">
<polygon fill="#ffffff" stroke="#000000" points="287.1416,-37.5 287.1416,-55.5 371.5059,-55.5 371.5059,-37.5 287.1416,-37.5"/>
<text text-anchor="middle" x="329.3237" y="-43.5" font-family="Helvetica,sans-Serif" font-size="10.00" fill="#000000">CUniverseType</text>
</a>
</g>
</g>
<!-- Node8&#45;&gt;Node1 -->
<g id="edge7" class="edge">
<title>Node8&#45;&gt;Node1</title>
<path fill="none" stroke="#9a32cd" stroke-dasharray="5,2" d="M381.7621,-54.3753C408.8365,-59.4367 442.0456,-67.2172 470.3896,-78.5 486.0606,-84.7381 502.501,-94.9956 513.429,-102.4205"/>
<polygon fill="#9a32cd" stroke="#9a32cd" points="382.1706,-50.8926 371.7089,-52.5669 380.9313,-57.7821 382.1706,-50.8926"/>
<text text-anchor="middle" x="436.4785" y="-80.5" font-family="Helvetica,sans-Serif" font-size="10.00" fill="#000000"> _universe</text>
</g>
<!-- Node9 -->
<g id="node9" class="node">
<title>Node9</title>
<g id="a_node9"><a xlink:href="interfacelocomotor_1_1components_1_1types_1_1_c_type.html" target="_top" xlink:title="CType">
<polygon fill="#ffffff" stroke="#000000" points="82.6904,-37.5 82.6904,-55.5 127.5967,-55.5 127.5967,-37.5 82.6904,-37.5"/>
<text text-anchor="middle" x="105.1436" y="-43.5" font-family="Helvetica,sans-Serif" font-size="10.00" fill="#000000">CType</text>
</a>
</g>
</g>
<!-- Node9&#45;&gt;Node8 -->
<g id="edge8" class="edge">
<title>Node9&#45;&gt;Node8</title>
<path fill="none" stroke="#191970" d="M138.0221,-46.5C177.5222,-46.5 243.863,-46.5 287.1129,-46.5"/>
<polygon fill="#191970" stroke="#191970" points="137.8729,-43.0001 127.8728,-46.5 137.8728,-50.0001 137.8729,-43.0001"/>
</g>
<!-- Node10 -->
<g id="node10" class="node">
<title>Node10</title>
<g id="a_node10"><a xlink:href="interfacelocomotor_1_1components_1_1_j_s_o_n_displayable.html" target="_top" xlink:title="JSONDisplayable">
<polygon fill="#ffffff" stroke="#000000" points="57.9614,-.5 57.9614,-18.5 152.3257,-18.5 152.3257,-.5 57.9614,-.5"/>
<text text-anchor="middle" x="105.1436" y="-6.5" font-family="Helvetica,sans-Serif" font-size="10.00" fill="#000000">JSONDisplayable</text>
</a>
</g>
</g>
<!-- Node10&#45;&gt;Node8 -->
<g id="edge9" class="edge">
<title>Node10&#45;&gt;Node8</title>
<path fill="none" stroke="#191970" d="M162.5292,-18.9713C201.3755,-25.3827 251.8352,-33.7108 287.0368,-39.5207"/>
<polygon fill="#191970" stroke="#191970" points="162.849,-15.4768 152.4125,-17.3015 161.709,-22.3833 162.849,-15.4768"/>
</g>
</g>
</svg>
