<?xml version="1.0" encoding="UTF-8" standalone="no"?>
<!DOCTYPE svg PUBLIC "-//W3C//DTD SVG 1.1//EN"
 "http://www.w3.org/Graphics/SVG/1.1/DTD/svg11.dtd">
<!-- Generated by graphviz version 2.40.1 (20161225.0304)
 -->
<!-- Title: uniqueValue Pages: 1 -->
<svg width="261pt" height="131pt"
 viewBox="0.00 0.00 260.94 131.00" xmlns="http://www.w3.org/2000/svg" xmlns:xlink="http://www.w3.org/1999/xlink">
<g id="graph0" class="graph" transform="scale(1 1) rotate(0) translate(4 127)">
<title>uniqueValue</title>
<polygon fill="#ffffff" stroke="transparent" points="-4,4 -4,-127 256.9414,-127 256.9414,4 -4,4"/>
<!-- Node1 -->
<g id="node1" class="node">
<title>Node1</title>
<polygon fill="#bfbfbf" stroke="#000000" points="0,-52.5 0,-70.5 70.8682,-70.5 70.8682,-52.5 0,-52.5"/>
<text text-anchor="middle" x="35.4341" y="-58.5" font-family="Helvetica,sans-Serif" font-size="10.00" fill="#000000">uniqueValue</text>
</g>
<!-- Node2 -->
<g id="node2" class="node">
<title>Node2</title>
<g id="a_node2"><a xlink:href="classlocomotor_1_1components_1_1types_1_1_c_float.html#a871921d9d041c5c7993927dde6332e2c" target="_top" xlink:title="locomotor.components.types.\lCFloat.compare">
<polygon fill="#ffffff" stroke="#000000" points="106.8682,-94.5 106.8682,-122.5 252.9414,-122.5 252.9414,-94.5 106.8682,-94.5"/>
<text text-anchor="start" x="114.8682" y="-110.5" font-family="Helvetica,sans-Serif" font-size="10.00" fill="#000000">locomotor.components.types.</text>
<text text-anchor="middle" x="179.9048" y="-100.5" font-family="Helvetica,sans-Serif" font-size="10.00" fill="#000000">CFloat.compare</text>
</a>
</g>
</g>
<!-- Node1&#45;&gt;Node2 -->
<g id="edge1" class="edge">
<title>Node1&#45;&gt;Node2</title>
<path fill="none" stroke="#191970" d="M71.4324,-73.7432C82.7579,-77.5551 95.3215,-81.7426 106.8682,-85.5 115.8435,-88.4207 125.4583,-91.4904 134.6675,-94.4019"/>
<polygon fill="#191970" stroke="#191970" points="72.4493,-70.3925 61.8551,-70.5103 70.2105,-77.0248 72.4493,-70.3925"/>
</g>
<!-- Node3 -->
<g id="node3" class="node">
<title>Node3</title>
<g id="a_node3"><a xlink:href="classlocomotor_1_1components_1_1types_1_1_c_integer.html#a535607ef73128c96e7b4c3831a537c15" target="_top" xlink:title="locomotor.components.types.\lCInteger.compare">
<polygon fill="#ffffff" stroke="#000000" points="106.8682,-47.5 106.8682,-75.5 252.9414,-75.5 252.9414,-47.5 106.8682,-47.5"/>
<text text-anchor="start" x="114.8682" y="-63.5" font-family="Helvetica,sans-Serif" font-size="10.00" fill="#000000">locomotor.components.types.</text>
<text text-anchor="middle" x="179.9048" y="-53.5" font-family="Helvetica,sans-Serif" font-size="10.00" fill="#000000">CInteger.compare</text>
</a>
</g>
</g>
<!-- Node1&#45;&gt;Node3 -->
<g id="edge2" class="edge">
<title>Node1&#45;&gt;Node3</title>
<path fill="none" stroke="#191970" d="M81.1776,-61.5C89.3492,-61.5 98.0458,-61.5 106.7601,-61.5"/>
<polygon fill="#191970" stroke="#191970" points="81.146,-58.0001 71.1459,-61.5 81.1459,-65.0001 81.146,-58.0001"/>
</g>
<!-- Node4 -->
<g id="node4" class="node">
<title>Node4</title>
<g id="a_node4"><a xlink:href="classlocomotor_1_1components_1_1types_1_1_c_weighted_integer.html#acb085d655773a5014997582a57ae2ab2" target="_top" xlink:title="locomotor.components.types.\lCWeightedInteger.compare">
<polygon fill="#ffffff" stroke="#000000" points="106.8682,-.5 106.8682,-28.5 252.9414,-28.5 252.9414,-.5 106.8682,-.5"/>
<text text-anchor="start" x="114.8682" y="-16.5" font-family="Helvetica,sans-Serif" font-size="10.00" fill="#000000">locomotor.components.types.</text>
<text text-anchor="middle" x="179.9048" y="-6.5" font-family="Helvetica,sans-Serif" font-size="10.00" fill="#000000">CWeightedInteger.compare</text>
</a>
</g>
</g>
<!-- Node1&#45;&gt;Node4 -->
<g id="edge3" class="edge">
<title>Node1&#45;&gt;Node4</title>
<path fill="none" stroke="#191970" d="M73.0523,-49.2619C92.5733,-42.9111 116.5118,-35.1233 136.7789,-28.5299"/>
<polygon fill="#191970" stroke="#191970" points="71.7161,-46.0159 63.2895,-52.4379 73.8817,-52.6725 71.7161,-46.0159"/>
</g>
</g>
</svg>
