<?xml version="1.0" encoding="UTF-8" standalone="no"?>
<!DOCTYPE svg PUBLIC "-//W3C//DTD SVG 1.1//EN"
 "http://www.w3.org/Graphics/SVG/1.1/DTD/svg11.dtd">
<!-- Generated by graphviz version 2.40.1 (20161225.0304)
 -->
<!-- Title: CGraphTree Pages: 1 -->
<svg width="443pt" height="37pt"
 viewBox="0.00 0.00 443.36 37.00" xmlns="http://www.w3.org/2000/svg" xmlns:xlink="http://www.w3.org/1999/xlink">
<g id="graph0" class="graph" transform="scale(1 1) rotate(0) translate(4 33)">
<title>CGraphTree</title>
<polygon fill="#ffffff" stroke="transparent" points="-4,4 -4,-33 439.3564,-33 439.3564,4 -4,4"/>
<!-- Node1 -->
<g id="node1" class="node">
<title>Node1</title>
<polygon fill="#bfbfbf" stroke="#000000" points="0,-5.5 0,-23.5 71.21,-23.5 71.21,-5.5 0,-5.5"/>
<text text-anchor="middle" x="35.605" y="-11.5" font-family="Helvetica,sans-Serif" font-size="10.00" fill="#000000">CGraphTree</text>
</g>
<!-- Node2 -->
<g id="node2" class="node">
<title>Node2</title>
<g id="a_node2"><a xlink:href="classlocomotor_1_1components_1_1types_1_1_c_tree.html#aa4d32f3d6bb19d180861e5e8f1c4bec2" target="_top" xlink:title="locomotor.components.types.\lCTree.toSet">
<polygon fill="#ffffff" stroke="#000000" points="107.21,-.5 107.21,-28.5 253.2832,-28.5 253.2832,-.5 107.21,-.5"/>
<text text-anchor="start" x="115.21" y="-16.5" font-family="Helvetica,sans-Serif" font-size="10.00" fill="#000000">locomotor.components.types.</text>
<text text-anchor="middle" x="180.2466" y="-6.5" font-family="Helvetica,sans-Serif" font-size="10.00" fill="#000000">CTree.toSet</text>
</a>
</g>
</g>
<!-- Node1&#45;&gt;Node2 -->
<g id="edge1" class="edge">
<title>Node1&#45;&gt;Node2</title>
<path fill="none" stroke="#191970" d="M71.3591,-14.5C79.2608,-14.5 87.9528,-14.5 96.8746,-14.5"/>
<polygon fill="#191970" stroke="#191970" points="97.0154,-18.0001 107.0154,-14.5 97.0154,-11.0001 97.0154,-18.0001"/>
</g>
<!-- Node3 -->
<g id="node3" class="node">
<title>Node3</title>
<g id="a_node3"><a xlink:href="classlocomotor_1_1components_1_1types_1_1_c_tree.html#aa1e673ab8d70f133793c23ddc807ee95" target="_top" xlink:title="locomotor.components.types.\lCTree.isLeaf">
<polygon fill="#ffffff" stroke="#000000" points="289.2832,-.5 289.2832,-28.5 435.3564,-28.5 435.3564,-.5 289.2832,-.5"/>
<text text-anchor="start" x="297.2832" y="-16.5" font-family="Helvetica,sans-Serif" font-size="10.00" fill="#000000">locomotor.components.types.</text>
<text text-anchor="middle" x="362.3198" y="-6.5" font-family="Helvetica,sans-Serif" font-size="10.00" fill="#000000">CTree.isLeaf</text>
</a>
</g>
</g>
<!-- Node2&#45;&gt;Node3 -->
<g id="edge2" class="edge">
<title>Node2&#45;&gt;Node3</title>
<path fill="none" stroke="#191970" d="M253.5157,-14.5C261.8756,-14.5 270.4435,-14.5 278.9224,-14.5"/>
<polygon fill="#191970" stroke="#191970" points="279.2007,-18.0001 289.2007,-14.5 279.2007,-11.0001 279.2007,-18.0001"/>
</g>
</g>
</svg>
