<?xml version="1.0" encoding="UTF-8" standalone="no"?>
<!DOCTYPE svg PUBLIC "-//W3C//DTD SVG 1.1//EN"
 "http://www.w3.org/Graphics/SVG/1.1/DTD/svg11.dtd">
<!-- Generated by graphviz version 2.40.1 (20161225.0304)
 -->
<!-- Title: CGraphTree Pages: 1 -->
<!--zoomable 286 -->
<svg id="main" version="1.1" xmlns="http://www.w3.org/2000/svg" xmlns:xlink="http://www.w3.org/1999/xlink" xml:space="preserve" onload="init(evt)">
<style type="text/css"><![CDATA[
.edge:hover path { stroke: red; }
.edge:hover polygon { stroke: red; fill: red; }
]]></style>
<script type="text/javascript"><![CDATA[
var edges = document.getElementsByTagName('g');
if (edges && edges.length) {
  for (var i=0;i<edges.length;i++) {
    if (edges[i].id.substr(0,4)=='edge') {
      edges[i].setAttribute('class','edge');
    }
  }
}
]]></script>
        <defs>
                <circle id="rim" cx="0" cy="0" r="7"/>
                <circle id="rim2" cx="0" cy="0" r="3.5"/>
                <g id="zoomPlus">
                        <use xlink:href="#rim" fill="#404040">
                                <set attributeName="fill" to="#808080" begin="zoomplus.mouseover" end="zoomplus.mouseout"/>
                        </use>
                        <path d="M-4,0h8M0,-4v8" fill="none" stroke="white" stroke-width="1.5" pointer-events="none"/>
                </g>
                <g id="zoomMin">
                        <use xlink:href="#rim" fill="#404040">
                                <set attributeName="fill" to="#808080" begin="zoomminus.mouseover" end="zoomminus.mouseout"/>
                        </use>
                        <path d="M-4,0h8" fill="none" stroke="white" stroke-width="1.5" pointer-events="none"/>
                </g>
                <g id="dirArrow">
                        <path fill="none" stroke="white" stroke-width="1.5" d="M0,-3.0v7 M-2.5,-0.5L0,-3.0L2.5,-0.5"/>
                </g>
               <g id="resetDef">
                       <use xlink:href="#rim2" fill="#404040">
                               <set attributeName="fill" to="#808080" begin="reset.mouseover" end="reset.mouseout"/>
                       </use>
               </g>
        </defs>

<script type="text/javascript">
var viewWidth = 792;
var viewHeight = 286;
var sectionId = 'dynsection-1';
</script>
<script xlink:href="svgpan.js"/>
<svg id="graph" class="graph">
<g id="viewport">
<title>CGraphTree</title>
<polygon fill="#ffffff" stroke="transparent" points="-4,4 -4,-282 788.082,-282 788.082,4 -4,4"/>
<!-- Node1 -->
<g id="node1" class="node">
<title>Node1</title>
<polygon fill="#bfbfbf" stroke="#000000" points="712.8721,-168.5 712.8721,-186.5 784.082,-186.5 784.082,-168.5 712.8721,-168.5"/>
<text text-anchor="middle" x="748.4771" y="-174.5" font-family="Helvetica,sans-Serif" font-size="10.00" fill="#000000">CGraphTree</text>
</g>
<!-- Node2 -->
<g id="node2" class="node">
<title>Node2</title>
<g id="a_node2"><a xlink:href="classlocomotor_1_1components_1_1types_1_1_c_set_graph.html" target="_top" xlink:title="CSetGraph">
<polygon fill="#ffffff" stroke="#000000" points="357.6782,-206.5 357.6782,-224.5 423.7026,-224.5 423.7026,-206.5 357.6782,-206.5"/>
<text text-anchor="middle" x="390.6904" y="-212.5" font-family="Helvetica,sans-Serif" font-size="10.00" fill="#000000">CSetGraph</text>
</a>
</g>
</g>
<!-- Node2&#45;&gt;Node1 -->
<g id="edge1" class="edge">
<title>Node2&#45;&gt;Node1</title>
<path fill="none" stroke="#191970" d="M433.8944,-214.4901C493.1325,-212.5612 602.7242,-207.0429 694.8721,-191.5 702.3649,-190.2362 710.3381,-188.4191 717.7816,-186.5107"/>
<polygon fill="#191970" stroke="#191970" points="433.6714,-210.9952 423.7834,-214.8001 433.886,-217.9919 433.6714,-210.9952"/>
</g>
<!-- Node3 -->
<g id="node3" class="node">
<title>Node3</title>
<g id="a_node3"><a xlink:href="interfacelocomotor_1_1components_1_1_j_s_o_n_displayable.html" target="_top" xlink:title="JSONDisplayable">
<polygon fill="#ffffff" stroke="#000000" points="105.6221,-149.5 105.6221,-167.5 199.9863,-167.5 199.9863,-149.5 105.6221,-149.5"/>
<text text-anchor="middle" x="152.8042" y="-155.5" font-family="Helvetica,sans-Serif" font-size="10.00" fill="#000000">JSONDisplayable</text>
</a>
</g>
</g>
<!-- Node3&#45;&gt;Node2 -->
<g id="edge2" class="edge">
<title>Node3&#45;&gt;Node2</title>
<path fill="none" stroke="#191970" d="M194.9419,-170.2054C222.8441,-177.7997 260.3014,-187.6967 293.6182,-195.5 314.7275,-200.4441 338.5729,-205.3664 357.3474,-209.0905"/>
<polygon fill="#191970" stroke="#191970" points="195.6889,-166.7812 185.1198,-167.5198 193.8426,-173.5334 195.6889,-166.7812"/>
</g>
<!-- Node6 -->
<g id="node6" class="node">
<title>Node6</title>
<g id="a_node6"><a xlink:href="interfacelocomotor_1_1components_1_1types_1_1_c_universe_type.html" target="_top" xlink:title="CUniverseType">
<polygon fill="#ffffff" stroke="#000000" points="348.5083,-168.5 348.5083,-186.5 432.8726,-186.5 432.8726,-168.5 348.5083,-168.5"/>
<text text-anchor="middle" x="390.6904" y="-174.5" font-family="Helvetica,sans-Serif" font-size="10.00" fill="#000000">CUniverseType</text>
</a>
</g>
</g>
<!-- Node3&#45;&gt;Node6 -->
<g id="edge7" class="edge">
<title>Node3&#45;&gt;Node6</title>
<path fill="none" stroke="#191970" d="M210.2965,-163.0919C252.8363,-166.4896 309.834,-171.042 348.2838,-174.113"/>
<polygon fill="#191970" stroke="#191970" points="210.3342,-159.5839 200.0873,-162.2765 209.7769,-166.5617 210.3342,-159.5839"/>
</g>
<!-- Node9 -->
<g id="node9" class="node">
<title>Node9</title>
<g id="a_node9"><a xlink:href="interfacelocomotor_1_1components_1_1types_1_1_c_item_type.html" target="_top" xlink:title="CItemType">
<polygon fill="#ffffff" stroke="#000000" points="358.5132,-37.5 358.5132,-55.5 422.8677,-55.5 422.8677,-37.5 358.5132,-37.5"/>
<text text-anchor="middle" x="390.6904" y="-43.5" font-family="Helvetica,sans-Serif" font-size="10.00" fill="#000000">CItemType</text>
</a>
</g>
</g>
<!-- Node3&#45;&gt;Node9 -->
<g id="edge12" class="edge">
<title>Node3&#45;&gt;Node9</title>
<path fill="none" stroke="#191970" d="M181.3454,-144.9247C207.3934,-131.778 246.1996,-110.2401 275.6182,-85.5 285.0263,-77.5881 282.9672,-70.6374 293.6182,-64.5 313.2214,-53.204 338.4174,-48.7714 358.2266,-47.1275"/>
<polygon fill="#191970" stroke="#191970" points="179.7697,-141.7993 172.367,-149.3789 182.8807,-148.07 179.7697,-141.7993"/>
</g>
<!-- Node4 -->
<g id="node4" class="node">
<title>Node4</title>
<polygon fill="#ffffff" stroke="#bfbfbf" points="81.9063,-249.5 81.9063,-277.5 223.7021,-277.5 223.7021,-249.5 81.9063,-249.5"/>
<text text-anchor="start" x="89.9063" y="-265.5" font-family="Helvetica,sans-Serif" font-size="10.00" fill="#000000">FloydWarshallShortestPaths</text>
<text text-anchor="middle" x="152.8042" y="-255.5" font-family="Helvetica,sans-Serif" font-size="10.00" fill="#000000">&lt; Integer, DefaultEdge &gt;</text>
</g>
<!-- Node4&#45;&gt;Node2 -->
<g id="edge3" class="edge">
<title>Node4&#45;&gt;Node2</title>
<path fill="none" stroke="#9a32cd" stroke-dasharray="5,2" d="M232.0776,-247.5044C274.7838,-238.8873 325.1955,-228.7154 357.5322,-222.1906"/>
<polygon fill="#9a32cd" stroke="#9a32cd" points="231.3604,-244.0785 222.2502,-249.4874 232.745,-250.9402 231.3604,-244.0785"/>
<text text-anchor="middle" x="258.6602" y="-247.5" font-family="Helvetica,sans-Serif" font-size="10.00" fill="#000000"> _fwsp</text>
</g>
<!-- Node5 -->
<g id="node5" class="node">
<title>Node5</title>
<polygon fill="#ffffff" stroke="#bfbfbf" points="94.6333,-202.5 94.6333,-230.5 210.9751,-230.5 210.9751,-202.5 94.6333,-202.5"/>
<text text-anchor="start" x="102.6333" y="-218.5" font-family="Helvetica,sans-Serif" font-size="10.00" fill="#000000">SimpleGraph&lt; Integer,</text>
<text text-anchor="middle" x="152.8042" y="-208.5" font-family="Helvetica,sans-Serif" font-size="10.00" fill="#000000"> DefaultEdge &gt;</text>
</g>
<!-- Node5&#45;&gt;Node2 -->
<g id="edge4" class="edge">
<title>Node5&#45;&gt;Node2</title>
<path fill="none" stroke="#9a32cd" stroke-dasharray="5,2" d="M221.2324,-216.2123C266.0105,-216.0241 322.5198,-215.7866 357.6339,-215.639"/>
<polygon fill="#9a32cd" stroke="#9a32cd" points="220.9829,-212.7133 210.9977,-216.2554 221.0124,-219.7132 220.9829,-212.7133"/>
<text text-anchor="middle" x="258.6602" y="-218.5" font-family="Helvetica,sans-Serif" font-size="10.00" fill="#000000"> _graph</text>
</g>
<!-- Node6&#45;&gt;Node1 -->
<g id="edge5" class="edge">
<title>Node6&#45;&gt;Node1</title>
<path fill="none" stroke="#191970" d="M443.1461,-177.5C516.9265,-177.5 649.4073,-177.5 712.7922,-177.5"/>
<polygon fill="#191970" stroke="#191970" points="443.1383,-174.0001 433.1383,-177.5 443.1382,-181.0001 443.1383,-174.0001"/>
</g>
<!-- Node7 -->
<g id="node7" class="node">
<title>Node7</title>
<g id="a_node7"><a xlink:href="interfacelocomotor_1_1components_1_1types_1_1_c_type.html" target="_top" xlink:title="CType">
<polygon fill="#ffffff" stroke="#000000" points="0,-61.5 0,-79.5 44.9063,-79.5 44.9063,-61.5 0,-61.5"/>
<text text-anchor="middle" x="22.4531" y="-67.5" font-family="Helvetica,sans-Serif" font-size="10.00" fill="#000000">CType</text>
</a>
</g>
</g>
<!-- Node7&#45;&gt;Node6 -->
<g id="edge6" class="edge">
<title>Node7&#45;&gt;Node6</title>
<path fill="none" stroke="#191970" d="M54.7212,-82.3738C105.159,-100.6134 205.9876,-135.7931 293.6182,-158.5 311.4054,-163.1091 331.2819,-167.1845 348.3939,-170.3672"/>
<polygon fill="#191970" stroke="#191970" points="55.6291,-78.9799 45.035,-78.8549 53.2389,-85.5592 55.6291,-78.9799"/>
</g>
<!-- Node10 -->
<g id="node10" class="node">
<title>Node10</title>
<g id="a_node10"><a xlink:href="interfacelocomotor_1_1components_1_1types_1_1_c_comparable_type.html" target="_top" xlink:title="CComparableType">
<polygon fill="#ffffff" stroke="#000000" points="103.1147,-24.5 103.1147,-42.5 202.4937,-42.5 202.4937,-24.5 103.1147,-24.5"/>
<text text-anchor="middle" x="152.8042" y="-30.5" font-family="Helvetica,sans-Serif" font-size="10.00" fill="#000000">CComparableType</text>
</a>
</g>
</g>
<!-- Node7&#45;&gt;Node10 -->
<g id="edge11" class="edge">
<title>Node7&#45;&gt;Node10</title>
<path fill="none" stroke="#191970" d="M54.5161,-59.8607C63.3581,-57.034 72.9753,-54.0583 81.9063,-51.5 92.7715,-48.3877 104.6511,-45.2638 115.5265,-42.5126"/>
<polygon fill="#191970" stroke="#191970" points="53.3775,-56.5503 44.9403,-62.9585 55.5322,-63.2105 53.3775,-56.5503"/>
</g>
<!-- Node8 -->
<g id="node8" class="node">
<title>Node8</title>
<g id="a_node8"><a xlink:href="classlocomotor_1_1components_1_1types_1_1_c_tree.html" target="_top" xlink:title="CTree">
<polygon fill="#ffffff" stroke="#000000" points="567.1221,-79.5 567.1221,-97.5 610.5391,-97.5 610.5391,-79.5 567.1221,-79.5"/>
<text text-anchor="middle" x="588.8306" y="-85.5" font-family="Helvetica,sans-Serif" font-size="10.00" fill="#000000">CTree</text>
</a>
</g>
</g>
<!-- Node8&#45;&gt;Node1 -->
<g id="edge8" class="edge">
<title>Node8&#45;&gt;Node1</title>
<path fill="none" stroke="#9a32cd" stroke-dasharray="5,2" d="M614.0701,-102.5706C647.1895,-121.0341 704.3683,-152.9102 732.2479,-168.4525"/>
<polygon fill="#9a32cd" stroke="#9a32cd" points="615.4556,-99.3359 605.0169,-97.5236 612.0471,-105.45 615.4556,-99.3359"/>
<text text-anchor="middle" x="661.7056" y="-148.5" font-family="Helvetica,sans-Serif" font-size="10.00" fill="#000000"> _universeTree</text>
</g>
<!-- Node9&#45;&gt;Node8 -->
<g id="edge9" class="edge">
<title>Node9&#45;&gt;Node8</title>
<path fill="none" stroke="#191970" d="M433.3079,-53.9287C450.2886,-57.0121 469.9867,-60.7438 487.7627,-64.5 515.1121,-70.2792 546.3938,-77.8584 566.82,-82.9392"/>
<polygon fill="#191970" stroke="#191970" points="433.5892,-50.4232 423.1276,-52.0981 432.3503,-57.3127 433.5892,-50.4232"/>
</g>
<!-- Node10&#45;&gt;Node9 -->
<g id="edge10" class="edge">
<title>Node10&#45;&gt;Node9</title>
<path fill="none" stroke="#191970" d="M212.8662,-36.7823C259.0682,-39.3071 321.1218,-42.6982 358.3837,-44.7345"/>
<polygon fill="#191970" stroke="#191970" points="212.8491,-33.2762 202.6729,-36.2252 212.467,-40.2658 212.8491,-33.2762"/>
</g>
<!-- Node12 -->
<g id="node12" class="node">
<title>Node12</title>
<g id="a_node12"><a xlink:href="interfacelocomotor_1_1components_1_1types_1_1_c_user_type.html" target="_top" xlink:title="CUserType">
<polygon fill="#ffffff" stroke="#000000" points="357.6807,-.5 357.6807,-18.5 423.7002,-18.5 423.7002,-.5 357.6807,-.5"/>
<text text-anchor="middle" x="390.6904" y="-6.5" font-family="Helvetica,sans-Serif" font-size="10.00" fill="#000000">CUserType</text>
</a>
</g>
</g>
<!-- Node10&#45;&gt;Node12 -->
<g id="edge15" class="edge">
<title>Node10&#45;&gt;Node12</title>
<path fill="none" stroke="#191970" d="M212.7748,-27.4497C258.5532,-22.8311 319.9341,-16.6385 357.3286,-12.8658"/>
<polygon fill="#191970" stroke="#191970" points="212.2711,-23.9826 202.6729,-28.4688 212.9738,-30.9473 212.2711,-23.9826"/>
</g>
<!-- Node11 -->
<g id="node11" class="node">
<title>Node11</title>
<g id="a_node11"><a xlink:href="interfacelocomotor_1_1components_1_1_j_s_o_n_convertissable.html" target="_top" xlink:title="JSONConvertissable">
<polygon fill="#ffffff" stroke="#000000" points="98.3979,-61.5 98.3979,-79.5 207.2104,-79.5 207.2104,-61.5 98.3979,-61.5"/>
<text text-anchor="middle" x="152.8042" y="-67.5" font-family="Helvetica,sans-Serif" font-size="10.00" fill="#000000">JSONConvertissable</text>
</a>
</g>
</g>
<!-- Node11&#45;&gt;Node9 -->
<g id="edge13" class="edge">
<title>Node11&#45;&gt;Node9</title>
<path fill="none" stroke="#191970" d="M217.674,-73.1472C236.4435,-73.0562 256.9113,-72.1275 275.6182,-69.5 283.8404,-68.3451 285.5285,-66.3698 293.6182,-64.5 314.9939,-59.5593 339.262,-55.0593 358.1861,-51.7945"/>
<polygon fill="#191970" stroke="#191970" points="217.4535,-69.6466 207.4432,-73.117 217.4328,-76.6466 217.4535,-69.6466"/>
</g>
<!-- Node11&#45;&gt;Node12 -->
<g id="edge16" class="edge">
<title>Node11&#45;&gt;Node12</title>
<path fill="none" stroke="#191970" d="M196.6013,-58.7742C205.5671,-56.3706 214.9398,-53.8556 223.7021,-51.5 246.7808,-45.2958 253.4718,-46.4807 275.6182,-37.5 284.0991,-34.0609 285.0064,-30.597 293.6182,-27.5 314.2631,-20.0756 338.5312,-15.5756 357.638,-12.9317"/>
<polygon fill="#191970" stroke="#191970" points="195.4589,-55.4568 186.7058,-61.4262 197.271,-62.2182 195.4589,-55.4568"/>
</g>
<!-- Node12&#45;&gt;Node8 -->
<g id="edge14" class="edge">
<title>Node12&#45;&gt;Node8</title>
<path fill="none" stroke="#191970" d="M434.1242,-14.1496C451.2175,-16.8501 470.7793,-21.0455 487.7627,-27.5 522.63,-40.7512 559.0033,-65.9922 577.1182,-79.4774"/>
<polygon fill="#191970" stroke="#191970" points="434.2451,-10.6304 423.8454,-12.6544 433.2374,-17.5575 434.2451,-10.6304"/>
</g>
<!-- Node13 -->
<g id="node13" class="node">
<title>Node13</title>
<g id="a_node13"><a xlink:href="interfacelocomotor_1_1components_1_1types_1_1_c_comparable.html" target="_top" xlink:title="CComparable\&lt; CTree,\l CGraphTree \&gt;">
<polygon fill="#ffffff" stroke="#000000" points="332.4365,-121.5 332.4365,-149.5 448.9443,-149.5 448.9443,-121.5 332.4365,-121.5"/>
<text text-anchor="start" x="340.4365" y="-137.5" font-family="Helvetica,sans-Serif" font-size="10.00" fill="#000000">CComparable&lt; CTree,</text>
<text text-anchor="middle" x="390.6904" y="-127.5" font-family="Helvetica,sans-Serif" font-size="10.00" fill="#000000"> CGraphTree &gt;</text>
</a>
</g>
</g>
<!-- Node13&#45;&gt;Node8 -->
<g id="edge17" class="edge">
<title>Node13&#45;&gt;Node8</title>
<path fill="none" stroke="#191970" d="M459.1993,-123.3068C487.2735,-117.7734 519.9589,-110.639 549.1221,-102.5 554.8955,-100.8887 561.0444,-98.8733 566.7359,-96.8779"/>
<polygon fill="#191970" stroke="#191970" points="458.2293,-119.9297 449.0799,-125.2718 459.5638,-126.8013 458.2293,-119.9297"/>
</g>
<!-- Node14 -->
<g id="node14" class="node">
<title>Node14</title>
<polygon fill="#ffffff" stroke="#bfbfbf" points="293.6182,-74.5 293.6182,-102.5 487.7627,-102.5 487.7627,-74.5 293.6182,-74.5"/>
<text text-anchor="start" x="301.6182" y="-90.5" font-family="Helvetica,sans-Serif" font-size="10.00" fill="#000000">ArrayList&lt; locomotor.components.types.</text>
<text text-anchor="middle" x="390.6904" y="-80.5" font-family="Helvetica,sans-Serif" font-size="10.00" fill="#000000">CTree &gt;</text>
</g>
<!-- Node14&#45;&gt;Node8 -->
<g id="edge18" class="edge">
<title>Node14&#45;&gt;Node8</title>
<path fill="none" stroke="#9a32cd" stroke-dasharray="5,2" d="M498.0563,-88.5C524.1861,-88.5 549.5409,-88.5 566.7811,-88.5"/>
<polygon fill="#9a32cd" stroke="#9a32cd" points="498.0191,-85.0001 488.0191,-88.5 498.0191,-92.0001 498.0191,-85.0001"/>
<text text-anchor="middle" x="527.4424" y="-90.5" font-family="Helvetica,sans-Serif" font-size="10.00" fill="#000000"> _children</text>
</g>
</g>
</svg>
        <g id="navigator" transform="translate(0 0)" fill="#404254">
                <rect fill="#f2f5e9" fill-opacity="0.5" stroke="#606060" stroke-width=".5" x="0" y="0" width="60" height="60"/>
                <use id="zoomplus" xlink:href="#zoomPlus" x="17" y="9" onmousedown="handleZoom(evt,'in')"/>
                <use id="zoomminus" xlink:href="#zoomMin" x="42" y="9" onmousedown="handleZoom(evt,'out')"/>
                <use id="reset" xlink:href="#resetDef" x="30" y="36" onmousedown="handleReset()"/>
                <g id="arrowUp" xlink:href="#dirArrow" transform="translate(30 24)" onmousedown="handlePan(0,-1)">
                  <use xlink:href="#rim" fill="#404040">
                        <set attributeName="fill" to="#808080" begin="arrowUp.mouseover" end="arrowUp.mouseout"/>
                  </use>
                  <path fill="none" stroke="white" stroke-width="1.5" d="M0,-3.0v7 M-2.5,-0.5L0,-3.0L2.5,-0.5"/>
                </g>
                <g id="arrowRight" xlink:href="#dirArrow" transform="rotate(90) translate(36 -43)" onmousedown="handlePan(1,0)">
                  <use xlink:href="#rim" fill="#404040">
                        <set attributeName="fill" to="#808080" begin="arrowRight.mouseover" end="arrowRight.mouseout"/>
                  </use>
                  <path fill="none" stroke="white" stroke-width="1.5" d="M0,-3.0v7 M-2.5,-0.5L0,-3.0L2.5,-0.5"/>
                </g>
                <g id="arrowDown" xlink:href="#dirArrow" transform="rotate(180) translate(-30 -48)" onmousedown="handlePan(0,1)">
                  <use xlink:href="#rim" fill="#404040">
                        <set attributeName="fill" to="#808080" begin="arrowDown.mouseover" end="arrowDown.mouseout"/>
                  </use>
                  <path fill="none" stroke="white" stroke-width="1.5" d="M0,-3.0v7 M-2.5,-0.5L0,-3.0L2.5,-0.5"/>
                </g>
                <g id="arrowLeft" xlink:href="#dirArrow" transform="rotate(270) translate(-36 17)" onmousedown="handlePan(-1,0)">
                  <use xlink:href="#rim" fill="#404040">
                        <set attributeName="fill" to="#808080" begin="arrowLeft.mouseover" end="arrowLeft.mouseout"/>
                  </use>
                  <path fill="none" stroke="white" stroke-width="1.5" d="M0,-3.0v7 M-2.5,-0.5L0,-3.0L2.5,-0.5"/>
                </g>
        </g>
        <svg viewBox="0 0 15 15" width="100%" height="30px" preserveAspectRatio="xMaxYMin meet">
         <g id="arrow_out" transform="scale(0.3 0.3)">
          <a xlink:href="classlocomotor_1_1components_1_1types_1_1_c_graph_tree__coll__graph_org.svg" target="_base">
           <rect id="button" ry="5" rx="5" y="6" x="6" height="38" width="38"
                fill="#f2f5e9" fill-opacity="0.5" stroke="#606060" stroke-width="1.0"/>
           <path id="arrow"
             d="M 11.500037,31.436501 C 11.940474,20.09759 22.043105,11.32322 32.158766,21.979434 L 37.068811,17.246167 C 37.068811,17.246167 37.088388,32 37.088388,32 L 22.160133,31.978069 C 22.160133,31.978069 26.997745,27.140456 26.997745,27.140456 C 18.528582,18.264221 13.291696,25.230495 11.500037,31.436501 z"
             style="fill:#404040;"/>
          </a>
         </g>
        </svg>
</svg>
