<?xml version="1.0" encoding="UTF-8" standalone="no"?>
<!DOCTYPE svg PUBLIC "-//W3C//DTD SVG 1.1//EN"
 "http://www.w3.org/Graphics/SVG/1.1/DTD/svg11.dtd">
<!-- Generated by graphviz version 2.40.1 (20161225.0304)
 -->
<!-- Title: DBH Pages: 1 -->
<!--zoomable 564 -->
<svg id="main" version="1.1" xmlns="http://www.w3.org/2000/svg" xmlns:xlink="http://www.w3.org/1999/xlink" xml:space="preserve" onload="init(evt)">
<style type="text/css"><![CDATA[
.edge:hover path { stroke: red; }
.edge:hover polygon { stroke: red; fill: red; }
]]></style>
<script type="text/javascript"><![CDATA[
var edges = document.getElementsByTagName('g');
if (edges && edges.length) {
  for (var i=0;i<edges.length;i++) {
    if (edges[i].id.substr(0,4)=='edge') {
      edges[i].setAttribute('class','edge');
    }
  }
}
]]></script>
        <defs>
                <circle id="rim" cx="0" cy="0" r="7"/>
                <circle id="rim2" cx="0" cy="0" r="3.5"/>
                <g id="zoomPlus">
                        <use xlink:href="#rim" fill="#404040">
                                <set attributeName="fill" to="#808080" begin="zoomplus.mouseover" end="zoomplus.mouseout"/>
                        </use>
                        <path d="M-4,0h8M0,-4v8" fill="none" stroke="white" stroke-width="1.5" pointer-events="none"/>
                </g>
                <g id="zoomMin">
                        <use xlink:href="#rim" fill="#404040">
                                <set attributeName="fill" to="#808080" begin="zoomminus.mouseover" end="zoomminus.mouseout"/>
                        </use>
                        <path d="M-4,0h8" fill="none" stroke="white" stroke-width="1.5" pointer-events="none"/>
                </g>
                <g id="dirArrow">
                        <path fill="none" stroke="white" stroke-width="1.5" d="M0,-3.0v7 M-2.5,-0.5L0,-3.0L2.5,-0.5"/>
                </g>
               <g id="resetDef">
                       <use xlink:href="#rim2" fill="#404040">
                               <set attributeName="fill" to="#808080" begin="reset.mouseover" end="reset.mouseout"/>
                       </use>
               </g>
        </defs>

<script type="text/javascript">
var viewWidth = 933;
var viewHeight = 564;
var sectionId = 'dynsection-1';
</script>
<script xlink:href="svgpan.js"/>
<svg id="graph" class="graph">
<g id="viewport">
<title>DBH</title>
<polygon fill="#ffffff" stroke="transparent" points="-4,4 -4,-559.9806 928.6621,-559.9806 928.6621,4 -4,4"/>
<!-- Node1 -->
<g id="node1" class="node">
<title>Node1</title>
<polygon fill="#bfbfbf" stroke="#000000" points="0,-250.1174 0,-268.1174 37.1133,-268.1174 37.1133,-250.1174 0,-250.1174"/>
<text text-anchor="middle" x="18.5566" y="-256.1174" font-family="Helvetica,sans-Serif" font-size="10.00" fill="#000000">DBH</text>
</g>
<!-- Node2 -->
<g id="node2" class="node">
<title>Node2</title>
<g id="a_node2"><a xlink:href="classlocomotor_1_1core_1_1_d_b_h.html#a0b2d292079fe232a4c3dae4636167641" target="_top" xlink:title="getInstance">
<polygon fill="#ffffff" stroke="#000000" points="73.1133,-250.1174 73.1133,-268.1174 140.8174,-268.1174 140.8174,-250.1174 73.1133,-250.1174"/>
<text text-anchor="middle" x="106.9653" y="-256.1174" font-family="Helvetica,sans-Serif" font-size="10.00" fill="#000000">getInstance</text>
</a>
</g>
</g>
<!-- Node1&#45;&gt;Node2 -->
<g id="edge1" class="edge">
<title>Node1&#45;&gt;Node2</title>
<path fill="none" stroke="#191970" d="M47.4324,-259.1174C55.5654,-259.1174 64.4885,-259.1174 72.8949,-259.1174"/>
<polygon fill="#191970" stroke="#191970" points="47.3059,-255.6175 37.3059,-259.1174 47.3058,-262.6175 47.3059,-255.6175"/>
</g>
<!-- Node3 -->
<g id="node3" class="node">
<title>Node3</title>
<g id="a_node3"><a xlink:href="classlocomotor_1_1components_1_1network_1_1_a_p_i.html#a547463fbc7fb7b485886f0917e2c0b78" target="_top" xlink:title="locomotor.components.network.\lAPI.createHooks">
<polygon fill="#ffffff" stroke="#000000" points="600.9785,-261.1174 600.9785,-289.1174 758.165,-289.1174 758.165,-261.1174 600.9785,-261.1174"/>
<text text-anchor="start" x="608.9785" y="-277.1174" font-family="Helvetica,sans-Serif" font-size="10.00" fill="#000000">locomotor.components.network.</text>
<text text-anchor="middle" x="679.5718" y="-267.1174" font-family="Helvetica,sans-Serif" font-size="10.00" fill="#000000">API.createHooks</text>
</a>
</g>
</g>
<!-- Node2&#45;&gt;Node3 -->
<g id="edge2" class="edge">
<title>Node2&#45;&gt;Node3</title>
<path fill="none" stroke="#191970" d="M110.1719,-278.6264C116.5329,-310.2282 134.0264,-371.731 176.8174,-398.1174 250.3266,-443.4459 485.872,-413.7646 564.9785,-379.1174 610.9982,-358.9616 650.9312,-312.7594 669.1144,-289.3178"/>
<polygon fill="#191970" stroke="#191970" points="113.5533,-277.6609 108.3058,-268.4569 106.6682,-278.9244 113.5533,-277.6609"/>
</g>
<!-- Node4 -->
<g id="node4" class="node">
<title>Node4</title>
<g id="a_node4"><a xlink:href="classlocomotor_1_1core_1_1_main.html#a8b260eecbaabcef8473fd87ada040682" target="_top" xlink:title="locomotor.core.Main.main">
<polygon fill="#ffffff" stroke="#000000" points="794.165,-457.1174 794.165,-475.1174 924.6621,-475.1174 924.6621,-457.1174 794.165,-457.1174"/>
<text text-anchor="middle" x="859.4136" y="-463.1174" font-family="Helvetica,sans-Serif" font-size="10.00" fill="#000000">locomotor.core.Main.main</text>
</a>
</g>
</g>
<!-- Node2&#45;&gt;Node4 -->
<g id="edge32" class="edge">
<title>Node2&#45;&gt;Node4</title>
<path fill="none" stroke="#191970" d="M110.2476,-278.3209C118.9683,-326.8715 144.2892,-452.4224 176.8174,-477.1174 386.1478,-636.039 744.9962,-511.3878 837.2692,-475.1893"/>
<polygon fill="#191970" stroke="#191970" points="113.651,-277.465 108.4751,-268.2204 106.7563,-278.6749 113.651,-277.465"/>
</g>
<!-- Node5 -->
<g id="node5" class="node">
<title>Node5</title>
<g id="a_node5"><a xlink:href="classlocomotor_1_1core_1_1_comparator.html#a2ac714803f2cf6e544315619a14ff13c" target="_top" xlink:title="locomotor.core.Comparator.toJSON">
<polygon fill="#ffffff" stroke="#000000" points="176.8174,-306.1174 176.8174,-324.1174 351.2256,-324.1174 351.2256,-306.1174 176.8174,-306.1174"/>
<text text-anchor="middle" x="264.0215" y="-312.1174" font-family="Helvetica,sans-Serif" font-size="10.00" fill="#000000">locomotor.core.Comparator.toJSON</text>
</a>
</g>
</g>
<!-- Node2&#45;&gt;Node5 -->
<g id="edge4" class="edge">
<title>Node2&#45;&gt;Node5</title>
<path fill="none" stroke="#191970" d="M129.7144,-273.7228C142.9946,-281.6707 160.3346,-291.0841 176.8174,-297.1174 186.6888,-300.7307 197.4689,-303.6945 207.9784,-306.0989"/>
<polygon fill="#191970" stroke="#191970" points="131.1845,-270.5181 120.8322,-268.2637 127.5191,-276.4818 131.1845,-270.5181"/>
</g>
<!-- Node7 -->
<g id="node7" class="node">
<title>Node7</title>
<g id="a_node7"><a xlink:href="classlocomotor_1_1core_1_1_d_b_h.html#a17eef13d222e2f7d4cc413a965de3069" target="_top" xlink:title="registerUser">
<polygon fill="#ffffff" stroke="#000000" points="440.873,-457.1174 440.873,-475.1174 511.3311,-475.1174 511.3311,-457.1174 440.873,-457.1174"/>
<text text-anchor="middle" x="476.1021" y="-463.1174" font-family="Helvetica,sans-Serif" font-size="10.00" fill="#000000">registerUser</text>
</a>
</g>
</g>
<!-- Node2&#45;&gt;Node7 -->
<g id="edge7" class="edge">
<title>Node2&#45;&gt;Node7</title>
<path fill="none" stroke="#191970" d="M107.9418,-278.6558C111.019,-317.1238 123.7932,-402.3833 176.8174,-442.1174 255.239,-500.8832 379.8851,-486.2801 440.5701,-474.3759"/>
<polygon fill="#191970" stroke="#191970" points="111.411,-278.0715 107.2642,-268.3219 104.426,-278.5295 111.411,-278.0715"/>
</g>
<!-- Node8 -->
<g id="node8" class="node">
<title>Node8</title>
<g id="a_node8"><a xlink:href="classlocomotor_1_1core_1_1_d_b_h.html#ae26eef1ee7482f2e0167c6a18924d214" target="_top" xlink:title="addItem">
<polygon fill="#ffffff" stroke="#000000" points="450.0356,-228.1174 450.0356,-246.1174 502.1685,-246.1174 502.1685,-228.1174 450.0356,-228.1174"/>
<text text-anchor="middle" x="476.1021" y="-234.1174" font-family="Helvetica,sans-Serif" font-size="10.00" fill="#000000">addItem</text>
</a>
</g>
</g>
<!-- Node2&#45;&gt;Node8 -->
<g id="edge10" class="edge">
<title>Node2&#45;&gt;Node8</title>
<path fill="none" stroke="#191970" d="M151.439,-256.4668C229.1097,-251.8378 387.1628,-242.4181 449.7398,-238.6886"/>
<polygon fill="#191970" stroke="#191970" points="150.8052,-252.9983 141.0312,-257.0871 151.2217,-259.9859 150.8052,-252.9983"/>
</g>
<!-- Node9 -->
<g id="node9" class="node">
<title>Node9</title>
<g id="a_node9"><a xlink:href="classlocomotor_1_1core_1_1_d_b_h.html#aa0e39c547d06fd9d0ad2de70251c9cc0" target="_top" xlink:title="updateItem">
<polygon fill="#ffffff" stroke="#000000" points="443.085,-191.1174 443.085,-209.1174 509.1191,-209.1174 509.1191,-191.1174 443.085,-191.1174"/>
<text text-anchor="middle" x="476.1021" y="-197.1174" font-family="Helvetica,sans-Serif" font-size="10.00" fill="#000000">updateItem</text>
</a>
</g>
</g>
<!-- Node2&#45;&gt;Node9 -->
<g id="edge12" class="edge">
<title>Node2&#45;&gt;Node9</title>
<path fill="none" stroke="#191970" d="M117.2859,-241.3649C129.0471,-223.0992 150.1415,-195.7262 176.8174,-184.1174 270.093,-143.5258 395.4459,-174.2626 449.4852,-191.0577"/>
<polygon fill="#191970" stroke="#191970" points="114.2608,-239.6026 112.0061,-249.9547 120.2244,-243.2681 114.2608,-239.6026"/>
</g>
<!-- Node10 -->
<g id="node10" class="node">
<title>Node10</title>
<g id="a_node10"><a xlink:href="classlocomotor_1_1core_1_1_d_b_h.html#ad067053be75a3170dc9c2ce7b922e176" target="_top" xlink:title="checkingParsingItem">
<polygon fill="#ffffff" stroke="#000000" points="209.6104,-193.1174 209.6104,-211.1174 318.4326,-211.1174 318.4326,-193.1174 209.6104,-193.1174"/>
<text text-anchor="middle" x="264.0215" y="-199.1174" font-family="Helvetica,sans-Serif" font-size="10.00" fill="#000000">checkingParsingItem</text>
</a>
</g>
</g>
<!-- Node2&#45;&gt;Node10 -->
<g id="edge14" class="edge">
<title>Node2&#45;&gt;Node10</title>
<path fill="none" stroke="#191970" d="M133.3222,-245.3424C146.2101,-238.9507 162.0856,-231.5779 176.8174,-226.1174 192.4244,-220.3326 210.0578,-215.2235 225.3637,-211.2225"/>
<polygon fill="#191970" stroke="#191970" points="131.4659,-242.3588 124.1175,-249.991 134.6215,-248.6072 131.4659,-242.3588"/>
</g>
<!-- Node11 -->
<g id="node11" class="node">
<title>Node11</title>
<g id="a_node11"><a xlink:href="classlocomotor_1_1core_1_1_d_b_h.html#a048720c7d5d922d646d5ee0ff38f78ad" target="_top" xlink:title="removeItem">
<polygon fill="#ffffff" stroke="#000000" points="229.625,-117.1174 229.625,-135.1174 298.418,-135.1174 298.418,-117.1174 229.625,-117.1174"/>
<text text-anchor="middle" x="264.0215" y="-123.1174" font-family="Helvetica,sans-Serif" font-size="10.00" fill="#000000">removeItem</text>
</a>
</g>
</g>
<!-- Node2&#45;&gt;Node11 -->
<g id="edge17" class="edge">
<title>Node2&#45;&gt;Node11</title>
<path fill="none" stroke="#191970" d="M113.9913,-240.3283C124.1113,-215.8556 145.1289,-173.4521 176.8174,-150.1174 192.1169,-138.8512 212.4353,-132.8734 229.6102,-129.7017"/>
<polygon fill="#191970" stroke="#191970" points="110.6312,-239.3084 110.2152,-249.895 117.1423,-241.8784 110.6312,-239.3084"/>
</g>
<!-- Node12 -->
<g id="node12" class="node">
<title>Node12</title>
<g id="a_node12"><a xlink:href="classlocomotor_1_1core_1_1_d_b_h.html#a2b2232ca307c4877316e8b6097902f2c" target="_top" xlink:title="addUniverse">
<polygon fill="#ffffff" stroke="#000000" points="440.0308,-79.1174 440.0308,-97.1174 512.1733,-97.1174 512.1733,-79.1174 440.0308,-79.1174"/>
<text text-anchor="middle" x="476.1021" y="-85.1174" font-family="Helvetica,sans-Serif" font-size="10.00" fill="#000000">addUniverse</text>
</a>
</g>
</g>
<!-- Node2&#45;&gt;Node12 -->
<g id="edge19" class="edge">
<title>Node2&#45;&gt;Node12</title>
<path fill="none" stroke="#191970" d="M109.5923,-239.7219C115.2388,-206.4247 131.887,-138.9961 176.8174,-108.1174 256.8574,-53.1094 379.1175,-67.6351 439.6016,-79.5764"/>
<polygon fill="#191970" stroke="#191970" points="106.0786,-239.5459 108.0256,-249.9603 112.9981,-240.6048 106.0786,-239.5459"/>
</g>
<!-- Node13 -->
<g id="node13" class="node">
<title>Node13</title>
<g id="a_node13"><a xlink:href="classlocomotor_1_1core_1_1_d_b_h.html#a0565ab8a7a56491fca163a1b0977c0db" target="_top" xlink:title="updateUniverse">
<polygon fill="#ffffff" stroke="#000000" points="433.0801,-41.1174 433.0801,-59.1174 519.124,-59.1174 519.124,-41.1174 433.0801,-41.1174"/>
<text text-anchor="middle" x="476.1021" y="-47.1174" font-family="Helvetica,sans-Serif" font-size="10.00" fill="#000000">updateUniverse</text>
</a>
</g>
</g>
<!-- Node2&#45;&gt;Node13 -->
<g id="edge21" class="edge">
<title>Node2&#45;&gt;Node13</title>
<path fill="none" stroke="#191970" d="M109.89,-239.9722C117.9852,-189.7938 142.3852,-56.5803 176.8174,-31.1174 263.26,32.8077 404.9816,-18.7591 456.5562,-41.0909"/>
<polygon fill="#191970" stroke="#191970" points="106.394,-239.6742 108.2981,-250.0965 113.309,-240.7615 106.394,-239.6742"/>
</g>
<!-- Node14 -->
<g id="node14" class="node">
<title>Node14</title>
<g id="a_node14"><a xlink:href="classlocomotor_1_1core_1_1_d_b_h.html#a756e5af44b74ea39a44a71cde06102fd" target="_top" xlink:title="checkingParsingUniverse">
<polygon fill="#ffffff" stroke="#000000" points="199.6055,-41.1174 199.6055,-59.1174 328.4375,-59.1174 328.4375,-41.1174 199.6055,-41.1174"/>
<text text-anchor="middle" x="264.0215" y="-47.1174" font-family="Helvetica,sans-Serif" font-size="10.00" fill="#000000">checkingParsingUniverse</text>
</a>
</g>
</g>
<!-- Node2&#45;&gt;Node14 -->
<g id="edge23" class="edge">
<title>Node2&#45;&gt;Node14</title>
<path fill="none" stroke="#191970" d="M108.6151,-239.6789C112.8707,-202.0388 127.6119,-118.9713 176.8174,-74.1174 184.0122,-67.5588 192.837,-62.7694 202.0802,-59.2768"/>
<polygon fill="#191970" stroke="#191970" points="105.1146,-239.5112 107.6046,-249.8093 112.08,-240.2061 105.1146,-239.5112"/>
</g>
<!-- Node15 -->
<g id="node15" class="node">
<title>Node15</title>
<g id="a_node15"><a xlink:href="classlocomotor_1_1core_1_1_d_b_h.html#a46cbafb4c7422171cf07c3d0521d3f47" target="_top" xlink:title="removeUniverse">
<polygon fill="#ffffff" stroke="#000000" points="431.7007,-351.1174 431.7007,-369.1174 520.5034,-369.1174 520.5034,-351.1174 431.7007,-351.1174"/>
<text text-anchor="middle" x="476.1021" y="-357.1174" font-family="Helvetica,sans-Serif" font-size="10.00" fill="#000000">removeUniverse</text>
</a>
</g>
</g>
<!-- Node2&#45;&gt;Node15 -->
<g id="edge26" class="edge">
<title>Node2&#45;&gt;Node15</title>
<path fill="none" stroke="#191970" d="M112.344,-277.8871C121.0233,-304.232 140.8895,-351.1821 176.8174,-371.1174 266.8368,-421.0664 396.6412,-387.1703 450.8381,-369.2472"/>
<polygon fill="#191970" stroke="#191970" points="115.6768,-276.8171 109.3809,-268.2958 108.9887,-278.8834 115.6768,-276.8171"/>
</g>
<!-- Node16 -->
<g id="node16" class="node">
<title>Node16</title>
<g id="a_node16"><a xlink:href="classlocomotor_1_1core_1_1_d_b_h.html#a97b6d481686edd4c5a932108475e5e1c" target="_top" xlink:title="deleteItemWith">
<polygon fill="#ffffff" stroke="#000000" points="222.6743,-343.1174 222.6743,-361.1174 305.3687,-361.1174 305.3687,-343.1174 222.6743,-343.1174"/>
<text text-anchor="middle" x="264.0215" y="-349.1174" font-family="Helvetica,sans-Serif" font-size="10.00" fill="#000000">deleteItemWith</text>
</a>
</g>
</g>
<!-- Node2&#45;&gt;Node16 -->
<g id="edge28" class="edge">
<title>Node2&#45;&gt;Node16</title>
<path fill="none" stroke="#191970" d="M118.5258,-276.8593C130.8375,-294.2543 151.9534,-320.1364 176.8174,-334.1174 190.5615,-341.8457 207.1971,-346.2731 222.2382,-348.8031"/>
<polygon fill="#191970" stroke="#191970" points="121.1474,-274.491 112.6239,-268.198 115.3627,-278.4328 121.1474,-274.491"/>
</g>
<!-- Node17 -->
<g id="node17" class="node">
<title>Node17</title>
<g id="a_node17"><a xlink:href="classlocomotor_1_1core_1_1_d_b_h.html#ad707f520f60fe68ea8a8818698560d9d" target="_top" xlink:title="authAdmin">
<polygon fill="#ffffff" stroke="#000000" points="232.1177,-269.1174 232.1177,-287.1174 295.9253,-287.1174 295.9253,-269.1174 232.1177,-269.1174"/>
<text text-anchor="middle" x="264.0215" y="-275.1174" font-family="Helvetica,sans-Serif" font-size="10.00" fill="#000000">authAdmin</text>
</a>
</g>
</g>
<!-- Node2&#45;&gt;Node17 -->
<g id="edge30" class="edge">
<title>Node2&#45;&gt;Node17</title>
<path fill="none" stroke="#191970" d="M151.2647,-264.4766C176.9187,-267.5801 208.632,-271.4166 231.8851,-274.2297"/>
<polygon fill="#191970" stroke="#191970" points="151.3922,-260.9665 141.0442,-263.2401 150.5514,-267.9159 151.3922,-260.9665"/>
</g>
<!-- Node3&#45;&gt;Node4 -->
<g id="edge3" class="edge">
<title>Node3&#45;&gt;Node4</title>
<path fill="none" stroke="#191970" d="M699.7524,-296.5501C738.7998,-338.0202 823.2556,-427.716 850.6453,-456.8052"/>
<polygon fill="#191970" stroke="#191970" points="702.1994,-294.0433 692.796,-289.1621 697.103,-298.842 702.1994,-294.0433"/>
</g>
<!-- Node6 -->
<g id="node6" class="node">
<title>Node6</title>
<g id="a_node6"><a xlink:href="classlocomotor_1_1core_1_1_comparator.html#a092fb76ad264eeccd8f30eadb70e36e3" target="_top" xlink:title="locomotor.core.Comparator.compute\lGradeOfItems">
<polygon fill="#ffffff" stroke="#000000" points="387.2256,-304.1174 387.2256,-332.1174 564.9785,-332.1174 564.9785,-304.1174 387.2256,-304.1174"/>
<text text-anchor="start" x="395.2256" y="-320.1174" font-family="Helvetica,sans-Serif" font-size="10.00" fill="#000000">locomotor.core.Comparator.compute</text>
<text text-anchor="middle" x="476.1021" y="-310.1174" font-family="Helvetica,sans-Serif" font-size="10.00" fill="#000000">GradeOfItems</text>
</a>
</g>
</g>
<!-- Node5&#45;&gt;Node6 -->
<g id="edge5" class="edge">
<title>Node5&#45;&gt;Node6</title>
<path fill="none" stroke="#191970" d="M361.7629,-316.5C370.2114,-316.6195 378.7306,-316.74 387.1042,-316.8585"/>
<polygon fill="#191970" stroke="#191970" points="361.5557,-312.9968 351.5072,-316.3549 361.4567,-319.9961 361.5557,-312.9968"/>
</g>
<!-- Node6&#45;&gt;Node3 -->
<g id="edge6" class="edge">
<title>Node6&#45;&gt;Node3</title>
<path fill="none" stroke="#191970" d="M552.4522,-301.9821C572.4665,-297.7524 593.8811,-293.2267 613.3198,-289.1187"/>
<polygon fill="#191970" stroke="#191970" points="551.5043,-298.605 542.4441,-304.0971 552.9517,-305.4537 551.5043,-298.605"/>
</g>
<!-- Node7&#45;&gt;Node3 -->
<g id="edge8" class="edge">
<title>Node7&#45;&gt;Node3</title>
<path fill="none" stroke="#191970" d="M521.5021,-460.272C536.3436,-456.7566 552.2649,-451.1282 564.9785,-442.1174 622.6409,-401.2492 660.3987,-321.6063 673.9611,-289.2711"/>
<polygon fill="#191970" stroke="#191970" points="520.519,-456.9021 511.4525,-462.3837 521.9585,-463.7525 520.519,-456.9021"/>
</g>
<!-- Node7&#45;&gt;Node4 -->
<g id="edge9" class="edge">
<title>Node7&#45;&gt;Node4</title>
<path fill="none" stroke="#191970" d="M521.803,-466.1174C589.4319,-466.1174 716.4939,-466.1174 793.9827,-466.1174"/>
<polygon fill="#191970" stroke="#191970" points="521.476,-462.6175 511.476,-466.1174 521.476,-469.6175 521.476,-462.6175"/>
</g>
<!-- Node8&#45;&gt;Node3 -->
<g id="edge11" class="edge">
<title>Node8&#45;&gt;Node3</title>
<path fill="none" stroke="#191970" d="M512.2602,-243.8703C537.8,-248.6401 572.9485,-255.2044 604.4394,-261.0857"/>
<polygon fill="#191970" stroke="#191970" points="512.7582,-240.4029 502.2856,-242.0075 511.4731,-247.2839 512.7582,-240.4029"/>
</g>
<!-- Node9&#45;&gt;Node3 -->
<g id="edge13" class="edge">
<title>Node9&#45;&gt;Node3</title>
<path fill="none" stroke="#191970" d="M519.0339,-207.0985C533.8079,-210.0761 550.3162,-214.0529 564.9785,-219.1174 597.4196,-230.323 632.5856,-248.4885 655.2841,-261.078"/>
<polygon fill="#191970" stroke="#191970" points="519.6074,-203.6448 509.1267,-205.1957 518.287,-210.5191 519.6074,-203.6448"/>
</g>
<!-- Node10&#45;&gt;Node8 -->
<g id="edge15" class="edge">
<title>Node10&#45;&gt;Node8</title>
<path fill="none" stroke="#191970" d="M328.5181,-212.7614C369.3355,-219.4976 419.9074,-227.8435 450.0038,-232.8104"/>
<polygon fill="#191970" stroke="#191970" points="329.074,-209.3059 318.6375,-211.1308 327.9341,-216.2124 329.074,-209.3059"/>
</g>
<!-- Node10&#45;&gt;Node9 -->
<g id="edge16" class="edge">
<title>Node10&#45;&gt;Node9</title>
<path fill="none" stroke="#191970" d="M329.0183,-201.5045C366.6594,-201.1495 412.4594,-200.7176 442.8479,-200.431"/>
<polygon fill="#191970" stroke="#191970" points="328.604,-198.0081 318.6375,-201.6024 328.6701,-205.0078 328.604,-198.0081"/>
</g>
<!-- Node11&#45;&gt;Node3 -->
<g id="edge18" class="edge">
<title>Node11&#45;&gt;Node3</title>
<path fill="none" stroke="#191970" d="M308.6366,-127.5928C369.2828,-131.0859 479.9229,-142.8142 564.9785,-182.1174 607.077,-201.5707 646.93,-240.0059 666.668,-260.8568"/>
<polygon fill="#191970" stroke="#191970" points="308.7981,-124.0965 298.6278,-127.0654 308.4298,-131.0868 308.7981,-124.0965"/>
</g>
<!-- Node12&#45;&gt;Node3 -->
<g id="edge20" class="edge">
<title>Node12&#45;&gt;Node3</title>
<path fill="none" stroke="#191970" d="M513.9106,-100.9366C530.5989,-107.7141 549.8216,-117.1393 564.9785,-129.1174 614.2763,-168.0761 654.9608,-232.3951 671.5504,-260.8352"/>
<polygon fill="#191970" stroke="#191970" points="515.0164,-97.6113 504.4277,-97.2527 512.4816,-104.1363 515.0164,-97.6113"/>
</g>
<!-- Node13&#45;&gt;Node3 -->
<g id="edge22" class="edge">
<title>Node13&#45;&gt;Node3</title>
<path fill="none" stroke="#191970" d="M529.3846,-53.9306C541.9473,-56.7923 554.6687,-61.4912 564.9785,-69.1174 633.0854,-119.4962 665.9745,-223.0908 676.0697,-260.9024"/>
<polygon fill="#191970" stroke="#191970" points="529.8738,-50.4606 519.3927,-52.0086 528.5515,-57.3346 529.8738,-50.4606"/>
</g>
<!-- Node14&#45;&gt;Node12 -->
<g id="edge24" class="edge">
<title>Node14&#45;&gt;Node12</title>
<path fill="none" stroke="#191970" d="M324.5143,-60.9563C361.7339,-67.6253 408.1964,-75.9503 439.8042,-81.6137"/>
<polygon fill="#191970" stroke="#191970" points="324.7422,-57.4415 314.2816,-59.1229 323.5075,-64.3318 324.7422,-57.4415"/>
</g>
<!-- Node14&#45;&gt;Node13 -->
<g id="edge25" class="edge">
<title>Node14&#45;&gt;Node13</title>
<path fill="none" stroke="#191970" d="M338.618,-50.1174C370.2239,-50.1174 405.9271,-50.1174 433.0277,-50.1174"/>
<polygon fill="#191970" stroke="#191970" points="338.5165,-46.6175 328.5164,-50.1174 338.5164,-53.6175 338.5165,-46.6175"/>
</g>
<!-- Node15&#45;&gt;Node3 -->
<g id="edge27" class="edge">
<title>Node15&#45;&gt;Node3</title>
<path fill="none" stroke="#191970" d="M530.7344,-352.0025C542.2454,-349.4796 554.1707,-346.2405 564.9785,-342.1174 600.5062,-328.5638 637.8409,-304.6485 659.8943,-289.3588"/>
<polygon fill="#191970" stroke="#191970" points="529.8609,-348.6086 520.7638,-354.0395 531.2621,-355.467 529.8609,-348.6086"/>
</g>
<!-- Node16&#45;&gt;Node15 -->
<g id="edge29" class="edge">
<title>Node16&#45;&gt;Node15</title>
<path fill="none" stroke="#191970" d="M315.5683,-354.0618C351.03,-355.3995 397.6564,-357.1583 431.5168,-358.4356"/>
<polygon fill="#191970" stroke="#191970" points="315.5411,-350.5584 305.4162,-353.6789 315.2771,-357.5534 315.5411,-350.5584"/>
</g>
<!-- Node17&#45;&gt;Node3 -->
<g id="edge31" class="edge">
<title>Node17&#45;&gt;Node3</title>
<path fill="none" stroke="#191970" d="M305.9845,-277.8145C374.8736,-277.3171 513.0262,-276.3198 600.6538,-275.6871"/>
<polygon fill="#191970" stroke="#191970" points="305.9135,-274.3148 295.939,-277.887 305.9641,-281.3146 305.9135,-274.3148"/>
</g>
</g>
</svg>
        <g id="navigator" transform="translate(0 0)" fill="#404254">
                <rect fill="#f2f5e9" fill-opacity="0.5" stroke="#606060" stroke-width=".5" x="0" y="0" width="60" height="60"/>
                <use id="zoomplus" xlink:href="#zoomPlus" x="17" y="9" onmousedown="handleZoom(evt,'in')"/>
                <use id="zoomminus" xlink:href="#zoomMin" x="42" y="9" onmousedown="handleZoom(evt,'out')"/>
                <use id="reset" xlink:href="#resetDef" x="30" y="36" onmousedown="handleReset()"/>
                <g id="arrowUp" xlink:href="#dirArrow" transform="translate(30 24)" onmousedown="handlePan(0,-1)">
                  <use xlink:href="#rim" fill="#404040">
                        <set attributeName="fill" to="#808080" begin="arrowUp.mouseover" end="arrowUp.mouseout"/>
                  </use>
                  <path fill="none" stroke="white" stroke-width="1.5" d="M0,-3.0v7 M-2.5,-0.5L0,-3.0L2.5,-0.5"/>
                </g>
                <g id="arrowRight" xlink:href="#dirArrow" transform="rotate(90) translate(36 -43)" onmousedown="handlePan(1,0)">
                  <use xlink:href="#rim" fill="#404040">
                        <set attributeName="fill" to="#808080" begin="arrowRight.mouseover" end="arrowRight.mouseout"/>
                  </use>
                  <path fill="none" stroke="white" stroke-width="1.5" d="M0,-3.0v7 M-2.5,-0.5L0,-3.0L2.5,-0.5"/>
                </g>
                <g id="arrowDown" xlink:href="#dirArrow" transform="rotate(180) translate(-30 -48)" onmousedown="handlePan(0,1)">
                  <use xlink:href="#rim" fill="#404040">
                        <set attributeName="fill" to="#808080" begin="arrowDown.mouseover" end="arrowDown.mouseout"/>
                  </use>
                  <path fill="none" stroke="white" stroke-width="1.5" d="M0,-3.0v7 M-2.5,-0.5L0,-3.0L2.5,-0.5"/>
                </g>
                <g id="arrowLeft" xlink:href="#dirArrow" transform="rotate(270) translate(-36 17)" onmousedown="handlePan(-1,0)">
                  <use xlink:href="#rim" fill="#404040">
                        <set attributeName="fill" to="#808080" begin="arrowLeft.mouseover" end="arrowLeft.mouseout"/>
                  </use>
                  <path fill="none" stroke="white" stroke-width="1.5" d="M0,-3.0v7 M-2.5,-0.5L0,-3.0L2.5,-0.5"/>
                </g>
        </g>
        <svg viewBox="0 0 15 15" width="100%" height="30px" preserveAspectRatio="xMaxYMin meet">
         <g id="arrow_out" transform="scale(0.3 0.3)">
          <a xlink:href="classlocomotor_1_1core_1_1_d_b_h_a2d5f1f766f5863a46ed29b7e56118364_icgraph_org.svg" target="_base">
           <rect id="button" ry="5" rx="5" y="6" x="6" height="38" width="38"
                fill="#f2f5e9" fill-opacity="0.5" stroke="#606060" stroke-width="1.0"/>
           <path id="arrow"
             d="M 11.500037,31.436501 C 11.940474,20.09759 22.043105,11.32322 32.158766,21.979434 L 37.068811,17.246167 C 37.068811,17.246167 37.088388,32 37.088388,32 L 22.160133,31.978069 C 22.160133,31.978069 26.997745,27.140456 26.997745,27.140456 C 18.528582,18.264221 13.291696,25.230495 11.500037,31.436501 z"
             style="fill:#404040;"/>
          </a>
         </g>
        </svg>
</svg>
