<?xml version="1.0" encoding="UTF-8" standalone="no"?>
<!DOCTYPE svg PUBLIC "-//W3C//DTD SVG 1.1//EN"
 "http://www.w3.org/Graphics/SVG/1.1/DTD/svg11.dtd">
<!-- Generated by graphviz version 2.40.1 (20161225.0304)
 -->
<!-- Title: getID Pages: 1 -->
<svg width="792pt" height="79pt"
 viewBox="0.00 0.00 791.72 79.00" xmlns="http://www.w3.org/2000/svg" xmlns:xlink="http://www.w3.org/1999/xlink">
<g id="graph0" class="graph" transform="scale(1 1) rotate(0) translate(4 75)">
<title>getID</title>
<polygon fill="#ffffff" stroke="transparent" points="-4,4 -4,-75 787.7168,-75 787.7168,4 -4,4"/>
<!-- Node1 -->
<g id="node1" class="node">
<title>Node1</title>
<polygon fill="#bfbfbf" stroke="#000000" points="0,-26.5 0,-44.5 39.9014,-44.5 39.9014,-26.5 0,-26.5"/>
<text text-anchor="middle" x="19.9507" y="-32.5" font-family="Helvetica,sans-Serif" font-size="10.00" fill="#000000">getID</text>
</g>
<!-- Node2 -->
<g id="node2" class="node">
<title>Node2</title>
<g id="a_node2"><a xlink:href="classlocomotor_1_1core_1_1_d_b_h.html#a0565ab8a7a56491fca163a1b0977c0db" target="_top" xlink:title="locomotor.core.DBH.update\lUniverse">
<polygon fill="#ffffff" stroke="#000000" points="272.4082,-42.5 272.4082,-70.5 411.2549,-70.5 411.2549,-42.5 272.4082,-42.5"/>
<text text-anchor="start" x="280.4082" y="-58.5" font-family="Helvetica,sans-Serif" font-size="10.00" fill="#000000">locomotor.core.DBH.update</text>
<text text-anchor="middle" x="341.8315" y="-48.5" font-family="Helvetica,sans-Serif" font-size="10.00" fill="#000000">Universe</text>
</a>
</g>
</g>
<!-- Node1&#45;&gt;Node2 -->
<g id="edge1" class="edge">
<title>Node1&#45;&gt;Node2</title>
<path fill="none" stroke="#191970" d="M50.3199,-37.4813C100.7735,-40.773 203.1285,-47.4508 272.1075,-51.9511"/>
<polygon fill="#191970" stroke="#191970" points="50.2925,-33.9722 40.0858,-36.8136 49.8367,-40.9573 50.2925,-33.9722"/>
</g>
<!-- Node5 -->
<g id="node5" class="node">
<title>Node5</title>
<g id="a_node5"><a xlink:href="classlocomotor_1_1core_1_1_d_b_h.html#a756e5af44b74ea39a44a71cde06102fd" target="_top" xlink:title="locomotor.core.DBH.checking\lParsingUniverse">
<polygon fill="#ffffff" stroke="#000000" points="75.9014,-.5 75.9014,-28.5 223.6299,-28.5 223.6299,-.5 75.9014,-.5"/>
<text text-anchor="start" x="83.9014" y="-16.5" font-family="Helvetica,sans-Serif" font-size="10.00" fill="#000000">locomotor.core.DBH.checking</text>
<text text-anchor="middle" x="149.7656" y="-6.5" font-family="Helvetica,sans-Serif" font-size="10.00" fill="#000000">ParsingUniverse</text>
</a>
</g>
</g>
<!-- Node1&#45;&gt;Node5 -->
<g id="edge4" class="edge">
<title>Node1&#45;&gt;Node5</title>
<path fill="none" stroke="#191970" d="M50.0258,-30.6348C57.908,-29.3597 66.764,-27.9271 75.8604,-26.4556"/>
<polygon fill="#191970" stroke="#191970" points="49.2625,-27.2127 39.9498,-32.2648 50.3804,-34.1228 49.2625,-27.2127"/>
</g>
<!-- Node3 -->
<g id="node3" class="node">
<title>Node3</title>
<g id="a_node3"><a xlink:href="classlocomotor_1_1components_1_1network_1_1_a_p_i.html#a547463fbc7fb7b485886f0917e2c0b78" target="_top" xlink:title="locomotor.components.network.\lAPI.createHooks">
<polygon fill="#ffffff" stroke="#000000" points="460.0332,-21.5 460.0332,-49.5 617.2197,-49.5 617.2197,-21.5 460.0332,-21.5"/>
<text text-anchor="start" x="468.0332" y="-37.5" font-family="Helvetica,sans-Serif" font-size="10.00" fill="#000000">locomotor.components.network.</text>
<text text-anchor="middle" x="538.6265" y="-27.5" font-family="Helvetica,sans-Serif" font-size="10.00" fill="#000000">API.createHooks</text>
</a>
</g>
</g>
<!-- Node2&#45;&gt;Node3 -->
<g id="edge2" class="edge">
<title>Node2&#45;&gt;Node3</title>
<path fill="none" stroke="#191970" d="M421.5527,-47.993C434.2347,-46.6397 447.3464,-45.2405 460.0028,-43.8899"/>
<polygon fill="#191970" stroke="#191970" points="421.0632,-44.5252 411.491,-49.0666 421.806,-51.4857 421.0632,-44.5252"/>
</g>
<!-- Node4 -->
<g id="node4" class="node">
<title>Node4</title>
<g id="a_node4"><a xlink:href="classlocomotor_1_1core_1_1_main.html#a8b260eecbaabcef8473fd87ada040682" target="_top" xlink:title="locomotor.core.Main.main">
<polygon fill="#ffffff" stroke="#000000" points="653.2197,-26.5 653.2197,-44.5 783.7168,-44.5 783.7168,-26.5 653.2197,-26.5"/>
<text text-anchor="middle" x="718.4683" y="-32.5" font-family="Helvetica,sans-Serif" font-size="10.00" fill="#000000">locomotor.core.Main.main</text>
</a>
</g>
</g>
<!-- Node3&#45;&gt;Node4 -->
<g id="edge3" class="edge">
<title>Node3&#45;&gt;Node4</title>
<path fill="none" stroke="#191970" d="M627.4195,-35.5C636.1078,-35.5 644.8101,-35.5 653.202,-35.5"/>
<polygon fill="#191970" stroke="#191970" points="627.2461,-32.0001 617.2461,-35.5 627.246,-39.0001 627.2461,-32.0001"/>
</g>
<!-- Node5&#45;&gt;Node2 -->
<g id="edge7" class="edge">
<title>Node5&#45;&gt;Node2</title>
<path fill="none" stroke="#191970" d="M224.2354,-30.7847C241.8736,-34.6417 260.5352,-38.7225 277.6699,-42.4694"/>
<polygon fill="#191970" stroke="#191970" points="224.5047,-27.2609 213.9878,-28.5438 223.0093,-34.0993 224.5047,-27.2609"/>
</g>
<!-- Node6 -->
<g id="node6" class="node">
<title>Node6</title>
<g id="a_node6"><a xlink:href="classlocomotor_1_1core_1_1_d_b_h.html#a2b2232ca307c4877316e8b6097902f2c" target="_top" xlink:title="locomotor.core.DBH.addUniverse">
<polygon fill="#ffffff" stroke="#000000" points="259.6299,-5.5 259.6299,-23.5 424.0332,-23.5 424.0332,-5.5 259.6299,-5.5"/>
<text text-anchor="middle" x="341.8315" y="-11.5" font-family="Helvetica,sans-Serif" font-size="10.00" fill="#000000">locomotor.core.DBH.addUniverse</text>
</a>
</g>
</g>
<!-- Node5&#45;&gt;Node6 -->
<g id="edge5" class="edge">
<title>Node5&#45;&gt;Node6</title>
<path fill="none" stroke="#191970" d="M234.0188,-14.5C242.504,-14.5 251.1139,-14.5 259.5779,-14.5"/>
<polygon fill="#191970" stroke="#191970" points="233.7486,-11.0001 223.7486,-14.5 233.7486,-18.0001 233.7486,-11.0001"/>
</g>
<!-- Node6&#45;&gt;Node3 -->
<g id="edge6" class="edge">
<title>Node6&#45;&gt;Node3</title>
<path fill="none" stroke="#191970" d="M434.1629,-24.3527C442.7298,-25.2669 451.3582,-26.1876 459.7872,-27.0871"/>
<polygon fill="#191970" stroke="#191970" points="434.465,-20.8651 424.15,-23.2842 433.7222,-27.8256 434.465,-20.8651"/>
</g>
</g>
</svg>
