<?xml version="1.0" encoding="UTF-8" standalone="no"?>
<!DOCTYPE svg PUBLIC "-//W3C//DTD SVG 1.1//EN"
 "http://www.w3.org/Graphics/SVG/1.1/DTD/svg11.dtd">
<!-- Generated by graphviz version 2.40.1 (20161225.0304)
 -->
<!-- Title: pop Pages: 1 -->
<svg width="400pt" height="37pt"
 viewBox="0.00 0.00 400.37 37.00" xmlns="http://www.w3.org/2000/svg" xmlns:xlink="http://www.w3.org/1999/xlink">
<g id="graph0" class="graph" transform="scale(1 1) rotate(0) translate(4 33)">
<title>pop</title>
<polygon fill="#ffffff" stroke="transparent" points="-4,4 -4,-33 396.3682,-33 396.3682,4 -4,4"/>
<!-- Node1 -->
<g id="node1" class="node">
<title>Node1</title>
<polygon fill="#bfbfbf" stroke="#000000" points="0,-5.5 0,-23.5 32.6846,-23.5 32.6846,-5.5 0,-5.5"/>
<text text-anchor="middle" x="16.3423" y="-11.5" font-family="Helvetica,sans-Serif" font-size="10.00" fill="#000000">pop</text>
</g>
<!-- Node2 -->
<g id="node2" class="node">
<title>Node2</title>
<g id="a_node2"><a xlink:href="classlocomotor_1_1components_1_1network_1_1_a_p_i.html#a547463fbc7fb7b485886f0917e2c0b78" target="_top" xlink:title="locomotor.components.network.\lAPI.createHooks">
<polygon fill="#ffffff" stroke="#000000" points="68.6846,-.5 68.6846,-28.5 225.8711,-28.5 225.8711,-.5 68.6846,-.5"/>
<text text-anchor="start" x="76.6846" y="-16.5" font-family="Helvetica,sans-Serif" font-size="10.00" fill="#000000">locomotor.components.network.</text>
<text text-anchor="middle" x="147.2778" y="-6.5" font-family="Helvetica,sans-Serif" font-size="10.00" fill="#000000">API.createHooks</text>
</a>
</g>
</g>
<!-- Node1&#45;&gt;Node2 -->
<g id="edge1" class="edge">
<title>Node1&#45;&gt;Node2</title>
<path fill="none" stroke="#191970" d="M42.953,-14.5C50.6278,-14.5 59.4191,-14.5 68.5706,-14.5"/>
<polygon fill="#191970" stroke="#191970" points="42.9254,-11.0001 32.9254,-14.5 42.9253,-18.0001 42.9254,-11.0001"/>
</g>
<!-- Node3 -->
<g id="node3" class="node">
<title>Node3</title>
<g id="a_node3"><a xlink:href="classlocomotor_1_1core_1_1_main.html#a8b260eecbaabcef8473fd87ada040682" target="_top" xlink:title="locomotor.core.Main.main">
<polygon fill="#ffffff" stroke="#000000" points="261.8711,-5.5 261.8711,-23.5 392.3682,-23.5 392.3682,-5.5 261.8711,-5.5"/>
<text text-anchor="middle" x="327.1196" y="-11.5" font-family="Helvetica,sans-Serif" font-size="10.00" fill="#000000">locomotor.core.Main.main</text>
</a>
</g>
</g>
<!-- Node2&#45;&gt;Node3 -->
<g id="edge2" class="edge">
<title>Node2&#45;&gt;Node3</title>
<path fill="none" stroke="#191970" d="M236.0709,-14.5C244.7592,-14.5 253.4615,-14.5 261.8534,-14.5"/>
<polygon fill="#191970" stroke="#191970" points="235.8975,-11.0001 225.8974,-14.5 235.8974,-18.0001 235.8975,-11.0001"/>
</g>
</g>
</svg>
