<?xml version="1.0" encoding="UTF-8" standalone="no"?>
<!DOCTYPE svg PUBLIC "-//W3C//DTD SVG 1.1//EN"
 "http://www.w3.org/Graphics/SVG/1.1/DTD/svg11.dtd">
<!-- Generated by graphviz version 2.40.1 (20161225.0304)
 -->
<!-- Title: Gaussian Pages: 1 -->
<svg width="172pt" height="102pt"
 viewBox="0.00 0.00 171.62 102.00" xmlns="http://www.w3.org/2000/svg" xmlns:xlink="http://www.w3.org/1999/xlink">
<g id="graph0" class="graph" transform="scale(1 1) rotate(0) translate(4 98)">
<title>Gaussian</title>
<polygon fill="#ffffff" stroke="transparent" points="-4,4 -4,-98 167.6191,-98 167.6191,4 -4,4"/>
<!-- Node1 -->
<g id="node1" class="node">
<title>Node1</title>
<polygon fill="#bfbfbf" stroke="#000000" points="41.7871,-.5 41.7871,-18.5 100.0332,-18.5 100.0332,-.5 41.7871,-.5"/>
<text text-anchor="middle" x="70.9102" y="-6.5" font-family="Helvetica,sans-Serif" font-size="10.00" fill="#000000">Gaussian</text>
</g>
<!-- Node1&#45;&gt;Node1 -->
<g id="edge1" class="edge">
<title>Node1&#45;&gt;Node1</title>
<path fill="none" stroke="#9a32cd" stroke-dasharray="5,2" d="M110.6168,-15.22C115.1168,-14.1489 118.0332,-12.2422 118.0332,-9.5 118.0332,-5 110.1794,-2.75 100.3621,-2.75"/>
<polygon fill="#9a32cd" stroke="#9a32cd" points="109.9622,-11.7681 100.3621,-16.25 110.6618,-18.733 109.9622,-11.7681"/>
<text text-anchor="middle" x="140.8262" y="-6.5" font-family="Helvetica,sans-Serif" font-size="10.00" fill="#000000"> _instance</text>
</g>
<!-- Node2 -->
<g id="node2" class="node">
<title>Node2</title>
<polygon fill="#ffffff" stroke="#bfbfbf" points="0,-75.5 0,-93.5 141.8203,-93.5 141.8203,-75.5 0,-75.5"/>
<text text-anchor="middle" x="70.9102" y="-81.5" font-family="Helvetica,sans-Serif" font-size="10.00" fill="#000000">TreeMap&lt; Double, Double &gt;</text>
</g>
<!-- Node2&#45;&gt;Node1 -->
<g id="edge2" class="edge">
<title>Node2&#45;&gt;Node1</title>
<path fill="none" stroke="#9a32cd" stroke-dasharray="5,2" d="M70.9102,-65.1079C70.9102,-50.2042 70.9102,-30.2791 70.9102,-18.7717"/>
<polygon fill="#9a32cd" stroke="#9a32cd" points="67.4103,-65.3035 70.9102,-75.3035 74.4103,-65.3036 67.4103,-65.3035"/>
<text text-anchor="middle" x="99.2646" y="-49" font-family="Helvetica,sans-Serif" font-size="10.00" fill="#000000"> _pdfLookUp</text>
<text text-anchor="middle" x="99.2646" y="-39" font-family="Helvetica,sans-Serif" font-size="10.00" fill="#000000">_cdfLookUp</text>
</g>
</g>
</svg>
