<?xml version="1.0" encoding="UTF-8" standalone="no"?>
<!DOCTYPE svg PUBLIC "-//W3C//DTD SVG 1.1//EN"
 "http://www.w3.org/Graphics/SVG/1.1/DTD/svg11.dtd">
<!-- Generated by graphviz version 2.40.1 (20161225.0304)
 -->
<!-- Title: createHash Pages: 1 -->
<svg width="634pt" height="74pt"
 viewBox="0.00 0.00 633.54 74.00" xmlns="http://www.w3.org/2000/svg" xmlns:xlink="http://www.w3.org/1999/xlink">
<g id="graph0" class="graph" transform="scale(1 1) rotate(0) translate(4 70)">
<title>createHash</title>
<polygon fill="#ffffff" stroke="transparent" points="-4,4 -4,-70 629.54,-70 629.54,4 -4,4"/>
<!-- Node1 -->
<g id="node1" class="node">
<title>Node1</title>
<polygon fill="#bfbfbf" stroke="#000000" points="0,-21.5 0,-39.5 67.1377,-39.5 67.1377,-21.5 0,-21.5"/>
<text text-anchor="middle" x="33.5688" y="-27.5" font-family="Helvetica,sans-Serif" font-size="10.00" fill="#000000">createHash</text>
</g>
<!-- Node2 -->
<g id="node2" class="node">
<title>Node2</title>
<g id="a_node2"><a xlink:href="classlocomotor_1_1core_1_1_d_b_h.html#a17eef13d222e2f7d4cc413a965de3069" target="_top" xlink:title="locomotor.core.DBH.registerUser">
<polygon fill="#ffffff" stroke="#000000" points="103.1377,-.5 103.1377,-18.5 265.8564,-18.5 265.8564,-.5 103.1377,-.5"/>
<text text-anchor="middle" x="184.4971" y="-6.5" font-family="Helvetica,sans-Serif" font-size="10.00" fill="#000000">locomotor.core.DBH.registerUser</text>
</a>
</g>
</g>
<!-- Node1&#45;&gt;Node2 -->
<g id="edge1" class="edge">
<title>Node1&#45;&gt;Node2</title>
<path fill="none" stroke="#191970" d="M77.6429,-24.3676C90.8304,-22.5327 105.5742,-20.4813 119.7972,-18.5023"/>
<polygon fill="#191970" stroke="#191970" points="76.8623,-20.9424 67.4401,-25.7872 77.827,-27.8756 76.8623,-20.9424"/>
</g>
<!-- Node5 -->
<g id="node5" class="node">
<title>Node5</title>
<g id="a_node5"><a xlink:href="classlocomotor_1_1core_1_1_d_b_h.html#a74b4c9978e018cf8fa6b5c48d563f6da" target="_top" xlink:title="locomotor.core.DBH.change\lPassword">
<polygon fill="#ffffff" stroke="#000000" points="113.9629,-37.5 113.9629,-65.5 255.0313,-65.5 255.0313,-37.5 113.9629,-37.5"/>
<text text-anchor="start" x="121.9629" y="-53.5" font-family="Helvetica,sans-Serif" font-size="10.00" fill="#000000">locomotor.core.DBH.change</text>
<text text-anchor="middle" x="184.4971" y="-43.5" font-family="Helvetica,sans-Serif" font-size="10.00" fill="#000000">Password</text>
</a>
</g>
</g>
<!-- Node1&#45;&gt;Node5 -->
<g id="edge5" class="edge">
<title>Node1&#45;&gt;Node5</title>
<path fill="none" stroke="#191970" d="M77.4977,-36.6122C88.8459,-38.1912 101.3542,-39.9316 113.6956,-41.6488"/>
<polygon fill="#191970" stroke="#191970" points="77.827,-33.1244 67.4401,-35.2128 76.8623,-40.0576 77.827,-33.1244"/>
</g>
<!-- Node3 -->
<g id="node3" class="node">
<title>Node3</title>
<g id="a_node3"><a xlink:href="classlocomotor_1_1components_1_1network_1_1_a_p_i.html#a547463fbc7fb7b485886f0917e2c0b78" target="_top" xlink:title="locomotor.components.network.\lAPI.createHooks">
<polygon fill="#ffffff" stroke="#000000" points="301.8564,-37.5 301.8564,-65.5 459.043,-65.5 459.043,-37.5 301.8564,-37.5"/>
<text text-anchor="start" x="309.8564" y="-53.5" font-family="Helvetica,sans-Serif" font-size="10.00" fill="#000000">locomotor.components.network.</text>
<text text-anchor="middle" x="380.4497" y="-43.5" font-family="Helvetica,sans-Serif" font-size="10.00" fill="#000000">API.createHooks</text>
</a>
</g>
</g>
<!-- Node2&#45;&gt;Node3 -->
<g id="edge2" class="edge">
<title>Node2&#45;&gt;Node3</title>
<path fill="none" stroke="#191970" d="M236.5308,-20.6528C260.5951,-25.8107 289.4392,-31.993 314.9651,-37.4642"/>
<polygon fill="#191970" stroke="#191970" points="237.0453,-17.1836 226.5338,-18.5101 235.5782,-24.0282 237.0453,-17.1836"/>
</g>
<!-- Node4 -->
<g id="node4" class="node">
<title>Node4</title>
<g id="a_node4"><a xlink:href="classlocomotor_1_1core_1_1_main.html#a8b260eecbaabcef8473fd87ada040682" target="_top" xlink:title="locomotor.core.Main.main">
<polygon fill="#ffffff" stroke="#000000" points="495.043,-20.5 495.043,-38.5 625.54,-38.5 625.54,-20.5 495.043,-20.5"/>
<text text-anchor="middle" x="560.2915" y="-26.5" font-family="Helvetica,sans-Serif" font-size="10.00" fill="#000000">locomotor.core.Main.main</text>
</a>
</g>
</g>
<!-- Node2&#45;&gt;Node4 -->
<g id="edge4" class="edge">
<title>Node2&#45;&gt;Node4</title>
<path fill="none" stroke="#191970" d="M276.2728,-14.3844C343.9401,-17.9856 434.3691,-22.7983 494.8348,-26.0164"/>
<polygon fill="#191970" stroke="#191970" points="276.2108,-10.8762 266.0389,-13.8397 275.8387,-17.8663 276.2108,-10.8762"/>
</g>
<!-- Node3&#45;&gt;Node4 -->
<g id="edge3" class="edge">
<title>Node3&#45;&gt;Node4</title>
<path fill="none" stroke="#191970" d="M469.2427,-40.638C477.931,-39.5751 486.6334,-38.5106 495.0252,-37.484"/>
<polygon fill="#191970" stroke="#191970" points="468.5703,-37.1941 459.0693,-41.8825 469.4203,-44.1423 468.5703,-37.1941"/>
</g>
<!-- Node5&#45;&gt;Node3 -->
<g id="edge6" class="edge">
<title>Node5&#45;&gt;Node3</title>
<path fill="none" stroke="#191970" d="M265.2867,-51.5C277.3673,-51.5 289.8077,-51.5 301.8421,-51.5"/>
<polygon fill="#191970" stroke="#191970" points="265.2405,-48.0001 255.2405,-51.5 265.2404,-55.0001 265.2405,-48.0001"/>
</g>
</g>
</svg>
