<?xml version="1.0" encoding="UTF-8" standalone="no"?>
<!DOCTYPE svg PUBLIC "-//W3C//DTD SVG 1.1//EN"
 "http://www.w3.org/Graphics/SVG/1.1/DTD/svg11.dtd">
<!-- Generated by graphviz version 2.40.1 (20161225.0304)
 -->
<!-- Title: CStringList Pages: 1 -->
<svg width="465pt" height="204pt"
 viewBox="0.00 0.00 465.03 204.00" xmlns="http://www.w3.org/2000/svg" xmlns:xlink="http://www.w3.org/1999/xlink">
<g id="graph0" class="graph" transform="scale(1 1) rotate(0) translate(4 200)">
<title>CStringList</title>
<polygon fill="#ffffff" stroke="transparent" points="-4,4 -4,-200 461.0283,-200 461.0283,4 -4,4"/>
<!-- Node1 -->
<g id="node1" class="node">
<title>Node1</title>
<polygon fill="#bfbfbf" stroke="#000000" points="195,-.5 195,-18.5 259.9063,-18.5 259.9063,-.5 195,-.5"/>
<text text-anchor="middle" x="227.4531" y="-6.5" font-family="Helvetica,sans-Serif" font-size="10.00" fill="#000000">CStringList</text>
</g>
<!-- Node2 -->
<g id="node2" class="node">
<title>Node2</title>
<g id="a_node2"><a xlink:href="interfacelocomotor_1_1components_1_1types_1_1_c_universe_type.html" target="_top" xlink:title="CUniverseType">
<polygon fill="#ffffff" stroke="#000000" points="43.271,-65.5 43.271,-83.5 127.6353,-83.5 127.6353,-65.5 43.271,-65.5"/>
<text text-anchor="middle" x="85.4531" y="-71.5" font-family="Helvetica,sans-Serif" font-size="10.00" fill="#000000">CUniverseType</text>
</a>
</g>
</g>
<!-- Node2&#45;&gt;Node1 -->
<g id="edge1" class="edge">
<title>Node2&#45;&gt;Node1</title>
<path fill="none" stroke="#191970" d="M114.3893,-61.2545C142.0907,-48.5743 183.152,-29.7787 207.4186,-18.6708"/>
<polygon fill="#191970" stroke="#191970" points="112.8335,-58.1174 105.1976,-65.462 115.7471,-64.4823 112.8335,-58.1174"/>
</g>
<!-- Node3 -->
<g id="node3" class="node">
<title>Node3</title>
<g id="a_node3"><a xlink:href="interfacelocomotor_1_1components_1_1types_1_1_c_type.html" target="_top" xlink:title="CType">
<polygon fill="#ffffff" stroke="#000000" points="0,-177.5 0,-195.5 44.9063,-195.5 44.9063,-177.5 0,-177.5"/>
<text text-anchor="middle" x="22.4531" y="-183.5" font-family="Helvetica,sans-Serif" font-size="10.00" fill="#000000">CType</text>
</a>
</g>
</g>
<!-- Node3&#45;&gt;Node2 -->
<g id="edge2" class="edge">
<title>Node3&#45;&gt;Node2</title>
<path fill="none" stroke="#191970" d="M20.8065,-167.2163C20.4913,-153.5402 21.854,-135.1737 29.4531,-121 38.2904,-104.5168 55.6264,-91.5507 68.6808,-83.5442"/>
<polygon fill="#191970" stroke="#191970" points="17.3229,-167.6129 21.3658,-177.406 24.3124,-167.2292 17.3229,-167.6129"/>
</g>
<!-- Node6 -->
<g id="node6" class="node">
<title>Node6</title>
<g id="a_node6"><a xlink:href="interfacelocomotor_1_1components_1_1types_1_1_c_comparable_type.html" target="_top" xlink:title="CComparableType">
<polygon fill="#ffffff" stroke="#000000" points="150.7637,-121.5 150.7637,-139.5 250.1426,-139.5 250.1426,-121.5 150.7637,-121.5"/>
<text text-anchor="middle" x="200.4531" y="-127.5" font-family="Helvetica,sans-Serif" font-size="10.00" fill="#000000">CComparableType</text>
</a>
</g>
</g>
<!-- Node3&#45;&gt;Node6 -->
<g id="edge6" class="edge">
<title>Node3&#45;&gt;Node6</title>
<path fill="none" stroke="#191970" d="M54.7162,-176.3498C88.0526,-165.862 139.6032,-149.6438 171.6194,-139.5713"/>
<polygon fill="#191970" stroke="#191970" points="53.4856,-173.0678 44.9969,-179.4076 55.5864,-179.7451 53.4856,-173.0678"/>
</g>
<!-- Node4 -->
<g id="node4" class="node">
<title>Node4</title>
<g id="a_node4"><a xlink:href="interfacelocomotor_1_1components_1_1_j_s_o_n_displayable.html" target="_top" xlink:title="JSONDisplayable">
<polygon fill="#ffffff" stroke="#000000" points="38.271,-121.5 38.271,-139.5 132.6353,-139.5 132.6353,-121.5 38.271,-121.5"/>
<text text-anchor="middle" x="85.4531" y="-127.5" font-family="Helvetica,sans-Serif" font-size="10.00" fill="#000000">JSONDisplayable</text>
</a>
</g>
</g>
<!-- Node4&#45;&gt;Node2 -->
<g id="edge3" class="edge">
<title>Node4&#45;&gt;Node2</title>
<path fill="none" stroke="#191970" d="M85.4531,-111.2065C85.4531,-101.8384 85.4531,-91.0262 85.4531,-83.5752"/>
<polygon fill="#191970" stroke="#191970" points="81.9532,-111.2527 85.4531,-121.2527 88.9532,-111.2528 81.9532,-111.2527"/>
</g>
<!-- Node5 -->
<g id="node5" class="node">
<title>Node5</title>
<g id="a_node5"><a xlink:href="interfacelocomotor_1_1components_1_1types_1_1_c_item_type.html" target="_top" xlink:title="CItemType">
<polygon fill="#ffffff" stroke="#000000" points="155.2759,-65.5 155.2759,-83.5 219.6304,-83.5 219.6304,-65.5 155.2759,-65.5"/>
<text text-anchor="middle" x="187.4531" y="-71.5" font-family="Helvetica,sans-Serif" font-size="10.00" fill="#000000">CItemType</text>
</a>
</g>
</g>
<!-- Node4&#45;&gt;Node5 -->
<g id="edge7" class="edge">
<title>Node4&#45;&gt;Node5</title>
<path fill="none" stroke="#191970" d="M111.2032,-116.3627C129.9446,-106.0733 154.7702,-92.4436 170.9233,-83.5752"/>
<polygon fill="#191970" stroke="#191970" points="109.3777,-113.3721 102.2964,-121.2527 112.7466,-119.5081 109.3777,-113.3721"/>
</g>
<!-- Node5&#45;&gt;Node1 -->
<g id="edge4" class="edge">
<title>Node5&#45;&gt;Node1</title>
<path fill="none" stroke="#191970" d="M198.473,-56.5926C205.9857,-44.3846 215.6318,-28.7097 221.6795,-18.8821"/>
<polygon fill="#191970" stroke="#191970" points="195.2752,-55.1111 193.015,-65.462 201.2368,-58.7798 195.2752,-55.1111"/>
</g>
<!-- Node6&#45;&gt;Node5 -->
<g id="edge5" class="edge">
<title>Node6&#45;&gt;Node5</title>
<path fill="none" stroke="#191970" d="M196.0451,-111.5115C193.8542,-102.0738 191.3084,-91.1072 189.5599,-83.5752"/>
<polygon fill="#191970" stroke="#191970" points="192.6357,-112.3032 198.3064,-121.2527 199.4544,-110.7203 192.6357,-112.3032"/>
</g>
<!-- Node8 -->
<g id="node8" class="node">
<title>Node8</title>
<g id="a_node8"><a xlink:href="interfacelocomotor_1_1components_1_1types_1_1_c_user_type.html" target="_top" xlink:title="CUserType">
<polygon fill="#ffffff" stroke="#000000" points="237.4434,-65.5 237.4434,-83.5 303.4629,-83.5 303.4629,-65.5 237.4434,-65.5"/>
<text text-anchor="middle" x="270.4531" y="-71.5" font-family="Helvetica,sans-Serif" font-size="10.00" fill="#000000">CUserType</text>
</a>
</g>
</g>
<!-- Node6&#45;&gt;Node8 -->
<g id="edge10" class="edge">
<title>Node6&#45;&gt;Node8</title>
<path fill="none" stroke="#191970" d="M220.0932,-114.788C232.683,-104.7161 248.5805,-91.9981 259.1091,-83.5752"/>
<polygon fill="#191970" stroke="#191970" points="217.6345,-112.2727 212.0122,-121.2527 222.0074,-117.7388 217.6345,-112.2727"/>
</g>
<!-- Node7 -->
<g id="node7" class="node">
<title>Node7</title>
<g id="a_node7"><a xlink:href="interfacelocomotor_1_1components_1_1_j_s_o_n_convertissable.html" target="_top" xlink:title="JSONConvertissable">
<polygon fill="#ffffff" stroke="#000000" points="268.0469,-121.5 268.0469,-139.5 376.8594,-139.5 376.8594,-121.5 268.0469,-121.5"/>
<text text-anchor="middle" x="322.4531" y="-127.5" font-family="Helvetica,sans-Serif" font-size="10.00" fill="#000000">JSONConvertissable</text>
</a>
</g>
</g>
<!-- Node7&#45;&gt;Node5 -->
<g id="edge8" class="edge">
<title>Node7&#45;&gt;Node5</title>
<path fill="none" stroke="#191970" d="M291.0399,-117.4693C266.0063,-107.085 231.593,-92.8099 209.4343,-83.6181"/>
<polygon fill="#191970" stroke="#191970" points="289.8847,-120.7793 300.4626,-121.378 292.5668,-114.3135 289.8847,-120.7793"/>
</g>
<!-- Node7&#45;&gt;Node8 -->
<g id="edge11" class="edge">
<title>Node7&#45;&gt;Node8</title>
<path fill="none" stroke="#191970" d="M307.0481,-113.9099C297.833,-103.986 286.4758,-91.7551 278.8801,-83.5752"/>
<polygon fill="#191970" stroke="#191970" points="304.4971,-116.3064 313.8664,-121.2527 309.6266,-111.5432 304.4971,-116.3064"/>
</g>
<!-- Node8&#45;&gt;Node1 -->
<g id="edge9" class="edge">
<title>Node8&#45;&gt;Node1</title>
<path fill="none" stroke="#191970" d="M258.8459,-56.9542C250.7364,-44.6956 240.2255,-28.807 233.6598,-18.8821"/>
<polygon fill="#191970" stroke="#191970" points="256.0377,-59.0529 264.4742,-65.462 261.8758,-55.1907 256.0377,-59.0529"/>
</g>
<!-- Node9 -->
<g id="node9" class="node">
<title>Node9</title>
<polygon fill="#ffffff" stroke="#bfbfbf" points="321.8779,-65.5 321.8779,-83.5 457.0283,-83.5 457.0283,-65.5 321.8779,-65.5"/>
<text text-anchor="middle" x="389.4531" y="-71.5" font-family="Helvetica,sans-Serif" font-size="10.00" fill="#000000">TreeMap&lt; Integer, String &gt;</text>
</g>
<!-- Node9&#45;&gt;Node1 -->
<g id="edge12" class="edge">
<title>Node9&#45;&gt;Node1</title>
<path fill="none" stroke="#9a32cd" stroke-dasharray="5,2" d="M357.2369,-61.5737C325.5301,-48.8519 277.9301,-29.7531 250.0478,-18.5658"/>
<polygon fill="#9a32cd" stroke="#9a32cd" points="356.3436,-64.9865 366.9277,-65.462 358.9502,-58.4899 356.3436,-64.9865"/>
<text text-anchor="middle" x="336.0762" y="-39" font-family="Helvetica,sans-Serif" font-size="10.00" fill="#000000"> _values</text>
</g>
</g>
</svg>
