<?xml version="1.0" encoding="UTF-8" standalone="no"?>
<!DOCTYPE svg PUBLIC "-//W3C//DTD SVG 1.1//EN"
 "http://www.w3.org/Graphics/SVG/1.1/DTD/svg11.dtd">
<!-- Generated by graphviz version 2.40.1 (20161225.0304)
 -->
<!-- Title: checkingParsingUniverse Pages: 1 -->
<svg width="518pt" height="346pt"
 viewBox="0.00 0.00 517.68 346.00" xmlns="http://www.w3.org/2000/svg" xmlns:xlink="http://www.w3.org/1999/xlink">
<g id="graph0" class="graph" transform="scale(1 1) rotate(0) translate(4 342)">
<title>checkingParsingUniverse</title>
<polygon fill="#ffffff" stroke="transparent" points="-4,4 -4,-342 513.6777,-342 513.6777,4 -4,4"/>
<!-- Node1 -->
<g id="node1" class="node">
<title>Node1</title>
<polygon fill="#bfbfbf" stroke="#000000" points="0,-167.5 0,-185.5 128.832,-185.5 128.832,-167.5 0,-167.5"/>
<text text-anchor="middle" x="64.416" y="-173.5" font-family="Helvetica,sans-Serif" font-size="10.00" fill="#000000">checkingParsingUniverse</text>
</g>
<!-- Node2 -->
<g id="node2" class="node">
<title>Node2</title>
<g id="a_node2"><a xlink:href="classlocomotor_1_1components_1_1models_1_1_universe.html#a34e60b6081b4c555dc9f5b872cbe044e" target="_top" xlink:title="locomotor.components.models.\lUniverse.getID">
<polygon fill="#ffffff" stroke="#000000" points="164.8394,-309.5 164.8394,-337.5 319.2476,-337.5 319.2476,-309.5 164.8394,-309.5"/>
<text text-anchor="start" x="172.8394" y="-325.5" font-family="Helvetica,sans-Serif" font-size="10.00" fill="#000000">locomotor.components.models.</text>
<text text-anchor="middle" x="242.0435" y="-315.5" font-family="Helvetica,sans-Serif" font-size="10.00" fill="#000000">Universe.getID</text>
</a>
</g>
</g>
<!-- Node1&#45;&gt;Node2 -->
<g id="edge1" class="edge">
<title>Node1&#45;&gt;Node2</title>
<path fill="none" stroke="#191970" d="M69.165,-185.5424C81.6366,-208.4001 117.6387,-268.9145 164.832,-300.5 167.2294,-302.1045 169.7417,-303.5998 172.3348,-304.993"/>
<polygon fill="#191970" stroke="#191970" points="170.8828,-308.1783 181.413,-309.3471 173.91,-301.8667 170.8828,-308.1783"/>
</g>
<!-- Node3 -->
<g id="node3" class="node">
<title>Node3</title>
<g id="a_node3"><a xlink:href="classlocomotor_1_1components_1_1models_1_1_universe.html#a78ee178b6a73658d65ca60da4d1e6683" target="_top" xlink:title="locomotor.components.models.\lUniverse.getName">
<polygon fill="#ffffff" stroke="#000000" points="164.8394,-262.5 164.8394,-290.5 319.2476,-290.5 319.2476,-262.5 164.8394,-262.5"/>
<text text-anchor="start" x="172.8394" y="-278.5" font-family="Helvetica,sans-Serif" font-size="10.00" fill="#000000">locomotor.components.models.</text>
<text text-anchor="middle" x="242.0435" y="-268.5" font-family="Helvetica,sans-Serif" font-size="10.00" fill="#000000">Universe.getName</text>
</a>
</g>
</g>
<!-- Node1&#45;&gt;Node3 -->
<g id="edge2" class="edge">
<title>Node1&#45;&gt;Node3</title>
<path fill="none" stroke="#191970" d="M73.8504,-185.6839C90.7405,-201.6519 127.848,-234.6275 164.832,-253.5 168.5462,-255.3953 172.4425,-257.1611 176.428,-258.8018"/>
<polygon fill="#191970" stroke="#191970" points="175.2555,-262.1006 185.846,-262.4054 177.7571,-255.5628 175.2555,-262.1006"/>
</g>
<!-- Node4 -->
<g id="node4" class="node">
<title>Node4</title>
<g id="a_node4"><a xlink:href="classlocomotor_1_1core_1_1_d_b_h.html#a0b2d292079fe232a4c3dae4636167641" target="_top" xlink:title="getInstance">
<polygon fill="#ffffff" stroke="#000000" points="208.1914,-225.5 208.1914,-243.5 275.8955,-243.5 275.8955,-225.5 208.1914,-225.5"/>
<text text-anchor="middle" x="242.0435" y="-231.5" font-family="Helvetica,sans-Serif" font-size="10.00" fill="#000000">getInstance</text>
</a>
</g>
</g>
<!-- Node1&#45;&gt;Node4 -->
<g id="edge3" class="edge">
<title>Node1&#45;&gt;Node4</title>
<path fill="none" stroke="#191970" d="M84.4793,-185.5289C104.5219,-194.3001 136.3634,-207.5669 164.832,-216.5 175.4901,-219.8444 187.1504,-222.8773 198.1062,-225.4601"/>
<polygon fill="#191970" stroke="#191970" points="197.3924,-228.8872 207.9207,-227.7016 198.951,-222.0629 197.3924,-228.8872"/>
</g>
<!-- Node6 -->
<g id="node6" class="node">
<title>Node6</title>
<g id="a_node6"><a xlink:href="classlocomotor_1_1core_1_1_d_b_h.html#a7c304d82522d66971ae49134140fae7c" target="_top" xlink:title="universeNameAlreadyTaken">
<polygon fill="#ffffff" stroke="#000000" points="171.5117,-188.5 171.5117,-206.5 312.5752,-206.5 312.5752,-188.5 171.5117,-188.5"/>
<text text-anchor="middle" x="242.0435" y="-194.5" font-family="Helvetica,sans-Serif" font-size="10.00" fill="#000000">universeNameAlreadyTaken</text>
</a>
</g>
</g>
<!-- Node1&#45;&gt;Node6 -->
<g id="edge5" class="edge">
<title>Node1&#45;&gt;Node6</title>
<path fill="none" stroke="#191970" d="M129.0461,-184.1409C139.4949,-185.3762 150.4272,-186.6687 161.2017,-187.9425"/>
<polygon fill="#191970" stroke="#191970" points="161.1208,-191.4572 171.4626,-189.1556 161.9428,-184.5056 161.1208,-191.4572"/>
</g>
<!-- Node7 -->
<g id="node7" class="node">
<title>Node7</title>
<g id="a_node7"><a xlink:href="classlocomotor_1_1components_1_1logging_1_1_error_handler.html#a75e8f6535bdb8db9a7d570e1b839af47" target="_top" xlink:title="locomotor.components.logging.\lErrorHandler.getInstance">
<polygon fill="#ffffff" stroke="#000000" points="164.832,-141.5 164.832,-169.5 319.2549,-169.5 319.2549,-141.5 164.832,-141.5"/>
<text text-anchor="start" x="172.832" y="-157.5" font-family="Helvetica,sans-Serif" font-size="10.00" fill="#000000">locomotor.components.logging.</text>
<text text-anchor="middle" x="242.0435" y="-147.5" font-family="Helvetica,sans-Serif" font-size="10.00" fill="#000000">ErrorHandler.getInstance</text>
</a>
</g>
</g>
<!-- Node1&#45;&gt;Node7 -->
<g id="edge6" class="edge">
<title>Node1&#45;&gt;Node7</title>
<path fill="none" stroke="#191970" d="M129.0461,-168.8591C137.3878,-167.8729 146.0376,-166.8503 154.6693,-165.8298"/>
<polygon fill="#191970" stroke="#191970" points="155.2544,-169.2851 164.7743,-164.6351 154.4325,-162.3335 155.2544,-169.2851"/>
</g>
<!-- Node8 -->
<g id="node8" class="node">
<title>Node8</title>
<g id="a_node8"><a xlink:href="classlocomotor_1_1components_1_1logging_1_1_error_handler.html#abd00a9c37627740763cef91d76a77437" target="_top" xlink:title="locomotor.components.logging.\lErrorHandler.push">
<polygon fill="#ffffff" stroke="#000000" points="164.832,-94.5 164.832,-122.5 319.2549,-122.5 319.2549,-94.5 164.832,-94.5"/>
<text text-anchor="start" x="172.832" y="-110.5" font-family="Helvetica,sans-Serif" font-size="10.00" fill="#000000">locomotor.components.logging.</text>
<text text-anchor="middle" x="242.0435" y="-100.5" font-family="Helvetica,sans-Serif" font-size="10.00" fill="#000000">ErrorHandler.push</text>
</a>
</g>
</g>
<!-- Node1&#45;&gt;Node8 -->
<g id="edge7" class="edge">
<title>Node1&#45;&gt;Node8</title>
<path fill="none" stroke="#191970" d="M83.405,-167.42C103.4054,-158.0368 135.9438,-143.2805 164.832,-132.5 171.1057,-130.1588 177.7223,-127.8568 184.3362,-125.6606"/>
<polygon fill="#191970" stroke="#191970" points="185.5546,-128.9449 193.984,-122.5265 183.3919,-122.2874 185.5546,-128.9449"/>
</g>
<!-- Node10 -->
<g id="node10" class="node">
<title>Node10</title>
<g id="a_node10"><a xlink:href="classlocomotor_1_1components_1_1models_1_1_universe.html#ac7feffb7a33f63504ff1f87f19e2d2d8" target="_top" xlink:title="locomotor.components.models.\lUniverse.getDescription">
<polygon fill="#ffffff" stroke="#000000" points="164.8394,-47.5 164.8394,-75.5 319.2476,-75.5 319.2476,-47.5 164.8394,-47.5"/>
<text text-anchor="start" x="172.8394" y="-63.5" font-family="Helvetica,sans-Serif" font-size="10.00" fill="#000000">locomotor.components.models.</text>
<text text-anchor="middle" x="242.0435" y="-53.5" font-family="Helvetica,sans-Serif" font-size="10.00" fill="#000000">Universe.getDescription</text>
</a>
</g>
</g>
<!-- Node1&#45;&gt;Node10 -->
<g id="edge9" class="edge">
<title>Node1&#45;&gt;Node10</title>
<path fill="none" stroke="#191970" d="M72.017,-167.3367C87.5826,-149.1405 124.9914,-108.2481 164.832,-85.5 168.7081,-83.2868 172.8125,-81.2532 177.0287,-79.3886"/>
<polygon fill="#191970" stroke="#191970" points="178.4524,-82.5879 186.392,-75.5727 175.8106,-76.1056 178.4524,-82.5879"/>
</g>
<!-- Node11 -->
<g id="node11" class="node">
<title>Node11</title>
<g id="a_node11"><a xlink:href="classlocomotor_1_1components_1_1models_1_1_universe.html#a832e57df908361dd86dc673520d7fb81" target="_top" xlink:title="locomotor.components.models.\lUniverse.getImage">
<polygon fill="#ffffff" stroke="#000000" points="164.8394,-.5 164.8394,-28.5 319.2476,-28.5 319.2476,-.5 164.8394,-.5"/>
<text text-anchor="start" x="172.8394" y="-16.5" font-family="Helvetica,sans-Serif" font-size="10.00" fill="#000000">locomotor.components.models.</text>
<text text-anchor="middle" x="242.0435" y="-6.5" font-family="Helvetica,sans-Serif" font-size="10.00" fill="#000000">Universe.getImage</text>
</a>
</g>
</g>
<!-- Node1&#45;&gt;Node11 -->
<g id="edge10" class="edge">
<title>Node1&#45;&gt;Node11</title>
<path fill="none" stroke="#191970" d="M68.564,-167.1934C80.0897,-142.3998 114.9696,-74.2148 164.832,-38.5 167.6565,-36.4769 170.6565,-34.6207 173.7718,-32.918"/>
<polygon fill="#191970" stroke="#191970" points="175.3504,-36.0422 182.806,-28.5147 172.2834,-29.7498 175.3504,-36.0422"/>
</g>
<!-- Node5 -->
<g id="node5" class="node">
<title>Node5</title>
<g id="a_node5"><a xlink:href="classlocomotor_1_1core_1_1_d_b_h.html#a2d5f1f766f5863a46ed29b7e56118364" target="_top" xlink:title="DBH">
<polygon fill="#ffffff" stroke="#000000" points="413.9097,-225.5 413.9097,-243.5 451.0229,-243.5 451.0229,-225.5 413.9097,-225.5"/>
<text text-anchor="middle" x="432.4663" y="-231.5" font-family="Helvetica,sans-Serif" font-size="10.00" fill="#000000">DBH</text>
</a>
</g>
</g>
<!-- Node4&#45;&gt;Node5 -->
<g id="edge4" class="edge">
<title>Node4&#45;&gt;Node5</title>
<path fill="none" stroke="#191970" d="M276.0872,-234.5C312.3826,-234.5 369.2437,-234.5 403.4766,-234.5"/>
<polygon fill="#191970" stroke="#191970" points="403.7413,-238.0001 413.7413,-234.5 403.7412,-231.0001 403.7413,-238.0001"/>
</g>
<!-- Node9 -->
<g id="node9" class="node">
<title>Node9</title>
<g id="a_node9"><a xlink:href="classlocomotor_1_1components_1_1logging_1_1_error_context.html#afcf30b71bfc65c74878c7ab77c951842" target="_top" xlink:title="locomotor.components.logging.\lErrorContext.push">
<polygon fill="#ffffff" stroke="#000000" points="355.2549,-94.5 355.2549,-122.5 509.6777,-122.5 509.6777,-94.5 355.2549,-94.5"/>
<text text-anchor="start" x="363.2549" y="-110.5" font-family="Helvetica,sans-Serif" font-size="10.00" fill="#000000">locomotor.components.logging.</text>
<text text-anchor="middle" x="432.4663" y="-100.5" font-family="Helvetica,sans-Serif" font-size="10.00" fill="#000000">ErrorContext.push</text>
</a>
</g>
</g>
<!-- Node8&#45;&gt;Node9 -->
<g id="edge8" class="edge">
<title>Node8&#45;&gt;Node9</title>
<path fill="none" stroke="#191970" d="M319.4957,-108.5C327.841,-108.5 336.3749,-108.5 344.8287,-108.5"/>
<polygon fill="#191970" stroke="#191970" points="345.0827,-112.0001 355.0827,-108.5 345.0827,-105.0001 345.0827,-112.0001"/>
</g>
</g>
</svg>
