<?xml version="1.0" encoding="UTF-8" standalone="no"?>
<!DOCTYPE svg PUBLIC "-//W3C//DTD SVG 1.1//EN"
 "http://www.w3.org/Graphics/SVG/1.1/DTD/svg11.dtd">
<!-- Generated by graphviz version 2.40.1 (20161225.0304)
 -->
<!-- Title: getURLConnection Pages: 1 -->
<svg width="732pt" height="187pt"
 viewBox="0.00 0.00 732.00 187.00" xmlns="http://www.w3.org/2000/svg" xmlns:xlink="http://www.w3.org/1999/xlink">
<g id="graph0" class="graph" transform="scale(1 1) rotate(0) translate(4 183)">
<title>getURLConnection</title>
<polygon fill="#ffffff" stroke="transparent" points="-4,4 -4,-183 727.9971,-183 727.9971,4 -4,4"/>
<!-- Node1 -->
<g id="node1" class="node">
<title>Node1</title>
<polygon fill="#bfbfbf" stroke="#000000" points="0,-97.5 0,-115.5 100.4971,-115.5 100.4971,-97.5 0,-97.5"/>
<text text-anchor="middle" x="50.2485" y="-103.5" font-family="Helvetica,sans-Serif" font-size="10.00" fill="#000000">getURLConnection</text>
</g>
<!-- Node2 -->
<g id="node2" class="node">
<title>Node2</title>
<g id="a_node2"><a xlink:href="classlocomotor_1_1front_1_1components_1_1network_1_1_client_request.html#a59600462d6c0408758265fc36016fb6b" target="_top" xlink:title="locomotor.front.components.network.\lClientRequest.requestBinary">
<polygon fill="#ffffff" stroke="#000000" points="136.4971,-116.5 136.4971,-144.5 316.4717,-144.5 316.4717,-116.5 136.4971,-116.5"/>
<text text-anchor="start" x="144.4971" y="-132.5" font-family="Helvetica,sans-Serif" font-size="10.00" fill="#000000">locomotor.front.components.network.</text>
<text text-anchor="middle" x="226.4844" y="-122.5" font-family="Helvetica,sans-Serif" font-size="10.00" fill="#000000">ClientRequest.requestBinary</text>
</a>
</g>
</g>
<!-- Node1&#45;&gt;Node2 -->
<g id="edge1" class="edge">
<title>Node1&#45;&gt;Node2</title>
<path fill="none" stroke="#191970" d="M110.68,-114.7296C118.9876,-115.861 127.6607,-117.0421 136.3598,-118.2267"/>
<polygon fill="#191970" stroke="#191970" points="111.1315,-111.2589 100.7507,-113.3774 110.1869,-118.1949 111.1315,-111.2589"/>
</g>
<!-- Node3 -->
<g id="node3" class="node">
<title>Node3</title>
<g id="a_node3"><a xlink:href="classlocomotor_1_1front_1_1components_1_1network_1_1_client_request.html#af820b68be6077f053a589af5c865700c" target="_top" xlink:title="locomotor.front.components.network.\lClientRequest.requestJson">
<polygon fill="#ffffff" stroke="#000000" points="136.4971,-69.5 136.4971,-97.5 316.4717,-97.5 316.4717,-69.5 136.4971,-69.5"/>
<text text-anchor="start" x="144.4971" y="-85.5" font-family="Helvetica,sans-Serif" font-size="10.00" fill="#000000">locomotor.front.components.network.</text>
<text text-anchor="middle" x="226.4844" y="-75.5" font-family="Helvetica,sans-Serif" font-size="10.00" fill="#000000">ClientRequest.requestJson</text>
</a>
</g>
</g>
<!-- Node1&#45;&gt;Node3 -->
<g id="edge2" class="edge">
<title>Node1&#45;&gt;Node3</title>
<path fill="none" stroke="#191970" d="M110.68,-98.6133C118.9876,-97.5291 127.6607,-96.3972 136.3598,-95.2619"/>
<polygon fill="#191970" stroke="#191970" points="110.2136,-95.1444 100.7507,-99.9091 111.1195,-102.0855 110.2136,-95.1444"/>
</g>
<!-- Node4 -->
<g id="node4" class="node">
<title>Node4</title>
<g id="a_node4"><a xlink:href="classlocomotor_1_1front_1_1components_1_1_front_resource_manager.html#aa21c4cd4a2808249949e545c69057811" target="_top" xlink:title="locomotor.front.components.\lFrontResourceManager.getInstance">
<polygon fill="#ffffff" stroke="#000000" points="356.3657,-150.5 356.3657,-178.5 531.9067,-178.5 531.9067,-150.5 356.3657,-150.5"/>
<text text-anchor="start" x="364.3657" y="-166.5" font-family="Helvetica,sans-Serif" font-size="10.00" fill="#000000">locomotor.front.components.</text>
<text text-anchor="middle" x="444.1362" y="-156.5" font-family="Helvetica,sans-Serif" font-size="10.00" fill="#000000">FrontResourceManager.getInstance</text>
</a>
</g>
</g>
<!-- Node3&#45;&gt;Node4 -->
<g id="edge3" class="edge">
<title>Node3&#45;&gt;Node4</title>
<path fill="none" stroke="#191970" d="M301.8216,-101.1306C306.865,-103.0595 311.7944,-105.1778 316.4717,-107.5 334.6269,-116.514 334.5275,-126.0729 352.4717,-135.5 363.7017,-141.3998 376.3428,-146.3525 388.5673,-150.4004"/>
<polygon fill="#191970" stroke="#191970" points="302.6133,-97.6977 292.0185,-97.6511 300.2717,-104.2945 302.6133,-97.6977"/>
</g>
<!-- Node5 -->
<g id="node5" class="node">
<title>Node5</title>
<g id="a_node5"><a xlink:href="classlocomotor_1_1front_1_1user_1_1_bridge.html#afa7ac789194b4e4f08000205a0f96f11" target="_top" xlink:title="locomotor.front.user.Bridge.get\lModel">
<polygon fill="#ffffff" stroke="#000000" points="571.8008,-128.5 571.8008,-156.5 723.9971,-156.5 723.9971,-128.5 571.8008,-128.5"/>
<text text-anchor="start" x="579.8008" y="-144.5" font-family="Helvetica,sans-Serif" font-size="10.00" fill="#000000">locomotor.front.user.Bridge.get</text>
<text text-anchor="middle" x="647.8989" y="-134.5" font-family="Helvetica,sans-Serif" font-size="10.00" fill="#000000">Model</text>
</a>
</g>
</g>
<!-- Node3&#45;&gt;Node5 -->
<g id="edge8" class="edge">
<title>Node3&#45;&gt;Node5</title>
<path fill="none" stroke="#191970" d="M326.5189,-98.7269C335.2936,-100.0199 344.0396,-101.2934 352.4717,-102.5 426.8913,-113.1491 511.967,-124.5909 571.6492,-132.4976"/>
<polygon fill="#191970" stroke="#191970" points="327.0196,-95.263 316.615,-97.2614 325.9949,-102.1876 327.0196,-95.263"/>
</g>
<!-- Node6 -->
<g id="node6" class="node">
<title>Node6</title>
<g id="a_node6"><a xlink:href="classlocomotor_1_1front_1_1user_1_1_bridge.html#a581292d008b50003a8bd95e9c511ad00" target="_top" xlink:title="locomotor.front.user.Bridge.auth">
<polygon fill="#ffffff" stroke="#000000" points="365.2573,-74.5 365.2573,-92.5 523.0151,-92.5 523.0151,-74.5 365.2573,-74.5"/>
<text text-anchor="middle" x="444.1362" y="-80.5" font-family="Helvetica,sans-Serif" font-size="10.00" fill="#000000">locomotor.front.user.Bridge.auth</text>
</a>
</g>
</g>
<!-- Node3&#45;&gt;Node6 -->
<g id="edge5" class="edge">
<title>Node3&#45;&gt;Node6</title>
<path fill="none" stroke="#191970" d="M326.8574,-83.5C339.7287,-83.5 352.7586,-83.5 365.2211,-83.5"/>
<polygon fill="#191970" stroke="#191970" points="326.5829,-80.0001 316.5828,-83.5 326.5828,-87.0001 326.5829,-80.0001"/>
</g>
<!-- Node7 -->
<g id="node7" class="node">
<title>Node7</title>
<g id="a_node7"><a xlink:href="classlocomotor_1_1front_1_1user_1_1_bridge.html#a1780491711ed9d08ecb55808f269c1ff" target="_top" xlink:title="locomotor.front.user.Bridge.tokenAuth">
<polygon fill="#ffffff" stroke="#000000" points="352.4717,-37.5 352.4717,-55.5 535.8008,-55.5 535.8008,-37.5 352.4717,-37.5"/>
<text text-anchor="middle" x="444.1362" y="-43.5" font-family="Helvetica,sans-Serif" font-size="10.00" fill="#000000">locomotor.front.user.Bridge.tokenAuth</text>
</a>
</g>
</g>
<!-- Node3&#45;&gt;Node7 -->
<g id="edge6" class="edge">
<title>Node3&#45;&gt;Node7</title>
<path fill="none" stroke="#191970" d="M319.1308,-67.7505C343.635,-63.5848 369.2586,-59.2289 390.8817,-55.5531"/>
<polygon fill="#191970" stroke="#191970" points="318.3515,-64.3326 309.0796,-69.4591 319.5247,-71.2336 318.3515,-64.3326"/>
</g>
<!-- Node8 -->
<g id="node8" class="node">
<title>Node8</title>
<g id="a_node8"><a xlink:href="classlocomotor_1_1front_1_1user_1_1_bridge.html#ae0a6da5df3d6b00c1721fd865cbd8098" target="_top" xlink:title="locomotor.front.user.Bridge.register">
<polygon fill="#ffffff" stroke="#000000" points="358.3164,-.5 358.3164,-18.5 529.9561,-18.5 529.9561,-.5 358.3164,-.5"/>
<text text-anchor="middle" x="444.1362" y="-6.5" font-family="Helvetica,sans-Serif" font-size="10.00" fill="#000000">locomotor.front.user.Bridge.register</text>
</a>
</g>
</g>
<!-- Node3&#45;&gt;Node8 -->
<g id="edge7" class="edge">
<title>Node3&#45;&gt;Node8</title>
<path fill="none" stroke="#191970" d="M263.3725,-64.9743C288.0814,-53.1744 321.6166,-38.3157 352.4717,-28.5 364.8616,-24.5585 378.4595,-21.2249 391.3004,-18.5043"/>
<polygon fill="#191970" stroke="#191970" points="261.8397,-61.8277 254.3587,-69.3301 264.8854,-68.1304 261.8397,-61.8277"/>
</g>
<!-- Node4&#45;&gt;Node5 -->
<g id="edge4" class="edge">
<title>Node4&#45;&gt;Node5</title>
<path fill="none" stroke="#191970" d="M542.2397,-153.9079C552.0695,-152.8466 561.9463,-151.7802 571.5033,-150.7483"/>
<polygon fill="#191970" stroke="#191970" points="541.5949,-150.4571 532.0284,-155.0104 542.3464,-157.4166 541.5949,-150.4571"/>
</g>
</g>
</svg>
