<?xml version="1.0" encoding="UTF-8" standalone="no"?>
<!DOCTYPE svg PUBLIC "-//W3C//DTD SVG 1.1//EN"
 "http://www.w3.org/Graphics/SVG/1.1/DTD/svg11.dtd">
<!-- Generated by graphviz version 2.40.1 (20161225.0304)
 -->
<!-- Title: DBH Pages: 1 -->
<svg width="188pt" height="92pt"
 viewBox="0.00 0.00 187.76 92.00" xmlns="http://www.w3.org/2000/svg" xmlns:xlink="http://www.w3.org/1999/xlink">
<g id="graph0" class="graph" transform="scale(1 1) rotate(0) translate(4 88)">
<title>DBH</title>
<polygon fill="#ffffff" stroke="transparent" points="-4,4 -4,-88 183.7632,-88 183.7632,4 -4,4"/>
<!-- Node1 -->
<g id="node1" class="node">
<title>Node1</title>
<polygon fill="#bfbfbf" stroke="#000000" points="66.5146,-.5 66.5146,-18.5 103.6279,-18.5 103.6279,-.5 66.5146,-.5"/>
<text text-anchor="middle" x="85.0713" y="-6.5" font-family="Helvetica,sans-Serif" font-size="10.00" fill="#000000">DBH</text>
</g>
<!-- Node1&#45;&gt;Node1 -->
<g id="edge3" class="edge">
<title>Node1&#45;&gt;Node1</title>
<path fill="none" stroke="#9a32cd" stroke-dasharray="5,2" d="M113.9709,-15.0096C118.5209,-14.193 121.6279,-12.3564 121.6279,-9.5 121.6279,-4.8125 113.2608,-2.8716 103.8804,-3.6772"/>
<polygon fill="#9a32cd" stroke="#9a32cd" points="113.767,-11.5142 103.8804,-15.3228 113.9842,-18.5108 113.767,-11.5142"/>
<text text-anchor="middle" x="128.5786" y="-6.5" font-family="Helvetica,sans-Serif" font-size="10.00" fill="#000000"> db</text>
</g>
<!-- Node2 -->
<g id="node2" class="node">
<title>Node2</title>
<polygon fill="#ffffff" stroke="#bfbfbf" points="0,-65.5 0,-83.5 72.1426,-83.5 72.1426,-65.5 0,-65.5"/>
<text text-anchor="middle" x="36.0713" y="-71.5" font-family="Helvetica,sans-Serif" font-size="10.00" fill="#000000">MongoClient</text>
</g>
<!-- Node2&#45;&gt;Node1 -->
<g id="edge1" class="edge">
<title>Node2&#45;&gt;Node1</title>
<path fill="none" stroke="#9a32cd" stroke-dasharray="5,2" d="M49.0271,-57.3137C58.3039,-45.0077 70.4434,-28.9043 77.9986,-18.8821"/>
<polygon fill="#9a32cd" stroke="#9a32cd" points="46.1094,-55.3699 42.8845,-65.462 51.699,-59.5837 46.1094,-55.3699"/>
<text text-anchor="middle" x="72.1255" y="-39" font-family="Helvetica,sans-Serif" font-size="10.00" fill="#000000"> mc</text>
</g>
<!-- Node3 -->
<g id="node3" class="node">
<title>Node3</title>
<polygon fill="#ffffff" stroke="#bfbfbf" points="90.3794,-65.5 90.3794,-83.5 179.7632,-83.5 179.7632,-65.5 90.3794,-65.5"/>
<text text-anchor="middle" x="135.0713" y="-71.5" font-family="Helvetica,sans-Serif" font-size="10.00" fill="#000000">MongoDatabase</text>
</g>
<!-- Node3&#45;&gt;Node1 -->
<g id="edge2" class="edge">
<title>Node3&#45;&gt;Node1</title>
<path fill="none" stroke="#9a32cd" stroke-dasharray="5,2" d="M121.8511,-57.3137C112.3849,-45.0077 99.9977,-28.9043 92.2883,-18.8821"/>
<polygon fill="#9a32cd" stroke="#9a32cd" points="119.2477,-59.6698 128.119,-65.462 124.796,-55.4018 119.2477,-59.6698"/>
<text text-anchor="middle" x="120.4063" y="-39" font-family="Helvetica,sans-Serif" font-size="10.00" fill="#000000"> md</text>
</g>
</g>
</svg>
