<?xml version="1.0" encoding="UTF-8" standalone="no"?>
<!DOCTYPE svg PUBLIC "-//W3C//DTD SVG 1.1//EN"
 "http://www.w3.org/Graphics/SVG/1.1/DTD/svg11.dtd">
<!-- Generated by graphviz version 2.40.1 (20161225.0304)
 -->
<!-- Title: getCategories Pages: 1 -->
<svg width="873pt" height="37pt"
 viewBox="0.00 0.00 873.45 37.00" xmlns="http://www.w3.org/2000/svg" xmlns:xlink="http://www.w3.org/1999/xlink">
<g id="graph0" class="graph" transform="scale(1 1) rotate(0) translate(4 33)">
<title>getCategories</title>
<polygon fill="#ffffff" stroke="transparent" points="-4,4 -4,-33 869.4502,-33 869.4502,4 -4,4"/>
<!-- Node1 -->
<g id="node1" class="node">
<title>Node1</title>
<polygon fill="#bfbfbf" stroke="#000000" points="0,-5.5 0,-23.5 78.2607,-23.5 78.2607,-5.5 0,-5.5"/>
<text text-anchor="middle" x="39.1304" y="-11.5" font-family="Helvetica,sans-Serif" font-size="10.00" fill="#000000">getCategories</text>
</g>
<!-- Node2 -->
<g id="node2" class="node">
<title>Node2</title>
<g id="a_node2"><a xlink:href="classlocomotor_1_1core_1_1_comparator.html#a589b06b817cbbc74ceb4812d0ba6c245" target="_top" xlink:title="locomotor.core.Comparator.compute\lGradeOfItem">
<polygon fill="#ffffff" stroke="#000000" points="114.2607,-.5 114.2607,-28.5 292.0137,-28.5 292.0137,-.5 114.2607,-.5"/>
<text text-anchor="start" x="122.2607" y="-16.5" font-family="Helvetica,sans-Serif" font-size="10.00" fill="#000000">locomotor.core.Comparator.compute</text>
<text text-anchor="middle" x="203.1372" y="-6.5" font-family="Helvetica,sans-Serif" font-size="10.00" fill="#000000">GradeOfItem</text>
</a>
</g>
</g>
<!-- Node1&#45;&gt;Node2 -->
<g id="edge1" class="edge">
<title>Node1&#45;&gt;Node2</title>
<path fill="none" stroke="#191970" d="M88.4586,-14.5C96.6314,-14.5 105.3219,-14.5 114.1208,-14.5"/>
<polygon fill="#191970" stroke="#191970" points="88.4141,-11.0001 78.4141,-14.5 88.4141,-18.0001 88.4141,-11.0001"/>
</g>
<!-- Node3 -->
<g id="node3" class="node">
<title>Node3</title>
<g id="a_node3"><a xlink:href="classlocomotor_1_1core_1_1_comparator.html#a092fb76ad264eeccd8f30eadb70e36e3" target="_top" xlink:title="locomotor.core.Comparator.compute\lGradeOfItems">
<polygon fill="#ffffff" stroke="#000000" points="328.0137,-.5 328.0137,-28.5 505.7666,-28.5 505.7666,-.5 328.0137,-.5"/>
<text text-anchor="start" x="336.0137" y="-16.5" font-family="Helvetica,sans-Serif" font-size="10.00" fill="#000000">locomotor.core.Comparator.compute</text>
<text text-anchor="middle" x="416.8901" y="-6.5" font-family="Helvetica,sans-Serif" font-size="10.00" fill="#000000">GradeOfItems</text>
</a>
</g>
</g>
<!-- Node2&#45;&gt;Node3 -->
<g id="edge2" class="edge">
<title>Node2&#45;&gt;Node3</title>
<path fill="none" stroke="#191970" d="M302.2526,-14.5C310.8194,-14.5 319.453,-14.5 327.9318,-14.5"/>
<polygon fill="#191970" stroke="#191970" points="302.2399,-11.0001 292.2399,-14.5 302.2398,-18.0001 302.2399,-11.0001"/>
</g>
<!-- Node4 -->
<g id="node4" class="node">
<title>Node4</title>
<g id="a_node4"><a xlink:href="classlocomotor_1_1components_1_1network_1_1_a_p_i.html#a547463fbc7fb7b485886f0917e2c0b78" target="_top" xlink:title="locomotor.components.network.\lAPI.createHooks">
<polygon fill="#ffffff" stroke="#000000" points="541.7666,-.5 541.7666,-28.5 698.9531,-28.5 698.9531,-.5 541.7666,-.5"/>
<text text-anchor="start" x="549.7666" y="-16.5" font-family="Helvetica,sans-Serif" font-size="10.00" fill="#000000">locomotor.components.network.</text>
<text text-anchor="middle" x="620.3599" y="-6.5" font-family="Helvetica,sans-Serif" font-size="10.00" fill="#000000">API.createHooks</text>
</a>
</g>
</g>
<!-- Node3&#45;&gt;Node4 -->
<g id="edge3" class="edge">
<title>Node3&#45;&gt;Node4</title>
<path fill="none" stroke="#191970" d="M515.8953,-14.5C524.4846,-14.5 533.0998,-14.5 541.4958,-14.5"/>
<polygon fill="#191970" stroke="#191970" points="515.839,-11.0001 505.8389,-14.5 515.8389,-18.0001 515.839,-11.0001"/>
</g>
<!-- Node5 -->
<g id="node5" class="node">
<title>Node5</title>
<g id="a_node5"><a xlink:href="classlocomotor_1_1core_1_1_main.html#a8b260eecbaabcef8473fd87ada040682" target="_top" xlink:title="locomotor.core.Main.main">
<polygon fill="#ffffff" stroke="#000000" points="734.9531,-5.5 734.9531,-23.5 865.4502,-23.5 865.4502,-5.5 734.9531,-5.5"/>
<text text-anchor="middle" x="800.2017" y="-11.5" font-family="Helvetica,sans-Serif" font-size="10.00" fill="#000000">locomotor.core.Main.main</text>
</a>
</g>
</g>
<!-- Node4&#45;&gt;Node5 -->
<g id="edge4" class="edge">
<title>Node4&#45;&gt;Node5</title>
<path fill="none" stroke="#191970" d="M709.1529,-14.5C717.8412,-14.5 726.5435,-14.5 734.9354,-14.5"/>
<polygon fill="#191970" stroke="#191970" points="708.9795,-11.0001 698.9795,-14.5 708.9794,-18.0001 708.9795,-11.0001"/>
</g>
</g>
</svg>
