<?xml version="1.0" encoding="UTF-8" standalone="no"?>
<!DOCTYPE svg PUBLIC "-//W3C//DTD SVG 1.1//EN"
 "http://www.w3.org/Graphics/SVG/1.1/DTD/svg11.dtd">
<!-- Generated by graphviz version 2.40.1 (20161225.0304)
 -->
<!-- Title: NetworkHandler Pages: 1 -->
<svg width="336pt" height="102pt"
 viewBox="0.00 0.00 335.54 102.00" xmlns="http://www.w3.org/2000/svg" xmlns:xlink="http://www.w3.org/1999/xlink">
<g id="graph0" class="graph" transform="scale(1 1) rotate(0) translate(4 98)">
<title>NetworkHandler</title>
<polygon fill="#ffffff" stroke="transparent" points="-4,4 -4,-98 331.5376,-98 331.5376,4 -4,4"/>
<!-- Node1 -->
<g id="node1" class="node">
<title>Node1</title>
<polygon fill="#bfbfbf" stroke="#000000" points="76.5493,-.5 76.5493,-18.5 164.2437,-18.5 164.2437,-.5 76.5493,-.5"/>
<text text-anchor="middle" x="120.3965" y="-6.5" font-family="Helvetica,sans-Serif" font-size="10.00" fill="#000000">NetworkHandler</text>
</g>
<!-- Node1&#45;&gt;Node1 -->
<g id="edge3" class="edge">
<title>Node1&#45;&gt;Node1</title>
<path fill="none" stroke="#9a32cd" stroke-dasharray="5,2" d="M174.5205,-14.2144C179.27,-13.2199 182.2437,-11.6484 182.2437,-9.5 182.2437,-6.0625 174.631,-4.1021 164.3124,-3.6187"/>
<polygon fill="#9a32cd" stroke="#9a32cd" points="173.8501,-10.7681 164.3124,-15.3813 174.6452,-17.7229 173.8501,-10.7681"/>
<text text-anchor="middle" x="210.874" y="-6.5" font-family="Helvetica,sans-Serif" font-size="10.00" fill="#000000"> _netHandler</text>
</g>
<!-- Node2 -->
<g id="node2" class="node">
<title>Node2</title>
<polygon fill="#ffffff" stroke="#bfbfbf" points="0,-70.5 0,-88.5 68.793,-88.5 68.793,-70.5 0,-70.5"/>
<text text-anchor="middle" x="34.3965" y="-76.5" font-family="Helvetica,sans-Serif" font-size="10.00" fill="#000000">HttpsServer</text>
</g>
<!-- Node2&#45;&gt;Node1 -->
<g id="edge1" class="edge">
<title>Node2&#45;&gt;Node1</title>
<path fill="none" stroke="#9a32cd" stroke-dasharray="5,2" d="M53.8167,-63.6928C70.8798,-49.8043 95.1141,-30.0787 109.1507,-18.6535"/>
<polygon fill="#9a32cd" stroke="#9a32cd" points="51.1857,-61.3215 45.6395,-70.3487 55.6046,-66.7504 51.1857,-61.3215"/>
<text text-anchor="middle" x="103.458" y="-39" font-family="Helvetica,sans-Serif" font-size="10.00" fill="#000000"> _server</text>
</g>
<!-- Node3 -->
<g id="node3" class="node">
<title>Node3</title>
<polygon fill="#ffffff" stroke="#bfbfbf" points="87.2554,-65.5 87.2554,-93.5 327.5376,-93.5 327.5376,-65.5 87.2554,-65.5"/>
<text text-anchor="start" x="95.2554" y="-81.5" font-family="Helvetica,sans-Serif" font-size="10.00" fill="#000000">HashMap&lt; String, locomotor.components.network.</text>
<text text-anchor="middle" x="207.3965" y="-71.5" font-family="Helvetica,sans-Serif" font-size="10.00" fill="#000000">IEndpointHandler &gt;</text>
</g>
<!-- Node3&#45;&gt;Node1 -->
<g id="edge2" class="edge">
<title>Node3&#45;&gt;Node1</title>
<path fill="none" stroke="#9a32cd" stroke-dasharray="5,2" d="M181.5444,-58.6994C164.929,-45.3308 144.1773,-28.634 131.6226,-18.5325"/>
<polygon fill="#9a32cd" stroke="#9a32cd" points="179.8055,-61.7926 189.7907,-65.3345 184.1936,-56.3387 179.8055,-61.7926"/>
<text text-anchor="middle" x="209.7607" y="-39" font-family="Helvetica,sans-Serif" font-size="10.00" fill="#000000"> _endpointHandlers</text>
</g>
</g>
</svg>
