<?xml version="1.0" encoding="UTF-8" standalone="no"?>
<!DOCTYPE svg PUBLIC "-//W3C//DTD SVG 1.1//EN"
 "http://www.w3.org/Graphics/SVG/1.1/DTD/svg11.dtd">
<!-- Generated by graphviz version 2.40.1 (20161225.0304)
 -->
<!-- Title: graphValue Pages: 1 -->
<svg width="439pt" height="84pt"
 viewBox="0.00 0.00 438.56 84.00" xmlns="http://www.w3.org/2000/svg" xmlns:xlink="http://www.w3.org/1999/xlink">
<g id="graph0" class="graph" transform="scale(1 1) rotate(0) translate(4 80)">
<title>graphValue</title>
<polygon fill="#ffffff" stroke="transparent" points="-4,4 -4,-80 434.5615,-80 434.5615,4 -4,4"/>
<!-- Node1 -->
<g id="node1" class="node">
<title>Node1</title>
<polygon fill="#bfbfbf" stroke="#000000" points="0,-28.5 0,-46.5 66.415,-46.5 66.415,-28.5 0,-28.5"/>
<text text-anchor="middle" x="33.2075" y="-34.5" font-family="Helvetica,sans-Serif" font-size="10.00" fill="#000000">graphValue</text>
</g>
<!-- Node2 -->
<g id="node2" class="node">
<title>Node2</title>
<g id="a_node2"><a xlink:href="classlocomotor_1_1components_1_1types_1_1_c_set_graph.html#ad2c8768ec5b11a8e7e13195ef5f1ba2f" target="_top" xlink:title="locomotor.components.types.\lCSetGraph.compare">
<polygon fill="#ffffff" stroke="#000000" points="102.415,-23.5 102.415,-51.5 248.4883,-51.5 248.4883,-23.5 102.415,-23.5"/>
<text text-anchor="start" x="110.415" y="-39.5" font-family="Helvetica,sans-Serif" font-size="10.00" fill="#000000">locomotor.components.types.</text>
<text text-anchor="middle" x="175.4517" y="-29.5" font-family="Helvetica,sans-Serif" font-size="10.00" fill="#000000">CSetGraph.compare</text>
</a>
</g>
</g>
<!-- Node1&#45;&gt;Node2 -->
<g id="edge1" class="edge">
<title>Node1&#45;&gt;Node2</title>
<path fill="none" stroke="#191970" d="M76.799,-37.5C84.8676,-37.5 93.4952,-37.5 102.1657,-37.5"/>
<polygon fill="#191970" stroke="#191970" points="76.5575,-34.0001 66.5575,-37.5 76.5574,-41.0001 76.5575,-34.0001"/>
</g>
<!-- Node3 -->
<g id="node3" class="node">
<title>Node3</title>
<g id="a_node3"><a xlink:href="classlocomotor_1_1components_1_1types_1_1_c_mapped_string_list.html#ae36471b20bdf46c47cf487ffe88a1e42" target="_top" xlink:title="locomotor.components.types.\lCMappedStringList.compare">
<polygon fill="#ffffff" stroke="#000000" points="284.4883,-47.5 284.4883,-75.5 430.5615,-75.5 430.5615,-47.5 284.4883,-47.5"/>
<text text-anchor="start" x="292.4883" y="-63.5" font-family="Helvetica,sans-Serif" font-size="10.00" fill="#000000">locomotor.components.types.</text>
<text text-anchor="middle" x="357.5249" y="-53.5" font-family="Helvetica,sans-Serif" font-size="10.00" fill="#000000">CMappedStringList.compare</text>
</a>
</g>
</g>
<!-- Node2&#45;&gt;Node3 -->
<g id="edge2" class="edge">
<title>Node2&#45;&gt;Node3</title>
<path fill="none" stroke="#191970" d="M258.7217,-48.4762C267.2929,-49.6061 275.9565,-50.7481 284.4058,-51.8618"/>
<polygon fill="#191970" stroke="#191970" points="259.0925,-44.9949 248.7208,-47.158 258.1776,-51.9349 259.0925,-44.9949"/>
</g>
<!-- Node4 -->
<g id="node4" class="node">
<title>Node4</title>
<g id="a_node4"><a xlink:href="classlocomotor_1_1components_1_1types_1_1_c_tree.html#a46596b48ff97821f142f902f7ac6d471" target="_top" xlink:title="locomotor.components.types.\lCTree.compare">
<polygon fill="#ffffff" stroke="#000000" points="284.4883,-.5 284.4883,-28.5 430.5615,-28.5 430.5615,-.5 284.4883,-.5"/>
<text text-anchor="start" x="292.4883" y="-16.5" font-family="Helvetica,sans-Serif" font-size="10.00" fill="#000000">locomotor.components.types.</text>
<text text-anchor="middle" x="357.5249" y="-6.5" font-family="Helvetica,sans-Serif" font-size="10.00" fill="#000000">CTree.compare</text>
</a>
</g>
</g>
<!-- Node2&#45;&gt;Node4 -->
<g id="edge3" class="edge">
<title>Node2&#45;&gt;Node4</title>
<path fill="none" stroke="#191970" d="M258.7217,-26.9811C267.2929,-25.8984 275.9565,-24.8039 284.4058,-23.7366"/>
<polygon fill="#191970" stroke="#191970" points="258.2033,-23.5187 248.7208,-28.2444 259.0806,-30.4635 258.2033,-23.5187"/>
</g>
</g>
</svg>
