<?xml version="1.0" encoding="UTF-8" standalone="no"?>
<!DOCTYPE svg PUBLIC "-//W3C//DTD SVG 1.1//EN"
 "http://www.w3.org/Graphics/SVG/1.1/DTD/svg11.dtd">
<!-- Generated by graphviz version 2.40.1 (20161225.0304)
 -->
<!-- Title: getName Pages: 1 -->
<svg width="802pt" height="64pt"
 viewBox="0.00 0.00 802.28 64.00" xmlns="http://www.w3.org/2000/svg" xmlns:xlink="http://www.w3.org/1999/xlink">
<g id="graph0" class="graph" transform="scale(1 1) rotate(0) translate(4 60)">
<title>getName</title>
<polygon fill="#ffffff" stroke="transparent" points="-4,4 -4,-60 798.2832,-60 798.2832,4 -4,4"/>
<!-- Node1 -->
<g id="node1" class="node">
<title>Node1</title>
<polygon fill="#bfbfbf" stroke="#000000" points="0,-18.5 0,-36.5 56.5762,-36.5 56.5762,-18.5 0,-18.5"/>
<text text-anchor="middle" x="28.2881" y="-24.5" font-family="Helvetica,sans-Serif" font-size="10.00" fill="#000000">getName</text>
</g>
<!-- Node2 -->
<g id="node2" class="node">
<title>Node2</title>
<g id="a_node2"><a xlink:href="classlocomotor_1_1core_1_1_d_b_h.html#ad067053be75a3170dc9c2ce7b922e176" target="_top" xlink:title="locomotor.core.DBH.checking\lParsingItem">
<polygon fill="#ffffff" stroke="#000000" points="92.5762,-13.5 92.5762,-41.5 240.3047,-41.5 240.3047,-13.5 92.5762,-13.5"/>
<text text-anchor="start" x="100.5762" y="-29.5" font-family="Helvetica,sans-Serif" font-size="10.00" fill="#000000">locomotor.core.DBH.checking</text>
<text text-anchor="middle" x="166.4404" y="-19.5" font-family="Helvetica,sans-Serif" font-size="10.00" fill="#000000">ParsingItem</text>
</a>
</g>
</g>
<!-- Node1&#45;&gt;Node2 -->
<g id="edge1" class="edge">
<title>Node1&#45;&gt;Node2</title>
<path fill="none" stroke="#191970" d="M66.7516,-27.5C74.8352,-27.5 83.6199,-27.5 92.5125,-27.5"/>
<polygon fill="#191970" stroke="#191970" points="66.5787,-24.0001 56.5786,-27.5 66.5786,-31.0001 66.5787,-24.0001"/>
</g>
<!-- Node3 -->
<g id="node3" class="node">
<title>Node3</title>
<g id="a_node3"><a xlink:href="classlocomotor_1_1core_1_1_d_b_h.html#ae26eef1ee7482f2e0167c6a18924d214" target="_top" xlink:title="locomotor.core.DBH.addItem">
<polygon fill="#ffffff" stroke="#000000" points="283.2554,-37.5 283.2554,-55.5 427.6489,-55.5 427.6489,-37.5 283.2554,-37.5"/>
<text text-anchor="middle" x="355.4521" y="-43.5" font-family="Helvetica,sans-Serif" font-size="10.00" fill="#000000">locomotor.core.DBH.addItem</text>
</a>
</g>
</g>
<!-- Node2&#45;&gt;Node3 -->
<g id="edge2" class="edge">
<title>Node2&#45;&gt;Node3</title>
<path fill="none" stroke="#191970" d="M250.3189,-35.9317C261.2743,-37.033 272.4225,-38.1536 283.1648,-39.2335"/>
<polygon fill="#191970" stroke="#191970" points="250.6293,-32.4454 240.3294,-34.9275 249.9291,-39.4103 250.6293,-32.4454"/>
</g>
<!-- Node6 -->
<g id="node6" class="node">
<title>Node6</title>
<g id="a_node6"><a xlink:href="classlocomotor_1_1core_1_1_d_b_h.html#aa0e39c547d06fd9d0ad2de70251c9cc0" target="_top" xlink:title="locomotor.core.DBH.updateItem">
<polygon fill="#ffffff" stroke="#000000" points="276.3047,-.5 276.3047,-18.5 434.5996,-18.5 434.5996,-.5 276.3047,-.5"/>
<text text-anchor="middle" x="355.4521" y="-6.5" font-family="Helvetica,sans-Serif" font-size="10.00" fill="#000000">locomotor.core.DBH.updateItem</text>
</a>
</g>
</g>
<!-- Node2&#45;&gt;Node6 -->
<g id="edge5" class="edge">
<title>Node2&#45;&gt;Node6</title>
<path fill="none" stroke="#191970" d="M250.2894,-19.5149C258.8344,-18.7011 267.4971,-17.8762 275.9933,-17.067"/>
<polygon fill="#191970" stroke="#191970" points="249.9525,-16.031 240.3294,-20.4634 250.6162,-22.9995 249.9525,-16.031"/>
</g>
<!-- Node4 -->
<g id="node4" class="node">
<title>Node4</title>
<g id="a_node4"><a xlink:href="classlocomotor_1_1components_1_1network_1_1_a_p_i.html#a547463fbc7fb7b485886f0917e2c0b78" target="_top" xlink:title="locomotor.components.network.\lAPI.createHooks">
<polygon fill="#ffffff" stroke="#000000" points="470.5996,-13.5 470.5996,-41.5 627.7861,-41.5 627.7861,-13.5 470.5996,-13.5"/>
<text text-anchor="start" x="478.5996" y="-29.5" font-family="Helvetica,sans-Serif" font-size="10.00" fill="#000000">locomotor.components.network.</text>
<text text-anchor="middle" x="549.1929" y="-19.5" font-family="Helvetica,sans-Serif" font-size="10.00" fill="#000000">API.createHooks</text>
</a>
</g>
</g>
<!-- Node3&#45;&gt;Node4 -->
<g id="edge3" class="edge">
<title>Node3&#45;&gt;Node4</title>
<path fill="none" stroke="#191970" d="M438.0514,-38.3996C448.7657,-37.3488 459.7181,-36.2747 470.3687,-35.2302"/>
<polygon fill="#191970" stroke="#191970" points="437.4802,-34.9387 427.8696,-39.3981 438.1634,-41.9053 437.4802,-34.9387"/>
</g>
<!-- Node5 -->
<g id="node5" class="node">
<title>Node5</title>
<g id="a_node5"><a xlink:href="classlocomotor_1_1core_1_1_main.html#a8b260eecbaabcef8473fd87ada040682" target="_top" xlink:title="locomotor.core.Main.main">
<polygon fill="#ffffff" stroke="#000000" points="663.7861,-18.5 663.7861,-36.5 794.2832,-36.5 794.2832,-18.5 663.7861,-18.5"/>
<text text-anchor="middle" x="729.0347" y="-24.5" font-family="Helvetica,sans-Serif" font-size="10.00" fill="#000000">locomotor.core.Main.main</text>
</a>
</g>
</g>
<!-- Node4&#45;&gt;Node5 -->
<g id="edge4" class="edge">
<title>Node4&#45;&gt;Node5</title>
<path fill="none" stroke="#191970" d="M637.9859,-27.5C646.6742,-27.5 655.3765,-27.5 663.7684,-27.5"/>
<polygon fill="#191970" stroke="#191970" points="637.8125,-24.0001 627.8125,-27.5 637.8124,-31.0001 637.8125,-24.0001"/>
</g>
<!-- Node6&#45;&gt;Node4 -->
<g id="edge6" class="edge">
<title>Node6&#45;&gt;Node4</title>
<path fill="none" stroke="#191970" d="M444.8453,-17.8053C453.4361,-18.6035 462.1058,-19.4089 470.582,-20.1965"/>
<polygon fill="#191970" stroke="#191970" points="445.0939,-14.3134 434.8129,-16.8732 444.4462,-21.2834 445.0939,-14.3134"/>
</g>
</g>
</svg>
