<?xml version="1.0" encoding="UTF-8" standalone="no"?>
<!DOCTYPE svg PUBLIC "-//W3C//DTD SVG 1.1//EN"
 "http://www.w3.org/Graphics/SVG/1.1/DTD/svg11.dtd">
<!-- Generated by graphviz version 2.40.1 (20161225.0304)
 -->
<!-- Title: adminStillExists Pages: 1 -->
<svg width="475pt" height="178pt"
 viewBox="0.00 0.00 474.87 178.00" xmlns="http://www.w3.org/2000/svg" xmlns:xlink="http://www.w3.org/1999/xlink">
<g id="graph0" class="graph" transform="scale(1 1) rotate(0) translate(4 174)">
<title>adminStillExists</title>
<polygon fill="#ffffff" stroke="transparent" points="-4,4 -4,-174 470.8652,-174 470.8652,4 -4,4"/>
<!-- Node1 -->
<g id="node1" class="node">
<title>Node1</title>
<polygon fill="#bfbfbf" stroke="#000000" points="0,-75.5 0,-93.5 86.0195,-93.5 86.0195,-75.5 0,-75.5"/>
<text text-anchor="middle" x="43.0098" y="-81.5" font-family="Helvetica,sans-Serif" font-size="10.00" fill="#000000">adminStillExists</text>
</g>
<!-- Node2 -->
<g id="node2" class="node">
<title>Node2</title>
<g id="a_node2"><a xlink:href="classlocomotor_1_1components_1_1logging_1_1_error_handler.html#a75e8f6535bdb8db9a7d570e1b839af47" target="_top" xlink:title="locomotor.components.logging.\lErrorHandler.getInstance">
<polygon fill="#ffffff" stroke="#000000" points="122.0195,-141.5 122.0195,-169.5 276.4424,-169.5 276.4424,-141.5 122.0195,-141.5"/>
<text text-anchor="start" x="130.0195" y="-157.5" font-family="Helvetica,sans-Serif" font-size="10.00" fill="#000000">locomotor.components.logging.</text>
<text text-anchor="middle" x="199.231" y="-147.5" font-family="Helvetica,sans-Serif" font-size="10.00" fill="#000000">ErrorHandler.getInstance</text>
</a>
</g>
</g>
<!-- Node1&#45;&gt;Node2 -->
<g id="edge1" class="edge">
<title>Node1&#45;&gt;Node2</title>
<path fill="none" stroke="#191970" d="M55.5929,-93.5505C70.7357,-104.1022 97.2275,-121.4962 122.0195,-132.5 126.4221,-134.454 131.0374,-136.2986 135.7285,-138.0277"/>
<polygon fill="#191970" stroke="#191970" points="134.8255,-141.4196 145.4204,-141.413 137.1339,-134.8111 134.8255,-141.4196"/>
</g>
<!-- Node3 -->
<g id="node3" class="node">
<title>Node3</title>
<g id="a_node3"><a xlink:href="classlocomotor_1_1components_1_1logging_1_1_error_handler.html#abd00a9c37627740763cef91d76a77437" target="_top" xlink:title="locomotor.components.logging.\lErrorHandler.push">
<polygon fill="#ffffff" stroke="#000000" points="122.0195,-94.5 122.0195,-122.5 276.4424,-122.5 276.4424,-94.5 122.0195,-94.5"/>
<text text-anchor="start" x="130.0195" y="-110.5" font-family="Helvetica,sans-Serif" font-size="10.00" fill="#000000">locomotor.components.logging.</text>
<text text-anchor="middle" x="199.231" y="-100.5" font-family="Helvetica,sans-Serif" font-size="10.00" fill="#000000">ErrorHandler.push</text>
</a>
</g>
</g>
<!-- Node1&#45;&gt;Node3 -->
<g id="edge2" class="edge">
<title>Node1&#45;&gt;Node3</title>
<path fill="none" stroke="#191970" d="M86.1114,-91.1216C94.1825,-92.3616 102.8823,-93.6981 111.7456,-95.0598"/>
<polygon fill="#191970" stroke="#191970" points="111.3815,-98.5448 121.797,-96.604 112.4445,-91.626 111.3815,-98.5448"/>
</g>
<!-- Node5 -->
<g id="node5" class="node">
<title>Node5</title>
<g id="a_node5"><a xlink:href="enumlocomotor_1_1core_1_1_accreditation_level.html#a9ba37c7260408517fd4e4c0196cf4a28" target="_top" xlink:title="locomotor.core.Accreditation\lLevel.valueOf">
<polygon fill="#ffffff" stroke="#000000" points="128.1426,-47.5 128.1426,-75.5 270.3193,-75.5 270.3193,-47.5 128.1426,-47.5"/>
<text text-anchor="start" x="136.1426" y="-63.5" font-family="Helvetica,sans-Serif" font-size="10.00" fill="#000000">locomotor.core.Accreditation</text>
<text text-anchor="middle" x="199.231" y="-53.5" font-family="Helvetica,sans-Serif" font-size="10.00" fill="#000000">Level.valueOf</text>
</a>
</g>
</g>
<!-- Node1&#45;&gt;Node5 -->
<g id="edge4" class="edge">
<title>Node1&#45;&gt;Node5</title>
<path fill="none" stroke="#191970" d="M86.1114,-78.1543C96.0685,-76.6883 106.9825,-75.0815 117.9797,-73.4624"/>
<polygon fill="#191970" stroke="#191970" points="118.6939,-76.8951 128.0775,-71.9757 117.6743,-69.9697 118.6939,-76.8951"/>
</g>
<!-- Node6 -->
<g id="node6" class="node">
<title>Node6</title>
<g id="a_node6"><a xlink:href="enumlocomotor_1_1core_1_1_accreditation_level.html#a57341bed1b0ce596a42e0f9cb11f1a1f" target="_top" xlink:title="locomotor.core.Accreditation\lLevel.isAdmin">
<polygon fill="#ffffff" stroke="#000000" points="128.1426,-.5 128.1426,-28.5 270.3193,-28.5 270.3193,-.5 128.1426,-.5"/>
<text text-anchor="start" x="136.1426" y="-16.5" font-family="Helvetica,sans-Serif" font-size="10.00" fill="#000000">locomotor.core.Accreditation</text>
<text text-anchor="middle" x="199.231" y="-6.5" font-family="Helvetica,sans-Serif" font-size="10.00" fill="#000000">Level.isAdmin</text>
</a>
</g>
</g>
<!-- Node1&#45;&gt;Node6 -->
<g id="edge5" class="edge">
<title>Node1&#45;&gt;Node6</title>
<path fill="none" stroke="#191970" d="M56.4964,-75.374C71.8395,-65.2993 97.9004,-49.1065 122.0195,-38.5 127.3703,-36.147 133.0232,-33.9245 138.7384,-31.8522"/>
<polygon fill="#191970" stroke="#191970" points="140.0724,-35.0942 148.3731,-28.5102 137.7783,-28.4807 140.0724,-35.0942"/>
</g>
<!-- Node4 -->
<g id="node4" class="node">
<title>Node4</title>
<g id="a_node4"><a xlink:href="classlocomotor_1_1components_1_1logging_1_1_error_context.html#afcf30b71bfc65c74878c7ab77c951842" target="_top" xlink:title="locomotor.components.logging.\lErrorContext.push">
<polygon fill="#ffffff" stroke="#000000" points="312.4424,-94.5 312.4424,-122.5 466.8652,-122.5 466.8652,-94.5 312.4424,-94.5"/>
<text text-anchor="start" x="320.4424" y="-110.5" font-family="Helvetica,sans-Serif" font-size="10.00" fill="#000000">locomotor.components.logging.</text>
<text text-anchor="middle" x="389.6538" y="-100.5" font-family="Helvetica,sans-Serif" font-size="10.00" fill="#000000">ErrorContext.push</text>
</a>
</g>
</g>
<!-- Node3&#45;&gt;Node4 -->
<g id="edge3" class="edge">
<title>Node3&#45;&gt;Node4</title>
<path fill="none" stroke="#191970" d="M276.6832,-108.5C285.0285,-108.5 293.5624,-108.5 302.0162,-108.5"/>
<polygon fill="#191970" stroke="#191970" points="302.2702,-112.0001 312.2702,-108.5 302.2702,-105.0001 302.2702,-112.0001"/>
</g>
</g>
</svg>
