<?xml version="1.0" encoding="UTF-8" standalone="no"?>
<!DOCTYPE svg PUBLIC "-//W3C//DTD SVG 1.1//EN"
 "http://www.w3.org/Graphics/SVG/1.1/DTD/svg11.dtd">
<!-- Generated by graphviz version 2.40.1 (20161225.0304)
 -->
<!-- Title: toJSON Pages: 1 -->
<svg width="430pt" height="158pt"
 viewBox="0.00 0.00 430.37 158.00" xmlns="http://www.w3.org/2000/svg" xmlns:xlink="http://www.w3.org/1999/xlink">
<g id="graph0" class="graph" transform="scale(1 1) rotate(0) translate(4 154)">
<title>toJSON</title>
<polygon fill="#ffffff" stroke="transparent" points="-4,4 -4,-154 426.373,-154 426.373,4 -4,4"/>
<!-- Node1 -->
<g id="node1" class="node">
<title>Node1</title>
<polygon fill="#bfbfbf" stroke="#000000" points="0,-73.5 0,-91.5 51.0098,-91.5 51.0098,-73.5 0,-73.5"/>
<text text-anchor="middle" x="25.5049" y="-79.5" font-family="Helvetica,sans-Serif" font-size="10.00" fill="#000000">toJSON</text>
</g>
<!-- Node2 -->
<g id="node2" class="node">
<title>Node2</title>
<g id="a_node2"><a xlink:href="classlocomotor_1_1components_1_1_pair.html#a54ce528c748b0b56861a8179404e34f5" target="_top" xlink:title="locomotor.components.Pair.getLeft">
<polygon fill="#ffffff" stroke="#000000" points="87.0098,-131.5 87.0098,-149.5 256.999,-149.5 256.999,-131.5 87.0098,-131.5"/>
<text text-anchor="middle" x="172.0044" y="-137.5" font-family="Helvetica,sans-Serif" font-size="10.00" fill="#000000">locomotor.components.Pair.getLeft</text>
</a>
</g>
</g>
<!-- Node1&#45;&gt;Node2 -->
<g id="edge1" class="edge">
<title>Node1&#45;&gt;Node2</title>
<path fill="none" stroke="#191970" d="M36.5814,-91.525C48.3797,-100.6834 67.9455,-114.6042 87.0098,-122.5 92.7712,-124.8862 98.8885,-126.9711 105.0965,-128.7898"/>
<polygon fill="#191970" stroke="#191970" points="104.3217,-132.2059 114.8884,-131.4338 106.1465,-125.448 104.3217,-132.2059"/>
</g>
<!-- Node3 -->
<g id="node3" class="node">
<title>Node3</title>
<g id="a_node3"><a xlink:href="classlocomotor_1_1core_1_1_d_b_h.html#a0b2d292079fe232a4c3dae4636167641" target="_top" xlink:title="locomotor.core.DBH.getInstance">
<polygon fill="#ffffff" stroke="#000000" points="92.022,-94.5 92.022,-112.5 251.9868,-112.5 251.9868,-94.5 92.022,-94.5"/>
<text text-anchor="middle" x="172.0044" y="-100.5" font-family="Helvetica,sans-Serif" font-size="10.00" fill="#000000">locomotor.core.DBH.getInstance</text>
</a>
</g>
</g>
<!-- Node1&#45;&gt;Node3 -->
<g id="edge2" class="edge">
<title>Node1&#45;&gt;Node3</title>
<path fill="none" stroke="#191970" d="M51.0232,-86.1579C64.4548,-88.0833 81.6791,-90.5523 98.8932,-93.0199"/>
<polygon fill="#191970" stroke="#191970" points="98.6031,-96.514 108.9986,-94.4684 99.5965,-89.5848 98.6031,-96.514"/>
</g>
<!-- Node5 -->
<g id="node5" class="node">
<title>Node5</title>
<g id="a_node5"><a xlink:href="classlocomotor_1_1core_1_1_d_b_h.html#a187693f2e10c94113aefcb345fe5f518" target="_top" xlink:title="locomotor.core.DBH.getPartial\lInfoOfItem">
<polygon fill="#ffffff" stroke="#000000" points="96.751,-47.5 96.751,-75.5 247.2578,-75.5 247.2578,-47.5 96.751,-47.5"/>
<text text-anchor="start" x="104.751" y="-63.5" font-family="Helvetica,sans-Serif" font-size="10.00" fill="#000000">locomotor.core.DBH.getPartial</text>
<text text-anchor="middle" x="172.0044" y="-53.5" font-family="Helvetica,sans-Serif" font-size="10.00" fill="#000000">InfoOfItem</text>
</a>
</g>
</g>
<!-- Node1&#45;&gt;Node5 -->
<g id="edge4" class="edge">
<title>Node1&#45;&gt;Node5</title>
<path fill="none" stroke="#191970" d="M51.0232,-78.8421C61.2795,-77.3719 73.7471,-75.5847 86.7329,-73.7233"/>
<polygon fill="#191970" stroke="#191970" points="87.3341,-77.1729 96.7363,-72.2893 86.3408,-70.2438 87.3341,-77.1729"/>
</g>
<!-- Node6 -->
<g id="node6" class="node">
<title>Node6</title>
<g id="a_node6"><a xlink:href="classlocomotor_1_1components_1_1_pair.html#a372a73c0f39951186746e06a624f43d8" target="_top" xlink:title="locomotor.components.Pair.get\lRight">
<polygon fill="#ffffff" stroke="#000000" points="95.3496,-.5 95.3496,-28.5 248.6592,-28.5 248.6592,-.5 95.3496,-.5"/>
<text text-anchor="start" x="103.3496" y="-16.5" font-family="Helvetica,sans-Serif" font-size="10.00" fill="#000000">locomotor.components.Pair.get</text>
<text text-anchor="middle" x="172.0044" y="-6.5" font-family="Helvetica,sans-Serif" font-size="10.00" fill="#000000">Right</text>
</a>
</g>
</g>
<!-- Node1&#45;&gt;Node6 -->
<g id="edge5" class="edge">
<title>Node1&#45;&gt;Node6</title>
<path fill="none" stroke="#191970" d="M36.1069,-73.1509C47.8202,-63.2625 67.6039,-47.8285 87.0098,-38.5 91.9329,-36.1334 97.1317,-33.9608 102.4343,-31.9738"/>
<polygon fill="#191970" stroke="#191970" points="103.778,-35.2116 112.0537,-28.5962 101.4589,-28.6069 103.778,-35.2116"/>
</g>
<!-- Node4 -->
<g id="node4" class="node">
<title>Node4</title>
<g id="a_node4"><a xlink:href="classlocomotor_1_1core_1_1_d_b_h.html#a2d5f1f766f5863a46ed29b7e56118364" target="_top" xlink:title="locomotor.core.DBH.DBH">
<polygon fill="#ffffff" stroke="#000000" points="292.999,-94.5 292.999,-112.5 422.373,-112.5 422.373,-94.5 292.999,-94.5"/>
<text text-anchor="middle" x="357.686" y="-100.5" font-family="Helvetica,sans-Serif" font-size="10.00" fill="#000000">locomotor.core.DBH.DBH</text>
</a>
</g>
</g>
<!-- Node3&#45;&gt;Node4 -->
<g id="edge3" class="edge">
<title>Node3&#45;&gt;Node4</title>
<path fill="none" stroke="#191970" d="M252.0974,-103.5C262.3299,-103.5 272.773,-103.5 282.9167,-103.5"/>
<polygon fill="#191970" stroke="#191970" points="282.9417,-107.0001 292.9417,-103.5 282.9416,-100.0001 282.9417,-107.0001"/>
</g>
</g>
</svg>
