<?xml version="1.0" encoding="UTF-8" standalone="no"?>
<!DOCTYPE svg PUBLIC "-//W3C//DTD SVG 1.1//EN"
 "http://www.w3.org/Graphics/SVG/1.1/DTD/svg11.dtd">
<!-- Generated by graphviz version 2.40.1 (20161225.0304)
 -->
<!-- Title: getInstance Pages: 1 -->
<svg width="508pt" height="168pt"
 viewBox="0.00 0.00 507.65 168.00" xmlns="http://www.w3.org/2000/svg" xmlns:xlink="http://www.w3.org/1999/xlink">
<g id="graph0" class="graph" transform="scale(1 1) rotate(0) translate(4 164)">
<title>getInstance</title>
<polygon fill="#ffffff" stroke="transparent" points="-4,4 -4,-164 503.6533,-164 503.6533,4 -4,4"/>
<!-- Node1 -->
<g id="node1" class="node">
<title>Node1</title>
<polygon fill="#bfbfbf" stroke="#000000" points="0,-99.5 0,-117.5 67.7041,-117.5 67.7041,-99.5 0,-99.5"/>
<text text-anchor="middle" x="33.8521" y="-105.5" font-family="Helvetica,sans-Serif" font-size="10.00" fill="#000000">getInstance</text>
</g>
<!-- Node2 -->
<g id="node2" class="node">
<title>Node2</title>
<g id="a_node2"><a xlink:href="classlocomotor_1_1front_1_1components_1_1_front_resource_manager.html#a0137fff2228ab372a477b862b10abd00" target="_top" xlink:title="FrontResourceManager">
<polygon fill="#ffffff" stroke="#000000" points="132.8887,-141.5 132.8887,-159.5 254.4941,-159.5 254.4941,-141.5 132.8887,-141.5"/>
<text text-anchor="middle" x="193.6914" y="-147.5" font-family="Helvetica,sans-Serif" font-size="10.00" fill="#000000">FrontResourceManager</text>
</a>
</g>
</g>
<!-- Node1&#45;&gt;Node2 -->
<g id="edge1" class="edge">
<title>Node1&#45;&gt;Node2</title>
<path fill="none" stroke="#191970" d="M57.5309,-117.5174C70.9425,-122.4012 88.1078,-128.2811 103.7041,-132.5 112.9498,-135.001 122.8156,-137.3201 132.5004,-139.4046"/>
<polygon fill="#191970" stroke="#191970" points="131.9898,-142.8734 142.4939,-141.4899 133.4197,-136.021 131.9898,-142.8734"/>
</g>
<!-- Node3 -->
<g id="node3" class="node">
<title>Node3</title>
<g id="a_node3"><a xlink:href="classlocomotor_1_1front_1_1components_1_1network_1_1_client_request.html#a5177dbc0e509337643b1931cab9832ca" target="_top" xlink:title="locomotor.front.components.network.\lClientRequest.addParam">
<polygon fill="#ffffff" stroke="#000000" points="103.7041,-94.5 103.7041,-122.5 283.6787,-122.5 283.6787,-94.5 103.7041,-94.5"/>
<text text-anchor="start" x="111.7041" y="-110.5" font-family="Helvetica,sans-Serif" font-size="10.00" fill="#000000">locomotor.front.components.network.</text>
<text text-anchor="middle" x="193.6914" y="-100.5" font-family="Helvetica,sans-Serif" font-size="10.00" fill="#000000">ClientRequest.addParam</text>
</a>
</g>
</g>
<!-- Node1&#45;&gt;Node3 -->
<g id="edge2" class="edge">
<title>Node1&#45;&gt;Node3</title>
<path fill="none" stroke="#191970" d="M67.7499,-108.5C75.6237,-108.5 84.4016,-108.5 93.5584,-108.5"/>
<polygon fill="#191970" stroke="#191970" points="93.6185,-112.0001 103.6184,-108.5 93.6184,-105.0001 93.6185,-112.0001"/>
</g>
<!-- Node5 -->
<g id="node5" class="node">
<title>Node5</title>
<g id="a_node5"><a xlink:href="classlocomotor_1_1front_1_1components_1_1network_1_1_client_request.html#af820b68be6077f053a589af5c865700c" target="_top" xlink:title="locomotor.front.components.network.\lClientRequest.requestJson">
<polygon fill="#ffffff" stroke="#000000" points="103.7041,-47.5 103.7041,-75.5 283.6787,-75.5 283.6787,-47.5 103.7041,-47.5"/>
<text text-anchor="start" x="111.7041" y="-63.5" font-family="Helvetica,sans-Serif" font-size="10.00" fill="#000000">locomotor.front.components.network.</text>
<text text-anchor="middle" x="193.6914" y="-53.5" font-family="Helvetica,sans-Serif" font-size="10.00" fill="#000000">ClientRequest.requestJson</text>
</a>
</g>
</g>
<!-- Node1&#45;&gt;Node5 -->
<g id="edge4" class="edge">
<title>Node1&#45;&gt;Node5</title>
<path fill="none" stroke="#191970" d="M60.2749,-99.4027C73.2956,-95.0214 89.2647,-89.7989 103.7041,-85.5 111.835,-83.0793 120.4131,-80.6427 128.9134,-78.2984"/>
<polygon fill="#191970" stroke="#191970" points="130.0982,-81.6032 138.8249,-75.5953 128.2564,-74.8498 130.0982,-81.6032"/>
</g>
<!-- Node4 -->
<g id="node4" class="node">
<title>Node4</title>
<g id="a_node4"><a xlink:href="classlocomotor_1_1front_1_1components_1_1network_1_1_file_upload.html#ab075e2b20b12151e05bf1fb51e40c1db" target="_top" xlink:title="locomotor.front.components.network.\lFileUpload.add">
<polygon fill="#ffffff" stroke="#000000" points="319.6787,-94.5 319.6787,-122.5 499.6533,-122.5 499.6533,-94.5 319.6787,-94.5"/>
<text text-anchor="start" x="327.6787" y="-110.5" font-family="Helvetica,sans-Serif" font-size="10.00" fill="#000000">locomotor.front.components.network.</text>
<text text-anchor="middle" x="409.666" y="-100.5" font-family="Helvetica,sans-Serif" font-size="10.00" fill="#000000">FileUpload.add</text>
</a>
</g>
</g>
<!-- Node3&#45;&gt;Node4 -->
<g id="edge3" class="edge">
<title>Node3&#45;&gt;Node4</title>
<path fill="none" stroke="#191970" d="M283.7202,-108.5C292.2057,-108.5 300.8434,-108.5 309.4157,-108.5"/>
<polygon fill="#191970" stroke="#191970" points="309.4359,-112.0001 319.4358,-108.5 309.4358,-105.0001 309.4359,-112.0001"/>
</g>
<!-- Node6 -->
<g id="node6" class="node">
<title>Node6</title>
<g id="a_node6"><a xlink:href="classlocomotor_1_1front_1_1components_1_1network_1_1_file_upload.html#abbb8544c46b88f1a6f1e163725aaa1b3" target="_top" xlink:title="locomotor.front.components.network.\lFileUpload.send">
<polygon fill="#ffffff" stroke="#000000" points="319.6787,-47.5 319.6787,-75.5 499.6533,-75.5 499.6533,-47.5 319.6787,-47.5"/>
<text text-anchor="start" x="327.6787" y="-63.5" font-family="Helvetica,sans-Serif" font-size="10.00" fill="#000000">locomotor.front.components.network.</text>
<text text-anchor="middle" x="409.666" y="-53.5" font-family="Helvetica,sans-Serif" font-size="10.00" fill="#000000">FileUpload.send</text>
</a>
</g>
</g>
<!-- Node5&#45;&gt;Node6 -->
<g id="edge5" class="edge">
<title>Node5&#45;&gt;Node6</title>
<path fill="none" stroke="#191970" d="M283.7202,-61.5C292.2057,-61.5 300.8434,-61.5 309.4157,-61.5"/>
<polygon fill="#191970" stroke="#191970" points="309.4359,-65.0001 319.4358,-61.5 309.4358,-58.0001 309.4359,-65.0001"/>
</g>
<!-- Node7 -->
<g id="node7" class="node">
<title>Node7</title>
<g id="a_node7"><a xlink:href="classlocomotor_1_1front_1_1components_1_1network_1_1_file_upload.html#ad90278946fac31b255b0ea524061a60b" target="_top" xlink:title="locomotor.front.components.network.\lFileUpload.getURLConnection">
<polygon fill="#ffffff" stroke="#000000" points="319.6787,-.5 319.6787,-28.5 499.6533,-28.5 499.6533,-.5 319.6787,-.5"/>
<text text-anchor="start" x="327.6787" y="-16.5" font-family="Helvetica,sans-Serif" font-size="10.00" fill="#000000">locomotor.front.components.network.</text>
<text text-anchor="middle" x="409.666" y="-6.5" font-family="Helvetica,sans-Serif" font-size="10.00" fill="#000000">FileUpload.getURLConnection</text>
</a>
</g>
</g>
<!-- Node5&#45;&gt;Node7 -->
<g id="edge6" class="edge">
<title>Node5&#45;&gt;Node7</title>
<path fill="none" stroke="#191970" d="M258.1984,-47.4621C282.449,-42.1847 310.2118,-36.1431 335.2886,-30.6859"/>
<polygon fill="#191970" stroke="#191970" points="336.0915,-34.0932 345.1185,-28.5467 334.6029,-27.2532 336.0915,-34.0932"/>
</g>
</g>
</svg>
