<?xml version="1.0" encoding="UTF-8" standalone="no"?>
<!DOCTYPE svg PUBLIC "-//W3C//DTD SVG 1.1//EN"
 "http://www.w3.org/Graphics/SVG/1.1/DTD/svg11.dtd">
<!-- Generated by graphviz version 2.40.1 (20161225.0304)
 -->
<!-- Title: getUser Pages: 1 -->
<svg width="990pt" height="37pt"
 viewBox="0.00 0.00 989.92 37.00" xmlns="http://www.w3.org/2000/svg" xmlns:xlink="http://www.w3.org/1999/xlink">
<g id="graph0" class="graph" transform="scale(1 1) rotate(0) translate(4 33)">
<title>getUser</title>
<polygon fill="#ffffff" stroke="transparent" points="-4,4 -4,-33 985.9229,-33 985.9229,4 -4,4"/>
<!-- Node1 -->
<g id="node1" class="node">
<title>Node1</title>
<polygon fill="#bfbfbf" stroke="#000000" points="0,-5.5 0,-23.5 51.0146,-23.5 51.0146,-5.5 0,-5.5"/>
<text text-anchor="middle" x="25.5073" y="-11.5" font-family="Helvetica,sans-Serif" font-size="10.00" fill="#000000">getUser</text>
</g>
<!-- Node2 -->
<g id="node2" class="node">
<title>Node2</title>
<g id="a_node2"><a xlink:href="classlocomotor_1_1components_1_1models_1_1_user_criteria.html#aaca1c5ec640a1453943ce97d40e12a63" target="_top" xlink:title="locomotor.components.models.\lUserCriteria.fromJSON">
<polygon fill="#ffffff" stroke="#000000" points="87.0146,-.5 87.0146,-28.5 241.4229,-28.5 241.4229,-.5 87.0146,-.5"/>
<text text-anchor="start" x="95.0146" y="-16.5" font-family="Helvetica,sans-Serif" font-size="10.00" fill="#000000">locomotor.components.models.</text>
<text text-anchor="middle" x="164.2188" y="-6.5" font-family="Helvetica,sans-Serif" font-size="10.00" fill="#000000">UserCriteria.fromJSON</text>
</a>
</g>
</g>
<!-- Node1&#45;&gt;Node2 -->
<g id="edge1" class="edge">
<title>Node1&#45;&gt;Node2</title>
<path fill="none" stroke="#191970" d="M61.2805,-14.5C69.276,-14.5 78.0565,-14.5 87.0139,-14.5"/>
<polygon fill="#191970" stroke="#191970" points="61.2728,-11.0001 51.2728,-14.5 61.2728,-18.0001 61.2728,-11.0001"/>
</g>
<!-- Node3 -->
<g id="node3" class="node">
<title>Node3</title>
<g id="a_node3"><a xlink:href="classlocomotor_1_1components_1_1models_1_1_user_category.html#a52e02970889790bace019e61fb256ff0" target="_top" xlink:title="locomotor.components.models.\lUserCategory.fromJSON">
<polygon fill="#ffffff" stroke="#000000" points="277.4229,-.5 277.4229,-28.5 431.8311,-28.5 431.8311,-.5 277.4229,-.5"/>
<text text-anchor="start" x="285.4229" y="-16.5" font-family="Helvetica,sans-Serif" font-size="10.00" fill="#000000">locomotor.components.models.</text>
<text text-anchor="middle" x="354.627" y="-6.5" font-family="Helvetica,sans-Serif" font-size="10.00" fill="#000000">UserCategory.fromJSON</text>
</a>
</g>
</g>
<!-- Node2&#45;&gt;Node3 -->
<g id="edge2" class="edge">
<title>Node2&#45;&gt;Node3</title>
<path fill="none" stroke="#191970" d="M251.9191,-14.5C260.3727,-14.5 268.9057,-14.5 277.2493,-14.5"/>
<polygon fill="#191970" stroke="#191970" points="251.6651,-11.0001 241.6651,-14.5 251.665,-18.0001 251.6651,-11.0001"/>
</g>
<!-- Node4 -->
<g id="node4" class="node">
<title>Node4</title>
<g id="a_node4"><a xlink:href="classlocomotor_1_1components_1_1models_1_1_user_item.html#ab97f79cf43a9a73bcd77cec6b449a79a" target="_top" xlink:title="locomotor.components.models.\lUserItem.fromJSON">
<polygon fill="#ffffff" stroke="#000000" points="467.8311,-.5 467.8311,-28.5 622.2393,-28.5 622.2393,-.5 467.8311,-.5"/>
<text text-anchor="start" x="475.8311" y="-16.5" font-family="Helvetica,sans-Serif" font-size="10.00" fill="#000000">locomotor.components.models.</text>
<text text-anchor="middle" x="545.0352" y="-6.5" font-family="Helvetica,sans-Serif" font-size="10.00" fill="#000000">UserItem.fromJSON</text>
</a>
</g>
</g>
<!-- Node3&#45;&gt;Node4 -->
<g id="edge3" class="edge">
<title>Node3&#45;&gt;Node4</title>
<path fill="none" stroke="#191970" d="M442.3273,-14.5C450.7809,-14.5 459.3139,-14.5 467.6575,-14.5"/>
<polygon fill="#191970" stroke="#191970" points="442.0733,-11.0001 432.0733,-14.5 442.0732,-18.0001 442.0733,-11.0001"/>
</g>
<!-- Node5 -->
<g id="node5" class="node">
<title>Node5</title>
<g id="a_node5"><a xlink:href="classlocomotor_1_1components_1_1network_1_1_a_p_i.html#a547463fbc7fb7b485886f0917e2c0b78" target="_top" xlink:title="locomotor.components.network.\lAPI.createHooks">
<polygon fill="#ffffff" stroke="#000000" points="658.2393,-.5 658.2393,-28.5 815.4258,-28.5 815.4258,-.5 658.2393,-.5"/>
<text text-anchor="start" x="666.2393" y="-16.5" font-family="Helvetica,sans-Serif" font-size="10.00" fill="#000000">locomotor.components.network.</text>
<text text-anchor="middle" x="736.8325" y="-6.5" font-family="Helvetica,sans-Serif" font-size="10.00" fill="#000000">API.createHooks</text>
</a>
</g>
</g>
<!-- Node4&#45;&gt;Node5 -->
<g id="edge4" class="edge">
<title>Node4&#45;&gt;Node5</title>
<path fill="none" stroke="#191970" d="M632.7598,-14.5C641.2257,-14.5 649.7772,-14.5 658.1477,-14.5"/>
<polygon fill="#191970" stroke="#191970" points="632.4937,-11.0001 622.4936,-14.5 632.4936,-18.0001 632.4937,-11.0001"/>
</g>
<!-- Node6 -->
<g id="node6" class="node">
<title>Node6</title>
<g id="a_node6"><a xlink:href="classlocomotor_1_1core_1_1_main.html#a8b260eecbaabcef8473fd87ada040682" target="_top" xlink:title="locomotor.core.Main.main">
<polygon fill="#ffffff" stroke="#000000" points="851.4258,-5.5 851.4258,-23.5 981.9229,-23.5 981.9229,-5.5 851.4258,-5.5"/>
<text text-anchor="middle" x="916.6743" y="-11.5" font-family="Helvetica,sans-Serif" font-size="10.00" fill="#000000">locomotor.core.Main.main</text>
</a>
</g>
</g>
<!-- Node5&#45;&gt;Node6 -->
<g id="edge5" class="edge">
<title>Node5&#45;&gt;Node6</title>
<path fill="none" stroke="#191970" d="M825.6255,-14.5C834.3138,-14.5 843.0162,-14.5 851.4081,-14.5"/>
<polygon fill="#191970" stroke="#191970" points="825.4522,-11.0001 815.4521,-14.5 825.4521,-18.0001 825.4522,-11.0001"/>
</g>
</g>
</svg>
