<?xml version="1.0" encoding="UTF-8" standalone="no"?>
<!DOCTYPE svg PUBLIC "-//W3C//DTD SVG 1.1//EN"
 "http://www.w3.org/Graphics/SVG/1.1/DTD/svg11.dtd">
<!-- Generated by graphviz version 2.40.1 (20161225.0304)
 -->
<!-- Title: addUniverse Pages: 1 -->
<svg width="440pt" height="37pt"
 viewBox="0.00 0.00 439.83 37.00" xmlns="http://www.w3.org/2000/svg" xmlns:xlink="http://www.w3.org/1999/xlink">
<g id="graph0" class="graph" transform="scale(1 1) rotate(0) translate(4 33)">
<title>addUniverse</title>
<polygon fill="#ffffff" stroke="transparent" points="-4,4 -4,-33 435.8262,-33 435.8262,4 -4,4"/>
<!-- Node1 -->
<g id="node1" class="node">
<title>Node1</title>
<polygon fill="#bfbfbf" stroke="#000000" points="0,-5.5 0,-23.5 72.1426,-23.5 72.1426,-5.5 0,-5.5"/>
<text text-anchor="middle" x="36.0713" y="-11.5" font-family="Helvetica,sans-Serif" font-size="10.00" fill="#000000">addUniverse</text>
</g>
<!-- Node2 -->
<g id="node2" class="node">
<title>Node2</title>
<g id="a_node2"><a xlink:href="classlocomotor_1_1components_1_1network_1_1_a_p_i.html#a547463fbc7fb7b485886f0917e2c0b78" target="_top" xlink:title="locomotor.components.network.\lAPI.createHooks">
<polygon fill="#ffffff" stroke="#000000" points="108.1426,-.5 108.1426,-28.5 265.3291,-28.5 265.3291,-.5 108.1426,-.5"/>
<text text-anchor="start" x="116.1426" y="-16.5" font-family="Helvetica,sans-Serif" font-size="10.00" fill="#000000">locomotor.components.network.</text>
<text text-anchor="middle" x="186.7358" y="-6.5" font-family="Helvetica,sans-Serif" font-size="10.00" fill="#000000">API.createHooks</text>
</a>
</g>
</g>
<!-- Node1&#45;&gt;Node2 -->
<g id="edge1" class="edge">
<title>Node1&#45;&gt;Node2</title>
<path fill="none" stroke="#191970" d="M82.2155,-14.5C90.4136,-14.5 99.1574,-14.5 107.9639,-14.5"/>
<polygon fill="#191970" stroke="#191970" points="82.1592,-11.0001 72.1592,-14.5 82.1592,-18.0001 82.1592,-11.0001"/>
</g>
<!-- Node3 -->
<g id="node3" class="node">
<title>Node3</title>
<g id="a_node3"><a xlink:href="classlocomotor_1_1core_1_1_main.html#a8b260eecbaabcef8473fd87ada040682" target="_top" xlink:title="locomotor.core.Main.main">
<polygon fill="#ffffff" stroke="#000000" points="301.3291,-5.5 301.3291,-23.5 431.8262,-23.5 431.8262,-5.5 301.3291,-5.5"/>
<text text-anchor="middle" x="366.5776" y="-11.5" font-family="Helvetica,sans-Serif" font-size="10.00" fill="#000000">locomotor.core.Main.main</text>
</a>
</g>
</g>
<!-- Node2&#45;&gt;Node3 -->
<g id="edge2" class="edge">
<title>Node2&#45;&gt;Node3</title>
<path fill="none" stroke="#191970" d="M275.5289,-14.5C284.2172,-14.5 292.9195,-14.5 301.3114,-14.5"/>
<polygon fill="#191970" stroke="#191970" points="275.3555,-11.0001 265.3554,-14.5 275.3554,-18.0001 275.3555,-11.0001"/>
</g>
</g>
</svg>
