<?xml version="1.0" encoding="UTF-8" standalone="no"?>
<!DOCTYPE svg PUBLIC "-//W3C//DTD SVG 1.1//EN"
 "http://www.w3.org/Graphics/SVG/1.1/DTD/svg11.dtd">
<!-- Generated by graphviz version 2.40.1 (20161225.0304)
 -->
<!-- Title: Criteria Pages: 1 -->
<svg width="107pt" height="148pt"
 viewBox="0.00 0.00 107.38 148.00" xmlns="http://www.w3.org/2000/svg" xmlns:xlink="http://www.w3.org/1999/xlink">
<g id="graph0" class="graph" transform="scale(1 1) rotate(0) translate(4 144)">
<title>Criteria</title>
<polygon fill="#ffffff" stroke="transparent" points="-4,4 -4,-144 103.3789,-144 103.3789,4 -4,4"/>
<!-- Node1 -->
<g id="node1" class="node">
<title>Node1</title>
<polygon fill="#bfbfbf" stroke="#000000" points="25.5762,-.5 25.5762,-18.5 73.8027,-18.5 73.8027,-.5 25.5762,-.5"/>
<text text-anchor="middle" x="49.6895" y="-6.5" font-family="Helvetica,sans-Serif" font-size="10.00" fill="#000000">Criteria</text>
</g>
<!-- Node2 -->
<g id="node2" class="node">
<title>Node2</title>
<g id="a_node2"><a xlink:href="interfacelocomotor_1_1components_1_1types_1_1_c_comparable_type.html" target="_top" xlink:title="CComparableType">
<polygon fill="#ffffff" stroke="#000000" points="0,-65.5 0,-83.5 99.3789,-83.5 99.3789,-65.5 0,-65.5"/>
<text text-anchor="middle" x="49.6895" y="-71.5" font-family="Helvetica,sans-Serif" font-size="10.00" fill="#000000">CComparableType</text>
</a>
</g>
</g>
<!-- Node2&#45;&gt;Node1 -->
<g id="edge1" class="edge">
<title>Node2&#45;&gt;Node1</title>
<path fill="none" stroke="#9a32cd" stroke-dasharray="5,2" d="M49.6895,-55.1265C49.6895,-43.1522 49.6895,-28.3205 49.6895,-18.8821"/>
<polygon fill="#9a32cd" stroke="#9a32cd" points="46.1895,-55.462 49.6895,-65.462 53.1895,-55.4621 46.1895,-55.462"/>
<text text-anchor="middle" x="65.8125" y="-39" font-family="Helvetica,sans-Serif" font-size="10.00" fill="#000000"> _value</text>
</g>
<!-- Node3 -->
<g id="node3" class="node">
<title>Node3</title>
<g id="a_node3"><a xlink:href="interfacelocomotor_1_1components_1_1types_1_1_c_type.html" target="_top" xlink:title="CType">
<polygon fill="#ffffff" stroke="#000000" points="27.2363,-121.5 27.2363,-139.5 72.1426,-139.5 72.1426,-121.5 27.2363,-121.5"/>
<text text-anchor="middle" x="49.6895" y="-127.5" font-family="Helvetica,sans-Serif" font-size="10.00" fill="#000000">CType</text>
</a>
</g>
</g>
<!-- Node3&#45;&gt;Node2 -->
<g id="edge2" class="edge">
<title>Node3&#45;&gt;Node2</title>
<path fill="none" stroke="#191970" d="M49.6895,-111.2065C49.6895,-101.8384 49.6895,-91.0262 49.6895,-83.5752"/>
<polygon fill="#191970" stroke="#191970" points="46.1896,-111.2527 49.6895,-121.2527 53.1896,-111.2528 46.1896,-111.2527"/>
</g>
</g>
</svg>
