<?xml version="1.0" encoding="UTF-8" standalone="no"?>
<!DOCTYPE svg PUBLIC "-//W3C//DTD SVG 1.1//EN"
 "http://www.w3.org/Graphics/SVG/1.1/DTD/svg11.dtd">
<!-- Generated by graphviz version 2.40.1 (20161225.0304)
 -->
<!-- Title: Gaussian Pages: 1 -->
<svg width="254pt" height="27pt"
 viewBox="0.00 0.00 253.63 27.00" xmlns="http://www.w3.org/2000/svg" xmlns:xlink="http://www.w3.org/1999/xlink">
<g id="graph0" class="graph" transform="scale(1 1) rotate(0) translate(4 23)">
<title>Gaussian</title>
<polygon fill="#ffffff" stroke="transparent" points="-4,4 -4,-23 249.6348,-23 249.6348,4 -4,4"/>
<!-- Node1 -->
<g id="node1" class="node">
<title>Node1</title>
<polygon fill="#bfbfbf" stroke="#000000" points="0,-.5 0,-18.5 58.2461,-18.5 58.2461,-.5 0,-.5"/>
<text text-anchor="middle" x="29.123" y="-6.5" font-family="Helvetica,sans-Serif" font-size="10.00" fill="#000000">Gaussian</text>
</g>
<!-- Node2 -->
<g id="node2" class="node">
<title>Node2</title>
<g id="a_node2"><a xlink:href="classlocomotor_1_1core_1_1_gaussian.html#aaa66f1ce25c09e6e7cbd82c46ba0b4ae" target="_top" xlink:title="pdf">
<polygon fill="#ffffff" stroke="#000000" points="94.2461,-.5 94.2461,-18.5 124.1475,-18.5 124.1475,-.5 94.2461,-.5"/>
<text text-anchor="middle" x="109.1968" y="-6.5" font-family="Helvetica,sans-Serif" font-size="10.00" fill="#000000">pdf</text>
</a>
</g>
</g>
<!-- Node1&#45;&gt;Node2 -->
<g id="edge1" class="edge">
<title>Node1&#45;&gt;Node2</title>
<path fill="none" stroke="#191970" d="M58.4849,-9.5C66.9264,-9.5 76.051,-9.5 84.2022,-9.5"/>
<polygon fill="#191970" stroke="#191970" points="84.2178,-13.0001 94.2177,-9.5 84.2177,-6.0001 84.2178,-13.0001"/>
</g>
<!-- Node3 -->
<g id="node3" class="node">
<title>Node3</title>
<g id="a_node3"><a xlink:href="classlocomotor_1_1core_1_1_gaussian.html#afd611f311f6fe230f8fad8bd0c7e0a51" target="_top" xlink:title="getNearestStep">
<polygon fill="#ffffff" stroke="#000000" points="160.1475,-.5 160.1475,-18.5 245.6348,-18.5 245.6348,-.5 160.1475,-.5"/>
<text text-anchor="middle" x="202.8911" y="-6.5" font-family="Helvetica,sans-Serif" font-size="10.00" fill="#000000">getNearestStep</text>
</a>
</g>
</g>
<!-- Node2&#45;&gt;Node3 -->
<g id="edge2" class="edge">
<title>Node2&#45;&gt;Node3</title>
<path fill="none" stroke="#191970" d="M124.2504,-9.5C131.3922,-9.5 140.4006,-9.5 149.7496,-9.5"/>
<polygon fill="#191970" stroke="#191970" points="149.9558,-13.0001 159.9557,-9.5 149.9557,-6.0001 149.9558,-13.0001"/>
</g>
</g>
</svg>
