<?xml version="1.0" encoding="UTF-8" standalone="no"?>
<!DOCTYPE svg PUBLIC "-//W3C//DTD SVG 1.1//EN"
 "http://www.w3.org/Graphics/SVG/1.1/DTD/svg11.dtd">
<!-- Generated by graphviz version 2.40.1 (20161225.0304)
 -->
<!-- Title: getAsBinary Pages: 1 -->
<svg width="518pt" height="37pt"
 viewBox="0.00 0.00 517.66 37.00" xmlns="http://www.w3.org/2000/svg" xmlns:xlink="http://www.w3.org/1999/xlink">
<g id="graph0" class="graph" transform="scale(1 1) rotate(0) translate(4 33)">
<title>getAsBinary</title>
<polygon fill="#ffffff" stroke="transparent" points="-4,4 -4,-33 513.6631,-33 513.6631,4 -4,4"/>
<!-- Node1 -->
<g id="node1" class="node">
<title>Node1</title>
<polygon fill="#bfbfbf" stroke="#000000" points="0,-5.5 0,-23.5 69.916,-23.5 69.916,-5.5 0,-5.5"/>
<text text-anchor="middle" x="34.958" y="-11.5" font-family="Helvetica,sans-Serif" font-size="10.00" fill="#000000">getAsBinary</text>
</g>
<!-- Node2 -->
<g id="node2" class="node">
<title>Node2</title>
<g id="a_node2"><a xlink:href="classlocomotor_1_1front_1_1components_1_1_front_resource_manager.html#a90ec9cbe2d393ac172e03972abf97f1d" target="_top" xlink:title="locomotor.front.components.\lFrontResourceManager.getRemoteResource">
<polygon fill="#ffffff" stroke="#000000" points="105.916,-.5 105.916,-28.5 321.4668,-28.5 321.4668,-.5 105.916,-.5"/>
<text text-anchor="start" x="113.916" y="-16.5" font-family="Helvetica,sans-Serif" font-size="10.00" fill="#000000">locomotor.front.components.</text>
<text text-anchor="middle" x="213.6914" y="-6.5" font-family="Helvetica,sans-Serif" font-size="10.00" fill="#000000">FrontResourceManager.getRemoteResource</text>
</a>
</g>
</g>
<!-- Node1&#45;&gt;Node2 -->
<g id="edge1" class="edge">
<title>Node1&#45;&gt;Node2</title>
<path fill="none" stroke="#191970" d="M80.3612,-14.5C88.3333,-14.5 96.9271,-14.5 105.7747,-14.5"/>
<polygon fill="#191970" stroke="#191970" points="80.27,-11.0001 70.27,-14.5 80.2699,-18.0001 80.27,-11.0001"/>
</g>
<!-- Node3 -->
<g id="node3" class="node">
<title>Node3</title>
<g id="a_node3"><a xlink:href="classlocomotor_1_1front_1_1user_1_1_bridge.html#afa7ac789194b4e4f08000205a0f96f11" target="_top" xlink:title="locomotor.front.user.Bridge.get\lModel">
<polygon fill="#ffffff" stroke="#000000" points="357.4668,-.5 357.4668,-28.5 509.6631,-28.5 509.6631,-.5 357.4668,-.5"/>
<text text-anchor="start" x="365.4668" y="-16.5" font-family="Helvetica,sans-Serif" font-size="10.00" fill="#000000">locomotor.front.user.Bridge.get</text>
<text text-anchor="middle" x="433.5649" y="-6.5" font-family="Helvetica,sans-Serif" font-size="10.00" fill="#000000">Model</text>
</a>
</g>
</g>
<!-- Node2&#45;&gt;Node3 -->
<g id="edge2" class="edge">
<title>Node2&#45;&gt;Node3</title>
<path fill="none" stroke="#191970" d="M331.8616,-14.5C340.5057,-14.5 349.0815,-14.5 357.3736,-14.5"/>
<polygon fill="#191970" stroke="#191970" points="331.6958,-11.0001 321.6958,-14.5 331.6957,-18.0001 331.6958,-11.0001"/>
</g>
</g>
</svg>
