<?xml version="1.0" encoding="UTF-8" standalone="no"?>
<!DOCTYPE svg PUBLIC "-//W3C//DTD SVG 1.1//EN"
 "http://www.w3.org/Graphics/SVG/1.1/DTD/svg11.dtd">
<!-- Generated by graphviz version 2.40.1 (20161225.0304)
 -->
<!-- Title: push Pages: 1 -->
<!--zoomable 968 -->
<svg id="main" version="1.1" xmlns="http://www.w3.org/2000/svg" xmlns:xlink="http://www.w3.org/1999/xlink" xml:space="preserve" onload="init(evt)">
<style type="text/css"><![CDATA[
.edge:hover path { stroke: red; }
.edge:hover polygon { stroke: red; fill: red; }
]]></style>
<script type="text/javascript"><![CDATA[
var edges = document.getElementsByTagName('g');
if (edges && edges.length) {
  for (var i=0;i<edges.length;i++) {
    if (edges[i].id.substr(0,4)=='edge') {
      edges[i].setAttribute('class','edge');
    }
  }
}
]]></script>
        <defs>
                <circle id="rim" cx="0" cy="0" r="7"/>
                <circle id="rim2" cx="0" cy="0" r="3.5"/>
                <g id="zoomPlus">
                        <use xlink:href="#rim" fill="#404040">
                                <set attributeName="fill" to="#808080" begin="zoomplus.mouseover" end="zoomplus.mouseout"/>
                        </use>
                        <path d="M-4,0h8M0,-4v8" fill="none" stroke="white" stroke-width="1.5" pointer-events="none"/>
                </g>
                <g id="zoomMin">
                        <use xlink:href="#rim" fill="#404040">
                                <set attributeName="fill" to="#808080" begin="zoomminus.mouseover" end="zoomminus.mouseout"/>
                        </use>
                        <path d="M-4,0h8" fill="none" stroke="white" stroke-width="1.5" pointer-events="none"/>
                </g>
                <g id="dirArrow">
                        <path fill="none" stroke="white" stroke-width="1.5" d="M0,-3.0v7 M-2.5,-0.5L0,-3.0L2.5,-0.5"/>
                </g>
               <g id="resetDef">
                       <use xlink:href="#rim2" fill="#404040">
                               <set attributeName="fill" to="#808080" begin="reset.mouseover" end="reset.mouseout"/>
                       </use>
               </g>
        </defs>

<script type="text/javascript">
var viewWidth = 1191;
var viewHeight = 968;
var sectionId = 'dynsection-4';
</script>
<script xlink:href="svgpan.js"/>
<svg id="graph" class="graph">
<g id="viewport">
<title>push</title>
<polygon fill="#ffffff" stroke="transparent" points="-4,4 -4,-963.9073 1186.8975,-963.9073 1186.8975,4 -4,4"/>
<!-- Node1 -->
<g id="node1" class="node">
<title>Node1</title>
<polygon fill="#bfbfbf" stroke="#000000" points="0,-508.1711 0,-526.1711 37.6846,-526.1711 37.6846,-508.1711 0,-508.1711"/>
<text text-anchor="middle" x="18.8423" y="-514.1711" font-family="Helvetica,sans-Serif" font-size="10.00" fill="#000000">push</text>
</g>
<!-- Node2 -->
<g id="node2" class="node">
<title>Node2</title>
<g id="a_node2"><a xlink:href="classlocomotor_1_1components_1_1logging_1_1_error_handler.html#abd00a9c37627740763cef91d76a77437" target="_top" xlink:title="locomotor.components.logging.\lErrorHandler.push">
<polygon fill="#ffffff" stroke="#000000" points="73.6846,-503.1711 73.6846,-531.1711 228.1074,-531.1711 228.1074,-503.1711 73.6846,-503.1711"/>
<text text-anchor="start" x="81.6846" y="-519.1711" font-family="Helvetica,sans-Serif" font-size="10.00" fill="#000000">locomotor.components.logging.</text>
<text text-anchor="middle" x="150.896" y="-509.1711" font-family="Helvetica,sans-Serif" font-size="10.00" fill="#000000">ErrorHandler.push</text>
</a>
</g>
</g>
<!-- Node1&#45;&gt;Node2 -->
<g id="edge1" class="edge">
<title>Node1&#45;&gt;Node2</title>
<path fill="none" stroke="#191970" d="M47.9614,-517.1711C55.6966,-517.1711 64.4274,-517.1711 73.4516,-517.1711"/>
<polygon fill="#191970" stroke="#191970" points="47.7624,-513.6712 37.7624,-517.1711 47.7623,-520.6712 47.7624,-513.6712"/>
</g>
<!-- Node3 -->
<g id="node3" class="node">
<title>Node3</title>
<g id="a_node3"><a xlink:href="classlocomotor_1_1components_1_1models_1_1_item_category_full.html#a50ab7c0f8e4a65f80ca141f1fa1c7df8" target="_top" xlink:title="locomotor.components.models.\lItemCategoryFull.fromJSON">
<polygon fill="#ffffff" stroke="#000000" points="464.7964,-831.1711 464.7964,-859.1711 619.2046,-859.1711 619.2046,-831.1711 464.7964,-831.1711"/>
<text text-anchor="start" x="472.7964" y="-847.1711" font-family="Helvetica,sans-Serif" font-size="10.00" fill="#000000">locomotor.components.models.</text>
<text text-anchor="middle" x="542.0005" y="-837.1711" font-family="Helvetica,sans-Serif" font-size="10.00" fill="#000000">ItemCategoryFull.fromJSON</text>
</a>
</g>
</g>
<!-- Node2&#45;&gt;Node3 -->
<g id="edge2" class="edge">
<title>Node2&#45;&gt;Node3</title>
<path fill="none" stroke="#191970" d="M153.3171,-541.2469C160.0944,-595.1554 184.3358,-725.9402 264.1074,-791.1711 279.6115,-803.8492 388.033,-822.2747 464.7618,-833.9888"/>
<polygon fill="#191970" stroke="#191970" points="156.7858,-540.7743 152.1526,-531.2463 149.8328,-541.584 156.7858,-540.7743"/>
</g>
<!-- Node4 -->
<g id="node4" class="node">
<title>Node4</title>
<g id="a_node4"><a xlink:href="classlocomotor_1_1components_1_1models_1_1_item_full.html#afe56c5f49cb59d04ec69bbf32b58a2f8" target="_top" xlink:title="locomotor.components.models.\lItemFull.fromJSON">
<polygon fill="#ffffff" stroke="#000000" points="663.8081,-831.1711 663.8081,-859.1711 818.2163,-859.1711 818.2163,-831.1711 663.8081,-831.1711"/>
<text text-anchor="start" x="671.8081" y="-847.1711" font-family="Helvetica,sans-Serif" font-size="10.00" fill="#000000">locomotor.components.models.</text>
<text text-anchor="middle" x="741.0122" y="-837.1711" font-family="Helvetica,sans-Serif" font-size="10.00" fill="#000000">ItemFull.fromJSON</text>
</a>
</g>
</g>
<!-- Node2&#45;&gt;Node4 -->
<g id="edge8" class="edge">
<title>Node2&#45;&gt;Node4</title>
<path fill="none" stroke="#191970" d="M153.8523,-541.6551C164.1427,-622.3287 201.233,-877.3675 264.1074,-925.1711 327.5616,-973.4157 552.8465,-963.3681 622.8105,-925.1711 648.7804,-910.9929 635.1092,-886.8829 658.8105,-869.1711 664.0505,-865.2554 669.9176,-861.9766 676.0414,-859.2317"/>
<polygon fill="#191970" stroke="#191970" points="157.2923,-540.957 152.5782,-531.4687 150.3464,-541.8258 157.2923,-540.957"/>
</g>
<!-- Node7 -->
<g id="node7" class="node">
<title>Node7</title>
<g id="a_node7"><a xlink:href="classlocomotor_1_1components_1_1models_1_1_item_criteria_full.html#a436730a3499b6d7b1d0359e12aa2f04a" target="_top" xlink:title="locomotor.components.models.\lItemCriteriaFull.fromJSON">
<polygon fill="#ffffff" stroke="#000000" points="267.4448,-840.1711 267.4448,-868.1711 421.853,-868.1711 421.853,-840.1711 267.4448,-840.1711"/>
<text text-anchor="start" x="275.4448" y="-856.1711" font-family="Helvetica,sans-Serif" font-size="10.00" fill="#000000">locomotor.components.models.</text>
<text text-anchor="middle" x="344.6489" y="-846.1711" font-family="Helvetica,sans-Serif" font-size="10.00" fill="#000000">ItemCriteriaFull.fromJSON</text>
</a>
</g>
</g>
<!-- Node2&#45;&gt;Node7 -->
<g id="edge6" class="edge">
<title>Node2&#45;&gt;Node7</title>
<path fill="none" stroke="#191970" d="M152.9819,-541.65C159.1695,-599.144 182.452,-744.0552 264.1074,-825.1711 270.3281,-831.3507 277.9595,-836.2223 286.0209,-840.0605"/>
<polygon fill="#191970" stroke="#191970" points="156.4314,-540.9666 151.9601,-531.3615 149.4656,-541.6585 156.4314,-540.9666"/>
</g>
<!-- Node8 -->
<g id="node8" class="node">
<title>Node8</title>
<g id="a_node8"><a xlink:href="classlocomotor_1_1components_1_1types_1_1_c_interval.html#afd960ea0d74219e2fa2bdc51004d05ba" target="_top" xlink:title="locomotor.components.types.\lCInterval.CInterval">
<polygon fill="#ffffff" stroke="#000000" points="271.6123,-887.1711 271.6123,-915.1711 417.6855,-915.1711 417.6855,-887.1711 271.6123,-887.1711"/>
<text text-anchor="start" x="279.6123" y="-903.1711" font-family="Helvetica,sans-Serif" font-size="10.00" fill="#000000">locomotor.components.types.</text>
<text text-anchor="middle" x="344.6489" y="-893.1711" font-family="Helvetica,sans-Serif" font-size="10.00" fill="#000000">CInterval.CInterval</text>
</a>
</g>
</g>
<!-- Node2&#45;&gt;Node8 -->
<g id="edge9" class="edge">
<title>Node2&#45;&gt;Node8</title>
<path fill="none" stroke="#191970" d="M155.4329,-541.5676C169.4827,-614.6369 214.3321,-829.6602 264.1074,-878.1711 267.6482,-881.622 271.6692,-884.5619 275.9803,-887.0657"/>
<polygon fill="#191970" stroke="#191970" points="158.8212,-540.6497 153.5162,-531.4787 151.9442,-541.9562 158.8212,-540.6497"/>
</g>
<!-- Node10 -->
<g id="node10" class="node">
<title>Node10</title>
<g id="a_node10"><a xlink:href="classlocomotor_1_1core_1_1_d_b_h.html#a17eef13d222e2f7d4cc413a965de3069" target="_top" xlink:title="locomotor.core.DBH.registerUser">
<polygon fill="#ffffff" stroke="#000000" points="659.6528,-878.1711 659.6528,-896.1711 822.3716,-896.1711 822.3716,-878.1711 659.6528,-878.1711"/>
<text text-anchor="middle" x="741.0122" y="-884.1711" font-family="Helvetica,sans-Serif" font-size="10.00" fill="#000000">locomotor.core.DBH.registerUser</text>
</a>
</g>
</g>
<!-- Node2&#45;&gt;Node10 -->
<g id="edge11" class="edge">
<title>Node2&#45;&gt;Node10</title>
<path fill="none" stroke="#191970" d="M153.3755,-541.7654C162.4603,-626.3836 196.9517,-903.1664 264.1074,-955.1711 272.9814,-962.0431 597.5297,-960.9063 622.8105,-954.1711 665.8903,-942.6941 709.787,-911.6447 729.8134,-896.1784"/>
<polygon fill="#191970" stroke="#191970" points="156.83,-541.1475 152.3048,-531.5677 149.8682,-541.8785 156.83,-541.1475"/>
</g>
<!-- Node11 -->
<g id="node11" class="node">
<title>Node11</title>
<g id="a_node11"><a xlink:href="classlocomotor_1_1core_1_1_d_b_h.html#a34b259b9443e3b412e5a704b154546a1" target="_top" xlink:title="locomotor.core.DBH.authUser">
<polygon fill="#ffffff" stroke="#000000" points="270.2305,-717.1711 270.2305,-735.1711 419.0674,-735.1711 419.0674,-717.1711 270.2305,-717.1711"/>
<text text-anchor="middle" x="344.6489" y="-723.1711" font-family="Helvetica,sans-Serif" font-size="10.00" fill="#000000">locomotor.core.DBH.authUser</text>
</a>
</g>
</g>
<!-- Node2&#45;&gt;Node11 -->
<g id="edge14" class="edge">
<title>Node2&#45;&gt;Node11</title>
<path fill="none" stroke="#191970" d="M158.9092,-540.7218C173.5131,-580.0927 208.2128,-659.182 264.1074,-702.1711 272.7815,-708.8425 283.2861,-713.6647 293.804,-717.1488"/>
<polygon fill="#191970" stroke="#191970" points="162.1526,-539.398 155.4747,-531.1727 155.5657,-541.7672 162.1526,-539.398"/>
</g>
<!-- Node12 -->
<g id="node12" class="node">
<title>Node12</title>
<g id="a_node12"><a xlink:href="classlocomotor_1_1core_1_1_d_b_h.html#ad707f520f60fe68ea8a8818698560d9d" target="_top" xlink:title="locomotor.core.DBH.authAdmin">
<polygon fill="#ffffff" stroke="#000000" points="463.9663,-717.1711 463.9663,-735.1711 620.0347,-735.1711 620.0347,-717.1711 463.9663,-717.1711"/>
<text text-anchor="middle" x="542.0005" y="-723.1711" font-family="Helvetica,sans-Serif" font-size="10.00" fill="#000000">locomotor.core.DBH.authAdmin</text>
</a>
</g>
</g>
<!-- Node2&#45;&gt;Node12 -->
<g id="edge48" class="edge">
<title>Node2&#45;&gt;Node12</title>
<path fill="none" stroke="#191970" d="M162.5111,-540.5545C179.9403,-573.1118 216.0149,-631.5401 264.1074,-662.1711 283.4987,-674.5218 421.0536,-702.6439 495.0874,-717.1481"/>
<polygon fill="#191970" stroke="#191970" points="165.4342,-538.5902 157.708,-531.3406 159.2269,-541.826 165.4342,-538.5902"/>
</g>
<!-- Node13 -->
<g id="node13" class="node">
<title>Node13</title>
<g id="a_node13"><a xlink:href="classlocomotor_1_1core_1_1_d_b_h.html#a0c8f3a26e4a26089a068c98d8d6f5f9b" target="_top" xlink:title="locomotor.core.DBH.getUserInfo">
<polygon fill="#ffffff" stroke="#000000" points="462.0229,-666.1711 462.0229,-684.1711 621.978,-684.1711 621.978,-666.1711 462.0229,-666.1711"/>
<text text-anchor="middle" x="542.0005" y="-672.1711" font-family="Helvetica,sans-Serif" font-size="10.00" fill="#000000">locomotor.core.DBH.getUserInfo</text>
</a>
</g>
</g>
<!-- Node2&#45;&gt;Node13 -->
<g id="edge18" class="edge">
<title>Node2&#45;&gt;Node13</title>
<path fill="none" stroke="#191970" d="M167.0273,-539.1809C186.8743,-564.5062 223.0304,-605.2801 264.1074,-626.1711 325.7866,-657.5401 404.0027,-669.2103 461.7295,-673.3698"/>
<polygon fill="#191970" stroke="#191970" points="169.7992,-537.0438 160.9383,-531.2356 164.2431,-541.3018 169.7992,-537.0438"/>
</g>
<!-- Node14 -->
<g id="node14" class="node">
<title>Node14</title>
<g id="a_node14"><a xlink:href="classlocomotor_1_1core_1_1_d_b_h.html#a4f149cbfb499cbe94a2acb70753b056d" target="_top" xlink:title="locomotor.core.DBH.change\lUsername">
<polygon fill="#ffffff" stroke="#000000" points="670.478,-631.1711 670.478,-659.1711 811.5464,-659.1711 811.5464,-631.1711 670.478,-631.1711"/>
<text text-anchor="start" x="678.478" y="-647.1711" font-family="Helvetica,sans-Serif" font-size="10.00" fill="#000000">locomotor.core.DBH.change</text>
<text text-anchor="middle" x="741.0122" y="-637.1711" font-family="Helvetica,sans-Serif" font-size="10.00" fill="#000000">Username</text>
</a>
</g>
</g>
<!-- Node2&#45;&gt;Node14 -->
<g id="edge20" class="edge">
<title>Node2&#45;&gt;Node14</title>
<path fill="none" stroke="#191970" d="M181.5466,-536.3734C203.6748,-549.348 234.7131,-565.7684 264.1074,-575.1711 403.7897,-619.8529 575.7223,-636.1636 670.2898,-642.0077"/>
<polygon fill="#191970" stroke="#191970" points="183.316,-533.3535 172.9352,-531.2341 179.7286,-539.3644 183.316,-533.3535"/>
</g>
<!-- Node15 -->
<g id="node15" class="node">
<title>Node15</title>
<g id="a_node15"><a xlink:href="classlocomotor_1_1core_1_1_d_b_h.html#a74b4c9978e018cf8fa6b5c48d563f6da" target="_top" xlink:title="locomotor.core.DBH.change\lPassword">
<polygon fill="#ffffff" stroke="#000000" points="471.4663,-566.1711 471.4663,-594.1711 612.5347,-594.1711 612.5347,-566.1711 471.4663,-566.1711"/>
<text text-anchor="start" x="479.4663" y="-582.1711" font-family="Helvetica,sans-Serif" font-size="10.00" fill="#000000">locomotor.core.DBH.change</text>
<text text-anchor="middle" x="542.0005" y="-572.1711" font-family="Helvetica,sans-Serif" font-size="10.00" fill="#000000">Password</text>
</a>
</g>
</g>
<!-- Node2&#45;&gt;Node15 -->
<g id="edge22" class="edge">
<title>Node2&#45;&gt;Node15</title>
<path fill="none" stroke="#191970" d="M202.1675,-534.1914C221.4086,-540.0274 243.5857,-546.1054 264.1074,-550.1711 333.8421,-563.9868 414.7699,-571.8146 471.2427,-575.9835"/>
<polygon fill="#191970" stroke="#191970" points="202.9851,-530.7809 192.3975,-531.1736 200.9191,-537.4691 202.9851,-530.7809"/>
</g>
<!-- Node16 -->
<g id="node16" class="node">
<title>Node16</title>
<g id="a_node16"><a xlink:href="classlocomotor_1_1core_1_1_d_b_h.html#a0986f5bb18ead6a7e6470747fb60a445" target="_top" xlink:title="locomotor.core.DBH.removeUser">
<polygon fill="#ffffff" stroke="#000000" points="659.6528,-555.1711 659.6528,-573.1711 822.3716,-573.1711 822.3716,-555.1711 659.6528,-555.1711"/>
<text text-anchor="middle" x="741.0122" y="-561.1711" font-family="Helvetica,sans-Serif" font-size="10.00" fill="#000000">locomotor.core.DBH.removeUser</text>
</a>
</g>
</g>
<!-- Node2&#45;&gt;Node16 -->
<g id="edge24" class="edge">
<title>Node2&#45;&gt;Node16</title>
<path fill="none" stroke="#191970" d="M238.3943,-524.14C351.9245,-533.1821 548.5243,-548.8404 659.1983,-557.655"/>
<polygon fill="#191970" stroke="#191970" points="238.5929,-520.6448 228.3466,-523.3397 238.0371,-527.6227 238.5929,-520.6448"/>
</g>
<!-- Node17 -->
<g id="node17" class="node">
<title>Node17</title>
<g id="a_node17"><a xlink:href="classlocomotor_1_1core_1_1_d_b_h.html#ae573347d7e17b2bf2bac3c4a41caf0fa" target="_top" xlink:title="locomotor.core.DBH.getItem">
<polygon fill="#ffffff" stroke="#000000" points="471.1953,-490.1711 471.1953,-508.1711 612.8057,-508.1711 612.8057,-490.1711 471.1953,-490.1711"/>
<text text-anchor="middle" x="542.0005" y="-496.1711" font-family="Helvetica,sans-Serif" font-size="10.00" fill="#000000">locomotor.core.DBH.getItem</text>
</a>
</g>
</g>
<!-- Node2&#45;&gt;Node17 -->
<g id="edge26" class="edge">
<title>Node2&#45;&gt;Node17</title>
<path fill="none" stroke="#191970" d="M238.3158,-513.1478C308.4916,-509.918 405.7654,-505.4411 471.1408,-502.4323"/>
<polygon fill="#191970" stroke="#191970" points="237.9941,-509.6588 228.1657,-513.6149 238.316,-516.6514 237.9941,-509.6588"/>
</g>
<!-- Node18 -->
<g id="node18" class="node">
<title>Node18</title>
<g id="a_node18"><a xlink:href="classlocomotor_1_1core_1_1_d_b_h.html#ad067053be75a3170dc9c2ce7b922e176" target="_top" xlink:title="locomotor.core.DBH.checking\lParsingItem">
<polygon fill="#ffffff" stroke="#000000" points="468.1362,-443.1711 468.1362,-471.1711 615.8647,-471.1711 615.8647,-443.1711 468.1362,-443.1711"/>
<text text-anchor="start" x="476.1362" y="-459.1711" font-family="Helvetica,sans-Serif" font-size="10.00" fill="#000000">locomotor.core.DBH.checking</text>
<text text-anchor="middle" x="542.0005" y="-449.1711" font-family="Helvetica,sans-Serif" font-size="10.00" fill="#000000">ParsingItem</text>
</a>
</g>
</g>
<!-- Node2&#45;&gt;Node18 -->
<g id="edge28" class="edge">
<title>Node2&#45;&gt;Node18</title>
<path fill="none" stroke="#191970" d="M238.1528,-503.7849C307.1821,-493.195 402.507,-478.5711 467.8744,-468.5429"/>
<polygon fill="#191970" stroke="#191970" points="237.5193,-500.3411 228.1657,-505.3171 238.5808,-507.2601 237.5193,-500.3411"/>
</g>
<!-- Node21 -->
<g id="node21" class="node">
<title>Node21</title>
<g id="a_node21"><a xlink:href="classlocomotor_1_1core_1_1_d_b_h.html#a048720c7d5d922d646d5ee0ff38f78ad" target="_top" xlink:title="locomotor.core.DBH.removeItem">
<polygon fill="#ffffff" stroke="#000000" points="660.4854,-405.1711 660.4854,-423.1711 821.5391,-423.1711 821.5391,-405.1711 660.4854,-405.1711"/>
<text text-anchor="middle" x="741.0122" y="-411.1711" font-family="Helvetica,sans-Serif" font-size="10.00" fill="#000000">locomotor.core.DBH.removeItem</text>
</a>
</g>
</g>
<!-- Node2&#45;&gt;Node21 -->
<g id="edge33" class="edge">
<title>Node2&#45;&gt;Node21</title>
<path fill="none" stroke="#191970" d="M192.4178,-499.0729C213.5783,-490.355 239.8934,-480.2774 264.1074,-473.1711 349.8687,-448.002 372.6136,-445.1136 461.1904,-433.1711 527.9035,-424.1764 604.1691,-419.3555 660.2134,-416.8236"/>
<polygon fill="#191970" stroke="#191970" points="190.9654,-495.8864 183.0842,-502.9672 193.6609,-502.3466 190.9654,-495.8864"/>
</g>
<!-- Node22 -->
<g id="node22" class="node">
<title>Node22</title>
<g id="a_node22"><a xlink:href="classlocomotor_1_1core_1_1_d_b_h.html#a0b14ef52a7a6a21455570af9f08c0fea" target="_top" xlink:title="locomotor.core.DBH.getUniverse">
<polygon fill="#ffffff" stroke="#000000" points="461.1904,-367.1711 461.1904,-385.1711 622.8105,-385.1711 622.8105,-367.1711 461.1904,-367.1711"/>
<text text-anchor="middle" x="542.0005" y="-373.1711" font-family="Helvetica,sans-Serif" font-size="10.00" fill="#000000">locomotor.core.DBH.getUniverse</text>
</a>
</g>
</g>
<!-- Node2&#45;&gt;Node22 -->
<g id="edge35" class="edge">
<title>Node2&#45;&gt;Node22</title>
<path fill="none" stroke="#191970" d="M165.4155,-494.1995C184.3582,-466.4801 220.3072,-421.006 264.1074,-400.1711 325.6569,-370.8934 403.5289,-366.5549 461.1696,-368.5824"/>
<polygon fill="#191970" stroke="#191970" points="162.2803,-492.5933 159.6566,-502.8581 168.1089,-496.4699 162.2803,-492.5933"/>
</g>
<!-- Node23 -->
<g id="node23" class="node">
<title>Node23</title>
<g id="a_node23"><a xlink:href="classlocomotor_1_1core_1_1_d_b_h.html#a756e5af44b74ea39a44a71cde06102fd" target="_top" xlink:title="locomotor.core.DBH.checking\lParsingUniverse">
<polygon fill="#ffffff" stroke="#000000" points="468.1362,-320.1711 468.1362,-348.1711 615.8647,-348.1711 615.8647,-320.1711 468.1362,-320.1711"/>
<text text-anchor="start" x="476.1362" y="-336.1711" font-family="Helvetica,sans-Serif" font-size="10.00" fill="#000000">locomotor.core.DBH.checking</text>
<text text-anchor="middle" x="542.0005" y="-326.1711" font-family="Helvetica,sans-Serif" font-size="10.00" fill="#000000">ParsingUniverse</text>
</a>
</g>
</g>
<!-- Node2&#45;&gt;Node23 -->
<g id="edge37" class="edge">
<title>Node2&#45;&gt;Node23</title>
<path fill="none" stroke="#191970" d="M161.0193,-493.3777C177.1979,-458.6055 212.414,-394.8278 264.1074,-365.1711 326.2155,-329.5395 409.007,-324.6766 468.0293,-326.955"/>
<polygon fill="#191970" stroke="#191970" points="157.7058,-492.2114 156.7872,-502.7664 164.0875,-495.0881 157.7058,-492.2114"/>
</g>
<!-- Node26 -->
<g id="node26" class="node">
<title>Node26</title>
<g id="a_node26"><a xlink:href="classlocomotor_1_1core_1_1_d_b_h.html#a46cbafb4c7422171cf07c3d0521d3f47" target="_top" xlink:title="locomotor.core.DBH.remove\lUniverse">
<polygon fill="#ffffff" stroke="#000000" points="670.2095,-235.1711 670.2095,-263.1711 811.8149,-263.1711 811.8149,-235.1711 670.2095,-235.1711"/>
<text text-anchor="start" x="678.2095" y="-251.1711" font-family="Helvetica,sans-Serif" font-size="10.00" fill="#000000">locomotor.core.DBH.remove</text>
<text text-anchor="middle" x="741.0122" y="-241.1711" font-family="Helvetica,sans-Serif" font-size="10.00" fill="#000000">Universe</text>
</a>
</g>
</g>
<!-- Node2&#45;&gt;Node26 -->
<g id="edge42" class="edge">
<title>Node2&#45;&gt;Node26</title>
<path fill="none" stroke="#191970" d="M157.4012,-493.3946C170.2092,-451.4652 202.9132,-364.8789 264.1074,-323.1711 297.0807,-300.6978 545.0642,-270.694 669.8035,-256.8116"/>
<polygon fill="#191970" stroke="#191970" points="154.0289,-492.4569 154.5684,-503.038 160.7451,-494.4299 154.0289,-492.4569"/>
</g>
<!-- Node27 -->
<g id="node27" class="node">
<title>Node27</title>
<g id="a_node27"><a xlink:href="classlocomotor_1_1core_1_1_d_b_h.html#a21cbb63c5e6f48995e2da4a48db8edff" target="_top" xlink:title="locomotor.core.DBH.getAll\lBooking">
<polygon fill="#ffffff" stroke="#000000" points="278.0112,-243.1711 278.0112,-271.1711 411.2866,-271.1711 411.2866,-243.1711 278.0112,-243.1711"/>
<text text-anchor="start" x="286.0112" y="-259.1711" font-family="Helvetica,sans-Serif" font-size="10.00" fill="#000000">locomotor.core.DBH.getAll</text>
<text text-anchor="middle" x="344.6489" y="-249.1711" font-family="Helvetica,sans-Serif" font-size="10.00" fill="#000000">Booking</text>
</a>
</g>
</g>
<!-- Node2&#45;&gt;Node27 -->
<g id="edge44" class="edge">
<title>Node2&#45;&gt;Node27</title>
<path fill="none" stroke="#191970" d="M156.2619,-493.1832C167.8629,-446.7183 199.5981,-343.9433 264.1074,-286.1711 270.9714,-280.024 279.2348,-275.1533 287.8172,-271.3015"/>
<polygon fill="#191970" stroke="#191970" points="152.8439,-492.4275 153.9115,-502.9684 159.6503,-494.0625 152.8439,-492.4275"/>
</g>
<!-- Node28 -->
<g id="node28" class="node">
<title>Node28</title>
<g id="a_node28"><a xlink:href="classlocomotor_1_1core_1_1_d_b_h.html#a3db8a57c024085b3b7a27d1cd79180a4" target="_top" xlink:title="locomotor.core.DBH.addBooking">
<polygon fill="#ffffff" stroke="#000000" points="264.1074,-206.1711 264.1074,-224.1711 425.1904,-224.1711 425.1904,-206.1711 264.1074,-206.1711"/>
<text text-anchor="middle" x="344.6489" y="-212.1711" font-family="Helvetica,sans-Serif" font-size="10.00" fill="#000000">locomotor.core.DBH.addBooking</text>
</a>
</g>
</g>
<!-- Node2&#45;&gt;Node28 -->
<g id="edge46" class="edge">
<title>Node2&#45;&gt;Node28</title>
<path fill="none" stroke="#191970" d="M153.1131,-492.7907C159.4978,-437.5411 183.0303,-302.2513 264.1074,-233.1711 268.3608,-229.5472 273.1874,-226.6096 278.314,-224.2334"/>
<polygon fill="#191970" stroke="#191970" points="149.6022,-492.708 152.0245,-503.0222 156.5629,-493.4486 149.6022,-492.708"/>
</g>
<!-- Node29 -->
<g id="node29" class="node">
<title>Node29</title>
<g id="a_node29"><a xlink:href="classlocomotor_1_1core_1_1_d_b_h.html#a3d7a9a94e400a13566495c07c3b1be00" target="_top" xlink:title="locomotor.core.DBH.admin\lStillExists">
<polygon fill="#ffffff" stroke="#000000" points="276.9004,-159.1711 276.9004,-187.1711 412.3975,-187.1711 412.3975,-159.1711 276.9004,-159.1711"/>
<text text-anchor="start" x="284.9004" y="-175.1711" font-family="Helvetica,sans-Serif" font-size="10.00" fill="#000000">locomotor.core.DBH.admin</text>
<text text-anchor="middle" x="344.6489" y="-165.1711" font-family="Helvetica,sans-Serif" font-size="10.00" fill="#000000">StillExists</text>
</a>
</g>
</g>
<!-- Node2&#45;&gt;Node29 -->
<g id="edge49" class="edge">
<title>Node2&#45;&gt;Node29</title>
<path fill="none" stroke="#191970" d="M152.1561,-492.8811C156.5851,-433.2871 176.3892,-278.7036 264.1074,-196.1711 267.9202,-192.5838 272.2533,-189.5506 276.8851,-186.9865"/>
<polygon fill="#191970" stroke="#191970" points="148.6635,-492.655 151.4951,-502.8644 155.6482,-493.1175 148.6635,-492.655"/>
</g>
<!-- Node30 -->
<g id="node30" class="node">
<title>Node30</title>
<g id="a_node30"><a xlink:href="classlocomotor_1_1core_1_1jwt_1_1_j_w_t_h.html#a9666df772d67ab0c2213cdb4a528549b" target="_top" xlink:title="locomotor.core.jwt.JWTH.verify\lTokenSignature">
<polygon fill="#ffffff" stroke="#000000" points="267.7451,-73.1711 267.7451,-101.1711 421.5527,-101.1711 421.5527,-73.1711 267.7451,-73.1711"/>
<text text-anchor="start" x="275.7451" y="-89.1711" font-family="Helvetica,sans-Serif" font-size="10.00" fill="#000000">locomotor.core.jwt.JWTH.verify</text>
<text text-anchor="middle" x="344.6489" y="-79.1711" font-family="Helvetica,sans-Serif" font-size="10.00" fill="#000000">TokenSignature</text>
</a>
</g>
</g>
<!-- Node2&#45;&gt;Node30 -->
<g id="edge51" class="edge">
<title>Node2&#45;&gt;Node30</title>
<path fill="none" stroke="#191970" d="M154.7809,-492.8791C167.6904,-414.9138 211.3424,-172.7908 264.1074,-116.1711 269.8828,-109.9739 277.0792,-105.0986 284.7776,-101.2639"/>
<polygon fill="#191970" stroke="#191970" points="151.2612,-492.7157 153.1019,-503.1494 158.1695,-493.8452 151.2612,-492.7157"/>
</g>
<!-- Node31 -->
<g id="node31" class="node">
<title>Node31</title>
<g id="a_node31"><a xlink:href="classlocomotor_1_1core_1_1jwt_1_1_j_w_t_h.html#a5bfe06ebb1f388e7fb4fb42c6c2a3875" target="_top" xlink:title="locomotor.core.jwt.JWTH.check\lToken">
<polygon fill="#ffffff" stroke="#000000" points="463.981,-73.1711 463.981,-101.1711 620.02,-101.1711 620.02,-73.1711 463.981,-73.1711"/>
<text text-anchor="start" x="471.981" y="-89.1711" font-family="Helvetica,sans-Serif" font-size="10.00" fill="#000000">locomotor.core.jwt.JWTH.check</text>
<text text-anchor="middle" x="542.0005" y="-79.1711" font-family="Helvetica,sans-Serif" font-size="10.00" fill="#000000">Token</text>
</a>
</g>
</g>
<!-- Node2&#45;&gt;Node31 -->
<g id="edge58" class="edge">
<title>Node2&#45;&gt;Node31</title>
<path fill="none" stroke="#191970" d="M155.1465,-492.6735C168.5337,-418.3036 212.0405,-197.2821 264.1074,-149.1711 271.7996,-142.0634 391.1309,-117.1877 470.8945,-101.1887"/>
<polygon fill="#191970" stroke="#191970" points="151.6286,-492.4662 153.3258,-502.9242 158.5208,-493.6903 151.6286,-492.4662"/>
</g>
<!-- Node32 -->
<g id="node32" class="node">
<title>Node32</title>
<g id="a_node32"><a xlink:href="classlocomotor_1_1core_1_1jwt_1_1_j_w_t_h.html#a1ced72f10559e8525f069895d88d129e" target="_top" xlink:title="locomotor.core.jwt.JWTH.create\lShortToken">
<polygon fill="#ffffff" stroke="#000000" points="265.7944,-26.1711 265.7944,-54.1711 423.5034,-54.1711 423.5034,-26.1711 265.7944,-26.1711"/>
<text text-anchor="start" x="273.7944" y="-42.1711" font-family="Helvetica,sans-Serif" font-size="10.00" fill="#000000">locomotor.core.jwt.JWTH.create</text>
<text text-anchor="middle" x="344.6489" y="-32.1711" font-family="Helvetica,sans-Serif" font-size="10.00" fill="#000000">ShortToken</text>
</a>
</g>
</g>
<!-- Node2&#45;&gt;Node32 -->
<g id="edge54" class="edge">
<title>Node2&#45;&gt;Node32</title>
<path fill="none" stroke="#191970" d="M153.7141,-493.1702C164.1011,-408.6576 202.8493,-126.5346 264.1074,-63.1711 267.4429,-59.721 271.2568,-56.7782 275.3703,-54.2692"/>
<polygon fill="#191970" stroke="#191970" points="150.2381,-492.7616 152.5122,-503.1094 157.1875,-493.602 150.2381,-492.7616"/>
</g>
<!-- Node33 -->
<g id="node33" class="node">
<title>Node33</title>
<g id="a_node33"><a xlink:href="classlocomotor_1_1core_1_1jwt_1_1_j_w_t_h.html#aecfcf9e71a9ee5c1446176865a746a5c" target="_top" xlink:title="locomotor.core.jwt.JWTH.create\lLongToken">
<polygon fill="#ffffff" stroke="#000000" points="265.7944,-754.1711 265.7944,-782.1711 423.5034,-782.1711 423.5034,-754.1711 265.7944,-754.1711"/>
<text text-anchor="start" x="273.7944" y="-770.1711" font-family="Helvetica,sans-Serif" font-size="10.00" fill="#000000">locomotor.core.jwt.JWTH.create</text>
<text text-anchor="middle" x="344.6489" y="-760.1711" font-family="Helvetica,sans-Serif" font-size="10.00" fill="#000000">LongToken</text>
</a>
</g>
</g>
<!-- Node2&#45;&gt;Node33 -->
<g id="edge56" class="edge">
<title>Node2&#45;&gt;Node33</title>
<path fill="none" stroke="#191970" d="M156.1097,-541.0676C167.4447,-587.2942 198.7362,-689.2341 264.1074,-744.1711 268.7988,-748.1137 274.1187,-751.4086 279.7346,-754.1622"/>
<polygon fill="#191970" stroke="#191970" points="159.5154,-540.2601 153.8175,-531.3279 152.7015,-541.8638 159.5154,-540.2601"/>
</g>
<!-- Node3&#45;&gt;Node4 -->
<g id="edge3" class="edge">
<title>Node3&#45;&gt;Node4</title>
<path fill="none" stroke="#191970" d="M629.5389,-845.1711C640.8486,-845.1711 652.3675,-845.1711 663.4998,-845.1711"/>
<polygon fill="#191970" stroke="#191970" points="629.2285,-841.6712 619.2285,-845.1711 629.2284,-848.6712 629.2285,-841.6712"/>
</g>
<!-- Node5 -->
<g id="node5" class="node">
<title>Node5</title>
<g id="a_node5"><a xlink:href="classlocomotor_1_1components_1_1network_1_1_a_p_i.html#a547463fbc7fb7b485886f0917e2c0b78" target="_top" xlink:title="locomotor.components.network.\lAPI.createHooks">
<polygon fill="#ffffff" stroke="#000000" points="859.2139,-474.1711 859.2139,-502.1711 1016.4004,-502.1711 1016.4004,-474.1711 859.2139,-474.1711"/>
<text text-anchor="start" x="867.2139" y="-490.1711" font-family="Helvetica,sans-Serif" font-size="10.00" fill="#000000">locomotor.components.network.</text>
<text text-anchor="middle" x="937.8071" y="-480.1711" font-family="Helvetica,sans-Serif" font-size="10.00" fill="#000000">API.createHooks</text>
</a>
</g>
</g>
<!-- Node4&#45;&gt;Node5 -->
<g id="edge4" class="edge">
<title>Node4&#45;&gt;Node5</title>
<path fill="none" stroke="#191970" d="M811.2005,-826.0117C815.5836,-823.1724 819.6546,-819.9129 823.2139,-816.1711 861.8841,-775.5182 841.2439,-748.3231 859.2139,-695.1711 883.9604,-621.9756 918.2975,-536.1106 931.9096,-502.594"/>
<polygon fill="#191970" stroke="#191970" points="809.4182,-822.9987 802.4394,-830.9703 812.8662,-829.0906 809.4182,-822.9987"/>
</g>
<!-- Node6 -->
<g id="node6" class="node">
<title>Node6</title>
<g id="a_node6"><a xlink:href="classlocomotor_1_1core_1_1_main.html#a8b260eecbaabcef8473fd87ada040682" target="_top" xlink:title="locomotor.core.Main.main">
<polygon fill="#ffffff" stroke="#000000" points="1052.4004,-500.1711 1052.4004,-518.1711 1182.8975,-518.1711 1182.8975,-500.1711 1052.4004,-500.1711"/>
<text text-anchor="middle" x="1117.6489" y="-506.1711" font-family="Helvetica,sans-Serif" font-size="10.00" fill="#000000">locomotor.core.Main.main</text>
</a>
</g>
</g>
<!-- Node5&#45;&gt;Node6 -->
<g id="edge5" class="edge">
<title>Node5&#45;&gt;Node6</title>
<path fill="none" stroke="#191970" d="M1026.6002,-498.5394C1035.2885,-499.554 1043.9908,-500.5701 1052.3827,-501.55"/>
<polygon fill="#191970" stroke="#191970" points="1026.7652,-495.035 1016.4267,-497.3515 1025.9533,-501.9878 1026.7652,-495.035"/>
</g>
<!-- Node7&#45;&gt;Node3 -->
<g id="edge7" class="edge">
<title>Node7&#45;&gt;Node3</title>
<path fill="none" stroke="#191970" d="M432.3695,-850.1707C443.1751,-849.678 454.1581,-849.1771 464.7916,-848.6922"/>
<polygon fill="#191970" stroke="#191970" points="431.9112,-846.6879 422.0811,-850.6399 432.2302,-853.6806 431.9112,-846.6879"/>
</g>
<!-- Node9 -->
<g id="node9" class="node">
<title>Node9</title>
<g id="a_node9"><a xlink:href="classlocomotor_1_1components_1_1types_1_1_c_interval.html#ad295ddcb564ccdce4ae93f54dded98ff" target="_top" xlink:title="locomotor.components.types.\lCInterval.equals">
<polygon fill="#ffffff" stroke="#000000" points="468.9639,-887.1711 468.9639,-915.1711 615.0371,-915.1711 615.0371,-887.1711 468.9639,-887.1711"/>
<text text-anchor="start" x="476.9639" y="-903.1711" font-family="Helvetica,sans-Serif" font-size="10.00" fill="#000000">locomotor.components.types.</text>
<text text-anchor="middle" x="542.0005" y="-893.1711" font-family="Helvetica,sans-Serif" font-size="10.00" fill="#000000">CInterval.equals</text>
</a>
</g>
</g>
<!-- Node8&#45;&gt;Node9 -->
<g id="edge10" class="edge">
<title>Node8&#45;&gt;Node9</title>
<path fill="none" stroke="#191970" d="M428.1269,-901.1711C441.6823,-901.1711 455.6298,-901.1711 468.9128,-901.1711"/>
<polygon fill="#191970" stroke="#191970" points="427.8549,-897.6712 417.8549,-901.1711 427.8549,-904.6712 427.8549,-897.6712"/>
</g>
<!-- Node10&#45;&gt;Node5 -->
<g id="edge12" class="edge">
<title>Node10&#45;&gt;Node5</title>
<path fill="none" stroke="#191970" d="M819.7932,-872.3041C820.9804,-871.3183 822.1226,-870.275 823.2139,-869.1711 878.7314,-813.0085 837.1287,-770.9912 859.2139,-695.1711 880.8221,-620.9885 916.9491,-535.6864 931.475,-502.4573"/>
<polygon fill="#191970" stroke="#191970" points="817.6877,-869.5029 811.3711,-878.0089 821.6134,-875.2985 817.6877,-869.5029"/>
</g>
<!-- Node10&#45;&gt;Node6 -->
<g id="edge13" class="edge">
<title>Node10&#45;&gt;Node6</title>
<path fill="none" stroke="#191970" d="M813.2072,-874.4103C816.6805,-872.8586 820.0387,-871.1196 823.2139,-869.1711 979.4283,-773.3069 1090.1117,-564.3947 1113.1838,-518.2932"/>
<polygon fill="#191970" stroke="#191970" points="811.8273,-871.1918 803.7911,-878.0962 814.3789,-877.7102 811.8273,-871.1918"/>
</g>
<!-- Node11&#45;&gt;Node5 -->
<g id="edge15" class="edge">
<title>Node11&#45;&gt;Node5</title>
<path fill="none" stroke="#191970" d="M401.9818,-736.8139C420.7775,-739.8235 441.8111,-742.6834 461.1904,-744.1711 621.7058,-756.494 689.9614,-822.5084 823.2139,-732.1711 844.2289,-717.9242 911.9546,-552.5111 932.102,-502.4425"/>
<polygon fill="#191970" stroke="#191970" points="402.5232,-733.356 392.0872,-735.1838 401.3853,-740.2629 402.5232,-733.356"/>
</g>
<!-- Node11&#45;&gt;Node12 -->
<g id="edge16" class="edge">
<title>Node11&#45;&gt;Node12</title>
<path fill="none" stroke="#191970" d="M429.571,-726.1711C440.8942,-726.1711 452.4637,-726.1711 463.6675,-726.1711"/>
<polygon fill="#191970" stroke="#191970" points="429.2591,-722.6712 419.2591,-726.1711 429.2591,-729.6712 429.2591,-722.6712"/>
</g>
<!-- Node12&#45;&gt;Node5 -->
<g id="edge17" class="edge">
<title>Node12&#45;&gt;Node5</title>
<path fill="none" stroke="#191970" d="M612.2333,-736.0883C673.0769,-740.9311 760.882,-738.5468 823.2139,-697.1711 894.9252,-649.5694 925.7551,-541.3478 934.7952,-502.4382"/>
<polygon fill="#191970" stroke="#191970" points="612.2234,-732.5739 601.9545,-735.1814 611.6081,-739.5468 612.2234,-732.5739"/>
</g>
<!-- Node13&#45;&gt;Node5 -->
<g id="edge19" class="edge">
<title>Node13&#45;&gt;Node5</title>
<path fill="none" stroke="#191970" d="M587.253,-686.335C645.8477,-698.1815 749.2127,-709.9912 823.2139,-668.1711 889.3296,-630.8074 923.0399,-537.8589 933.8473,-502.3076"/>
<polygon fill="#191970" stroke="#191970" points="587.7063,-682.8536 577.1989,-684.2124 586.2602,-689.7026 587.7063,-682.8536"/>
</g>
<!-- Node14&#45;&gt;Node5 -->
<g id="edge21" class="edge">
<title>Node14&#45;&gt;Node5</title>
<path fill="none" stroke="#191970" d="M803.0311,-627.1385C810.0978,-623.9778 816.9889,-620.3381 823.2139,-616.1711 870.8031,-584.3156 911.4672,-528.2434 928.8249,-502.1982"/>
<polygon fill="#191970" stroke="#191970" points="801.2312,-624.0955 793.3318,-631.156 803.91,-630.5627 801.2312,-624.0955"/>
</g>
<!-- Node15&#45;&gt;Node5 -->
<g id="edge23" class="edge">
<title>Node15&#45;&gt;Node5</title>
<path fill="none" stroke="#191970" d="M622.8491,-595.16C680.4229,-602.4217 758.7053,-605.2443 823.2139,-582.1711 867.7944,-566.2258 907.4895,-524.6413 926.2916,-502.5114"/>
<polygon fill="#191970" stroke="#191970" points="623.0849,-591.6605 612.7101,-593.8086 622.16,-598.5992 623.0849,-591.6605"/>
</g>
<!-- Node16&#45;&gt;Node5 -->
<g id="edge25" class="edge">
<title>Node16&#45;&gt;Node5</title>
<path fill="none" stroke="#191970" d="M786.1178,-552.2513C798.2743,-548.7007 811.3433,-544.572 823.2139,-540.1711 853.3263,-529.0072 886.641,-513.5186 909.5515,-502.3529"/>
<polygon fill="#191970" stroke="#191970" points="784.8227,-548.9811 776.1672,-555.0911 786.7438,-555.7123 784.8227,-548.9811"/>
</g>
<!-- Node17&#45;&gt;Node5 -->
<g id="edge27" class="edge">
<title>Node17&#45;&gt;Node5</title>
<path fill="none" stroke="#191970" d="M623.1519,-505.5938C679.3875,-508.9668 755.9497,-511.4218 823.2139,-506.1711 834.8588,-505.2621 847.1093,-503.8411 859.0932,-502.1866"/>
<polygon fill="#191970" stroke="#191970" points="623.0931,-502.0834 612.8948,-504.9549 622.6579,-509.0699 623.0931,-502.0834"/>
</g>
<!-- Node19 -->
<g id="node19" class="node">
<title>Node19</title>
<g id="a_node19"><a xlink:href="classlocomotor_1_1core_1_1_d_b_h.html#ae26eef1ee7482f2e0167c6a18924d214" target="_top" xlink:title="locomotor.core.DBH.addItem">
<polygon fill="#ffffff" stroke="#000000" points="668.8154,-479.1711 668.8154,-497.1711 813.209,-497.1711 813.209,-479.1711 668.8154,-479.1711"/>
<text text-anchor="middle" x="741.0122" y="-485.1711" font-family="Helvetica,sans-Serif" font-size="10.00" fill="#000000">locomotor.core.DBH.addItem</text>
</a>
</g>
</g>
<!-- Node18&#45;&gt;Node19 -->
<g id="edge29" class="edge">
<title>Node18&#45;&gt;Node19</title>
<path fill="none" stroke="#191970" d="M626.0504,-470.2636C645.2353,-473.252 665.2059,-476.3628 683.0152,-479.137"/>
<polygon fill="#191970" stroke="#191970" points="626.5247,-466.7953 616.1051,-468.7144 625.4472,-473.7119 626.5247,-466.7953"/>
</g>
<!-- Node20 -->
<g id="node20" class="node">
<title>Node20</title>
<g id="a_node20"><a xlink:href="classlocomotor_1_1core_1_1_d_b_h.html#aa0e39c547d06fd9d0ad2de70251c9cc0" target="_top" xlink:title="locomotor.core.DBH.updateItem">
<polygon fill="#ffffff" stroke="#000000" points="661.8647,-442.1711 661.8647,-460.1711 820.1597,-460.1711 820.1597,-442.1711 661.8647,-442.1711"/>
<text text-anchor="middle" x="741.0122" y="-448.1711" font-family="Helvetica,sans-Serif" font-size="10.00" fill="#000000">locomotor.core.DBH.updateItem</text>
</a>
</g>
</g>
<!-- Node18&#45;&gt;Node20 -->
<g id="edge31" class="edge">
<title>Node18&#45;&gt;Node20</title>
<path fill="none" stroke="#191970" d="M626.354,-454.628C638.1209,-454.2732 650.1771,-453.9097 661.8438,-453.558"/>
<polygon fill="#191970" stroke="#191970" points="625.9951,-451.1371 616.1051,-454.937 626.2061,-458.1339 625.9951,-451.1371"/>
</g>
<!-- Node19&#45;&gt;Node5 -->
<g id="edge30" class="edge">
<title>Node19&#45;&gt;Node5</title>
<path fill="none" stroke="#191970" d="M823.6219,-488.1711C835.3022,-488.1711 847.2872,-488.1711 858.8954,-488.1711"/>
<polygon fill="#191970" stroke="#191970" points="823.453,-484.6712 813.453,-488.1711 823.4529,-491.6712 823.453,-484.6712"/>
</g>
<!-- Node20&#45;&gt;Node5 -->
<g id="edge32" class="edge">
<title>Node20&#45;&gt;Node5</title>
<path fill="none" stroke="#191970" d="M798.8477,-462.045C818.975,-465.8292 841.8471,-470.1294 863.1422,-474.1331"/>
<polygon fill="#191970" stroke="#191970" points="799.3766,-458.5831 788.902,-460.175 798.0831,-465.4626 799.3766,-458.5831"/>
</g>
<!-- Node21&#45;&gt;Node5 -->
<g id="edge34" class="edge">
<title>Node21&#45;&gt;Node5</title>
<path fill="none" stroke="#191970" d="M801.2969,-425.627C808.7534,-427.5537 816.2109,-429.7328 823.2139,-432.1711 855.6271,-443.4571 890.799,-461.6057 913.5065,-474.1693"/>
<polygon fill="#191970" stroke="#191970" points="802.0788,-422.2151 791.5335,-423.2389 800.4156,-429.0146 802.0788,-422.2151"/>
</g>
<!-- Node22&#45;&gt;Node5 -->
<g id="edge36" class="edge">
<title>Node22&#45;&gt;Node5</title>
<path fill="none" stroke="#191970" d="M633.0127,-368.6077C689.6153,-367.1885 762.8547,-371.4395 823.2139,-395.1711 866.8504,-412.3279 906.6577,-452.479 925.812,-473.9826"/>
<polygon fill="#191970" stroke="#191970" points="632.8888,-365.1098 623.0035,-368.9217 633.1083,-372.1063 632.8888,-365.1098"/>
</g>
<!-- Node24 -->
<g id="node24" class="node">
<title>Node24</title>
<g id="a_node24"><a xlink:href="classlocomotor_1_1core_1_1_d_b_h.html#a2b2232ca307c4877316e8b6097902f2c" target="_top" xlink:title="locomotor.core.DBH.addUniverse">
<polygon fill="#ffffff" stroke="#000000" points="658.8105,-329.1711 658.8105,-347.1711 823.2139,-347.1711 823.2139,-329.1711 658.8105,-329.1711"/>
<text text-anchor="middle" x="741.0122" y="-335.1711" font-family="Helvetica,sans-Serif" font-size="10.00" fill="#000000">locomotor.core.DBH.addUniverse</text>
</a>
</g>
</g>
<!-- Node23&#45;&gt;Node24 -->
<g id="edge38" class="edge">
<title>Node23&#45;&gt;Node24</title>
<path fill="none" stroke="#191970" d="M626.2484,-335.8645C636.9219,-336.079 647.8353,-336.2983 658.4816,-336.5123"/>
<polygon fill="#191970" stroke="#191970" points="626.1735,-332.3623 616.1051,-335.6606 626.0327,-339.3609 626.1735,-332.3623"/>
</g>
<!-- Node25 -->
<g id="node25" class="node">
<title>Node25</title>
<g id="a_node25"><a xlink:href="classlocomotor_1_1core_1_1_d_b_h.html#a0565ab8a7a56491fca163a1b0977c0db" target="_top" xlink:title="locomotor.core.DBH.update\lUniverse">
<polygon fill="#ffffff" stroke="#000000" points="671.5889,-282.1711 671.5889,-310.1711 810.4355,-310.1711 810.4355,-282.1711 671.5889,-282.1711"/>
<text text-anchor="start" x="679.5889" y="-298.1711" font-family="Helvetica,sans-Serif" font-size="10.00" fill="#000000">locomotor.core.DBH.update</text>
<text text-anchor="middle" x="741.0122" y="-288.1711" font-family="Helvetica,sans-Serif" font-size="10.00" fill="#000000">Universe</text>
</a>
</g>
</g>
<!-- Node23&#45;&gt;Node25 -->
<g id="edge40" class="edge">
<title>Node23&#45;&gt;Node25</title>
<path fill="none" stroke="#191970" d="M625.494,-318.2286C640.7793,-315.31 656.5822,-312.2925 671.4087,-309.4615"/>
<polygon fill="#191970" stroke="#191970" points="624.7058,-314.8158 615.5397,-320.1293 626.0187,-321.6916 624.7058,-314.8158"/>
</g>
<!-- Node24&#45;&gt;Node5 -->
<g id="edge39" class="edge">
<title>Node24&#45;&gt;Node5</title>
<path fill="none" stroke="#191970" d="M798.0689,-350.3757C806.8429,-353.4941 815.5286,-357.3697 823.2139,-362.1711 871.3618,-392.2517 911.7466,-448.0864 928.9297,-474.1237"/>
<polygon fill="#191970" stroke="#191970" points="799.149,-347.0466 788.5567,-347.2811 796.9833,-353.7032 799.149,-347.0466"/>
</g>
<!-- Node25&#45;&gt;Node5 -->
<g id="edge41" class="edge">
<title>Node25&#45;&gt;Node5</title>
<path fill="none" stroke="#191970" d="M816.6333,-314.9185C818.9079,-316.2407 821.1091,-317.6561 823.2139,-319.1711 881.044,-360.7965 918.7061,-441.2405 932.2197,-473.885"/>
<polygon fill="#191970" stroke="#191970" points="818.0417,-311.7075 807.5453,-310.2662 814.8519,-317.9385 818.0417,-311.7075"/>
</g>
<!-- Node26&#45;&gt;Node5 -->
<g id="edge43" class="edge">
<title>Node26&#45;&gt;Node5</title>
<path fill="none" stroke="#191970" d="M818.2178,-268.515C819.943,-269.6642 821.6124,-270.8815 823.2139,-272.1711 891.9863,-327.5492 924.653,-435.5317 934.4852,-474.0782"/>
<polygon fill="#191970" stroke="#191970" points="819.5962,-265.2702 809.1827,-263.3186 816.1063,-271.3382 819.5962,-265.2702"/>
</g>
<!-- Node27&#45;&gt;Node5 -->
<g id="edge45" class="edge">
<title>Node27&#45;&gt;Node5</title>
<path fill="none" stroke="#191970" d="M420.9901,-241.1799C539.0432,-218.232 759.0006,-183.1059 823.2139,-225.1711 912.3709,-283.5767 932.5453,-428.1176 936.7653,-473.973"/>
<polygon fill="#191970" stroke="#191970" points="420.0729,-237.7931 410.9339,-243.1532 421.4208,-244.6621 420.0729,-237.7931"/>
</g>
<!-- Node28&#45;&gt;Node5 -->
<g id="edge47" class="edge">
<title>Node28&#45;&gt;Node5</title>
<path fill="none" stroke="#191970" d="M408.4133,-204.543C522.8738,-186.8897 757.3947,-157.6373 823.2139,-202.1711 918.9066,-266.9176 934.6984,-426.0118 937.2971,-474.148"/>
<polygon fill="#191970" stroke="#191970" points="407.7266,-201.1077 398.3857,-206.1074 408.8057,-208.0241 407.7266,-201.1077"/>
</g>
<!-- Node29&#45;&gt;Node5 -->
<g id="edge50" class="edge">
<title>Node29&#45;&gt;Node5</title>
<path fill="none" stroke="#191970" d="M395.6464,-156.0894C489.7526,-128.0001 692.9704,-83.7514 823.2139,-175.1711 875.4331,-211.8246 922.7117,-417.5471 934.82,-473.8981"/>
<polygon fill="#191970" stroke="#191970" points="394.3488,-152.8258 385.8029,-159.0881 396.3888,-159.5219 394.3488,-152.8258"/>
</g>
<!-- Node30&#45;&gt;Node31 -->
<g id="edge52" class="edge">
<title>Node30&#45;&gt;Node31</title>
<path fill="none" stroke="#191970" d="M431.9401,-87.1711C442.5929,-87.1711 453.4251,-87.1711 463.9311,-87.1711"/>
<polygon fill="#191970" stroke="#191970" points="431.7981,-83.6712 421.7981,-87.1711 431.7981,-90.6712 431.7981,-83.6712"/>
</g>
<!-- Node31&#45;&gt;Node5 -->
<g id="edge53" class="edge">
<title>Node31&#45;&gt;Node5</title>
<path fill="none" stroke="#191970" d="M630.2327,-72.7784C691.0271,-67.9894 770.1201,-72.5854 823.2139,-116.1711 881.5836,-164.088 925.3785,-411.88 935.5576,-474.0236"/>
<polygon fill="#191970" stroke="#191970" points="629.91,-69.2932 620.2571,-73.6604 630.5265,-76.266 629.91,-69.2932"/>
</g>
<!-- Node32&#45;&gt;Node5 -->
<g id="edge55" class="edge">
<title>Node32&#45;&gt;Node5</title>
<path fill="none" stroke="#191970" d="M404.1273,-23.7485C503.0552,-.3299 702.4465,29.7768 823.2139,-68.1711 889.4004,-121.8514 927.8993,-406.8457 936.1334,-473.9925"/>
<polygon fill="#191970" stroke="#191970" points="403.191,-20.374 394.2975,-26.1322 404.8407,-27.1768 403.191,-20.374"/>
</g>
<!-- Node33&#45;&gt;Node5 -->
<g id="edge57" class="edge">
<title>Node33&#45;&gt;Node5</title>
<path fill="none" stroke="#191970" d="M433.8387,-780.2C554.6001,-794.5513 762.0769,-811.7642 823.2139,-770.1711 824.7226,-769.1447 909.0276,-559.7287 932.0515,-502.4857"/>
<polygon fill="#191970" stroke="#191970" points="434.2118,-776.7197 423.8648,-778.9978 433.3741,-783.6694 434.2118,-776.7197"/>
</g>
</g>
</svg>
        <g id="navigator" transform="translate(0 0)" fill="#404254">
                <rect fill="#f2f5e9" fill-opacity="0.5" stroke="#606060" stroke-width=".5" x="0" y="0" width="60" height="60"/>
                <use id="zoomplus" xlink:href="#zoomPlus" x="17" y="9" onmousedown="handleZoom(evt,'in')"/>
                <use id="zoomminus" xlink:href="#zoomMin" x="42" y="9" onmousedown="handleZoom(evt,'out')"/>
                <use id="reset" xlink:href="#resetDef" x="30" y="36" onmousedown="handleReset()"/>
                <g id="arrowUp" xlink:href="#dirArrow" transform="translate(30 24)" onmousedown="handlePan(0,-1)">
                  <use xlink:href="#rim" fill="#404040">
                        <set attributeName="fill" to="#808080" begin="arrowUp.mouseover" end="arrowUp.mouseout"/>
                  </use>
                  <path fill="none" stroke="white" stroke-width="1.5" d="M0,-3.0v7 M-2.5,-0.5L0,-3.0L2.5,-0.5"/>
                </g>
                <g id="arrowRight" xlink:href="#dirArrow" transform="rotate(90) translate(36 -43)" onmousedown="handlePan(1,0)">
                  <use xlink:href="#rim" fill="#404040">
                        <set attributeName="fill" to="#808080" begin="arrowRight.mouseover" end="arrowRight.mouseout"/>
                  </use>
                  <path fill="none" stroke="white" stroke-width="1.5" d="M0,-3.0v7 M-2.5,-0.5L0,-3.0L2.5,-0.5"/>
                </g>
                <g id="arrowDown" xlink:href="#dirArrow" transform="rotate(180) translate(-30 -48)" onmousedown="handlePan(0,1)">
                  <use xlink:href="#rim" fill="#404040">
                        <set attributeName="fill" to="#808080" begin="arrowDown.mouseover" end="arrowDown.mouseout"/>
                  </use>
                  <path fill="none" stroke="white" stroke-width="1.5" d="M0,-3.0v7 M-2.5,-0.5L0,-3.0L2.5,-0.5"/>
                </g>
                <g id="arrowLeft" xlink:href="#dirArrow" transform="rotate(270) translate(-36 17)" onmousedown="handlePan(-1,0)">
                  <use xlink:href="#rim" fill="#404040">
                        <set attributeName="fill" to="#808080" begin="arrowLeft.mouseover" end="arrowLeft.mouseout"/>
                  </use>
                  <path fill="none" stroke="white" stroke-width="1.5" d="M0,-3.0v7 M-2.5,-0.5L0,-3.0L2.5,-0.5"/>
                </g>
        </g>
        <svg viewBox="0 0 15 15" width="100%" height="30px" preserveAspectRatio="xMaxYMin meet">
         <g id="arrow_out" transform="scale(0.3 0.3)">
          <a xlink:href="classlocomotor_1_1components_1_1logging_1_1_error_context_afcf30b71bfc65c74878c7ab77c951842_icgraph_org.svg" target="_base">
           <rect id="button" ry="5" rx="5" y="6" x="6" height="38" width="38"
                fill="#f2f5e9" fill-opacity="0.5" stroke="#606060" stroke-width="1.0"/>
           <path id="arrow"
             d="M 11.500037,31.436501 C 11.940474,20.09759 22.043105,11.32322 32.158766,21.979434 L 37.068811,17.246167 C 37.068811,17.246167 37.088388,32 37.088388,32 L 22.160133,31.978069 C 22.160133,31.978069 26.997745,27.140456 26.997745,27.140456 C 18.528582,18.264221 13.291696,25.230495 11.500037,31.436501 z"
             style="fill:#404040;"/>
          </a>
         </g>
        </svg>
</svg>
