<?xml version="1.0" encoding="UTF-8" standalone="no"?>
<!DOCTYPE svg PUBLIC "-//W3C//DTD SVG 1.1//EN"
 "http://www.w3.org/Graphics/SVG/1.1/DTD/svg11.dtd">
<!-- Generated by graphviz version 2.40.1 (20161225.0304)
 -->
<!-- Title: getJsonContext Pages: 1 -->
<svg width="672pt" height="140pt"
 viewBox="0.00 0.00 671.94 140.00" xmlns="http://www.w3.org/2000/svg" xmlns:xlink="http://www.w3.org/1999/xlink">
<g id="graph0" class="graph" transform="scale(1 1) rotate(0) translate(4 136)">
<title>getJsonContext</title>
<polygon fill="#ffffff" stroke="transparent" points="-4,4 -4,-136 667.9434,-136 667.9434,4 -4,4"/>
<!-- Node1 -->
<g id="node1" class="node">
<title>Node1</title>
<polygon fill="#bfbfbf" stroke="#000000" points="0,-62.5 0,-80.5 85.4873,-80.5 85.4873,-62.5 0,-62.5"/>
<text text-anchor="middle" x="42.7437" y="-68.5" font-family="Helvetica,sans-Serif" font-size="10.00" fill="#000000">getJsonContext</text>
</g>
<!-- Node2 -->
<g id="node2" class="node">
<title>Node2</title>
<g id="a_node2"><a xlink:href="classlocomotor_1_1components_1_1network_1_1_a_p_i.html#a547463fbc7fb7b485886f0917e2c0b78" target="_top" xlink:title="locomotor.components.network.\lAPI.createHooks">
<polygon fill="#ffffff" stroke="#000000" points="340.2598,-103.5 340.2598,-131.5 497.4463,-131.5 497.4463,-103.5 340.2598,-103.5"/>
<text text-anchor="start" x="348.2598" y="-119.5" font-family="Helvetica,sans-Serif" font-size="10.00" fill="#000000">locomotor.components.network.</text>
<text text-anchor="middle" x="418.853" y="-109.5" font-family="Helvetica,sans-Serif" font-size="10.00" fill="#000000">API.createHooks</text>
</a>
</g>
</g>
<!-- Node1&#45;&gt;Node2 -->
<g id="edge1" class="edge">
<title>Node1&#45;&gt;Node2</title>
<path fill="none" stroke="#191970" d="M78.4325,-83.6216C91.7935,-87.7079 107.197,-91.8895 121.4873,-94.5 194.8369,-107.8994 279.7566,-113.5019 340.0217,-115.8392"/>
<polygon fill="#191970" stroke="#191970" points="79.2554,-80.2113 68.6657,-80.543 77.1509,-86.8875 79.2554,-80.2113"/>
</g>
<!-- Node4 -->
<g id="node4" class="node">
<title>Node4</title>
<g id="a_node4"><a xlink:href="classlocomotor_1_1components_1_1network_1_1_i_endpoint_handler.html#ab14119ba2d6d06adbe73a9805f5130c6" target="_top" xlink:title="locomotor.components.network.\lIEndpointHandler.handle">
<polygon fill="#ffffff" stroke="#000000" points="134.2803,-57.5 134.2803,-85.5 291.4668,-85.5 291.4668,-57.5 134.2803,-57.5"/>
<text text-anchor="start" x="142.2803" y="-73.5" font-family="Helvetica,sans-Serif" font-size="10.00" fill="#000000">locomotor.components.network.</text>
<text text-anchor="middle" x="212.8735" y="-63.5" font-family="Helvetica,sans-Serif" font-size="10.00" fill="#000000">IEndpointHandler.handle</text>
</a>
</g>
</g>
<!-- Node1&#45;&gt;Node4 -->
<g id="edge3" class="edge">
<title>Node1&#45;&gt;Node4</title>
<path fill="none" stroke="#191970" d="M96.0293,-71.5C108.1406,-71.5 121.2556,-71.5 134.1738,-71.5"/>
<polygon fill="#191970" stroke="#191970" points="95.6746,-68.0001 85.6746,-71.5 95.6746,-75.0001 95.6746,-68.0001"/>
</g>
<!-- Node6 -->
<g id="node6" class="node">
<title>Node6</title>
<g id="a_node6"><a xlink:href="classlocomotor_1_1components_1_1network_1_1_i_endpoint_handler.html#a754e26560b323ad92f51d07b4cd02d2a" target="_top" xlink:title="locomotor.components.network.\lIEndpointHandler.sendDefaultMissing\lParametersMessage">
<polygon fill="#ffffff" stroke="#000000" points="121.4873,-.5 121.4873,-38.5 304.2598,-38.5 304.2598,-.5 121.4873,-.5"/>
<text text-anchor="start" x="129.4873" y="-26.5" font-family="Helvetica,sans-Serif" font-size="10.00" fill="#000000">locomotor.components.network.</text>
<text text-anchor="start" x="129.4873" y="-16.5" font-family="Helvetica,sans-Serif" font-size="10.00" fill="#000000">IEndpointHandler.sendDefaultMissing</text>
<text text-anchor="middle" x="212.8735" y="-6.5" font-family="Helvetica,sans-Serif" font-size="10.00" fill="#000000">ParametersMessage</text>
</a>
</g>
</g>
<!-- Node1&#45;&gt;Node6 -->
<g id="edge6" class="edge">
<title>Node1&#45;&gt;Node6</title>
<path fill="none" stroke="#191970" d="M82.1972,-59.4411C102.4682,-53.2453 127.6459,-45.5497 150.4744,-38.5722"/>
<polygon fill="#191970" stroke="#191970" points="80.9182,-56.1721 72.378,-62.4423 82.9644,-62.8664 80.9182,-56.1721"/>
</g>
<!-- Node3 -->
<g id="node3" class="node">
<title>Node3</title>
<g id="a_node3"><a xlink:href="classlocomotor_1_1core_1_1_main.html#a8b260eecbaabcef8473fd87ada040682" target="_top" xlink:title="locomotor.core.Main.main">
<polygon fill="#ffffff" stroke="#000000" points="533.4463,-84.5 533.4463,-102.5 663.9434,-102.5 663.9434,-84.5 533.4463,-84.5"/>
<text text-anchor="middle" x="598.6948" y="-90.5" font-family="Helvetica,sans-Serif" font-size="10.00" fill="#000000">locomotor.core.Main.main</text>
</a>
</g>
</g>
<!-- Node2&#45;&gt;Node3 -->
<g id="edge2" class="edge">
<title>Node2&#45;&gt;Node3</title>
<path fill="none" stroke="#191970" d="M507.6461,-105.6505C516.3344,-104.4911 525.0367,-103.3297 533.4286,-102.2098"/>
<polygon fill="#191970" stroke="#191970" points="506.9218,-102.2161 497.4726,-107.0082 507.8478,-109.1545 506.9218,-102.2161"/>
</g>
<!-- Node5 -->
<g id="node5" class="node">
<title>Node5</title>
<g id="a_node5"><a xlink:href="classlocomotor_1_1components_1_1network_1_1_network_handler.html#a63d431845f1fd2adc1f96432f6003e25" target="_top" xlink:title="locomotor.components.network.\lNetworkHandler.init">
<polygon fill="#ffffff" stroke="#000000" points="340.2598,-56.5 340.2598,-84.5 497.4463,-84.5 497.4463,-56.5 340.2598,-56.5"/>
<text text-anchor="start" x="348.2598" y="-72.5" font-family="Helvetica,sans-Serif" font-size="10.00" fill="#000000">locomotor.components.network.</text>
<text text-anchor="middle" x="418.853" y="-62.5" font-family="Helvetica,sans-Serif" font-size="10.00" fill="#000000">NetworkHandler.init</text>
</a>
</g>
</g>
<!-- Node4&#45;&gt;Node5 -->
<g id="edge4" class="edge">
<title>Node4&#45;&gt;Node5</title>
<path fill="none" stroke="#191970" d="M301.7827,-71.0684C314.5434,-71.0064 327.598,-70.943 340.143,-70.8821"/>
<polygon fill="#191970" stroke="#191970" points="301.6101,-67.5691 291.6272,-71.1177 301.6441,-74.569 301.6101,-67.5691"/>
</g>
<!-- Node5&#45;&gt;Node3 -->
<g id="edge5" class="edge">
<title>Node5&#45;&gt;Node3</title>
<path fill="none" stroke="#191970" d="M507.6461,-81.8558C516.3344,-82.9669 525.0367,-84.0798 533.4286,-85.1531"/>
<polygon fill="#191970" stroke="#191970" points="507.8359,-78.3516 497.4726,-80.5547 506.9478,-85.2951 507.8359,-78.3516"/>
</g>
</g>
</svg>
