<?xml version="1.0" encoding="UTF-8" standalone="no"?>
<!DOCTYPE svg PUBLIC "-//W3C//DTD SVG 1.1//EN"
 "http://www.w3.org/Graphics/SVG/1.1/DTD/svg11.dtd">
<!-- Generated by graphviz version 2.40.1 (20161225.0304)
 -->
<!-- Title: NetworkResponse Pages: 1 -->
<svg width="270pt" height="82pt"
 viewBox="0.00 0.00 270.44 82.00" xmlns="http://www.w3.org/2000/svg" xmlns:xlink="http://www.w3.org/1999/xlink">
<g id="graph0" class="graph" transform="scale(1 1) rotate(0) translate(4 78)">
<title>NetworkResponse</title>
<polygon fill="#ffffff" stroke="transparent" points="-4,4 -4,-78 266.438,-78 266.438,4 -4,4"/>
<!-- Node1 -->
<g id="node1" class="node">
<title>Node1</title>
<polygon fill="#bfbfbf" stroke="#000000" points="84.1724,-55.5 84.1724,-73.5 181.8765,-73.5 181.8765,-55.5 84.1724,-55.5"/>
<text text-anchor="middle" x="133.0244" y="-61.5" font-family="Helvetica,sans-Serif" font-size="10.00" fill="#000000">NetworkResponse</text>
</g>
<!-- Node2 -->
<g id="node2" class="node">
<title>Node2</title>
<g id="a_node2"><a xlink:href="classlocomotor_1_1components_1_1network_1_1_network_binary_response.html" target="_top" xlink:title="NetworkBinaryResponse">
<polygon fill="#ffffff" stroke="#000000" points="0,-.5 0,-18.5 126.0488,-18.5 126.0488,-.5 0,-.5"/>
<text text-anchor="middle" x="63.0244" y="-6.5" font-family="Helvetica,sans-Serif" font-size="10.00" fill="#000000">NetworkBinaryResponse</text>
</a>
</g>
</g>
<!-- Node1&#45;&gt;Node2 -->
<g id="edge1" class="edge">
<title>Node1&#45;&gt;Node2</title>
<path fill="none" stroke="#191970" d="M113.4881,-49.15C101.0662,-39.3899 85.3916,-27.0742 74.8346,-18.7795"/>
<polygon fill="#191970" stroke="#191970" points="111.4397,-51.9917 121.4653,-55.4179 115.7645,-46.4875 111.4397,-51.9917"/>
</g>
<!-- Node3 -->
<g id="node3" class="node">
<title>Node3</title>
<g id="a_node3"><a xlink:href="classlocomotor_1_1components_1_1network_1_1_network_json_response.html" target="_top" xlink:title="NetworkJsonResponse">
<polygon fill="#ffffff" stroke="#000000" points="143.6108,-.5 143.6108,-18.5 262.438,-18.5 262.438,-.5 143.6108,-.5"/>
<text text-anchor="middle" x="203.0244" y="-6.5" font-family="Helvetica,sans-Serif" font-size="10.00" fill="#000000">NetworkJsonResponse</text>
</a>
</g>
</g>
<!-- Node1&#45;&gt;Node3 -->
<g id="edge2" class="edge">
<title>Node1&#45;&gt;Node3</title>
<path fill="none" stroke="#191970" d="M152.5608,-49.15C164.9827,-39.3899 180.6573,-27.0742 191.2142,-18.7795"/>
<polygon fill="#191970" stroke="#191970" points="150.2843,-46.4875 144.5835,-55.4179 154.6091,-51.9917 150.2843,-46.4875"/>
</g>
</g>
</svg>
