<?xml version="1.0" encoding="UTF-8" standalone="no"?>
<!DOCTYPE svg PUBLIC "-//W3C//DTD SVG 1.1//EN"
 "http://www.w3.org/Graphics/SVG/1.1/DTD/svg11.dtd">
<!-- Generated by graphviz version 2.40.1 (20161225.0304)
 -->
<!-- Title: toJSON Pages: 1 -->
<svg width="423pt" height="37pt"
 viewBox="0.00 0.00 423.16 37.00" xmlns="http://www.w3.org/2000/svg" xmlns:xlink="http://www.w3.org/1999/xlink">
<g id="graph0" class="graph" transform="scale(1 1) rotate(0) translate(4 33)">
<title>toJSON</title>
<polygon fill="#ffffff" stroke="transparent" points="-4,4 -4,-33 419.1563,-33 419.1563,4 -4,4"/>
<!-- Node1 -->
<g id="node1" class="node">
<title>Node1</title>
<polygon fill="#bfbfbf" stroke="#000000" points="0,-5.5 0,-23.5 51.0098,-23.5 51.0098,-5.5 0,-5.5"/>
<text text-anchor="middle" x="25.5049" y="-11.5" font-family="Helvetica,sans-Serif" font-size="10.00" fill="#000000">toJSON</text>
</g>
<!-- Node2 -->
<g id="node2" class="node">
<title>Node2</title>
<g id="a_node2"><a xlink:href="classlocomotor_1_1components_1_1types_1_1_c_tree.html#a16e008a8f442c180f94c7c8f03f416bd" target="_top" xlink:title="locomotor.components.types.\lCTree.toJSON">
<polygon fill="#ffffff" stroke="#000000" points="87.0098,-.5 87.0098,-28.5 233.083,-28.5 233.083,-.5 87.0098,-.5"/>
<text text-anchor="start" x="95.0098" y="-16.5" font-family="Helvetica,sans-Serif" font-size="10.00" fill="#000000">locomotor.components.types.</text>
<text text-anchor="middle" x="160.0464" y="-6.5" font-family="Helvetica,sans-Serif" font-size="10.00" fill="#000000">CTree.toJSON</text>
</a>
</g>
</g>
<!-- Node1&#45;&gt;Node2 -->
<g id="edge1" class="edge">
<title>Node1&#45;&gt;Node2</title>
<path fill="none" stroke="#191970" d="M51.1278,-14.5C58.7425,-14.5 67.5309,-14.5 76.7455,-14.5"/>
<polygon fill="#191970" stroke="#191970" points="76.8761,-18.0001 86.8761,-14.5 76.876,-11.0001 76.8761,-18.0001"/>
</g>
<!-- Node3 -->
<g id="node3" class="node">
<title>Node3</title>
<g id="a_node3"><a xlink:href="classlocomotor_1_1components_1_1types_1_1_c_tree.html#aa1e673ab8d70f133793c23ddc807ee95" target="_top" xlink:title="locomotor.components.types.\lCTree.isLeaf">
<polygon fill="#ffffff" stroke="#000000" points="269.083,-.5 269.083,-28.5 415.1563,-28.5 415.1563,-.5 269.083,-.5"/>
<text text-anchor="start" x="277.083" y="-16.5" font-family="Helvetica,sans-Serif" font-size="10.00" fill="#000000">locomotor.components.types.</text>
<text text-anchor="middle" x="342.1196" y="-6.5" font-family="Helvetica,sans-Serif" font-size="10.00" fill="#000000">CTree.isLeaf</text>
</a>
</g>
</g>
<!-- Node2&#45;&gt;Node3 -->
<g id="edge2" class="edge">
<title>Node2&#45;&gt;Node3</title>
<path fill="none" stroke="#191970" d="M233.3155,-14.5C241.6754,-14.5 250.2433,-14.5 258.7222,-14.5"/>
<polygon fill="#191970" stroke="#191970" points="259.0005,-18.0001 269.0005,-14.5 259.0005,-11.0001 259.0005,-18.0001"/>
</g>
</g>
</svg>
