<?xml version="1.0" encoding="UTF-8" standalone="no"?>
<!DOCTYPE svg PUBLIC "-//W3C//DTD SVG 1.1//EN"
 "http://www.w3.org/Graphics/SVG/1.1/DTD/svg11.dtd">
<!-- Generated by graphviz version 2.40.1 (20161225.0304)
 -->
<!-- Title: equals Pages: 1 -->
<svg width="526pt" height="158pt"
 viewBox="0.00 0.00 526.33 158.00" xmlns="http://www.w3.org/2000/svg" xmlns:xlink="http://www.w3.org/1999/xlink">
<g id="graph0" class="graph" transform="scale(1 1) rotate(0) translate(4 154)">
<title>equals</title>
<polygon fill="#ffffff" stroke="transparent" points="-4,4 -4,-154 522.3281,-154 522.3281,4 -4,4"/>
<!-- Node1 -->
<g id="node1" class="node">
<title>Node1</title>
<polygon fill="#bfbfbf" stroke="#000000" points="0,-73.5 0,-91.5 45.4678,-91.5 45.4678,-73.5 0,-73.5"/>
<text text-anchor="middle" x="22.7339" y="-79.5" font-family="Helvetica,sans-Serif" font-size="10.00" fill="#000000">equals</text>
</g>
<!-- Node2 -->
<g id="node2" class="node">
<title>Node2</title>
<g id="a_node2"><a xlink:href="classlocomotor_1_1components_1_1types_1_1_c_interval.html#afd960ea0d74219e2fa2bdc51004d05ba" target="_top" xlink:title="CInterval">
<polygon fill="#ffffff" stroke="#000000" points="81.4678,-73.5 81.4678,-91.5 137.4824,-91.5 137.4824,-73.5 81.4678,-73.5"/>
<text text-anchor="middle" x="109.4751" y="-79.5" font-family="Helvetica,sans-Serif" font-size="10.00" fill="#000000">CInterval</text>
</a>
</g>
</g>
<!-- Node1&#45;&gt;Node2 -->
<g id="edge1" class="edge">
<title>Node1&#45;&gt;Node2</title>
<path fill="none" stroke="#191970" d="M45.5241,-82.5C53.3891,-82.5 62.4295,-82.5 71.1893,-82.5"/>
<polygon fill="#191970" stroke="#191970" points="71.2566,-86.0001 81.2565,-82.5 71.2565,-79.0001 71.2566,-86.0001"/>
</g>
<!-- Node3 -->
<g id="node3" class="node">
<title>Node3</title>
<g id="a_node3"><a xlink:href="classlocomotor_1_1components_1_1types_1_1_c_interval.html#a8977ca8c87b00639da116d1441a878ec" target="_top" xlink:title="min">
<polygon fill="#ffffff" stroke="#000000" points="234.6372,-131.5 234.6372,-149.5 266.7505,-149.5 266.7505,-131.5 234.6372,-131.5"/>
<text text-anchor="middle" x="250.6938" y="-137.5" font-family="Helvetica,sans-Serif" font-size="10.00" fill="#000000">min</text>
</a>
</g>
</g>
<!-- Node2&#45;&gt;Node3 -->
<g id="edge2" class="edge">
<title>Node2&#45;&gt;Node3</title>
<path fill="none" stroke="#191970" d="M121.5593,-91.7625C133.9585,-100.8416 154.121,-114.4555 173.4824,-122.5 189.7452,-129.2571 209.0385,-133.7561 224.2709,-136.5664"/>
<polygon fill="#191970" stroke="#191970" points="224.0965,-140.0873 234.5433,-138.3223 225.2761,-133.1873 224.0965,-140.0873"/>
</g>
<!-- Node4 -->
<g id="node4" class="node">
<title>Node4</title>
<g id="a_node4"><a xlink:href="classlocomotor_1_1components_1_1types_1_1_c_interval.html#a63edd36c00e0027edd899384e6f168f9" target="_top" xlink:title="max">
<polygon fill="#ffffff" stroke="#000000" points="233.248,-94.5 233.248,-112.5 268.1396,-112.5 268.1396,-94.5 233.248,-94.5"/>
<text text-anchor="middle" x="250.6938" y="-100.5" font-family="Helvetica,sans-Serif" font-size="10.00" fill="#000000">max</text>
</a>
</g>
</g>
<!-- Node2&#45;&gt;Node4 -->
<g id="edge3" class="edge">
<title>Node2&#45;&gt;Node4</title>
<path fill="none" stroke="#191970" d="M137.7134,-86.6992C162.5341,-90.3902 198.4394,-95.7295 223.0738,-99.3927"/>
<polygon fill="#191970" stroke="#191970" points="222.7911,-102.8891 233.1972,-100.8982 223.8208,-95.9653 222.7911,-102.8891"/>
</g>
<!-- Node5 -->
<g id="node5" class="node">
<title>Node5</title>
<g id="a_node5"><a xlink:href="classlocomotor_1_1components_1_1logging_1_1_error_handler.html#a75e8f6535bdb8db9a7d570e1b839af47" target="_top" xlink:title="locomotor.components.logging.\lErrorHandler.getInstance">
<polygon fill="#ffffff" stroke="#000000" points="173.4824,-47.5 173.4824,-75.5 327.9053,-75.5 327.9053,-47.5 173.4824,-47.5"/>
<text text-anchor="start" x="181.4824" y="-63.5" font-family="Helvetica,sans-Serif" font-size="10.00" fill="#000000">locomotor.components.logging.</text>
<text text-anchor="middle" x="250.6938" y="-53.5" font-family="Helvetica,sans-Serif" font-size="10.00" fill="#000000">ErrorHandler.getInstance</text>
</a>
</g>
</g>
<!-- Node2&#45;&gt;Node5 -->
<g id="edge4" class="edge">
<title>Node2&#45;&gt;Node5</title>
<path fill="none" stroke="#191970" d="M137.7134,-78.3008C145.3978,-77.1581 154.1445,-75.8574 163.2904,-74.4974"/>
<polygon fill="#191970" stroke="#191970" points="163.9635,-77.9359 173.3399,-73.003 162.9338,-71.012 163.9635,-77.9359"/>
</g>
<!-- Node6 -->
<g id="node6" class="node">
<title>Node6</title>
<g id="a_node6"><a xlink:href="classlocomotor_1_1components_1_1logging_1_1_error_handler.html#abd00a9c37627740763cef91d76a77437" target="_top" xlink:title="locomotor.components.logging.\lErrorHandler.push">
<polygon fill="#ffffff" stroke="#000000" points="173.4824,-.5 173.4824,-28.5 327.9053,-28.5 327.9053,-.5 173.4824,-.5"/>
<text text-anchor="start" x="181.4824" y="-16.5" font-family="Helvetica,sans-Serif" font-size="10.00" fill="#000000">locomotor.components.logging.</text>
<text text-anchor="middle" x="250.6938" y="-6.5" font-family="Helvetica,sans-Serif" font-size="10.00" fill="#000000">ErrorHandler.push</text>
</a>
</g>
</g>
<!-- Node2&#45;&gt;Node6 -->
<g id="edge5" class="edge">
<title>Node2&#45;&gt;Node6</title>
<path fill="none" stroke="#191970" d="M120.6245,-73.2774C132.9136,-63.4972 153.5864,-48.1551 173.4824,-38.5 178.1768,-36.2219 183.1359,-34.0994 188.1837,-32.1353"/>
<polygon fill="#191970" stroke="#191970" points="189.7695,-35.2818 197.9543,-28.5541 187.3606,-28.7093 189.7695,-35.2818"/>
</g>
<!-- Node7 -->
<g id="node7" class="node">
<title>Node7</title>
<g id="a_node7"><a xlink:href="classlocomotor_1_1components_1_1logging_1_1_error_context.html#afcf30b71bfc65c74878c7ab77c951842" target="_top" xlink:title="locomotor.components.logging.\lErrorContext.push">
<polygon fill="#ffffff" stroke="#000000" points="363.9053,-.5 363.9053,-28.5 518.3281,-28.5 518.3281,-.5 363.9053,-.5"/>
<text text-anchor="start" x="371.9053" y="-16.5" font-family="Helvetica,sans-Serif" font-size="10.00" fill="#000000">locomotor.components.logging.</text>
<text text-anchor="middle" x="441.1167" y="-6.5" font-family="Helvetica,sans-Serif" font-size="10.00" fill="#000000">ErrorContext.push</text>
</a>
</g>
</g>
<!-- Node6&#45;&gt;Node7 -->
<g id="edge6" class="edge">
<title>Node6&#45;&gt;Node7</title>
<path fill="none" stroke="#191970" d="M328.1461,-14.5C336.4913,-14.5 345.0253,-14.5 353.4791,-14.5"/>
<polygon fill="#191970" stroke="#191970" points="353.7331,-18.0001 363.7331,-14.5 353.733,-11.0001 353.7331,-18.0001"/>
</g>
</g>
</svg>
