<?xml version="1.0" encoding="UTF-8" standalone="no"?>
<!DOCTYPE svg PUBLIC "-//W3C//DTD SVG 1.1//EN"
 "http://www.w3.org/Graphics/SVG/1.1/DTD/svg11.dtd">
<!-- Generated by graphviz version 2.40.1 (20161225.0304)
 -->
<!-- Title: addUniverse Pages: 1 -->
<!--zoomable 346 -->
<svg id="main" version="1.1" xmlns="http://www.w3.org/2000/svg" xmlns:xlink="http://www.w3.org/1999/xlink" xml:space="preserve" onload="init(evt)">
<style type="text/css"><![CDATA[
.edge:hover path { stroke: red; }
.edge:hover polygon { stroke: red; fill: red; }
]]></style>
<script type="text/javascript"><![CDATA[
var edges = document.getElementsByTagName('g');
if (edges && edges.length) {
  for (var i=0;i<edges.length;i++) {
    if (edges[i].id.substr(0,4)=='edge') {
      edges[i].setAttribute('class','edge');
    }
  }
}
]]></script>
        <defs>
                <circle id="rim" cx="0" cy="0" r="7"/>
                <circle id="rim2" cx="0" cy="0" r="3.5"/>
                <g id="zoomPlus">
                        <use xlink:href="#rim" fill="#404040">
                                <set attributeName="fill" to="#808080" begin="zoomplus.mouseover" end="zoomplus.mouseout"/>
                        </use>
                        <path d="M-4,0h8M0,-4v8" fill="none" stroke="white" stroke-width="1.5" pointer-events="none"/>
                </g>
                <g id="zoomMin">
                        <use xlink:href="#rim" fill="#404040">
                                <set attributeName="fill" to="#808080" begin="zoomminus.mouseover" end="zoomminus.mouseout"/>
                        </use>
                        <path d="M-4,0h8" fill="none" stroke="white" stroke-width="1.5" pointer-events="none"/>
                </g>
                <g id="dirArrow">
                        <path fill="none" stroke="white" stroke-width="1.5" d="M0,-3.0v7 M-2.5,-0.5L0,-3.0L2.5,-0.5"/>
                </g>
               <g id="resetDef">
                       <use xlink:href="#rim2" fill="#404040">
                               <set attributeName="fill" to="#808080" begin="reset.mouseover" end="reset.mouseout"/>
                       </use>
               </g>
        </defs>

<script type="text/javascript">
var viewWidth = 626;
var viewHeight = 346;
var sectionId = 'dynsection-6';
</script>
<script xlink:href="svgpan.js"/>
<svg id="graph" class="graph">
<g id="viewport">
<title>addUniverse</title>
<polygon fill="#ffffff" stroke="transparent" points="-4,4 -4,-342 621.8203,-342 621.8203,4 -4,4"/>
<!-- Node1 -->
<g id="node1" class="node">
<title>Node1</title>
<polygon fill="#bfbfbf" stroke="#000000" points="0,-207.5 0,-225.5 72.1426,-225.5 72.1426,-207.5 0,-207.5"/>
<text text-anchor="middle" x="36.0713" y="-213.5" font-family="Helvetica,sans-Serif" font-size="10.00" fill="#000000">addUniverse</text>
</g>
<!-- Node2 -->
<g id="node2" class="node">
<title>Node2</title>
<g id="a_node2"><a xlink:href="classlocomotor_1_1core_1_1_d_b_h.html#a0b2d292079fe232a4c3dae4636167641" target="_top" xlink:title="getInstance">
<polygon fill="#ffffff" stroke="#000000" points="316.334,-319.5 316.334,-337.5 384.0381,-337.5 384.0381,-319.5 316.334,-319.5"/>
<text text-anchor="middle" x="350.186" y="-325.5" font-family="Helvetica,sans-Serif" font-size="10.00" fill="#000000">getInstance</text>
</a>
</g>
</g>
<!-- Node1&#45;&gt;Node2 -->
<g id="edge1" class="edge">
<title>Node1&#45;&gt;Node2</title>
<path fill="none" stroke="#191970" d="M55.9878,-225.5771C96.2776,-243.6751 190.6307,-284.7224 272.9746,-310.5 283.635,-313.8372 295.296,-316.8675 306.2519,-319.4501"/>
<polygon fill="#191970" stroke="#191970" points="305.538,-322.8771 316.0663,-321.692 307.0969,-316.0529 305.538,-322.8771"/>
</g>
<!-- Node4 -->
<g id="node4" class="node">
<title>Node4</title>
<g id="a_node4"><a xlink:href="classlocomotor_1_1core_1_1_d_b_h.html#a756e5af44b74ea39a44a71cde06102fd" target="_top" xlink:title="checkingParsingUniverse">
<polygon fill="#ffffff" stroke="#000000" points="108.1426,-188.5 108.1426,-206.5 236.9746,-206.5 236.9746,-188.5 108.1426,-188.5"/>
<text text-anchor="middle" x="172.5586" y="-194.5" font-family="Helvetica,sans-Serif" font-size="10.00" fill="#000000">checkingParsingUniverse</text>
</a>
</g>
</g>
<!-- Node1&#45;&gt;Node4 -->
<g id="edge3" class="edge">
<title>Node1&#45;&gt;Node4</title>
<path fill="none" stroke="#191970" d="M72.289,-211.4582C80.2649,-210.3479 88.9955,-209.1326 97.8728,-207.8968"/>
<polygon fill="#191970" stroke="#191970" points="98.5036,-211.3428 107.9255,-206.4974 97.5384,-204.4097 98.5036,-211.3428"/>
</g>
<!-- Node3 -->
<g id="node3" class="node">
<title>Node3</title>
<g id="a_node3"><a xlink:href="classlocomotor_1_1core_1_1_d_b_h.html#a2d5f1f766f5863a46ed29b7e56118364" target="_top" xlink:title="DBH">
<polygon fill="#ffffff" stroke="#000000" points="522.0522,-319.5 522.0522,-337.5 559.1655,-337.5 559.1655,-319.5 522.0522,-319.5"/>
<text text-anchor="middle" x="540.6089" y="-325.5" font-family="Helvetica,sans-Serif" font-size="10.00" fill="#000000">DBH</text>
</a>
</g>
</g>
<!-- Node2&#45;&gt;Node3 -->
<g id="edge2" class="edge">
<title>Node2&#45;&gt;Node3</title>
<path fill="none" stroke="#191970" d="M384.2298,-328.5C420.5252,-328.5 477.3863,-328.5 511.6191,-328.5"/>
<polygon fill="#191970" stroke="#191970" points="511.8839,-332.0001 521.8838,-328.5 511.8838,-325.0001 511.8839,-332.0001"/>
</g>
<!-- Node4&#45;&gt;Node2 -->
<g id="edge6" class="edge">
<title>Node4&#45;&gt;Node2</title>
<path fill="none" stroke="#191970" d="M181.4533,-206.8825C194.0138,-220.1953 217.5805,-245.4076 236.9746,-267.5 253.4179,-286.231 251.7441,-297.4424 272.9746,-310.5 282.9493,-316.6349 294.8219,-320.6801 306.2293,-323.3471"/>
<polygon fill="#191970" stroke="#191970" points="305.5772,-326.786 316.0747,-325.3538 306.9752,-319.9271 305.5772,-326.786"/>
</g>
<!-- Node5 -->
<g id="node5" class="node">
<title>Node5</title>
<g id="a_node5"><a xlink:href="classlocomotor_1_1components_1_1models_1_1_universe.html#a34e60b6081b4c555dc9f5b872cbe044e" target="_top" xlink:title="locomotor.components.models.\lUniverse.getID">
<polygon fill="#ffffff" stroke="#000000" points="272.9819,-272.5 272.9819,-300.5 427.3901,-300.5 427.3901,-272.5 272.9819,-272.5"/>
<text text-anchor="start" x="280.9819" y="-288.5" font-family="Helvetica,sans-Serif" font-size="10.00" fill="#000000">locomotor.components.models.</text>
<text text-anchor="middle" x="350.186" y="-278.5" font-family="Helvetica,sans-Serif" font-size="10.00" fill="#000000">Universe.getID</text>
</a>
</g>
</g>
<!-- Node4&#45;&gt;Node5 -->
<g id="edge4" class="edge">
<title>Node4&#45;&gt;Node5</title>
<path fill="none" stroke="#191970" d="M183.9538,-206.6107C201.9212,-220.5889 238.3608,-247.3948 272.9746,-263.5 277.0802,-265.4103 281.3822,-267.2052 285.7654,-268.8835"/>
<polygon fill="#191970" stroke="#191970" points="284.8512,-272.2743 295.4456,-272.3705 287.2236,-265.6885 284.8512,-272.2743"/>
</g>
<!-- Node6 -->
<g id="node6" class="node">
<title>Node6</title>
<g id="a_node6"><a xlink:href="classlocomotor_1_1components_1_1models_1_1_universe.html#a78ee178b6a73658d65ca60da4d1e6683" target="_top" xlink:title="locomotor.components.models.\lUniverse.getName">
<polygon fill="#ffffff" stroke="#000000" points="272.9819,-225.5 272.9819,-253.5 427.3901,-253.5 427.3901,-225.5 272.9819,-225.5"/>
<text text-anchor="start" x="280.9819" y="-241.5" font-family="Helvetica,sans-Serif" font-size="10.00" fill="#000000">locomotor.components.models.</text>
<text text-anchor="middle" x="350.186" y="-231.5" font-family="Helvetica,sans-Serif" font-size="10.00" fill="#000000">Universe.getName</text>
</a>
</g>
</g>
<!-- Node4&#45;&gt;Node6 -->
<g id="edge5" class="edge">
<title>Node4&#45;&gt;Node6</title>
<path fill="none" stroke="#191970" d="M210.6641,-206.5101C231.1814,-211.3614 257.1282,-217.4965 281.0654,-223.1564"/>
<polygon fill="#191970" stroke="#191970" points="280.2884,-226.5692 290.8255,-225.4642 281.8992,-219.757 280.2884,-226.5692"/>
</g>
<!-- Node7 -->
<g id="node7" class="node">
<title>Node7</title>
<g id="a_node7"><a xlink:href="classlocomotor_1_1core_1_1_d_b_h.html#a7c304d82522d66971ae49134140fae7c" target="_top" xlink:title="universeNameAlreadyTaken">
<polygon fill="#ffffff" stroke="#000000" points="279.6543,-188.5 279.6543,-206.5 420.7178,-206.5 420.7178,-188.5 279.6543,-188.5"/>
<text text-anchor="middle" x="350.186" y="-194.5" font-family="Helvetica,sans-Serif" font-size="10.00" fill="#000000">universeNameAlreadyTaken</text>
</a>
</g>
</g>
<!-- Node4&#45;&gt;Node7 -->
<g id="edge7" class="edge">
<title>Node4&#45;&gt;Node7</title>
<path fill="none" stroke="#191970" d="M237.1887,-197.5C247.6375,-197.5 258.5698,-197.5 269.3443,-197.5"/>
<polygon fill="#191970" stroke="#191970" points="269.6053,-201.0001 279.6052,-197.5 269.6052,-194.0001 269.6053,-201.0001"/>
</g>
<!-- Node8 -->
<g id="node8" class="node">
<title>Node8</title>
<g id="a_node8"><a xlink:href="classlocomotor_1_1components_1_1logging_1_1_error_handler.html#a75e8f6535bdb8db9a7d570e1b839af47" target="_top" xlink:title="locomotor.components.logging.\lErrorHandler.getInstance">
<polygon fill="#ffffff" stroke="#000000" points="272.9746,-141.5 272.9746,-169.5 427.3975,-169.5 427.3975,-141.5 272.9746,-141.5"/>
<text text-anchor="start" x="280.9746" y="-157.5" font-family="Helvetica,sans-Serif" font-size="10.00" fill="#000000">locomotor.components.logging.</text>
<text text-anchor="middle" x="350.186" y="-147.5" font-family="Helvetica,sans-Serif" font-size="10.00" fill="#000000">ErrorHandler.getInstance</text>
</a>
</g>
</g>
<!-- Node4&#45;&gt;Node8 -->
<g id="edge8" class="edge">
<title>Node4&#45;&gt;Node8</title>
<path fill="none" stroke="#191970" d="M210.6641,-188.4899C231.1814,-183.6386 257.1282,-177.5035 281.0654,-171.8436"/>
<polygon fill="#191970" stroke="#191970" points="281.8992,-175.243 290.8255,-169.5358 280.2884,-168.4308 281.8992,-175.243"/>
</g>
<!-- Node9 -->
<g id="node9" class="node">
<title>Node9</title>
<g id="a_node9"><a xlink:href="classlocomotor_1_1components_1_1logging_1_1_error_handler.html#abd00a9c37627740763cef91d76a77437" target="_top" xlink:title="locomotor.components.logging.\lErrorHandler.push">
<polygon fill="#ffffff" stroke="#000000" points="272.9746,-94.5 272.9746,-122.5 427.3975,-122.5 427.3975,-94.5 272.9746,-94.5"/>
<text text-anchor="start" x="280.9746" y="-110.5" font-family="Helvetica,sans-Serif" font-size="10.00" fill="#000000">locomotor.components.logging.</text>
<text text-anchor="middle" x="350.186" y="-100.5" font-family="Helvetica,sans-Serif" font-size="10.00" fill="#000000">ErrorHandler.push</text>
</a>
</g>
</g>
<!-- Node4&#45;&gt;Node9 -->
<g id="edge9" class="edge">
<title>Node4&#45;&gt;Node9</title>
<path fill="none" stroke="#191970" d="M184.299,-188.364C202.4324,-174.6191 238.7454,-148.5277 272.9746,-132.5 277.9008,-130.1933 283.1047,-128.0351 288.3895,-126.0332"/>
<polygon fill="#191970" stroke="#191970" points="289.7186,-129.2748 297.9467,-122.6003 287.3522,-122.6869 289.7186,-129.2748"/>
</g>
<!-- Node11 -->
<g id="node11" class="node">
<title>Node11</title>
<g id="a_node11"><a xlink:href="classlocomotor_1_1components_1_1models_1_1_universe.html#ac7feffb7a33f63504ff1f87f19e2d2d8" target="_top" xlink:title="locomotor.components.models.\lUniverse.getDescription">
<polygon fill="#ffffff" stroke="#000000" points="272.9819,-47.5 272.9819,-75.5 427.3901,-75.5 427.3901,-47.5 272.9819,-47.5"/>
<text text-anchor="start" x="280.9819" y="-63.5" font-family="Helvetica,sans-Serif" font-size="10.00" fill="#000000">locomotor.components.models.</text>
<text text-anchor="middle" x="350.186" y="-53.5" font-family="Helvetica,sans-Serif" font-size="10.00" fill="#000000">Universe.getDescription</text>
</a>
</g>
</g>
<!-- Node4&#45;&gt;Node11 -->
<g id="edge11" class="edge">
<title>Node4&#45;&gt;Node11</title>
<path fill="none" stroke="#191970" d="M178.1516,-188.4558C191.7245,-167.2546 228.5797,-113.9948 272.9746,-85.5 276.2694,-83.3852 279.7628,-81.4464 283.3723,-79.6702"/>
<polygon fill="#191970" stroke="#191970" points="284.8298,-82.8526 292.537,-75.5828 281.9785,-76.4596 284.8298,-82.8526"/>
</g>
<!-- Node12 -->
<g id="node12" class="node">
<title>Node12</title>
<g id="a_node12"><a xlink:href="classlocomotor_1_1components_1_1models_1_1_universe.html#a832e57df908361dd86dc673520d7fb81" target="_top" xlink:title="locomotor.components.models.\lUniverse.getImage">
<polygon fill="#ffffff" stroke="#000000" points="272.9819,-.5 272.9819,-28.5 427.3901,-28.5 427.3901,-.5 272.9819,-.5"/>
<text text-anchor="start" x="280.9819" y="-16.5" font-family="Helvetica,sans-Serif" font-size="10.00" fill="#000000">locomotor.components.models.</text>
<text text-anchor="middle" x="350.186" y="-6.5" font-family="Helvetica,sans-Serif" font-size="10.00" fill="#000000">Universe.getImage</text>
</a>
</g>
</g>
<!-- Node4&#45;&gt;Node12 -->
<g id="edge12" class="edge">
<title>Node4&#45;&gt;Node12</title>
<path fill="none" stroke="#191970" d="M175.7097,-188.3754C185.5437,-161.2565 218.3195,-80.4328 272.9746,-38.5 275.4561,-36.5961 278.0905,-34.8419 280.8325,-33.2256"/>
<polygon fill="#191970" stroke="#191970" points="282.6367,-36.2325 289.8998,-28.519 279.4118,-30.0197 282.6367,-36.2325"/>
</g>
<!-- Node10 -->
<g id="node10" class="node">
<title>Node10</title>
<g id="a_node10"><a xlink:href="classlocomotor_1_1components_1_1logging_1_1_error_context.html#afcf30b71bfc65c74878c7ab77c951842" target="_top" xlink:title="locomotor.components.logging.\lErrorContext.push">
<polygon fill="#ffffff" stroke="#000000" points="463.3975,-94.5 463.3975,-122.5 617.8203,-122.5 617.8203,-94.5 463.3975,-94.5"/>
<text text-anchor="start" x="471.3975" y="-110.5" font-family="Helvetica,sans-Serif" font-size="10.00" fill="#000000">locomotor.components.logging.</text>
<text text-anchor="middle" x="540.6089" y="-100.5" font-family="Helvetica,sans-Serif" font-size="10.00" fill="#000000">ErrorContext.push</text>
</a>
</g>
</g>
<!-- Node9&#45;&gt;Node10 -->
<g id="edge10" class="edge">
<title>Node9&#45;&gt;Node10</title>
<path fill="none" stroke="#191970" d="M427.6383,-108.5C435.9835,-108.5 444.5175,-108.5 452.9713,-108.5"/>
<polygon fill="#191970" stroke="#191970" points="453.2253,-112.0001 463.2253,-108.5 453.2252,-105.0001 453.2253,-112.0001"/>
</g>
</g>
</svg>
        <g id="navigator" transform="translate(0 0)" fill="#404254">
                <rect fill="#f2f5e9" fill-opacity="0.5" stroke="#606060" stroke-width=".5" x="0" y="0" width="60" height="60"/>
                <use id="zoomplus" xlink:href="#zoomPlus" x="17" y="9" onmousedown="handleZoom(evt,'in')"/>
                <use id="zoomminus" xlink:href="#zoomMin" x="42" y="9" onmousedown="handleZoom(evt,'out')"/>
                <use id="reset" xlink:href="#resetDef" x="30" y="36" onmousedown="handleReset()"/>
                <g id="arrowUp" xlink:href="#dirArrow" transform="translate(30 24)" onmousedown="handlePan(0,-1)">
                  <use xlink:href="#rim" fill="#404040">
                        <set attributeName="fill" to="#808080" begin="arrowUp.mouseover" end="arrowUp.mouseout"/>
                  </use>
                  <path fill="none" stroke="white" stroke-width="1.5" d="M0,-3.0v7 M-2.5,-0.5L0,-3.0L2.5,-0.5"/>
                </g>
                <g id="arrowRight" xlink:href="#dirArrow" transform="rotate(90) translate(36 -43)" onmousedown="handlePan(1,0)">
                  <use xlink:href="#rim" fill="#404040">
                        <set attributeName="fill" to="#808080" begin="arrowRight.mouseover" end="arrowRight.mouseout"/>
                  </use>
                  <path fill="none" stroke="white" stroke-width="1.5" d="M0,-3.0v7 M-2.5,-0.5L0,-3.0L2.5,-0.5"/>
                </g>
                <g id="arrowDown" xlink:href="#dirArrow" transform="rotate(180) translate(-30 -48)" onmousedown="handlePan(0,1)">
                  <use xlink:href="#rim" fill="#404040">
                        <set attributeName="fill" to="#808080" begin="arrowDown.mouseover" end="arrowDown.mouseout"/>
                  </use>
                  <path fill="none" stroke="white" stroke-width="1.5" d="M0,-3.0v7 M-2.5,-0.5L0,-3.0L2.5,-0.5"/>
                </g>
                <g id="arrowLeft" xlink:href="#dirArrow" transform="rotate(270) translate(-36 17)" onmousedown="handlePan(-1,0)">
                  <use xlink:href="#rim" fill="#404040">
                        <set attributeName="fill" to="#808080" begin="arrowLeft.mouseover" end="arrowLeft.mouseout"/>
                  </use>
                  <path fill="none" stroke="white" stroke-width="1.5" d="M0,-3.0v7 M-2.5,-0.5L0,-3.0L2.5,-0.5"/>
                </g>
        </g>
        <svg viewBox="0 0 15 15" width="100%" height="30px" preserveAspectRatio="xMaxYMin meet">
         <g id="arrow_out" transform="scale(0.3 0.3)">
          <a xlink:href="classlocomotor_1_1core_1_1_d_b_h_a2b2232ca307c4877316e8b6097902f2c_cgraph_org.svg" target="_base">
           <rect id="button" ry="5" rx="5" y="6" x="6" height="38" width="38"
                fill="#f2f5e9" fill-opacity="0.5" stroke="#606060" stroke-width="1.0"/>
           <path id="arrow"
             d="M 11.500037,31.436501 C 11.940474,20.09759 22.043105,11.32322 32.158766,21.979434 L 37.068811,17.246167 C 37.068811,17.246167 37.088388,32 37.088388,32 L 22.160133,31.978069 C 22.160133,31.978069 26.997745,27.140456 26.997745,27.140456 C 18.528582,18.264221 13.291696,25.230495 11.500037,31.436501 z"
             style="fill:#404040;"/>
          </a>
         </g>
        </svg>
</svg>
