<?xml version="1.0" encoding="UTF-8" standalone="no"?>
<!DOCTYPE svg PUBLIC "-//W3C//DTD SVG 1.1//EN"
 "http://www.w3.org/Graphics/SVG/1.1/DTD/svg11.dtd">
<!-- Generated by graphviz version 2.40.1 (20161225.0304)
 -->
<!-- Title: CGraphStringList Pages: 1 -->
<svg width="521pt" height="158pt"
 viewBox="0.00 0.00 520.81 158.00" xmlns="http://www.w3.org/2000/svg" xmlns:xlink="http://www.w3.org/1999/xlink">
<g id="graph0" class="graph" transform="scale(1 1) rotate(0) translate(4 154)">
<title>CGraphStringList</title>
<polygon fill="#ffffff" stroke="transparent" points="-4,4 -4,-154 516.8076,-154 516.8076,4 -4,4"/>
<!-- Node1 -->
<g id="node1" class="node">
<title>Node1</title>
<polygon fill="#bfbfbf" stroke="#000000" points="420.1084,-58.5 420.1084,-76.5 512.8076,-76.5 512.8076,-58.5 420.1084,-58.5"/>
<text text-anchor="middle" x="466.458" y="-64.5" font-family="Helvetica,sans-Serif" font-size="10.00" fill="#000000">CGraphStringList</text>
</g>
<!-- Node2 -->
<g id="node2" class="node">
<title>Node2</title>
<g id="a_node2"><a xlink:href="classlocomotor_1_1components_1_1types_1_1_c_set_graph.html" target="_top" xlink:title="CSetGraph">
<polygon fill="#ffffff" stroke="#000000" points="246.2749,-58.5 246.2749,-76.5 312.2993,-76.5 312.2993,-58.5 246.2749,-58.5"/>
<text text-anchor="middle" x="279.2871" y="-64.5" font-family="Helvetica,sans-Serif" font-size="10.00" fill="#000000">CSetGraph</text>
</a>
</g>
</g>
<!-- Node2&#45;&gt;Node1 -->
<g id="edge1" class="edge">
<title>Node2&#45;&gt;Node1</title>
<path fill="none" stroke="#191970" d="M322.6187,-67.5C351.8045,-67.5 390.2606,-67.5 420.0661,-67.5"/>
<polygon fill="#191970" stroke="#191970" points="322.3187,-64.0001 312.3187,-67.5 322.3186,-71.0001 322.3187,-64.0001"/>
</g>
<!-- Node3 -->
<g id="node3" class="node">
<title>Node3</title>
<g id="a_node3"><a xlink:href="interfacelocomotor_1_1components_1_1_j_s_o_n_displayable.html" target="_top" xlink:title="JSONDisplayable">
<polygon fill="#ffffff" stroke="#000000" points="23.7158,-94.5 23.7158,-112.5 118.0801,-112.5 118.0801,-94.5 23.7158,-94.5"/>
<text text-anchor="middle" x="70.8979" y="-100.5" font-family="Helvetica,sans-Serif" font-size="10.00" fill="#000000">JSONDisplayable</text>
</a>
</g>
</g>
<!-- Node3&#45;&gt;Node2 -->
<g id="edge2" class="edge">
<title>Node3&#45;&gt;Node2</title>
<path fill="none" stroke="#191970" d="M128.0799,-93.6216C166.0025,-87.0703 214.438,-78.7029 246.1323,-73.2276"/>
<polygon fill="#191970" stroke="#191970" points="127.4429,-90.1797 118.1847,-95.331 128.6346,-97.0776 127.4429,-90.1797"/>
</g>
<!-- Node6 -->
<g id="node6" class="node">
<title>Node6</title>
<g id="a_node6"><a xlink:href="interfacelocomotor_1_1components_1_1types_1_1_c_universe_type.html" target="_top" xlink:title="CUniverseType">
<polygon fill="#ffffff" stroke="#000000" points="237.105,-102.5 237.105,-120.5 321.4692,-120.5 321.4692,-102.5 237.105,-102.5"/>
<text text-anchor="middle" x="279.2871" y="-108.5" font-family="Helvetica,sans-Serif" font-size="10.00" fill="#000000">CUniverseType</text>
</a>
</g>
</g>
<!-- Node3&#45;&gt;Node6 -->
<g id="edge7" class="edge">
<title>Node3&#45;&gt;Node6</title>
<path fill="none" stroke="#191970" d="M128.5317,-105.7125C162.8197,-107.0288 205.5762,-108.6703 236.7886,-109.8685"/>
<polygon fill="#191970" stroke="#191970" points="128.3116,-102.2016 118.1847,-105.3153 128.043,-109.1965 128.3116,-102.2016"/>
</g>
<!-- Node4 -->
<g id="node4" class="node">
<title>Node4</title>
<polygon fill="#ffffff" stroke="#bfbfbf" points="0,-47.5 0,-75.5 141.7959,-75.5 141.7959,-47.5 0,-47.5"/>
<text text-anchor="start" x="8" y="-63.5" font-family="Helvetica,sans-Serif" font-size="10.00" fill="#000000">FloydWarshallShortestPaths</text>
<text text-anchor="middle" x="70.8979" y="-53.5" font-family="Helvetica,sans-Serif" font-size="10.00" fill="#000000">&lt; Integer, DefaultEdge &gt;</text>
</g>
<!-- Node4&#45;&gt;Node2 -->
<g id="edge3" class="edge">
<title>Node4&#45;&gt;Node2</title>
<path fill="none" stroke="#9a32cd" stroke-dasharray="5,2" d="M152.0556,-61.5852C165.9544,-61.7645 180.2503,-62.0522 193.7119,-62.5 210.9657,-63.0739 230.1537,-64.1544 245.9805,-65.1644"/>
<polygon fill="#9a32cd" stroke="#9a32cd" points="152.0614,-58.0851 142.0228,-61.473 151.9831,-65.0847 152.0614,-58.0851"/>
<text text-anchor="middle" x="176.7539" y="-64.5" font-family="Helvetica,sans-Serif" font-size="10.00" fill="#000000"> _fwsp</text>
</g>
<!-- Node5 -->
<g id="node5" class="node">
<title>Node5</title>
<polygon fill="#ffffff" stroke="#bfbfbf" points="12.7271,-.5 12.7271,-28.5 129.0688,-28.5 129.0688,-.5 12.7271,-.5"/>
<text text-anchor="start" x="20.7271" y="-16.5" font-family="Helvetica,sans-Serif" font-size="10.00" fill="#000000">SimpleGraph&lt; Integer,</text>
<text text-anchor="middle" x="70.8979" y="-6.5" font-family="Helvetica,sans-Serif" font-size="10.00" fill="#000000"> DefaultEdge &gt;</text>
</g>
<!-- Node5&#45;&gt;Node2 -->
<g id="edge4" class="edge">
<title>Node5&#45;&gt;Node2</title>
<path fill="none" stroke="#9a32cd" stroke-dasharray="5,2" d="M136.2831,-31.1295C172.8117,-40.4199 216.7652,-51.5987 246.216,-59.089"/>
<polygon fill="#9a32cd" stroke="#9a32cd" points="136.7495,-27.6368 126.1953,-28.5639 135.0241,-34.4208 136.7495,-27.6368"/>
<text text-anchor="middle" x="176.7539" y="-45.5" font-family="Helvetica,sans-Serif" font-size="10.00" fill="#000000"> _graph</text>
</g>
<!-- Node6&#45;&gt;Node1 -->
<g id="edge5" class="edge">
<title>Node6&#45;&gt;Node1</title>
<path fill="none" stroke="#191970" d="M327.4106,-100.1872C358.6213,-92.8502 398.7427,-83.4185 427.8596,-76.5737"/>
<polygon fill="#191970" stroke="#191970" points="326.5493,-96.7942 317.6156,-102.4898 328.1512,-103.6084 326.5493,-96.7942"/>
</g>
<!-- Node7 -->
<g id="node7" class="node">
<title>Node7</title>
<g id="a_node7"><a xlink:href="interfacelocomotor_1_1components_1_1types_1_1_c_type.html" target="_top" xlink:title="CType">
<polygon fill="#ffffff" stroke="#000000" points="48.4448,-131.5 48.4448,-149.5 93.3511,-149.5 93.3511,-131.5 48.4448,-131.5"/>
<text text-anchor="middle" x="70.8979" y="-137.5" font-family="Helvetica,sans-Serif" font-size="10.00" fill="#000000">CType</text>
</a>
</g>
</g>
<!-- Node7&#45;&gt;Node6 -->
<g id="edge6" class="edge">
<title>Node7&#45;&gt;Node6</title>
<path fill="none" stroke="#191970" d="M103.5555,-135.9553C139.4838,-130.9554 197.3521,-122.9023 236.7896,-117.4141"/>
<polygon fill="#191970" stroke="#191970" points="103.018,-132.4963 93.5959,-137.3413 103.9829,-139.4295 103.018,-132.4963"/>
</g>
<!-- Node8 -->
<g id="node8" class="node">
<title>Node8</title>
<polygon fill="#ffffff" stroke="#bfbfbf" points="211.7119,-21.5 211.7119,-39.5 346.8623,-39.5 346.8623,-21.5 211.7119,-21.5"/>
<text text-anchor="middle" x="279.2871" y="-27.5" font-family="Helvetica,sans-Serif" font-size="10.00" fill="#000000">TreeMap&lt; Integer, String &gt;</text>
</g>
<!-- Node8&#45;&gt;Node1 -->
<g id="edge8" class="edge">
<title>Node8&#45;&gt;Node1</title>
<path fill="none" stroke="#9a32cd" stroke-dasharray="5,2" d="M339.1763,-41.354C359.2093,-45.0808 381.645,-49.3589 402.1084,-53.5 409.7285,-55.0421 417.8407,-56.7527 425.6459,-58.4335"/>
<polygon fill="#9a32cd" stroke="#9a32cd" points="339.7196,-37.8951 329.2494,-39.5156 338.4448,-44.7781 339.7196,-37.8951"/>
<text text-anchor="middle" x="383.4854" y="-55.5" font-family="Helvetica,sans-Serif" font-size="10.00" fill="#000000"> _values</text>
</g>
</g>
</svg>
