<?xml version="1.0" encoding="UTF-8" standalone="no"?>
<!DOCTYPE svg PUBLIC "-//W3C//DTD SVG 1.1//EN"
 "http://www.w3.org/Graphics/SVG/1.1/DTD/svg11.dtd">
<!-- Generated by graphviz version 2.40.1 (20161225.0304)
 -->
<!-- Title: equals Pages: 1 -->
<!--zoomable 158 -->
<svg id="main" version="1.1" xmlns="http://www.w3.org/2000/svg" xmlns:xlink="http://www.w3.org/1999/xlink" xml:space="preserve" onload="init(evt)">
<style type="text/css"><![CDATA[
.edge:hover path { stroke: red; }
.edge:hover polygon { stroke: red; fill: red; }
]]></style>
<script type="text/javascript"><![CDATA[
var edges = document.getElementsByTagName('g');
if (edges && edges.length) {
  for (var i=0;i<edges.length;i++) {
    if (edges[i].id.substr(0,4)=='edge') {
      edges[i].setAttribute('class','edge');
    }
  }
}
]]></script>
        <defs>
                <circle id="rim" cx="0" cy="0" r="7"/>
                <circle id="rim2" cx="0" cy="0" r="3.5"/>
                <g id="zoomPlus">
                        <use xlink:href="#rim" fill="#404040">
                                <set attributeName="fill" to="#808080" begin="zoomplus.mouseover" end="zoomplus.mouseout"/>
                        </use>
                        <path d="M-4,0h8M0,-4v8" fill="none" stroke="white" stroke-width="1.5" pointer-events="none"/>
                </g>
                <g id="zoomMin">
                        <use xlink:href="#rim" fill="#404040">
                                <set attributeName="fill" to="#808080" begin="zoomminus.mouseover" end="zoomminus.mouseout"/>
                        </use>
                        <path d="M-4,0h8" fill="none" stroke="white" stroke-width="1.5" pointer-events="none"/>
                </g>
                <g id="dirArrow">
                        <path fill="none" stroke="white" stroke-width="1.5" d="M0,-3.0v7 M-2.5,-0.5L0,-3.0L2.5,-0.5"/>
                </g>
               <g id="resetDef">
                       <use xlink:href="#rim2" fill="#404040">
                               <set attributeName="fill" to="#808080" begin="reset.mouseover" end="reset.mouseout"/>
                       </use>
               </g>
        </defs>

<script type="text/javascript">
var viewWidth = 526;
var viewHeight = 158;
var sectionId = 'dynsection-4';
</script>
<script xlink:href="svgpan.js"/>
<svg id="graph" class="graph">
<g id="viewport">
<title>equals</title>
<polygon fill="#ffffff" stroke="transparent" points="-4,4 -4,-154 522.3281,-154 522.3281,4 -4,4"/>
<!-- Node1 -->
<g id="node1" class="node">
<title>Node1</title>
<polygon fill="#bfbfbf" stroke="#000000" points="0,-73.5 0,-91.5 45.4678,-91.5 45.4678,-73.5 0,-73.5"/>
<text text-anchor="middle" x="22.7339" y="-79.5" font-family="Helvetica,sans-Serif" font-size="10.00" fill="#000000">equals</text>
</g>
<!-- Node2 -->
<g id="node2" class="node">
<title>Node2</title>
<g id="a_node2"><a xlink:href="classlocomotor_1_1components_1_1types_1_1_c_interval.html#afd960ea0d74219e2fa2bdc51004d05ba" target="_top" xlink:title="CInterval">
<polygon fill="#ffffff" stroke="#000000" points="81.4678,-73.5 81.4678,-91.5 137.4824,-91.5 137.4824,-73.5 81.4678,-73.5"/>
<text text-anchor="middle" x="109.4751" y="-79.5" font-family="Helvetica,sans-Serif" font-size="10.00" fill="#000000">CInterval</text>
</a>
</g>
</g>
<!-- Node1&#45;&gt;Node2 -->
<g id="edge1" class="edge">
<title>Node1&#45;&gt;Node2</title>
<path fill="none" stroke="#191970" d="M45.5241,-82.5C53.3891,-82.5 62.4295,-82.5 71.1893,-82.5"/>
<polygon fill="#191970" stroke="#191970" points="71.2566,-86.0001 81.2565,-82.5 71.2565,-79.0001 71.2566,-86.0001"/>
</g>
<!-- Node3 -->
<g id="node3" class="node">
<title>Node3</title>
<g id="a_node3"><a xlink:href="classlocomotor_1_1components_1_1types_1_1_c_interval.html#a8977ca8c87b00639da116d1441a878ec" target="_top" xlink:title="min">
<polygon fill="#ffffff" stroke="#000000" points="234.6372,-131.5 234.6372,-149.5 266.7505,-149.5 266.7505,-131.5 234.6372,-131.5"/>
<text text-anchor="middle" x="250.6938" y="-137.5" font-family="Helvetica,sans-Serif" font-size="10.00" fill="#000000">min</text>
</a>
</g>
</g>
<!-- Node2&#45;&gt;Node3 -->
<g id="edge2" class="edge">
<title>Node2&#45;&gt;Node3</title>
<path fill="none" stroke="#191970" d="M121.5593,-91.7625C133.9585,-100.8416 154.121,-114.4555 173.4824,-122.5 189.7452,-129.2571 209.0385,-133.7561 224.2709,-136.5664"/>
<polygon fill="#191970" stroke="#191970" points="224.0965,-140.0873 234.5433,-138.3223 225.2761,-133.1873 224.0965,-140.0873"/>
</g>
<!-- Node4 -->
<g id="node4" class="node">
<title>Node4</title>
<g id="a_node4"><a xlink:href="classlocomotor_1_1components_1_1types_1_1_c_interval.html#a63edd36c00e0027edd899384e6f168f9" target="_top" xlink:title="max">
<polygon fill="#ffffff" stroke="#000000" points="233.248,-94.5 233.248,-112.5 268.1396,-112.5 268.1396,-94.5 233.248,-94.5"/>
<text text-anchor="middle" x="250.6938" y="-100.5" font-family="Helvetica,sans-Serif" font-size="10.00" fill="#000000">max</text>
</a>
</g>
</g>
<!-- Node2&#45;&gt;Node4 -->
<g id="edge3" class="edge">
<title>Node2&#45;&gt;Node4</title>
<path fill="none" stroke="#191970" d="M137.7134,-86.6992C162.5341,-90.3902 198.4394,-95.7295 223.0738,-99.3927"/>
<polygon fill="#191970" stroke="#191970" points="222.7911,-102.8891 233.1972,-100.8982 223.8208,-95.9653 222.7911,-102.8891"/>
</g>
<!-- Node5 -->
<g id="node5" class="node">
<title>Node5</title>
<g id="a_node5"><a xlink:href="classlocomotor_1_1components_1_1logging_1_1_error_handler.html#a75e8f6535bdb8db9a7d570e1b839af47" target="_top" xlink:title="locomotor.components.logging.\lErrorHandler.getInstance">
<polygon fill="#ffffff" stroke="#000000" points="173.4824,-47.5 173.4824,-75.5 327.9053,-75.5 327.9053,-47.5 173.4824,-47.5"/>
<text text-anchor="start" x="181.4824" y="-63.5" font-family="Helvetica,sans-Serif" font-size="10.00" fill="#000000">locomotor.components.logging.</text>
<text text-anchor="middle" x="250.6938" y="-53.5" font-family="Helvetica,sans-Serif" font-size="10.00" fill="#000000">ErrorHandler.getInstance</text>
</a>
</g>
</g>
<!-- Node2&#45;&gt;Node5 -->
<g id="edge4" class="edge">
<title>Node2&#45;&gt;Node5</title>
<path fill="none" stroke="#191970" d="M137.7134,-78.3008C145.3978,-77.1581 154.1445,-75.8574 163.2904,-74.4974"/>
<polygon fill="#191970" stroke="#191970" points="163.9635,-77.9359 173.3399,-73.003 162.9338,-71.012 163.9635,-77.9359"/>
</g>
<!-- Node6 -->
<g id="node6" class="node">
<title>Node6</title>
<g id="a_node6"><a xlink:href="classlocomotor_1_1components_1_1logging_1_1_error_handler.html#abd00a9c37627740763cef91d76a77437" target="_top" xlink:title="locomotor.components.logging.\lErrorHandler.push">
<polygon fill="#ffffff" stroke="#000000" points="173.4824,-.5 173.4824,-28.5 327.9053,-28.5 327.9053,-.5 173.4824,-.5"/>
<text text-anchor="start" x="181.4824" y="-16.5" font-family="Helvetica,sans-Serif" font-size="10.00" fill="#000000">locomotor.components.logging.</text>
<text text-anchor="middle" x="250.6938" y="-6.5" font-family="Helvetica,sans-Serif" font-size="10.00" fill="#000000">ErrorHandler.push</text>
</a>
</g>
</g>
<!-- Node2&#45;&gt;Node6 -->
<g id="edge5" class="edge">
<title>Node2&#45;&gt;Node6</title>
<path fill="none" stroke="#191970" d="M120.6245,-73.2774C132.9136,-63.4972 153.5864,-48.1551 173.4824,-38.5 178.1768,-36.2219 183.1359,-34.0994 188.1837,-32.1353"/>
<polygon fill="#191970" stroke="#191970" points="189.7695,-35.2818 197.9543,-28.5541 187.3606,-28.7093 189.7695,-35.2818"/>
</g>
<!-- Node7 -->
<g id="node7" class="node">
<title>Node7</title>
<g id="a_node7"><a xlink:href="classlocomotor_1_1components_1_1logging_1_1_error_context.html#afcf30b71bfc65c74878c7ab77c951842" target="_top" xlink:title="locomotor.components.logging.\lErrorContext.push">
<polygon fill="#ffffff" stroke="#000000" points="363.9053,-.5 363.9053,-28.5 518.3281,-28.5 518.3281,-.5 363.9053,-.5"/>
<text text-anchor="start" x="371.9053" y="-16.5" font-family="Helvetica,sans-Serif" font-size="10.00" fill="#000000">locomotor.components.logging.</text>
<text text-anchor="middle" x="441.1167" y="-6.5" font-family="Helvetica,sans-Serif" font-size="10.00" fill="#000000">ErrorContext.push</text>
</a>
</g>
</g>
<!-- Node6&#45;&gt;Node7 -->
<g id="edge6" class="edge">
<title>Node6&#45;&gt;Node7</title>
<path fill="none" stroke="#191970" d="M328.1461,-14.5C336.4913,-14.5 345.0253,-14.5 353.4791,-14.5"/>
<polygon fill="#191970" stroke="#191970" points="353.7331,-18.0001 363.7331,-14.5 353.733,-11.0001 353.7331,-18.0001"/>
</g>
</g>
</svg>
        <g id="navigator" transform="translate(0 0)" fill="#404254">
                <rect fill="#f2f5e9" fill-opacity="0.5" stroke="#606060" stroke-width=".5" x="0" y="0" width="60" height="60"/>
                <use id="zoomplus" xlink:href="#zoomPlus" x="17" y="9" onmousedown="handleZoom(evt,'in')"/>
                <use id="zoomminus" xlink:href="#zoomMin" x="42" y="9" onmousedown="handleZoom(evt,'out')"/>
                <use id="reset" xlink:href="#resetDef" x="30" y="36" onmousedown="handleReset()"/>
                <g id="arrowUp" xlink:href="#dirArrow" transform="translate(30 24)" onmousedown="handlePan(0,-1)">
                  <use xlink:href="#rim" fill="#404040">
                        <set attributeName="fill" to="#808080" begin="arrowUp.mouseover" end="arrowUp.mouseout"/>
                  </use>
                  <path fill="none" stroke="white" stroke-width="1.5" d="M0,-3.0v7 M-2.5,-0.5L0,-3.0L2.5,-0.5"/>
                </g>
                <g id="arrowRight" xlink:href="#dirArrow" transform="rotate(90) translate(36 -43)" onmousedown="handlePan(1,0)">
                  <use xlink:href="#rim" fill="#404040">
                        <set attributeName="fill" to="#808080" begin="arrowRight.mouseover" end="arrowRight.mouseout"/>
                  </use>
                  <path fill="none" stroke="white" stroke-width="1.5" d="M0,-3.0v7 M-2.5,-0.5L0,-3.0L2.5,-0.5"/>
                </g>
                <g id="arrowDown" xlink:href="#dirArrow" transform="rotate(180) translate(-30 -48)" onmousedown="handlePan(0,1)">
                  <use xlink:href="#rim" fill="#404040">
                        <set attributeName="fill" to="#808080" begin="arrowDown.mouseover" end="arrowDown.mouseout"/>
                  </use>
                  <path fill="none" stroke="white" stroke-width="1.5" d="M0,-3.0v7 M-2.5,-0.5L0,-3.0L2.5,-0.5"/>
                </g>
                <g id="arrowLeft" xlink:href="#dirArrow" transform="rotate(270) translate(-36 17)" onmousedown="handlePan(-1,0)">
                  <use xlink:href="#rim" fill="#404040">
                        <set attributeName="fill" to="#808080" begin="arrowLeft.mouseover" end="arrowLeft.mouseout"/>
                  </use>
                  <path fill="none" stroke="white" stroke-width="1.5" d="M0,-3.0v7 M-2.5,-0.5L0,-3.0L2.5,-0.5"/>
                </g>
        </g>
        <svg viewBox="0 0 15 15" width="100%" height="30px" preserveAspectRatio="xMaxYMin meet">
         <g id="arrow_out" transform="scale(0.3 0.3)">
          <a xlink:href="classlocomotor_1_1components_1_1types_1_1_c_interval_ad295ddcb564ccdce4ae93f54dded98ff_cgraph_org.svg" target="_base">
           <rect id="button" ry="5" rx="5" y="6" x="6" height="38" width="38"
                fill="#f2f5e9" fill-opacity="0.5" stroke="#606060" stroke-width="1.0"/>
           <path id="arrow"
             d="M 11.500037,31.436501 C 11.940474,20.09759 22.043105,11.32322 32.158766,21.979434 L 37.068811,17.246167 C 37.068811,17.246167 37.088388,32 37.088388,32 L 22.160133,31.978069 C 22.160133,31.978069 26.997745,27.140456 26.997745,27.140456 C 18.528582,18.264221 13.291696,25.230495 11.500037,31.436501 z"
             style="fill:#404040;"/>
          </a>
         </g>
        </svg>
</svg>
