<?xml version="1.0" encoding="UTF-8" standalone="no"?>
<!DOCTYPE svg PUBLIC "-//W3C//DTD SVG 1.1//EN"
 "http://www.w3.org/Graphics/SVG/1.1/DTD/svg11.dtd">
<!-- Generated by graphviz version 2.40.1 (20161225.0304)
 -->
<!-- Title: UserCategory Pages: 1 -->
<svg width="734pt" height="37pt"
 viewBox="0.00 0.00 734.45 37.00" xmlns="http://www.w3.org/2000/svg" xmlns:xlink="http://www.w3.org/1999/xlink">
<g id="graph0" class="graph" transform="scale(1 1) rotate(0) translate(4 33)">
<title>UserCategory</title>
<polygon fill="#ffffff" stroke="transparent" points="-4,4 -4,-33 730.4512,-33 730.4512,4 -4,4"/>
<!-- Node1 -->
<g id="node1" class="node">
<title>Node1</title>
<polygon fill="#bfbfbf" stroke="#000000" points="0,-5.5 0,-23.5 77.6895,-23.5 77.6895,-5.5 0,-5.5"/>
<text text-anchor="middle" x="38.8447" y="-11.5" font-family="Helvetica,sans-Serif" font-size="10.00" fill="#000000">UserCategory</text>
</g>
<!-- Node2 -->
<g id="node2" class="node">
<title>Node2</title>
<g id="a_node2"><a xlink:href="classlocomotor_1_1components_1_1models_1_1_user_category.html#a52e02970889790bace019e61fb256ff0" target="_top" xlink:title="fromJSON">
<polygon fill="#ffffff" stroke="#000000" points="113.6895,-5.5 113.6895,-23.5 176.3594,-23.5 176.3594,-5.5 113.6895,-5.5"/>
<text text-anchor="middle" x="145.0244" y="-11.5" font-family="Helvetica,sans-Serif" font-size="10.00" fill="#000000">fromJSON</text>
</a>
</g>
</g>
<!-- Node1&#45;&gt;Node2 -->
<g id="edge1" class="edge">
<title>Node1&#45;&gt;Node2</title>
<path fill="none" stroke="#191970" d="M87.8466,-14.5C96.5277,-14.5 105.3554,-14.5 113.3939,-14.5"/>
<polygon fill="#191970" stroke="#191970" points="87.7792,-11.0001 77.7792,-14.5 87.7792,-18.0001 87.7792,-11.0001"/>
</g>
<!-- Node3 -->
<g id="node3" class="node">
<title>Node3</title>
<g id="a_node3"><a xlink:href="classlocomotor_1_1components_1_1models_1_1_user_item.html#ab97f79cf43a9a73bcd77cec6b449a79a" target="_top" xlink:title="locomotor.components.models.\lUserItem.fromJSON">
<polygon fill="#ffffff" stroke="#000000" points="212.3594,-.5 212.3594,-28.5 366.7676,-28.5 366.7676,-.5 212.3594,-.5"/>
<text text-anchor="start" x="220.3594" y="-16.5" font-family="Helvetica,sans-Serif" font-size="10.00" fill="#000000">locomotor.components.models.</text>
<text text-anchor="middle" x="289.5635" y="-6.5" font-family="Helvetica,sans-Serif" font-size="10.00" fill="#000000">UserItem.fromJSON</text>
</a>
</g>
</g>
<!-- Node2&#45;&gt;Node3 -->
<g id="edge2" class="edge">
<title>Node2&#45;&gt;Node3</title>
<path fill="none" stroke="#191970" d="M186.6304,-14.5C194.7329,-14.5 203.4667,-14.5 212.3004,-14.5"/>
<polygon fill="#191970" stroke="#191970" points="186.3873,-11.0001 176.3872,-14.5 186.3872,-18.0001 186.3873,-11.0001"/>
</g>
<!-- Node4 -->
<g id="node4" class="node">
<title>Node4</title>
<g id="a_node4"><a xlink:href="classlocomotor_1_1components_1_1network_1_1_a_p_i.html#a547463fbc7fb7b485886f0917e2c0b78" target="_top" xlink:title="locomotor.components.network.\lAPI.createHooks">
<polygon fill="#ffffff" stroke="#000000" points="402.7676,-.5 402.7676,-28.5 559.9541,-28.5 559.9541,-.5 402.7676,-.5"/>
<text text-anchor="start" x="410.7676" y="-16.5" font-family="Helvetica,sans-Serif" font-size="10.00" fill="#000000">locomotor.components.network.</text>
<text text-anchor="middle" x="481.3608" y="-6.5" font-family="Helvetica,sans-Serif" font-size="10.00" fill="#000000">API.createHooks</text>
</a>
</g>
</g>
<!-- Node3&#45;&gt;Node4 -->
<g id="edge3" class="edge">
<title>Node3&#45;&gt;Node4</title>
<path fill="none" stroke="#191970" d="M377.2881,-14.5C385.754,-14.5 394.3055,-14.5 402.6761,-14.5"/>
<polygon fill="#191970" stroke="#191970" points="377.022,-11.0001 367.022,-14.5 377.0219,-18.0001 377.022,-11.0001"/>
</g>
<!-- Node5 -->
<g id="node5" class="node">
<title>Node5</title>
<g id="a_node5"><a xlink:href="classlocomotor_1_1core_1_1_main.html#a8b260eecbaabcef8473fd87ada040682" target="_top" xlink:title="locomotor.core.Main.main">
<polygon fill="#ffffff" stroke="#000000" points="595.9541,-5.5 595.9541,-23.5 726.4512,-23.5 726.4512,-5.5 595.9541,-5.5"/>
<text text-anchor="middle" x="661.2026" y="-11.5" font-family="Helvetica,sans-Serif" font-size="10.00" fill="#000000">locomotor.core.Main.main</text>
</a>
</g>
</g>
<!-- Node4&#45;&gt;Node5 -->
<g id="edge4" class="edge">
<title>Node4&#45;&gt;Node5</title>
<path fill="none" stroke="#191970" d="M570.1539,-14.5C578.8422,-14.5 587.5445,-14.5 595.9364,-14.5"/>
<polygon fill="#191970" stroke="#191970" points="569.9805,-11.0001 559.9804,-14.5 569.9804,-18.0001 569.9805,-11.0001"/>
</g>
</g>
</svg>
