<?xml version="1.0" encoding="UTF-8" standalone="no"?>
<!DOCTYPE svg PUBLIC "-//W3C//DTD SVG 1.1//EN"
 "http://www.w3.org/Graphics/SVG/1.1/DTD/svg11.dtd">
<!-- Generated by graphviz version 2.40.1 (20161225.0304)
 -->
<!-- Title: requestBinary Pages: 1 -->
<svg width="302pt" height="84pt"
 viewBox="0.00 0.00 301.67 84.00" xmlns="http://www.w3.org/2000/svg" xmlns:xlink="http://www.w3.org/1999/xlink">
<g id="graph0" class="graph" transform="scale(1 1) rotate(0) translate(4 80)">
<title>requestBinary</title>
<polygon fill="#ffffff" stroke="transparent" points="-4,4 -4,-80 297.6738,-80 297.6738,4 -4,4"/>
<!-- Node1 -->
<g id="node1" class="node">
<title>Node1</title>
<polygon fill="#bfbfbf" stroke="#000000" points="0,-28.5 0,-46.5 77.6992,-46.5 77.6992,-28.5 0,-28.5"/>
<text text-anchor="middle" x="38.8496" y="-34.5" font-family="Helvetica,sans-Serif" font-size="10.00" fill="#000000">requestBinary</text>
</g>
<!-- Node2 -->
<g id="node2" class="node">
<title>Node2</title>
<g id="a_node2"><a xlink:href="classlocomotor_1_1front_1_1components_1_1network_1_1_file_upload.html#abbb8544c46b88f1a6f1e163725aaa1b3" target="_top" xlink:title="locomotor.front.components.network.\lFileUpload.send">
<polygon fill="#ffffff" stroke="#000000" points="113.6992,-47.5 113.6992,-75.5 293.6738,-75.5 293.6738,-47.5 113.6992,-47.5"/>
<text text-anchor="start" x="121.6992" y="-63.5" font-family="Helvetica,sans-Serif" font-size="10.00" fill="#000000">locomotor.front.components.network.</text>
<text text-anchor="middle" x="203.6865" y="-53.5" font-family="Helvetica,sans-Serif" font-size="10.00" fill="#000000">FileUpload.send</text>
</a>
</g>
</g>
<!-- Node1&#45;&gt;Node2 -->
<g id="edge1" class="edge">
<title>Node1&#45;&gt;Node2</title>
<path fill="none" stroke="#191970" d="M77.9137,-43.1877C85.7992,-44.3358 94.425,-45.5917 103.3452,-46.8905"/>
<polygon fill="#191970" stroke="#191970" points="103.1176,-50.3941 113.5176,-48.3715 104.1262,-43.4672 103.1176,-50.3941"/>
</g>
<!-- Node3 -->
<g id="node3" class="node">
<title>Node3</title>
<g id="a_node3"><a xlink:href="classlocomotor_1_1front_1_1components_1_1network_1_1_file_upload.html#ad90278946fac31b255b0ea524061a60b" target="_top" xlink:title="locomotor.front.components.network.\lFileUpload.getURLConnection">
<polygon fill="#ffffff" stroke="#000000" points="113.6992,-.5 113.6992,-28.5 293.6738,-28.5 293.6738,-.5 113.6992,-.5"/>
<text text-anchor="start" x="121.6992" y="-16.5" font-family="Helvetica,sans-Serif" font-size="10.00" fill="#000000">locomotor.front.components.network.</text>
<text text-anchor="middle" x="203.6865" y="-6.5" font-family="Helvetica,sans-Serif" font-size="10.00" fill="#000000">FileUpload.getURLConnection</text>
</a>
</g>
</g>
<!-- Node1&#45;&gt;Node3 -->
<g id="edge2" class="edge">
<title>Node1&#45;&gt;Node3</title>
<path fill="none" stroke="#191970" d="M77.9137,-32.0493C85.7992,-30.949 94.425,-29.7455 103.3452,-28.5008"/>
<polygon fill="#191970" stroke="#191970" points="104.0972,-31.9299 113.5176,-27.0814 103.1298,-24.997 104.0972,-31.9299"/>
</g>
</g>
</svg>
