<?xml version="1.0" encoding="UTF-8" standalone="no"?>
<!DOCTYPE svg PUBLIC "-//W3C//DTD SVG 1.1//EN"
 "http://www.w3.org/Graphics/SVG/1.1/DTD/svg11.dtd">
<!-- Generated by graphviz version 2.40.1 (20161225.0304)
 -->
<!-- Title: verifyPassword Pages: 1 -->
<svg width="842pt" height="125pt"
 viewBox="0.00 0.00 842.27 124.70" xmlns="http://www.w3.org/2000/svg" xmlns:xlink="http://www.w3.org/1999/xlink">
<g id="graph0" class="graph" transform="scale(1 1) rotate(0) translate(4 120.6964)">
<title>verifyPassword</title>
<polygon fill="#ffffff" stroke="transparent" points="-4,4 -4,-120.6964 838.2686,-120.6964 838.2686,4 -4,4"/>
<!-- Node1 -->
<g id="node1" class="node">
<title>Node1</title>
<polygon fill="#bfbfbf" stroke="#000000" points="0,-40.5 0,-58.5 83.7979,-58.5 83.7979,-40.5 0,-40.5"/>
<text text-anchor="middle" x="41.8989" y="-46.5" font-family="Helvetica,sans-Serif" font-size="10.00" fill="#000000">verifyPassword</text>
</g>
<!-- Node2 -->
<g id="node2" class="node">
<title>Node2</title>
<g id="a_node2"><a xlink:href="classlocomotor_1_1core_1_1_d_b_h.html#a34b259b9443e3b412e5a704b154546a1" target="_top" xlink:title="locomotor.core.DBH.authUser">
<polygon fill="#ffffff" stroke="#000000" points="126.7388,-82.5 126.7388,-100.5 275.5757,-100.5 275.5757,-82.5 126.7388,-82.5"/>
<text text-anchor="middle" x="201.1572" y="-88.5" font-family="Helvetica,sans-Serif" font-size="10.00" fill="#000000">locomotor.core.DBH.authUser</text>
</a>
</g>
</g>
<!-- Node1&#45;&gt;Node2 -->
<g id="edge1" class="edge">
<title>Node1&#45;&gt;Node2</title>
<path fill="none" stroke="#191970" d="M85.8704,-61.0963C111.3967,-67.8281 143.0841,-76.1848 166.7744,-82.4325"/>
<polygon fill="#191970" stroke="#191970" points="86.6258,-57.6759 76.0638,-58.5101 84.8407,-64.4445 86.6258,-57.6759"/>
</g>
<!-- Node6 -->
<g id="node6" class="node">
<title>Node6</title>
<g id="a_node6"><a xlink:href="classlocomotor_1_1core_1_1_d_b_h.html#a74b4c9978e018cf8fa6b5c48d563f6da" target="_top" xlink:title="locomotor.core.DBH.change\lPassword">
<polygon fill="#ffffff" stroke="#000000" points="326.0166,-35.5 326.0166,-63.5 467.085,-63.5 467.085,-35.5 326.0166,-35.5"/>
<text text-anchor="start" x="334.0166" y="-51.5" font-family="Helvetica,sans-Serif" font-size="10.00" fill="#000000">locomotor.core.DBH.change</text>
<text text-anchor="middle" x="396.5508" y="-41.5" font-family="Helvetica,sans-Serif" font-size="10.00" fill="#000000">Password</text>
</a>
</g>
</g>
<!-- Node1&#45;&gt;Node6 -->
<g id="edge6" class="edge">
<title>Node1&#45;&gt;Node6</title>
<path fill="none" stroke="#191970" d="M94.1947,-49.5C155.512,-49.5 257.4338,-49.5 325.7835,-49.5"/>
<polygon fill="#191970" stroke="#191970" points="93.9749,-46.0001 83.9748,-49.5 93.9748,-53.0001 93.9749,-46.0001"/>
</g>
<!-- Node7 -->
<g id="node7" class="node">
<title>Node7</title>
<g id="a_node7"><a xlink:href="classlocomotor_1_1core_1_1_d_b_h.html#a0986f5bb18ead6a7e6470747fb60a445" target="_top" xlink:title="locomotor.core.DBH.removeUser">
<polygon fill="#ffffff" stroke="#000000" points="119.7979,-.5 119.7979,-18.5 282.5166,-18.5 282.5166,-.5 119.7979,-.5"/>
<text text-anchor="middle" x="201.1572" y="-6.5" font-family="Helvetica,sans-Serif" font-size="10.00" fill="#000000">locomotor.core.DBH.removeUser</text>
</a>
</g>
</g>
<!-- Node1&#45;&gt;Node7 -->
<g id="edge8" class="edge">
<title>Node1&#45;&gt;Node7</title>
<path fill="none" stroke="#191970" d="M87.8681,-37.9542C112.4527,-31.7794 142.2835,-24.287 165.1621,-18.5407"/>
<polygon fill="#191970" stroke="#191970" points="86.8832,-34.5928 78.0371,-40.4234 88.5885,-41.3819 86.8832,-34.5928"/>
</g>
<!-- Node3 -->
<g id="node3" class="node">
<title>Node3</title>
<g id="a_node3"><a xlink:href="classlocomotor_1_1components_1_1network_1_1_a_p_i.html#a547463fbc7fb7b485886f0917e2c0b78" target="_top" xlink:title="locomotor.components.network.\lAPI.createHooks">
<polygon fill="#ffffff" stroke="#000000" points="510.585,-56.5 510.585,-84.5 667.7715,-84.5 667.7715,-56.5 510.585,-56.5"/>
<text text-anchor="start" x="518.585" y="-72.5" font-family="Helvetica,sans-Serif" font-size="10.00" fill="#000000">locomotor.components.network.</text>
<text text-anchor="middle" x="589.1782" y="-62.5" font-family="Helvetica,sans-Serif" font-size="10.00" fill="#000000">API.createHooks</text>
</a>
</g>
</g>
<!-- Node2&#45;&gt;Node3 -->
<g id="edge2" class="edge">
<title>Node2&#45;&gt;Node3</title>
<path fill="none" stroke="#191970" d="M253.0569,-102.3579C308.3237,-112.2346 398.1772,-123.4523 474.585,-110.5 503.6706,-105.5695 535.2155,-94.0689 557.8311,-84.6587"/>
<polygon fill="#191970" stroke="#191970" points="253.6192,-98.9026 243.151,-100.5354 252.3526,-105.7871 253.6192,-98.9026"/>
</g>
<!-- Node5 -->
<g id="node5" class="node">
<title>Node5</title>
<g id="a_node5"><a xlink:href="classlocomotor_1_1core_1_1_d_b_h.html#ad707f520f60fe68ea8a8818698560d9d" target="_top" xlink:title="locomotor.core.DBH.authAdmin">
<polygon fill="#ffffff" stroke="#000000" points="318.5166,-82.5 318.5166,-100.5 474.585,-100.5 474.585,-82.5 318.5166,-82.5"/>
<text text-anchor="middle" x="396.5508" y="-88.5" font-family="Helvetica,sans-Serif" font-size="10.00" fill="#000000">locomotor.core.DBH.authAdmin</text>
</a>
</g>
</g>
<!-- Node2&#45;&gt;Node5 -->
<g id="edge4" class="edge">
<title>Node2&#45;&gt;Node5</title>
<path fill="none" stroke="#191970" d="M285.8728,-91.5C296.6912,-91.5 307.7258,-91.5 318.4332,-91.5"/>
<polygon fill="#191970" stroke="#191970" points="285.5846,-88.0001 275.5845,-91.5 285.5845,-95.0001 285.5846,-88.0001"/>
</g>
<!-- Node4 -->
<g id="node4" class="node">
<title>Node4</title>
<g id="a_node4"><a xlink:href="classlocomotor_1_1core_1_1_main.html#a8b260eecbaabcef8473fd87ada040682" target="_top" xlink:title="locomotor.core.Main.main">
<polygon fill="#ffffff" stroke="#000000" points="703.7715,-61.5 703.7715,-79.5 834.2686,-79.5 834.2686,-61.5 703.7715,-61.5"/>
<text text-anchor="middle" x="769.02" y="-67.5" font-family="Helvetica,sans-Serif" font-size="10.00" fill="#000000">locomotor.core.Main.main</text>
</a>
</g>
</g>
<!-- Node3&#45;&gt;Node4 -->
<g id="edge3" class="edge">
<title>Node3&#45;&gt;Node4</title>
<path fill="none" stroke="#191970" d="M677.9712,-70.5C686.6595,-70.5 695.3619,-70.5 703.7538,-70.5"/>
<polygon fill="#191970" stroke="#191970" points="677.7979,-67.0001 667.7978,-70.5 677.7978,-74.0001 677.7979,-67.0001"/>
</g>
<!-- Node5&#45;&gt;Node3 -->
<g id="edge5" class="edge">
<title>Node5&#45;&gt;Node3</title>
<path fill="none" stroke="#191970" d="M484.6386,-81.8968C493.2196,-80.9613 501.8883,-80.0162 510.3696,-79.0916"/>
<polygon fill="#191970" stroke="#191970" points="484.1838,-78.4255 474.622,-82.9888 484.9425,-85.3843 484.1838,-78.4255"/>
</g>
<!-- Node6&#45;&gt;Node3 -->
<g id="edge7" class="edge">
<title>Node6&#45;&gt;Node3</title>
<path fill="none" stroke="#191970" d="M477.1874,-58.2909C488.184,-59.4897 499.4607,-60.7191 510.4233,-61.9142"/>
<polygon fill="#191970" stroke="#191970" points="477.5048,-54.8049 467.1843,-57.2004 476.7461,-61.7636 477.5048,-54.8049"/>
</g>
<!-- Node7&#45;&gt;Node3 -->
<g id="edge9" class="edge">
<title>Node7&#45;&gt;Node3</title>
<path fill="none" stroke="#191970" d="M292.6968,-7.694C346.2786,-8.4067 414.9195,-12.388 474.585,-25.5 505.0632,-32.1979 538.0494,-45.8925 560.7696,-56.4247"/>
<polygon fill="#191970" stroke="#191970" points="292.5645,-4.1927 282.531,-7.5954 292.4966,-11.1923 292.5645,-4.1927"/>
</g>
</g>
</svg>
