<?xml version="1.0" encoding="UTF-8" standalone="no"?>
<!DOCTYPE svg PUBLIC "-//W3C//DTD SVG 1.1//EN"
 "http://www.w3.org/Graphics/SVG/1.1/DTD/svg11.dtd">
<!-- Generated by graphviz version 2.40.1 (20161225.0304)
 -->
<!-- Title: checkingParsingItem Pages: 1 -->
<!--zoomable 843 -->
<svg id="main" version="1.1" xmlns="http://www.w3.org/2000/svg" xmlns:xlink="http://www.w3.org/1999/xlink" xml:space="preserve" onload="init(evt)">
<style type="text/css"><![CDATA[
.edge:hover path { stroke: red; }
.edge:hover polygon { stroke: red; fill: red; }
]]></style>
<script type="text/javascript"><![CDATA[
var edges = document.getElementsByTagName('g');
if (edges && edges.length) {
  for (var i=0;i<edges.length;i++) {
    if (edges[i].id.substr(0,4)=='edge') {
      edges[i].setAttribute('class','edge');
    }
  }
}
]]></script>
        <defs>
                <circle id="rim" cx="0" cy="0" r="7"/>
                <circle id="rim2" cx="0" cy="0" r="3.5"/>
                <g id="zoomPlus">
                        <use xlink:href="#rim" fill="#404040">
                                <set attributeName="fill" to="#808080" begin="zoomplus.mouseover" end="zoomplus.mouseout"/>
                        </use>
                        <path d="M-4,0h8M0,-4v8" fill="none" stroke="white" stroke-width="1.5" pointer-events="none"/>
                </g>
                <g id="zoomMin">
                        <use xlink:href="#rim" fill="#404040">
                                <set attributeName="fill" to="#808080" begin="zoomminus.mouseover" end="zoomminus.mouseout"/>
                        </use>
                        <path d="M-4,0h8" fill="none" stroke="white" stroke-width="1.5" pointer-events="none"/>
                </g>
                <g id="dirArrow">
                        <path fill="none" stroke="white" stroke-width="1.5" d="M0,-3.0v7 M-2.5,-0.5L0,-3.0L2.5,-0.5"/>
                </g>
               <g id="resetDef">
                       <use xlink:href="#rim2" fill="#404040">
                               <set attributeName="fill" to="#808080" begin="reset.mouseover" end="reset.mouseout"/>
                       </use>
               </g>
        </defs>

<script type="text/javascript">
var viewWidth = 862;
var viewHeight = 843;
var sectionId = 'dynsection-18';
</script>
<script xlink:href="svgpan.js"/>
<svg id="graph" class="graph">
<g id="viewport">
<title>checkingParsingItem</title>
<polygon fill="#ffffff" stroke="transparent" points="-4,4 -4,-839 857.8145,-839 857.8145,4 -4,4"/>
<!-- Node1 -->
<g id="node1" class="node">
<title>Node1</title>
<polygon fill="#bfbfbf" stroke="#000000" points="0,-418.5 0,-436.5 108.8223,-436.5 108.8223,-418.5 0,-418.5"/>
<text text-anchor="middle" x="54.4111" y="-424.5" font-family="Helvetica,sans-Serif" font-size="10.00" fill="#000000">checkingParsingItem</text>
</g>
<!-- Node2 -->
<g id="node2" class="node">
<title>Node2</title>
<g id="a_node2"><a xlink:href="classlocomotor_1_1components_1_1models_1_1_item_full.html#a27e15ff845320cbae7ca4dbb6a882eb4" target="_top" xlink:title="locomotor.components.models.\lItemFull.getUniverse">
<polygon fill="#ffffff" stroke="#000000" points="144.8296,-806.5 144.8296,-834.5 299.2378,-834.5 299.2378,-806.5 144.8296,-806.5"/>
<text text-anchor="start" x="152.8296" y="-822.5" font-family="Helvetica,sans-Serif" font-size="10.00" fill="#000000">locomotor.components.models.</text>
<text text-anchor="middle" x="222.0337" y="-812.5" font-family="Helvetica,sans-Serif" font-size="10.00" fill="#000000">ItemFull.getUniverse</text>
</a>
</g>
</g>
<!-- Node1&#45;&gt;Node2 -->
<g id="edge1" class="edge">
<title>Node1&#45;&gt;Node2</title>
<path fill="none" stroke="#191970" d="M55.4357,-436.8061C61.3323,-488.7551 92.5213,-742.5243 144.8223,-797.5 145.7441,-798.469 146.7049,-799.3978 147.7003,-800.2878"/>
<polygon fill="#191970" stroke="#191970" points="145.8199,-803.2503 155.9412,-806.3824 149.9822,-797.6222 145.8199,-803.2503"/>
</g>
<!-- Node3 -->
<g id="node3" class="node">
<title>Node3</title>
<g id="a_node3"><a xlink:href="classlocomotor_1_1core_1_1_d_b_h.html#a0b2d292079fe232a4c3dae4636167641" target="_top" xlink:title="getInstance">
<polygon fill="#ffffff" stroke="#000000" points="188.1816,-769.5 188.1816,-787.5 255.8857,-787.5 255.8857,-769.5 188.1816,-769.5"/>
<text text-anchor="middle" x="222.0337" y="-775.5" font-family="Helvetica,sans-Serif" font-size="10.00" fill="#000000">getInstance</text>
</a>
</g>
</g>
<!-- Node1&#45;&gt;Node3 -->
<g id="edge2" class="edge">
<title>Node1&#45;&gt;Node3</title>
<path fill="none" stroke="#191970" d="M55.6115,-436.5575C62.2087,-484.992 95.5614,-712.9851 144.8223,-760.5 153.7229,-769.0851 165.886,-773.8613 177.9255,-776.4447"/>
<polygon fill="#191970" stroke="#191970" points="177.4921,-779.921 187.9352,-778.1344 178.6573,-773.0186 177.4921,-779.921"/>
</g>
<!-- Node5 -->
<g id="node5" class="node">
<title>Node5</title>
<g id="a_node5"><a xlink:href="classlocomotor_1_1core_1_1_d_b_h.html#ad8a1ee8704cdfdf81c7e495c1f388874" target="_top" xlink:title="universeStillExists">
<polygon fill="#ffffff" stroke="#000000" points="173.7432,-732.5 173.7432,-750.5 270.3242,-750.5 270.3242,-732.5 173.7432,-732.5"/>
<text text-anchor="middle" x="222.0337" y="-738.5" font-family="Helvetica,sans-Serif" font-size="10.00" fill="#000000">universeStillExists</text>
</a>
</g>
</g>
<!-- Node1&#45;&gt;Node5 -->
<g id="edge4" class="edge">
<title>Node1&#45;&gt;Node5</title>
<path fill="none" stroke="#191970" d="M55.9652,-436.7304C63.8021,-482.2111 100.3677,-681.9454 144.8223,-723.5 150.2835,-728.605 156.9028,-732.354 163.943,-735.0927"/>
<polygon fill="#191970" stroke="#191970" points="163.1437,-738.5119 173.7349,-738.2335 165.2817,-731.8464 163.1437,-738.5119"/>
</g>
<!-- Node6 -->
<g id="node6" class="node">
<title>Node6</title>
<g id="a_node6"><a xlink:href="classlocomotor_1_1components_1_1models_1_1_item.html#a34e60b6081b4c555dc9f5b872cbe044e" target="_top" xlink:title="locomotor.components.models.\lItem.getID">
<polygon fill="#ffffff" stroke="#000000" points="144.8296,-685.5 144.8296,-713.5 299.2378,-713.5 299.2378,-685.5 144.8296,-685.5"/>
<text text-anchor="start" x="152.8296" y="-701.5" font-family="Helvetica,sans-Serif" font-size="10.00" fill="#000000">locomotor.components.models.</text>
<text text-anchor="middle" x="222.0337" y="-691.5" font-family="Helvetica,sans-Serif" font-size="10.00" fill="#000000">Item.getID</text>
</a>
</g>
</g>
<!-- Node1&#45;&gt;Node6 -->
<g id="edge5" class="edge">
<title>Node1&#45;&gt;Node6</title>
<path fill="none" stroke="#191970" d="M54.9047,-436.7694C57.3468,-473.0852 71.2061,-607.0887 144.8223,-676.5 145.9671,-677.5795 147.1605,-678.6085 148.3958,-679.5894"/>
<polygon fill="#191970" stroke="#191970" points="146.8293,-682.7516 157.0904,-685.3899 150.7141,-676.9285 146.8293,-682.7516"/>
</g>
<!-- Node7 -->
<g id="node7" class="node">
<title>Node7</title>
<g id="a_node7"><a xlink:href="classlocomotor_1_1components_1_1models_1_1_item_full.html#a78ee178b6a73658d65ca60da4d1e6683" target="_top" xlink:title="locomotor.components.models.\lItemFull.getName">
<polygon fill="#ffffff" stroke="#000000" points="144.8296,-638.5 144.8296,-666.5 299.2378,-666.5 299.2378,-638.5 144.8296,-638.5"/>
<text text-anchor="start" x="152.8296" y="-654.5" font-family="Helvetica,sans-Serif" font-size="10.00" fill="#000000">locomotor.components.models.</text>
<text text-anchor="middle" x="222.0337" y="-644.5" font-family="Helvetica,sans-Serif" font-size="10.00" fill="#000000">ItemFull.getName</text>
</a>
</g>
</g>
<!-- Node1&#45;&gt;Node7 -->
<g id="edge6" class="edge">
<title>Node1&#45;&gt;Node7</title>
<path fill="none" stroke="#191970" d="M55.7724,-436.7469C60.9549,-468.5975 82.4144,-574.7933 144.8223,-629.5 146.3211,-630.8138 147.8922,-632.0527 149.5231,-633.2208"/>
<polygon fill="#191970" stroke="#191970" points="147.7617,-636.2463 158.1159,-638.4918 151.4219,-630.2795 147.7617,-636.2463"/>
</g>
<!-- Node8 -->
<g id="node8" class="node">
<title>Node8</title>
<g id="a_node8"><a xlink:href="classlocomotor_1_1core_1_1_d_b_h.html#af8f30eaa4ef362f206b2cbd21045cf0a" target="_top" xlink:title="itemNameAlreadyTaken">
<polygon fill="#ffffff" stroke="#000000" points="160.9551,-601.5 160.9551,-619.5 283.1123,-619.5 283.1123,-601.5 160.9551,-601.5"/>
<text text-anchor="middle" x="222.0337" y="-607.5" font-family="Helvetica,sans-Serif" font-size="10.00" fill="#000000">itemNameAlreadyTaken</text>
</a>
</g>
</g>
<!-- Node1&#45;&gt;Node8 -->
<g id="edge7" class="edge">
<title>Node1&#45;&gt;Node8</title>
<path fill="none" stroke="#191970" d="M56.6173,-436.7367C63.8587,-464.9521 89.6647,-550.6313 144.8223,-592.5 146.9327,-594.102 149.1624,-595.5648 151.4813,-596.9004"/>
<polygon fill="#191970" stroke="#191970" points="150.283,-600.2099 160.8055,-601.4459 153.3504,-593.9178 150.283,-600.2099"/>
</g>
<!-- Node9 -->
<g id="node9" class="node">
<title>Node9</title>
<g id="a_node9"><a xlink:href="classlocomotor_1_1components_1_1logging_1_1_error_handler.html#a75e8f6535bdb8db9a7d570e1b839af47" target="_top" xlink:title="locomotor.components.logging.\lErrorHandler.getInstance">
<polygon fill="#ffffff" stroke="#000000" points="144.8223,-554.5 144.8223,-582.5 299.2451,-582.5 299.2451,-554.5 144.8223,-554.5"/>
<text text-anchor="start" x="152.8223" y="-570.5" font-family="Helvetica,sans-Serif" font-size="10.00" fill="#000000">locomotor.components.logging.</text>
<text text-anchor="middle" x="222.0337" y="-560.5" font-family="Helvetica,sans-Serif" font-size="10.00" fill="#000000">ErrorHandler.getInstance</text>
</a>
</g>
</g>
<!-- Node1&#45;&gt;Node9 -->
<g id="edge8" class="edge">
<title>Node1&#45;&gt;Node9</title>
<path fill="none" stroke="#191970" d="M58.8846,-436.757C70.1079,-458.9946 101.6793,-515.7773 144.8223,-545.5 147.1979,-547.1366 149.6918,-548.6588 152.2697,-550.0744"/>
<polygon fill="#191970" stroke="#191970" points="150.7859,-553.2448 161.3075,-554.4881 153.8577,-546.9548 150.7859,-553.2448"/>
</g>
<!-- Node10 -->
<g id="node10" class="node">
<title>Node10</title>
<g id="a_node10"><a xlink:href="classlocomotor_1_1components_1_1logging_1_1_error_handler.html#abd00a9c37627740763cef91d76a77437" target="_top" xlink:title="locomotor.components.logging.\lErrorHandler.push">
<polygon fill="#ffffff" stroke="#000000" points="144.8223,-507.5 144.8223,-535.5 299.2451,-535.5 299.2451,-507.5 144.8223,-507.5"/>
<text text-anchor="start" x="152.8223" y="-523.5" font-family="Helvetica,sans-Serif" font-size="10.00" fill="#000000">locomotor.components.logging.</text>
<text text-anchor="middle" x="222.0337" y="-513.5" font-family="Helvetica,sans-Serif" font-size="10.00" fill="#000000">ErrorHandler.push</text>
</a>
</g>
</g>
<!-- Node1&#45;&gt;Node10 -->
<g id="edge9" class="edge">
<title>Node1&#45;&gt;Node10</title>
<path fill="none" stroke="#191970" d="M63.5992,-436.6951C79.0658,-451.6881 111.8548,-481.4366 144.8223,-498.5 148.5255,-500.4167 152.4133,-502.1989 156.3925,-503.852"/>
<polygon fill="#191970" stroke="#191970" points="155.2096,-507.147 165.7993,-507.4772 157.7269,-500.6152 155.2096,-507.147"/>
</g>
<!-- Node12 -->
<g id="node12" class="node">
<title>Node12</title>
<g id="a_node12"><a xlink:href="classlocomotor_1_1components_1_1models_1_1_item_full.html#ac7feffb7a33f63504ff1f87f19e2d2d8" target="_top" xlink:title="locomotor.components.models.\lItemFull.getDescription">
<polygon fill="#ffffff" stroke="#000000" points="144.8296,-460.5 144.8296,-488.5 299.2378,-488.5 299.2378,-460.5 144.8296,-460.5"/>
<text text-anchor="start" x="152.8296" y="-476.5" font-family="Helvetica,sans-Serif" font-size="10.00" fill="#000000">locomotor.components.models.</text>
<text text-anchor="middle" x="222.0337" y="-466.5" font-family="Helvetica,sans-Serif" font-size="10.00" fill="#000000">ItemFull.getDescription</text>
</a>
</g>
</g>
<!-- Node1&#45;&gt;Node12 -->
<g id="edge11" class="edge">
<title>Node1&#45;&gt;Node12</title>
<path fill="none" stroke="#191970" d="M86.7304,-436.5621C108.063,-442.5435 136.6622,-450.5625 162.0712,-457.687"/>
<polygon fill="#191970" stroke="#191970" points="161.4232,-461.1402 171.9968,-460.4701 163.3131,-454.4002 161.4232,-461.1402"/>
</g>
<!-- Node13 -->
<g id="node13" class="node">
<title>Node13</title>
<g id="a_node13"><a xlink:href="classlocomotor_1_1components_1_1models_1_1_item_full.html#a832e57df908361dd86dc673520d7fb81" target="_top" xlink:title="locomotor.components.models.\lItemFull.getImage">
<polygon fill="#ffffff" stroke="#000000" points="144.8296,-413.5 144.8296,-441.5 299.2378,-441.5 299.2378,-413.5 144.8296,-413.5"/>
<text text-anchor="start" x="152.8296" y="-429.5" font-family="Helvetica,sans-Serif" font-size="10.00" fill="#000000">locomotor.components.models.</text>
<text text-anchor="middle" x="222.0337" y="-419.5" font-family="Helvetica,sans-Serif" font-size="10.00" fill="#000000">ItemFull.getImage</text>
</a>
</g>
</g>
<!-- Node1&#45;&gt;Node13 -->
<g id="edge12" class="edge">
<title>Node1&#45;&gt;Node13</title>
<path fill="none" stroke="#191970" d="M108.8334,-427.5C117.0785,-427.5 125.758,-427.5 134.4917,-427.5"/>
<polygon fill="#191970" stroke="#191970" points="134.7464,-431.0001 144.7464,-427.5 134.7464,-424.0001 134.7464,-431.0001"/>
</g>
<!-- Node14 -->
<g id="node14" class="node">
<title>Node14</title>
<g id="a_node14"><a xlink:href="classlocomotor_1_1core_1_1_d_b_h.html#a910cd77455fb55ffce6f9b65cb8104cc" target="_top" xlink:title="getCategoriesModel">
<polygon fill="#ffffff" stroke="#000000" points="169.2852,-376.5 169.2852,-394.5 274.7822,-394.5 274.7822,-376.5 169.2852,-376.5"/>
<text text-anchor="middle" x="222.0337" y="-382.5" font-family="Helvetica,sans-Serif" font-size="10.00" fill="#000000">getCategoriesModel</text>
</a>
</g>
</g>
<!-- Node1&#45;&gt;Node14 -->
<g id="edge13" class="edge">
<title>Node1&#45;&gt;Node14</title>
<path fill="none" stroke="#191970" d="M89.6026,-418.4795C106.3244,-414.2106 126.5965,-409.0607 144.8223,-404.5 154.6652,-402.037 165.2208,-399.4221 175.2685,-396.9455"/>
<polygon fill="#191970" stroke="#191970" points="176.2277,-400.314 185.1017,-394.5258 174.555,-393.5168 176.2277,-400.314"/>
</g>
<!-- Node18 -->
<g id="node18" class="node">
<title>Node18</title>
<g id="a_node18"><a xlink:href="classlocomotor_1_1components_1_1models_1_1_item.html#aac70f654e73d90f5caea40c18ace4312" target="_top" xlink:title="locomotor.components.models.\lItem.getCategories">
<polygon fill="#ffffff" stroke="#000000" points="144.8296,-329.5 144.8296,-357.5 299.2378,-357.5 299.2378,-329.5 144.8296,-329.5"/>
<text text-anchor="start" x="152.8296" y="-345.5" font-family="Helvetica,sans-Serif" font-size="10.00" fill="#000000">locomotor.components.models.</text>
<text text-anchor="middle" x="222.0337" y="-335.5" font-family="Helvetica,sans-Serif" font-size="10.00" fill="#000000">Item.getCategories</text>
</a>
</g>
</g>
<!-- Node1&#45;&gt;Node18 -->
<g id="edge17" class="edge">
<title>Node1&#45;&gt;Node18</title>
<path fill="none" stroke="#191970" d="M65.7629,-418.4092C82.2982,-405.5413 114.3659,-381.9737 144.8223,-367.5 149.7352,-365.1652 154.9299,-362.9874 160.2085,-360.9725"/>
<polygon fill="#191970" stroke="#191970" points="161.5418,-364.2123 169.7578,-357.5228 159.1635,-357.6286 161.5418,-364.2123"/>
</g>
<!-- Node19 -->
<g id="node19" class="node">
<title>Node19</title>
<g id="a_node19"><a xlink:href="classlocomotor_1_1components_1_1models_1_1_category.html#a0e11818fedf98727494278ea27386dea" target="_top" xlink:title="locomotor.components.models.\lCategory.getCriterias">
<polygon fill="#ffffff" stroke="#000000" points="144.8296,-282.5 144.8296,-310.5 299.2378,-310.5 299.2378,-282.5 144.8296,-282.5"/>
<text text-anchor="start" x="152.8296" y="-298.5" font-family="Helvetica,sans-Serif" font-size="10.00" fill="#000000">locomotor.components.models.</text>
<text text-anchor="middle" x="222.0337" y="-288.5" font-family="Helvetica,sans-Serif" font-size="10.00" fill="#000000">Category.getCriterias</text>
</a>
</g>
</g>
<!-- Node1&#45;&gt;Node19 -->
<g id="edge18" class="edge">
<title>Node1&#45;&gt;Node19</title>
<path fill="none" stroke="#191970" d="M59.6771,-418.2372C71.9019,-397.5637 104.2787,-347.3711 144.8223,-320.5 147.9303,-318.4401 151.2246,-316.5493 154.6331,-314.8146"/>
<polygon fill="#191970" stroke="#191970" points="156.241,-317.9278 163.8727,-310.5788 153.3238,-311.5646 156.241,-317.9278"/>
</g>
<!-- Node20 -->
<g id="node20" class="node">
<title>Node20</title>
<g id="a_node20"><a xlink:href="classlocomotor_1_1components_1_1models_1_1_criteria.html#a34e60b6081b4c555dc9f5b872cbe044e" target="_top" xlink:title="locomotor.components.models.\lCriteria.getID">
<polygon fill="#ffffff" stroke="#000000" points="144.8296,-235.5 144.8296,-263.5 299.2378,-263.5 299.2378,-235.5 144.8296,-235.5"/>
<text text-anchor="start" x="152.8296" y="-251.5" font-family="Helvetica,sans-Serif" font-size="10.00" fill="#000000">locomotor.components.models.</text>
<text text-anchor="middle" x="222.0337" y="-241.5" font-family="Helvetica,sans-Serif" font-size="10.00" fill="#000000">Criteria.getID</text>
</a>
</g>
</g>
<!-- Node1&#45;&gt;Node20 -->
<g id="edge19" class="edge">
<title>Node1&#45;&gt;Node20</title>
<path fill="none" stroke="#191970" d="M57.179,-418.2894C65.6533,-391.67 93.8164,-313.9633 144.8223,-273.5 147.142,-271.6597 149.6036,-269.9598 152.1681,-268.3896"/>
<polygon fill="#191970" stroke="#191970" points="154.0656,-271.3436 161.2264,-263.535 150.759,-265.1738 154.0656,-271.3436"/>
</g>
<!-- Node21 -->
<g id="node21" class="node">
<title>Node21</title>
<g id="a_node21"><a xlink:href="classlocomotor_1_1components_1_1types_1_1_type_factory.html#a5f92827e8d1d5348ebff49dc8bae4f65" target="_top" xlink:title="locomotor.components.types.\lTypeFactory.getItem">
<polygon fill="#ffffff" stroke="#000000" points="148.9971,-188.5 148.9971,-216.5 295.0703,-216.5 295.0703,-188.5 148.9971,-188.5"/>
<text text-anchor="start" x="156.9971" y="-204.5" font-family="Helvetica,sans-Serif" font-size="10.00" fill="#000000">locomotor.components.types.</text>
<text text-anchor="middle" x="222.0337" y="-194.5" font-family="Helvetica,sans-Serif" font-size="10.00" fill="#000000">TypeFactory.getItem</text>
</a>
</g>
</g>
<!-- Node1&#45;&gt;Node21 -->
<g id="edge20" class="edge">
<title>Node1&#45;&gt;Node21</title>
<path fill="none" stroke="#191970" d="M55.8112,-418.3249C61.1206,-386.717 82.9449,-281.2912 144.8223,-226.5 146.7534,-224.79 148.8051,-223.2019 150.9501,-221.7269"/>
<polygon fill="#191970" stroke="#191970" points="152.8125,-224.6917 159.6285,-216.5803 149.2419,-218.6708 152.8125,-224.6917"/>
</g>
<!-- Node26 -->
<g id="node26" class="node">
<title>Node26</title>
<g id="a_node26"><a xlink:href="classlocomotor_1_1components_1_1models_1_1_criteria_model.html#a19fc0aeef83333878b7af08e6eb7dbea" target="_top" xlink:title="locomotor.components.models.\lCriteriaModel.getItemType">
<polygon fill="#ffffff" stroke="#000000" points="144.8296,-141.5 144.8296,-169.5 299.2378,-169.5 299.2378,-141.5 144.8296,-141.5"/>
<text text-anchor="start" x="152.8296" y="-157.5" font-family="Helvetica,sans-Serif" font-size="10.00" fill="#000000">locomotor.components.models.</text>
<text text-anchor="middle" x="222.0337" y="-147.5" font-family="Helvetica,sans-Serif" font-size="10.00" fill="#000000">CriteriaModel.getItemType</text>
</a>
</g>
</g>
<!-- Node1&#45;&gt;Node26 -->
<g id="edge25" class="edge">
<title>Node1&#45;&gt;Node26</title>
<path fill="none" stroke="#191970" d="M54.9047,-418.2306C57.3468,-381.9148 71.2061,-247.9113 144.8223,-178.5 145.9671,-177.4205 147.1605,-176.3915 148.3958,-175.4106"/>
<polygon fill="#191970" stroke="#191970" points="150.7141,-178.0715 157.0904,-169.6101 146.8293,-172.2484 150.7141,-178.0715"/>
</g>
<!-- Node27 -->
<g id="node27" class="node">
<title>Node27</title>
<g id="a_node27"><a xlink:href="classlocomotor_1_1components_1_1models_1_1_item_criteria.html#ad1dc198074d5d5e901d0e5159ded14fa" target="_top" xlink:title="locomotor.components.models.\lItemCriteria.getValue">
<polygon fill="#ffffff" stroke="#000000" points="144.8296,-94.5 144.8296,-122.5 299.2378,-122.5 299.2378,-94.5 144.8296,-94.5"/>
<text text-anchor="start" x="152.8296" y="-110.5" font-family="Helvetica,sans-Serif" font-size="10.00" fill="#000000">locomotor.components.models.</text>
<text text-anchor="middle" x="222.0337" y="-100.5" font-family="Helvetica,sans-Serif" font-size="10.00" fill="#000000">ItemCriteria.getValue</text>
</a>
</g>
</g>
<!-- Node1&#45;&gt;Node27 -->
<g id="edge26" class="edge">
<title>Node1&#45;&gt;Node27</title>
<path fill="none" stroke="#191970" d="M56.0161,-418.3223C64.0964,-373.0942 101.6445,-174.3797 144.8223,-131.5 145.9077,-130.422 147.0414,-129.3942 148.2172,-128.4141"/>
<polygon fill="#191970" stroke="#191970" points="150.3273,-131.2096 156.5234,-122.6154 146.3203,-125.4699 150.3273,-131.2096"/>
</g>
<!-- Node28 -->
<g id="node28" class="node">
<title>Node28</title>
<g id="a_node28"><a xlink:href="classlocomotor_1_1components_1_1models_1_1_criteria_model.html#afe6cac49dd51cda8f8dfedab30c83009" target="_top" xlink:title="locomotor.components.models.\lCriteriaModel.getUniverse">
<polygon fill="#ffffff" stroke="#000000" points="144.8296,-47.5 144.8296,-75.5 299.2378,-75.5 299.2378,-47.5 144.8296,-47.5"/>
<text text-anchor="start" x="152.8296" y="-63.5" font-family="Helvetica,sans-Serif" font-size="10.00" fill="#000000">locomotor.components.models.</text>
<text text-anchor="middle" x="222.0337" y="-53.5" font-family="Helvetica,sans-Serif" font-size="10.00" fill="#000000">CriteriaModel.getUniverse</text>
</a>
</g>
</g>
<!-- Node1&#45;&gt;Node28 -->
<g id="edge27" class="edge">
<title>Node1&#45;&gt;Node28</title>
<path fill="none" stroke="#191970" d="M55.6222,-418.2257C62.2747,-368.6238 95.8685,-135.0351 144.8223,-84.5 145.7529,-83.5393 146.7217,-82.6184 147.7245,-81.7354"/>
<polygon fill="#191970" stroke="#191970" points="149.9989,-84.4085 156.0111,-75.6847 145.8709,-78.7552 149.9989,-84.4085"/>
</g>
<!-- Node29 -->
<g id="node29" class="node">
<title>Node29</title>
<g id="a_node29"><a xlink:href="classlocomotor_1_1components_1_1models_1_1_category.html#a34e60b6081b4c555dc9f5b872cbe044e" target="_top" xlink:title="locomotor.components.models.\lCategory.getID">
<polygon fill="#ffffff" stroke="#000000" points="144.8296,-.5 144.8296,-28.5 299.2378,-28.5 299.2378,-.5 144.8296,-.5"/>
<text text-anchor="start" x="152.8296" y="-16.5" font-family="Helvetica,sans-Serif" font-size="10.00" fill="#000000">locomotor.components.models.</text>
<text text-anchor="middle" x="222.0337" y="-6.5" font-family="Helvetica,sans-Serif" font-size="10.00" fill="#000000">Category.getID</text>
</a>
</g>
</g>
<!-- Node1&#45;&gt;Node29 -->
<g id="edge28" class="edge">
<title>Node1&#45;&gt;Node29</title>
<path fill="none" stroke="#191970" d="M55.2904,-418.3993C60.5951,-365.3011 89.9552,-95.8621 144.8223,-37.5 145.7384,-36.5255 146.6938,-35.5918 147.6843,-34.697"/>
<polygon fill="#191970" stroke="#191970" points="149.971,-37.3578 155.895,-28.5739 145.7863,-31.7464 149.971,-37.3578"/>
</g>
<!-- Node4 -->
<g id="node4" class="node">
<title>Node4</title>
<g id="a_node4"><a xlink:href="classlocomotor_1_1core_1_1_d_b_h.html#a2d5f1f766f5863a46ed29b7e56118364" target="_top" xlink:title="DBH">
<polygon fill="#ffffff" stroke="#000000" points="393.8999,-769.5 393.8999,-787.5 431.0132,-787.5 431.0132,-769.5 393.8999,-769.5"/>
<text text-anchor="middle" x="412.4565" y="-775.5" font-family="Helvetica,sans-Serif" font-size="10.00" fill="#000000">DBH</text>
</a>
</g>
</g>
<!-- Node3&#45;&gt;Node4 -->
<g id="edge3" class="edge">
<title>Node3&#45;&gt;Node4</title>
<path fill="none" stroke="#191970" d="M256.0775,-778.5C292.3729,-778.5 349.234,-778.5 383.4668,-778.5"/>
<polygon fill="#191970" stroke="#191970" points="383.7315,-782.0001 393.7315,-778.5 383.7315,-775.0001 383.7315,-782.0001"/>
</g>
<!-- Node11 -->
<g id="node11" class="node">
<title>Node11</title>
<g id="a_node11"><a xlink:href="classlocomotor_1_1components_1_1logging_1_1_error_context.html#afcf30b71bfc65c74878c7ab77c951842" target="_top" xlink:title="locomotor.components.logging.\lErrorContext.push">
<polygon fill="#ffffff" stroke="#000000" points="335.2451,-507.5 335.2451,-535.5 489.668,-535.5 489.668,-507.5 335.2451,-507.5"/>
<text text-anchor="start" x="343.2451" y="-523.5" font-family="Helvetica,sans-Serif" font-size="10.00" fill="#000000">locomotor.components.logging.</text>
<text text-anchor="middle" x="412.4565" y="-513.5" font-family="Helvetica,sans-Serif" font-size="10.00" fill="#000000">ErrorContext.push</text>
</a>
</g>
</g>
<!-- Node10&#45;&gt;Node11 -->
<g id="edge10" class="edge">
<title>Node10&#45;&gt;Node11</title>
<path fill="none" stroke="#191970" d="M299.486,-521.5C307.8312,-521.5 316.3651,-521.5 324.8189,-521.5"/>
<polygon fill="#191970" stroke="#191970" points="325.073,-525.0001 335.0729,-521.5 325.0729,-518.0001 325.073,-525.0001"/>
</g>
<!-- Node15 -->
<g id="node15" class="node">
<title>Node15</title>
<g id="a_node15"><a xlink:href="enumlocomotor_1_1components_1_1types_1_1_c_enum_universe_type.html#a27351fda5fe6de820d869025880f326c" target="_top" xlink:title="locomotor.components.types.\lCEnumUniverseType.valueOf">
<polygon fill="#ffffff" stroke="#000000" points="338.5923,-418.5 338.5923,-446.5 486.3208,-446.5 486.3208,-418.5 338.5923,-418.5"/>
<text text-anchor="start" x="346.5923" y="-434.5" font-family="Helvetica,sans-Serif" font-size="10.00" fill="#000000">locomotor.components.types.</text>
<text text-anchor="middle" x="412.4565" y="-424.5" font-family="Helvetica,sans-Serif" font-size="10.00" fill="#000000">CEnumUniverseType.valueOf</text>
</a>
</g>
</g>
<!-- Node14&#45;&gt;Node15 -->
<g id="edge14" class="edge">
<title>Node14&#45;&gt;Node15</title>
<path fill="none" stroke="#191970" d="M258.9533,-394.5757C271.7169,-397.7158 286.1104,-401.2596 299.2451,-404.5 314.3224,-408.2196 330.5274,-412.2237 345.8311,-416.008"/>
<polygon fill="#191970" stroke="#191970" points="345.1889,-419.4546 355.7368,-418.4579 346.8696,-412.6593 345.1889,-419.4546"/>
</g>
<!-- Node16 -->
<g id="node16" class="node">
<title>Node16</title>
<g id="a_node16"><a xlink:href="enumlocomotor_1_1components_1_1types_1_1_c_enum_item_type.html#ab48bf5b7b36a336edf6c49f42c126494" target="_top" xlink:title="locomotor.components.types.\lCEnumItemType.valueOf">
<polygon fill="#ffffff" stroke="#000000" points="339.4199,-371.5 339.4199,-399.5 485.4932,-399.5 485.4932,-371.5 339.4199,-371.5"/>
<text text-anchor="start" x="347.4199" y="-387.5" font-family="Helvetica,sans-Serif" font-size="10.00" fill="#000000">locomotor.components.types.</text>
<text text-anchor="middle" x="412.4565" y="-377.5" font-family="Helvetica,sans-Serif" font-size="10.00" fill="#000000">CEnumItemType.valueOf</text>
</a>
</g>
</g>
<!-- Node14&#45;&gt;Node16 -->
<g id="edge15" class="edge">
<title>Node14&#45;&gt;Node16</title>
<path fill="none" stroke="#191970" d="M274.8242,-385.5C291.6336,-385.5 310.6604,-385.5 329.0863,-385.5"/>
<polygon fill="#191970" stroke="#191970" points="329.2432,-389.0001 339.2431,-385.5 329.2431,-382.0001 329.2432,-389.0001"/>
</g>
<!-- Node17 -->
<g id="node17" class="node">
<title>Node17</title>
<g id="a_node17"><a xlink:href="enumlocomotor_1_1components_1_1types_1_1_c_enum_user_type.html#a9dece4179b4a5039a4651e4885dfeec8" target="_top" xlink:title="locomotor.components.types.\lCEnumUserType.valueOf">
<polygon fill="#ffffff" stroke="#000000" points="339.4199,-324.5 339.4199,-352.5 485.4932,-352.5 485.4932,-324.5 339.4199,-324.5"/>
<text text-anchor="start" x="347.4199" y="-340.5" font-family="Helvetica,sans-Serif" font-size="10.00" fill="#000000">locomotor.components.types.</text>
<text text-anchor="middle" x="412.4565" y="-330.5" font-family="Helvetica,sans-Serif" font-size="10.00" fill="#000000">CEnumUserType.valueOf</text>
</a>
</g>
</g>
<!-- Node14&#45;&gt;Node17 -->
<g id="edge16" class="edge">
<title>Node14&#45;&gt;Node17</title>
<path fill="none" stroke="#191970" d="M261.7495,-376.4154C273.8052,-373.6108 287.0784,-370.4761 299.2451,-367.5 315.3212,-363.5676 332.6467,-359.1969 348.7931,-355.0664"/>
<polygon fill="#191970" stroke="#191970" points="349.8559,-358.4072 358.6724,-352.5318 348.1163,-351.6268 349.8559,-358.4072"/>
</g>
<!-- Node22 -->
<g id="node22" class="node">
<title>Node22</title>
<g id="a_node22"><a xlink:href="classlocomotor_1_1components_1_1types_1_1_type_factory.html#aa1f74ce70c02a7665f32b4ec438a6c3c" target="_top" xlink:title="locomotor.components.types.\lTypeFactory.getTree">
<polygon fill="#ffffff" stroke="#000000" points="339.4199,-212.5 339.4199,-240.5 485.4932,-240.5 485.4932,-212.5 339.4199,-212.5"/>
<text text-anchor="start" x="347.4199" y="-228.5" font-family="Helvetica,sans-Serif" font-size="10.00" fill="#000000">locomotor.components.types.</text>
<text text-anchor="middle" x="412.4565" y="-218.5" font-family="Helvetica,sans-Serif" font-size="10.00" fill="#000000">TypeFactory.getTree</text>
</a>
</g>
</g>
<!-- Node21&#45;&gt;Node22 -->
<g id="edge21" class="edge">
<title>Node21&#45;&gt;Node22</title>
<path fill="none" stroke="#191970" d="M295.1115,-211.7104C306.3062,-213.1213 317.933,-214.5867 329.3253,-216.0225"/>
<polygon fill="#191970" stroke="#191970" points="328.9004,-219.4966 339.2596,-217.2746 329.7758,-212.5515 328.9004,-219.4966"/>
</g>
<!-- Node25 -->
<g id="node25" class="node">
<title>Node25</title>
<g id="a_node25"><a xlink:href="classlocomotor_1_1components_1_1types_1_1_c_graph_tree.html#a83eddfad98b66bd627c4b0d1cb7056ac" target="_top" xlink:title="locomotor.components.types.\lCGraphTree.getTree">
<polygon fill="#ffffff" stroke="#000000" points="339.4199,-165.5 339.4199,-193.5 485.4932,-193.5 485.4932,-165.5 339.4199,-165.5"/>
<text text-anchor="start" x="347.4199" y="-181.5" font-family="Helvetica,sans-Serif" font-size="10.00" fill="#000000">locomotor.components.types.</text>
<text text-anchor="middle" x="412.4565" y="-171.5" font-family="Helvetica,sans-Serif" font-size="10.00" fill="#000000">CGraphTree.getTree</text>
</a>
</g>
</g>
<!-- Node21&#45;&gt;Node25 -->
<g id="edge24" class="edge">
<title>Node21&#45;&gt;Node25</title>
<path fill="none" stroke="#191970" d="M295.1115,-193.6734C306.3062,-192.3212 317.933,-190.9169 329.3253,-189.5409"/>
<polygon fill="#191970" stroke="#191970" points="329.7515,-193.015 339.2596,-188.341 328.9121,-186.0655 329.7515,-193.015"/>
</g>
<!-- Node23 -->
<g id="node23" class="node">
<title>Node23</title>
<g id="a_node23"><a xlink:href="classlocomotor_1_1components_1_1types_1_1_c_tree.html#a74382cb3a3153edc32f1cfed8c4ee364" target="_top" xlink:title="locomotor.components.types.\lCTree.addChild">
<polygon fill="#ffffff" stroke="#000000" points="525.668,-212.5 525.668,-240.5 671.7412,-240.5 671.7412,-212.5 525.668,-212.5"/>
<text text-anchor="start" x="533.668" y="-228.5" font-family="Helvetica,sans-Serif" font-size="10.00" fill="#000000">locomotor.components.types.</text>
<text text-anchor="middle" x="598.7046" y="-218.5" font-family="Helvetica,sans-Serif" font-size="10.00" fill="#000000">CTree.addChild</text>
</a>
</g>
</g>
<!-- Node22&#45;&gt;Node23 -->
<g id="edge22" class="edge">
<title>Node22&#45;&gt;Node23</title>
<path fill="none" stroke="#191970" d="M485.5321,-226.5C495.2893,-226.5 505.3548,-226.5 515.272,-226.5"/>
<polygon fill="#191970" stroke="#191970" points="515.5341,-230.0001 525.534,-226.5 515.534,-223.0001 515.5341,-230.0001"/>
</g>
<!-- Node24 -->
<g id="node24" class="node">
<title>Node24</title>
<g id="a_node24"><a xlink:href="classlocomotor_1_1components_1_1types_1_1_c_tree.html#af0e7a198496b1627d0ff15ce0e6de1f2" target="_top" xlink:title="locomotor.components.types.\lCTree.CTree">
<polygon fill="#ffffff" stroke="#000000" points="707.7412,-212.5 707.7412,-240.5 853.8145,-240.5 853.8145,-212.5 707.7412,-212.5"/>
<text text-anchor="start" x="715.7412" y="-228.5" font-family="Helvetica,sans-Serif" font-size="10.00" fill="#000000">locomotor.components.types.</text>
<text text-anchor="middle" x="780.7778" y="-218.5" font-family="Helvetica,sans-Serif" font-size="10.00" fill="#000000">CTree.CTree</text>
</a>
</g>
</g>
<!-- Node23&#45;&gt;Node24 -->
<g id="edge23" class="edge">
<title>Node23&#45;&gt;Node24</title>
<path fill="none" stroke="#191970" d="M671.9737,-226.5C680.3336,-226.5 688.9015,-226.5 697.3804,-226.5"/>
<polygon fill="#191970" stroke="#191970" points="697.6587,-230.0001 707.6587,-226.5 697.6587,-223.0001 697.6587,-230.0001"/>
</g>
</g>
</svg>
        <g id="navigator" transform="translate(0 0)" fill="#404254">
                <rect fill="#f2f5e9" fill-opacity="0.5" stroke="#606060" stroke-width=".5" x="0" y="0" width="60" height="60"/>
                <use id="zoomplus" xlink:href="#zoomPlus" x="17" y="9" onmousedown="handleZoom(evt,'in')"/>
                <use id="zoomminus" xlink:href="#zoomMin" x="42" y="9" onmousedown="handleZoom(evt,'out')"/>
                <use id="reset" xlink:href="#resetDef" x="30" y="36" onmousedown="handleReset()"/>
                <g id="arrowUp" xlink:href="#dirArrow" transform="translate(30 24)" onmousedown="handlePan(0,-1)">
                  <use xlink:href="#rim" fill="#404040">
                        <set attributeName="fill" to="#808080" begin="arrowUp.mouseover" end="arrowUp.mouseout"/>
                  </use>
                  <path fill="none" stroke="white" stroke-width="1.5" d="M0,-3.0v7 M-2.5,-0.5L0,-3.0L2.5,-0.5"/>
                </g>
                <g id="arrowRight" xlink:href="#dirArrow" transform="rotate(90) translate(36 -43)" onmousedown="handlePan(1,0)">
                  <use xlink:href="#rim" fill="#404040">
                        <set attributeName="fill" to="#808080" begin="arrowRight.mouseover" end="arrowRight.mouseout"/>
                  </use>
                  <path fill="none" stroke="white" stroke-width="1.5" d="M0,-3.0v7 M-2.5,-0.5L0,-3.0L2.5,-0.5"/>
                </g>
                <g id="arrowDown" xlink:href="#dirArrow" transform="rotate(180) translate(-30 -48)" onmousedown="handlePan(0,1)">
                  <use xlink:href="#rim" fill="#404040">
                        <set attributeName="fill" to="#808080" begin="arrowDown.mouseover" end="arrowDown.mouseout"/>
                  </use>
                  <path fill="none" stroke="white" stroke-width="1.5" d="M0,-3.0v7 M-2.5,-0.5L0,-3.0L2.5,-0.5"/>
                </g>
                <g id="arrowLeft" xlink:href="#dirArrow" transform="rotate(270) translate(-36 17)" onmousedown="handlePan(-1,0)">
                  <use xlink:href="#rim" fill="#404040">
                        <set attributeName="fill" to="#808080" begin="arrowLeft.mouseover" end="arrowLeft.mouseout"/>
                  </use>
                  <path fill="none" stroke="white" stroke-width="1.5" d="M0,-3.0v7 M-2.5,-0.5L0,-3.0L2.5,-0.5"/>
                </g>
        </g>
        <svg viewBox="0 0 15 15" width="100%" height="30px" preserveAspectRatio="xMaxYMin meet">
         <g id="arrow_out" transform="scale(0.3 0.3)">
          <a xlink:href="classlocomotor_1_1core_1_1_d_b_h_ad067053be75a3170dc9c2ce7b922e176_cgraph_org.svg" target="_base">
           <rect id="button" ry="5" rx="5" y="6" x="6" height="38" width="38"
                fill="#f2f5e9" fill-opacity="0.5" stroke="#606060" stroke-width="1.0"/>
           <path id="arrow"
             d="M 11.500037,31.436501 C 11.940474,20.09759 22.043105,11.32322 32.158766,21.979434 L 37.068811,17.246167 C 37.068811,17.246167 37.088388,32 37.088388,32 L 22.160133,31.978069 C 22.160133,31.978069 26.997745,27.140456 26.997745,27.140456 C 18.528582,18.264221 13.291696,25.230495 11.500037,31.436501 z"
             style="fill:#404040;"/>
          </a>
         </g>
        </svg>
</svg>
