<?xml version="1.0" encoding="UTF-8" standalone="no"?>
<!DOCTYPE svg PUBLIC "-//W3C//DTD SVG 1.1//EN"
 "http://www.w3.org/Graphics/SVG/1.1/DTD/svg11.dtd">
<!-- Generated by graphviz version 2.40.1 (20161225.0304)
 -->
<!-- Title: CWeightedInteger Pages: 1 -->
<svg width="1321pt" height="37pt"
 viewBox="0.00 0.00 1320.87 37.00" xmlns="http://www.w3.org/2000/svg" xmlns:xlink="http://www.w3.org/1999/xlink">
<g id="graph0" class="graph" transform="scale(1 1) rotate(0) translate(4 33)">
<title>CWeightedInteger</title>
<polygon fill="#ffffff" stroke="transparent" points="-4,4 -4,-33 1316.8711,-33 1316.8711,4 -4,4"/>
<!-- Node1 -->
<g id="node1" class="node">
<title>Node1</title>
<polygon fill="#bfbfbf" stroke="#000000" points="0,-5.5 0,-23.5 96.4248,-23.5 96.4248,-5.5 0,-5.5"/>
<text text-anchor="middle" x="48.2124" y="-11.5" font-family="Helvetica,sans-Serif" font-size="10.00" fill="#000000">CWeightedInteger</text>
</g>
<!-- Node2 -->
<g id="node2" class="node">
<title>Node2</title>
<g id="a_node2"><a xlink:href="classlocomotor_1_1components_1_1types_1_1_c_weighted_integer.html#af46cf72d2c75b781f89dcce0e0e5ef95" target="_top" xlink:title="fromJSON">
<polygon fill="#ffffff" stroke="#000000" points="132.4248,-5.5 132.4248,-23.5 195.0947,-23.5 195.0947,-5.5 132.4248,-5.5"/>
<text text-anchor="middle" x="163.7598" y="-11.5" font-family="Helvetica,sans-Serif" font-size="10.00" fill="#000000">fromJSON</text>
</a>
</g>
</g>
<!-- Node1&#45;&gt;Node2 -->
<g id="edge1" class="edge">
<title>Node1&#45;&gt;Node2</title>
<path fill="none" stroke="#191970" d="M106.571,-14.5C115.4838,-14.5 124.3781,-14.5 132.4053,-14.5"/>
<polygon fill="#191970" stroke="#191970" points="106.5454,-11.0001 96.5454,-14.5 106.5454,-18.0001 106.5454,-11.0001"/>
</g>
<!-- Node3 -->
<g id="node3" class="node">
<title>Node3</title>
<g id="a_node3"><a xlink:href="classlocomotor_1_1components_1_1types_1_1_type_factory.html#a8827604831ff8a1764b7639c82820497" target="_top" xlink:title="locomotor.components.types.\lTypeFactory.getItemFromJson">
<polygon fill="#ffffff" stroke="#000000" points="231.0947,-.5 231.0947,-28.5 381.9629,-28.5 381.9629,-.5 231.0947,-.5"/>
<text text-anchor="start" x="239.0947" y="-16.5" font-family="Helvetica,sans-Serif" font-size="10.00" fill="#000000">locomotor.components.types.</text>
<text text-anchor="middle" x="306.5288" y="-6.5" font-family="Helvetica,sans-Serif" font-size="10.00" fill="#000000">TypeFactory.getItemFromJson</text>
</a>
</g>
</g>
<!-- Node2&#45;&gt;Node3 -->
<g id="edge2" class="edge">
<title>Node2&#45;&gt;Node3</title>
<path fill="none" stroke="#191970" d="M205.5648,-14.5C213.5594,-14.5 222.1553,-14.5 230.8365,-14.5"/>
<polygon fill="#191970" stroke="#191970" points="205.4449,-11.0001 195.4448,-14.5 205.4448,-18.0001 205.4449,-11.0001"/>
</g>
<!-- Node4 -->
<g id="node4" class="node">
<title>Node4</title>
<g id="a_node4"><a xlink:href="classlocomotor_1_1components_1_1models_1_1_item_criteria_full.html#a436730a3499b6d7b1d0359e12aa2f04a" target="_top" xlink:title="locomotor.components.models.\lItemCriteriaFull.fromJSON">
<polygon fill="#ffffff" stroke="#000000" points="417.9629,-.5 417.9629,-28.5 572.3711,-28.5 572.3711,-.5 417.9629,-.5"/>
<text text-anchor="start" x="425.9629" y="-16.5" font-family="Helvetica,sans-Serif" font-size="10.00" fill="#000000">locomotor.components.models.</text>
<text text-anchor="middle" x="495.167" y="-6.5" font-family="Helvetica,sans-Serif" font-size="10.00" fill="#000000">ItemCriteriaFull.fromJSON</text>
</a>
</g>
</g>
<!-- Node3&#45;&gt;Node4 -->
<g id="edge3" class="edge">
<title>Node3&#45;&gt;Node4</title>
<path fill="none" stroke="#191970" d="M392.3831,-14.5C400.8093,-14.5 409.3263,-14.5 417.6623,-14.5"/>
<polygon fill="#191970" stroke="#191970" points="392.1683,-11.0001 382.1682,-14.5 392.1682,-18.0001 392.1683,-11.0001"/>
</g>
<!-- Node5 -->
<g id="node5" class="node">
<title>Node5</title>
<g id="a_node5"><a xlink:href="classlocomotor_1_1components_1_1models_1_1_item_category_full.html#a50ab7c0f8e4a65f80ca141f1fa1c7df8" target="_top" xlink:title="locomotor.components.models.\lItemCategoryFull.fromJSON">
<polygon fill="#ffffff" stroke="#000000" points="608.3711,-.5 608.3711,-28.5 762.7793,-28.5 762.7793,-.5 608.3711,-.5"/>
<text text-anchor="start" x="616.3711" y="-16.5" font-family="Helvetica,sans-Serif" font-size="10.00" fill="#000000">locomotor.components.models.</text>
<text text-anchor="middle" x="685.5752" y="-6.5" font-family="Helvetica,sans-Serif" font-size="10.00" fill="#000000">ItemCategoryFull.fromJSON</text>
</a>
</g>
</g>
<!-- Node4&#45;&gt;Node5 -->
<g id="edge4" class="edge">
<title>Node4&#45;&gt;Node5</title>
<path fill="none" stroke="#191970" d="M582.8674,-14.5C591.321,-14.5 599.854,-14.5 608.1975,-14.5"/>
<polygon fill="#191970" stroke="#191970" points="582.6133,-11.0001 572.6133,-14.5 582.6133,-18.0001 582.6133,-11.0001"/>
</g>
<!-- Node6 -->
<g id="node6" class="node">
<title>Node6</title>
<g id="a_node6"><a xlink:href="classlocomotor_1_1components_1_1models_1_1_item_full.html#afe56c5f49cb59d04ec69bbf32b58a2f8" target="_top" xlink:title="locomotor.components.models.\lItemFull.fromJSON">
<polygon fill="#ffffff" stroke="#000000" points="798.7793,-.5 798.7793,-28.5 953.1875,-28.5 953.1875,-.5 798.7793,-.5"/>
<text text-anchor="start" x="806.7793" y="-16.5" font-family="Helvetica,sans-Serif" font-size="10.00" fill="#000000">locomotor.components.models.</text>
<text text-anchor="middle" x="875.9834" y="-6.5" font-family="Helvetica,sans-Serif" font-size="10.00" fill="#000000">ItemFull.fromJSON</text>
</a>
</g>
</g>
<!-- Node5&#45;&gt;Node6 -->
<g id="edge5" class="edge">
<title>Node5&#45;&gt;Node6</title>
<path fill="none" stroke="#191970" d="M773.2756,-14.5C781.7292,-14.5 790.2622,-14.5 798.6057,-14.5"/>
<polygon fill="#191970" stroke="#191970" points="773.0215,-11.0001 763.0215,-14.5 773.0215,-18.0001 773.0215,-11.0001"/>
</g>
<!-- Node7 -->
<g id="node7" class="node">
<title>Node7</title>
<g id="a_node7"><a xlink:href="classlocomotor_1_1components_1_1network_1_1_a_p_i.html#a547463fbc7fb7b485886f0917e2c0b78" target="_top" xlink:title="locomotor.components.network.\lAPI.createHooks">
<polygon fill="#ffffff" stroke="#000000" points="989.1875,-.5 989.1875,-28.5 1146.374,-28.5 1146.374,-.5 989.1875,-.5"/>
<text text-anchor="start" x="997.1875" y="-16.5" font-family="Helvetica,sans-Serif" font-size="10.00" fill="#000000">locomotor.components.network.</text>
<text text-anchor="middle" x="1067.7808" y="-6.5" font-family="Helvetica,sans-Serif" font-size="10.00" fill="#000000">API.createHooks</text>
</a>
</g>
</g>
<!-- Node6&#45;&gt;Node7 -->
<g id="edge6" class="edge">
<title>Node6&#45;&gt;Node7</title>
<path fill="none" stroke="#191970" d="M963.7081,-14.5C972.1739,-14.5 980.7254,-14.5 989.096,-14.5"/>
<polygon fill="#191970" stroke="#191970" points="963.4419,-11.0001 953.4419,-14.5 963.4418,-18.0001 963.4419,-11.0001"/>
</g>
<!-- Node8 -->
<g id="node8" class="node">
<title>Node8</title>
<g id="a_node8"><a xlink:href="classlocomotor_1_1core_1_1_main.html#a8b260eecbaabcef8473fd87ada040682" target="_top" xlink:title="locomotor.core.Main.main">
<polygon fill="#ffffff" stroke="#000000" points="1182.374,-5.5 1182.374,-23.5 1312.8711,-23.5 1312.8711,-5.5 1182.374,-5.5"/>
<text text-anchor="middle" x="1247.6226" y="-11.5" font-family="Helvetica,sans-Serif" font-size="10.00" fill="#000000">locomotor.core.Main.main</text>
</a>
</g>
</g>
<!-- Node7&#45;&gt;Node8 -->
<g id="edge7" class="edge">
<title>Node7&#45;&gt;Node8</title>
<path fill="none" stroke="#191970" d="M1156.5738,-14.5C1165.2621,-14.5 1173.9644,-14.5 1182.3563,-14.5"/>
<polygon fill="#191970" stroke="#191970" points="1156.4004,-11.0001 1146.4004,-14.5 1156.4003,-18.0001 1156.4004,-11.0001"/>
</g>
</g>
</svg>
