<?xml version="1.0" encoding="UTF-8" standalone="no"?>
<!DOCTYPE svg PUBLIC "-//W3C//DTD SVG 1.1//EN"
 "http://www.w3.org/Graphics/SVG/1.1/DTD/svg11.dtd">
<!-- Generated by graphviz version 2.40.1 (20161225.0304)
 -->
<!-- Title: CWeightedStringList Pages: 1 -->
<svg width="1327pt" height="37pt"
 viewBox="0.00 0.00 1326.63 37.00" xmlns="http://www.w3.org/2000/svg" xmlns:xlink="http://www.w3.org/1999/xlink">
<g id="graph0" class="graph" transform="scale(1 1) rotate(0) translate(4 33)">
<title>CWeightedStringList</title>
<polygon fill="#ffffff" stroke="transparent" points="-4,4 -4,-33 1322.6279,-33 1322.6279,4 -4,4"/>
<!-- Node1 -->
<g id="node1" class="node">
<title>Node1</title>
<polygon fill="#bfbfbf" stroke="#000000" points="0,-5.5 0,-23.5 106.9766,-23.5 106.9766,-5.5 0,-5.5"/>
<text text-anchor="middle" x="53.4883" y="-11.5" font-family="Helvetica,sans-Serif" font-size="10.00" fill="#000000">CWeightedStringList</text>
</g>
<!-- Node2 -->
<g id="node2" class="node">
<title>Node2</title>
<g id="a_node2"><a xlink:href="classlocomotor_1_1components_1_1types_1_1_c_weighted_string_list.html#a7a08dcf44cd83920ed5e14cef6361de8" target="_top" xlink:title="fromJSON">
<polygon fill="#ffffff" stroke="#000000" points="142.9766,-5.5 142.9766,-23.5 205.6465,-23.5 205.6465,-5.5 142.9766,-5.5"/>
<text text-anchor="middle" x="174.3115" y="-11.5" font-family="Helvetica,sans-Serif" font-size="10.00" fill="#000000">fromJSON</text>
</a>
</g>
</g>
<!-- Node1&#45;&gt;Node2 -->
<g id="edge1" class="edge">
<title>Node1&#45;&gt;Node2</title>
<path fill="none" stroke="#191970" d="M117.2583,-14.5C126.1788,-14.5 135.0014,-14.5 142.9448,-14.5"/>
<polygon fill="#191970" stroke="#191970" points="117.1868,-11.0001 107.1867,-14.5 117.1867,-18.0001 117.1868,-11.0001"/>
</g>
<!-- Node3 -->
<g id="node3" class="node">
<title>Node3</title>
<g id="a_node3"><a xlink:href="classlocomotor_1_1components_1_1types_1_1_type_factory.html#a1a64701bf13afa82b6b32bf422a171e2" target="_top" xlink:title="locomotor.components.types.\lTypeFactory.getUser">
<polygon fill="#ffffff" stroke="#000000" points="241.6465,-.5 241.6465,-28.5 387.7197,-28.5 387.7197,-.5 241.6465,-.5"/>
<text text-anchor="start" x="249.6465" y="-16.5" font-family="Helvetica,sans-Serif" font-size="10.00" fill="#000000">locomotor.components.types.</text>
<text text-anchor="middle" x="314.6831" y="-6.5" font-family="Helvetica,sans-Serif" font-size="10.00" fill="#000000">TypeFactory.getUser</text>
</a>
</g>
</g>
<!-- Node2&#45;&gt;Node3 -->
<g id="edge2" class="edge">
<title>Node2&#45;&gt;Node3</title>
<path fill="none" stroke="#191970" d="M216.0043,-14.5C224.0547,-14.5 232.7074,-14.5 241.4235,-14.5"/>
<polygon fill="#191970" stroke="#191970" points="215.8137,-11.0001 205.8136,-14.5 215.8136,-18.0001 215.8137,-11.0001"/>
</g>
<!-- Node4 -->
<g id="node4" class="node">
<title>Node4</title>
<g id="a_node4"><a xlink:href="classlocomotor_1_1components_1_1models_1_1_user_criteria.html#aaca1c5ec640a1453943ce97d40e12a63" target="_top" xlink:title="locomotor.components.models.\lUserCriteria.fromJSON">
<polygon fill="#ffffff" stroke="#000000" points="423.7197,-.5 423.7197,-28.5 578.1279,-28.5 578.1279,-.5 423.7197,-.5"/>
<text text-anchor="start" x="431.7197" y="-16.5" font-family="Helvetica,sans-Serif" font-size="10.00" fill="#000000">locomotor.components.models.</text>
<text text-anchor="middle" x="500.9238" y="-6.5" font-family="Helvetica,sans-Serif" font-size="10.00" fill="#000000">UserCriteria.fromJSON</text>
</a>
</g>
</g>
<!-- Node3&#45;&gt;Node4 -->
<g id="edge3" class="edge">
<title>Node3&#45;&gt;Node4</title>
<path fill="none" stroke="#191970" d="M398.011,-14.5C406.4785,-14.5 415.0552,-14.5 423.4569,-14.5"/>
<polygon fill="#191970" stroke="#191970" points="397.7559,-11.0001 387.7558,-14.5 397.7558,-18.0001 397.7559,-11.0001"/>
</g>
<!-- Node5 -->
<g id="node5" class="node">
<title>Node5</title>
<g id="a_node5"><a xlink:href="classlocomotor_1_1components_1_1models_1_1_user_category.html#a52e02970889790bace019e61fb256ff0" target="_top" xlink:title="locomotor.components.models.\lUserCategory.fromJSON">
<polygon fill="#ffffff" stroke="#000000" points="614.1279,-.5 614.1279,-28.5 768.5361,-28.5 768.5361,-.5 614.1279,-.5"/>
<text text-anchor="start" x="622.1279" y="-16.5" font-family="Helvetica,sans-Serif" font-size="10.00" fill="#000000">locomotor.components.models.</text>
<text text-anchor="middle" x="691.332" y="-6.5" font-family="Helvetica,sans-Serif" font-size="10.00" fill="#000000">UserCategory.fromJSON</text>
</a>
</g>
</g>
<!-- Node4&#45;&gt;Node5 -->
<g id="edge4" class="edge">
<title>Node4&#45;&gt;Node5</title>
<path fill="none" stroke="#191970" d="M588.6242,-14.5C597.0778,-14.5 605.6108,-14.5 613.9544,-14.5"/>
<polygon fill="#191970" stroke="#191970" points="588.3702,-11.0001 578.3701,-14.5 588.3701,-18.0001 588.3702,-11.0001"/>
</g>
<!-- Node6 -->
<g id="node6" class="node">
<title>Node6</title>
<g id="a_node6"><a xlink:href="classlocomotor_1_1components_1_1models_1_1_user_item.html#ab97f79cf43a9a73bcd77cec6b449a79a" target="_top" xlink:title="locomotor.components.models.\lUserItem.fromJSON">
<polygon fill="#ffffff" stroke="#000000" points="804.5361,-.5 804.5361,-28.5 958.9443,-28.5 958.9443,-.5 804.5361,-.5"/>
<text text-anchor="start" x="812.5361" y="-16.5" font-family="Helvetica,sans-Serif" font-size="10.00" fill="#000000">locomotor.components.models.</text>
<text text-anchor="middle" x="881.7402" y="-6.5" font-family="Helvetica,sans-Serif" font-size="10.00" fill="#000000">UserItem.fromJSON</text>
</a>
</g>
</g>
<!-- Node5&#45;&gt;Node6 -->
<g id="edge5" class="edge">
<title>Node5&#45;&gt;Node6</title>
<path fill="none" stroke="#191970" d="M779.0324,-14.5C787.486,-14.5 796.019,-14.5 804.3626,-14.5"/>
<polygon fill="#191970" stroke="#191970" points="778.7784,-11.0001 768.7783,-14.5 778.7783,-18.0001 778.7784,-11.0001"/>
</g>
<!-- Node7 -->
<g id="node7" class="node">
<title>Node7</title>
<g id="a_node7"><a xlink:href="classlocomotor_1_1components_1_1network_1_1_a_p_i.html#a547463fbc7fb7b485886f0917e2c0b78" target="_top" xlink:title="locomotor.components.network.\lAPI.createHooks">
<polygon fill="#ffffff" stroke="#000000" points="994.9443,-.5 994.9443,-28.5 1152.1309,-28.5 1152.1309,-.5 994.9443,-.5"/>
<text text-anchor="start" x="1002.9443" y="-16.5" font-family="Helvetica,sans-Serif" font-size="10.00" fill="#000000">locomotor.components.network.</text>
<text text-anchor="middle" x="1073.5376" y="-6.5" font-family="Helvetica,sans-Serif" font-size="10.00" fill="#000000">API.createHooks</text>
</a>
</g>
</g>
<!-- Node6&#45;&gt;Node7 -->
<g id="edge6" class="edge">
<title>Node6&#45;&gt;Node7</title>
<path fill="none" stroke="#191970" d="M969.4649,-14.5C977.9308,-14.5 986.4823,-14.5 994.8528,-14.5"/>
<polygon fill="#191970" stroke="#191970" points="969.1987,-11.0001 959.1987,-14.5 969.1987,-18.0001 969.1987,-11.0001"/>
</g>
<!-- Node8 -->
<g id="node8" class="node">
<title>Node8</title>
<g id="a_node8"><a xlink:href="classlocomotor_1_1core_1_1_main.html#a8b260eecbaabcef8473fd87ada040682" target="_top" xlink:title="locomotor.core.Main.main">
<polygon fill="#ffffff" stroke="#000000" points="1188.1309,-5.5 1188.1309,-23.5 1318.6279,-23.5 1318.6279,-5.5 1188.1309,-5.5"/>
<text text-anchor="middle" x="1253.3794" y="-11.5" font-family="Helvetica,sans-Serif" font-size="10.00" fill="#000000">locomotor.core.Main.main</text>
</a>
</g>
</g>
<!-- Node7&#45;&gt;Node8 -->
<g id="edge7" class="edge">
<title>Node7&#45;&gt;Node8</title>
<path fill="none" stroke="#191970" d="M1162.3306,-14.5C1171.0189,-14.5 1179.7213,-14.5 1188.1131,-14.5"/>
<polygon fill="#191970" stroke="#191970" points="1162.1572,-11.0001 1152.1572,-14.5 1162.1572,-18.0001 1162.1572,-11.0001"/>
</g>
</g>
</svg>
