<?xml version="1.0" encoding="UTF-8" standalone="no"?>
<!DOCTYPE svg PUBLIC "-//W3C//DTD SVG 1.1//EN"
 "http://www.w3.org/Graphics/SVG/1.1/DTD/svg11.dtd">
<!-- Generated by graphviz version 2.38.0 (20140413.2041)
 -->
<!-- Title: CriteriaModel Pages: 1 -->
<svg width="490pt" height="152pt"
 viewBox="0.00 0.00 489.50 152.00" xmlns="http://www.w3.org/2000/svg" xmlns:xlink="http://www.w3.org/1999/xlink">
<g id="graph0" class="graph" transform="scale(1 1) rotate(0) translate(4 148)">
<title>CriteriaModel</title>
<polygon fill="white" stroke="none" points="-4,4 -4,-148 485.5,-148 485.5,4 -4,4"/>
<!-- Node1 -->
<g id="node1" class="node"><title>Node1</title>
<polygon fill="#bfbfbf" stroke="black" points="192,-0.5 192,-19.5 266,-19.5 266,-0.5 192,-0.5"/>
<text text-anchor="middle" x="229" y="-7.5" font-family="Helvetica,sans-Serif" font-size="10.00">CriteriaModel</text>
</g>
<!-- Node2 -->
<g id="node2" class="node"><title>Node2</title>
<g id="a_node2"><a xlink:href="enumlocomotor_1_1components_1_1types_1_1_c_enum_universe_type.html" target="_top" xlink:title="CEnumUniverseType">
<polygon fill="white" stroke="black" points="0,-67.5 0,-86.5 110,-86.5 110,-67.5 0,-67.5"/>
<text text-anchor="middle" x="55" y="-74.5" font-family="Helvetica,sans-Serif" font-size="10.00">CEnumUniverseType</text>
</a>
</g>
</g>
<!-- Node2&#45;&gt;Node1 -->
<g id="edge1" class="edge"><title>Node2&#45;&gt;Node1</title>
<path fill="none" stroke="#9a32cd" stroke-dasharray="5,2" d="M78.0622,-62.334C92.1324,-54.4209 110.687,-44.7269 128,-38 148.64,-29.9805 172.546,-23.4725 191.917,-18.8568"/>
<polygon fill="#9a32cd" stroke="#9a32cd" points="76.0414,-59.4581 69.108,-67.4694 79.5239,-65.5304 76.0414,-59.4581"/>
<text text-anchor="middle" x="161.5" y="-41" font-family="Helvetica,sans-Serif" font-size="10.00"> _universeType</text>
</g>
<!-- Node3 -->
<g id="node3" class="node"><title>Node3</title>
<g id="a_node3"><a xlink:href="enumlocomotor_1_1components_1_1types_1_1_c_enum_user_type.html" target="_top" xlink:title="CEnumUserType">
<polygon fill="white" stroke="black" points="128,-67.5 128,-86.5 220,-86.5 220,-67.5 128,-67.5"/>
<text text-anchor="middle" x="174" y="-74.5" font-family="Helvetica,sans-Serif" font-size="10.00">CEnumUserType</text>
</a>
</g>
</g>
<!-- Node3&#45;&gt;Node1 -->
<g id="edge2" class="edge"><title>Node3&#45;&gt;Node1</title>
<path fill="none" stroke="#9a32cd" stroke-dasharray="5,2" d="M188.156,-59.2705C198.879,-46.5972 213.176,-29.701 221.7,-19.6273"/>
<polygon fill="#9a32cd" stroke="#9a32cd" points="185.205,-57.3391 181.418,-67.2338 190.549,-61.8607 185.205,-57.3391"/>
<text text-anchor="middle" x="229.5" y="-41" font-family="Helvetica,sans-Serif" font-size="10.00"> _userType</text>
</g>
<!-- Node4 -->
<g id="node4" class="node"><title>Node4</title>
<g id="a_node4"><a xlink:href="enumlocomotor_1_1components_1_1types_1_1_c_enum_item_type.html" target="_top" xlink:title="CEnumItemType">
<polygon fill="white" stroke="black" points="238.5,-67.5 238.5,-86.5 329.5,-86.5 329.5,-67.5 238.5,-67.5"/>
<text text-anchor="middle" x="284" y="-74.5" font-family="Helvetica,sans-Serif" font-size="10.00">CEnumItemType</text>
</a>
</g>
</g>
<!-- Node4&#45;&gt;Node1 -->
<g id="edge3" class="edge"><title>Node4&#45;&gt;Node1</title>
<path fill="none" stroke="#9a32cd" stroke-dasharray="5,2" d="M273.531,-59.0024C269.062,-52.2214 263.592,-44.4984 258,-38 252.346,-31.4301 245.233,-24.7867 239.466,-19.7338"/>
<polygon fill="#9a32cd" stroke="#9a32cd" points="270.595,-60.9092 278.921,-67.4618 276.499,-57.1475 270.595,-60.9092"/>
<text text-anchor="middle" x="291.5" y="-41" font-family="Helvetica,sans-Serif" font-size="10.00"> _itemType</text>
</g>
<!-- Node5 -->
<g id="node5" class="node"><title>Node5</title>
<g id="a_node5"><a xlink:href="interfacelocomotor_1_1components_1_1types_1_1_c_universe_type.html" target="_top" xlink:title="CUniverseType">
<polygon fill="white" stroke="black" points="347.5,-67.5 347.5,-86.5 432.5,-86.5 432.5,-67.5 347.5,-67.5"/>
<text text-anchor="middle" x="390" y="-74.5" font-family="Helvetica,sans-Serif" font-size="10.00">CUniverseType</text>
</a>
</g>
</g>
<!-- Node5&#45;&gt;Node1 -->
<g id="edge4" class="edge"><title>Node5&#45;&gt;Node1</title>
<path fill="none" stroke="#9a32cd" stroke-dasharray="5,2" d="M367.246,-62.0724C353.836,-54.2684 336.344,-44.7736 320,-38 302.036,-30.5551 281.298,-24.237 264.161,-19.5886"/>
<polygon fill="#9a32cd" stroke="#9a32cd" points="365.828,-65.3007 376.215,-67.393 369.4,-59.2805 365.828,-65.3007"/>
<text text-anchor="middle" x="364" y="-41" font-family="Helvetica,sans-Serif" font-size="10.00"> _universe</text>
</g>
<!-- Node6 -->
<g id="node6" class="node"><title>Node6</title>
<g id="a_node6"><a xlink:href="interfacelocomotor_1_1components_1_1types_1_1_c_type.html" target="_top" xlink:title="CType">
<polygon fill="white" stroke="black" points="322,-124.5 322,-143.5 368,-143.5 368,-124.5 322,-124.5"/>
<text text-anchor="middle" x="345" y="-131.5" font-family="Helvetica,sans-Serif" font-size="10.00">CType</text>
</a>
</g>
</g>
<!-- Node6&#45;&gt;Node5 -->
<g id="edge5" class="edge"><title>Node6&#45;&gt;Node5</title>
<path fill="none" stroke="midnightblue" d="M358.474,-116.532C366.489,-106.736 376.336,-94.701 382.87,-86.7149"/>
<polygon fill="midnightblue" stroke="midnightblue" points="355.655,-114.45 352.031,-124.406 361.073,-118.883 355.655,-114.45"/>
</g>
<!-- Node7 -->
<g id="node7" class="node"><title>Node7</title>
<g id="a_node7"><a xlink:href="interfacelocomotor_1_1components_1_1_j_s_o_n_displayable.html" target="_top" xlink:title="JSONDisplayable">
<polygon fill="white" stroke="black" points="386.5,-124.5 386.5,-143.5 481.5,-143.5 481.5,-124.5 386.5,-124.5"/>
<text text-anchor="middle" x="434" y="-131.5" font-family="Helvetica,sans-Serif" font-size="10.00">JSONDisplayable</text>
</a>
</g>
</g>
<!-- Node7&#45;&gt;Node5 -->
<g id="edge6" class="edge"><title>Node7&#45;&gt;Node5</title>
<path fill="none" stroke="midnightblue" d="M420.826,-116.532C412.989,-106.736 403.361,-94.701 396.972,-86.7149"/>
<polygon fill="midnightblue" stroke="midnightblue" points="418.145,-118.784 427.125,-124.406 423.611,-114.411 418.145,-118.784"/>
</g>
</g>
</svg>
