<?xml version="1.0" encoding="UTF-8" standalone="no"?>
<!DOCTYPE svg PUBLIC "-//W3C//DTD SVG 1.1//EN"
 "http://www.w3.org/Graphics/SVG/1.1/DTD/svg11.dtd">
<!-- Generated by graphviz version 2.40.1 (20161225.0304)
 -->
<!-- Title: ItemCriteriaFull Pages: 1 -->
<svg width="188pt" height="137pt"
 viewBox="0.00 0.00 188.02 137.00" xmlns="http://www.w3.org/2000/svg" xmlns:xlink="http://www.w3.org/1999/xlink">
<g id="graph0" class="graph" transform="scale(1 1) rotate(0) translate(4 133)">
<title>ItemCriteriaFull</title>
<polygon fill="#ffffff" stroke="transparent" points="-4,4 -4,-133 184.0195,-133 184.0195,4 -4,4"/>
<!-- Node1 -->
<g id="node1" class="node">
<title>Node1</title>
<polygon fill="#bfbfbf" stroke="#000000" points="40.9434,-.5 40.9434,-18.5 124.7314,-18.5 124.7314,-.5 40.9434,-.5"/>
<text text-anchor="middle" x="82.8374" y="-6.5" font-family="Helvetica,sans-Serif" font-size="10.00" fill="#000000">ItemCriteriaFull</text>
</g>
<!-- Node2 -->
<g id="node2" class="node">
<title>Node2</title>
<g id="a_node2"><a xlink:href="classlocomotor_1_1components_1_1models_1_1_item_criteria.html" target="_top" xlink:title="ItemCriteria">
<polygon fill="#ffffff" stroke="#000000" points="0,-55.5 0,-73.5 67.6748,-73.5 67.6748,-55.5 0,-55.5"/>
<text text-anchor="middle" x="33.8374" y="-61.5" font-family="Helvetica,sans-Serif" font-size="10.00" fill="#000000">ItemCriteria</text>
</a>
</g>
</g>
<!-- Node2&#45;&gt;Node1 -->
<g id="edge1" class="edge">
<title>Node2&#45;&gt;Node1</title>
<path fill="none" stroke="#191970" d="M48.7821,-47.7253C57.2549,-38.215 67.5357,-26.6754 74.5703,-18.7795"/>
<polygon fill="#191970" stroke="#191970" points="45.9675,-45.623 41.9288,-55.4179 51.1942,-50.2795 45.9675,-45.623"/>
</g>
<!-- Node3 -->
<g id="node3" class="node">
<title>Node3</title>
<g id="a_node3"><a xlink:href="classlocomotor_1_1components_1_1models_1_1_criteria.html" target="_top" xlink:title="Criteria">
<polygon fill="#ffffff" stroke="#000000" points="9.7241,-110.5 9.7241,-128.5 57.9507,-128.5 57.9507,-110.5 9.7241,-110.5"/>
<text text-anchor="middle" x="33.8374" y="-116.5" font-family="Helvetica,sans-Serif" font-size="10.00" fill="#000000">Criteria</text>
</a>
</g>
</g>
<!-- Node3&#45;&gt;Node2 -->
<g id="edge2" class="edge">
<title>Node3&#45;&gt;Node2</title>
<path fill="none" stroke="#191970" d="M33.8374,-100.383C33.8374,-91.3738 33.8374,-81.0373 33.8374,-73.7795"/>
<polygon fill="#191970" stroke="#191970" points="30.3375,-100.4178 33.8374,-110.4179 37.3375,-100.4179 30.3375,-100.4178"/>
</g>
<!-- Node4 -->
<g id="node4" class="node">
<title>Node4</title>
<g id="a_node4"><a xlink:href="interfacelocomotor_1_1components_1_1_j_s_o_n_displayable.html" target="_top" xlink:title="JSONDisplayable">
<polygon fill="#ffffff" stroke="#000000" points="85.6553,-55.5 85.6553,-73.5 180.0195,-73.5 180.0195,-55.5 85.6553,-55.5"/>
<text text-anchor="middle" x="132.8374" y="-61.5" font-family="Helvetica,sans-Serif" font-size="10.00" fill="#000000">JSONDisplayable</text>
</a>
</g>
</g>
<!-- Node4&#45;&gt;Node1 -->
<g id="edge3" class="edge">
<title>Node4&#45;&gt;Node1</title>
<path fill="none" stroke="#191970" d="M117.8491,-48.0129C109.1542,-38.4485 98.5239,-26.7552 91.2733,-18.7795"/>
<polygon fill="#191970" stroke="#191970" points="115.2644,-50.3728 124.5809,-55.4179 120.444,-45.6641 115.2644,-50.3728"/>
</g>
</g>
</svg>
