<?xml version="1.0" encoding="UTF-8" standalone="no"?>
<!DOCTYPE svg PUBLIC "-//W3C//DTD SVG 1.1//EN"
 "http://www.w3.org/Graphics/SVG/1.1/DTD/svg11.dtd">
<!-- Generated by graphviz version 2.40.1 (20161225.0304)
 -->
<!-- Title: compare Pages: 1 -->
<svg width="394pt" height="64pt"
 viewBox="0.00 0.00 394.25 64.00" xmlns="http://www.w3.org/2000/svg" xmlns:xlink="http://www.w3.org/1999/xlink">
<g id="graph0" class="graph" transform="scale(1 1) rotate(0) translate(4 60)">
<title>compare</title>
<polygon fill="#ffffff" stroke="transparent" points="-4,4 -4,-60 390.25,-60 390.25,4 -4,4"/>
<!-- Node1 -->
<g id="node1" class="node">
<title>Node1</title>
<polygon fill="#bfbfbf" stroke="#000000" points="0,-18.5 0,-36.5 54.9063,-36.5 54.9063,-18.5 0,-18.5"/>
<text text-anchor="middle" x="27.4531" y="-24.5" font-family="Helvetica,sans-Serif" font-size="10.00" fill="#000000">compare</text>
</g>
<!-- Node2 -->
<g id="node2" class="node">
<title>Node2</title>
<g id="a_node2"><a xlink:href="classlocomotor_1_1components_1_1_compare.html#ac5771638a144db6c7e42db1c36288d48" target="_top" xlink:title="locomotor.components.Compare.graph\lValue">
<polygon fill="#ffffff" stroke="#000000" points="90.9063,-13.5 90.9063,-41.5 279.7822,-41.5 279.7822,-13.5 90.9063,-13.5"/>
<text text-anchor="start" x="98.9063" y="-29.5" font-family="Helvetica,sans-Serif" font-size="10.00" fill="#000000">locomotor.components.Compare.graph</text>
<text text-anchor="middle" x="185.3442" y="-19.5" font-family="Helvetica,sans-Serif" font-size="10.00" fill="#000000">Value</text>
</a>
</g>
</g>
<!-- Node1&#45;&gt;Node2 -->
<g id="edge1" class="edge">
<title>Node1&#45;&gt;Node2</title>
<path fill="none" stroke="#191970" d="M54.9557,-27.5C62.5471,-27.5 71.2627,-27.5 80.5113,-27.5"/>
<polygon fill="#191970" stroke="#191970" points="80.7283,-31.0001 90.7282,-27.5 80.7282,-24.0001 80.7283,-31.0001"/>
</g>
<!-- Node3 -->
<g id="node3" class="node">
<title>Node3</title>
<g id="a_node3"><a xlink:href="classlocomotor_1_1components_1_1types_1_1_c_set_graph.html#a4687a55c850a2425f7c0a45169e8d688" target="_top" xlink:title="getDiameter">
<polygon fill="#ffffff" stroke="#000000" points="315.7822,-37.5 315.7822,-55.5 386.25,-55.5 386.25,-37.5 315.7822,-37.5"/>
<text text-anchor="middle" x="351.0161" y="-43.5" font-family="Helvetica,sans-Serif" font-size="10.00" fill="#000000">getDiameter</text>
</a>
</g>
</g>
<!-- Node2&#45;&gt;Node3 -->
<g id="edge2" class="edge">
<title>Node2&#45;&gt;Node3</title>
<path fill="none" stroke="#191970" d="M279.7949,-38.332C288.7873,-39.3633 297.5935,-40.3732 305.778,-41.3119"/>
<polygon fill="#191970" stroke="#191970" points="305.4463,-44.7967 315.78,-42.459 306.2439,-37.8423 305.4463,-44.7967"/>
</g>
<!-- Node4 -->
<g id="node4" class="node">
<title>Node4</title>
<g id="a_node4"><a xlink:href="classlocomotor_1_1components_1_1types_1_1_c_set_graph.html#a02a5132b9af1582e9f0759ed798cbca0" target="_top" xlink:title="distance">
<polygon fill="#ffffff" stroke="#000000" points="324.3931,-.5 324.3931,-18.5 377.6392,-18.5 377.6392,-.5 324.3931,-.5"/>
<text text-anchor="middle" x="351.0161" y="-6.5" font-family="Helvetica,sans-Serif" font-size="10.00" fill="#000000">distance</text>
</a>
</g>
</g>
<!-- Node2&#45;&gt;Node4 -->
<g id="edge3" class="edge">
<title>Node2&#45;&gt;Node4</title>
<path fill="none" stroke="#191970" d="M279.7949,-17.2381C291.8756,-15.9255 303.6202,-14.6495 313.9731,-13.5247"/>
<polygon fill="#191970" stroke="#191970" points="314.6505,-16.9718 324.2139,-12.412 313.8944,-10.0127 314.6505,-16.9718"/>
</g>
</g>
</svg>
