<?xml version="1.0" encoding="UTF-8" standalone="no"?>
<!DOCTYPE svg PUBLIC "-//W3C//DTD SVG 1.1//EN"
 "http://www.w3.org/Graphics/SVG/1.1/DTD/svg11.dtd">
<!-- Generated by graphviz version 2.40.1 (20161225.0304)
 -->
<!-- Title: getCriterias Pages: 1 -->
<svg width="816pt" height="121pt"
 viewBox="0.00 0.00 815.63 121.00" xmlns="http://www.w3.org/2000/svg" xmlns:xlink="http://www.w3.org/1999/xlink">
<g id="graph0" class="graph" transform="scale(1 1) rotate(0) translate(4 117)">
<title>getCriterias</title>
<polygon fill="#ffffff" stroke="transparent" points="-4,4 -4,-117 811.6279,-117 811.6279,4 -4,4"/>
<!-- Node1 -->
<g id="node1" class="node">
<title>Node1</title>
<polygon fill="#bfbfbf" stroke="#000000" points="0,-42.5 0,-60.5 67.1279,-60.5 67.1279,-42.5 0,-42.5"/>
<text text-anchor="middle" x="33.564" y="-48.5" font-family="Helvetica,sans-Serif" font-size="10.00" fill="#000000">getCriterias</text>
</g>
<!-- Node2 -->
<g id="node2" class="node">
<title>Node2</title>
<g id="a_node2"><a xlink:href="classlocomotor_1_1components_1_1models_1_1_item_category_full.html#a50ab7c0f8e4a65f80ca141f1fa1c7df8" target="_top" xlink:title="locomotor.components.models.\lItemCategoryFull.fromJSON">
<polygon fill="#ffffff" stroke="#000000" points="103.1279,-84.5 103.1279,-112.5 257.5361,-112.5 257.5361,-84.5 103.1279,-84.5"/>
<text text-anchor="start" x="111.1279" y="-100.5" font-family="Helvetica,sans-Serif" font-size="10.00" fill="#000000">locomotor.components.models.</text>
<text text-anchor="middle" x="180.332" y="-90.5" font-family="Helvetica,sans-Serif" font-size="10.00" fill="#000000">ItemCategoryFull.fromJSON</text>
</a>
</g>
</g>
<!-- Node1&#45;&gt;Node2 -->
<g id="edge1" class="edge">
<title>Node1&#45;&gt;Node2</title>
<path fill="none" stroke="#191970" d="M68.6267,-63.9232C79.6373,-67.7365 91.8598,-71.8796 103.1279,-75.5 112.4486,-78.4947 122.4444,-81.5713 132.0493,-84.4612"/>
<polygon fill="#191970" stroke="#191970" points="69.5127,-60.5256 58.9179,-60.5384 67.2082,-67.1354 69.5127,-60.5256"/>
</g>
<!-- Node6 -->
<g id="node6" class="node">
<title>Node6</title>
<g id="a_node6"><a xlink:href="classlocomotor_1_1components_1_1models_1_1_user_category.html#a52e02970889790bace019e61fb256ff0" target="_top" xlink:title="locomotor.components.models.\lUserCategory.fromJSON">
<polygon fill="#ffffff" stroke="#000000" points="103.1279,-37.5 103.1279,-65.5 257.5361,-65.5 257.5361,-37.5 103.1279,-37.5"/>
<text text-anchor="start" x="111.1279" y="-53.5" font-family="Helvetica,sans-Serif" font-size="10.00" fill="#000000">locomotor.components.models.</text>
<text text-anchor="middle" x="180.332" y="-43.5" font-family="Helvetica,sans-Serif" font-size="10.00" fill="#000000">UserCategory.fromJSON</text>
</a>
</g>
</g>
<!-- Node1&#45;&gt;Node6 -->
<g id="edge5" class="edge">
<title>Node1&#45;&gt;Node6</title>
<path fill="none" stroke="#191970" d="M77.4714,-51.5C85.5391,-51.5 94.1768,-51.5 102.891,-51.5"/>
<polygon fill="#191970" stroke="#191970" points="77.2356,-48.0001 67.2355,-51.5 77.2355,-55.0001 77.2356,-48.0001"/>
</g>
<!-- Node8 -->
<g id="node8" class="node">
<title>Node8</title>
<g id="a_node8"><a xlink:href="classlocomotor_1_1core_1_1_d_b_h.html#a6856661b356e5441d182e061ef940aaf" target="_top" xlink:title="locomotor.core.DBH.getItems">
<polygon fill="#ffffff" stroke="#000000" points="297.4351,-.5 297.4351,-18.5 444.0454,-18.5 444.0454,-.5 297.4351,-.5"/>
<text text-anchor="middle" x="370.7402" y="-6.5" font-family="Helvetica,sans-Serif" font-size="10.00" fill="#000000">locomotor.core.DBH.getItems</text>
</a>
</g>
</g>
<!-- Node1&#45;&gt;Node8 -->
<g id="edge8" class="edge">
<title>Node1&#45;&gt;Node8</title>
<path fill="none" stroke="#191970" d="M64.5426,-38.8419C76.417,-34.5159 90.2149,-30.1134 103.1279,-27.5 167.9369,-14.3835 243.1869,-10.2799 297.3546,-9.2262"/>
<polygon fill="#191970" stroke="#191970" points="63.1994,-35.6079 55.0822,-42.4169 65.6738,-42.156 63.1994,-35.6079"/>
</g>
<!-- Node3 -->
<g id="node3" class="node">
<title>Node3</title>
<g id="a_node3"><a xlink:href="classlocomotor_1_1components_1_1models_1_1_item_full.html#afe56c5f49cb59d04ec69bbf32b58a2f8" target="_top" xlink:title="locomotor.components.models.\lItemFull.fromJSON">
<polygon fill="#ffffff" stroke="#000000" points="293.5361,-84.5 293.5361,-112.5 447.9443,-112.5 447.9443,-84.5 293.5361,-84.5"/>
<text text-anchor="start" x="301.5361" y="-100.5" font-family="Helvetica,sans-Serif" font-size="10.00" fill="#000000">locomotor.components.models.</text>
<text text-anchor="middle" x="370.7402" y="-90.5" font-family="Helvetica,sans-Serif" font-size="10.00" fill="#000000">ItemFull.fromJSON</text>
</a>
</g>
</g>
<!-- Node2&#45;&gt;Node3 -->
<g id="edge2" class="edge">
<title>Node2&#45;&gt;Node3</title>
<path fill="none" stroke="#191970" d="M268.0324,-98.5C276.486,-98.5 285.019,-98.5 293.3626,-98.5"/>
<polygon fill="#191970" stroke="#191970" points="267.7784,-95.0001 257.7783,-98.5 267.7783,-102.0001 267.7784,-95.0001"/>
</g>
<!-- Node4 -->
<g id="node4" class="node">
<title>Node4</title>
<g id="a_node4"><a xlink:href="classlocomotor_1_1components_1_1network_1_1_a_p_i.html#a547463fbc7fb7b485886f0917e2c0b78" target="_top" xlink:title="locomotor.components.network.\lAPI.createHooks">
<polygon fill="#ffffff" stroke="#000000" points="483.9443,-37.5 483.9443,-65.5 641.1309,-65.5 641.1309,-37.5 483.9443,-37.5"/>
<text text-anchor="start" x="491.9443" y="-53.5" font-family="Helvetica,sans-Serif" font-size="10.00" fill="#000000">locomotor.components.network.</text>
<text text-anchor="middle" x="562.5376" y="-43.5" font-family="Helvetica,sans-Serif" font-size="10.00" fill="#000000">API.createHooks</text>
</a>
</g>
</g>
<!-- Node3&#45;&gt;Node4 -->
<g id="edge3" class="edge">
<title>Node3&#45;&gt;Node4</title>
<path fill="none" stroke="#191970" d="M437.9388,-82.033C459.893,-76.6531 484.0577,-70.7315 505.2159,-65.5467"/>
<polygon fill="#191970" stroke="#191970" points="436.9055,-78.6825 428.026,-84.4621 438.5717,-85.4814 436.9055,-78.6825"/>
</g>
<!-- Node5 -->
<g id="node5" class="node">
<title>Node5</title>
<g id="a_node5"><a xlink:href="classlocomotor_1_1core_1_1_main.html#a8b260eecbaabcef8473fd87ada040682" target="_top" xlink:title="locomotor.core.Main.main">
<polygon fill="#ffffff" stroke="#000000" points="677.1309,-42.5 677.1309,-60.5 807.6279,-60.5 807.6279,-42.5 677.1309,-42.5"/>
<text text-anchor="middle" x="742.3794" y="-48.5" font-family="Helvetica,sans-Serif" font-size="10.00" fill="#000000">locomotor.core.Main.main</text>
</a>
</g>
</g>
<!-- Node4&#45;&gt;Node5 -->
<g id="edge4" class="edge">
<title>Node4&#45;&gt;Node5</title>
<path fill="none" stroke="#191970" d="M651.3306,-51.5C660.0189,-51.5 668.7213,-51.5 677.1131,-51.5"/>
<polygon fill="#191970" stroke="#191970" points="651.1572,-48.0001 641.1572,-51.5 651.1572,-55.0001 651.1572,-48.0001"/>
</g>
<!-- Node7 -->
<g id="node7" class="node">
<title>Node7</title>
<g id="a_node7"><a xlink:href="classlocomotor_1_1components_1_1models_1_1_user_item.html#ab97f79cf43a9a73bcd77cec6b449a79a" target="_top" xlink:title="locomotor.components.models.\lUserItem.fromJSON">
<polygon fill="#ffffff" stroke="#000000" points="293.5361,-37.5 293.5361,-65.5 447.9443,-65.5 447.9443,-37.5 293.5361,-37.5"/>
<text text-anchor="start" x="301.5361" y="-53.5" font-family="Helvetica,sans-Serif" font-size="10.00" fill="#000000">locomotor.components.models.</text>
<text text-anchor="middle" x="370.7402" y="-43.5" font-family="Helvetica,sans-Serif" font-size="10.00" fill="#000000">UserItem.fromJSON</text>
</a>
</g>
</g>
<!-- Node6&#45;&gt;Node7 -->
<g id="edge6" class="edge">
<title>Node6&#45;&gt;Node7</title>
<path fill="none" stroke="#191970" d="M268.0324,-51.5C276.486,-51.5 285.019,-51.5 293.3626,-51.5"/>
<polygon fill="#191970" stroke="#191970" points="267.7784,-48.0001 257.7783,-51.5 267.7783,-55.0001 267.7784,-48.0001"/>
</g>
<!-- Node7&#45;&gt;Node4 -->
<g id="edge7" class="edge">
<title>Node7&#45;&gt;Node4</title>
<path fill="none" stroke="#191970" d="M458.4649,-51.5C466.9308,-51.5 475.4823,-51.5 483.8528,-51.5"/>
<polygon fill="#191970" stroke="#191970" points="458.1987,-48.0001 448.1987,-51.5 458.1987,-55.0001 458.1987,-48.0001"/>
</g>
<!-- Node8&#45;&gt;Node4 -->
<g id="edge9" class="edge">
<title>Node8&#45;&gt;Node4</title>
<path fill="none" stroke="#191970" d="M421.6706,-20.6528C445.2245,-25.8107 473.457,-31.993 498.4417,-37.4642"/>
<polygon fill="#191970" stroke="#191970" points="422.4028,-17.2303 411.8856,-18.5101 420.9054,-24.0682 422.4028,-17.2303"/>
</g>
</g>
</svg>
