<?xml version="1.0" encoding="UTF-8" standalone="no"?>
<!DOCTYPE svg PUBLIC "-//W3C//DTD SVG 1.1//EN"
 "http://www.w3.org/Graphics/SVG/1.1/DTD/svg11.dtd">
<!-- Generated by graphviz version 2.40.1 (20161225.0304)
 -->
<!-- Title: fromJSON Pages: 1 -->
<svg width="1188pt" height="84pt"
 viewBox="0.00 0.00 1188.45 84.00" xmlns="http://www.w3.org/2000/svg" xmlns:xlink="http://www.w3.org/1999/xlink">
<g id="graph0" class="graph" transform="scale(1 1) rotate(0) translate(4 80)">
<title>fromJSON</title>
<polygon fill="#ffffff" stroke="transparent" points="-4,4 -4,-80 1184.4463,-80 1184.4463,4 -4,4"/>
<!-- Node1 -->
<g id="node1" class="node">
<title>Node1</title>
<polygon fill="#bfbfbf" stroke="#000000" points="0,-28.5 0,-46.5 62.6699,-46.5 62.6699,-28.5 0,-28.5"/>
<text text-anchor="middle" x="31.335" y="-34.5" font-family="Helvetica,sans-Serif" font-size="10.00" fill="#000000">fromJSON</text>
</g>
<!-- Node1&#45;&gt;Node1 -->
<g id="edge1" class="edge">
<title>Node1&#45;&gt;Node1</title>
<path fill="none" stroke="#191970" d="M4.7249,-55.0926C5.1353,-60.6312 14.0053,-65 31.335,-65 57.1279,-65 64.1807,-55.322 52.4933,-46.5134"/>
<polygon fill="#191970" stroke="#191970" points="7.7673,-56.8307 10.1767,-46.5134 1.8592,-53.0763 7.7673,-56.8307"/>
</g>
<!-- Node2 -->
<g id="node2" class="node">
<title>Node2</title>
<g id="a_node2"><a xlink:href="classlocomotor_1_1components_1_1types_1_1_type_factory.html#a8827604831ff8a1764b7639c82820497" target="_top" xlink:title="locomotor.components.types.\lTypeFactory.getItemFromJson">
<polygon fill="#ffffff" stroke="#000000" points="98.6699,-47.5 98.6699,-75.5 249.5381,-75.5 249.5381,-47.5 98.6699,-47.5"/>
<text text-anchor="start" x="106.6699" y="-63.5" font-family="Helvetica,sans-Serif" font-size="10.00" fill="#000000">locomotor.components.types.</text>
<text text-anchor="middle" x="174.104" y="-53.5" font-family="Helvetica,sans-Serif" font-size="10.00" fill="#000000">TypeFactory.getItemFromJson</text>
</a>
</g>
</g>
<!-- Node1&#45;&gt;Node2 -->
<g id="edge2" class="edge">
<title>Node1&#45;&gt;Node2</title>
<path fill="none" stroke="#191970" d="M73.14,-44.5276C81.1346,-45.8715 89.7305,-47.3165 98.4117,-48.7758"/>
<polygon fill="#191970" stroke="#191970" points="73.4619,-41.0327 63.02,-42.8264 72.3014,-47.9358 73.4619,-41.0327"/>
</g>
<!-- Node8 -->
<g id="node8" class="node">
<title>Node8</title>
<g id="a_node8"><a xlink:href="classlocomotor_1_1components_1_1types_1_1_type_factory.html#a1a64701bf13afa82b6b32bf422a171e2" target="_top" xlink:title="locomotor.components.types.\lTypeFactory.getUser">
<polygon fill="#ffffff" stroke="#000000" points="101.0674,-.5 101.0674,-28.5 247.1406,-28.5 247.1406,-.5 101.0674,-.5"/>
<text text-anchor="start" x="109.0674" y="-16.5" font-family="Helvetica,sans-Serif" font-size="10.00" fill="#000000">locomotor.components.types.</text>
<text text-anchor="middle" x="174.104" y="-6.5" font-family="Helvetica,sans-Serif" font-size="10.00" fill="#000000">TypeFactory.getUser</text>
</a>
</g>
</g>
<!-- Node1&#45;&gt;Node8 -->
<g id="edge8" class="edge">
<title>Node1&#45;&gt;Node8</title>
<path fill="none" stroke="#191970" d="M73.0084,-30.7864C81.8417,-29.3634 91.4139,-27.8213 101.0269,-26.2727"/>
<polygon fill="#191970" stroke="#191970" points="72.336,-27.3495 63.02,-32.3956 73.4494,-34.2604 72.336,-27.3495"/>
</g>
<!-- Node3 -->
<g id="node3" class="node">
<title>Node3</title>
<g id="a_node3"><a xlink:href="classlocomotor_1_1components_1_1models_1_1_item_criteria_full.html#a436730a3499b6d7b1d0359e12aa2f04a" target="_top" xlink:title="locomotor.components.models.\lItemCriteriaFull.fromJSON">
<polygon fill="#ffffff" stroke="#000000" points="285.5381,-47.5 285.5381,-75.5 439.9463,-75.5 439.9463,-47.5 285.5381,-47.5"/>
<text text-anchor="start" x="293.5381" y="-63.5" font-family="Helvetica,sans-Serif" font-size="10.00" fill="#000000">locomotor.components.models.</text>
<text text-anchor="middle" x="362.7422" y="-53.5" font-family="Helvetica,sans-Serif" font-size="10.00" fill="#000000">ItemCriteriaFull.fromJSON</text>
</a>
</g>
</g>
<!-- Node2&#45;&gt;Node3 -->
<g id="edge3" class="edge">
<title>Node2&#45;&gt;Node3</title>
<path fill="none" stroke="#191970" d="M259.9583,-61.5C268.3845,-61.5 276.9015,-61.5 285.2375,-61.5"/>
<polygon fill="#191970" stroke="#191970" points="259.7435,-58.0001 249.7434,-61.5 259.7434,-65.0001 259.7435,-58.0001"/>
</g>
<!-- Node4 -->
<g id="node4" class="node">
<title>Node4</title>
<g id="a_node4"><a xlink:href="classlocomotor_1_1components_1_1models_1_1_item_category_full.html#a50ab7c0f8e4a65f80ca141f1fa1c7df8" target="_top" xlink:title="locomotor.components.models.\lItemCategoryFull.fromJSON">
<polygon fill="#ffffff" stroke="#000000" points="475.9463,-47.5 475.9463,-75.5 630.3545,-75.5 630.3545,-47.5 475.9463,-47.5"/>
<text text-anchor="start" x="483.9463" y="-63.5" font-family="Helvetica,sans-Serif" font-size="10.00" fill="#000000">locomotor.components.models.</text>
<text text-anchor="middle" x="553.1504" y="-53.5" font-family="Helvetica,sans-Serif" font-size="10.00" fill="#000000">ItemCategoryFull.fromJSON</text>
</a>
</g>
</g>
<!-- Node3&#45;&gt;Node4 -->
<g id="edge4" class="edge">
<title>Node3&#45;&gt;Node4</title>
<path fill="none" stroke="#191970" d="M450.4426,-61.5C458.8962,-61.5 467.4292,-61.5 475.7727,-61.5"/>
<polygon fill="#191970" stroke="#191970" points="450.1885,-58.0001 440.1885,-61.5 450.1885,-65.0001 450.1885,-58.0001"/>
</g>
<!-- Node5 -->
<g id="node5" class="node">
<title>Node5</title>
<g id="a_node5"><a xlink:href="classlocomotor_1_1components_1_1models_1_1_item_full.html#afe56c5f49cb59d04ec69bbf32b58a2f8" target="_top" xlink:title="locomotor.components.models.\lItemFull.fromJSON">
<polygon fill="#ffffff" stroke="#000000" points="666.3545,-47.5 666.3545,-75.5 820.7627,-75.5 820.7627,-47.5 666.3545,-47.5"/>
<text text-anchor="start" x="674.3545" y="-63.5" font-family="Helvetica,sans-Serif" font-size="10.00" fill="#000000">locomotor.components.models.</text>
<text text-anchor="middle" x="743.5586" y="-53.5" font-family="Helvetica,sans-Serif" font-size="10.00" fill="#000000">ItemFull.fromJSON</text>
</a>
</g>
</g>
<!-- Node4&#45;&gt;Node5 -->
<g id="edge5" class="edge">
<title>Node4&#45;&gt;Node5</title>
<path fill="none" stroke="#191970" d="M640.8508,-61.5C649.3044,-61.5 657.8374,-61.5 666.1809,-61.5"/>
<polygon fill="#191970" stroke="#191970" points="640.5967,-58.0001 630.5967,-61.5 640.5967,-65.0001 640.5967,-58.0001"/>
</g>
<!-- Node6 -->
<g id="node6" class="node">
<title>Node6</title>
<g id="a_node6"><a xlink:href="classlocomotor_1_1components_1_1network_1_1_a_p_i.html#a547463fbc7fb7b485886f0917e2c0b78" target="_top" xlink:title="locomotor.components.network.\lAPI.createHooks">
<polygon fill="#ffffff" stroke="#000000" points="856.7627,-23.5 856.7627,-51.5 1013.9492,-51.5 1013.9492,-23.5 856.7627,-23.5"/>
<text text-anchor="start" x="864.7627" y="-39.5" font-family="Helvetica,sans-Serif" font-size="10.00" fill="#000000">locomotor.components.network.</text>
<text text-anchor="middle" x="935.356" y="-29.5" font-family="Helvetica,sans-Serif" font-size="10.00" fill="#000000">API.createHooks</text>
</a>
</g>
</g>
<!-- Node5&#45;&gt;Node6 -->
<g id="edge6" class="edge">
<title>Node5&#45;&gt;Node6</title>
<path fill="none" stroke="#191970" d="M831.0042,-50.5578C839.5612,-49.487 848.2086,-48.4049 856.6712,-47.346"/>
<polygon fill="#191970" stroke="#191970" points="830.5051,-47.0928 821.0171,-51.8075 831.3743,-54.0387 830.5051,-47.0928"/>
</g>
<!-- Node7 -->
<g id="node7" class="node">
<title>Node7</title>
<g id="a_node7"><a xlink:href="classlocomotor_1_1core_1_1_main.html#a8b260eecbaabcef8473fd87ada040682" target="_top" xlink:title="locomotor.core.Main.main">
<polygon fill="#ffffff" stroke="#000000" points="1049.9492,-28.5 1049.9492,-46.5 1180.4463,-46.5 1180.4463,-28.5 1049.9492,-28.5"/>
<text text-anchor="middle" x="1115.1978" y="-34.5" font-family="Helvetica,sans-Serif" font-size="10.00" fill="#000000">locomotor.core.Main.main</text>
</a>
</g>
</g>
<!-- Node6&#45;&gt;Node7 -->
<g id="edge7" class="edge">
<title>Node6&#45;&gt;Node7</title>
<path fill="none" stroke="#191970" d="M1024.149,-37.5C1032.8373,-37.5 1041.5396,-37.5 1049.9315,-37.5"/>
<polygon fill="#191970" stroke="#191970" points="1023.9756,-34.0001 1013.9756,-37.5 1023.9755,-41.0001 1023.9756,-34.0001"/>
</g>
<!-- Node9 -->
<g id="node9" class="node">
<title>Node9</title>
<g id="a_node9"><a xlink:href="classlocomotor_1_1components_1_1models_1_1_user_criteria.html#aaca1c5ec640a1453943ce97d40e12a63" target="_top" xlink:title="locomotor.components.models.\lUserCriteria.fromJSON">
<polygon fill="#ffffff" stroke="#000000" points="285.5381,-.5 285.5381,-28.5 439.9463,-28.5 439.9463,-.5 285.5381,-.5"/>
<text text-anchor="start" x="293.5381" y="-16.5" font-family="Helvetica,sans-Serif" font-size="10.00" fill="#000000">locomotor.components.models.</text>
<text text-anchor="middle" x="362.7422" y="-6.5" font-family="Helvetica,sans-Serif" font-size="10.00" fill="#000000">UserCriteria.fromJSON</text>
</a>
</g>
</g>
<!-- Node8&#45;&gt;Node9 -->
<g id="edge9" class="edge">
<title>Node8&#45;&gt;Node9</title>
<path fill="none" stroke="#191970" d="M257.3855,-14.5C266.7436,-14.5 276.2486,-14.5 285.5252,-14.5"/>
<polygon fill="#191970" stroke="#191970" points="257.3065,-11.0001 247.3064,-14.5 257.3064,-18.0001 257.3065,-11.0001"/>
</g>
<!-- Node10 -->
<g id="node10" class="node">
<title>Node10</title>
<g id="a_node10"><a xlink:href="classlocomotor_1_1components_1_1models_1_1_user_category.html#a52e02970889790bace019e61fb256ff0" target="_top" xlink:title="locomotor.components.models.\lUserCategory.fromJSON">
<polygon fill="#ffffff" stroke="#000000" points="475.9463,-.5 475.9463,-28.5 630.3545,-28.5 630.3545,-.5 475.9463,-.5"/>
<text text-anchor="start" x="483.9463" y="-16.5" font-family="Helvetica,sans-Serif" font-size="10.00" fill="#000000">locomotor.components.models.</text>
<text text-anchor="middle" x="553.1504" y="-6.5" font-family="Helvetica,sans-Serif" font-size="10.00" fill="#000000">UserCategory.fromJSON</text>
</a>
</g>
</g>
<!-- Node9&#45;&gt;Node10 -->
<g id="edge10" class="edge">
<title>Node9&#45;&gt;Node10</title>
<path fill="none" stroke="#191970" d="M450.4426,-14.5C458.8962,-14.5 467.4292,-14.5 475.7727,-14.5"/>
<polygon fill="#191970" stroke="#191970" points="450.1885,-11.0001 440.1885,-14.5 450.1885,-18.0001 450.1885,-11.0001"/>
</g>
<!-- Node11 -->
<g id="node11" class="node">
<title>Node11</title>
<g id="a_node11"><a xlink:href="classlocomotor_1_1components_1_1models_1_1_user_item.html#ab97f79cf43a9a73bcd77cec6b449a79a" target="_top" xlink:title="locomotor.components.models.\lUserItem.fromJSON">
<polygon fill="#ffffff" stroke="#000000" points="666.3545,-.5 666.3545,-28.5 820.7627,-28.5 820.7627,-.5 666.3545,-.5"/>
<text text-anchor="start" x="674.3545" y="-16.5" font-family="Helvetica,sans-Serif" font-size="10.00" fill="#000000">locomotor.components.models.</text>
<text text-anchor="middle" x="743.5586" y="-6.5" font-family="Helvetica,sans-Serif" font-size="10.00" fill="#000000">UserItem.fromJSON</text>
</a>
</g>
</g>
<!-- Node10&#45;&gt;Node11 -->
<g id="edge11" class="edge">
<title>Node10&#45;&gt;Node11</title>
<path fill="none" stroke="#191970" d="M640.8508,-14.5C649.3044,-14.5 657.8374,-14.5 666.1809,-14.5"/>
<polygon fill="#191970" stroke="#191970" points="640.5967,-11.0001 630.5967,-14.5 640.5967,-18.0001 640.5967,-11.0001"/>
</g>
<!-- Node11&#45;&gt;Node6 -->
<g id="edge12" class="edge">
<title>Node11&#45;&gt;Node6</title>
<path fill="none" stroke="#191970" d="M831.0042,-24.9863C839.5612,-26.0125 848.2086,-27.0494 856.6712,-28.0643"/>
<polygon fill="#191970" stroke="#191970" points="831.3627,-21.5043 821.0171,-23.7887 830.5292,-28.4545 831.3627,-21.5043"/>
</g>
</g>
</svg>
