<?xml version="1.0" encoding="UTF-8" standalone="no"?>
<!DOCTYPE svg PUBLIC "-//W3C//DTD SVG 1.1//EN"
 "http://www.w3.org/Graphics/SVG/1.1/DTD/svg11.dtd">
<!-- Generated by graphviz version 2.40.1 (20161225.0304)
 -->
<!-- Title: CSetGraph Pages: 1 -->
<svg width="190pt" height="137pt"
 viewBox="0.00 0.00 189.95 137.00" xmlns="http://www.w3.org/2000/svg" xmlns:xlink="http://www.w3.org/1999/xlink">
<g id="graph0" class="graph" transform="scale(1 1) rotate(0) translate(4 133)">
<title>CSetGraph</title>
<polygon fill="#ffffff" stroke="transparent" points="-4,4 -4,-133 185.9546,-133 185.9546,4 -4,4"/>
<!-- Node1 -->
<g id="node1" class="node">
<title>Node1</title>
<polygon fill="#bfbfbf" stroke="#000000" points="63.3374,-55.5 63.3374,-73.5 129.3618,-73.5 129.3618,-55.5 63.3374,-55.5"/>
<text text-anchor="middle" x="96.3496" y="-61.5" font-family="Helvetica,sans-Serif" font-size="10.00" fill="#000000">CSetGraph</text>
</g>
<!-- Node3 -->
<g id="node3" class="node">
<title>Node3</title>
<g id="a_node3"><a xlink:href="classlocomotor_1_1components_1_1types_1_1_c_graph_string_list.html" target="_top" xlink:title="CGraphStringList">
<polygon fill="#ffffff" stroke="#000000" points="0,-.5 0,-18.5 92.6992,-18.5 92.6992,-.5 0,-.5"/>
<text text-anchor="middle" x="46.3496" y="-6.5" font-family="Helvetica,sans-Serif" font-size="10.00" fill="#000000">CGraphStringList</text>
</a>
</g>
</g>
<!-- Node1&#45;&gt;Node3 -->
<g id="edge2" class="edge">
<title>Node1&#45;&gt;Node3</title>
<path fill="none" stroke="#191970" d="M81.3613,-48.0129C72.6665,-38.4485 62.0361,-26.7552 54.7855,-18.7795"/>
<polygon fill="#191970" stroke="#191970" points="78.7766,-50.3728 88.0931,-55.4179 83.9562,-45.6641 78.7766,-50.3728"/>
</g>
<!-- Node4 -->
<g id="node4" class="node">
<title>Node4</title>
<g id="a_node4"><a xlink:href="classlocomotor_1_1components_1_1types_1_1_c_graph_tree.html" target="_top" xlink:title="CGraphTree">
<polygon fill="#ffffff" stroke="#000000" points="110.7446,-.5 110.7446,-18.5 181.9546,-18.5 181.9546,-.5 110.7446,-.5"/>
<text text-anchor="middle" x="146.3496" y="-6.5" font-family="Helvetica,sans-Serif" font-size="10.00" fill="#000000">CGraphTree</text>
</a>
</g>
</g>
<!-- Node1&#45;&gt;Node4 -->
<g id="edge3" class="edge">
<title>Node1&#45;&gt;Node4</title>
<path fill="none" stroke="#191970" d="M111.3379,-48.0129C120.0328,-38.4485 130.6631,-26.7552 137.9137,-18.7795"/>
<polygon fill="#191970" stroke="#191970" points="108.7431,-45.6641 104.6061,-55.4179 113.9227,-50.3728 108.7431,-45.6641"/>
</g>
<!-- Node2 -->
<g id="node2" class="node">
<title>Node2</title>
<g id="a_node2"><a xlink:href="interfacelocomotor_1_1components_1_1_j_s_o_n_displayable.html" target="_top" xlink:title="JSONDisplayable">
<polygon fill="#ffffff" stroke="#000000" points="49.1675,-110.5 49.1675,-128.5 143.5317,-128.5 143.5317,-110.5 49.1675,-110.5"/>
<text text-anchor="middle" x="96.3496" y="-116.5" font-family="Helvetica,sans-Serif" font-size="10.00" fill="#000000">JSONDisplayable</text>
</a>
</g>
</g>
<!-- Node2&#45;&gt;Node1 -->
<g id="edge1" class="edge">
<title>Node2&#45;&gt;Node1</title>
<path fill="none" stroke="#191970" d="M96.3496,-100.383C96.3496,-91.3738 96.3496,-81.0373 96.3496,-73.7795"/>
<polygon fill="#191970" stroke="#191970" points="92.8497,-100.4178 96.3496,-110.4179 99.8497,-100.4179 92.8497,-100.4178"/>
</g>
</g>
</svg>
