<?xml version="1.0" encoding="UTF-8" standalone="no"?>
<!DOCTYPE svg PUBLIC "-//W3C//DTD SVG 1.1//EN"
 "http://www.w3.org/Graphics/SVG/1.1/DTD/svg11.dtd">
<!-- Generated by graphviz version 2.40.1 (20161225.0304)
 -->
<!-- Title: getItem Pages: 1 -->
<svg width="604pt" height="173pt"
 viewBox="0.00 0.00 603.57 173.00" xmlns="http://www.w3.org/2000/svg" xmlns:xlink="http://www.w3.org/1999/xlink">
<g id="graph0" class="graph" transform="scale(1 1) rotate(0) translate(4 169)">
<title>getItem</title>
<polygon fill="#ffffff" stroke="transparent" points="-4,4 -4,-169 599.5693,-169 599.5693,4 -4,4"/>
<!-- Node1 -->
<g id="node1" class="node">
<title>Node1</title>
<polygon fill="#bfbfbf" stroke="#000000" points="0,-70.5 0,-88.5 49.3496,-88.5 49.3496,-70.5 0,-70.5"/>
<text text-anchor="middle" x="24.6748" y="-76.5" font-family="Helvetica,sans-Serif" font-size="10.00" fill="#000000">getItem</text>
</g>
<!-- Node2 -->
<g id="node2" class="node">
<title>Node2</title>
<g id="a_node2"><a xlink:href="classlocomotor_1_1components_1_1types_1_1_c_interval.html#a8977ca8c87b00639da116d1441a878ec" target="_top" xlink:title="locomotor.components.types.\lCInterval.min">
<polygon fill="#ffffff" stroke="#000000" points="85.3496,-136.5 85.3496,-164.5 231.4229,-164.5 231.4229,-136.5 85.3496,-136.5"/>
<text text-anchor="start" x="93.3496" y="-152.5" font-family="Helvetica,sans-Serif" font-size="10.00" fill="#000000">locomotor.components.types.</text>
<text text-anchor="middle" x="158.3862" y="-142.5" font-family="Helvetica,sans-Serif" font-size="10.00" fill="#000000">CInterval.min</text>
</a>
</g>
</g>
<!-- Node1&#45;&gt;Node2 -->
<g id="edge1" class="edge">
<title>Node1&#45;&gt;Node2</title>
<path fill="none" stroke="#191970" d="M34.186,-88.8715C45.5107,-99.5657 65.41,-116.9364 85.3496,-127.5 88.8187,-129.3378 92.4593,-131.0577 96.1857,-132.6624"/>
<polygon fill="#191970" stroke="#191970" points="94.9917,-135.9544 105.5765,-136.4156 97.5896,-129.4543 94.9917,-135.9544"/>
</g>
<!-- Node3 -->
<g id="node3" class="node">
<title>Node3</title>
<g id="a_node3"><a xlink:href="classlocomotor_1_1components_1_1types_1_1_c_interval.html#a63edd36c00e0027edd899384e6f168f9" target="_top" xlink:title="locomotor.components.types.\lCInterval.max">
<polygon fill="#ffffff" stroke="#000000" points="85.3496,-89.5 85.3496,-117.5 231.4229,-117.5 231.4229,-89.5 85.3496,-89.5"/>
<text text-anchor="start" x="93.3496" y="-105.5" font-family="Helvetica,sans-Serif" font-size="10.00" fill="#000000">locomotor.components.types.</text>
<text text-anchor="middle" x="158.3862" y="-95.5" font-family="Helvetica,sans-Serif" font-size="10.00" fill="#000000">CInterval.max</text>
</a>
</g>
</g>
<!-- Node1&#45;&gt;Node3 -->
<g id="edge2" class="edge">
<title>Node1&#45;&gt;Node3</title>
<path fill="none" stroke="#191970" d="M49.5115,-83.958C57.0545,-85.3119 65.7975,-86.8812 74.9855,-88.5303"/>
<polygon fill="#191970" stroke="#191970" points="74.6331,-92.0229 85.0942,-90.3447 75.8698,-85.133 74.6331,-92.0229"/>
</g>
<!-- Node4 -->
<g id="node4" class="node">
<title>Node4</title>
<g id="a_node4"><a xlink:href="classlocomotor_1_1components_1_1types_1_1_c_string_list.html#ae59d20c832cfbfda160fc1108600b876" target="_top" xlink:title="locomotor.components.types.\lCStringList.getMap">
<polygon fill="#ffffff" stroke="#000000" points="85.3496,-42.5 85.3496,-70.5 231.4229,-70.5 231.4229,-42.5 85.3496,-42.5"/>
<text text-anchor="start" x="93.3496" y="-58.5" font-family="Helvetica,sans-Serif" font-size="10.00" fill="#000000">locomotor.components.types.</text>
<text text-anchor="middle" x="158.3862" y="-48.5" font-family="Helvetica,sans-Serif" font-size="10.00" fill="#000000">CStringList.getMap</text>
</a>
</g>
</g>
<!-- Node1&#45;&gt;Node4 -->
<g id="edge3" class="edge">
<title>Node1&#45;&gt;Node4</title>
<path fill="none" stroke="#191970" d="M49.5115,-75.2278C57.0545,-73.9303 65.7975,-72.4264 74.9855,-70.846"/>
<polygon fill="#191970" stroke="#191970" points="75.8323,-74.2518 85.0942,-69.1071 74.6455,-67.3531 75.8323,-74.2518"/>
</g>
<!-- Node5 -->
<g id="node5" class="node">
<title>Node5</title>
<g id="a_node5"><a xlink:href="classlocomotor_1_1components_1_1types_1_1_type_factory.html#aa1f74ce70c02a7665f32b4ec438a6c3c" target="_top" xlink:title="getTree">
<polygon fill="#ffffff" stroke="#000000" points="133.3379,-5.5 133.3379,-23.5 183.4346,-23.5 183.4346,-5.5 133.3379,-5.5"/>
<text text-anchor="middle" x="158.3862" y="-11.5" font-family="Helvetica,sans-Serif" font-size="10.00" fill="#000000">getTree</text>
</a>
</g>
</g>
<!-- Node1&#45;&gt;Node5 -->
<g id="edge4" class="edge">
<title>Node1&#45;&gt;Node5</title>
<path fill="none" stroke="#191970" d="M34.1712,-70.3659C45.4819,-59.9735 65.3681,-43.1915 85.3496,-33.5 97.1382,-27.7823 110.8614,-23.6323 123.2091,-20.6978"/>
<polygon fill="#191970" stroke="#191970" points="124.1664,-24.0712 133.1849,-18.511 122.6674,-17.2335 124.1664,-24.0712"/>
</g>
<!-- Node6 -->
<g id="node6" class="node">
<title>Node6</title>
<g id="a_node6"><a xlink:href="classlocomotor_1_1components_1_1types_1_1_c_tree.html#a74382cb3a3153edc32f1cfed8c4ee364" target="_top" xlink:title="locomotor.components.types.\lCTree.addChild">
<polygon fill="#ffffff" stroke="#000000" points="267.4229,-.5 267.4229,-28.5 413.4961,-28.5 413.4961,-.5 267.4229,-.5"/>
<text text-anchor="start" x="275.4229" y="-16.5" font-family="Helvetica,sans-Serif" font-size="10.00" fill="#000000">locomotor.components.types.</text>
<text text-anchor="middle" x="340.4595" y="-6.5" font-family="Helvetica,sans-Serif" font-size="10.00" fill="#000000">CTree.addChild</text>
</a>
</g>
</g>
<!-- Node5&#45;&gt;Node6 -->
<g id="edge5" class="edge">
<title>Node5&#45;&gt;Node6</title>
<path fill="none" stroke="#191970" d="M183.7027,-14.5C202.8509,-14.5 230.3052,-14.5 256.9022,-14.5"/>
<polygon fill="#191970" stroke="#191970" points="257.0347,-18.0001 267.0347,-14.5 257.0346,-11.0001 257.0347,-18.0001"/>
</g>
<!-- Node7 -->
<g id="node7" class="node">
<title>Node7</title>
<g id="a_node7"><a xlink:href="classlocomotor_1_1components_1_1types_1_1_c_tree.html#af0e7a198496b1627d0ff15ce0e6de1f2" target="_top" xlink:title="locomotor.components.types.\lCTree.CTree">
<polygon fill="#ffffff" stroke="#000000" points="449.4961,-.5 449.4961,-28.5 595.5693,-28.5 595.5693,-.5 449.4961,-.5"/>
<text text-anchor="start" x="457.4961" y="-16.5" font-family="Helvetica,sans-Serif" font-size="10.00" fill="#000000">locomotor.components.types.</text>
<text text-anchor="middle" x="522.5327" y="-6.5" font-family="Helvetica,sans-Serif" font-size="10.00" fill="#000000">CTree.CTree</text>
</a>
</g>
</g>
<!-- Node6&#45;&gt;Node7 -->
<g id="edge6" class="edge">
<title>Node6&#45;&gt;Node7</title>
<path fill="none" stroke="#191970" d="M413.7286,-14.5C422.0885,-14.5 430.6564,-14.5 439.1353,-14.5"/>
<polygon fill="#191970" stroke="#191970" points="439.4136,-18.0001 449.4136,-14.5 439.4135,-11.0001 439.4136,-18.0001"/>
</g>
</g>
</svg>
