<?xml version="1.0" encoding="UTF-8" standalone="no"?>
<!DOCTYPE svg PUBLIC "-//W3C//DTD SVG 1.1//EN"
 "http://www.w3.org/Graphics/SVG/1.1/DTD/svg11.dtd">
<!-- Generated by graphviz version 2.40.1 (20161225.0304)
 -->
<!-- Title: Category Pages: 1 -->
<svg width="165pt" height="112pt"
 viewBox="0.00 0.00 165.19 112.00" xmlns="http://www.w3.org/2000/svg" xmlns:xlink="http://www.w3.org/1999/xlink">
<g id="graph0" class="graph" transform="scale(1 1) rotate(0) translate(4 108)">
<title>Category</title>
<polygon fill="#ffffff" stroke="transparent" points="-4,4 -4,-108 161.1865,-108 161.1865,4 -4,4"/>
<!-- Node1 -->
<g id="node1" class="node">
<title>Node1</title>
<polygon fill="#bfbfbf" stroke="#000000" points="50.3052,-.5 50.3052,-18.5 106.8813,-18.5 106.8813,-.5 50.3052,-.5"/>
<text text-anchor="middle" x="78.5933" y="-6.5" font-family="Helvetica,sans-Serif" font-size="10.00" fill="#000000">Category</text>
</g>
<!-- Node2 -->
<g id="node2" class="node">
<title>Node2</title>
<polygon fill="#ffffff" stroke="#bfbfbf" points="0,-65.5 0,-103.5 157.1865,-103.5 157.1865,-65.5 0,-65.5"/>
<text text-anchor="start" x="8" y="-91.5" font-family="Helvetica,sans-Serif" font-size="10.00" fill="#000000">ArrayList&lt;?extends</text>
<text text-anchor="start" x="8" y="-81.5" font-family="Helvetica,sans-Serif" font-size="10.00" fill="#000000"> locomotor.components.models.</text>
<text text-anchor="middle" x="78.5933" y="-71.5" font-family="Helvetica,sans-Serif" font-size="10.00" fill="#000000">Criteria &gt;</text>
</g>
<!-- Node2&#45;&gt;Node1 -->
<g id="edge1" class="edge">
<title>Node2&#45;&gt;Node1</title>
<path fill="none" stroke="#9a32cd" stroke-dasharray="5,2" d="M78.5933,-54.801C78.5933,-41.909 78.5933,-27.73 78.5933,-18.7294"/>
<polygon fill="#9a32cd" stroke="#9a32cd" points="75.0934,-55.1856 78.5933,-65.1856 82.0934,-55.1857 75.0934,-55.1856"/>
<text text-anchor="middle" x="100.2656" y="-39" font-family="Helvetica,sans-Serif" font-size="10.00" fill="#000000"> _criterias</text>
</g>
</g>
</svg>
