<?xml version="1.0" encoding="UTF-8" standalone="no"?>
<!DOCTYPE svg PUBLIC "-//W3C//DTD SVG 1.1//EN"
 "http://www.w3.org/Graphics/SVG/1.1/DTD/svg11.dtd">
<!-- Generated by graphviz version 2.40.1 (20161225.0304)
 -->
<!-- Title: checkingParsingUniverse Pages: 1 -->
<svg width="619pt" height="64pt"
 viewBox="0.00 0.00 618.56 64.00" xmlns="http://www.w3.org/2000/svg" xmlns:xlink="http://www.w3.org/1999/xlink">
<g id="graph0" class="graph" transform="scale(1 1) rotate(0) translate(4 60)">
<title>checkingParsingUniverse</title>
<polygon fill="#ffffff" stroke="transparent" points="-4,4 -4,-60 614.5596,-60 614.5596,4 -4,4"/>
<!-- Node1 -->
<g id="node1" class="node">
<title>Node1</title>
<polygon fill="#bfbfbf" stroke="#000000" points="0,-18.5 0,-36.5 128.832,-36.5 128.832,-18.5 0,-18.5"/>
<text text-anchor="middle" x="64.416" y="-24.5" font-family="Helvetica,sans-Serif" font-size="10.00" fill="#000000">checkingParsingUniverse</text>
</g>
<!-- Node2 -->
<g id="node2" class="node">
<title>Node2</title>
<g id="a_node2"><a xlink:href="classlocomotor_1_1core_1_1_d_b_h.html#a2b2232ca307c4877316e8b6097902f2c" target="_top" xlink:title="addUniverse">
<polygon fill="#ffffff" stroke="#000000" points="171.7827,-37.5 171.7827,-55.5 243.9253,-55.5 243.9253,-37.5 171.7827,-37.5"/>
<text text-anchor="middle" x="207.854" y="-43.5" font-family="Helvetica,sans-Serif" font-size="10.00" fill="#000000">addUniverse</text>
</a>
</g>
</g>
<!-- Node1&#45;&gt;Node2 -->
<g id="edge1" class="edge">
<title>Node1&#45;&gt;Node2</title>
<path fill="none" stroke="#191970" d="M138.9405,-37.3716C150.2552,-38.8704 161.4766,-40.3568 171.476,-41.6813"/>
<polygon fill="#191970" stroke="#191970" points="139.3747,-33.8986 129.0016,-36.0551 138.4554,-40.838 139.3747,-33.8986"/>
</g>
<!-- Node5 -->
<g id="node5" class="node">
<title>Node5</title>
<g id="a_node5"><a xlink:href="classlocomotor_1_1core_1_1_d_b_h.html#a0565ab8a7a56491fca163a1b0977c0db" target="_top" xlink:title="updateUniverse">
<polygon fill="#ffffff" stroke="#000000" points="164.832,-.5 164.832,-18.5 250.876,-18.5 250.876,-.5 164.832,-.5"/>
<text text-anchor="middle" x="207.854" y="-6.5" font-family="Helvetica,sans-Serif" font-size="10.00" fill="#000000">updateUniverse</text>
</a>
</g>
</g>
<!-- Node1&#45;&gt;Node5 -->
<g id="edge4" class="edge">
<title>Node1&#45;&gt;Node5</title>
<path fill="none" stroke="#191970" d="M139.1994,-18.1155C147.8889,-17.025 156.5184,-15.9421 164.5762,-14.9309"/>
<polygon fill="#191970" stroke="#191970" points="138.488,-14.6772 129.0016,-19.3952 139.3596,-21.6227 138.488,-14.6772"/>
</g>
<!-- Node3 -->
<g id="node3" class="node">
<title>Node3</title>
<g id="a_node3"><a xlink:href="classlocomotor_1_1components_1_1network_1_1_a_p_i.html#a547463fbc7fb7b485886f0917e2c0b78" target="_top" xlink:title="locomotor.components.network.\lAPI.createHooks">
<polygon fill="#ffffff" stroke="#000000" points="286.876,-13.5 286.876,-41.5 444.0625,-41.5 444.0625,-13.5 286.876,-13.5"/>
<text text-anchor="start" x="294.876" y="-29.5" font-family="Helvetica,sans-Serif" font-size="10.00" fill="#000000">locomotor.components.network.</text>
<text text-anchor="middle" x="365.4692" y="-19.5" font-family="Helvetica,sans-Serif" font-size="10.00" fill="#000000">API.createHooks</text>
</a>
</g>
</g>
<!-- Node2&#45;&gt;Node3 -->
<g id="edge2" class="edge">
<title>Node2&#45;&gt;Node3</title>
<path fill="none" stroke="#191970" d="M253.9952,-40.9378C264.3126,-39.6941 275.5376,-38.341 286.7599,-36.9881"/>
<polygon fill="#191970" stroke="#191970" points="253.5233,-37.4693 244.0141,-42.141 254.3612,-44.419 253.5233,-37.4693"/>
</g>
<!-- Node4 -->
<g id="node4" class="node">
<title>Node4</title>
<g id="a_node4"><a xlink:href="classlocomotor_1_1core_1_1_main.html#a8b260eecbaabcef8473fd87ada040682" target="_top" xlink:title="locomotor.core.Main.main">
<polygon fill="#ffffff" stroke="#000000" points="480.0625,-18.5 480.0625,-36.5 610.5596,-36.5 610.5596,-18.5 480.0625,-18.5"/>
<text text-anchor="middle" x="545.311" y="-24.5" font-family="Helvetica,sans-Serif" font-size="10.00" fill="#000000">locomotor.core.Main.main</text>
</a>
</g>
</g>
<!-- Node3&#45;&gt;Node4 -->
<g id="edge3" class="edge">
<title>Node3&#45;&gt;Node4</title>
<path fill="none" stroke="#191970" d="M454.2623,-27.5C462.9506,-27.5 471.6529,-27.5 480.0448,-27.5"/>
<polygon fill="#191970" stroke="#191970" points="454.0889,-24.0001 444.0888,-27.5 454.0888,-31.0001 454.0889,-24.0001"/>
</g>
<!-- Node5&#45;&gt;Node3 -->
<g id="edge5" class="edge">
<title>Node5&#45;&gt;Node3</title>
<path fill="none" stroke="#191970" d="M261.1136,-15.5824C269.3604,-16.5242 278.0257,-17.5138 286.6905,-18.5033"/>
<polygon fill="#191970" stroke="#191970" points="261.2556,-12.0759 250.9231,-14.4186 260.4613,-19.0307 261.2556,-12.0759"/>
</g>
</g>
</svg>
