<?xml version="1.0" encoding="UTF-8" standalone="no"?>
<!DOCTYPE svg PUBLIC "-//W3C//DTD SVG 1.1//EN"
 "http://www.w3.org/Graphics/SVG/1.1/DTD/svg11.dtd">
<!-- Generated by graphviz version 2.40.1 (20161225.0304)
 -->
<!-- Title: treeFromJSON Pages: 1 -->
<svg width="1396pt" height="84pt"
 viewBox="0.00 0.00 1395.50 84.00" xmlns="http://www.w3.org/2000/svg" xmlns:xlink="http://www.w3.org/1999/xlink">
<g id="graph0" class="graph" transform="scale(1 1) rotate(0) translate(4 80)">
<title>treeFromJSON</title>
<polygon fill="#ffffff" stroke="transparent" points="-4,4 -4,-80 1391.5,-80 1391.5,4 -4,4"/>
<!-- Node1 -->
<g id="node1" class="node">
<title>Node1</title>
<polygon fill="#bfbfbf" stroke="#000000" points="0,-28.5 0,-46.5 83.2314,-46.5 83.2314,-28.5 0,-28.5"/>
<text text-anchor="middle" x="41.6157" y="-34.5" font-family="Helvetica,sans-Serif" font-size="10.00" fill="#000000">treeFromJSON</text>
</g>
<!-- Node2 -->
<g id="node2" class="node">
<title>Node2</title>
<g id="a_node2"><a xlink:href="classlocomotor_1_1components_1_1types_1_1_c_mapped_string_list.html#a3834a44c64a57457335f1f296b272c79" target="_top" xlink:title="locomotor.components.types.\lCMappedStringList.fromJSON">
<polygon fill="#ffffff" stroke="#000000" points="119.2314,-23.5 119.2314,-51.5 269.7236,-51.5 269.7236,-23.5 119.2314,-23.5"/>
<text text-anchor="start" x="127.2314" y="-39.5" font-family="Helvetica,sans-Serif" font-size="10.00" fill="#000000">locomotor.components.types.</text>
<text text-anchor="middle" x="194.4775" y="-29.5" font-family="Helvetica,sans-Serif" font-size="10.00" fill="#000000">CMappedStringList.fromJSON</text>
</a>
</g>
</g>
<!-- Node1&#45;&gt;Node2 -->
<g id="edge1" class="edge">
<title>Node1&#45;&gt;Node2</title>
<path fill="none" stroke="#191970" d="M93.5183,-37.5C101.7217,-37.5 110.3467,-37.5 118.9563,-37.5"/>
<polygon fill="#191970" stroke="#191970" points="93.3859,-34.0001 83.3859,-37.5 93.3859,-41.0001 93.3859,-34.0001"/>
</g>
<!-- Node3 -->
<g id="node3" class="node">
<title>Node3</title>
<g id="a_node3"><a xlink:href="classlocomotor_1_1components_1_1types_1_1_type_factory.html#a8827604831ff8a1764b7639c82820497" target="_top" xlink:title="locomotor.components.types.\lTypeFactory.getItemFromJson">
<polygon fill="#ffffff" stroke="#000000" points="305.7236,-47.5 305.7236,-75.5 456.5918,-75.5 456.5918,-47.5 305.7236,-47.5"/>
<text text-anchor="start" x="313.7236" y="-63.5" font-family="Helvetica,sans-Serif" font-size="10.00" fill="#000000">locomotor.components.types.</text>
<text text-anchor="middle" x="381.1577" y="-53.5" font-family="Helvetica,sans-Serif" font-size="10.00" fill="#000000">TypeFactory.getItemFromJson</text>
</a>
</g>
</g>
<!-- Node2&#45;&gt;Node3 -->
<g id="edge2" class="edge">
<title>Node2&#45;&gt;Node3</title>
<path fill="none" stroke="#191970" d="M279.8497,-48.4756C288.4013,-49.575 297.0428,-50.686 305.4842,-51.7713"/>
<polygon fill="#191970" stroke="#191970" points="280.2341,-44.9963 269.8694,-47.1925 279.3415,-51.9392 280.2341,-44.9963"/>
</g>
<!-- Node9 -->
<g id="node9" class="node">
<title>Node9</title>
<g id="a_node9"><a xlink:href="classlocomotor_1_1components_1_1types_1_1_type_factory.html#a1a64701bf13afa82b6b32bf422a171e2" target="_top" xlink:title="locomotor.components.types.\lTypeFactory.getUser">
<polygon fill="#ffffff" stroke="#000000" points="308.1211,-.5 308.1211,-28.5 454.1943,-28.5 454.1943,-.5 308.1211,-.5"/>
<text text-anchor="start" x="316.1211" y="-16.5" font-family="Helvetica,sans-Serif" font-size="10.00" fill="#000000">locomotor.components.types.</text>
<text text-anchor="middle" x="381.1577" y="-6.5" font-family="Helvetica,sans-Serif" font-size="10.00" fill="#000000">TypeFactory.getUser</text>
</a>
</g>
</g>
<!-- Node2&#45;&gt;Node9 -->
<g id="edge8" class="edge">
<title>Node2&#45;&gt;Node9</title>
<path fill="none" stroke="#191970" d="M279.9458,-26.9698C289.2867,-25.819 298.7335,-24.6551 307.9084,-23.5247"/>
<polygon fill="#191970" stroke="#191970" points="279.3664,-23.5147 269.8694,-28.2113 280.2224,-30.4622 279.3664,-23.5147"/>
</g>
<!-- Node4 -->
<g id="node4" class="node">
<title>Node4</title>
<g id="a_node4"><a xlink:href="classlocomotor_1_1components_1_1models_1_1_item_criteria_full.html#a436730a3499b6d7b1d0359e12aa2f04a" target="_top" xlink:title="locomotor.components.models.\lItemCriteriaFull.fromJSON">
<polygon fill="#ffffff" stroke="#000000" points="492.5918,-47.5 492.5918,-75.5 647,-75.5 647,-47.5 492.5918,-47.5"/>
<text text-anchor="start" x="500.5918" y="-63.5" font-family="Helvetica,sans-Serif" font-size="10.00" fill="#000000">locomotor.components.models.</text>
<text text-anchor="middle" x="569.7959" y="-53.5" font-family="Helvetica,sans-Serif" font-size="10.00" fill="#000000">ItemCriteriaFull.fromJSON</text>
</a>
</g>
</g>
<!-- Node3&#45;&gt;Node4 -->
<g id="edge3" class="edge">
<title>Node3&#45;&gt;Node4</title>
<path fill="none" stroke="#191970" d="M467.012,-61.5C475.4382,-61.5 483.9552,-61.5 492.2912,-61.5"/>
<polygon fill="#191970" stroke="#191970" points="466.7972,-58.0001 456.7972,-61.5 466.7971,-65.0001 466.7972,-58.0001"/>
</g>
<!-- Node5 -->
<g id="node5" class="node">
<title>Node5</title>
<g id="a_node5"><a xlink:href="classlocomotor_1_1components_1_1models_1_1_item_category_full.html#a50ab7c0f8e4a65f80ca141f1fa1c7df8" target="_top" xlink:title="locomotor.components.models.\lItemCategoryFull.fromJSON">
<polygon fill="#ffffff" stroke="#000000" points="683,-47.5 683,-75.5 837.4082,-75.5 837.4082,-47.5 683,-47.5"/>
<text text-anchor="start" x="691" y="-63.5" font-family="Helvetica,sans-Serif" font-size="10.00" fill="#000000">locomotor.components.models.</text>
<text text-anchor="middle" x="760.2041" y="-53.5" font-family="Helvetica,sans-Serif" font-size="10.00" fill="#000000">ItemCategoryFull.fromJSON</text>
</a>
</g>
</g>
<!-- Node4&#45;&gt;Node5 -->
<g id="edge4" class="edge">
<title>Node4&#45;&gt;Node5</title>
<path fill="none" stroke="#191970" d="M657.4963,-61.5C665.9499,-61.5 674.4829,-61.5 682.8264,-61.5"/>
<polygon fill="#191970" stroke="#191970" points="657.2422,-58.0001 647.2422,-61.5 657.2422,-65.0001 657.2422,-58.0001"/>
</g>
<!-- Node6 -->
<g id="node6" class="node">
<title>Node6</title>
<g id="a_node6"><a xlink:href="classlocomotor_1_1components_1_1models_1_1_item_full.html#afe56c5f49cb59d04ec69bbf32b58a2f8" target="_top" xlink:title="locomotor.components.models.\lItemFull.fromJSON">
<polygon fill="#ffffff" stroke="#000000" points="873.4082,-47.5 873.4082,-75.5 1027.8164,-75.5 1027.8164,-47.5 873.4082,-47.5"/>
<text text-anchor="start" x="881.4082" y="-63.5" font-family="Helvetica,sans-Serif" font-size="10.00" fill="#000000">locomotor.components.models.</text>
<text text-anchor="middle" x="950.6123" y="-53.5" font-family="Helvetica,sans-Serif" font-size="10.00" fill="#000000">ItemFull.fromJSON</text>
</a>
</g>
</g>
<!-- Node5&#45;&gt;Node6 -->
<g id="edge5" class="edge">
<title>Node5&#45;&gt;Node6</title>
<path fill="none" stroke="#191970" d="M847.9045,-61.5C856.3581,-61.5 864.8911,-61.5 873.2346,-61.5"/>
<polygon fill="#191970" stroke="#191970" points="847.6504,-58.0001 837.6504,-61.5 847.6504,-65.0001 847.6504,-58.0001"/>
</g>
<!-- Node7 -->
<g id="node7" class="node">
<title>Node7</title>
<g id="a_node7"><a xlink:href="classlocomotor_1_1components_1_1network_1_1_a_p_i.html#a547463fbc7fb7b485886f0917e2c0b78" target="_top" xlink:title="locomotor.components.network.\lAPI.createHooks">
<polygon fill="#ffffff" stroke="#000000" points="1063.8164,-23.5 1063.8164,-51.5 1221.0029,-51.5 1221.0029,-23.5 1063.8164,-23.5"/>
<text text-anchor="start" x="1071.8164" y="-39.5" font-family="Helvetica,sans-Serif" font-size="10.00" fill="#000000">locomotor.components.network.</text>
<text text-anchor="middle" x="1142.4097" y="-29.5" font-family="Helvetica,sans-Serif" font-size="10.00" fill="#000000">API.createHooks</text>
</a>
</g>
</g>
<!-- Node6&#45;&gt;Node7 -->
<g id="edge6" class="edge">
<title>Node6&#45;&gt;Node7</title>
<path fill="none" stroke="#191970" d="M1038.0579,-50.5578C1046.6149,-49.487 1055.2623,-48.4049 1063.7249,-47.346"/>
<polygon fill="#191970" stroke="#191970" points="1037.5588,-47.0928 1028.0708,-51.8075 1038.428,-54.0387 1037.5588,-47.0928"/>
</g>
<!-- Node8 -->
<g id="node8" class="node">
<title>Node8</title>
<g id="a_node8"><a xlink:href="classlocomotor_1_1core_1_1_main.html#a8b260eecbaabcef8473fd87ada040682" target="_top" xlink:title="locomotor.core.Main.main">
<polygon fill="#ffffff" stroke="#000000" points="1257.0029,-28.5 1257.0029,-46.5 1387.5,-46.5 1387.5,-28.5 1257.0029,-28.5"/>
<text text-anchor="middle" x="1322.2515" y="-34.5" font-family="Helvetica,sans-Serif" font-size="10.00" fill="#000000">locomotor.core.Main.main</text>
</a>
</g>
</g>
<!-- Node7&#45;&gt;Node8 -->
<g id="edge7" class="edge">
<title>Node7&#45;&gt;Node8</title>
<path fill="none" stroke="#191970" d="M1231.2027,-37.5C1239.891,-37.5 1248.5933,-37.5 1256.9852,-37.5"/>
<polygon fill="#191970" stroke="#191970" points="1231.0293,-34.0001 1221.0293,-37.5 1231.0292,-41.0001 1231.0293,-34.0001"/>
</g>
<!-- Node10 -->
<g id="node10" class="node">
<title>Node10</title>
<g id="a_node10"><a xlink:href="classlocomotor_1_1components_1_1models_1_1_user_criteria.html#aaca1c5ec640a1453943ce97d40e12a63" target="_top" xlink:title="locomotor.components.models.\lUserCriteria.fromJSON">
<polygon fill="#ffffff" stroke="#000000" points="492.5918,-.5 492.5918,-28.5 647,-28.5 647,-.5 492.5918,-.5"/>
<text text-anchor="start" x="500.5918" y="-16.5" font-family="Helvetica,sans-Serif" font-size="10.00" fill="#000000">locomotor.components.models.</text>
<text text-anchor="middle" x="569.7959" y="-6.5" font-family="Helvetica,sans-Serif" font-size="10.00" fill="#000000">UserCriteria.fromJSON</text>
</a>
</g>
</g>
<!-- Node9&#45;&gt;Node10 -->
<g id="edge9" class="edge">
<title>Node9&#45;&gt;Node10</title>
<path fill="none" stroke="#191970" d="M464.4392,-14.5C473.7973,-14.5 483.3023,-14.5 492.579,-14.5"/>
<polygon fill="#191970" stroke="#191970" points="464.3602,-11.0001 454.3602,-14.5 464.3601,-18.0001 464.3602,-11.0001"/>
</g>
<!-- Node11 -->
<g id="node11" class="node">
<title>Node11</title>
<g id="a_node11"><a xlink:href="classlocomotor_1_1components_1_1models_1_1_user_category.html#a52e02970889790bace019e61fb256ff0" target="_top" xlink:title="locomotor.components.models.\lUserCategory.fromJSON">
<polygon fill="#ffffff" stroke="#000000" points="683,-.5 683,-28.5 837.4082,-28.5 837.4082,-.5 683,-.5"/>
<text text-anchor="start" x="691" y="-16.5" font-family="Helvetica,sans-Serif" font-size="10.00" fill="#000000">locomotor.components.models.</text>
<text text-anchor="middle" x="760.2041" y="-6.5" font-family="Helvetica,sans-Serif" font-size="10.00" fill="#000000">UserCategory.fromJSON</text>
</a>
</g>
</g>
<!-- Node10&#45;&gt;Node11 -->
<g id="edge10" class="edge">
<title>Node10&#45;&gt;Node11</title>
<path fill="none" stroke="#191970" d="M657.4963,-14.5C665.9499,-14.5 674.4829,-14.5 682.8264,-14.5"/>
<polygon fill="#191970" stroke="#191970" points="657.2422,-11.0001 647.2422,-14.5 657.2422,-18.0001 657.2422,-11.0001"/>
</g>
<!-- Node12 -->
<g id="node12" class="node">
<title>Node12</title>
<g id="a_node12"><a xlink:href="classlocomotor_1_1components_1_1models_1_1_user_item.html#ab97f79cf43a9a73bcd77cec6b449a79a" target="_top" xlink:title="locomotor.components.models.\lUserItem.fromJSON">
<polygon fill="#ffffff" stroke="#000000" points="873.4082,-.5 873.4082,-28.5 1027.8164,-28.5 1027.8164,-.5 873.4082,-.5"/>
<text text-anchor="start" x="881.4082" y="-16.5" font-family="Helvetica,sans-Serif" font-size="10.00" fill="#000000">locomotor.components.models.</text>
<text text-anchor="middle" x="950.6123" y="-6.5" font-family="Helvetica,sans-Serif" font-size="10.00" fill="#000000">UserItem.fromJSON</text>
</a>
</g>
</g>
<!-- Node11&#45;&gt;Node12 -->
<g id="edge11" class="edge">
<title>Node11&#45;&gt;Node12</title>
<path fill="none" stroke="#191970" d="M847.9045,-14.5C856.3581,-14.5 864.8911,-14.5 873.2346,-14.5"/>
<polygon fill="#191970" stroke="#191970" points="847.6504,-11.0001 837.6504,-14.5 847.6504,-18.0001 847.6504,-11.0001"/>
</g>
<!-- Node12&#45;&gt;Node7 -->
<g id="edge12" class="edge">
<title>Node12&#45;&gt;Node7</title>
<path fill="none" stroke="#191970" d="M1038.0579,-24.9863C1046.6149,-26.0125 1055.2623,-27.0494 1063.7249,-28.0643"/>
<polygon fill="#191970" stroke="#191970" points="1038.4164,-21.5043 1028.0708,-23.7887 1037.5829,-28.4545 1038.4164,-21.5043"/>
</g>
</g>
</svg>
