<?xml version="1.0" encoding="UTF-8" standalone="no"?>
<!DOCTYPE svg PUBLIC "-//W3C//DTD SVG 1.1//EN"
 "http://www.w3.org/Graphics/SVG/1.1/DTD/svg11.dtd">
<!-- Generated by graphviz version 2.40.1 (20161225.0304)
 -->
<!-- Title: getItem Pages: 1 -->
<svg width="795pt" height="102pt"
 viewBox="0.00 0.00 795.06 102.00" xmlns="http://www.w3.org/2000/svg" xmlns:xlink="http://www.w3.org/1999/xlink">
<g id="graph0" class="graph" transform="scale(1 1) rotate(0) translate(4 98)">
<title>getItem</title>
<polygon fill="#ffffff" stroke="transparent" points="-4,4 -4,-98 791.0566,-98 791.0566,4 -4,4"/>
<!-- Node1 -->
<g id="node1" class="node">
<title>Node1</title>
<polygon fill="#bfbfbf" stroke="#000000" points="0,-54.5 0,-72.5 49.3496,-72.5 49.3496,-54.5 0,-54.5"/>
<text text-anchor="middle" x="24.6748" y="-60.5" font-family="Helvetica,sans-Serif" font-size="10.00" fill="#000000">getItem</text>
</g>
<!-- Node2 -->
<g id="node2" class="node">
<title>Node2</title>
<g id="a_node2"><a xlink:href="classlocomotor_1_1core_1_1_d_b_h.html#ae573347d7e17b2bf2bac3c4a41caf0fa" target="_top" xlink:title="locomotor.core.DBH.getItem">
<polygon fill="#ffffff" stroke="#000000" points="88.4087,-75.5 88.4087,-93.5 230.019,-93.5 230.019,-75.5 88.4087,-75.5"/>
<text text-anchor="middle" x="159.2139" y="-81.5" font-family="Helvetica,sans-Serif" font-size="10.00" fill="#000000">locomotor.core.DBH.getItem</text>
</a>
</g>
</g>
<!-- Node1&#45;&gt;Node2 -->
<g id="edge1" class="edge">
<title>Node1&#45;&gt;Node2</title>
<path fill="none" stroke="#191970" d="M59.5581,-68.9449C72.3527,-70.942 87.2002,-73.2595 101.4649,-75.4861"/>
<polygon fill="#191970" stroke="#191970" points="59.7715,-65.4359 49.3513,-67.3517 58.6919,-72.3521 59.7715,-65.4359"/>
</g>
<!-- Node5 -->
<g id="node5" class="node">
<title>Node5</title>
<g id="a_node5"><a xlink:href="classlocomotor_1_1core_1_1_d_b_h.html#ad067053be75a3170dc9c2ce7b922e176" target="_top" xlink:title="locomotor.core.DBH.checking\lParsingItem">
<polygon fill="#ffffff" stroke="#000000" points="85.3496,-28.5 85.3496,-56.5 233.0781,-56.5 233.0781,-28.5 85.3496,-28.5"/>
<text text-anchor="start" x="93.3496" y="-44.5" font-family="Helvetica,sans-Serif" font-size="10.00" fill="#000000">locomotor.core.DBH.checking</text>
<text text-anchor="middle" x="159.2139" y="-34.5" font-family="Helvetica,sans-Serif" font-size="10.00" fill="#000000">ParsingItem</text>
</a>
</g>
</g>
<!-- Node1&#45;&gt;Node5 -->
<g id="edge4" class="edge">
<title>Node1&#45;&gt;Node5</title>
<path fill="none" stroke="#191970" d="M59.3594,-58.0861C67.3701,-56.8358 76.1937,-55.4585 85.1799,-54.0558"/>
<polygon fill="#191970" stroke="#191970" points="58.6919,-54.6479 49.3513,-59.6483 59.7715,-61.5641 58.6919,-54.6479"/>
</g>
<!-- Node3 -->
<g id="node3" class="node">
<title>Node3</title>
<g id="a_node3"><a xlink:href="classlocomotor_1_1components_1_1network_1_1_a_p_i.html#a547463fbc7fb7b485886f0917e2c0b78" target="_top" xlink:title="locomotor.components.network.\lAPI.createHooks">
<polygon fill="#ffffff" stroke="#000000" points="463.373,-32.5 463.373,-60.5 620.5596,-60.5 620.5596,-32.5 463.373,-32.5"/>
<text text-anchor="start" x="471.373" y="-48.5" font-family="Helvetica,sans-Serif" font-size="10.00" fill="#000000">locomotor.components.network.</text>
<text text-anchor="middle" x="541.9663" y="-38.5" font-family="Helvetica,sans-Serif" font-size="10.00" fill="#000000">API.createHooks</text>
</a>
</g>
</g>
<!-- Node2&#45;&gt;Node3 -->
<g id="edge2" class="edge">
<title>Node2&#45;&gt;Node3</title>
<path fill="none" stroke="#191970" d="M240.3138,-80.7329C293.6006,-77.7708 364.7788,-72.8903 427.373,-65.5 439.0889,-64.1167 451.4343,-62.3735 463.5096,-60.5071"/>
<polygon fill="#191970" stroke="#191970" points="240.0357,-77.2428 230.241,-81.2819 240.4167,-84.2324 240.0357,-77.2428"/>
</g>
<!-- Node4 -->
<g id="node4" class="node">
<title>Node4</title>
<g id="a_node4"><a xlink:href="classlocomotor_1_1core_1_1_main.html#a8b260eecbaabcef8473fd87ada040682" target="_top" xlink:title="locomotor.core.Main.main">
<polygon fill="#ffffff" stroke="#000000" points="656.5596,-37.5 656.5596,-55.5 787.0566,-55.5 787.0566,-37.5 656.5596,-37.5"/>
<text text-anchor="middle" x="721.8081" y="-43.5" font-family="Helvetica,sans-Serif" font-size="10.00" fill="#000000">locomotor.core.Main.main</text>
</a>
</g>
</g>
<!-- Node3&#45;&gt;Node4 -->
<g id="edge3" class="edge">
<title>Node3&#45;&gt;Node4</title>
<path fill="none" stroke="#191970" d="M630.7593,-46.5C639.4476,-46.5 648.15,-46.5 656.5418,-46.5"/>
<polygon fill="#191970" stroke="#191970" points="630.5859,-43.0001 620.5859,-46.5 630.5859,-50.0001 630.5859,-43.0001"/>
</g>
<!-- Node6 -->
<g id="node6" class="node">
<title>Node6</title>
<g id="a_node6"><a xlink:href="classlocomotor_1_1core_1_1_d_b_h.html#ae26eef1ee7482f2e0167c6a18924d214" target="_top" xlink:title="locomotor.core.DBH.addItem">
<polygon fill="#ffffff" stroke="#000000" points="276.0288,-37.5 276.0288,-55.5 420.4224,-55.5 420.4224,-37.5 276.0288,-37.5"/>
<text text-anchor="middle" x="348.2256" y="-43.5" font-family="Helvetica,sans-Serif" font-size="10.00" fill="#000000">locomotor.core.DBH.addItem</text>
</a>
</g>
</g>
<!-- Node5&#45;&gt;Node6 -->
<g id="edge5" class="edge">
<title>Node5&#45;&gt;Node6</title>
<path fill="none" stroke="#191970" d="M243.4278,-44.2822C254.2752,-44.5118 265.3056,-44.7452 275.9382,-44.9702"/>
<polygon fill="#191970" stroke="#191970" points="243.1747,-40.7761 233.1028,-44.0637 243.0265,-47.7746 243.1747,-40.7761"/>
</g>
<!-- Node7 -->
<g id="node7" class="node">
<title>Node7</title>
<g id="a_node7"><a xlink:href="classlocomotor_1_1core_1_1_d_b_h.html#aa0e39c547d06fd9d0ad2de70251c9cc0" target="_top" xlink:title="locomotor.core.DBH.updateItem">
<polygon fill="#ffffff" stroke="#000000" points="269.0781,-.5 269.0781,-18.5 427.373,-18.5 427.373,-.5 269.0781,-.5"/>
<text text-anchor="middle" x="348.2256" y="-6.5" font-family="Helvetica,sans-Serif" font-size="10.00" fill="#000000">locomotor.core.DBH.updateItem</text>
</a>
</g>
</g>
<!-- Node5&#45;&gt;Node7 -->
<g id="edge7" class="edge">
<title>Node5&#45;&gt;Node7</title>
<path fill="none" stroke="#191970" d="M243.1417,-27.8468C261.3413,-24.6693 280.0707,-21.3993 296.5846,-18.5161"/>
<polygon fill="#191970" stroke="#191970" points="242.3518,-24.4317 233.1028,-29.5996 243.5558,-31.3274 242.3518,-24.4317"/>
</g>
<!-- Node6&#45;&gt;Node3 -->
<g id="edge6" class="edge">
<title>Node6&#45;&gt;Node3</title>
<path fill="none" stroke="#191970" d="M430.8248,-46.5C441.5391,-46.5 452.4915,-46.5 463.1422,-46.5"/>
<polygon fill="#191970" stroke="#191970" points="430.643,-43.0001 420.643,-46.5 430.643,-50.0001 430.643,-43.0001"/>
</g>
<!-- Node7&#45;&gt;Node3 -->
<g id="edge8" class="edge">
<title>Node7&#45;&gt;Node3</title>
<path fill="none" stroke="#191970" d="M405.6818,-20.4728C425.4244,-24.2432 447.8003,-28.5165 468.6306,-32.4946"/>
<polygon fill="#191970" stroke="#191970" points="406.099,-16.9893 395.6199,-18.5512 404.7858,-23.865 406.099,-16.9893"/>
</g>
</g>
</svg>
