<?xml version="1.0" encoding="UTF-8" standalone="no"?>
<!DOCTYPE svg PUBLIC "-//W3C//DTD SVG 1.1//EN"
 "http://www.w3.org/Graphics/SVG/1.1/DTD/svg11.dtd">
<!-- Generated by graphviz version 2.40.1 (20161225.0304)
 -->
<!-- Title: authAdmin Pages: 1 -->
<svg width="678pt" height="249pt"
 viewBox="0.00 0.00 677.51 249.00" xmlns="http://www.w3.org/2000/svg" xmlns:xlink="http://www.w3.org/1999/xlink">
<g id="graph0" class="graph" transform="scale(1 1) rotate(0) translate(4 245)">
<title>authAdmin</title>
<polygon fill="#ffffff" stroke="transparent" points="-4,4 -4,-245 673.5098,-245 673.5098,4 -4,4"/>
<!-- Node1 -->
<g id="node1" class="node">
<title>Node1</title>
<polygon fill="#bfbfbf" stroke="#000000" points="0,-114.5 0,-132.5 63.8076,-132.5 63.8076,-114.5 0,-114.5"/>
<text text-anchor="middle" x="31.9038" y="-120.5" font-family="Helvetica,sans-Serif" font-size="10.00" fill="#000000">authAdmin</text>
</g>
<!-- Node2 -->
<g id="node2" class="node">
<title>Node2</title>
<g id="a_node2"><a xlink:href="classlocomotor_1_1core_1_1_d_b_h.html#a0b2d292079fe232a4c3dae4636167641" target="_top" xlink:title="getInstance">
<polygon fill="#ffffff" stroke="#000000" points="142.6104,-217.5 142.6104,-235.5 210.3145,-235.5 210.3145,-217.5 142.6104,-217.5"/>
<text text-anchor="middle" x="176.4624" y="-223.5" font-family="Helvetica,sans-Serif" font-size="10.00" fill="#000000">getInstance</text>
</a>
</g>
</g>
<!-- Node1&#45;&gt;Node2 -->
<g id="edge1" class="edge">
<title>Node1&#45;&gt;Node2</title>
<path fill="none" stroke="#191970" d="M37.9339,-132.66C48.6352,-148.2538 72.4167,-180.0563 99.8076,-198.5 109.7153,-205.1713 121.4106,-210.4853 132.6416,-214.6124"/>
<polygon fill="#191970" stroke="#191970" points="131.7406,-218.0034 142.3352,-217.938 134.0122,-211.3823 131.7406,-218.0034"/>
</g>
<!-- Node4 -->
<g id="node4" class="node">
<title>Node4</title>
<g id="a_node4"><a xlink:href="classlocomotor_1_1core_1_1_d_b_h.html#a34b259b9443e3b412e5a704b154546a1" target="_top" xlink:title="authUser">
<polygon fill="#ffffff" stroke="#000000" points="148.1743,-133.5 148.1743,-151.5 204.7505,-151.5 204.7505,-133.5 148.1743,-133.5"/>
<text text-anchor="middle" x="176.4624" y="-139.5" font-family="Helvetica,sans-Serif" font-size="10.00" fill="#000000">authUser</text>
</a>
</g>
</g>
<!-- Node1&#45;&gt;Node4 -->
<g id="edge3" class="edge">
<title>Node1&#45;&gt;Node4</title>
<path fill="none" stroke="#191970" d="M63.986,-127.7167C85.7701,-130.5799 114.6969,-134.3819 137.7598,-137.4131"/>
<polygon fill="#191970" stroke="#191970" points="137.526,-140.9124 147.8969,-138.7455 138.4383,-133.9721 137.526,-140.9124"/>
</g>
<!-- Node5 -->
<g id="node5" class="node">
<title>Node5</title>
<g id="a_node5"><a xlink:href="classlocomotor_1_1components_1_1logging_1_1_error_handler.html#a75e8f6535bdb8db9a7d570e1b839af47" target="_top" xlink:title="locomotor.components.logging.\lErrorHandler.getInstance">
<polygon fill="#ffffff" stroke="#000000" points="306.8906,-175.5 306.8906,-203.5 461.3135,-203.5 461.3135,-175.5 306.8906,-175.5"/>
<text text-anchor="start" x="314.8906" y="-191.5" font-family="Helvetica,sans-Serif" font-size="10.00" fill="#000000">locomotor.components.logging.</text>
<text text-anchor="middle" x="384.1021" y="-181.5" font-family="Helvetica,sans-Serif" font-size="10.00" fill="#000000">ErrorHandler.getInstance</text>
</a>
</g>
</g>
<!-- Node1&#45;&gt;Node5 -->
<g id="edge11" class="edge">
<title>Node1&#45;&gt;Node5</title>
<path fill="none" stroke="#191970" d="M44.6889,-132.7922C57.8158,-141.8008 79.1851,-155.026 99.8076,-161.5 163.7522,-181.5739 239.4067,-188.257 296.59,-190.0931"/>
<polygon fill="#191970" stroke="#191970" points="296.5905,-193.5943 306.6837,-190.3732 296.7847,-186.597 296.5905,-193.5943"/>
</g>
<!-- Node6 -->
<g id="node6" class="node">
<title>Node6</title>
<g id="a_node6"><a xlink:href="classlocomotor_1_1components_1_1logging_1_1_error_handler.html#abd00a9c37627740763cef91d76a77437" target="_top" xlink:title="locomotor.components.logging.\lErrorHandler.push">
<polygon fill="#ffffff" stroke="#000000" points="306.8906,-34.5 306.8906,-62.5 461.3135,-62.5 461.3135,-34.5 306.8906,-34.5"/>
<text text-anchor="start" x="314.8906" y="-50.5" font-family="Helvetica,sans-Serif" font-size="10.00" fill="#000000">locomotor.components.logging.</text>
<text text-anchor="middle" x="384.1021" y="-40.5" font-family="Helvetica,sans-Serif" font-size="10.00" fill="#000000">ErrorHandler.push</text>
</a>
</g>
</g>
<!-- Node1&#45;&gt;Node6 -->
<g id="edge12" class="edge">
<title>Node1&#45;&gt;Node6</title>
<path fill="none" stroke="#191970" d="M64.1513,-119.5858C107.5624,-113.9162 186.9863,-102.1293 253.1172,-84.5 269.5544,-80.1181 272.8263,-76.3979 289.1172,-71.5 296.5433,-69.2673 304.3452,-67.0988 312.1521,-65.0426"/>
<polygon fill="#191970" stroke="#191970" points="313.2048,-68.3858 322.0156,-62.5019 311.4586,-61.6071 313.2048,-68.3858"/>
</g>
<!-- Node10 -->
<g id="node10" class="node">
<title>Node10</title>
<g id="a_node10"><a xlink:href="classlocomotor_1_1components_1_1_pair.html#a372a73c0f39951186746e06a624f43d8" target="_top" xlink:title="locomotor.components.Pair.get\lRight">
<polygon fill="#ffffff" stroke="#000000" points="99.8076,-47.5 99.8076,-75.5 253.1172,-75.5 253.1172,-47.5 99.8076,-47.5"/>
<text text-anchor="start" x="107.8076" y="-63.5" font-family="Helvetica,sans-Serif" font-size="10.00" fill="#000000">locomotor.components.Pair.get</text>
<text text-anchor="middle" x="176.4624" y="-53.5" font-family="Helvetica,sans-Serif" font-size="10.00" fill="#000000">Right</text>
</a>
</g>
</g>
<!-- Node1&#45;&gt;Node10 -->
<g id="edge9" class="edge">
<title>Node1&#45;&gt;Node10</title>
<path fill="none" stroke="#191970" d="M49.5703,-114.3682C63.1565,-107.4794 82.4751,-97.972 99.8076,-90.5 108.7294,-86.6538 118.3452,-82.7963 127.6501,-79.2071"/>
<polygon fill="#191970" stroke="#191970" points="129.091,-82.4037 137.1921,-75.5756 126.6012,-75.8614 129.091,-82.4037"/>
</g>
<!-- Node11 -->
<g id="node11" class="node">
<title>Node11</title>
<g id="a_node11"><a xlink:href="enumlocomotor_1_1core_1_1_accreditation_level.html#a57341bed1b0ce596a42e0f9cb11f1a1f" target="_top" xlink:title="locomotor.core.Accreditation\lLevel.isAdmin">
<polygon fill="#ffffff" stroke="#000000" points="105.374,-.5 105.374,-28.5 247.5508,-28.5 247.5508,-.5 105.374,-.5"/>
<text text-anchor="start" x="113.374" y="-16.5" font-family="Helvetica,sans-Serif" font-size="10.00" fill="#000000">locomotor.core.Accreditation</text>
<text text-anchor="middle" x="176.4624" y="-6.5" font-family="Helvetica,sans-Serif" font-size="10.00" fill="#000000">Level.isAdmin</text>
</a>
</g>
</g>
<!-- Node1&#45;&gt;Node11 -->
<g id="edge10" class="edge">
<title>Node1&#45;&gt;Node11</title>
<path fill="none" stroke="#191970" d="M36.5523,-114.461C46.0274,-96.937 69.2849,-58.2462 99.8076,-37.5 102.0987,-35.9428 104.4978,-34.4886 106.9743,-33.1309"/>
<polygon fill="#191970" stroke="#191970" points="108.7675,-36.1506 116.2249,-28.6248 105.702,-29.8575 108.7675,-36.1506"/>
</g>
<!-- Node3 -->
<g id="node3" class="node">
<title>Node3</title>
<g id="a_node3"><a xlink:href="classlocomotor_1_1core_1_1_d_b_h.html#a2d5f1f766f5863a46ed29b7e56118364" target="_top" xlink:title="DBH">
<polygon fill="#ffffff" stroke="#000000" points="365.5454,-222.5 365.5454,-240.5 402.6587,-240.5 402.6587,-222.5 365.5454,-222.5"/>
<text text-anchor="middle" x="384.1021" y="-228.5" font-family="Helvetica,sans-Serif" font-size="10.00" fill="#000000">DBH</text>
</a>
</g>
</g>
<!-- Node2&#45;&gt;Node3 -->
<g id="edge2" class="edge">
<title>Node2&#45;&gt;Node3</title>
<path fill="none" stroke="#191970" d="M210.7499,-227.3256C251.0075,-228.2951 317.0803,-229.8861 354.9658,-230.7984"/>
<polygon fill="#191970" stroke="#191970" points="355.2278,-234.3056 365.3092,-231.0475 355.3964,-227.3077 355.2278,-234.3056"/>
</g>
<!-- Node4&#45;&gt;Node5 -->
<g id="edge4" class="edge">
<title>Node4&#45;&gt;Node5</title>
<path fill="none" stroke="#191970" d="M204.8984,-148.9366C232.3099,-155.1413 274.933,-164.7892 311.7339,-173.1192"/>
<polygon fill="#191970" stroke="#191970" points="311.4158,-176.6357 321.9418,-175.4298 312.9612,-169.8084 311.4158,-176.6357"/>
</g>
<!-- Node4&#45;&gt;Node6 -->
<g id="edge5" class="edge">
<title>Node4&#45;&gt;Node6</title>
<path fill="none" stroke="#191970" d="M204.9154,-137.9261C220.2217,-134.4463 238.8325,-128.4901 253.1172,-118.5 274.6797,-103.4201 267.0699,-85.8618 289.1172,-71.5 291.7339,-69.7954 294.4654,-68.2171 297.2817,-66.7556"/>
<polygon fill="#191970" stroke="#191970" points="298.9235,-69.8524 306.5271,-62.4743 295.9821,-63.5003 298.9235,-69.8524"/>
</g>
<!-- Node8 -->
<g id="node8" class="node">
<title>Node8</title>
<g id="a_node8"><a xlink:href="classlocomotor_1_1core_1_1_password_storage.html#a94489a4402c7c9e62b25fd69c050b4f2" target="_top" xlink:title="locomotor.core.PasswordStorage.verify\lPassword">
<polygon fill="#ffffff" stroke="#000000" points="289.1172,-128.5 289.1172,-156.5 479.0869,-156.5 479.0869,-128.5 289.1172,-128.5"/>
<text text-anchor="start" x="297.1172" y="-144.5" font-family="Helvetica,sans-Serif" font-size="10.00" fill="#000000">locomotor.core.PasswordStorage.verify</text>
<text text-anchor="middle" x="384.1021" y="-134.5" font-family="Helvetica,sans-Serif" font-size="10.00" fill="#000000">Password</text>
</a>
</g>
</g>
<!-- Node4&#45;&gt;Node8 -->
<g id="edge7" class="edge">
<title>Node4&#45;&gt;Node8</title>
<path fill="none" stroke="#191970" d="M204.8984,-142.5C224.3858,-142.5 251.5613,-142.5 278.8673,-142.5"/>
<polygon fill="#191970" stroke="#191970" points="278.9194,-146.0001 288.9193,-142.5 278.9193,-139.0001 278.9194,-146.0001"/>
</g>
<!-- Node9 -->
<g id="node9" class="node">
<title>Node9</title>
<g id="a_node9"><a xlink:href="enumlocomotor_1_1core_1_1_accreditation_level.html#a9ba37c7260408517fd4e4c0196cf4a28" target="_top" xlink:title="locomotor.core.Accreditation\lLevel.valueOf">
<polygon fill="#ffffff" stroke="#000000" points="313.0137,-81.5 313.0137,-109.5 455.1904,-109.5 455.1904,-81.5 313.0137,-81.5"/>
<text text-anchor="start" x="321.0137" y="-97.5" font-family="Helvetica,sans-Serif" font-size="10.00" fill="#000000">locomotor.core.Accreditation</text>
<text text-anchor="middle" x="384.1021" y="-87.5" font-family="Helvetica,sans-Serif" font-size="10.00" fill="#000000">Level.valueOf</text>
</a>
</g>
</g>
<!-- Node4&#45;&gt;Node9 -->
<g id="edge8" class="edge">
<title>Node4&#45;&gt;Node9</title>
<path fill="none" stroke="#191970" d="M204.8984,-136.0634C232.3099,-129.8587 274.933,-120.2108 311.7339,-111.8808"/>
<polygon fill="#191970" stroke="#191970" points="312.9612,-115.1916 321.9418,-109.5702 311.4158,-108.3643 312.9612,-115.1916"/>
</g>
<!-- Node7 -->
<g id="node7" class="node">
<title>Node7</title>
<g id="a_node7"><a xlink:href="classlocomotor_1_1components_1_1logging_1_1_error_context.html#afcf30b71bfc65c74878c7ab77c951842" target="_top" xlink:title="locomotor.components.logging.\lErrorContext.push">
<polygon fill="#ffffff" stroke="#000000" points="515.0869,-34.5 515.0869,-62.5 669.5098,-62.5 669.5098,-34.5 515.0869,-34.5"/>
<text text-anchor="start" x="523.0869" y="-50.5" font-family="Helvetica,sans-Serif" font-size="10.00" fill="#000000">locomotor.components.logging.</text>
<text text-anchor="middle" x="592.2983" y="-40.5" font-family="Helvetica,sans-Serif" font-size="10.00" fill="#000000">ErrorContext.push</text>
</a>
</g>
</g>
<!-- Node6&#45;&gt;Node7 -->
<g id="edge6" class="edge">
<title>Node6&#45;&gt;Node7</title>
<path fill="none" stroke="#191970" d="M461.3308,-48.5C475.3921,-48.5 490.1556,-48.5 504.496,-48.5"/>
<polygon fill="#191970" stroke="#191970" points="504.8472,-52.0001 514.8471,-48.5 504.8471,-45.0001 504.8472,-52.0001"/>
</g>
</g>
</svg>
