<?xml version="1.0" encoding="UTF-8" standalone="no"?>
<!DOCTYPE svg PUBLIC "-//W3C//DTD SVG 1.1//EN"
 "http://www.w3.org/Graphics/SVG/1.1/DTD/svg11.dtd">
<!-- Generated by graphviz version 2.40.1 (20161225.0304)
 -->
<!-- Title: getItemFromJson Pages: 1 -->
<svg width="1033pt" height="37pt"
 viewBox="0.00 0.00 1032.71 37.00" xmlns="http://www.w3.org/2000/svg" xmlns:xlink="http://www.w3.org/1999/xlink">
<g id="graph0" class="graph" transform="scale(1 1) rotate(0) translate(4 33)">
<title>getItemFromJson</title>
<polygon fill="#ffffff" stroke="transparent" points="-4,4 -4,-33 1028.7109,-33 1028.7109,4 -4,4"/>
<!-- Node1 -->
<g id="node1" class="node">
<title>Node1</title>
<polygon fill="#bfbfbf" stroke="#000000" points="0,-5.5 0,-23.5 93.8027,-23.5 93.8027,-5.5 0,-5.5"/>
<text text-anchor="middle" x="46.9014" y="-11.5" font-family="Helvetica,sans-Serif" font-size="10.00" fill="#000000">getItemFromJson</text>
</g>
<!-- Node2 -->
<g id="node2" class="node">
<title>Node2</title>
<g id="a_node2"><a xlink:href="classlocomotor_1_1components_1_1models_1_1_item_criteria_full.html#a436730a3499b6d7b1d0359e12aa2f04a" target="_top" xlink:title="locomotor.components.models.\lItemCriteriaFull.fromJSON">
<polygon fill="#ffffff" stroke="#000000" points="129.8027,-.5 129.8027,-28.5 284.2109,-28.5 284.2109,-.5 129.8027,-.5"/>
<text text-anchor="start" x="137.8027" y="-16.5" font-family="Helvetica,sans-Serif" font-size="10.00" fill="#000000">locomotor.components.models.</text>
<text text-anchor="middle" x="207.0068" y="-6.5" font-family="Helvetica,sans-Serif" font-size="10.00" fill="#000000">ItemCriteriaFull.fromJSON</text>
</a>
</g>
</g>
<!-- Node1&#45;&gt;Node2 -->
<g id="edge1" class="edge">
<title>Node1&#45;&gt;Node2</title>
<path fill="none" stroke="#191970" d="M104.2565,-14.5C112.4662,-14.5 121.0231,-14.5 129.5409,-14.5"/>
<polygon fill="#191970" stroke="#191970" points="104.0724,-11.0001 94.0723,-14.5 104.0723,-18.0001 104.0724,-11.0001"/>
</g>
<!-- Node3 -->
<g id="node3" class="node">
<title>Node3</title>
<g id="a_node3"><a xlink:href="classlocomotor_1_1components_1_1models_1_1_item_category_full.html#a50ab7c0f8e4a65f80ca141f1fa1c7df8" target="_top" xlink:title="locomotor.components.models.\lItemCategoryFull.fromJSON">
<polygon fill="#ffffff" stroke="#000000" points="320.2109,-.5 320.2109,-28.5 474.6191,-28.5 474.6191,-.5 320.2109,-.5"/>
<text text-anchor="start" x="328.2109" y="-16.5" font-family="Helvetica,sans-Serif" font-size="10.00" fill="#000000">locomotor.components.models.</text>
<text text-anchor="middle" x="397.415" y="-6.5" font-family="Helvetica,sans-Serif" font-size="10.00" fill="#000000">ItemCategoryFull.fromJSON</text>
</a>
</g>
</g>
<!-- Node2&#45;&gt;Node3 -->
<g id="edge2" class="edge">
<title>Node2&#45;&gt;Node3</title>
<path fill="none" stroke="#191970" d="M294.7072,-14.5C303.1608,-14.5 311.6938,-14.5 320.0374,-14.5"/>
<polygon fill="#191970" stroke="#191970" points="294.4532,-11.0001 284.4531,-14.5 294.4531,-18.0001 294.4532,-11.0001"/>
</g>
<!-- Node4 -->
<g id="node4" class="node">
<title>Node4</title>
<g id="a_node4"><a xlink:href="classlocomotor_1_1components_1_1models_1_1_item_full.html#afe56c5f49cb59d04ec69bbf32b58a2f8" target="_top" xlink:title="locomotor.components.models.\lItemFull.fromJSON">
<polygon fill="#ffffff" stroke="#000000" points="510.6191,-.5 510.6191,-28.5 665.0273,-28.5 665.0273,-.5 510.6191,-.5"/>
<text text-anchor="start" x="518.6191" y="-16.5" font-family="Helvetica,sans-Serif" font-size="10.00" fill="#000000">locomotor.components.models.</text>
<text text-anchor="middle" x="587.8232" y="-6.5" font-family="Helvetica,sans-Serif" font-size="10.00" fill="#000000">ItemFull.fromJSON</text>
</a>
</g>
</g>
<!-- Node3&#45;&gt;Node4 -->
<g id="edge3" class="edge">
<title>Node3&#45;&gt;Node4</title>
<path fill="none" stroke="#191970" d="M485.1154,-14.5C493.569,-14.5 502.102,-14.5 510.4456,-14.5"/>
<polygon fill="#191970" stroke="#191970" points="484.8614,-11.0001 474.8613,-14.5 484.8613,-18.0001 484.8614,-11.0001"/>
</g>
<!-- Node5 -->
<g id="node5" class="node">
<title>Node5</title>
<g id="a_node5"><a xlink:href="classlocomotor_1_1components_1_1network_1_1_a_p_i.html#a547463fbc7fb7b485886f0917e2c0b78" target="_top" xlink:title="locomotor.components.network.\lAPI.createHooks">
<polygon fill="#ffffff" stroke="#000000" points="701.0273,-.5 701.0273,-28.5 858.2139,-28.5 858.2139,-.5 701.0273,-.5"/>
<text text-anchor="start" x="709.0273" y="-16.5" font-family="Helvetica,sans-Serif" font-size="10.00" fill="#000000">locomotor.components.network.</text>
<text text-anchor="middle" x="779.6206" y="-6.5" font-family="Helvetica,sans-Serif" font-size="10.00" fill="#000000">API.createHooks</text>
</a>
</g>
</g>
<!-- Node4&#45;&gt;Node5 -->
<g id="edge4" class="edge">
<title>Node4&#45;&gt;Node5</title>
<path fill="none" stroke="#191970" d="M675.5479,-14.5C684.0138,-14.5 692.5653,-14.5 700.9358,-14.5"/>
<polygon fill="#191970" stroke="#191970" points="675.2818,-11.0001 665.2817,-14.5 675.2817,-18.0001 675.2818,-11.0001"/>
</g>
<!-- Node6 -->
<g id="node6" class="node">
<title>Node6</title>
<g id="a_node6"><a xlink:href="classlocomotor_1_1core_1_1_main.html#a8b260eecbaabcef8473fd87ada040682" target="_top" xlink:title="locomotor.core.Main.main">
<polygon fill="#ffffff" stroke="#000000" points="894.2139,-5.5 894.2139,-23.5 1024.7109,-23.5 1024.7109,-5.5 894.2139,-5.5"/>
<text text-anchor="middle" x="959.4624" y="-11.5" font-family="Helvetica,sans-Serif" font-size="10.00" fill="#000000">locomotor.core.Main.main</text>
</a>
</g>
</g>
<!-- Node5&#45;&gt;Node6 -->
<g id="edge5" class="edge">
<title>Node5&#45;&gt;Node6</title>
<path fill="none" stroke="#191970" d="M868.4136,-14.5C877.1019,-14.5 885.8043,-14.5 894.1961,-14.5"/>
<polygon fill="#191970" stroke="#191970" points="868.2402,-11.0001 858.2402,-14.5 868.2402,-18.0001 868.2402,-11.0001"/>
</g>
</g>
</svg>
