<?xml version="1.0" encoding="UTF-8" standalone="no"?>
<!DOCTYPE svg PUBLIC "-//W3C//DTD SVG 1.1//EN"
 "http://www.w3.org/Graphics/SVG/1.1/DTD/svg11.dtd">
<!-- Generated by graphviz version 2.40.1 (20161225.0304)
 -->
<!-- Title: getTree Pages: 1 -->
<svg width="901pt" height="118pt"
 viewBox="0.00 0.00 901.16 118.00" xmlns="http://www.w3.org/2000/svg" xmlns:xlink="http://www.w3.org/1999/xlink">
<g id="graph0" class="graph" transform="scale(1 1) rotate(0) translate(4 114)">
<title>getTree</title>
<polygon fill="#ffffff" stroke="transparent" points="-4,4 -4,-114 897.1631,-114 897.1631,4 -4,4"/>
<!-- Node1 -->
<g id="node1" class="node">
<title>Node1</title>
<polygon fill="#bfbfbf" stroke="#000000" points="0,-54.5 0,-72.5 50.0967,-72.5 50.0967,-54.5 0,-54.5"/>
<text text-anchor="middle" x="25.0483" y="-60.5" font-family="Helvetica,sans-Serif" font-size="10.00" fill="#000000">getTree</text>
</g>
<!-- Node2 -->
<g id="node2" class="node">
<title>Node2</title>
<g id="a_node2"><a xlink:href="classlocomotor_1_1components_1_1types_1_1_type_factory.html#a98370bb7e619d26989b8bd6032f1468d" target="_top" xlink:title="getUniverse">
<polygon fill="#ffffff" stroke="#000000" points="86.0967,-91.5 86.0967,-109.5 155.4561,-109.5 155.4561,-91.5 86.0967,-91.5"/>
<text text-anchor="middle" x="120.7764" y="-97.5" font-family="Helvetica,sans-Serif" font-size="10.00" fill="#000000">getUniverse</text>
</a>
</g>
</g>
<!-- Node1&#45;&gt;Node2 -->
<g id="edge1" class="edge">
<title>Node1&#45;&gt;Node2</title>
<path fill="none" stroke="#191970" d="M58.2038,-76.315C71.1126,-81.3044 85.6025,-86.9049 97.3855,-91.4591"/>
<polygon fill="#191970" stroke="#191970" points="59.3008,-72.9867 48.7115,-72.6461 56.7771,-79.516 59.3008,-72.9867"/>
</g>
<!-- Node3 -->
<g id="node3" class="node">
<title>Node3</title>
<g id="a_node3"><a xlink:href="classlocomotor_1_1components_1_1types_1_1_type_factory.html#a5f92827e8d1d5348ebff49dc8bae4f65" target="_top" xlink:title="getItem">
<polygon fill="#ffffff" stroke="#000000" points="96.1016,-54.5 96.1016,-72.5 145.4512,-72.5 145.4512,-54.5 96.1016,-54.5"/>
<text text-anchor="middle" x="120.7764" y="-60.5" font-family="Helvetica,sans-Serif" font-size="10.00" fill="#000000">getItem</text>
</a>
</g>
</g>
<!-- Node1&#45;&gt;Node3 -->
<g id="edge2" class="edge">
<title>Node1&#45;&gt;Node3</title>
<path fill="none" stroke="#191970" d="M60.2086,-63.5C72.0142,-63.5 84.9314,-63.5 95.7929,-63.5"/>
<polygon fill="#191970" stroke="#191970" points="60.1998,-60.0001 50.1998,-63.5 60.1997,-67.0001 60.1998,-60.0001"/>
</g>
<!-- Node10 -->
<g id="node10" class="node">
<title>Node10</title>
<g id="a_node10"><a xlink:href="classlocomotor_1_1components_1_1types_1_1_type_factory.html#a4a713ccc930ad511f78317f186f12f12" target="_top" xlink:title="getTree">
<polygon fill="#ffffff" stroke="#000000" points="95.728,-17.5 95.728,-35.5 145.8247,-35.5 145.8247,-17.5 95.728,-17.5"/>
<text text-anchor="middle" x="120.7764" y="-23.5" font-family="Helvetica,sans-Serif" font-size="10.00" fill="#000000">getTree</text>
</a>
</g>
</g>
<!-- Node1&#45;&gt;Node10 -->
<g id="edge11" class="edge">
<title>Node1&#45;&gt;Node10</title>
<path fill="none" stroke="#191970" d="M58.2038,-50.685C71.1126,-45.6956 85.6025,-40.0951 97.3855,-35.5409"/>
<polygon fill="#191970" stroke="#191970" points="56.7771,-47.484 48.7115,-54.3539 59.3008,-54.0133 56.7771,-47.484"/>
</g>
<!-- Node4 -->
<g id="node4" class="node">
<title>Node4</title>
<g id="a_node4"><a xlink:href="classlocomotor_1_1core_1_1_d_b_h.html#ae573347d7e17b2bf2bac3c4a41caf0fa" target="_top" xlink:title="locomotor.core.DBH.getItem">
<polygon fill="#ffffff" stroke="#000000" points="194.5151,-75.5 194.5151,-93.5 336.1255,-93.5 336.1255,-75.5 194.5151,-75.5"/>
<text text-anchor="middle" x="265.3203" y="-81.5" font-family="Helvetica,sans-Serif" font-size="10.00" fill="#000000">locomotor.core.DBH.getItem</text>
</a>
</g>
</g>
<!-- Node3&#45;&gt;Node4 -->
<g id="edge3" class="edge">
<title>Node3&#45;&gt;Node4</title>
<path fill="none" stroke="#191970" d="M155.9379,-68.6084C170.1684,-70.6759 187.0331,-73.1261 203.2056,-75.4757"/>
<polygon fill="#191970" stroke="#191970" points="156.0237,-65.0842 145.6244,-67.11 155.0172,-72.0115 156.0237,-65.0842"/>
</g>
<!-- Node7 -->
<g id="node7" class="node">
<title>Node7</title>
<g id="a_node7"><a xlink:href="classlocomotor_1_1core_1_1_d_b_h.html#ad067053be75a3170dc9c2ce7b922e176" target="_top" xlink:title="locomotor.core.DBH.checking\lParsingItem">
<polygon fill="#ffffff" stroke="#000000" points="191.4561,-28.5 191.4561,-56.5 339.1846,-56.5 339.1846,-28.5 191.4561,-28.5"/>
<text text-anchor="start" x="199.4561" y="-44.5" font-family="Helvetica,sans-Serif" font-size="10.00" fill="#000000">locomotor.core.DBH.checking</text>
<text text-anchor="middle" x="265.3203" y="-34.5" font-family="Helvetica,sans-Serif" font-size="10.00" fill="#000000">ParsingItem</text>
</a>
</g>
</g>
<!-- Node3&#45;&gt;Node7 -->
<g id="edge6" class="edge">
<title>Node3&#45;&gt;Node7</title>
<path fill="none" stroke="#191970" d="M155.5286,-58.451C166.412,-56.8698 178.8662,-55.0605 191.3869,-53.2414"/>
<polygon fill="#191970" stroke="#191970" points="155.0172,-54.9885 145.6244,-59.89 156.0237,-61.9158 155.0172,-54.9885"/>
</g>
<!-- Node5 -->
<g id="node5" class="node">
<title>Node5</title>
<g id="a_node5"><a xlink:href="classlocomotor_1_1components_1_1network_1_1_a_p_i.html#a547463fbc7fb7b485886f0917e2c0b78" target="_top" xlink:title="locomotor.components.network.\lAPI.createHooks">
<polygon fill="#ffffff" stroke="#000000" points="569.4795,-32.5 569.4795,-60.5 726.666,-60.5 726.666,-32.5 569.4795,-32.5"/>
<text text-anchor="start" x="577.4795" y="-48.5" font-family="Helvetica,sans-Serif" font-size="10.00" fill="#000000">locomotor.components.network.</text>
<text text-anchor="middle" x="648.0728" y="-38.5" font-family="Helvetica,sans-Serif" font-size="10.00" fill="#000000">API.createHooks</text>
</a>
</g>
</g>
<!-- Node4&#45;&gt;Node5 -->
<g id="edge4" class="edge">
<title>Node4&#45;&gt;Node5</title>
<path fill="none" stroke="#191970" d="M346.4202,-80.7329C399.707,-77.7708 470.8852,-72.8903 533.4795,-65.5 545.1954,-64.1167 557.5407,-62.3735 569.6161,-60.5071"/>
<polygon fill="#191970" stroke="#191970" points="346.1421,-77.2428 336.3474,-81.2819 346.5231,-84.2324 346.1421,-77.2428"/>
</g>
<!-- Node6 -->
<g id="node6" class="node">
<title>Node6</title>
<g id="a_node6"><a xlink:href="classlocomotor_1_1core_1_1_main.html#a8b260eecbaabcef8473fd87ada040682" target="_top" xlink:title="locomotor.core.Main.main">
<polygon fill="#ffffff" stroke="#000000" points="762.666,-37.5 762.666,-55.5 893.1631,-55.5 893.1631,-37.5 762.666,-37.5"/>
<text text-anchor="middle" x="827.9146" y="-43.5" font-family="Helvetica,sans-Serif" font-size="10.00" fill="#000000">locomotor.core.Main.main</text>
</a>
</g>
</g>
<!-- Node5&#45;&gt;Node6 -->
<g id="edge5" class="edge">
<title>Node5&#45;&gt;Node6</title>
<path fill="none" stroke="#191970" d="M736.8658,-46.5C745.5541,-46.5 754.2564,-46.5 762.6483,-46.5"/>
<polygon fill="#191970" stroke="#191970" points="736.6924,-43.0001 726.6924,-46.5 736.6923,-50.0001 736.6924,-43.0001"/>
</g>
<!-- Node8 -->
<g id="node8" class="node">
<title>Node8</title>
<g id="a_node8"><a xlink:href="classlocomotor_1_1core_1_1_d_b_h.html#ae26eef1ee7482f2e0167c6a18924d214" target="_top" xlink:title="locomotor.core.DBH.addItem">
<polygon fill="#ffffff" stroke="#000000" points="382.1353,-37.5 382.1353,-55.5 526.5288,-55.5 526.5288,-37.5 382.1353,-37.5"/>
<text text-anchor="middle" x="454.332" y="-43.5" font-family="Helvetica,sans-Serif" font-size="10.00" fill="#000000">locomotor.core.DBH.addItem</text>
</a>
</g>
</g>
<!-- Node7&#45;&gt;Node8 -->
<g id="edge7" class="edge">
<title>Node7&#45;&gt;Node8</title>
<path fill="none" stroke="#191970" d="M349.5343,-44.2822C360.3816,-44.5118 371.412,-44.7452 382.0447,-44.9702"/>
<polygon fill="#191970" stroke="#191970" points="349.2811,-40.7761 339.2093,-44.0637 349.1329,-47.7746 349.2811,-40.7761"/>
</g>
<!-- Node9 -->
<g id="node9" class="node">
<title>Node9</title>
<g id="a_node9"><a xlink:href="classlocomotor_1_1core_1_1_d_b_h.html#aa0e39c547d06fd9d0ad2de70251c9cc0" target="_top" xlink:title="locomotor.core.DBH.updateItem">
<polygon fill="#ffffff" stroke="#000000" points="375.1846,-.5 375.1846,-18.5 533.4795,-18.5 533.4795,-.5 375.1846,-.5"/>
<text text-anchor="middle" x="454.332" y="-6.5" font-family="Helvetica,sans-Serif" font-size="10.00" fill="#000000">locomotor.core.DBH.updateItem</text>
</a>
</g>
</g>
<!-- Node7&#45;&gt;Node9 -->
<g id="edge9" class="edge">
<title>Node7&#45;&gt;Node9</title>
<path fill="none" stroke="#191970" d="M349.2482,-27.8468C367.4477,-24.6693 386.1772,-21.3993 402.6911,-18.5161"/>
<polygon fill="#191970" stroke="#191970" points="348.4582,-24.4317 339.2093,-29.5996 349.6622,-31.3274 348.4582,-24.4317"/>
</g>
<!-- Node8&#45;&gt;Node5 -->
<g id="edge8" class="edge">
<title>Node8&#45;&gt;Node5</title>
<path fill="none" stroke="#191970" d="M536.9313,-46.5C547.6455,-46.5 558.5979,-46.5 569.2486,-46.5"/>
<polygon fill="#191970" stroke="#191970" points="536.7495,-43.0001 526.7494,-46.5 536.7494,-50.0001 536.7495,-43.0001"/>
</g>
<!-- Node9&#45;&gt;Node5 -->
<g id="edge10" class="edge">
<title>Node9&#45;&gt;Node5</title>
<path fill="none" stroke="#191970" d="M511.7883,-20.4728C531.5309,-24.2432 553.9067,-28.5165 574.7371,-32.4946"/>
<polygon fill="#191970" stroke="#191970" points="512.2054,-16.9893 501.7263,-18.5512 510.8922,-23.865 512.2054,-16.9893"/>
</g>
</g>
</svg>
