<?xml version="1.0" encoding="UTF-8" standalone="no"?>
<!DOCTYPE svg PUBLIC "-//W3C//DTD SVG 1.1//EN"
 "http://www.w3.org/Graphics/SVG/1.1/DTD/svg11.dtd">
<!-- Generated by graphviz version 2.40.1 (20161225.0304)
 -->
<!-- Title: ResourceManager Pages: 1 -->
<svg width="268pt" height="82pt"
 viewBox="0.00 0.00 267.77 82.00" xmlns="http://www.w3.org/2000/svg" xmlns:xlink="http://www.w3.org/1999/xlink">
<g id="graph0" class="graph" transform="scale(1 1) rotate(0) translate(4 78)">
<title>ResourceManager</title>
<polygon fill="#ffffff" stroke="transparent" points="-4,4 -4,-78 263.7729,-78 263.7729,4 -4,4"/>
<!-- Node1 -->
<g id="node1" class="node">
<title>Node1</title>
<polygon fill="#bfbfbf" stroke="#000000" points="79.8374,-55.5 79.8374,-73.5 178.103,-73.5 178.103,-55.5 79.8374,-55.5"/>
<text text-anchor="middle" x="128.9702" y="-61.5" font-family="Helvetica,sans-Serif" font-size="10.00" fill="#000000">ResourceManager</text>
</g>
<!-- Node2 -->
<g id="node2" class="node">
<title>Node2</title>
<g id="a_node2"><a xlink:href="classlocomotor_1_1core_1_1_core_resource_manager.html" target="_top" xlink:title="CoreResourceManager">
<polygon fill="#ffffff" stroke="#000000" points="0,-.5 0,-18.5 119.9404,-18.5 119.9404,-.5 0,-.5"/>
<text text-anchor="middle" x="59.9702" y="-6.5" font-family="Helvetica,sans-Serif" font-size="10.00" fill="#000000">CoreResourceManager</text>
</a>
</g>
</g>
<!-- Node1&#45;&gt;Node2 -->
<g id="edge1" class="edge">
<title>Node1&#45;&gt;Node2</title>
<path fill="none" stroke="#191970" d="M109.713,-49.15C97.4685,-39.3899 82.0178,-27.0742 71.6117,-18.7795"/>
<polygon fill="#191970" stroke="#191970" points="107.5749,-51.9216 117.5763,-55.4179 111.9381,-46.4478 107.5749,-51.9216"/>
</g>
<!-- Node3 -->
<g id="node3" class="node">
<title>Node3</title>
<g id="a_node3"><a xlink:href="classlocomotor_1_1front_1_1components_1_1_front_resource_manager.html" target="_top" xlink:title="FrontResourceManager">
<polygon fill="#ffffff" stroke="#000000" points="138.1675,-.5 138.1675,-18.5 259.7729,-18.5 259.7729,-.5 138.1675,-.5"/>
<text text-anchor="middle" x="198.9702" y="-6.5" font-family="Helvetica,sans-Serif" font-size="10.00" fill="#000000">FrontResourceManager</text>
</a>
</g>
</g>
<!-- Node1&#45;&gt;Node3 -->
<g id="edge2" class="edge">
<title>Node1&#45;&gt;Node3</title>
<path fill="none" stroke="#191970" d="M148.5066,-49.15C160.9285,-39.3899 176.6031,-27.0742 187.16,-18.7795"/>
<polygon fill="#191970" stroke="#191970" points="146.2301,-46.4875 140.5293,-55.4179 150.5549,-51.9917 146.2301,-46.4875"/>
</g>
</g>
</svg>
