<?xml version="1.0" encoding="UTF-8" standalone="no"?>
<!DOCTYPE svg PUBLIC "-//W3C//DTD SVG 1.1//EN"
 "http://www.w3.org/Graphics/SVG/1.1/DTD/svg11.dtd">
<!-- Generated by graphviz version 2.40.1 (20161225.0304)
 -->
<!-- Title: CLong Pages: 1 -->
<svg width="347pt" height="247pt"
 viewBox="0.00 0.00 347.10 247.00" xmlns="http://www.w3.org/2000/svg" xmlns:xlink="http://www.w3.org/1999/xlink">
<g id="graph0" class="graph" transform="scale(1 1) rotate(0) translate(4 243)">
<title>CLong</title>
<polygon fill="#ffffff" stroke="transparent" points="-4,4 -4,-243 343.0957,-243 343.0957,4 -4,4"/>
<!-- Node1 -->
<g id="node1" class="node">
<title>Node1</title>
<polygon fill="#bfbfbf" stroke="#000000" points="141.9556,-55.5 141.9556,-73.5 187.4233,-73.5 187.4233,-55.5 141.9556,-55.5"/>
<text text-anchor="middle" x="164.6895" y="-61.5" font-family="Helvetica,sans-Serif" font-size="10.00" fill="#000000">CLong</text>
</g>
<!-- Node7 -->
<g id="node7" class="node">
<title>Node7</title>
<g id="a_node7"><a xlink:href="classlocomotor_1_1components_1_1types_1_1_c_integer.html" target="_top" xlink:title="CInteger">
<polygon fill="#ffffff" stroke="#000000" points="91.5122,-.5 91.5122,-18.5 145.8667,-18.5 145.8667,-.5 91.5122,-.5"/>
<text text-anchor="middle" x="118.6895" y="-6.5" font-family="Helvetica,sans-Serif" font-size="10.00" fill="#000000">CInteger</text>
</a>
</g>
</g>
<!-- Node1&#45;&gt;Node7 -->
<g id="edge6" class="edge">
<title>Node1&#45;&gt;Node7</title>
<path fill="none" stroke="#191970" d="M150.6597,-47.7253C142.7057,-38.215 133.0543,-26.6754 126.4505,-18.7795"/>
<polygon fill="#191970" stroke="#191970" points="147.9931,-49.9925 157.0935,-55.4179 153.3627,-45.5016 147.9931,-49.9925"/>
</g>
<!-- Node8 -->
<g id="node8" class="node">
<title>Node8</title>
<g id="a_node8"><a xlink:href="classlocomotor_1_1components_1_1types_1_1_c_weighted_integer.html" target="_top" xlink:title="CWeightedInteger">
<polygon fill="#ffffff" stroke="#000000" points="163.4771,-.5 163.4771,-18.5 259.9019,-18.5 259.9019,-.5 163.4771,-.5"/>
<text text-anchor="middle" x="211.6895" y="-6.5" font-family="Helvetica,sans-Serif" font-size="10.00" fill="#000000">CWeightedInteger</text>
</a>
</g>
</g>
<!-- Node1&#45;&gt;Node8 -->
<g id="edge7" class="edge">
<title>Node1&#45;&gt;Node8</title>
<path fill="none" stroke="#191970" d="M179.0242,-47.7253C187.1512,-38.215 197.0123,-26.6754 203.7597,-18.7795"/>
<polygon fill="#191970" stroke="#191970" points="176.2863,-45.5417 172.4505,-55.4179 181.6079,-50.0893 176.2863,-45.5417"/>
</g>
<!-- Node2 -->
<g id="node2" class="node">
<title>Node2</title>
<g id="a_node2"><a xlink:href="interfacelocomotor_1_1components_1_1types_1_1_c_item_type.html" target="_top" xlink:title="CItemType">
<polygon fill="#ffffff" stroke="#000000" points="132.5122,-110.5 132.5122,-128.5 196.8667,-128.5 196.8667,-110.5 132.5122,-110.5"/>
<text text-anchor="middle" x="164.6895" y="-116.5" font-family="Helvetica,sans-Serif" font-size="10.00" fill="#000000">CItemType</text>
</a>
</g>
</g>
<!-- Node2&#45;&gt;Node1 -->
<g id="edge1" class="edge">
<title>Node2&#45;&gt;Node1</title>
<path fill="none" stroke="#191970" d="M164.6895,-100.383C164.6895,-91.3738 164.6895,-81.0373 164.6895,-73.7795"/>
<polygon fill="#191970" stroke="#191970" points="161.1896,-100.4178 164.6895,-110.4179 168.1896,-100.4179 161.1896,-100.4178"/>
</g>
<!-- Node3 -->
<g id="node3" class="node">
<title>Node3</title>
<g id="a_node3"><a xlink:href="interfacelocomotor_1_1components_1_1types_1_1_c_comparable_type.html" target="_top" xlink:title="CComparableType">
<polygon fill="#ffffff" stroke="#000000" points="0,-165.5 0,-183.5 99.3789,-183.5 99.3789,-165.5 0,-165.5"/>
<text text-anchor="middle" x="49.6895" y="-171.5" font-family="Helvetica,sans-Serif" font-size="10.00" fill="#000000">CComparableType</text>
</a>
</g>
</g>
<!-- Node3&#45;&gt;Node2 -->
<g id="edge2" class="edge">
<title>Node3&#45;&gt;Node2</title>
<path fill="none" stroke="#191970" d="M77.7989,-161.0563C98.8851,-150.9716 127.1836,-137.4376 145.6713,-128.5956"/>
<polygon fill="#191970" stroke="#191970" points="76.1906,-157.9458 68.6794,-165.4179 79.2108,-164.2607 76.1906,-157.9458"/>
</g>
<!-- Node4 -->
<g id="node4" class="node">
<title>Node4</title>
<g id="a_node4"><a xlink:href="interfacelocomotor_1_1components_1_1types_1_1_c_type.html" target="_top" xlink:title="CType">
<polygon fill="#ffffff" stroke="#000000" points="27.2363,-220.5 27.2363,-238.5 72.1426,-238.5 72.1426,-220.5 27.2363,-220.5"/>
<text text-anchor="middle" x="49.6895" y="-226.5" font-family="Helvetica,sans-Serif" font-size="10.00" fill="#000000">CType</text>
</a>
</g>
</g>
<!-- Node4&#45;&gt;Node3 -->
<g id="edge3" class="edge">
<title>Node4&#45;&gt;Node3</title>
<path fill="none" stroke="#191970" d="M49.6895,-210.383C49.6895,-201.3738 49.6895,-191.0373 49.6895,-183.7795"/>
<polygon fill="#191970" stroke="#191970" points="46.1896,-210.4178 49.6895,-220.4179 53.1896,-210.4179 46.1896,-210.4178"/>
</g>
<!-- Node5 -->
<g id="node5" class="node">
<title>Node5</title>
<g id="a_node5"><a xlink:href="interfacelocomotor_1_1components_1_1_j_s_o_n_displayable.html" target="_top" xlink:title="JSONDisplayable">
<polygon fill="#ffffff" stroke="#000000" points="117.5073,-165.5 117.5073,-183.5 211.8716,-183.5 211.8716,-165.5 117.5073,-165.5"/>
<text text-anchor="middle" x="164.6895" y="-171.5" font-family="Helvetica,sans-Serif" font-size="10.00" fill="#000000">JSONDisplayable</text>
</a>
</g>
</g>
<!-- Node5&#45;&gt;Node2 -->
<g id="edge4" class="edge">
<title>Node5&#45;&gt;Node2</title>
<path fill="none" stroke="#191970" d="M164.6895,-155.383C164.6895,-146.3738 164.6895,-136.0373 164.6895,-128.7795"/>
<polygon fill="#191970" stroke="#191970" points="161.1896,-155.4178 164.6895,-165.4179 168.1896,-155.4179 161.1896,-155.4178"/>
</g>
<!-- Node6 -->
<g id="node6" class="node">
<title>Node6</title>
<g id="a_node6"><a xlink:href="interfacelocomotor_1_1components_1_1_j_s_o_n_convertissable.html" target="_top" xlink:title="JSONConvertissable">
<polygon fill="#ffffff" stroke="#000000" points="230.2832,-165.5 230.2832,-183.5 339.0957,-183.5 339.0957,-165.5 230.2832,-165.5"/>
<text text-anchor="middle" x="284.6895" y="-171.5" font-family="Helvetica,sans-Serif" font-size="10.00" fill="#000000">JSONConvertissable</text>
</a>
</g>
</g>
<!-- Node6&#45;&gt;Node2 -->
<g id="edge5" class="edge">
<title>Node6&#45;&gt;Node2</title>
<path fill="none" stroke="#191970" d="M255.6547,-161.1924C233.6211,-151.0937 203.9129,-137.4774 184.5345,-128.5956"/>
<polygon fill="#191970" stroke="#191970" points="254.3249,-164.433 264.8739,-165.4179 257.2415,-158.0695 254.3249,-164.433"/>
</g>
</g>
</svg>
