<?xml version="1.0" encoding="UTF-8" standalone="no"?>
<!DOCTYPE svg PUBLIC "-//W3C//DTD SVG 1.1//EN"
 "http://www.w3.org/Graphics/SVG/1.1/DTD/svg11.dtd">
<!-- Generated by graphviz version 2.40.1 (20161225.0304)
 -->
<!-- Title: CFloat Pages: 1 -->
<svg width="384pt" height="202pt"
 viewBox="0.00 0.00 384.09 202.00" xmlns="http://www.w3.org/2000/svg" xmlns:xlink="http://www.w3.org/1999/xlink">
<g id="graph0" class="graph" transform="scale(1 1) rotate(0) translate(4 198)">
<title>CFloat</title>
<polygon fill="#ffffff" stroke="transparent" points="-4,4 -4,-198 380.0869,-198 380.0869,4 -4,4"/>
<!-- Node1 -->
<g id="node1" class="node">
<title>Node1</title>
<polygon fill="#bfbfbf" stroke="#000000" points="206.9629,-.5 206.9629,-18.5 252.416,-18.5 252.416,-.5 206.9629,-.5"/>
<text text-anchor="middle" x="229.6895" y="-6.5" font-family="Helvetica,sans-Serif" font-size="10.00" fill="#000000">CFloat</text>
</g>
<!-- Node2 -->
<g id="node2" class="node">
<title>Node2</title>
<g id="a_node2"><a xlink:href="interfacelocomotor_1_1components_1_1types_1_1_c_item_type.html" target="_top" xlink:title="CItemType">
<polygon fill="#ffffff" stroke="#000000" points="132.5122,-60.5 132.5122,-78.5 196.8667,-78.5 196.8667,-60.5 132.5122,-60.5"/>
<text text-anchor="middle" x="164.6895" y="-66.5" font-family="Helvetica,sans-Serif" font-size="10.00" fill="#000000">CItemType</text>
</a>
</g>
</g>
<!-- Node2&#45;&gt;Node1 -->
<g id="edge1" class="edge">
<title>Node2&#45;&gt;Node1</title>
<path fill="none" stroke="#191970" d="M182.2155,-53.3221C194.2396,-42.2229 209.7633,-27.8933 219.7244,-18.6985"/>
<polygon fill="#191970" stroke="#191970" points="179.5356,-51.0326 174.5616,-60.3873 184.2836,-56.1763 179.5356,-51.0326"/>
</g>
<!-- Node3 -->
<g id="node3" class="node">
<title>Node3</title>
<g id="a_node3"><a xlink:href="interfacelocomotor_1_1components_1_1types_1_1_c_comparable_type.html" target="_top" xlink:title="CComparableType">
<polygon fill="#ffffff" stroke="#000000" points="0,-120.5 0,-138.5 99.3789,-138.5 99.3789,-120.5 0,-120.5"/>
<text text-anchor="middle" x="49.6895" y="-126.5" font-family="Helvetica,sans-Serif" font-size="10.00" fill="#000000">CComparableType</text>
</a>
</g>
</g>
<!-- Node3&#45;&gt;Node2 -->
<g id="edge2" class="edge">
<title>Node3&#45;&gt;Node2</title>
<path fill="none" stroke="#191970" d="M76.2534,-115.6405C98.1554,-104.2134 128.5844,-88.3374 147.4359,-78.5019"/>
<polygon fill="#191970" stroke="#191970" points="74.4023,-112.6585 67.1555,-120.3873 77.6403,-118.8646 74.4023,-112.6585"/>
</g>
<!-- Node4 -->
<g id="node4" class="node">
<title>Node4</title>
<g id="a_node4"><a xlink:href="interfacelocomotor_1_1components_1_1types_1_1_c_type.html" target="_top" xlink:title="CType">
<polygon fill="#ffffff" stroke="#000000" points="27.2363,-175.5 27.2363,-193.5 72.1426,-193.5 72.1426,-175.5 27.2363,-175.5"/>
<text text-anchor="middle" x="49.6895" y="-181.5" font-family="Helvetica,sans-Serif" font-size="10.00" fill="#000000">CType</text>
</a>
</g>
</g>
<!-- Node4&#45;&gt;Node3 -->
<g id="edge3" class="edge">
<title>Node4&#45;&gt;Node3</title>
<path fill="none" stroke="#191970" d="M49.6895,-165.383C49.6895,-156.3738 49.6895,-146.0373 49.6895,-138.7795"/>
<polygon fill="#191970" stroke="#191970" points="46.1896,-165.4178 49.6895,-175.4179 53.1896,-165.4179 46.1896,-165.4178"/>
</g>
<!-- Node5 -->
<g id="node5" class="node">
<title>Node5</title>
<g id="a_node5"><a xlink:href="interfacelocomotor_1_1components_1_1_j_s_o_n_displayable.html" target="_top" xlink:title="JSONDisplayable">
<polygon fill="#ffffff" stroke="#000000" points="117.5073,-120.5 117.5073,-138.5 211.8716,-138.5 211.8716,-120.5 117.5073,-120.5"/>
<text text-anchor="middle" x="164.6895" y="-126.5" font-family="Helvetica,sans-Serif" font-size="10.00" fill="#000000">JSONDisplayable</text>
</a>
</g>
</g>
<!-- Node5&#45;&gt;Node2 -->
<g id="edge4" class="edge">
<title>Node5&#45;&gt;Node2</title>
<path fill="none" stroke="#191970" d="M164.6895,-110.3734C164.6895,-99.7812 164.6895,-87.0976 164.6895,-78.6985"/>
<polygon fill="#191970" stroke="#191970" points="161.1896,-110.3873 164.6895,-120.3873 168.1896,-110.3873 161.1896,-110.3873"/>
</g>
<!-- Node6 -->
<g id="node6" class="node">
<title>Node6</title>
<g id="a_node6"><a xlink:href="interfacelocomotor_1_1components_1_1_j_s_o_n_convertissable.html" target="_top" xlink:title="JSONConvertissable">
<polygon fill="#ffffff" stroke="#000000" points="230.2832,-120.5 230.2832,-138.5 339.0957,-138.5 339.0957,-120.5 230.2832,-120.5"/>
<text text-anchor="middle" x="284.6895" y="-126.5" font-family="Helvetica,sans-Serif" font-size="10.00" fill="#000000">JSONConvertissable</text>
</a>
</g>
</g>
<!-- Node6&#45;&gt;Node2 -->
<g id="edge5" class="edge">
<title>Node6&#45;&gt;Node2</title>
<path fill="none" stroke="#191970" d="M257.2774,-115.794C234.4013,-104.3559 202.4526,-88.3815 182.6932,-78.5019"/>
<polygon fill="#191970" stroke="#191970" points="255.9545,-119.0456 266.464,-120.3873 259.085,-112.7846 255.9545,-119.0456"/>
</g>
<!-- Node7 -->
<g id="node7" class="node">
<title>Node7</title>
<g id="a_node7"><a xlink:href="interfacelocomotor_1_1components_1_1types_1_1_c_comparable.html" target="_top" xlink:title="CComparable\&lt; CIntervalDouble,\l CIntervalDouble \&gt;">
<polygon fill="#ffffff" stroke="#000000" points="215.292,-55.5 215.292,-83.5 376.0869,-83.5 376.0869,-55.5 215.292,-55.5"/>
<text text-anchor="start" x="223.292" y="-71.5" font-family="Helvetica,sans-Serif" font-size="10.00" fill="#000000">CComparable&lt; CIntervalDouble,</text>
<text text-anchor="middle" x="295.6895" y="-61.5" font-family="Helvetica,sans-Serif" font-size="10.00" fill="#000000"> CIntervalDouble &gt;</text>
</a>
</g>
</g>
<!-- Node7&#45;&gt;Node1 -->
<g id="edge6" class="edge">
<title>Node7&#45;&gt;Node1</title>
<path fill="none" stroke="#191970" d="M272.5983,-48.508C261.34,-38.2733 248.3859,-26.4967 239.6821,-18.5842"/>
<polygon fill="#191970" stroke="#191970" points="270.2946,-51.1439 280.0484,-55.2808 275.0033,-45.9643 270.2946,-51.1439"/>
</g>
</g>
</svg>
