<?xml version="1.0" encoding="UTF-8" standalone="no"?>
<!DOCTYPE svg PUBLIC "-//W3C//DTD SVG 1.1//EN"
 "http://www.w3.org/Graphics/SVG/1.1/DTD/svg11.dtd">
<!-- Generated by graphviz version 2.40.1 (20161225.0304)
 -->
<!-- Title: universeNameAlreadyTaken Pages: 1 -->
<svg width="796pt" height="64pt"
 viewBox="0.00 0.00 795.62 64.00" xmlns="http://www.w3.org/2000/svg" xmlns:xlink="http://www.w3.org/1999/xlink">
<g id="graph0" class="graph" transform="scale(1 1) rotate(0) translate(4 60)">
<title>universeNameAlreadyTaken</title>
<polygon fill="#ffffff" stroke="transparent" points="-4,4 -4,-60 791.623,-60 791.623,4 -4,4"/>
<!-- Node1 -->
<g id="node1" class="node">
<title>Node1</title>
<polygon fill="#bfbfbf" stroke="#000000" points="0,-18.5 0,-36.5 141.0635,-36.5 141.0635,-18.5 0,-18.5"/>
<text text-anchor="middle" x="70.5317" y="-24.5" font-family="Helvetica,sans-Serif" font-size="10.00" fill="#000000">universeNameAlreadyTaken</text>
</g>
<!-- Node2 -->
<g id="node2" class="node">
<title>Node2</title>
<g id="a_node2"><a xlink:href="classlocomotor_1_1core_1_1_d_b_h.html#a756e5af44b74ea39a44a71cde06102fd" target="_top" xlink:title="checkingParsingUniverse">
<polygon fill="#ffffff" stroke="#000000" points="177.0635,-18.5 177.0635,-36.5 305.8955,-36.5 305.8955,-18.5 177.0635,-18.5"/>
<text text-anchor="middle" x="241.4795" y="-24.5" font-family="Helvetica,sans-Serif" font-size="10.00" fill="#000000">checkingParsingUniverse</text>
</a>
</g>
</g>
<!-- Node1&#45;&gt;Node2 -->
<g id="edge1" class="edge">
<title>Node1&#45;&gt;Node2</title>
<path fill="none" stroke="#191970" d="M151.7981,-27.5C160.2452,-27.5 168.7473,-27.5 176.9733,-27.5"/>
<polygon fill="#191970" stroke="#191970" points="151.5439,-24.0001 141.5439,-27.5 151.5438,-31.0001 151.5439,-24.0001"/>
</g>
<!-- Node3 -->
<g id="node3" class="node">
<title>Node3</title>
<g id="a_node3"><a xlink:href="classlocomotor_1_1core_1_1_d_b_h.html#a2b2232ca307c4877316e8b6097902f2c" target="_top" xlink:title="addUniverse">
<polygon fill="#ffffff" stroke="#000000" points="348.8462,-37.5 348.8462,-55.5 420.9888,-55.5 420.9888,-37.5 348.8462,-37.5"/>
<text text-anchor="middle" x="384.9175" y="-43.5" font-family="Helvetica,sans-Serif" font-size="10.00" fill="#000000">addUniverse</text>
</a>
</g>
</g>
<!-- Node2&#45;&gt;Node3 -->
<g id="edge2" class="edge">
<title>Node2&#45;&gt;Node3</title>
<path fill="none" stroke="#191970" d="M316.0039,-37.3716C327.3186,-38.8704 338.5401,-40.3568 348.5395,-41.6813"/>
<polygon fill="#191970" stroke="#191970" points="316.4381,-33.8986 306.0651,-36.0551 315.5189,-40.838 316.4381,-33.8986"/>
</g>
<!-- Node6 -->
<g id="node6" class="node">
<title>Node6</title>
<g id="a_node6"><a xlink:href="classlocomotor_1_1core_1_1_d_b_h.html#a0565ab8a7a56491fca163a1b0977c0db" target="_top" xlink:title="updateUniverse">
<polygon fill="#ffffff" stroke="#000000" points="341.8955,-.5 341.8955,-18.5 427.9395,-18.5 427.9395,-.5 341.8955,-.5"/>
<text text-anchor="middle" x="384.9175" y="-6.5" font-family="Helvetica,sans-Serif" font-size="10.00" fill="#000000">updateUniverse</text>
</a>
</g>
</g>
<!-- Node2&#45;&gt;Node6 -->
<g id="edge5" class="edge">
<title>Node2&#45;&gt;Node6</title>
<path fill="none" stroke="#191970" d="M316.2628,-18.1155C324.9524,-17.025 333.5818,-15.9421 341.6397,-14.9309"/>
<polygon fill="#191970" stroke="#191970" points="315.5515,-14.6772 306.0651,-19.3952 316.4231,-21.6227 315.5515,-14.6772"/>
</g>
<!-- Node4 -->
<g id="node4" class="node">
<title>Node4</title>
<g id="a_node4"><a xlink:href="classlocomotor_1_1components_1_1network_1_1_a_p_i.html#a547463fbc7fb7b485886f0917e2c0b78" target="_top" xlink:title="locomotor.components.network.\lAPI.createHooks">
<polygon fill="#ffffff" stroke="#000000" points="463.9395,-13.5 463.9395,-41.5 621.126,-41.5 621.126,-13.5 463.9395,-13.5"/>
<text text-anchor="start" x="471.9395" y="-29.5" font-family="Helvetica,sans-Serif" font-size="10.00" fill="#000000">locomotor.components.network.</text>
<text text-anchor="middle" x="542.5327" y="-19.5" font-family="Helvetica,sans-Serif" font-size="10.00" fill="#000000">API.createHooks</text>
</a>
</g>
</g>
<!-- Node3&#45;&gt;Node4 -->
<g id="edge3" class="edge">
<title>Node3&#45;&gt;Node4</title>
<path fill="none" stroke="#191970" d="M431.0587,-40.9378C441.3761,-39.6941 452.6011,-38.341 463.8234,-36.9881"/>
<polygon fill="#191970" stroke="#191970" points="430.5868,-37.4693 421.0776,-42.141 431.4246,-44.419 430.5868,-37.4693"/>
</g>
<!-- Node5 -->
<g id="node5" class="node">
<title>Node5</title>
<g id="a_node5"><a xlink:href="classlocomotor_1_1core_1_1_main.html#a8b260eecbaabcef8473fd87ada040682" target="_top" xlink:title="locomotor.core.Main.main">
<polygon fill="#ffffff" stroke="#000000" points="657.126,-18.5 657.126,-36.5 787.623,-36.5 787.623,-18.5 657.126,-18.5"/>
<text text-anchor="middle" x="722.3745" y="-24.5" font-family="Helvetica,sans-Serif" font-size="10.00" fill="#000000">locomotor.core.Main.main</text>
</a>
</g>
</g>
<!-- Node4&#45;&gt;Node5 -->
<g id="edge4" class="edge">
<title>Node4&#45;&gt;Node5</title>
<path fill="none" stroke="#191970" d="M631.3257,-27.5C640.014,-27.5 648.7164,-27.5 657.1083,-27.5"/>
<polygon fill="#191970" stroke="#191970" points="631.1524,-24.0001 621.1523,-27.5 631.1523,-31.0001 631.1524,-24.0001"/>
</g>
<!-- Node6&#45;&gt;Node4 -->
<g id="edge6" class="edge">
<title>Node6&#45;&gt;Node4</title>
<path fill="none" stroke="#191970" d="M438.1771,-15.5824C446.4238,-16.5242 455.0891,-17.5138 463.754,-18.5033"/>
<polygon fill="#191970" stroke="#191970" points="438.3191,-12.0759 427.9865,-14.4186 437.5248,-19.0307 438.3191,-12.0759"/>
</g>
</g>
</svg>
