<?xml version="1.0" encoding="UTF-8" standalone="no"?>
<!DOCTYPE svg PUBLIC "-//W3C//DTD SVG 1.1//EN"
 "http://www.w3.org/Graphics/SVG/1.1/DTD/svg11.dtd">
<!-- Generated by graphviz version 2.40.1 (20161225.0304)
 -->
<!-- Title: updateItem Pages: 1 -->
<svg width="434pt" height="37pt"
 viewBox="0.00 0.00 433.72 37.00" xmlns="http://www.w3.org/2000/svg" xmlns:xlink="http://www.w3.org/1999/xlink">
<g id="graph0" class="graph" transform="scale(1 1) rotate(0) translate(4 33)">
<title>updateItem</title>
<polygon fill="#ffffff" stroke="transparent" points="-4,4 -4,-33 429.7178,-33 429.7178,4 -4,4"/>
<!-- Node1 -->
<g id="node1" class="node">
<title>Node1</title>
<polygon fill="#bfbfbf" stroke="#000000" points="0,-5.5 0,-23.5 66.0342,-23.5 66.0342,-5.5 0,-5.5"/>
<text text-anchor="middle" x="33.0171" y="-11.5" font-family="Helvetica,sans-Serif" font-size="10.00" fill="#000000">updateItem</text>
</g>
<!-- Node2 -->
<g id="node2" class="node">
<title>Node2</title>
<g id="a_node2"><a xlink:href="classlocomotor_1_1components_1_1network_1_1_a_p_i.html#a547463fbc7fb7b485886f0917e2c0b78" target="_top" xlink:title="locomotor.components.network.\lAPI.createHooks">
<polygon fill="#ffffff" stroke="#000000" points="102.0342,-.5 102.0342,-28.5 259.2207,-28.5 259.2207,-.5 102.0342,-.5"/>
<text text-anchor="start" x="110.0342" y="-16.5" font-family="Helvetica,sans-Serif" font-size="10.00" fill="#000000">locomotor.components.network.</text>
<text text-anchor="middle" x="180.6274" y="-6.5" font-family="Helvetica,sans-Serif" font-size="10.00" fill="#000000">API.createHooks</text>
</a>
</g>
</g>
<!-- Node1&#45;&gt;Node2 -->
<g id="edge1" class="edge">
<title>Node1&#45;&gt;Node2</title>
<path fill="none" stroke="#191970" d="M76.3548,-14.5C84.4112,-14.5 93.0551,-14.5 101.7934,-14.5"/>
<polygon fill="#191970" stroke="#191970" points="76.1438,-11.0001 66.1437,-14.5 76.1437,-18.0001 76.1438,-11.0001"/>
</g>
<!-- Node3 -->
<g id="node3" class="node">
<title>Node3</title>
<g id="a_node3"><a xlink:href="classlocomotor_1_1core_1_1_main.html#a8b260eecbaabcef8473fd87ada040682" target="_top" xlink:title="locomotor.core.Main.main">
<polygon fill="#ffffff" stroke="#000000" points="295.2207,-5.5 295.2207,-23.5 425.7178,-23.5 425.7178,-5.5 295.2207,-5.5"/>
<text text-anchor="middle" x="360.4692" y="-11.5" font-family="Helvetica,sans-Serif" font-size="10.00" fill="#000000">locomotor.core.Main.main</text>
</a>
</g>
</g>
<!-- Node2&#45;&gt;Node3 -->
<g id="edge2" class="edge">
<title>Node2&#45;&gt;Node3</title>
<path fill="none" stroke="#191970" d="M269.4205,-14.5C278.1088,-14.5 286.8111,-14.5 295.203,-14.5"/>
<polygon fill="#191970" stroke="#191970" points="269.2471,-11.0001 259.247,-14.5 269.247,-18.0001 269.2471,-11.0001"/>
</g>
</g>
</svg>
