<?xml version="1.0" encoding="UTF-8" standalone="no"?>
<!DOCTYPE svg PUBLIC "-//W3C//DTD SVG 1.1//EN"
 "http://www.w3.org/Graphics/SVG/1.1/DTD/svg11.dtd">
<!-- Generated by graphviz version 2.40.1 (20161225.0304)
 -->
<!-- Title: cdf Pages: 1 -->
<svg width="451pt" height="84pt"
 viewBox="0.00 0.00 450.95 84.00" xmlns="http://www.w3.org/2000/svg" xmlns:xlink="http://www.w3.org/1999/xlink">
<g id="graph0" class="graph" transform="scale(1 1) rotate(0) translate(4 80)">
<title>cdf</title>
<polygon fill="#ffffff" stroke="transparent" points="-4,4 -4,-80 446.9492,-80 446.9492,4 -4,4"/>
<!-- Node1 -->
<g id="node1" class="node">
<title>Node1</title>
<polygon fill="#bfbfbf" stroke="#000000" points="0,-28.5 0,-46.5 29.3398,-46.5 29.3398,-28.5 0,-28.5"/>
<text text-anchor="middle" x="14.6699" y="-34.5" font-family="Helvetica,sans-Serif" font-size="10.00" fill="#000000">cdf</text>
</g>
<!-- Node2 -->
<g id="node2" class="node">
<title>Node2</title>
<g id="a_node2"><a xlink:href="classlocomotor_1_1components_1_1_compare.html#af1d05ce01ba9906df55e7a4976e44cc9" target="_top" xlink:title="locomotor.components.Compare.interval\lValue">
<polygon fill="#ffffff" stroke="#000000" points="65.3398,-23.5 65.3398,-51.5 260.876,-51.5 260.876,-23.5 65.3398,-23.5"/>
<text text-anchor="start" x="73.3398" y="-39.5" font-family="Helvetica,sans-Serif" font-size="10.00" fill="#000000">locomotor.components.Compare.interval</text>
<text text-anchor="middle" x="163.1079" y="-29.5" font-family="Helvetica,sans-Serif" font-size="10.00" fill="#000000">Value</text>
</a>
</g>
</g>
<!-- Node1&#45;&gt;Node2 -->
<g id="edge1" class="edge">
<title>Node1&#45;&gt;Node2</title>
<path fill="none" stroke="#191970" d="M39.5167,-37.5C47.0518,-37.5 55.8295,-37.5 65.167,-37.5"/>
<polygon fill="#191970" stroke="#191970" points="39.4454,-34.0001 29.4454,-37.5 39.4454,-41.0001 39.4454,-34.0001"/>
</g>
<!-- Node3 -->
<g id="node3" class="node">
<title>Node3</title>
<g id="a_node3"><a xlink:href="classlocomotor_1_1components_1_1types_1_1_c_interval_double.html#a871921d9d041c5c7993927dde6332e2c" target="_top" xlink:title="locomotor.components.types.\lCIntervalDouble.compare">
<polygon fill="#ffffff" stroke="#000000" points="296.876,-47.5 296.876,-75.5 442.9492,-75.5 442.9492,-47.5 296.876,-47.5"/>
<text text-anchor="start" x="304.876" y="-63.5" font-family="Helvetica,sans-Serif" font-size="10.00" fill="#000000">locomotor.components.types.</text>
<text text-anchor="middle" x="369.9126" y="-53.5" font-family="Helvetica,sans-Serif" font-size="10.00" fill="#000000">CIntervalDouble.compare</text>
</a>
</g>
</g>
<!-- Node2&#45;&gt;Node3 -->
<g id="edge2" class="edge">
<title>Node2&#45;&gt;Node3</title>
<path fill="none" stroke="#191970" d="M271.1985,-50.0441C279.8306,-51.0458 288.419,-52.0425 296.7225,-53.0062"/>
<polygon fill="#191970" stroke="#191970" points="271.3965,-46.5436 261.0596,-48.8674 270.5895,-53.497 271.3965,-46.5436"/>
</g>
<!-- Node4 -->
<g id="node4" class="node">
<title>Node4</title>
<g id="a_node4"><a xlink:href="classlocomotor_1_1components_1_1types_1_1_c_interval_integer.html#a535607ef73128c96e7b4c3831a537c15" target="_top" xlink:title="locomotor.components.types.\lCIntervalInteger.compare">
<polygon fill="#ffffff" stroke="#000000" points="296.876,-.5 296.876,-28.5 442.9492,-28.5 442.9492,-.5 296.876,-.5"/>
<text text-anchor="start" x="304.876" y="-16.5" font-family="Helvetica,sans-Serif" font-size="10.00" fill="#000000">locomotor.components.types.</text>
<text text-anchor="middle" x="369.9126" y="-6.5" font-family="Helvetica,sans-Serif" font-size="10.00" fill="#000000">CIntervalInteger.compare</text>
</a>
</g>
</g>
<!-- Node2&#45;&gt;Node4 -->
<g id="edge3" class="edge">
<title>Node2&#45;&gt;Node4</title>
<path fill="none" stroke="#191970" d="M271.1985,-25.4786C279.8306,-24.5186 288.419,-23.5634 296.7225,-22.6399"/>
<polygon fill="#191970" stroke="#191970" points="270.6115,-22.0222 261.0596,-26.6062 271.3853,-28.9793 270.6115,-22.0222"/>
</g>
</g>
</svg>
