<?xml version="1.0" encoding="UTF-8" standalone="no"?>
<!DOCTYPE svg PUBLIC "-//W3C//DTD SVG 1.1//EN"
 "http://www.w3.org/Graphics/SVG/1.1/DTD/svg11.dtd">
<!-- Generated by graphviz version 2.40.1 (20161225.0304)
 -->
<!-- Title: intValue Pages: 1 -->
<svg width="832pt" height="180pt"
 viewBox="0.00 0.00 831.58 180.00" xmlns="http://www.w3.org/2000/svg" xmlns:xlink="http://www.w3.org/1999/xlink">
<g id="graph0" class="graph" transform="scale(1 1) rotate(0) translate(4 176)">
<title>intValue</title>
<polygon fill="#ffffff" stroke="transparent" points="-4,4 -4,-176 827.585,-176 827.585,4 -4,4"/>
<!-- Node1 -->
<g id="node1" class="node">
<title>Node1</title>
<polygon fill="#bfbfbf" stroke="#000000" points="0,-124.5 0,-142.5 51.4004,-142.5 51.4004,-124.5 0,-124.5"/>
<text text-anchor="middle" x="25.7002" y="-130.5" font-family="Helvetica,sans-Serif" font-size="10.00" fill="#000000">intValue</text>
</g>
<!-- Node2 -->
<g id="node2" class="node">
<title>Node2</title>
<g id="a_node2"><a xlink:href="classlocomotor_1_1components_1_1network_1_1_network_json_response.html#a611be806a1238aa7ec8c3166dca41509" target="_top" xlink:title="locomotor.components.network.\lNetworkJsonResponse.success">
<polygon fill="#ffffff" stroke="#000000" points="87.4004,-143.5 87.4004,-171.5 245.1289,-171.5 245.1289,-143.5 87.4004,-143.5"/>
<text text-anchor="start" x="95.4004" y="-159.5" font-family="Helvetica,sans-Serif" font-size="10.00" fill="#000000">locomotor.components.network.</text>
<text text-anchor="middle" x="166.2646" y="-149.5" font-family="Helvetica,sans-Serif" font-size="10.00" fill="#000000">NetworkJsonResponse.success</text>
</a>
</g>
</g>
<!-- Node1&#45;&gt;Node2 -->
<g id="edge1" class="edge">
<title>Node1&#45;&gt;Node2</title>
<path fill="none" stroke="#191970" d="M61.4537,-139.6046C69.4223,-140.9651 78.1789,-142.4602 87.1302,-143.9886"/>
<polygon fill="#191970" stroke="#191970" points="61.9283,-136.135 51.4819,-137.902 60.7501,-143.0352 61.9283,-136.135"/>
</g>
<!-- Node5 -->
<g id="node5" class="node">
<title>Node5</title>
<g id="a_node5"><a xlink:href="classlocomotor_1_1components_1_1network_1_1_network_response.html#ab1be964e3a5f4dfc34483da5bfd13a8a" target="_top" xlink:title="locomotor.components.network.\lNetworkResponse.failure">
<polygon fill="#ffffff" stroke="#000000" points="87.6714,-96.5 87.6714,-124.5 244.8579,-124.5 244.8579,-96.5 87.6714,-96.5"/>
<text text-anchor="start" x="95.6714" y="-112.5" font-family="Helvetica,sans-Serif" font-size="10.00" fill="#000000">locomotor.components.network.</text>
<text text-anchor="middle" x="166.2646" y="-102.5" font-family="Helvetica,sans-Serif" font-size="10.00" fill="#000000">NetworkResponse.failure</text>
</a>
</g>
</g>
<!-- Node1&#45;&gt;Node5 -->
<g id="edge4" class="edge">
<title>Node1&#45;&gt;Node5</title>
<path fill="none" stroke="#191970" d="M61.5343,-127.6366C69.5695,-126.3218 78.4029,-124.8765 87.4273,-123.3998"/>
<polygon fill="#191970" stroke="#191970" points="60.7854,-124.2125 51.4819,-129.2814 61.9158,-131.1206 60.7854,-124.2125"/>
</g>
<!-- Node3 -->
<g id="node3" class="node">
<title>Node3</title>
<g id="a_node3"><a xlink:href="classlocomotor_1_1components_1_1network_1_1_a_p_i.html#a547463fbc7fb7b485886f0917e2c0b78" target="_top" xlink:title="locomotor.components.network.\lAPI.createHooks">
<polygon fill="#ffffff" stroke="#000000" points="293.9219,-143.5 293.9219,-171.5 451.1084,-171.5 451.1084,-143.5 293.9219,-143.5"/>
<text text-anchor="start" x="301.9219" y="-159.5" font-family="Helvetica,sans-Serif" font-size="10.00" fill="#000000">locomotor.components.network.</text>
<text text-anchor="middle" x="372.5151" y="-149.5" font-family="Helvetica,sans-Serif" font-size="10.00" fill="#000000">API.createHooks</text>
</a>
</g>
</g>
<!-- Node2&#45;&gt;Node3 -->
<g id="edge2" class="edge">
<title>Node2&#45;&gt;Node3</title>
<path fill="none" stroke="#191970" d="M255.5732,-157.5C268.3334,-157.5 281.381,-157.5 293.9155,-157.5"/>
<polygon fill="#191970" stroke="#191970" points="255.4166,-154.0001 245.4166,-157.5 255.4166,-161.0001 255.4166,-154.0001"/>
</g>
<!-- Node4 -->
<g id="node4" class="node">
<title>Node4</title>
<g id="a_node4"><a xlink:href="classlocomotor_1_1core_1_1_main.html#a8b260eecbaabcef8473fd87ada040682" target="_top" xlink:title="locomotor.core.Main.main">
<polygon fill="#ffffff" stroke="#000000" points="693.0879,-122.5 693.0879,-140.5 823.585,-140.5 823.585,-122.5 693.0879,-122.5"/>
<text text-anchor="middle" x="758.3364" y="-128.5" font-family="Helvetica,sans-Serif" font-size="10.00" fill="#000000">locomotor.core.Main.main</text>
</a>
</g>
</g>
<!-- Node3&#45;&gt;Node4 -->
<g id="edge3" class="edge">
<title>Node3&#45;&gt;Node4</title>
<path fill="none" stroke="#191970" d="M461.7422,-151.4871C532.3519,-146.7288 629.3282,-140.1937 692.8888,-135.9104"/>
<polygon fill="#191970" stroke="#191970" points="461.2649,-148.0112 451.5228,-152.1758 461.7356,-154.9954 461.2649,-148.0112"/>
</g>
<!-- Node5&#45;&gt;Node3 -->
<g id="edge5" class="edge">
<title>Node5&#45;&gt;Node3</title>
<path fill="none" stroke="#191970" d="M237.8895,-126.8217C261.6671,-132.2402 287.9163,-138.2218 310.8738,-143.4533"/>
<polygon fill="#191970" stroke="#191970" points="238.3949,-123.3473 227.8672,-124.5379 236.8396,-130.1723 238.3949,-123.3473"/>
</g>
<!-- Node6 -->
<g id="node6" class="node">
<title>Node6</title>
<g id="a_node6"><a xlink:href="classlocomotor_1_1components_1_1network_1_1_i_endpoint_handler.html#ab14119ba2d6d06adbe73a9805f5130c6" target="_top" xlink:title="locomotor.components.network.\lIEndpointHandler.handle">
<polygon fill="#ffffff" stroke="#000000" points="293.9219,-96.5 293.9219,-124.5 451.1084,-124.5 451.1084,-96.5 293.9219,-96.5"/>
<text text-anchor="start" x="301.9219" y="-112.5" font-family="Helvetica,sans-Serif" font-size="10.00" fill="#000000">locomotor.components.network.</text>
<text text-anchor="middle" x="372.5151" y="-102.5" font-family="Helvetica,sans-Serif" font-size="10.00" fill="#000000">IEndpointHandler.handle</text>
</a>
</g>
</g>
<!-- Node5&#45;&gt;Node6 -->
<g id="edge6" class="edge">
<title>Node5&#45;&gt;Node6</title>
<path fill="none" stroke="#191970" d="M255.2908,-110.5C268.0683,-110.5 281.1401,-110.5 293.7016,-110.5"/>
<polygon fill="#191970" stroke="#191970" points="255.122,-107.0001 245.122,-110.5 255.1219,-114.0001 255.122,-107.0001"/>
</g>
<!-- Node7 -->
<g id="node7" class="node">
<title>Node7</title>
<g id="a_node7"><a xlink:href="classlocomotor_1_1components_1_1network_1_1_network_handler.html#a63d431845f1fd2adc1f96432f6003e25" target="_top" xlink:title="locomotor.components.network.\lNetworkHandler.init">
<polygon fill="#ffffff" stroke="#000000" points="499.9014,-96.5 499.9014,-124.5 657.0879,-124.5 657.0879,-96.5 499.9014,-96.5"/>
<text text-anchor="start" x="507.9014" y="-112.5" font-family="Helvetica,sans-Serif" font-size="10.00" fill="#000000">locomotor.components.network.</text>
<text text-anchor="middle" x="578.4946" y="-102.5" font-family="Helvetica,sans-Serif" font-size="10.00" fill="#000000">NetworkHandler.init</text>
</a>
</g>
</g>
<!-- Node5&#45;&gt;Node7 -->
<g id="edge10" class="edge">
<title>Node5&#45;&gt;Node7</title>
<path fill="none" stroke="#191970" d="M234.53,-94.5291C249.7811,-91.606 265.9383,-89.0059 281.1289,-87.5 361.9649,-79.4864 383.0672,-79.468 463.9014,-87.5 482.377,-89.3358 502.2848,-92.7976 520.2407,-96.4884"/>
<polygon fill="#191970" stroke="#191970" points="233.7852,-91.1085 224.6579,-96.4884 235.148,-97.9746 233.7852,-91.1085"/>
</g>
<!-- Node8 -->
<g id="node8" class="node">
<title>Node8</title>
<g id="a_node8"><a xlink:href="classlocomotor_1_1components_1_1network_1_1_i_endpoint_handler.html#a754e26560b323ad92f51d07b4cd02d2a" target="_top" xlink:title="locomotor.components.network.\lIEndpointHandler.sendDefaultMissing\lParametersMessage">
<polygon fill="#ffffff" stroke="#000000" points="281.1289,-.5 281.1289,-38.5 463.9014,-38.5 463.9014,-.5 281.1289,-.5"/>
<text text-anchor="start" x="289.1289" y="-26.5" font-family="Helvetica,sans-Serif" font-size="10.00" fill="#000000">locomotor.components.network.</text>
<text text-anchor="start" x="289.1289" y="-16.5" font-family="Helvetica,sans-Serif" font-size="10.00" fill="#000000">IEndpointHandler.sendDefaultMissing</text>
<text text-anchor="middle" x="372.5151" y="-6.5" font-family="Helvetica,sans-Serif" font-size="10.00" fill="#000000">ParametersMessage</text>
</a>
</g>
</g>
<!-- Node5&#45;&gt;Node8 -->
<g id="edge9" class="edge">
<title>Node5&#45;&gt;Node8</title>
<path fill="none" stroke="#191970" d="M201.9594,-91.5828C224.4075,-79.9884 254.1343,-65.1816 281.1289,-53.5 293.0915,-48.3233 306.1256,-43.1848 318.5042,-38.5298"/>
<polygon fill="#191970" stroke="#191970" points="200.0723,-88.6191 192.8136,-96.3367 203.3008,-94.8301 200.0723,-88.6191"/>
</g>
<!-- Node6&#45;&gt;Node7 -->
<g id="edge7" class="edge">
<title>Node6&#45;&gt;Node7</title>
<path fill="none" stroke="#191970" d="M461.4243,-110.5C474.185,-110.5 487.2396,-110.5 499.7846,-110.5"/>
<polygon fill="#191970" stroke="#191970" points="461.2689,-107.0001 451.2688,-110.5 461.2688,-114.0001 461.2689,-107.0001"/>
</g>
<!-- Node7&#45;&gt;Node4 -->
<g id="edge8" class="edge">
<title>Node7&#45;&gt;Node4</title>
<path fill="none" stroke="#191970" d="M667.2877,-120.8683C675.976,-121.8828 684.6783,-122.899 693.0702,-123.8789"/>
<polygon fill="#191970" stroke="#191970" points="667.4527,-117.3639 657.1142,-119.6804 666.6408,-124.3166 667.4527,-117.3639"/>
</g>
</g>
</svg>
