<?xml version="1.0" encoding="UTF-8" standalone="no"?>
<!DOCTYPE svg PUBLIC "-//W3C//DTD SVG 1.1//EN"
 "http://www.w3.org/Graphics/SVG/1.1/DTD/svg11.dtd">
<!-- Generated by graphviz version 2.40.1 (20161225.0304)
 -->
<!-- Title: registerUser Pages: 1 -->
<svg width="438pt" height="54pt"
 viewBox="0.00 0.00 438.14 54.00" xmlns="http://www.w3.org/2000/svg" xmlns:xlink="http://www.w3.org/1999/xlink">
<g id="graph0" class="graph" transform="scale(1 1) rotate(0) translate(4 50)">
<title>registerUser</title>
<polygon fill="#ffffff" stroke="transparent" points="-4,4 -4,-50 434.1416,-50 434.1416,4 -4,4"/>
<!-- Node1 -->
<g id="node1" class="node">
<title>Node1</title>
<polygon fill="#bfbfbf" stroke="#000000" points="0,-.5 0,-18.5 70.458,-18.5 70.458,-.5 0,-.5"/>
<text text-anchor="middle" x="35.229" y="-6.5" font-family="Helvetica,sans-Serif" font-size="10.00" fill="#000000">registerUser</text>
</g>
<!-- Node2 -->
<g id="node2" class="node">
<title>Node2</title>
<g id="a_node2"><a xlink:href="classlocomotor_1_1components_1_1network_1_1_a_p_i.html#a547463fbc7fb7b485886f0917e2c0b78" target="_top" xlink:title="locomotor.components.network.\lAPI.createHooks">
<polygon fill="#ffffff" stroke="#000000" points="106.458,-17.5 106.458,-45.5 263.6445,-45.5 263.6445,-17.5 106.458,-17.5"/>
<text text-anchor="start" x="114.458" y="-33.5" font-family="Helvetica,sans-Serif" font-size="10.00" fill="#000000">locomotor.components.network.</text>
<text text-anchor="middle" x="185.0513" y="-23.5" font-family="Helvetica,sans-Serif" font-size="10.00" fill="#000000">API.createHooks</text>
</a>
</g>
</g>
<!-- Node1&#45;&gt;Node2 -->
<g id="edge1" class="edge">
<title>Node1&#45;&gt;Node2</title>
<path fill="none" stroke="#191970" d="M80.737,-16.1824C88.8957,-17.3805 97.6076,-18.6597 106.3883,-19.9491"/>
<polygon fill="#191970" stroke="#191970" points="81.1372,-12.7037 70.7348,-14.7137 80.1202,-19.6295 81.1372,-12.7037"/>
</g>
<!-- Node3 -->
<g id="node3" class="node">
<title>Node3</title>
<g id="a_node3"><a xlink:href="classlocomotor_1_1core_1_1_main.html#a8b260eecbaabcef8473fd87ada040682" target="_top" xlink:title="locomotor.core.Main.main">
<polygon fill="#ffffff" stroke="#000000" points="299.6445,-.5 299.6445,-18.5 430.1416,-18.5 430.1416,-.5 299.6445,-.5"/>
<text text-anchor="middle" x="364.8931" y="-6.5" font-family="Helvetica,sans-Serif" font-size="10.00" fill="#000000">locomotor.core.Main.main</text>
</a>
</g>
</g>
<!-- Node1&#45;&gt;Node3 -->
<g id="edge3" class="edge">
<title>Node1&#45;&gt;Node3</title>
<path fill="none" stroke="#191970" d="M80.8916,-8.7639C89.3896,-8.6539 98.1933,-8.558 106.458,-8.5 176.317,-8.0096 193.7847,-8.155 263.6445,-8.5 275.2464,-8.5573 287.5957,-8.6515 299.536,-8.7598"/>
<polygon fill="#191970" stroke="#191970" points="80.685,-5.2663 70.7341,-8.9035 80.7813,-12.2656 80.685,-5.2663"/>
</g>
<!-- Node2&#45;&gt;Node3 -->
<g id="edge2" class="edge">
<title>Node2&#45;&gt;Node3</title>
<path fill="none" stroke="#191970" d="M273.8443,-20.638C282.5326,-19.5751 291.2349,-18.5106 299.6268,-17.484"/>
<polygon fill="#191970" stroke="#191970" points="273.1719,-17.1941 263.6709,-21.8825 274.0219,-24.1423 273.1719,-17.1941"/>
</g>
</g>
</svg>
