<?xml version="1.0" encoding="UTF-8" standalone="no"?>
<!DOCTYPE svg PUBLIC "-//W3C//DTD SVG 1.1//EN"
 "http://www.w3.org/Graphics/SVG/1.1/DTD/svg11.dtd">
<!-- Generated by graphviz version 2.40.1 (20161225.0304)
 -->
<!-- Title: getTree Pages: 1 -->
<svg width="422pt" height="37pt"
 viewBox="0.00 0.00 422.24 37.00" xmlns="http://www.w3.org/2000/svg" xmlns:xlink="http://www.w3.org/1999/xlink">
<g id="graph0" class="graph" transform="scale(1 1) rotate(0) translate(4 33)">
<title>getTree</title>
<polygon fill="#ffffff" stroke="transparent" points="-4,4 -4,-33 418.2432,-33 418.2432,4 -4,4"/>
<!-- Node1 -->
<g id="node1" class="node">
<title>Node1</title>
<polygon fill="#bfbfbf" stroke="#000000" points="0,-5.5 0,-23.5 50.0967,-23.5 50.0967,-5.5 0,-5.5"/>
<text text-anchor="middle" x="25.0483" y="-11.5" font-family="Helvetica,sans-Serif" font-size="10.00" fill="#000000">getTree</text>
</g>
<!-- Node2 -->
<g id="node2" class="node">
<title>Node2</title>
<g id="a_node2"><a xlink:href="classlocomotor_1_1components_1_1types_1_1_c_tree.html#a74382cb3a3153edc32f1cfed8c4ee364" target="_top" xlink:title="locomotor.components.types.\lCTree.addChild">
<polygon fill="#ffffff" stroke="#000000" points="86.0967,-.5 86.0967,-28.5 232.1699,-28.5 232.1699,-.5 86.0967,-.5"/>
<text text-anchor="start" x="94.0967" y="-16.5" font-family="Helvetica,sans-Serif" font-size="10.00" fill="#000000">locomotor.components.types.</text>
<text text-anchor="middle" x="159.1333" y="-6.5" font-family="Helvetica,sans-Serif" font-size="10.00" fill="#000000">CTree.addChild</text>
</a>
</g>
</g>
<!-- Node1&#45;&gt;Node2 -->
<g id="edge1" class="edge">
<title>Node1&#45;&gt;Node2</title>
<path fill="none" stroke="#191970" d="M50.2687,-14.5C57.8454,-14.5 66.6086,-14.5 75.8071,-14.5"/>
<polygon fill="#191970" stroke="#191970" points="75.9239,-18.0001 85.9238,-14.5 75.9238,-11.0001 75.9239,-18.0001"/>
</g>
<!-- Node3 -->
<g id="node3" class="node">
<title>Node3</title>
<g id="a_node3"><a xlink:href="classlocomotor_1_1components_1_1types_1_1_c_tree.html#af0e7a198496b1627d0ff15ce0e6de1f2" target="_top" xlink:title="locomotor.components.types.\lCTree.CTree">
<polygon fill="#ffffff" stroke="#000000" points="268.1699,-.5 268.1699,-28.5 414.2432,-28.5 414.2432,-.5 268.1699,-.5"/>
<text text-anchor="start" x="276.1699" y="-16.5" font-family="Helvetica,sans-Serif" font-size="10.00" fill="#000000">locomotor.components.types.</text>
<text text-anchor="middle" x="341.2065" y="-6.5" font-family="Helvetica,sans-Serif" font-size="10.00" fill="#000000">CTree.CTree</text>
</a>
</g>
</g>
<!-- Node2&#45;&gt;Node3 -->
<g id="edge2" class="edge">
<title>Node2&#45;&gt;Node3</title>
<path fill="none" stroke="#191970" d="M232.4024,-14.5C240.7623,-14.5 249.3302,-14.5 257.8091,-14.5"/>
<polygon fill="#191970" stroke="#191970" points="258.0874,-18.0001 268.0874,-14.5 258.0874,-11.0001 258.0874,-18.0001"/>
</g>
</g>
</svg>
