<?xml version="1.0" encoding="UTF-8" standalone="no"?>
<!DOCTYPE svg PUBLIC "-//W3C//DTD SVG 1.1//EN"
 "http://www.w3.org/Graphics/SVG/1.1/DTD/svg11.dtd">
<!-- Generated by graphviz version 2.40.1 (20161225.0304)
 -->
<!-- Title: CTree Pages: 1 -->
<svg width="1363pt" height="225pt"
 viewBox="0.00 0.00 1363.22 225.00" xmlns="http://www.w3.org/2000/svg" xmlns:xlink="http://www.w3.org/1999/xlink">
<g id="graph0" class="graph" transform="scale(1 1) rotate(0) translate(4 221)">
<title>CTree</title>
<polygon fill="#ffffff" stroke="transparent" points="-4,4 -4,-221 1359.2227,-221 1359.2227,4 -4,4"/>
<!-- Node1 -->
<g id="node1" class="node">
<title>Node1</title>
<polygon fill="#bfbfbf" stroke="#000000" points="0,-127.5 0,-145.5 43.417,-145.5 43.417,-127.5 0,-127.5"/>
<text text-anchor="middle" x="21.7085" y="-133.5" font-family="Helvetica,sans-Serif" font-size="10.00" fill="#000000">CTree</text>
</g>
<!-- Node2 -->
<g id="node2" class="node">
<title>Node2</title>
<g id="a_node2"><a xlink:href="classlocomotor_1_1components_1_1types_1_1_c_tree.html#a74382cb3a3153edc32f1cfed8c4ee364" target="_top" xlink:title="addChild">
<polygon fill="#ffffff" stroke="#000000" points="79.417,-108.5 79.417,-126.5 134.8896,-126.5 134.8896,-108.5 79.417,-108.5"/>
<text text-anchor="middle" x="107.1533" y="-114.5" font-family="Helvetica,sans-Serif" font-size="10.00" fill="#000000">addChild</text>
</a>
</g>
</g>
<!-- Node1&#45;&gt;Node2 -->
<g id="edge1" class="edge">
<title>Node1&#45;&gt;Node2</title>
<path fill="none" stroke="#191970" d="M53.6413,-129.3992C62.1069,-127.5168 71.1774,-125.4998 79.4008,-123.6712"/>
<polygon fill="#191970" stroke="#191970" points="52.7145,-126.0198 43.7127,-131.607 54.234,-132.8529 52.7145,-126.0198"/>
</g>
<!-- Node3 -->
<g id="node3" class="node">
<title>Node3</title>
<g id="a_node3"><a xlink:href="classlocomotor_1_1components_1_1types_1_1_c_tree.html#a82724a3000f4e1d5ff5fed5365e1480f" target="_top" xlink:title="fromJSON">
<polygon fill="#ffffff" stroke="#000000" points="170.8896,-146.5 170.8896,-164.5 233.5596,-164.5 233.5596,-146.5 170.8896,-146.5"/>
<text text-anchor="middle" x="202.2246" y="-152.5" font-family="Helvetica,sans-Serif" font-size="10.00" fill="#000000">fromJSON</text>
</a>
</g>
</g>
<!-- Node1&#45;&gt;Node3 -->
<g id="edge26" class="edge">
<title>Node1&#45;&gt;Node3</title>
<path fill="none" stroke="#191970" d="M53.5042,-139.8466C86.492,-143.3187 137.767,-148.7156 170.6666,-152.1784"/>
<polygon fill="#191970" stroke="#191970" points="53.7944,-136.3579 43.483,-138.7918 53.0616,-143.3195 53.7944,-136.3579"/>
</g>
<!-- Node2&#45;&gt;Node3 -->
<g id="edge2" class="edge">
<title>Node2&#45;&gt;Node3</title>
<path fill="none" stroke="#191970" d="M139.3524,-130.37C152.548,-135.6443 167.5095,-141.6244 179.5263,-146.4275"/>
<polygon fill="#191970" stroke="#191970" points="140.2687,-126.967 129.6839,-126.5055 137.6706,-133.467 140.2687,-126.967"/>
</g>
<!-- Node14 -->
<g id="node14" class="node">
<title>Node14</title>
<g id="a_node14"><a xlink:href="classlocomotor_1_1components_1_1types_1_1_type_factory.html#aa1f74ce70c02a7665f32b4ec438a6c3c" target="_top" xlink:title="locomotor.components.types.\lTypeFactory.getTree">
<polygon fill="#ffffff" stroke="#000000" points="271.957,-71.5 271.957,-99.5 418.0303,-99.5 418.0303,-71.5 271.957,-71.5"/>
<text text-anchor="start" x="279.957" y="-87.5" font-family="Helvetica,sans-Serif" font-size="10.00" fill="#000000">locomotor.components.types.</text>
<text text-anchor="middle" x="344.9937" y="-77.5" font-family="Helvetica,sans-Serif" font-size="10.00" fill="#000000">TypeFactory.getTree</text>
</a>
</g>
</g>
<!-- Node2&#45;&gt;Node14 -->
<g id="edge15" class="edge">
<title>Node2&#45;&gt;Node14</title>
<path fill="none" stroke="#191970" d="M144.8773,-112.4245C178.8637,-107.8518 229.7845,-101.0007 271.7539,-95.354"/>
<polygon fill="#191970" stroke="#191970" points="144.3461,-108.9643 134.9021,-113.7666 145.2795,-115.9018 144.3461,-108.9643"/>
</g>
<!-- Node3&#45;&gt;Node3 -->
<g id="edge3" class="edge">
<title>Node3&#45;&gt;Node3</title>
<path fill="none" stroke="#191970" d="M184.7481,-174.2336C185.7277,-179.2195 191.5532,-183 202.2246,-183 219.2988,-183 223.9676,-173.322 216.2308,-164.5134"/>
<polygon fill="#191970" stroke="#191970" points="188.1523,-175.1081 188.2184,-164.5134 181.5598,-172.7544 188.1523,-175.1081"/>
</g>
<!-- Node4 -->
<g id="node4" class="node">
<title>Node4</title>
<g id="a_node4"><a xlink:href="classlocomotor_1_1components_1_1types_1_1_type_factory.html#a8827604831ff8a1764b7639c82820497" target="_top" xlink:title="locomotor.components.types.\lTypeFactory.getItemFromJson">
<polygon fill="#ffffff" stroke="#000000" points="269.5596,-188.5 269.5596,-216.5 420.4277,-216.5 420.4277,-188.5 269.5596,-188.5"/>
<text text-anchor="start" x="277.5596" y="-204.5" font-family="Helvetica,sans-Serif" font-size="10.00" fill="#000000">locomotor.components.types.</text>
<text text-anchor="middle" x="344.9937" y="-194.5" font-family="Helvetica,sans-Serif" font-size="10.00" fill="#000000">TypeFactory.getItemFromJson</text>
</a>
</g>
</g>
<!-- Node3&#45;&gt;Node4 -->
<g id="edge4" class="edge">
<title>Node3&#45;&gt;Node4</title>
<path fill="none" stroke="#191970" d="M236.479,-168.0558C247.051,-171.8374 258.7545,-175.9293 269.5596,-179.5 278.6595,-182.5072 288.423,-185.5896 297.8068,-188.4811"/>
<polygon fill="#191970" stroke="#191970" points="237.3502,-164.6495 226.7558,-164.5524 234.9773,-171.2351 237.3502,-164.6495"/>
</g>
<!-- Node10 -->
<g id="node10" class="node">
<title>Node10</title>
<g id="a_node10"><a xlink:href="classlocomotor_1_1components_1_1types_1_1_type_factory.html#a1a64701bf13afa82b6b32bf422a171e2" target="_top" xlink:title="locomotor.components.types.\lTypeFactory.getUser">
<polygon fill="#ffffff" stroke="#000000" points="271.957,-141.5 271.957,-169.5 418.0303,-169.5 418.0303,-141.5 271.957,-141.5"/>
<text text-anchor="start" x="279.957" y="-157.5" font-family="Helvetica,sans-Serif" font-size="10.00" fill="#000000">locomotor.components.types.</text>
<text text-anchor="middle" x="344.9937" y="-147.5" font-family="Helvetica,sans-Serif" font-size="10.00" fill="#000000">TypeFactory.getUser</text>
</a>
</g>
</g>
<!-- Node3&#45;&gt;Node10 -->
<g id="edge10" class="edge">
<title>Node3&#45;&gt;Node10</title>
<path fill="none" stroke="#191970" d="M244.1864,-155.5C252.9395,-155.5 262.408,-155.5 271.9166,-155.5"/>
<polygon fill="#191970" stroke="#191970" points="243.9097,-152.0001 233.9097,-155.5 243.9097,-159.0001 243.9097,-152.0001"/>
</g>
<!-- Node5 -->
<g id="node5" class="node">
<title>Node5</title>
<g id="a_node5"><a xlink:href="classlocomotor_1_1components_1_1models_1_1_item_criteria_full.html#a436730a3499b6d7b1d0359e12aa2f04a" target="_top" xlink:title="locomotor.components.models.\lItemCriteriaFull.fromJSON">
<polygon fill="#ffffff" stroke="#000000" points="456.4277,-188.5 456.4277,-216.5 610.8359,-216.5 610.8359,-188.5 456.4277,-188.5"/>
<text text-anchor="start" x="464.4277" y="-204.5" font-family="Helvetica,sans-Serif" font-size="10.00" fill="#000000">locomotor.components.models.</text>
<text text-anchor="middle" x="533.6318" y="-194.5" font-family="Helvetica,sans-Serif" font-size="10.00" fill="#000000">ItemCriteriaFull.fromJSON</text>
</a>
</g>
</g>
<!-- Node4&#45;&gt;Node5 -->
<g id="edge5" class="edge">
<title>Node4&#45;&gt;Node5</title>
<path fill="none" stroke="#191970" d="M430.8479,-202.5C439.2741,-202.5 447.7912,-202.5 456.1271,-202.5"/>
<polygon fill="#191970" stroke="#191970" points="430.6331,-199.0001 420.6331,-202.5 430.6331,-206.0001 430.6331,-199.0001"/>
</g>
<!-- Node6 -->
<g id="node6" class="node">
<title>Node6</title>
<g id="a_node6"><a xlink:href="classlocomotor_1_1components_1_1models_1_1_item_category_full.html#a50ab7c0f8e4a65f80ca141f1fa1c7df8" target="_top" xlink:title="locomotor.components.models.\lItemCategoryFull.fromJSON">
<polygon fill="#ffffff" stroke="#000000" points="646.8359,-188.5 646.8359,-216.5 801.2441,-216.5 801.2441,-188.5 646.8359,-188.5"/>
<text text-anchor="start" x="654.8359" y="-204.5" font-family="Helvetica,sans-Serif" font-size="10.00" fill="#000000">locomotor.components.models.</text>
<text text-anchor="middle" x="724.04" y="-194.5" font-family="Helvetica,sans-Serif" font-size="10.00" fill="#000000">ItemCategoryFull.fromJSON</text>
</a>
</g>
</g>
<!-- Node5&#45;&gt;Node6 -->
<g id="edge6" class="edge">
<title>Node5&#45;&gt;Node6</title>
<path fill="none" stroke="#191970" d="M621.3322,-202.5C629.7858,-202.5 638.3188,-202.5 646.6624,-202.5"/>
<polygon fill="#191970" stroke="#191970" points="621.0782,-199.0001 611.0781,-202.5 621.0781,-206.0001 621.0782,-199.0001"/>
</g>
<!-- Node7 -->
<g id="node7" class="node">
<title>Node7</title>
<g id="a_node7"><a xlink:href="classlocomotor_1_1components_1_1models_1_1_item_full.html#afe56c5f49cb59d04ec69bbf32b58a2f8" target="_top" xlink:title="locomotor.components.models.\lItemFull.fromJSON">
<polygon fill="#ffffff" stroke="#000000" points="839.1875,-188.5 839.1875,-216.5 993.5957,-216.5 993.5957,-188.5 839.1875,-188.5"/>
<text text-anchor="start" x="847.1875" y="-204.5" font-family="Helvetica,sans-Serif" font-size="10.00" fill="#000000">locomotor.components.models.</text>
<text text-anchor="middle" x="916.3916" y="-194.5" font-family="Helvetica,sans-Serif" font-size="10.00" fill="#000000">ItemFull.fromJSON</text>
</a>
</g>
</g>
<!-- Node6&#45;&gt;Node7 -->
<g id="edge7" class="edge">
<title>Node6&#45;&gt;Node7</title>
<path fill="none" stroke="#191970" d="M811.7156,-202.5C820.8668,-202.5 830.1215,-202.5 839.1448,-202.5"/>
<polygon fill="#191970" stroke="#191970" points="811.4454,-199.0001 801.4453,-202.5 811.4453,-206.0001 811.4454,-199.0001"/>
</g>
<!-- Node8 -->
<g id="node8" class="node">
<title>Node8</title>
<g id="a_node8"><a xlink:href="classlocomotor_1_1components_1_1network_1_1_a_p_i.html#a547463fbc7fb7b485886f0917e2c0b78" target="_top" xlink:title="locomotor.components.network.\lAPI.createHooks">
<polygon fill="#ffffff" stroke="#000000" points="1031.5391,-98.5 1031.5391,-126.5 1188.7256,-126.5 1188.7256,-98.5 1031.5391,-98.5"/>
<text text-anchor="start" x="1039.5391" y="-114.5" font-family="Helvetica,sans-Serif" font-size="10.00" fill="#000000">locomotor.components.network.</text>
<text text-anchor="middle" x="1110.1323" y="-104.5" font-family="Helvetica,sans-Serif" font-size="10.00" fill="#000000">API.createHooks</text>
</a>
</g>
</g>
<!-- Node7&#45;&gt;Node8 -->
<g id="edge8" class="edge">
<title>Node7&#45;&gt;Node8</title>
<path fill="none" stroke="#191970" d="M981.0737,-185.1453C986.0206,-183.3812 990.8926,-181.4971 995.5391,-179.5 1030.0506,-164.6664 1067.0712,-141.56 1089.4144,-126.7293"/>
<polygon fill="#191970" stroke="#191970" points="979.8549,-181.8628 971.5081,-188.3883 982.1024,-188.4922 979.8549,-181.8628"/>
</g>
<!-- Node9 -->
<g id="node9" class="node">
<title>Node9</title>
<g id="a_node9"><a xlink:href="classlocomotor_1_1core_1_1_main.html#a8b260eecbaabcef8473fd87ada040682" target="_top" xlink:title="locomotor.core.Main.main">
<polygon fill="#ffffff" stroke="#000000" points="1224.7256,-103.5 1224.7256,-121.5 1355.2227,-121.5 1355.2227,-103.5 1224.7256,-103.5"/>
<text text-anchor="middle" x="1289.9741" y="-109.5" font-family="Helvetica,sans-Serif" font-size="10.00" fill="#000000">locomotor.core.Main.main</text>
</a>
</g>
</g>
<!-- Node8&#45;&gt;Node9 -->
<g id="edge9" class="edge">
<title>Node8&#45;&gt;Node9</title>
<path fill="none" stroke="#191970" d="M1198.9253,-112.5C1207.6136,-112.5 1216.316,-112.5 1224.7079,-112.5"/>
<polygon fill="#191970" stroke="#191970" points="1198.752,-109.0001 1188.7519,-112.5 1198.7519,-116.0001 1198.752,-109.0001"/>
</g>
<!-- Node11 -->
<g id="node11" class="node">
<title>Node11</title>
<g id="a_node11"><a xlink:href="classlocomotor_1_1components_1_1models_1_1_user_criteria.html#aaca1c5ec640a1453943ce97d40e12a63" target="_top" xlink:title="locomotor.components.models.\lUserCriteria.fromJSON">
<polygon fill="#ffffff" stroke="#000000" points="456.4277,-141.5 456.4277,-169.5 610.8359,-169.5 610.8359,-141.5 456.4277,-141.5"/>
<text text-anchor="start" x="464.4277" y="-157.5" font-family="Helvetica,sans-Serif" font-size="10.00" fill="#000000">locomotor.components.models.</text>
<text text-anchor="middle" x="533.6318" y="-147.5" font-family="Helvetica,sans-Serif" font-size="10.00" fill="#000000">UserCriteria.fromJSON</text>
</a>
</g>
</g>
<!-- Node10&#45;&gt;Node11 -->
<g id="edge11" class="edge">
<title>Node10&#45;&gt;Node11</title>
<path fill="none" stroke="#191970" d="M428.2751,-155.5C437.6332,-155.5 447.1382,-155.5 456.4149,-155.5"/>
<polygon fill="#191970" stroke="#191970" points="428.1961,-152.0001 418.1961,-155.5 428.1961,-159.0001 428.1961,-152.0001"/>
</g>
<!-- Node12 -->
<g id="node12" class="node">
<title>Node12</title>
<g id="a_node12"><a xlink:href="classlocomotor_1_1components_1_1models_1_1_user_category.html#a52e02970889790bace019e61fb256ff0" target="_top" xlink:title="locomotor.components.models.\lUserCategory.fromJSON">
<polygon fill="#ffffff" stroke="#000000" points="646.8359,-141.5 646.8359,-169.5 801.2441,-169.5 801.2441,-141.5 646.8359,-141.5"/>
<text text-anchor="start" x="654.8359" y="-157.5" font-family="Helvetica,sans-Serif" font-size="10.00" fill="#000000">locomotor.components.models.</text>
<text text-anchor="middle" x="724.04" y="-147.5" font-family="Helvetica,sans-Serif" font-size="10.00" fill="#000000">UserCategory.fromJSON</text>
</a>
</g>
</g>
<!-- Node11&#45;&gt;Node12 -->
<g id="edge12" class="edge">
<title>Node11&#45;&gt;Node12</title>
<path fill="none" stroke="#191970" d="M621.3322,-155.5C629.7858,-155.5 638.3188,-155.5 646.6624,-155.5"/>
<polygon fill="#191970" stroke="#191970" points="621.0782,-152.0001 611.0781,-155.5 621.0781,-159.0001 621.0782,-152.0001"/>
</g>
<!-- Node13 -->
<g id="node13" class="node">
<title>Node13</title>
<g id="a_node13"><a xlink:href="classlocomotor_1_1components_1_1models_1_1_user_item.html#ab97f79cf43a9a73bcd77cec6b449a79a" target="_top" xlink:title="locomotor.components.models.\lUserItem.fromJSON">
<polygon fill="#ffffff" stroke="#000000" points="839.1875,-141.5 839.1875,-169.5 993.5957,-169.5 993.5957,-141.5 839.1875,-141.5"/>
<text text-anchor="start" x="847.1875" y="-157.5" font-family="Helvetica,sans-Serif" font-size="10.00" fill="#000000">locomotor.components.models.</text>
<text text-anchor="middle" x="916.3916" y="-147.5" font-family="Helvetica,sans-Serif" font-size="10.00" fill="#000000">UserItem.fromJSON</text>
</a>
</g>
</g>
<!-- Node12&#45;&gt;Node13 -->
<g id="edge13" class="edge">
<title>Node12&#45;&gt;Node13</title>
<path fill="none" stroke="#191970" d="M811.7156,-155.5C820.8668,-155.5 830.1215,-155.5 839.1448,-155.5"/>
<polygon fill="#191970" stroke="#191970" points="811.4454,-152.0001 801.4453,-155.5 811.4453,-159.0001 811.4454,-152.0001"/>
</g>
<!-- Node13&#45;&gt;Node8 -->
<g id="edge14" class="edge">
<title>Node13&#45;&gt;Node8</title>
<path fill="none" stroke="#191970" d="M989.3522,-139.3067C1008.3345,-135.0936 1028.6235,-130.5906 1047.0483,-126.5013"/>
<polygon fill="#191970" stroke="#191970" points="988.5655,-135.896 979.5615,-141.4797 990.0823,-142.7297 988.5655,-135.896"/>
</g>
<!-- Node15 -->
<g id="node15" class="node">
<title>Node15</title>
<g id="a_node15"><a xlink:href="classlocomotor_1_1components_1_1types_1_1_type_factory.html#a98370bb7e619d26989b8bd6032f1468d" target="_top" xlink:title="locomotor.components.types.\lTypeFactory.getUniverse">
<polygon fill="#ffffff" stroke="#000000" points="460.5952,-94.5 460.5952,-122.5 606.6685,-122.5 606.6685,-94.5 460.5952,-94.5"/>
<text text-anchor="start" x="468.5952" y="-110.5" font-family="Helvetica,sans-Serif" font-size="10.00" fill="#000000">locomotor.components.types.</text>
<text text-anchor="middle" x="533.6318" y="-100.5" font-family="Helvetica,sans-Serif" font-size="10.00" fill="#000000">TypeFactory.getUniverse</text>
</a>
</g>
</g>
<!-- Node14&#45;&gt;Node15 -->
<g id="edge16" class="edge">
<title>Node14&#45;&gt;Node15</title>
<path fill="none" stroke="#191970" d="M428.3739,-95.6663C439.0693,-96.9703 449.9549,-98.2976 460.4705,-99.5797"/>
<polygon fill="#191970" stroke="#191970" points="428.5462,-92.1614 418.1961,-94.4253 427.6989,-99.11 428.5462,-92.1614"/>
</g>
<!-- Node16 -->
<g id="node16" class="node">
<title>Node16</title>
<g id="a_node16"><a xlink:href="classlocomotor_1_1components_1_1types_1_1_type_factory.html#a5f92827e8d1d5348ebff49dc8bae4f65" target="_top" xlink:title="locomotor.components.types.\lTypeFactory.getItem">
<polygon fill="#ffffff" stroke="#000000" points="460.5952,-47.5 460.5952,-75.5 606.6685,-75.5 606.6685,-47.5 460.5952,-47.5"/>
<text text-anchor="start" x="468.5952" y="-63.5" font-family="Helvetica,sans-Serif" font-size="10.00" fill="#000000">locomotor.components.types.</text>
<text text-anchor="middle" x="533.6318" y="-53.5" font-family="Helvetica,sans-Serif" font-size="10.00" fill="#000000">TypeFactory.getItem</text>
</a>
</g>
</g>
<!-- Node14&#45;&gt;Node16 -->
<g id="edge17" class="edge">
<title>Node14&#45;&gt;Node16</title>
<path fill="none" stroke="#191970" d="M428.3739,-74.8917C439.0693,-73.531 449.9549,-72.146 460.4705,-70.8081"/>
<polygon fill="#191970" stroke="#191970" points="427.6744,-71.4524 418.1961,-76.1866 428.5579,-78.3964 427.6744,-71.4524"/>
</g>
<!-- Node21 -->
<g id="node21" class="node">
<title>Node21</title>
<g id="a_node21"><a xlink:href="classlocomotor_1_1components_1_1types_1_1_type_factory.html#a4a713ccc930ad511f78317f186f12f12" target="_top" xlink:title="locomotor.components.types.\lTypeFactory.getTree">
<polygon fill="#ffffff" stroke="#000000" points="460.5952,-.5 460.5952,-28.5 606.6685,-28.5 606.6685,-.5 460.5952,-.5"/>
<text text-anchor="start" x="468.5952" y="-16.5" font-family="Helvetica,sans-Serif" font-size="10.00" fill="#000000">locomotor.components.types.</text>
<text text-anchor="middle" x="533.6318" y="-6.5" font-family="Helvetica,sans-Serif" font-size="10.00" fill="#000000">TypeFactory.getTree</text>
</a>
</g>
</g>
<!-- Node14&#45;&gt;Node21 -->
<g id="edge25" class="edge">
<title>Node14&#45;&gt;Node21</title>
<path fill="none" stroke="#191970" d="M384.1798,-67.2842C405.3355,-57.7911 432.0447,-46.349 456.4277,-37.5 464.9731,-34.3988 474.1562,-31.3896 483.1023,-28.6257"/>
<polygon fill="#191970" stroke="#191970" points="382.5468,-64.1814 374.8787,-71.4924 385.4324,-70.559 382.5468,-64.1814"/>
</g>
<!-- Node17 -->
<g id="node17" class="node">
<title>Node17</title>
<g id="a_node17"><a xlink:href="classlocomotor_1_1core_1_1_d_b_h.html#ae573347d7e17b2bf2bac3c4a41caf0fa" target="_top" xlink:title="locomotor.core.DBH.getItem">
<polygon fill="#ffffff" stroke="#000000" points="653.2349,-98.5 653.2349,-116.5 794.8452,-116.5 794.8452,-98.5 653.2349,-98.5"/>
<text text-anchor="middle" x="724.04" y="-104.5" font-family="Helvetica,sans-Serif" font-size="10.00" fill="#000000">locomotor.core.DBH.getItem</text>
</a>
</g>
</g>
<!-- Node16&#45;&gt;Node17 -->
<g id="edge18" class="edge">
<title>Node16&#45;&gt;Node17</title>
<path fill="none" stroke="#191970" d="M601.7397,-77.9539C630.3271,-84.8602 662.4702,-92.6256 686.6274,-98.4616"/>
<polygon fill="#191970" stroke="#191970" points="602.3375,-74.4977 591.7952,-75.5515 600.6936,-81.302 602.3375,-74.4977"/>
</g>
<!-- Node18 -->
<g id="node18" class="node">
<title>Node18</title>
<g id="a_node18"><a xlink:href="classlocomotor_1_1core_1_1_d_b_h.html#ad067053be75a3170dc9c2ce7b922e176" target="_top" xlink:title="locomotor.core.DBH.checking\lParsingItem">
<polygon fill="#ffffff" stroke="#000000" points="650.1758,-47.5 650.1758,-75.5 797.9043,-75.5 797.9043,-47.5 650.1758,-47.5"/>
<text text-anchor="start" x="658.1758" y="-63.5" font-family="Helvetica,sans-Serif" font-size="10.00" fill="#000000">locomotor.core.DBH.checking</text>
<text text-anchor="middle" x="724.04" y="-53.5" font-family="Helvetica,sans-Serif" font-size="10.00" fill="#000000">ParsingItem</text>
</a>
</g>
</g>
<!-- Node16&#45;&gt;Node18 -->
<g id="edge20" class="edge">
<title>Node16&#45;&gt;Node18</title>
<path fill="none" stroke="#191970" d="M616.7556,-61.5C627.7868,-61.5 639.0379,-61.5 649.9036,-61.5"/>
<polygon fill="#191970" stroke="#191970" points="616.7041,-58.0001 606.7041,-61.5 616.704,-65.0001 616.7041,-58.0001"/>
</g>
<!-- Node17&#45;&gt;Node8 -->
<g id="edge19" class="edge">
<title>Node17&#45;&gt;Node8</title>
<path fill="none" stroke="#191970" d="M804.8921,-108.5471C871.5145,-109.4098 965.4412,-110.6262 1031.459,-111.4812"/>
<polygon fill="#191970" stroke="#191970" points="804.8998,-105.047 794.8553,-108.4171 804.8091,-112.0464 804.8998,-105.047"/>
</g>
<!-- Node19 -->
<g id="node19" class="node">
<title>Node19</title>
<g id="a_node19"><a xlink:href="classlocomotor_1_1core_1_1_d_b_h.html#ae26eef1ee7482f2e0167c6a18924d214" target="_top" xlink:title="locomotor.core.DBH.addItem">
<polygon fill="#ffffff" stroke="#000000" points="844.1948,-65.5 844.1948,-83.5 988.5884,-83.5 988.5884,-65.5 844.1948,-65.5"/>
<text text-anchor="middle" x="916.3916" y="-71.5" font-family="Helvetica,sans-Serif" font-size="10.00" fill="#000000">locomotor.core.DBH.addItem</text>
</a>
</g>
</g>
<!-- Node18&#45;&gt;Node19 -->
<g id="edge21" class="edge">
<title>Node18&#45;&gt;Node19</title>
<path fill="none" stroke="#191970" d="M808.4463,-67.2046C820.2735,-68.0039 832.3418,-68.8195 843.9212,-69.6021"/>
<polygon fill="#191970" stroke="#191970" points="808.3463,-63.6899 798.133,-66.5075 807.8742,-70.674 808.3463,-63.6899"/>
</g>
<!-- Node20 -->
<g id="node20" class="node">
<title>Node20</title>
<g id="a_node20"><a xlink:href="classlocomotor_1_1core_1_1_d_b_h.html#aa0e39c547d06fd9d0ad2de70251c9cc0" target="_top" xlink:title="locomotor.core.DBH.updateItem">
<polygon fill="#ffffff" stroke="#000000" points="837.2441,-28.5 837.2441,-46.5 995.5391,-46.5 995.5391,-28.5 837.2441,-28.5"/>
<text text-anchor="middle" x="916.3916" y="-34.5" font-family="Helvetica,sans-Serif" font-size="10.00" fill="#000000">locomotor.core.DBH.updateItem</text>
</a>
</g>
</g>
<!-- Node18&#45;&gt;Node20 -->
<g id="edge23" class="edge">
<title>Node18&#45;&gt;Node20</title>
<path fill="none" stroke="#191970" d="M808.1586,-51.0044C820.1854,-49.5038 832.4678,-47.9713 844.2374,-46.5028"/>
<polygon fill="#191970" stroke="#191970" points="807.6227,-47.544 798.133,-52.2553 808.4895,-54.4902 807.6227,-47.544"/>
</g>
<!-- Node19&#45;&gt;Node8 -->
<g id="edge22" class="edge">
<title>Node19&#45;&gt;Node8</title>
<path fill="none" stroke="#191970" d="M972.177,-85.4417C992.83,-89.4925 1016.5411,-94.1432 1038.4141,-98.4333"/>
<polygon fill="#191970" stroke="#191970" points="972.7922,-81.9957 962.3054,-83.5055 971.4448,-88.8648 972.7922,-81.9957"/>
</g>
<!-- Node20&#45;&gt;Node8 -->
<g id="edge24" class="edge">
<title>Node20&#45;&gt;Node8</title>
<path fill="none" stroke="#191970" d="M974.3979,-49.0111C981.592,-50.9296 988.7865,-53.0916 995.5391,-55.5 1027.9784,-67.0699 1063.1448,-85.5251 1085.8439,-98.2866"/>
<polygon fill="#191970" stroke="#191970" points="975.182,-45.5993 964.6295,-46.5457 973.4689,-52.3865 975.182,-45.5993"/>
</g>
</g>
</svg>
