<?xml version="1.0" encoding="UTF-8" standalone="no"?>
<!DOCTYPE svg PUBLIC "-//W3C//DTD SVG 1.1//EN"
 "http://www.w3.org/Graphics/SVG/1.1/DTD/svg11.dtd">
<!-- Generated by graphviz version 2.40.1 (20161225.0304)
 -->
<!-- Title: sendDefaultMissingParametersMessage Pages: 1 -->
<svg width="626pt" height="188pt"
 viewBox="0.00 0.00 625.65 188.00" xmlns="http://www.w3.org/2000/svg" xmlns:xlink="http://www.w3.org/1999/xlink">
<g id="graph0" class="graph" transform="scale(1 1) rotate(0) translate(4 184)">
<title>sendDefaultMissingParametersMessage</title>
<polygon fill="#ffffff" stroke="transparent" points="-4,4 -4,-184 621.6514,-184 621.6514,4 -4,4"/>
<!-- Node1 -->
<g id="node1" class="node">
<title>Node1</title>
<polygon fill="#bfbfbf" stroke="#000000" points="0,-70.5 0,-98.5 154.9502,-98.5 154.9502,-70.5 0,-70.5"/>
<text text-anchor="start" x="8" y="-86.5" font-family="Helvetica,sans-Serif" font-size="10.00" fill="#000000">sendDefaultMissingParameters</text>
<text text-anchor="middle" x="77.4751" y="-76.5" font-family="Helvetica,sans-Serif" font-size="10.00" fill="#000000">Message</text>
</g>
<!-- Node2 -->
<g id="node2" class="node">
<title>Node2</title>
<g id="a_node2"><a xlink:href="classlocomotor_1_1components_1_1network_1_1_network_response_factory.html#ac0b036a3baf908af83be69be93f1ec75" target="_top" xlink:title="locomotor.components.network.\lNetworkResponseFactory.getJsonContext">
<polygon fill="#ffffff" stroke="#000000" points="190.9502,-117.5 190.9502,-145.5 393.5225,-145.5 393.5225,-117.5 190.9502,-117.5"/>
<text text-anchor="start" x="198.9502" y="-133.5" font-family="Helvetica,sans-Serif" font-size="10.00" fill="#000000">locomotor.components.network.</text>
<text text-anchor="middle" x="292.2363" y="-123.5" font-family="Helvetica,sans-Serif" font-size="10.00" fill="#000000">NetworkResponseFactory.getJsonContext</text>
</a>
</g>
</g>
<!-- Node1&#45;&gt;Node2 -->
<g id="edge1" class="edge">
<title>Node1&#45;&gt;Node2</title>
<path fill="none" stroke="#191970" d="M141.6196,-98.5379C165.7341,-103.8153 193.3408,-109.8569 218.2768,-115.3141"/>
<polygon fill="#191970" stroke="#191970" points="217.5344,-118.7344 228.0515,-117.4533 219.0309,-111.8963 217.5344,-118.7344"/>
</g>
<!-- Node3 -->
<g id="node3" class="node">
<title>Node3</title>
<g id="a_node3"><a xlink:href="classlocomotor_1_1components_1_1network_1_1_network_response.html#ab1be964e3a5f4dfc34483da5bfd13a8a" target="_top" xlink:title="locomotor.components.network.\lNetworkResponse.failure">
<polygon fill="#ffffff" stroke="#000000" points="213.6431,-70.5 213.6431,-98.5 370.8296,-98.5 370.8296,-70.5 213.6431,-70.5"/>
<text text-anchor="start" x="221.6431" y="-86.5" font-family="Helvetica,sans-Serif" font-size="10.00" fill="#000000">locomotor.components.network.</text>
<text text-anchor="middle" x="292.2363" y="-76.5" font-family="Helvetica,sans-Serif" font-size="10.00" fill="#000000">NetworkResponse.failure</text>
</a>
</g>
</g>
<!-- Node1&#45;&gt;Node3 -->
<g id="edge2" class="edge">
<title>Node1&#45;&gt;Node3</title>
<path fill="none" stroke="#191970" d="M155.0088,-84.5C170.5811,-84.5 187.0631,-84.5 202.9964,-84.5"/>
<polygon fill="#191970" stroke="#191970" points="203.3725,-88.0001 213.3725,-84.5 203.3724,-81.0001 203.3725,-88.0001"/>
</g>
<!-- Node8 -->
<g id="node8" class="node">
<title>Node8</title>
<g id="a_node8"><a xlink:href="classlocomotor_1_1components_1_1network_1_1_i_endpoint_handler.html#af9168f13c80531ed81d11b7c9601a324" target="_top" xlink:title="getDefaultMissingParameters\lMessage">
<polygon fill="#ffffff" stroke="#000000" points="218.6528,-23.5 218.6528,-51.5 365.8198,-51.5 365.8198,-23.5 218.6528,-23.5"/>
<text text-anchor="start" x="226.6528" y="-39.5" font-family="Helvetica,sans-Serif" font-size="10.00" fill="#000000">getDefaultMissingParameters</text>
<text text-anchor="middle" x="292.2363" y="-29.5" font-family="Helvetica,sans-Serif" font-size="10.00" fill="#000000">Message</text>
</a>
</g>
</g>
<!-- Node1&#45;&gt;Node8 -->
<g id="edge7" class="edge">
<title>Node1&#45;&gt;Node8</title>
<path fill="none" stroke="#191970" d="M141.6196,-70.4621C165.7341,-65.1847 193.3408,-59.1431 218.2768,-53.6859"/>
<polygon fill="#191970" stroke="#191970" points="219.0309,-57.1037 228.0515,-51.5467 217.5344,-50.2656 219.0309,-57.1037"/>
</g>
<!-- Node4 -->
<g id="node4" class="node">
<title>Node4</title>
<g id="a_node4"><a xlink:href="classlocomotor_1_1components_1_1network_1_1_network_response.html#a143bb7402270f3dc0872ab5586653f61" target="_top" xlink:title="locomotor.components.network.\lNetworkResponse.toByteArrayOutput\lStream">
<polygon fill="#ffffff" stroke="#000000" points="432.2153,-141.5 432.2153,-179.5 614.9585,-179.5 614.9585,-141.5 432.2153,-141.5"/>
<text text-anchor="start" x="440.2153" y="-167.5" font-family="Helvetica,sans-Serif" font-size="10.00" fill="#000000">locomotor.components.network.</text>
<text text-anchor="start" x="440.2153" y="-157.5" font-family="Helvetica,sans-Serif" font-size="10.00" fill="#000000">NetworkResponse.toByteArrayOutput</text>
<text text-anchor="middle" x="523.5869" y="-147.5" font-family="Helvetica,sans-Serif" font-size="10.00" fill="#000000">Stream</text>
</a>
</g>
</g>
<!-- Node3&#45;&gt;Node4 -->
<g id="edge3" class="edge">
<title>Node3&#45;&gt;Node4</title>
<path fill="none" stroke="#191970" d="M365.4588,-98.554C375.0732,-101.3503 384.6569,-104.6432 393.5225,-108.5 411.1558,-116.171 412.1135,-124.3327 429.5225,-132.5 433.5355,-134.3827 437.7044,-136.1719 441.9559,-137.8672"/>
<polygon fill="#191970" stroke="#191970" points="440.7755,-141.1627 451.367,-141.4283 443.2529,-134.6157 440.7755,-141.1627"/>
</g>
<!-- Node5 -->
<g id="node5" class="node">
<title>Node5</title>
<g id="a_node5"><a xlink:href="classlocomotor_1_1components_1_1network_1_1_network_response.html#a66b0dd722c150e0c2eac12c9e6e813ef" target="_top" xlink:title="locomotor.components.network.\lNetworkResponse.sendAnswer">
<polygon fill="#ffffff" stroke="#000000" points="444.9937,-94.5 444.9937,-122.5 602.1802,-122.5 602.1802,-94.5 444.9937,-94.5"/>
<text text-anchor="start" x="452.9937" y="-110.5" font-family="Helvetica,sans-Serif" font-size="10.00" fill="#000000">locomotor.components.network.</text>
<text text-anchor="middle" x="523.5869" y="-100.5" font-family="Helvetica,sans-Serif" font-size="10.00" fill="#000000">NetworkResponse.sendAnswer</text>
</a>
</g>
</g>
<!-- Node3&#45;&gt;Node5 -->
<g id="edge4" class="edge">
<title>Node3&#45;&gt;Node5</title>
<path fill="none" stroke="#191970" d="M370.8839,-92.6588C391.3722,-94.7842 413.5929,-97.0894 434.5757,-99.2661"/>
<polygon fill="#191970" stroke="#191970" points="434.4561,-102.7724 444.7639,-100.323 435.1785,-95.8098 434.4561,-102.7724"/>
</g>
<!-- Node6 -->
<g id="node6" class="node">
<title>Node6</title>
<g id="a_node6"><a xlink:href="enumlocomotor_1_1components_1_1network_1_1_network_response_1_1_error_code.html#aae714dc01fe7f5bb1a175d0d1068bb92" target="_top" xlink:title="locomotor.components.network.\lNetworkResponse.ErrorCode.getValue">
<polygon fill="#ffffff" stroke="#000000" points="429.5225,-47.5 429.5225,-75.5 617.6514,-75.5 617.6514,-47.5 429.5225,-47.5"/>
<text text-anchor="start" x="437.5225" y="-63.5" font-family="Helvetica,sans-Serif" font-size="10.00" fill="#000000">locomotor.components.network.</text>
<text text-anchor="middle" x="523.5869" y="-53.5" font-family="Helvetica,sans-Serif" font-size="10.00" fill="#000000">NetworkResponse.ErrorCode.getValue</text>
</a>
</g>
</g>
<!-- Node3&#45;&gt;Node6 -->
<g id="edge5" class="edge">
<title>Node3&#45;&gt;Node6</title>
<path fill="none" stroke="#191970" d="M370.8839,-76.6812C386.3965,-75.139 402.9022,-73.498 419.1118,-71.8865"/>
<polygon fill="#191970" stroke="#191970" points="419.5501,-75.3603 429.1547,-70.8881 418.8575,-68.3946 419.5501,-75.3603"/>
</g>
<!-- Node7 -->
<g id="node7" class="node">
<title>Node7</title>
<g id="a_node7"><a xlink:href="classlocomotor_1_1components_1_1_mutable_integer.html#ab1285c4f05252364e32fd03079fa2f35" target="_top" xlink:title="locomotor.components.Mutable\lInteger.intValue">
<polygon fill="#ffffff" stroke="#000000" points="446.1021,-.5 446.1021,-28.5 601.0718,-28.5 601.0718,-.5 446.1021,-.5"/>
<text text-anchor="start" x="454.1021" y="-16.5" font-family="Helvetica,sans-Serif" font-size="10.00" fill="#000000">locomotor.components.Mutable</text>
<text text-anchor="middle" x="523.5869" y="-6.5" font-family="Helvetica,sans-Serif" font-size="10.00" fill="#000000">Integer.intValue</text>
</a>
</g>
</g>
<!-- Node3&#45;&gt;Node7 -->
<g id="edge6" class="edge">
<title>Node3&#45;&gt;Node7</title>
<path fill="none" stroke="#191970" d="M367.5507,-70.4665C376.4495,-67.9132 385.287,-64.9422 393.5225,-61.5 411.0405,-54.1779 412.1031,-46.0538 429.5225,-38.5 435.3064,-35.9918 441.4084,-33.7042 447.612,-31.6263"/>
<polygon fill="#191970" stroke="#191970" points="448.9308,-34.8803 457.4131,-28.5319 446.8233,-28.205 448.9308,-34.8803"/>
</g>
</g>
</svg>
