<?xml version="1.0" encoding="UTF-8" standalone="no"?>
<!DOCTYPE svg PUBLIC "-//W3C//DTD SVG 1.1//EN"
 "http://www.w3.org/Graphics/SVG/1.1/DTD/svg11.dtd">
<!-- Generated by graphviz version 2.40.1 (20161225.0304)
 -->
<!-- Title: JWTH Pages: 1 -->
<svg width="515pt" height="37pt"
 viewBox="0.00 0.00 515.16 37.00" xmlns="http://www.w3.org/2000/svg" xmlns:xlink="http://www.w3.org/1999/xlink">
<g id="graph0" class="graph" transform="scale(1 1) rotate(0) translate(4 33)">
<title>JWTH</title>
<polygon fill="#ffffff" stroke="transparent" points="-4,4 -4,-33 511.1563,-33 511.1563,4 -4,4"/>
<!-- Node1 -->
<g id="node1" class="node">
<title>Node1</title>
<polygon fill="#bfbfbf" stroke="#000000" points="0,-5.5 0,-23.5 43.7686,-23.5 43.7686,-5.5 0,-5.5"/>
<text text-anchor="middle" x="21.8843" y="-11.5" font-family="Helvetica,sans-Serif" font-size="10.00" fill="#000000">JWTH</text>
</g>
<!-- Node2 -->
<g id="node2" class="node">
<title>Node2</title>
<g id="a_node2"><a xlink:href="classlocomotor_1_1core_1_1jwt_1_1_j_w_t_h.html#a73c618d96801e9ebdabacac0017b3ee0" target="_top" xlink:title="getInstance">
<polygon fill="#ffffff" stroke="#000000" points="79.7686,-5.5 79.7686,-23.5 147.4727,-23.5 147.4727,-5.5 79.7686,-5.5"/>
<text text-anchor="middle" x="113.6206" y="-11.5" font-family="Helvetica,sans-Serif" font-size="10.00" fill="#000000">getInstance</text>
</a>
</g>
</g>
<!-- Node1&#45;&gt;Node2 -->
<g id="edge1" class="edge">
<title>Node1&#45;&gt;Node2</title>
<path fill="none" stroke="#191970" d="M54.3351,-14.5C62.4721,-14.5 71.2269,-14.5 79.4451,-14.5"/>
<polygon fill="#191970" stroke="#191970" points="54.0911,-11.0001 44.0911,-14.5 54.091,-18.0001 54.0911,-11.0001"/>
</g>
<!-- Node3 -->
<g id="node3" class="node">
<title>Node3</title>
<g id="a_node3"><a xlink:href="classlocomotor_1_1components_1_1network_1_1_a_p_i.html#a547463fbc7fb7b485886f0917e2c0b78" target="_top" xlink:title="locomotor.components.network.\lAPI.createHooks">
<polygon fill="#ffffff" stroke="#000000" points="183.4727,-.5 183.4727,-28.5 340.6592,-28.5 340.6592,-.5 183.4727,-.5"/>
<text text-anchor="start" x="191.4727" y="-16.5" font-family="Helvetica,sans-Serif" font-size="10.00" fill="#000000">locomotor.components.network.</text>
<text text-anchor="middle" x="262.0659" y="-6.5" font-family="Helvetica,sans-Serif" font-size="10.00" fill="#000000">API.createHooks</text>
</a>
</g>
</g>
<!-- Node2&#45;&gt;Node3 -->
<g id="edge2" class="edge">
<title>Node2&#45;&gt;Node3</title>
<path fill="none" stroke="#191970" d="M157.9454,-14.5C166.037,-14.5 174.6979,-14.5 183.4405,-14.5"/>
<polygon fill="#191970" stroke="#191970" points="157.677,-11.0001 147.677,-14.5 157.6769,-18.0001 157.677,-11.0001"/>
</g>
<!-- Node4 -->
<g id="node4" class="node">
<title>Node4</title>
<g id="a_node4"><a xlink:href="classlocomotor_1_1core_1_1_main.html#a8b260eecbaabcef8473fd87ada040682" target="_top" xlink:title="locomotor.core.Main.main">
<polygon fill="#ffffff" stroke="#000000" points="376.6592,-5.5 376.6592,-23.5 507.1563,-23.5 507.1563,-5.5 376.6592,-5.5"/>
<text text-anchor="middle" x="441.9077" y="-11.5" font-family="Helvetica,sans-Serif" font-size="10.00" fill="#000000">locomotor.core.Main.main</text>
</a>
</g>
</g>
<!-- Node3&#45;&gt;Node4 -->
<g id="edge3" class="edge">
<title>Node3&#45;&gt;Node4</title>
<path fill="none" stroke="#191970" d="M350.8589,-14.5C359.5472,-14.5 368.2496,-14.5 376.6415,-14.5"/>
<polygon fill="#191970" stroke="#191970" points="350.6856,-11.0001 340.6855,-14.5 350.6855,-18.0001 350.6856,-11.0001"/>
</g>
</g>
</svg>
