<?xml version="1.0" encoding="UTF-8" standalone="no"?>
<!DOCTYPE svg PUBLIC "-//W3C//DTD SVG 1.1//EN"
 "http://www.w3.org/Graphics/SVG/1.1/DTD/svg11.dtd">
<!-- Generated by graphviz version 2.40.1 (20161225.0304)
 -->
<!-- Title: Universe Pages: 1 -->
<svg width="522pt" height="37pt"
 viewBox="0.00 0.00 521.81 37.00" xmlns="http://www.w3.org/2000/svg" xmlns:xlink="http://www.w3.org/1999/xlink">
<g id="graph0" class="graph" transform="scale(1 1) rotate(0) translate(4 33)">
<title>Universe</title>
<polygon fill="#ffffff" stroke="transparent" points="-4,4 -4,-33 517.8115,-33 517.8115,4 -4,4"/>
<!-- Node1 -->
<g id="node1" class="node">
<title>Node1</title>
<polygon fill="#bfbfbf" stroke="#000000" points="0,-5.5 0,-23.5 55.458,-23.5 55.458,-5.5 0,-5.5"/>
<text text-anchor="middle" x="27.729" y="-11.5" font-family="Helvetica,sans-Serif" font-size="10.00" fill="#000000">Universe</text>
</g>
<!-- Node2 -->
<g id="node2" class="node">
<title>Node2</title>
<g id="a_node2"><a xlink:href="classlocomotor_1_1components_1_1models_1_1_universe.html#aef93c924f8c97abe39ee92ec16cadca2" target="_top" xlink:title="fromJSON">
<polygon fill="#ffffff" stroke="#000000" points="91.458,-5.5 91.458,-23.5 154.1279,-23.5 154.1279,-5.5 91.458,-5.5"/>
<text text-anchor="middle" x="122.793" y="-11.5" font-family="Helvetica,sans-Serif" font-size="10.00" fill="#000000">fromJSON</text>
</a>
</g>
</g>
<!-- Node1&#45;&gt;Node2 -->
<g id="edge1" class="edge">
<title>Node1&#45;&gt;Node2</title>
<path fill="none" stroke="#191970" d="M65.5444,-14.5C74.0335,-14.5 82.9544,-14.5 91.1607,-14.5"/>
<polygon fill="#191970" stroke="#191970" points="65.481,-11.0001 55.481,-14.5 65.481,-18.0001 65.481,-11.0001"/>
</g>
<!-- Node3 -->
<g id="node3" class="node">
<title>Node3</title>
<g id="a_node3"><a xlink:href="classlocomotor_1_1components_1_1network_1_1_a_p_i.html#a547463fbc7fb7b485886f0917e2c0b78" target="_top" xlink:title="locomotor.components.network.\lAPI.createHooks">
<polygon fill="#ffffff" stroke="#000000" points="190.1279,-.5 190.1279,-28.5 347.3145,-28.5 347.3145,-.5 190.1279,-.5"/>
<text text-anchor="start" x="198.1279" y="-16.5" font-family="Helvetica,sans-Serif" font-size="10.00" fill="#000000">locomotor.components.network.</text>
<text text-anchor="middle" x="268.7212" y="-6.5" font-family="Helvetica,sans-Serif" font-size="10.00" fill="#000000">API.createHooks</text>
</a>
</g>
</g>
<!-- Node2&#45;&gt;Node3 -->
<g id="edge2" class="edge">
<title>Node2&#45;&gt;Node3</title>
<path fill="none" stroke="#191970" d="M164.6322,-14.5C172.6772,-14.5 181.3434,-14.5 190.1191,-14.5"/>
<polygon fill="#191970" stroke="#191970" points="164.4573,-11.0001 154.4572,-14.5 164.4572,-18.0001 164.4573,-11.0001"/>
</g>
<!-- Node4 -->
<g id="node4" class="node">
<title>Node4</title>
<g id="a_node4"><a xlink:href="classlocomotor_1_1core_1_1_main.html#a8b260eecbaabcef8473fd87ada040682" target="_top" xlink:title="locomotor.core.Main.main">
<polygon fill="#ffffff" stroke="#000000" points="383.3145,-5.5 383.3145,-23.5 513.8115,-23.5 513.8115,-5.5 383.3145,-5.5"/>
<text text-anchor="middle" x="448.563" y="-11.5" font-family="Helvetica,sans-Serif" font-size="10.00" fill="#000000">locomotor.core.Main.main</text>
</a>
</g>
</g>
<!-- Node3&#45;&gt;Node4 -->
<g id="edge3" class="edge">
<title>Node3&#45;&gt;Node4</title>
<path fill="none" stroke="#191970" d="M357.5142,-14.5C366.2025,-14.5 374.9049,-14.5 383.2967,-14.5"/>
<polygon fill="#191970" stroke="#191970" points="357.3408,-11.0001 347.3408,-14.5 357.3408,-18.0001 357.3408,-11.0001"/>
</g>
</g>
</svg>
