<?xml version="1.0" encoding="UTF-8" standalone="no"?>
<!DOCTYPE svg PUBLIC "-//W3C//DTD SVG 1.1//EN"
 "http://www.w3.org/Graphics/SVG/1.1/DTD/svg11.dtd">
<!-- Generated by graphviz version 2.40.1 (20161225.0304)
 -->
<!-- Title: getLeft Pages: 1 -->
<svg width="838pt" height="58pt"
 viewBox="0.00 0.00 838.43 58.00" xmlns="http://www.w3.org/2000/svg" xmlns:xlink="http://www.w3.org/1999/xlink">
<g id="graph0" class="graph" transform="scale(1 1) rotate(0) translate(4 54)">
<title>getLeft</title>
<polygon fill="#ffffff" stroke="transparent" points="-4,4 -4,-54 834.4258,-54 834.4258,4 -4,4"/>
<!-- Node1 -->
<g id="node1" class="node">
<title>Node1</title>
<polygon fill="#bfbfbf" stroke="#000000" points="0,-27.5 0,-45.5 46.5811,-45.5 46.5811,-27.5 0,-27.5"/>
<text text-anchor="middle" x="23.2905" y="-33.5" font-family="Helvetica,sans-Serif" font-size="10.00" fill="#000000">getLeft</text>
</g>
<!-- Node2 -->
<g id="node2" class="node">
<title>Node2</title>
<g id="a_node2"><a xlink:href="classlocomotor_1_1components_1_1network_1_1_a_p_i.html#a547463fbc7fb7b485886f0917e2c0b78" target="_top" xlink:title="locomotor.components.network.\lAPI.createHooks">
<polygon fill="#ffffff" stroke="#000000" points="506.7422,-21.5 506.7422,-49.5 663.9287,-49.5 663.9287,-21.5 506.7422,-21.5"/>
<text text-anchor="start" x="514.7422" y="-37.5" font-family="Helvetica,sans-Serif" font-size="10.00" fill="#000000">locomotor.components.network.</text>
<text text-anchor="middle" x="585.3354" y="-27.5" font-family="Helvetica,sans-Serif" font-size="10.00" fill="#000000">API.createHooks</text>
</a>
</g>
</g>
<!-- Node1&#45;&gt;Node2 -->
<g id="edge1" class="edge">
<title>Node1&#45;&gt;Node2</title>
<path fill="none" stroke="#191970" d="M56.7419,-36.8252C131.1489,-37.4936 316.0016,-38.8502 470.7422,-37.5 482.2824,-37.3993 494.4756,-37.2416 506.4335,-37.0578"/>
<polygon fill="#191970" stroke="#191970" points="56.6137,-33.324 46.582,-36.732 56.5494,-40.3237 56.6137,-33.324"/>
</g>
<!-- Node4 -->
<g id="node4" class="node">
<title>Node4</title>
<g id="a_node4"><a xlink:href="classlocomotor_1_1core_1_1_comparator.html#a2ac714803f2cf6e544315619a14ff13c" target="_top" xlink:title="locomotor.core.Comparator.toJSON">
<polygon fill="#ffffff" stroke="#000000" points="82.5811,-8.5 82.5811,-26.5 256.9893,-26.5 256.9893,-8.5 82.5811,-8.5"/>
<text text-anchor="middle" x="169.7852" y="-14.5" font-family="Helvetica,sans-Serif" font-size="10.00" fill="#000000">locomotor.core.Comparator.toJSON</text>
</a>
</g>
</g>
<!-- Node1&#45;&gt;Node4 -->
<g id="edge3" class="edge">
<title>Node1&#45;&gt;Node4</title>
<path fill="none" stroke="#191970" d="M57.0382,-32.123C69.9098,-30.4536 85.1033,-28.483 100.0975,-26.5383"/>
<polygon fill="#191970" stroke="#191970" points="56.2942,-28.6901 46.8274,-33.4473 57.1946,-35.632 56.2942,-28.6901"/>
</g>
<!-- Node3 -->
<g id="node3" class="node">
<title>Node3</title>
<g id="a_node3"><a xlink:href="classlocomotor_1_1core_1_1_main.html#a8b260eecbaabcef8473fd87ada040682" target="_top" xlink:title="locomotor.core.Main.main">
<polygon fill="#ffffff" stroke="#000000" points="699.9287,-26.5 699.9287,-44.5 830.4258,-44.5 830.4258,-26.5 699.9287,-26.5"/>
<text text-anchor="middle" x="765.1772" y="-32.5" font-family="Helvetica,sans-Serif" font-size="10.00" fill="#000000">locomotor.core.Main.main</text>
</a>
</g>
</g>
<!-- Node2&#45;&gt;Node3 -->
<g id="edge2" class="edge">
<title>Node2&#45;&gt;Node3</title>
<path fill="none" stroke="#191970" d="M674.1285,-35.5C682.8168,-35.5 691.5191,-35.5 699.911,-35.5"/>
<polygon fill="#191970" stroke="#191970" points="673.9551,-32.0001 663.9551,-35.5 673.955,-39.0001 673.9551,-32.0001"/>
</g>
<!-- Node5 -->
<g id="node5" class="node">
<title>Node5</title>
<g id="a_node5"><a xlink:href="classlocomotor_1_1core_1_1_comparator.html#a092fb76ad264eeccd8f30eadb70e36e3" target="_top" xlink:title="locomotor.core.Comparator.compute\lGradeOfItems">
<polygon fill="#ffffff" stroke="#000000" points="292.9893,-.5 292.9893,-28.5 470.7422,-28.5 470.7422,-.5 292.9893,-.5"/>
<text text-anchor="start" x="300.9893" y="-16.5" font-family="Helvetica,sans-Serif" font-size="10.00" fill="#000000">locomotor.core.Comparator.compute</text>
<text text-anchor="middle" x="381.8657" y="-6.5" font-family="Helvetica,sans-Serif" font-size="10.00" fill="#000000">GradeOfItems</text>
</a>
</g>
</g>
<!-- Node4&#45;&gt;Node5 -->
<g id="edge4" class="edge">
<title>Node4&#45;&gt;Node5</title>
<path fill="none" stroke="#191970" d="M267.5266,-16.1174C275.9751,-15.9979 284.4943,-15.8774 292.8679,-15.7589"/>
<polygon fill="#191970" stroke="#191970" points="267.2203,-12.6213 257.2709,-16.2625 267.3194,-19.6206 267.2203,-12.6213"/>
</g>
<!-- Node5&#45;&gt;Node2 -->
<g id="edge5" class="edge">
<title>Node5&#45;&gt;Node2</title>
<path fill="none" stroke="#191970" d="M480.8709,-24.7183C489.4602,-25.6048 498.0754,-26.4939 506.4714,-27.3605"/>
<polygon fill="#191970" stroke="#191970" points="481.121,-21.2256 470.8145,-23.6804 480.4023,-28.1886 481.121,-21.2256"/>
</g>
</g>
</svg>
