<?xml version="1.0" encoding="UTF-8" standalone="no"?>
<!DOCTYPE svg PUBLIC "-//W3C//DTD SVG 1.1//EN"
 "http://www.w3.org/Graphics/SVG/1.1/DTD/svg11.dtd">
<!-- Generated by graphviz version 2.40.1 (20161225.0304)
 -->
<!-- Title: NetworkData Pages: 1 -->
<svg width="148pt" height="102pt"
 viewBox="0.00 0.00 147.85 102.00" xmlns="http://www.w3.org/2000/svg" xmlns:xlink="http://www.w3.org/1999/xlink">
<g id="graph0" class="graph" transform="scale(1 1) rotate(0) translate(4 98)">
<title>NetworkData</title>
<polygon fill="#ffffff" stroke="transparent" points="-4,4 -4,-98 143.8477,-98 143.8477,4 -4,4"/>
<!-- Node1 -->
<g id="node1" class="node">
<title>Node1</title>
<polygon fill="#bfbfbf" stroke="#000000" points="33.0249,-.5 33.0249,-18.5 106.8228,-18.5 106.8228,-.5 33.0249,-.5"/>
<text text-anchor="middle" x="69.9238" y="-6.5" font-family="Helvetica,sans-Serif" font-size="10.00" fill="#000000">NetworkData</text>
</g>
<!-- Node2 -->
<g id="node2" class="node">
<title>Node2</title>
<polygon fill="#ffffff" stroke="#bfbfbf" points="0,-65.5 0,-93.5 139.8477,-93.5 139.8477,-65.5 0,-65.5"/>
<text text-anchor="start" x="8" y="-81.5" font-family="Helvetica,sans-Serif" font-size="10.00" fill="#000000">TreeMap&lt; String, ByteArray</text>
<text text-anchor="middle" x="69.9238" y="-71.5" font-family="Helvetica,sans-Serif" font-size="10.00" fill="#000000">OutputStream &gt;</text>
</g>
<!-- Node2&#45;&gt;Node1 -->
<g id="edge1" class="edge">
<title>Node2&#45;&gt;Node1</title>
<path fill="none" stroke="#9a32cd" stroke-dasharray="5,2" d="M69.9238,-55.007C69.9238,-42.4648 69.9238,-27.9386 69.9238,-18.7368"/>
<polygon fill="#9a32cd" stroke="#9a32cd" points="66.4239,-55.3344 69.9238,-65.3345 73.4239,-55.3345 66.4239,-55.3344"/>
<text text-anchor="middle" x="90.7661" y="-39" font-family="Helvetica,sans-Serif" font-size="10.00" fill="#000000"> _params</text>
</g>
</g>
</svg>
