<?xml version="1.0" encoding="UTF-8" standalone="no"?>
<!DOCTYPE svg PUBLIC "-//W3C//DTD SVG 1.1//EN"
 "http://www.w3.org/Graphics/SVG/1.1/DTD/svg11.dtd">
<!-- Generated by graphviz version 2.40.1 (20161225.0304)
 -->
<!-- Title: getPartialInfoOfItem Pages: 1 -->
<svg width="897pt" height="74pt"
 viewBox="0.00 0.00 896.78 74.00" xmlns="http://www.w3.org/2000/svg" xmlns:xlink="http://www.w3.org/1999/xlink">
<g id="graph0" class="graph" transform="scale(1 1) rotate(0) translate(4 70)">
<title>getPartialInfoOfItem</title>
<polygon fill="#ffffff" stroke="transparent" points="-4,4 -4,-70 892.7754,-70 892.7754,4 -4,4"/>
<!-- Node1 -->
<g id="node1" class="node">
<title>Node1</title>
<polygon fill="#bfbfbf" stroke="#000000" points="0,-21.5 0,-39.5 104.9307,-39.5 104.9307,-21.5 0,-21.5"/>
<text text-anchor="middle" x="52.4653" y="-27.5" font-family="Helvetica,sans-Serif" font-size="10.00" fill="#000000">getPartialInfoOfItem</text>
</g>
<!-- Node2 -->
<g id="node2" class="node">
<title>Node2</title>
<g id="a_node2"><a xlink:href="classlocomotor_1_1core_1_1_comparator.html#a2ac714803f2cf6e544315619a14ff13c" target="_top" xlink:title="locomotor.core.Comparator.toJSON">
<polygon fill="#ffffff" stroke="#000000" points="140.9307,-41.5 140.9307,-59.5 315.3389,-59.5 315.3389,-41.5 140.9307,-41.5"/>
<text text-anchor="middle" x="228.1348" y="-47.5" font-family="Helvetica,sans-Serif" font-size="10.00" fill="#000000">locomotor.core.Comparator.toJSON</text>
</a>
</g>
</g>
<!-- Node1&#45;&gt;Node2 -->
<g id="edge1" class="edge">
<title>Node1&#45;&gt;Node2</title>
<path fill="none" stroke="#191970" d="M115.3759,-37.6624C126.2206,-38.8971 137.6179,-40.1946 148.8282,-41.4709"/>
<polygon fill="#191970" stroke="#191970" points="115.5037,-34.1544 105.172,-36.5007 114.7118,-41.1095 115.5037,-34.1544"/>
</g>
<!-- Node6 -->
<g id="node6" class="node">
<title>Node6</title>
<g id="a_node6"><a xlink:href="classlocomotor_1_1core_1_1_d_b_h.html#a21cbb63c5e6f48995e2da4a48db8edff" target="_top" xlink:title="getAllBooking">
<polygon fill="#ffffff" stroke="#000000" points="401.6392,-.5 401.6392,-18.5 478.7915,-18.5 478.7915,-.5 401.6392,-.5"/>
<text text-anchor="middle" x="440.2153" y="-6.5" font-family="Helvetica,sans-Serif" font-size="10.00" fill="#000000">getAllBooking</text>
</a>
</g>
</g>
<!-- Node1&#45;&gt;Node6 -->
<g id="edge5" class="edge">
<title>Node1&#45;&gt;Node6</title>
<path fill="none" stroke="#191970" d="M115.2174,-27.1014C196.1111,-22.7203 334.3223,-15.235 401.4069,-11.6018"/>
<polygon fill="#191970" stroke="#191970" points="114.9586,-23.6102 105.1626,-27.646 115.3372,-30.6 114.9586,-23.6102"/>
</g>
<!-- Node3 -->
<g id="node3" class="node">
<title>Node3</title>
<g id="a_node3"><a xlink:href="classlocomotor_1_1core_1_1_comparator.html#a092fb76ad264eeccd8f30eadb70e36e3" target="_top" xlink:title="locomotor.core.Comparator.compute\lGradeOfItems">
<polygon fill="#ffffff" stroke="#000000" points="351.3389,-37.5 351.3389,-65.5 529.0918,-65.5 529.0918,-37.5 351.3389,-37.5"/>
<text text-anchor="start" x="359.3389" y="-53.5" font-family="Helvetica,sans-Serif" font-size="10.00" fill="#000000">locomotor.core.Comparator.compute</text>
<text text-anchor="middle" x="440.2153" y="-43.5" font-family="Helvetica,sans-Serif" font-size="10.00" fill="#000000">GradeOfItems</text>
</a>
</g>
</g>
<!-- Node2&#45;&gt;Node3 -->
<g id="edge2" class="edge">
<title>Node2&#45;&gt;Node3</title>
<path fill="none" stroke="#191970" d="M325.8762,-50.9609C334.3247,-51.0007 342.8439,-51.0409 351.2175,-51.0804"/>
<polygon fill="#191970" stroke="#191970" points="325.6369,-47.4598 315.6205,-50.9125 325.6038,-54.4597 325.6369,-47.4598"/>
</g>
<!-- Node4 -->
<g id="node4" class="node">
<title>Node4</title>
<g id="a_node4"><a xlink:href="classlocomotor_1_1components_1_1network_1_1_a_p_i.html#a547463fbc7fb7b485886f0917e2c0b78" target="_top" xlink:title="locomotor.components.network.\lAPI.createHooks">
<polygon fill="#ffffff" stroke="#000000" points="565.0918,-16.5 565.0918,-44.5 722.2783,-44.5 722.2783,-16.5 565.0918,-16.5"/>
<text text-anchor="start" x="573.0918" y="-32.5" font-family="Helvetica,sans-Serif" font-size="10.00" fill="#000000">locomotor.components.network.</text>
<text text-anchor="middle" x="643.6851" y="-22.5" font-family="Helvetica,sans-Serif" font-size="10.00" fill="#000000">API.createHooks</text>
</a>
</g>
</g>
<!-- Node3&#45;&gt;Node4 -->
<g id="edge3" class="edge">
<title>Node3&#45;&gt;Node4</title>
<path fill="none" stroke="#191970" d="M539.2205,-41.2817C547.8098,-40.3952 556.425,-39.5061 564.821,-38.6395"/>
<polygon fill="#191970" stroke="#191970" points="538.7519,-37.8114 529.1641,-42.3196 539.4706,-44.7744 538.7519,-37.8114"/>
</g>
<!-- Node5 -->
<g id="node5" class="node">
<title>Node5</title>
<g id="a_node5"><a xlink:href="classlocomotor_1_1core_1_1_main.html#a8b260eecbaabcef8473fd87ada040682" target="_top" xlink:title="locomotor.core.Main.main">
<polygon fill="#ffffff" stroke="#000000" points="758.2783,-21.5 758.2783,-39.5 888.7754,-39.5 888.7754,-21.5 758.2783,-21.5"/>
<text text-anchor="middle" x="823.5269" y="-27.5" font-family="Helvetica,sans-Serif" font-size="10.00" fill="#000000">locomotor.core.Main.main</text>
</a>
</g>
</g>
<!-- Node4&#45;&gt;Node5 -->
<g id="edge4" class="edge">
<title>Node4&#45;&gt;Node5</title>
<path fill="none" stroke="#191970" d="M732.4781,-30.5C741.1664,-30.5 749.8687,-30.5 758.2606,-30.5"/>
<polygon fill="#191970" stroke="#191970" points="732.3047,-27.0001 722.3047,-30.5 732.3046,-34.0001 732.3047,-27.0001"/>
</g>
<!-- Node6&#45;&gt;Node4 -->
<g id="edge6" class="edge">
<title>Node6&#45;&gt;Node4</title>
<path fill="none" stroke="#191970" d="M489.0532,-14.5405C511.8127,-16.8895 539.4654,-19.7435 565.0582,-22.385"/>
<polygon fill="#191970" stroke="#191970" points="489.2719,-11.0446 478.9654,-13.4994 488.5532,-18.0076 489.2719,-11.0446"/>
</g>
</g>
</svg>
