<?xml version="1.0" encoding="UTF-8" standalone="no"?>
<!DOCTYPE svg PUBLIC "-//W3C//DTD SVG 1.1//EN"
 "http://www.w3.org/Graphics/SVG/1.1/DTD/svg11.dtd">
<!-- Generated by graphviz version 2.40.1 (20161225.0304)
 -->
<!-- Title: getAllItemsQuick Pages: 1 -->
<svg width="459pt" height="37pt"
 viewBox="0.00 0.00 458.71 37.00" xmlns="http://www.w3.org/2000/svg" xmlns:xlink="http://www.w3.org/1999/xlink">
<g id="graph0" class="graph" transform="scale(1 1) rotate(0) translate(4 33)">
<title>getAllItemsQuick</title>
<polygon fill="#ffffff" stroke="transparent" points="-4,4 -4,-33 454.708,-33 454.708,4 -4,4"/>
<!-- Node1 -->
<g id="node1" class="node">
<title>Node1</title>
<polygon fill="#bfbfbf" stroke="#000000" points="0,-5.5 0,-23.5 91.0244,-23.5 91.0244,-5.5 0,-5.5"/>
<text text-anchor="middle" x="45.5122" y="-11.5" font-family="Helvetica,sans-Serif" font-size="10.00" fill="#000000">getAllItemsQuick</text>
</g>
<!-- Node2 -->
<g id="node2" class="node">
<title>Node2</title>
<g id="a_node2"><a xlink:href="classlocomotor_1_1components_1_1network_1_1_a_p_i.html#a547463fbc7fb7b485886f0917e2c0b78" target="_top" xlink:title="locomotor.components.network.\lAPI.createHooks">
<polygon fill="#ffffff" stroke="#000000" points="127.0244,-.5 127.0244,-28.5 284.2109,-28.5 284.2109,-.5 127.0244,-.5"/>
<text text-anchor="start" x="135.0244" y="-16.5" font-family="Helvetica,sans-Serif" font-size="10.00" fill="#000000">locomotor.components.network.</text>
<text text-anchor="middle" x="205.6177" y="-6.5" font-family="Helvetica,sans-Serif" font-size="10.00" fill="#000000">API.createHooks</text>
</a>
</g>
</g>
<!-- Node1&#45;&gt;Node2 -->
<g id="edge1" class="edge">
<title>Node1&#45;&gt;Node2</title>
<path fill="none" stroke="#191970" d="M101.5233,-14.5C109.7004,-14.5 118.2465,-14.5 126.7742,-14.5"/>
<polygon fill="#191970" stroke="#191970" points="101.392,-11.0001 91.392,-14.5 101.392,-18.0001 101.392,-11.0001"/>
</g>
<!-- Node3 -->
<g id="node3" class="node">
<title>Node3</title>
<g id="a_node3"><a xlink:href="classlocomotor_1_1core_1_1_main.html#a8b260eecbaabcef8473fd87ada040682" target="_top" xlink:title="locomotor.core.Main.main">
<polygon fill="#ffffff" stroke="#000000" points="320.2109,-5.5 320.2109,-23.5 450.708,-23.5 450.708,-5.5 320.2109,-5.5"/>
<text text-anchor="middle" x="385.4595" y="-11.5" font-family="Helvetica,sans-Serif" font-size="10.00" fill="#000000">locomotor.core.Main.main</text>
</a>
</g>
</g>
<!-- Node2&#45;&gt;Node3 -->
<g id="edge2" class="edge">
<title>Node2&#45;&gt;Node3</title>
<path fill="none" stroke="#191970" d="M294.4107,-14.5C303.099,-14.5 311.8013,-14.5 320.1932,-14.5"/>
<polygon fill="#191970" stroke="#191970" points="294.2373,-11.0001 284.2373,-14.5 294.2372,-18.0001 294.2373,-11.0001"/>
</g>
</g>
</svg>
