<?xml version="1.0" encoding="UTF-8" standalone="no"?>
<!DOCTYPE svg PUBLIC "-//W3C//DTD SVG 1.1//EN"
 "http://www.w3.org/Graphics/SVG/1.1/DTD/svg11.dtd">
<!-- Generated by graphviz version 2.40.1 (20161225.0304)
 -->
<!-- Title: isDefined Pages: 1 -->
<svg width="453pt" height="84pt"
 viewBox="0.00 0.00 453.18 84.00" xmlns="http://www.w3.org/2000/svg" xmlns:xlink="http://www.w3.org/1999/xlink">
<g id="graph0" class="graph" transform="scale(1 1) rotate(0) translate(4 80)">
<title>isDefined</title>
<polygon fill="#ffffff" stroke="transparent" points="-4,4 -4,-80 449.1807,-80 449.1807,4 -4,4"/>
<!-- Node1 -->
<g id="node1" class="node">
<title>Node1</title>
<polygon fill="#bfbfbf" stroke="#000000" points="0,-28.5 0,-46.5 57.6895,-46.5 57.6895,-28.5 0,-28.5"/>
<text text-anchor="middle" x="28.8447" y="-34.5" font-family="Helvetica,sans-Serif" font-size="10.00" fill="#000000">isDefined</text>
</g>
<!-- Node2 -->
<g id="node2" class="node">
<title>Node2</title>
<g id="a_node2"><a xlink:href="classlocomotor_1_1components_1_1network_1_1_a_p_i.html#a547463fbc7fb7b485886f0917e2c0b78" target="_top" xlink:title="locomotor.components.network.\lAPI.createHooks">
<polygon fill="#ffffff" stroke="#000000" points="107.5933,-47.5 107.5933,-75.5 264.7798,-75.5 264.7798,-47.5 107.5933,-47.5"/>
<text text-anchor="start" x="115.5933" y="-63.5" font-family="Helvetica,sans-Serif" font-size="10.00" fill="#000000">locomotor.components.network.</text>
<text text-anchor="middle" x="186.1865" y="-53.5" font-family="Helvetica,sans-Serif" font-size="10.00" fill="#000000">API.createHooks</text>
</a>
</g>
</g>
<!-- Node1&#45;&gt;Node2 -->
<g id="edge1" class="edge">
<title>Node1&#45;&gt;Node2</title>
<path fill="none" stroke="#191970" d="M67.8082,-43.4433C79.8469,-45.2796 93.567,-47.3724 107.2959,-49.4665"/>
<polygon fill="#191970" stroke="#191970" points="68.1171,-39.95 57.7036,-41.902 67.0615,-46.8699 68.1171,-39.95"/>
</g>
<!-- Node4 -->
<g id="node4" class="node">
<title>Node4</title>
<g id="a_node4"><a xlink:href="classlocomotor_1_1components_1_1network_1_1_i_endpoint_handler.html#a00e3a2c2a1ecf3c8cfac51ae723f5cc5" target="_top" xlink:title="locomotor.components.network.\lIEndpointHandler.setExpectedParams">
<polygon fill="#ffffff" stroke="#000000" points="93.6895,-.5 93.6895,-28.5 278.6836,-28.5 278.6836,-.5 93.6895,-.5"/>
<text text-anchor="start" x="101.6895" y="-16.5" font-family="Helvetica,sans-Serif" font-size="10.00" fill="#000000">locomotor.components.network.</text>
<text text-anchor="middle" x="186.1865" y="-6.5" font-family="Helvetica,sans-Serif" font-size="10.00" fill="#000000">IEndpointHandler.setExpectedParams</text>
</a>
</g>
</g>
<!-- Node1&#45;&gt;Node4 -->
<g id="edge3" class="edge">
<title>Node1&#45;&gt;Node4</title>
<path fill="none" stroke="#191970" d="M67.7876,-31.8074C75.8182,-30.6335 84.5977,-29.3501 93.6293,-28.0299"/>
<polygon fill="#191970" stroke="#191970" points="67.0922,-28.3718 57.7036,-33.2814 68.1048,-35.2981 67.0922,-28.3718"/>
</g>
<!-- Node3 -->
<g id="node3" class="node">
<title>Node3</title>
<g id="a_node3"><a xlink:href="classlocomotor_1_1core_1_1_main.html#a8b260eecbaabcef8473fd87ada040682" target="_top" xlink:title="locomotor.core.Main.main">
<polygon fill="#ffffff" stroke="#000000" points="314.6836,-52.5 314.6836,-70.5 445.1807,-70.5 445.1807,-52.5 314.6836,-52.5"/>
<text text-anchor="middle" x="379.9321" y="-58.5" font-family="Helvetica,sans-Serif" font-size="10.00" fill="#000000">locomotor.core.Main.main</text>
</a>
</g>
</g>
<!-- Node2&#45;&gt;Node3 -->
<g id="edge2" class="edge">
<title>Node2&#45;&gt;Node3</title>
<path fill="none" stroke="#191970" d="M275.0858,-61.5C288.3608,-61.5 301.8367,-61.5 314.5075,-61.5"/>
<polygon fill="#191970" stroke="#191970" points="274.9903,-58.0001 264.9903,-61.5 274.9902,-65.0001 274.9903,-58.0001"/>
</g>
</g>
</svg>
