<?xml version="1.0" encoding="UTF-8" standalone="no"?>
<!DOCTYPE svg PUBLIC "-//W3C//DTD SVG 1.1//EN"
 "http://www.w3.org/Graphics/SVG/1.1/DTD/svg11.dtd">
<!-- Generated by graphviz version 2.40.1 (20161225.0304)
 -->
<!-- Title: Comparator Pages: 1 -->
<!--zoomable 126 -->
<svg id="main" version="1.1" xmlns="http://www.w3.org/2000/svg" xmlns:xlink="http://www.w3.org/1999/xlink" xml:space="preserve" onload="init(evt)">
<style type="text/css"><![CDATA[
.edge:hover path { stroke: red; }
.edge:hover polygon { stroke: red; fill: red; }
]]></style>
<script type="text/javascript"><![CDATA[
var edges = document.getElementsByTagName('g');
if (edges && edges.length) {
  for (var i=0;i<edges.length;i++) {
    if (edges[i].id.substr(0,4)=='edge') {
      edges[i].setAttribute('class','edge');
    }
  }
}
]]></script>
        <defs>
                <circle id="rim" cx="0" cy="0" r="7"/>
                <circle id="rim2" cx="0" cy="0" r="3.5"/>
                <g id="zoomPlus">
                        <use xlink:href="#rim" fill="#404040">
                                <set attributeName="fill" to="#808080" begin="zoomplus.mouseover" end="zoomplus.mouseout"/>
                        </use>
                        <path d="M-4,0h8M0,-4v8" fill="none" stroke="white" stroke-width="1.5" pointer-events="none"/>
                </g>
                <g id="zoomMin">
                        <use xlink:href="#rim" fill="#404040">
                                <set attributeName="fill" to="#808080" begin="zoomminus.mouseover" end="zoomminus.mouseout"/>
                        </use>
                        <path d="M-4,0h8" fill="none" stroke="white" stroke-width="1.5" pointer-events="none"/>
                </g>
                <g id="dirArrow">
                        <path fill="none" stroke="white" stroke-width="1.5" d="M0,-3.0v7 M-2.5,-0.5L0,-3.0L2.5,-0.5"/>
                </g>
               <g id="resetDef">
                       <use xlink:href="#rim2" fill="#404040">
                               <set attributeName="fill" to="#808080" begin="reset.mouseover" end="reset.mouseout"/>
                       </use>
               </g>
        </defs>

<script type="text/javascript">
var viewWidth = 722;
var viewHeight = 126;
var sectionId = 'dynsection-0';
</script>
<script xlink:href="svgpan.js"/>
<svg id="graph" class="graph">
<g id="viewport">
<title>Comparator</title>
<polygon fill="#ffffff" stroke="transparent" points="-4,4 -4,-122 718.1797,-122 718.1797,4 -4,4"/>
<!-- Node1 -->
<g id="node1" class="node">
<title>Node1</title>
<polygon fill="#bfbfbf" stroke="#000000" points="645.3818,-47.5 645.3818,-65.5 714.1797,-65.5 714.1797,-47.5 645.3818,-47.5"/>
<text text-anchor="middle" x="679.7808" y="-53.5" font-family="Helvetica,sans-Serif" font-size="10.00" fill="#000000">Comparator</text>
</g>
<!-- Node2 -->
<g id="node2" class="node">
<title>Node2</title>
<polygon fill="#ffffff" stroke="#bfbfbf" points="310.4692,-89.5 310.4692,-117.5 512.9487,-117.5 512.9487,-89.5 310.4692,-89.5"/>
<text text-anchor="start" x="318.4692" y="-105.5" font-family="Helvetica,sans-Serif" font-size="10.00" fill="#000000">ArrayList&lt; locomotor.components.models.</text>
<text text-anchor="middle" x="411.709" y="-95.5" font-family="Helvetica,sans-Serif" font-size="10.00" fill="#000000">CategoryModel &gt;</text>
</g>
<!-- Node2&#45;&gt;Node1 -->
<g id="edge1" class="edge">
<title>Node2&#45;&gt;Node1</title>
<path fill="none" stroke="#9a32cd" stroke-dasharray="5,2" d="M523.3707,-88.7884C556.9446,-83.7273 593.783,-77.537 627.3818,-70.5 634.2018,-69.0716 641.4573,-67.2992 648.3266,-65.501"/>
<polygon fill="#9a32cd" stroke="#9a32cd" points="522.439,-85.3884 513.0633,-90.3226 523.4696,-92.3122 522.439,-85.3884"/>
<text text-anchor="middle" x="587.9214" y="-86.5" font-family="Helvetica,sans-Serif" font-size="10.00" fill="#000000"> _model</text>
</g>
<!-- Node3 -->
<g id="node3" class="node">
<title>Node3</title>
<polygon fill="#ffffff" stroke="#bfbfbf" points="292.957,-42.5 292.957,-70.5 530.4609,-70.5 530.4609,-42.5 292.957,-42.5"/>
<text text-anchor="start" x="300.957" y="-58.5" font-family="Helvetica,sans-Serif" font-size="10.00" fill="#000000">HashMap&lt; String, locomotor.components.models.</text>
<text text-anchor="middle" x="411.709" y="-48.5" font-family="Helvetica,sans-Serif" font-size="10.00" fill="#000000">CriteriaModel &gt;</text>
</g>
<!-- Node3&#45;&gt;Node1 -->
<g id="edge2" class="edge">
<title>Node3&#45;&gt;Node1</title>
<path fill="none" stroke="#9a32cd" stroke-dasharray="5,2" d="M541.1354,-56.5C579.5795,-56.5 618.5298,-56.5 645.3159,-56.5"/>
<polygon fill="#9a32cd" stroke="#9a32cd" points="540.8503,-53.0001 530.8503,-56.5 540.8503,-60.0001 540.8503,-53.0001"/>
<text text-anchor="middle" x="587.9214" y="-58.5" font-family="Helvetica,sans-Serif" font-size="10.00" fill="#000000"> _modelCrits</text>
</g>
<!-- Node4 -->
<g id="node4" class="node">
<title>Node4</title>
<g id="a_node4"><a xlink:href="classlocomotor_1_1components_1_1models_1_1_user_item.html" target="_top" xlink:title="UserItem">
<polygon fill="#ffffff" stroke="#000000" points="383.4282,-5.5 383.4282,-23.5 439.9897,-23.5 439.9897,-5.5 383.4282,-5.5"/>
<text text-anchor="middle" x="411.709" y="-11.5" font-family="Helvetica,sans-Serif" font-size="10.00" fill="#000000">UserItem</text>
</a>
</g>
</g>
<!-- Node4&#45;&gt;Node1 -->
<g id="edge3" class="edge">
<title>Node4&#45;&gt;Node1</title>
<path fill="none" stroke="#9a32cd" stroke-dasharray="5,2" d="M450.2715,-17.9568C493.6145,-22.2005 565.9575,-30.3621 627.3818,-42.5 634.31,-43.869 641.6761,-45.6375 648.6289,-47.4539"/>
<polygon fill="#9a32cd" stroke="#9a32cd" points="450.4528,-14.4582 440.1642,-16.9869 449.7841,-21.4262 450.4528,-14.4582"/>
<text text-anchor="middle" x="587.9214" y="-44.5" font-family="Helvetica,sans-Serif" font-size="10.00" fill="#000000"> _userPerfectItem</text>
</g>
<!-- Node5 -->
<g id="node5" class="node">
<title>Node5</title>
<polygon fill="#ffffff" stroke="#bfbfbf" points="0,-.5 0,-28.5 202.4795,-28.5 202.4795,-.5 0,-.5"/>
<text text-anchor="start" x="8" y="-16.5" font-family="Helvetica,sans-Serif" font-size="10.00" fill="#000000">ArrayList&lt; locomotor.components.models.</text>
<text text-anchor="middle" x="101.2397" y="-6.5" font-family="Helvetica,sans-Serif" font-size="10.00" fill="#000000">UserCategory &gt;</text>
</g>
<!-- Node5&#45;&gt;Node4 -->
<g id="edge4" class="edge">
<title>Node5&#45;&gt;Node4</title>
<path fill="none" stroke="#9a32cd" stroke-dasharray="5,2" d="M212.9922,-14.5C274.0134,-14.5 344.7851,-14.5 383.2432,-14.5"/>
<polygon fill="#9a32cd" stroke="#9a32cd" points="212.899,-11.0001 202.899,-14.5 212.899,-18.0001 212.899,-11.0001"/>
<text text-anchor="middle" x="247.7183" y="-16.5" font-family="Helvetica,sans-Serif" font-size="10.00" fill="#000000"> _categories</text>
</g>
</g>
</svg>
        <g id="navigator" transform="translate(0 0)" fill="#404254">
                <rect fill="#f2f5e9" fill-opacity="0.5" stroke="#606060" stroke-width=".5" x="0" y="0" width="60" height="60"/>
                <use id="zoomplus" xlink:href="#zoomPlus" x="17" y="9" onmousedown="handleZoom(evt,'in')"/>
                <use id="zoomminus" xlink:href="#zoomMin" x="42" y="9" onmousedown="handleZoom(evt,'out')"/>
                <use id="reset" xlink:href="#resetDef" x="30" y="36" onmousedown="handleReset()"/>
                <g id="arrowUp" xlink:href="#dirArrow" transform="translate(30 24)" onmousedown="handlePan(0,-1)">
                  <use xlink:href="#rim" fill="#404040">
                        <set attributeName="fill" to="#808080" begin="arrowUp.mouseover" end="arrowUp.mouseout"/>
                  </use>
                  <path fill="none" stroke="white" stroke-width="1.5" d="M0,-3.0v7 M-2.5,-0.5L0,-3.0L2.5,-0.5"/>
                </g>
                <g id="arrowRight" xlink:href="#dirArrow" transform="rotate(90) translate(36 -43)" onmousedown="handlePan(1,0)">
                  <use xlink:href="#rim" fill="#404040">
                        <set attributeName="fill" to="#808080" begin="arrowRight.mouseover" end="arrowRight.mouseout"/>
                  </use>
                  <path fill="none" stroke="white" stroke-width="1.5" d="M0,-3.0v7 M-2.5,-0.5L0,-3.0L2.5,-0.5"/>
                </g>
                <g id="arrowDown" xlink:href="#dirArrow" transform="rotate(180) translate(-30 -48)" onmousedown="handlePan(0,1)">
                  <use xlink:href="#rim" fill="#404040">
                        <set attributeName="fill" to="#808080" begin="arrowDown.mouseover" end="arrowDown.mouseout"/>
                  </use>
                  <path fill="none" stroke="white" stroke-width="1.5" d="M0,-3.0v7 M-2.5,-0.5L0,-3.0L2.5,-0.5"/>
                </g>
                <g id="arrowLeft" xlink:href="#dirArrow" transform="rotate(270) translate(-36 17)" onmousedown="handlePan(-1,0)">
                  <use xlink:href="#rim" fill="#404040">
                        <set attributeName="fill" to="#808080" begin="arrowLeft.mouseover" end="arrowLeft.mouseout"/>
                  </use>
                  <path fill="none" stroke="white" stroke-width="1.5" d="M0,-3.0v7 M-2.5,-0.5L0,-3.0L2.5,-0.5"/>
                </g>
        </g>
        <svg viewBox="0 0 15 15" width="100%" height="30px" preserveAspectRatio="xMaxYMin meet">
         <g id="arrow_out" transform="scale(0.3 0.3)">
          <a xlink:href="classlocomotor_1_1core_1_1_comparator__coll__graph_org.svg" target="_base">
           <rect id="button" ry="5" rx="5" y="6" x="6" height="38" width="38"
                fill="#f2f5e9" fill-opacity="0.5" stroke="#606060" stroke-width="1.0"/>
           <path id="arrow"
             d="M 11.500037,31.436501 C 11.940474,20.09759 22.043105,11.32322 32.158766,21.979434 L 37.068811,17.246167 C 37.068811,17.246167 37.088388,32 37.088388,32 L 22.160133,31.978069 C 22.160133,31.978069 26.997745,27.140456 26.997745,27.140456 C 18.528582,18.264221 13.291696,25.230495 11.500037,31.436501 z"
             style="fill:#404040;"/>
          </a>
         </g>
        </svg>
</svg>
