<?xml version="1.0" encoding="UTF-8" standalone="no"?>
<!DOCTYPE svg PUBLIC "-//W3C//DTD SVG 1.1//EN"
 "http://www.w3.org/Graphics/SVG/1.1/DTD/svg11.dtd">
<!-- Generated by graphviz version 2.40.1 (20161225.0304)
 -->
<!-- Title: getCategories Pages: 1 -->
<svg width="873pt" height="111pt"
 viewBox="0.00 0.00 873.45 111.00" xmlns="http://www.w3.org/2000/svg" xmlns:xlink="http://www.w3.org/1999/xlink">
<g id="graph0" class="graph" transform="scale(1 1) rotate(0) translate(4 107)">
<title>getCategories</title>
<polygon fill="#ffffff" stroke="transparent" points="-4,4 -4,-107 869.4502,-107 869.4502,4 -4,4"/>
<!-- Node1 -->
<g id="node1" class="node">
<title>Node1</title>
<polygon fill="#bfbfbf" stroke="#000000" points="0,-55.5 0,-73.5 78.2607,-73.5 78.2607,-55.5 0,-55.5"/>
<text text-anchor="middle" x="39.1304" y="-61.5" font-family="Helvetica,sans-Serif" font-size="10.00" fill="#000000">getCategories</text>
</g>
<!-- Node2 -->
<g id="node2" class="node">
<title>Node2</title>
<g id="a_node2"><a xlink:href="classlocomotor_1_1core_1_1_comparator.html#a589b06b817cbbc74ceb4812d0ba6c245" target="_top" xlink:title="locomotor.core.Comparator.compute\lGradeOfItem">
<polygon fill="#ffffff" stroke="#000000" points="114.2607,-74.5 114.2607,-102.5 292.0137,-102.5 292.0137,-74.5 114.2607,-74.5"/>
<text text-anchor="start" x="122.2607" y="-90.5" font-family="Helvetica,sans-Serif" font-size="10.00" fill="#000000">locomotor.core.Comparator.compute</text>
<text text-anchor="middle" x="203.1372" y="-80.5" font-family="Helvetica,sans-Serif" font-size="10.00" fill="#000000">GradeOfItem</text>
</a>
</g>
</g>
<!-- Node1&#45;&gt;Node2 -->
<g id="edge1" class="edge">
<title>Node1&#45;&gt;Node2</title>
<path fill="none" stroke="#191970" d="M88.4586,-71.7185C96.6314,-72.9144 105.3219,-74.1862 114.1208,-75.4738"/>
<polygon fill="#191970" stroke="#191970" points="88.8155,-68.2335 78.4141,-70.2486 87.8019,-75.1597 88.8155,-68.2335"/>
</g>
<!-- Node6 -->
<g id="node6" class="node">
<title>Node6</title>
<g id="a_node6"><a xlink:href="classlocomotor_1_1core_1_1_d_b_h.html#ad067053be75a3170dc9c2ce7b922e176" target="_top" xlink:title="locomotor.core.DBH.checking\lParsingItem">
<polygon fill="#ffffff" stroke="#000000" points="129.2729,-27.5 129.2729,-55.5 277.0015,-55.5 277.0015,-27.5 129.2729,-27.5"/>
<text text-anchor="start" x="137.2729" y="-43.5" font-family="Helvetica,sans-Serif" font-size="10.00" fill="#000000">locomotor.core.DBH.checking</text>
<text text-anchor="middle" x="203.1372" y="-33.5" font-family="Helvetica,sans-Serif" font-size="10.00" fill="#000000">ParsingItem</text>
</a>
</g>
</g>
<!-- Node1&#45;&gt;Node6 -->
<g id="edge5" class="edge">
<title>Node1&#45;&gt;Node6</title>
<path fill="none" stroke="#191970" d="M88.4041,-57.5899C101.2409,-55.7897 115.3577,-53.81 129.1677,-51.8733"/>
<polygon fill="#191970" stroke="#191970" points="87.8311,-54.136 78.4141,-58.9909 88.8033,-61.0681 87.8311,-54.136"/>
</g>
<!-- Node3 -->
<g id="node3" class="node">
<title>Node3</title>
<g id="a_node3"><a xlink:href="classlocomotor_1_1core_1_1_comparator.html#a092fb76ad264eeccd8f30eadb70e36e3" target="_top" xlink:title="locomotor.core.Comparator.compute\lGradeOfItems">
<polygon fill="#ffffff" stroke="#000000" points="328.0137,-74.5 328.0137,-102.5 505.7666,-102.5 505.7666,-74.5 328.0137,-74.5"/>
<text text-anchor="start" x="336.0137" y="-90.5" font-family="Helvetica,sans-Serif" font-size="10.00" fill="#000000">locomotor.core.Comparator.compute</text>
<text text-anchor="middle" x="416.8901" y="-80.5" font-family="Helvetica,sans-Serif" font-size="10.00" fill="#000000">GradeOfItems</text>
</a>
</g>
</g>
<!-- Node2&#45;&gt;Node3 -->
<g id="edge2" class="edge">
<title>Node2&#45;&gt;Node3</title>
<path fill="none" stroke="#191970" d="M302.2526,-88.5C310.8194,-88.5 319.453,-88.5 327.9318,-88.5"/>
<polygon fill="#191970" stroke="#191970" points="302.2399,-85.0001 292.2399,-88.5 302.2398,-92.0001 302.2399,-85.0001"/>
</g>
<!-- Node4 -->
<g id="node4" class="node">
<title>Node4</title>
<g id="a_node4"><a xlink:href="classlocomotor_1_1components_1_1network_1_1_a_p_i.html#a547463fbc7fb7b485886f0917e2c0b78" target="_top" xlink:title="locomotor.components.network.\lAPI.createHooks">
<polygon fill="#ffffff" stroke="#000000" points="541.7666,-32.5 541.7666,-60.5 698.9531,-60.5 698.9531,-32.5 541.7666,-32.5"/>
<text text-anchor="start" x="549.7666" y="-48.5" font-family="Helvetica,sans-Serif" font-size="10.00" fill="#000000">locomotor.components.network.</text>
<text text-anchor="middle" x="620.3599" y="-38.5" font-family="Helvetica,sans-Serif" font-size="10.00" fill="#000000">API.createHooks</text>
</a>
</g>
</g>
<!-- Node3&#45;&gt;Node4 -->
<g id="edge3" class="edge">
<title>Node3&#45;&gt;Node4</title>
<path fill="none" stroke="#191970" d="M494.7349,-72.4314C513.7274,-68.511 533.8973,-64.3475 552.3886,-60.5306"/>
<polygon fill="#191970" stroke="#191970" points="494.0114,-69.0068 484.9255,-74.4562 495.4266,-75.8623 494.0114,-69.0068"/>
</g>
<!-- Node5 -->
<g id="node5" class="node">
<title>Node5</title>
<g id="a_node5"><a xlink:href="classlocomotor_1_1core_1_1_main.html#a8b260eecbaabcef8473fd87ada040682" target="_top" xlink:title="locomotor.core.Main.main">
<polygon fill="#ffffff" stroke="#000000" points="734.9531,-37.5 734.9531,-55.5 865.4502,-55.5 865.4502,-37.5 734.9531,-37.5"/>
<text text-anchor="middle" x="800.2017" y="-43.5" font-family="Helvetica,sans-Serif" font-size="10.00" fill="#000000">locomotor.core.Main.main</text>
</a>
</g>
</g>
<!-- Node4&#45;&gt;Node5 -->
<g id="edge4" class="edge">
<title>Node4&#45;&gt;Node5</title>
<path fill="none" stroke="#191970" d="M709.1529,-46.5C717.8412,-46.5 726.5435,-46.5 734.9354,-46.5"/>
<polygon fill="#191970" stroke="#191970" points="708.9795,-43.0001 698.9795,-46.5 708.9794,-50.0001 708.9795,-43.0001"/>
</g>
<!-- Node7 -->
<g id="node7" class="node">
<title>Node7</title>
<g id="a_node7"><a xlink:href="classlocomotor_1_1core_1_1_d_b_h.html#ae26eef1ee7482f2e0167c6a18924d214" target="_top" xlink:title="locomotor.core.DBH.addItem">
<polygon fill="#ffffff" stroke="#000000" points="344.6934,-37.5 344.6934,-55.5 489.0869,-55.5 489.0869,-37.5 344.6934,-37.5"/>
<text text-anchor="middle" x="416.8901" y="-43.5" font-family="Helvetica,sans-Serif" font-size="10.00" fill="#000000">locomotor.core.DBH.addItem</text>
</a>
</g>
</g>
<!-- Node6&#45;&gt;Node7 -->
<g id="edge6" class="edge">
<title>Node6&#45;&gt;Node7</title>
<path fill="none" stroke="#191970" d="M287.398,-43.471C306.3366,-43.914 326.2682,-44.3802 344.664,-44.8105"/>
<polygon fill="#191970" stroke="#191970" points="287.3769,-39.9696 277.2977,-43.2347 287.2131,-46.9677 287.3769,-39.9696"/>
</g>
<!-- Node8 -->
<g id="node8" class="node">
<title>Node8</title>
<g id="a_node8"><a xlink:href="classlocomotor_1_1core_1_1_d_b_h.html#aa0e39c547d06fd9d0ad2de70251c9cc0" target="_top" xlink:title="locomotor.core.DBH.updateItem">
<polygon fill="#ffffff" stroke="#000000" points="337.7427,-.5 337.7427,-18.5 496.0376,-18.5 496.0376,-.5 337.7427,-.5"/>
<text text-anchor="middle" x="416.8901" y="-6.5" font-family="Helvetica,sans-Serif" font-size="10.00" fill="#000000">locomotor.core.DBH.updateItem</text>
</a>
</g>
</g>
<!-- Node6&#45;&gt;Node8 -->
<g id="edge8" class="edge">
<title>Node6&#45;&gt;Node8</title>
<path fill="none" stroke="#191970" d="M287.4501,-28.8779C310.5705,-25.4166 335.167,-21.7344 356.6401,-18.5198"/>
<polygon fill="#191970" stroke="#191970" points="286.6693,-25.4557 277.2977,-30.3978 287.7057,-32.3785 286.6693,-25.4557"/>
</g>
<!-- Node7&#45;&gt;Node4 -->
<g id="edge7" class="edge">
<title>Node7&#45;&gt;Node4</title>
<path fill="none" stroke="#191970" d="M499.2928,-46.5C513.3004,-46.5 527.8155,-46.5 541.7227,-46.5"/>
<polygon fill="#191970" stroke="#191970" points="499.1989,-43.0001 489.1989,-46.5 499.1988,-50.0001 499.1989,-43.0001"/>
</g>
<!-- Node8&#45;&gt;Node4 -->
<g id="edge9" class="edge">
<title>Node8&#45;&gt;Node4</title>
<path fill="none" stroke="#191970" d="M476.4023,-20.322C497.2813,-24.1187 521.0446,-28.44 543.1624,-32.462"/>
<polygon fill="#191970" stroke="#191970" points="476.8691,-16.8496 466.4042,-18.5039 475.6167,-23.7366 476.8691,-16.8496"/>
</g>
</g>
</svg>
