<?xml version="1.0" encoding="UTF-8" standalone="no"?>
<!DOCTYPE svg PUBLIC "-//W3C//DTD SVG 1.1//EN"
 "http://www.w3.org/Graphics/SVG/1.1/DTD/svg11.dtd">
<!-- Generated by graphviz version 2.40.1 (20161225.0304)
 -->
<!-- Title: filterResults Pages: 1 -->
<svg width="589pt" height="37pt"
 viewBox="0.00 0.00 589.07 37.00" xmlns="http://www.w3.org/2000/svg" xmlns:xlink="http://www.w3.org/1999/xlink">
<g id="graph0" class="graph" transform="scale(1 1) rotate(0) translate(4 33)">
<title>filterResults</title>
<polygon fill="#ffffff" stroke="transparent" points="-4,4 -4,-33 585.0723,-33 585.0723,4 -4,4"/>
<!-- Node1 -->
<g id="node1" class="node">
<title>Node1</title>
<polygon fill="#bfbfbf" stroke="#000000" points="0,-5.5 0,-23.5 68.2363,-23.5 68.2363,-5.5 0,-5.5"/>
<text text-anchor="middle" x="34.1182" y="-11.5" font-family="Helvetica,sans-Serif" font-size="10.00" fill="#000000">filterResults</text>
</g>
<!-- Node2 -->
<g id="node2" class="node">
<title>Node2</title>
<g id="a_node2"><a xlink:href="classlocomotor_1_1core_1_1_comparator.html#a092fb76ad264eeccd8f30eadb70e36e3" target="_top" xlink:title="computeGradeOfItems">
<polygon fill="#ffffff" stroke="#000000" points="104.2363,-5.5 104.2363,-23.5 221.3887,-23.5 221.3887,-5.5 104.2363,-5.5"/>
<text text-anchor="middle" x="162.8125" y="-11.5" font-family="Helvetica,sans-Serif" font-size="10.00" fill="#000000">computeGradeOfItems</text>
</a>
</g>
</g>
<!-- Node1&#45;&gt;Node2 -->
<g id="edge1" class="edge">
<title>Node1&#45;&gt;Node2</title>
<path fill="none" stroke="#191970" d="M78.4404,-14.5C86.7157,-14.5 95.4818,-14.5 104.1114,-14.5"/>
<polygon fill="#191970" stroke="#191970" points="78.268,-11.0001 68.268,-14.5 78.268,-18.0001 78.268,-11.0001"/>
</g>
<!-- Node3 -->
<g id="node3" class="node">
<title>Node3</title>
<g id="a_node3"><a xlink:href="classlocomotor_1_1components_1_1network_1_1_a_p_i.html#a547463fbc7fb7b485886f0917e2c0b78" target="_top" xlink:title="locomotor.components.network.\lAPI.createHooks">
<polygon fill="#ffffff" stroke="#000000" points="257.3887,-.5 257.3887,-28.5 414.5752,-28.5 414.5752,-.5 257.3887,-.5"/>
<text text-anchor="start" x="265.3887" y="-16.5" font-family="Helvetica,sans-Serif" font-size="10.00" fill="#000000">locomotor.components.network.</text>
<text text-anchor="middle" x="335.9819" y="-6.5" font-family="Helvetica,sans-Serif" font-size="10.00" fill="#000000">API.createHooks</text>
</a>
</g>
</g>
<!-- Node2&#45;&gt;Node3 -->
<g id="edge2" class="edge">
<title>Node2&#45;&gt;Node3</title>
<path fill="none" stroke="#191970" d="M231.5567,-14.5C239.9647,-14.5 248.6074,-14.5 257.1486,-14.5"/>
<polygon fill="#191970" stroke="#191970" points="231.4398,-11.0001 221.4398,-14.5 231.4397,-18.0001 231.4398,-11.0001"/>
</g>
<!-- Node4 -->
<g id="node4" class="node">
<title>Node4</title>
<g id="a_node4"><a xlink:href="classlocomotor_1_1core_1_1_main.html#a8b260eecbaabcef8473fd87ada040682" target="_top" xlink:title="locomotor.core.Main.main">
<polygon fill="#ffffff" stroke="#000000" points="450.5752,-5.5 450.5752,-23.5 581.0723,-23.5 581.0723,-5.5 450.5752,-5.5"/>
<text text-anchor="middle" x="515.8237" y="-11.5" font-family="Helvetica,sans-Serif" font-size="10.00" fill="#000000">locomotor.core.Main.main</text>
</a>
</g>
</g>
<!-- Node3&#45;&gt;Node4 -->
<g id="edge3" class="edge">
<title>Node3&#45;&gt;Node4</title>
<path fill="none" stroke="#191970" d="M424.775,-14.5C433.4633,-14.5 442.1656,-14.5 450.5575,-14.5"/>
<polygon fill="#191970" stroke="#191970" points="424.6016,-11.0001 414.6015,-14.5 424.6015,-18.0001 424.6016,-11.0001"/>
</g>
</g>
</svg>
