<?xml version="1.0" encoding="UTF-8" standalone="no"?>
<!DOCTYPE svg PUBLIC "-//W3C//DTD SVG 1.1//EN"
 "http://www.w3.org/Graphics/SVG/1.1/DTD/svg11.dtd">
<!-- Generated by graphviz version 2.40.1 (20161225.0304)
 -->
<!-- Title: getTree Pages: 1 -->
<!--zoomable 173 -->
<svg id="main" version="1.1" xmlns="http://www.w3.org/2000/svg" xmlns:xlink="http://www.w3.org/1999/xlink" xml:space="preserve" onload="init(evt)">
<style type="text/css"><![CDATA[
.edge:hover path { stroke: red; }
.edge:hover polygon { stroke: red; fill: red; }
]]></style>
<script type="text/javascript"><![CDATA[
var edges = document.getElementsByTagName('g');
if (edges && edges.length) {
  for (var i=0;i<edges.length;i++) {
    if (edges[i].id.substr(0,4)=='edge') {
      edges[i].setAttribute('class','edge');
    }
  }
}
]]></script>
        <defs>
                <circle id="rim" cx="0" cy="0" r="7"/>
                <circle id="rim2" cx="0" cy="0" r="3.5"/>
                <g id="zoomPlus">
                        <use xlink:href="#rim" fill="#404040">
                                <set attributeName="fill" to="#808080" begin="zoomplus.mouseover" end="zoomplus.mouseout"/>
                        </use>
                        <path d="M-4,0h8M0,-4v8" fill="none" stroke="white" stroke-width="1.5" pointer-events="none"/>
                </g>
                <g id="zoomMin">
                        <use xlink:href="#rim" fill="#404040">
                                <set attributeName="fill" to="#808080" begin="zoomminus.mouseover" end="zoomminus.mouseout"/>
                        </use>
                        <path d="M-4,0h8" fill="none" stroke="white" stroke-width="1.5" pointer-events="none"/>
                </g>
                <g id="dirArrow">
                        <path fill="none" stroke="white" stroke-width="1.5" d="M0,-3.0v7 M-2.5,-0.5L0,-3.0L2.5,-0.5"/>
                </g>
               <g id="resetDef">
                       <use xlink:href="#rim2" fill="#404040">
                               <set attributeName="fill" to="#808080" begin="reset.mouseover" end="reset.mouseout"/>
                       </use>
               </g>
        </defs>

<script type="text/javascript">
var viewWidth = 604;
var viewHeight = 173;
var sectionId = 'dynsection-8';
</script>
<script xlink:href="svgpan.js"/>
<svg id="graph" class="graph">
<g id="viewport">
<title>getTree</title>
<polygon fill="#ffffff" stroke="transparent" points="-4,4 -4,-169 600.3164,-169 600.3164,4 -4,4"/>
<!-- Node1 -->
<g id="node1" class="node">
<title>Node1</title>
<polygon fill="#bfbfbf" stroke="#000000" points="0,-70.5 0,-88.5 50.0967,-88.5 50.0967,-70.5 0,-70.5"/>
<text text-anchor="middle" x="25.0483" y="-76.5" font-family="Helvetica,sans-Serif" font-size="10.00" fill="#000000">getTree</text>
</g>
<!-- Node2 -->
<g id="node2" class="node">
<title>Node2</title>
<g id="a_node2"><a xlink:href="classlocomotor_1_1components_1_1types_1_1_c_tree.html#abae46f77a9b20204fac3231e317a1e0f" target="_top" xlink:title="locomotor.components.types.\lCTree.getID">
<polygon fill="#ffffff" stroke="#000000" points="86.0967,-136.5 86.0967,-164.5 232.1699,-164.5 232.1699,-136.5 86.0967,-136.5"/>
<text text-anchor="start" x="94.0967" y="-152.5" font-family="Helvetica,sans-Serif" font-size="10.00" fill="#000000">locomotor.components.types.</text>
<text text-anchor="middle" x="159.1333" y="-142.5" font-family="Helvetica,sans-Serif" font-size="10.00" fill="#000000">CTree.getID</text>
</a>
</g>
</g>
<!-- Node1&#45;&gt;Node2 -->
<g id="edge1" class="edge">
<title>Node1&#45;&gt;Node2</title>
<path fill="none" stroke="#191970" d="M34.6292,-88.8679C46.034,-99.5587 66.0657,-116.9262 86.0967,-127.5 89.5685,-129.3327 93.2112,-131.0486 96.9392,-132.6503"/>
<polygon fill="#191970" stroke="#191970" points="95.7479,-135.9432 106.333,-136.3979 98.3418,-129.4415 95.7479,-135.9432"/>
</g>
<!-- Node3 -->
<g id="node3" class="node">
<title>Node3</title>
<g id="a_node3"><a xlink:href="classlocomotor_1_1components_1_1types_1_1_c_tree.html#aa1e673ab8d70f133793c23ddc807ee95" target="_top" xlink:title="locomotor.components.types.\lCTree.isLeaf">
<polygon fill="#ffffff" stroke="#000000" points="86.0967,-89.5 86.0967,-117.5 232.1699,-117.5 232.1699,-89.5 86.0967,-89.5"/>
<text text-anchor="start" x="94.0967" y="-105.5" font-family="Helvetica,sans-Serif" font-size="10.00" fill="#000000">locomotor.components.types.</text>
<text text-anchor="middle" x="159.1333" y="-95.5" font-family="Helvetica,sans-Serif" font-size="10.00" fill="#000000">CTree.isLeaf</text>
</a>
</g>
</g>
<!-- Node1&#45;&gt;Node3 -->
<g id="edge2" class="edge">
<title>Node1&#45;&gt;Node3</title>
<path fill="none" stroke="#191970" d="M50.2687,-84.0142C57.8454,-85.3704 66.6086,-86.9389 75.8071,-88.5854"/>
<polygon fill="#191970" stroke="#191970" points="75.4636,-92.0794 85.9238,-90.3962 76.697,-85.1889 75.4636,-92.0794"/>
</g>
<!-- Node4 -->
<g id="node4" class="node">
<title>Node4</title>
<g id="a_node4"><a xlink:href="classlocomotor_1_1components_1_1types_1_1_c_tree.html#aa4f5971d4294394c235a62bbf96660f1" target="_top" xlink:title="locomotor.components.types.\lCTree.getChildren">
<polygon fill="#ffffff" stroke="#000000" points="86.0967,-42.5 86.0967,-70.5 232.1699,-70.5 232.1699,-42.5 86.0967,-42.5"/>
<text text-anchor="start" x="94.0967" y="-58.5" font-family="Helvetica,sans-Serif" font-size="10.00" fill="#000000">locomotor.components.types.</text>
<text text-anchor="middle" x="159.1333" y="-48.5" font-family="Helvetica,sans-Serif" font-size="10.00" fill="#000000">CTree.getChildren</text>
</a>
</g>
</g>
<!-- Node1&#45;&gt;Node4 -->
<g id="edge3" class="edge">
<title>Node1&#45;&gt;Node4</title>
<path fill="none" stroke="#191970" d="M50.2687,-75.1739C57.8454,-73.8742 66.6086,-72.371 75.8071,-70.7932"/>
<polygon fill="#191970" stroke="#191970" points="76.6595,-74.1982 85.9238,-69.0578 75.476,-67.2989 76.6595,-74.1982"/>
</g>
<!-- Node5 -->
<g id="node5" class="node">
<title>Node5</title>
<g id="a_node5"><a xlink:href="classlocomotor_1_1components_1_1types_1_1_type_factory.html#aa1f74ce70c02a7665f32b4ec438a6c3c" target="_top" xlink:title="getTree">
<polygon fill="#ffffff" stroke="#000000" points="134.085,-5.5 134.085,-23.5 184.1816,-23.5 184.1816,-5.5 134.085,-5.5"/>
<text text-anchor="middle" x="159.1333" y="-11.5" font-family="Helvetica,sans-Serif" font-size="10.00" fill="#000000">getTree</text>
</a>
</g>
</g>
<!-- Node1&#45;&gt;Node5 -->
<g id="edge4" class="edge">
<title>Node1&#45;&gt;Node5</title>
<path fill="none" stroke="#191970" d="M34.614,-70.3688C46.0045,-59.9792 66.0227,-43.1998 86.0967,-33.5 97.8937,-27.7997 111.6187,-23.6535 123.9655,-20.7172"/>
<polygon fill="#191970" stroke="#191970" points="124.9231,-24.0904 133.9401,-18.5277 123.4222,-17.2532 124.9231,-24.0904"/>
</g>
<!-- Node6 -->
<g id="node6" class="node">
<title>Node6</title>
<g id="a_node6"><a xlink:href="classlocomotor_1_1components_1_1types_1_1_c_tree.html#a74382cb3a3153edc32f1cfed8c4ee364" target="_top" xlink:title="locomotor.components.types.\lCTree.addChild">
<polygon fill="#ffffff" stroke="#000000" points="268.1699,-.5 268.1699,-28.5 414.2432,-28.5 414.2432,-.5 268.1699,-.5"/>
<text text-anchor="start" x="276.1699" y="-16.5" font-family="Helvetica,sans-Serif" font-size="10.00" fill="#000000">locomotor.components.types.</text>
<text text-anchor="middle" x="341.2065" y="-6.5" font-family="Helvetica,sans-Serif" font-size="10.00" fill="#000000">CTree.addChild</text>
</a>
</g>
</g>
<!-- Node5&#45;&gt;Node6 -->
<g id="edge5" class="edge">
<title>Node5&#45;&gt;Node6</title>
<path fill="none" stroke="#191970" d="M184.4498,-14.5C203.598,-14.5 231.0522,-14.5 257.6492,-14.5"/>
<polygon fill="#191970" stroke="#191970" points="257.7818,-18.0001 267.7817,-14.5 257.7817,-11.0001 257.7818,-18.0001"/>
</g>
<!-- Node7 -->
<g id="node7" class="node">
<title>Node7</title>
<g id="a_node7"><a xlink:href="classlocomotor_1_1components_1_1types_1_1_c_tree.html#af0e7a198496b1627d0ff15ce0e6de1f2" target="_top" xlink:title="locomotor.components.types.\lCTree.CTree">
<polygon fill="#ffffff" stroke="#000000" points="450.2432,-.5 450.2432,-28.5 596.3164,-28.5 596.3164,-.5 450.2432,-.5"/>
<text text-anchor="start" x="458.2432" y="-16.5" font-family="Helvetica,sans-Serif" font-size="10.00" fill="#000000">locomotor.components.types.</text>
<text text-anchor="middle" x="523.2798" y="-6.5" font-family="Helvetica,sans-Serif" font-size="10.00" fill="#000000">CTree.CTree</text>
</a>
</g>
</g>
<!-- Node6&#45;&gt;Node7 -->
<g id="edge6" class="edge">
<title>Node6&#45;&gt;Node7</title>
<path fill="none" stroke="#191970" d="M414.4757,-14.5C422.8356,-14.5 431.4035,-14.5 439.8824,-14.5"/>
<polygon fill="#191970" stroke="#191970" points="440.1607,-18.0001 450.1606,-14.5 440.1606,-11.0001 440.1607,-18.0001"/>
</g>
</g>
</svg>
        <g id="navigator" transform="translate(0 0)" fill="#404254">
                <rect fill="#f2f5e9" fill-opacity="0.5" stroke="#606060" stroke-width=".5" x="0" y="0" width="60" height="60"/>
                <use id="zoomplus" xlink:href="#zoomPlus" x="17" y="9" onmousedown="handleZoom(evt,'in')"/>
                <use id="zoomminus" xlink:href="#zoomMin" x="42" y="9" onmousedown="handleZoom(evt,'out')"/>
                <use id="reset" xlink:href="#resetDef" x="30" y="36" onmousedown="handleReset()"/>
                <g id="arrowUp" xlink:href="#dirArrow" transform="translate(30 24)" onmousedown="handlePan(0,-1)">
                  <use xlink:href="#rim" fill="#404040">
                        <set attributeName="fill" to="#808080" begin="arrowUp.mouseover" end="arrowUp.mouseout"/>
                  </use>
                  <path fill="none" stroke="white" stroke-width="1.5" d="M0,-3.0v7 M-2.5,-0.5L0,-3.0L2.5,-0.5"/>
                </g>
                <g id="arrowRight" xlink:href="#dirArrow" transform="rotate(90) translate(36 -43)" onmousedown="handlePan(1,0)">
                  <use xlink:href="#rim" fill="#404040">
                        <set attributeName="fill" to="#808080" begin="arrowRight.mouseover" end="arrowRight.mouseout"/>
                  </use>
                  <path fill="none" stroke="white" stroke-width="1.5" d="M0,-3.0v7 M-2.5,-0.5L0,-3.0L2.5,-0.5"/>
                </g>
                <g id="arrowDown" xlink:href="#dirArrow" transform="rotate(180) translate(-30 -48)" onmousedown="handlePan(0,1)">
                  <use xlink:href="#rim" fill="#404040">
                        <set attributeName="fill" to="#808080" begin="arrowDown.mouseover" end="arrowDown.mouseout"/>
                  </use>
                  <path fill="none" stroke="white" stroke-width="1.5" d="M0,-3.0v7 M-2.5,-0.5L0,-3.0L2.5,-0.5"/>
                </g>
                <g id="arrowLeft" xlink:href="#dirArrow" transform="rotate(270) translate(-36 17)" onmousedown="handlePan(-1,0)">
                  <use xlink:href="#rim" fill="#404040">
                        <set attributeName="fill" to="#808080" begin="arrowLeft.mouseover" end="arrowLeft.mouseout"/>
                  </use>
                  <path fill="none" stroke="white" stroke-width="1.5" d="M0,-3.0v7 M-2.5,-0.5L0,-3.0L2.5,-0.5"/>
                </g>
        </g>
        <svg viewBox="0 0 15 15" width="100%" height="30px" preserveAspectRatio="xMaxYMin meet">
         <g id="arrow_out" transform="scale(0.3 0.3)">
          <a xlink:href="classlocomotor_1_1components_1_1types_1_1_type_factory_a4f3bd968d433225df40aa83e43931496_cgraph_org.svg" target="_base">
           <rect id="button" ry="5" rx="5" y="6" x="6" height="38" width="38"
                fill="#f2f5e9" fill-opacity="0.5" stroke="#606060" stroke-width="1.0"/>
           <path id="arrow"
             d="M 11.500037,31.436501 C 11.940474,20.09759 22.043105,11.32322 32.158766,21.979434 L 37.068811,17.246167 C 37.068811,17.246167 37.088388,32 37.088388,32 L 22.160133,31.978069 C 22.160133,31.978069 26.997745,27.140456 26.997745,27.140456 C 18.528582,18.264221 13.291696,25.230495 11.500037,31.436501 z"
             style="fill:#404040;"/>
          </a>
         </g>
        </svg>
</svg>
