<?xml version="1.0" encoding="UTF-8" standalone="no"?>
<!DOCTYPE svg PUBLIC "-//W3C//DTD SVG 1.1//EN"
 "http://www.w3.org/Graphics/SVG/1.1/DTD/svg11.dtd">
<!-- Generated by graphviz version 2.40.1 (20161225.0304)
 -->
<!-- Title: IEndpointHandler Pages: 1 -->
<svg width="385pt" height="177pt"
 viewBox="0.00 0.00 385.33 177.00" xmlns="http://www.w3.org/2000/svg" xmlns:xlink="http://www.w3.org/1999/xlink">
<g id="graph0" class="graph" transform="scale(1 1) rotate(0) translate(4 173)">
<title>IEndpointHandler</title>
<polygon fill="#ffffff" stroke="transparent" points="-4,4 -4,-173 381.3301,-173 381.3301,4 -4,4"/>
<!-- Node1 -->
<g id="node1" class="node">
<title>Node1</title>
<polygon fill="#bfbfbf" stroke="#000000" points="148.2861,-.5 148.2861,-18.5 241.5615,-18.5 241.5615,-.5 148.2861,-.5"/>
<text text-anchor="middle" x="194.9238" y="-6.5" font-family="Helvetica,sans-Serif" font-size="10.00" fill="#000000">IEndpointHandler</text>
</g>
<!-- Node2 -->
<g id="node2" class="node">
<title>Node2</title>
<g id="a_node2"><a xlink:href="classlocomotor_1_1components_1_1network_1_1_network_data.html" target="_top" xlink:title="NetworkData">
<polygon fill="#ffffff" stroke="#000000" points="35.0249,-75.5 35.0249,-93.5 108.8228,-93.5 108.8228,-75.5 35.0249,-75.5"/>
<text text-anchor="middle" x="71.9238" y="-81.5" font-family="Helvetica,sans-Serif" font-size="10.00" fill="#000000">NetworkData</text>
</a>
</g>
</g>
<!-- Node2&#45;&gt;Node1 -->
<g id="edge1" class="edge">
<title>Node2&#45;&gt;Node1</title>
<path fill="none" stroke="#9a32cd" stroke-dasharray="5,2" d="M95.857,-69.9066C120.8302,-54.679 159.2002,-31.2827 180.1024,-18.5374"/>
<polygon fill="#9a32cd" stroke="#9a32cd" points="93.7219,-67.1091 87.006,-75.3035 97.3662,-73.0857 93.7219,-67.1091"/>
<text text-anchor="middle" x="162.8252" y="-44" font-family="Helvetica,sans-Serif" font-size="10.00" fill="#000000"> _data</text>
</g>
<!-- Node3 -->
<g id="node3" class="node">
<title>Node3</title>
<polygon fill="#ffffff" stroke="#bfbfbf" points="0,-140.5 0,-168.5 139.8477,-168.5 139.8477,-140.5 0,-140.5"/>
<text text-anchor="start" x="8" y="-156.5" font-family="Helvetica,sans-Serif" font-size="10.00" fill="#000000">TreeMap&lt; String, ByteArray</text>
<text text-anchor="middle" x="69.9238" y="-146.5" font-family="Helvetica,sans-Serif" font-size="10.00" fill="#000000">OutputStream &gt;</text>
</g>
<!-- Node3&#45;&gt;Node2 -->
<g id="edge2" class="edge">
<title>Node3&#45;&gt;Node2</title>
<path fill="none" stroke="#9a32cd" stroke-dasharray="5,2" d="M70.6236,-130.007C70.982,-117.4648 71.397,-102.9386 71.6599,-93.7368"/>
<polygon fill="#9a32cd" stroke="#9a32cd" points="67.1157,-130.2385 70.3286,-140.3345 74.1128,-130.4385 67.1157,-130.2385"/>
<text text-anchor="middle" x="92.7661" y="-114" font-family="Helvetica,sans-Serif" font-size="10.00" fill="#000000"> _params</text>
</g>
<!-- Node4 -->
<g id="node4" class="node">
<title>Node4</title>
<g id="a_node4"><a xlink:href="classlocomotor_1_1components_1_1network_1_1_network_response_factory.html" target="_top" xlink:title="NetworkResponseFactory">
<polygon fill="#ffffff" stroke="#000000" points="129.4019,-75.5 129.4019,-93.5 260.4458,-93.5 260.4458,-75.5 129.4019,-75.5"/>
<text text-anchor="middle" x="194.9238" y="-81.5" font-family="Helvetica,sans-Serif" font-size="10.00" fill="#000000">NetworkResponseFactory</text>
</a>
</g>
</g>
<!-- Node4&#45;&gt;Node1 -->
<g id="edge3" class="edge">
<title>Node4&#45;&gt;Node1</title>
<path fill="none" stroke="#9a32cd" stroke-dasharray="5,2" d="M194.9238,-65.1079C194.9238,-50.2042 194.9238,-30.2791 194.9238,-18.7717"/>
<polygon fill="#9a32cd" stroke="#9a32cd" points="191.4239,-65.3035 194.9238,-75.3035 198.4239,-65.3036 191.4239,-65.3035"/>
<text text-anchor="middle" x="219.6626" y="-44" font-family="Helvetica,sans-Serif" font-size="10.00" fill="#000000"> _response</text>
</g>
<!-- Node5 -->
<g id="node5" class="node">
<title>Node5</title>
<polygon fill="#ffffff" stroke="#bfbfbf" points="157.5151,-145.5 157.5151,-163.5 236.3325,-163.5 236.3325,-145.5 157.5151,-145.5"/>
<text text-anchor="middle" x="196.9238" y="-151.5" font-family="Helvetica,sans-Serif" font-size="10.00" fill="#000000">HttpExchange</text>
</g>
<!-- Node5&#45;&gt;Node4 -->
<g id="edge4" class="edge">
<title>Node5&#45;&gt;Node4</title>
<path fill="none" stroke="#9a32cd" stroke-dasharray="5,2" d="M196.3725,-135.2039C195.9882,-121.7531 195.4924,-104.3986 195.1917,-93.8769"/>
<polygon fill="#9a32cd" stroke="#9a32cd" points="192.8781,-135.4528 196.6624,-145.3487 199.8752,-135.2528 192.8781,-135.4528"/>
<text text-anchor="middle" x="222.7783" y="-114" font-family="Helvetica,sans-Serif" font-size="10.00" fill="#000000"> _exchange</text>
</g>
<!-- Node6 -->
<g id="node6" class="node">
<title>Node6</title>
<polygon fill="#ffffff" stroke="#bfbfbf" points="278.5176,-75.5 278.5176,-93.5 377.3301,-93.5 377.3301,-75.5 278.5176,-75.5"/>
<text text-anchor="middle" x="327.9238" y="-81.5" font-family="Helvetica,sans-Serif" font-size="10.00" fill="#000000">ArrayList&lt; String &gt;</text>
</g>
<!-- Node6&#45;&gt;Node1 -->
<g id="edge5" class="edge">
<title>Node6&#45;&gt;Node1</title>
<path fill="none" stroke="#9a32cd" stroke-dasharray="5,2" d="M304.707,-70.2385C288.8476,-60.6146 267.28,-47.7565 247.9238,-37 236.5068,-30.6554 223.4892,-23.8944 213.2124,-18.6639"/>
<polygon fill="#9a32cd" stroke="#9a32cd" points="302.9647,-73.2754 313.3254,-75.4909 306.6077,-67.298 302.9647,-73.2754"/>
<text text-anchor="middle" x="327.8965" y="-49" font-family="Helvetica,sans-Serif" font-size="10.00" fill="#000000"> _nonDefinedParams</text>
<text text-anchor="middle" x="327.8965" y="-39" font-family="Helvetica,sans-Serif" font-size="10.00" fill="#000000">_expectedParams</text>
</g>
</g>
</svg>
