<?xml version="1.0" encoding="UTF-8" standalone="no"?>
<!DOCTYPE svg PUBLIC "-//W3C//DTD SVG 1.1//EN"
 "http://www.w3.org/Graphics/SVG/1.1/DTD/svg11.dtd">
<!-- Generated by graphviz version 2.40.1 (20161225.0304)
 -->
<!-- Title: init Pages: 1 -->
<svg width="693pt" height="219pt"
 viewBox="0.00 0.00 692.89 219.00" xmlns="http://www.w3.org/2000/svg" xmlns:xlink="http://www.w3.org/1999/xlink">
<g id="graph0" class="graph" transform="scale(1 1) rotate(0) translate(4 215)">
<title>init</title>
<polygon fill="#ffffff" stroke="transparent" points="-4,4 -4,-215 688.8877,-215 688.8877,4 -4,4"/>
<!-- Node1 -->
<g id="node1" class="node">
<title>Node1</title>
<polygon fill="#bfbfbf" stroke="#000000" points="0,-97.5 0,-115.5 29,-115.5 29,-97.5 0,-97.5"/>
<text text-anchor="middle" x="14.5" y="-103.5" font-family="Helvetica,sans-Serif" font-size="10.00" fill="#000000">init</text>
</g>
<!-- Node2 -->
<g id="node2" class="node">
<title>Node2</title>
<g id="a_node2"><a xlink:href="classlocomotor_1_1components_1_1network_1_1_network_response.html#ab1be964e3a5f4dfc34483da5bfd13a8a" target="_top" xlink:title="locomotor.components.network.\lNetworkResponse.failure">
<polygon fill="#ffffff" stroke="#000000" points="280.8794,-94.5 280.8794,-122.5 438.0659,-122.5 438.0659,-94.5 280.8794,-94.5"/>
<text text-anchor="start" x="288.8794" y="-110.5" font-family="Helvetica,sans-Serif" font-size="10.00" fill="#000000">locomotor.components.network.</text>
<text text-anchor="middle" x="359.4727" y="-100.5" font-family="Helvetica,sans-Serif" font-size="10.00" fill="#000000">NetworkResponse.failure</text>
</a>
</g>
</g>
<!-- Node1&#45;&gt;Node2 -->
<g id="edge1" class="edge">
<title>Node1&#45;&gt;Node2</title>
<path fill="none" stroke="#191970" d="M29.323,-106.5859C70.3012,-106.8235 187.5724,-107.5034 270.6593,-107.9851"/>
<polygon fill="#191970" stroke="#191970" points="270.8492,-111.4862 280.8694,-108.0443 270.8898,-104.4863 270.8492,-111.4862"/>
</g>
<!-- Node7 -->
<g id="node7" class="node">
<title>Node7</title>
<g id="a_node7"><a xlink:href="classlocomotor_1_1components_1_1logging_1_1_error_handler.html#a75e8f6535bdb8db9a7d570e1b839af47" target="_top" xlink:title="locomotor.components.logging.\lErrorHandler.getInstance">
<polygon fill="#ffffff" stroke="#000000" points="66.3818,-135.5 66.3818,-163.5 220.8047,-163.5 220.8047,-135.5 66.3818,-135.5"/>
<text text-anchor="start" x="74.3818" y="-151.5" font-family="Helvetica,sans-Serif" font-size="10.00" fill="#000000">locomotor.components.logging.</text>
<text text-anchor="middle" x="143.5933" y="-141.5" font-family="Helvetica,sans-Serif" font-size="10.00" fill="#000000">ErrorHandler.getInstance</text>
</a>
</g>
</g>
<!-- Node1&#45;&gt;Node7 -->
<g id="edge6" class="edge">
<title>Node1&#45;&gt;Node7</title>
<path fill="none" stroke="#191970" d="M29.0577,-111.3491C44.3475,-116.442 69.2797,-124.7467 91.9847,-132.3096"/>
<polygon fill="#191970" stroke="#191970" points="90.9508,-135.6542 101.5445,-135.4939 93.163,-129.0129 90.9508,-135.6542"/>
</g>
<!-- Node8 -->
<g id="node8" class="node">
<title>Node8</title>
<g id="a_node8"><a xlink:href="classlocomotor_1_1components_1_1logging_1_1_error_handler.html#aa1c41229680fc7d6f82fd73a7e40c4f8" target="_top" xlink:title="locomotor.components.logging.\lErrorHandler.get">
<polygon fill="#ffffff" stroke="#000000" points="66.3818,-182.5 66.3818,-210.5 220.8047,-210.5 220.8047,-182.5 66.3818,-182.5"/>
<text text-anchor="start" x="74.3818" y="-198.5" font-family="Helvetica,sans-Serif" font-size="10.00" fill="#000000">locomotor.components.logging.</text>
<text text-anchor="middle" x="143.5933" y="-188.5" font-family="Helvetica,sans-Serif" font-size="10.00" fill="#000000">ErrorHandler.get</text>
</a>
</g>
</g>
<!-- Node1&#45;&gt;Node8 -->
<g id="edge7" class="edge">
<title>Node1&#45;&gt;Node8</title>
<path fill="none" stroke="#191970" d="M19.005,-115.8019C26.51,-130.3156 42.9528,-158.2607 65,-173.5 67.2787,-175.0751 69.6658,-176.5436 72.1317,-177.9127"/>
<polygon fill="#191970" stroke="#191970" points="70.8333,-181.1746 81.3514,-182.4478 73.923,-174.8933 70.8333,-181.1746"/>
</g>
<!-- Node10 -->
<g id="node10" class="node">
<title>Node10</title>
<g id="a_node10"><a xlink:href="classlocomotor_1_1components_1_1network_1_1_i_endpoint_handler.html#ab14119ba2d6d06adbe73a9805f5130c6" target="_top" xlink:title="locomotor.components.network.\lIEndpointHandler.handle">
<polygon fill="#ffffff" stroke="#000000" points="65,-49.5 65,-77.5 222.1865,-77.5 222.1865,-49.5 65,-49.5"/>
<text text-anchor="start" x="73" y="-65.5" font-family="Helvetica,sans-Serif" font-size="10.00" fill="#000000">locomotor.components.network.</text>
<text text-anchor="middle" x="143.5933" y="-55.5" font-family="Helvetica,sans-Serif" font-size="10.00" fill="#000000">IEndpointHandler.handle</text>
</a>
</g>
</g>
<!-- Node1&#45;&gt;Node10 -->
<g id="edge9" class="edge">
<title>Node1&#45;&gt;Node10</title>
<path fill="none" stroke="#191970" d="M29.0577,-101.6509C44.3475,-96.558 69.2797,-88.2533 91.9847,-80.6904"/>
<polygon fill="#191970" stroke="#191970" points="93.163,-83.9871 101.5445,-77.5061 90.9508,-77.3458 93.163,-83.9871"/>
</g>
<!-- Node13 -->
<g id="node13" class="node">
<title>Node13</title>
<g id="a_node13"><a xlink:href="classlocomotor_1_1components_1_1logging_1_1_error_handler.html#a1fcb45e5d2428352eb36b487d1d4eea3" target="_top" xlink:title="locomotor.components.logging.\lErrorHandler.remove">
<polygon fill="#ffffff" stroke="#000000" points="66.3818,-2.5 66.3818,-30.5 220.8047,-30.5 220.8047,-2.5 66.3818,-2.5"/>
<text text-anchor="start" x="74.3818" y="-18.5" font-family="Helvetica,sans-Serif" font-size="10.00" fill="#000000">locomotor.components.logging.</text>
<text text-anchor="middle" x="143.5933" y="-8.5" font-family="Helvetica,sans-Serif" font-size="10.00" fill="#000000">ErrorHandler.remove</text>
</a>
</g>
</g>
<!-- Node1&#45;&gt;Node13 -->
<g id="edge13" class="edge">
<title>Node1&#45;&gt;Node13</title>
<path fill="none" stroke="#191970" d="M19.005,-97.1981C26.51,-82.6844 42.9528,-54.7393 65,-39.5 67.2787,-37.9249 69.6658,-36.4564 72.1317,-35.0873"/>
<polygon fill="#191970" stroke="#191970" points="73.923,-38.1067 81.3514,-30.5522 70.8333,-31.8254 73.923,-38.1067"/>
</g>
<!-- Node3 -->
<g id="node3" class="node">
<title>Node3</title>
<g id="a_node3"><a xlink:href="classlocomotor_1_1components_1_1network_1_1_network_response.html#a143bb7402270f3dc0872ab5586653f61" target="_top" xlink:title="locomotor.components.network.\lNetworkResponse.toByteArrayOutput\lStream">
<polygon fill="#ffffff" stroke="#000000" points="499.4517,-164.5 499.4517,-202.5 682.1948,-202.5 682.1948,-164.5 499.4517,-164.5"/>
<text text-anchor="start" x="507.4517" y="-190.5" font-family="Helvetica,sans-Serif" font-size="10.00" fill="#000000">locomotor.components.network.</text>
<text text-anchor="start" x="507.4517" y="-180.5" font-family="Helvetica,sans-Serif" font-size="10.00" fill="#000000">NetworkResponse.toByteArrayOutput</text>
<text text-anchor="middle" x="590.8232" y="-170.5" font-family="Helvetica,sans-Serif" font-size="10.00" fill="#000000">Stream</text>
</a>
</g>
</g>
<!-- Node2&#45;&gt;Node3 -->
<g id="edge2" class="edge">
<title>Node2&#45;&gt;Node3</title>
<path fill="none" stroke="#191970" d="M398.9822,-122.5007C426.3391,-132.0782 463.6459,-144.9084 496.7588,-155.5 503.0284,-157.5054 509.548,-159.5433 516.0992,-161.558"/>
<polygon fill="#191970" stroke="#191970" points="515.1086,-164.915 525.6947,-164.4869 517.1522,-158.2199 515.1086,-164.915"/>
</g>
<!-- Node4 -->
<g id="node4" class="node">
<title>Node4</title>
<g id="a_node4"><a xlink:href="classlocomotor_1_1components_1_1network_1_1_network_response.html#a66b0dd722c150e0c2eac12c9e6e813ef" target="_top" xlink:title="locomotor.components.network.\lNetworkResponse.sendAnswer">
<polygon fill="#ffffff" stroke="#000000" points="512.23,-117.5 512.23,-145.5 669.4165,-145.5 669.4165,-117.5 512.23,-117.5"/>
<text text-anchor="start" x="520.23" y="-133.5" font-family="Helvetica,sans-Serif" font-size="10.00" fill="#000000">locomotor.components.network.</text>
<text text-anchor="middle" x="590.8232" y="-123.5" font-family="Helvetica,sans-Serif" font-size="10.00" fill="#000000">NetworkResponse.sendAnswer</text>
</a>
</g>
</g>
<!-- Node2&#45;&gt;Node4 -->
<g id="edge3" class="edge">
<title>Node2&#45;&gt;Node4</title>
<path fill="none" stroke="#191970" d="M438.1202,-116.3188C458.6085,-118.3557 480.8293,-120.5648 501.8121,-122.6508"/>
<polygon fill="#191970" stroke="#191970" points="501.703,-126.1572 512.0003,-123.6637 502.3956,-119.1915 501.703,-126.1572"/>
</g>
<!-- Node5 -->
<g id="node5" class="node">
<title>Node5</title>
<g id="a_node5"><a xlink:href="enumlocomotor_1_1components_1_1network_1_1_network_response_1_1_error_code.html#aae714dc01fe7f5bb1a175d0d1068bb92" target="_top" xlink:title="locomotor.components.network.\lNetworkResponse.ErrorCode.getValue">
<polygon fill="#ffffff" stroke="#000000" points="496.7588,-70.5 496.7588,-98.5 684.8877,-98.5 684.8877,-70.5 496.7588,-70.5"/>
<text text-anchor="start" x="504.7588" y="-86.5" font-family="Helvetica,sans-Serif" font-size="10.00" fill="#000000">locomotor.components.network.</text>
<text text-anchor="middle" x="590.8232" y="-76.5" font-family="Helvetica,sans-Serif" font-size="10.00" fill="#000000">NetworkResponse.ErrorCode.getValue</text>
</a>
</g>
</g>
<!-- Node2&#45;&gt;Node5 -->
<g id="edge4" class="edge">
<title>Node2&#45;&gt;Node5</title>
<path fill="none" stroke="#191970" d="M438.1202,-100.3412C453.6328,-98.732 470.1385,-97.0197 486.3481,-95.3381"/>
<polygon fill="#191970" stroke="#191970" points="486.8056,-98.8095 496.3911,-94.2963 486.0833,-91.8469 486.8056,-98.8095"/>
</g>
<!-- Node6 -->
<g id="node6" class="node">
<title>Node6</title>
<g id="a_node6"><a xlink:href="classlocomotor_1_1components_1_1_mutable_integer.html#ab1285c4f05252364e32fd03079fa2f35" target="_top" xlink:title="locomotor.components.Mutable\lInteger.intValue">
<polygon fill="#ffffff" stroke="#000000" points="513.3384,-23.5 513.3384,-51.5 668.3081,-51.5 668.3081,-23.5 513.3384,-23.5"/>
<text text-anchor="start" x="521.3384" y="-39.5" font-family="Helvetica,sans-Serif" font-size="10.00" fill="#000000">locomotor.components.Mutable</text>
<text text-anchor="middle" x="590.8232" y="-29.5" font-family="Helvetica,sans-Serif" font-size="10.00" fill="#000000">Integer.intValue</text>
</a>
</g>
</g>
<!-- Node2&#45;&gt;Node6 -->
<g id="edge5" class="edge">
<title>Node2&#45;&gt;Node6</title>
<path fill="none" stroke="#191970" d="M435.3918,-94.4658C444.0966,-91.9201 452.723,-88.9511 460.7588,-85.5 478.4279,-77.9117 479.1919,-69.3219 496.7588,-61.5 502.417,-58.9806 508.3892,-56.69 514.4685,-54.6143"/>
<polygon fill="#191970" stroke="#191970" points="515.6295,-57.9176 524.0804,-51.5275 513.4891,-51.2528 515.6295,-57.9176"/>
</g>
<!-- Node9 -->
<g id="node9" class="node">
<title>Node9</title>
<g id="a_node9"><a xlink:href="classlocomotor_1_1components_1_1logging_1_1_error_handler.html#a4dbccc9b079ae29086a12a5534291752" target="_top" xlink:title="locomotor.components.logging.\lErrorHandler.add">
<polygon fill="#ffffff" stroke="#000000" points="282.2612,-182.5 282.2612,-210.5 436.6841,-210.5 436.6841,-182.5 282.2612,-182.5"/>
<text text-anchor="start" x="290.2612" y="-198.5" font-family="Helvetica,sans-Serif" font-size="10.00" fill="#000000">locomotor.components.logging.</text>
<text text-anchor="middle" x="359.4727" y="-188.5" font-family="Helvetica,sans-Serif" font-size="10.00" fill="#000000">ErrorHandler.add</text>
</a>
</g>
</g>
<!-- Node8&#45;&gt;Node9 -->
<g id="edge8" class="edge">
<title>Node8&#45;&gt;Node9</title>
<path fill="none" stroke="#191970" d="M220.9209,-196.5C237.3522,-196.5 254.8152,-196.5 271.6064,-196.5"/>
<polygon fill="#191970" stroke="#191970" points="271.9593,-200.0001 281.9593,-196.5 271.9593,-193.0001 271.9593,-200.0001"/>
</g>
<!-- Node10&#45;&gt;Node2 -->
<g id="edge12" class="edge">
<title>Node10&#45;&gt;Node2</title>
<path fill="none" stroke="#191970" d="M211.0109,-77.5532C233.635,-82.2692 259.0376,-87.5644 282.3476,-92.4233"/>
<polygon fill="#191970" stroke="#191970" points="281.6915,-95.8617 292.1953,-94.4761 283.12,-89.009 281.6915,-95.8617"/>
</g>
<!-- Node11 -->
<g id="node11" class="node">
<title>Node11</title>
<g id="a_node11"><a xlink:href="classlocomotor_1_1components_1_1network_1_1_network_data.html#a487d5f454cff4db530ed7b5b690ec71d" target="_top" xlink:title="locomotor.components.network.\lNetworkData.isValid">
<polygon fill="#ffffff" stroke="#000000" points="280.8794,-47.5 280.8794,-75.5 438.0659,-75.5 438.0659,-47.5 280.8794,-47.5"/>
<text text-anchor="start" x="288.8794" y="-63.5" font-family="Helvetica,sans-Serif" font-size="10.00" fill="#000000">locomotor.components.network.</text>
<text text-anchor="middle" x="359.4727" y="-53.5" font-family="Helvetica,sans-Serif" font-size="10.00" fill="#000000">NetworkData.isValid</text>
</a>
</g>
</g>
<!-- Node10&#45;&gt;Node11 -->
<g id="edge10" class="edge">
<title>Node10&#45;&gt;Node11</title>
<path fill="none" stroke="#191970" d="M222.447,-62.7695C238.0581,-62.6248 254.5463,-62.4721 270.4672,-62.3246"/>
<polygon fill="#191970" stroke="#191970" points="270.8655,-65.8211 280.8326,-62.2286 270.8006,-58.8214 270.8655,-65.8211"/>
</g>
<!-- Node12 -->
<g id="node12" class="node">
<title>Node12</title>
<g id="a_node12"><a xlink:href="classlocomotor_1_1components_1_1network_1_1_network_response_factory.html#ac0b036a3baf908af83be69be93f1ec75" target="_top" xlink:title="locomotor.components.network.\lNetworkResponseFactory.getJsonContext">
<polygon fill="#ffffff" stroke="#000000" points="258.1865,-.5 258.1865,-28.5 460.7588,-28.5 460.7588,-.5 258.1865,-.5"/>
<text text-anchor="start" x="266.1865" y="-16.5" font-family="Helvetica,sans-Serif" font-size="10.00" fill="#000000">locomotor.components.network.</text>
<text text-anchor="middle" x="359.4727" y="-6.5" font-family="Helvetica,sans-Serif" font-size="10.00" fill="#000000">NetworkResponseFactory.getJsonContext</text>
</a>
</g>
</g>
<!-- Node10&#45;&gt;Node12 -->
<g id="edge11" class="edge">
<title>Node10&#45;&gt;Node12</title>
<path fill="none" stroke="#191970" d="M205.4556,-49.4586C231.0869,-43.6408 260.9855,-36.8545 287.5843,-30.8171"/>
<polygon fill="#191970" stroke="#191970" points="288.624,-34.1702 297.6013,-28.5435 287.0746,-27.3439 288.624,-34.1702"/>
</g>
</g>
</svg>
