<?xml version="1.0" encoding="UTF-8" standalone="no"?>
<!DOCTYPE svg PUBLIC "-//W3C//DTD SVG 1.1//EN"
 "http://www.w3.org/Graphics/SVG/1.1/DTD/svg11.dtd">
<!-- Generated by graphviz version 2.40.1 (20161225.0304)
 -->
<!-- Title: usernameAlreadyTaken Pages: 1 -->
<svg width="620pt" height="69pt"
 viewBox="0.00 0.00 619.68 69.00" xmlns="http://www.w3.org/2000/svg" xmlns:xlink="http://www.w3.org/1999/xlink">
<g id="graph0" class="graph" transform="scale(1 1) rotate(0) translate(4 65)">
<title>usernameAlreadyTaken</title>
<polygon fill="#ffffff" stroke="transparent" points="-4,4 -4,-65 615.6777,-65 615.6777,4 -4,4"/>
<!-- Node1 -->
<g id="node1" class="node">
<title>Node1</title>
<polygon fill="#bfbfbf" stroke="#000000" points="0,-18.5 0,-36.5 121.0586,-36.5 121.0586,-18.5 0,-18.5"/>
<text text-anchor="middle" x="60.5293" y="-24.5" font-family="Helvetica,sans-Serif" font-size="10.00" fill="#000000">usernameAlreadyTaken</text>
</g>
<!-- Node2 -->
<g id="node2" class="node">
<title>Node2</title>
<g id="a_node2"><a xlink:href="classlocomotor_1_1core_1_1_d_b_h.html#a17eef13d222e2f7d4cc413a965de3069" target="_top" xlink:title="registerUser">
<polygon fill="#ffffff" stroke="#000000" points="169.2974,-.5 169.2974,-18.5 239.7554,-18.5 239.7554,-.5 169.2974,-.5"/>
<text text-anchor="middle" x="204.5264" y="-6.5" font-family="Helvetica,sans-Serif" font-size="10.00" fill="#000000">registerUser</text>
</a>
</g>
</g>
<!-- Node1&#45;&gt;Node2 -->
<g id="edge1" class="edge">
<title>Node1&#45;&gt;Node2</title>
<path fill="none" stroke="#191970" d="M131.1788,-18.6686C144.3077,-17.0275 157.4965,-15.3789 168.998,-13.9411"/>
<polygon fill="#191970" stroke="#191970" points="130.6683,-15.2051 121.1797,-19.9185 131.5366,-22.1511 130.6683,-15.2051"/>
</g>
<!-- Node5 -->
<g id="node5" class="node">
<title>Node5</title>
<g id="a_node5"><a xlink:href="classlocomotor_1_1core_1_1_d_b_h.html#a4f149cbfb499cbe94a2acb70753b056d" target="_top" xlink:title="changeUsername">
<polygon fill="#ffffff" stroke="#000000" points="157.0586,-37.5 157.0586,-55.5 251.9941,-55.5 251.9941,-37.5 157.0586,-37.5"/>
<text text-anchor="middle" x="204.5264" y="-43.5" font-family="Helvetica,sans-Serif" font-size="10.00" fill="#000000">changeUsername</text>
</a>
</g>
</g>
<!-- Node1&#45;&gt;Node5 -->
<g id="edge5" class="edge">
<title>Node1&#45;&gt;Node5</title>
<path fill="none" stroke="#191970" d="M131.2371,-36.8297C139.8393,-37.9647 148.466,-39.103 156.6259,-40.1797"/>
<polygon fill="#191970" stroke="#191970" points="131.5516,-33.3409 121.1797,-35.5026 130.6359,-40.2808 131.5516,-33.3409"/>
</g>
<!-- Node3 -->
<g id="node3" class="node">
<title>Node3</title>
<g id="a_node3"><a xlink:href="classlocomotor_1_1components_1_1network_1_1_a_p_i.html#a547463fbc7fb7b485886f0917e2c0b78" target="_top" xlink:title="locomotor.components.network.\lAPI.createHooks">
<polygon fill="#ffffff" stroke="#000000" points="287.9941,-32.5 287.9941,-60.5 445.1807,-60.5 445.1807,-32.5 287.9941,-32.5"/>
<text text-anchor="start" x="295.9941" y="-48.5" font-family="Helvetica,sans-Serif" font-size="10.00" fill="#000000">locomotor.components.network.</text>
<text text-anchor="middle" x="366.5874" y="-38.5" font-family="Helvetica,sans-Serif" font-size="10.00" fill="#000000">API.createHooks</text>
</a>
</g>
</g>
<!-- Node2&#45;&gt;Node3 -->
<g id="edge2" class="edge">
<title>Node2&#45;&gt;Node3</title>
<path fill="none" stroke="#191970" d="M250.2942,-19.9492C267.2696,-23.8249 286.8102,-28.2861 304.9688,-32.4319"/>
<polygon fill="#191970" stroke="#191970" points="250.6196,-16.4335 240.0913,-17.6198 249.0614,-23.2579 250.6196,-16.4335"/>
</g>
<!-- Node4 -->
<g id="node4" class="node">
<title>Node4</title>
<g id="a_node4"><a xlink:href="classlocomotor_1_1core_1_1_main.html#a8b260eecbaabcef8473fd87ada040682" target="_top" xlink:title="locomotor.core.Main.main">
<polygon fill="#ffffff" stroke="#000000" points="481.1807,-15.5 481.1807,-33.5 611.6777,-33.5 611.6777,-15.5 481.1807,-15.5"/>
<text text-anchor="middle" x="546.4292" y="-21.5" font-family="Helvetica,sans-Serif" font-size="10.00" fill="#000000">locomotor.core.Main.main</text>
</a>
</g>
</g>
<!-- Node2&#45;&gt;Node4 -->
<g id="edge4" class="edge">
<title>Node2&#45;&gt;Node4</title>
<path fill="none" stroke="#191970" d="M250.0018,-11.4951C309.2686,-14.0953 413.3155,-18.66 481.0408,-21.6313"/>
<polygon fill="#191970" stroke="#191970" points="249.972,-7.9905 239.8282,-11.0488 249.6652,-14.9838 249.972,-7.9905"/>
</g>
<!-- Node3&#45;&gt;Node4 -->
<g id="edge3" class="edge">
<title>Node3&#45;&gt;Node4</title>
<path fill="none" stroke="#191970" d="M455.3804,-35.638C464.0687,-34.5751 472.7711,-33.5106 481.1629,-32.484"/>
<polygon fill="#191970" stroke="#191970" points="454.708,-32.1941 445.207,-36.8825 455.558,-39.1423 454.708,-32.1941"/>
</g>
<!-- Node5&#45;&gt;Node3 -->
<g id="edge6" class="edge">
<title>Node5&#45;&gt;Node3</title>
<path fill="none" stroke="#191970" d="M262.4951,-46.5C270.7339,-46.5 279.3198,-46.5 287.8712,-46.5"/>
<polygon fill="#191970" stroke="#191970" points="262.2735,-43.0001 252.2735,-46.5 262.2735,-50.0001 262.2735,-43.0001"/>
</g>
</g>
</svg>
