<?xml version="1.0" encoding="UTF-8" standalone="no"?>
<!DOCTYPE svg PUBLIC "-//W3C//DTD SVG 1.1//EN"
 "http://www.w3.org/Graphics/SVG/1.1/DTD/svg11.dtd">
<!-- Generated by graphviz version 2.40.1 (20161225.0304)
 -->
<!-- Title: exists Pages: 1 -->
<svg width="489pt" height="84pt"
 viewBox="0.00 0.00 489.31 84.00" xmlns="http://www.w3.org/2000/svg" xmlns:xlink="http://www.w3.org/1999/xlink">
<g id="graph0" class="graph" transform="scale(1 1) rotate(0) translate(4 80)">
<title>exists</title>
<polygon fill="#ffffff" stroke="transparent" points="-4,4 -4,-80 485.3086,-80 485.3086,4 -4,4"/>
<!-- Node1 -->
<g id="node1" class="node">
<title>Node1</title>
<polygon fill="#bfbfbf" stroke="#000000" points="0,-28.5 0,-46.5 41.5615,-46.5 41.5615,-28.5 0,-28.5"/>
<text text-anchor="middle" x="20.7808" y="-34.5" font-family="Helvetica,sans-Serif" font-size="10.00" fill="#000000">exists</text>
</g>
<!-- Node2 -->
<g id="node2" class="node">
<title>Node2</title>
<g id="a_node2"><a xlink:href="classlocomotor_1_1components_1_1network_1_1_a_p_i.html#a547463fbc7fb7b485886f0917e2c0b78" target="_top" xlink:title="locomotor.components.network.\lAPI.createHooks">
<polygon fill="#ffffff" stroke="#000000" points="106.7437,-47.5 106.7437,-75.5 263.9302,-75.5 263.9302,-47.5 106.7437,-47.5"/>
<text text-anchor="start" x="114.7437" y="-63.5" font-family="Helvetica,sans-Serif" font-size="10.00" fill="#000000">locomotor.components.network.</text>
<text text-anchor="middle" x="185.3369" y="-53.5" font-family="Helvetica,sans-Serif" font-size="10.00" fill="#000000">API.createHooks</text>
</a>
</g>
</g>
<!-- Node1&#45;&gt;Node2 -->
<g id="edge1" class="edge">
<title>Node1&#45;&gt;Node2</title>
<path fill="none" stroke="#191970" d="M51.7265,-42.0133C67.3483,-44.2917 87.0814,-47.1697 106.5531,-50.0096"/>
<polygon fill="#191970" stroke="#191970" points="52.0224,-38.5195 41.6219,-40.5396 51.0121,-45.4463 52.0224,-38.5195"/>
</g>
<!-- Node4 -->
<g id="node4" class="node">
<title>Node4</title>
<g id="a_node4"><a xlink:href="classlocomotor_1_1front_1_1components_1_1_front_resource_manager.html#a90ec9cbe2d393ac172e03972abf97f1d" target="_top" xlink:title="locomotor.front.components.\lFrontResourceManager.getRemoteResource">
<polygon fill="#ffffff" stroke="#000000" points="77.5615,-.5 77.5615,-28.5 293.1123,-28.5 293.1123,-.5 77.5615,-.5"/>
<text text-anchor="start" x="85.5615" y="-16.5" font-family="Helvetica,sans-Serif" font-size="10.00" fill="#000000">locomotor.front.components.</text>
<text text-anchor="middle" x="185.3369" y="-6.5" font-family="Helvetica,sans-Serif" font-size="10.00" fill="#000000">FrontResourceManager.getRemoteResource</text>
</a>
</g>
</g>
<!-- Node1&#45;&gt;Node4 -->
<g id="edge3" class="edge">
<title>Node1&#45;&gt;Node4</title>
<path fill="none" stroke="#191970" d="M51.6045,-33.1918C61.4454,-31.8163 72.9268,-30.2116 84.951,-28.5309"/>
<polygon fill="#191970" stroke="#191970" points="51.0411,-29.7364 41.6219,-34.587 52.0102,-36.669 51.0411,-29.7364"/>
</g>
<!-- Node3 -->
<g id="node3" class="node">
<title>Node3</title>
<g id="a_node3"><a xlink:href="classlocomotor_1_1core_1_1_main.html#a8b260eecbaabcef8473fd87ada040682" target="_top" xlink:title="locomotor.core.Main.main">
<polygon fill="#ffffff" stroke="#000000" points="339.9619,-52.5 339.9619,-70.5 470.459,-70.5 470.459,-52.5 339.9619,-52.5"/>
<text text-anchor="middle" x="405.2104" y="-58.5" font-family="Helvetica,sans-Serif" font-size="10.00" fill="#000000">locomotor.core.Main.main</text>
</a>
</g>
</g>
<!-- Node2&#45;&gt;Node3 -->
<g id="edge2" class="edge">
<title>Node2&#45;&gt;Node3</title>
<path fill="none" stroke="#191970" d="M274.3687,-61.5C296.2029,-61.5 319.1794,-61.5 339.6796,-61.5"/>
<polygon fill="#191970" stroke="#191970" points="274.0953,-58.0001 264.0953,-61.5 274.0952,-65.0001 274.0953,-58.0001"/>
</g>
<!-- Node5 -->
<g id="node5" class="node">
<title>Node5</title>
<g id="a_node5"><a xlink:href="classlocomotor_1_1front_1_1user_1_1_bridge.html#afa7ac789194b4e4f08000205a0f96f11" target="_top" xlink:title="locomotor.front.user.Bridge.get\lModel">
<polygon fill="#ffffff" stroke="#000000" points="329.1123,-.5 329.1123,-28.5 481.3086,-28.5 481.3086,-.5 329.1123,-.5"/>
<text text-anchor="start" x="337.1123" y="-16.5" font-family="Helvetica,sans-Serif" font-size="10.00" fill="#000000">locomotor.front.user.Bridge.get</text>
<text text-anchor="middle" x="405.2104" y="-6.5" font-family="Helvetica,sans-Serif" font-size="10.00" fill="#000000">Model</text>
</a>
</g>
</g>
<!-- Node4&#45;&gt;Node5 -->
<g id="edge4" class="edge">
<title>Node4&#45;&gt;Node5</title>
<path fill="none" stroke="#191970" d="M303.5071,-14.5C312.1512,-14.5 320.727,-14.5 329.0191,-14.5"/>
<polygon fill="#191970" stroke="#191970" points="303.3413,-11.0001 293.3413,-14.5 303.3413,-18.0001 303.3413,-11.0001"/>
</g>
</g>
</svg>
