<?xml version="1.0" encoding="UTF-8" standalone="no"?>
<!DOCTYPE svg PUBLIC "-//W3C//DTD SVG 1.1//EN"
 "http://www.w3.org/Graphics/SVG/1.1/DTD/svg11.dtd">
<!-- Generated by graphviz version 2.40.1 (20161225.0304)
 -->
<!-- Title: getItem Pages: 1 -->
<svg width="604pt" height="79pt"
 viewBox="0.00 0.00 603.57 79.00" xmlns="http://www.w3.org/2000/svg" xmlns:xlink="http://www.w3.org/1999/xlink">
<g id="graph0" class="graph" transform="scale(1 1) rotate(0) translate(4 75)">
<title>getItem</title>
<polygon fill="#ffffff" stroke="transparent" points="-4,4 -4,-75 599.5693,-75 599.5693,4 -4,4"/>
<!-- Node1 -->
<g id="node1" class="node">
<title>Node1</title>
<polygon fill="#bfbfbf" stroke="#000000" points="0,-26.5 0,-44.5 49.3496,-44.5 49.3496,-26.5 0,-26.5"/>
<text text-anchor="middle" x="24.6748" y="-32.5" font-family="Helvetica,sans-Serif" font-size="10.00" fill="#000000">getItem</text>
</g>
<!-- Node2 -->
<g id="node2" class="node">
<title>Node2</title>
<g id="a_node2"><a xlink:href="classlocomotor_1_1components_1_1types_1_1_type_factory.html#aa1f74ce70c02a7665f32b4ec438a6c3c" target="_top" xlink:title="getTree">
<polygon fill="#ffffff" stroke="#000000" points="133.3379,-47.5 133.3379,-65.5 183.4346,-65.5 183.4346,-47.5 133.3379,-47.5"/>
<text text-anchor="middle" x="158.3862" y="-53.5" font-family="Helvetica,sans-Serif" font-size="10.00" fill="#000000">getTree</text>
</a>
</g>
</g>
<!-- Node1&#45;&gt;Node2 -->
<g id="edge1" class="edge">
<title>Node1&#45;&gt;Node2</title>
<path fill="none" stroke="#191970" d="M49.5115,-39.4007C70.2075,-42.6511 99.9378,-47.3204 123.1032,-50.9586"/>
<polygon fill="#191970" stroke="#191970" points="122.8068,-54.4549 133.2288,-52.5489 123.8929,-47.5397 122.8068,-54.4549"/>
</g>
<!-- Node5 -->
<g id="node5" class="node">
<title>Node5</title>
<g id="a_node5"><a xlink:href="classlocomotor_1_1components_1_1types_1_1_c_graph_tree.html#a83eddfad98b66bd627c4b0d1cb7056ac" target="_top" xlink:title="locomotor.components.types.\lCGraphTree.getTree">
<polygon fill="#ffffff" stroke="#000000" points="85.3496,-.5 85.3496,-28.5 231.4229,-28.5 231.4229,-.5 85.3496,-.5"/>
<text text-anchor="start" x="93.3496" y="-16.5" font-family="Helvetica,sans-Serif" font-size="10.00" fill="#000000">locomotor.components.types.</text>
<text text-anchor="middle" x="158.3862" y="-6.5" font-family="Helvetica,sans-Serif" font-size="10.00" fill="#000000">CGraphTree.getTree</text>
</a>
</g>
</g>
<!-- Node1&#45;&gt;Node5 -->
<g id="edge4" class="edge">
<title>Node1&#45;&gt;Node5</title>
<path fill="none" stroke="#191970" d="M49.5115,-31.5993C57.0545,-30.4146 65.7975,-29.0415 74.9855,-27.5985"/>
<polygon fill="#191970" stroke="#191970" points="75.7583,-31.0201 85.0942,-26.0109 74.6722,-24.1049 75.7583,-31.0201"/>
</g>
<!-- Node3 -->
<g id="node3" class="node">
<title>Node3</title>
<g id="a_node3"><a xlink:href="classlocomotor_1_1components_1_1types_1_1_c_tree.html#a74382cb3a3153edc32f1cfed8c4ee364" target="_top" xlink:title="locomotor.components.types.\lCTree.addChild">
<polygon fill="#ffffff" stroke="#000000" points="267.4229,-42.5 267.4229,-70.5 413.4961,-70.5 413.4961,-42.5 267.4229,-42.5"/>
<text text-anchor="start" x="275.4229" y="-58.5" font-family="Helvetica,sans-Serif" font-size="10.00" fill="#000000">locomotor.components.types.</text>
<text text-anchor="middle" x="340.4595" y="-48.5" font-family="Helvetica,sans-Serif" font-size="10.00" fill="#000000">CTree.addChild</text>
</a>
</g>
</g>
<!-- Node2&#45;&gt;Node3 -->
<g id="edge2" class="edge">
<title>Node2&#45;&gt;Node3</title>
<path fill="none" stroke="#191970" d="M183.7027,-56.5C202.8509,-56.5 230.3052,-56.5 256.9022,-56.5"/>
<polygon fill="#191970" stroke="#191970" points="257.0347,-60.0001 267.0347,-56.5 257.0346,-53.0001 257.0347,-60.0001"/>
</g>
<!-- Node4 -->
<g id="node4" class="node">
<title>Node4</title>
<g id="a_node4"><a xlink:href="classlocomotor_1_1components_1_1types_1_1_c_tree.html#af0e7a198496b1627d0ff15ce0e6de1f2" target="_top" xlink:title="locomotor.components.types.\lCTree.CTree">
<polygon fill="#ffffff" stroke="#000000" points="449.4961,-42.5 449.4961,-70.5 595.5693,-70.5 595.5693,-42.5 449.4961,-42.5"/>
<text text-anchor="start" x="457.4961" y="-58.5" font-family="Helvetica,sans-Serif" font-size="10.00" fill="#000000">locomotor.components.types.</text>
<text text-anchor="middle" x="522.5327" y="-48.5" font-family="Helvetica,sans-Serif" font-size="10.00" fill="#000000">CTree.CTree</text>
</a>
</g>
</g>
<!-- Node3&#45;&gt;Node4 -->
<g id="edge3" class="edge">
<title>Node3&#45;&gt;Node4</title>
<path fill="none" stroke="#191970" d="M413.7286,-56.5C422.0885,-56.5 430.6564,-56.5 439.1353,-56.5"/>
<polygon fill="#191970" stroke="#191970" points="439.4136,-60.0001 449.4136,-56.5 439.4135,-53.0001 439.4136,-60.0001"/>
</g>
</g>
</svg>
