<?xml version="1.0" encoding="UTF-8" standalone="no"?>
<!DOCTYPE svg PUBLIC "-//W3C//DTD SVG 1.1//EN"
 "http://www.w3.org/Graphics/SVG/1.1/DTD/svg11.dtd">
<!-- Generated by graphviz version 2.40.1 (20161225.0304)
 -->
<!-- Title: getName Pages: 1 -->
<svg width="602pt" height="37pt"
 viewBox="0.00 0.00 601.87 37.00" xmlns="http://www.w3.org/2000/svg" xmlns:xlink="http://www.w3.org/1999/xlink">
<g id="graph0" class="graph" transform="scale(1 1) rotate(0) translate(4 33)">
<title>getName</title>
<polygon fill="#ffffff" stroke="transparent" points="-4,4 -4,-33 597.8701,-33 597.8701,4 -4,4"/>
<!-- Node1 -->
<g id="node1" class="node">
<title>Node1</title>
<polygon fill="#bfbfbf" stroke="#000000" points="0,-5.5 0,-23.5 56.5762,-23.5 56.5762,-5.5 0,-5.5"/>
<text text-anchor="middle" x="28.2881" y="-11.5" font-family="Helvetica,sans-Serif" font-size="10.00" fill="#000000">getName</text>
</g>
<!-- Node2 -->
<g id="node2" class="node">
<title>Node2</title>
<g id="a_node2"><a xlink:href="classlocomotor_1_1core_1_1_d_b_h.html#ae573347d7e17b2bf2bac3c4a41caf0fa" target="_top" xlink:title="locomotor.core.DBH.getItem">
<polygon fill="#ffffff" stroke="#000000" points="92.5762,-5.5 92.5762,-23.5 234.1865,-23.5 234.1865,-5.5 92.5762,-5.5"/>
<text text-anchor="middle" x="163.3813" y="-11.5" font-family="Helvetica,sans-Serif" font-size="10.00" fill="#000000">locomotor.core.DBH.getItem</text>
</a>
</g>
</g>
<!-- Node1&#45;&gt;Node2 -->
<g id="edge1" class="edge">
<title>Node1&#45;&gt;Node2</title>
<path fill="none" stroke="#191970" d="M66.7949,-14.5C74.8835,-14.5 83.6584,-14.5 92.5097,-14.5"/>
<polygon fill="#191970" stroke="#191970" points="66.6081,-11.0001 56.6081,-14.5 66.608,-18.0001 66.6081,-11.0001"/>
</g>
<!-- Node3 -->
<g id="node3" class="node">
<title>Node3</title>
<g id="a_node3"><a xlink:href="classlocomotor_1_1components_1_1network_1_1_a_p_i.html#a547463fbc7fb7b485886f0917e2c0b78" target="_top" xlink:title="locomotor.components.network.\lAPI.createHooks">
<polygon fill="#ffffff" stroke="#000000" points="270.1865,-.5 270.1865,-28.5 427.373,-28.5 427.373,-.5 270.1865,-.5"/>
<text text-anchor="start" x="278.1865" y="-16.5" font-family="Helvetica,sans-Serif" font-size="10.00" fill="#000000">locomotor.components.network.</text>
<text text-anchor="middle" x="348.7798" y="-6.5" font-family="Helvetica,sans-Serif" font-size="10.00" fill="#000000">API.createHooks</text>
</a>
</g>
</g>
<!-- Node2&#45;&gt;Node3 -->
<g id="edge2" class="edge">
<title>Node2&#45;&gt;Node3</title>
<path fill="none" stroke="#191970" d="M244.475,-14.5C252.9131,-14.5 261.4816,-14.5 269.8948,-14.5"/>
<polygon fill="#191970" stroke="#191970" points="244.2662,-11.0001 234.2661,-14.5 244.2661,-18.0001 244.2662,-11.0001"/>
</g>
<!-- Node4 -->
<g id="node4" class="node">
<title>Node4</title>
<g id="a_node4"><a xlink:href="classlocomotor_1_1core_1_1_main.html#a8b260eecbaabcef8473fd87ada040682" target="_top" xlink:title="locomotor.core.Main.main">
<polygon fill="#ffffff" stroke="#000000" points="463.373,-5.5 463.373,-23.5 593.8701,-23.5 593.8701,-5.5 463.373,-5.5"/>
<text text-anchor="middle" x="528.6216" y="-11.5" font-family="Helvetica,sans-Serif" font-size="10.00" fill="#000000">locomotor.core.Main.main</text>
</a>
</g>
</g>
<!-- Node3&#45;&gt;Node4 -->
<g id="edge3" class="edge">
<title>Node3&#45;&gt;Node4</title>
<path fill="none" stroke="#191970" d="M437.5728,-14.5C446.2611,-14.5 454.9635,-14.5 463.3553,-14.5"/>
<polygon fill="#191970" stroke="#191970" points="437.3994,-11.0001 427.3994,-14.5 437.3994,-18.0001 437.3994,-11.0001"/>
</g>
</g>
</svg>
