<?xml version="1.0" encoding="UTF-8" standalone="no"?>
<!DOCTYPE svg PUBLIC "-//W3C//DTD SVG 1.1//EN"
 "http://www.w3.org/Graphics/SVG/1.1/DTD/svg11.dtd">
<!-- Generated by graphviz version 2.40.1 (20161225.0304)
 -->
<!-- Title: removeUser Pages: 1 -->
<svg width="438pt" height="37pt"
 viewBox="0.00 0.00 438.14 37.00" xmlns="http://www.w3.org/2000/svg" xmlns:xlink="http://www.w3.org/1999/xlink">
<g id="graph0" class="graph" transform="scale(1 1) rotate(0) translate(4 33)">
<title>removeUser</title>
<polygon fill="#ffffff" stroke="transparent" points="-4,4 -4,-33 434.1416,-33 434.1416,4 -4,4"/>
<!-- Node1 -->
<g id="node1" class="node">
<title>Node1</title>
<polygon fill="#bfbfbf" stroke="#000000" points="0,-5.5 0,-23.5 70.458,-23.5 70.458,-5.5 0,-5.5"/>
<text text-anchor="middle" x="35.229" y="-11.5" font-family="Helvetica,sans-Serif" font-size="10.00" fill="#000000">removeUser</text>
</g>
<!-- Node2 -->
<g id="node2" class="node">
<title>Node2</title>
<g id="a_node2"><a xlink:href="classlocomotor_1_1components_1_1network_1_1_a_p_i.html#a547463fbc7fb7b485886f0917e2c0b78" target="_top" xlink:title="locomotor.components.network.\lAPI.createHooks">
<polygon fill="#ffffff" stroke="#000000" points="106.458,-.5 106.458,-28.5 263.6445,-28.5 263.6445,-.5 106.458,-.5"/>
<text text-anchor="start" x="114.458" y="-16.5" font-family="Helvetica,sans-Serif" font-size="10.00" fill="#000000">locomotor.components.network.</text>
<text text-anchor="middle" x="185.0513" y="-6.5" font-family="Helvetica,sans-Serif" font-size="10.00" fill="#000000">API.createHooks</text>
</a>
</g>
</g>
<!-- Node1&#45;&gt;Node2 -->
<g id="edge1" class="edge">
<title>Node1&#45;&gt;Node2</title>
<path fill="none" stroke="#191970" d="M80.737,-14.5C88.8957,-14.5 97.6076,-14.5 106.3883,-14.5"/>
<polygon fill="#191970" stroke="#191970" points="80.7348,-11.0001 70.7348,-14.5 80.7348,-18.0001 80.7348,-11.0001"/>
</g>
<!-- Node3 -->
<g id="node3" class="node">
<title>Node3</title>
<g id="a_node3"><a xlink:href="classlocomotor_1_1core_1_1_main.html#a8b260eecbaabcef8473fd87ada040682" target="_top" xlink:title="locomotor.core.Main.main">
<polygon fill="#ffffff" stroke="#000000" points="299.6445,-5.5 299.6445,-23.5 430.1416,-23.5 430.1416,-5.5 299.6445,-5.5"/>
<text text-anchor="middle" x="364.8931" y="-11.5" font-family="Helvetica,sans-Serif" font-size="10.00" fill="#000000">locomotor.core.Main.main</text>
</a>
</g>
</g>
<!-- Node2&#45;&gt;Node3 -->
<g id="edge2" class="edge">
<title>Node2&#45;&gt;Node3</title>
<path fill="none" stroke="#191970" d="M273.8443,-14.5C282.5326,-14.5 291.2349,-14.5 299.6268,-14.5"/>
<polygon fill="#191970" stroke="#191970" points="273.6709,-11.0001 263.6709,-14.5 273.6708,-18.0001 273.6709,-11.0001"/>
</g>
</g>
</svg>
