<?xml version="1.0" encoding="UTF-8" standalone="no"?>
<!DOCTYPE svg PUBLIC "-//W3C//DTD SVG 1.1//EN"
 "http://www.w3.org/Graphics/SVG/1.1/DTD/svg11.dtd">
<!-- Generated by graphviz version 2.40.1 (20161225.0304)
 -->
<!-- Title: getUserType Pages: 1 -->
<svg width="1012pt" height="37pt"
 viewBox="0.00 0.00 1011.61 37.00" xmlns="http://www.w3.org/2000/svg" xmlns:xlink="http://www.w3.org/1999/xlink">
<g id="graph0" class="graph" transform="scale(1 1) rotate(0) translate(4 33)">
<title>getUserType</title>
<polygon fill="#ffffff" stroke="transparent" points="-4,4 -4,-33 1007.6074,-33 1007.6074,4 -4,4"/>
<!-- Node1 -->
<g id="node1" class="node">
<title>Node1</title>
<polygon fill="#bfbfbf" stroke="#000000" points="0,-5.5 0,-23.5 72.6992,-23.5 72.6992,-5.5 0,-5.5"/>
<text text-anchor="middle" x="36.3496" y="-11.5" font-family="Helvetica,sans-Serif" font-size="10.00" fill="#000000">getUserType</text>
</g>
<!-- Node2 -->
<g id="node2" class="node">
<title>Node2</title>
<g id="a_node2"><a xlink:href="classlocomotor_1_1components_1_1models_1_1_user_criteria.html#aaca1c5ec640a1453943ce97d40e12a63" target="_top" xlink:title="locomotor.components.models.\lUserCriteria.fromJSON">
<polygon fill="#ffffff" stroke="#000000" points="108.6992,-.5 108.6992,-28.5 263.1074,-28.5 263.1074,-.5 108.6992,-.5"/>
<text text-anchor="start" x="116.6992" y="-16.5" font-family="Helvetica,sans-Serif" font-size="10.00" fill="#000000">locomotor.components.models.</text>
<text text-anchor="middle" x="185.9033" y="-6.5" font-family="Helvetica,sans-Serif" font-size="10.00" fill="#000000">UserCriteria.fromJSON</text>
</a>
</g>
</g>
<!-- Node1&#45;&gt;Node2 -->
<g id="edge1" class="edge">
<title>Node1&#45;&gt;Node2</title>
<path fill="none" stroke="#191970" d="M82.9934,-14.5C91.1859,-14.5 99.9059,-14.5 108.6708,-14.5"/>
<polygon fill="#191970" stroke="#191970" points="82.9346,-11.0001 72.9346,-14.5 82.9345,-18.0001 82.9346,-11.0001"/>
</g>
<!-- Node3 -->
<g id="node3" class="node">
<title>Node3</title>
<g id="a_node3"><a xlink:href="classlocomotor_1_1components_1_1models_1_1_user_category.html#a52e02970889790bace019e61fb256ff0" target="_top" xlink:title="locomotor.components.models.\lUserCategory.fromJSON">
<polygon fill="#ffffff" stroke="#000000" points="299.1074,-.5 299.1074,-28.5 453.5156,-28.5 453.5156,-.5 299.1074,-.5"/>
<text text-anchor="start" x="307.1074" y="-16.5" font-family="Helvetica,sans-Serif" font-size="10.00" fill="#000000">locomotor.components.models.</text>
<text text-anchor="middle" x="376.3115" y="-6.5" font-family="Helvetica,sans-Serif" font-size="10.00" fill="#000000">UserCategory.fromJSON</text>
</a>
</g>
</g>
<!-- Node2&#45;&gt;Node3 -->
<g id="edge2" class="edge">
<title>Node2&#45;&gt;Node3</title>
<path fill="none" stroke="#191970" d="M273.6037,-14.5C282.0573,-14.5 290.5903,-14.5 298.9339,-14.5"/>
<polygon fill="#191970" stroke="#191970" points="273.3497,-11.0001 263.3496,-14.5 273.3496,-18.0001 273.3497,-11.0001"/>
</g>
<!-- Node4 -->
<g id="node4" class="node">
<title>Node4</title>
<g id="a_node4"><a xlink:href="classlocomotor_1_1components_1_1models_1_1_user_item.html#ab97f79cf43a9a73bcd77cec6b449a79a" target="_top" xlink:title="locomotor.components.models.\lUserItem.fromJSON">
<polygon fill="#ffffff" stroke="#000000" points="489.5156,-.5 489.5156,-28.5 643.9238,-28.5 643.9238,-.5 489.5156,-.5"/>
<text text-anchor="start" x="497.5156" y="-16.5" font-family="Helvetica,sans-Serif" font-size="10.00" fill="#000000">locomotor.components.models.</text>
<text text-anchor="middle" x="566.7197" y="-6.5" font-family="Helvetica,sans-Serif" font-size="10.00" fill="#000000">UserItem.fromJSON</text>
</a>
</g>
</g>
<!-- Node3&#45;&gt;Node4 -->
<g id="edge3" class="edge">
<title>Node3&#45;&gt;Node4</title>
<path fill="none" stroke="#191970" d="M464.0119,-14.5C472.4655,-14.5 480.9985,-14.5 489.3421,-14.5"/>
<polygon fill="#191970" stroke="#191970" points="463.7579,-11.0001 453.7578,-14.5 463.7578,-18.0001 463.7579,-11.0001"/>
</g>
<!-- Node5 -->
<g id="node5" class="node">
<title>Node5</title>
<g id="a_node5"><a xlink:href="classlocomotor_1_1components_1_1network_1_1_a_p_i.html#a547463fbc7fb7b485886f0917e2c0b78" target="_top" xlink:title="locomotor.components.network.\lAPI.createHooks">
<polygon fill="#ffffff" stroke="#000000" points="679.9238,-.5 679.9238,-28.5 837.1104,-28.5 837.1104,-.5 679.9238,-.5"/>
<text text-anchor="start" x="687.9238" y="-16.5" font-family="Helvetica,sans-Serif" font-size="10.00" fill="#000000">locomotor.components.network.</text>
<text text-anchor="middle" x="758.5171" y="-6.5" font-family="Helvetica,sans-Serif" font-size="10.00" fill="#000000">API.createHooks</text>
</a>
</g>
</g>
<!-- Node4&#45;&gt;Node5 -->
<g id="edge4" class="edge">
<title>Node4&#45;&gt;Node5</title>
<path fill="none" stroke="#191970" d="M654.4444,-14.5C662.9103,-14.5 671.4617,-14.5 679.8323,-14.5"/>
<polygon fill="#191970" stroke="#191970" points="654.1782,-11.0001 644.1782,-14.5 654.1782,-18.0001 654.1782,-11.0001"/>
</g>
<!-- Node6 -->
<g id="node6" class="node">
<title>Node6</title>
<g id="a_node6"><a xlink:href="classlocomotor_1_1core_1_1_main.html#a8b260eecbaabcef8473fd87ada040682" target="_top" xlink:title="locomotor.core.Main.main">
<polygon fill="#ffffff" stroke="#000000" points="873.1104,-5.5 873.1104,-23.5 1003.6074,-23.5 1003.6074,-5.5 873.1104,-5.5"/>
<text text-anchor="middle" x="938.3589" y="-11.5" font-family="Helvetica,sans-Serif" font-size="10.00" fill="#000000">locomotor.core.Main.main</text>
</a>
</g>
</g>
<!-- Node5&#45;&gt;Node6 -->
<g id="edge5" class="edge">
<title>Node5&#45;&gt;Node6</title>
<path fill="none" stroke="#191970" d="M847.3101,-14.5C855.9984,-14.5 864.7008,-14.5 873.0926,-14.5"/>
<polygon fill="#191970" stroke="#191970" points="847.1367,-11.0001 837.1367,-14.5 847.1367,-18.0001 847.1367,-11.0001"/>
</g>
</g>
</svg>
