<?xml version="1.0" encoding="UTF-8" standalone="no"?>
<!DOCTYPE svg PUBLIC "-//W3C//DTD SVG 1.1//EN"
 "http://www.w3.org/Graphics/SVG/1.1/DTD/svg11.dtd">
<!-- Generated by graphviz version 2.40.1 (20161225.0304)
 -->
<!-- Title: pop Pages: 1 -->
<svg width="591pt" height="37pt"
 viewBox="0.00 0.00 590.79 37.00" xmlns="http://www.w3.org/2000/svg" xmlns:xlink="http://www.w3.org/1999/xlink">
<g id="graph0" class="graph" transform="scale(1 1) rotate(0) translate(4 33)">
<title>pop</title>
<polygon fill="#ffffff" stroke="transparent" points="-4,4 -4,-33 586.791,-33 586.791,4 -4,4"/>
<!-- Node1 -->
<g id="node1" class="node">
<title>Node1</title>
<polygon fill="#bfbfbf" stroke="#000000" points="0,-5.5 0,-23.5 32.6846,-23.5 32.6846,-5.5 0,-5.5"/>
<text text-anchor="middle" x="16.3423" y="-11.5" font-family="Helvetica,sans-Serif" font-size="10.00" fill="#000000">pop</text>
</g>
<!-- Node2 -->
<g id="node2" class="node">
<title>Node2</title>
<g id="a_node2"><a xlink:href="classlocomotor_1_1components_1_1logging_1_1_error_handler.html#a0174d8926fa98142dcff40f4b8478294" target="_top" xlink:title="locomotor.components.logging.\lErrorHandler.pop">
<polygon fill="#ffffff" stroke="#000000" points="68.6846,-.5 68.6846,-28.5 223.1074,-28.5 223.1074,-.5 68.6846,-.5"/>
<text text-anchor="start" x="76.6846" y="-16.5" font-family="Helvetica,sans-Serif" font-size="10.00" fill="#000000">locomotor.components.logging.</text>
<text text-anchor="middle" x="145.896" y="-6.5" font-family="Helvetica,sans-Serif" font-size="10.00" fill="#000000">ErrorHandler.pop</text>
</a>
</g>
</g>
<!-- Node1&#45;&gt;Node2 -->
<g id="edge1" class="edge">
<title>Node1&#45;&gt;Node2</title>
<path fill="none" stroke="#191970" d="M42.8279,-14.5C50.5471,-14.5 59.3979,-14.5 68.5992,-14.5"/>
<polygon fill="#191970" stroke="#191970" points="42.7504,-11.0001 32.7504,-14.5 42.7503,-18.0001 42.7504,-11.0001"/>
</g>
<!-- Node3 -->
<g id="node3" class="node">
<title>Node3</title>
<g id="a_node3"><a xlink:href="classlocomotor_1_1components_1_1network_1_1_a_p_i.html#a547463fbc7fb7b485886f0917e2c0b78" target="_top" xlink:title="locomotor.components.network.\lAPI.createHooks">
<polygon fill="#ffffff" stroke="#000000" points="259.1074,-.5 259.1074,-28.5 416.2939,-28.5 416.2939,-.5 259.1074,-.5"/>
<text text-anchor="start" x="267.1074" y="-16.5" font-family="Helvetica,sans-Serif" font-size="10.00" fill="#000000">locomotor.components.network.</text>
<text text-anchor="middle" x="337.7007" y="-6.5" font-family="Helvetica,sans-Serif" font-size="10.00" fill="#000000">API.createHooks</text>
</a>
</g>
</g>
<!-- Node2&#45;&gt;Node3 -->
<g id="edge2" class="edge">
<title>Node2&#45;&gt;Node3</title>
<path fill="none" stroke="#191970" d="M233.624,-14.5C242.0902,-14.5 250.642,-14.5 259.0129,-14.5"/>
<polygon fill="#191970" stroke="#191970" points="233.3575,-11.0001 223.3574,-14.5 233.3574,-18.0001 233.3575,-11.0001"/>
</g>
<!-- Node4 -->
<g id="node4" class="node">
<title>Node4</title>
<g id="a_node4"><a xlink:href="classlocomotor_1_1core_1_1_main.html#a8b260eecbaabcef8473fd87ada040682" target="_top" xlink:title="locomotor.core.Main.main">
<polygon fill="#ffffff" stroke="#000000" points="452.2939,-5.5 452.2939,-23.5 582.791,-23.5 582.791,-5.5 452.2939,-5.5"/>
<text text-anchor="middle" x="517.5425" y="-11.5" font-family="Helvetica,sans-Serif" font-size="10.00" fill="#000000">locomotor.core.Main.main</text>
</a>
</g>
</g>
<!-- Node3&#45;&gt;Node4 -->
<g id="edge3" class="edge">
<title>Node3&#45;&gt;Node4</title>
<path fill="none" stroke="#191970" d="M426.4937,-14.5C435.182,-14.5 443.8844,-14.5 452.2762,-14.5"/>
<polygon fill="#191970" stroke="#191970" points="426.3203,-11.0001 416.3203,-14.5 426.3203,-18.0001 426.3203,-11.0001"/>
</g>
</g>
</svg>
