<?xml version="1.0" encoding="UTF-8" standalone="no"?>
<!DOCTYPE svg PUBLIC "-//W3C//DTD SVG 1.1//EN"
 "http://www.w3.org/Graphics/SVG/1.1/DTD/svg11.dtd">
<!-- Generated by graphviz version 2.40.1 (20161225.0304)
 -->
<!-- Title: Comparator Pages: 1 -->
<svg width="722pt" height="126pt"
 viewBox="0.00 0.00 722.18 126.00" xmlns="http://www.w3.org/2000/svg" xmlns:xlink="http://www.w3.org/1999/xlink">
<g id="graph0" class="graph" transform="scale(1 1) rotate(0) translate(4 122)">
<title>Comparator</title>
<polygon fill="#ffffff" stroke="transparent" points="-4,4 -4,-122 718.1797,-122 718.1797,4 -4,4"/>
<!-- Node1 -->
<g id="node1" class="node">
<title>Node1</title>
<polygon fill="#bfbfbf" stroke="#000000" points="645.3818,-47.5 645.3818,-65.5 714.1797,-65.5 714.1797,-47.5 645.3818,-47.5"/>
<text text-anchor="middle" x="679.7808" y="-53.5" font-family="Helvetica,sans-Serif" font-size="10.00" fill="#000000">Comparator</text>
</g>
<!-- Node2 -->
<g id="node2" class="node">
<title>Node2</title>
<polygon fill="#ffffff" stroke="#bfbfbf" points="310.4692,-89.5 310.4692,-117.5 512.9487,-117.5 512.9487,-89.5 310.4692,-89.5"/>
<text text-anchor="start" x="318.4692" y="-105.5" font-family="Helvetica,sans-Serif" font-size="10.00" fill="#000000">ArrayList&lt; locomotor.components.models.</text>
<text text-anchor="middle" x="411.709" y="-95.5" font-family="Helvetica,sans-Serif" font-size="10.00" fill="#000000">CategoryModel &gt;</text>
</g>
<!-- Node2&#45;&gt;Node1 -->
<g id="edge1" class="edge">
<title>Node2&#45;&gt;Node1</title>
<path fill="none" stroke="#9a32cd" stroke-dasharray="5,2" d="M523.3707,-88.7884C556.9446,-83.7273 593.783,-77.537 627.3818,-70.5 634.2018,-69.0716 641.4573,-67.2992 648.3266,-65.501"/>
<polygon fill="#9a32cd" stroke="#9a32cd" points="522.439,-85.3884 513.0633,-90.3226 523.4696,-92.3122 522.439,-85.3884"/>
<text text-anchor="middle" x="587.9214" y="-86.5" font-family="Helvetica,sans-Serif" font-size="10.00" fill="#000000"> _model</text>
</g>
<!-- Node3 -->
<g id="node3" class="node">
<title>Node3</title>
<polygon fill="#ffffff" stroke="#bfbfbf" points="292.957,-42.5 292.957,-70.5 530.4609,-70.5 530.4609,-42.5 292.957,-42.5"/>
<text text-anchor="start" x="300.957" y="-58.5" font-family="Helvetica,sans-Serif" font-size="10.00" fill="#000000">HashMap&lt; String, locomotor.components.models.</text>
<text text-anchor="middle" x="411.709" y="-48.5" font-family="Helvetica,sans-Serif" font-size="10.00" fill="#000000">CriteriaModel &gt;</text>
</g>
<!-- Node3&#45;&gt;Node1 -->
<g id="edge2" class="edge">
<title>Node3&#45;&gt;Node1</title>
<path fill="none" stroke="#9a32cd" stroke-dasharray="5,2" d="M541.1354,-56.5C579.5795,-56.5 618.5298,-56.5 645.3159,-56.5"/>
<polygon fill="#9a32cd" stroke="#9a32cd" points="540.8503,-53.0001 530.8503,-56.5 540.8503,-60.0001 540.8503,-53.0001"/>
<text text-anchor="middle" x="587.9214" y="-58.5" font-family="Helvetica,sans-Serif" font-size="10.00" fill="#000000"> _modelCrits</text>
</g>
<!-- Node4 -->
<g id="node4" class="node">
<title>Node4</title>
<g id="a_node4"><a xlink:href="classlocomotor_1_1components_1_1models_1_1_user_item.html" target="_top" xlink:title="UserItem">
<polygon fill="#ffffff" stroke="#000000" points="383.4282,-5.5 383.4282,-23.5 439.9897,-23.5 439.9897,-5.5 383.4282,-5.5"/>
<text text-anchor="middle" x="411.709" y="-11.5" font-family="Helvetica,sans-Serif" font-size="10.00" fill="#000000">UserItem</text>
</a>
</g>
</g>
<!-- Node4&#45;&gt;Node1 -->
<g id="edge3" class="edge">
<title>Node4&#45;&gt;Node1</title>
<path fill="none" stroke="#9a32cd" stroke-dasharray="5,2" d="M450.2715,-17.9568C493.6145,-22.2005 565.9575,-30.3621 627.3818,-42.5 634.31,-43.869 641.6761,-45.6375 648.6289,-47.4539"/>
<polygon fill="#9a32cd" stroke="#9a32cd" points="450.4528,-14.4582 440.1642,-16.9869 449.7841,-21.4262 450.4528,-14.4582"/>
<text text-anchor="middle" x="587.9214" y="-44.5" font-family="Helvetica,sans-Serif" font-size="10.00" fill="#000000"> _userPerfectItem</text>
</g>
<!-- Node5 -->
<g id="node5" class="node">
<title>Node5</title>
<polygon fill="#ffffff" stroke="#bfbfbf" points="0,-.5 0,-28.5 202.4795,-28.5 202.4795,-.5 0,-.5"/>
<text text-anchor="start" x="8" y="-16.5" font-family="Helvetica,sans-Serif" font-size="10.00" fill="#000000">ArrayList&lt; locomotor.components.models.</text>
<text text-anchor="middle" x="101.2397" y="-6.5" font-family="Helvetica,sans-Serif" font-size="10.00" fill="#000000">UserCategory &gt;</text>
</g>
<!-- Node5&#45;&gt;Node4 -->
<g id="edge4" class="edge">
<title>Node5&#45;&gt;Node4</title>
<path fill="none" stroke="#9a32cd" stroke-dasharray="5,2" d="M212.9922,-14.5C274.0134,-14.5 344.7851,-14.5 383.2432,-14.5"/>
<polygon fill="#9a32cd" stroke="#9a32cd" points="212.899,-11.0001 202.899,-14.5 212.899,-18.0001 212.899,-11.0001"/>
<text text-anchor="middle" x="247.7183" y="-16.5" font-family="Helvetica,sans-Serif" font-size="10.00" fill="#000000"> _categories</text>
</g>
</g>
</svg>
