<?xml version="1.0" encoding="UTF-8" standalone="no"?>
<!DOCTYPE svg PUBLIC "-//W3C//DTD SVG 1.1//EN"
 "http://www.w3.org/Graphics/SVG/1.1/DTD/svg11.dtd">
<!-- Generated by graphviz version 2.40.1 (20161225.0304)
 -->
<!-- Title: changePassword Pages: 1 -->
<svg width="460pt" height="37pt"
 viewBox="0.00 0.00 460.40 37.00" xmlns="http://www.w3.org/2000/svg" xmlns:xlink="http://www.w3.org/1999/xlink">
<g id="graph0" class="graph" transform="scale(1 1) rotate(0) translate(4 33)">
<title>changePassword</title>
<polygon fill="#ffffff" stroke="transparent" points="-4,4 -4,-33 456.3975,-33 456.3975,4 -4,4"/>
<!-- Node1 -->
<g id="node1" class="node">
<title>Node1</title>
<polygon fill="#bfbfbf" stroke="#000000" points="0,-5.5 0,-23.5 92.7139,-23.5 92.7139,-5.5 0,-5.5"/>
<text text-anchor="middle" x="46.3569" y="-11.5" font-family="Helvetica,sans-Serif" font-size="10.00" fill="#000000">changePassword</text>
</g>
<!-- Node2 -->
<g id="node2" class="node">
<title>Node2</title>
<g id="a_node2"><a xlink:href="classlocomotor_1_1components_1_1network_1_1_a_p_i.html#a547463fbc7fb7b485886f0917e2c0b78" target="_top" xlink:title="locomotor.components.network.\lAPI.createHooks">
<polygon fill="#ffffff" stroke="#000000" points="128.7139,-.5 128.7139,-28.5 285.9004,-28.5 285.9004,-.5 128.7139,-.5"/>
<text text-anchor="start" x="136.7139" y="-16.5" font-family="Helvetica,sans-Serif" font-size="10.00" fill="#000000">locomotor.components.network.</text>
<text text-anchor="middle" x="207.3071" y="-6.5" font-family="Helvetica,sans-Serif" font-size="10.00" fill="#000000">API.createHooks</text>
</a>
</g>
</g>
<!-- Node1&#45;&gt;Node2 -->
<g id="edge1" class="edge">
<title>Node1&#45;&gt;Node2</title>
<path fill="none" stroke="#191970" d="M103.1711,-14.5C111.45,-14.5 120.0956,-14.5 128.7125,-14.5"/>
<polygon fill="#191970" stroke="#191970" points="102.9104,-11.0001 92.9104,-14.5 102.9104,-18.0001 102.9104,-11.0001"/>
</g>
<!-- Node3 -->
<g id="node3" class="node">
<title>Node3</title>
<g id="a_node3"><a xlink:href="classlocomotor_1_1core_1_1_main.html#a8b260eecbaabcef8473fd87ada040682" target="_top" xlink:title="locomotor.core.Main.main">
<polygon fill="#ffffff" stroke="#000000" points="321.9004,-5.5 321.9004,-23.5 452.3975,-23.5 452.3975,-5.5 321.9004,-5.5"/>
<text text-anchor="middle" x="387.1489" y="-11.5" font-family="Helvetica,sans-Serif" font-size="10.00" fill="#000000">locomotor.core.Main.main</text>
</a>
</g>
</g>
<!-- Node2&#45;&gt;Node3 -->
<g id="edge2" class="edge">
<title>Node2&#45;&gt;Node3</title>
<path fill="none" stroke="#191970" d="M296.1002,-14.5C304.7885,-14.5 313.4908,-14.5 321.8827,-14.5"/>
<polygon fill="#191970" stroke="#191970" points="295.9268,-11.0001 285.9267,-14.5 295.9267,-18.0001 295.9268,-11.0001"/>
</g>
</g>
</svg>
