<?xml version="1.0" encoding="UTF-8" standalone="no"?>
<!DOCTYPE svg PUBLIC "-//W3C//DTD SVG 1.1//EN"
 "http://www.w3.org/Graphics/SVG/1.1/DTD/svg11.dtd">
<!-- Generated by graphviz version 2.40.1 (20161225.0304)
 -->
<!-- Title: Gaussian Pages: 1 -->
<svg width="584pt" height="225pt"
 viewBox="0.00 0.00 583.56 225.00" xmlns="http://www.w3.org/2000/svg" xmlns:xlink="http://www.w3.org/1999/xlink">
<g id="graph0" class="graph" transform="scale(1 1) rotate(0) translate(4 221)">
<title>Gaussian</title>
<polygon fill="#ffffff" stroke="transparent" points="-4,4 -4,-221 579.5596,-221 579.5596,4 -4,4"/>
<!-- Node1 -->
<g id="node1" class="node">
<title>Node1</title>
<polygon fill="#bfbfbf" stroke="#000000" points="0,-75.5 0,-93.5 58.2461,-93.5 58.2461,-75.5 0,-75.5"/>
<text text-anchor="middle" x="29.123" y="-81.5" font-family="Helvetica,sans-Serif" font-size="10.00" fill="#000000">Gaussian</text>
</g>
<!-- Node2 -->
<g id="node2" class="node">
<title>Node2</title>
<g id="a_node2"><a xlink:href="classlocomotor_1_1core_1_1_gaussian.html#a2a6f2336ca6a2ad6a5406575827bbb56" target="_top" xlink:title="getInstance">
<polygon fill="#ffffff" stroke="#000000" points="94.2461,-75.5 94.2461,-93.5 161.9502,-93.5 161.9502,-75.5 94.2461,-75.5"/>
<text text-anchor="middle" x="128.0981" y="-81.5" font-family="Helvetica,sans-Serif" font-size="10.00" fill="#000000">getInstance</text>
</a>
</g>
</g>
<!-- Node1&#45;&gt;Node2 -->
<g id="edge1" class="edge">
<title>Node1&#45;&gt;Node2</title>
<path fill="none" stroke="#191970" d="M68.3246,-84.5C76.7849,-84.5 85.6648,-84.5 93.9153,-84.5"/>
<polygon fill="#191970" stroke="#191970" points="68.2836,-81.0001 58.2835,-84.5 68.2835,-88.0001 68.2836,-81.0001"/>
</g>
<!-- Node3 -->
<g id="node3" class="node">
<title>Node3</title>
<g id="a_node3"><a xlink:href="classlocomotor_1_1components_1_1_compare.html#a2a101cdb459b3ee3a59e76aaaa08750c" target="_top" xlink:title="locomotor.components.Compare.unique\lValue">
<polygon fill="#ffffff" stroke="#000000" points="199.0537,-117.5 199.0537,-145.5 392.3828,-145.5 392.3828,-117.5 199.0537,-117.5"/>
<text text-anchor="start" x="207.0537" y="-133.5" font-family="Helvetica,sans-Serif" font-size="10.00" fill="#000000">locomotor.components.Compare.unique</text>
<text text-anchor="middle" x="295.7183" y="-123.5" font-family="Helvetica,sans-Serif" font-size="10.00" fill="#000000">Value</text>
</a>
</g>
</g>
<!-- Node2&#45;&gt;Node3 -->
<g id="edge2" class="edge">
<title>Node2&#45;&gt;Node3</title>
<path fill="none" stroke="#191970" d="M170.1939,-96.3035C193.1169,-102.731 221.6281,-110.7254 245.6821,-117.4701"/>
<polygon fill="#191970" stroke="#191970" points="170.9906,-92.892 160.417,-93.5621 169.1007,-99.632 170.9906,-92.892"/>
</g>
<!-- Node7 -->
<g id="node7" class="node">
<title>Node7</title>
<g id="a_node7"><a xlink:href="classlocomotor_1_1components_1_1_compare.html#af1d05ce01ba9906df55e7a4976e44cc9" target="_top" xlink:title="locomotor.components.Compare.interval\lValue">
<polygon fill="#ffffff" stroke="#000000" points="197.9502,-47.5 197.9502,-75.5 393.4863,-75.5 393.4863,-47.5 197.9502,-47.5"/>
<text text-anchor="start" x="205.9502" y="-63.5" font-family="Helvetica,sans-Serif" font-size="10.00" fill="#000000">locomotor.components.Compare.interval</text>
<text text-anchor="middle" x="295.7183" y="-53.5" font-family="Helvetica,sans-Serif" font-size="10.00" fill="#000000">Value</text>
</a>
</g>
</g>
<!-- Node2&#45;&gt;Node7 -->
<g id="edge6" class="edge">
<title>Node2&#45;&gt;Node7</title>
<path fill="none" stroke="#191970" d="M172.1577,-78.4544C180.1734,-77.3545 188.8205,-76.168 197.6863,-74.9515"/>
<polygon fill="#191970" stroke="#191970" points="171.4499,-75.0186 162.0186,-79.8456 172.4016,-81.9536 171.4499,-75.0186"/>
</g>
<!-- Node4 -->
<g id="node4" class="node">
<title>Node4</title>
<g id="a_node4"><a xlink:href="classlocomotor_1_1components_1_1types_1_1_c_float.html#a871921d9d041c5c7993927dde6332e2c" target="_top" xlink:title="locomotor.components.types.\lCFloat.compare">
<polygon fill="#ffffff" stroke="#000000" points="429.4863,-188.5 429.4863,-216.5 575.5596,-216.5 575.5596,-188.5 429.4863,-188.5"/>
<text text-anchor="start" x="437.4863" y="-204.5" font-family="Helvetica,sans-Serif" font-size="10.00" fill="#000000">locomotor.components.types.</text>
<text text-anchor="middle" x="502.5229" y="-194.5" font-family="Helvetica,sans-Serif" font-size="10.00" fill="#000000">CFloat.compare</text>
</a>
</g>
</g>
<!-- Node3&#45;&gt;Node4 -->
<g id="edge3" class="edge">
<title>Node3&#45;&gt;Node4</title>
<path fill="none" stroke="#191970" d="M343.0721,-149.0059C368.5887,-158.3088 400.6653,-169.7953 429.4863,-179.5 438.3055,-182.4696 447.7624,-185.5349 456.8491,-188.4215"/>
<polygon fill="#191970" stroke="#191970" points="344.2282,-145.702 333.6343,-145.5557 341.8246,-152.2765 344.2282,-145.702"/>
</g>
<!-- Node5 -->
<g id="node5" class="node">
<title>Node5</title>
<g id="a_node5"><a xlink:href="classlocomotor_1_1components_1_1types_1_1_c_integer.html#a535607ef73128c96e7b4c3831a537c15" target="_top" xlink:title="locomotor.components.types.\lCInteger.compare">
<polygon fill="#ffffff" stroke="#000000" points="429.4863,-141.5 429.4863,-169.5 575.5596,-169.5 575.5596,-141.5 429.4863,-141.5"/>
<text text-anchor="start" x="437.4863" y="-157.5" font-family="Helvetica,sans-Serif" font-size="10.00" fill="#000000">locomotor.components.types.</text>
<text text-anchor="middle" x="502.5229" y="-147.5" font-family="Helvetica,sans-Serif" font-size="10.00" fill="#000000">CInteger.compare</text>
</a>
</g>
</g>
<!-- Node3&#45;&gt;Node5 -->
<g id="edge4" class="edge">
<title>Node3&#45;&gt;Node5</title>
<path fill="none" stroke="#191970" d="M402.6498,-143.9096C411.6745,-144.9569 420.6633,-146.0001 429.3408,-147.0071"/>
<polygon fill="#191970" stroke="#191970" points="402.7969,-140.4032 392.4601,-142.727 401.9899,-147.3566 402.7969,-140.4032"/>
</g>
<!-- Node6 -->
<g id="node6" class="node">
<title>Node6</title>
<g id="a_node6"><a xlink:href="classlocomotor_1_1components_1_1types_1_1_c_weighted_integer.html#acb085d655773a5014997582a57ae2ab2" target="_top" xlink:title="locomotor.components.types.\lCWeightedInteger.compare">
<polygon fill="#ffffff" stroke="#000000" points="429.4863,-94.5 429.4863,-122.5 575.5596,-122.5 575.5596,-94.5 429.4863,-94.5"/>
<text text-anchor="start" x="437.4863" y="-110.5" font-family="Helvetica,sans-Serif" font-size="10.00" fill="#000000">locomotor.components.types.</text>
<text text-anchor="middle" x="502.5229" y="-100.5" font-family="Helvetica,sans-Serif" font-size="10.00" fill="#000000">CWeightedInteger.compare</text>
</a>
</g>
</g>
<!-- Node3&#45;&gt;Node6 -->
<g id="edge5" class="edge">
<title>Node3&#45;&gt;Node6</title>
<path fill="none" stroke="#191970" d="M402.6498,-119.6075C411.6745,-118.6038 420.6633,-117.6041 429.3408,-116.639"/>
<polygon fill="#191970" stroke="#191970" points="402.0119,-116.1568 392.4601,-120.7408 402.7857,-123.1139 402.0119,-116.1568"/>
</g>
<!-- Node8 -->
<g id="node8" class="node">
<title>Node8</title>
<g id="a_node8"><a xlink:href="classlocomotor_1_1components_1_1types_1_1_c_interval_double.html#a871921d9d041c5c7993927dde6332e2c" target="_top" xlink:title="locomotor.components.types.\lCIntervalDouble.compare">
<polygon fill="#ffffff" stroke="#000000" points="429.4863,-47.5 429.4863,-75.5 575.5596,-75.5 575.5596,-47.5 429.4863,-47.5"/>
<text text-anchor="start" x="437.4863" y="-63.5" font-family="Helvetica,sans-Serif" font-size="10.00" fill="#000000">locomotor.components.types.</text>
<text text-anchor="middle" x="502.5229" y="-53.5" font-family="Helvetica,sans-Serif" font-size="10.00" fill="#000000">CIntervalDouble.compare</text>
</a>
</g>
</g>
<!-- Node7&#45;&gt;Node8 -->
<g id="edge7" class="edge">
<title>Node7&#45;&gt;Node8</title>
<path fill="none" stroke="#191970" d="M403.8089,-61.5C412.441,-61.5 421.0294,-61.5 429.3328,-61.5"/>
<polygon fill="#191970" stroke="#191970" points="403.67,-58.0001 393.67,-61.5 403.67,-65.0001 403.67,-58.0001"/>
</g>
<!-- Node9 -->
<g id="node9" class="node">
<title>Node9</title>
<g id="a_node9"><a xlink:href="classlocomotor_1_1components_1_1types_1_1_c_interval_integer.html#a535607ef73128c96e7b4c3831a537c15" target="_top" xlink:title="locomotor.components.types.\lCIntervalInteger.compare">
<polygon fill="#ffffff" stroke="#000000" points="429.4863,-.5 429.4863,-28.5 575.5596,-28.5 575.5596,-.5 429.4863,-.5"/>
<text text-anchor="start" x="437.4863" y="-16.5" font-family="Helvetica,sans-Serif" font-size="10.00" fill="#000000">locomotor.components.types.</text>
<text text-anchor="middle" x="502.5229" y="-6.5" font-family="Helvetica,sans-Serif" font-size="10.00" fill="#000000">CIntervalInteger.compare</text>
</a>
</g>
</g>
<!-- Node7&#45;&gt;Node9 -->
<g id="edge8" class="edge">
<title>Node7&#45;&gt;Node9</title>
<path fill="none" stroke="#191970" d="M367.5356,-45.1783C391.3771,-39.7598 417.6968,-33.7782 440.716,-28.5467"/>
<polygon fill="#191970" stroke="#191970" points="366.462,-41.8329 357.4864,-47.4621 368.0134,-48.6588 366.462,-41.8329"/>
</g>
</g>
</svg>
