<?xml version="1.0" encoding="UTF-8" standalone="no"?>
<!DOCTYPE svg PUBLIC "-//W3C//DTD SVG 1.1//EN"
 "http://www.w3.org/Graphics/SVG/1.1/DTD/svg11.dtd">
<!-- Generated by graphviz version 2.40.1 (20161225.0304)
 -->
<!-- Title: isEmpty Pages: 1 -->
<svg width="610pt" height="37pt"
 viewBox="0.00 0.00 609.67 37.00" xmlns="http://www.w3.org/2000/svg" xmlns:xlink="http://www.w3.org/1999/xlink">
<g id="graph0" class="graph" transform="scale(1 1) rotate(0) translate(4 33)">
<title>isEmpty</title>
<polygon fill="#ffffff" stroke="transparent" points="-4,4 -4,-33 605.668,-33 605.668,4 -4,4"/>
<!-- Node1 -->
<g id="node1" class="node">
<title>Node1</title>
<polygon fill="#bfbfbf" stroke="#000000" points="0,-5.5 0,-23.5 51.5615,-23.5 51.5615,-5.5 0,-5.5"/>
<text text-anchor="middle" x="25.7808" y="-11.5" font-family="Helvetica,sans-Serif" font-size="10.00" fill="#000000">isEmpty</text>
</g>
<!-- Node2 -->
<g id="node2" class="node">
<title>Node2</title>
<g id="a_node2"><a xlink:href="classlocomotor_1_1components_1_1logging_1_1_error_handler.html#a0174d8926fa98142dcff40f4b8478294" target="_top" xlink:title="locomotor.components.logging.\lErrorHandler.pop">
<polygon fill="#ffffff" stroke="#000000" points="87.5615,-.5 87.5615,-28.5 241.9844,-28.5 241.9844,-.5 87.5615,-.5"/>
<text text-anchor="start" x="95.5615" y="-16.5" font-family="Helvetica,sans-Serif" font-size="10.00" fill="#000000">locomotor.components.logging.</text>
<text text-anchor="middle" x="164.7729" y="-6.5" font-family="Helvetica,sans-Serif" font-size="10.00" fill="#000000">ErrorHandler.pop</text>
</a>
</g>
</g>
<!-- Node1&#45;&gt;Node2 -->
<g id="edge1" class="edge">
<title>Node1&#45;&gt;Node2</title>
<path fill="none" stroke="#191970" d="M61.6263,-14.5C69.6381,-14.5 78.4363,-14.5 87.4118,-14.5"/>
<polygon fill="#191970" stroke="#191970" points="61.5984,-11.0001 51.5984,-14.5 61.5984,-18.0001 61.5984,-11.0001"/>
</g>
<!-- Node3 -->
<g id="node3" class="node">
<title>Node3</title>
<g id="a_node3"><a xlink:href="classlocomotor_1_1components_1_1network_1_1_a_p_i.html#a547463fbc7fb7b485886f0917e2c0b78" target="_top" xlink:title="locomotor.components.network.\lAPI.createHooks">
<polygon fill="#ffffff" stroke="#000000" points="277.9844,-.5 277.9844,-28.5 435.1709,-28.5 435.1709,-.5 277.9844,-.5"/>
<text text-anchor="start" x="285.9844" y="-16.5" font-family="Helvetica,sans-Serif" font-size="10.00" fill="#000000">locomotor.components.network.</text>
<text text-anchor="middle" x="356.5776" y="-6.5" font-family="Helvetica,sans-Serif" font-size="10.00" fill="#000000">API.createHooks</text>
</a>
</g>
</g>
<!-- Node2&#45;&gt;Node3 -->
<g id="edge2" class="edge">
<title>Node2&#45;&gt;Node3</title>
<path fill="none" stroke="#191970" d="M252.501,-14.5C260.9672,-14.5 269.519,-14.5 277.8899,-14.5"/>
<polygon fill="#191970" stroke="#191970" points="252.2344,-11.0001 242.2344,-14.5 252.2344,-18.0001 252.2344,-11.0001"/>
</g>
<!-- Node4 -->
<g id="node4" class="node">
<title>Node4</title>
<g id="a_node4"><a xlink:href="classlocomotor_1_1core_1_1_main.html#a8b260eecbaabcef8473fd87ada040682" target="_top" xlink:title="locomotor.core.Main.main">
<polygon fill="#ffffff" stroke="#000000" points="471.1709,-5.5 471.1709,-23.5 601.668,-23.5 601.668,-5.5 471.1709,-5.5"/>
<text text-anchor="middle" x="536.4194" y="-11.5" font-family="Helvetica,sans-Serif" font-size="10.00" fill="#000000">locomotor.core.Main.main</text>
</a>
</g>
</g>
<!-- Node3&#45;&gt;Node4 -->
<g id="edge3" class="edge">
<title>Node3&#45;&gt;Node4</title>
<path fill="none" stroke="#191970" d="M445.3707,-14.5C454.059,-14.5 462.7613,-14.5 471.1532,-14.5"/>
<polygon fill="#191970" stroke="#191970" points="445.1973,-11.0001 435.1972,-14.5 445.1972,-18.0001 445.1973,-11.0001"/>
</g>
</g>
</svg>
