<?xml version="1.0" encoding="UTF-8" standalone="no"?>
<!DOCTYPE svg PUBLIC "-//W3C//DTD SVG 1.1//EN"
 "http://www.w3.org/Graphics/SVG/1.1/DTD/svg11.dtd">
<!-- Generated by graphviz version 2.40.1 (20161225.0304)
 -->
<!-- Title: Unit Pages: 1 -->
<svg width="322pt" height="102pt"
 viewBox="0.00 0.00 322.42 102.00" xmlns="http://www.w3.org/2000/svg" xmlns:xlink="http://www.w3.org/1999/xlink">
<g id="graph0" class="graph" transform="scale(1 1) rotate(0) translate(4 98)">
<title>Unit</title>
<polygon fill="#ffffff" stroke="transparent" points="-4,4 -4,-98 318.4219,-98 318.4219,4 -4,4"/>
<!-- Node1 -->
<g id="node1" class="node">
<title>Node1</title>
<polygon fill="#bfbfbf" stroke="#000000" points="113.2905,-.5 113.2905,-18.5 147.0737,-18.5 147.0737,-.5 113.2905,-.5"/>
<text text-anchor="middle" x="130.1821" y="-6.5" font-family="Helvetica,sans-Serif" font-size="10.00" fill="#000000">Unit</text>
</g>
<!-- Node2 -->
<g id="node2" class="node">
<title>Node2</title>
<g id="a_node2"><a xlink:href="interfacelocomotor_1_1components_1_1_j_s_o_n_displayable.html" target="_top" xlink:title="JSONDisplayable">
<polygon fill="#ffffff" stroke="#000000" points="0,-70.5 0,-88.5 94.3643,-88.5 94.3643,-70.5 0,-70.5"/>
<text text-anchor="middle" x="47.1821" y="-76.5" font-family="Helvetica,sans-Serif" font-size="10.00" fill="#000000">JSONDisplayable</text>
</a>
</g>
</g>
<!-- Node2&#45;&gt;Node1 -->
<g id="edge1" class="edge">
<title>Node2&#45;&gt;Node1</title>
<path fill="none" stroke="#191970" d="M65.9249,-63.6928C82.3928,-49.8043 105.7817,-30.0787 119.3287,-18.6535"/>
<polygon fill="#191970" stroke="#191970" points="63.4208,-61.2261 58.0329,-70.3487 67.9338,-66.5772 63.4208,-61.2261"/>
</g>
<!-- Node3 -->
<g id="node3" class="node">
<title>Node3</title>
<polygon fill="#ffffff" stroke="#bfbfbf" points="111.9424,-65.5 111.9424,-93.5 314.4219,-93.5 314.4219,-65.5 111.9424,-65.5"/>
<text text-anchor="start" x="119.9424" y="-81.5" font-family="Helvetica,sans-Serif" font-size="10.00" fill="#000000">ArrayList&lt; locomotor.components.models.</text>
<text text-anchor="middle" x="213.1821" y="-71.5" font-family="Helvetica,sans-Serif" font-size="10.00" fill="#000000">UnitAlt &gt;</text>
</g>
<!-- Node3&#45;&gt;Node1 -->
<g id="edge2" class="edge">
<title>Node3&#45;&gt;Node1</title>
<path fill="none" stroke="#9a32cd" stroke-dasharray="5,2" d="M188.566,-58.7394C172.813,-45.4537 153.1471,-28.8681 141.1343,-18.7368"/>
<polygon fill="#9a32cd" stroke="#9a32cd" points="186.485,-61.5629 196.3858,-65.3345 190.998,-56.2119 186.485,-61.5629"/>
<text text-anchor="middle" x="215.5859" y="-39" font-family="Helvetica,sans-Serif" font-size="10.00" fill="#000000"> _alternativeForms</text>
</g>
</g>
</svg>
