<?xml version="1.0" encoding="UTF-8" standalone="no"?>
<!DOCTYPE svg PUBLIC "-//W3C//DTD SVG 1.1//EN"
 "http://www.w3.org/Graphics/SVG/1.1/DTD/svg11.dtd">
<!-- Generated by graphviz version 2.40.1 (20161225.0304)
 -->
<!-- Title: NetworkJsonResponse Pages: 1 -->
<svg width="127pt" height="148pt"
 viewBox="0.00 0.00 126.83 148.00" xmlns="http://www.w3.org/2000/svg" xmlns:xlink="http://www.w3.org/1999/xlink">
<g id="graph0" class="graph" transform="scale(1 1) rotate(0) translate(4 144)">
<title>NetworkJsonResponse</title>
<polygon fill="#ffffff" stroke="transparent" points="-4,4 -4,-144 122.8271,-144 122.8271,4 -4,4"/>
<!-- Node1 -->
<g id="node1" class="node">
<title>Node1</title>
<polygon fill="#bfbfbf" stroke="#000000" points="0,-.5 0,-18.5 118.8271,-18.5 118.8271,-.5 0,-.5"/>
<text text-anchor="middle" x="59.4136" y="-6.5" font-family="Helvetica,sans-Serif" font-size="10.00" fill="#000000">NetworkJsonResponse</text>
</g>
<!-- Node2 -->
<g id="node2" class="node">
<title>Node2</title>
<g id="a_node2"><a xlink:href="classlocomotor_1_1components_1_1network_1_1_network_response.html" target="_top" xlink:title="NetworkResponse">
<polygon fill="#ffffff" stroke="#000000" points="10.5615,-56.5 10.5615,-74.5 108.2656,-74.5 108.2656,-56.5 10.5615,-56.5"/>
<text text-anchor="middle" x="59.4136" y="-62.5" font-family="Helvetica,sans-Serif" font-size="10.00" fill="#000000">NetworkResponse</text>
</a>
</g>
</g>
<!-- Node2&#45;&gt;Node1 -->
<g id="edge1" class="edge">
<title>Node2&#45;&gt;Node1</title>
<path fill="none" stroke="#191970" d="M59.4136,-46.2065C59.4136,-36.8384 59.4136,-26.0262 59.4136,-18.5752"/>
<polygon fill="#191970" stroke="#191970" points="55.9137,-46.2527 59.4136,-56.2527 62.9137,-46.2528 55.9137,-46.2527"/>
</g>
<!-- Node3 -->
<g id="node3" class="node">
<title>Node3</title>
<polygon fill="#ffffff" stroke="#bfbfbf" points="20.0049,-121.5 20.0049,-139.5 98.8223,-139.5 98.8223,-121.5 20.0049,-121.5"/>
<text text-anchor="middle" x="59.4136" y="-127.5" font-family="Helvetica,sans-Serif" font-size="10.00" fill="#000000">HttpExchange</text>
</g>
<!-- Node3&#45;&gt;Node2 -->
<g id="edge2" class="edge">
<title>Node3&#45;&gt;Node2</title>
<path fill="none" stroke="#9a32cd" stroke-dasharray="5,2" d="M59.4136,-111.1265C59.4136,-99.1522 59.4136,-84.3205 59.4136,-74.8821"/>
<polygon fill="#9a32cd" stroke="#9a32cd" points="55.9137,-111.462 59.4136,-121.462 62.9137,-111.4621 55.9137,-111.462"/>
<text text-anchor="middle" x="85.2681" y="-95" font-family="Helvetica,sans-Serif" font-size="10.00" fill="#000000"> _exchange</text>
</g>
</g>
</svg>
