<?xml version="1.0" encoding="UTF-8" standalone="no"?>
<!DOCTYPE svg PUBLIC "-//W3C//DTD SVG 1.1//EN"
 "http://www.w3.org/Graphics/SVG/1.1/DTD/svg11.dtd">
<!-- Generated by graphviz version 2.40.1 (20161225.0304)
 -->
<!-- Title: ItemCategoryFull Pages: 1 -->
<svg width="196pt" height="137pt"
 viewBox="0.00 0.00 196.19 137.00" xmlns="http://www.w3.org/2000/svg" xmlns:xlink="http://www.w3.org/1999/xlink">
<g id="graph0" class="graph" transform="scale(1 1) rotate(0) translate(4 133)">
<title>ItemCategoryFull</title>
<polygon fill="#ffffff" stroke="transparent" points="-4,4 -4,-133 192.1943,-133 192.1943,4 -4,4"/>
<!-- Node1 -->
<g id="node1" class="node">
<title>Node1</title>
<polygon fill="#bfbfbf" stroke="#000000" points="42.9434,-.5 42.9434,-18.5 135.0811,-18.5 135.0811,-.5 42.9434,-.5"/>
<text text-anchor="middle" x="89.0122" y="-6.5" font-family="Helvetica,sans-Serif" font-size="10.00" fill="#000000">ItemCategoryFull</text>
</g>
<!-- Node2 -->
<g id="node2" class="node">
<title>Node2</title>
<g id="a_node2"><a xlink:href="classlocomotor_1_1components_1_1models_1_1_item_category.html" target="_top" xlink:title="ItemCategory">
<polygon fill="#ffffff" stroke="#000000" points="0,-55.5 0,-73.5 76.0244,-73.5 76.0244,-55.5 0,-55.5"/>
<text text-anchor="middle" x="38.0122" y="-61.5" font-family="Helvetica,sans-Serif" font-size="10.00" fill="#000000">ItemCategory</text>
</a>
</g>
</g>
<!-- Node2&#45;&gt;Node1 -->
<g id="edge1" class="edge">
<title>Node2&#45;&gt;Node1</title>
<path fill="none" stroke="#191970" d="M53.3003,-48.0129C62.169,-38.4485 73.012,-26.7552 80.4076,-18.7795"/>
<polygon fill="#191970" stroke="#191970" points="50.6668,-45.7054 46.4338,-55.4179 55.7997,-50.465 50.6668,-45.7054"/>
</g>
<!-- Node3 -->
<g id="node3" class="node">
<title>Node3</title>
<g id="a_node3"><a xlink:href="classlocomotor_1_1components_1_1models_1_1_category.html" target="_top" xlink:title="Category">
<polygon fill="#ffffff" stroke="#000000" points="9.7241,-110.5 9.7241,-128.5 66.3003,-128.5 66.3003,-110.5 9.7241,-110.5"/>
<text text-anchor="middle" x="38.0122" y="-116.5" font-family="Helvetica,sans-Serif" font-size="10.00" fill="#000000">Category</text>
</a>
</g>
</g>
<!-- Node3&#45;&gt;Node2 -->
<g id="edge2" class="edge">
<title>Node3&#45;&gt;Node2</title>
<path fill="none" stroke="#191970" d="M38.0122,-100.383C38.0122,-91.3738 38.0122,-81.0373 38.0122,-73.7795"/>
<polygon fill="#191970" stroke="#191970" points="34.5123,-100.4178 38.0122,-110.4179 41.5123,-100.4179 34.5123,-100.4178"/>
</g>
<!-- Node4 -->
<g id="node4" class="node">
<title>Node4</title>
<g id="a_node4"><a xlink:href="interfacelocomotor_1_1components_1_1_j_s_o_n_displayable.html" target="_top" xlink:title="JSONDisplayable">
<polygon fill="#ffffff" stroke="#000000" points="93.8301,-55.5 93.8301,-73.5 188.1943,-73.5 188.1943,-55.5 93.8301,-55.5"/>
<text text-anchor="middle" x="141.0122" y="-61.5" font-family="Helvetica,sans-Serif" font-size="10.00" fill="#000000">JSONDisplayable</text>
</a>
</g>
</g>
<!-- Node4&#45;&gt;Node1 -->
<g id="edge3" class="edge">
<title>Node4&#45;&gt;Node1</title>
<path fill="none" stroke="#191970" d="M125.4244,-48.0129C116.3817,-38.4485 105.3262,-26.7552 97.7855,-18.7795"/>
<polygon fill="#191970" stroke="#191970" points="123.012,-50.5559 132.4255,-55.4179 128.0986,-45.7468 123.012,-50.5559"/>
</g>
</g>
</svg>
