<?xml version="1.0" encoding="UTF-8" standalone="no"?>
<!DOCTYPE svg PUBLIC "-//W3C//DTD SVG 1.1//EN"
 "http://www.w3.org/Graphics/SVG/1.1/DTD/svg11.dtd">
<!-- Generated by graphviz version 2.40.1 (20161225.0304)
 -->
<!-- Title: computeGradeOfItem Pages: 1 -->
<svg width="697pt" height="297pt"
 viewBox="0.00 0.00 697.46 297.00" xmlns="http://www.w3.org/2000/svg" xmlns:xlink="http://www.w3.org/1999/xlink">
<g id="graph0" class="graph" transform="scale(1 1) rotate(0) translate(4 293)">
<title>computeGradeOfItem</title>
<polygon fill="#ffffff" stroke="transparent" points="-4,4 -4,-293 693.4561,-293 693.4561,4 -4,4"/>
<!-- Node1 -->
<g id="node1" class="node">
<title>Node1</title>
<polygon fill="#bfbfbf" stroke="#000000" points="0,-218.5 0,-236.5 112.1523,-236.5 112.1523,-218.5 0,-218.5"/>
<text text-anchor="middle" x="56.0762" y="-224.5" font-family="Helvetica,sans-Serif" font-size="10.00" fill="#000000">computeGradeOfItem</text>
</g>
<!-- Node2 -->
<g id="node2" class="node">
<title>Node2</title>
<g id="a_node2"><a xlink:href="classlocomotor_1_1components_1_1models_1_1_item.html#aac70f654e73d90f5caea40c18ace4312" target="_top" xlink:title="locomotor.components.models.\lItem.getCategories">
<polygon fill="#ffffff" stroke="#000000" points="148.1523,-260.5 148.1523,-288.5 302.5605,-288.5 302.5605,-260.5 148.1523,-260.5"/>
<text text-anchor="start" x="156.1523" y="-276.5" font-family="Helvetica,sans-Serif" font-size="10.00" fill="#000000">locomotor.components.models.</text>
<text text-anchor="middle" x="225.3564" y="-266.5" font-family="Helvetica,sans-Serif" font-size="10.00" fill="#000000">Item.getCategories</text>
</a>
</g>
</g>
<!-- Node1&#45;&gt;Node2 -->
<g id="edge1" class="edge">
<title>Node1&#45;&gt;Node2</title>
<path fill="none" stroke="#191970" d="M88.7151,-236.5621C110.354,-242.57 139.3964,-250.6335 165.1414,-257.7815"/>
<polygon fill="#191970" stroke="#191970" points="164.2528,-261.1672 174.8247,-260.4701 166.1256,-254.4223 164.2528,-261.1672"/>
</g>
<!-- Node3 -->
<g id="node3" class="node">
<title>Node3</title>
<g id="a_node3"><a xlink:href="classlocomotor_1_1components_1_1models_1_1_user_item.html#a9bd0f78e7cc56fec919e63d723a4806a" target="_top" xlink:title="locomotor.components.models.\lUserItem.getCategories">
<polygon fill="#ffffff" stroke="#000000" points="148.1523,-213.5 148.1523,-241.5 302.5605,-241.5 302.5605,-213.5 148.1523,-213.5"/>
<text text-anchor="start" x="156.1523" y="-229.5" font-family="Helvetica,sans-Serif" font-size="10.00" fill="#000000">locomotor.components.models.</text>
<text text-anchor="middle" x="225.3564" y="-219.5" font-family="Helvetica,sans-Serif" font-size="10.00" fill="#000000">UserItem.getCategories</text>
</a>
</g>
</g>
<!-- Node1&#45;&gt;Node3 -->
<g id="edge2" class="edge">
<title>Node1&#45;&gt;Node3</title>
<path fill="none" stroke="#191970" d="M112.4441,-227.5C120.6704,-227.5 129.2993,-227.5 137.9666,-227.5"/>
<polygon fill="#191970" stroke="#191970" points="138.1373,-231.0001 148.1372,-227.5 138.1372,-224.0001 138.1373,-231.0001"/>
</g>
<!-- Node4 -->
<g id="node4" class="node">
<title>Node4</title>
<g id="a_node4"><a xlink:href="classlocomotor_1_1core_1_1_comparator.html#a3f526c90b5b3a645974bbb81e30d3c74" target="_top" xlink:title="computeGradeOfCategory">
<polygon fill="#ffffff" stroke="#000000" points="158.7163,-176.5 158.7163,-194.5 291.9966,-194.5 291.9966,-176.5 158.7163,-176.5"/>
<text text-anchor="middle" x="225.3564" y="-182.5" font-family="Helvetica,sans-Serif" font-size="10.00" fill="#000000">computeGradeOfCategory</text>
</a>
</g>
</g>
<!-- Node1&#45;&gt;Node4 -->
<g id="edge3" class="edge">
<title>Node1&#45;&gt;Node4</title>
<path fill="none" stroke="#191970" d="M92.3663,-218.4041C109.3125,-214.1645 129.7611,-209.06 148.1523,-204.5 157.9997,-202.0584 168.5566,-199.4526 178.6038,-196.9782"/>
<polygon fill="#191970" stroke="#191970" points="179.5622,-200.3468 188.4361,-194.5585 177.8894,-193.5496 179.5622,-200.3468"/>
</g>
<!-- Node5 -->
<g id="node5" class="node">
<title>Node5</title>
<g id="a_node5"><a xlink:href="classlocomotor_1_1components_1_1models_1_1_category.html#a0e11818fedf98727494278ea27386dea" target="_top" xlink:title="locomotor.components.models.\lCategory.getCriterias">
<polygon fill="#ffffff" stroke="#000000" points="338.5605,-214.5 338.5605,-242.5 492.9688,-242.5 492.9688,-214.5 338.5605,-214.5"/>
<text text-anchor="start" x="346.5605" y="-230.5" font-family="Helvetica,sans-Serif" font-size="10.00" fill="#000000">locomotor.components.models.</text>
<text text-anchor="middle" x="415.7646" y="-220.5" font-family="Helvetica,sans-Serif" font-size="10.00" fill="#000000">Category.getCriterias</text>
</a>
</g>
</g>
<!-- Node4&#45;&gt;Node5 -->
<g id="edge4" class="edge">
<title>Node4&#45;&gt;Node5</title>
<path fill="none" stroke="#191970" d="M265.2722,-194.5142C287.8993,-199.6241 316.9028,-206.174 343.3983,-212.1575"/>
<polygon fill="#191970" stroke="#191970" points="342.8863,-215.6299 353.4117,-214.4188 344.4284,-208.8019 342.8863,-215.6299"/>
</g>
<!-- Node6 -->
<g id="node6" class="node">
<title>Node6</title>
<g id="a_node6"><a xlink:href="classlocomotor_1_1core_1_1_comparator.html#a686a6117a0c0951d6b70fb883b2b5937" target="_top" xlink:title="computeGradeOfCriteria">
<polygon fill="#ffffff" stroke="#000000" points="353.2993,-122.5 353.2993,-140.5 478.23,-140.5 478.23,-122.5 353.2993,-122.5"/>
<text text-anchor="middle" x="415.7646" y="-128.5" font-family="Helvetica,sans-Serif" font-size="10.00" fill="#000000">computeGradeOfCriteria</text>
</a>
</g>
</g>
<!-- Node4&#45;&gt;Node6 -->
<g id="edge5" class="edge">
<title>Node4&#45;&gt;Node6</title>
<path fill="none" stroke="#191970" d="M257.2265,-176.4616C289.2169,-167.3891 338.6679,-153.3647 373.827,-143.3936"/>
<polygon fill="#191970" stroke="#191970" points="375.125,-146.6636 383.7906,-140.5679 373.2151,-139.9291 375.125,-146.6636"/>
</g>
<!-- Node7 -->
<g id="node7" class="node">
<title>Node7</title>
<g id="a_node7"><a xlink:href="classlocomotor_1_1components_1_1models_1_1_criteria.html#a34e60b6081b4c555dc9f5b872cbe044e" target="_top" xlink:title="locomotor.components.models.\lCriteria.getID">
<polygon fill="#ffffff" stroke="#000000" points="532.0083,-188.5 532.0083,-216.5 686.4165,-216.5 686.4165,-188.5 532.0083,-188.5"/>
<text text-anchor="start" x="540.0083" y="-204.5" font-family="Helvetica,sans-Serif" font-size="10.00" fill="#000000">locomotor.components.models.</text>
<text text-anchor="middle" x="609.2124" y="-194.5" font-family="Helvetica,sans-Serif" font-size="10.00" fill="#000000">Criteria.getID</text>
</a>
</g>
</g>
<!-- Node4&#45;&gt;Node7 -->
<g id="edge11" class="edge">
<title>Node4&#45;&gt;Node7</title>
<path fill="none" stroke="#191970" d="M292.2191,-188.4612C355.8903,-191.281 452.0872,-195.5413 521.8069,-198.629"/>
<polygon fill="#191970" stroke="#191970" points="521.7491,-202.1298 531.8942,-199.0758 522.0589,-195.1367 521.7491,-202.1298"/>
</g>
<!-- Node6&#45;&gt;Node7 -->
<g id="edge6" class="edge">
<title>Node6&#45;&gt;Node7</title>
<path fill="none" stroke="#191970" d="M435.1122,-140.5588C457.4264,-150.805 495.3607,-167.6082 528.9688,-179.5 534.7965,-181.5621 540.91,-183.5755 547.0523,-185.4993"/>
<polygon fill="#191970" stroke="#191970" points="546.105,-188.8695 556.6912,-188.4427 548.1494,-182.1747 546.105,-188.8695"/>
</g>
<!-- Node8 -->
<g id="node8" class="node">
<title>Node8</title>
<g id="a_node8"><a xlink:href="classlocomotor_1_1components_1_1models_1_1_item_criteria.html#ad1dc198074d5d5e901d0e5159ded14fa" target="_top" xlink:title="locomotor.components.models.\lItemCriteria.getValue">
<polygon fill="#ffffff" stroke="#000000" points="532.0083,-141.5 532.0083,-169.5 686.4165,-169.5 686.4165,-141.5 532.0083,-141.5"/>
<text text-anchor="start" x="540.0083" y="-157.5" font-family="Helvetica,sans-Serif" font-size="10.00" fill="#000000">locomotor.components.models.</text>
<text text-anchor="middle" x="609.2124" y="-147.5" font-family="Helvetica,sans-Serif" font-size="10.00" fill="#000000">ItemCriteria.getValue</text>
</a>
</g>
</g>
<!-- Node6&#45;&gt;Node8 -->
<g id="edge7" class="edge">
<title>Node6&#45;&gt;Node8</title>
<path fill="none" stroke="#191970" d="M478.3044,-139.259C492.2064,-140.9837 507.1896,-142.8426 521.881,-144.6653"/>
<polygon fill="#191970" stroke="#191970" points="521.6336,-148.1613 531.9885,-145.9193 522.4955,-141.2146 521.6336,-148.1613"/>
</g>
<!-- Node9 -->
<g id="node9" class="node">
<title>Node9</title>
<g id="a_node9"><a xlink:href="classlocomotor_1_1components_1_1models_1_1_user_criteria.html#ae439cd3f7be14d7e03f87a7ca9367d54" target="_top" xlink:title="locomotor.components.models.\lUserCriteria.getValue">
<polygon fill="#ffffff" stroke="#000000" points="532.0083,-94.5 532.0083,-122.5 686.4165,-122.5 686.4165,-94.5 532.0083,-94.5"/>
<text text-anchor="start" x="540.0083" y="-110.5" font-family="Helvetica,sans-Serif" font-size="10.00" fill="#000000">locomotor.components.models.</text>
<text text-anchor="middle" x="609.2124" y="-100.5" font-family="Helvetica,sans-Serif" font-size="10.00" fill="#000000">UserCriteria.getValue</text>
</a>
</g>
</g>
<!-- Node6&#45;&gt;Node9 -->
<g id="edge8" class="edge">
<title>Node6&#45;&gt;Node9</title>
<path fill="none" stroke="#191970" d="M478.3044,-124.0643C492.2064,-122.4114 507.1896,-120.63 521.881,-118.8833"/>
<polygon fill="#191970" stroke="#191970" points="522.4717,-122.3378 531.9885,-117.6815 521.6452,-115.3868 522.4717,-122.3378"/>
</g>
<!-- Node10 -->
<g id="node10" class="node">
<title>Node10</title>
<g id="a_node10"><a xlink:href="classlocomotor_1_1components_1_1models_1_1_user_criteria.html#a671adef5afc1b82389174abfaff3c892" target="_top" xlink:title="locomotor.components.models.\lUserCriteria.getDisableFlexibility">
<polygon fill="#ffffff" stroke="#000000" points="528.9688,-47.5 528.9688,-75.5 689.4561,-75.5 689.4561,-47.5 528.9688,-47.5"/>
<text text-anchor="start" x="536.9688" y="-63.5" font-family="Helvetica,sans-Serif" font-size="10.00" fill="#000000">locomotor.components.models.</text>
<text text-anchor="middle" x="609.2124" y="-53.5" font-family="Helvetica,sans-Serif" font-size="10.00" fill="#000000">UserCriteria.getDisableFlexibility</text>
</a>
</g>
</g>
<!-- Node6&#45;&gt;Node10 -->
<g id="edge9" class="edge">
<title>Node6&#45;&gt;Node10</title>
<path fill="none" stroke="#191970" d="M435.5374,-122.4801C457.9235,-112.4593 495.6231,-96.1582 528.9688,-84.5 534.8042,-82.4598 540.9229,-80.461 547.0684,-78.5463"/>
<polygon fill="#191970" stroke="#191970" points="548.1624,-81.872 556.7108,-75.613 546.125,-75.175 548.1624,-81.872"/>
</g>
<!-- Node11 -->
<g id="node11" class="node">
<title>Node11</title>
<g id="a_node11"><a xlink:href="interfacelocomotor_1_1components_1_1types_1_1_c_comparable.html#a1d9a08e9f962c76e6525f8da05ca7f21" target="_top" xlink:title="locomotor.components.types.\lCComparable.compare">
<polygon fill="#ffffff" stroke="#000000" points="536.1758,-.5 536.1758,-28.5 682.249,-28.5 682.249,-.5 536.1758,-.5"/>
<text text-anchor="start" x="544.1758" y="-16.5" font-family="Helvetica,sans-Serif" font-size="10.00" fill="#000000">locomotor.components.types.</text>
<text text-anchor="middle" x="609.2124" y="-6.5" font-family="Helvetica,sans-Serif" font-size="10.00" fill="#000000">CComparable.compare</text>
</a>
</g>
</g>
<!-- Node6&#45;&gt;Node11 -->
<g id="edge10" class="edge">
<title>Node6&#45;&gt;Node11</title>
<path fill="none" stroke="#191970" d="M424.2096,-122.2842C441.8588,-103.5651 484.6982,-60.8899 528.9688,-37.5 532.4725,-35.6488 536.1432,-33.9307 539.9053,-32.3384"/>
<polygon fill="#191970" stroke="#191970" points="541.3568,-35.5291 549.4019,-28.635 538.8136,-29.0074 541.3568,-35.5291"/>
</g>
</g>
</svg>
