<?xml version="1.0" encoding="UTF-8" standalone="no"?>
<!DOCTYPE svg PUBLIC "-//W3C//DTD SVG 1.1//EN"
 "http://www.w3.org/Graphics/SVG/1.1/DTD/svg11.dtd">
<!-- Generated by graphviz version 2.40.1 (20161225.0304)
 -->
<!-- Title: getBinaryContext Pages: 1 -->
<svg width="460pt" height="37pt"
 viewBox="0.00 0.00 460.39 37.00" xmlns="http://www.w3.org/2000/svg" xmlns:xlink="http://www.w3.org/1999/xlink">
<g id="graph0" class="graph" transform="scale(1 1) rotate(0) translate(4 33)">
<title>getBinaryContext</title>
<polygon fill="#ffffff" stroke="transparent" points="-4,4 -4,-33 456.3926,-33 456.3926,4 -4,4"/>
<!-- Node1 -->
<g id="node1" class="node">
<title>Node1</title>
<polygon fill="#bfbfbf" stroke="#000000" points="0,-5.5 0,-23.5 92.709,-23.5 92.709,-5.5 0,-5.5"/>
<text text-anchor="middle" x="46.3545" y="-11.5" font-family="Helvetica,sans-Serif" font-size="10.00" fill="#000000">getBinaryContext</text>
</g>
<!-- Node2 -->
<g id="node2" class="node">
<title>Node2</title>
<g id="a_node2"><a xlink:href="classlocomotor_1_1components_1_1network_1_1_a_p_i.html#a547463fbc7fb7b485886f0917e2c0b78" target="_top" xlink:title="locomotor.components.network.\lAPI.createHooks">
<polygon fill="#ffffff" stroke="#000000" points="128.709,-.5 128.709,-28.5 285.8955,-28.5 285.8955,-.5 128.709,-.5"/>
<text text-anchor="start" x="136.709" y="-16.5" font-family="Helvetica,sans-Serif" font-size="10.00" fill="#000000">locomotor.components.network.</text>
<text text-anchor="middle" x="207.3022" y="-6.5" font-family="Helvetica,sans-Serif" font-size="10.00" fill="#000000">API.createHooks</text>
</a>
</g>
</g>
<!-- Node1&#45;&gt;Node2 -->
<g id="edge1" class="edge">
<title>Node1&#45;&gt;Node2</title>
<path fill="none" stroke="#191970" d="M103.1678,-14.5C111.4466,-14.5 120.0921,-14.5 128.7088,-14.5"/>
<polygon fill="#191970" stroke="#191970" points="102.9073,-11.0001 92.9073,-14.5 102.9072,-18.0001 102.9073,-11.0001"/>
</g>
<!-- Node3 -->
<g id="node3" class="node">
<title>Node3</title>
<g id="a_node3"><a xlink:href="classlocomotor_1_1core_1_1_main.html#a8b260eecbaabcef8473fd87ada040682" target="_top" xlink:title="locomotor.core.Main.main">
<polygon fill="#ffffff" stroke="#000000" points="321.8955,-5.5 321.8955,-23.5 452.3926,-23.5 452.3926,-5.5 321.8955,-5.5"/>
<text text-anchor="middle" x="387.144" y="-11.5" font-family="Helvetica,sans-Serif" font-size="10.00" fill="#000000">locomotor.core.Main.main</text>
</a>
</g>
</g>
<!-- Node2&#45;&gt;Node3 -->
<g id="edge2" class="edge">
<title>Node2&#45;&gt;Node3</title>
<path fill="none" stroke="#191970" d="M296.0953,-14.5C304.7836,-14.5 313.4859,-14.5 321.8778,-14.5"/>
<polygon fill="#191970" stroke="#191970" points="295.9219,-11.0001 285.9219,-14.5 295.9218,-18.0001 295.9219,-11.0001"/>
</g>
</g>
</svg>
