<?xml version="1.0" encoding="UTF-8" standalone="no"?>
<!DOCTYPE svg PUBLIC "-//W3C//DTD SVG 1.1//EN"
 "http://www.w3.org/Graphics/SVG/1.1/DTD/svg11.dtd">
<!-- Generated by graphviz version 2.40.1 (20161225.0304)
 -->
<!-- Title: ErrorContext Pages: 1 -->
<svg width="386pt" height="47pt"
 viewBox="0.00 0.00 386.06 47.00" xmlns="http://www.w3.org/2000/svg" xmlns:xlink="http://www.w3.org/1999/xlink">
<g id="graph0" class="graph" transform="scale(1 1) rotate(0) translate(4 43)">
<title>ErrorContext</title>
<polygon fill="#ffffff" stroke="transparent" points="-4,4 -4,-43 382.0635,-43 382.0635,4 -4,4"/>
<!-- Node1 -->
<g id="node1" class="node">
<title>Node1</title>
<polygon fill="#bfbfbf" stroke="#000000" points="305.3789,-10.5 305.3789,-28.5 378.0635,-28.5 378.0635,-10.5 305.3789,-10.5"/>
<text text-anchor="middle" x="341.7212" y="-16.5" font-family="Helvetica,sans-Serif" font-size="10.00" fill="#000000">ErrorContext</text>
</g>
<!-- Node2 -->
<g id="node2" class="node">
<title>Node2</title>
<polygon fill="#ffffff" stroke="#bfbfbf" points="0,-.5 0,-38.5 212.5039,-38.5 212.5039,-.5 0,-.5"/>
<text text-anchor="start" x="8" y="-26.5" font-family="Helvetica,sans-Serif" font-size="10.00" fill="#000000">ArrayDeque&lt; locomotor.components.</text>
<text text-anchor="start" x="8" y="-16.5" font-family="Helvetica,sans-Serif" font-size="10.00" fill="#000000">Pair&lt; String, locomotor.components.logging.</text>
<text text-anchor="middle" x="106.252" y="-6.5" font-family="Helvetica,sans-Serif" font-size="10.00" fill="#000000">Logging &gt; &gt;</text>
</g>
<!-- Node2&#45;&gt;Node1 -->
<g id="edge1" class="edge">
<title>Node2&#45;&gt;Node1</title>
<path fill="none" stroke="#9a32cd" stroke-dasharray="5,2" d="M222.7841,-19.5C252.8006,-19.5 282.9214,-19.5 305.3411,-19.5"/>
<polygon fill="#9a32cd" stroke="#9a32cd" points="222.6198,-16.0001 212.6198,-19.5 222.6198,-23.0001 222.6198,-16.0001"/>
<text text-anchor="middle" x="258.9414" y="-21.5" font-family="Helvetica,sans-Serif" font-size="10.00" fill="#000000"> _stackTrace</text>
</g>
</g>
</svg>
