<?xml version="1.0" encoding="UTF-8" standalone="no"?>
<!DOCTYPE svg PUBLIC "-//W3C//DTD SVG 1.1//EN"
 "http://www.w3.org/Graphics/SVG/1.1/DTD/svg11.dtd">
<!-- Generated by graphviz version 2.40.1 (20161225.0304)
 -->
<!-- Title: ItemCriteria Pages: 1 -->
<svg width="107pt" height="204pt"
 viewBox="0.00 0.00 107.38 204.00" xmlns="http://www.w3.org/2000/svg" xmlns:xlink="http://www.w3.org/1999/xlink">
<g id="graph0" class="graph" transform="scale(1 1) rotate(0) translate(4 200)">
<title>ItemCriteria</title>
<polygon fill="#ffffff" stroke="transparent" points="-4,4 -4,-200 103.3789,-200 103.3789,4 -4,4"/>
<!-- Node1 -->
<g id="node1" class="node">
<title>Node1</title>
<polygon fill="#bfbfbf" stroke="#000000" points="15.8521,-.5 15.8521,-18.5 83.5269,-18.5 83.5269,-.5 15.8521,-.5"/>
<text text-anchor="middle" x="49.6895" y="-6.5" font-family="Helvetica,sans-Serif" font-size="10.00" fill="#000000">ItemCriteria</text>
</g>
<!-- Node2 -->
<g id="node2" class="node">
<title>Node2</title>
<g id="a_node2"><a xlink:href="classlocomotor_1_1components_1_1models_1_1_criteria.html" target="_top" xlink:title="Criteria">
<polygon fill="#ffffff" stroke="#000000" points="25.5762,-56.5 25.5762,-74.5 73.8027,-74.5 73.8027,-56.5 25.5762,-56.5"/>
<text text-anchor="middle" x="49.6895" y="-62.5" font-family="Helvetica,sans-Serif" font-size="10.00" fill="#000000">Criteria</text>
</a>
</g>
</g>
<!-- Node2&#45;&gt;Node1 -->
<g id="edge1" class="edge">
<title>Node2&#45;&gt;Node1</title>
<path fill="none" stroke="#191970" d="M49.6895,-46.2065C49.6895,-36.8384 49.6895,-26.0262 49.6895,-18.5752"/>
<polygon fill="#191970" stroke="#191970" points="46.1896,-46.2527 49.6895,-56.2527 53.1896,-46.2528 46.1896,-46.2527"/>
</g>
<!-- Node3 -->
<g id="node3" class="node">
<title>Node3</title>
<g id="a_node3"><a xlink:href="interfacelocomotor_1_1components_1_1types_1_1_c_comparable_type.html" target="_top" xlink:title="CComparableType">
<polygon fill="#ffffff" stroke="#000000" points="0,-121.5 0,-139.5 99.3789,-139.5 99.3789,-121.5 0,-121.5"/>
<text text-anchor="middle" x="49.6895" y="-127.5" font-family="Helvetica,sans-Serif" font-size="10.00" fill="#000000">CComparableType</text>
</a>
</g>
</g>
<!-- Node3&#45;&gt;Node2 -->
<g id="edge2" class="edge">
<title>Node3&#45;&gt;Node2</title>
<path fill="none" stroke="#9a32cd" stroke-dasharray="5,2" d="M49.6895,-111.1265C49.6895,-99.1522 49.6895,-84.3205 49.6895,-74.8821"/>
<polygon fill="#9a32cd" stroke="#9a32cd" points="46.1895,-111.462 49.6895,-121.462 53.1895,-111.4621 46.1895,-111.462"/>
<text text-anchor="middle" x="65.8125" y="-95" font-family="Helvetica,sans-Serif" font-size="10.00" fill="#000000"> _value</text>
</g>
<!-- Node4 -->
<g id="node4" class="node">
<title>Node4</title>
<g id="a_node4"><a xlink:href="interfacelocomotor_1_1components_1_1types_1_1_c_type.html" target="_top" xlink:title="CType">
<polygon fill="#ffffff" stroke="#000000" points="27.2363,-177.5 27.2363,-195.5 72.1426,-195.5 72.1426,-177.5 27.2363,-177.5"/>
<text text-anchor="middle" x="49.6895" y="-183.5" font-family="Helvetica,sans-Serif" font-size="10.00" fill="#000000">CType</text>
</a>
</g>
</g>
<!-- Node4&#45;&gt;Node3 -->
<g id="edge3" class="edge">
<title>Node4&#45;&gt;Node3</title>
<path fill="none" stroke="#191970" d="M49.6895,-167.2065C49.6895,-157.8384 49.6895,-147.0262 49.6895,-139.5752"/>
<polygon fill="#191970" stroke="#191970" points="46.1896,-167.2527 49.6895,-177.2527 53.1896,-167.2528 46.1896,-167.2527"/>
</g>
</g>
</svg>
