<?xml version="1.0" encoding="UTF-8" standalone="no"?>
<!DOCTYPE svg PUBLIC "-//W3C//DTD SVG 1.1//EN"
 "http://www.w3.org/Graphics/SVG/1.1/DTD/svg11.dtd">
<!-- Generated by graphviz version 2.40.1 (20161225.0304)
 -->
<!-- Title: NetworkBinaryResponse Pages: 1 -->
<svg width="203pt" height="148pt"
 viewBox="0.00 0.00 202.88 148.00" xmlns="http://www.w3.org/2000/svg" xmlns:xlink="http://www.w3.org/1999/xlink">
<g id="graph0" class="graph" transform="scale(1 1) rotate(0) translate(4 144)">
<title>NetworkBinaryResponse</title>
<polygon fill="#ffffff" stroke="transparent" points="-4,4 -4,-144 198.8765,-144 198.8765,4 -4,4"/>
<!-- Node1 -->
<g id="node1" class="node">
<title>Node1</title>
<polygon fill="#bfbfbf" stroke="#000000" points="0,-.5 0,-18.5 126.0488,-18.5 126.0488,-.5 0,-.5"/>
<text text-anchor="middle" x="63.0244" y="-6.5" font-family="Helvetica,sans-Serif" font-size="10.00" fill="#000000">NetworkBinaryResponse</text>
</g>
<!-- Node2 -->
<g id="node2" class="node">
<title>Node2</title>
<g id="a_node2"><a xlink:href="classlocomotor_1_1components_1_1network_1_1_network_response.html" target="_top" xlink:title="NetworkResponse">
<polygon fill="#ffffff" stroke="#000000" points="97.1724,-56.5 97.1724,-74.5 194.8765,-74.5 194.8765,-56.5 97.1724,-56.5"/>
<text text-anchor="middle" x="146.0244" y="-62.5" font-family="Helvetica,sans-Serif" font-size="10.00" fill="#000000">NetworkResponse</text>
</a>
</g>
</g>
<!-- Node2&#45;&gt;Node1 -->
<g id="edge1" class="edge">
<title>Node2&#45;&gt;Node1</title>
<path fill="none" stroke="#191970" d="M124.0188,-50.6528C108.9018,-40.4534 89.3192,-27.2411 76.4751,-18.5752"/>
<polygon fill="#191970" stroke="#191970" points="122.0714,-53.5611 132.3187,-56.2527 125.9866,-47.7583 122.0714,-53.5611"/>
</g>
<!-- Node3 -->
<g id="node3" class="node">
<title>Node3</title>
<polygon fill="#ffffff" stroke="#bfbfbf" points="3.6157,-121.5 3.6157,-139.5 82.4331,-139.5 82.4331,-121.5 3.6157,-121.5"/>
<text text-anchor="middle" x="43.0244" y="-127.5" font-family="Helvetica,sans-Serif" font-size="10.00" fill="#000000">HttpExchange</text>
</g>
<!-- Node3&#45;&gt;Node1 -->
<g id="edge3" class="edge">
<title>Node3&#45;&gt;Node1</title>
<path fill="none" stroke="#9a32cd" stroke-dasharray="5,2" d="M37.6974,-111.3443C34.3158,-96.1094 31.4134,-74.3764 36.3154,-56 40.0587,-41.9673 49.158,-27.7698 55.6955,-18.8191"/>
<polygon fill="#9a32cd" stroke="#9a32cd" points="34.3262,-112.2909 40.1397,-121.1483 41.1186,-110.5988 34.3262,-112.2909"/>
<text text-anchor="middle" x="62.8789" y="-62.5" font-family="Helvetica,sans-Serif" font-size="10.00" fill="#000000"> _exchange</text>
</g>
<!-- Node3&#45;&gt;Node2 -->
<g id="edge2" class="edge">
<title>Node3&#45;&gt;Node2</title>
<path fill="none" stroke="#9a32cd" stroke-dasharray="5,2" d="M65.8825,-116.075C85.9161,-103.4324 114.4285,-85.4391 131.4923,-74.6708"/>
<polygon fill="#9a32cd" stroke="#9a32cd" points="63.9351,-113.1652 57.3461,-121.462 67.6709,-119.085 63.9351,-113.1652"/>
<text text-anchor="middle" x="125.8789" y="-95" font-family="Helvetica,sans-Serif" font-size="10.00" fill="#000000"> _exchange</text>
</g>
</g>
</svg>
