<?xml version="1.0" encoding="UTF-8" standalone="no"?>
<!DOCTYPE svg PUBLIC "-//W3C//DTD SVG 1.1//EN"
 "http://www.w3.org/Graphics/SVG/1.1/DTD/svg11.dtd">
<!-- Generated by graphviz version 2.40.1 (20161225.0304)
 -->
<!-- Title: CMappedStringList Pages: 1 -->
<svg width="465pt" height="270pt"
 viewBox="0.00 0.00 465.03 270.00" xmlns="http://www.w3.org/2000/svg" xmlns:xlink="http://www.w3.org/1999/xlink">
<g id="graph0" class="graph" transform="scale(1 1) rotate(0) translate(4 266)">
<title>CMappedStringList</title>
<polygon fill="#ffffff" stroke="transparent" points="-4,4 -4,-266 461.0283,-266 461.0283,4 -4,4"/>
<!-- Node1 -->
<g id="node1" class="node">
<title>Node1</title>
<polygon fill="#bfbfbf" stroke="#000000" points="240.9312,-.5 240.9312,-18.5 341.9751,-18.5 341.9751,-.5 240.9312,-.5"/>
<text text-anchor="middle" x="291.4531" y="-6.5" font-family="Helvetica,sans-Serif" font-size="10.00" fill="#000000">CMappedStringList</text>
</g>
<!-- Node2 -->
<g id="node2" class="node">
<title>Node2</title>
<g id="a_node2"><a xlink:href="classlocomotor_1_1components_1_1types_1_1_c_string_list.html" target="_top" xlink:title="CStringList">
<polygon fill="#ffffff" stroke="#000000" points="195,-61.5 195,-79.5 259.9063,-79.5 259.9063,-61.5 195,-61.5"/>
<text text-anchor="middle" x="227.4531" y="-67.5" font-family="Helvetica,sans-Serif" font-size="10.00" fill="#000000">CStringList</text>
</a>
</g>
</g>
<!-- Node2&#45;&gt;Node1 -->
<g id="edge1" class="edge">
<title>Node2&#45;&gt;Node1</title>
<path fill="none" stroke="#191970" d="M244.1659,-54.5706C256.2096,-43.0915 272.0297,-28.013 281.971,-18.5377"/>
<polygon fill="#191970" stroke="#191970" points="241.7205,-52.0663 236.8965,-61.4992 246.5501,-57.1334 241.7205,-52.0663"/>
</g>
<!-- Node3 -->
<g id="node3" class="node">
<title>Node3</title>
<g id="a_node3"><a xlink:href="interfacelocomotor_1_1components_1_1types_1_1_c_universe_type.html" target="_top" xlink:title="CUniverseType">
<polygon fill="#ffffff" stroke="#000000" points="43.271,-131.5 43.271,-149.5 127.6353,-149.5 127.6353,-131.5 43.271,-131.5"/>
<text text-anchor="middle" x="85.4531" y="-137.5" font-family="Helvetica,sans-Serif" font-size="10.00" fill="#000000">CUniverseType</text>
</a>
</g>
</g>
<!-- Node3&#45;&gt;Node2 -->
<g id="edge2" class="edge">
<title>Node3&#45;&gt;Node2</title>
<path fill="none" stroke="#191970" d="M113.0356,-126.903C141.2616,-112.9888 184.3478,-91.7491 208.799,-79.6957"/>
<polygon fill="#191970" stroke="#191970" points="111.1483,-123.9311 103.7264,-131.492 114.2434,-130.2097 111.1483,-123.9311"/>
</g>
<!-- Node4 -->
<g id="node4" class="node">
<title>Node4</title>
<g id="a_node4"><a xlink:href="interfacelocomotor_1_1components_1_1types_1_1_c_type.html" target="_top" xlink:title="CType">
<polygon fill="#ffffff" stroke="#000000" points="0,-243.5 0,-261.5 44.9063,-261.5 44.9063,-243.5 0,-243.5"/>
<text text-anchor="middle" x="22.4531" y="-249.5" font-family="Helvetica,sans-Serif" font-size="10.00" fill="#000000">CType</text>
</a>
</g>
</g>
<!-- Node4&#45;&gt;Node3 -->
<g id="edge3" class="edge">
<title>Node4&#45;&gt;Node3</title>
<path fill="none" stroke="#191970" d="M20.8065,-233.2163C20.4913,-219.5402 21.854,-201.1737 29.4531,-187 38.2904,-170.5168 55.6264,-157.5507 68.6808,-149.5442"/>
<polygon fill="#191970" stroke="#191970" points="17.3229,-233.6129 21.3658,-243.406 24.3124,-233.2292 17.3229,-233.6129"/>
</g>
<!-- Node7 -->
<g id="node7" class="node">
<title>Node7</title>
<g id="a_node7"><a xlink:href="interfacelocomotor_1_1components_1_1types_1_1_c_comparable_type.html" target="_top" xlink:title="CComparableType">
<polygon fill="#ffffff" stroke="#000000" points="150.7637,-187.5 150.7637,-205.5 250.1426,-205.5 250.1426,-187.5 150.7637,-187.5"/>
<text text-anchor="middle" x="200.4531" y="-193.5" font-family="Helvetica,sans-Serif" font-size="10.00" fill="#000000">CComparableType</text>
</a>
</g>
</g>
<!-- Node4&#45;&gt;Node7 -->
<g id="edge7" class="edge">
<title>Node4&#45;&gt;Node7</title>
<path fill="none" stroke="#191970" d="M54.7162,-242.3498C88.0526,-231.862 139.6032,-215.6438 171.6194,-205.5713"/>
<polygon fill="#191970" stroke="#191970" points="53.4856,-239.0678 44.9969,-245.4076 55.5864,-245.7451 53.4856,-239.0678"/>
</g>
<!-- Node5 -->
<g id="node5" class="node">
<title>Node5</title>
<g id="a_node5"><a xlink:href="interfacelocomotor_1_1components_1_1_j_s_o_n_displayable.html" target="_top" xlink:title="JSONDisplayable">
<polygon fill="#ffffff" stroke="#000000" points="38.271,-187.5 38.271,-205.5 132.6353,-205.5 132.6353,-187.5 38.271,-187.5"/>
<text text-anchor="middle" x="85.4531" y="-193.5" font-family="Helvetica,sans-Serif" font-size="10.00" fill="#000000">JSONDisplayable</text>
</a>
</g>
</g>
<!-- Node5&#45;&gt;Node3 -->
<g id="edge4" class="edge">
<title>Node5&#45;&gt;Node3</title>
<path fill="none" stroke="#191970" d="M85.4531,-177.2065C85.4531,-167.8384 85.4531,-157.0262 85.4531,-149.5752"/>
<polygon fill="#191970" stroke="#191970" points="81.9532,-177.2527 85.4531,-187.2527 88.9532,-177.2528 81.9532,-177.2527"/>
</g>
<!-- Node6 -->
<g id="node6" class="node">
<title>Node6</title>
<g id="a_node6"><a xlink:href="interfacelocomotor_1_1components_1_1types_1_1_c_item_type.html" target="_top" xlink:title="CItemType">
<polygon fill="#ffffff" stroke="#000000" points="155.2759,-131.5 155.2759,-149.5 219.6304,-149.5 219.6304,-131.5 155.2759,-131.5"/>
<text text-anchor="middle" x="187.4531" y="-137.5" font-family="Helvetica,sans-Serif" font-size="10.00" fill="#000000">CItemType</text>
</a>
</g>
</g>
<!-- Node5&#45;&gt;Node6 -->
<g id="edge8" class="edge">
<title>Node5&#45;&gt;Node6</title>
<path fill="none" stroke="#191970" d="M111.2032,-182.3627C129.9446,-172.0733 154.7702,-158.4436 170.9233,-149.5752"/>
<polygon fill="#191970" stroke="#191970" points="109.3777,-179.3721 102.2964,-187.2527 112.7466,-185.5081 109.3777,-179.3721"/>
</g>
<!-- Node6&#45;&gt;Node2 -->
<g id="edge5" class="edge">
<title>Node6&#45;&gt;Node2</title>
<path fill="none" stroke="#191970" d="M197.7939,-122.4037C205.5671,-108.8006 215.9021,-90.7142 222.0949,-79.8769"/>
<polygon fill="#191970" stroke="#191970" points="194.605,-120.9298 192.6824,-131.3487 200.6827,-124.4028 194.605,-120.9298"/>
</g>
<!-- Node7&#45;&gt;Node6 -->
<g id="edge6" class="edge">
<title>Node7&#45;&gt;Node6</title>
<path fill="none" stroke="#191970" d="M196.0451,-177.5115C193.8542,-168.0738 191.3084,-157.1072 189.5599,-149.5752"/>
<polygon fill="#191970" stroke="#191970" points="192.6357,-178.3032 198.3064,-187.2527 199.4544,-176.7203 192.6357,-178.3032"/>
</g>
<!-- Node9 -->
<g id="node9" class="node">
<title>Node9</title>
<g id="a_node9"><a xlink:href="interfacelocomotor_1_1components_1_1types_1_1_c_user_type.html" target="_top" xlink:title="CUserType">
<polygon fill="#ffffff" stroke="#000000" points="237.4434,-131.5 237.4434,-149.5 303.4629,-149.5 303.4629,-131.5 237.4434,-131.5"/>
<text text-anchor="middle" x="270.4531" y="-137.5" font-family="Helvetica,sans-Serif" font-size="10.00" fill="#000000">CUserType</text>
</a>
</g>
</g>
<!-- Node7&#45;&gt;Node9 -->
<g id="edge11" class="edge">
<title>Node7&#45;&gt;Node9</title>
<path fill="none" stroke="#191970" d="M220.0932,-180.788C232.683,-170.7161 248.5805,-157.9981 259.1091,-149.5752"/>
<polygon fill="#191970" stroke="#191970" points="217.6345,-178.2727 212.0122,-187.2527 222.0074,-183.7388 217.6345,-178.2727"/>
</g>
<!-- Node8 -->
<g id="node8" class="node">
<title>Node8</title>
<g id="a_node8"><a xlink:href="interfacelocomotor_1_1components_1_1_j_s_o_n_convertissable.html" target="_top" xlink:title="JSONConvertissable">
<polygon fill="#ffffff" stroke="#000000" points="268.0469,-187.5 268.0469,-205.5 376.8594,-205.5 376.8594,-187.5 268.0469,-187.5"/>
<text text-anchor="middle" x="322.4531" y="-193.5" font-family="Helvetica,sans-Serif" font-size="10.00" fill="#000000">JSONConvertissable</text>
</a>
</g>
</g>
<!-- Node8&#45;&gt;Node6 -->
<g id="edge9" class="edge">
<title>Node8&#45;&gt;Node6</title>
<path fill="none" stroke="#191970" d="M291.0399,-183.4693C266.0063,-173.085 231.593,-158.8099 209.4343,-149.6181"/>
<polygon fill="#191970" stroke="#191970" points="289.8847,-186.7793 300.4626,-187.378 292.5668,-180.3135 289.8847,-186.7793"/>
</g>
<!-- Node8&#45;&gt;Node9 -->
<g id="edge12" class="edge">
<title>Node8&#45;&gt;Node9</title>
<path fill="none" stroke="#191970" d="M307.0481,-179.9099C297.833,-169.986 286.4758,-157.7551 278.8801,-149.5752"/>
<polygon fill="#191970" stroke="#191970" points="304.4971,-182.3064 313.8664,-187.2527 309.6266,-177.5432 304.4971,-182.3064"/>
</g>
<!-- Node9&#45;&gt;Node2 -->
<g id="edge10" class="edge">
<title>Node9&#45;&gt;Node2</title>
<path fill="none" stroke="#191970" d="M259.5794,-122.7986C251.1968,-109.1524 239.9351,-90.8194 233.2132,-79.8769"/>
<polygon fill="#191970" stroke="#191970" points="256.6151,-124.6599 264.8316,-131.3487 262.5797,-120.996 256.6151,-124.6599"/>
</g>
<!-- Node10 -->
<g id="node10" class="node">
<title>Node10</title>
<polygon fill="#ffffff" stroke="#bfbfbf" points="321.8779,-131.5 321.8779,-149.5 457.0283,-149.5 457.0283,-131.5 321.8779,-131.5"/>
<text text-anchor="middle" x="389.4531" y="-137.5" font-family="Helvetica,sans-Serif" font-size="10.00" fill="#000000">TreeMap&lt; Integer, String &gt;</text>
</g>
<!-- Node10&#45;&gt;Node2 -->
<g id="edge13" class="edge">
<title>Node10&#45;&gt;Node2</title>
<path fill="none" stroke="#9a32cd" stroke-dasharray="5,2" d="M359.2149,-127.4341C326.9492,-113.4921 276.6816,-91.7716 248.4767,-79.5843"/>
<polygon fill="#9a32cd" stroke="#9a32cd" points="358.0381,-130.7383 368.6061,-131.492 360.8147,-124.3125 358.0381,-130.7383"/>
<text text-anchor="middle" x="342.0762" y="-105" font-family="Helvetica,sans-Serif" font-size="10.00" fill="#000000"> _values</text>
</g>
<!-- Node11 -->
<g id="node11" class="node">
<title>Node11</title>
<g id="a_node11"><a xlink:href="interfacelocomotor_1_1components_1_1types_1_1_c_comparable.html" target="_top" xlink:title="CComparable\&lt; CMappedString\lList, CGraphStringList \&gt;">
<polygon fill="#ffffff" stroke="#000000" points="277.5557,-56.5 277.5557,-84.5 433.3506,-84.5 433.3506,-56.5 277.5557,-56.5"/>
<text text-anchor="start" x="285.5557" y="-72.5" font-family="Helvetica,sans-Serif" font-size="10.00" fill="#000000">CComparable&lt; CMappedString</text>
<text text-anchor="middle" x="355.4531" y="-62.5" font-family="Helvetica,sans-Serif" font-size="10.00" fill="#000000">List, CGraphStringList &gt;</text>
</a>
</g>
</g>
<!-- Node11&#45;&gt;Node1 -->
<g id="edge14" class="edge">
<title>Node11&#45;&gt;Node1</title>
<path fill="none" stroke="#191970" d="M333.0613,-49.1578C322.1874,-38.7936 309.682,-26.8744 301.243,-18.831"/>
<polygon fill="#191970" stroke="#191970" points="330.9559,-51.9862 340.6094,-56.3521 335.7855,-46.9191 330.9559,-51.9862"/>
</g>
</g>
</svg>
