<?xml version="1.0" encoding="UTF-8" standalone="no"?>
<!DOCTYPE svg PUBLIC "-//W3C//DTD SVG 1.1//EN"
 "http://www.w3.org/Graphics/SVG/1.1/DTD/svg11.dtd">
<!-- Generated by graphviz version 2.40.1 (20161225.0304)
 -->
<!-- Title: addChild Pages: 1 -->
<!--zoomable 225 -->
<svg id="main" version="1.1" xmlns="http://www.w3.org/2000/svg" xmlns:xlink="http://www.w3.org/1999/xlink" xml:space="preserve" onload="init(evt)">
<style type="text/css"><![CDATA[
.edge:hover path { stroke: red; }
.edge:hover polygon { stroke: red; fill: red; }
]]></style>
<script type="text/javascript"><![CDATA[
var edges = document.getElementsByTagName('g');
if (edges && edges.length) {
  for (var i=0;i<edges.length;i++) {
    if (edges[i].id.substr(0,4)=='edge') {
      edges[i].setAttribute('class','edge');
    }
  }
}
]]></script>
        <defs>
                <circle id="rim" cx="0" cy="0" r="7"/>
                <circle id="rim2" cx="0" cy="0" r="3.5"/>
                <g id="zoomPlus">
                        <use xlink:href="#rim" fill="#404040">
                                <set attributeName="fill" to="#808080" begin="zoomplus.mouseover" end="zoomplus.mouseout"/>
                        </use>
                        <path d="M-4,0h8M0,-4v8" fill="none" stroke="white" stroke-width="1.5" pointer-events="none"/>
                </g>
                <g id="zoomMin">
                        <use xlink:href="#rim" fill="#404040">
                                <set attributeName="fill" to="#808080" begin="zoomminus.mouseover" end="zoomminus.mouseout"/>
                        </use>
                        <path d="M-4,0h8" fill="none" stroke="white" stroke-width="1.5" pointer-events="none"/>
                </g>
                <g id="dirArrow">
                        <path fill="none" stroke="white" stroke-width="1.5" d="M0,-3.0v7 M-2.5,-0.5L0,-3.0L2.5,-0.5"/>
                </g>
               <g id="resetDef">
                       <use xlink:href="#rim2" fill="#404040">
                               <set attributeName="fill" to="#808080" begin="reset.mouseover" end="reset.mouseout"/>
                       </use>
               </g>
        </defs>

<script type="text/javascript">
var viewWidth = 1284;
var viewHeight = 225;
var sectionId = 'dynsection-4';
</script>
<script xlink:href="svgpan.js"/>
<svg id="graph" class="graph">
<g id="viewport">
<title>addChild</title>
<polygon fill="#ffffff" stroke="transparent" points="-4,4 -4,-221 1279.8057,-221 1279.8057,4 -4,4"/>
<!-- Node1 -->
<g id="node1" class="node">
<title>Node1</title>
<polygon fill="#bfbfbf" stroke="#000000" points="0,-123.5 0,-141.5 55.4727,-141.5 55.4727,-123.5 0,-123.5"/>
<text text-anchor="middle" x="27.7363" y="-129.5" font-family="Helvetica,sans-Serif" font-size="10.00" fill="#000000">addChild</text>
</g>
<!-- Node2 -->
<g id="node2" class="node">
<title>Node2</title>
<g id="a_node2"><a xlink:href="classlocomotor_1_1components_1_1types_1_1_c_tree.html#a82724a3000f4e1d5ff5fed5365e1480f" target="_top" xlink:title="fromJSON">
<polygon fill="#ffffff" stroke="#000000" points="91.4727,-146.5 91.4727,-164.5 154.1426,-164.5 154.1426,-146.5 91.4727,-146.5"/>
<text text-anchor="middle" x="122.8076" y="-152.5" font-family="Helvetica,sans-Serif" font-size="10.00" fill="#000000">fromJSON</text>
</a>
</g>
</g>
<!-- Node1&#45;&gt;Node2 -->
<g id="edge1" class="edge">
<title>Node1&#45;&gt;Node2</title>
<path fill="none" stroke="#191970" d="M65.275,-141.5815C73.8482,-143.6556 82.8758,-145.8396 91.173,-147.8468"/>
<polygon fill="#191970" stroke="#191970" points="66.0331,-138.164 55.4905,-139.2144 64.3871,-144.9677 66.0331,-138.164"/>
</g>
<!-- Node13 -->
<g id="node13" class="node">
<title>Node13</title>
<g id="a_node13"><a xlink:href="classlocomotor_1_1components_1_1types_1_1_type_factory.html#aa1f74ce70c02a7665f32b4ec438a6c3c" target="_top" xlink:title="locomotor.components.types.\lTypeFactory.getTree">
<polygon fill="#ffffff" stroke="#000000" points="192.54,-71.5 192.54,-99.5 338.6133,-99.5 338.6133,-71.5 192.54,-71.5"/>
<text text-anchor="start" x="200.54" y="-87.5" font-family="Helvetica,sans-Serif" font-size="10.00" fill="#000000">locomotor.components.types.</text>
<text text-anchor="middle" x="265.5767" y="-77.5" font-family="Helvetica,sans-Serif" font-size="10.00" fill="#000000">TypeFactory.getTree</text>
</a>
</g>
</g>
<!-- Node1&#45;&gt;Node13 -->
<g id="edge14" class="edge">
<title>Node1&#45;&gt;Node13</title>
<path fill="none" stroke="#191970" d="M65.6349,-125.0108C100.2425,-118.1719 152.3036,-107.8841 194.6263,-99.5206"/>
<polygon fill="#191970" stroke="#191970" points="64.6169,-121.6442 55.4851,-127.0165 65.974,-128.5114 64.6169,-121.6442"/>
</g>
<!-- Node2&#45;&gt;Node2 -->
<g id="edge2" class="edge">
<title>Node2&#45;&gt;Node2</title>
<path fill="none" stroke="#191970" d="M105.3311,-174.2336C106.3107,-179.2195 112.1362,-183 122.8076,-183 139.8818,-183 144.5506,-173.322 136.8138,-164.5134"/>
<polygon fill="#191970" stroke="#191970" points="108.7353,-175.1081 108.8014,-164.5134 102.1428,-172.7544 108.7353,-175.1081"/>
</g>
<!-- Node3 -->
<g id="node3" class="node">
<title>Node3</title>
<g id="a_node3"><a xlink:href="classlocomotor_1_1components_1_1types_1_1_type_factory.html#a8827604831ff8a1764b7639c82820497" target="_top" xlink:title="locomotor.components.types.\lTypeFactory.getItemFromJson">
<polygon fill="#ffffff" stroke="#000000" points="190.1426,-188.5 190.1426,-216.5 341.0107,-216.5 341.0107,-188.5 190.1426,-188.5"/>
<text text-anchor="start" x="198.1426" y="-204.5" font-family="Helvetica,sans-Serif" font-size="10.00" fill="#000000">locomotor.components.types.</text>
<text text-anchor="middle" x="265.5767" y="-194.5" font-family="Helvetica,sans-Serif" font-size="10.00" fill="#000000">TypeFactory.getItemFromJson</text>
</a>
</g>
</g>
<!-- Node2&#45;&gt;Node3 -->
<g id="edge3" class="edge">
<title>Node2&#45;&gt;Node3</title>
<path fill="none" stroke="#191970" d="M157.062,-168.0558C167.634,-171.8374 179.3375,-175.9293 190.1426,-179.5 199.2425,-182.5072 209.006,-185.5896 218.3898,-188.4811"/>
<polygon fill="#191970" stroke="#191970" points="157.9332,-164.6495 147.3388,-164.5524 155.5603,-171.2351 157.9332,-164.6495"/>
</g>
<!-- Node9 -->
<g id="node9" class="node">
<title>Node9</title>
<g id="a_node9"><a xlink:href="classlocomotor_1_1components_1_1types_1_1_type_factory.html#a1a64701bf13afa82b6b32bf422a171e2" target="_top" xlink:title="locomotor.components.types.\lTypeFactory.getUser">
<polygon fill="#ffffff" stroke="#000000" points="192.54,-141.5 192.54,-169.5 338.6133,-169.5 338.6133,-141.5 192.54,-141.5"/>
<text text-anchor="start" x="200.54" y="-157.5" font-family="Helvetica,sans-Serif" font-size="10.00" fill="#000000">locomotor.components.types.</text>
<text text-anchor="middle" x="265.5767" y="-147.5" font-family="Helvetica,sans-Serif" font-size="10.00" fill="#000000">TypeFactory.getUser</text>
</a>
</g>
</g>
<!-- Node2&#45;&gt;Node9 -->
<g id="edge9" class="edge">
<title>Node2&#45;&gt;Node9</title>
<path fill="none" stroke="#191970" d="M164.7694,-155.5C173.5225,-155.5 182.991,-155.5 192.4996,-155.5"/>
<polygon fill="#191970" stroke="#191970" points="164.4927,-152.0001 154.4927,-155.5 164.4927,-159.0001 164.4927,-152.0001"/>
</g>
<!-- Node4 -->
<g id="node4" class="node">
<title>Node4</title>
<g id="a_node4"><a xlink:href="classlocomotor_1_1components_1_1models_1_1_item_criteria_full.html#a436730a3499b6d7b1d0359e12aa2f04a" target="_top" xlink:title="locomotor.components.models.\lItemCriteriaFull.fromJSON">
<polygon fill="#ffffff" stroke="#000000" points="377.0107,-188.5 377.0107,-216.5 531.4189,-216.5 531.4189,-188.5 377.0107,-188.5"/>
<text text-anchor="start" x="385.0107" y="-204.5" font-family="Helvetica,sans-Serif" font-size="10.00" fill="#000000">locomotor.components.models.</text>
<text text-anchor="middle" x="454.2148" y="-194.5" font-family="Helvetica,sans-Serif" font-size="10.00" fill="#000000">ItemCriteriaFull.fromJSON</text>
</a>
</g>
</g>
<!-- Node3&#45;&gt;Node4 -->
<g id="edge4" class="edge">
<title>Node3&#45;&gt;Node4</title>
<path fill="none" stroke="#191970" d="M351.4309,-202.5C359.8571,-202.5 368.3742,-202.5 376.7102,-202.5"/>
<polygon fill="#191970" stroke="#191970" points="351.2161,-199.0001 341.2161,-202.5 351.2161,-206.0001 351.2161,-199.0001"/>
</g>
<!-- Node5 -->
<g id="node5" class="node">
<title>Node5</title>
<g id="a_node5"><a xlink:href="classlocomotor_1_1components_1_1models_1_1_item_category_full.html#a50ab7c0f8e4a65f80ca141f1fa1c7df8" target="_top" xlink:title="locomotor.components.models.\lItemCategoryFull.fromJSON">
<polygon fill="#ffffff" stroke="#000000" points="567.4189,-188.5 567.4189,-216.5 721.8271,-216.5 721.8271,-188.5 567.4189,-188.5"/>
<text text-anchor="start" x="575.4189" y="-204.5" font-family="Helvetica,sans-Serif" font-size="10.00" fill="#000000">locomotor.components.models.</text>
<text text-anchor="middle" x="644.623" y="-194.5" font-family="Helvetica,sans-Serif" font-size="10.00" fill="#000000">ItemCategoryFull.fromJSON</text>
</a>
</g>
</g>
<!-- Node4&#45;&gt;Node5 -->
<g id="edge5" class="edge">
<title>Node4&#45;&gt;Node5</title>
<path fill="none" stroke="#191970" d="M541.9152,-202.5C550.3688,-202.5 558.9018,-202.5 567.2454,-202.5"/>
<polygon fill="#191970" stroke="#191970" points="541.6612,-199.0001 531.6611,-202.5 541.6611,-206.0001 541.6612,-199.0001"/>
</g>
<!-- Node6 -->
<g id="node6" class="node">
<title>Node6</title>
<g id="a_node6"><a xlink:href="classlocomotor_1_1components_1_1models_1_1_item_full.html#afe56c5f49cb59d04ec69bbf32b58a2f8" target="_top" xlink:title="locomotor.components.models.\lItemFull.fromJSON">
<polygon fill="#ffffff" stroke="#000000" points="759.7705,-188.5 759.7705,-216.5 914.1787,-216.5 914.1787,-188.5 759.7705,-188.5"/>
<text text-anchor="start" x="767.7705" y="-204.5" font-family="Helvetica,sans-Serif" font-size="10.00" fill="#000000">locomotor.components.models.</text>
<text text-anchor="middle" x="836.9746" y="-194.5" font-family="Helvetica,sans-Serif" font-size="10.00" fill="#000000">ItemFull.fromJSON</text>
</a>
</g>
</g>
<!-- Node5&#45;&gt;Node6 -->
<g id="edge6" class="edge">
<title>Node5&#45;&gt;Node6</title>
<path fill="none" stroke="#191970" d="M732.2986,-202.5C741.4498,-202.5 750.7045,-202.5 759.7278,-202.5"/>
<polygon fill="#191970" stroke="#191970" points="732.0284,-199.0001 722.0283,-202.5 732.0283,-206.0001 732.0284,-199.0001"/>
</g>
<!-- Node7 -->
<g id="node7" class="node">
<title>Node7</title>
<g id="a_node7"><a xlink:href="classlocomotor_1_1components_1_1network_1_1_a_p_i.html#a547463fbc7fb7b485886f0917e2c0b78" target="_top" xlink:title="locomotor.components.network.\lAPI.createHooks">
<polygon fill="#ffffff" stroke="#000000" points="952.1221,-98.5 952.1221,-126.5 1109.3086,-126.5 1109.3086,-98.5 952.1221,-98.5"/>
<text text-anchor="start" x="960.1221" y="-114.5" font-family="Helvetica,sans-Serif" font-size="10.00" fill="#000000">locomotor.components.network.</text>
<text text-anchor="middle" x="1030.7153" y="-104.5" font-family="Helvetica,sans-Serif" font-size="10.00" fill="#000000">API.createHooks</text>
</a>
</g>
</g>
<!-- Node6&#45;&gt;Node7 -->
<g id="edge7" class="edge">
<title>Node6&#45;&gt;Node7</title>
<path fill="none" stroke="#191970" d="M901.6567,-185.1453C906.6036,-183.3812 911.4756,-181.4971 916.1221,-179.5 950.6336,-164.6664 987.6542,-141.56 1009.9974,-126.7293"/>
<polygon fill="#191970" stroke="#191970" points="900.4379,-181.8628 892.0911,-188.3883 902.6855,-188.4922 900.4379,-181.8628"/>
</g>
<!-- Node8 -->
<g id="node8" class="node">
<title>Node8</title>
<g id="a_node8"><a xlink:href="classlocomotor_1_1core_1_1_main.html#a8b260eecbaabcef8473fd87ada040682" target="_top" xlink:title="locomotor.core.Main.main">
<polygon fill="#ffffff" stroke="#000000" points="1145.3086,-103.5 1145.3086,-121.5 1275.8057,-121.5 1275.8057,-103.5 1145.3086,-103.5"/>
<text text-anchor="middle" x="1210.5571" y="-109.5" font-family="Helvetica,sans-Serif" font-size="10.00" fill="#000000">locomotor.core.Main.main</text>
</a>
</g>
</g>
<!-- Node7&#45;&gt;Node8 -->
<g id="edge8" class="edge">
<title>Node7&#45;&gt;Node8</title>
<path fill="none" stroke="#191970" d="M1119.5084,-112.5C1128.1967,-112.5 1136.899,-112.5 1145.2909,-112.5"/>
<polygon fill="#191970" stroke="#191970" points="1119.335,-109.0001 1109.3349,-112.5 1119.3349,-116.0001 1119.335,-109.0001"/>
</g>
<!-- Node10 -->
<g id="node10" class="node">
<title>Node10</title>
<g id="a_node10"><a xlink:href="classlocomotor_1_1components_1_1models_1_1_user_criteria.html#aaca1c5ec640a1453943ce97d40e12a63" target="_top" xlink:title="locomotor.components.models.\lUserCriteria.fromJSON">
<polygon fill="#ffffff" stroke="#000000" points="377.0107,-141.5 377.0107,-169.5 531.4189,-169.5 531.4189,-141.5 377.0107,-141.5"/>
<text text-anchor="start" x="385.0107" y="-157.5" font-family="Helvetica,sans-Serif" font-size="10.00" fill="#000000">locomotor.components.models.</text>
<text text-anchor="middle" x="454.2148" y="-147.5" font-family="Helvetica,sans-Serif" font-size="10.00" fill="#000000">UserCriteria.fromJSON</text>
</a>
</g>
</g>
<!-- Node9&#45;&gt;Node10 -->
<g id="edge10" class="edge">
<title>Node9&#45;&gt;Node10</title>
<path fill="none" stroke="#191970" d="M348.8582,-155.5C358.2162,-155.5 367.7212,-155.5 376.9979,-155.5"/>
<polygon fill="#191970" stroke="#191970" points="348.7791,-152.0001 338.7791,-155.5 348.7791,-159.0001 348.7791,-152.0001"/>
</g>
<!-- Node11 -->
<g id="node11" class="node">
<title>Node11</title>
<g id="a_node11"><a xlink:href="classlocomotor_1_1components_1_1models_1_1_user_category.html#a52e02970889790bace019e61fb256ff0" target="_top" xlink:title="locomotor.components.models.\lUserCategory.fromJSON">
<polygon fill="#ffffff" stroke="#000000" points="567.4189,-141.5 567.4189,-169.5 721.8271,-169.5 721.8271,-141.5 567.4189,-141.5"/>
<text text-anchor="start" x="575.4189" y="-157.5" font-family="Helvetica,sans-Serif" font-size="10.00" fill="#000000">locomotor.components.models.</text>
<text text-anchor="middle" x="644.623" y="-147.5" font-family="Helvetica,sans-Serif" font-size="10.00" fill="#000000">UserCategory.fromJSON</text>
</a>
</g>
</g>
<!-- Node10&#45;&gt;Node11 -->
<g id="edge11" class="edge">
<title>Node10&#45;&gt;Node11</title>
<path fill="none" stroke="#191970" d="M541.9152,-155.5C550.3688,-155.5 558.9018,-155.5 567.2454,-155.5"/>
<polygon fill="#191970" stroke="#191970" points="541.6612,-152.0001 531.6611,-155.5 541.6611,-159.0001 541.6612,-152.0001"/>
</g>
<!-- Node12 -->
<g id="node12" class="node">
<title>Node12</title>
<g id="a_node12"><a xlink:href="classlocomotor_1_1components_1_1models_1_1_user_item.html#ab97f79cf43a9a73bcd77cec6b449a79a" target="_top" xlink:title="locomotor.components.models.\lUserItem.fromJSON">
<polygon fill="#ffffff" stroke="#000000" points="759.7705,-141.5 759.7705,-169.5 914.1787,-169.5 914.1787,-141.5 759.7705,-141.5"/>
<text text-anchor="start" x="767.7705" y="-157.5" font-family="Helvetica,sans-Serif" font-size="10.00" fill="#000000">locomotor.components.models.</text>
<text text-anchor="middle" x="836.9746" y="-147.5" font-family="Helvetica,sans-Serif" font-size="10.00" fill="#000000">UserItem.fromJSON</text>
</a>
</g>
</g>
<!-- Node11&#45;&gt;Node12 -->
<g id="edge12" class="edge">
<title>Node11&#45;&gt;Node12</title>
<path fill="none" stroke="#191970" d="M732.2986,-155.5C741.4498,-155.5 750.7045,-155.5 759.7278,-155.5"/>
<polygon fill="#191970" stroke="#191970" points="732.0284,-152.0001 722.0283,-155.5 732.0283,-159.0001 732.0284,-152.0001"/>
</g>
<!-- Node12&#45;&gt;Node7 -->
<g id="edge13" class="edge">
<title>Node12&#45;&gt;Node7</title>
<path fill="none" stroke="#191970" d="M909.9352,-139.3067C928.9175,-135.0936 949.2065,-130.5906 967.6313,-126.5013"/>
<polygon fill="#191970" stroke="#191970" points="909.1485,-135.896 900.1445,-141.4797 910.6653,-142.7297 909.1485,-135.896"/>
</g>
<!-- Node14 -->
<g id="node14" class="node">
<title>Node14</title>
<g id="a_node14"><a xlink:href="classlocomotor_1_1components_1_1types_1_1_type_factory.html#a98370bb7e619d26989b8bd6032f1468d" target="_top" xlink:title="locomotor.components.types.\lTypeFactory.getUniverse">
<polygon fill="#ffffff" stroke="#000000" points="381.1782,-94.5 381.1782,-122.5 527.2515,-122.5 527.2515,-94.5 381.1782,-94.5"/>
<text text-anchor="start" x="389.1782" y="-110.5" font-family="Helvetica,sans-Serif" font-size="10.00" fill="#000000">locomotor.components.types.</text>
<text text-anchor="middle" x="454.2148" y="-100.5" font-family="Helvetica,sans-Serif" font-size="10.00" fill="#000000">TypeFactory.getUniverse</text>
</a>
</g>
</g>
<!-- Node13&#45;&gt;Node14 -->
<g id="edge15" class="edge">
<title>Node13&#45;&gt;Node14</title>
<path fill="none" stroke="#191970" d="M348.9569,-95.6663C359.6523,-96.9703 370.5379,-98.2976 381.0535,-99.5797"/>
<polygon fill="#191970" stroke="#191970" points="349.1292,-92.1614 338.7791,-94.4253 348.282,-99.11 349.1292,-92.1614"/>
</g>
<!-- Node15 -->
<g id="node15" class="node">
<title>Node15</title>
<g id="a_node15"><a xlink:href="classlocomotor_1_1components_1_1types_1_1_type_factory.html#a5f92827e8d1d5348ebff49dc8bae4f65" target="_top" xlink:title="locomotor.components.types.\lTypeFactory.getItem">
<polygon fill="#ffffff" stroke="#000000" points="381.1782,-47.5 381.1782,-75.5 527.2515,-75.5 527.2515,-47.5 381.1782,-47.5"/>
<text text-anchor="start" x="389.1782" y="-63.5" font-family="Helvetica,sans-Serif" font-size="10.00" fill="#000000">locomotor.components.types.</text>
<text text-anchor="middle" x="454.2148" y="-53.5" font-family="Helvetica,sans-Serif" font-size="10.00" fill="#000000">TypeFactory.getItem</text>
</a>
</g>
</g>
<!-- Node13&#45;&gt;Node15 -->
<g id="edge16" class="edge">
<title>Node13&#45;&gt;Node15</title>
<path fill="none" stroke="#191970" d="M348.9569,-74.8917C359.6523,-73.531 370.5379,-72.146 381.0535,-70.8081"/>
<polygon fill="#191970" stroke="#191970" points="348.2574,-71.4524 338.7791,-76.1866 349.1409,-78.3964 348.2574,-71.4524"/>
</g>
<!-- Node20 -->
<g id="node20" class="node">
<title>Node20</title>
<g id="a_node20"><a xlink:href="classlocomotor_1_1components_1_1types_1_1_type_factory.html#a4a713ccc930ad511f78317f186f12f12" target="_top" xlink:title="locomotor.components.types.\lTypeFactory.getTree">
<polygon fill="#ffffff" stroke="#000000" points="381.1782,-.5 381.1782,-28.5 527.2515,-28.5 527.2515,-.5 381.1782,-.5"/>
<text text-anchor="start" x="389.1782" y="-16.5" font-family="Helvetica,sans-Serif" font-size="10.00" fill="#000000">locomotor.components.types.</text>
<text text-anchor="middle" x="454.2148" y="-6.5" font-family="Helvetica,sans-Serif" font-size="10.00" fill="#000000">TypeFactory.getTree</text>
</a>
</g>
</g>
<!-- Node13&#45;&gt;Node20 -->
<g id="edge24" class="edge">
<title>Node13&#45;&gt;Node20</title>
<path fill="none" stroke="#191970" d="M304.7628,-67.2842C325.9186,-57.7911 352.6277,-46.349 377.0107,-37.5 385.5561,-34.3988 394.7392,-31.3896 403.6853,-28.6257"/>
<polygon fill="#191970" stroke="#191970" points="303.1298,-64.1814 295.4617,-71.4924 306.0154,-70.559 303.1298,-64.1814"/>
</g>
<!-- Node16 -->
<g id="node16" class="node">
<title>Node16</title>
<g id="a_node16"><a xlink:href="classlocomotor_1_1core_1_1_d_b_h.html#ae573347d7e17b2bf2bac3c4a41caf0fa" target="_top" xlink:title="locomotor.core.DBH.getItem">
<polygon fill="#ffffff" stroke="#000000" points="573.8179,-98.5 573.8179,-116.5 715.4282,-116.5 715.4282,-98.5 573.8179,-98.5"/>
<text text-anchor="middle" x="644.623" y="-104.5" font-family="Helvetica,sans-Serif" font-size="10.00" fill="#000000">locomotor.core.DBH.getItem</text>
</a>
</g>
</g>
<!-- Node15&#45;&gt;Node16 -->
<g id="edge17" class="edge">
<title>Node15&#45;&gt;Node16</title>
<path fill="none" stroke="#191970" d="M522.3227,-77.9539C550.9101,-84.8602 583.0532,-92.6256 607.2104,-98.4616"/>
<polygon fill="#191970" stroke="#191970" points="522.9205,-74.4977 512.3782,-75.5515 521.2766,-81.302 522.9205,-74.4977"/>
</g>
<!-- Node17 -->
<g id="node17" class="node">
<title>Node17</title>
<g id="a_node17"><a xlink:href="classlocomotor_1_1core_1_1_d_b_h.html#ad067053be75a3170dc9c2ce7b922e176" target="_top" xlink:title="locomotor.core.DBH.checking\lParsingItem">
<polygon fill="#ffffff" stroke="#000000" points="570.7588,-47.5 570.7588,-75.5 718.4873,-75.5 718.4873,-47.5 570.7588,-47.5"/>
<text text-anchor="start" x="578.7588" y="-63.5" font-family="Helvetica,sans-Serif" font-size="10.00" fill="#000000">locomotor.core.DBH.checking</text>
<text text-anchor="middle" x="644.623" y="-53.5" font-family="Helvetica,sans-Serif" font-size="10.00" fill="#000000">ParsingItem</text>
</a>
</g>
</g>
<!-- Node15&#45;&gt;Node17 -->
<g id="edge19" class="edge">
<title>Node15&#45;&gt;Node17</title>
<path fill="none" stroke="#191970" d="M537.3386,-61.5C548.3698,-61.5 559.6209,-61.5 570.4866,-61.5"/>
<polygon fill="#191970" stroke="#191970" points="537.2871,-58.0001 527.2871,-61.5 537.287,-65.0001 537.2871,-58.0001"/>
</g>
<!-- Node16&#45;&gt;Node7 -->
<g id="edge18" class="edge">
<title>Node16&#45;&gt;Node7</title>
<path fill="none" stroke="#191970" d="M725.4751,-108.5471C792.0975,-109.4098 886.0242,-110.6262 952.042,-111.4812"/>
<polygon fill="#191970" stroke="#191970" points="725.4828,-105.047 715.4383,-108.4171 725.3921,-112.0464 725.4828,-105.047"/>
</g>
<!-- Node18 -->
<g id="node18" class="node">
<title>Node18</title>
<g id="a_node18"><a xlink:href="classlocomotor_1_1core_1_1_d_b_h.html#ae26eef1ee7482f2e0167c6a18924d214" target="_top" xlink:title="locomotor.core.DBH.addItem">
<polygon fill="#ffffff" stroke="#000000" points="764.7778,-65.5 764.7778,-83.5 909.1714,-83.5 909.1714,-65.5 764.7778,-65.5"/>
<text text-anchor="middle" x="836.9746" y="-71.5" font-family="Helvetica,sans-Serif" font-size="10.00" fill="#000000">locomotor.core.DBH.addItem</text>
</a>
</g>
</g>
<!-- Node17&#45;&gt;Node18 -->
<g id="edge20" class="edge">
<title>Node17&#45;&gt;Node18</title>
<path fill="none" stroke="#191970" d="M729.0293,-67.2046C740.8565,-68.0039 752.9248,-68.8195 764.5042,-69.6021"/>
<polygon fill="#191970" stroke="#191970" points="728.9293,-63.6899 718.716,-66.5075 728.4572,-70.674 728.9293,-63.6899"/>
</g>
<!-- Node19 -->
<g id="node19" class="node">
<title>Node19</title>
<g id="a_node19"><a xlink:href="classlocomotor_1_1core_1_1_d_b_h.html#aa0e39c547d06fd9d0ad2de70251c9cc0" target="_top" xlink:title="locomotor.core.DBH.updateItem">
<polygon fill="#ffffff" stroke="#000000" points="757.8271,-28.5 757.8271,-46.5 916.1221,-46.5 916.1221,-28.5 757.8271,-28.5"/>
<text text-anchor="middle" x="836.9746" y="-34.5" font-family="Helvetica,sans-Serif" font-size="10.00" fill="#000000">locomotor.core.DBH.updateItem</text>
</a>
</g>
</g>
<!-- Node17&#45;&gt;Node19 -->
<g id="edge22" class="edge">
<title>Node17&#45;&gt;Node19</title>
<path fill="none" stroke="#191970" d="M728.7416,-51.0044C740.7684,-49.5038 753.0508,-47.9713 764.8204,-46.5028"/>
<polygon fill="#191970" stroke="#191970" points="728.2057,-47.544 718.716,-52.2553 729.0725,-54.4902 728.2057,-47.544"/>
</g>
<!-- Node18&#45;&gt;Node7 -->
<g id="edge21" class="edge">
<title>Node18&#45;&gt;Node7</title>
<path fill="none" stroke="#191970" d="M892.76,-85.4417C913.413,-89.4925 937.1241,-94.1432 958.9971,-98.4333"/>
<polygon fill="#191970" stroke="#191970" points="893.3752,-81.9957 882.8885,-83.5055 892.0278,-88.8648 893.3752,-81.9957"/>
</g>
<!-- Node19&#45;&gt;Node7 -->
<g id="edge23" class="edge">
<title>Node19&#45;&gt;Node7</title>
<path fill="none" stroke="#191970" d="M894.9809,-49.0111C902.175,-50.9296 909.3695,-53.0916 916.1221,-55.5 948.5614,-67.0699 983.7278,-85.5251 1006.4269,-98.2866"/>
<polygon fill="#191970" stroke="#191970" points="895.765,-45.5993 885.2125,-46.5457 894.052,-52.3865 895.765,-45.5993"/>
</g>
</g>
</svg>
        <g id="navigator" transform="translate(0 0)" fill="#404254">
                <rect fill="#f2f5e9" fill-opacity="0.5" stroke="#606060" stroke-width=".5" x="0" y="0" width="60" height="60"/>
                <use id="zoomplus" xlink:href="#zoomPlus" x="17" y="9" onmousedown="handleZoom(evt,'in')"/>
                <use id="zoomminus" xlink:href="#zoomMin" x="42" y="9" onmousedown="handleZoom(evt,'out')"/>
                <use id="reset" xlink:href="#resetDef" x="30" y="36" onmousedown="handleReset()"/>
                <g id="arrowUp" xlink:href="#dirArrow" transform="translate(30 24)" onmousedown="handlePan(0,-1)">
                  <use xlink:href="#rim" fill="#404040">
                        <set attributeName="fill" to="#808080" begin="arrowUp.mouseover" end="arrowUp.mouseout"/>
                  </use>
                  <path fill="none" stroke="white" stroke-width="1.5" d="M0,-3.0v7 M-2.5,-0.5L0,-3.0L2.5,-0.5"/>
                </g>
                <g id="arrowRight" xlink:href="#dirArrow" transform="rotate(90) translate(36 -43)" onmousedown="handlePan(1,0)">
                  <use xlink:href="#rim" fill="#404040">
                        <set attributeName="fill" to="#808080" begin="arrowRight.mouseover" end="arrowRight.mouseout"/>
                  </use>
                  <path fill="none" stroke="white" stroke-width="1.5" d="M0,-3.0v7 M-2.5,-0.5L0,-3.0L2.5,-0.5"/>
                </g>
                <g id="arrowDown" xlink:href="#dirArrow" transform="rotate(180) translate(-30 -48)" onmousedown="handlePan(0,1)">
                  <use xlink:href="#rim" fill="#404040">
                        <set attributeName="fill" to="#808080" begin="arrowDown.mouseover" end="arrowDown.mouseout"/>
                  </use>
                  <path fill="none" stroke="white" stroke-width="1.5" d="M0,-3.0v7 M-2.5,-0.5L0,-3.0L2.5,-0.5"/>
                </g>
                <g id="arrowLeft" xlink:href="#dirArrow" transform="rotate(270) translate(-36 17)" onmousedown="handlePan(-1,0)">
                  <use xlink:href="#rim" fill="#404040">
                        <set attributeName="fill" to="#808080" begin="arrowLeft.mouseover" end="arrowLeft.mouseout"/>
                  </use>
                  <path fill="none" stroke="white" stroke-width="1.5" d="M0,-3.0v7 M-2.5,-0.5L0,-3.0L2.5,-0.5"/>
                </g>
        </g>
        <svg viewBox="0 0 15 15" width="100%" height="30px" preserveAspectRatio="xMaxYMin meet">
         <g id="arrow_out" transform="scale(0.3 0.3)">
          <a xlink:href="classlocomotor_1_1components_1_1types_1_1_c_tree_a74382cb3a3153edc32f1cfed8c4ee364_icgraph_org.svg" target="_base">
           <rect id="button" ry="5" rx="5" y="6" x="6" height="38" width="38"
                fill="#f2f5e9" fill-opacity="0.5" stroke="#606060" stroke-width="1.0"/>
           <path id="arrow"
             d="M 11.500037,31.436501 C 11.940474,20.09759 22.043105,11.32322 32.158766,21.979434 L 37.068811,17.246167 C 37.068811,17.246167 37.088388,32 37.088388,32 L 22.160133,31.978069 C 22.160133,31.978069 26.997745,27.140456 26.997745,27.140456 C 18.528582,18.264221 13.291696,25.230495 11.500037,31.436501 z"
             style="fill:#404040;"/>
          </a>
         </g>
        </svg>
</svg>
