<?xml version="1.0" encoding="UTF-8" standalone="no"?>
<!DOCTYPE svg PUBLIC "-//W3C//DTD SVG 1.1//EN"
 "http://www.w3.org/Graphics/SVG/1.1/DTD/svg11.dtd">
<!-- Generated by graphviz version 2.40.1 (20161225.0304)
 -->
<!-- Title: toString Pages: 1 -->
<svg width="601pt" height="37pt"
 viewBox="0.00 0.00 600.76 37.00" xmlns="http://www.w3.org/2000/svg" xmlns:xlink="http://www.w3.org/1999/xlink">
<g id="graph0" class="graph" transform="scale(1 1) rotate(0) translate(4 33)">
<title>toString</title>
<polygon fill="#ffffff" stroke="transparent" points="-4,4 -4,-33 596.7568,-33 596.7568,4 -4,4"/>
<!-- Node1 -->
<g id="node1" class="node">
<title>Node1</title>
<polygon fill="#bfbfbf" stroke="#000000" points="0,-5.5 0,-23.5 50.4629,-23.5 50.4629,-5.5 0,-5.5"/>
<text text-anchor="middle" x="25.2314" y="-11.5" font-family="Helvetica,sans-Serif" font-size="10.00" fill="#000000">toString</text>
</g>
<!-- Node2 -->
<g id="node2" class="node">
<title>Node2</title>
<g id="a_node2"><a xlink:href="classlocomotor_1_1core_1_1_d_b_h.html#a6856661b356e5441d182e061ef940aaf" target="_top" xlink:title="locomotor.core.DBH.getItems">
<polygon fill="#ffffff" stroke="#000000" points="86.4629,-5.5 86.4629,-23.5 233.0732,-23.5 233.0732,-5.5 86.4629,-5.5"/>
<text text-anchor="middle" x="159.7681" y="-11.5" font-family="Helvetica,sans-Serif" font-size="10.00" fill="#000000">locomotor.core.DBH.getItems</text>
</a>
</g>
</g>
<!-- Node1&#45;&gt;Node2 -->
<g id="edge1" class="edge">
<title>Node1&#45;&gt;Node2</title>
<path fill="none" stroke="#191970" d="M60.56,-14.5C68.5704,-14.5 77.3676,-14.5 86.312,-14.5"/>
<polygon fill="#191970" stroke="#191970" points="60.5368,-11.0001 50.5368,-14.5 60.5367,-18.0001 60.5368,-11.0001"/>
</g>
<!-- Node3 -->
<g id="node3" class="node">
<title>Node3</title>
<g id="a_node3"><a xlink:href="classlocomotor_1_1components_1_1network_1_1_a_p_i.html#a547463fbc7fb7b485886f0917e2c0b78" target="_top" xlink:title="locomotor.components.network.\lAPI.createHooks">
<polygon fill="#ffffff" stroke="#000000" points="269.0732,-.5 269.0732,-28.5 426.2598,-28.5 426.2598,-.5 269.0732,-.5"/>
<text text-anchor="start" x="277.0732" y="-16.5" font-family="Helvetica,sans-Serif" font-size="10.00" fill="#000000">locomotor.components.network.</text>
<text text-anchor="middle" x="347.6665" y="-6.5" font-family="Helvetica,sans-Serif" font-size="10.00" fill="#000000">API.createHooks</text>
</a>
</g>
</g>
<!-- Node2&#45;&gt;Node3 -->
<g id="edge2" class="edge">
<title>Node2&#45;&gt;Node3</title>
<path fill="none" stroke="#191970" d="M243.4909,-14.5C251.9709,-14.5 260.5634,-14.5 268.9876,-14.5"/>
<polygon fill="#191970" stroke="#191970" points="243.2218,-11.0001 233.2218,-14.5 243.2218,-18.0001 243.2218,-11.0001"/>
</g>
<!-- Node4 -->
<g id="node4" class="node">
<title>Node4</title>
<g id="a_node4"><a xlink:href="classlocomotor_1_1core_1_1_main.html#a8b260eecbaabcef8473fd87ada040682" target="_top" xlink:title="locomotor.core.Main.main">
<polygon fill="#ffffff" stroke="#000000" points="462.2598,-5.5 462.2598,-23.5 592.7568,-23.5 592.7568,-5.5 462.2598,-5.5"/>
<text text-anchor="middle" x="527.5083" y="-11.5" font-family="Helvetica,sans-Serif" font-size="10.00" fill="#000000">locomotor.core.Main.main</text>
</a>
</g>
</g>
<!-- Node3&#45;&gt;Node4 -->
<g id="edge3" class="edge">
<title>Node3&#45;&gt;Node4</title>
<path fill="none" stroke="#191970" d="M436.4595,-14.5C445.1478,-14.5 453.8502,-14.5 462.242,-14.5"/>
<polygon fill="#191970" stroke="#191970" points="436.2861,-11.0001 426.2861,-14.5 436.2861,-18.0001 436.2861,-11.0001"/>
</g>
</g>
</svg>
