<?xml version="1.0" encoding="UTF-8" standalone="no"?>
<!DOCTYPE svg PUBLIC "-//W3C//DTD SVG 1.1//EN"
 "http://www.w3.org/Graphics/SVG/1.1/DTD/svg11.dtd">
<!-- Generated by graphviz version 2.40.1 (20161225.0304)
 -->
<!-- Title: CMappedStringList Pages: 1 -->
<!--zoomable 84 -->
<svg id="main" version="1.1" xmlns="http://www.w3.org/2000/svg" xmlns:xlink="http://www.w3.org/1999/xlink" xml:space="preserve" onload="init(evt)">
<style type="text/css"><![CDATA[
.edge:hover path { stroke: red; }
.edge:hover polygon { stroke: red; fill: red; }
]]></style>
<script type="text/javascript"><![CDATA[
var edges = document.getElementsByTagName('g');
if (edges && edges.length) {
  for (var i=0;i<edges.length;i++) {
    if (edges[i].id.substr(0,4)=='edge') {
      edges[i].setAttribute('class','edge');
    }
  }
}
]]></script>
        <defs>
                <circle id="rim" cx="0" cy="0" r="7"/>
                <circle id="rim2" cx="0" cy="0" r="3.5"/>
                <g id="zoomPlus">
                        <use xlink:href="#rim" fill="#404040">
                                <set attributeName="fill" to="#808080" begin="zoomplus.mouseover" end="zoomplus.mouseout"/>
                        </use>
                        <path d="M-4,0h8M0,-4v8" fill="none" stroke="white" stroke-width="1.5" pointer-events="none"/>
                </g>
                <g id="zoomMin">
                        <use xlink:href="#rim" fill="#404040">
                                <set attributeName="fill" to="#808080" begin="zoomminus.mouseover" end="zoomminus.mouseout"/>
                        </use>
                        <path d="M-4,0h8" fill="none" stroke="white" stroke-width="1.5" pointer-events="none"/>
                </g>
                <g id="dirArrow">
                        <path fill="none" stroke="white" stroke-width="1.5" d="M0,-3.0v7 M-2.5,-0.5L0,-3.0L2.5,-0.5"/>
                </g>
               <g id="resetDef">
                       <use xlink:href="#rim2" fill="#404040">
                               <set attributeName="fill" to="#808080" begin="reset.mouseover" end="reset.mouseout"/>
                       </use>
               </g>
        </defs>

<script type="text/javascript">
var viewWidth = 1325;
var viewHeight = 84;
var sectionId = 'dynsection-2';
</script>
<script xlink:href="svgpan.js"/>
<svg id="graph" class="graph">
<g id="viewport">
<title>CMappedStringList</title>
<polygon fill="#ffffff" stroke="transparent" points="-4,4 -4,-80 1321.4902,-80 1321.4902,4 -4,4"/>
<!-- Node1 -->
<g id="node1" class="node">
<title>Node1</title>
<polygon fill="#bfbfbf" stroke="#000000" points="0,-28.5 0,-46.5 101.0439,-46.5 101.0439,-28.5 0,-28.5"/>
<text text-anchor="middle" x="50.522" y="-34.5" font-family="Helvetica,sans-Serif" font-size="10.00" fill="#000000">CMappedStringList</text>
</g>
<!-- Node2 -->
<g id="node2" class="node">
<title>Node2</title>
<g id="a_node2"><a xlink:href="classlocomotor_1_1components_1_1types_1_1_c_mapped_string_list.html#a3834a44c64a57457335f1f296b272c79" target="_top" xlink:title="fromJSON">
<polygon fill="#ffffff" stroke="#000000" points="137.0439,-28.5 137.0439,-46.5 199.7139,-46.5 199.7139,-28.5 137.0439,-28.5"/>
<text text-anchor="middle" x="168.3789" y="-34.5" font-family="Helvetica,sans-Serif" font-size="10.00" fill="#000000">fromJSON</text>
</a>
</g>
</g>
<!-- Node1&#45;&gt;Node2 -->
<g id="edge1" class="edge">
<title>Node1&#45;&gt;Node2</title>
<path fill="none" stroke="#191970" d="M111.4662,-37.5C120.2381,-37.5 128.9505,-37.5 136.8245,-37.5"/>
<polygon fill="#191970" stroke="#191970" points="111.1879,-34.0001 101.1879,-37.5 111.1879,-41.0001 111.1879,-34.0001"/>
</g>
<!-- Node3 -->
<g id="node3" class="node">
<title>Node3</title>
<g id="a_node3"><a xlink:href="classlocomotor_1_1components_1_1types_1_1_type_factory.html#a8827604831ff8a1764b7639c82820497" target="_top" xlink:title="locomotor.components.types.\lTypeFactory.getItemFromJson">
<polygon fill="#ffffff" stroke="#000000" points="235.7139,-47.5 235.7139,-75.5 386.582,-75.5 386.582,-47.5 235.7139,-47.5"/>
<text text-anchor="start" x="243.7139" y="-63.5" font-family="Helvetica,sans-Serif" font-size="10.00" fill="#000000">locomotor.components.types.</text>
<text text-anchor="middle" x="311.1479" y="-53.5" font-family="Helvetica,sans-Serif" font-size="10.00" fill="#000000">TypeFactory.getItemFromJson</text>
</a>
</g>
</g>
<!-- Node2&#45;&gt;Node3 -->
<g id="edge2" class="edge">
<title>Node2&#45;&gt;Node3</title>
<path fill="none" stroke="#191970" d="M210.1839,-44.5276C218.1785,-45.8715 226.7744,-47.3165 235.4556,-48.7758"/>
<polygon fill="#191970" stroke="#191970" points="210.5059,-41.0327 200.064,-42.8264 209.3454,-47.9358 210.5059,-41.0327"/>
</g>
<!-- Node9 -->
<g id="node9" class="node">
<title>Node9</title>
<g id="a_node9"><a xlink:href="classlocomotor_1_1components_1_1types_1_1_type_factory.html#a1a64701bf13afa82b6b32bf422a171e2" target="_top" xlink:title="locomotor.components.types.\lTypeFactory.getUser">
<polygon fill="#ffffff" stroke="#000000" points="238.1113,-.5 238.1113,-28.5 384.1846,-28.5 384.1846,-.5 238.1113,-.5"/>
<text text-anchor="start" x="246.1113" y="-16.5" font-family="Helvetica,sans-Serif" font-size="10.00" fill="#000000">locomotor.components.types.</text>
<text text-anchor="middle" x="311.1479" y="-6.5" font-family="Helvetica,sans-Serif" font-size="10.00" fill="#000000">TypeFactory.getUser</text>
</a>
</g>
</g>
<!-- Node2&#45;&gt;Node9 -->
<g id="edge8" class="edge">
<title>Node2&#45;&gt;Node9</title>
<path fill="none" stroke="#191970" d="M210.0524,-30.7864C218.8857,-29.3634 228.4578,-27.8213 238.0709,-26.2727"/>
<polygon fill="#191970" stroke="#191970" points="209.38,-27.3495 200.064,-32.3956 210.4934,-34.2604 209.38,-27.3495"/>
</g>
<!-- Node4 -->
<g id="node4" class="node">
<title>Node4</title>
<g id="a_node4"><a xlink:href="classlocomotor_1_1components_1_1models_1_1_item_criteria_full.html#a436730a3499b6d7b1d0359e12aa2f04a" target="_top" xlink:title="locomotor.components.models.\lItemCriteriaFull.fromJSON">
<polygon fill="#ffffff" stroke="#000000" points="422.582,-47.5 422.582,-75.5 576.9902,-75.5 576.9902,-47.5 422.582,-47.5"/>
<text text-anchor="start" x="430.582" y="-63.5" font-family="Helvetica,sans-Serif" font-size="10.00" fill="#000000">locomotor.components.models.</text>
<text text-anchor="middle" x="499.7861" y="-53.5" font-family="Helvetica,sans-Serif" font-size="10.00" fill="#000000">ItemCriteriaFull.fromJSON</text>
</a>
</g>
</g>
<!-- Node3&#45;&gt;Node4 -->
<g id="edge3" class="edge">
<title>Node3&#45;&gt;Node4</title>
<path fill="none" stroke="#191970" d="M397.0022,-61.5C405.4284,-61.5 413.9455,-61.5 422.2814,-61.5"/>
<polygon fill="#191970" stroke="#191970" points="396.7874,-58.0001 386.7874,-61.5 396.7874,-65.0001 396.7874,-58.0001"/>
</g>
<!-- Node5 -->
<g id="node5" class="node">
<title>Node5</title>
<g id="a_node5"><a xlink:href="classlocomotor_1_1components_1_1models_1_1_item_category_full.html#a50ab7c0f8e4a65f80ca141f1fa1c7df8" target="_top" xlink:title="locomotor.components.models.\lItemCategoryFull.fromJSON">
<polygon fill="#ffffff" stroke="#000000" points="612.9902,-47.5 612.9902,-75.5 767.3984,-75.5 767.3984,-47.5 612.9902,-47.5"/>
<text text-anchor="start" x="620.9902" y="-63.5" font-family="Helvetica,sans-Serif" font-size="10.00" fill="#000000">locomotor.components.models.</text>
<text text-anchor="middle" x="690.1943" y="-53.5" font-family="Helvetica,sans-Serif" font-size="10.00" fill="#000000">ItemCategoryFull.fromJSON</text>
</a>
</g>
</g>
<!-- Node4&#45;&gt;Node5 -->
<g id="edge4" class="edge">
<title>Node4&#45;&gt;Node5</title>
<path fill="none" stroke="#191970" d="M587.4865,-61.5C595.9401,-61.5 604.4731,-61.5 612.8167,-61.5"/>
<polygon fill="#191970" stroke="#191970" points="587.2325,-58.0001 577.2324,-61.5 587.2324,-65.0001 587.2325,-58.0001"/>
</g>
<!-- Node6 -->
<g id="node6" class="node">
<title>Node6</title>
<g id="a_node6"><a xlink:href="classlocomotor_1_1components_1_1models_1_1_item_full.html#afe56c5f49cb59d04ec69bbf32b58a2f8" target="_top" xlink:title="locomotor.components.models.\lItemFull.fromJSON">
<polygon fill="#ffffff" stroke="#000000" points="803.3984,-47.5 803.3984,-75.5 957.8066,-75.5 957.8066,-47.5 803.3984,-47.5"/>
<text text-anchor="start" x="811.3984" y="-63.5" font-family="Helvetica,sans-Serif" font-size="10.00" fill="#000000">locomotor.components.models.</text>
<text text-anchor="middle" x="880.6025" y="-53.5" font-family="Helvetica,sans-Serif" font-size="10.00" fill="#000000">ItemFull.fromJSON</text>
</a>
</g>
</g>
<!-- Node5&#45;&gt;Node6 -->
<g id="edge5" class="edge">
<title>Node5&#45;&gt;Node6</title>
<path fill="none" stroke="#191970" d="M777.8947,-61.5C786.3483,-61.5 794.8813,-61.5 803.2249,-61.5"/>
<polygon fill="#191970" stroke="#191970" points="777.6407,-58.0001 767.6406,-61.5 777.6406,-65.0001 777.6407,-58.0001"/>
</g>
<!-- Node7 -->
<g id="node7" class="node">
<title>Node7</title>
<g id="a_node7"><a xlink:href="classlocomotor_1_1components_1_1network_1_1_a_p_i.html#a547463fbc7fb7b485886f0917e2c0b78" target="_top" xlink:title="locomotor.components.network.\lAPI.createHooks">
<polygon fill="#ffffff" stroke="#000000" points="993.8066,-23.5 993.8066,-51.5 1150.9932,-51.5 1150.9932,-23.5 993.8066,-23.5"/>
<text text-anchor="start" x="1001.8066" y="-39.5" font-family="Helvetica,sans-Serif" font-size="10.00" fill="#000000">locomotor.components.network.</text>
<text text-anchor="middle" x="1072.3999" y="-29.5" font-family="Helvetica,sans-Serif" font-size="10.00" fill="#000000">API.createHooks</text>
</a>
</g>
</g>
<!-- Node6&#45;&gt;Node7 -->
<g id="edge6" class="edge">
<title>Node6&#45;&gt;Node7</title>
<path fill="none" stroke="#191970" d="M968.0481,-50.5578C976.6051,-49.487 985.2526,-48.4049 993.7151,-47.346"/>
<polygon fill="#191970" stroke="#191970" points="967.549,-47.0928 958.061,-51.8075 968.4182,-54.0387 967.549,-47.0928"/>
</g>
<!-- Node8 -->
<g id="node8" class="node">
<title>Node8</title>
<g id="a_node8"><a xlink:href="classlocomotor_1_1core_1_1_main.html#a8b260eecbaabcef8473fd87ada040682" target="_top" xlink:title="locomotor.core.Main.main">
<polygon fill="#ffffff" stroke="#000000" points="1186.9932,-28.5 1186.9932,-46.5 1317.4902,-46.5 1317.4902,-28.5 1186.9932,-28.5"/>
<text text-anchor="middle" x="1252.2417" y="-34.5" font-family="Helvetica,sans-Serif" font-size="10.00" fill="#000000">locomotor.core.Main.main</text>
</a>
</g>
</g>
<!-- Node7&#45;&gt;Node8 -->
<g id="edge7" class="edge">
<title>Node7&#45;&gt;Node8</title>
<path fill="none" stroke="#191970" d="M1161.1929,-37.5C1169.8812,-37.5 1178.5836,-37.5 1186.9754,-37.5"/>
<polygon fill="#191970" stroke="#191970" points="1161.0195,-34.0001 1151.0195,-37.5 1161.0195,-41.0001 1161.0195,-34.0001"/>
</g>
<!-- Node10 -->
<g id="node10" class="node">
<title>Node10</title>
<g id="a_node10"><a xlink:href="classlocomotor_1_1components_1_1models_1_1_user_criteria.html#aaca1c5ec640a1453943ce97d40e12a63" target="_top" xlink:title="locomotor.components.models.\lUserCriteria.fromJSON">
<polygon fill="#ffffff" stroke="#000000" points="422.582,-.5 422.582,-28.5 576.9902,-28.5 576.9902,-.5 422.582,-.5"/>
<text text-anchor="start" x="430.582" y="-16.5" font-family="Helvetica,sans-Serif" font-size="10.00" fill="#000000">locomotor.components.models.</text>
<text text-anchor="middle" x="499.7861" y="-6.5" font-family="Helvetica,sans-Serif" font-size="10.00" fill="#000000">UserCriteria.fromJSON</text>
</a>
</g>
</g>
<!-- Node9&#45;&gt;Node10 -->
<g id="edge9" class="edge">
<title>Node9&#45;&gt;Node10</title>
<path fill="none" stroke="#191970" d="M394.4294,-14.5C403.7875,-14.5 413.2925,-14.5 422.5692,-14.5"/>
<polygon fill="#191970" stroke="#191970" points="394.3504,-11.0001 384.3504,-14.5 394.3504,-18.0001 394.3504,-11.0001"/>
</g>
<!-- Node11 -->
<g id="node11" class="node">
<title>Node11</title>
<g id="a_node11"><a xlink:href="classlocomotor_1_1components_1_1models_1_1_user_category.html#a52e02970889790bace019e61fb256ff0" target="_top" xlink:title="locomotor.components.models.\lUserCategory.fromJSON">
<polygon fill="#ffffff" stroke="#000000" points="612.9902,-.5 612.9902,-28.5 767.3984,-28.5 767.3984,-.5 612.9902,-.5"/>
<text text-anchor="start" x="620.9902" y="-16.5" font-family="Helvetica,sans-Serif" font-size="10.00" fill="#000000">locomotor.components.models.</text>
<text text-anchor="middle" x="690.1943" y="-6.5" font-family="Helvetica,sans-Serif" font-size="10.00" fill="#000000">UserCategory.fromJSON</text>
</a>
</g>
</g>
<!-- Node10&#45;&gt;Node11 -->
<g id="edge10" class="edge">
<title>Node10&#45;&gt;Node11</title>
<path fill="none" stroke="#191970" d="M587.4865,-14.5C595.9401,-14.5 604.4731,-14.5 612.8167,-14.5"/>
<polygon fill="#191970" stroke="#191970" points="587.2325,-11.0001 577.2324,-14.5 587.2324,-18.0001 587.2325,-11.0001"/>
</g>
<!-- Node12 -->
<g id="node12" class="node">
<title>Node12</title>
<g id="a_node12"><a xlink:href="classlocomotor_1_1components_1_1models_1_1_user_item.html#ab97f79cf43a9a73bcd77cec6b449a79a" target="_top" xlink:title="locomotor.components.models.\lUserItem.fromJSON">
<polygon fill="#ffffff" stroke="#000000" points="803.3984,-.5 803.3984,-28.5 957.8066,-28.5 957.8066,-.5 803.3984,-.5"/>
<text text-anchor="start" x="811.3984" y="-16.5" font-family="Helvetica,sans-Serif" font-size="10.00" fill="#000000">locomotor.components.models.</text>
<text text-anchor="middle" x="880.6025" y="-6.5" font-family="Helvetica,sans-Serif" font-size="10.00" fill="#000000">UserItem.fromJSON</text>
</a>
</g>
</g>
<!-- Node11&#45;&gt;Node12 -->
<g id="edge11" class="edge">
<title>Node11&#45;&gt;Node12</title>
<path fill="none" stroke="#191970" d="M777.8947,-14.5C786.3483,-14.5 794.8813,-14.5 803.2249,-14.5"/>
<polygon fill="#191970" stroke="#191970" points="777.6407,-11.0001 767.6406,-14.5 777.6406,-18.0001 777.6407,-11.0001"/>
</g>
<!-- Node12&#45;&gt;Node7 -->
<g id="edge12" class="edge">
<title>Node12&#45;&gt;Node7</title>
<path fill="none" stroke="#191970" d="M968.0481,-24.9863C976.6051,-26.0125 985.2526,-27.0494 993.7151,-28.0643"/>
<polygon fill="#191970" stroke="#191970" points="968.4066,-21.5043 958.061,-23.7887 967.5731,-28.4545 968.4066,-21.5043"/>
</g>
</g>
</svg>
        <g id="navigator" transform="translate(0 0)" fill="#404254">
                <rect fill="#f2f5e9" fill-opacity="0.5" stroke="#606060" stroke-width=".5" x="0" y="0" width="60" height="60"/>
                <use id="zoomplus" xlink:href="#zoomPlus" x="17" y="9" onmousedown="handleZoom(evt,'in')"/>
                <use id="zoomminus" xlink:href="#zoomMin" x="42" y="9" onmousedown="handleZoom(evt,'out')"/>
                <use id="reset" xlink:href="#resetDef" x="30" y="36" onmousedown="handleReset()"/>
                <g id="arrowUp" xlink:href="#dirArrow" transform="translate(30 24)" onmousedown="handlePan(0,-1)">
                  <use xlink:href="#rim" fill="#404040">
                        <set attributeName="fill" to="#808080" begin="arrowUp.mouseover" end="arrowUp.mouseout"/>
                  </use>
                  <path fill="none" stroke="white" stroke-width="1.5" d="M0,-3.0v7 M-2.5,-0.5L0,-3.0L2.5,-0.5"/>
                </g>
                <g id="arrowRight" xlink:href="#dirArrow" transform="rotate(90) translate(36 -43)" onmousedown="handlePan(1,0)">
                  <use xlink:href="#rim" fill="#404040">
                        <set attributeName="fill" to="#808080" begin="arrowRight.mouseover" end="arrowRight.mouseout"/>
                  </use>
                  <path fill="none" stroke="white" stroke-width="1.5" d="M0,-3.0v7 M-2.5,-0.5L0,-3.0L2.5,-0.5"/>
                </g>
                <g id="arrowDown" xlink:href="#dirArrow" transform="rotate(180) translate(-30 -48)" onmousedown="handlePan(0,1)">
                  <use xlink:href="#rim" fill="#404040">
                        <set attributeName="fill" to="#808080" begin="arrowDown.mouseover" end="arrowDown.mouseout"/>
                  </use>
                  <path fill="none" stroke="white" stroke-width="1.5" d="M0,-3.0v7 M-2.5,-0.5L0,-3.0L2.5,-0.5"/>
                </g>
                <g id="arrowLeft" xlink:href="#dirArrow" transform="rotate(270) translate(-36 17)" onmousedown="handlePan(-1,0)">
                  <use xlink:href="#rim" fill="#404040">
                        <set attributeName="fill" to="#808080" begin="arrowLeft.mouseover" end="arrowLeft.mouseout"/>
                  </use>
                  <path fill="none" stroke="white" stroke-width="1.5" d="M0,-3.0v7 M-2.5,-0.5L0,-3.0L2.5,-0.5"/>
                </g>
        </g>
        <svg viewBox="0 0 15 15" width="100%" height="30px" preserveAspectRatio="xMaxYMin meet">
         <g id="arrow_out" transform="scale(0.3 0.3)">
          <a xlink:href="classlocomotor_1_1components_1_1types_1_1_c_mapped_string_list_a6ee84a38e1c5b58c08a7e9557cc959e1_icgraph_org.svg" target="_base">
           <rect id="button" ry="5" rx="5" y="6" x="6" height="38" width="38"
                fill="#f2f5e9" fill-opacity="0.5" stroke="#606060" stroke-width="1.0"/>
           <path id="arrow"
             d="M 11.500037,31.436501 C 11.940474,20.09759 22.043105,11.32322 32.158766,21.979434 L 37.068811,17.246167 C 37.068811,17.246167 37.088388,32 37.088388,32 L 22.160133,31.978069 C 22.160133,31.978069 26.997745,27.140456 26.997745,27.140456 C 18.528582,18.264221 13.291696,25.230495 11.500037,31.436501 z"
             style="fill:#404040;"/>
          </a>
         </g>
        </svg>
</svg>
