<?xml version="1.0" encoding="UTF-8" standalone="no"?>
<!DOCTYPE svg PUBLIC "-//W3C//DTD SVG 1.1//EN"
 "http://www.w3.org/Graphics/SVG/1.1/DTD/svg11.dtd">
<!-- Generated by graphviz version 2.40.1 (20161225.0304)
 -->
<!-- Title: toJSON Pages: 1 -->
<svg width="331pt" height="168pt"
 viewBox="0.00 0.00 330.56 168.00" xmlns="http://www.w3.org/2000/svg" xmlns:xlink="http://www.w3.org/1999/xlink">
<g id="graph0" class="graph" transform="scale(1 1) rotate(0) translate(4 164)">
<title>toJSON</title>
<polygon fill="#ffffff" stroke="transparent" points="-4,4 -4,-164 326.5557,-164 326.5557,4 -4,4"/>
<!-- Node1 -->
<g id="node1" class="node">
<title>Node1</title>
<polygon fill="#bfbfbf" stroke="#000000" points="0,-65.5 0,-83.5 51.0098,-83.5 51.0098,-65.5 0,-65.5"/>
<text text-anchor="middle" x="25.5049" y="-71.5" font-family="Helvetica,sans-Serif" font-size="10.00" fill="#000000">toJSON</text>
</g>
<!-- Node2 -->
<g id="node2" class="node">
<title>Node2</title>
<g id="a_node2"><a xlink:href="enumlocomotor_1_1components_1_1types_1_1_c_enum_item_type.html#aea93026f92028ac88f6b60cd2f3e438b" target="_top" xlink:title="locomotor.components.types.\lCEnumItemType.getID">
<polygon fill="#ffffff" stroke="#000000" points="131.7461,-131.5 131.7461,-159.5 277.8193,-159.5 277.8193,-131.5 131.7461,-131.5"/>
<text text-anchor="start" x="139.7461" y="-147.5" font-family="Helvetica,sans-Serif" font-size="10.00" fill="#000000">locomotor.components.types.</text>
<text text-anchor="middle" x="204.7827" y="-137.5" font-family="Helvetica,sans-Serif" font-size="10.00" fill="#000000">CEnumItemType.getID</text>
</a>
</g>
</g>
<!-- Node1&#45;&gt;Node2 -->
<g id="edge1" class="edge">
<title>Node1&#45;&gt;Node2</title>
<path fill="none" stroke="#191970" d="M34.5712,-83.8773C45.8107,-94.915 66.0584,-112.9476 87.0098,-122.5 97.8204,-127.4289 109.6594,-131.3033 121.532,-134.3482"/>
<polygon fill="#191970" stroke="#191970" points="120.9527,-137.808 131.4911,-136.7159 122.5718,-130.9978 120.9527,-137.808"/>
</g>
<!-- Node3 -->
<g id="node3" class="node">
<title>Node3</title>
<g id="a_node3"><a xlink:href="enumlocomotor_1_1components_1_1types_1_1_c_enum_user_type.html#aea93026f92028ac88f6b60cd2f3e438b" target="_top" xlink:title="locomotor.components.types.\lCEnumUserType.getID">
<polygon fill="#ffffff" stroke="#000000" points="131.7461,-84.5 131.7461,-112.5 277.8193,-112.5 277.8193,-84.5 131.7461,-84.5"/>
<text text-anchor="start" x="139.7461" y="-100.5" font-family="Helvetica,sans-Serif" font-size="10.00" fill="#000000">locomotor.components.types.</text>
<text text-anchor="middle" x="204.7827" y="-90.5" font-family="Helvetica,sans-Serif" font-size="10.00" fill="#000000">CEnumUserType.getID</text>
</a>
</g>
</g>
<!-- Node1&#45;&gt;Node3 -->
<g id="edge2" class="edge">
<title>Node1&#45;&gt;Node3</title>
<path fill="none" stroke="#191970" d="M51.191,-77.9386C69.7389,-80.4216 95.9093,-83.9251 121.4014,-87.3377"/>
<polygon fill="#191970" stroke="#191970" points="121.1219,-90.8314 131.4979,-88.6893 122.0507,-83.8933 121.1219,-90.8314"/>
</g>
<!-- Node4 -->
<g id="node4" class="node">
<title>Node4</title>
<g id="a_node4"><a xlink:href="enumlocomotor_1_1components_1_1types_1_1_c_enum_universe_type.html#aea93026f92028ac88f6b60cd2f3e438b" target="_top" xlink:title="locomotor.components.types.\lCEnumUniverseType.getID">
<polygon fill="#ffffff" stroke="#000000" points="131.7461,-37.5 131.7461,-65.5 277.8193,-65.5 277.8193,-37.5 131.7461,-37.5"/>
<text text-anchor="start" x="139.7461" y="-53.5" font-family="Helvetica,sans-Serif" font-size="10.00" fill="#000000">locomotor.components.types.</text>
<text text-anchor="middle" x="204.7827" y="-43.5" font-family="Helvetica,sans-Serif" font-size="10.00" fill="#000000">CEnumUniverseType.getID</text>
</a>
</g>
</g>
<!-- Node1&#45;&gt;Node4 -->
<g id="edge3" class="edge">
<title>Node1&#45;&gt;Node4</title>
<path fill="none" stroke="#191970" d="M51.191,-71.2047C69.7389,-68.8251 95.9093,-65.4676 121.4014,-62.1972"/>
<polygon fill="#191970" stroke="#191970" points="122.0246,-65.646 131.4979,-60.9019 121.1338,-58.7029 122.0246,-65.646"/>
</g>
<!-- Node5 -->
<g id="node5" class="node">
<title>Node5</title>
<g id="a_node5"><a xlink:href="interfacelocomotor_1_1components_1_1_j_s_o_n_displayable.html#a16e008a8f442c180f94c7c8f03f416bd" target="_top" xlink:title="locomotor.components.JSONDisplayable.toJSON">
<polygon fill="#ffffff" stroke="#000000" points="87.0098,-.5 87.0098,-18.5 322.5557,-18.5 322.5557,-.5 87.0098,-.5"/>
<text text-anchor="middle" x="204.7827" y="-6.5" font-family="Helvetica,sans-Serif" font-size="10.00" fill="#000000">locomotor.components.JSONDisplayable.toJSON</text>
</a>
</g>
</g>
<!-- Node1&#45;&gt;Node5 -->
<g id="edge4" class="edge">
<title>Node1&#45;&gt;Node5</title>
<path fill="none" stroke="#191970" d="M34.5991,-65.4101C45.866,-54.7307 66.1406,-37.3493 87.0098,-28.5 93.7609,-25.6373 100.8974,-23.203 108.1836,-21.1333"/>
<polygon fill="#191970" stroke="#191970" points="109.3926,-24.4354 118.1898,-18.5311 107.6308,-17.6607 109.3926,-24.4354"/>
</g>
</g>
</svg>
