<?xml version="1.0" encoding="UTF-8" standalone="no"?>
<!DOCTYPE svg PUBLIC "-//W3C//DTD SVG 1.1//EN"
 "http://www.w3.org/Graphics/SVG/1.1/DTD/svg11.dtd">
<!-- Generated by graphviz version 2.40.1 (20161225.0304)
 -->
<!-- Title: register Pages: 1 -->
<svg width="489pt" height="131pt"
 viewBox="0.00 0.00 489.29 131.00" xmlns="http://www.w3.org/2000/svg" xmlns:xlink="http://www.w3.org/1999/xlink">
<g id="graph0" class="graph" transform="scale(1 1) rotate(0) translate(4 127)">
<title>register</title>
<polygon fill="#ffffff" stroke="transparent" points="-4,4 -4,-127 485.2939,-127 485.2939,4 -4,4"/>
<!-- Node1 -->
<g id="node1" class="node">
<title>Node1</title>
<polygon fill="#bfbfbf" stroke="#000000" points="0,-75.5 0,-93.5 49.3447,-93.5 49.3447,-75.5 0,-75.5"/>
<text text-anchor="middle" x="24.6724" y="-81.5" font-family="Helvetica,sans-Serif" font-size="10.00" fill="#000000">register</text>
</g>
<!-- Node2 -->
<g id="node2" class="node">
<title>Node2</title>
<g id="a_node2"><a xlink:href="classlocomotor_1_1front_1_1components_1_1network_1_1_client_request.html#a5177dbc0e509337643b1931cab9832ca" target="_top" xlink:title="locomotor.front.components.network.\lClientRequest.addParam">
<polygon fill="#ffffff" stroke="#000000" points="85.3447,-94.5 85.3447,-122.5 265.3193,-122.5 265.3193,-94.5 85.3447,-94.5"/>
<text text-anchor="start" x="93.3447" y="-110.5" font-family="Helvetica,sans-Serif" font-size="10.00" fill="#000000">locomotor.front.components.network.</text>
<text text-anchor="middle" x="175.332" y="-100.5" font-family="Helvetica,sans-Serif" font-size="10.00" fill="#000000">ClientRequest.addParam</text>
</a>
</g>
</g>
<!-- Node1&#45;&gt;Node2 -->
<g id="edge1" class="edge">
<title>Node1&#45;&gt;Node2</title>
<path fill="none" stroke="#191970" d="M49.5507,-88.4631C57.6577,-89.7546 67.2075,-91.2758 77.3625,-92.8935"/>
<polygon fill="#191970" stroke="#191970" points="76.8306,-96.3528 87.2568,-94.4697 77.9319,-89.44 76.8306,-96.3528"/>
</g>
<!-- Node4 -->
<g id="node4" class="node">
<title>Node4</title>
<g id="a_node4"><a xlink:href="classlocomotor_1_1front_1_1components_1_1network_1_1_client_request.html#af820b68be6077f053a589af5c865700c" target="_top" xlink:title="locomotor.front.components.network.\lClientRequest.requestJson">
<polygon fill="#ffffff" stroke="#000000" points="85.3447,-47.5 85.3447,-75.5 265.3193,-75.5 265.3193,-47.5 85.3447,-47.5"/>
<text text-anchor="start" x="93.3447" y="-63.5" font-family="Helvetica,sans-Serif" font-size="10.00" fill="#000000">locomotor.front.components.network.</text>
<text text-anchor="middle" x="175.332" y="-53.5" font-family="Helvetica,sans-Serif" font-size="10.00" fill="#000000">ClientRequest.requestJson</text>
</a>
</g>
</g>
<!-- Node1&#45;&gt;Node4 -->
<g id="edge3" class="edge">
<title>Node1&#45;&gt;Node4</title>
<path fill="none" stroke="#191970" d="M49.5507,-80.702C57.1184,-79.5467 65.9433,-78.1995 75.344,-76.7644"/>
<polygon fill="#191970" stroke="#191970" points="75.9633,-80.2105 85.3205,-75.2413 74.9068,-73.2906 75.9633,-80.2105"/>
</g>
<!-- Node3 -->
<g id="node3" class="node">
<title>Node3</title>
<g id="a_node3"><a xlink:href="classlocomotor_1_1front_1_1components_1_1network_1_1_file_upload.html#ab075e2b20b12151e05bf1fb51e40c1db" target="_top" xlink:title="locomotor.front.components.network.\lFileUpload.add">
<polygon fill="#ffffff" stroke="#000000" points="301.3193,-94.5 301.3193,-122.5 481.2939,-122.5 481.2939,-94.5 301.3193,-94.5"/>
<text text-anchor="start" x="309.3193" y="-110.5" font-family="Helvetica,sans-Serif" font-size="10.00" fill="#000000">locomotor.front.components.network.</text>
<text text-anchor="middle" x="391.3066" y="-100.5" font-family="Helvetica,sans-Serif" font-size="10.00" fill="#000000">FileUpload.add</text>
</a>
</g>
</g>
<!-- Node2&#45;&gt;Node3 -->
<g id="edge2" class="edge">
<title>Node2&#45;&gt;Node3</title>
<path fill="none" stroke="#191970" d="M265.3608,-108.5C273.8463,-108.5 282.484,-108.5 291.0563,-108.5"/>
<polygon fill="#191970" stroke="#191970" points="291.0765,-112.0001 301.0765,-108.5 291.0764,-105.0001 291.0765,-112.0001"/>
</g>
<!-- Node5 -->
<g id="node5" class="node">
<title>Node5</title>
<g id="a_node5"><a xlink:href="classlocomotor_1_1front_1_1components_1_1network_1_1_file_upload.html#abbb8544c46b88f1a6f1e163725aaa1b3" target="_top" xlink:title="locomotor.front.components.network.\lFileUpload.send">
<polygon fill="#ffffff" stroke="#000000" points="301.3193,-47.5 301.3193,-75.5 481.2939,-75.5 481.2939,-47.5 301.3193,-47.5"/>
<text text-anchor="start" x="309.3193" y="-63.5" font-family="Helvetica,sans-Serif" font-size="10.00" fill="#000000">locomotor.front.components.network.</text>
<text text-anchor="middle" x="391.3066" y="-53.5" font-family="Helvetica,sans-Serif" font-size="10.00" fill="#000000">FileUpload.send</text>
</a>
</g>
</g>
<!-- Node4&#45;&gt;Node5 -->
<g id="edge4" class="edge">
<title>Node4&#45;&gt;Node5</title>
<path fill="none" stroke="#191970" d="M265.3608,-61.5C273.8463,-61.5 282.484,-61.5 291.0563,-61.5"/>
<polygon fill="#191970" stroke="#191970" points="291.0765,-65.0001 301.0765,-61.5 291.0764,-58.0001 291.0765,-65.0001"/>
</g>
<!-- Node6 -->
<g id="node6" class="node">
<title>Node6</title>
<g id="a_node6"><a xlink:href="classlocomotor_1_1front_1_1components_1_1network_1_1_file_upload.html#ad90278946fac31b255b0ea524061a60b" target="_top" xlink:title="locomotor.front.components.network.\lFileUpload.getURLConnection">
<polygon fill="#ffffff" stroke="#000000" points="301.3193,-.5 301.3193,-28.5 481.2939,-28.5 481.2939,-.5 301.3193,-.5"/>
<text text-anchor="start" x="309.3193" y="-16.5" font-family="Helvetica,sans-Serif" font-size="10.00" fill="#000000">locomotor.front.components.network.</text>
<text text-anchor="middle" x="391.3066" y="-6.5" font-family="Helvetica,sans-Serif" font-size="10.00" fill="#000000">FileUpload.getURLConnection</text>
</a>
</g>
</g>
<!-- Node4&#45;&gt;Node6 -->
<g id="edge5" class="edge">
<title>Node4&#45;&gt;Node6</title>
<path fill="none" stroke="#191970" d="M239.839,-47.4621C264.0897,-42.1847 291.8524,-36.1431 316.9293,-30.6859"/>
<polygon fill="#191970" stroke="#191970" points="317.7321,-34.0932 326.7591,-28.5467 316.2436,-27.2532 317.7321,-34.0932"/>
</g>
</g>
</svg>
