<?xml version="1.0" encoding="UTF-8" standalone="no"?>
<!DOCTYPE svg PUBLIC "-//W3C//DTD SVG 1.1//EN"
 "http://www.w3.org/Graphics/SVG/1.1/DTD/svg11.dtd">
<!-- Generated by graphviz version 2.40.1 (20161225.0304)
 -->
<!-- Title: Universe Pages: 1 -->
<svg width="230pt" height="82pt"
 viewBox="0.00 0.00 229.59 82.00" xmlns="http://www.w3.org/2000/svg" xmlns:xlink="http://www.w3.org/1999/xlink">
<g id="graph0" class="graph" transform="scale(1 1) rotate(0) translate(4 78)">
<title>Universe</title>
<polygon fill="#ffffff" stroke="transparent" points="-4,4 -4,-78 225.5884,-78 225.5884,4 -4,4"/>
<!-- Node1 -->
<g id="node1" class="node">
<title>Node1</title>
<polygon fill="#bfbfbf" stroke="#000000" points="79.4531,-.5 79.4531,-18.5 134.9111,-18.5 134.9111,-.5 79.4531,-.5"/>
<text text-anchor="middle" x="107.1821" y="-6.5" font-family="Helvetica,sans-Serif" font-size="10.00" fill="#000000">Universe</text>
</g>
<!-- Node2 -->
<g id="node2" class="node">
<title>Node2</title>
<g id="a_node2"><a xlink:href="interfacelocomotor_1_1components_1_1_j_s_o_n_displayable.html" target="_top" xlink:title="JSONDisplayable">
<polygon fill="#ffffff" stroke="#000000" points="0,-55.5 0,-73.5 94.3643,-73.5 94.3643,-55.5 0,-55.5"/>
<text text-anchor="middle" x="47.1821" y="-61.5" font-family="Helvetica,sans-Serif" font-size="10.00" fill="#000000">JSONDisplayable</text>
</a>
</g>
</g>
<!-- Node2&#45;&gt;Node1 -->
<g id="edge1" class="edge">
<title>Node2&#45;&gt;Node1</title>
<path fill="none" stroke="#191970" d="M64.5449,-48.5841C75.09,-38.9177 88.1843,-26.9147 97.0591,-18.7795"/>
<polygon fill="#191970" stroke="#191970" points="62.0964,-46.0805 57.0899,-55.4179 66.8265,-51.2406 62.0964,-46.0805"/>
</g>
<!-- Node3 -->
<g id="node3" class="node">
<title>Node3</title>
<g id="a_node3"><a xlink:href="interfacelocomotor_1_1components_1_1_j_s_o_n_convertissable.html" target="_top" xlink:title="JSONConvertissable">
<polygon fill="#ffffff" stroke="#000000" points="112.7759,-55.5 112.7759,-73.5 221.5884,-73.5 221.5884,-55.5 112.7759,-55.5"/>
<text text-anchor="middle" x="167.1821" y="-61.5" font-family="Helvetica,sans-Serif" font-size="10.00" fill="#000000">JSONConvertissable</text>
</a>
</g>
</g>
<!-- Node3&#45;&gt;Node1 -->
<g id="edge2" class="edge">
<title>Node3&#45;&gt;Node1</title>
<path fill="none" stroke="#191970" d="M149.8194,-48.5841C139.2742,-38.9177 126.18,-26.9147 117.3052,-18.7795"/>
<polygon fill="#191970" stroke="#191970" points="147.5377,-51.2406 157.2743,-55.4179 152.2678,-46.0805 147.5377,-51.2406"/>
</g>
</g>
</svg>
