<?xml version="1.0" encoding="UTF-8" standalone="no"?>
<!DOCTYPE svg PUBLIC "-//W3C//DTD SVG 1.1//EN"
 "http://www.w3.org/Graphics/SVG/1.1/DTD/svg11.dtd">
<!-- Generated by graphviz version 2.40.1 (20161225.0304)
 -->
<!-- Title: fromJSON Pages: 1 -->
<svg width="253pt" height="121pt"
 viewBox="0.00 0.00 252.74 121.00" xmlns="http://www.w3.org/2000/svg" xmlns:xlink="http://www.w3.org/1999/xlink">
<g id="graph0" class="graph" transform="scale(1 1) rotate(0) translate(4 117)">
<title>fromJSON</title>
<polygon fill="#ffffff" stroke="transparent" points="-4,4 -4,-117 248.7432,-117 248.7432,4 -4,4"/>
<!-- Node1 -->
<g id="node1" class="node">
<title>Node1</title>
<polygon fill="#bfbfbf" stroke="#000000" points="0,-42.5 0,-60.5 62.6699,-60.5 62.6699,-42.5 0,-42.5"/>
<text text-anchor="middle" x="31.335" y="-48.5" font-family="Helvetica,sans-Serif" font-size="10.00" fill="#000000">fromJSON</text>
</g>
<!-- Node2 -->
<g id="node2" class="node">
<title>Node2</title>
<g id="a_node2"><a xlink:href="classlocomotor_1_1components_1_1types_1_1_c_interval.html#a8977ca8c87b00639da116d1441a878ec" target="_top" xlink:title="locomotor.components.types.\lCInterval.min">
<polygon fill="#ffffff" stroke="#000000" points="98.6699,-84.5 98.6699,-112.5 244.7432,-112.5 244.7432,-84.5 98.6699,-84.5"/>
<text text-anchor="start" x="106.6699" y="-100.5" font-family="Helvetica,sans-Serif" font-size="10.00" fill="#000000">locomotor.components.types.</text>
<text text-anchor="middle" x="171.7065" y="-90.5" font-family="Helvetica,sans-Serif" font-size="10.00" fill="#000000">CInterval.min</text>
</a>
</g>
</g>
<!-- Node1&#45;&gt;Node2 -->
<g id="edge1" class="edge">
<title>Node1&#45;&gt;Node2</title>
<path fill="none" stroke="#191970" d="M56.2004,-60.6124C68.8733,-65.193 84.551,-70.7625 98.6699,-75.5 104.3217,-77.3964 110.2345,-79.3342 116.1436,-81.2406"/>
<polygon fill="#191970" stroke="#191970" points="115.4467,-84.6924 126.0376,-84.4066 117.5801,-78.0254 115.4467,-84.6924"/>
</g>
<!-- Node3 -->
<g id="node3" class="node">
<title>Node3</title>
<g id="a_node3"><a xlink:href="classlocomotor_1_1components_1_1types_1_1_c_interval.html#a63edd36c00e0027edd899384e6f168f9" target="_top" xlink:title="locomotor.components.types.\lCInterval.max">
<polygon fill="#ffffff" stroke="#000000" points="98.6699,-37.5 98.6699,-65.5 244.7432,-65.5 244.7432,-37.5 98.6699,-37.5"/>
<text text-anchor="start" x="106.6699" y="-53.5" font-family="Helvetica,sans-Serif" font-size="10.00" fill="#000000">locomotor.components.types.</text>
<text text-anchor="middle" x="171.7065" y="-43.5" font-family="Helvetica,sans-Serif" font-size="10.00" fill="#000000">CInterval.max</text>
</a>
</g>
</g>
<!-- Node1&#45;&gt;Node3 -->
<g id="edge2" class="edge">
<title>Node1&#45;&gt;Node3</title>
<path fill="none" stroke="#191970" d="M62.8371,-51.5C70.5894,-51.5 79.2574,-51.5 88.2261,-51.5"/>
<polygon fill="#191970" stroke="#191970" points="88.447,-55.0001 98.4469,-51.5 88.4469,-48.0001 88.447,-55.0001"/>
</g>
<!-- Node4 -->
<g id="node4" class="node">
<title>Node4</title>
<g id="a_node4"><a xlink:href="classlocomotor_1_1components_1_1types_1_1_c_interval_integer.html#a4ece5be3d0255219efc9a1ec16f3775c" target="_top" xlink:title="CIntervalInteger">
<polygon fill="#ffffff" stroke="#000000" points="128.1328,-.5 128.1328,-18.5 215.2803,-18.5 215.2803,-.5 128.1328,-.5"/>
<text text-anchor="middle" x="171.7065" y="-6.5" font-family="Helvetica,sans-Serif" font-size="10.00" fill="#000000">CIntervalInteger</text>
</a>
</g>
</g>
<!-- Node1&#45;&gt;Node4 -->
<g id="edge3" class="edge">
<title>Node1&#45;&gt;Node4</title>
<path fill="none" stroke="#191970" d="M56.4512,-42.4228C69.0514,-37.9965 84.5911,-32.7293 98.6699,-28.5 107.1487,-25.953 116.2399,-23.4268 125.0295,-21.0879"/>
<polygon fill="#191970" stroke="#191970" points="125.9891,-24.4547 134.7764,-18.5357 124.2159,-17.683 125.9891,-24.4547"/>
</g>
</g>
</svg>
