<?xml version="1.0" encoding="UTF-8" standalone="no"?>
<!DOCTYPE svg PUBLIC "-//W3C//DTD SVG 1.1//EN"
 "http://www.w3.org/Graphics/SVG/1.1/DTD/svg11.dtd">
<!-- Generated by graphviz version 2.40.1 (20161225.0304)
 -->
<!-- Title: addBooking Pages: 1 -->
<svg width="437pt" height="37pt"
 viewBox="0.00 0.00 436.51 37.00" xmlns="http://www.w3.org/2000/svg" xmlns:xlink="http://www.w3.org/1999/xlink">
<g id="graph0" class="graph" transform="scale(1 1) rotate(0) translate(4 33)">
<title>addBooking</title>
<polygon fill="#ffffff" stroke="transparent" points="-4,4 -4,-33 432.5059,-33 432.5059,4 -4,4"/>
<!-- Node1 -->
<g id="node1" class="node">
<title>Node1</title>
<polygon fill="#bfbfbf" stroke="#000000" points="0,-5.5 0,-23.5 68.8223,-23.5 68.8223,-5.5 0,-5.5"/>
<text text-anchor="middle" x="34.4111" y="-11.5" font-family="Helvetica,sans-Serif" font-size="10.00" fill="#000000">addBooking</text>
</g>
<!-- Node2 -->
<g id="node2" class="node">
<title>Node2</title>
<g id="a_node2"><a xlink:href="classlocomotor_1_1components_1_1network_1_1_a_p_i.html#a547463fbc7fb7b485886f0917e2c0b78" target="_top" xlink:title="locomotor.components.network.\lAPI.createHooks">
<polygon fill="#ffffff" stroke="#000000" points="104.8223,-.5 104.8223,-28.5 262.0088,-28.5 262.0088,-.5 104.8223,-.5"/>
<text text-anchor="start" x="112.8223" y="-16.5" font-family="Helvetica,sans-Serif" font-size="10.00" fill="#000000">locomotor.components.network.</text>
<text text-anchor="middle" x="183.4155" y="-6.5" font-family="Helvetica,sans-Serif" font-size="10.00" fill="#000000">API.createHooks</text>
</a>
</g>
</g>
<!-- Node1&#45;&gt;Node2 -->
<g id="edge1" class="edge">
<title>Node1&#45;&gt;Node2</title>
<path fill="none" stroke="#191970" d="M79.1917,-14.5C87.2399,-14.5 95.8415,-14.5 104.5229,-14.5"/>
<polygon fill="#191970" stroke="#191970" points="78.9703,-11.0001 68.9703,-14.5 78.9702,-18.0001 78.9703,-11.0001"/>
</g>
<!-- Node3 -->
<g id="node3" class="node">
<title>Node3</title>
<g id="a_node3"><a xlink:href="classlocomotor_1_1core_1_1_main.html#a8b260eecbaabcef8473fd87ada040682" target="_top" xlink:title="locomotor.core.Main.main">
<polygon fill="#ffffff" stroke="#000000" points="298.0088,-5.5 298.0088,-23.5 428.5059,-23.5 428.5059,-5.5 298.0088,-5.5"/>
<text text-anchor="middle" x="363.2573" y="-11.5" font-family="Helvetica,sans-Serif" font-size="10.00" fill="#000000">locomotor.core.Main.main</text>
</a>
</g>
</g>
<!-- Node2&#45;&gt;Node3 -->
<g id="edge2" class="edge">
<title>Node2&#45;&gt;Node3</title>
<path fill="none" stroke="#191970" d="M272.2086,-14.5C280.8969,-14.5 289.5992,-14.5 297.9911,-14.5"/>
<polygon fill="#191970" stroke="#191970" points="272.0352,-11.0001 262.0351,-14.5 272.0351,-18.0001 272.0352,-11.0001"/>
</g>
</g>
</svg>
