<?xml version="1.0" encoding="UTF-8" standalone="no"?>
<!DOCTYPE svg PUBLIC "-//W3C//DTD SVG 1.1//EN"
 "http://www.w3.org/Graphics/SVG/1.1/DTD/svg11.dtd">
<!-- Generated by graphviz version 2.40.1 (20161225.0304)
 -->
<!-- Title: CIntegerList Pages: 1 -->
<svg width="347pt" height="204pt"
 viewBox="0.00 0.00 347.10 204.00" xmlns="http://www.w3.org/2000/svg" xmlns:xlink="http://www.w3.org/1999/xlink">
<g id="graph0" class="graph" transform="scale(1 1) rotate(0) translate(4 200)">
<title>CIntegerList</title>
<polygon fill="#ffffff" stroke="transparent" points="-4,4 -4,-200 343.0957,-200 343.0957,4 -4,4"/>
<!-- Node1 -->
<g id="node1" class="node">
<title>Node1</title>
<polygon fill="#bfbfbf" stroke="#000000" points="180.7314,-.5 180.7314,-18.5 250.6475,-18.5 250.6475,-.5 180.7314,-.5"/>
<text text-anchor="middle" x="215.6895" y="-6.5" font-family="Helvetica,sans-Serif" font-size="10.00" fill="#000000">CIntegerList</text>
</g>
<!-- Node2 -->
<g id="node2" class="node">
<title>Node2</title>
<g id="a_node2"><a xlink:href="interfacelocomotor_1_1components_1_1types_1_1_c_item_type.html" target="_top" xlink:title="CItemType">
<polygon fill="#ffffff" stroke="#000000" points="132.5122,-65.5 132.5122,-83.5 196.8667,-83.5 196.8667,-65.5 132.5122,-65.5"/>
<text text-anchor="middle" x="164.6895" y="-71.5" font-family="Helvetica,sans-Serif" font-size="10.00" fill="#000000">CItemType</text>
</a>
</g>
</g>
<!-- Node2&#45;&gt;Node1 -->
<g id="edge1" class="edge">
<title>Node2&#45;&gt;Node1</title>
<path fill="none" stroke="#191970" d="M178.1741,-57.3137C187.8296,-45.0077 200.4645,-28.9043 208.3281,-18.8821"/>
<polygon fill="#191970" stroke="#191970" points="175.2001,-55.4341 171.7808,-65.462 180.7073,-59.7551 175.2001,-55.4341"/>
</g>
<!-- Node3 -->
<g id="node3" class="node">
<title>Node3</title>
<g id="a_node3"><a xlink:href="interfacelocomotor_1_1components_1_1types_1_1_c_comparable_type.html" target="_top" xlink:title="CComparableType">
<polygon fill="#ffffff" stroke="#000000" points="0,-121.5 0,-139.5 99.3789,-139.5 99.3789,-121.5 0,-121.5"/>
<text text-anchor="middle" x="49.6895" y="-127.5" font-family="Helvetica,sans-Serif" font-size="10.00" fill="#000000">CComparableType</text>
</a>
</g>
</g>
<!-- Node3&#45;&gt;Node2 -->
<g id="edge2" class="edge">
<title>Node3&#45;&gt;Node2</title>
<path fill="none" stroke="#191970" d="M77.5886,-116.9143C98.8082,-106.5813 127.4229,-92.6472 145.9648,-83.6181"/>
<polygon fill="#191970" stroke="#191970" points="75.8805,-113.8531 68.4221,-121.378 78.9452,-120.1466 75.8805,-113.8531"/>
</g>
<!-- Node4 -->
<g id="node4" class="node">
<title>Node4</title>
<g id="a_node4"><a xlink:href="interfacelocomotor_1_1components_1_1types_1_1_c_type.html" target="_top" xlink:title="CType">
<polygon fill="#ffffff" stroke="#000000" points="27.2363,-177.5 27.2363,-195.5 72.1426,-195.5 72.1426,-177.5 27.2363,-177.5"/>
<text text-anchor="middle" x="49.6895" y="-183.5" font-family="Helvetica,sans-Serif" font-size="10.00" fill="#000000">CType</text>
</a>
</g>
</g>
<!-- Node4&#45;&gt;Node3 -->
<g id="edge3" class="edge">
<title>Node4&#45;&gt;Node3</title>
<path fill="none" stroke="#191970" d="M49.6895,-167.2065C49.6895,-157.8384 49.6895,-147.0262 49.6895,-139.5752"/>
<polygon fill="#191970" stroke="#191970" points="46.1896,-167.2527 49.6895,-177.2527 53.1896,-167.2528 46.1896,-167.2527"/>
</g>
<!-- Node5 -->
<g id="node5" class="node">
<title>Node5</title>
<g id="a_node5"><a xlink:href="interfacelocomotor_1_1components_1_1_j_s_o_n_displayable.html" target="_top" xlink:title="JSONDisplayable">
<polygon fill="#ffffff" stroke="#000000" points="117.5073,-121.5 117.5073,-139.5 211.8716,-139.5 211.8716,-121.5 117.5073,-121.5"/>
<text text-anchor="middle" x="164.6895" y="-127.5" font-family="Helvetica,sans-Serif" font-size="10.00" fill="#000000">JSONDisplayable</text>
</a>
</g>
</g>
<!-- Node5&#45;&gt;Node2 -->
<g id="edge4" class="edge">
<title>Node5&#45;&gt;Node2</title>
<path fill="none" stroke="#191970" d="M164.6895,-111.2065C164.6895,-101.8384 164.6895,-91.0262 164.6895,-83.5752"/>
<polygon fill="#191970" stroke="#191970" points="161.1896,-111.2527 164.6895,-121.2527 168.1896,-111.2528 161.1896,-111.2527"/>
</g>
<!-- Node6 -->
<g id="node6" class="node">
<title>Node6</title>
<g id="a_node6"><a xlink:href="interfacelocomotor_1_1components_1_1_j_s_o_n_convertissable.html" target="_top" xlink:title="JSONConvertissable">
<polygon fill="#ffffff" stroke="#000000" points="230.2832,-121.5 230.2832,-139.5 339.0957,-139.5 339.0957,-121.5 230.2832,-121.5"/>
<text text-anchor="middle" x="284.6895" y="-127.5" font-family="Helvetica,sans-Serif" font-size="10.00" fill="#000000">JSONConvertissable</text>
</a>
</g>
</g>
<!-- Node6&#45;&gt;Node2 -->
<g id="edge5" class="edge">
<title>Node6&#45;&gt;Node2</title>
<path fill="none" stroke="#191970" d="M255.8761,-117.0538C233.7043,-106.7069 203.6634,-92.6879 184.2282,-83.6181"/>
<polygon fill="#191970" stroke="#191970" points="254.6003,-120.3207 265.1423,-121.378 257.5606,-113.9774 254.6003,-120.3207"/>
</g>
<!-- Node7 -->
<g id="node7" class="node">
<title>Node7</title>
<polygon fill="#ffffff" stroke="#bfbfbf" points="214.7783,-65.5 214.7783,-83.5 318.6006,-83.5 318.6006,-65.5 214.7783,-65.5"/>
<text text-anchor="middle" x="266.6895" y="-71.5" font-family="Helvetica,sans-Serif" font-size="10.00" fill="#000000">ArrayList&lt; Integer &gt;</text>
</g>
<!-- Node7&#45;&gt;Node1 -->
<g id="edge6" class="edge">
<title>Node7&#45;&gt;Node1</title>
<path fill="none" stroke="#9a32cd" stroke-dasharray="5,2" d="M253.2048,-57.3137C243.5493,-45.0077 230.9144,-28.9043 223.0508,-18.8821"/>
<polygon fill="#9a32cd" stroke="#9a32cd" points="250.6716,-59.7551 259.5981,-65.462 256.1788,-55.4341 250.6716,-59.7551"/>
<text text-anchor="middle" x="259.8125" y="-39" font-family="Helvetica,sans-Serif" font-size="10.00" fill="#000000"> _value</text>
</g>
</g>
</svg>
