<?xml version="1.0" encoding="UTF-8" standalone="no"?>
<!DOCTYPE svg PUBLIC "-//W3C//DTD SVG 1.1//EN"
 "http://www.w3.org/Graphics/SVG/1.1/DTD/svg11.dtd">
<!-- Generated by graphviz version 2.40.1 (20161225.0304)
 -->
<!-- Title: success Pages: 1 -->
<svg width="420pt" height="37pt"
 viewBox="0.00 0.00 419.81 37.00" xmlns="http://www.w3.org/2000/svg" xmlns:xlink="http://www.w3.org/1999/xlink">
<g id="graph0" class="graph" transform="scale(1 1) rotate(0) translate(4 33)">
<title>success</title>
<polygon fill="#ffffff" stroke="transparent" points="-4,4 -4,-33 415.8066,-33 415.8066,4 -4,4"/>
<!-- Node1 -->
<g id="node1" class="node">
<title>Node1</title>
<polygon fill="#bfbfbf" stroke="#000000" points="0,-5.5 0,-23.5 52.123,-23.5 52.123,-5.5 0,-5.5"/>
<text text-anchor="middle" x="26.0615" y="-11.5" font-family="Helvetica,sans-Serif" font-size="10.00" fill="#000000">success</text>
</g>
<!-- Node2 -->
<g id="node2" class="node">
<title>Node2</title>
<g id="a_node2"><a xlink:href="classlocomotor_1_1components_1_1network_1_1_a_p_i.html#a547463fbc7fb7b485886f0917e2c0b78" target="_top" xlink:title="locomotor.components.network.\lAPI.createHooks">
<polygon fill="#ffffff" stroke="#000000" points="88.123,-.5 88.123,-28.5 245.3096,-28.5 245.3096,-.5 88.123,-.5"/>
<text text-anchor="start" x="96.123" y="-16.5" font-family="Helvetica,sans-Serif" font-size="10.00" fill="#000000">locomotor.components.network.</text>
<text text-anchor="middle" x="166.7163" y="-6.5" font-family="Helvetica,sans-Serif" font-size="10.00" fill="#000000">API.createHooks</text>
</a>
</g>
</g>
<!-- Node1&#45;&gt;Node2 -->
<g id="edge1" class="edge">
<title>Node1&#45;&gt;Node2</title>
<path fill="none" stroke="#191970" d="M62.4436,-14.5C70.3454,-14.5 78.9994,-14.5 87.8363,-14.5"/>
<polygon fill="#191970" stroke="#191970" points="62.188,-11.0001 52.188,-14.5 62.1879,-18.0001 62.188,-11.0001"/>
</g>
<!-- Node3 -->
<g id="node3" class="node">
<title>Node3</title>
<g id="a_node3"><a xlink:href="classlocomotor_1_1core_1_1_main.html#a8b260eecbaabcef8473fd87ada040682" target="_top" xlink:title="locomotor.core.Main.main">
<polygon fill="#ffffff" stroke="#000000" points="281.3096,-5.5 281.3096,-23.5 411.8066,-23.5 411.8066,-5.5 281.3096,-5.5"/>
<text text-anchor="middle" x="346.5581" y="-11.5" font-family="Helvetica,sans-Serif" font-size="10.00" fill="#000000">locomotor.core.Main.main</text>
</a>
</g>
</g>
<!-- Node2&#45;&gt;Node3 -->
<g id="edge2" class="edge">
<title>Node2&#45;&gt;Node3</title>
<path fill="none" stroke="#191970" d="M255.5093,-14.5C264.1976,-14.5 272.9,-14.5 281.2918,-14.5"/>
<polygon fill="#191970" stroke="#191970" points="255.3359,-11.0001 245.3359,-14.5 255.3359,-18.0001 255.3359,-11.0001"/>
</g>
</g>
</svg>
