<?xml version="1.0" encoding="UTF-8" standalone="no"?>
<!DOCTYPE svg PUBLIC "-//W3C//DTD SVG 1.1//EN"
 "http://www.w3.org/Graphics/SVG/1.1/DTD/svg11.dtd">
<!-- Generated by graphviz version 2.40.1 (20161225.0304)
 -->
<!-- Title: graphValue Pages: 1 -->
<svg width="256pt" height="84pt"
 viewBox="0.00 0.00 256.49 84.00" xmlns="http://www.w3.org/2000/svg" xmlns:xlink="http://www.w3.org/1999/xlink">
<g id="graph0" class="graph" transform="scale(1 1) rotate(0) translate(4 80)">
<title>graphValue</title>
<polygon fill="#ffffff" stroke="transparent" points="-4,4 -4,-80 252.4883,-80 252.4883,4 -4,4"/>
<!-- Node1 -->
<g id="node1" class="node">
<title>Node1</title>
<polygon fill="#bfbfbf" stroke="#000000" points="0,-28.5 0,-46.5 66.415,-46.5 66.415,-28.5 0,-28.5"/>
<text text-anchor="middle" x="33.2075" y="-34.5" font-family="Helvetica,sans-Serif" font-size="10.00" fill="#000000">graphValue</text>
</g>
<!-- Node2 -->
<g id="node2" class="node">
<title>Node2</title>
<g id="a_node2"><a xlink:href="classlocomotor_1_1components_1_1types_1_1_c_set_graph.html#a4687a55c850a2425f7c0a45169e8d688" target="_top" xlink:title="locomotor.components.types.\lCSetGraph.getDiameter">
<polygon fill="#ffffff" stroke="#000000" points="102.415,-47.5 102.415,-75.5 248.4883,-75.5 248.4883,-47.5 102.415,-47.5"/>
<text text-anchor="start" x="110.415" y="-63.5" font-family="Helvetica,sans-Serif" font-size="10.00" fill="#000000">locomotor.components.types.</text>
<text text-anchor="middle" x="175.4517" y="-53.5" font-family="Helvetica,sans-Serif" font-size="10.00" fill="#000000">CSetGraph.getDiameter</text>
</a>
</g>
</g>
<!-- Node1&#45;&gt;Node2 -->
<g id="edge1" class="edge">
<title>Node1&#45;&gt;Node2</title>
<path fill="none" stroke="#191970" d="M66.5575,-43.1269C74.4572,-44.4598 83.2328,-45.9405 92.2762,-47.4663"/>
<polygon fill="#191970" stroke="#191970" points="91.7227,-50.9223 102.1657,-49.1349 92.8874,-44.0199 91.7227,-50.9223"/>
</g>
<!-- Node3 -->
<g id="node3" class="node">
<title>Node3</title>
<g id="a_node3"><a xlink:href="classlocomotor_1_1components_1_1types_1_1_c_set_graph.html#a02a5132b9af1582e9f0759ed798cbca0" target="_top" xlink:title="locomotor.components.types.\lCSetGraph.distance">
<polygon fill="#ffffff" stroke="#000000" points="102.415,-.5 102.415,-28.5 248.4883,-28.5 248.4883,-.5 102.415,-.5"/>
<text text-anchor="start" x="110.415" y="-16.5" font-family="Helvetica,sans-Serif" font-size="10.00" fill="#000000">locomotor.components.types.</text>
<text text-anchor="middle" x="175.4517" y="-6.5" font-family="Helvetica,sans-Serif" font-size="10.00" fill="#000000">CSetGraph.distance</text>
</a>
</g>
</g>
<!-- Node1&#45;&gt;Node3 -->
<g id="edge2" class="edge">
<title>Node1&#45;&gt;Node3</title>
<path fill="none" stroke="#191970" d="M66.5575,-32.1075C74.4572,-30.8302 83.2328,-29.4112 92.2762,-27.949"/>
<polygon fill="#191970" stroke="#191970" points="92.8526,-31.4013 102.1657,-26.3499 91.7352,-24.4911 92.8526,-31.4013"/>
</g>
</g>
</svg>
