<?xml version="1.0" encoding="UTF-8" standalone="no"?>
<!DOCTYPE svg PUBLIC "-//W3C//DTD SVG 1.1//EN"
 "http://www.w3.org/Graphics/SVG/1.1/DTD/svg11.dtd">
<!-- Generated by graphviz version 2.40.1 (20161225.0304)
 -->
<!-- Title: failure Pages: 1 -->
<svg width="275pt" height="158pt"
 viewBox="0.00 0.00 275.37 158.00" xmlns="http://www.w3.org/2000/svg" xmlns:xlink="http://www.w3.org/1999/xlink">
<g id="graph0" class="graph" transform="scale(1 1) rotate(0) translate(4 154)">
<title>failure</title>
<polygon fill="#ffffff" stroke="transparent" points="-4,4 -4,-154 271.3652,-154 271.3652,4 -4,4"/>
<!-- Node1 -->
<g id="node1" class="node">
<title>Node1</title>
<polygon fill="#bfbfbf" stroke="#000000" points="0,-73.5 0,-91.5 43.2363,-91.5 43.2363,-73.5 0,-73.5"/>
<text text-anchor="middle" x="21.6182" y="-79.5" font-family="Helvetica,sans-Serif" font-size="10.00" fill="#000000">failure</text>
</g>
<!-- Node2 -->
<g id="node2" class="node">
<title>Node2</title>
<g id="a_node2"><a xlink:href="classlocomotor_1_1components_1_1network_1_1_network_response.html#a143bb7402270f3dc0872ab5586653f61" target="_top" xlink:title="toByteArrayOutputStream">
<polygon fill="#ffffff" stroke="#000000" points="108.0547,-131.5 108.0547,-149.5 238.5469,-149.5 238.5469,-131.5 108.0547,-131.5"/>
<text text-anchor="middle" x="173.3008" y="-137.5" font-family="Helvetica,sans-Serif" font-size="10.00" fill="#000000">toByteArrayOutputStream</text>
</a>
</g>
</g>
<!-- Node1&#45;&gt;Node2 -->
<g id="edge1" class="edge">
<title>Node1&#45;&gt;Node2</title>
<path fill="none" stroke="#191970" d="M31.8628,-91.6264C42.8079,-100.8676 61.0506,-114.855 79.2363,-122.5 85.171,-124.9949 91.4622,-127.1468 97.8664,-129.0025"/>
<polygon fill="#191970" stroke="#191970" points="97.4253,-132.5062 107.988,-131.6814 99.2164,-125.7392 97.4253,-132.5062"/>
</g>
<!-- Node3 -->
<g id="node3" class="node">
<title>Node3</title>
<g id="a_node3"><a xlink:href="classlocomotor_1_1components_1_1network_1_1_network_response.html#a66b0dd722c150e0c2eac12c9e6e813ef" target="_top" xlink:title="sendAnswer">
<polygon fill="#ffffff" stroke="#000000" points="137.7861,-94.5 137.7861,-112.5 208.8154,-112.5 208.8154,-94.5 137.7861,-94.5"/>
<text text-anchor="middle" x="173.3008" y="-100.5" font-family="Helvetica,sans-Serif" font-size="10.00" fill="#000000">sendAnswer</text>
</a>
</g>
</g>
<!-- Node1&#45;&gt;Node3 -->
<g id="edge2" class="edge">
<title>Node1&#45;&gt;Node3</title>
<path fill="none" stroke="#191970" d="M43.3506,-85.5088C65.2378,-88.539 99.6704,-93.3061 127.5942,-97.1721"/>
<polygon fill="#191970" stroke="#191970" points="127.1667,-100.6462 137.5522,-98.5507 128.1267,-93.7123 127.1667,-100.6462"/>
</g>
<!-- Node4 -->
<g id="node4" class="node">
<title>Node4</title>
<g id="a_node4"><a xlink:href="enumlocomotor_1_1components_1_1network_1_1_network_response_1_1_error_code.html#aae714dc01fe7f5bb1a175d0d1068bb92" target="_top" xlink:title="locomotor.components.network.\lNetworkResponse.ErrorCode.getValue">
<polygon fill="#ffffff" stroke="#000000" points="79.2363,-47.5 79.2363,-75.5 267.3652,-75.5 267.3652,-47.5 79.2363,-47.5"/>
<text text-anchor="start" x="87.2363" y="-63.5" font-family="Helvetica,sans-Serif" font-size="10.00" fill="#000000">locomotor.components.network.</text>
<text text-anchor="middle" x="173.3008" y="-53.5" font-family="Helvetica,sans-Serif" font-size="10.00" fill="#000000">NetworkResponse.ErrorCode.getValue</text>
</a>
</g>
</g>
<!-- Node1&#45;&gt;Node4 -->
<g id="edge3" class="edge">
<title>Node1&#45;&gt;Node4</title>
<path fill="none" stroke="#191970" d="M43.3506,-79.4912C50.7071,-78.4727 59.4809,-77.258 68.9485,-75.9473"/>
<polygon fill="#191970" stroke="#191970" points="69.61,-79.3891 79.0355,-74.5507 68.65,-72.4553 69.61,-79.3891"/>
</g>
<!-- Node5 -->
<g id="node5" class="node">
<title>Node5</title>
<g id="a_node5"><a xlink:href="classlocomotor_1_1components_1_1_mutable_integer.html#ab1285c4f05252364e32fd03079fa2f35" target="_top" xlink:title="locomotor.components.Mutable\lInteger.intValue">
<polygon fill="#ffffff" stroke="#000000" points="95.8159,-.5 95.8159,-28.5 250.7856,-28.5 250.7856,-.5 95.8159,-.5"/>
<text text-anchor="start" x="103.8159" y="-16.5" font-family="Helvetica,sans-Serif" font-size="10.00" fill="#000000">locomotor.components.Mutable</text>
<text text-anchor="middle" x="173.3008" y="-6.5" font-family="Helvetica,sans-Serif" font-size="10.00" fill="#000000">Integer.intValue</text>
</a>
</g>
</g>
<!-- Node1&#45;&gt;Node5 -->
<g id="edge4" class="edge">
<title>Node1&#45;&gt;Node5</title>
<path fill="none" stroke="#191970" d="M31.0027,-73.3857C41.7878,-63.4038 60.4321,-47.6066 79.2363,-38.5 84.1661,-36.1126 89.3603,-33.9445 94.6722,-31.9786"/>
<polygon fill="#191970" stroke="#191970" points="96.0128,-35.2188 104.3292,-28.6546 93.7345,-28.5999 96.0128,-35.2188"/>
</g>
</g>
</svg>
