<?xml version="1.0" encoding="UTF-8" standalone="no"?>
<!DOCTYPE svg PUBLIC "-//W3C//DTD SVG 1.1//EN"
 "http://www.w3.org/Graphics/SVG/1.1/DTD/svg11.dtd">
<!-- Generated by graphviz version 2.40.1 (20161225.0304)
 -->
<!-- Title: addItem Pages: 1 -->
<!--zoomable 843 -->
<svg id="main" version="1.1" xmlns="http://www.w3.org/2000/svg" xmlns:xlink="http://www.w3.org/1999/xlink" xml:space="preserve" onload="init(evt)">
<style type="text/css"><![CDATA[
.edge:hover path { stroke: red; }
.edge:hover polygon { stroke: red; fill: red; }
]]></style>
<script type="text/javascript"><![CDATA[
var edges = document.getElementsByTagName('g');
if (edges && edges.length) {
  for (var i=0;i<edges.length;i++) {
    if (edges[i].id.substr(0,4)=='edge') {
      edges[i].setAttribute('class','edge');
    }
  }
}
]]></script>
        <defs>
                <circle id="rim" cx="0" cy="0" r="7"/>
                <circle id="rim2" cx="0" cy="0" r="3.5"/>
                <g id="zoomPlus">
                        <use xlink:href="#rim" fill="#404040">
                                <set attributeName="fill" to="#808080" begin="zoomplus.mouseover" end="zoomplus.mouseout"/>
                        </use>
                        <path d="M-4,0h8M0,-4v8" fill="none" stroke="white" stroke-width="1.5" pointer-events="none"/>
                </g>
                <g id="zoomMin">
                        <use xlink:href="#rim" fill="#404040">
                                <set attributeName="fill" to="#808080" begin="zoomminus.mouseover" end="zoomminus.mouseout"/>
                        </use>
                        <path d="M-4,0h8" fill="none" stroke="white" stroke-width="1.5" pointer-events="none"/>
                </g>
                <g id="dirArrow">
                        <path fill="none" stroke="white" stroke-width="1.5" d="M0,-3.0v7 M-2.5,-0.5L0,-3.0L2.5,-0.5"/>
                </g>
               <g id="resetDef">
                       <use xlink:href="#rim2" fill="#404040">
                               <set attributeName="fill" to="#808080" begin="reset.mouseover" end="reset.mouseout"/>
                       </use>
               </g>
        </defs>

<script type="text/javascript">
var viewWidth = 950;
var viewHeight = 843;
var sectionId = 'dynsection-4';
</script>
<script xlink:href="svgpan.js"/>
<svg id="graph" class="graph">
<g id="viewport">
<title>addItem</title>
<polygon fill="#ffffff" stroke="transparent" points="-4,4 -4,-839 945.9473,-839 945.9473,4 -4,4"/>
<!-- Node1 -->
<g id="node1" class="node">
<title>Node1</title>
<polygon fill="#bfbfbf" stroke="#000000" points="0,-460.5 0,-478.5 52.1328,-478.5 52.1328,-460.5 0,-460.5"/>
<text text-anchor="middle" x="26.0664" y="-466.5" font-family="Helvetica,sans-Serif" font-size="10.00" fill="#000000">addItem</text>
</g>
<!-- Node2 -->
<g id="node2" class="node">
<title>Node2</title>
<g id="a_node2"><a xlink:href="classlocomotor_1_1core_1_1_d_b_h.html#a0b2d292079fe232a4c3dae4636167641" target="_top" xlink:title="getInstance">
<polygon fill="#ffffff" stroke="#000000" points="276.3145,-816.5 276.3145,-834.5 344.0186,-834.5 344.0186,-816.5 276.3145,-816.5"/>
<text text-anchor="middle" x="310.1665" y="-822.5" font-family="Helvetica,sans-Serif" font-size="10.00" fill="#000000">getInstance</text>
</a>
</g>
</g>
<!-- Node1&#45;&gt;Node2 -->
<g id="edge1" class="edge">
<title>Node1&#45;&gt;Node2</title>
<path fill="none" stroke="#191970" d="M28.7301,-478.5877C42.167,-522.7461 106.8847,-716.488 232.9551,-807.5 242.6224,-814.479 254.588,-818.7959 266.1896,-821.4532"/>
<polygon fill="#191970" stroke="#191970" points="265.7428,-824.9314 276.2244,-823.3864 267.0671,-818.0578 265.7428,-824.9314"/>
</g>
<!-- Node4 -->
<g id="node4" class="node">
<title>Node4</title>
<g id="a_node4"><a xlink:href="classlocomotor_1_1core_1_1_d_b_h.html#ad067053be75a3170dc9c2ce7b922e176" target="_top" xlink:title="checkingParsingItem">
<polygon fill="#ffffff" stroke="#000000" points="88.1328,-441.5 88.1328,-459.5 196.9551,-459.5 196.9551,-441.5 88.1328,-441.5"/>
<text text-anchor="middle" x="142.5439" y="-447.5" font-family="Helvetica,sans-Serif" font-size="10.00" fill="#000000">checkingParsingItem</text>
</a>
</g>
</g>
<!-- Node1&#45;&gt;Node4 -->
<g id="edge3" class="edge">
<title>Node1&#45;&gt;Node4</title>
<path fill="none" stroke="#191970" d="M52.2062,-465.236C59.9888,-463.9665 68.8836,-462.5156 77.9867,-461.0307"/>
<polygon fill="#191970" stroke="#191970" points="78.5975,-464.4774 87.9035,-459.413 77.4705,-457.5687 78.5975,-464.4774"/>
</g>
<!-- Node3 -->
<g id="node3" class="node">
<title>Node3</title>
<g id="a_node3"><a xlink:href="classlocomotor_1_1core_1_1_d_b_h.html#a2d5f1f766f5863a46ed29b7e56118364" target="_top" xlink:title="DBH">
<polygon fill="#ffffff" stroke="#000000" points="482.0327,-816.5 482.0327,-834.5 519.146,-834.5 519.146,-816.5 482.0327,-816.5"/>
<text text-anchor="middle" x="500.5894" y="-822.5" font-family="Helvetica,sans-Serif" font-size="10.00" fill="#000000">DBH</text>
</a>
</g>
</g>
<!-- Node2&#45;&gt;Node3 -->
<g id="edge2" class="edge">
<title>Node2&#45;&gt;Node3</title>
<path fill="none" stroke="#191970" d="M344.2103,-825.5C380.5057,-825.5 437.3668,-825.5 471.5996,-825.5"/>
<polygon fill="#191970" stroke="#191970" points="471.8643,-829.0001 481.8643,-825.5 471.8643,-822.0001 471.8643,-829.0001"/>
</g>
<!-- Node4&#45;&gt;Node2 -->
<g id="edge5" class="edge">
<title>Node4&#45;&gt;Node2</title>
<path fill="none" stroke="#191970" d="M145.3498,-459.6389C153.7458,-487.1376 179.1892,-571.5886 196.9551,-642.5 215.1962,-715.3082 180.2594,-754.0496 232.9551,-807.5 241.7125,-816.3828 253.9456,-821.2323 266.0961,-823.7908"/>
<polygon fill="#191970" stroke="#191970" points="265.7721,-827.2841 276.2051,-825.4394 266.8988,-820.3754 265.7721,-827.2841"/>
</g>
<!-- Node5 -->
<g id="node5" class="node">
<title>Node5</title>
<g id="a_node5"><a xlink:href="classlocomotor_1_1components_1_1models_1_1_item_full.html#a27e15ff845320cbae7ca4dbb6a882eb4" target="_top" xlink:title="locomotor.components.models.\lItemFull.getUniverse">
<polygon fill="#ffffff" stroke="#000000" points="232.9624,-769.5 232.9624,-797.5 387.3706,-797.5 387.3706,-769.5 232.9624,-769.5"/>
<text text-anchor="start" x="240.9624" y="-785.5" font-family="Helvetica,sans-Serif" font-size="10.00" fill="#000000">locomotor.components.models.</text>
<text text-anchor="middle" x="310.1665" y="-775.5" font-family="Helvetica,sans-Serif" font-size="10.00" fill="#000000">ItemFull.getUniverse</text>
</a>
</g>
</g>
<!-- Node4&#45;&gt;Node5 -->
<g id="edge4" class="edge">
<title>Node4&#45;&gt;Node5</title>
<path fill="none" stroke="#191970" d="M145.1586,-459.686C159.7062,-510.7676 230.1202,-757.6488 232.9551,-760.5 234.0337,-761.5848 235.1611,-762.619 236.3312,-763.6047"/>
<polygon fill="#191970" stroke="#191970" points="234.416,-766.5368 244.6072,-769.4336 238.4468,-760.8138 234.416,-766.5368"/>
</g>
<!-- Node6 -->
<g id="node6" class="node">
<title>Node6</title>
<g id="a_node6"><a xlink:href="classlocomotor_1_1core_1_1_d_b_h.html#ad8a1ee8704cdfdf81c7e495c1f388874" target="_top" xlink:title="universeStillExists">
<polygon fill="#ffffff" stroke="#000000" points="261.876,-732.5 261.876,-750.5 358.457,-750.5 358.457,-732.5 261.876,-732.5"/>
<text text-anchor="middle" x="310.1665" y="-738.5" font-family="Helvetica,sans-Serif" font-size="10.00" fill="#000000">universeStillExists</text>
</a>
</g>
</g>
<!-- Node4&#45;&gt;Node6 -->
<g id="edge6" class="edge">
<title>Node4&#45;&gt;Node6</title>
<path fill="none" stroke="#191970" d="M145.0373,-459.7806C157.3688,-505.3993 212.0778,-704.4367 232.9551,-723.5 238.4057,-728.477 244.9607,-732.1588 251.9184,-734.8695"/>
<polygon fill="#191970" stroke="#191970" points="250.9979,-738.2502 261.5896,-737.9945 253.1502,-731.5893 250.9979,-738.2502"/>
</g>
<!-- Node7 -->
<g id="node7" class="node">
<title>Node7</title>
<g id="a_node7"><a xlink:href="classlocomotor_1_1components_1_1models_1_1_item.html#a34e60b6081b4c555dc9f5b872cbe044e" target="_top" xlink:title="locomotor.components.models.\lItem.getID">
<polygon fill="#ffffff" stroke="#000000" points="232.9624,-685.5 232.9624,-713.5 387.3706,-713.5 387.3706,-685.5 232.9624,-685.5"/>
<text text-anchor="start" x="240.9624" y="-701.5" font-family="Helvetica,sans-Serif" font-size="10.00" fill="#000000">locomotor.components.models.</text>
<text text-anchor="middle" x="310.1665" y="-691.5" font-family="Helvetica,sans-Serif" font-size="10.00" fill="#000000">Item.getID</text>
</a>
</g>
</g>
<!-- Node4&#45;&gt;Node7 -->
<g id="edge7" class="edge">
<title>Node4&#45;&gt;Node7</title>
<path fill="none" stroke="#191970" d="M143.4314,-459.8549C147.1936,-494.175 164.916,-614.3892 232.9551,-676.5 234.2689,-677.6994 235.6428,-678.8363 237.0675,-679.9141"/>
<polygon fill="#191970" stroke="#191970" points="235.4118,-683.0102 245.7189,-685.4627 239.1908,-677.1179 235.4118,-683.0102"/>
</g>
<!-- Node8 -->
<g id="node8" class="node">
<title>Node8</title>
<g id="a_node8"><a xlink:href="classlocomotor_1_1components_1_1models_1_1_item_full.html#a78ee178b6a73658d65ca60da4d1e6683" target="_top" xlink:title="locomotor.components.models.\lItemFull.getName">
<polygon fill="#ffffff" stroke="#000000" points="232.9624,-638.5 232.9624,-666.5 387.3706,-666.5 387.3706,-638.5 232.9624,-638.5"/>
<text text-anchor="start" x="240.9624" y="-654.5" font-family="Helvetica,sans-Serif" font-size="10.00" fill="#000000">locomotor.components.models.</text>
<text text-anchor="middle" x="310.1665" y="-644.5" font-family="Helvetica,sans-Serif" font-size="10.00" fill="#000000">ItemFull.getName</text>
</a>
</g>
</g>
<!-- Node4&#45;&gt;Node8 -->
<g id="edge8" class="edge">
<title>Node4&#45;&gt;Node8</title>
<path fill="none" stroke="#191970" d="M144.4303,-459.5145C151.0203,-488.7364 175.7932,-581.7137 232.9551,-629.5 234.5245,-630.812 236.1666,-632.0492 237.8679,-633.2157"/>
<polygon fill="#191970" stroke="#191970" points="236.4134,-636.421 246.8062,-638.4803 239.966,-630.3895 236.4134,-636.421"/>
</g>
<!-- Node9 -->
<g id="node9" class="node">
<title>Node9</title>
<g id="a_node9"><a xlink:href="classlocomotor_1_1core_1_1_d_b_h.html#af8f30eaa4ef362f206b2cbd21045cf0a" target="_top" xlink:title="itemNameAlreadyTaken">
<polygon fill="#ffffff" stroke="#000000" points="249.0879,-601.5 249.0879,-619.5 371.2451,-619.5 371.2451,-601.5 249.0879,-601.5"/>
<text text-anchor="middle" x="310.1665" y="-607.5" font-family="Helvetica,sans-Serif" font-size="10.00" fill="#000000">itemNameAlreadyTaken</text>
</a>
</g>
</g>
<!-- Node4&#45;&gt;Node9 -->
<g id="edge9" class="edge">
<title>Node4&#45;&gt;Node9</title>
<path fill="none" stroke="#191970" d="M145.5276,-459.5307C154.394,-484.8878 183.1159,-557.1871 232.9551,-592.5 235.3767,-594.2158 237.9382,-595.7703 240.5988,-597.1785"/>
<polygon fill="#191970" stroke="#191970" points="239.4142,-600.4842 249.9673,-601.4241 242.3037,-594.1084 239.4142,-600.4842"/>
</g>
<!-- Node10 -->
<g id="node10" class="node">
<title>Node10</title>
<g id="a_node10"><a xlink:href="classlocomotor_1_1components_1_1logging_1_1_error_handler.html#a75e8f6535bdb8db9a7d570e1b839af47" target="_top" xlink:title="locomotor.components.logging.\lErrorHandler.getInstance">
<polygon fill="#ffffff" stroke="#000000" points="232.9551,-554.5 232.9551,-582.5 387.3779,-582.5 387.3779,-554.5 232.9551,-554.5"/>
<text text-anchor="start" x="240.9551" y="-570.5" font-family="Helvetica,sans-Serif" font-size="10.00" fill="#000000">locomotor.components.logging.</text>
<text text-anchor="middle" x="310.1665" y="-560.5" font-family="Helvetica,sans-Serif" font-size="10.00" fill="#000000">ErrorHandler.getInstance</text>
</a>
</g>
</g>
<!-- Node4&#45;&gt;Node10 -->
<g id="edge10" class="edge">
<title>Node4&#45;&gt;Node10</title>
<path fill="none" stroke="#191970" d="M148.6433,-459.5774C161.788,-478.4397 194.7122,-522.0622 232.9551,-545.5 235.7575,-547.2175 238.6961,-548.8136 241.7222,-550.2959"/>
<polygon fill="#191970" stroke="#191970" points="240.4536,-553.5619 251.0145,-554.4098 243.2874,-547.1611 240.4536,-553.5619"/>
</g>
<!-- Node11 -->
<g id="node11" class="node">
<title>Node11</title>
<g id="a_node11"><a xlink:href="classlocomotor_1_1components_1_1logging_1_1_error_handler.html#abd00a9c37627740763cef91d76a77437" target="_top" xlink:title="locomotor.components.logging.\lErrorHandler.push">
<polygon fill="#ffffff" stroke="#000000" points="232.9551,-507.5 232.9551,-535.5 387.3779,-535.5 387.3779,-507.5 232.9551,-507.5"/>
<text text-anchor="start" x="240.9551" y="-523.5" font-family="Helvetica,sans-Serif" font-size="10.00" fill="#000000">locomotor.components.logging.</text>
<text text-anchor="middle" x="310.1665" y="-513.5" font-family="Helvetica,sans-Serif" font-size="10.00" fill="#000000">ErrorHandler.push</text>
</a>
</g>
</g>
<!-- Node4&#45;&gt;Node11 -->
<g id="edge11" class="edge">
<title>Node4&#45;&gt;Node11</title>
<path fill="none" stroke="#191970" d="M157.4554,-459.6043C175.0242,-470.0474 205.3274,-487.1826 232.9551,-498.5 237.7662,-500.4708 242.8081,-502.3543 247.9123,-504.1341"/>
<polygon fill="#191970" stroke="#191970" points="247.1666,-507.5751 257.7604,-507.425 249.3852,-500.936 247.1666,-507.5751"/>
</g>
<!-- Node13 -->
<g id="node13" class="node">
<title>Node13</title>
<g id="a_node13"><a xlink:href="classlocomotor_1_1components_1_1models_1_1_item_full.html#ac7feffb7a33f63504ff1f87f19e2d2d8" target="_top" xlink:title="locomotor.components.models.\lItemFull.getDescription">
<polygon fill="#ffffff" stroke="#000000" points="232.9624,-460.5 232.9624,-488.5 387.3706,-488.5 387.3706,-460.5 232.9624,-460.5"/>
<text text-anchor="start" x="240.9624" y="-476.5" font-family="Helvetica,sans-Serif" font-size="10.00" fill="#000000">locomotor.components.models.</text>
<text text-anchor="middle" x="310.1665" y="-466.5" font-family="Helvetica,sans-Serif" font-size="10.00" fill="#000000">ItemFull.getDescription</text>
</a>
</g>
</g>
<!-- Node4&#45;&gt;Node13 -->
<g id="edge13" class="edge">
<title>Node4&#45;&gt;Node13</title>
<path fill="none" stroke="#191970" d="M196.9662,-458.2921C205.3009,-459.4855 214.0796,-460.7424 222.9093,-462.0066"/>
<polygon fill="#191970" stroke="#191970" points="222.4841,-465.4813 232.8792,-463.4341 223.4763,-458.552 222.4841,-465.4813"/>
</g>
<!-- Node14 -->
<g id="node14" class="node">
<title>Node14</title>
<g id="a_node14"><a xlink:href="classlocomotor_1_1components_1_1models_1_1_item_full.html#a832e57df908361dd86dc673520d7fb81" target="_top" xlink:title="locomotor.components.models.\lItemFull.getImage">
<polygon fill="#ffffff" stroke="#000000" points="232.9624,-413.5 232.9624,-441.5 387.3706,-441.5 387.3706,-413.5 232.9624,-413.5"/>
<text text-anchor="start" x="240.9624" y="-429.5" font-family="Helvetica,sans-Serif" font-size="10.00" fill="#000000">locomotor.components.models.</text>
<text text-anchor="middle" x="310.1665" y="-419.5" font-family="Helvetica,sans-Serif" font-size="10.00" fill="#000000">ItemFull.getImage</text>
</a>
</g>
</g>
<!-- Node4&#45;&gt;Node14 -->
<g id="edge14" class="edge">
<title>Node4&#45;&gt;Node14</title>
<path fill="none" stroke="#191970" d="M196.9662,-443.0326C205.3009,-441.8889 214.0796,-440.6844 222.9093,-439.4728"/>
<polygon fill="#191970" stroke="#191970" points="223.4478,-442.9318 232.8792,-438.1048 222.4962,-435.9968 223.4478,-442.9318"/>
</g>
<!-- Node15 -->
<g id="node15" class="node">
<title>Node15</title>
<g id="a_node15"><a xlink:href="classlocomotor_1_1core_1_1_d_b_h.html#a910cd77455fb55ffce6f9b65cb8104cc" target="_top" xlink:title="getCategoriesModel">
<polygon fill="#ffffff" stroke="#000000" points="257.418,-376.5 257.418,-394.5 362.915,-394.5 362.915,-376.5 257.418,-376.5"/>
<text text-anchor="middle" x="310.1665" y="-382.5" font-family="Helvetica,sans-Serif" font-size="10.00" fill="#000000">getCategoriesModel</text>
</a>
</g>
</g>
<!-- Node4&#45;&gt;Node15 -->
<g id="edge15" class="edge">
<title>Node4&#45;&gt;Node15</title>
<path fill="none" stroke="#191970" d="M157.7329,-441.4029C175.3128,-431.2021 205.3881,-414.7496 232.9551,-404.5 240.3244,-401.76 248.2363,-399.2988 256.0846,-397.1279"/>
<polygon fill="#191970" stroke="#191970" points="257.1653,-400.4628 265.9461,-394.5343 255.3847,-393.693 257.1653,-400.4628"/>
</g>
<!-- Node19 -->
<g id="node19" class="node">
<title>Node19</title>
<g id="a_node19"><a xlink:href="classlocomotor_1_1components_1_1models_1_1_item.html#aac70f654e73d90f5caea40c18ace4312" target="_top" xlink:title="locomotor.components.models.\lItem.getCategories">
<polygon fill="#ffffff" stroke="#000000" points="232.9624,-329.5 232.9624,-357.5 387.3706,-357.5 387.3706,-329.5 232.9624,-329.5"/>
<text text-anchor="start" x="240.9624" y="-345.5" font-family="Helvetica,sans-Serif" font-size="10.00" fill="#000000">locomotor.components.models.</text>
<text text-anchor="middle" x="310.1665" y="-335.5" font-family="Helvetica,sans-Serif" font-size="10.00" fill="#000000">Item.getCategories</text>
</a>
</g>
</g>
<!-- Node4&#45;&gt;Node19 -->
<g id="edge19" class="edge">
<title>Node4&#45;&gt;Node19</title>
<path fill="none" stroke="#191970" d="M150.0216,-441.3562C164.3679,-424.3873 197.4933,-387.8996 232.9551,-367.5 236.824,-365.2744 240.9231,-363.2313 245.1353,-361.3599"/>
<polygon fill="#191970" stroke="#191970" points="246.5615,-364.5581 254.4922,-357.5328 243.9115,-358.0791 246.5615,-364.5581"/>
</g>
<!-- Node20 -->
<g id="node20" class="node">
<title>Node20</title>
<g id="a_node20"><a xlink:href="classlocomotor_1_1components_1_1models_1_1_category.html#a0e11818fedf98727494278ea27386dea" target="_top" xlink:title="locomotor.components.models.\lCategory.getCriterias">
<polygon fill="#ffffff" stroke="#000000" points="232.9624,-282.5 232.9624,-310.5 387.3706,-310.5 387.3706,-282.5 232.9624,-282.5"/>
<text text-anchor="start" x="240.9624" y="-298.5" font-family="Helvetica,sans-Serif" font-size="10.00" fill="#000000">locomotor.components.models.</text>
<text text-anchor="middle" x="310.1665" y="-288.5" font-family="Helvetica,sans-Serif" font-size="10.00" fill="#000000">Category.getCriterias</text>
</a>
</g>
</g>
<!-- Node4&#45;&gt;Node20 -->
<g id="edge20" class="edge">
<title>Node4&#45;&gt;Node20</title>
<path fill="none" stroke="#191970" d="M146.3152,-441.3898C156.5662,-417.7508 187.2702,-353.9667 232.9551,-320.5 235.6162,-318.5506 238.4394,-316.7568 241.3725,-315.1065"/>
<polygon fill="#191970" stroke="#191970" points="243.0663,-318.1729 250.4493,-310.5741 239.9391,-311.9103 243.0663,-318.1729"/>
</g>
<!-- Node21 -->
<g id="node21" class="node">
<title>Node21</title>
<g id="a_node21"><a xlink:href="classlocomotor_1_1components_1_1models_1_1_criteria.html#a34e60b6081b4c555dc9f5b872cbe044e" target="_top" xlink:title="locomotor.components.models.\lCriteria.getID">
<polygon fill="#ffffff" stroke="#000000" points="232.9624,-235.5 232.9624,-263.5 387.3706,-263.5 387.3706,-235.5 232.9624,-235.5"/>
<text text-anchor="start" x="240.9624" y="-251.5" font-family="Helvetica,sans-Serif" font-size="10.00" fill="#000000">locomotor.components.models.</text>
<text text-anchor="middle" x="310.1665" y="-241.5" font-family="Helvetica,sans-Serif" font-size="10.00" fill="#000000">Criteria.getID</text>
</a>
</g>
</g>
<!-- Node4&#45;&gt;Node21 -->
<g id="edge21" class="edge">
<title>Node4&#45;&gt;Node21</title>
<path fill="none" stroke="#191970" d="M144.5813,-441.2036C151.4805,-411.9382 176.739,-320.8461 232.9551,-273.5 234.9749,-271.7988 237.1149,-270.2181 239.3464,-268.7493"/>
<polygon fill="#191970" stroke="#191970" points="241.3912,-271.6125 248.3468,-263.6207 237.9255,-265.5306 241.3912,-271.6125"/>
</g>
<!-- Node22 -->
<g id="node22" class="node">
<title>Node22</title>
<g id="a_node22"><a xlink:href="classlocomotor_1_1components_1_1types_1_1_type_factory.html#a5f92827e8d1d5348ebff49dc8bae4f65" target="_top" xlink:title="locomotor.components.types.\lTypeFactory.getItem">
<polygon fill="#ffffff" stroke="#000000" points="237.1299,-188.5 237.1299,-216.5 383.2031,-216.5 383.2031,-188.5 237.1299,-188.5"/>
<text text-anchor="start" x="245.1299" y="-204.5" font-family="Helvetica,sans-Serif" font-size="10.00" fill="#000000">locomotor.components.types.</text>
<text text-anchor="middle" x="310.1665" y="-194.5" font-family="Helvetica,sans-Serif" font-size="10.00" fill="#000000">TypeFactory.getItem</text>
</a>
</g>
</g>
<!-- Node4&#45;&gt;Node22 -->
<g id="edge22" class="edge">
<title>Node4&#45;&gt;Node22</title>
<path fill="none" stroke="#191970" d="M143.4836,-441.2524C147.4281,-407.3219 165.7059,-288.4331 232.9551,-226.5 234.6749,-224.9161 236.4979,-223.4367 238.4032,-222.0549"/>
<polygon fill="#191970" stroke="#191970" points="240.5574,-224.8378 247.2203,-216.6003 236.8747,-218.8849 240.5574,-224.8378"/>
</g>
<!-- Node27 -->
<g id="node27" class="node">
<title>Node27</title>
<g id="a_node27"><a xlink:href="classlocomotor_1_1components_1_1models_1_1_criteria_model.html#a19fc0aeef83333878b7af08e6eb7dbea" target="_top" xlink:title="locomotor.components.models.\lCriteriaModel.getItemType">
<polygon fill="#ffffff" stroke="#000000" points="232.9624,-141.5 232.9624,-169.5 387.3706,-169.5 387.3706,-141.5 232.9624,-141.5"/>
<text text-anchor="start" x="240.9624" y="-157.5" font-family="Helvetica,sans-Serif" font-size="10.00" fill="#000000">locomotor.components.models.</text>
<text text-anchor="middle" x="310.1665" y="-147.5" font-family="Helvetica,sans-Serif" font-size="10.00" fill="#000000">CriteriaModel.getItemType</text>
</a>
</g>
</g>
<!-- Node4&#45;&gt;Node27 -->
<g id="edge27" class="edge">
<title>Node4&#45;&gt;Node27</title>
<path fill="none" stroke="#191970" d="M144.4467,-441.2585C153.461,-398.2974 193.0951,-218.5456 232.9551,-179.5 234.5846,-177.9038 236.3184,-176.4135 238.1366,-175.0221"/>
<polygon fill="#191970" stroke="#191970" points="240.1076,-177.9154 246.5879,-169.5336 236.295,-172.0448 240.1076,-177.9154"/>
</g>
<!-- Node28 -->
<g id="node28" class="node">
<title>Node28</title>
<g id="a_node28"><a xlink:href="classlocomotor_1_1components_1_1models_1_1_item_criteria.html#ad1dc198074d5d5e901d0e5159ded14fa" target="_top" xlink:title="locomotor.components.models.\lItemCriteria.getValue">
<polygon fill="#ffffff" stroke="#000000" points="232.9624,-94.5 232.9624,-122.5 387.3706,-122.5 387.3706,-94.5 232.9624,-94.5"/>
<text text-anchor="start" x="240.9624" y="-110.5" font-family="Helvetica,sans-Serif" font-size="10.00" fill="#000000">locomotor.components.models.</text>
<text text-anchor="middle" x="310.1665" y="-100.5" font-family="Helvetica,sans-Serif" font-size="10.00" fill="#000000">ItemCriteria.getValue</text>
</a>
</g>
</g>
<!-- Node4&#45;&gt;Node28 -->
<g id="edge28" class="edge">
<title>Node4&#45;&gt;Node28</title>
<path fill="none" stroke="#191970" d="M143.9461,-441.2523C151.314,-393.8039 186.9647,-178.1078 232.9551,-131.5 234.0296,-130.4111 235.1532,-129.3732 236.3198,-128.384"/>
<polygon fill="#191970" stroke="#191970" points="238.4388,-131.1722 244.5776,-122.5371 234.3937,-125.4593 238.4388,-131.1722"/>
</g>
<!-- Node29 -->
<g id="node29" class="node">
<title>Node29</title>
<g id="a_node29"><a xlink:href="classlocomotor_1_1components_1_1models_1_1_criteria_model.html#afe6cac49dd51cda8f8dfedab30c83009" target="_top" xlink:title="locomotor.components.models.\lCriteriaModel.getUniverse">
<polygon fill="#ffffff" stroke="#000000" points="232.9624,-47.5 232.9624,-75.5 387.3706,-75.5 387.3706,-47.5 232.9624,-47.5"/>
<text text-anchor="start" x="240.9624" y="-63.5" font-family="Helvetica,sans-Serif" font-size="10.00" fill="#000000">locomotor.components.models.</text>
<text text-anchor="middle" x="310.1665" y="-53.5" font-family="Helvetica,sans-Serif" font-size="10.00" fill="#000000">CriteriaModel.getUniverse</text>
</a>
</g>
</g>
<!-- Node4&#45;&gt;Node29 -->
<g id="edge29" class="edge">
<title>Node4&#45;&gt;Node29</title>
<path fill="none" stroke="#191970" d="M143.5834,-441.2935C149.5614,-389.9005 181.119,-138.8498 232.9551,-84.5 233.8782,-83.5321 234.8401,-82.6045 235.8365,-81.7154"/>
<polygon fill="#191970" stroke="#191970" points="238.1173,-84.3821 244.0838,-75.6269 233.9598,-78.7504 238.1173,-84.3821"/>
</g>
<!-- Node30 -->
<g id="node30" class="node">
<title>Node30</title>
<g id="a_node30"><a xlink:href="classlocomotor_1_1components_1_1models_1_1_category.html#a34e60b6081b4c555dc9f5b872cbe044e" target="_top" xlink:title="locomotor.components.models.\lCategory.getID">
<polygon fill="#ffffff" stroke="#000000" points="232.9624,-.5 232.9624,-28.5 387.3706,-28.5 387.3706,-.5 232.9624,-.5"/>
<text text-anchor="start" x="240.9624" y="-16.5" font-family="Helvetica,sans-Serif" font-size="10.00" fill="#000000">locomotor.components.models.</text>
<text text-anchor="middle" x="310.1665" y="-6.5" font-family="Helvetica,sans-Serif" font-size="10.00" fill="#000000">Category.getID</text>
</a>
</g>
</g>
<!-- Node4&#45;&gt;Node30 -->
<g id="edge30" class="edge">
<title>Node4&#45;&gt;Node30</title>
<path fill="none" stroke="#191970" d="M143.3118,-441.2306C148.0731,-385.9079 175.2677,-99.6223 232.9551,-37.5 233.8652,-36.5199 234.8151,-35.581 235.8004,-34.6814"/>
<polygon fill="#191970" stroke="#191970" points="238.0921,-37.3373 243.9796,-28.5289 233.8841,-31.7432 238.0921,-37.3373"/>
</g>
<!-- Node12 -->
<g id="node12" class="node">
<title>Node12</title>
<g id="a_node12"><a xlink:href="classlocomotor_1_1components_1_1logging_1_1_error_context.html#afcf30b71bfc65c74878c7ab77c951842" target="_top" xlink:title="locomotor.components.logging.\lErrorContext.push">
<polygon fill="#ffffff" stroke="#000000" points="423.3779,-507.5 423.3779,-535.5 577.8008,-535.5 577.8008,-507.5 423.3779,-507.5"/>
<text text-anchor="start" x="431.3779" y="-523.5" font-family="Helvetica,sans-Serif" font-size="10.00" fill="#000000">locomotor.components.logging.</text>
<text text-anchor="middle" x="500.5894" y="-513.5" font-family="Helvetica,sans-Serif" font-size="10.00" fill="#000000">ErrorContext.push</text>
</a>
</g>
</g>
<!-- Node11&#45;&gt;Node12 -->
<g id="edge12" class="edge">
<title>Node11&#45;&gt;Node12</title>
<path fill="none" stroke="#191970" d="M387.6188,-521.5C395.964,-521.5 404.4979,-521.5 412.9518,-521.5"/>
<polygon fill="#191970" stroke="#191970" points="413.2058,-525.0001 423.2057,-521.5 413.2057,-518.0001 413.2058,-525.0001"/>
</g>
<!-- Node16 -->
<g id="node16" class="node">
<title>Node16</title>
<g id="a_node16"><a xlink:href="enumlocomotor_1_1components_1_1types_1_1_c_enum_universe_type.html#a27351fda5fe6de820d869025880f326c" target="_top" xlink:title="locomotor.components.types.\lCEnumUniverseType.valueOf">
<polygon fill="#ffffff" stroke="#000000" points="426.7251,-418.5 426.7251,-446.5 574.4536,-446.5 574.4536,-418.5 426.7251,-418.5"/>
<text text-anchor="start" x="434.7251" y="-434.5" font-family="Helvetica,sans-Serif" font-size="10.00" fill="#000000">locomotor.components.types.</text>
<text text-anchor="middle" x="500.5894" y="-424.5" font-family="Helvetica,sans-Serif" font-size="10.00" fill="#000000">CEnumUniverseType.valueOf</text>
</a>
</g>
</g>
<!-- Node15&#45;&gt;Node16 -->
<g id="edge16" class="edge">
<title>Node15&#45;&gt;Node16</title>
<path fill="none" stroke="#191970" d="M347.0861,-394.5757C359.8497,-397.7158 374.2432,-401.2596 387.3779,-404.5 402.4552,-408.2196 418.6602,-412.2237 433.9639,-416.008"/>
<polygon fill="#191970" stroke="#191970" points="433.3217,-419.4546 443.8696,-418.4579 435.0024,-412.6593 433.3217,-419.4546"/>
</g>
<!-- Node17 -->
<g id="node17" class="node">
<title>Node17</title>
<g id="a_node17"><a xlink:href="enumlocomotor_1_1components_1_1types_1_1_c_enum_item_type.html#ab48bf5b7b36a336edf6c49f42c126494" target="_top" xlink:title="locomotor.components.types.\lCEnumItemType.valueOf">
<polygon fill="#ffffff" stroke="#000000" points="427.5527,-371.5 427.5527,-399.5 573.626,-399.5 573.626,-371.5 427.5527,-371.5"/>
<text text-anchor="start" x="435.5527" y="-387.5" font-family="Helvetica,sans-Serif" font-size="10.00" fill="#000000">locomotor.components.types.</text>
<text text-anchor="middle" x="500.5894" y="-377.5" font-family="Helvetica,sans-Serif" font-size="10.00" fill="#000000">CEnumItemType.valueOf</text>
</a>
</g>
</g>
<!-- Node15&#45;&gt;Node17 -->
<g id="edge17" class="edge">
<title>Node15&#45;&gt;Node17</title>
<path fill="none" stroke="#191970" d="M362.957,-385.5C379.7664,-385.5 398.7932,-385.5 417.2191,-385.5"/>
<polygon fill="#191970" stroke="#191970" points="417.376,-389.0001 427.376,-385.5 417.3759,-382.0001 417.376,-389.0001"/>
</g>
<!-- Node18 -->
<g id="node18" class="node">
<title>Node18</title>
<g id="a_node18"><a xlink:href="enumlocomotor_1_1components_1_1types_1_1_c_enum_user_type.html#a9dece4179b4a5039a4651e4885dfeec8" target="_top" xlink:title="locomotor.components.types.\lCEnumUserType.valueOf">
<polygon fill="#ffffff" stroke="#000000" points="427.5527,-324.5 427.5527,-352.5 573.626,-352.5 573.626,-324.5 427.5527,-324.5"/>
<text text-anchor="start" x="435.5527" y="-340.5" font-family="Helvetica,sans-Serif" font-size="10.00" fill="#000000">locomotor.components.types.</text>
<text text-anchor="middle" x="500.5894" y="-330.5" font-family="Helvetica,sans-Serif" font-size="10.00" fill="#000000">CEnumUserType.valueOf</text>
</a>
</g>
</g>
<!-- Node15&#45;&gt;Node18 -->
<g id="edge18" class="edge">
<title>Node15&#45;&gt;Node18</title>
<path fill="none" stroke="#191970" d="M349.8823,-376.4154C361.938,-373.6108 375.2112,-370.4761 387.3779,-367.5 403.4541,-363.5676 420.7795,-359.1969 436.9259,-355.0664"/>
<polygon fill="#191970" stroke="#191970" points="437.9888,-358.4072 446.8052,-352.5318 436.2491,-351.6268 437.9888,-358.4072"/>
</g>
<!-- Node23 -->
<g id="node23" class="node">
<title>Node23</title>
<g id="a_node23"><a xlink:href="classlocomotor_1_1components_1_1types_1_1_type_factory.html#aa1f74ce70c02a7665f32b4ec438a6c3c" target="_top" xlink:title="locomotor.components.types.\lTypeFactory.getTree">
<polygon fill="#ffffff" stroke="#000000" points="427.5527,-211.5 427.5527,-239.5 573.626,-239.5 573.626,-211.5 427.5527,-211.5"/>
<text text-anchor="start" x="435.5527" y="-227.5" font-family="Helvetica,sans-Serif" font-size="10.00" fill="#000000">locomotor.components.types.</text>
<text text-anchor="middle" x="500.5894" y="-217.5" font-family="Helvetica,sans-Serif" font-size="10.00" fill="#000000">TypeFactory.getTree</text>
</a>
</g>
</g>
<!-- Node22&#45;&gt;Node23 -->
<g id="edge23" class="edge">
<title>Node22&#45;&gt;Node23</title>
<path fill="none" stroke="#191970" d="M383.2444,-211.3266C394.439,-212.6788 406.0658,-214.0831 417.4581,-215.4591"/>
<polygon fill="#191970" stroke="#191970" points="417.0449,-218.9345 427.3924,-216.659 417.8843,-211.985 417.0449,-218.9345"/>
</g>
<!-- Node26 -->
<g id="node26" class="node">
<title>Node26</title>
<g id="a_node26"><a xlink:href="classlocomotor_1_1components_1_1types_1_1_c_graph_tree.html#a83eddfad98b66bd627c4b0d1cb7056ac" target="_top" xlink:title="locomotor.components.types.\lCGraphTree.getTree">
<polygon fill="#ffffff" stroke="#000000" points="427.5527,-164.5 427.5527,-192.5 573.626,-192.5 573.626,-164.5 427.5527,-164.5"/>
<text text-anchor="start" x="435.5527" y="-180.5" font-family="Helvetica,sans-Serif" font-size="10.00" fill="#000000">locomotor.components.types.</text>
<text text-anchor="middle" x="500.5894" y="-170.5" font-family="Helvetica,sans-Serif" font-size="10.00" fill="#000000">CGraphTree.getTree</text>
</a>
</g>
</g>
<!-- Node22&#45;&gt;Node26 -->
<g id="edge26" class="edge">
<title>Node22&#45;&gt;Node26</title>
<path fill="none" stroke="#191970" d="M383.2444,-193.2896C394.439,-191.8787 406.0658,-190.4133 417.4581,-188.9775"/>
<polygon fill="#191970" stroke="#191970" points="417.9086,-192.4485 427.3924,-187.7254 417.0332,-185.5034 417.9086,-192.4485"/>
</g>
<!-- Node24 -->
<g id="node24" class="node">
<title>Node24</title>
<g id="a_node24"><a xlink:href="classlocomotor_1_1components_1_1types_1_1_c_tree.html#a74382cb3a3153edc32f1cfed8c4ee364" target="_top" xlink:title="locomotor.components.types.\lCTree.addChild">
<polygon fill="#ffffff" stroke="#000000" points="613.8008,-211.5 613.8008,-239.5 759.874,-239.5 759.874,-211.5 613.8008,-211.5"/>
<text text-anchor="start" x="621.8008" y="-227.5" font-family="Helvetica,sans-Serif" font-size="10.00" fill="#000000">locomotor.components.types.</text>
<text text-anchor="middle" x="686.8374" y="-217.5" font-family="Helvetica,sans-Serif" font-size="10.00" fill="#000000">CTree.addChild</text>
</a>
</g>
</g>
<!-- Node23&#45;&gt;Node24 -->
<g id="edge24" class="edge">
<title>Node23&#45;&gt;Node24</title>
<path fill="none" stroke="#191970" d="M573.665,-225.5C583.4221,-225.5 593.4876,-225.5 603.4048,-225.5"/>
<polygon fill="#191970" stroke="#191970" points="603.6669,-229.0001 613.6668,-225.5 603.6668,-222.0001 603.6669,-229.0001"/>
</g>
<!-- Node25 -->
<g id="node25" class="node">
<title>Node25</title>
<g id="a_node25"><a xlink:href="classlocomotor_1_1components_1_1types_1_1_c_tree.html#af0e7a198496b1627d0ff15ce0e6de1f2" target="_top" xlink:title="locomotor.components.types.\lCTree.CTree">
<polygon fill="#ffffff" stroke="#000000" points="795.874,-211.5 795.874,-239.5 941.9473,-239.5 941.9473,-211.5 795.874,-211.5"/>
<text text-anchor="start" x="803.874" y="-227.5" font-family="Helvetica,sans-Serif" font-size="10.00" fill="#000000">locomotor.components.types.</text>
<text text-anchor="middle" x="868.9106" y="-217.5" font-family="Helvetica,sans-Serif" font-size="10.00" fill="#000000">CTree.CTree</text>
</a>
</g>
</g>
<!-- Node24&#45;&gt;Node25 -->
<g id="edge25" class="edge">
<title>Node24&#45;&gt;Node25</title>
<path fill="none" stroke="#191970" d="M760.1065,-225.5C768.4664,-225.5 777.0343,-225.5 785.5132,-225.5"/>
<polygon fill="#191970" stroke="#191970" points="785.7915,-229.0001 795.7915,-225.5 785.7915,-222.0001 785.7915,-229.0001"/>
</g>
</g>
</svg>
        <g id="navigator" transform="translate(0 0)" fill="#404254">
                <rect fill="#f2f5e9" fill-opacity="0.5" stroke="#606060" stroke-width=".5" x="0" y="0" width="60" height="60"/>
                <use id="zoomplus" xlink:href="#zoomPlus" x="17" y="9" onmousedown="handleZoom(evt,'in')"/>
                <use id="zoomminus" xlink:href="#zoomMin" x="42" y="9" onmousedown="handleZoom(evt,'out')"/>
                <use id="reset" xlink:href="#resetDef" x="30" y="36" onmousedown="handleReset()"/>
                <g id="arrowUp" xlink:href="#dirArrow" transform="translate(30 24)" onmousedown="handlePan(0,-1)">
                  <use xlink:href="#rim" fill="#404040">
                        <set attributeName="fill" to="#808080" begin="arrowUp.mouseover" end="arrowUp.mouseout"/>
                  </use>
                  <path fill="none" stroke="white" stroke-width="1.5" d="M0,-3.0v7 M-2.5,-0.5L0,-3.0L2.5,-0.5"/>
                </g>
                <g id="arrowRight" xlink:href="#dirArrow" transform="rotate(90) translate(36 -43)" onmousedown="handlePan(1,0)">
                  <use xlink:href="#rim" fill="#404040">
                        <set attributeName="fill" to="#808080" begin="arrowRight.mouseover" end="arrowRight.mouseout"/>
                  </use>
                  <path fill="none" stroke="white" stroke-width="1.5" d="M0,-3.0v7 M-2.5,-0.5L0,-3.0L2.5,-0.5"/>
                </g>
                <g id="arrowDown" xlink:href="#dirArrow" transform="rotate(180) translate(-30 -48)" onmousedown="handlePan(0,1)">
                  <use xlink:href="#rim" fill="#404040">
                        <set attributeName="fill" to="#808080" begin="arrowDown.mouseover" end="arrowDown.mouseout"/>
                  </use>
                  <path fill="none" stroke="white" stroke-width="1.5" d="M0,-3.0v7 M-2.5,-0.5L0,-3.0L2.5,-0.5"/>
                </g>
                <g id="arrowLeft" xlink:href="#dirArrow" transform="rotate(270) translate(-36 17)" onmousedown="handlePan(-1,0)">
                  <use xlink:href="#rim" fill="#404040">
                        <set attributeName="fill" to="#808080" begin="arrowLeft.mouseover" end="arrowLeft.mouseout"/>
                  </use>
                  <path fill="none" stroke="white" stroke-width="1.5" d="M0,-3.0v7 M-2.5,-0.5L0,-3.0L2.5,-0.5"/>
                </g>
        </g>
        <svg viewBox="0 0 15 15" width="100%" height="30px" preserveAspectRatio="xMaxYMin meet">
         <g id="arrow_out" transform="scale(0.3 0.3)">
          <a xlink:href="classlocomotor_1_1core_1_1_d_b_h_ae26eef1ee7482f2e0167c6a18924d214_cgraph_org.svg" target="_base">
           <rect id="button" ry="5" rx="5" y="6" x="6" height="38" width="38"
                fill="#f2f5e9" fill-opacity="0.5" stroke="#606060" stroke-width="1.0"/>
           <path id="arrow"
             d="M 11.500037,31.436501 C 11.940474,20.09759 22.043105,11.32322 32.158766,21.979434 L 37.068811,17.246167 C 37.068811,17.246167 37.088388,32 37.088388,32 L 22.160133,31.978069 C 22.160133,31.978069 26.997745,27.140456 26.997745,27.140456 C 18.528582,18.264221 13.291696,25.230495 11.500037,31.436501 z"
             style="fill:#404040;"/>
          </a>
         </g>
        </svg>
</svg>
