<?xml version="1.0" encoding="UTF-8" standalone="no"?>
<!DOCTYPE svg PUBLIC "-//W3C//DTD SVG 1.1//EN"
 "http://www.w3.org/Graphics/SVG/1.1/DTD/svg11.dtd">
<!-- Generated by graphviz version 2.40.1 (20161225.0304)
 -->
<!-- Title: FrontResourceManager Pages: 1 -->
<svg width="193pt" height="83pt"
 viewBox="0.00 0.00 193.19 83.00" xmlns="http://www.w3.org/2000/svg" xmlns:xlink="http://www.w3.org/1999/xlink">
<g id="graph0" class="graph" transform="scale(1 1) rotate(0) translate(4 79)">
<title>FrontResourceManager</title>
<polygon fill="#ffffff" stroke="transparent" points="-4,4 -4,-79 189.1914,-79 189.1914,4 -4,4"/>
<!-- Node1 -->
<g id="node1" class="node">
<title>Node1</title>
<polygon fill="#bfbfbf" stroke="#000000" points="0,-.5 0,-18.5 121.6055,-18.5 121.6055,-.5 0,-.5"/>
<text text-anchor="middle" x="60.8027" y="-6.5" font-family="Helvetica,sans-Serif" font-size="10.00" fill="#000000">FrontResourceManager</text>
</g>
<!-- Node1&#45;&gt;Node1 -->
<g id="edge3" class="edge">
<title>Node1&#45;&gt;Node1</title>
<path fill="none" stroke="#9a32cd" stroke-dasharray="5,2" d="M132.1105,-13.2409C136.7794,-12.3705 139.6055,-11.1235 139.6055,-9.5 139.6055,-6.9023 132.3708,-5.2687 121.9286,-4.599"/>
<polygon fill="#9a32cd" stroke="#9a32cd" points="131.4681,-9.7914 121.9286,-14.401 132.2606,-16.7464 131.4681,-9.7914"/>
<text text-anchor="middle" x="162.3984" y="-6.5" font-family="Helvetica,sans-Serif" font-size="10.00" fill="#000000"> _instance</text>
</g>
<!-- Node2 -->
<g id="node2" class="node">
<title>Node2</title>
<g id="a_node2"><a xlink:href="classlocomotor_1_1components_1_1_resource_manager.html" target="_top" xlink:title="ResourceManager">
<polygon fill="#ffffff" stroke="#000000" points="11.6699,-56.5 11.6699,-74.5 109.9355,-74.5 109.9355,-56.5 11.6699,-56.5"/>
<text text-anchor="middle" x="60.8027" y="-62.5" font-family="Helvetica,sans-Serif" font-size="10.00" fill="#000000">ResourceManager</text>
</a>
</g>
</g>
<!-- Node2&#45;&gt;Node1 -->
<g id="edge1" class="edge">
<title>Node2&#45;&gt;Node1</title>
<path fill="none" stroke="#191970" d="M60.8027,-46.2065C60.8027,-36.8384 60.8027,-26.0262 60.8027,-18.5752"/>
<polygon fill="#191970" stroke="#191970" points="57.3028,-46.2527 60.8027,-56.2527 64.3028,-46.2528 57.3028,-46.2527"/>
</g>
<!-- Node2&#45;&gt;Node2 -->
<g id="edge2" class="edge">
<title>Node2&#45;&gt;Node2</title>
<path fill="none" stroke="#9a32cd" stroke-dasharray="5,2" d="M120.2433,-69.5033C124.9945,-68.6289 127.9355,-67.2944 127.9355,-65.5 127.9355,-62.6289 120.4065,-60.9354 109.9804,-60.4195"/>
<polygon fill="#9a32cd" stroke="#9a32cd" points="119.5604,-66.0557 109.9804,-70.5805 120.2912,-73.0174 119.5604,-66.0557"/>
<text text-anchor="middle" x="150.7285" y="-62.5" font-family="Helvetica,sans-Serif" font-size="10.00" fill="#000000"> _instance</text>
</g>
</g>
</svg>
