<?xml version="1.0" encoding="UTF-8" standalone="no"?>
<!DOCTYPE svg PUBLIC "-//W3C//DTD SVG 1.1//EN"
 "http://www.w3.org/Graphics/SVG/1.1/DTD/svg11.dtd">
<!-- Generated by graphviz version 2.40.1 (20161225.0304)
 -->
<!-- Title: CBoolean Pages: 1 -->
<svg width="438pt" height="202pt"
 viewBox="0.00 0.00 437.93 202.00" xmlns="http://www.w3.org/2000/svg" xmlns:xlink="http://www.w3.org/1999/xlink">
<g id="graph0" class="graph" transform="scale(1 1) rotate(0) translate(4 198)">
<title>CBoolean</title>
<polygon fill="#ffffff" stroke="transparent" points="-4,4 -4,-198 433.9342,-198 433.9342,4 -4,4"/>
<!-- Node1 -->
<g id="node1" class="node">
<title>Node1</title>
<polygon fill="#bfbfbf" stroke="#000000" points="173.4679,-.5 173.4679,-18.5 233.3888,-18.5 233.3888,-.5 173.4679,-.5"/>
<text text-anchor="middle" x="203.4283" y="-6.5" font-family="Helvetica,sans-Serif" font-size="10.00" fill="#000000">CBoolean</text>
</g>
<!-- Node2 -->
<g id="node2" class="node">
<title>Node2</title>
<g id="a_node2"><a xlink:href="interfacelocomotor_1_1components_1_1types_1_1_c_universe_type.html" target="_top" xlink:title="CUniverseType">
<polygon fill="#ffffff" stroke="#000000" points="17.2462,-60.5 17.2462,-78.5 101.6105,-78.5 101.6105,-60.5 17.2462,-60.5"/>
<text text-anchor="middle" x="59.4283" y="-66.5" font-family="Helvetica,sans-Serif" font-size="10.00" fill="#000000">CUniverseType</text>
</a>
</g>
</g>
<!-- Node2&#45;&gt;Node1 -->
<g id="edge1" class="edge">
<title>Node2&#45;&gt;Node1</title>
<path fill="none" stroke="#191970" d="M90.8627,-56.4023C118.4002,-44.9284 157.6892,-28.558 181.8238,-18.5019"/>
<polygon fill="#191970" stroke="#191970" points="89.1834,-53.3103 81.2988,-60.3873 91.8758,-59.7719 89.1834,-53.3103"/>
</g>
<!-- Node3 -->
<g id="node3" class="node">
<title>Node3</title>
<g id="a_node3"><a xlink:href="interfacelocomotor_1_1components_1_1types_1_1_c_type.html" target="_top" xlink:title="CType">
<polygon fill="#ffffff" stroke="#000000" points="56.9752,-175.5 56.9752,-193.5 101.8814,-193.5 101.8814,-175.5 56.9752,-175.5"/>
<text text-anchor="middle" x="79.4283" y="-181.5" font-family="Helvetica,sans-Serif" font-size="10.00" fill="#000000">CType</text>
</a>
</g>
</g>
<!-- Node3&#45;&gt;Node2 -->
<g id="edge2" class="edge">
<title>Node3&#45;&gt;Node2</title>
<path fill="none" stroke="#191970" d="M46.909,-173.8103C30.7787,-166.6728 12.7855,-155.5079 3.4283,-139 -10.0201,-115.2744 21.4918,-91.3219 42.5001,-78.6685"/>
<polygon fill="#191970" stroke="#191970" points="46.0354,-177.2328 56.6178,-177.7457 48.665,-170.7454 46.0354,-177.2328"/>
</g>
<!-- Node6 -->
<g id="node6" class="node">
<title>Node6</title>
<g id="a_node6"><a xlink:href="interfacelocomotor_1_1components_1_1types_1_1_c_comparable_type.html" target="_top" xlink:title="CComparableType">
<polygon fill="#ffffff" stroke="#000000" points="124.7389,-120.5 124.7389,-138.5 224.1178,-138.5 224.1178,-120.5 124.7389,-120.5"/>
<text text-anchor="middle" x="174.4283" y="-126.5" font-family="Helvetica,sans-Serif" font-size="10.00" fill="#000000">CComparableType</text>
</a>
</g>
</g>
<!-- Node3&#45;&gt;Node6 -->
<g id="edge6" class="edge">
<title>Node3&#45;&gt;Node6</title>
<path fill="none" stroke="#191970" d="M104.0743,-170.2313C121.3259,-160.2435 143.858,-147.1986 158.7177,-138.5956"/>
<polygon fill="#191970" stroke="#191970" points="102.0163,-167.3785 95.1156,-175.4179 105.5236,-173.4365 102.0163,-167.3785"/>
</g>
<!-- Node4 -->
<g id="node4" class="node">
<title>Node4</title>
<g id="a_node4"><a xlink:href="interfacelocomotor_1_1components_1_1_j_s_o_n_displayable.html" target="_top" xlink:title="JSONDisplayable">
<polygon fill="#ffffff" stroke="#000000" points="12.2462,-120.5 12.2462,-138.5 106.6105,-138.5 106.6105,-120.5 12.2462,-120.5"/>
<text text-anchor="middle" x="59.4283" y="-126.5" font-family="Helvetica,sans-Serif" font-size="10.00" fill="#000000">JSONDisplayable</text>
</a>
</g>
</g>
<!-- Node4&#45;&gt;Node2 -->
<g id="edge3" class="edge">
<title>Node4&#45;&gt;Node2</title>
<path fill="none" stroke="#191970" d="M59.4283,-110.3734C59.4283,-99.7812 59.4283,-87.0976 59.4283,-78.6985"/>
<polygon fill="#191970" stroke="#191970" points="55.9284,-110.3873 59.4283,-120.3873 62.9284,-110.3873 55.9284,-110.3873"/>
</g>
<!-- Node5 -->
<g id="node5" class="node">
<title>Node5</title>
<g id="a_node5"><a xlink:href="interfacelocomotor_1_1components_1_1types_1_1_c_item_type.html" target="_top" xlink:title="CItemType">
<polygon fill="#ffffff" stroke="#000000" points="130.2511,-60.5 130.2511,-78.5 194.6056,-78.5 194.6056,-60.5 130.2511,-60.5"/>
<text text-anchor="middle" x="162.4283" y="-66.5" font-family="Helvetica,sans-Serif" font-size="10.00" fill="#000000">CItemType</text>
</a>
</g>
</g>
<!-- Node4&#45;&gt;Node5 -->
<g id="edge7" class="edge">
<title>Node4&#45;&gt;Node5</title>
<path fill="none" stroke="#191970" d="M83.75,-115.332C103.325,-103.9291 130.2421,-88.2492 146.9751,-78.5019"/>
<polygon fill="#191970" stroke="#191970" points="81.9509,-112.3295 75.0718,-120.3873 85.4744,-118.378 81.9509,-112.3295"/>
</g>
<!-- Node5&#45;&gt;Node1 -->
<g id="edge4" class="edge">
<title>Node5&#45;&gt;Node1</title>
<path fill="none" stroke="#191970" d="M174.3678,-52.0276C181.8157,-41.1282 191.1012,-27.5397 197.1427,-18.6985"/>
<polygon fill="#191970" stroke="#191970" points="171.4075,-50.1561 168.6553,-60.3873 177.187,-54.1055 171.4075,-50.1561"/>
</g>
<!-- Node6&#45;&gt;Node5 -->
<g id="edge5" class="edge">
<title>Node6&#45;&gt;Node5</title>
<path fill="none" stroke="#191970" d="M170.603,-110.3734C168.4846,-99.7812 165.9478,-87.0976 164.268,-78.6985"/>
<polygon fill="#191970" stroke="#191970" points="167.2125,-111.2679 172.6058,-120.3873 174.0766,-109.895 167.2125,-111.2679"/>
</g>
<!-- Node8 -->
<g id="node8" class="node">
<title>Node8</title>
<g id="a_node8"><a xlink:href="interfacelocomotor_1_1components_1_1types_1_1_c_user_type.html" target="_top" xlink:title="CUserType">
<polygon fill="#ffffff" stroke="#000000" points="212.4186,-60.5 212.4186,-78.5 278.4381,-78.5 278.4381,-60.5 212.4186,-60.5"/>
<text text-anchor="middle" x="245.4283" y="-66.5" font-family="Helvetica,sans-Serif" font-size="10.00" fill="#000000">CUserType</text>
</a>
</g>
</g>
<!-- Node6&#45;&gt;Node8 -->
<g id="edge10" class="edge">
<title>Node6&#45;&gt;Node8</title>
<path fill="none" stroke="#191970" d="M193.1944,-113.6414C206.3796,-102.4989 223.5583,-87.9817 234.5435,-78.6985"/>
<polygon fill="#191970" stroke="#191970" points="190.5905,-111.2594 185.2117,-120.3873 195.1088,-116.6059 190.5905,-111.2594"/>
</g>
<!-- Node7 -->
<g id="node7" class="node">
<title>Node7</title>
<g id="a_node7"><a xlink:href="interfacelocomotor_1_1components_1_1_j_s_o_n_convertissable.html" target="_top" xlink:title="JSONConvertissable">
<polygon fill="#ffffff" stroke="#000000" points="242.0221,-120.5 242.0221,-138.5 350.8346,-138.5 350.8346,-120.5 242.0221,-120.5"/>
<text text-anchor="middle" x="296.4283" y="-126.5" font-family="Helvetica,sans-Serif" font-size="10.00" fill="#000000">JSONConvertissable</text>
</a>
</g>
</g>
<!-- Node7&#45;&gt;Node5 -->
<g id="edge8" class="edge">
<title>Node7&#45;&gt;Node5</title>
<path fill="none" stroke="#191970" d="M266.8391,-116.2511C241.2313,-104.7849 204.8926,-88.5139 182.5325,-78.5019"/>
<polygon fill="#191970" stroke="#191970" points="265.5194,-119.495 276.0766,-120.3873 268.3801,-113.1062 265.5194,-119.495"/>
</g>
<!-- Node7&#45;&gt;Node8 -->
<g id="edge11" class="edge">
<title>Node7&#45;&gt;Node8</title>
<path fill="none" stroke="#191970" d="M282.1298,-112.6783C272.7759,-101.6737 260.9124,-87.7165 253.247,-78.6985"/>
<polygon fill="#191970" stroke="#191970" points="279.5392,-115.0347 288.6825,-120.3873 284.8728,-110.5011 279.5392,-115.0347"/>
</g>
<!-- Node8&#45;&gt;Node1 -->
<g id="edge9" class="edge">
<title>Node8&#45;&gt;Node1</title>
<path fill="none" stroke="#191970" d="M233.1976,-52.0276C225.5681,-41.1282 216.0561,-27.5397 209.8672,-18.6985"/>
<polygon fill="#191970" stroke="#191970" points="230.4474,-54.2021 239.0494,-60.3873 236.1821,-50.1878 230.4474,-54.2021"/>
</g>
<!-- Node9 -->
<g id="node9" class="node">
<title>Node9</title>
<g id="a_node9"><a xlink:href="interfacelocomotor_1_1components_1_1types_1_1_c_comparable.html" target="_top" xlink:title="CComparable\&lt; CBoolean,\l CBoolean \&gt;">
<polygon fill="#ffffff" stroke="#000000" points="296.9225,-55.5 296.9225,-83.5 429.9342,-83.5 429.9342,-55.5 296.9225,-55.5"/>
<text text-anchor="start" x="304.9225" y="-71.5" font-family="Helvetica,sans-Serif" font-size="10.00" fill="#000000">CComparable&lt; CBoolean,</text>
<text text-anchor="middle" x="363.4283" y="-61.5" font-family="Helvetica,sans-Serif" font-size="10.00" fill="#000000"> CBoolean &gt;</text>
</a>
</g>
</g>
<!-- Node9&#45;&gt;Node1 -->
<g id="edge12" class="edge">
<title>Node9&#45;&gt;Node1</title>
<path fill="none" stroke="#191970" d="M316.3587,-51.8489C287.3009,-40.9522 251.2213,-27.4224 227.7778,-18.6311"/>
<polygon fill="#191970" stroke="#191970" points="315.3232,-55.1985 325.9154,-55.4327 317.7811,-48.6442 315.3232,-55.1985"/>
</g>
</g>
</svg>
