<?xml version="1.0" encoding="UTF-8" standalone="no"?>
<!DOCTYPE svg PUBLIC "-//W3C//DTD SVG 1.1//EN"
 "http://www.w3.org/Graphics/SVG/1.1/DTD/svg11.dtd">
<!-- Generated by graphviz version 2.40.1 (20161225.0304)
 -->
<!-- Title: ItemCriteriaFull Pages: 1 -->
<svg width="204pt" height="260pt"
 viewBox="0.00 0.00 203.87 260.00" xmlns="http://www.w3.org/2000/svg" xmlns:xlink="http://www.w3.org/1999/xlink">
<g id="graph0" class="graph" transform="scale(1 1) rotate(0) translate(4 256)">
<title>ItemCriteriaFull</title>
<polygon fill="#ffffff" stroke="transparent" points="-4,4 -4,-256 199.8716,-256 199.8716,4 -4,4"/>
<!-- Node1 -->
<g id="node1" class="node">
<title>Node1</title>
<polygon fill="#bfbfbf" stroke="#000000" points="81.7954,-.5 81.7954,-18.5 165.5835,-18.5 165.5835,-.5 81.7954,-.5"/>
<text text-anchor="middle" x="123.6895" y="-6.5" font-family="Helvetica,sans-Serif" font-size="10.00" fill="#000000">ItemCriteriaFull</text>
</g>
<!-- Node2 -->
<g id="node2" class="node">
<title>Node2</title>
<g id="a_node2"><a xlink:href="classlocomotor_1_1components_1_1models_1_1_item_criteria.html" target="_top" xlink:title="ItemCriteria">
<polygon fill="#ffffff" stroke="#000000" points="15.8521,-56.5 15.8521,-74.5 83.5269,-74.5 83.5269,-56.5 15.8521,-56.5"/>
<text text-anchor="middle" x="49.6895" y="-62.5" font-family="Helvetica,sans-Serif" font-size="10.00" fill="#000000">ItemCriteria</text>
</a>
</g>
</g>
<!-- Node2&#45;&gt;Node1 -->
<g id="edge1" class="edge">
<title>Node2&#45;&gt;Node1</title>
<path fill="none" stroke="#191970" d="M70.0688,-50.0778C83.4373,-39.9611 100.4599,-27.0791 111.6972,-18.5752"/>
<polygon fill="#191970" stroke="#191970" points="67.7711,-47.4273 61.909,-56.2527 71.9952,-53.0092 67.7711,-47.4273"/>
</g>
<!-- Node3 -->
<g id="node3" class="node">
<title>Node3</title>
<g id="a_node3"><a xlink:href="classlocomotor_1_1components_1_1models_1_1_criteria.html" target="_top" xlink:title="Criteria">
<polygon fill="#ffffff" stroke="#000000" points="25.5762,-112.5 25.5762,-130.5 73.8027,-130.5 73.8027,-112.5 25.5762,-112.5"/>
<text text-anchor="middle" x="49.6895" y="-118.5" font-family="Helvetica,sans-Serif" font-size="10.00" fill="#000000">Criteria</text>
</a>
</g>
</g>
<!-- Node3&#45;&gt;Node2 -->
<g id="edge2" class="edge">
<title>Node3&#45;&gt;Node2</title>
<path fill="none" stroke="#191970" d="M49.6895,-102.2065C49.6895,-92.8384 49.6895,-82.0262 49.6895,-74.5752"/>
<polygon fill="#191970" stroke="#191970" points="46.1896,-102.2527 49.6895,-112.2527 53.1896,-102.2528 46.1896,-102.2527"/>
</g>
<!-- Node4 -->
<g id="node4" class="node">
<title>Node4</title>
<g id="a_node4"><a xlink:href="interfacelocomotor_1_1components_1_1types_1_1_c_comparable_type.html" target="_top" xlink:title="CComparableType">
<polygon fill="#ffffff" stroke="#000000" points="0,-177.5 0,-195.5 99.3789,-195.5 99.3789,-177.5 0,-177.5"/>
<text text-anchor="middle" x="49.6895" y="-183.5" font-family="Helvetica,sans-Serif" font-size="10.00" fill="#000000">CComparableType</text>
</a>
</g>
</g>
<!-- Node4&#45;&gt;Node3 -->
<g id="edge3" class="edge">
<title>Node4&#45;&gt;Node3</title>
<path fill="none" stroke="#9a32cd" stroke-dasharray="5,2" d="M49.6895,-167.1265C49.6895,-155.1522 49.6895,-140.3205 49.6895,-130.8821"/>
<polygon fill="#9a32cd" stroke="#9a32cd" points="46.1895,-167.462 49.6895,-177.462 53.1895,-167.4621 46.1895,-167.462"/>
<text text-anchor="middle" x="65.8125" y="-151" font-family="Helvetica,sans-Serif" font-size="10.00" fill="#000000"> _value</text>
</g>
<!-- Node5 -->
<g id="node5" class="node">
<title>Node5</title>
<g id="a_node5"><a xlink:href="interfacelocomotor_1_1components_1_1types_1_1_c_type.html" target="_top" xlink:title="CType">
<polygon fill="#ffffff" stroke="#000000" points="27.2363,-233.5 27.2363,-251.5 72.1426,-251.5 72.1426,-233.5 27.2363,-233.5"/>
<text text-anchor="middle" x="49.6895" y="-239.5" font-family="Helvetica,sans-Serif" font-size="10.00" fill="#000000">CType</text>
</a>
</g>
</g>
<!-- Node5&#45;&gt;Node4 -->
<g id="edge4" class="edge">
<title>Node5&#45;&gt;Node4</title>
<path fill="none" stroke="#191970" d="M49.6895,-223.2065C49.6895,-213.8384 49.6895,-203.0262 49.6895,-195.5752"/>
<polygon fill="#191970" stroke="#191970" points="46.1896,-223.2527 49.6895,-233.2527 53.1896,-223.2528 46.1896,-223.2527"/>
</g>
<!-- Node6 -->
<g id="node6" class="node">
<title>Node6</title>
<g id="a_node6"><a xlink:href="interfacelocomotor_1_1components_1_1_j_s_o_n_displayable.html" target="_top" xlink:title="JSONDisplayable">
<polygon fill="#ffffff" stroke="#000000" points="101.5073,-56.5 101.5073,-74.5 195.8716,-74.5 195.8716,-56.5 101.5073,-56.5"/>
<text text-anchor="middle" x="148.6895" y="-62.5" font-family="Helvetica,sans-Serif" font-size="10.00" fill="#000000">JSONDisplayable</text>
</a>
</g>
</g>
<!-- Node6&#45;&gt;Node1 -->
<g id="edge5" class="edge">
<title>Node6&#45;&gt;Node1</title>
<path fill="none" stroke="#191970" d="M140.4833,-47.1182C136.2105,-37.5471 131.1757,-26.2692 127.7409,-18.5752"/>
<polygon fill="#191970" stroke="#191970" points="137.2887,-48.5482 144.5612,-56.2527 143.6806,-45.6946 137.2887,-48.5482"/>
</g>
</g>
</svg>
