<?xml version="1.0" encoding="UTF-8" standalone="no"?>
<!DOCTYPE svg PUBLIC "-//W3C//DTD SVG 1.1//EN"
 "http://www.w3.org/Graphics/SVG/1.1/DTD/svg11.dtd">
<!-- Generated by graphviz version 2.40.1 (20161225.0304)
 -->
<!-- Title: UserCategory Pages: 1 -->
<svg width="165pt" height="168pt"
 viewBox="0.00 0.00 165.19 168.00" xmlns="http://www.w3.org/2000/svg" xmlns:xlink="http://www.w3.org/1999/xlink">
<g id="graph0" class="graph" transform="scale(1 1) rotate(0) translate(4 164)">
<title>UserCategory</title>
<polygon fill="#ffffff" stroke="transparent" points="-4,4 -4,-164 161.1865,-164 161.1865,4 -4,4"/>
<!-- Node1 -->
<g id="node1" class="node">
<title>Node1</title>
<polygon fill="#bfbfbf" stroke="#000000" points="39.7485,-.5 39.7485,-18.5 117.438,-18.5 117.438,-.5 39.7485,-.5"/>
<text text-anchor="middle" x="78.5933" y="-6.5" font-family="Helvetica,sans-Serif" font-size="10.00" fill="#000000">UserCategory</text>
</g>
<!-- Node2 -->
<g id="node2" class="node">
<title>Node2</title>
<g id="a_node2"><a xlink:href="classlocomotor_1_1components_1_1models_1_1_category.html" target="_top" xlink:title="Category">
<polygon fill="#ffffff" stroke="#000000" points="50.3052,-56.5 50.3052,-74.5 106.8813,-74.5 106.8813,-56.5 50.3052,-56.5"/>
<text text-anchor="middle" x="78.5933" y="-62.5" font-family="Helvetica,sans-Serif" font-size="10.00" fill="#000000">Category</text>
</a>
</g>
</g>
<!-- Node2&#45;&gt;Node1 -->
<g id="edge1" class="edge">
<title>Node2&#45;&gt;Node1</title>
<path fill="none" stroke="#191970" d="M78.5933,-46.2065C78.5933,-36.8384 78.5933,-26.0262 78.5933,-18.5752"/>
<polygon fill="#191970" stroke="#191970" points="75.0934,-46.2527 78.5933,-56.2527 82.0934,-46.2528 75.0934,-46.2527"/>
</g>
<!-- Node3 -->
<g id="node3" class="node">
<title>Node3</title>
<polygon fill="#ffffff" stroke="#bfbfbf" points="0,-121.5 0,-159.5 157.1865,-159.5 157.1865,-121.5 0,-121.5"/>
<text text-anchor="start" x="8" y="-147.5" font-family="Helvetica,sans-Serif" font-size="10.00" fill="#000000">ArrayList&lt;?extends</text>
<text text-anchor="start" x="8" y="-137.5" font-family="Helvetica,sans-Serif" font-size="10.00" fill="#000000"> locomotor.components.models.</text>
<text text-anchor="middle" x="78.5933" y="-127.5" font-family="Helvetica,sans-Serif" font-size="10.00" fill="#000000">Criteria &gt;</text>
</g>
<!-- Node3&#45;&gt;Node2 -->
<g id="edge2" class="edge">
<title>Node3&#45;&gt;Node2</title>
<path fill="none" stroke="#9a32cd" stroke-dasharray="5,2" d="M78.5933,-110.801C78.5933,-97.909 78.5933,-83.73 78.5933,-74.7294"/>
<polygon fill="#9a32cd" stroke="#9a32cd" points="75.0934,-111.1856 78.5933,-121.1856 82.0934,-111.1857 75.0934,-111.1856"/>
<text text-anchor="middle" x="100.2656" y="-95" font-family="Helvetica,sans-Serif" font-size="10.00" fill="#000000"> _criterias</text>
</g>
</g>
</svg>
