<?xml version="1.0" encoding="UTF-8" standalone="no"?>
<!DOCTYPE svg PUBLIC "-//W3C//DTD SVG 1.1//EN"
 "http://www.w3.org/Graphics/SVG/1.1/DTD/svg11.dtd">
<!-- Generated by graphviz version 2.40.1 (20161225.0304)
 -->
<!-- Title: authAdmin Pages: 1 -->
<svg width="431pt" height="37pt"
 viewBox="0.00 0.00 431.49 37.00" xmlns="http://www.w3.org/2000/svg" xmlns:xlink="http://www.w3.org/1999/xlink">
<g id="graph0" class="graph" transform="scale(1 1) rotate(0) translate(4 33)">
<title>authAdmin</title>
<polygon fill="#ffffff" stroke="transparent" points="-4,4 -4,-33 427.4912,-33 427.4912,4 -4,4"/>
<!-- Node1 -->
<g id="node1" class="node">
<title>Node1</title>
<polygon fill="#bfbfbf" stroke="#000000" points="0,-5.5 0,-23.5 63.8076,-23.5 63.8076,-5.5 0,-5.5"/>
<text text-anchor="middle" x="31.9038" y="-11.5" font-family="Helvetica,sans-Serif" font-size="10.00" fill="#000000">authAdmin</text>
</g>
<!-- Node2 -->
<g id="node2" class="node">
<title>Node2</title>
<g id="a_node2"><a xlink:href="classlocomotor_1_1components_1_1network_1_1_a_p_i.html#a547463fbc7fb7b485886f0917e2c0b78" target="_top" xlink:title="locomotor.components.network.\lAPI.createHooks">
<polygon fill="#ffffff" stroke="#000000" points="99.8076,-.5 99.8076,-28.5 256.9941,-28.5 256.9941,-.5 99.8076,-.5"/>
<text text-anchor="start" x="107.8076" y="-16.5" font-family="Helvetica,sans-Serif" font-size="10.00" fill="#000000">locomotor.components.network.</text>
<text text-anchor="middle" x="178.4009" y="-6.5" font-family="Helvetica,sans-Serif" font-size="10.00" fill="#000000">API.createHooks</text>
</a>
</g>
</g>
<!-- Node1&#45;&gt;Node2 -->
<g id="edge1" class="edge">
<title>Node1&#45;&gt;Node2</title>
<path fill="none" stroke="#191970" d="M74.1858,-14.5C82.1903,-14.5 90.7995,-14.5 99.5158,-14.5"/>
<polygon fill="#191970" stroke="#191970" points="74.0532,-11.0001 64.0532,-14.5 74.0532,-18.0001 74.0532,-11.0001"/>
</g>
<!-- Node3 -->
<g id="node3" class="node">
<title>Node3</title>
<g id="a_node3"><a xlink:href="classlocomotor_1_1core_1_1_main.html#a8b260eecbaabcef8473fd87ada040682" target="_top" xlink:title="locomotor.core.Main.main">
<polygon fill="#ffffff" stroke="#000000" points="292.9941,-5.5 292.9941,-23.5 423.4912,-23.5 423.4912,-5.5 292.9941,-5.5"/>
<text text-anchor="middle" x="358.2427" y="-11.5" font-family="Helvetica,sans-Serif" font-size="10.00" fill="#000000">locomotor.core.Main.main</text>
</a>
</g>
</g>
<!-- Node2&#45;&gt;Node3 -->
<g id="edge2" class="edge">
<title>Node2&#45;&gt;Node3</title>
<path fill="none" stroke="#191970" d="M267.1939,-14.5C275.8822,-14.5 284.5845,-14.5 292.9764,-14.5"/>
<polygon fill="#191970" stroke="#191970" points="267.0205,-11.0001 257.0205,-14.5 267.0205,-18.0001 267.0205,-11.0001"/>
</g>
</g>
</svg>
