<?xml version="1.0" encoding="UTF-8" standalone="no"?>
<!DOCTYPE svg PUBLIC "-//W3C//DTD SVG 1.1//EN"
 "http://www.w3.org/Graphics/SVG/1.1/DTD/svg11.dtd">
<!-- Generated by graphviz version 2.40.1 (20161225.0304)
 -->
<!-- Title: fromJSON Pages: 1 -->
<svg width="285pt" height="64pt"
 viewBox="0.00 0.00 284.54 64.00" xmlns="http://www.w3.org/2000/svg" xmlns:xlink="http://www.w3.org/1999/xlink">
<g id="graph0" class="graph" transform="scale(1 1) rotate(0) translate(4 60)">
<title>fromJSON</title>
<polygon fill="#ffffff" stroke="transparent" points="-4,4 -4,-60 280.5381,-60 280.5381,4 -4,4"/>
<!-- Node1 -->
<g id="node1" class="node">
<title>Node1</title>
<polygon fill="#bfbfbf" stroke="#000000" points="0,-19.5 0,-37.5 62.6699,-37.5 62.6699,-19.5 0,-19.5"/>
<text text-anchor="middle" x="31.335" y="-25.5" font-family="Helvetica,sans-Serif" font-size="10.00" fill="#000000">fromJSON</text>
</g>
<!-- Node2 -->
<g id="node2" class="node">
<title>Node2</title>
<g id="a_node2"><a xlink:href="classlocomotor_1_1components_1_1types_1_1_c_weighted_string_list.html#a97eb4ff6ea197b3a02c2db1c768c989a" target="_top" xlink:title="min">
<polygon fill="#ffffff" stroke="#000000" points="243.0356,-37.5 243.0356,-55.5 275.1489,-55.5 275.1489,-37.5 243.0356,-37.5"/>
<text text-anchor="middle" x="259.0923" y="-43.5" font-family="Helvetica,sans-Serif" font-size="10.00" fill="#000000">min</text>
</a>
</g>
</g>
<!-- Node1&#45;&gt;Node2 -->
<g id="edge1" class="edge">
<title>Node1&#45;&gt;Node2</title>
<path fill="none" stroke="#191970" d="M57.2006,-37.5991C69.5791,-41.4864 84.7129,-45.5686 98.6699,-47.5 145.3132,-53.9547 200.3166,-51.4477 232.2944,-49.0006"/>
<polygon fill="#191970" stroke="#191970" points="232.9147,-52.4615 242.5936,-48.1524 232.3401,-45.4851 232.9147,-52.4615"/>
</g>
<!-- Node3 -->
<g id="node3" class="node">
<title>Node3</title>
<g id="a_node3"><a xlink:href="classlocomotor_1_1components_1_1types_1_1_c_weighted_string_list.html#a1847175a80cbae9533f68b32190a708d" target="_top" xlink:title="max">
<polygon fill="#ffffff" stroke="#000000" points="241.6465,-.5 241.6465,-18.5 276.5381,-18.5 276.5381,-.5 241.6465,-.5"/>
<text text-anchor="middle" x="259.0923" y="-6.5" font-family="Helvetica,sans-Serif" font-size="10.00" fill="#000000">max</text>
</a>
</g>
</g>
<!-- Node1&#45;&gt;Node3 -->
<g id="edge2" class="edge">
<title>Node1&#45;&gt;Node3</title>
<path fill="none" stroke="#191970" d="M57.2006,-19.4009C69.5791,-15.5136 84.7129,-11.4314 98.6699,-9.5 144.7724,-3.1202 199.0437,-5.0695 231.1744,-7.1924"/>
<polygon fill="#191970" stroke="#191970" points="230.9543,-10.6855 241.1783,-7.9072 231.4532,-3.7033 230.9543,-10.6855"/>
</g>
<!-- Node4 -->
<g id="node4" class="node">
<title>Node4</title>
<g id="a_node4"><a xlink:href="classlocomotor_1_1components_1_1types_1_1_c_weighted_string_list.html#af359d6fddb9c42710b6546ed2337eec7" target="_top" xlink:title="CWeightedStringList">
<polygon fill="#ffffff" stroke="#000000" points="98.6699,-19.5 98.6699,-37.5 205.6465,-37.5 205.6465,-19.5 98.6699,-19.5"/>
<text text-anchor="middle" x="152.1582" y="-25.5" font-family="Helvetica,sans-Serif" font-size="10.00" fill="#000000">CWeightedStringList</text>
</a>
</g>
</g>
<!-- Node1&#45;&gt;Node4 -->
<g id="edge3" class="edge">
<title>Node1&#45;&gt;Node4</title>
<path fill="none" stroke="#191970" d="M62.7644,-28.5C70.6895,-28.5 79.4867,-28.5 88.3814,-28.5"/>
<polygon fill="#191970" stroke="#191970" points="88.424,-32.0001 98.424,-28.5 88.424,-25.0001 88.424,-32.0001"/>
</g>
<!-- Node4&#45;&gt;Node2 -->
<g id="edge4" class="edge">
<title>Node4&#45;&gt;Node2</title>
<path fill="none" stroke="#191970" d="M205.9385,-37.5527C215.3408,-39.1354 224.7302,-40.7159 232.9435,-42.0984"/>
<polygon fill="#191970" stroke="#191970" points="232.5233,-45.5769 242.9656,-43.7854 233.6853,-38.674 232.5233,-45.5769"/>
</g>
<!-- Node4&#45;&gt;Node3 -->
<g id="edge5" class="edge">
<title>Node4&#45;&gt;Node3</title>
<path fill="none" stroke="#191970" d="M203.1198,-19.4452C212.9101,-17.7056 222.8127,-15.9461 231.5107,-14.4007"/>
<polygon fill="#191970" stroke="#191970" points="232.2008,-17.833 241.4343,-12.6375 230.9762,-10.9409 232.2008,-17.833"/>
</g>
</g>
</svg>
