<?xml version="1.0" encoding="UTF-8" standalone="no"?>
<!DOCTYPE svg PUBLIC "-//W3C//DTD SVG 1.1//EN"
 "http://www.w3.org/Graphics/SVG/1.1/DTD/svg11.dtd">
<!-- Generated by graphviz version 2.40.1 (20161225.0304)
 -->
<!-- Title: Category Pages: 1 -->
<svg width="188pt" height="137pt"
 viewBox="0.00 0.00 187.91 137.00" xmlns="http://www.w3.org/2000/svg" xmlns:xlink="http://www.w3.org/1999/xlink">
<g id="graph0" class="graph" transform="scale(1 1) rotate(0) translate(4 133)">
<title>Category</title>
<polygon fill="#ffffff" stroke="transparent" points="-4,4 -4,-133 183.9136,-133 183.9136,4 -4,4"/>
<!-- Node1 -->
<g id="node1" class="node">
<title>Node1</title>
<polygon fill="#bfbfbf" stroke="#000000" points="64.7808,-110.5 64.7808,-128.5 121.3569,-128.5 121.3569,-110.5 64.7808,-110.5"/>
<text text-anchor="middle" x="93.0688" y="-116.5" font-family="Helvetica,sans-Serif" font-size="10.00" fill="#000000">Category</text>
</g>
<!-- Node2 -->
<g id="node2" class="node">
<title>Node2</title>
<g id="a_node2"><a xlink:href="classlocomotor_1_1components_1_1models_1_1_item_category.html" target="_top" xlink:title="ItemCategory">
<polygon fill="#ffffff" stroke="#000000" points="8.0566,-55.5 8.0566,-73.5 84.0811,-73.5 84.0811,-55.5 8.0566,-55.5"/>
<text text-anchor="middle" x="46.0688" y="-61.5" font-family="Helvetica,sans-Serif" font-size="10.00" fill="#000000">ItemCategory</text>
</a>
</g>
</g>
<!-- Node1&#45;&gt;Node2 -->
<g id="edge1" class="edge">
<title>Node1&#45;&gt;Node2</title>
<path fill="none" stroke="#191970" d="M78.7341,-102.7253C70.6071,-93.215 60.746,-81.6754 53.9986,-73.7795"/>
<polygon fill="#191970" stroke="#191970" points="76.1504,-105.0893 85.3078,-110.4179 81.472,-100.5417 76.1504,-105.0893"/>
</g>
<!-- Node4 -->
<g id="node4" class="node">
<title>Node4</title>
<g id="a_node4"><a xlink:href="classlocomotor_1_1components_1_1models_1_1_user_category.html" target="_top" xlink:title="UserCategory">
<polygon fill="#ffffff" stroke="#000000" points="102.2241,-55.5 102.2241,-73.5 179.9136,-73.5 179.9136,-55.5 102.2241,-55.5"/>
<text text-anchor="middle" x="141.0688" y="-61.5" font-family="Helvetica,sans-Serif" font-size="10.00" fill="#000000">UserCategory</text>
</a>
</g>
</g>
<!-- Node1&#45;&gt;Node4 -->
<g id="edge3" class="edge">
<title>Node1&#45;&gt;Node4</title>
<path fill="none" stroke="#191970" d="M107.7086,-102.7253C116.0085,-93.215 126.0794,-81.6754 132.9704,-73.7795"/>
<polygon fill="#191970" stroke="#191970" points="104.9335,-100.5822 100.9951,-110.4179 110.2074,-105.185 104.9335,-100.5822"/>
</g>
<!-- Node3 -->
<g id="node3" class="node">
<title>Node3</title>
<g id="a_node3"><a xlink:href="classlocomotor_1_1components_1_1models_1_1_item_category_full.html" target="_top" xlink:title="ItemCategoryFull">
<polygon fill="#ffffff" stroke="#000000" points="0,-.5 0,-18.5 92.1377,-18.5 92.1377,-.5 0,-.5"/>
<text text-anchor="middle" x="46.0688" y="-6.5" font-family="Helvetica,sans-Serif" font-size="10.00" fill="#000000">ItemCategoryFull</text>
</a>
</g>
</g>
<!-- Node2&#45;&gt;Node3 -->
<g id="edge2" class="edge">
<title>Node2&#45;&gt;Node3</title>
<path fill="none" stroke="#191970" d="M46.0688,-45.383C46.0688,-36.3738 46.0688,-26.0373 46.0688,-18.7795"/>
<polygon fill="#191970" stroke="#191970" points="42.5689,-45.4178 46.0688,-55.4179 49.5689,-45.4179 42.5689,-45.4178"/>
</g>
</g>
</svg>
