<?xml version="1.0" encoding="UTF-8" standalone="no"?>
<!DOCTYPE svg PUBLIC "-//W3C//DTD SVG 1.1//EN"
 "http://www.w3.org/Graphics/SVG/1.1/DTD/svg11.dtd">
<!-- Generated by graphviz version 2.40.1 (20161225.0304)
 -->
<!-- Title: itemNameAlreadyTaken Pages: 1 -->
<svg width="737pt" height="64pt"
 viewBox="0.00 0.00 736.70 64.00" xmlns="http://www.w3.org/2000/svg" xmlns:xlink="http://www.w3.org/1999/xlink">
<g id="graph0" class="graph" transform="scale(1 1) rotate(0) translate(4 60)">
<title>itemNameAlreadyTaken</title>
<polygon fill="#ffffff" stroke="transparent" points="-4,4 -4,-60 732.6973,-60 732.6973,4 -4,4"/>
<!-- Node1 -->
<g id="node1" class="node">
<title>Node1</title>
<polygon fill="#bfbfbf" stroke="#000000" points="0,-18.5 0,-36.5 122.1572,-36.5 122.1572,-18.5 0,-18.5"/>
<text text-anchor="middle" x="61.0786" y="-24.5" font-family="Helvetica,sans-Serif" font-size="10.00" fill="#000000">itemNameAlreadyTaken</text>
</g>
<!-- Node2 -->
<g id="node2" class="node">
<title>Node2</title>
<g id="a_node2"><a xlink:href="classlocomotor_1_1core_1_1_d_b_h.html#ad067053be75a3170dc9c2ce7b922e176" target="_top" xlink:title="checkingParsingItem">
<polygon fill="#ffffff" stroke="#000000" points="158.1572,-18.5 158.1572,-36.5 266.9795,-36.5 266.9795,-18.5 158.1572,-18.5"/>
<text text-anchor="middle" x="212.5684" y="-24.5" font-family="Helvetica,sans-Serif" font-size="10.00" fill="#000000">checkingParsingItem</text>
</a>
</g>
</g>
<!-- Node1&#45;&gt;Node2 -->
<g id="edge1" class="edge">
<title>Node1&#45;&gt;Node2</title>
<path fill="none" stroke="#191970" d="M132.3257,-27.5C140.9549,-27.5 149.6622,-27.5 157.9975,-27.5"/>
<polygon fill="#191970" stroke="#191970" points="132.2587,-24.0001 122.2586,-27.5 132.2586,-31.0001 132.2587,-24.0001"/>
</g>
<!-- Node3 -->
<g id="node3" class="node">
<title>Node3</title>
<g id="a_node3"><a xlink:href="classlocomotor_1_1core_1_1_d_b_h.html#ae26eef1ee7482f2e0167c6a18924d214" target="_top" xlink:title="addItem">
<polygon fill="#ffffff" stroke="#000000" points="309.9302,-37.5 309.9302,-55.5 362.063,-55.5 362.063,-37.5 309.9302,-37.5"/>
<text text-anchor="middle" x="335.9966" y="-43.5" font-family="Helvetica,sans-Serif" font-size="10.00" fill="#000000">addItem</text>
</a>
</g>
</g>
<!-- Node2&#45;&gt;Node3 -->
<g id="edge2" class="edge">
<title>Node2&#45;&gt;Node3</title>
<path fill="none" stroke="#191970" d="M277.207,-37.4502C288.7541,-39.2277 300.1643,-40.9841 309.8159,-42.4699"/>
<polygon fill="#191970" stroke="#191970" points="277.4812,-33.9512 267.0651,-35.889 276.4161,-40.8698 277.4812,-33.9512"/>
</g>
<!-- Node6 -->
<g id="node6" class="node">
<title>Node6</title>
<g id="a_node6"><a xlink:href="classlocomotor_1_1core_1_1_d_b_h.html#aa0e39c547d06fd9d0ad2de70251c9cc0" target="_top" xlink:title="updateItem">
<polygon fill="#ffffff" stroke="#000000" points="302.9795,-.5 302.9795,-18.5 369.0137,-18.5 369.0137,-.5 302.9795,-.5"/>
<text text-anchor="middle" x="335.9966" y="-6.5" font-family="Helvetica,sans-Serif" font-size="10.00" fill="#000000">updateItem</text>
</a>
</g>
</g>
<!-- Node2&#45;&gt;Node6 -->
<g id="edge5" class="edge">
<title>Node2&#45;&gt;Node6</title>
<path fill="none" stroke="#191970" d="M277.07,-18.0935C285.9373,-16.8003 294.7277,-15.5184 302.7069,-14.3548"/>
<polygon fill="#191970" stroke="#191970" points="276.4553,-14.646 267.0651,-19.5525 277.4655,-21.5727 276.4553,-14.646"/>
</g>
<!-- Node4 -->
<g id="node4" class="node">
<title>Node4</title>
<g id="a_node4"><a xlink:href="classlocomotor_1_1components_1_1network_1_1_a_p_i.html#a547463fbc7fb7b485886f0917e2c0b78" target="_top" xlink:title="locomotor.components.network.\lAPI.createHooks">
<polygon fill="#ffffff" stroke="#000000" points="405.0137,-13.5 405.0137,-41.5 562.2002,-41.5 562.2002,-13.5 405.0137,-13.5"/>
<text text-anchor="start" x="413.0137" y="-29.5" font-family="Helvetica,sans-Serif" font-size="10.00" fill="#000000">locomotor.components.network.</text>
<text text-anchor="middle" x="483.6069" y="-19.5" font-family="Helvetica,sans-Serif" font-size="10.00" fill="#000000">API.createHooks</text>
</a>
</g>
</g>
<!-- Node3&#45;&gt;Node4 -->
<g id="edge3" class="edge">
<title>Node3&#45;&gt;Node4</title>
<path fill="none" stroke="#191970" d="M372.6091,-41.7873C382.5138,-40.5124 393.6283,-39.0818 404.896,-37.6315"/>
<polygon fill="#191970" stroke="#191970" points="371.8577,-38.3551 362.3864,-43.1032 372.7514,-45.2978 371.8577,-38.3551"/>
</g>
<!-- Node5 -->
<g id="node5" class="node">
<title>Node5</title>
<g id="a_node5"><a xlink:href="classlocomotor_1_1core_1_1_main.html#a8b260eecbaabcef8473fd87ada040682" target="_top" xlink:title="locomotor.core.Main.main">
<polygon fill="#ffffff" stroke="#000000" points="598.2002,-18.5 598.2002,-36.5 728.6973,-36.5 728.6973,-18.5 598.2002,-18.5"/>
<text text-anchor="middle" x="663.4487" y="-24.5" font-family="Helvetica,sans-Serif" font-size="10.00" fill="#000000">locomotor.core.Main.main</text>
</a>
</g>
</g>
<!-- Node4&#45;&gt;Node5 -->
<g id="edge4" class="edge">
<title>Node4&#45;&gt;Node5</title>
<path fill="none" stroke="#191970" d="M572.4,-27.5C581.0883,-27.5 589.7906,-27.5 598.1825,-27.5"/>
<polygon fill="#191970" stroke="#191970" points="572.2266,-24.0001 562.2265,-27.5 572.2265,-31.0001 572.2266,-24.0001"/>
</g>
<!-- Node6&#45;&gt;Node4 -->
<g id="edge6" class="edge">
<title>Node6&#45;&gt;Node4</title>
<path fill="none" stroke="#191970" d="M379.063,-14.7516C387.1965,-15.7435 395.9364,-16.8092 404.7729,-17.8868"/>
<polygon fill="#191970" stroke="#191970" points="379.4734,-11.2758 369.1232,-13.5396 378.626,-18.2244 379.4734,-11.2758"/>
</g>
</g>
</svg>
