<?xml version="1.0" encoding="UTF-8" standalone="no"?>
<!DOCTYPE svg PUBLIC "-//W3C//DTD SVG 1.1//EN"
 "http://www.w3.org/Graphics/SVG/1.1/DTD/svg11.dtd">
<!-- Generated by graphviz version 2.40.1 (20161225.0304)
 -->
<!-- Title: getDisableFlexibility Pages: 1 -->
<svg width="1327pt" height="37pt"
 viewBox="0.00 0.00 1327.06 37.00" xmlns="http://www.w3.org/2000/svg" xmlns:xlink="http://www.w3.org/1999/xlink">
<g id="graph0" class="graph" transform="scale(1 1) rotate(0) translate(4 33)">
<title>getDisableFlexibility</title>
<polygon fill="#ffffff" stroke="transparent" points="-4,4 -4,-33 1323.0645,-33 1323.0645,4 -4,4"/>
<!-- Node1 -->
<g id="node1" class="node">
<title>Node1</title>
<polygon fill="#bfbfbf" stroke="#000000" points="0,-5.5 0,-23.5 104.3691,-23.5 104.3691,-5.5 0,-5.5"/>
<text text-anchor="middle" x="52.1846" y="-11.5" font-family="Helvetica,sans-Serif" font-size="10.00" fill="#000000">getDisableFlexibility</text>
</g>
<!-- Node2 -->
<g id="node2" class="node">
<title>Node2</title>
<g id="a_node2"><a xlink:href="classlocomotor_1_1core_1_1_comparator.html#a686a6117a0c0951d6b70fb883b2b5937" target="_top" xlink:title="locomotor.core.Comparator.compute\lGradeOfCriteria">
<polygon fill="#ffffff" stroke="#000000" points="140.3691,-.5 140.3691,-28.5 318.1221,-28.5 318.1221,-.5 140.3691,-.5"/>
<text text-anchor="start" x="148.3691" y="-16.5" font-family="Helvetica,sans-Serif" font-size="10.00" fill="#000000">locomotor.core.Comparator.compute</text>
<text text-anchor="middle" x="229.2456" y="-6.5" font-family="Helvetica,sans-Serif" font-size="10.00" fill="#000000">GradeOfCriteria</text>
</a>
</g>
</g>
<!-- Node1&#45;&gt;Node2 -->
<g id="edge1" class="edge">
<title>Node1&#45;&gt;Node2</title>
<path fill="none" stroke="#191970" d="M115.0367,-14.5C123.2503,-14.5 131.7868,-14.5 140.3281,-14.5"/>
<polygon fill="#191970" stroke="#191970" points="114.8294,-11.0001 104.8293,-14.5 114.8293,-18.0001 114.8294,-11.0001"/>
</g>
<!-- Node3 -->
<g id="node3" class="node">
<title>Node3</title>
<g id="a_node3"><a xlink:href="classlocomotor_1_1core_1_1_comparator.html#a3f526c90b5b3a645974bbb81e30d3c74" target="_top" xlink:title="locomotor.core.Comparator.compute\lGradeOfCategory">
<polygon fill="#ffffff" stroke="#000000" points="354.1221,-.5 354.1221,-28.5 531.875,-28.5 531.875,-.5 354.1221,-.5"/>
<text text-anchor="start" x="362.1221" y="-16.5" font-family="Helvetica,sans-Serif" font-size="10.00" fill="#000000">locomotor.core.Comparator.compute</text>
<text text-anchor="middle" x="442.9985" y="-6.5" font-family="Helvetica,sans-Serif" font-size="10.00" fill="#000000">GradeOfCategory</text>
</a>
</g>
</g>
<!-- Node2&#45;&gt;Node3 -->
<g id="edge2" class="edge">
<title>Node2&#45;&gt;Node3</title>
<path fill="none" stroke="#191970" d="M328.361,-14.5C336.9278,-14.5 345.5614,-14.5 354.0402,-14.5"/>
<polygon fill="#191970" stroke="#191970" points="328.3483,-11.0001 318.3483,-14.5 328.3482,-18.0001 328.3483,-11.0001"/>
</g>
<!-- Node4 -->
<g id="node4" class="node">
<title>Node4</title>
<g id="a_node4"><a xlink:href="classlocomotor_1_1core_1_1_comparator.html#a589b06b817cbbc74ceb4812d0ba6c245" target="_top" xlink:title="locomotor.core.Comparator.compute\lGradeOfItem">
<polygon fill="#ffffff" stroke="#000000" points="567.875,-.5 567.875,-28.5 745.6279,-28.5 745.6279,-.5 567.875,-.5"/>
<text text-anchor="start" x="575.875" y="-16.5" font-family="Helvetica,sans-Serif" font-size="10.00" fill="#000000">locomotor.core.Comparator.compute</text>
<text text-anchor="middle" x="656.7515" y="-6.5" font-family="Helvetica,sans-Serif" font-size="10.00" fill="#000000">GradeOfItem</text>
</a>
</g>
</g>
<!-- Node3&#45;&gt;Node4 -->
<g id="edge3" class="edge">
<title>Node3&#45;&gt;Node4</title>
<path fill="none" stroke="#191970" d="M542.1139,-14.5C550.6807,-14.5 559.3144,-14.5 567.7931,-14.5"/>
<polygon fill="#191970" stroke="#191970" points="542.1012,-11.0001 532.1012,-14.5 542.1012,-18.0001 542.1012,-11.0001"/>
</g>
<!-- Node5 -->
<g id="node5" class="node">
<title>Node5</title>
<g id="a_node5"><a xlink:href="classlocomotor_1_1core_1_1_comparator.html#a092fb76ad264eeccd8f30eadb70e36e3" target="_top" xlink:title="locomotor.core.Comparator.compute\lGradeOfItems">
<polygon fill="#ffffff" stroke="#000000" points="781.6279,-.5 781.6279,-28.5 959.3809,-28.5 959.3809,-.5 781.6279,-.5"/>
<text text-anchor="start" x="789.6279" y="-16.5" font-family="Helvetica,sans-Serif" font-size="10.00" fill="#000000">locomotor.core.Comparator.compute</text>
<text text-anchor="middle" x="870.5044" y="-6.5" font-family="Helvetica,sans-Serif" font-size="10.00" fill="#000000">GradeOfItems</text>
</a>
</g>
</g>
<!-- Node4&#45;&gt;Node5 -->
<g id="edge4" class="edge">
<title>Node4&#45;&gt;Node5</title>
<path fill="none" stroke="#191970" d="M755.8668,-14.5C764.4336,-14.5 773.0673,-14.5 781.5461,-14.5"/>
<polygon fill="#191970" stroke="#191970" points="755.8542,-11.0001 745.8541,-14.5 755.8541,-18.0001 755.8542,-11.0001"/>
</g>
<!-- Node6 -->
<g id="node6" class="node">
<title>Node6</title>
<g id="a_node6"><a xlink:href="classlocomotor_1_1components_1_1network_1_1_a_p_i.html#a547463fbc7fb7b485886f0917e2c0b78" target="_top" xlink:title="locomotor.components.network.\lAPI.createHooks">
<polygon fill="#ffffff" stroke="#000000" points="995.3809,-.5 995.3809,-28.5 1152.5674,-28.5 1152.5674,-.5 995.3809,-.5"/>
<text text-anchor="start" x="1003.3809" y="-16.5" font-family="Helvetica,sans-Serif" font-size="10.00" fill="#000000">locomotor.components.network.</text>
<text text-anchor="middle" x="1073.9741" y="-6.5" font-family="Helvetica,sans-Serif" font-size="10.00" fill="#000000">API.createHooks</text>
</a>
</g>
</g>
<!-- Node5&#45;&gt;Node6 -->
<g id="edge5" class="edge">
<title>Node5&#45;&gt;Node6</title>
<path fill="none" stroke="#191970" d="M969.5096,-14.5C978.0988,-14.5 986.714,-14.5 995.1101,-14.5"/>
<polygon fill="#191970" stroke="#191970" points="969.4532,-11.0001 959.4532,-14.5 969.4531,-18.0001 969.4532,-11.0001"/>
</g>
<!-- Node7 -->
<g id="node7" class="node">
<title>Node7</title>
<g id="a_node7"><a xlink:href="classlocomotor_1_1core_1_1_main.html#a8b260eecbaabcef8473fd87ada040682" target="_top" xlink:title="locomotor.core.Main.main">
<polygon fill="#ffffff" stroke="#000000" points="1188.5674,-5.5 1188.5674,-23.5 1319.0645,-23.5 1319.0645,-5.5 1188.5674,-5.5"/>
<text text-anchor="middle" x="1253.8159" y="-11.5" font-family="Helvetica,sans-Serif" font-size="10.00" fill="#000000">locomotor.core.Main.main</text>
</a>
</g>
</g>
<!-- Node6&#45;&gt;Node7 -->
<g id="edge6" class="edge">
<title>Node6&#45;&gt;Node7</title>
<path fill="none" stroke="#191970" d="M1162.7671,-14.5C1171.4554,-14.5 1180.1578,-14.5 1188.5497,-14.5"/>
<polygon fill="#191970" stroke="#191970" points="1162.5938,-11.0001 1152.5937,-14.5 1162.5937,-18.0001 1162.5938,-11.0001"/>
</g>
</g>
</svg>
