<?xml version="1.0" encoding="UTF-8" standalone="no"?>
<!DOCTYPE svg PUBLIC "-//W3C//DTD SVG 1.1//EN"
 "http://www.w3.org/Graphics/SVG/1.1/DTD/svg11.dtd">
<!-- Generated by graphviz version 2.40.1 (20161225.0304)
 -->
<!-- Title: add Pages: 1 -->
<svg width="696pt" height="234pt"
 viewBox="0.00 0.00 696.41 234.00" xmlns="http://www.w3.org/2000/svg" xmlns:xlink="http://www.w3.org/1999/xlink">
<g id="graph0" class="graph" transform="scale(1 1) rotate(0) translate(4 230)">
<title>add</title>
<polygon fill="#ffffff" stroke="transparent" points="-4,4 -4,-230 692.4063,-230 692.4063,4 -4,4"/>
<!-- Node1 -->
<g id="node1" class="node">
<title>Node1</title>
<polygon fill="#bfbfbf" stroke="#000000" points="0,-95.5 0,-113.5 32.6846,-113.5 32.6846,-95.5 0,-95.5"/>
<text text-anchor="middle" x="16.3423" y="-101.5" font-family="Helvetica,sans-Serif" font-size="10.00" fill="#000000">add</text>
</g>
<!-- Node2 -->
<g id="node2" class="node">
<title>Node2</title>
<g id="a_node2"><a xlink:href="classlocomotor_1_1front_1_1components_1_1network_1_1_client_request.html#a5177dbc0e509337643b1931cab9832ca" target="_top" xlink:title="locomotor.front.components.network.\lClientRequest.addParam">
<polygon fill="#ffffff" stroke="#000000" points="68.6846,-90.5 68.6846,-118.5 248.6592,-118.5 248.6592,-90.5 68.6846,-90.5"/>
<text text-anchor="start" x="76.6846" y="-106.5" font-family="Helvetica,sans-Serif" font-size="10.00" fill="#000000">locomotor.front.components.network.</text>
<text text-anchor="middle" x="158.6719" y="-96.5" font-family="Helvetica,sans-Serif" font-size="10.00" fill="#000000">ClientRequest.addParam</text>
</a>
</g>
</g>
<!-- Node1&#45;&gt;Node2 -->
<g id="edge1" class="edge">
<title>Node1&#45;&gt;Node2</title>
<path fill="none" stroke="#191970" d="M43.133,-104.5C50.6778,-104.5 59.3299,-104.5 68.4315,-104.5"/>
<polygon fill="#191970" stroke="#191970" points="42.9479,-101.0001 32.9479,-104.5 42.9478,-108.0001 42.9479,-101.0001"/>
</g>
<!-- Node3 -->
<g id="node3" class="node">
<title>Node3</title>
<g id="a_node3"><a xlink:href="classlocomotor_1_1front_1_1components_1_1_front_resource_manager.html#aa21c4cd4a2808249949e545c69057811" target="_top" xlink:title="locomotor.front.components.\lFrontResourceManager.getInstance">
<polygon fill="#ffffff" stroke="#000000" points="304.6641,-197.5 304.6641,-225.5 480.2051,-225.5 480.2051,-197.5 304.6641,-197.5"/>
<text text-anchor="start" x="312.6641" y="-213.5" font-family="Helvetica,sans-Serif" font-size="10.00" fill="#000000">locomotor.front.components.</text>
<text text-anchor="middle" x="392.4346" y="-203.5" font-family="Helvetica,sans-Serif" font-size="10.00" fill="#000000">FrontResourceManager.getInstance</text>
</a>
</g>
</g>
<!-- Node2&#45;&gt;Node3 -->
<g id="edge2" class="edge">
<title>Node2&#45;&gt;Node3</title>
<path fill="none" stroke="#191970" d="M185.4891,-124.3317C210.166,-141.7757 248.3367,-166.7734 284.6592,-182.5 298.3509,-188.4281 313.5565,-193.4137 328.1267,-197.4874"/>
<polygon fill="#191970" stroke="#191970" points="187.517,-121.4791 177.3484,-118.5041 183.4424,-127.171 187.517,-121.4791"/>
</g>
<!-- Node4 -->
<g id="node4" class="node">
<title>Node4</title>
<g id="a_node4"><a xlink:href="classlocomotor_1_1front_1_1user_1_1_bridge.html#afa7ac789194b4e4f08000205a0f96f11" target="_top" xlink:title="locomotor.front.user.Bridge.get\lModel">
<polygon fill="#ffffff" stroke="#000000" points="536.21,-154.5 536.21,-182.5 688.4063,-182.5 688.4063,-154.5 536.21,-154.5"/>
<text text-anchor="start" x="544.21" y="-170.5" font-family="Helvetica,sans-Serif" font-size="10.00" fill="#000000">locomotor.front.user.Bridge.get</text>
<text text-anchor="middle" x="612.3081" y="-160.5" font-family="Helvetica,sans-Serif" font-size="10.00" fill="#000000">Model</text>
</a>
</g>
</g>
<!-- Node2&#45;&gt;Node4 -->
<g id="edge9" class="edge">
<title>Node2&#45;&gt;Node4</title>
<path fill="none" stroke="#191970" d="M199.3107,-122.3558C223.59,-132.1726 255.3225,-143.5382 284.6592,-149.5 369.5325,-166.748 469.1278,-170.2122 536.0416,-170.1803"/>
<polygon fill="#191970" stroke="#191970" points="200.6383,-119.1174 190.059,-118.5446 197.972,-125.5898 200.6383,-119.1174"/>
</g>
<!-- Node5 -->
<g id="node5" class="node">
<title>Node5</title>
<g id="a_node5"><a xlink:href="classlocomotor_1_1front_1_1components_1_1_front_resource_manager.html#a90ec9cbe2d393ac172e03972abf97f1d" target="_top" xlink:title="locomotor.front.components.\lFrontResourceManager.getRemoteResource">
<polygon fill="#ffffff" stroke="#000000" points="284.6592,-111.5 284.6592,-139.5 500.21,-139.5 500.21,-111.5 284.6592,-111.5"/>
<text text-anchor="start" x="292.6592" y="-127.5" font-family="Helvetica,sans-Serif" font-size="10.00" fill="#000000">locomotor.front.components.</text>
<text text-anchor="middle" x="392.4346" y="-117.5" font-family="Helvetica,sans-Serif" font-size="10.00" fill="#000000">FrontResourceManager.getRemoteResource</text>
</a>
</g>
</g>
<!-- Node2&#45;&gt;Node5 -->
<g id="edge4" class="edge">
<title>Node2&#45;&gt;Node5</title>
<path fill="none" stroke="#191970" d="M258.9489,-113.5084C267.3958,-114.2672 275.9609,-115.0366 284.4626,-115.8004"/>
<polygon fill="#191970" stroke="#191970" points="258.9893,-109.998 248.7163,-112.5891 258.363,-116.9699 258.9893,-109.998"/>
</g>
<!-- Node6 -->
<g id="node6" class="node">
<title>Node6</title>
<g id="a_node6"><a xlink:href="classlocomotor_1_1front_1_1user_1_1_bridge.html#a581292d008b50003a8bd95e9c511ad00" target="_top" xlink:title="locomotor.front.user.Bridge.auth">
<polygon fill="#ffffff" stroke="#000000" points="313.5557,-74.5 313.5557,-92.5 471.3135,-92.5 471.3135,-74.5 313.5557,-74.5"/>
<text text-anchor="middle" x="392.4346" y="-80.5" font-family="Helvetica,sans-Serif" font-size="10.00" fill="#000000">locomotor.front.user.Bridge.auth</text>
</a>
</g>
</g>
<!-- Node2&#45;&gt;Node6 -->
<g id="edge6" class="edge">
<title>Node2&#45;&gt;Node6</title>
<path fill="none" stroke="#191970" d="M258.8051,-95.5046C277.0894,-93.862 295.9321,-92.1693 313.4931,-90.5917"/>
<polygon fill="#191970" stroke="#191970" points="258.363,-92.0301 248.7163,-96.4109 258.9893,-99.002 258.363,-92.0301"/>
</g>
<!-- Node7 -->
<g id="node7" class="node">
<title>Node7</title>
<g id="a_node7"><a xlink:href="classlocomotor_1_1front_1_1user_1_1_bridge.html#a1780491711ed9d08ecb55808f269c1ff" target="_top" xlink:title="locomotor.front.user.Bridge.tokenAuth">
<polygon fill="#ffffff" stroke="#000000" points="300.77,-37.5 300.77,-55.5 484.0991,-55.5 484.0991,-37.5 300.77,-37.5"/>
<text text-anchor="middle" x="392.4346" y="-43.5" font-family="Helvetica,sans-Serif" font-size="10.00" fill="#000000">locomotor.front.user.Bridge.tokenAuth</text>
</a>
</g>
</g>
<!-- Node2&#45;&gt;Node7 -->
<g id="edge7" class="edge">
<title>Node2&#45;&gt;Node7</title>
<path fill="none" stroke="#191970" d="M208.9577,-87.3439C231.8647,-79.9412 259.4416,-71.6004 284.6592,-65.5 300.356,-61.7028 317.5109,-58.3325 333.425,-55.5243"/>
<polygon fill="#191970" stroke="#191970" points="207.8663,-84.0184 199.4469,-90.4498 210.0393,-90.6725 207.8663,-84.0184"/>
</g>
<!-- Node8 -->
<g id="node8" class="node">
<title>Node8</title>
<g id="a_node8"><a xlink:href="classlocomotor_1_1front_1_1user_1_1_bridge.html#ae0a6da5df3d6b00c1721fd865cbd8098" target="_top" xlink:title="locomotor.front.user.Bridge.register">
<polygon fill="#ffffff" stroke="#000000" points="306.6147,-.5 306.6147,-18.5 478.2544,-18.5 478.2544,-.5 306.6147,-.5"/>
<text text-anchor="middle" x="392.4346" y="-6.5" font-family="Helvetica,sans-Serif" font-size="10.00" fill="#000000">locomotor.front.user.Bridge.register</text>
</a>
</g>
</g>
<!-- Node2&#45;&gt;Node8 -->
<g id="edge8" class="edge">
<title>Node2&#45;&gt;Node8</title>
<path fill="none" stroke="#191970" d="M185.5823,-84.2177C210.1162,-66.7457 248.0183,-42.2352 284.6592,-28.5 295.7783,-24.3319 307.8921,-21.0665 319.8521,-18.5115"/>
<polygon fill="#191970" stroke="#191970" points="183.2235,-81.6043 177.1754,-90.3033 187.3282,-87.2746 183.2235,-81.6043"/>
</g>
<!-- Node3&#45;&gt;Node4 -->
<g id="edge3" class="edge">
<title>Node3&#45;&gt;Node4</title>
<path fill="none" stroke="#191970" d="M474.0521,-195.5383C495.9336,-191.259 519.4213,-186.6656 540.7149,-182.5013"/>
<polygon fill="#191970" stroke="#191970" points="473.2674,-192.1254 464.1251,-197.4797 474.611,-198.9952 473.2674,-192.1254"/>
</g>
<!-- Node5&#45;&gt;Node4 -->
<g id="edge5" class="edge">
<title>Node5&#45;&gt;Node4</title>
<path fill="none" stroke="#191970" d="M474.0521,-141.4617C495.9336,-145.741 519.4213,-150.3344 540.7149,-154.4987"/>
<polygon fill="#191970" stroke="#191970" points="474.611,-138.0048 464.1251,-139.5203 473.2674,-144.8746 474.611,-138.0048"/>
</g>
</g>
</svg>
