<?xml version="1.0" encoding="UTF-8" standalone="no"?>
<!DOCTYPE svg PUBLIC "-//W3C//DTD SVG 1.1//EN"
 "http://www.w3.org/Graphics/SVG/1.1/DTD/svg11.dtd">
<!-- Generated by graphviz version 2.40.1 (20161225.0304)
 -->
<!-- Title: removeItem Pages: 1 -->
<svg width="458pt" height="158pt"
 viewBox="0.00 0.00 457.64 158.00" xmlns="http://www.w3.org/2000/svg" xmlns:xlink="http://www.w3.org/1999/xlink">
<g id="graph0" class="graph" transform="scale(1 1) rotate(0) translate(4 154)">
<title>removeItem</title>
<polygon fill="#ffffff" stroke="transparent" points="-4,4 -4,-154 453.6387,-154 453.6387,4 -4,4"/>
<!-- Node1 -->
<g id="node1" class="node">
<title>Node1</title>
<polygon fill="#bfbfbf" stroke="#000000" points="0,-58.5 0,-76.5 68.793,-76.5 68.793,-58.5 0,-58.5"/>
<text text-anchor="middle" x="34.3965" y="-64.5" font-family="Helvetica,sans-Serif" font-size="10.00" fill="#000000">removeItem</text>
</g>
<!-- Node2 -->
<g id="node2" class="node">
<title>Node2</title>
<g id="a_node2"><a xlink:href="classlocomotor_1_1components_1_1logging_1_1_error_handler.html#a75e8f6535bdb8db9a7d570e1b839af47" target="_top" xlink:title="locomotor.components.logging.\lErrorHandler.getInstance">
<polygon fill="#ffffff" stroke="#000000" points="104.793,-121.5 104.793,-149.5 259.2158,-149.5 259.2158,-121.5 104.793,-121.5"/>
<text text-anchor="start" x="112.793" y="-137.5" font-family="Helvetica,sans-Serif" font-size="10.00" fill="#000000">locomotor.components.logging.</text>
<text text-anchor="middle" x="182.0044" y="-127.5" font-family="Helvetica,sans-Serif" font-size="10.00" fill="#000000">ErrorHandler.getInstance</text>
</a>
</g>
</g>
<!-- Node1&#45;&gt;Node2 -->
<g id="edge1" class="edge">
<title>Node1&#45;&gt;Node2</title>
<path fill="none" stroke="#191970" d="M46.2624,-76.5599C59.7981,-86.5342 82.8976,-102.481 104.793,-112.5 109.0974,-114.4696 113.6132,-116.3205 118.2092,-118.0495"/>
<polygon fill="#191970" stroke="#191970" points="117.1191,-121.3765 127.7138,-121.4265 119.4627,-114.7805 117.1191,-121.3765"/>
</g>
<!-- Node3 -->
<g id="node3" class="node">
<title>Node3</title>
<g id="a_node3"><a xlink:href="classlocomotor_1_1components_1_1logging_1_1_error_handler.html#abd00a9c37627740763cef91d76a77437" target="_top" xlink:title="locomotor.components.logging.\lErrorHandler.push">
<polygon fill="#ffffff" stroke="#000000" points="104.793,-74.5 104.793,-102.5 259.2158,-102.5 259.2158,-74.5 104.793,-74.5"/>
<text text-anchor="start" x="112.793" y="-90.5" font-family="Helvetica,sans-Serif" font-size="10.00" fill="#000000">locomotor.components.logging.</text>
<text text-anchor="middle" x="182.0044" y="-80.5" font-family="Helvetica,sans-Serif" font-size="10.00" fill="#000000">ErrorHandler.push</text>
</a>
</g>
</g>
<!-- Node1&#45;&gt;Node3 -->
<g id="edge2" class="edge">
<title>Node1&#45;&gt;Node3</title>
<path fill="none" stroke="#191970" d="M69.004,-72.4236C76.9513,-73.5542 85.7529,-74.8064 94.8337,-76.0983"/>
<polygon fill="#191970" stroke="#191970" points="94.3765,-79.5685 104.7699,-77.5119 95.3625,-72.6382 94.3765,-79.5685"/>
</g>
<!-- Node5 -->
<g id="node5" class="node">
<title>Node5</title>
<g id="a_node5"><a xlink:href="classlocomotor_1_1core_1_1_d_b_h.html#a0b2d292079fe232a4c3dae4636167641" target="_top" xlink:title="getInstance">
<polygon fill="#ffffff" stroke="#000000" points="148.1523,-37.5 148.1523,-55.5 215.8564,-55.5 215.8564,-37.5 148.1523,-37.5"/>
<text text-anchor="middle" x="182.0044" y="-43.5" font-family="Helvetica,sans-Serif" font-size="10.00" fill="#000000">getInstance</text>
</a>
</g>
</g>
<!-- Node1&#45;&gt;Node5 -->
<g id="edge4" class="edge">
<title>Node1&#45;&gt;Node5</title>
<path fill="none" stroke="#191970" d="M69.004,-62.5764C89.6013,-59.6461 115.9364,-55.8994 138.0008,-52.7603"/>
<polygon fill="#191970" stroke="#191970" points="138.7155,-56.194 148.1228,-51.3203 137.7295,-49.2638 138.7155,-56.194"/>
</g>
<!-- Node7 -->
<g id="node7" class="node">
<title>Node7</title>
<g id="a_node7"><a xlink:href="classlocomotor_1_1core_1_1_d_b_h.html#ae57fb51ee28914968135398ce849d8e1" target="_top" xlink:title="deleteBookingWith">
<polygon fill="#ffffff" stroke="#000000" points="132.3125,-.5 132.3125,-18.5 231.6963,-18.5 231.6963,-.5 132.3125,-.5"/>
<text text-anchor="middle" x="182.0044" y="-6.5" font-family="Helvetica,sans-Serif" font-size="10.00" fill="#000000">deleteBookingWith</text>
</a>
</g>
</g>
<!-- Node1&#45;&gt;Node7 -->
<g id="edge6" class="edge">
<title>Node1&#45;&gt;Node7</title>
<path fill="none" stroke="#191970" d="M48.1496,-58.4376C61.9633,-49.6888 84.1102,-36.6078 104.793,-28.5 111.7634,-25.7675 119.2458,-23.3401 126.7104,-21.211"/>
<polygon fill="#191970" stroke="#191970" points="127.7225,-24.5632 136.4686,-18.5835 125.9024,-17.804 127.7225,-24.5632"/>
</g>
<!-- Node4 -->
<g id="node4" class="node">
<title>Node4</title>
<g id="a_node4"><a xlink:href="classlocomotor_1_1components_1_1logging_1_1_error_context.html#afcf30b71bfc65c74878c7ab77c951842" target="_top" xlink:title="locomotor.components.logging.\lErrorContext.push">
<polygon fill="#ffffff" stroke="#000000" points="295.2158,-74.5 295.2158,-102.5 449.6387,-102.5 449.6387,-74.5 295.2158,-74.5"/>
<text text-anchor="start" x="303.2158" y="-90.5" font-family="Helvetica,sans-Serif" font-size="10.00" fill="#000000">locomotor.components.logging.</text>
<text text-anchor="middle" x="372.4272" y="-80.5" font-family="Helvetica,sans-Serif" font-size="10.00" fill="#000000">ErrorContext.push</text>
</a>
</g>
</g>
<!-- Node3&#45;&gt;Node4 -->
<g id="edge3" class="edge">
<title>Node3&#45;&gt;Node4</title>
<path fill="none" stroke="#191970" d="M259.4567,-88.5C267.8019,-88.5 276.3358,-88.5 284.7896,-88.5"/>
<polygon fill="#191970" stroke="#191970" points="285.0437,-92.0001 295.0436,-88.5 285.0436,-85.0001 285.0437,-92.0001"/>
</g>
<!-- Node6 -->
<g id="node6" class="node">
<title>Node6</title>
<g id="a_node6"><a xlink:href="classlocomotor_1_1core_1_1_d_b_h.html#a2d5f1f766f5863a46ed29b7e56118364" target="_top" xlink:title="DBH">
<polygon fill="#ffffff" stroke="#000000" points="353.8706,-37.5 353.8706,-55.5 390.9839,-55.5 390.9839,-37.5 353.8706,-37.5"/>
<text text-anchor="middle" x="372.4272" y="-43.5" font-family="Helvetica,sans-Serif" font-size="10.00" fill="#000000">DBH</text>
</a>
</g>
</g>
<!-- Node5&#45;&gt;Node6 -->
<g id="edge5" class="edge">
<title>Node5&#45;&gt;Node6</title>
<path fill="none" stroke="#191970" d="M216.0482,-46.5C252.3436,-46.5 309.2047,-46.5 343.4375,-46.5"/>
<polygon fill="#191970" stroke="#191970" points="343.7022,-50.0001 353.7022,-46.5 343.7022,-43.0001 343.7022,-50.0001"/>
</g>
</g>
</svg>
