<?xml version="1.0" encoding="UTF-8" standalone="no"?>
<!DOCTYPE svg PUBLIC "-//W3C//DTD SVG 1.1//EN"
 "http://www.w3.org/Graphics/SVG/1.1/DTD/svg11.dtd">
<!-- Generated by graphviz version 2.40.1 (20161225.0304)
 -->
<!-- Title: pop Pages: 1 -->
<svg width="231pt" height="84pt"
 viewBox="0.00 0.00 231.11 84.00" xmlns="http://www.w3.org/2000/svg" xmlns:xlink="http://www.w3.org/1999/xlink">
<g id="graph0" class="graph" transform="scale(1 1) rotate(0) translate(4 80)">
<title>pop</title>
<polygon fill="#ffffff" stroke="transparent" points="-4,4 -4,-80 227.1074,-80 227.1074,4 -4,4"/>
<!-- Node1 -->
<g id="node1" class="node">
<title>Node1</title>
<polygon fill="#bfbfbf" stroke="#000000" points="0,-28.5 0,-46.5 32.6846,-46.5 32.6846,-28.5 0,-28.5"/>
<text text-anchor="middle" x="16.3423" y="-34.5" font-family="Helvetica,sans-Serif" font-size="10.00" fill="#000000">pop</text>
</g>
<!-- Node2 -->
<g id="node2" class="node">
<title>Node2</title>
<g id="a_node2"><a xlink:href="classlocomotor_1_1components_1_1logging_1_1_error_context.html#aa71d41fd3d95c354d4d5e922c6c21210" target="_top" xlink:title="locomotor.components.logging.\lErrorContext.isEmpty">
<polygon fill="#ffffff" stroke="#000000" points="68.6846,-47.5 68.6846,-75.5 223.1074,-75.5 223.1074,-47.5 68.6846,-47.5"/>
<text text-anchor="start" x="76.6846" y="-63.5" font-family="Helvetica,sans-Serif" font-size="10.00" fill="#000000">locomotor.components.logging.</text>
<text text-anchor="middle" x="145.896" y="-53.5" font-family="Helvetica,sans-Serif" font-size="10.00" fill="#000000">ErrorContext.isEmpty</text>
</a>
</g>
</g>
<!-- Node1&#45;&gt;Node2 -->
<g id="edge1" class="edge">
<title>Node1&#45;&gt;Node2</title>
<path fill="none" stroke="#191970" d="M32.7504,-40.5396C40.2321,-41.9256 49.7138,-43.6821 59.9926,-45.5863"/>
<polygon fill="#191970" stroke="#191970" points="59.5821,-49.0697 70.0524,-47.4499 60.8572,-42.1868 59.5821,-49.0697"/>
</g>
<!-- Node3 -->
<g id="node3" class="node">
<title>Node3</title>
<g id="a_node3"><a xlink:href="classlocomotor_1_1components_1_1logging_1_1_error_context.html#a0174d8926fa98142dcff40f4b8478294" target="_top" xlink:title="locomotor.components.logging.\lErrorContext.pop">
<polygon fill="#ffffff" stroke="#000000" points="68.6846,-.5 68.6846,-28.5 223.1074,-28.5 223.1074,-.5 68.6846,-.5"/>
<text text-anchor="start" x="76.6846" y="-16.5" font-family="Helvetica,sans-Serif" font-size="10.00" fill="#000000">locomotor.components.logging.</text>
<text text-anchor="middle" x="145.896" y="-6.5" font-family="Helvetica,sans-Serif" font-size="10.00" fill="#000000">ErrorContext.pop</text>
</a>
</g>
</g>
<!-- Node1&#45;&gt;Node3 -->
<g id="edge2" class="edge">
<title>Node1&#45;&gt;Node3</title>
<path fill="none" stroke="#191970" d="M32.7504,-34.587C39.8996,-33.3178 48.8751,-31.7244 58.6272,-29.9931"/>
<polygon fill="#191970" stroke="#191970" points="59.3649,-33.4169 68.5992,-28.2227 58.1413,-26.5247 59.3649,-33.4169"/>
</g>
</g>
</svg>
