<?xml version="1.0" encoding="UTF-8" standalone="no"?>
<!DOCTYPE svg PUBLIC "-//W3C//DTD SVG 1.1//EN"
 "http://www.w3.org/Graphics/SVG/1.1/DTD/svg11.dtd">
<!-- Generated by graphviz version 2.40.1 (20161225.0304)
 -->
<!-- Title: toJSON Pages: 1 -->
<svg width="419pt" height="37pt"
 viewBox="0.00 0.00 418.69 37.00" xmlns="http://www.w3.org/2000/svg" xmlns:xlink="http://www.w3.org/1999/xlink">
<g id="graph0" class="graph" transform="scale(1 1) rotate(0) translate(4 33)">
<title>toJSON</title>
<polygon fill="#ffffff" stroke="transparent" points="-4,4 -4,-33 414.6934,-33 414.6934,4 -4,4"/>
<!-- Node1 -->
<g id="node1" class="node">
<title>Node1</title>
<polygon fill="#bfbfbf" stroke="#000000" points="0,-5.5 0,-23.5 51.0098,-23.5 51.0098,-5.5 0,-5.5"/>
<text text-anchor="middle" x="25.5049" y="-11.5" font-family="Helvetica,sans-Serif" font-size="10.00" fill="#000000">toJSON</text>
</g>
<!-- Node2 -->
<g id="node2" class="node">
<title>Node2</title>
<g id="a_node2"><a xlink:href="classlocomotor_1_1components_1_1network_1_1_a_p_i.html#a547463fbc7fb7b485886f0917e2c0b78" target="_top" xlink:title="locomotor.components.network.\lAPI.createHooks">
<polygon fill="#ffffff" stroke="#000000" points="87.0098,-.5 87.0098,-28.5 244.1963,-28.5 244.1963,-.5 87.0098,-.5"/>
<text text-anchor="start" x="95.0098" y="-16.5" font-family="Helvetica,sans-Serif" font-size="10.00" fill="#000000">locomotor.components.network.</text>
<text text-anchor="middle" x="165.603" y="-6.5" font-family="Helvetica,sans-Serif" font-size="10.00" fill="#000000">API.createHooks</text>
</a>
</g>
</g>
<!-- Node1&#45;&gt;Node2 -->
<g id="edge1" class="edge">
<title>Node1&#45;&gt;Node2</title>
<path fill="none" stroke="#191970" d="M61.4077,-14.5C69.2781,-14.5 77.9097,-14.5 86.7311,-14.5"/>
<polygon fill="#191970" stroke="#191970" points="61.2011,-11.0001 51.201,-14.5 61.201,-18.0001 61.2011,-11.0001"/>
</g>
<!-- Node3 -->
<g id="node3" class="node">
<title>Node3</title>
<g id="a_node3"><a xlink:href="classlocomotor_1_1core_1_1_main.html#a8b260eecbaabcef8473fd87ada040682" target="_top" xlink:title="locomotor.core.Main.main">
<polygon fill="#ffffff" stroke="#000000" points="280.1963,-5.5 280.1963,-23.5 410.6934,-23.5 410.6934,-5.5 280.1963,-5.5"/>
<text text-anchor="middle" x="345.4448" y="-11.5" font-family="Helvetica,sans-Serif" font-size="10.00" fill="#000000">locomotor.core.Main.main</text>
</a>
</g>
</g>
<!-- Node2&#45;&gt;Node3 -->
<g id="edge2" class="edge">
<title>Node2&#45;&gt;Node3</title>
<path fill="none" stroke="#191970" d="M254.3961,-14.5C263.0844,-14.5 271.7867,-14.5 280.1786,-14.5"/>
<polygon fill="#191970" stroke="#191970" points="254.2227,-11.0001 244.2226,-14.5 254.2226,-18.0001 254.2227,-11.0001"/>
</g>
</g>
</svg>
