<?xml version="1.0" encoding="UTF-8" standalone="no"?>
<!DOCTYPE svg PUBLIC "-//W3C//DTD SVG 1.1//EN"
 "http://www.w3.org/Graphics/SVG/1.1/DTD/svg11.dtd">
<!-- Generated by graphviz version 2.40.1 (20161225.0304)
 -->
<!-- Title: disconnect Pages: 1 -->
<svg width="325pt" height="27pt"
 viewBox="0.00 0.00 325.33 27.00" xmlns="http://www.w3.org/2000/svg" xmlns:xlink="http://www.w3.org/1999/xlink">
<g id="graph0" class="graph" transform="scale(1 1) rotate(0) translate(4 23)">
<title>disconnect</title>
<polygon fill="#ffffff" stroke="transparent" points="-4,4 -4,-23 321.3291,-23 321.3291,4 -4,4"/>
<!-- Node1 -->
<g id="node1" class="node">
<title>Node1</title>
<polygon fill="#bfbfbf" stroke="#000000" points="0,-.5 0,-18.5 63.8076,-18.5 63.8076,-.5 0,-.5"/>
<text text-anchor="middle" x="31.9038" y="-6.5" font-family="Helvetica,sans-Serif" font-size="10.00" fill="#000000">disconnect</text>
</g>
<!-- Node2 -->
<g id="node2" class="node">
<title>Node2</title>
<g id="a_node2"><a xlink:href="classlocomotor_1_1core_1_1_d_b_h.html#af13f3ca7380b180ee69869e687320a59" target="_top" xlink:title="connect">
<polygon fill="#ffffff" stroke="#000000" points="99.8076,-.5 99.8076,-18.5 150.832,-18.5 150.832,-.5 99.8076,-.5"/>
<text text-anchor="middle" x="125.3198" y="-6.5" font-family="Helvetica,sans-Serif" font-size="10.00" fill="#000000">connect</text>
</a>
</g>
</g>
<!-- Node1&#45;&gt;Node2 -->
<g id="edge1" class="edge">
<title>Node1&#45;&gt;Node2</title>
<path fill="none" stroke="#191970" d="M74.0924,-9.5C82.7899,-9.5 91.6985,-9.5 99.5965,-9.5"/>
<polygon fill="#191970" stroke="#191970" points="74.0523,-6.0001 64.0523,-9.5 74.0523,-13.0001 74.0523,-6.0001"/>
</g>
<!-- Node3 -->
<g id="node3" class="node">
<title>Node3</title>
<g id="a_node3"><a xlink:href="classlocomotor_1_1core_1_1_main.html#a8b260eecbaabcef8473fd87ada040682" target="_top" xlink:title="locomotor.core.Main.main">
<polygon fill="#ffffff" stroke="#000000" points="186.832,-.5 186.832,-18.5 317.3291,-18.5 317.3291,-.5 186.832,-.5"/>
<text text-anchor="middle" x="252.0806" y="-6.5" font-family="Helvetica,sans-Serif" font-size="10.00" fill="#000000">locomotor.core.Main.main</text>
</a>
</g>
</g>
<!-- Node2&#45;&gt;Node3 -->
<g id="edge2" class="edge">
<title>Node2&#45;&gt;Node3</title>
<path fill="none" stroke="#191970" d="M161.0321,-9.5C169.0506,-9.5 177.8042,-9.5 186.6116,-9.5"/>
<polygon fill="#191970" stroke="#191970" points="160.9718,-6.0001 150.9718,-9.5 160.9717,-13.0001 160.9718,-6.0001"/>
</g>
</g>
</svg>
