<?xml version="1.0" encoding="UTF-8" standalone="no"?>
<!DOCTYPE svg PUBLIC "-//W3C//DTD SVG 1.1//EN"
 "http://www.w3.org/Graphics/SVG/1.1/DTD/svg11.dtd">
<!-- Generated by graphviz version 2.40.1 (20161225.0304)
 -->
<!-- Title: requestJson Pages: 1 -->
<svg width="294pt" height="84pt"
 viewBox="0.00 0.00 294.45 84.00" xmlns="http://www.w3.org/2000/svg" xmlns:xlink="http://www.w3.org/1999/xlink">
<g id="graph0" class="graph" transform="scale(1 1) rotate(0) translate(4 80)">
<title>requestJson</title>
<polygon fill="#ffffff" stroke="transparent" points="-4,4 -4,-80 290.4521,-80 290.4521,4 -4,4"/>
<!-- Node1 -->
<g id="node1" class="node">
<title>Node1</title>
<polygon fill="#bfbfbf" stroke="#000000" points="0,-28.5 0,-46.5 70.4775,-46.5 70.4775,-28.5 0,-28.5"/>
<text text-anchor="middle" x="35.2388" y="-34.5" font-family="Helvetica,sans-Serif" font-size="10.00" fill="#000000">requestJson</text>
</g>
<!-- Node2 -->
<g id="node2" class="node">
<title>Node2</title>
<g id="a_node2"><a xlink:href="classlocomotor_1_1front_1_1components_1_1network_1_1_file_upload.html#abbb8544c46b88f1a6f1e163725aaa1b3" target="_top" xlink:title="locomotor.front.components.network.\lFileUpload.send">
<polygon fill="#ffffff" stroke="#000000" points="106.4775,-47.5 106.4775,-75.5 286.4521,-75.5 286.4521,-47.5 106.4775,-47.5"/>
<text text-anchor="start" x="114.4775" y="-63.5" font-family="Helvetica,sans-Serif" font-size="10.00" fill="#000000">locomotor.front.components.network.</text>
<text text-anchor="middle" x="196.4648" y="-53.5" font-family="Helvetica,sans-Serif" font-size="10.00" fill="#000000">FileUpload.send</text>
</a>
</g>
</g>
<!-- Node1&#45;&gt;Node2 -->
<g id="edge1" class="edge">
<title>Node1&#45;&gt;Node2</title>
<path fill="none" stroke="#191970" d="M70.6205,-42.7669C78.5169,-43.9424 87.2694,-45.2452 96.3746,-46.6006"/>
<polygon fill="#191970" stroke="#191970" points="95.9628,-50.0778 106.3692,-48.0884 96.9935,-43.1541 95.9628,-50.0778"/>
</g>
<!-- Node3 -->
<g id="node3" class="node">
<title>Node3</title>
<g id="a_node3"><a xlink:href="classlocomotor_1_1front_1_1components_1_1network_1_1_file_upload.html#ad90278946fac31b255b0ea524061a60b" target="_top" xlink:title="locomotor.front.components.network.\lFileUpload.getURLConnection">
<polygon fill="#ffffff" stroke="#000000" points="106.4775,-.5 106.4775,-28.5 286.4521,-28.5 286.4521,-.5 106.4775,-.5"/>
<text text-anchor="start" x="114.4775" y="-16.5" font-family="Helvetica,sans-Serif" font-size="10.00" fill="#000000">locomotor.front.components.network.</text>
<text text-anchor="middle" x="196.4648" y="-6.5" font-family="Helvetica,sans-Serif" font-size="10.00" fill="#000000">FileUpload.getURLConnection</text>
</a>
</g>
</g>
<!-- Node1&#45;&gt;Node3 -->
<g id="edge2" class="edge">
<title>Node1&#45;&gt;Node3</title>
<path fill="none" stroke="#191970" d="M70.6205,-32.4526C78.5169,-31.3261 87.2694,-30.0775 96.3746,-28.7786"/>
<polygon fill="#191970" stroke="#191970" points="96.9637,-32.23 106.3692,-27.3528 95.9751,-25.3002 96.9637,-32.23"/>
</g>
</g>
</svg>
