<?xml version="1.0" encoding="UTF-8" standalone="no"?>
<!DOCTYPE svg PUBLIC "-//W3C//DTD SVG 1.1//EN"
 "http://www.w3.org/Graphics/SVG/1.1/DTD/svg11.dtd">
<!-- Generated by graphviz version 2.40.1 (20161225.0304)
 -->
<!-- Title: UserCriteria Pages: 1 -->
<svg width="917pt" height="37pt"
 viewBox="0.00 0.00 916.51 37.00" xmlns="http://www.w3.org/2000/svg" xmlns:xlink="http://www.w3.org/1999/xlink">
<g id="graph0" class="graph" transform="scale(1 1) rotate(0) translate(4 33)">
<title>UserCriteria</title>
<polygon fill="#ffffff" stroke="transparent" points="-4,4 -4,-33 912.5098,-33 912.5098,4 -4,4"/>
<!-- Node1 -->
<g id="node1" class="node">
<title>Node1</title>
<polygon fill="#bfbfbf" stroke="#000000" points="0,-5.5 0,-23.5 69.3398,-23.5 69.3398,-5.5 0,-5.5"/>
<text text-anchor="middle" x="34.6699" y="-11.5" font-family="Helvetica,sans-Serif" font-size="10.00" fill="#000000">UserCriteria</text>
</g>
<!-- Node2 -->
<g id="node2" class="node">
<title>Node2</title>
<g id="a_node2"><a xlink:href="classlocomotor_1_1components_1_1models_1_1_user_criteria.html#aaca1c5ec640a1453943ce97d40e12a63" target="_top" xlink:title="fromJSON">
<polygon fill="#ffffff" stroke="#000000" points="105.3398,-5.5 105.3398,-23.5 168.0098,-23.5 168.0098,-5.5 105.3398,-5.5"/>
<text text-anchor="middle" x="136.6748" y="-11.5" font-family="Helvetica,sans-Serif" font-size="10.00" fill="#000000">fromJSON</text>
</a>
</g>
</g>
<!-- Node1&#45;&gt;Node2 -->
<g id="edge1" class="edge">
<title>Node1&#45;&gt;Node2</title>
<path fill="none" stroke="#191970" d="M79.7423,-14.5C88.2939,-14.5 97.0709,-14.5 105.094,-14.5"/>
<polygon fill="#191970" stroke="#191970" points="79.489,-11.0001 69.4889,-14.5 79.4889,-18.0001 79.489,-11.0001"/>
</g>
<!-- Node3 -->
<g id="node3" class="node">
<title>Node3</title>
<g id="a_node3"><a xlink:href="classlocomotor_1_1components_1_1models_1_1_user_category.html#a52e02970889790bace019e61fb256ff0" target="_top" xlink:title="locomotor.components.models.\lUserCategory.fromJSON">
<polygon fill="#ffffff" stroke="#000000" points="204.0098,-.5 204.0098,-28.5 358.418,-28.5 358.418,-.5 204.0098,-.5"/>
<text text-anchor="start" x="212.0098" y="-16.5" font-family="Helvetica,sans-Serif" font-size="10.00" fill="#000000">locomotor.components.models.</text>
<text text-anchor="middle" x="281.2139" y="-6.5" font-family="Helvetica,sans-Serif" font-size="10.00" fill="#000000">UserCategory.fromJSON</text>
</a>
</g>
</g>
<!-- Node2&#45;&gt;Node3 -->
<g id="edge2" class="edge">
<title>Node2&#45;&gt;Node3</title>
<path fill="none" stroke="#191970" d="M178.2808,-14.5C186.3833,-14.5 195.1171,-14.5 203.9508,-14.5"/>
<polygon fill="#191970" stroke="#191970" points="178.0377,-11.0001 168.0376,-14.5 178.0376,-18.0001 178.0377,-11.0001"/>
</g>
<!-- Node4 -->
<g id="node4" class="node">
<title>Node4</title>
<g id="a_node4"><a xlink:href="classlocomotor_1_1components_1_1models_1_1_user_item.html#ab97f79cf43a9a73bcd77cec6b449a79a" target="_top" xlink:title="locomotor.components.models.\lUserItem.fromJSON">
<polygon fill="#ffffff" stroke="#000000" points="394.418,-.5 394.418,-28.5 548.8262,-28.5 548.8262,-.5 394.418,-.5"/>
<text text-anchor="start" x="402.418" y="-16.5" font-family="Helvetica,sans-Serif" font-size="10.00" fill="#000000">locomotor.components.models.</text>
<text text-anchor="middle" x="471.6221" y="-6.5" font-family="Helvetica,sans-Serif" font-size="10.00" fill="#000000">UserItem.fromJSON</text>
</a>
</g>
</g>
<!-- Node3&#45;&gt;Node4 -->
<g id="edge3" class="edge">
<title>Node3&#45;&gt;Node4</title>
<path fill="none" stroke="#191970" d="M368.9143,-14.5C377.3679,-14.5 385.9008,-14.5 394.2444,-14.5"/>
<polygon fill="#191970" stroke="#191970" points="368.6602,-11.0001 358.6602,-14.5 368.6601,-18.0001 368.6602,-11.0001"/>
</g>
<!-- Node5 -->
<g id="node5" class="node">
<title>Node5</title>
<g id="a_node5"><a xlink:href="classlocomotor_1_1components_1_1network_1_1_a_p_i.html#a547463fbc7fb7b485886f0917e2c0b78" target="_top" xlink:title="locomotor.components.network.\lAPI.createHooks">
<polygon fill="#ffffff" stroke="#000000" points="584.8262,-.5 584.8262,-28.5 742.0127,-28.5 742.0127,-.5 584.8262,-.5"/>
<text text-anchor="start" x="592.8262" y="-16.5" font-family="Helvetica,sans-Serif" font-size="10.00" fill="#000000">locomotor.components.network.</text>
<text text-anchor="middle" x="663.4194" y="-6.5" font-family="Helvetica,sans-Serif" font-size="10.00" fill="#000000">API.createHooks</text>
</a>
</g>
</g>
<!-- Node4&#45;&gt;Node5 -->
<g id="edge4" class="edge">
<title>Node4&#45;&gt;Node5</title>
<path fill="none" stroke="#191970" d="M559.3467,-14.5C567.8126,-14.5 576.3641,-14.5 584.7347,-14.5"/>
<polygon fill="#191970" stroke="#191970" points="559.0806,-11.0001 549.0806,-14.5 559.0805,-18.0001 559.0806,-11.0001"/>
</g>
<!-- Node6 -->
<g id="node6" class="node">
<title>Node6</title>
<g id="a_node6"><a xlink:href="classlocomotor_1_1core_1_1_main.html#a8b260eecbaabcef8473fd87ada040682" target="_top" xlink:title="locomotor.core.Main.main">
<polygon fill="#ffffff" stroke="#000000" points="778.0127,-5.5 778.0127,-23.5 908.5098,-23.5 908.5098,-5.5 778.0127,-5.5"/>
<text text-anchor="middle" x="843.2612" y="-11.5" font-family="Helvetica,sans-Serif" font-size="10.00" fill="#000000">locomotor.core.Main.main</text>
</a>
</g>
</g>
<!-- Node5&#45;&gt;Node6 -->
<g id="edge5" class="edge">
<title>Node5&#45;&gt;Node6</title>
<path fill="none" stroke="#191970" d="M752.2125,-14.5C760.9008,-14.5 769.6031,-14.5 777.995,-14.5"/>
<polygon fill="#191970" stroke="#191970" points="752.0391,-11.0001 742.039,-14.5 752.039,-18.0001 752.0391,-11.0001"/>
</g>
</g>
</svg>
