<?xml version="1.0" encoding="UTF-8" standalone="no"?>
<!DOCTYPE svg PUBLIC "-//W3C//DTD SVG 1.1//EN"
 "http://www.w3.org/Graphics/SVG/1.1/DTD/svg11.dtd">
<!-- Generated by graphviz version 2.40.1 (20161225.0304)
 -->
<!-- Title: computeGradeOfCriteria Pages: 1 -->
<svg width="329pt" height="225pt"
 viewBox="0.00 0.00 329.42 225.00" xmlns="http://www.w3.org/2000/svg" xmlns:xlink="http://www.w3.org/1999/xlink">
<g id="graph0" class="graph" transform="scale(1 1) rotate(0) translate(4 221)">
<title>computeGradeOfCriteria</title>
<polygon fill="#ffffff" stroke="transparent" points="-4,4 -4,-221 325.418,-221 325.418,4 -4,4"/>
<!-- Node1 -->
<g id="node1" class="node">
<title>Node1</title>
<polygon fill="#bfbfbf" stroke="#000000" points="0,-99.5 0,-117.5 124.9307,-117.5 124.9307,-99.5 0,-99.5"/>
<text text-anchor="middle" x="62.4653" y="-105.5" font-family="Helvetica,sans-Serif" font-size="10.00" fill="#000000">computeGradeOfCriteria</text>
</g>
<!-- Node2 -->
<g id="node2" class="node">
<title>Node2</title>
<g id="a_node2"><a xlink:href="classlocomotor_1_1components_1_1models_1_1_criteria.html#a34e60b6081b4c555dc9f5b872cbe044e" target="_top" xlink:title="locomotor.components.models.\lCriteria.getID">
<polygon fill="#ffffff" stroke="#000000" points="163.9702,-188.5 163.9702,-216.5 318.3784,-216.5 318.3784,-188.5 163.9702,-188.5"/>
<text text-anchor="start" x="171.9702" y="-204.5" font-family="Helvetica,sans-Serif" font-size="10.00" fill="#000000">locomotor.components.models.</text>
<text text-anchor="middle" x="241.1743" y="-194.5" font-family="Helvetica,sans-Serif" font-size="10.00" fill="#000000">Criteria.getID</text>
</a>
</g>
</g>
<!-- Node1&#45;&gt;Node2 -->
<g id="edge1" class="edge">
<title>Node1&#45;&gt;Node2</title>
<path fill="none" stroke="#191970" d="M72.6154,-117.6827C89.6662,-132.6577 125.6661,-162.3811 160.9307,-179.5 164.9253,-181.4392 169.1133,-183.2437 173.3911,-184.9179"/>
<polygon fill="#191970" stroke="#191970" points="172.2654,-188.2328 182.8592,-188.3768 174.6674,-181.6578 172.2654,-188.2328"/>
</g>
<!-- Node3 -->
<g id="node3" class="node">
<title>Node3</title>
<g id="a_node3"><a xlink:href="classlocomotor_1_1components_1_1models_1_1_item_criteria.html#ad1dc198074d5d5e901d0e5159ded14fa" target="_top" xlink:title="locomotor.components.models.\lItemCriteria.getValue">
<polygon fill="#ffffff" stroke="#000000" points="163.9702,-141.5 163.9702,-169.5 318.3784,-169.5 318.3784,-141.5 163.9702,-141.5"/>
<text text-anchor="start" x="171.9702" y="-157.5" font-family="Helvetica,sans-Serif" font-size="10.00" fill="#000000">locomotor.components.models.</text>
<text text-anchor="middle" x="241.1743" y="-147.5" font-family="Helvetica,sans-Serif" font-size="10.00" fill="#000000">ItemCriteria.getValue</text>
</a>
</g>
</g>
<!-- Node1&#45;&gt;Node3 -->
<g id="edge2" class="edge">
<title>Node1&#45;&gt;Node3</title>
<path fill="none" stroke="#191970" d="M96.9222,-117.5621C119.867,-123.5965 150.6966,-131.7046 177.9644,-138.876"/>
<polygon fill="#191970" stroke="#191970" points="177.2667,-142.3114 187.828,-141.4701 179.0471,-135.5416 177.2667,-142.3114"/>
</g>
<!-- Node4 -->
<g id="node4" class="node">
<title>Node4</title>
<g id="a_node4"><a xlink:href="classlocomotor_1_1components_1_1models_1_1_user_criteria.html#ae439cd3f7be14d7e03f87a7ca9367d54" target="_top" xlink:title="locomotor.components.models.\lUserCriteria.getValue">
<polygon fill="#ffffff" stroke="#000000" points="163.9702,-94.5 163.9702,-122.5 318.3784,-122.5 318.3784,-94.5 163.9702,-94.5"/>
<text text-anchor="start" x="171.9702" y="-110.5" font-family="Helvetica,sans-Serif" font-size="10.00" fill="#000000">locomotor.components.models.</text>
<text text-anchor="middle" x="241.1743" y="-100.5" font-family="Helvetica,sans-Serif" font-size="10.00" fill="#000000">UserCriteria.getValue</text>
</a>
</g>
</g>
<!-- Node1&#45;&gt;Node4 -->
<g id="edge3" class="edge">
<title>Node1&#45;&gt;Node4</title>
<path fill="none" stroke="#191970" d="M124.9691,-108.5C134.307,-108.5 144.0763,-108.5 153.8139,-108.5"/>
<polygon fill="#191970" stroke="#191970" points="153.9308,-112.0001 163.9308,-108.5 153.9307,-105.0001 153.9308,-112.0001"/>
</g>
<!-- Node5 -->
<g id="node5" class="node">
<title>Node5</title>
<g id="a_node5"><a xlink:href="classlocomotor_1_1components_1_1models_1_1_user_criteria.html#a671adef5afc1b82389174abfaff3c892" target="_top" xlink:title="locomotor.components.models.\lUserCriteria.getDisableFlexibility">
<polygon fill="#ffffff" stroke="#000000" points="160.9307,-47.5 160.9307,-75.5 321.418,-75.5 321.418,-47.5 160.9307,-47.5"/>
<text text-anchor="start" x="168.9307" y="-63.5" font-family="Helvetica,sans-Serif" font-size="10.00" fill="#000000">locomotor.components.models.</text>
<text text-anchor="middle" x="241.1743" y="-53.5" font-family="Helvetica,sans-Serif" font-size="10.00" fill="#000000">UserCriteria.getDisableFlexibility</text>
</a>
</g>
</g>
<!-- Node1&#45;&gt;Node5 -->
<g id="edge4" class="edge">
<title>Node1&#45;&gt;Node5</title>
<path fill="none" stroke="#191970" d="M96.9222,-99.4379C119.867,-93.4035 150.6966,-85.2954 177.9644,-78.124"/>
<polygon fill="#191970" stroke="#191970" points="179.0471,-81.4584 187.828,-75.5299 177.2667,-74.6886 179.0471,-81.4584"/>
</g>
<!-- Node6 -->
<g id="node6" class="node">
<title>Node6</title>
<g id="a_node6"><a xlink:href="interfacelocomotor_1_1components_1_1types_1_1_c_comparable.html#a1d9a08e9f962c76e6525f8da05ca7f21" target="_top" xlink:title="locomotor.components.types.\lCComparable.compare">
<polygon fill="#ffffff" stroke="#000000" points="168.1377,-.5 168.1377,-28.5 314.2109,-28.5 314.2109,-.5 168.1377,-.5"/>
<text text-anchor="start" x="176.1377" y="-16.5" font-family="Helvetica,sans-Serif" font-size="10.00" fill="#000000">locomotor.components.types.</text>
<text text-anchor="middle" x="241.1743" y="-6.5" font-family="Helvetica,sans-Serif" font-size="10.00" fill="#000000">CComparable.compare</text>
</a>
</g>
</g>
<!-- Node1&#45;&gt;Node6 -->
<g id="edge5" class="edge">
<title>Node1&#45;&gt;Node6</title>
<path fill="none" stroke="#191970" d="M72.9402,-99.263C90.169,-84.5016 126.0644,-55.5283 160.9307,-38.5 165.7487,-36.1469 170.8437,-33.9738 176.0358,-31.9775"/>
<polygon fill="#191970" stroke="#191970" points="177.2336,-35.2663 185.4478,-28.5747 174.8535,-28.6833 177.2336,-35.2663"/>
</g>
</g>
</svg>
