<?xml version="1.0" encoding="UTF-8" standalone="no"?>
<!DOCTYPE svg PUBLIC "-//W3C//DTD SVG 1.1//EN"
 "http://www.w3.org/Graphics/SVG/1.1/DTD/svg11.dtd">
<!-- Generated by graphviz version 2.40.1 (20161225.0304)
 -->
<!-- Title: CSetGraph Pages: 1 -->
<svg width="286pt" height="121pt"
 viewBox="0.00 0.00 285.74 121.00" xmlns="http://www.w3.org/2000/svg" xmlns:xlink="http://www.w3.org/1999/xlink">
<g id="graph0" class="graph" transform="scale(1 1) rotate(0) translate(4 117)">
<title>CSetGraph</title>
<polygon fill="#ffffff" stroke="transparent" points="-4,4 -4,-117 281.7363,-117 281.7363,4 -4,4"/>
<!-- Node1 -->
<g id="node1" class="node">
<title>Node1</title>
<polygon fill="#bfbfbf" stroke="#000000" points="211.7119,-52.5 211.7119,-70.5 277.7363,-70.5 277.7363,-52.5 211.7119,-52.5"/>
<text text-anchor="middle" x="244.7241" y="-58.5" font-family="Helvetica,sans-Serif" font-size="10.00" fill="#000000">CSetGraph</text>
</g>
<!-- Node2 -->
<g id="node2" class="node">
<title>Node2</title>
<g id="a_node2"><a xlink:href="interfacelocomotor_1_1components_1_1_j_s_o_n_displayable.html" target="_top" xlink:title="JSONDisplayable">
<polygon fill="#ffffff" stroke="#000000" points="23.7158,-94.5 23.7158,-112.5 118.0801,-112.5 118.0801,-94.5 23.7158,-94.5"/>
<text text-anchor="middle" x="70.8979" y="-100.5" font-family="Helvetica,sans-Serif" font-size="10.00" fill="#000000">JSONDisplayable</text>
</a>
</g>
</g>
<!-- Node2&#45;&gt;Node1 -->
<g id="edge1" class="edge">
<title>Node2&#45;&gt;Node1</title>
<path fill="none" stroke="#191970" d="M122.3265,-92.3005C144.3613,-87.3663 170.3521,-81.3654 193.7119,-75.5 199.8579,-73.9568 206.3967,-72.2284 212.6701,-70.5268"/>
<polygon fill="#191970" stroke="#191970" points="121.5044,-88.8978 112.5045,-94.4883 123.0263,-95.7304 121.5044,-88.8978"/>
</g>
<!-- Node3 -->
<g id="node3" class="node">
<title>Node3</title>
<polygon fill="#ffffff" stroke="#bfbfbf" points="0,-47.5 0,-75.5 141.7959,-75.5 141.7959,-47.5 0,-47.5"/>
<text text-anchor="start" x="8" y="-63.5" font-family="Helvetica,sans-Serif" font-size="10.00" fill="#000000">FloydWarshallShortestPaths</text>
<text text-anchor="middle" x="70.8979" y="-53.5" font-family="Helvetica,sans-Serif" font-size="10.00" fill="#000000">&lt; Integer, DefaultEdge &gt;</text>
</g>
<!-- Node3&#45;&gt;Node1 -->
<g id="edge2" class="edge">
<title>Node3&#45;&gt;Node1</title>
<path fill="none" stroke="#9a32cd" stroke-dasharray="5,2" d="M152.0677,-61.5C172.9973,-61.5 194.373,-61.5 211.3116,-61.5"/>
<polygon fill="#9a32cd" stroke="#9a32cd" points="151.8505,-58.0001 141.8504,-61.5 151.8504,-65.0001 151.8505,-58.0001"/>
<text text-anchor="middle" x="176.7539" y="-63.5" font-family="Helvetica,sans-Serif" font-size="10.00" fill="#000000"> _fwsp</text>
</g>
<!-- Node4 -->
<g id="node4" class="node">
<title>Node4</title>
<polygon fill="#ffffff" stroke="#bfbfbf" points="12.7271,-.5 12.7271,-28.5 129.0688,-28.5 129.0688,-.5 12.7271,-.5"/>
<text text-anchor="start" x="20.7271" y="-16.5" font-family="Helvetica,sans-Serif" font-size="10.00" fill="#000000">SimpleGraph&lt; Integer,</text>
<text text-anchor="middle" x="70.8979" y="-6.5" font-family="Helvetica,sans-Serif" font-size="10.00" fill="#000000"> DefaultEdge &gt;</text>
</g>
<!-- Node4&#45;&gt;Node1 -->
<g id="edge3" class="edge">
<title>Node4&#45;&gt;Node1</title>
<path fill="none" stroke="#9a32cd" stroke-dasharray="5,2" d="M133.4137,-31.2286C152.75,-36.4215 174.1166,-42.1785 193.7119,-47.5 199.5613,-49.0885 205.7853,-50.7885 211.8019,-52.4369"/>
<polygon fill="#9a32cd" stroke="#9a32cd" points="134.0728,-27.7817 123.5073,-28.5699 132.2582,-34.5425 134.0728,-27.7817"/>
<text text-anchor="middle" x="176.7539" y="-49.5" font-family="Helvetica,sans-Serif" font-size="10.00" fill="#000000"> _graph</text>
</g>
</g>
</svg>
