<?xml version="1.0" encoding="UTF-8" standalone="no"?>
<!DOCTYPE svg PUBLIC "-//W3C//DTD SVG 1.1//EN"
 "http://www.w3.org/Graphics/SVG/1.1/DTD/svg11.dtd">
<!-- Generated by graphviz version 2.40.1 (20161225.0304)
 -->
<!-- Title: getItems Pages: 1 -->
<svg width="422pt" height="37pt"
 viewBox="0.00 0.00 422.03 37.00" xmlns="http://www.w3.org/2000/svg" xmlns:xlink="http://www.w3.org/1999/xlink">
<g id="graph0" class="graph" transform="scale(1 1) rotate(0) translate(4 33)">
<title>getItems</title>
<polygon fill="#ffffff" stroke="transparent" points="-4,4 -4,-33 418.0332,-33 418.0332,4 -4,4"/>
<!-- Node1 -->
<g id="node1" class="node">
<title>Node1</title>
<polygon fill="#bfbfbf" stroke="#000000" points="0,-5.5 0,-23.5 54.3496,-23.5 54.3496,-5.5 0,-5.5"/>
<text text-anchor="middle" x="27.1748" y="-11.5" font-family="Helvetica,sans-Serif" font-size="10.00" fill="#000000">getItems</text>
</g>
<!-- Node2 -->
<g id="node2" class="node">
<title>Node2</title>
<g id="a_node2"><a xlink:href="classlocomotor_1_1components_1_1network_1_1_a_p_i.html#a547463fbc7fb7b485886f0917e2c0b78" target="_top" xlink:title="locomotor.components.network.\lAPI.createHooks">
<polygon fill="#ffffff" stroke="#000000" points="90.3496,-.5 90.3496,-28.5 247.5361,-28.5 247.5361,-.5 90.3496,-.5"/>
<text text-anchor="start" x="98.3496" y="-16.5" font-family="Helvetica,sans-Serif" font-size="10.00" fill="#000000">locomotor.components.network.</text>
<text text-anchor="middle" x="168.9429" y="-6.5" font-family="Helvetica,sans-Serif" font-size="10.00" fill="#000000">API.createHooks</text>
</a>
</g>
</g>
<!-- Node1&#45;&gt;Node2 -->
<g id="edge1" class="edge">
<title>Node1&#45;&gt;Node2</title>
<path fill="none" stroke="#191970" d="M64.5155,-14.5C72.4856,-14.5 81.191,-14.5 90.0658,-14.5"/>
<polygon fill="#191970" stroke="#191970" points="64.5091,-11.0001 54.5091,-14.5 64.5091,-18.0001 64.5091,-11.0001"/>
</g>
<!-- Node3 -->
<g id="node3" class="node">
<title>Node3</title>
<g id="a_node3"><a xlink:href="classlocomotor_1_1core_1_1_main.html#a8b260eecbaabcef8473fd87ada040682" target="_top" xlink:title="locomotor.core.Main.main">
<polygon fill="#ffffff" stroke="#000000" points="283.5361,-5.5 283.5361,-23.5 414.0332,-23.5 414.0332,-5.5 283.5361,-5.5"/>
<text text-anchor="middle" x="348.7847" y="-11.5" font-family="Helvetica,sans-Serif" font-size="10.00" fill="#000000">locomotor.core.Main.main</text>
</a>
</g>
</g>
<!-- Node2&#45;&gt;Node3 -->
<g id="edge2" class="edge">
<title>Node2&#45;&gt;Node3</title>
<path fill="none" stroke="#191970" d="M257.7359,-14.5C266.4242,-14.5 275.1265,-14.5 283.5184,-14.5"/>
<polygon fill="#191970" stroke="#191970" points="257.5625,-11.0001 247.5625,-14.5 257.5624,-18.0001 257.5625,-11.0001"/>
</g>
</g>
</svg>
