<?xml version="1.0" encoding="UTF-8" standalone="no"?>
<!DOCTYPE svg PUBLIC "-//W3C//DTD SVG 1.1//EN"
 "http://www.w3.org/Graphics/SVG/1.1/DTD/svg11.dtd">
<!-- Generated by graphviz version 2.40.1 (20161225.0304)
 -->
<!-- Title: computeGradeOfItems Pages: 1 -->
<svg width="485pt" height="37pt"
 viewBox="0.00 0.00 484.84 37.00" xmlns="http://www.w3.org/2000/svg" xmlns:xlink="http://www.w3.org/1999/xlink">
<g id="graph0" class="graph" transform="scale(1 1) rotate(0) translate(4 33)">
<title>computeGradeOfItems</title>
<polygon fill="#ffffff" stroke="transparent" points="-4,4 -4,-33 480.8359,-33 480.8359,4 -4,4"/>
<!-- Node1 -->
<g id="node1" class="node">
<title>Node1</title>
<polygon fill="#bfbfbf" stroke="#000000" points="0,-5.5 0,-23.5 117.1523,-23.5 117.1523,-5.5 0,-5.5"/>
<text text-anchor="middle" x="58.5762" y="-11.5" font-family="Helvetica,sans-Serif" font-size="10.00" fill="#000000">computeGradeOfItems</text>
</g>
<!-- Node2 -->
<g id="node2" class="node">
<title>Node2</title>
<g id="a_node2"><a xlink:href="classlocomotor_1_1components_1_1network_1_1_a_p_i.html#a547463fbc7fb7b485886f0917e2c0b78" target="_top" xlink:title="locomotor.components.network.\lAPI.createHooks">
<polygon fill="#ffffff" stroke="#000000" points="153.1523,-.5 153.1523,-28.5 310.3389,-28.5 310.3389,-.5 153.1523,-.5"/>
<text text-anchor="start" x="161.1523" y="-16.5" font-family="Helvetica,sans-Serif" font-size="10.00" fill="#000000">locomotor.components.network.</text>
<text text-anchor="middle" x="231.7456" y="-6.5" font-family="Helvetica,sans-Serif" font-size="10.00" fill="#000000">API.createHooks</text>
</a>
</g>
</g>
<!-- Node1&#45;&gt;Node2 -->
<g id="edge1" class="edge">
<title>Node1&#45;&gt;Node2</title>
<path fill="none" stroke="#191970" d="M127.3204,-14.5C135.7284,-14.5 144.371,-14.5 152.9123,-14.5"/>
<polygon fill="#191970" stroke="#191970" points="127.2035,-11.0001 117.2034,-14.5 127.2034,-18.0001 127.2035,-11.0001"/>
</g>
<!-- Node3 -->
<g id="node3" class="node">
<title>Node3</title>
<g id="a_node3"><a xlink:href="classlocomotor_1_1core_1_1_main.html#a8b260eecbaabcef8473fd87ada040682" target="_top" xlink:title="locomotor.core.Main.main">
<polygon fill="#ffffff" stroke="#000000" points="346.3389,-5.5 346.3389,-23.5 476.8359,-23.5 476.8359,-5.5 346.3389,-5.5"/>
<text text-anchor="middle" x="411.5874" y="-11.5" font-family="Helvetica,sans-Serif" font-size="10.00" fill="#000000">locomotor.core.Main.main</text>
</a>
</g>
</g>
<!-- Node2&#45;&gt;Node3 -->
<g id="edge2" class="edge">
<title>Node2&#45;&gt;Node3</title>
<path fill="none" stroke="#191970" d="M320.5386,-14.5C329.2269,-14.5 337.9293,-14.5 346.3211,-14.5"/>
<polygon fill="#191970" stroke="#191970" points="320.3652,-11.0001 310.3652,-14.5 320.3652,-18.0001 320.3652,-11.0001"/>
</g>
</g>
</svg>
