<?xml version="1.0" encoding="UTF-8" standalone="no"?>
<!DOCTYPE svg PUBLIC "-//W3C//DTD SVG 1.1//EN"
 "http://www.w3.org/Graphics/SVG/1.1/DTD/svg11.dtd">
<!-- Generated by graphviz version 2.40.1 (20161225.0304)
 -->
<!-- Title: authUser Pages: 1 -->
<svg width="524pt" height="51pt"
 viewBox="0.00 0.00 524.07 51.00" xmlns="http://www.w3.org/2000/svg" xmlns:xlink="http://www.w3.org/1999/xlink">
<g id="graph0" class="graph" transform="scale(1 1) rotate(0) translate(4 47)">
<title>authUser</title>
<polygon fill="#ffffff" stroke="transparent" points="-4,4 -4,-47 520.0674,-47 520.0674,4 -4,4"/>
<!-- Node1 -->
<g id="node1" class="node">
<title>Node1</title>
<polygon fill="#bfbfbf" stroke="#000000" points="0,-19.5 0,-37.5 56.5762,-37.5 56.5762,-19.5 0,-19.5"/>
<text text-anchor="middle" x="28.2881" y="-25.5" font-family="Helvetica,sans-Serif" font-size="10.00" fill="#000000">authUser</text>
</g>
<!-- Node2 -->
<g id="node2" class="node">
<title>Node2</title>
<g id="a_node2"><a xlink:href="classlocomotor_1_1components_1_1network_1_1_a_p_i.html#a547463fbc7fb7b485886f0917e2c0b78" target="_top" xlink:title="locomotor.components.network.\lAPI.createHooks">
<polygon fill="#ffffff" stroke="#000000" points="192.3838,-14.5 192.3838,-42.5 349.5703,-42.5 349.5703,-14.5 192.3838,-14.5"/>
<text text-anchor="start" x="200.3838" y="-30.5" font-family="Helvetica,sans-Serif" font-size="10.00" fill="#000000">locomotor.components.network.</text>
<text text-anchor="middle" x="270.9771" y="-20.5" font-family="Helvetica,sans-Serif" font-size="10.00" fill="#000000">API.createHooks</text>
</a>
</g>
</g>
<!-- Node1&#45;&gt;Node2 -->
<g id="edge1" class="edge">
<title>Node1&#45;&gt;Node2</title>
<path fill="none" stroke="#191970" d="M66.9205,-28.5C100.5429,-28.5 150.3315,-28.5 192.3106,-28.5"/>
<polygon fill="#191970" stroke="#191970" points="66.6026,-25.0001 56.6026,-28.5 66.6025,-32.0001 66.6026,-25.0001"/>
</g>
<!-- Node4 -->
<g id="node4" class="node">
<title>Node4</title>
<g id="a_node4"><a xlink:href="classlocomotor_1_1core_1_1_d_b_h.html#ad707f520f60fe68ea8a8818698560d9d" target="_top" xlink:title="authAdmin">
<polygon fill="#ffffff" stroke="#000000" points="92.5762,-.5 92.5762,-18.5 156.3838,-18.5 156.3838,-.5 92.5762,-.5"/>
<text text-anchor="middle" x="124.48" y="-6.5" font-family="Helvetica,sans-Serif" font-size="10.00" fill="#000000">authAdmin</text>
</a>
</g>
</g>
<!-- Node1&#45;&gt;Node4 -->
<g id="edge3" class="edge">
<title>Node1&#45;&gt;Node4</title>
<path fill="none" stroke="#191970" d="M66.6945,-20.9139C75.1789,-19.238 84.083,-17.4793 92.2906,-15.8581"/>
<polygon fill="#191970" stroke="#191970" points="65.7608,-17.5306 56.6286,-22.9021 67.1173,-24.3979 65.7608,-17.5306"/>
</g>
<!-- Node3 -->
<g id="node3" class="node">
<title>Node3</title>
<g id="a_node3"><a xlink:href="classlocomotor_1_1core_1_1_main.html#a8b260eecbaabcef8473fd87ada040682" target="_top" xlink:title="locomotor.core.Main.main">
<polygon fill="#ffffff" stroke="#000000" points="385.5703,-19.5 385.5703,-37.5 516.0674,-37.5 516.0674,-19.5 385.5703,-19.5"/>
<text text-anchor="middle" x="450.8188" y="-25.5" font-family="Helvetica,sans-Serif" font-size="10.00" fill="#000000">locomotor.core.Main.main</text>
</a>
</g>
</g>
<!-- Node2&#45;&gt;Node3 -->
<g id="edge2" class="edge">
<title>Node2&#45;&gt;Node3</title>
<path fill="none" stroke="#191970" d="M359.7701,-28.5C368.4584,-28.5 377.1607,-28.5 385.5526,-28.5"/>
<polygon fill="#191970" stroke="#191970" points="359.5967,-25.0001 349.5967,-28.5 359.5966,-32.0001 359.5967,-25.0001"/>
</g>
<!-- Node4&#45;&gt;Node2 -->
<g id="edge4" class="edge">
<title>Node4&#45;&gt;Node2</title>
<path fill="none" stroke="#191970" d="M166.762,-14.9838C174.7665,-16.0219 183.3757,-17.1385 192.092,-18.269"/>
<polygon fill="#191970" stroke="#191970" points="166.9965,-11.485 156.6294,-13.6696 166.0961,-18.4268 166.9965,-11.485"/>
</g>
</g>
</svg>
