<?xml version="1.0" encoding="UTF-8" standalone="no"?>
<!DOCTYPE svg PUBLIC "-//W3C//DTD SVG 1.1//EN"
 "http://www.w3.org/Graphics/SVG/1.1/DTD/svg11.dtd">
<!-- Generated by graphviz version 2.40.1 (20161225.0304)
 -->
<!-- Title: requestJson Pages: 1 -->
<svg width="486pt" height="187pt"
 viewBox="0.00 0.00 486.00 187.00" xmlns="http://www.w3.org/2000/svg" xmlns:xlink="http://www.w3.org/1999/xlink">
<g id="graph0" class="graph" transform="scale(1 1) rotate(0) translate(4 183)">
<title>requestJson</title>
<polygon fill="#ffffff" stroke="transparent" points="-4,4 -4,-183 482.0029,-183 482.0029,4 -4,4"/>
<!-- Node1 -->
<g id="node1" class="node">
<title>Node1</title>
<polygon fill="#bfbfbf" stroke="#000000" points="0,-74.5 0,-92.5 70.4775,-92.5 70.4775,-74.5 0,-74.5"/>
<text text-anchor="middle" x="35.2388" y="-80.5" font-family="Helvetica,sans-Serif" font-size="10.00" fill="#000000">requestJson</text>
</g>
<!-- Node2 -->
<g id="node2" class="node">
<title>Node2</title>
<g id="a_node2"><a xlink:href="classlocomotor_1_1front_1_1components_1_1_front_resource_manager.html#aa21c4cd4a2808249949e545c69057811" target="_top" xlink:title="locomotor.front.components.\lFrontResourceManager.getInstance">
<polygon fill="#ffffff" stroke="#000000" points="110.3716,-150.5 110.3716,-178.5 285.9126,-178.5 285.9126,-150.5 110.3716,-150.5"/>
<text text-anchor="start" x="118.3716" y="-166.5" font-family="Helvetica,sans-Serif" font-size="10.00" fill="#000000">locomotor.front.components.</text>
<text text-anchor="middle" x="198.1421" y="-156.5" font-family="Helvetica,sans-Serif" font-size="10.00" fill="#000000">FrontResourceManager.getInstance</text>
</a>
</g>
</g>
<!-- Node1&#45;&gt;Node2 -->
<g id="edge1" class="edge">
<title>Node1&#45;&gt;Node2</title>
<path fill="none" stroke="#191970" d="M53.3687,-99.306C67.1582,-110.6649 87.0171,-125.6521 106.4775,-135.5 118.0941,-141.3785 131.1415,-146.367 143.6693,-150.4621"/>
<polygon fill="#191970" stroke="#191970" points="55.5275,-96.5481 45.625,-92.7808 51.0168,-101.9011 55.5275,-96.5481"/>
</g>
<!-- Node3 -->
<g id="node3" class="node">
<title>Node3</title>
<g id="a_node3"><a xlink:href="classlocomotor_1_1front_1_1user_1_1_bridge.html#afa7ac789194b4e4f08000205a0f96f11" target="_top" xlink:title="locomotor.front.user.Bridge.get\lModel">
<polygon fill="#ffffff" stroke="#000000" points="325.8066,-128.5 325.8066,-156.5 478.0029,-156.5 478.0029,-128.5 325.8066,-128.5"/>
<text text-anchor="start" x="333.8066" y="-144.5" font-family="Helvetica,sans-Serif" font-size="10.00" fill="#000000">locomotor.front.user.Bridge.get</text>
<text text-anchor="middle" x="401.9048" y="-134.5" font-family="Helvetica,sans-Serif" font-size="10.00" fill="#000000">Model</text>
</a>
</g>
</g>
<!-- Node1&#45;&gt;Node3 -->
<g id="edge6" class="edge">
<title>Node1&#45;&gt;Node3</title>
<path fill="none" stroke="#191970" d="M75.6236,-95.2178C85.6474,-97.8639 96.4053,-100.4833 106.4775,-102.5 180.319,-117.2848 265.6561,-128.1847 325.5683,-134.8398"/>
<polygon fill="#191970" stroke="#191970" points="76.4641,-91.8195 65.8969,-92.5842 74.6346,-98.5762 76.4641,-91.8195"/>
</g>
<!-- Node4 -->
<g id="node4" class="node">
<title>Node4</title>
<g id="a_node4"><a xlink:href="classlocomotor_1_1front_1_1user_1_1_bridge.html#a581292d008b50003a8bd95e9c511ad00" target="_top" xlink:title="locomotor.front.user.Bridge.auth">
<polygon fill="#ffffff" stroke="#000000" points="119.2632,-74.5 119.2632,-92.5 277.021,-92.5 277.021,-74.5 119.2632,-74.5"/>
<text text-anchor="middle" x="198.1421" y="-80.5" font-family="Helvetica,sans-Serif" font-size="10.00" fill="#000000">locomotor.front.user.Bridge.auth</text>
</a>
</g>
</g>
<!-- Node1&#45;&gt;Node4 -->
<g id="edge3" class="edge">
<title>Node1&#45;&gt;Node4</title>
<path fill="none" stroke="#191970" d="M80.7194,-83.5C92.668,-83.5 105.9089,-83.5 119.0671,-83.5"/>
<polygon fill="#191970" stroke="#191970" points="80.5864,-80.0001 70.5864,-83.5 80.5863,-87.0001 80.5864,-80.0001"/>
</g>
<!-- Node5 -->
<g id="node5" class="node">
<title>Node5</title>
<g id="a_node5"><a xlink:href="classlocomotor_1_1front_1_1user_1_1_bridge.html#a1780491711ed9d08ecb55808f269c1ff" target="_top" xlink:title="locomotor.front.user.Bridge.tokenAuth">
<polygon fill="#ffffff" stroke="#000000" points="106.4775,-37.5 106.4775,-55.5 289.8066,-55.5 289.8066,-37.5 106.4775,-37.5"/>
<text text-anchor="middle" x="198.1421" y="-43.5" font-family="Helvetica,sans-Serif" font-size="10.00" fill="#000000">locomotor.front.user.Bridge.tokenAuth</text>
</a>
</g>
</g>
<!-- Node1&#45;&gt;Node5 -->
<g id="edge4" class="edge">
<title>Node1&#45;&gt;Node5</title>
<path fill="none" stroke="#191970" d="M79.7242,-71.9457C88.5714,-69.7366 97.806,-67.4933 106.4775,-65.5 121.3664,-62.0776 137.6801,-58.6068 152.3648,-55.5846"/>
<polygon fill="#191970" stroke="#191970" points="78.7914,-68.5713 69.9508,-74.4102 80.5031,-75.3588 78.7914,-68.5713"/>
</g>
<!-- Node6 -->
<g id="node6" class="node">
<title>Node6</title>
<g id="a_node6"><a xlink:href="classlocomotor_1_1front_1_1user_1_1_bridge.html#ae0a6da5df3d6b00c1721fd865cbd8098" target="_top" xlink:title="locomotor.front.user.Bridge.register">
<polygon fill="#ffffff" stroke="#000000" points="112.3223,-.5 112.3223,-18.5 283.9619,-18.5 283.9619,-.5 112.3223,-.5"/>
<text text-anchor="middle" x="198.1421" y="-6.5" font-family="Helvetica,sans-Serif" font-size="10.00" fill="#000000">locomotor.front.user.Bridge.register</text>
</a>
</g>
</g>
<!-- Node1&#45;&gt;Node6 -->
<g id="edge5" class="edge">
<title>Node1&#45;&gt;Node6</title>
<path fill="none" stroke="#191970" d="M51.9835,-66.9765C65.5638,-54.5214 85.7861,-38.0127 106.4775,-28.5 115.4851,-24.3589 125.4045,-21.1125 135.2898,-18.5695"/>
<polygon fill="#191970" stroke="#191970" points="49.3022,-64.695 44.4413,-74.109 54.1119,-69.781 49.3022,-64.695"/>
</g>
<!-- Node2&#45;&gt;Node3 -->
<g id="edge2" class="edge">
<title>Node2&#45;&gt;Node3</title>
<path fill="none" stroke="#191970" d="M296.2456,-153.9079C306.0754,-152.8466 315.9521,-151.7802 325.5091,-150.7483"/>
<polygon fill="#191970" stroke="#191970" points="295.6007,-150.4571 286.0343,-155.0104 296.3522,-157.4166 295.6007,-150.4571"/>
</g>
</g>
</svg>
