<?xml version="1.0" encoding="UTF-8" standalone="no"?>
<!DOCTYPE svg PUBLIC "-//W3C//DTD SVG 1.1//EN"
 "http://www.w3.org/Graphics/SVG/1.1/DTD/svg11.dtd">
<!-- Generated by graphviz version 2.40.1 (20161225.0304)
 -->
<!-- Title: max Pages: 1 -->
<!--zoomable 356 -->
<svg id="main" version="1.1" xmlns="http://www.w3.org/2000/svg" xmlns:xlink="http://www.w3.org/1999/xlink" xml:space="preserve" onload="init(evt)">
<style type="text/css"><![CDATA[
.edge:hover path { stroke: red; }
.edge:hover polygon { stroke: red; fill: red; }
]]></style>
<script type="text/javascript"><![CDATA[
var edges = document.getElementsByTagName('g');
if (edges && edges.length) {
  for (var i=0;i<edges.length;i++) {
    if (edges[i].id.substr(0,4)=='edge') {
      edges[i].setAttribute('class','edge');
    }
  }
}
]]></script>
        <defs>
                <circle id="rim" cx="0" cy="0" r="7"/>
                <circle id="rim2" cx="0" cy="0" r="3.5"/>
                <g id="zoomPlus">
                        <use xlink:href="#rim" fill="#404040">
                                <set attributeName="fill" to="#808080" begin="zoomplus.mouseover" end="zoomplus.mouseout"/>
                        </use>
                        <path d="M-4,0h8M0,-4v8" fill="none" stroke="white" stroke-width="1.5" pointer-events="none"/>
                </g>
                <g id="zoomMin">
                        <use xlink:href="#rim" fill="#404040">
                                <set attributeName="fill" to="#808080" begin="zoomminus.mouseover" end="zoomminus.mouseout"/>
                        </use>
                        <path d="M-4,0h8" fill="none" stroke="white" stroke-width="1.5" pointer-events="none"/>
                </g>
                <g id="dirArrow">
                        <path fill="none" stroke="white" stroke-width="1.5" d="M0,-3.0v7 M-2.5,-0.5L0,-3.0L2.5,-0.5"/>
                </g>
               <g id="resetDef">
                       <use xlink:href="#rim2" fill="#404040">
                               <set attributeName="fill" to="#808080" begin="reset.mouseover" end="reset.mouseout"/>
                       </use>
               </g>
        </defs>

<script type="text/javascript">
var viewWidth = 1343;
var viewHeight = 356;
var sectionId = 'dynsection-5';
</script>
<script xlink:href="svgpan.js"/>
<svg id="graph" class="graph">
<g id="viewport">
<title>max</title>
<polygon fill="#ffffff" stroke="transparent" points="-4,4 -4,-352 1338.7412,-352 1338.7412,4 -4,4"/>
<!-- Node1 -->
<g id="node1" class="node">
<title>Node1</title>
<polygon fill="#bfbfbf" stroke="#000000" points="0,-169.5 0,-187.5 34.8916,-187.5 34.8916,-169.5 0,-169.5"/>
<text text-anchor="middle" x="17.4458" y="-175.5" font-family="Helvetica,sans-Serif" font-size="10.00" fill="#000000">max</text>
</g>
<!-- Node2 -->
<g id="node2" class="node">
<title>Node2</title>
<g id="a_node2"><a xlink:href="classlocomotor_1_1components_1_1types_1_1_c_float.html#a871921d9d041c5c7993927dde6332e2c" target="_top" xlink:title="locomotor.components.types.\lCFloat.compare">
<polygon fill="#ffffff" stroke="#000000" points="70.8916,-319.5 70.8916,-347.5 216.9648,-347.5 216.9648,-319.5 70.8916,-319.5"/>
<text text-anchor="start" x="78.8916" y="-335.5" font-family="Helvetica,sans-Serif" font-size="10.00" fill="#000000">locomotor.components.types.</text>
<text text-anchor="middle" x="143.9282" y="-325.5" font-family="Helvetica,sans-Serif" font-size="10.00" fill="#000000">CFloat.compare</text>
</a>
</g>
</g>
<!-- Node1&#45;&gt;Node2 -->
<g id="edge1" class="edge">
<title>Node1&#45;&gt;Node2</title>
<path fill="none" stroke="#191970" d="M19.9854,-197.6264C24.7861,-226.2182 37.8578,-279.9974 70.8916,-310.5 74.603,-313.927 78.8219,-316.8434 83.3158,-319.3253"/>
<polygon fill="#191970" stroke="#191970" points="23.4382,-197.0501 18.4835,-187.6851 16.5167,-198.0958 23.4382,-197.0501"/>
</g>
<!-- Node3 -->
<g id="node3" class="node">
<title>Node3</title>
<g id="a_node3"><a xlink:href="classlocomotor_1_1components_1_1types_1_1_c_integer.html#a535607ef73128c96e7b4c3831a537c15" target="_top" xlink:title="locomotor.components.types.\lCInteger.compare">
<polygon fill="#ffffff" stroke="#000000" points="70.8916,-272.5 70.8916,-300.5 216.9648,-300.5 216.9648,-272.5 70.8916,-272.5"/>
<text text-anchor="start" x="78.8916" y="-288.5" font-family="Helvetica,sans-Serif" font-size="10.00" fill="#000000">locomotor.components.types.</text>
<text text-anchor="middle" x="143.9282" y="-278.5" font-family="Helvetica,sans-Serif" font-size="10.00" fill="#000000">CInteger.compare</text>
</a>
</g>
</g>
<!-- Node1&#45;&gt;Node3 -->
<g id="edge2" class="edge">
<title>Node1&#45;&gt;Node3</title>
<path fill="none" stroke="#191970" d="M24.5995,-197.1852C32.9107,-216.484 48.4194,-246.1568 70.8916,-263.5 75.417,-266.9925 80.4827,-269.9607 85.7796,-272.4821"/>
<polygon fill="#191970" stroke="#191970" points="27.7391,-195.6149 20.7241,-187.6751 21.2566,-198.2566 27.7391,-195.6149"/>
</g>
<!-- Node4 -->
<g id="node4" class="node">
<title>Node4</title>
<g id="a_node4"><a xlink:href="classlocomotor_1_1components_1_1types_1_1_c_interval.html#afd960ea0d74219e2fa2bdc51004d05ba" target="_top" xlink:title="CInterval">
<polygon fill="#ffffff" stroke="#000000" points="115.9209,-235.5 115.9209,-253.5 171.9355,-253.5 171.9355,-235.5 115.9209,-235.5"/>
<text text-anchor="middle" x="143.9282" y="-241.5" font-family="Helvetica,sans-Serif" font-size="10.00" fill="#000000">CInterval</text>
</a>
</g>
</g>
<!-- Node1&#45;&gt;Node4 -->
<g id="edge3" class="edge">
<title>Node1&#45;&gt;Node4</title>
<path fill="none" stroke="#191970" d="M31.9014,-195.1467C41.8635,-205.6178 55.9584,-218.5979 70.8916,-226.5 84.7431,-233.8297 101.6569,-238.2428 115.7186,-240.8632"/>
<polygon fill="#191970" stroke="#191970" points="34.474,-192.7734 25.1435,-187.7541 29.3074,-197.4965 34.474,-192.7734"/>
</g>
<!-- Node6 -->
<g id="node6" class="node">
<title>Node6</title>
<g id="a_node6"><a xlink:href="classlocomotor_1_1components_1_1types_1_1_c_interval_double.html#a871921d9d041c5c7993927dde6332e2c" target="_top" xlink:title="locomotor.components.types.\lCIntervalDouble.compare">
<polygon fill="#ffffff" stroke="#000000" points="70.8916,-188.5 70.8916,-216.5 216.9648,-216.5 216.9648,-188.5 70.8916,-188.5"/>
<text text-anchor="start" x="78.8916" y="-204.5" font-family="Helvetica,sans-Serif" font-size="10.00" fill="#000000">locomotor.components.types.</text>
<text text-anchor="middle" x="143.9282" y="-194.5" font-family="Helvetica,sans-Serif" font-size="10.00" fill="#000000">CIntervalDouble.compare</text>
</a>
</g>
</g>
<!-- Node1&#45;&gt;Node6 -->
<g id="edge5" class="edge">
<title>Node1&#45;&gt;Node6</title>
<path fill="none" stroke="#191970" d="M44.8827,-183.7061C52.6486,-185.1797 61.4887,-186.8571 70.6161,-188.589"/>
<polygon fill="#191970" stroke="#191970" points="45.5098,-180.2628 35.0326,-181.8371 44.2048,-187.1401 45.5098,-180.2628"/>
</g>
<!-- Node7 -->
<g id="node7" class="node">
<title>Node7</title>
<g id="a_node7"><a xlink:href="classlocomotor_1_1components_1_1types_1_1_c_interval_double.html#a05b10f1076a88b090171dc5c92d1e51a" target="_top" xlink:title="locomotor.components.types.\lCIntervalDouble.fromJSON">
<polygon fill="#ffffff" stroke="#000000" points="70.8916,-141.5 70.8916,-169.5 216.9648,-169.5 216.9648,-141.5 70.8916,-141.5"/>
<text text-anchor="start" x="78.8916" y="-157.5" font-family="Helvetica,sans-Serif" font-size="10.00" fill="#000000">locomotor.components.types.</text>
<text text-anchor="middle" x="143.9282" y="-147.5" font-family="Helvetica,sans-Serif" font-size="10.00" fill="#000000">CIntervalDouble.fromJSON</text>
</a>
</g>
</g>
<!-- Node1&#45;&gt;Node7 -->
<g id="edge6" class="edge">
<title>Node1&#45;&gt;Node7</title>
<path fill="none" stroke="#191970" d="M44.8827,-173.5108C52.6486,-172.0986 61.4887,-170.4911 70.6161,-168.8313"/>
<polygon fill="#191970" stroke="#191970" points="44.2451,-170.0692 35.0326,-175.3019 45.4975,-176.9563 44.2451,-170.0692"/>
</g>
<!-- Node18 -->
<g id="node18" class="node">
<title>Node18</title>
<g id="a_node18"><a xlink:href="classlocomotor_1_1components_1_1types_1_1_c_interval_integer.html#a535607ef73128c96e7b4c3831a537c15" target="_top" xlink:title="locomotor.components.types.\lCIntervalInteger.compare">
<polygon fill="#ffffff" stroke="#000000" points="70.8916,-47.5 70.8916,-75.5 216.9648,-75.5 216.9648,-47.5 70.8916,-47.5"/>
<text text-anchor="start" x="78.8916" y="-63.5" font-family="Helvetica,sans-Serif" font-size="10.00" fill="#000000">locomotor.components.types.</text>
<text text-anchor="middle" x="143.9282" y="-53.5" font-family="Helvetica,sans-Serif" font-size="10.00" fill="#000000">CIntervalInteger.compare</text>
</a>
</g>
</g>
<!-- Node1&#45;&gt;Node18 -->
<g id="edge18" class="edge">
<title>Node1&#45;&gt;Node18</title>
<path fill="none" stroke="#191970" d="M23.6022,-159.6787C31.3966,-138.6915 46.7889,-105.1245 70.8916,-85.5 75.6527,-81.6235 81.0609,-78.3652 86.73,-75.6282"/>
<polygon fill="#191970" stroke="#191970" points="20.2115,-158.7717 20.2128,-169.3665 26.8188,-161.0833 20.2115,-158.7717"/>
</g>
<!-- Node19 -->
<g id="node19" class="node">
<title>Node19</title>
<g id="a_node19"><a xlink:href="classlocomotor_1_1components_1_1types_1_1_c_interval_integer.html#a7325219bbe286c1651eac4d7cb1dcf89" target="_top" xlink:title="locomotor.components.types.\lCIntervalInteger.fromJSON">
<polygon fill="#ffffff" stroke="#000000" points="70.8916,-94.5 70.8916,-122.5 216.9648,-122.5 216.9648,-94.5 70.8916,-94.5"/>
<text text-anchor="start" x="78.8916" y="-110.5" font-family="Helvetica,sans-Serif" font-size="10.00" fill="#000000">locomotor.components.types.</text>
<text text-anchor="middle" x="143.9282" y="-100.5" font-family="Helvetica,sans-Serif" font-size="10.00" fill="#000000">CIntervalInteger.fromJSON</text>
</a>
</g>
</g>
<!-- Node1&#45;&gt;Node19 -->
<g id="edge19" class="edge">
<title>Node1&#45;&gt;Node19</title>
<path fill="none" stroke="#191970" d="M33.2448,-161.9455C43.2625,-152.2438 56.9287,-140.3851 70.8916,-132.5 77.6323,-128.6934 85.0676,-125.3797 92.5368,-122.531"/>
<polygon fill="#191970" stroke="#191970" points="30.6444,-159.5964 26.057,-169.1466 35.5987,-164.5416 30.6444,-159.5964"/>
</g>
<!-- Node20 -->
<g id="node20" class="node">
<title>Node20</title>
<g id="a_node20"><a xlink:href="classlocomotor_1_1components_1_1types_1_1_type_factory.html#a39ed3e5526f1adf859a3e8cf86ee8302" target="_top" xlink:title="locomotor.components.types.\lTypeFactory.getItem">
<polygon fill="#ffffff" stroke="#000000" points="70.8916,-.5 70.8916,-28.5 216.9648,-28.5 216.9648,-.5 70.8916,-.5"/>
<text text-anchor="start" x="78.8916" y="-16.5" font-family="Helvetica,sans-Serif" font-size="10.00" fill="#000000">locomotor.components.types.</text>
<text text-anchor="middle" x="143.9282" y="-6.5" font-family="Helvetica,sans-Serif" font-size="10.00" fill="#000000">TypeFactory.getItem</text>
</a>
</g>
</g>
<!-- Node1&#45;&gt;Node20 -->
<g id="edge22" class="edge">
<title>Node1&#45;&gt;Node20</title>
<path fill="none" stroke="#191970" d="M19.5622,-159.1277C23.8581,-129.1275 36.3375,-71.4606 70.8916,-38.5 74.9479,-34.6308 79.6391,-31.3851 84.6477,-28.6626"/>
<polygon fill="#191970" stroke="#191970" points="16.0757,-158.8003 18.2874,-169.1617 23.0199,-159.6826 16.0757,-158.8003"/>
</g>
<!-- Node5 -->
<g id="node5" class="node">
<title>Node5</title>
<g id="a_node5"><a xlink:href="classlocomotor_1_1components_1_1types_1_1_c_interval.html#ad295ddcb564ccdce4ae93f54dded98ff" target="_top" xlink:title="equals">
<polygon fill="#ffffff" stroke="#000000" points="305.665,-235.5 305.665,-253.5 351.1328,-253.5 351.1328,-235.5 305.665,-235.5"/>
<text text-anchor="middle" x="328.3989" y="-241.5" font-family="Helvetica,sans-Serif" font-size="10.00" fill="#000000">equals</text>
</a>
</g>
</g>
<!-- Node4&#45;&gt;Node5 -->
<g id="edge4" class="edge">
<title>Node4&#45;&gt;Node5</title>
<path fill="none" stroke="#191970" d="M182.414,-244.5C219.6771,-244.5 274.9174,-244.5 305.6564,-244.5"/>
<polygon fill="#191970" stroke="#191970" points="181.9454,-241.0001 171.9454,-244.5 181.9453,-248.0001 181.9454,-241.0001"/>
</g>
<!-- Node8 -->
<g id="node8" class="node">
<title>Node8</title>
<g id="a_node8"><a xlink:href="classlocomotor_1_1components_1_1types_1_1_type_factory.html#a8827604831ff8a1764b7639c82820497" target="_top" xlink:title="locomotor.components.types.\lTypeFactory.getItemFromJson">
<polygon fill="#ffffff" stroke="#000000" points="252.9648,-94.5 252.9648,-122.5 403.833,-122.5 403.833,-94.5 252.9648,-94.5"/>
<text text-anchor="start" x="260.9648" y="-110.5" font-family="Helvetica,sans-Serif" font-size="10.00" fill="#000000">locomotor.components.types.</text>
<text text-anchor="middle" x="328.3989" y="-100.5" font-family="Helvetica,sans-Serif" font-size="10.00" fill="#000000">TypeFactory.getItemFromJson</text>
</a>
</g>
</g>
<!-- Node7&#45;&gt;Node8 -->
<g id="edge7" class="edge">
<title>Node7&#45;&gt;Node8</title>
<path fill="none" stroke="#191970" d="M209.0894,-138.898C230.1126,-133.5417 253.1949,-127.6607 273.4088,-122.5106"/>
<polygon fill="#191970" stroke="#191970" points="208.1018,-135.5378 199.2755,-141.3985 209.8301,-142.3211 208.1018,-135.5378"/>
</g>
<!-- Node14 -->
<g id="node14" class="node">
<title>Node14</title>
<g id="a_node14"><a xlink:href="classlocomotor_1_1components_1_1types_1_1_type_factory.html#a1a64701bf13afa82b6b32bf422a171e2" target="_top" xlink:title="locomotor.components.types.\lTypeFactory.getUser">
<polygon fill="#ffffff" stroke="#000000" points="255.3623,-141.5 255.3623,-169.5 401.4355,-169.5 401.4355,-141.5 255.3623,-141.5"/>
<text text-anchor="start" x="263.3623" y="-157.5" font-family="Helvetica,sans-Serif" font-size="10.00" fill="#000000">locomotor.components.types.</text>
<text text-anchor="middle" x="328.3989" y="-147.5" font-family="Helvetica,sans-Serif" font-size="10.00" fill="#000000">TypeFactory.getUser</text>
</a>
</g>
</g>
<!-- Node7&#45;&gt;Node14 -->
<g id="edge13" class="edge">
<title>Node7&#45;&gt;Node14</title>
<path fill="none" stroke="#191970" d="M227.2068,-155.5C236.5823,-155.5 246.0825,-155.5 255.3148,-155.5"/>
<polygon fill="#191970" stroke="#191970" points="227.1009,-152.0001 217.1009,-155.5 227.1008,-159.0001 227.1009,-152.0001"/>
</g>
<!-- Node9 -->
<g id="node9" class="node">
<title>Node9</title>
<g id="a_node9"><a xlink:href="classlocomotor_1_1components_1_1models_1_1_item_criteria_full.html#a436730a3499b6d7b1d0359e12aa2f04a" target="_top" xlink:title="locomotor.components.models.\lItemCriteriaFull.fromJSON">
<polygon fill="#ffffff" stroke="#000000" points="439.833,-94.5 439.833,-122.5 594.2412,-122.5 594.2412,-94.5 439.833,-94.5"/>
<text text-anchor="start" x="447.833" y="-110.5" font-family="Helvetica,sans-Serif" font-size="10.00" fill="#000000">locomotor.components.models.</text>
<text text-anchor="middle" x="517.0371" y="-100.5" font-family="Helvetica,sans-Serif" font-size="10.00" fill="#000000">ItemCriteriaFull.fromJSON</text>
</a>
</g>
</g>
<!-- Node8&#45;&gt;Node9 -->
<g id="edge8" class="edge">
<title>Node8&#45;&gt;Node9</title>
<path fill="none" stroke="#191970" d="M414.2532,-108.5C422.6794,-108.5 431.1964,-108.5 439.5324,-108.5"/>
<polygon fill="#191970" stroke="#191970" points="414.0384,-105.0001 404.0384,-108.5 414.0383,-112.0001 414.0384,-105.0001"/>
</g>
<!-- Node10 -->
<g id="node10" class="node">
<title>Node10</title>
<g id="a_node10"><a xlink:href="classlocomotor_1_1components_1_1models_1_1_item_category_full.html#a50ab7c0f8e4a65f80ca141f1fa1c7df8" target="_top" xlink:title="locomotor.components.models.\lItemCategoryFull.fromJSON">
<polygon fill="#ffffff" stroke="#000000" points="630.2412,-94.5 630.2412,-122.5 784.6494,-122.5 784.6494,-94.5 630.2412,-94.5"/>
<text text-anchor="start" x="638.2412" y="-110.5" font-family="Helvetica,sans-Serif" font-size="10.00" fill="#000000">locomotor.components.models.</text>
<text text-anchor="middle" x="707.4453" y="-100.5" font-family="Helvetica,sans-Serif" font-size="10.00" fill="#000000">ItemCategoryFull.fromJSON</text>
</a>
</g>
</g>
<!-- Node9&#45;&gt;Node10 -->
<g id="edge9" class="edge">
<title>Node9&#45;&gt;Node10</title>
<path fill="none" stroke="#191970" d="M604.7375,-108.5C613.1911,-108.5 621.7241,-108.5 630.0676,-108.5"/>
<polygon fill="#191970" stroke="#191970" points="604.4834,-105.0001 594.4834,-108.5 604.4834,-112.0001 604.4834,-105.0001"/>
</g>
<!-- Node11 -->
<g id="node11" class="node">
<title>Node11</title>
<g id="a_node11"><a xlink:href="classlocomotor_1_1components_1_1models_1_1_item_full.html#afe56c5f49cb59d04ec69bbf32b58a2f8" target="_top" xlink:title="locomotor.components.models.\lItemFull.fromJSON">
<polygon fill="#ffffff" stroke="#000000" points="820.6494,-94.5 820.6494,-122.5 975.0576,-122.5 975.0576,-94.5 820.6494,-94.5"/>
<text text-anchor="start" x="828.6494" y="-110.5" font-family="Helvetica,sans-Serif" font-size="10.00" fill="#000000">locomotor.components.models.</text>
<text text-anchor="middle" x="897.8535" y="-100.5" font-family="Helvetica,sans-Serif" font-size="10.00" fill="#000000">ItemFull.fromJSON</text>
</a>
</g>
</g>
<!-- Node10&#45;&gt;Node11 -->
<g id="edge10" class="edge">
<title>Node10&#45;&gt;Node11</title>
<path fill="none" stroke="#191970" d="M795.1457,-108.5C803.5993,-108.5 812.1323,-108.5 820.4758,-108.5"/>
<polygon fill="#191970" stroke="#191970" points="794.8917,-105.0001 784.8916,-108.5 794.8916,-112.0001 794.8917,-105.0001"/>
</g>
<!-- Node12 -->
<g id="node12" class="node">
<title>Node12</title>
<g id="a_node12"><a xlink:href="classlocomotor_1_1components_1_1network_1_1_a_p_i.html#a547463fbc7fb7b485886f0917e2c0b78" target="_top" xlink:title="locomotor.components.network.\lAPI.createHooks">
<polygon fill="#ffffff" stroke="#000000" points="1011.0576,-117.5 1011.0576,-145.5 1168.2441,-145.5 1168.2441,-117.5 1011.0576,-117.5"/>
<text text-anchor="start" x="1019.0576" y="-133.5" font-family="Helvetica,sans-Serif" font-size="10.00" fill="#000000">locomotor.components.network.</text>
<text text-anchor="middle" x="1089.6509" y="-123.5" font-family="Helvetica,sans-Serif" font-size="10.00" fill="#000000">API.createHooks</text>
</a>
</g>
</g>
<!-- Node11&#45;&gt;Node12 -->
<g id="edge11" class="edge">
<title>Node11&#45;&gt;Node12</title>
<path fill="none" stroke="#191970" d="M985.2991,-118.9863C993.8561,-120.0125 1002.5036,-121.0494 1010.9661,-122.0643"/>
<polygon fill="#191970" stroke="#191970" points="985.6576,-115.5043 975.312,-117.7887 984.8241,-122.4545 985.6576,-115.5043"/>
</g>
<!-- Node13 -->
<g id="node13" class="node">
<title>Node13</title>
<g id="a_node13"><a xlink:href="classlocomotor_1_1core_1_1_main.html#a8b260eecbaabcef8473fd87ada040682" target="_top" xlink:title="locomotor.core.Main.main">
<polygon fill="#ffffff" stroke="#000000" points="1204.2441,-122.5 1204.2441,-140.5 1334.7412,-140.5 1334.7412,-122.5 1204.2441,-122.5"/>
<text text-anchor="middle" x="1269.4927" y="-128.5" font-family="Helvetica,sans-Serif" font-size="10.00" fill="#000000">locomotor.core.Main.main</text>
</a>
</g>
</g>
<!-- Node12&#45;&gt;Node13 -->
<g id="edge12" class="edge">
<title>Node12&#45;&gt;Node13</title>
<path fill="none" stroke="#191970" d="M1178.4439,-131.5C1187.1322,-131.5 1195.8345,-131.5 1204.2264,-131.5"/>
<polygon fill="#191970" stroke="#191970" points="1178.2705,-128.0001 1168.2705,-131.5 1178.2705,-135.0001 1178.2705,-128.0001"/>
</g>
<!-- Node15 -->
<g id="node15" class="node">
<title>Node15</title>
<g id="a_node15"><a xlink:href="classlocomotor_1_1components_1_1models_1_1_user_criteria.html#aaca1c5ec640a1453943ce97d40e12a63" target="_top" xlink:title="locomotor.components.models.\lUserCriteria.fromJSON">
<polygon fill="#ffffff" stroke="#000000" points="439.833,-141.5 439.833,-169.5 594.2412,-169.5 594.2412,-141.5 439.833,-141.5"/>
<text text-anchor="start" x="447.833" y="-157.5" font-family="Helvetica,sans-Serif" font-size="10.00" fill="#000000">locomotor.components.models.</text>
<text text-anchor="middle" x="517.0371" y="-147.5" font-family="Helvetica,sans-Serif" font-size="10.00" fill="#000000">UserCriteria.fromJSON</text>
</a>
</g>
</g>
<!-- Node14&#45;&gt;Node15 -->
<g id="edge14" class="edge">
<title>Node14&#45;&gt;Node15</title>
<path fill="none" stroke="#191970" d="M411.6804,-155.5C421.0385,-155.5 430.5435,-155.5 439.8202,-155.5"/>
<polygon fill="#191970" stroke="#191970" points="411.6014,-152.0001 401.6014,-155.5 411.6013,-159.0001 411.6014,-152.0001"/>
</g>
<!-- Node16 -->
<g id="node16" class="node">
<title>Node16</title>
<g id="a_node16"><a xlink:href="classlocomotor_1_1components_1_1models_1_1_user_category.html#a52e02970889790bace019e61fb256ff0" target="_top" xlink:title="locomotor.components.models.\lUserCategory.fromJSON">
<polygon fill="#ffffff" stroke="#000000" points="630.2412,-141.5 630.2412,-169.5 784.6494,-169.5 784.6494,-141.5 630.2412,-141.5"/>
<text text-anchor="start" x="638.2412" y="-157.5" font-family="Helvetica,sans-Serif" font-size="10.00" fill="#000000">locomotor.components.models.</text>
<text text-anchor="middle" x="707.4453" y="-147.5" font-family="Helvetica,sans-Serif" font-size="10.00" fill="#000000">UserCategory.fromJSON</text>
</a>
</g>
</g>
<!-- Node15&#45;&gt;Node16 -->
<g id="edge15" class="edge">
<title>Node15&#45;&gt;Node16</title>
<path fill="none" stroke="#191970" d="M604.7375,-155.5C613.1911,-155.5 621.7241,-155.5 630.0676,-155.5"/>
<polygon fill="#191970" stroke="#191970" points="604.4834,-152.0001 594.4834,-155.5 604.4834,-159.0001 604.4834,-152.0001"/>
</g>
<!-- Node17 -->
<g id="node17" class="node">
<title>Node17</title>
<g id="a_node17"><a xlink:href="classlocomotor_1_1components_1_1models_1_1_user_item.html#ab97f79cf43a9a73bcd77cec6b449a79a" target="_top" xlink:title="locomotor.components.models.\lUserItem.fromJSON">
<polygon fill="#ffffff" stroke="#000000" points="820.6494,-141.5 820.6494,-169.5 975.0576,-169.5 975.0576,-141.5 820.6494,-141.5"/>
<text text-anchor="start" x="828.6494" y="-157.5" font-family="Helvetica,sans-Serif" font-size="10.00" fill="#000000">locomotor.components.models.</text>
<text text-anchor="middle" x="897.8535" y="-147.5" font-family="Helvetica,sans-Serif" font-size="10.00" fill="#000000">UserItem.fromJSON</text>
</a>
</g>
</g>
<!-- Node16&#45;&gt;Node17 -->
<g id="edge16" class="edge">
<title>Node16&#45;&gt;Node17</title>
<path fill="none" stroke="#191970" d="M795.1457,-155.5C803.5993,-155.5 812.1323,-155.5 820.4758,-155.5"/>
<polygon fill="#191970" stroke="#191970" points="794.8917,-152.0001 784.8916,-155.5 794.8916,-159.0001 794.8917,-152.0001"/>
</g>
<!-- Node17&#45;&gt;Node12 -->
<g id="edge17" class="edge">
<title>Node17&#45;&gt;Node12</title>
<path fill="none" stroke="#191970" d="M985.2991,-144.5578C993.8561,-143.487 1002.5036,-142.4049 1010.9661,-141.346"/>
<polygon fill="#191970" stroke="#191970" points="984.8,-141.0928 975.312,-145.8075 985.6692,-148.0387 984.8,-141.0928"/>
</g>
<!-- Node19&#45;&gt;Node8 -->
<g id="edge20" class="edge">
<title>Node19&#45;&gt;Node8</title>
<path fill="none" stroke="#191970" d="M227.1159,-108.5C235.7039,-108.5 244.3976,-108.5 252.8952,-108.5"/>
<polygon fill="#191970" stroke="#191970" points="227.1009,-105.0001 217.1009,-108.5 227.1008,-112.0001 227.1009,-105.0001"/>
</g>
<!-- Node19&#45;&gt;Node14 -->
<g id="edge21" class="edge">
<title>Node19&#45;&gt;Node14</title>
<path fill="none" stroke="#191970" d="M209.0894,-125.102C230.1126,-130.4583 253.1949,-136.3393 273.4088,-141.4894"/>
<polygon fill="#191970" stroke="#191970" points="209.8301,-121.6789 199.2755,-122.6015 208.1018,-128.4622 209.8301,-121.6789"/>
</g>
</g>
</svg>
        <g id="navigator" transform="translate(0 0)" fill="#404254">
                <rect fill="#f2f5e9" fill-opacity="0.5" stroke="#606060" stroke-width=".5" x="0" y="0" width="60" height="60"/>
                <use id="zoomplus" xlink:href="#zoomPlus" x="17" y="9" onmousedown="handleZoom(evt,'in')"/>
                <use id="zoomminus" xlink:href="#zoomMin" x="42" y="9" onmousedown="handleZoom(evt,'out')"/>
                <use id="reset" xlink:href="#resetDef" x="30" y="36" onmousedown="handleReset()"/>
                <g id="arrowUp" xlink:href="#dirArrow" transform="translate(30 24)" onmousedown="handlePan(0,-1)">
                  <use xlink:href="#rim" fill="#404040">
                        <set attributeName="fill" to="#808080" begin="arrowUp.mouseover" end="arrowUp.mouseout"/>
                  </use>
                  <path fill="none" stroke="white" stroke-width="1.5" d="M0,-3.0v7 M-2.5,-0.5L0,-3.0L2.5,-0.5"/>
                </g>
                <g id="arrowRight" xlink:href="#dirArrow" transform="rotate(90) translate(36 -43)" onmousedown="handlePan(1,0)">
                  <use xlink:href="#rim" fill="#404040">
                        <set attributeName="fill" to="#808080" begin="arrowRight.mouseover" end="arrowRight.mouseout"/>
                  </use>
                  <path fill="none" stroke="white" stroke-width="1.5" d="M0,-3.0v7 M-2.5,-0.5L0,-3.0L2.5,-0.5"/>
                </g>
                <g id="arrowDown" xlink:href="#dirArrow" transform="rotate(180) translate(-30 -48)" onmousedown="handlePan(0,1)">
                  <use xlink:href="#rim" fill="#404040">
                        <set attributeName="fill" to="#808080" begin="arrowDown.mouseover" end="arrowDown.mouseout"/>
                  </use>
                  <path fill="none" stroke="white" stroke-width="1.5" d="M0,-3.0v7 M-2.5,-0.5L0,-3.0L2.5,-0.5"/>
                </g>
                <g id="arrowLeft" xlink:href="#dirArrow" transform="rotate(270) translate(-36 17)" onmousedown="handlePan(-1,0)">
                  <use xlink:href="#rim" fill="#404040">
                        <set attributeName="fill" to="#808080" begin="arrowLeft.mouseover" end="arrowLeft.mouseout"/>
                  </use>
                  <path fill="none" stroke="white" stroke-width="1.5" d="M0,-3.0v7 M-2.5,-0.5L0,-3.0L2.5,-0.5"/>
                </g>
        </g>
        <svg viewBox="0 0 15 15" width="100%" height="30px" preserveAspectRatio="xMaxYMin meet">
         <g id="arrow_out" transform="scale(0.3 0.3)">
          <a xlink:href="classlocomotor_1_1components_1_1types_1_1_c_interval_a63edd36c00e0027edd899384e6f168f9_icgraph_org.svg" target="_base">
           <rect id="button" ry="5" rx="5" y="6" x="6" height="38" width="38"
                fill="#f2f5e9" fill-opacity="0.5" stroke="#606060" stroke-width="1.0"/>
           <path id="arrow"
             d="M 11.500037,31.436501 C 11.940474,20.09759 22.043105,11.32322 32.158766,21.979434 L 37.068811,17.246167 C 37.068811,17.246167 37.088388,32 37.088388,32 L 22.160133,31.978069 C 22.160133,31.978069 26.997745,27.140456 26.997745,27.140456 C 18.528582,18.264221 13.291696,25.230495 11.500037,31.436501 z"
             style="fill:#404040;"/>
          </a>
         </g>
        </svg>
</svg>
