<?xml version="1.0" encoding="UTF-8" standalone="no"?>
<!DOCTYPE svg PUBLIC "-//W3C//DTD SVG 1.1//EN"
 "http://www.w3.org/Graphics/SVG/1.1/DTD/svg11.dtd">
<!-- Generated by graphviz version 2.40.1 (20161225.0304)
 -->
<!-- Title: verifyTokenSignature Pages: 1 -->
<svg width="498pt" height="84pt"
 viewBox="0.00 0.00 498.23 84.00" xmlns="http://www.w3.org/2000/svg" xmlns:xlink="http://www.w3.org/1999/xlink">
<g id="graph0" class="graph" transform="scale(1 1) rotate(0) translate(4 80)">
<title>verifyTokenSignature</title>
<polygon fill="#ffffff" stroke="transparent" points="-4,4 -4,-80 494.2295,-80 494.2295,4 -4,4"/>
<!-- Node1 -->
<g id="node1" class="node">
<title>Node1</title>
<polygon fill="#bfbfbf" stroke="#000000" points="0,-28.5 0,-46.5 109.3838,-46.5 109.3838,-28.5 0,-28.5"/>
<text text-anchor="middle" x="54.6919" y="-34.5" font-family="Helvetica,sans-Serif" font-size="10.00" fill="#000000">verifyTokenSignature</text>
</g>
<!-- Node2 -->
<g id="node2" class="node">
<title>Node2</title>
<g id="a_node2"><a xlink:href="classlocomotor_1_1components_1_1logging_1_1_error_handler.html#a75e8f6535bdb8db9a7d570e1b839af47" target="_top" xlink:title="locomotor.components.logging.\lErrorHandler.getInstance">
<polygon fill="#ffffff" stroke="#000000" points="145.3838,-47.5 145.3838,-75.5 299.8066,-75.5 299.8066,-47.5 145.3838,-47.5"/>
<text text-anchor="start" x="153.3838" y="-63.5" font-family="Helvetica,sans-Serif" font-size="10.00" fill="#000000">locomotor.components.logging.</text>
<text text-anchor="middle" x="222.5952" y="-53.5" font-family="Helvetica,sans-Serif" font-size="10.00" fill="#000000">ErrorHandler.getInstance</text>
</a>
</g>
</g>
<!-- Node1&#45;&gt;Node2 -->
<g id="edge1" class="edge">
<title>Node1&#45;&gt;Node2</title>
<path fill="none" stroke="#191970" d="M109.6697,-45.3585C117.8499,-46.5278 126.4485,-47.7568 135.0973,-48.9931"/>
<polygon fill="#191970" stroke="#191970" points="134.8566,-52.4942 145.2513,-50.4445 135.8472,-45.5646 134.8566,-52.4942"/>
</g>
<!-- Node3 -->
<g id="node3" class="node">
<title>Node3</title>
<g id="a_node3"><a xlink:href="classlocomotor_1_1components_1_1logging_1_1_error_handler.html#abd00a9c37627740763cef91d76a77437" target="_top" xlink:title="locomotor.components.logging.\lErrorHandler.push">
<polygon fill="#ffffff" stroke="#000000" points="145.3838,-.5 145.3838,-28.5 299.8066,-28.5 299.8066,-.5 145.3838,-.5"/>
<text text-anchor="start" x="153.3838" y="-16.5" font-family="Helvetica,sans-Serif" font-size="10.00" fill="#000000">locomotor.components.logging.</text>
<text text-anchor="middle" x="222.5952" y="-6.5" font-family="Helvetica,sans-Serif" font-size="10.00" fill="#000000">ErrorHandler.push</text>
</a>
</g>
</g>
<!-- Node1&#45;&gt;Node3 -->
<g id="edge2" class="edge">
<title>Node1&#45;&gt;Node3</title>
<path fill="none" stroke="#191970" d="M109.6697,-29.9689C117.8499,-28.8484 126.4485,-27.6705 135.0973,-26.4858"/>
<polygon fill="#191970" stroke="#191970" points="135.8188,-29.9197 145.2513,-25.0949 134.8688,-22.9845 135.8188,-29.9197"/>
</g>
<!-- Node4 -->
<g id="node4" class="node">
<title>Node4</title>
<g id="a_node4"><a xlink:href="classlocomotor_1_1components_1_1logging_1_1_error_context.html#afcf30b71bfc65c74878c7ab77c951842" target="_top" xlink:title="locomotor.components.logging.\lErrorContext.push">
<polygon fill="#ffffff" stroke="#000000" points="335.8066,-.5 335.8066,-28.5 490.2295,-28.5 490.2295,-.5 335.8066,-.5"/>
<text text-anchor="start" x="343.8066" y="-16.5" font-family="Helvetica,sans-Serif" font-size="10.00" fill="#000000">locomotor.components.logging.</text>
<text text-anchor="middle" x="413.0181" y="-6.5" font-family="Helvetica,sans-Serif" font-size="10.00" fill="#000000">ErrorContext.push</text>
</a>
</g>
</g>
<!-- Node3&#45;&gt;Node4 -->
<g id="edge3" class="edge">
<title>Node3&#45;&gt;Node4</title>
<path fill="none" stroke="#191970" d="M300.0475,-14.5C308.3927,-14.5 316.9267,-14.5 325.3805,-14.5"/>
<polygon fill="#191970" stroke="#191970" points="325.6345,-18.0001 335.6344,-14.5 325.6344,-11.0001 325.6345,-18.0001"/>
</g>
</g>
</svg>
