<?xml version="1.0" encoding="UTF-8" standalone="no"?>
<!DOCTYPE svg PUBLIC "-//W3C//DTD SVG 1.1//EN"
 "http://www.w3.org/Graphics/SVG/1.1/DTD/svg11.dtd">
<!-- Generated by graphviz version 2.40.1 (20161225.0304)
 -->
<!-- Title: getItem Pages: 1 -->
<!--zoomable 272 -->
<svg id="main" version="1.1" xmlns="http://www.w3.org/2000/svg" xmlns:xlink="http://www.w3.org/1999/xlink" xml:space="preserve" onload="init(evt)">
<style type="text/css"><![CDATA[
.edge:hover path { stroke: red; }
.edge:hover polygon { stroke: red; fill: red; }
]]></style>
<script type="text/javascript"><![CDATA[
var edges = document.getElementsByTagName('g');
if (edges && edges.length) {
  for (var i=0;i<edges.length;i++) {
    if (edges[i].id.substr(0,4)=='edge') {
      edges[i].setAttribute('class','edge');
    }
  }
}
]]></script>
        <defs>
                <circle id="rim" cx="0" cy="0" r="7"/>
                <circle id="rim2" cx="0" cy="0" r="3.5"/>
                <g id="zoomPlus">
                        <use xlink:href="#rim" fill="#404040">
                                <set attributeName="fill" to="#808080" begin="zoomplus.mouseover" end="zoomplus.mouseout"/>
                        </use>
                        <path d="M-4,0h8M0,-4v8" fill="none" stroke="white" stroke-width="1.5" pointer-events="none"/>
                </g>
                <g id="zoomMin">
                        <use xlink:href="#rim" fill="#404040">
                                <set attributeName="fill" to="#808080" begin="zoomminus.mouseover" end="zoomminus.mouseout"/>
                        </use>
                        <path d="M-4,0h8" fill="none" stroke="white" stroke-width="1.5" pointer-events="none"/>
                </g>
                <g id="dirArrow">
                        <path fill="none" stroke="white" stroke-width="1.5" d="M0,-3.0v7 M-2.5,-0.5L0,-3.0L2.5,-0.5"/>
                </g>
               <g id="resetDef">
                       <use xlink:href="#rim2" fill="#404040">
                               <set attributeName="fill" to="#808080" begin="reset.mouseover" end="reset.mouseout"/>
                       </use>
               </g>
        </defs>

<script type="text/javascript">
var viewWidth = 802;
var viewHeight = 272;
var sectionId = 'dynsection-39';
</script>
<script xlink:href="svgpan.js"/>
<svg id="graph" class="graph">
<g id="viewport">
<title>getItem</title>
<polygon fill="#ffffff" stroke="transparent" points="-4,4 -4,-268 798.3418,-268 798.3418,4 -4,4"/>
<!-- Node1 -->
<g id="node1" class="node">
<title>Node1</title>
<polygon fill="#bfbfbf" stroke="#000000" points="0,-122.5 0,-140.5 49.3496,-140.5 49.3496,-122.5 0,-122.5"/>
<text text-anchor="middle" x="24.6748" y="-128.5" font-family="Helvetica,sans-Serif" font-size="10.00" fill="#000000">getItem</text>
</g>
<!-- Node2 -->
<g id="node2" class="node">
<title>Node2</title>
<g id="a_node2"><a xlink:href="classlocomotor_1_1components_1_1logging_1_1_error_handler.html#a75e8f6535bdb8db9a7d570e1b839af47" target="_top" xlink:title="locomotor.components.logging.\lErrorHandler.getInstance">
<polygon fill="#ffffff" stroke="#000000" points="85.3496,-235.5 85.3496,-263.5 239.7725,-263.5 239.7725,-235.5 85.3496,-235.5"/>
<text text-anchor="start" x="93.3496" y="-251.5" font-family="Helvetica,sans-Serif" font-size="10.00" fill="#000000">locomotor.components.logging.</text>
<text text-anchor="middle" x="162.561" y="-241.5" font-family="Helvetica,sans-Serif" font-size="10.00" fill="#000000">ErrorHandler.getInstance</text>
</a>
</g>
</g>
<!-- Node1&#45;&gt;Node2 -->
<g id="edge1" class="edge">
<title>Node1&#45;&gt;Node2</title>
<path fill="none" stroke="#191970" d="M27.9521,-140.614C35.2293,-159.5458 54.5645,-203.2924 85.3496,-226.5 87.2099,-227.9024 89.155,-229.2197 91.1659,-230.457"/>
<polygon fill="#191970" stroke="#191970" points="89.8801,-233.7391 100.3463,-235.3855 93.1912,-227.5717 89.8801,-233.7391"/>
</g>
<!-- Node3 -->
<g id="node3" class="node">
<title>Node3</title>
<g id="a_node3"><a xlink:href="classlocomotor_1_1components_1_1logging_1_1_error_handler.html#abd00a9c37627740763cef91d76a77437" target="_top" xlink:title="locomotor.components.logging.\lErrorHandler.push">
<polygon fill="#ffffff" stroke="#000000" points="85.3496,-188.5 85.3496,-216.5 239.7725,-216.5 239.7725,-188.5 85.3496,-188.5"/>
<text text-anchor="start" x="93.3496" y="-204.5" font-family="Helvetica,sans-Serif" font-size="10.00" fill="#000000">locomotor.components.logging.</text>
<text text-anchor="middle" x="162.561" y="-194.5" font-family="Helvetica,sans-Serif" font-size="10.00" fill="#000000">ErrorHandler.push</text>
</a>
</g>
</g>
<!-- Node1&#45;&gt;Node3 -->
<g id="edge2" class="edge">
<title>Node1&#45;&gt;Node3</title>
<path fill="none" stroke="#191970" d="M33.7573,-140.5457C44.9814,-151.2568 65.09,-168.968 85.3496,-179.5 89.0494,-181.4233 92.9346,-183.2106 96.9118,-184.8675"/>
<polygon fill="#191970" stroke="#191970" points="95.7257,-188.1613 106.3151,-188.4994 98.2478,-181.6314 95.7257,-188.1613"/>
</g>
<!-- Node5 -->
<g id="node5" class="node">
<title>Node5</title>
<g id="a_node5"><a xlink:href="classlocomotor_1_1components_1_1models_1_1_criteria_model.html#a78ee178b6a73658d65ca60da4d1e6683" target="_top" xlink:title="locomotor.components.models.\lCriteriaModel.getName">
<polygon fill="#ffffff" stroke="#000000" points="85.3569,-141.5 85.3569,-169.5 239.7651,-169.5 239.7651,-141.5 85.3569,-141.5"/>
<text text-anchor="start" x="93.3569" y="-157.5" font-family="Helvetica,sans-Serif" font-size="10.00" fill="#000000">locomotor.components.models.</text>
<text text-anchor="middle" x="162.561" y="-147.5" font-family="Helvetica,sans-Serif" font-size="10.00" fill="#000000">CriteriaModel.getName</text>
</a>
</g>
</g>
<!-- Node1&#45;&gt;Node5 -->
<g id="edge4" class="edge">
<title>Node1&#45;&gt;Node5</title>
<path fill="none" stroke="#191970" d="M49.645,-135.8462C57.168,-137.1557 65.89,-138.6738 75.0873,-140.2746"/>
<polygon fill="#191970" stroke="#191970" points="74.7675,-143.7715 85.2195,-142.0382 75.9679,-136.8752 74.7675,-143.7715"/>
</g>
<!-- Node6 -->
<g id="node6" class="node">
<title>Node6</title>
<g id="a_node6"><a xlink:href="classlocomotor_1_1components_1_1types_1_1_type_factory.html#a5f92827e8d1d5348ebff49dc8bae4f65" target="_top" xlink:title="locomotor.components.types.\lTypeFactory.getItem">
<polygon fill="#ffffff" stroke="#000000" points="89.5244,-94.5 89.5244,-122.5 235.5977,-122.5 235.5977,-94.5 89.5244,-94.5"/>
<text text-anchor="start" x="97.5244" y="-110.5" font-family="Helvetica,sans-Serif" font-size="10.00" fill="#000000">locomotor.components.types.</text>
<text text-anchor="middle" x="162.561" y="-100.5" font-family="Helvetica,sans-Serif" font-size="10.00" fill="#000000">TypeFactory.getItem</text>
</a>
</g>
</g>
<!-- Node1&#45;&gt;Node6 -->
<g id="edge5" class="edge">
<title>Node1&#45;&gt;Node6</title>
<path fill="none" stroke="#191970" d="M49.645,-127.3349C58.32,-125.8878 68.5893,-124.1749 79.3431,-122.3811"/>
<polygon fill="#191970" stroke="#191970" points="80.0357,-125.814 89.3235,-120.7163 78.8839,-118.9094 80.0357,-125.814"/>
</g>
<!-- Node11 -->
<g id="node11" class="node">
<title>Node11</title>
<g id="a_node11"><a xlink:href="classlocomotor_1_1components_1_1models_1_1_criteria_model.html#a19fc0aeef83333878b7af08e6eb7dbea" target="_top" xlink:title="locomotor.components.models.\lCriteriaModel.getItemType">
<polygon fill="#ffffff" stroke="#000000" points="85.3569,-47.5 85.3569,-75.5 239.7651,-75.5 239.7651,-47.5 85.3569,-47.5"/>
<text text-anchor="start" x="93.3569" y="-63.5" font-family="Helvetica,sans-Serif" font-size="10.00" fill="#000000">locomotor.components.models.</text>
<text text-anchor="middle" x="162.561" y="-53.5" font-family="Helvetica,sans-Serif" font-size="10.00" fill="#000000">CriteriaModel.getItemType</text>
</a>
</g>
</g>
<!-- Node1&#45;&gt;Node11 -->
<g id="edge10" class="edge">
<title>Node1&#45;&gt;Node11</title>
<path fill="none" stroke="#191970" d="M34.195,-122.2812C45.5281,-111.7699 65.4354,-94.7235 85.3496,-84.5 89.0592,-82.5956 92.9518,-80.8228 96.9347,-79.1769"/>
<polygon fill="#191970" stroke="#191970" points="98.266,-82.4149 106.3479,-75.5641 95.7578,-75.8797 98.266,-82.4149"/>
</g>
<!-- Node12 -->
<g id="node12" class="node">
<title>Node12</title>
<g id="a_node12"><a xlink:href="classlocomotor_1_1components_1_1models_1_1_criteria_model.html#afe6cac49dd51cda8f8dfedab30c83009" target="_top" xlink:title="locomotor.components.models.\lCriteriaModel.getUniverse">
<polygon fill="#ffffff" stroke="#000000" points="85.3569,-.5 85.3569,-28.5 239.7651,-28.5 239.7651,-.5 85.3569,-.5"/>
<text text-anchor="start" x="93.3569" y="-16.5" font-family="Helvetica,sans-Serif" font-size="10.00" fill="#000000">locomotor.components.models.</text>
<text text-anchor="middle" x="162.561" y="-6.5" font-family="Helvetica,sans-Serif" font-size="10.00" fill="#000000">CriteriaModel.getUniverse</text>
</a>
</g>
</g>
<!-- Node1&#45;&gt;Node12 -->
<g id="edge11" class="edge">
<title>Node1&#45;&gt;Node12</title>
<path fill="none" stroke="#191970" d="M27.98,-122.4815C35.3097,-103.7483 54.739,-60.4608 85.3496,-37.5 87.2133,-36.1021 89.1613,-34.7887 91.1748,-33.5548"/>
<polygon fill="#191970" stroke="#191970" points="93.198,-36.4418 100.3638,-28.6378 89.8954,-30.2698 93.198,-36.4418"/>
</g>
<!-- Node4 -->
<g id="node4" class="node">
<title>Node4</title>
<g id="a_node4"><a xlink:href="classlocomotor_1_1components_1_1logging_1_1_error_context.html#afcf30b71bfc65c74878c7ab77c951842" target="_top" xlink:title="locomotor.components.logging.\lErrorContext.push">
<polygon fill="#ffffff" stroke="#000000" points="275.7725,-188.5 275.7725,-216.5 430.1953,-216.5 430.1953,-188.5 275.7725,-188.5"/>
<text text-anchor="start" x="283.7725" y="-204.5" font-family="Helvetica,sans-Serif" font-size="10.00" fill="#000000">locomotor.components.logging.</text>
<text text-anchor="middle" x="352.9839" y="-194.5" font-family="Helvetica,sans-Serif" font-size="10.00" fill="#000000">ErrorContext.push</text>
</a>
</g>
</g>
<!-- Node3&#45;&gt;Node4 -->
<g id="edge3" class="edge">
<title>Node3&#45;&gt;Node4</title>
<path fill="none" stroke="#191970" d="M240.0133,-202.5C248.3585,-202.5 256.8925,-202.5 265.3463,-202.5"/>
<polygon fill="#191970" stroke="#191970" points="265.6003,-206.0001 275.6003,-202.5 265.6002,-199.0001 265.6003,-206.0001"/>
</g>
<!-- Node7 -->
<g id="node7" class="node">
<title>Node7</title>
<g id="a_node7"><a xlink:href="classlocomotor_1_1components_1_1types_1_1_type_factory.html#aa1f74ce70c02a7665f32b4ec438a6c3c" target="_top" xlink:title="locomotor.components.types.\lTypeFactory.getTree">
<polygon fill="#ffffff" stroke="#000000" points="279.9473,-118.5 279.9473,-146.5 426.0205,-146.5 426.0205,-118.5 279.9473,-118.5"/>
<text text-anchor="start" x="287.9473" y="-134.5" font-family="Helvetica,sans-Serif" font-size="10.00" fill="#000000">locomotor.components.types.</text>
<text text-anchor="middle" x="352.9839" y="-124.5" font-family="Helvetica,sans-Serif" font-size="10.00" fill="#000000">TypeFactory.getTree</text>
</a>
</g>
</g>
<!-- Node6&#45;&gt;Node7 -->
<g id="edge6" class="edge">
<title>Node6&#45;&gt;Node7</title>
<path fill="none" stroke="#191970" d="M235.6389,-117.7104C246.8335,-119.1213 258.4604,-120.5867 269.8527,-122.0225"/>
<polygon fill="#191970" stroke="#191970" points="269.4278,-125.4966 279.787,-123.2746 270.3031,-118.5515 269.4278,-125.4966"/>
</g>
<!-- Node10 -->
<g id="node10" class="node">
<title>Node10</title>
<g id="a_node10"><a xlink:href="classlocomotor_1_1components_1_1types_1_1_c_graph_tree.html#a83eddfad98b66bd627c4b0d1cb7056ac" target="_top" xlink:title="locomotor.components.types.\lCGraphTree.getTree">
<polygon fill="#ffffff" stroke="#000000" points="279.9473,-71.5 279.9473,-99.5 426.0205,-99.5 426.0205,-71.5 279.9473,-71.5"/>
<text text-anchor="start" x="287.9473" y="-87.5" font-family="Helvetica,sans-Serif" font-size="10.00" fill="#000000">locomotor.components.types.</text>
<text text-anchor="middle" x="352.9839" y="-77.5" font-family="Helvetica,sans-Serif" font-size="10.00" fill="#000000">CGraphTree.getTree</text>
</a>
</g>
</g>
<!-- Node6&#45;&gt;Node10 -->
<g id="edge9" class="edge">
<title>Node6&#45;&gt;Node10</title>
<path fill="none" stroke="#191970" d="M235.6389,-99.6734C246.8335,-98.3212 258.4604,-96.9169 269.8527,-95.5409"/>
<polygon fill="#191970" stroke="#191970" points="270.2788,-99.015 279.787,-94.341 269.4394,-92.0655 270.2788,-99.015"/>
</g>
<!-- Node8 -->
<g id="node8" class="node">
<title>Node8</title>
<g id="a_node8"><a xlink:href="classlocomotor_1_1components_1_1types_1_1_c_tree.html#a74382cb3a3153edc32f1cfed8c4ee364" target="_top" xlink:title="locomotor.components.types.\lCTree.addChild">
<polygon fill="#ffffff" stroke="#000000" points="466.1953,-118.5 466.1953,-146.5 612.2686,-146.5 612.2686,-118.5 466.1953,-118.5"/>
<text text-anchor="start" x="474.1953" y="-134.5" font-family="Helvetica,sans-Serif" font-size="10.00" fill="#000000">locomotor.components.types.</text>
<text text-anchor="middle" x="539.2319" y="-124.5" font-family="Helvetica,sans-Serif" font-size="10.00" fill="#000000">CTree.addChild</text>
</a>
</g>
</g>
<!-- Node7&#45;&gt;Node8 -->
<g id="edge7" class="edge">
<title>Node7&#45;&gt;Node8</title>
<path fill="none" stroke="#191970" d="M426.0595,-132.5C435.8167,-132.5 445.8821,-132.5 455.7994,-132.5"/>
<polygon fill="#191970" stroke="#191970" points="456.0614,-136.0001 466.0614,-132.5 456.0613,-129.0001 456.0614,-136.0001"/>
</g>
<!-- Node9 -->
<g id="node9" class="node">
<title>Node9</title>
<g id="a_node9"><a xlink:href="classlocomotor_1_1components_1_1types_1_1_c_tree.html#af0e7a198496b1627d0ff15ce0e6de1f2" target="_top" xlink:title="locomotor.components.types.\lCTree.CTree">
<polygon fill="#ffffff" stroke="#000000" points="648.2686,-118.5 648.2686,-146.5 794.3418,-146.5 794.3418,-118.5 648.2686,-118.5"/>
<text text-anchor="start" x="656.2686" y="-134.5" font-family="Helvetica,sans-Serif" font-size="10.00" fill="#000000">locomotor.components.types.</text>
<text text-anchor="middle" x="721.3052" y="-124.5" font-family="Helvetica,sans-Serif" font-size="10.00" fill="#000000">CTree.CTree</text>
</a>
</g>
</g>
<!-- Node8&#45;&gt;Node9 -->
<g id="edge8" class="edge">
<title>Node8&#45;&gt;Node9</title>
<path fill="none" stroke="#191970" d="M612.5011,-132.5C620.861,-132.5 629.4289,-132.5 637.9078,-132.5"/>
<polygon fill="#191970" stroke="#191970" points="638.1861,-136.0001 648.186,-132.5 638.186,-129.0001 638.1861,-136.0001"/>
</g>
</g>
</svg>
        <g id="navigator" transform="translate(0 0)" fill="#404254">
                <rect fill="#f2f5e9" fill-opacity="0.5" stroke="#606060" stroke-width=".5" x="0" y="0" width="60" height="60"/>
                <use id="zoomplus" xlink:href="#zoomPlus" x="17" y="9" onmousedown="handleZoom(evt,'in')"/>
                <use id="zoomminus" xlink:href="#zoomMin" x="42" y="9" onmousedown="handleZoom(evt,'out')"/>
                <use id="reset" xlink:href="#resetDef" x="30" y="36" onmousedown="handleReset()"/>
                <g id="arrowUp" xlink:href="#dirArrow" transform="translate(30 24)" onmousedown="handlePan(0,-1)">
                  <use xlink:href="#rim" fill="#404040">
                        <set attributeName="fill" to="#808080" begin="arrowUp.mouseover" end="arrowUp.mouseout"/>
                  </use>
                  <path fill="none" stroke="white" stroke-width="1.5" d="M0,-3.0v7 M-2.5,-0.5L0,-3.0L2.5,-0.5"/>
                </g>
                <g id="arrowRight" xlink:href="#dirArrow" transform="rotate(90) translate(36 -43)" onmousedown="handlePan(1,0)">
                  <use xlink:href="#rim" fill="#404040">
                        <set attributeName="fill" to="#808080" begin="arrowRight.mouseover" end="arrowRight.mouseout"/>
                  </use>
                  <path fill="none" stroke="white" stroke-width="1.5" d="M0,-3.0v7 M-2.5,-0.5L0,-3.0L2.5,-0.5"/>
                </g>
                <g id="arrowDown" xlink:href="#dirArrow" transform="rotate(180) translate(-30 -48)" onmousedown="handlePan(0,1)">
                  <use xlink:href="#rim" fill="#404040">
                        <set attributeName="fill" to="#808080" begin="arrowDown.mouseover" end="arrowDown.mouseout"/>
                  </use>
                  <path fill="none" stroke="white" stroke-width="1.5" d="M0,-3.0v7 M-2.5,-0.5L0,-3.0L2.5,-0.5"/>
                </g>
                <g id="arrowLeft" xlink:href="#dirArrow" transform="rotate(270) translate(-36 17)" onmousedown="handlePan(-1,0)">
                  <use xlink:href="#rim" fill="#404040">
                        <set attributeName="fill" to="#808080" begin="arrowLeft.mouseover" end="arrowLeft.mouseout"/>
                  </use>
                  <path fill="none" stroke="white" stroke-width="1.5" d="M0,-3.0v7 M-2.5,-0.5L0,-3.0L2.5,-0.5"/>
                </g>
        </g>
        <svg viewBox="0 0 15 15" width="100%" height="30px" preserveAspectRatio="xMaxYMin meet">
         <g id="arrow_out" transform="scale(0.3 0.3)">
          <a xlink:href="classlocomotor_1_1core_1_1_d_b_h_ae573347d7e17b2bf2bac3c4a41caf0fa_cgraph_org.svg" target="_base">
           <rect id="button" ry="5" rx="5" y="6" x="6" height="38" width="38"
                fill="#f2f5e9" fill-opacity="0.5" stroke="#606060" stroke-width="1.0"/>
           <path id="arrow"
             d="M 11.500037,31.436501 C 11.940474,20.09759 22.043105,11.32322 32.158766,21.979434 L 37.068811,17.246167 C 37.068811,17.246167 37.088388,32 37.088388,32 L 22.160133,31.978069 C 22.160133,31.978069 26.997745,27.140456 26.997745,27.140456 C 18.528582,18.264221 13.291696,25.230495 11.500037,31.436501 z"
             style="fill:#404040;"/>
          </a>
         </g>
        </svg>
</svg>
