<?xml version="1.0" encoding="UTF-8" standalone="no"?>
<!DOCTYPE svg PUBLIC "-//W3C//DTD SVG 1.1//EN"
 "http://www.w3.org/Graphics/SVG/1.1/DTD/svg11.dtd">
<!-- Generated by graphviz version 2.40.1 (20161225.0304)
 -->
<!-- Title: ItemCriteriaFull Pages: 1 -->
<svg width="931pt" height="37pt"
 viewBox="0.00 0.00 930.96 37.00" xmlns="http://www.w3.org/2000/svg" xmlns:xlink="http://www.w3.org/1999/xlink">
<g id="graph0" class="graph" transform="scale(1 1) rotate(0) translate(4 33)">
<title>ItemCriteriaFull</title>
<polygon fill="#ffffff" stroke="transparent" points="-4,4 -4,-33 926.958,-33 926.958,4 -4,4"/>
<!-- Node1 -->
<g id="node1" class="node">
<title>Node1</title>
<polygon fill="#bfbfbf" stroke="#000000" points="0,-5.5 0,-23.5 83.7881,-23.5 83.7881,-5.5 0,-5.5"/>
<text text-anchor="middle" x="41.894" y="-11.5" font-family="Helvetica,sans-Serif" font-size="10.00" fill="#000000">ItemCriteriaFull</text>
</g>
<!-- Node2 -->
<g id="node2" class="node">
<title>Node2</title>
<g id="a_node2"><a xlink:href="classlocomotor_1_1components_1_1models_1_1_item_criteria_full.html#a436730a3499b6d7b1d0359e12aa2f04a" target="_top" xlink:title="fromJSON">
<polygon fill="#ffffff" stroke="#000000" points="119.7881,-5.5 119.7881,-23.5 182.458,-23.5 182.458,-5.5 119.7881,-5.5"/>
<text text-anchor="middle" x="151.123" y="-11.5" font-family="Helvetica,sans-Serif" font-size="10.00" fill="#000000">fromJSON</text>
</a>
</g>
</g>
<!-- Node1&#45;&gt;Node2 -->
<g id="edge1" class="edge">
<title>Node1&#45;&gt;Node2</title>
<path fill="none" stroke="#191970" d="M94.0115,-14.5C102.7794,-14.5 111.6334,-14.5 119.6669,-14.5"/>
<polygon fill="#191970" stroke="#191970" points="93.8125,-11.0001 83.8124,-14.5 93.8124,-18.0001 93.8125,-11.0001"/>
</g>
<!-- Node3 -->
<g id="node3" class="node">
<title>Node3</title>
<g id="a_node3"><a xlink:href="classlocomotor_1_1components_1_1models_1_1_item_category_full.html#a50ab7c0f8e4a65f80ca141f1fa1c7df8" target="_top" xlink:title="locomotor.components.models.\lItemCategoryFull.fromJSON">
<polygon fill="#ffffff" stroke="#000000" points="218.458,-.5 218.458,-28.5 372.8662,-28.5 372.8662,-.5 218.458,-.5"/>
<text text-anchor="start" x="226.458" y="-16.5" font-family="Helvetica,sans-Serif" font-size="10.00" fill="#000000">locomotor.components.models.</text>
<text text-anchor="middle" x="295.6621" y="-6.5" font-family="Helvetica,sans-Serif" font-size="10.00" fill="#000000">ItemCategoryFull.fromJSON</text>
</a>
</g>
</g>
<!-- Node2&#45;&gt;Node3 -->
<g id="edge2" class="edge">
<title>Node2&#45;&gt;Node3</title>
<path fill="none" stroke="#191970" d="M192.7291,-14.5C200.8315,-14.5 209.5653,-14.5 218.399,-14.5"/>
<polygon fill="#191970" stroke="#191970" points="192.4859,-11.0001 182.4859,-14.5 192.4858,-18.0001 192.4859,-11.0001"/>
</g>
<!-- Node4 -->
<g id="node4" class="node">
<title>Node4</title>
<g id="a_node4"><a xlink:href="classlocomotor_1_1components_1_1models_1_1_item_full.html#afe56c5f49cb59d04ec69bbf32b58a2f8" target="_top" xlink:title="locomotor.components.models.\lItemFull.fromJSON">
<polygon fill="#ffffff" stroke="#000000" points="408.8662,-.5 408.8662,-28.5 563.2744,-28.5 563.2744,-.5 408.8662,-.5"/>
<text text-anchor="start" x="416.8662" y="-16.5" font-family="Helvetica,sans-Serif" font-size="10.00" fill="#000000">locomotor.components.models.</text>
<text text-anchor="middle" x="486.0703" y="-6.5" font-family="Helvetica,sans-Serif" font-size="10.00" fill="#000000">ItemFull.fromJSON</text>
</a>
</g>
</g>
<!-- Node3&#45;&gt;Node4 -->
<g id="edge3" class="edge">
<title>Node3&#45;&gt;Node4</title>
<path fill="none" stroke="#191970" d="M383.3625,-14.5C391.8161,-14.5 400.3491,-14.5 408.6926,-14.5"/>
<polygon fill="#191970" stroke="#191970" points="383.1084,-11.0001 373.1084,-14.5 383.1084,-18.0001 383.1084,-11.0001"/>
</g>
<!-- Node5 -->
<g id="node5" class="node">
<title>Node5</title>
<g id="a_node5"><a xlink:href="classlocomotor_1_1components_1_1network_1_1_a_p_i.html#a547463fbc7fb7b485886f0917e2c0b78" target="_top" xlink:title="locomotor.components.network.\lAPI.createHooks">
<polygon fill="#ffffff" stroke="#000000" points="599.2744,-.5 599.2744,-28.5 756.4609,-28.5 756.4609,-.5 599.2744,-.5"/>
<text text-anchor="start" x="607.2744" y="-16.5" font-family="Helvetica,sans-Serif" font-size="10.00" fill="#000000">locomotor.components.network.</text>
<text text-anchor="middle" x="677.8677" y="-6.5" font-family="Helvetica,sans-Serif" font-size="10.00" fill="#000000">API.createHooks</text>
</a>
</g>
</g>
<!-- Node4&#45;&gt;Node5 -->
<g id="edge4" class="edge">
<title>Node4&#45;&gt;Node5</title>
<path fill="none" stroke="#191970" d="M573.795,-14.5C582.2609,-14.5 590.8123,-14.5 599.1829,-14.5"/>
<polygon fill="#191970" stroke="#191970" points="573.5288,-11.0001 563.5288,-14.5 573.5288,-18.0001 573.5288,-11.0001"/>
</g>
<!-- Node6 -->
<g id="node6" class="node">
<title>Node6</title>
<g id="a_node6"><a xlink:href="classlocomotor_1_1core_1_1_main.html#a8b260eecbaabcef8473fd87ada040682" target="_top" xlink:title="locomotor.core.Main.main">
<polygon fill="#ffffff" stroke="#000000" points="792.4609,-5.5 792.4609,-23.5 922.958,-23.5 922.958,-5.5 792.4609,-5.5"/>
<text text-anchor="middle" x="857.7095" y="-11.5" font-family="Helvetica,sans-Serif" font-size="10.00" fill="#000000">locomotor.core.Main.main</text>
</a>
</g>
</g>
<!-- Node5&#45;&gt;Node6 -->
<g id="edge5" class="edge">
<title>Node5&#45;&gt;Node6</title>
<path fill="none" stroke="#191970" d="M766.6607,-14.5C775.349,-14.5 784.0513,-14.5 792.4432,-14.5"/>
<polygon fill="#191970" stroke="#191970" points="766.4873,-11.0001 756.4873,-14.5 766.4872,-18.0001 766.4873,-11.0001"/>
</g>
</g>
</svg>
