<?xml version="1.0" encoding="UTF-8" standalone="no"?>
<!DOCTYPE svg PUBLIC "-//W3C//DTD SVG 1.1//EN"
 "http://www.w3.org/Graphics/SVG/1.1/DTD/svg11.dtd">
<!-- Generated by graphviz version 2.40.1 (20161225.0304)
 -->
<!-- Title: createEndpoint Pages: 1 -->
<svg width="451pt" height="37pt"
 viewBox="0.00 0.00 450.95 37.00" xmlns="http://www.w3.org/2000/svg" xmlns:xlink="http://www.w3.org/1999/xlink">
<g id="graph0" class="graph" transform="scale(1 1) rotate(0) translate(4 33)">
<title>createEndpoint</title>
<polygon fill="#ffffff" stroke="transparent" points="-4,4 -4,-33 446.9541,-33 446.9541,4 -4,4"/>
<!-- Node1 -->
<g id="node1" class="node">
<title>Node1</title>
<polygon fill="#bfbfbf" stroke="#000000" points="0,-5.5 0,-23.5 83.2705,-23.5 83.2705,-5.5 0,-5.5"/>
<text text-anchor="middle" x="41.6353" y="-11.5" font-family="Helvetica,sans-Serif" font-size="10.00" fill="#000000">createEndpoint</text>
</g>
<!-- Node2 -->
<g id="node2" class="node">
<title>Node2</title>
<g id="a_node2"><a xlink:href="classlocomotor_1_1components_1_1network_1_1_a_p_i.html#a547463fbc7fb7b485886f0917e2c0b78" target="_top" xlink:title="locomotor.components.network.\lAPI.createHooks">
<polygon fill="#ffffff" stroke="#000000" points="119.2705,-.5 119.2705,-28.5 276.457,-28.5 276.457,-.5 119.2705,-.5"/>
<text text-anchor="start" x="127.2705" y="-16.5" font-family="Helvetica,sans-Serif" font-size="10.00" fill="#000000">locomotor.components.network.</text>
<text text-anchor="middle" x="197.8638" y="-6.5" font-family="Helvetica,sans-Serif" font-size="10.00" fill="#000000">API.createHooks</text>
</a>
</g>
</g>
<!-- Node1&#45;&gt;Node2 -->
<g id="edge1" class="edge">
<title>Node1&#45;&gt;Node2</title>
<path fill="none" stroke="#191970" d="M93.618,-14.5C101.8129,-14.5 110.4414,-14.5 119.0808,-14.5"/>
<polygon fill="#191970" stroke="#191970" points="93.5017,-11.0001 83.5016,-14.5 93.5016,-18.0001 93.5017,-11.0001"/>
</g>
<!-- Node3 -->
<g id="node3" class="node">
<title>Node3</title>
<g id="a_node3"><a xlink:href="classlocomotor_1_1core_1_1_main.html#a8b260eecbaabcef8473fd87ada040682" target="_top" xlink:title="locomotor.core.Main.main">
<polygon fill="#ffffff" stroke="#000000" points="312.457,-5.5 312.457,-23.5 442.9541,-23.5 442.9541,-5.5 312.457,-5.5"/>
<text text-anchor="middle" x="377.7056" y="-11.5" font-family="Helvetica,sans-Serif" font-size="10.00" fill="#000000">locomotor.core.Main.main</text>
</a>
</g>
</g>
<!-- Node2&#45;&gt;Node3 -->
<g id="edge2" class="edge">
<title>Node2&#45;&gt;Node3</title>
<path fill="none" stroke="#191970" d="M286.6568,-14.5C295.3451,-14.5 304.0474,-14.5 312.4393,-14.5"/>
<polygon fill="#191970" stroke="#191970" points="286.4834,-11.0001 276.4834,-14.5 286.4833,-18.0001 286.4834,-11.0001"/>
</g>
</g>
</svg>
