<?xml version="1.0" encoding="UTF-8" standalone="no"?>
<!DOCTYPE svg PUBLIC "-//W3C//DTD SVG 1.1//EN"
 "http://www.w3.org/Graphics/SVG/1.1/DTD/svg11.dtd">
<!-- Generated by graphviz version 2.40.1 (20161225.0304)
 -->
<!-- Title: getID Pages: 1 -->
<svg width="786pt" height="64pt"
 viewBox="0.00 0.00 785.61 64.00" xmlns="http://www.w3.org/2000/svg" xmlns:xlink="http://www.w3.org/1999/xlink">
<g id="graph0" class="graph" transform="scale(1 1) rotate(0) translate(4 60)">
<title>getID</title>
<polygon fill="#ffffff" stroke="transparent" points="-4,4 -4,-60 781.6084,-60 781.6084,4 -4,4"/>
<!-- Node1 -->
<g id="node1" class="node">
<title>Node1</title>
<polygon fill="#bfbfbf" stroke="#000000" points="0,-18.5 0,-36.5 39.9014,-36.5 39.9014,-18.5 0,-18.5"/>
<text text-anchor="middle" x="19.9507" y="-24.5" font-family="Helvetica,sans-Serif" font-size="10.00" fill="#000000">getID</text>
</g>
<!-- Node2 -->
<g id="node2" class="node">
<title>Node2</title>
<g id="a_node2"><a xlink:href="classlocomotor_1_1core_1_1_d_b_h.html#ad067053be75a3170dc9c2ce7b922e176" target="_top" xlink:title="locomotor.core.DBH.checking\lParsingItem">
<polygon fill="#ffffff" stroke="#000000" points="75.9014,-13.5 75.9014,-41.5 223.6299,-41.5 223.6299,-13.5 75.9014,-13.5"/>
<text text-anchor="start" x="83.9014" y="-29.5" font-family="Helvetica,sans-Serif" font-size="10.00" fill="#000000">locomotor.core.DBH.checking</text>
<text text-anchor="middle" x="149.7656" y="-19.5" font-family="Helvetica,sans-Serif" font-size="10.00" fill="#000000">ParsingItem</text>
</a>
</g>
</g>
<!-- Node1&#45;&gt;Node2 -->
<g id="edge1" class="edge">
<title>Node1&#45;&gt;Node2</title>
<path fill="none" stroke="#191970" d="M50.0258,-27.5C57.908,-27.5 66.764,-27.5 75.8604,-27.5"/>
<polygon fill="#191970" stroke="#191970" points="49.9498,-24.0001 39.9498,-27.5 49.9497,-31.0001 49.9498,-24.0001"/>
</g>
<!-- Node3 -->
<g id="node3" class="node">
<title>Node3</title>
<g id="a_node3"><a xlink:href="classlocomotor_1_1core_1_1_d_b_h.html#ae26eef1ee7482f2e0167c6a18924d214" target="_top" xlink:title="locomotor.core.DBH.addItem">
<polygon fill="#ffffff" stroke="#000000" points="266.5806,-37.5 266.5806,-55.5 410.9741,-55.5 410.9741,-37.5 266.5806,-37.5"/>
<text text-anchor="middle" x="338.7773" y="-43.5" font-family="Helvetica,sans-Serif" font-size="10.00" fill="#000000">locomotor.core.DBH.addItem</text>
</a>
</g>
</g>
<!-- Node2&#45;&gt;Node3 -->
<g id="edge2" class="edge">
<title>Node2&#45;&gt;Node3</title>
<path fill="none" stroke="#191970" d="M233.6441,-35.9317C244.5995,-37.033 255.7477,-38.1536 266.49,-39.2335"/>
<polygon fill="#191970" stroke="#191970" points="233.9545,-32.4454 223.6546,-34.9275 233.2543,-39.4103 233.9545,-32.4454"/>
</g>
<!-- Node6 -->
<g id="node6" class="node">
<title>Node6</title>
<g id="a_node6"><a xlink:href="classlocomotor_1_1core_1_1_d_b_h.html#aa0e39c547d06fd9d0ad2de70251c9cc0" target="_top" xlink:title="locomotor.core.DBH.updateItem">
<polygon fill="#ffffff" stroke="#000000" points="259.6299,-.5 259.6299,-18.5 417.9248,-18.5 417.9248,-.5 259.6299,-.5"/>
<text text-anchor="middle" x="338.7773" y="-6.5" font-family="Helvetica,sans-Serif" font-size="10.00" fill="#000000">locomotor.core.DBH.updateItem</text>
</a>
</g>
</g>
<!-- Node2&#45;&gt;Node6 -->
<g id="edge5" class="edge">
<title>Node2&#45;&gt;Node6</title>
<path fill="none" stroke="#191970" d="M233.6146,-19.5149C242.1596,-18.7011 250.8223,-17.8762 259.3185,-17.067"/>
<polygon fill="#191970" stroke="#191970" points="233.2777,-16.031 223.6546,-20.4634 233.9414,-22.9995 233.2777,-16.031"/>
</g>
<!-- Node4 -->
<g id="node4" class="node">
<title>Node4</title>
<g id="a_node4"><a xlink:href="classlocomotor_1_1components_1_1network_1_1_a_p_i.html#a547463fbc7fb7b485886f0917e2c0b78" target="_top" xlink:title="locomotor.components.network.\lAPI.createHooks">
<polygon fill="#ffffff" stroke="#000000" points="453.9248,-13.5 453.9248,-41.5 611.1113,-41.5 611.1113,-13.5 453.9248,-13.5"/>
<text text-anchor="start" x="461.9248" y="-29.5" font-family="Helvetica,sans-Serif" font-size="10.00" fill="#000000">locomotor.components.network.</text>
<text text-anchor="middle" x="532.5181" y="-19.5" font-family="Helvetica,sans-Serif" font-size="10.00" fill="#000000">API.createHooks</text>
</a>
</g>
</g>
<!-- Node3&#45;&gt;Node4 -->
<g id="edge3" class="edge">
<title>Node3&#45;&gt;Node4</title>
<path fill="none" stroke="#191970" d="M421.3766,-38.3996C432.0909,-37.3488 443.0433,-36.2747 453.6939,-35.2302"/>
<polygon fill="#191970" stroke="#191970" points="420.8054,-34.9387 411.1947,-39.3981 421.4886,-41.9053 420.8054,-34.9387"/>
</g>
<!-- Node5 -->
<g id="node5" class="node">
<title>Node5</title>
<g id="a_node5"><a xlink:href="classlocomotor_1_1core_1_1_main.html#a8b260eecbaabcef8473fd87ada040682" target="_top" xlink:title="locomotor.core.Main.main">
<polygon fill="#ffffff" stroke="#000000" points="647.1113,-18.5 647.1113,-36.5 777.6084,-36.5 777.6084,-18.5 647.1113,-18.5"/>
<text text-anchor="middle" x="712.3599" y="-24.5" font-family="Helvetica,sans-Serif" font-size="10.00" fill="#000000">locomotor.core.Main.main</text>
</a>
</g>
</g>
<!-- Node4&#45;&gt;Node5 -->
<g id="edge4" class="edge">
<title>Node4&#45;&gt;Node5</title>
<path fill="none" stroke="#191970" d="M621.3111,-27.5C629.9994,-27.5 638.7017,-27.5 647.0936,-27.5"/>
<polygon fill="#191970" stroke="#191970" points="621.1377,-24.0001 611.1377,-27.5 621.1376,-31.0001 621.1377,-24.0001"/>
</g>
<!-- Node6&#45;&gt;Node4 -->
<g id="edge6" class="edge">
<title>Node6&#45;&gt;Node4</title>
<path fill="none" stroke="#191970" d="M428.1705,-17.8053C436.7613,-18.6035 445.431,-19.4089 453.9072,-20.1965"/>
<polygon fill="#191970" stroke="#191970" points="428.4191,-14.3134 418.1381,-16.8732 427.7714,-21.2834 428.4191,-14.3134"/>
</g>
</g>
</svg>
