<?xml version="1.0" encoding="UTF-8" standalone="no"?>
<!DOCTYPE svg PUBLIC "-//W3C//DTD SVG 1.1//EN"
 "http://www.w3.org/Graphics/SVG/1.1/DTD/svg11.dtd">
<!-- Generated by graphviz version 2.40.1 (20161225.0304)
 -->
<!-- Title: getCriterias Pages: 1 -->
<svg width="1076pt" height="157pt"
 viewBox="0.00 0.00 1076.07 157.00" xmlns="http://www.w3.org/2000/svg" xmlns:xlink="http://www.w3.org/1999/xlink">
<g id="graph0" class="graph" transform="scale(1 1) rotate(0) translate(4 153)">
<title>getCriterias</title>
<polygon fill="#ffffff" stroke="transparent" points="-4,4 -4,-153 1072.0703,-153 1072.0703,4 -4,4"/>
<!-- Node1 -->
<g id="node1" class="node">
<title>Node1</title>
<polygon fill="#bfbfbf" stroke="#000000" points="0,-78.5 0,-96.5 67.1279,-96.5 67.1279,-78.5 0,-78.5"/>
<text text-anchor="middle" x="33.564" y="-84.5" font-family="Helvetica,sans-Serif" font-size="10.00" fill="#000000">getCriterias</text>
</g>
<!-- Node2 -->
<g id="node2" class="node">
<title>Node2</title>
<g id="a_node2"><a xlink:href="classlocomotor_1_1components_1_1models_1_1_user_category.html#ad146fa8579a5f8a876c4688cc5a68520" target="_top" xlink:title="locomotor.components.models.\lUserCategory.toString">
<polygon fill="#ffffff" stroke="#000000" points="114.8003,-120.5 114.8003,-148.5 269.2085,-148.5 269.2085,-120.5 114.8003,-120.5"/>
<text text-anchor="start" x="122.8003" y="-136.5" font-family="Helvetica,sans-Serif" font-size="10.00" fill="#000000">locomotor.components.models.</text>
<text text-anchor="middle" x="192.0044" y="-126.5" font-family="Helvetica,sans-Serif" font-size="10.00" fill="#000000">UserCategory.toString</text>
</a>
</g>
</g>
<!-- Node1&#45;&gt;Node2 -->
<g id="edge1" class="edge">
<title>Node1&#45;&gt;Node2</title>
<path fill="none" stroke="#191970" d="M67.6631,-99.8658C78.8966,-103.778 91.4911,-107.9929 103.1279,-111.5 113.3523,-114.5814 124.3126,-117.6254 134.9233,-120.4404"/>
<polygon fill="#191970" stroke="#191970" points="68.7948,-96.5537 58.1999,-96.531 66.4682,-103.1557 68.7948,-96.5537"/>
</g>
<!-- Node3 -->
<g id="node3" class="node">
<title>Node3</title>
<g id="a_node3"><a xlink:href="classlocomotor_1_1core_1_1_comparator.html#a3f526c90b5b3a645974bbb81e30d3c74" target="_top" xlink:title="locomotor.core.Comparator.compute\lGradeOfCategory">
<polygon fill="#ffffff" stroke="#000000" points="103.1279,-73.5 103.1279,-101.5 280.8809,-101.5 280.8809,-73.5 103.1279,-73.5"/>
<text text-anchor="start" x="111.1279" y="-89.5" font-family="Helvetica,sans-Serif" font-size="10.00" fill="#000000">locomotor.core.Comparator.compute</text>
<text text-anchor="middle" x="192.0044" y="-79.5" font-family="Helvetica,sans-Serif" font-size="10.00" fill="#000000">GradeOfCategory</text>
</a>
</g>
</g>
<!-- Node1&#45;&gt;Node3 -->
<g id="edge2" class="edge">
<title>Node1&#45;&gt;Node3</title>
<path fill="none" stroke="#191970" d="M77.3954,-87.5C85.4774,-87.5 94.178,-87.5 103.0438,-87.5"/>
<polygon fill="#191970" stroke="#191970" points="77.1651,-84.0001 67.1651,-87.5 77.1651,-91.0001 77.1651,-84.0001"/>
</g>
<!-- Node8 -->
<g id="node8" class="node">
<title>Node8</title>
<g id="a_node8"><a xlink:href="classlocomotor_1_1core_1_1_d_b_h.html#ad067053be75a3170dc9c2ce7b922e176" target="_top" xlink:title="locomotor.core.DBH.checking\lParsingItem">
<polygon fill="#ffffff" stroke="#000000" points="331.8931,-27.5 331.8931,-55.5 479.6216,-55.5 479.6216,-27.5 331.8931,-27.5"/>
<text text-anchor="start" x="339.8931" y="-43.5" font-family="Helvetica,sans-Serif" font-size="10.00" fill="#000000">locomotor.core.DBH.checking</text>
<text text-anchor="middle" x="405.7573" y="-33.5" font-family="Helvetica,sans-Serif" font-size="10.00" fill="#000000">ParsingItem</text>
</a>
</g>
</g>
<!-- Node1&#45;&gt;Node8 -->
<g id="edge7" class="edge">
<title>Node1&#45;&gt;Node8</title>
<path fill="none" stroke="#191970" d="M64.5502,-74.8793C76.4255,-70.5576 90.222,-66.1483 103.1279,-63.5 180.0167,-47.7222 269.921,-42.858 331.643,-41.5482"/>
<polygon fill="#191970" stroke="#191970" points="63.2098,-71.6441 55.0886,-78.4483 65.6804,-78.1936 63.2098,-71.6441"/>
</g>
<!-- Node4 -->
<g id="node4" class="node">
<title>Node4</title>
<g id="a_node4"><a xlink:href="classlocomotor_1_1core_1_1_comparator.html#a589b06b817cbbc74ceb4812d0ba6c245" target="_top" xlink:title="locomotor.core.Comparator.compute\lGradeOfItem">
<polygon fill="#ffffff" stroke="#000000" points="316.8809,-74.5 316.8809,-102.5 494.6338,-102.5 494.6338,-74.5 316.8809,-74.5"/>
<text text-anchor="start" x="324.8809" y="-90.5" font-family="Helvetica,sans-Serif" font-size="10.00" fill="#000000">locomotor.core.Comparator.compute</text>
<text text-anchor="middle" x="405.7573" y="-80.5" font-family="Helvetica,sans-Serif" font-size="10.00" fill="#000000">GradeOfItem</text>
</a>
</g>
</g>
<!-- Node3&#45;&gt;Node4 -->
<g id="edge3" class="edge">
<title>Node3&#45;&gt;Node4</title>
<path fill="none" stroke="#191970" d="M291.1197,-87.9637C299.6866,-88.0038 308.3202,-88.0442 316.799,-88.0838"/>
<polygon fill="#191970" stroke="#191970" points="291.1234,-84.4638 281.1071,-87.9168 291.0905,-91.4637 291.1234,-84.4638"/>
</g>
<!-- Node5 -->
<g id="node5" class="node">
<title>Node5</title>
<g id="a_node5"><a xlink:href="classlocomotor_1_1core_1_1_comparator.html#a092fb76ad264eeccd8f30eadb70e36e3" target="_top" xlink:title="locomotor.core.Comparator.compute\lGradeOfItems">
<polygon fill="#ffffff" stroke="#000000" points="530.6338,-74.5 530.6338,-102.5 708.3867,-102.5 708.3867,-74.5 530.6338,-74.5"/>
<text text-anchor="start" x="538.6338" y="-90.5" font-family="Helvetica,sans-Serif" font-size="10.00" fill="#000000">locomotor.core.Comparator.compute</text>
<text text-anchor="middle" x="619.5103" y="-80.5" font-family="Helvetica,sans-Serif" font-size="10.00" fill="#000000">GradeOfItems</text>
</a>
</g>
</g>
<!-- Node4&#45;&gt;Node5 -->
<g id="edge4" class="edge">
<title>Node4&#45;&gt;Node5</title>
<path fill="none" stroke="#191970" d="M504.8727,-88.5C513.4395,-88.5 522.0731,-88.5 530.5519,-88.5"/>
<polygon fill="#191970" stroke="#191970" points="504.86,-85.0001 494.86,-88.5 504.86,-92.0001 504.86,-85.0001"/>
</g>
<!-- Node6 -->
<g id="node6" class="node">
<title>Node6</title>
<g id="a_node6"><a xlink:href="classlocomotor_1_1components_1_1network_1_1_a_p_i.html#a547463fbc7fb7b485886f0917e2c0b78" target="_top" xlink:title="locomotor.components.network.\lAPI.createHooks">
<polygon fill="#ffffff" stroke="#000000" points="744.3867,-32.5 744.3867,-60.5 901.5732,-60.5 901.5732,-32.5 744.3867,-32.5"/>
<text text-anchor="start" x="752.3867" y="-48.5" font-family="Helvetica,sans-Serif" font-size="10.00" fill="#000000">locomotor.components.network.</text>
<text text-anchor="middle" x="822.98" y="-38.5" font-family="Helvetica,sans-Serif" font-size="10.00" fill="#000000">API.createHooks</text>
</a>
</g>
</g>
<!-- Node5&#45;&gt;Node6 -->
<g id="edge5" class="edge">
<title>Node5&#45;&gt;Node6</title>
<path fill="none" stroke="#191970" d="M697.355,-72.4314C716.3475,-68.511 736.5174,-64.3475 755.0087,-60.5306"/>
<polygon fill="#191970" stroke="#191970" points="696.6316,-69.0068 687.5456,-74.4562 698.0467,-75.8623 696.6316,-69.0068"/>
</g>
<!-- Node7 -->
<g id="node7" class="node">
<title>Node7</title>
<g id="a_node7"><a xlink:href="classlocomotor_1_1core_1_1_main.html#a8b260eecbaabcef8473fd87ada040682" target="_top" xlink:title="locomotor.core.Main.main">
<polygon fill="#ffffff" stroke="#000000" points="937.5732,-37.5 937.5732,-55.5 1068.0703,-55.5 1068.0703,-37.5 937.5732,-37.5"/>
<text text-anchor="middle" x="1002.8218" y="-43.5" font-family="Helvetica,sans-Serif" font-size="10.00" fill="#000000">locomotor.core.Main.main</text>
</a>
</g>
</g>
<!-- Node6&#45;&gt;Node7 -->
<g id="edge6" class="edge">
<title>Node6&#45;&gt;Node7</title>
<path fill="none" stroke="#191970" d="M911.773,-46.5C920.4613,-46.5 929.1636,-46.5 937.5555,-46.5"/>
<polygon fill="#191970" stroke="#191970" points="911.5996,-43.0001 901.5996,-46.5 911.5996,-50.0001 911.5996,-43.0001"/>
</g>
<!-- Node9 -->
<g id="node9" class="node">
<title>Node9</title>
<g id="a_node9"><a xlink:href="classlocomotor_1_1core_1_1_d_b_h.html#ae26eef1ee7482f2e0167c6a18924d214" target="_top" xlink:title="locomotor.core.DBH.addItem">
<polygon fill="#ffffff" stroke="#000000" points="547.3135,-37.5 547.3135,-55.5 691.707,-55.5 691.707,-37.5 547.3135,-37.5"/>
<text text-anchor="middle" x="619.5103" y="-43.5" font-family="Helvetica,sans-Serif" font-size="10.00" fill="#000000">locomotor.core.DBH.addItem</text>
</a>
</g>
</g>
<!-- Node8&#45;&gt;Node9 -->
<g id="edge8" class="edge">
<title>Node8&#45;&gt;Node9</title>
<path fill="none" stroke="#191970" d="M490.0181,-43.471C508.9568,-43.914 528.8883,-44.3802 547.2841,-44.8105"/>
<polygon fill="#191970" stroke="#191970" points="489.997,-39.9696 479.9178,-43.2347 489.8332,-46.9677 489.997,-39.9696"/>
</g>
<!-- Node10 -->
<g id="node10" class="node">
<title>Node10</title>
<g id="a_node10"><a xlink:href="classlocomotor_1_1core_1_1_d_b_h.html#aa0e39c547d06fd9d0ad2de70251c9cc0" target="_top" xlink:title="locomotor.core.DBH.updateItem">
<polygon fill="#ffffff" stroke="#000000" points="540.3628,-.5 540.3628,-18.5 698.6577,-18.5 698.6577,-.5 540.3628,-.5"/>
<text text-anchor="middle" x="619.5103" y="-6.5" font-family="Helvetica,sans-Serif" font-size="10.00" fill="#000000">locomotor.core.DBH.updateItem</text>
</a>
</g>
</g>
<!-- Node8&#45;&gt;Node10 -->
<g id="edge10" class="edge">
<title>Node8&#45;&gt;Node10</title>
<path fill="none" stroke="#191970" d="M490.0702,-28.8779C513.1906,-25.4166 537.7871,-21.7344 559.2602,-18.5198"/>
<polygon fill="#191970" stroke="#191970" points="489.2894,-25.4557 479.9178,-30.3978 490.3259,-32.3785 489.2894,-25.4557"/>
</g>
<!-- Node9&#45;&gt;Node6 -->
<g id="edge9" class="edge">
<title>Node9&#45;&gt;Node6</title>
<path fill="none" stroke="#191970" d="M701.913,-46.5C715.9205,-46.5 730.4356,-46.5 744.3428,-46.5"/>
<polygon fill="#191970" stroke="#191970" points="701.819,-43.0001 691.819,-46.5 701.8189,-50.0001 701.819,-43.0001"/>
</g>
<!-- Node10&#45;&gt;Node6 -->
<g id="edge11" class="edge">
<title>Node10&#45;&gt;Node6</title>
<path fill="none" stroke="#191970" d="M679.0225,-20.322C699.9014,-24.1187 723.6647,-28.44 745.7825,-32.462"/>
<polygon fill="#191970" stroke="#191970" points="679.4892,-16.8496 669.0244,-18.5039 678.2368,-23.7366 679.4892,-16.8496"/>
</g>
</g>
</svg>
