<?xml version="1.0" encoding="UTF-8" standalone="no"?>
<!DOCTYPE svg PUBLIC "-//W3C//DTD SVG 1.1//EN"
 "http://www.w3.org/Graphics/SVG/1.1/DTD/svg11.dtd">
<!-- Generated by graphviz version 2.40.1 (20161225.0304)
 -->
<!-- Title: getDefaultMissingParametersMessage Pages: 1 -->
<svg width="346pt" height="37pt"
 viewBox="0.00 0.00 346.12 37.00" xmlns="http://www.w3.org/2000/svg" xmlns:xlink="http://www.w3.org/1999/xlink">
<g id="graph0" class="graph" transform="scale(1 1) rotate(0) translate(4 33)">
<title>getDefaultMissingParametersMessage</title>
<polygon fill="#ffffff" stroke="transparent" points="-4,4 -4,-33 342.1172,-33 342.1172,4 -4,4"/>
<!-- Node1 -->
<g id="node1" class="node">
<title>Node1</title>
<polygon fill="#bfbfbf" stroke="#000000" points="0,-.5 0,-28.5 147.167,-28.5 147.167,-.5 0,-.5"/>
<text text-anchor="start" x="8" y="-16.5" font-family="Helvetica,sans-Serif" font-size="10.00" fill="#000000">getDefaultMissingParameters</text>
<text text-anchor="middle" x="73.5835" y="-6.5" font-family="Helvetica,sans-Serif" font-size="10.00" fill="#000000">Message</text>
</g>
<!-- Node2 -->
<g id="node2" class="node">
<title>Node2</title>
<g id="a_node2"><a xlink:href="classlocomotor_1_1components_1_1network_1_1_i_endpoint_handler.html#a754e26560b323ad92f51d07b4cd02d2a" target="_top" xlink:title="sendDefaultMissingParameters\lMessage">
<polygon fill="#ffffff" stroke="#000000" points="183.167,-.5 183.167,-28.5 338.1172,-28.5 338.1172,-.5 183.167,-.5"/>
<text text-anchor="start" x="191.167" y="-16.5" font-family="Helvetica,sans-Serif" font-size="10.00" fill="#000000">sendDefaultMissingParameters</text>
<text text-anchor="middle" x="260.6421" y="-6.5" font-family="Helvetica,sans-Serif" font-size="10.00" fill="#000000">Message</text>
</a>
</g>
</g>
<!-- Node1&#45;&gt;Node2 -->
<g id="edge1" class="edge">
<title>Node1&#45;&gt;Node2</title>
<path fill="none" stroke="#191970" d="M157.2524,-14.5C165.8357,-14.5 174.5309,-14.5 183.0447,-14.5"/>
<polygon fill="#191970" stroke="#191970" points="157.2455,-11.0001 147.2455,-14.5 157.2455,-18.0001 157.2455,-11.0001"/>
</g>
</g>
</svg>
