<?xml version="1.0" encoding="UTF-8" standalone="no"?>
<!DOCTYPE svg PUBLIC "-//W3C//DTD SVG 1.1//EN"
 "http://www.w3.org/Graphics/SVG/1.1/DTD/svg11.dtd">
<!-- Generated by graphviz version 2.40.1 (20161225.0304)
 -->
<!-- Title: fromJSON Pages: 1 -->
<!--zoomable 632 -->
<svg id="main" version="1.1" xmlns="http://www.w3.org/2000/svg" xmlns:xlink="http://www.w3.org/1999/xlink" xml:space="preserve" onload="init(evt)">
<style type="text/css"><![CDATA[
.edge:hover path { stroke: red; }
.edge:hover polygon { stroke: red; fill: red; }
]]></style>
<script type="text/javascript"><![CDATA[
var edges = document.getElementsByTagName('g');
if (edges && edges.length) {
  for (var i=0;i<edges.length;i++) {
    if (edges[i].id.substr(0,4)=='edge') {
      edges[i].setAttribute('class','edge');
    }
  }
}
]]></script>
        <defs>
                <circle id="rim" cx="0" cy="0" r="7"/>
                <circle id="rim2" cx="0" cy="0" r="3.5"/>
                <g id="zoomPlus">
                        <use xlink:href="#rim" fill="#404040">
                                <set attributeName="fill" to="#808080" begin="zoomplus.mouseover" end="zoomplus.mouseout"/>
                        </use>
                        <path d="M-4,0h8M0,-4v8" fill="none" stroke="white" stroke-width="1.5" pointer-events="none"/>
                </g>
                <g id="zoomMin">
                        <use xlink:href="#rim" fill="#404040">
                                <set attributeName="fill" to="#808080" begin="zoomminus.mouseover" end="zoomminus.mouseout"/>
                        </use>
                        <path d="M-4,0h8" fill="none" stroke="white" stroke-width="1.5" pointer-events="none"/>
                </g>
                <g id="dirArrow">
                        <path fill="none" stroke="white" stroke-width="1.5" d="M0,-3.0v7 M-2.5,-0.5L0,-3.0L2.5,-0.5"/>
                </g>
               <g id="resetDef">
                       <use xlink:href="#rim2" fill="#404040">
                               <set attributeName="fill" to="#808080" begin="reset.mouseover" end="reset.mouseout"/>
                       </use>
               </g>
        </defs>

<script type="text/javascript">
var viewWidth = 1256;
var viewHeight = 632;
var sectionId = 'dynsection-3';
</script>
<script xlink:href="svgpan.js"/>
<svg id="graph" class="graph">
<g id="viewport">
<title>fromJSON</title>
<polygon fill="#ffffff" stroke="transparent" points="-4,4 -4,-628 1251.917,-628 1251.917,4 -4,4"/>
<!-- Node1 -->
<g id="node1" class="node">
<title>Node1</title>
<polygon fill="#bfbfbf" stroke="#000000" points="0,-430.5 0,-448.5 62.6699,-448.5 62.6699,-430.5 0,-430.5"/>
<text text-anchor="middle" x="31.335" y="-436.5" font-family="Helvetica,sans-Serif" font-size="10.00" fill="#000000">fromJSON</text>
</g>
<!-- Node2 -->
<g id="node2" class="node">
<title>Node2</title>
<g id="a_node2"><a xlink:href="classlocomotor_1_1components_1_1logging_1_1_error_handler.html#a75e8f6535bdb8db9a7d570e1b839af47" target="_top" xlink:title="locomotor.components.logging.\lErrorHandler.getInstance">
<polygon fill="#ffffff" stroke="#000000" points="496.1318,-415.5 496.1318,-443.5 650.5547,-443.5 650.5547,-415.5 496.1318,-415.5"/>
<text text-anchor="start" x="504.1318" y="-431.5" font-family="Helvetica,sans-Serif" font-size="10.00" fill="#000000">locomotor.components.logging.</text>
<text text-anchor="middle" x="573.3433" y="-421.5" font-family="Helvetica,sans-Serif" font-size="10.00" fill="#000000">ErrorHandler.getInstance</text>
</a>
</g>
</g>
<!-- Node1&#45;&gt;Node2 -->
<g id="edge1" class="edge">
<title>Node1&#45;&gt;Node2</title>
<path fill="none" stroke="#191970" d="M62.8482,-438.4803C74.1457,-438.1369 86.9778,-437.7722 98.6699,-437.5 233.8219,-434.3541 390.6474,-431.9553 485.8911,-430.6377"/>
<polygon fill="#191970" stroke="#191970" points="486.1021,-434.1352 496.053,-430.498 486.0058,-427.1359 486.1021,-434.1352"/>
</g>
<!-- Node3 -->
<g id="node3" class="node">
<title>Node3</title>
<g id="a_node3"><a xlink:href="classlocomotor_1_1components_1_1logging_1_1_error_handler.html#abd00a9c37627740763cef91d76a77437" target="_top" xlink:title="locomotor.components.logging.\lErrorHandler.push">
<polygon fill="#ffffff" stroke="#000000" points="496.1318,-573.5 496.1318,-601.5 650.5547,-601.5 650.5547,-573.5 496.1318,-573.5"/>
<text text-anchor="start" x="504.1318" y="-589.5" font-family="Helvetica,sans-Serif" font-size="10.00" fill="#000000">locomotor.components.logging.</text>
<text text-anchor="middle" x="573.3433" y="-579.5" font-family="Helvetica,sans-Serif" font-size="10.00" fill="#000000">ErrorHandler.push</text>
</a>
</g>
</g>
<!-- Node1&#45;&gt;Node3 -->
<g id="edge2" class="edge">
<title>Node1&#45;&gt;Node3</title>
<path fill="none" stroke="#191970" d="M42.7207,-448.7604C77.171,-476.0939 184.3663,-556.1576 289.0781,-582.5 353.6519,-598.7449 429.1058,-599.2575 486.0423,-596.1074"/>
<polygon fill="#191970" stroke="#191970" points="486.3196,-599.5971 496.0914,-595.503 485.8992,-592.6098 486.3196,-599.5971"/>
</g>
<!-- Node5 -->
<g id="node5" class="node">
<title>Node5</title>
<g id="a_node5"><a xlink:href="classlocomotor_1_1components_1_1models_1_1_item_category_full.html#a50ab7c0f8e4a65f80ca141f1fa1c7df8" target="_top" xlink:title="locomotor.components.models.\lItemCategoryFull.fromJSON">
<polygon fill="#ffffff" stroke="#000000" points="98.6699,-447.5 98.6699,-475.5 253.0781,-475.5 253.0781,-447.5 98.6699,-447.5"/>
<text text-anchor="start" x="106.6699" y="-463.5" font-family="Helvetica,sans-Serif" font-size="10.00" fill="#000000">locomotor.components.models.</text>
<text text-anchor="middle" x="175.874" y="-453.5" font-family="Helvetica,sans-Serif" font-size="10.00" fill="#000000">ItemCategoryFull.fromJSON</text>
</a>
</g>
</g>
<!-- Node1&#45;&gt;Node5 -->
<g id="edge4" class="edge">
<title>Node1&#45;&gt;Node5</title>
<path fill="none" stroke="#191970" d="M62.6978,-444.2737C70.5633,-445.4709 79.3928,-446.8148 88.5603,-448.2102"/>
<polygon fill="#191970" stroke="#191970" points="88.1981,-451.6953 98.6109,-449.7399 89.2515,-444.775 88.1981,-451.6953"/>
</g>
<!-- Node36 -->
<g id="node36" class="node">
<title>Node36</title>
<g id="a_node36"><a xlink:href="classlocomotor_1_1components_1_1models_1_1_item_full.html#a4910a2b0275c6596a2a64bac1e5a3d62" target="_top" xlink:title="ItemFull">
<polygon fill="#ffffff" stroke="#000000" points="150.0933,-352.5 150.0933,-370.5 201.6548,-370.5 201.6548,-352.5 150.0933,-352.5"/>
<text text-anchor="middle" x="175.874" y="-358.5" font-family="Helvetica,sans-Serif" font-size="10.00" fill="#000000">ItemFull</text>
</a>
</g>
</g>
<!-- Node1&#45;&gt;Node36 -->
<g id="edge45" class="edge">
<title>Node1&#45;&gt;Node36</title>
<path fill="none" stroke="#191970" d="M40.5486,-430.1957C52.8143,-418.2881 75.6478,-397.7403 98.6699,-385.5 111.5087,-378.6739 126.5991,-373.4423 140.0164,-369.6325"/>
<polygon fill="#191970" stroke="#191970" points="141.1292,-372.958 149.8855,-366.9935 139.3208,-366.1956 141.1292,-372.958"/>
</g>
<!-- Node4 -->
<g id="node4" class="node">
<title>Node4</title>
<g id="a_node4"><a xlink:href="classlocomotor_1_1components_1_1logging_1_1_error_context.html#afcf30b71bfc65c74878c7ab77c951842" target="_top" xlink:title="locomotor.components.logging.\lErrorContext.push">
<polygon fill="#ffffff" stroke="#000000" points="686.5547,-582.5 686.5547,-610.5 840.9775,-610.5 840.9775,-582.5 686.5547,-582.5"/>
<text text-anchor="start" x="694.5547" y="-598.5" font-family="Helvetica,sans-Serif" font-size="10.00" fill="#000000">locomotor.components.logging.</text>
<text text-anchor="middle" x="763.7661" y="-588.5" font-family="Helvetica,sans-Serif" font-size="10.00" fill="#000000">ErrorContext.push</text>
</a>
</g>
</g>
<!-- Node3&#45;&gt;Node4 -->
<g id="edge3" class="edge">
<title>Node3&#45;&gt;Node4</title>
<path fill="none" stroke="#191970" d="M650.7955,-591.1606C659.1408,-591.5551 667.6747,-591.9584 676.1285,-592.358"/>
<polygon fill="#191970" stroke="#191970" points="676.2284,-595.8665 686.3825,-592.8426 676.5589,-588.8743 676.2284,-595.8665"/>
</g>
<!-- Node5&#45;&gt;Node2 -->
<g id="edge6" class="edge">
<title>Node5&#45;&gt;Node2</title>
<path fill="none" stroke="#191970" d="M253.4537,-455.2541C320.2058,-449.8799 416.4471,-442.1316 485.9115,-436.5391"/>
<polygon fill="#191970" stroke="#191970" points="486.2725,-440.0214 495.9593,-435.7301 485.7107,-433.044 486.2725,-440.0214"/>
</g>
<!-- Node5&#45;&gt;Node3 -->
<g id="edge7" class="edge">
<title>Node5&#45;&gt;Node3</title>
<path fill="none" stroke="#191970" d="M188.5467,-475.6037C207.9501,-496.1688 247.1999,-533.8516 289.0781,-551.5 351.4589,-577.7886 427.8424,-586.3013 485.7159,-588.508"/>
<polygon fill="#191970" stroke="#191970" points="485.8248,-592.0132 495.9331,-588.8397 486.052,-585.0169 485.8248,-592.0132"/>
</g>
<!-- Node6 -->
<g id="node6" class="node">
<title>Node6</title>
<g id="a_node6"><a xlink:href="classlocomotor_1_1components_1_1models_1_1_category_model.html#a337145f3b2fdaaed1506d52b80d2ac86" target="_top" xlink:title="locomotor.components.models.\lCategoryModel.getCriterias">
<polygon fill="#ffffff" stroke="#000000" points="297.4009,-513.5 297.4009,-541.5 451.8091,-541.5 451.8091,-513.5 297.4009,-513.5"/>
<text text-anchor="start" x="305.4009" y="-529.5" font-family="Helvetica,sans-Serif" font-size="10.00" fill="#000000">locomotor.components.models.</text>
<text text-anchor="middle" x="374.605" y="-519.5" font-family="Helvetica,sans-Serif" font-size="10.00" fill="#000000">CategoryModel.getCriterias</text>
</a>
</g>
</g>
<!-- Node5&#45;&gt;Node6 -->
<g id="edge5" class="edge">
<title>Node5&#45;&gt;Node6</title>
<path fill="none" stroke="#191970" d="M210.2366,-475.5818C232.5141,-484.4544 262.2741,-495.8294 289.0781,-504.5 295.5654,-506.5985 302.3715,-508.6602 309.1912,-510.6347"/>
<polygon fill="#191970" stroke="#191970" points="308.5817,-514.0997 319.1571,-513.4595 310.4906,-507.365 308.5817,-514.0997"/>
</g>
<!-- Node7 -->
<g id="node7" class="node">
<title>Node7</title>
<g id="a_node7"><a xlink:href="classlocomotor_1_1components_1_1models_1_1_item_criteria_full.html#a436730a3499b6d7b1d0359e12aa2f04a" target="_top" xlink:title="locomotor.components.models.\lItemCriteriaFull.fromJSON">
<polygon fill="#ffffff" stroke="#000000" points="297.4009,-342.5 297.4009,-370.5 451.8091,-370.5 451.8091,-342.5 297.4009,-342.5"/>
<text text-anchor="start" x="305.4009" y="-358.5" font-family="Helvetica,sans-Serif" font-size="10.00" fill="#000000">locomotor.components.models.</text>
<text text-anchor="middle" x="374.605" y="-348.5" font-family="Helvetica,sans-Serif" font-size="10.00" fill="#000000">ItemCriteriaFull.fromJSON</text>
</a>
</g>
</g>
<!-- Node5&#45;&gt;Node7 -->
<g id="edge8" class="edge">
<title>Node5&#45;&gt;Node7</title>
<path fill="none" stroke="#191970" d="M202.6758,-447.3392C237.8879,-428.7348 299.8316,-396.0067 338.9648,-375.3306"/>
<polygon fill="#191970" stroke="#191970" points="340.7046,-378.3699 347.9113,-370.6037 337.4344,-372.1807 340.7046,-378.3699"/>
</g>
<!-- Node35 -->
<g id="node35" class="node">
<title>Node35</title>
<g id="a_node35"><a xlink:href="classlocomotor_1_1components_1_1models_1_1_item_category_full.html#ac4cc3afe3a775553661da4e09cbe967f" target="_top" xlink:title="locomotor.components.models.\lItemCategoryFull.ItemCategoryFull">
<polygon fill="#ffffff" stroke="#000000" points="289.0781,-466.5 289.0781,-494.5 460.1318,-494.5 460.1318,-466.5 289.0781,-466.5"/>
<text text-anchor="start" x="297.0781" y="-482.5" font-family="Helvetica,sans-Serif" font-size="10.00" fill="#000000">locomotor.components.models.</text>
<text text-anchor="middle" x="374.605" y="-472.5" font-family="Helvetica,sans-Serif" font-size="10.00" fill="#000000">ItemCategoryFull.ItemCategoryFull</text>
</a>
</g>
</g>
<!-- Node5&#45;&gt;Node35 -->
<g id="edge44" class="edge">
<title>Node5&#45;&gt;Node35</title>
<path fill="none" stroke="#191970" d="M253.2777,-468.9003C261.6593,-469.7016 270.2604,-470.524 278.8259,-471.3429"/>
<polygon fill="#191970" stroke="#191970" points="278.5617,-474.8335 288.8494,-472.3012 279.2279,-467.8653 278.5617,-474.8335"/>
</g>
<!-- Node7&#45;&gt;Node2 -->
<g id="edge41" class="edge">
<title>Node7&#45;&gt;Node2</title>
<path fill="none" stroke="#191970" d="M420.9066,-370.5054C433.7876,-374.8563 447.6602,-379.9753 460.1318,-385.5 476.8667,-392.9133 479.3037,-398.301 496.1318,-405.5 501.5887,-407.8344 507.3492,-410.0524 513.1642,-412.1287"/>
<polygon fill="#191970" stroke="#191970" points="512.3633,-415.554 522.9579,-415.4848 514.6326,-408.932 512.3633,-415.554"/>
</g>
<!-- Node7&#45;&gt;Node3 -->
<g id="edge42" class="edge">
<title>Node7&#45;&gt;Node3</title>
<path fill="none" stroke="#191970" d="M386.7378,-370.6024C420.2081,-409.506 514.0333,-518.5621 554.4407,-565.5289"/>
<polygon fill="#191970" stroke="#191970" points="551.9416,-567.9908 561.1167,-573.2887 557.248,-563.4254 551.9416,-567.9908"/>
</g>
<!-- Node8 -->
<g id="node8" class="node">
<title>Node8</title>
<g id="a_node8"><a xlink:href="classlocomotor_1_1components_1_1types_1_1_type_factory.html#a8827604831ff8a1764b7639c82820497" target="_top" xlink:title="locomotor.components.types.\lTypeFactory.getItemFromJson">
<polygon fill="#ffffff" stroke="#000000" points="497.9092,-321.5 497.9092,-349.5 648.7773,-349.5 648.7773,-321.5 497.9092,-321.5"/>
<text text-anchor="start" x="505.9092" y="-337.5" font-family="Helvetica,sans-Serif" font-size="10.00" fill="#000000">locomotor.components.types.</text>
<text text-anchor="middle" x="573.3433" y="-327.5" font-family="Helvetica,sans-Serif" font-size="10.00" fill="#000000">TypeFactory.getItemFromJson</text>
</a>
</g>
</g>
<!-- Node7&#45;&gt;Node8 -->
<g id="edge9" class="edge">
<title>Node7&#45;&gt;Node8</title>
<path fill="none" stroke="#191970" d="M452.0115,-348.3207C463.6443,-347.0915 475.6999,-345.8176 487.4965,-344.5711"/>
<polygon fill="#191970" stroke="#191970" points="488.2025,-348.0161 497.7793,-343.4846 487.4668,-341.0549 488.2025,-348.0161"/>
</g>
<!-- Node32 -->
<g id="node32" class="node">
<title>Node32</title>
<g id="a_node32"><a xlink:href="classlocomotor_1_1components_1_1models_1_1_criteria_model.html#a19fc0aeef83333878b7af08e6eb7dbea" target="_top" xlink:title="locomotor.components.models.\lCriteriaModel.getItemType">
<polygon fill="#ffffff" stroke="#000000" points="496.1392,-274.5 496.1392,-302.5 650.5474,-302.5 650.5474,-274.5 496.1392,-274.5"/>
<text text-anchor="start" x="504.1392" y="-290.5" font-family="Helvetica,sans-Serif" font-size="10.00" fill="#000000">locomotor.components.models.</text>
<text text-anchor="middle" x="573.3433" y="-280.5" font-family="Helvetica,sans-Serif" font-size="10.00" fill="#000000">CriteriaModel.getItemType</text>
</a>
</g>
</g>
<!-- Node7&#45;&gt;Node32 -->
<g id="edge39" class="edge">
<title>Node7&#45;&gt;Node32</title>
<path fill="none" stroke="#191970" d="M410.5469,-342.491C434.6232,-333.2801 467.1073,-321.1853 496.1318,-311.5 502.0525,-309.5243 508.2552,-307.5385 514.4617,-305.6062"/>
<polygon fill="#191970" stroke="#191970" points="515.6458,-308.904 524.1779,-302.6228 513.5911,-302.2123 515.6458,-308.904"/>
</g>
<!-- Node33 -->
<g id="node33" class="node">
<title>Node33</title>
<g id="a_node33"><a xlink:href="classlocomotor_1_1components_1_1models_1_1_criteria_model.html#afe6cac49dd51cda8f8dfedab30c83009" target="_top" xlink:title="locomotor.components.models.\lCriteriaModel.getUniverse">
<polygon fill="#ffffff" stroke="#000000" points="496.1392,-227.5 496.1392,-255.5 650.5474,-255.5 650.5474,-227.5 496.1392,-227.5"/>
<text text-anchor="start" x="504.1392" y="-243.5" font-family="Helvetica,sans-Serif" font-size="10.00" fill="#000000">locomotor.components.models.</text>
<text text-anchor="middle" x="573.3433" y="-233.5" font-family="Helvetica,sans-Serif" font-size="10.00" fill="#000000">CriteriaModel.getUniverse</text>
</a>
</g>
</g>
<!-- Node7&#45;&gt;Node33 -->
<g id="edge40" class="edge">
<title>Node7&#45;&gt;Node33</title>
<path fill="none" stroke="#191970" d="M389.5053,-342.3453C411.2956,-322.3525 453.8736,-285.8994 496.1318,-264.5 499.8519,-262.6162 503.7526,-260.8592 507.7415,-259.2251"/>
<polygon fill="#191970" stroke="#191970" points="509.0677,-262.4653 517.1654,-255.6332 506.5745,-255.9243 509.0677,-262.4653"/>
</g>
<!-- Node34 -->
<g id="node34" class="node">
<title>Node34</title>
<g id="a_node34"><a xlink:href="classlocomotor_1_1components_1_1models_1_1_item_criteria_full.html#a990d1940951b04ada03eba936462a0b2" target="_top" xlink:title="locomotor.components.models.\lItemCriteriaFull.ItemCriteriaFull">
<polygon fill="#ffffff" stroke="#000000" points="496.1392,-368.5 496.1392,-396.5 650.5474,-396.5 650.5474,-368.5 496.1392,-368.5"/>
<text text-anchor="start" x="504.1392" y="-384.5" font-family="Helvetica,sans-Serif" font-size="10.00" fill="#000000">locomotor.components.models.</text>
<text text-anchor="middle" x="573.3433" y="-374.5" font-family="Helvetica,sans-Serif" font-size="10.00" fill="#000000">ItemCriteriaFull.ItemCriteriaFull</text>
</a>
</g>
</g>
<!-- Node7&#45;&gt;Node34 -->
<g id="edge43" class="edge">
<title>Node7&#45;&gt;Node34</title>
<path fill="none" stroke="#191970" d="M452.0115,-366.6267C463.0262,-368.0677 474.4199,-369.5583 485.6138,-371.0228"/>
<polygon fill="#191970" stroke="#191970" points="485.4515,-374.5313 495.8211,-372.3581 486.3596,-367.5904 485.4515,-374.5313"/>
</g>
<!-- Node9 -->
<g id="node9" class="node">
<title>Node9</title>
<g id="a_node9"><a xlink:href="classlocomotor_1_1components_1_1types_1_1_c_integer.html#acc13169c043f180e6472a29d19ff5124" target="_top" xlink:title="locomotor.components.types.\lCInteger.fromJSON">
<polygon fill="#ffffff" stroke="#000000" points="690.7295,-180.5 690.7295,-208.5 836.8027,-208.5 836.8027,-180.5 690.7295,-180.5"/>
<text text-anchor="start" x="698.7295" y="-196.5" font-family="Helvetica,sans-Serif" font-size="10.00" fill="#000000">locomotor.components.types.</text>
<text text-anchor="middle" x="763.7661" y="-186.5" font-family="Helvetica,sans-Serif" font-size="10.00" fill="#000000">CInteger.fromJSON</text>
</a>
</g>
</g>
<!-- Node8&#45;&gt;Node9 -->
<g id="edge10" class="edge">
<title>Node8&#45;&gt;Node9</title>
<path fill="none" stroke="#191970" d="M636.3635,-321.4794C641.522,-318.7278 646.3562,-315.4365 650.5547,-311.5 683.1901,-280.9008 653.7385,-247.9052 686.5547,-217.5 687.7089,-216.4306 688.9108,-215.4107 690.154,-214.4381"/>
<polygon fill="#191970" stroke="#191970" points="692.4655,-217.1065 698.8893,-208.6813 688.6135,-211.2617 692.4655,-217.1065"/>
</g>
<!-- Node12 -->
<g id="node12" class="node">
<title>Node12</title>
<g id="a_node12"><a xlink:href="classlocomotor_1_1components_1_1types_1_1_c_weighted_integer.html#af46cf72d2c75b781f89dcce0e0e5ef95" target="_top" xlink:title="locomotor.components.types.\lCWeightedInteger.fromJSON">
<polygon fill="#ffffff" stroke="#000000" points="690.7295,-227.5 690.7295,-255.5 836.8027,-255.5 836.8027,-227.5 690.7295,-227.5"/>
<text text-anchor="start" x="698.7295" y="-243.5" font-family="Helvetica,sans-Serif" font-size="10.00" fill="#000000">locomotor.components.types.</text>
<text text-anchor="middle" x="763.7661" y="-233.5" font-family="Helvetica,sans-Serif" font-size="10.00" fill="#000000">CWeightedInteger.fromJSON</text>
</a>
</g>
</g>
<!-- Node8&#45;&gt;Node12 -->
<g id="edge13" class="edge">
<title>Node8&#45;&gt;Node12</title>
<path fill="none" stroke="#191970" d="M625.1061,-321.3979C633.7446,-318.4828 642.5073,-315.1671 650.5547,-311.5 681.1851,-297.5422 713.6115,-276.8051 735.8732,-261.5225"/>
<polygon fill="#191970" stroke="#191970" points="737.9595,-264.3349 744.1732,-255.7535 733.9642,-258.587 737.9595,-264.3349"/>
</g>
<!-- Node14 -->
<g id="node14" class="node">
<title>Node14</title>
<g id="a_node14"><a xlink:href="classlocomotor_1_1components_1_1types_1_1_c_float.html#a06da3e8fd1fdad2882c5878589963311" target="_top" xlink:title="locomotor.components.types.\lCFloat.fromJSON">
<polygon fill="#ffffff" stroke="#000000" points="690.7295,-86.5 690.7295,-114.5 836.8027,-114.5 836.8027,-86.5 690.7295,-86.5"/>
<text text-anchor="start" x="698.7295" y="-102.5" font-family="Helvetica,sans-Serif" font-size="10.00" fill="#000000">locomotor.components.types.</text>
<text text-anchor="middle" x="763.7661" y="-92.5" font-family="Helvetica,sans-Serif" font-size="10.00" fill="#000000">CFloat.fromJSON</text>
</a>
</g>
</g>
<!-- Node8&#45;&gt;Node14 -->
<g id="edge16" class="edge">
<title>Node8&#45;&gt;Node14</title>
<path fill="none" stroke="#191970" d="M637.9639,-321.3431C642.5966,-318.6157 646.881,-315.3675 650.5547,-311.5 695.0982,-264.6066 653.1821,-225.902 686.5547,-170.5 698.4801,-150.7026 717.7277,-133.2341 734.0214,-120.6992"/>
<polygon fill="#191970" stroke="#191970" points="736.2796,-123.3818 742.2184,-114.6078 732.1043,-117.7633 736.2796,-123.3818"/>
</g>
<!-- Node17 -->
<g id="node17" class="node">
<title>Node17</title>
<g id="a_node17"><a xlink:href="classlocomotor_1_1components_1_1types_1_1_c_boolean.html#a1bdea5ac8c77993c2f48a0a99a0ce032" target="_top" xlink:title="locomotor.components.types.\lCBoolean.fromJSON">
<polygon fill="#ffffff" stroke="#000000" points="690.7295,-20.5 690.7295,-48.5 836.8027,-48.5 836.8027,-20.5 690.7295,-20.5"/>
<text text-anchor="start" x="698.7295" y="-36.5" font-family="Helvetica,sans-Serif" font-size="10.00" fill="#000000">locomotor.components.types.</text>
<text text-anchor="middle" x="763.7661" y="-26.5" font-family="Helvetica,sans-Serif" font-size="10.00" fill="#000000">CBoolean.fromJSON</text>
</a>
</g>
</g>
<!-- Node8&#45;&gt;Node17 -->
<g id="edge20" class="edge">
<title>Node8&#45;&gt;Node17</title>
<path fill="none" stroke="#191970" d="M639.0992,-321.276C643.3615,-318.5574 647.2579,-315.33 650.5547,-311.5 719.4869,-231.4189 625.8243,-162.9666 686.5547,-76.5 693.2703,-66.9384 702.8762,-59.3392 713.0425,-53.3839"/>
<polygon fill="#191970" stroke="#191970" points="714.891,-56.3645 722.0622,-48.5655 711.5927,-50.1903 714.891,-56.3645"/>
</g>
<!-- Node20 -->
<g id="node20" class="node">
<title>Node20</title>
<g id="a_node20"><a xlink:href="classlocomotor_1_1components_1_1types_1_1_c_interval_integer.html#a7325219bbe286c1651eac4d7cb1dcf89" target="_top" xlink:title="locomotor.components.types.\lCIntervalInteger.fromJSON">
<polygon fill="#ffffff" stroke="#000000" points="690.7295,-368.5 690.7295,-396.5 836.8027,-396.5 836.8027,-368.5 690.7295,-368.5"/>
<text text-anchor="start" x="698.7295" y="-384.5" font-family="Helvetica,sans-Serif" font-size="10.00" fill="#000000">locomotor.components.types.</text>
<text text-anchor="middle" x="763.7661" y="-374.5" font-family="Helvetica,sans-Serif" font-size="10.00" fill="#000000">CIntervalInteger.fromJSON</text>
</a>
</g>
</g>
<!-- Node8&#45;&gt;Node20 -->
<g id="edge23" class="edge">
<title>Node8&#45;&gt;Node20</title>
<path fill="none" stroke="#191970" d="M630.2185,-349.5379C651.2216,-354.7219 675.2127,-360.6433 697.0121,-366.0238"/>
<polygon fill="#191970" stroke="#191970" points="696.3078,-369.455 706.8552,-368.4533 697.9852,-362.6589 696.3078,-369.455"/>
</g>
<!-- Node24 -->
<g id="node24" class="node">
<title>Node24</title>
<g id="a_node24"><a xlink:href="classlocomotor_1_1components_1_1types_1_1_c_interval_double.html#a05b10f1076a88b090171dc5c92d1e51a" target="_top" xlink:title="locomotor.components.types.\lCIntervalDouble.fromJSON">
<polygon fill="#ffffff" stroke="#000000" points="690.7295,-321.5 690.7295,-349.5 836.8027,-349.5 836.8027,-321.5 690.7295,-321.5"/>
<text text-anchor="start" x="698.7295" y="-337.5" font-family="Helvetica,sans-Serif" font-size="10.00" fill="#000000">locomotor.components.types.</text>
<text text-anchor="middle" x="763.7661" y="-327.5" font-family="Helvetica,sans-Serif" font-size="10.00" fill="#000000">CIntervalDouble.fromJSON</text>
</a>
</g>
</g>
<!-- Node8&#45;&gt;Node24 -->
<g id="edge27" class="edge">
<title>Node8&#45;&gt;Node24</title>
<path fill="none" stroke="#191970" d="M648.8769,-335.5C659.2639,-335.5 669.9777,-335.5 680.494,-335.5"/>
<polygon fill="#191970" stroke="#191970" points="680.499,-339.0001 690.499,-335.5 680.499,-332.0001 680.499,-339.0001"/>
</g>
<!-- Node26 -->
<g id="node26" class="node">
<title>Node26</title>
<g id="a_node26"><a xlink:href="classlocomotor_1_1components_1_1types_1_1_c_mapped_string_list.html#a3834a44c64a57457335f1f296b272c79" target="_top" xlink:title="locomotor.components.types.\lCMappedStringList.fromJSON">
<polygon fill="#ffffff" stroke="#000000" points="688.52,-535.5 688.52,-563.5 839.0122,-563.5 839.0122,-535.5 688.52,-535.5"/>
<text text-anchor="start" x="696.52" y="-551.5" font-family="Helvetica,sans-Serif" font-size="10.00" fill="#000000">locomotor.components.types.</text>
<text text-anchor="middle" x="763.7661" y="-541.5" font-family="Helvetica,sans-Serif" font-size="10.00" fill="#000000">CMappedStringList.fromJSON</text>
</a>
</g>
</g>
<!-- Node8&#45;&gt;Node26 -->
<g id="edge31" class="edge">
<title>Node8&#45;&gt;Node26</title>
<path fill="none" stroke="#191970" d="M639.4859,-349.5702C643.5463,-352.0822 647.2991,-355.0336 650.5547,-358.5 699.267,-410.3673 641.4814,-459.4408 686.5547,-514.5 691.7333,-520.8259 698.2997,-526.0544 705.4078,-530.3639"/>
<polygon fill="#191970" stroke="#191970" points="704.175,-533.6757 714.6376,-535.3446 707.4994,-527.5154 704.175,-533.6757"/>
</g>
<!-- Node29 -->
<g id="node29" class="node">
<title>Node29</title>
<g id="a_node29"><a xlink:href="classlocomotor_1_1components_1_1types_1_1_c_tree.html#a82724a3000f4e1d5ff5fed5365e1480f" target="_top" xlink:title="locomotor.components.types.\lCTree.fromJSON">
<polygon fill="#ffffff" stroke="#000000" points="690.7295,-458.5 690.7295,-486.5 836.8027,-486.5 836.8027,-458.5 690.7295,-458.5"/>
<text text-anchor="start" x="698.7295" y="-474.5" font-family="Helvetica,sans-Serif" font-size="10.00" fill="#000000">locomotor.components.types.</text>
<text text-anchor="middle" x="763.7661" y="-464.5" font-family="Helvetica,sans-Serif" font-size="10.00" fill="#000000">CTree.fromJSON</text>
</a>
</g>
</g>
<!-- Node8&#45;&gt;Node29 -->
<g id="edge34" class="edge">
<title>Node8&#45;&gt;Node29</title>
<path fill="none" stroke="#191970" d="M634.0699,-349.5112C639.8805,-352.0372 645.487,-355.0081 650.5547,-358.5 672.2216,-373.4295 668.5257,-386.3349 686.5547,-405.5 702.2534,-422.188 721.7534,-439.0828 737.2289,-451.7324"/>
<polygon fill="#191970" stroke="#191970" points="735.3821,-454.7395 745.3626,-458.2948 739.7776,-449.2916 735.3821,-454.7395"/>
</g>
<!-- Node10 -->
<g id="node10" class="node">
<title>Node10</title>
<g id="a_node10"><a xlink:href="classlocomotor_1_1components_1_1types_1_1_c_long.html#aef23d6d36c93f0f66355edabbc586fd4" target="_top" xlink:title="locomotor.components.types.\lCLong.value">
<polygon fill="#ffffff" stroke="#000000" points="898.374,-180.5 898.374,-208.5 1044.4473,-208.5 1044.4473,-180.5 898.374,-180.5"/>
<text text-anchor="start" x="906.374" y="-196.5" font-family="Helvetica,sans-Serif" font-size="10.00" fill="#000000">locomotor.components.types.</text>
<text text-anchor="middle" x="971.4106" y="-186.5" font-family="Helvetica,sans-Serif" font-size="10.00" fill="#000000">CLong.value</text>
</a>
</g>
</g>
<!-- Node9&#45;&gt;Node10 -->
<g id="edge11" class="edge">
<title>Node9&#45;&gt;Node10</title>
<path fill="none" stroke="#191970" d="M836.9738,-194.5C853.4117,-194.5 870.974,-194.5 887.7997,-194.5"/>
<polygon fill="#191970" stroke="#191970" points="888.1642,-198.0001 898.1642,-194.5 888.1641,-191.0001 888.1642,-198.0001"/>
</g>
<!-- Node11 -->
<g id="node11" class="node">
<title>Node11</title>
<g id="a_node11"><a xlink:href="classlocomotor_1_1components_1_1types_1_1_c_integer.html#a4af1398e767f4254cc4865f7b8fd9e3e" target="_top" xlink:title="locomotor.components.types.\lCInteger.CInteger">
<polygon fill="#ffffff" stroke="#000000" points="898.374,-133.5 898.374,-161.5 1044.4473,-161.5 1044.4473,-133.5 898.374,-133.5"/>
<text text-anchor="start" x="906.374" y="-149.5" font-family="Helvetica,sans-Serif" font-size="10.00" fill="#000000">locomotor.components.types.</text>
<text text-anchor="middle" x="971.4106" y="-139.5" font-family="Helvetica,sans-Serif" font-size="10.00" fill="#000000">CInteger.CInteger</text>
</a>
</g>
</g>
<!-- Node9&#45;&gt;Node11 -->
<g id="edge12" class="edge">
<title>Node9&#45;&gt;Node11</title>
<path fill="none" stroke="#191970" d="M825.7851,-180.4621C848.9972,-175.2081 875.5562,-169.1965 899.5818,-163.7583"/>
<polygon fill="#191970" stroke="#191970" points="900.3721,-167.1681 909.3527,-161.5467 898.8267,-160.3408 900.3721,-167.1681"/>
</g>
<!-- Node12&#45;&gt;Node10 -->
<g id="edge14" class="edge">
<title>Node12&#45;&gt;Node10</title>
<path fill="none" stroke="#191970" d="M825.7851,-227.4621C848.9972,-222.2081 875.5562,-216.1965 899.5818,-210.7583"/>
<polygon fill="#191970" stroke="#191970" points="900.3721,-214.1681 909.3527,-208.5467 898.8267,-207.3408 900.3721,-214.1681"/>
</g>
<!-- Node13 -->
<g id="node13" class="node">
<title>Node13</title>
<g id="a_node13"><a xlink:href="classlocomotor_1_1components_1_1types_1_1_c_weighted_integer.html#ab843196350aff5010fe82cdfc6d1a432" target="_top" xlink:title="locomotor.components.types.\lCWeightedInteger.CWeightedInteger">
<polygon fill="#ffffff" stroke="#000000" points="881.8701,-227.5 881.8701,-255.5 1060.9512,-255.5 1060.9512,-227.5 881.8701,-227.5"/>
<text text-anchor="start" x="889.8701" y="-243.5" font-family="Helvetica,sans-Serif" font-size="10.00" fill="#000000">locomotor.components.types.</text>
<text text-anchor="middle" x="971.4106" y="-233.5" font-family="Helvetica,sans-Serif" font-size="10.00" fill="#000000">CWeightedInteger.CWeightedInteger</text>
</a>
</g>
</g>
<!-- Node12&#45;&gt;Node13 -->
<g id="edge15" class="edge">
<title>Node12&#45;&gt;Node13</title>
<path fill="none" stroke="#191970" d="M836.9738,-241.5C848.172,-241.5 859.892,-241.5 871.5455,-241.5"/>
<polygon fill="#191970" stroke="#191970" points="871.7546,-245.0001 881.7545,-241.5 871.7545,-238.0001 871.7546,-245.0001"/>
</g>
<!-- Node15 -->
<g id="node15" class="node">
<title>Node15</title>
<g id="a_node15"><a xlink:href="classlocomotor_1_1components_1_1types_1_1_c_float.html#a0d891fca54de58865525ca2d63c39b65" target="_top" xlink:title="locomotor.components.types.\lCFloat.value">
<polygon fill="#ffffff" stroke="#000000" points="1101.8438,-67.5 1101.8438,-95.5 1247.917,-95.5 1247.917,-67.5 1101.8438,-67.5"/>
<text text-anchor="start" x="1109.8438" y="-83.5" font-family="Helvetica,sans-Serif" font-size="10.00" fill="#000000">locomotor.components.types.</text>
<text text-anchor="middle" x="1174.8804" y="-73.5" font-family="Helvetica,sans-Serif" font-size="10.00" fill="#000000">CFloat.value</text>
</a>
</g>
</g>
<!-- Node14&#45;&gt;Node15 -->
<g id="edge17" class="edge">
<title>Node14&#45;&gt;Node15</title>
<path fill="none" stroke="#191970" d="M818.6769,-86.4503C837.0787,-82.3887 857.7948,-78.511 876.9775,-76.5 949.1949,-68.9293 1031.7882,-71.165 1091.6627,-74.7287"/>
<polygon fill="#191970" stroke="#191970" points="1091.622,-78.2328 1101.8196,-75.3589 1092.0556,-71.2462 1091.622,-78.2328"/>
</g>
<!-- Node16 -->
<g id="node16" class="node">
<title>Node16</title>
<g id="a_node16"><a xlink:href="classlocomotor_1_1components_1_1types_1_1_c_float.html#aef395a3a5c07d801027ac513d66e27bc" target="_top" xlink:title="locomotor.components.types.\lCFloat.CFloat">
<polygon fill="#ffffff" stroke="#000000" points="898.374,-86.5 898.374,-114.5 1044.4473,-114.5 1044.4473,-86.5 898.374,-86.5"/>
<text text-anchor="start" x="906.374" y="-102.5" font-family="Helvetica,sans-Serif" font-size="10.00" fill="#000000">locomotor.components.types.</text>
<text text-anchor="middle" x="971.4106" y="-92.5" font-family="Helvetica,sans-Serif" font-size="10.00" fill="#000000">CFloat.CFloat</text>
</a>
</g>
</g>
<!-- Node14&#45;&gt;Node16 -->
<g id="edge18" class="edge">
<title>Node14&#45;&gt;Node16</title>
<path fill="none" stroke="#191970" d="M836.9738,-100.5C853.4117,-100.5 870.974,-100.5 887.7997,-100.5"/>
<polygon fill="#191970" stroke="#191970" points="888.1642,-104.0001 898.1642,-100.5 888.1641,-97.0001 888.1642,-104.0001"/>
</g>
<!-- Node16&#45;&gt;Node15 -->
<g id="edge19" class="edge">
<title>Node16&#45;&gt;Node15</title>
<path fill="none" stroke="#191970" d="M1044.5804,-93.6674C1059.8143,-92.2449 1075.978,-90.7355 1091.547,-89.2817"/>
<polygon fill="#191970" stroke="#191970" points="1092.0451,-92.7505 1101.6764,-88.3358 1091.3942,-85.7808 1092.0451,-92.7505"/>
</g>
<!-- Node18 -->
<g id="node18" class="node">
<title>Node18</title>
<g id="a_node18"><a xlink:href="classlocomotor_1_1components_1_1types_1_1_c_boolean.html#a04219e3dc4a138fa88ee6876fb62eebc" target="_top" xlink:title="locomotor.components.types.\lCBoolean.CBoolean">
<polygon fill="#ffffff" stroke="#000000" points="898.374,-.5 898.374,-28.5 1044.4473,-28.5 1044.4473,-.5 898.374,-.5"/>
<text text-anchor="start" x="906.374" y="-16.5" font-family="Helvetica,sans-Serif" font-size="10.00" fill="#000000">locomotor.components.types.</text>
<text text-anchor="middle" x="971.4106" y="-6.5" font-family="Helvetica,sans-Serif" font-size="10.00" fill="#000000">CBoolean.CBoolean</text>
</a>
</g>
</g>
<!-- Node17&#45;&gt;Node18 -->
<g id="edge21" class="edge">
<title>Node17&#45;&gt;Node18</title>
<path fill="none" stroke="#191970" d="M836.9738,-27.4487C853.4117,-25.8655 870.974,-24.1739 887.7997,-22.5533"/>
<polygon fill="#191970" stroke="#191970" points="888.5458,-25.9977 898.1642,-21.555 887.8746,-19.0299 888.5458,-25.9977"/>
</g>
<!-- Node19 -->
<g id="node19" class="node">
<title>Node19</title>
<g id="a_node19"><a xlink:href="classlocomotor_1_1components_1_1types_1_1_c_boolean.html#a9eac04fa64318139aa527377b2e03cc4" target="_top" xlink:title="locomotor.components.types.\lCBoolean.value">
<polygon fill="#ffffff" stroke="#000000" points="1101.8438,-.5 1101.8438,-28.5 1247.917,-28.5 1247.917,-.5 1101.8438,-.5"/>
<text text-anchor="start" x="1109.8438" y="-16.5" font-family="Helvetica,sans-Serif" font-size="10.00" fill="#000000">locomotor.components.types.</text>
<text text-anchor="middle" x="1174.8804" y="-6.5" font-family="Helvetica,sans-Serif" font-size="10.00" fill="#000000">CBoolean.value</text>
</a>
</g>
</g>
<!-- Node18&#45;&gt;Node19 -->
<g id="edge22" class="edge">
<title>Node18&#45;&gt;Node19</title>
<path fill="none" stroke="#191970" d="M1044.5804,-14.5C1059.8143,-14.5 1075.978,-14.5 1091.547,-14.5"/>
<polygon fill="#191970" stroke="#191970" points="1091.6764,-18.0001 1101.6764,-14.5 1091.6763,-11.0001 1091.6764,-18.0001"/>
</g>
<!-- Node21 -->
<g id="node21" class="node">
<title>Node21</title>
<g id="a_node21"><a xlink:href="classlocomotor_1_1components_1_1types_1_1_c_interval.html#a8977ca8c87b00639da116d1441a878ec" target="_top" xlink:title="locomotor.components.types.\lCInterval.min">
<polygon fill="#ffffff" stroke="#000000" points="898.374,-368.5 898.374,-396.5 1044.4473,-396.5 1044.4473,-368.5 898.374,-368.5"/>
<text text-anchor="start" x="906.374" y="-384.5" font-family="Helvetica,sans-Serif" font-size="10.00" fill="#000000">locomotor.components.types.</text>
<text text-anchor="middle" x="971.4106" y="-374.5" font-family="Helvetica,sans-Serif" font-size="10.00" fill="#000000">CInterval.min</text>
</a>
</g>
</g>
<!-- Node20&#45;&gt;Node21 -->
<g id="edge24" class="edge">
<title>Node20&#45;&gt;Node21</title>
<path fill="none" stroke="#191970" d="M836.9738,-382.5C853.4117,-382.5 870.974,-382.5 887.7997,-382.5"/>
<polygon fill="#191970" stroke="#191970" points="888.1642,-386.0001 898.1642,-382.5 888.1641,-379.0001 888.1642,-386.0001"/>
</g>
<!-- Node22 -->
<g id="node22" class="node">
<title>Node22</title>
<g id="a_node22"><a xlink:href="classlocomotor_1_1components_1_1types_1_1_c_interval.html#a63edd36c00e0027edd899384e6f168f9" target="_top" xlink:title="locomotor.components.types.\lCInterval.max">
<polygon fill="#ffffff" stroke="#000000" points="898.374,-321.5 898.374,-349.5 1044.4473,-349.5 1044.4473,-321.5 898.374,-321.5"/>
<text text-anchor="start" x="906.374" y="-337.5" font-family="Helvetica,sans-Serif" font-size="10.00" fill="#000000">locomotor.components.types.</text>
<text text-anchor="middle" x="971.4106" y="-327.5" font-family="Helvetica,sans-Serif" font-size="10.00" fill="#000000">CInterval.max</text>
</a>
</g>
</g>
<!-- Node20&#45;&gt;Node22 -->
<g id="edge25" class="edge">
<title>Node20&#45;&gt;Node22</title>
<path fill="none" stroke="#191970" d="M825.7851,-368.4621C848.9972,-363.2081 875.5562,-357.1965 899.5818,-351.7583"/>
<polygon fill="#191970" stroke="#191970" points="900.3721,-355.1681 909.3527,-349.5467 898.8267,-348.3408 900.3721,-355.1681"/>
</g>
<!-- Node23 -->
<g id="node23" class="node">
<title>Node23</title>
<g id="a_node23"><a xlink:href="classlocomotor_1_1components_1_1types_1_1_c_interval_integer.html#a4ece5be3d0255219efc9a1ec16f3775c" target="_top" xlink:title="locomotor.components.types.\lCIntervalInteger.CIntervalInteger">
<polygon fill="#ffffff" stroke="#000000" points="891.1475,-415.5 891.1475,-443.5 1051.6738,-443.5 1051.6738,-415.5 891.1475,-415.5"/>
<text text-anchor="start" x="899.1475" y="-431.5" font-family="Helvetica,sans-Serif" font-size="10.00" fill="#000000">locomotor.components.types.</text>
<text text-anchor="middle" x="971.4106" y="-421.5" font-family="Helvetica,sans-Serif" font-size="10.00" fill="#000000">CIntervalInteger.CIntervalInteger</text>
</a>
</g>
</g>
<!-- Node20&#45;&gt;Node23 -->
<g id="edge26" class="edge">
<title>Node20&#45;&gt;Node23</title>
<path fill="none" stroke="#191970" d="M825.7851,-396.5379C848.9972,-401.7919 875.5562,-407.8035 899.5818,-413.2417"/>
<polygon fill="#191970" stroke="#191970" points="898.8267,-416.6592 909.3527,-415.4533 900.3721,-409.8319 898.8267,-416.6592"/>
</g>
<!-- Node24&#45;&gt;Node21 -->
<g id="edge28" class="edge">
<title>Node24&#45;&gt;Node21</title>
<path fill="none" stroke="#191970" d="M825.7851,-349.5379C848.9972,-354.7919 875.5562,-360.8035 899.5818,-366.2417"/>
<polygon fill="#191970" stroke="#191970" points="898.8267,-369.6592 909.3527,-368.4533 900.3721,-362.8319 898.8267,-369.6592"/>
</g>
<!-- Node24&#45;&gt;Node22 -->
<g id="edge29" class="edge">
<title>Node24&#45;&gt;Node22</title>
<path fill="none" stroke="#191970" d="M836.9738,-335.5C853.4117,-335.5 870.974,-335.5 887.7997,-335.5"/>
<polygon fill="#191970" stroke="#191970" points="888.1642,-339.0001 898.1642,-335.5 888.1641,-332.0001 888.1642,-339.0001"/>
</g>
<!-- Node25 -->
<g id="node25" class="node">
<title>Node25</title>
<g id="a_node25"><a xlink:href="classlocomotor_1_1components_1_1types_1_1_c_interval_double.html#a1c646d0efc9520469e000c2282ca3386" target="_top" xlink:title="locomotor.components.types.\lCIntervalDouble.CIntervalDouble">
<polygon fill="#ffffff" stroke="#000000" points="890.3174,-274.5 890.3174,-302.5 1052.5039,-302.5 1052.5039,-274.5 890.3174,-274.5"/>
<text text-anchor="start" x="898.3174" y="-290.5" font-family="Helvetica,sans-Serif" font-size="10.00" fill="#000000">locomotor.components.types.</text>
<text text-anchor="middle" x="971.4106" y="-280.5" font-family="Helvetica,sans-Serif" font-size="10.00" fill="#000000">CIntervalDouble.CIntervalDouble</text>
</a>
</g>
</g>
<!-- Node24&#45;&gt;Node25 -->
<g id="edge30" class="edge">
<title>Node24&#45;&gt;Node25</title>
<path fill="none" stroke="#191970" d="M825.7851,-321.4621C848.9972,-316.2081 875.5562,-310.1965 899.5818,-304.7583"/>
<polygon fill="#191970" stroke="#191970" points="900.3721,-308.1681 909.3527,-302.5467 898.8267,-301.3408 900.3721,-308.1681"/>
</g>
<!-- Node27 -->
<g id="node27" class="node">
<title>Node27</title>
<g id="a_node27"><a xlink:href="classlocomotor_1_1components_1_1types_1_1_c_string_list.html#aa9063c07592d04038c8a37cae1214de5" target="_top" xlink:title="locomotor.components.types.\lCStringList.treeFromJSON">
<polygon fill="#ffffff" stroke="#000000" points="898.374,-548.5 898.374,-576.5 1044.4473,-576.5 1044.4473,-548.5 898.374,-548.5"/>
<text text-anchor="start" x="906.374" y="-564.5" font-family="Helvetica,sans-Serif" font-size="10.00" fill="#000000">locomotor.components.types.</text>
<text text-anchor="middle" x="971.4106" y="-554.5" font-family="Helvetica,sans-Serif" font-size="10.00" fill="#000000">CStringList.treeFromJSON</text>
</a>
</g>
</g>
<!-- Node26&#45;&gt;Node27 -->
<g id="edge32" class="edge">
<title>Node26&#45;&gt;Node27</title>
<path fill="none" stroke="#191970" d="M839.0241,-554.2117C854.9792,-555.2106 871.9102,-556.2706 888.1428,-557.2869"/>
<polygon fill="#191970" stroke="#191970" points="887.9456,-560.7813 898.1448,-557.913 888.383,-553.7949 887.9456,-560.7813"/>
</g>
<!-- Node28 -->
<g id="node28" class="node">
<title>Node28</title>
<g id="a_node28"><a xlink:href="classlocomotor_1_1components_1_1types_1_1_c_mapped_string_list.html#a6ee84a38e1c5b58c08a7e9557cc959e1" target="_top" xlink:title="locomotor.components.types.\lCMappedStringList.CMappedStringList">
<polygon fill="#ffffff" stroke="#000000" points="876.9775,-595.5 876.9775,-623.5 1065.8438,-623.5 1065.8438,-595.5 876.9775,-595.5"/>
<text text-anchor="start" x="884.9775" y="-611.5" font-family="Helvetica,sans-Serif" font-size="10.00" fill="#000000">locomotor.components.types.</text>
<text text-anchor="middle" x="971.4106" y="-601.5" font-family="Helvetica,sans-Serif" font-size="10.00" fill="#000000">CMappedStringList.CMappedStringList</text>
</a>
</g>
</g>
<!-- Node26&#45;&gt;Node28 -->
<g id="edge33" class="edge">
<title>Node26&#45;&gt;Node28</title>
<path fill="none" stroke="#191970" d="M810.0118,-563.5014C820.2375,-566.7012 830.9971,-570.1487 840.9775,-573.5 857.1039,-578.915 860.6899,-581.5912 876.9775,-586.5 884.3614,-588.7253 892.1186,-590.8892 899.8805,-592.9425"/>
<polygon fill="#191970" stroke="#191970" points="899.129,-596.3633 909.687,-595.4807 900.883,-589.5866 899.129,-596.3633"/>
</g>
<!-- Node29&#45;&gt;Node29 -->
<g id="edge36" class="edge">
<title>Node29&#45;&gt;Node29</title>
<path fill="none" stroke="#191970" d="M731.2809,-486.5305C722.1369,-495.8898 732.9653,-505 763.7661,-505 783.0166,-505 794.4654,-501.4413 798.1124,-496.4873"/>
<polygon fill="#191970" stroke="#191970" points="801.5292,-495.7171 796.2513,-486.5305 794.6484,-497.0033 801.5292,-495.7171"/>
</g>
<!-- Node30 -->
<g id="node30" class="node">
<title>Node30</title>
<g id="a_node30"><a xlink:href="classlocomotor_1_1components_1_1types_1_1_c_tree.html#af0e7a198496b1627d0ff15ce0e6de1f2" target="_top" xlink:title="locomotor.components.types.\lCTree.CTree">
<polygon fill="#ffffff" stroke="#000000" points="1101.8438,-479.5 1101.8438,-507.5 1247.917,-507.5 1247.917,-479.5 1101.8438,-479.5"/>
<text text-anchor="start" x="1109.8438" y="-495.5" font-family="Helvetica,sans-Serif" font-size="10.00" fill="#000000">locomotor.components.types.</text>
<text text-anchor="middle" x="1174.8804" y="-485.5" font-family="Helvetica,sans-Serif" font-size="10.00" fill="#000000">CTree.CTree</text>
</a>
</g>
</g>
<!-- Node29&#45;&gt;Node30 -->
<g id="edge35" class="edge">
<title>Node29&#45;&gt;Node30</title>
<path fill="none" stroke="#191970" d="M837.2651,-476.2544C908.624,-479.8994 1016.8038,-485.4253 1091.3794,-489.2347"/>
<polygon fill="#191970" stroke="#191970" points="1091.5065,-492.7457 1101.672,-489.7605 1091.8636,-485.7548 1091.5065,-492.7457"/>
</g>
<!-- Node31 -->
<g id="node31" class="node">
<title>Node31</title>
<g id="a_node31"><a xlink:href="classlocomotor_1_1components_1_1types_1_1_c_tree.html#a74382cb3a3153edc32f1cfed8c4ee364" target="_top" xlink:title="locomotor.components.types.\lCTree.addChild">
<polygon fill="#ffffff" stroke="#000000" points="898.374,-501.5 898.374,-529.5 1044.4473,-529.5 1044.4473,-501.5 898.374,-501.5"/>
<text text-anchor="start" x="906.374" y="-517.5" font-family="Helvetica,sans-Serif" font-size="10.00" fill="#000000">locomotor.components.types.</text>
<text text-anchor="middle" x="971.4106" y="-507.5" font-family="Helvetica,sans-Serif" font-size="10.00" fill="#000000">CTree.addChild</text>
</a>
</g>
</g>
<!-- Node29&#45;&gt;Node31 -->
<g id="edge37" class="edge">
<title>Node29&#45;&gt;Node31</title>
<path fill="none" stroke="#191970" d="M831.4694,-486.5203C851.4038,-490.6484 873.3677,-495.1968 893.8683,-499.4422"/>
<polygon fill="#191970" stroke="#191970" points="893.2973,-502.8981 903.7994,-501.4987 894.7169,-496.0436 893.2973,-502.8981"/>
</g>
<!-- Node31&#45;&gt;Node30 -->
<g id="edge38" class="edge">
<title>Node31&#45;&gt;Node30</title>
<path fill="none" stroke="#191970" d="M1044.5804,-507.5886C1059.8143,-505.9414 1075.978,-504.1937 1091.547,-502.5104"/>
<polygon fill="#191970" stroke="#191970" points="1092.1106,-505.9699 1101.6764,-501.4151 1091.358,-499.0105 1092.1106,-505.9699"/>
</g>
</g>
</svg>
        <g id="navigator" transform="translate(0 0)" fill="#404254">
                <rect fill="#f2f5e9" fill-opacity="0.5" stroke="#606060" stroke-width=".5" x="0" y="0" width="60" height="60"/>
                <use id="zoomplus" xlink:href="#zoomPlus" x="17" y="9" onmousedown="handleZoom(evt,'in')"/>
                <use id="zoomminus" xlink:href="#zoomMin" x="42" y="9" onmousedown="handleZoom(evt,'out')"/>
                <use id="reset" xlink:href="#resetDef" x="30" y="36" onmousedown="handleReset()"/>
                <g id="arrowUp" xlink:href="#dirArrow" transform="translate(30 24)" onmousedown="handlePan(0,-1)">
                  <use xlink:href="#rim" fill="#404040">
                        <set attributeName="fill" to="#808080" begin="arrowUp.mouseover" end="arrowUp.mouseout"/>
                  </use>
                  <path fill="none" stroke="white" stroke-width="1.5" d="M0,-3.0v7 M-2.5,-0.5L0,-3.0L2.5,-0.5"/>
                </g>
                <g id="arrowRight" xlink:href="#dirArrow" transform="rotate(90) translate(36 -43)" onmousedown="handlePan(1,0)">
                  <use xlink:href="#rim" fill="#404040">
                        <set attributeName="fill" to="#808080" begin="arrowRight.mouseover" end="arrowRight.mouseout"/>
                  </use>
                  <path fill="none" stroke="white" stroke-width="1.5" d="M0,-3.0v7 M-2.5,-0.5L0,-3.0L2.5,-0.5"/>
                </g>
                <g id="arrowDown" xlink:href="#dirArrow" transform="rotate(180) translate(-30 -48)" onmousedown="handlePan(0,1)">
                  <use xlink:href="#rim" fill="#404040">
                        <set attributeName="fill" to="#808080" begin="arrowDown.mouseover" end="arrowDown.mouseout"/>
                  </use>
                  <path fill="none" stroke="white" stroke-width="1.5" d="M0,-3.0v7 M-2.5,-0.5L0,-3.0L2.5,-0.5"/>
                </g>
                <g id="arrowLeft" xlink:href="#dirArrow" transform="rotate(270) translate(-36 17)" onmousedown="handlePan(-1,0)">
                  <use xlink:href="#rim" fill="#404040">
                        <set attributeName="fill" to="#808080" begin="arrowLeft.mouseover" end="arrowLeft.mouseout"/>
                  </use>
                  <path fill="none" stroke="white" stroke-width="1.5" d="M0,-3.0v7 M-2.5,-0.5L0,-3.0L2.5,-0.5"/>
                </g>
        </g>
        <svg viewBox="0 0 15 15" width="100%" height="30px" preserveAspectRatio="xMaxYMin meet">
         <g id="arrow_out" transform="scale(0.3 0.3)">
          <a xlink:href="classlocomotor_1_1components_1_1models_1_1_item_full_afe56c5f49cb59d04ec69bbf32b58a2f8_cgraph_org.svg" target="_base">
           <rect id="button" ry="5" rx="5" y="6" x="6" height="38" width="38"
                fill="#f2f5e9" fill-opacity="0.5" stroke="#606060" stroke-width="1.0"/>
           <path id="arrow"
             d="M 11.500037,31.436501 C 11.940474,20.09759 22.043105,11.32322 32.158766,21.979434 L 37.068811,17.246167 C 37.068811,17.246167 37.088388,32 37.088388,32 L 22.160133,31.978069 C 22.160133,31.978069 26.997745,27.140456 26.997745,27.140456 C 18.528582,18.264221 13.291696,25.230495 11.500037,31.436501 z"
             style="fill:#404040;"/>
          </a>
         </g>
        </svg>
</svg>
