<?xml version="1.0" encoding="UTF-8" standalone="no"?>
<!DOCTYPE svg PUBLIC "-//W3C//DTD SVG 1.1//EN"
 "http://www.w3.org/Graphics/SVG/1.1/DTD/svg11.dtd">
<!-- Generated by graphviz version 2.40.1 (20161225.0304)
 -->
<!-- Title: toJSON Pages: 1 -->
<svg width="572pt" height="37pt"
 viewBox="0.00 0.00 571.85 37.00" xmlns="http://www.w3.org/2000/svg" xmlns:xlink="http://www.w3.org/1999/xlink">
<g id="graph0" class="graph" transform="scale(1 1) rotate(0) translate(4 33)">
<title>toJSON</title>
<polygon fill="#ffffff" stroke="transparent" points="-4,4 -4,-33 567.8457,-33 567.8457,4 -4,4"/>
<!-- Node1 -->
<g id="node1" class="node">
<title>Node1</title>
<polygon fill="#bfbfbf" stroke="#000000" points="0,-5.5 0,-23.5 51.0098,-23.5 51.0098,-5.5 0,-5.5"/>
<text text-anchor="middle" x="25.5049" y="-11.5" font-family="Helvetica,sans-Serif" font-size="10.00" fill="#000000">toJSON</text>
</g>
<!-- Node2 -->
<g id="node2" class="node">
<title>Node2</title>
<g id="a_node2"><a xlink:href="classlocomotor_1_1core_1_1_comparator.html#a092fb76ad264eeccd8f30eadb70e36e3" target="_top" xlink:title="computeGradeOfItems">
<polygon fill="#ffffff" stroke="#000000" points="87.0098,-5.5 87.0098,-23.5 204.1621,-23.5 204.1621,-5.5 87.0098,-5.5"/>
<text text-anchor="middle" x="145.5859" y="-11.5" font-family="Helvetica,sans-Serif" font-size="10.00" fill="#000000">computeGradeOfItems</text>
</a>
</g>
</g>
<!-- Node1&#45;&gt;Node2 -->
<g id="edge1" class="edge">
<title>Node1&#45;&gt;Node2</title>
<path fill="none" stroke="#191970" d="M61.3617,-14.5C69.3922,-14.5 78.1158,-14.5 86.8041,-14.5"/>
<polygon fill="#191970" stroke="#191970" points="61.2653,-11.0001 51.2653,-14.5 61.2652,-18.0001 61.2653,-11.0001"/>
</g>
<!-- Node3 -->
<g id="node3" class="node">
<title>Node3</title>
<g id="a_node3"><a xlink:href="classlocomotor_1_1components_1_1network_1_1_a_p_i.html#a547463fbc7fb7b485886f0917e2c0b78" target="_top" xlink:title="locomotor.components.network.\lAPI.createHooks">
<polygon fill="#ffffff" stroke="#000000" points="240.1621,-.5 240.1621,-28.5 397.3486,-28.5 397.3486,-.5 240.1621,-.5"/>
<text text-anchor="start" x="248.1621" y="-16.5" font-family="Helvetica,sans-Serif" font-size="10.00" fill="#000000">locomotor.components.network.</text>
<text text-anchor="middle" x="318.7554" y="-6.5" font-family="Helvetica,sans-Serif" font-size="10.00" fill="#000000">API.createHooks</text>
</a>
</g>
</g>
<!-- Node2&#45;&gt;Node3 -->
<g id="edge2" class="edge">
<title>Node2&#45;&gt;Node3</title>
<path fill="none" stroke="#191970" d="M214.3302,-14.5C222.7382,-14.5 231.3808,-14.5 239.922,-14.5"/>
<polygon fill="#191970" stroke="#191970" points="214.2132,-11.0001 204.2132,-14.5 214.2132,-18.0001 214.2132,-11.0001"/>
</g>
<!-- Node4 -->
<g id="node4" class="node">
<title>Node4</title>
<g id="a_node4"><a xlink:href="classlocomotor_1_1core_1_1_main.html#a8b260eecbaabcef8473fd87ada040682" target="_top" xlink:title="locomotor.core.Main.main">
<polygon fill="#ffffff" stroke="#000000" points="433.3486,-5.5 433.3486,-23.5 563.8457,-23.5 563.8457,-5.5 433.3486,-5.5"/>
<text text-anchor="middle" x="498.5972" y="-11.5" font-family="Helvetica,sans-Serif" font-size="10.00" fill="#000000">locomotor.core.Main.main</text>
</a>
</g>
</g>
<!-- Node3&#45;&gt;Node4 -->
<g id="edge3" class="edge">
<title>Node3&#45;&gt;Node4</title>
<path fill="none" stroke="#191970" d="M407.5484,-14.5C416.2367,-14.5 424.939,-14.5 433.3309,-14.5"/>
<polygon fill="#191970" stroke="#191970" points="407.375,-11.0001 397.375,-14.5 407.3749,-18.0001 407.375,-11.0001"/>
</g>
</g>
</svg>
