<?xml version="1.0" encoding="UTF-8" standalone="no"?>
<!DOCTYPE svg PUBLIC "-//W3C//DTD SVG 1.1//EN"
 "http://www.w3.org/Graphics/SVG/1.1/DTD/svg11.dtd">
<!-- Generated by graphviz version 2.40.1 (20161225.0304)
 -->
<!-- Title: ItemFull Pages: 1 -->
<svg width="156pt" height="82pt"
 viewBox="0.00 0.00 155.91 82.00" xmlns="http://www.w3.org/2000/svg" xmlns:xlink="http://www.w3.org/1999/xlink">
<g id="graph0" class="graph" transform="scale(1 1) rotate(0) translate(4 78)">
<title>ItemFull</title>
<polygon fill="#ffffff" stroke="transparent" points="-4,4 -4,-78 151.9063,-78 151.9063,4 -4,4"/>
<!-- Node1 -->
<g id="node1" class="node">
<title>Node1</title>
<polygon fill="#bfbfbf" stroke="#000000" points="32.9434,-.5 32.9434,-18.5 84.5049,-18.5 84.5049,-.5 32.9434,-.5"/>
<text text-anchor="middle" x="58.7241" y="-6.5" font-family="Helvetica,sans-Serif" font-size="10.00" fill="#000000">ItemFull</text>
</g>
<!-- Node2 -->
<g id="node2" class="node">
<title>Node2</title>
<g id="a_node2"><a xlink:href="classlocomotor_1_1components_1_1models_1_1_item.html" target="_top" xlink:title="Item">
<polygon fill="#ffffff" stroke="#000000" points="0,-55.5 0,-73.5 35.4482,-73.5 35.4482,-55.5 0,-55.5"/>
<text text-anchor="middle" x="17.7241" y="-61.5" font-family="Helvetica,sans-Serif" font-size="10.00" fill="#000000">Item</text>
</a>
</g>
</g>
<!-- Node2&#45;&gt;Node1 -->
<g id="edge1" class="edge">
<title>Node2&#45;&gt;Node1</title>
<path fill="none" stroke="#191970" d="M30.6604,-47.1465C37.6648,-37.7503 46.0395,-26.5159 51.8067,-18.7795"/>
<polygon fill="#191970" stroke="#191970" points="27.665,-45.3085 24.4944,-55.4179 33.2772,-49.4922 27.665,-45.3085"/>
</g>
<!-- Node3 -->
<g id="node3" class="node">
<title>Node3</title>
<g id="a_node3"><a xlink:href="interfacelocomotor_1_1components_1_1_j_s_o_n_displayable.html" target="_top" xlink:title="JSONDisplayable">
<polygon fill="#ffffff" stroke="#000000" points="53.542,-55.5 53.542,-73.5 147.9063,-73.5 147.9063,-55.5 53.542,-55.5"/>
<text text-anchor="middle" x="100.7241" y="-61.5" font-family="Helvetica,sans-Serif" font-size="10.00" fill="#000000">JSONDisplayable</text>
</a>
</g>
</g>
<!-- Node3&#45;&gt;Node1 -->
<g id="edge2" class="edge">
<title>Node3&#45;&gt;Node1</title>
<path fill="none" stroke="#191970" d="M87.6938,-47.4365C80.4742,-37.9823 71.779,-26.5956 65.8103,-18.7795"/>
<polygon fill="#191970" stroke="#191970" points="84.9378,-49.5944 93.7887,-55.4179 90.5012,-45.346 84.9378,-49.5944"/>
</g>
</g>
</svg>
