<?xml version="1.0" encoding="UTF-8" standalone="no"?>
<!DOCTYPE svg PUBLIC "-//W3C//DTD SVG 1.1//EN"
 "http://www.w3.org/Graphics/SVG/1.1/DTD/svg11.dtd">
<!-- Generated by graphviz version 2.40.1 (20161225.0304)
 -->
<!-- Title: compare Pages: 1 -->
<!--zoomable 152 -->
<svg id="main" version="1.1" xmlns="http://www.w3.org/2000/svg" xmlns:xlink="http://www.w3.org/1999/xlink" xml:space="preserve" onload="init(evt)">
<style type="text/css"><![CDATA[
.edge:hover path { stroke: red; }
.edge:hover polygon { stroke: red; fill: red; }
]]></style>
<script type="text/javascript"><![CDATA[
var edges = document.getElementsByTagName('g');
if (edges && edges.length) {
  for (var i=0;i<edges.length;i++) {
    if (edges[i].id.substr(0,4)=='edge') {
      edges[i].setAttribute('class','edge');
    }
  }
}
]]></script>
        <defs>
                <circle id="rim" cx="0" cy="0" r="7"/>
                <circle id="rim2" cx="0" cy="0" r="3.5"/>
                <g id="zoomPlus">
                        <use xlink:href="#rim" fill="#404040">
                                <set attributeName="fill" to="#808080" begin="zoomplus.mouseover" end="zoomplus.mouseout"/>
                        </use>
                        <path d="M-4,0h8M0,-4v8" fill="none" stroke="white" stroke-width="1.5" pointer-events="none"/>
                </g>
                <g id="zoomMin">
                        <use xlink:href="#rim" fill="#404040">
                                <set attributeName="fill" to="#808080" begin="zoomminus.mouseover" end="zoomminus.mouseout"/>
                        </use>
                        <path d="M-4,0h8" fill="none" stroke="white" stroke-width="1.5" pointer-events="none"/>
                </g>
                <g id="dirArrow">
                        <path fill="none" stroke="white" stroke-width="1.5" d="M0,-3.0v7 M-2.5,-0.5L0,-3.0L2.5,-0.5"/>
                </g>
               <g id="resetDef">
                       <use xlink:href="#rim2" fill="#404040">
                               <set attributeName="fill" to="#808080" begin="reset.mouseover" end="reset.mouseout"/>
                       </use>
               </g>
        </defs>

<script type="text/javascript">
var viewWidth = 996;
var viewHeight = 152;
var sectionId = 'dynsection-4';
</script>
<script xlink:href="svgpan.js"/>
<svg id="graph" class="graph">
<g id="viewport">
<title>compare</title>
<polygon fill="#ffffff" stroke="transparent" points="-4,4 -4,-148 991.5137,-148 991.5137,4 -4,4"/>
<!-- Node1 -->
<g id="node1" class="node">
<title>Node1</title>
<polygon fill="#bfbfbf" stroke="#000000" points="0,-52.5 0,-70.5 54.9063,-70.5 54.9063,-52.5 0,-52.5"/>
<text text-anchor="middle" x="27.4531" y="-58.5" font-family="Helvetica,sans-Serif" font-size="10.00" fill="#000000">compare</text>
</g>
<!-- Node2 -->
<g id="node2" class="node">
<title>Node2</title>
<g id="a_node2"><a xlink:href="classlocomotor_1_1components_1_1_compare.html#a2a101cdb459b3ee3a59e76aaaa08750c" target="_top" xlink:title="locomotor.components.Compare.unique\lValue">
<polygon fill="#ffffff" stroke="#000000" points="90.9063,-94.5 90.9063,-122.5 284.2354,-122.5 284.2354,-94.5 90.9063,-94.5"/>
<text text-anchor="start" x="98.9063" y="-110.5" font-family="Helvetica,sans-Serif" font-size="10.00" fill="#000000">locomotor.components.Compare.unique</text>
<text text-anchor="middle" x="187.5708" y="-100.5" font-family="Helvetica,sans-Serif" font-size="10.00" fill="#000000">Value</text>
</a>
</g>
</g>
<!-- Node1&#45;&gt;Node2 -->
<g id="edge1" class="edge">
<title>Node1&#45;&gt;Node2</title>
<path fill="none" stroke="#191970" d="M50.7612,-70.6091C62.6718,-75.0948 77.4549,-80.4045 90.9063,-84.5 99.3193,-87.0615 108.2049,-89.5525 117.0431,-91.8999"/>
<polygon fill="#191970" stroke="#191970" points="116.4146,-95.3529 126.9739,-94.4853 118.1783,-88.5787 116.4146,-95.3529"/>
</g>
<!-- Node7 -->
<g id="node7" class="node">
<title>Node7</title>
<g id="a_node7"><a xlink:href="classlocomotor_1_1components_1_1types_1_1_c_interval.html#a8977ca8c87b00639da116d1441a878ec" target="_top" xlink:title="locomotor.components.types.\lCInterval.min">
<polygon fill="#ffffff" stroke="#000000" points="114.5342,-47.5 114.5342,-75.5 260.6074,-75.5 260.6074,-47.5 114.5342,-47.5"/>
<text text-anchor="start" x="122.5342" y="-63.5" font-family="Helvetica,sans-Serif" font-size="10.00" fill="#000000">locomotor.components.types.</text>
<text text-anchor="middle" x="187.5708" y="-53.5" font-family="Helvetica,sans-Serif" font-size="10.00" fill="#000000">CInterval.min</text>
</a>
</g>
</g>
<!-- Node1&#45;&gt;Node7 -->
<g id="edge7" class="edge">
<title>Node1&#45;&gt;Node7</title>
<path fill="none" stroke="#191970" d="M54.9783,-61.5C68.7313,-61.5 86.1875,-61.5 103.8806,-61.5"/>
<polygon fill="#191970" stroke="#191970" points="104.2993,-65.0001 114.2993,-61.5 104.2992,-58.0001 104.2993,-65.0001"/>
</g>
<!-- Node8 -->
<g id="node8" class="node">
<title>Node8</title>
<g id="a_node8"><a xlink:href="classlocomotor_1_1components_1_1types_1_1_c_interval.html#a63edd36c00e0027edd899384e6f168f9" target="_top" xlink:title="locomotor.components.types.\lCInterval.max">
<polygon fill="#ffffff" stroke="#000000" points="114.5342,-.5 114.5342,-28.5 260.6074,-28.5 260.6074,-.5 114.5342,-.5"/>
<text text-anchor="start" x="122.5342" y="-16.5" font-family="Helvetica,sans-Serif" font-size="10.00" fill="#000000">locomotor.components.types.</text>
<text text-anchor="middle" x="187.5708" y="-6.5" font-family="Helvetica,sans-Serif" font-size="10.00" fill="#000000">CInterval.max</text>
</a>
</g>
</g>
<!-- Node1&#45;&gt;Node8 -->
<g id="edge8" class="edge">
<title>Node1&#45;&gt;Node8</title>
<path fill="none" stroke="#191970" d="M49.2379,-52.4694C61.3728,-47.6401 76.8311,-41.8169 90.9063,-37.5 98.2698,-35.2416 106.0052,-33.0713 113.7587,-31.0271"/>
<polygon fill="#191970" stroke="#191970" points="114.7485,-34.3866 123.5629,-28.5081 113.0065,-27.6068 114.7485,-34.3866"/>
</g>
<!-- Node3 -->
<g id="node3" class="node">
<title>Node3</title>
<g id="a_node3"><a xlink:href="classlocomotor_1_1core_1_1_gaussian.html#a2a6f2336ca6a2ad6a5406575827bbb56" target="_top" xlink:title="locomotor.core.Gaussian.get\lInstance">
<polygon fill="#ffffff" stroke="#000000" points="320.2354,-115.5 320.2354,-143.5 463.5303,-143.5 463.5303,-115.5 320.2354,-115.5"/>
<text text-anchor="start" x="328.2354" y="-131.5" font-family="Helvetica,sans-Serif" font-size="10.00" fill="#000000">locomotor.core.Gaussian.get</text>
<text text-anchor="middle" x="391.8828" y="-121.5" font-family="Helvetica,sans-Serif" font-size="10.00" fill="#000000">Instance</text>
</a>
</g>
</g>
<!-- Node2&#45;&gt;Node3 -->
<g id="edge2" class="edge">
<title>Node2&#45;&gt;Node3</title>
<path fill="none" stroke="#191970" d="M284.3419,-118.4465C292.9212,-119.3283 301.5512,-120.2154 309.9891,-121.0826"/>
<polygon fill="#191970" stroke="#191970" points="309.8644,-124.5882 320.1699,-122.1291 310.5802,-117.6249 309.8644,-124.5882"/>
</g>
<!-- Node5 -->
<g id="node5" class="node">
<title>Node5</title>
<g id="a_node5"><a xlink:href="classlocomotor_1_1core_1_1_gaussian.html#aaa66f1ce25c09e6e7cbd82c46ba0b4ae" target="_top" xlink:title="locomotor.core.Gaussian.pdf">
<polygon fill="#ffffff" stroke="#000000" points="664.9238,-98.5 664.9238,-116.5 808.2188,-116.5 808.2188,-98.5 664.9238,-98.5"/>
<text text-anchor="middle" x="736.5713" y="-104.5" font-family="Helvetica,sans-Serif" font-size="10.00" fill="#000000">locomotor.core.Gaussian.pdf</text>
</a>
</g>
</g>
<!-- Node2&#45;&gt;Node5 -->
<g id="edge6" class="edge">
<title>Node2&#45;&gt;Node5</title>
<path fill="none" stroke="#191970" d="M284.2956,-106.0584C296.3958,-105.8279 308.6019,-105.6315 320.2354,-105.5 457.4215,-103.9491 491.7349,-104.2257 628.9238,-105.5 637.2531,-105.5774 645.9444,-105.6884 654.6194,-105.819"/>
<polygon fill="#191970" stroke="#191970" points="654.7184,-109.321 664.7728,-105.9806 654.8298,-102.3218 654.7184,-109.321"/>
</g>
<!-- Node4 -->
<g id="node4" class="node">
<title>Node4</title>
<g id="a_node4"><a xlink:href="classlocomotor_1_1core_1_1_gaussian.html#aa4cd1241f20f836cbf5facbf2d8379e4" target="_top" xlink:title="locomotor.core.Gaussian.\lGaussian">
<polygon fill="#ffffff" stroke="#000000" points="499.5303,-115.5 499.5303,-143.5 628.9238,-143.5 628.9238,-115.5 499.5303,-115.5"/>
<text text-anchor="start" x="507.5303" y="-131.5" font-family="Helvetica,sans-Serif" font-size="10.00" fill="#000000">locomotor.core.Gaussian.</text>
<text text-anchor="middle" x="564.2271" y="-121.5" font-family="Helvetica,sans-Serif" font-size="10.00" fill="#000000">Gaussian</text>
</a>
</g>
</g>
<!-- Node3&#45;&gt;Node4 -->
<g id="edge3" class="edge">
<title>Node3&#45;&gt;Node4</title>
<path fill="none" stroke="#191970" d="M463.9737,-129.5C472.3019,-129.5 480.8105,-129.5 489.1769,-129.5"/>
<polygon fill="#191970" stroke="#191970" points="489.2898,-133.0001 499.2898,-129.5 489.2898,-126.0001 489.2898,-133.0001"/>
</g>
<!-- Node4&#45;&gt;Node5 -->
<g id="edge4" class="edge">
<title>Node4&#45;&gt;Node5</title>
<path fill="none" stroke="#191970" d="M629.383,-121.1827C638.0402,-120.0776 646.9988,-118.9341 655.8794,-117.8004"/>
<polygon fill="#191970" stroke="#191970" points="656.3763,-121.2655 665.8526,-116.5274 655.4898,-114.3218 656.3763,-121.2655"/>
</g>
<!-- Node6 -->
<g id="node6" class="node">
<title>Node6</title>
<g id="a_node6"><a xlink:href="classlocomotor_1_1core_1_1_gaussian.html#afd611f311f6fe230f8fad8bd0c7e0a51" target="_top" xlink:title="locomotor.core.Gaussian.get\lNearestStep">
<polygon fill="#ffffff" stroke="#000000" points="844.2188,-93.5 844.2188,-121.5 987.5137,-121.5 987.5137,-93.5 844.2188,-93.5"/>
<text text-anchor="start" x="852.2188" y="-109.5" font-family="Helvetica,sans-Serif" font-size="10.00" fill="#000000">locomotor.core.Gaussian.get</text>
<text text-anchor="middle" x="915.8662" y="-99.5" font-family="Helvetica,sans-Serif" font-size="10.00" fill="#000000">NearestStep</text>
</a>
</g>
</g>
<!-- Node5&#45;&gt;Node6 -->
<g id="edge5" class="edge">
<title>Node5&#45;&gt;Node6</title>
<path fill="none" stroke="#191970" d="M808.4643,-107.5C816.7758,-107.5 825.2994,-107.5 833.7337,-107.5"/>
<polygon fill="#191970" stroke="#191970" points="833.9571,-111.0001 843.9571,-107.5 833.957,-104.0001 833.9571,-111.0001"/>
</g>
</g>
</svg>
        <g id="navigator" transform="translate(0 0)" fill="#404254">
                <rect fill="#f2f5e9" fill-opacity="0.5" stroke="#606060" stroke-width=".5" x="0" y="0" width="60" height="60"/>
                <use id="zoomplus" xlink:href="#zoomPlus" x="17" y="9" onmousedown="handleZoom(evt,'in')"/>
                <use id="zoomminus" xlink:href="#zoomMin" x="42" y="9" onmousedown="handleZoom(evt,'out')"/>
                <use id="reset" xlink:href="#resetDef" x="30" y="36" onmousedown="handleReset()"/>
                <g id="arrowUp" xlink:href="#dirArrow" transform="translate(30 24)" onmousedown="handlePan(0,-1)">
                  <use xlink:href="#rim" fill="#404040">
                        <set attributeName="fill" to="#808080" begin="arrowUp.mouseover" end="arrowUp.mouseout"/>
                  </use>
                  <path fill="none" stroke="white" stroke-width="1.5" d="M0,-3.0v7 M-2.5,-0.5L0,-3.0L2.5,-0.5"/>
                </g>
                <g id="arrowRight" xlink:href="#dirArrow" transform="rotate(90) translate(36 -43)" onmousedown="handlePan(1,0)">
                  <use xlink:href="#rim" fill="#404040">
                        <set attributeName="fill" to="#808080" begin="arrowRight.mouseover" end="arrowRight.mouseout"/>
                  </use>
                  <path fill="none" stroke="white" stroke-width="1.5" d="M0,-3.0v7 M-2.5,-0.5L0,-3.0L2.5,-0.5"/>
                </g>
                <g id="arrowDown" xlink:href="#dirArrow" transform="rotate(180) translate(-30 -48)" onmousedown="handlePan(0,1)">
                  <use xlink:href="#rim" fill="#404040">
                        <set attributeName="fill" to="#808080" begin="arrowDown.mouseover" end="arrowDown.mouseout"/>
                  </use>
                  <path fill="none" stroke="white" stroke-width="1.5" d="M0,-3.0v7 M-2.5,-0.5L0,-3.0L2.5,-0.5"/>
                </g>
                <g id="arrowLeft" xlink:href="#dirArrow" transform="rotate(270) translate(-36 17)" onmousedown="handlePan(-1,0)">
                  <use xlink:href="#rim" fill="#404040">
                        <set attributeName="fill" to="#808080" begin="arrowLeft.mouseover" end="arrowLeft.mouseout"/>
                  </use>
                  <path fill="none" stroke="white" stroke-width="1.5" d="M0,-3.0v7 M-2.5,-0.5L0,-3.0L2.5,-0.5"/>
                </g>
        </g>
        <svg viewBox="0 0 15 15" width="100%" height="30px" preserveAspectRatio="xMaxYMin meet">
         <g id="arrow_out" transform="scale(0.3 0.3)">
          <a xlink:href="classlocomotor_1_1components_1_1types_1_1_c_float_a871921d9d041c5c7993927dde6332e2c_cgraph_org.svg" target="_base">
           <rect id="button" ry="5" rx="5" y="6" x="6" height="38" width="38"
                fill="#f2f5e9" fill-opacity="0.5" stroke="#606060" stroke-width="1.0"/>
           <path id="arrow"
             d="M 11.500037,31.436501 C 11.940474,20.09759 22.043105,11.32322 32.158766,21.979434 L 37.068811,17.246167 C 37.068811,17.246167 37.088388,32 37.088388,32 L 22.160133,31.978069 C 22.160133,31.978069 26.997745,27.140456 26.997745,27.140456 C 18.528582,18.264221 13.291696,25.230495 11.500037,31.436501 z"
             style="fill:#404040;"/>
          </a>
         </g>
        </svg>
</svg>
