<?xml version="1.0" encoding="UTF-8" standalone="no"?>
<!DOCTYPE svg PUBLIC "-//W3C//DTD SVG 1.1//EN"
 "http://www.w3.org/Graphics/SVG/1.1/DTD/svg11.dtd">
<!-- Generated by graphviz version 2.40.1 (20161225.0304)
 -->
<!-- Title: getRemoteResource Pages: 1 -->
<svg width="548pt" height="319pt"
 viewBox="0.00 0.00 547.66 319.00" xmlns="http://www.w3.org/2000/svg" xmlns:xlink="http://www.w3.org/1999/xlink">
<g id="graph0" class="graph" transform="scale(1 1) rotate(0) translate(4 315)">
<title>getRemoteResource</title>
<polygon fill="#ffffff" stroke="transparent" points="-4,4 -4,-315 543.6631,-315 543.6631,4 -4,4"/>
<!-- Node1 -->
<g id="node1" class="node">
<title>Node1</title>
<polygon fill="#bfbfbf" stroke="#000000" points="0,-146.5 0,-164.5 107.7139,-164.5 107.7139,-146.5 0,-146.5"/>
<text text-anchor="middle" x="53.8569" y="-152.5" font-family="Helvetica,sans-Serif" font-size="10.00" fill="#000000">getRemoteResource</text>
</g>
<!-- Node2 -->
<g id="node2" class="node">
<title>Node2</title>
<g id="a_node2"><a xlink:href="classlocomotor_1_1components_1_1_resource_manager.html#a2a47b3989b5c854f2f6eb9a0483dc923" target="_top" xlink:title="locomotor.components.Resource\lManager.exists">
<polygon fill="#ffffff" stroke="#000000" points="152.6055,-282.5 152.6055,-310.5 314.7969,-310.5 314.7969,-282.5 152.6055,-282.5"/>
<text text-anchor="start" x="160.6055" y="-298.5" font-family="Helvetica,sans-Serif" font-size="10.00" fill="#000000">locomotor.components.Resource</text>
<text text-anchor="middle" x="233.7012" y="-288.5" font-family="Helvetica,sans-Serif" font-size="10.00" fill="#000000">Manager.exists</text>
</a>
</g>
</g>
<!-- Node1&#45;&gt;Node2 -->
<g id="edge1" class="edge">
<title>Node1&#45;&gt;Node2</title>
<path fill="none" stroke="#191970" d="M58.0527,-164.5371C68.8636,-186.783 99.9226,-244.4887 143.7139,-273.5 146.1714,-275.1281 148.7368,-276.6409 151.3821,-278.0466"/>
<polygon fill="#191970" stroke="#191970" points="150.1073,-281.3153 160.6438,-282.4255 153.0993,-274.987 150.1073,-281.3153"/>
</g>
<!-- Node3 -->
<g id="node3" class="node">
<title>Node3</title>
<g id="a_node3"><a xlink:href="classlocomotor_1_1front_1_1components_1_1network_1_1_client_request.html#a5177dbc0e509337643b1931cab9832ca" target="_top" xlink:title="locomotor.front.components.network.\lClientRequest.addParam">
<polygon fill="#ffffff" stroke="#000000" points="143.7139,-235.5 143.7139,-263.5 323.6885,-263.5 323.6885,-235.5 143.7139,-235.5"/>
<text text-anchor="start" x="151.7139" y="-251.5" font-family="Helvetica,sans-Serif" font-size="10.00" fill="#000000">locomotor.front.components.network.</text>
<text text-anchor="middle" x="233.7012" y="-241.5" font-family="Helvetica,sans-Serif" font-size="10.00" fill="#000000">ClientRequest.addParam</text>
</a>
</g>
</g>
<!-- Node1&#45;&gt;Node3 -->
<g id="edge2" class="edge">
<title>Node1&#45;&gt;Node3</title>
<path fill="none" stroke="#191970" d="M62.9034,-164.8439C78.1525,-180.0508 110.5682,-210.1 143.7139,-226.5 147.7245,-228.4844 151.923,-230.3088 156.2215,-231.9847"/>
<polygon fill="#191970" stroke="#191970" points="155.163,-235.3235 165.7574,-235.4205 157.5359,-228.7379 155.163,-235.3235"/>
</g>
<!-- Node5 -->
<g id="node5" class="node">
<title>Node5</title>
<g id="a_node5"><a xlink:href="classlocomotor_1_1front_1_1components_1_1network_1_1_client_request.html#a72ff6ced7eee9d7373f0c2ee95b0b208" target="_top" xlink:title="locomotor.front.components.network.\lClientRequest.requestBinary">
<polygon fill="#ffffff" stroke="#000000" points="143.7139,-188.5 143.7139,-216.5 323.6885,-216.5 323.6885,-188.5 143.7139,-188.5"/>
<text text-anchor="start" x="151.7139" y="-204.5" font-family="Helvetica,sans-Serif" font-size="10.00" fill="#000000">locomotor.front.components.network.</text>
<text text-anchor="middle" x="233.7012" y="-194.5" font-family="Helvetica,sans-Serif" font-size="10.00" fill="#000000">ClientRequest.requestBinary</text>
</a>
</g>
</g>
<!-- Node1&#45;&gt;Node5 -->
<g id="edge4" class="edge">
<title>Node1&#45;&gt;Node5</title>
<path fill="none" stroke="#191970" d="M87.5435,-164.5894C104.3998,-169.1141 125.1233,-174.6417 143.7139,-179.5 151.7874,-181.6099 160.2741,-183.8066 168.677,-185.9689"/>
<polygon fill="#191970" stroke="#191970" points="167.9167,-189.3871 178.4729,-188.4841 169.6576,-182.607 167.9167,-189.3871"/>
</g>
<!-- Node6 -->
<g id="node6" class="node">
<title>Node6</title>
<g id="a_node6"><a xlink:href="classlocomotor_1_1front_1_1components_1_1network_1_1_binary_object.html#a90388140e3ce171ba87fc79ee4b8196a" target="_top" xlink:title="locomotor.front.components.network.\lBinaryObject.isSuccess">
<polygon fill="#ffffff" stroke="#000000" points="143.7139,-141.5 143.7139,-169.5 323.6885,-169.5 323.6885,-141.5 143.7139,-141.5"/>
<text text-anchor="start" x="151.7139" y="-157.5" font-family="Helvetica,sans-Serif" font-size="10.00" fill="#000000">locomotor.front.components.network.</text>
<text text-anchor="middle" x="233.7012" y="-147.5" font-family="Helvetica,sans-Serif" font-size="10.00" fill="#000000">BinaryObject.isSuccess</text>
</a>
</g>
</g>
<!-- Node1&#45;&gt;Node6 -->
<g id="edge5" class="edge">
<title>Node1&#45;&gt;Node6</title>
<path fill="none" stroke="#191970" d="M107.8161,-155.5C115.922,-155.5 124.4946,-155.5 133.2014,-155.5"/>
<polygon fill="#191970" stroke="#191970" points="133.4642,-159.0001 143.4642,-155.5 133.4641,-152.0001 133.4642,-159.0001"/>
</g>
<!-- Node7 -->
<g id="node7" class="node">
<title>Node7</title>
<g id="a_node7"><a xlink:href="classlocomotor_1_1front_1_1components_1_1network_1_1_binary_object.html#aae3528e21078cf05c08e7f789fa882f3" target="_top" xlink:title="locomotor.front.components.network.\lBinaryObject.getAsBinary">
<polygon fill="#ffffff" stroke="#000000" points="143.7139,-94.5 143.7139,-122.5 323.6885,-122.5 323.6885,-94.5 143.7139,-94.5"/>
<text text-anchor="start" x="151.7139" y="-110.5" font-family="Helvetica,sans-Serif" font-size="10.00" fill="#000000">locomotor.front.components.network.</text>
<text text-anchor="middle" x="233.7012" y="-100.5" font-family="Helvetica,sans-Serif" font-size="10.00" fill="#000000">BinaryObject.getAsBinary</text>
</a>
</g>
</g>
<!-- Node1&#45;&gt;Node7 -->
<g id="edge6" class="edge">
<title>Node1&#45;&gt;Node7</title>
<path fill="none" stroke="#191970" d="M88.5327,-146.4379C111.6232,-140.4035 142.6487,-132.2954 170.0897,-125.124"/>
<polygon fill="#191970" stroke="#191970" points="171.2259,-128.4447 180.016,-122.5299 169.456,-121.6722 171.2259,-128.4447"/>
</g>
<!-- Node8 -->
<g id="node8" class="node">
<title>Node8</title>
<g id="a_node8"><a xlink:href="classlocomotor_1_1components_1_1_resource_manager.html#a4441d9d93c37b9fc580eb8f13f9d9590" target="_top" xlink:title="locomotor.components.Resource\lManager.getVersion">
<polygon fill="#ffffff" stroke="#000000" points="152.6055,-47.5 152.6055,-75.5 314.7969,-75.5 314.7969,-47.5 152.6055,-47.5"/>
<text text-anchor="start" x="160.6055" y="-63.5" font-family="Helvetica,sans-Serif" font-size="10.00" fill="#000000">locomotor.components.Resource</text>
<text text-anchor="middle" x="233.7012" y="-53.5" font-family="Helvetica,sans-Serif" font-size="10.00" fill="#000000">Manager.getVersion</text>
</a>
</g>
</g>
<!-- Node1&#45;&gt;Node8 -->
<g id="edge7" class="edge">
<title>Node1&#45;&gt;Node8</title>
<path fill="none" stroke="#191970" d="M62.9499,-146.3327C78.2659,-131.4046 110.7756,-101.8696 143.7139,-85.5 148.3902,-83.1759 153.3189,-81.0563 158.3619,-79.1265"/>
<polygon fill="#191970" stroke="#191970" points="159.9121,-82.2902 168.1642,-75.6455 157.5695,-75.6938 159.9121,-82.2902"/>
</g>
<!-- Node9 -->
<g id="node9" class="node">
<title>Node9</title>
<g id="a_node9"><a xlink:href="classlocomotor_1_1front_1_1components_1_1network_1_1_binary_object.html#a8f518227eb38895cf5f2c5ece567d7cb" target="_top" xlink:title="locomotor.front.components.network.\lBinaryObject.getErrorMessage">
<polygon fill="#ffffff" stroke="#000000" points="143.7139,-.5 143.7139,-28.5 323.6885,-28.5 323.6885,-.5 143.7139,-.5"/>
<text text-anchor="start" x="151.7139" y="-16.5" font-family="Helvetica,sans-Serif" font-size="10.00" fill="#000000">locomotor.front.components.network.</text>
<text text-anchor="middle" x="233.7012" y="-6.5" font-family="Helvetica,sans-Serif" font-size="10.00" fill="#000000">BinaryObject.getErrorMessage</text>
</a>
</g>
</g>
<!-- Node1&#45;&gt;Node9 -->
<g id="edge8" class="edge">
<title>Node1&#45;&gt;Node9</title>
<path fill="none" stroke="#191970" d="M58.2548,-146.2417C69.3026,-124.0156 100.4612,-67.3508 143.7139,-38.5 146.7866,-36.4504 150.0275,-34.5755 153.382,-32.8604"/>
<polygon fill="#191970" stroke="#191970" points="154.8591,-36.0336 162.4898,-28.6835 151.9411,-29.6708 154.8591,-36.0336"/>
</g>
<!-- Node4 -->
<g id="node4" class="node">
<title>Node4</title>
<g id="a_node4"><a xlink:href="classlocomotor_1_1front_1_1components_1_1network_1_1_file_upload.html#ab075e2b20b12151e05bf1fb51e40c1db" target="_top" xlink:title="locomotor.front.components.network.\lFileUpload.add">
<polygon fill="#ffffff" stroke="#000000" points="359.6885,-235.5 359.6885,-263.5 539.6631,-263.5 539.6631,-235.5 359.6885,-235.5"/>
<text text-anchor="start" x="367.6885" y="-251.5" font-family="Helvetica,sans-Serif" font-size="10.00" fill="#000000">locomotor.front.components.network.</text>
<text text-anchor="middle" x="449.6758" y="-241.5" font-family="Helvetica,sans-Serif" font-size="10.00" fill="#000000">FileUpload.add</text>
</a>
</g>
</g>
<!-- Node3&#45;&gt;Node4 -->
<g id="edge3" class="edge">
<title>Node3&#45;&gt;Node4</title>
<path fill="none" stroke="#191970" d="M323.7299,-249.5C332.2154,-249.5 340.8531,-249.5 349.4255,-249.5"/>
<polygon fill="#191970" stroke="#191970" points="349.4456,-253.0001 359.4456,-249.5 349.4456,-246.0001 349.4456,-253.0001"/>
</g>
</g>
</svg>
