<?xml version="1.0" encoding="UTF-8" standalone="no"?>
<!DOCTYPE svg PUBLIC "-//W3C//DTD SVG 1.1//EN"
 "http://www.w3.org/Graphics/SVG/1.1/DTD/svg11.dtd">
<!-- Generated by graphviz version 2.40.1 (20161225.0304)
 -->
<!-- Title: getItems Pages: 1 -->
<svg width="253pt" height="319pt"
 viewBox="0.00 0.00 252.76 319.00" xmlns="http://www.w3.org/2000/svg" xmlns:xlink="http://www.w3.org/1999/xlink">
<g id="graph0" class="graph" transform="scale(1 1) rotate(0) translate(4 315)">
<title>getItems</title>
<polygon fill="#ffffff" stroke="transparent" points="-4,4 -4,-315 248.7578,-315 248.7578,4 -4,4"/>
<!-- Node1 -->
<g id="node1" class="node">
<title>Node1</title>
<polygon fill="#bfbfbf" stroke="#000000" points="0,-146.5 0,-164.5 54.3496,-164.5 54.3496,-146.5 0,-146.5"/>
<text text-anchor="middle" x="27.1748" y="-152.5" font-family="Helvetica,sans-Serif" font-size="10.00" fill="#000000">getItems</text>
</g>
<!-- Node2 -->
<g id="node2" class="node">
<title>Node2</title>
<g id="a_node2"><a xlink:href="classlocomotor_1_1components_1_1models_1_1_category_model.html#a34e60b6081b4c555dc9f5b872cbe044e" target="_top" xlink:title="locomotor.components.models.\lCategoryModel.getID">
<polygon fill="#ffffff" stroke="#000000" points="90.3496,-282.5 90.3496,-310.5 244.7578,-310.5 244.7578,-282.5 90.3496,-282.5"/>
<text text-anchor="start" x="98.3496" y="-298.5" font-family="Helvetica,sans-Serif" font-size="10.00" fill="#000000">locomotor.components.models.</text>
<text text-anchor="middle" x="167.5537" y="-288.5" font-family="Helvetica,sans-Serif" font-size="10.00" fill="#000000">CategoryModel.getID</text>
</a>
</g>
</g>
<!-- Node1&#45;&gt;Node2 -->
<g id="edge1" class="edge">
<title>Node1&#45;&gt;Node2</title>
<path fill="none" stroke="#191970" d="M29.4773,-164.7442C35.4918,-186.9534 53.8008,-243.6778 90.3496,-273.5 91.9344,-274.7931 93.5901,-276.0135 95.3034,-277.1654"/>
<polygon fill="#191970" stroke="#191970" points="93.8815,-280.3865 104.2887,-282.3718 97.391,-274.3298 93.8815,-280.3865"/>
</g>
<!-- Node3 -->
<g id="node3" class="node">
<title>Node3</title>
<g id="a_node3"><a xlink:href="classlocomotor_1_1components_1_1models_1_1_category_model.html#ad146fa8579a5f8a876c4688cc5a68520" target="_top" xlink:title="locomotor.components.models.\lCategoryModel.toString">
<polygon fill="#ffffff" stroke="#000000" points="90.3496,-235.5 90.3496,-263.5 244.7578,-263.5 244.7578,-235.5 90.3496,-235.5"/>
<text text-anchor="start" x="98.3496" y="-251.5" font-family="Helvetica,sans-Serif" font-size="10.00" fill="#000000">locomotor.components.models.</text>
<text text-anchor="middle" x="167.5537" y="-241.5" font-family="Helvetica,sans-Serif" font-size="10.00" fill="#000000">CategoryModel.toString</text>
</a>
</g>
</g>
<!-- Node1&#45;&gt;Node3 -->
<g id="edge2" class="edge">
<title>Node1&#45;&gt;Node3</title>
<path fill="none" stroke="#191970" d="M32.954,-164.8276C42.8396,-180.011 64.4562,-210.0272 90.3496,-226.5 92.9788,-228.1726 95.7352,-229.7284 98.5767,-231.1748"/>
<polygon fill="#191970" stroke="#191970" points="97.3399,-234.4578 107.8898,-235.4321 100.2501,-228.0914 97.3399,-234.4578"/>
</g>
<!-- Node4 -->
<g id="node4" class="node">
<title>Node4</title>
<g id="a_node4"><a xlink:href="classlocomotor_1_1components_1_1models_1_1_category_model.html#a337145f3b2fdaaed1506d52b80d2ac86" target="_top" xlink:title="locomotor.components.models.\lCategoryModel.getCriterias">
<polygon fill="#ffffff" stroke="#000000" points="90.3496,-188.5 90.3496,-216.5 244.7578,-216.5 244.7578,-188.5 90.3496,-188.5"/>
<text text-anchor="start" x="98.3496" y="-204.5" font-family="Helvetica,sans-Serif" font-size="10.00" fill="#000000">locomotor.components.models.</text>
<text text-anchor="middle" x="167.5537" y="-194.5" font-family="Helvetica,sans-Serif" font-size="10.00" fill="#000000">CategoryModel.getCriterias</text>
</a>
</g>
</g>
<!-- Node1&#45;&gt;Node4 -->
<g id="edge3" class="edge">
<title>Node1&#45;&gt;Node4</title>
<path fill="none" stroke="#191970" d="M49.837,-164.5719C61.8078,-169.2461 76.7911,-174.9119 90.3496,-179.5 96.2614,-181.5005 102.4581,-183.5025 108.6607,-185.4446"/>
<polygon fill="#191970" stroke="#191970" points="107.7851,-188.8371 118.3725,-188.4384 109.8473,-182.1478 107.7851,-188.8371"/>
</g>
<!-- Node5 -->
<g id="node5" class="node">
<title>Node5</title>
<g id="a_node5"><a xlink:href="classlocomotor_1_1components_1_1models_1_1_criteria_model.html#a34e60b6081b4c555dc9f5b872cbe044e" target="_top" xlink:title="locomotor.components.models.\lCriteriaModel.getID">
<polygon fill="#ffffff" stroke="#000000" points="90.3496,-141.5 90.3496,-169.5 244.7578,-169.5 244.7578,-141.5 90.3496,-141.5"/>
<text text-anchor="start" x="98.3496" y="-157.5" font-family="Helvetica,sans-Serif" font-size="10.00" fill="#000000">locomotor.components.models.</text>
<text text-anchor="middle" x="167.5537" y="-147.5" font-family="Helvetica,sans-Serif" font-size="10.00" fill="#000000">CriteriaModel.getID</text>
</a>
</g>
</g>
<!-- Node1&#45;&gt;Node5 -->
<g id="edge4" class="edge">
<title>Node1&#45;&gt;Node5</title>
<path fill="none" stroke="#191970" d="M54.5745,-155.5C62.2506,-155.5 71.0309,-155.5 80.2293,-155.5"/>
<polygon fill="#191970" stroke="#191970" points="80.3423,-159.0001 90.3422,-155.5 80.3422,-152.0001 80.3423,-159.0001"/>
</g>
<!-- Node6 -->
<g id="node6" class="node">
<title>Node6</title>
<g id="a_node6"><a xlink:href="classlocomotor_1_1components_1_1models_1_1_criteria_model.html#ad146fa8579a5f8a876c4688cc5a68520" target="_top" xlink:title="locomotor.components.models.\lCriteriaModel.toString">
<polygon fill="#ffffff" stroke="#000000" points="90.3496,-94.5 90.3496,-122.5 244.7578,-122.5 244.7578,-94.5 90.3496,-94.5"/>
<text text-anchor="start" x="98.3496" y="-110.5" font-family="Helvetica,sans-Serif" font-size="10.00" fill="#000000">locomotor.components.models.</text>
<text text-anchor="middle" x="167.5537" y="-100.5" font-family="Helvetica,sans-Serif" font-size="10.00" fill="#000000">CriteriaModel.toString</text>
</a>
</g>
</g>
<!-- Node1&#45;&gt;Node6 -->
<g id="edge5" class="edge">
<title>Node1&#45;&gt;Node6</title>
<path fill="none" stroke="#191970" d="M51.079,-146.4921C62.8568,-142.132 77.2987,-136.9014 90.3496,-132.5 97.1161,-130.218 104.2422,-127.8951 111.3178,-125.6378"/>
<polygon fill="#191970" stroke="#191970" points="112.4164,-128.9613 120.8966,-122.6102 110.3067,-122.2868 112.4164,-128.9613"/>
</g>
<!-- Node7 -->
<g id="node7" class="node">
<title>Node7</title>
<g id="a_node7"><a xlink:href="classlocomotor_1_1components_1_1models_1_1_criteria_model.html#a19fc0aeef83333878b7af08e6eb7dbea" target="_top" xlink:title="locomotor.components.models.\lCriteriaModel.getItemType">
<polygon fill="#ffffff" stroke="#000000" points="90.3496,-47.5 90.3496,-75.5 244.7578,-75.5 244.7578,-47.5 90.3496,-47.5"/>
<text text-anchor="start" x="98.3496" y="-63.5" font-family="Helvetica,sans-Serif" font-size="10.00" fill="#000000">locomotor.components.models.</text>
<text text-anchor="middle" x="167.5537" y="-53.5" font-family="Helvetica,sans-Serif" font-size="10.00" fill="#000000">CriteriaModel.getItemType</text>
</a>
</g>
</g>
<!-- Node1&#45;&gt;Node7 -->
<g id="edge6" class="edge">
<title>Node1&#45;&gt;Node7</title>
<path fill="none" stroke="#191970" d="M33.0084,-146.3407C42.9721,-131.4242 64.6985,-101.9054 90.3496,-85.5 93.6476,-83.3908 97.1433,-81.4562 100.7546,-79.6834"/>
<polygon fill="#191970" stroke="#191970" points="102.2101,-82.8667 109.9224,-75.6023 99.3632,-76.4717 102.2101,-82.8667"/>
</g>
<!-- Node8 -->
<g id="node8" class="node">
<title>Node8</title>
<g id="a_node8"><a xlink:href="classlocomotor_1_1components_1_1models_1_1_criteria_model.html#afe6cac49dd51cda8f8dfedab30c83009" target="_top" xlink:title="locomotor.components.models.\lCriteriaModel.getUniverse">
<polygon fill="#ffffff" stroke="#000000" points="90.3496,-.5 90.3496,-28.5 244.7578,-28.5 244.7578,-.5 90.3496,-.5"/>
<text text-anchor="start" x="98.3496" y="-16.5" font-family="Helvetica,sans-Serif" font-size="10.00" fill="#000000">locomotor.components.models.</text>
<text text-anchor="middle" x="167.5537" y="-6.5" font-family="Helvetica,sans-Serif" font-size="10.00" fill="#000000">CriteriaModel.getUniverse</text>
</a>
</g>
</g>
<!-- Node1&#45;&gt;Node8 -->
<g id="edge7" class="edge">
<title>Node1&#45;&gt;Node8</title>
<path fill="none" stroke="#191970" d="M29.5241,-146.3607C35.6425,-124.3988 54.1646,-68.2764 90.3496,-38.5 92.585,-36.6605 94.9614,-34.9616 97.4414,-33.3926"/>
<polygon fill="#191970" stroke="#191970" points="99.1587,-36.4426 106.219,-28.5431 95.7735,-30.3155 99.1587,-36.4426"/>
</g>
</g>
</svg>
