<?xml version="1.0" encoding="UTF-8" standalone="no"?>
<!DOCTYPE svg PUBLIC "-//W3C//DTD SVG 1.1//EN"
 "http://www.w3.org/Graphics/SVG/1.1/DTD/svg11.dtd">
<!-- Generated by graphviz version 2.40.1 (20161225.0304)
 -->
<!-- Title: Bridge Pages: 1 -->
<svg width="126pt" height="92pt"
 viewBox="0.00 0.00 126.01 92.00" xmlns="http://www.w3.org/2000/svg" xmlns:xlink="http://www.w3.org/1999/xlink">
<g id="graph0" class="graph" transform="scale(1 1) rotate(0) translate(4 88)">
<title>Bridge</title>
<polygon fill="#ffffff" stroke="transparent" points="-4,4 -4,-88 122.0088,-88 122.0088,4 -4,4"/>
<!-- Node1 -->
<g id="node1" class="node">
<title>Node1</title>
<polygon fill="#bfbfbf" stroke="#000000" points="32.6133,-.5 32.6133,-18.5 77.5195,-18.5 77.5195,-.5 32.6133,-.5"/>
<text text-anchor="middle" x="55.0664" y="-6.5" font-family="Helvetica,sans-Serif" font-size="10.00" fill="#000000">Bridge</text>
</g>
<!-- Node2 -->
<g id="node2" class="node">
<title>Node2</title>
<polygon fill="#ffffff" stroke="#bfbfbf" points="0,-65.5 0,-83.5 42.1328,-83.5 42.1328,-65.5 0,-65.5"/>
<text text-anchor="middle" x="21.0664" y="-71.5" font-family="Helvetica,sans-Serif" font-size="10.00" fill="#000000">Stage</text>
</g>
<!-- Node2&#45;&gt;Node1 -->
<g id="edge1" class="edge">
<title>Node2&#45;&gt;Node1</title>
<path fill="none" stroke="#9a32cd" stroke-dasharray="5,2" d="M26.56,-55.2727C28.6121,-49.2542 31.2014,-42.6999 34.2637,-37 37.7769,-30.4608 42.7674,-23.8044 46.9798,-18.6786"/>
<polygon fill="#9a32cd" stroke="#9a32cd" points="23.0917,-54.6387 23.4604,-65.2271 29.7752,-56.7198 23.0917,-54.6387"/>
<text text-anchor="middle" x="50.4678" y="-39" font-family="Helvetica,sans-Serif" font-size="10.00" fill="#000000"> _stage</text>
</g>
<!-- Node3 -->
<g id="node3" class="node">
<title>Node3</title>
<polygon fill="#ffffff" stroke="#bfbfbf" points="60.124,-65.5 60.124,-83.5 118.0088,-83.5 118.0088,-65.5 60.124,-65.5"/>
<text text-anchor="middle" x="89.0664" y="-71.5" font-family="Helvetica,sans-Serif" font-size="10.00" fill="#000000">WebView</text>
</g>
<!-- Node3&#45;&gt;Node1 -->
<g id="edge2" class="edge">
<title>Node3&#45;&gt;Node1</title>
<path fill="none" stroke="#9a32cd" stroke-dasharray="5,2" d="M79.6995,-56.5926C73.3137,-44.3846 65.1146,-28.7097 59.974,-18.8821"/>
<polygon fill="#9a32cd" stroke="#9a32cd" points="76.6025,-58.2233 84.3389,-65.462 82.8052,-54.9788 76.6025,-58.2233"/>
<text text-anchor="middle" x="88.2388" y="-39" font-family="Helvetica,sans-Serif" font-size="10.00" fill="#000000"> _view</text>
</g>
</g>
</svg>
