<?xml version="1.0" encoding="UTF-8" standalone="no"?>
<!DOCTYPE svg PUBLIC "-//W3C//DTD SVG 1.1//EN"
 "http://www.w3.org/Graphics/SVG/1.1/DTD/svg11.dtd">
<!-- Generated by graphviz version 2.40.1 (20161225.0304)
 -->
<!-- Title: getCategoriesModel Pages: 1 -->
<svg width="720pt" height="83pt"
 viewBox="0.00 0.00 720.04 83.00" xmlns="http://www.w3.org/2000/svg" xmlns:xlink="http://www.w3.org/1999/xlink">
<g id="graph0" class="graph" transform="scale(1 1) rotate(0) translate(4 79)">
<title>getCategoriesModel</title>
<polygon fill="#ffffff" stroke="transparent" points="-4,4 -4,-79 716.0371,-79 716.0371,4 -4,4"/>
<!-- Node1 -->
<g id="node1" class="node">
<title>Node1</title>
<polygon fill="#bfbfbf" stroke="#000000" points="0,-56.5 0,-74.5 105.4971,-74.5 105.4971,-56.5 0,-56.5"/>
<text text-anchor="middle" x="52.7485" y="-62.5" font-family="Helvetica,sans-Serif" font-size="10.00" fill="#000000">getCategoriesModel</text>
</g>
<!-- Node2 -->
<g id="node2" class="node">
<title>Node2</title>
<g id="a_node2"><a xlink:href="classlocomotor_1_1components_1_1network_1_1_a_p_i.html#a547463fbc7fb7b485886f0917e2c0b78" target="_top" xlink:title="locomotor.components.network.\lAPI.createHooks">
<polygon fill="#ffffff" stroke="#000000" points="388.3535,-32.5 388.3535,-60.5 545.54,-60.5 545.54,-32.5 388.3535,-32.5"/>
<text text-anchor="start" x="396.3535" y="-48.5" font-family="Helvetica,sans-Serif" font-size="10.00" fill="#000000">locomotor.components.network.</text>
<text text-anchor="middle" x="466.9468" y="-38.5" font-family="Helvetica,sans-Serif" font-size="10.00" fill="#000000">API.createHooks</text>
</a>
</g>
</g>
<!-- Node1&#45;&gt;Node2 -->
<g id="edge1" class="edge">
<title>Node1&#45;&gt;Node2</title>
<path fill="none" stroke="#191970" d="M115.8143,-68.5001C176.5296,-70.6801 270.8838,-72.2082 352.3535,-65.5 365.7189,-64.3995 379.873,-62.5887 393.5043,-60.5108"/>
<polygon fill="#191970" stroke="#191970" points="115.7482,-64.9952 105.6236,-68.1166 115.4849,-71.9902 115.7482,-64.9952"/>
</g>
<!-- Node4 -->
<g id="node4" class="node">
<title>Node4</title>
<g id="a_node4"><a xlink:href="classlocomotor_1_1core_1_1_d_b_h.html#ad067053be75a3170dc9c2ce7b922e176" target="_top" xlink:title="checkingParsingItem">
<polygon fill="#ffffff" stroke="#000000" points="141.4971,-37.5 141.4971,-55.5 250.3193,-55.5 250.3193,-37.5 141.4971,-37.5"/>
<text text-anchor="middle" x="195.9082" y="-43.5" font-family="Helvetica,sans-Serif" font-size="10.00" fill="#000000">checkingParsingItem</text>
</a>
</g>
</g>
<!-- Node1&#45;&gt;Node4 -->
<g id="edge3" class="edge">
<title>Node1&#45;&gt;Node4</title>
<path fill="none" stroke="#191970" d="M115.5989,-57.1586C124.1664,-56.0215 132.9033,-54.8619 141.3086,-53.7464"/>
<polygon fill="#191970" stroke="#191970" points="115.1017,-53.6938 105.6492,-58.4791 116.0228,-60.6329 115.1017,-53.6938"/>
</g>
<!-- Node3 -->
<g id="node3" class="node">
<title>Node3</title>
<g id="a_node3"><a xlink:href="classlocomotor_1_1core_1_1_main.html#a8b260eecbaabcef8473fd87ada040682" target="_top" xlink:title="locomotor.core.Main.main">
<polygon fill="#ffffff" stroke="#000000" points="581.54,-37.5 581.54,-55.5 712.0371,-55.5 712.0371,-37.5 581.54,-37.5"/>
<text text-anchor="middle" x="646.7886" y="-43.5" font-family="Helvetica,sans-Serif" font-size="10.00" fill="#000000">locomotor.core.Main.main</text>
</a>
</g>
</g>
<!-- Node2&#45;&gt;Node3 -->
<g id="edge2" class="edge">
<title>Node2&#45;&gt;Node3</title>
<path fill="none" stroke="#191970" d="M555.7398,-46.5C564.4281,-46.5 573.1304,-46.5 581.5223,-46.5"/>
<polygon fill="#191970" stroke="#191970" points="555.5664,-43.0001 545.5664,-46.5 555.5663,-50.0001 555.5664,-43.0001"/>
</g>
<!-- Node5 -->
<g id="node5" class="node">
<title>Node5</title>
<g id="a_node5"><a xlink:href="classlocomotor_1_1core_1_1_d_b_h.html#ae26eef1ee7482f2e0167c6a18924d214" target="_top" xlink:title="addItem">
<polygon fill="#ffffff" stroke="#000000" points="293.27,-37.5 293.27,-55.5 345.4028,-55.5 345.4028,-37.5 293.27,-37.5"/>
<text text-anchor="middle" x="319.3364" y="-43.5" font-family="Helvetica,sans-Serif" font-size="10.00" fill="#000000">addItem</text>
</a>
</g>
</g>
<!-- Node4&#45;&gt;Node5 -->
<g id="edge4" class="edge">
<title>Node4&#45;&gt;Node5</title>
<path fill="none" stroke="#191970" d="M260.5468,-46.5C272.0939,-46.5 283.5042,-46.5 293.1558,-46.5"/>
<polygon fill="#191970" stroke="#191970" points="260.4049,-43.0001 250.4049,-46.5 260.4049,-50.0001 260.4049,-43.0001"/>
</g>
<!-- Node6 -->
<g id="node6" class="node">
<title>Node6</title>
<g id="a_node6"><a xlink:href="classlocomotor_1_1core_1_1_d_b_h.html#aa0e39c547d06fd9d0ad2de70251c9cc0" target="_top" xlink:title="updateItem">
<polygon fill="#ffffff" stroke="#000000" points="286.3193,-.5 286.3193,-18.5 352.3535,-18.5 352.3535,-.5 286.3193,-.5"/>
<text text-anchor="middle" x="319.3364" y="-6.5" font-family="Helvetica,sans-Serif" font-size="10.00" fill="#000000">updateItem</text>
</a>
</g>
</g>
<!-- Node4&#45;&gt;Node6 -->
<g id="edge6" class="edge">
<title>Node4&#45;&gt;Node6</title>
<path fill="none" stroke="#191970" d="M235.9133,-34.5077C253.1687,-29.3351 273.019,-23.3845 289.0264,-18.586"/>
<polygon fill="#191970" stroke="#191970" points="234.676,-31.2247 226.1021,-37.4488 236.6861,-37.9299 234.676,-31.2247"/>
</g>
<!-- Node5&#45;&gt;Node2 -->
<g id="edge5" class="edge">
<title>Node5&#45;&gt;Node2</title>
<path fill="none" stroke="#191970" d="M355.9489,-46.5C365.8536,-46.5 376.9681,-46.5 388.2358,-46.5"/>
<polygon fill="#191970" stroke="#191970" points="355.7262,-43.0001 345.7262,-46.5 355.7262,-50.0001 355.7262,-43.0001"/>
</g>
<!-- Node6&#45;&gt;Node2 -->
<g id="edge7" class="edge">
<title>Node6&#45;&gt;Node2</title>
<path fill="none" stroke="#191970" d="M362.5837,-20.3404C377.7427,-24.1401 394.9905,-28.4634 411.0372,-32.4857"/>
<polygon fill="#191970" stroke="#191970" points="363.014,-16.84 352.4631,-17.8035 361.312,-23.6299 363.014,-16.84"/>
</g>
</g>
</svg>
