<?xml version="1.0" encoding="UTF-8" standalone="no"?>
<!DOCTYPE svg PUBLIC "-//W3C//DTD SVG 1.1//EN"
 "http://www.w3.org/Graphics/SVG/1.1/DTD/svg11.dtd">
<!-- Generated by graphviz version 2.40.1 (20161225.0304)
 -->
<!-- Title: CGraphTree Pages: 1 -->
<svg width="187pt" height="137pt"
 viewBox="0.00 0.00 187.36 137.00" xmlns="http://www.w3.org/2000/svg" xmlns:xlink="http://www.w3.org/1999/xlink">
<g id="graph0" class="graph" transform="scale(1 1) rotate(0) translate(4 133)">
<title>CGraphTree</title>
<polygon fill="#ffffff" stroke="transparent" points="-4,4 -4,-133 183.3643,-133 183.3643,4 -4,4"/>
<!-- Node1 -->
<g id="node1" class="node">
<title>Node1</title>
<polygon fill="#bfbfbf" stroke="#000000" points="54.5771,-.5 54.5771,-18.5 125.7871,-18.5 125.7871,-.5 54.5771,-.5"/>
<text text-anchor="middle" x="90.1821" y="-6.5" font-family="Helvetica,sans-Serif" font-size="10.00" fill="#000000">CGraphTree</text>
</g>
<!-- Node2 -->
<g id="node2" class="node">
<title>Node2</title>
<g id="a_node2"><a xlink:href="classlocomotor_1_1components_1_1types_1_1_c_set_graph.html" target="_top" xlink:title="CSetGraph">
<polygon fill="#ffffff" stroke="#000000" points="11.1699,-55.5 11.1699,-73.5 77.1943,-73.5 77.1943,-55.5 11.1699,-55.5"/>
<text text-anchor="middle" x="44.1821" y="-61.5" font-family="Helvetica,sans-Serif" font-size="10.00" fill="#000000">CSetGraph</text>
</a>
</g>
</g>
<!-- Node2&#45;&gt;Node1 -->
<g id="edge1" class="edge">
<title>Node2&#45;&gt;Node1</title>
<path fill="none" stroke="#191970" d="M58.2119,-47.7253C66.1659,-38.215 75.8172,-26.6754 82.4211,-18.7795"/>
<polygon fill="#191970" stroke="#191970" points="55.5089,-45.5016 51.7781,-55.4179 60.8785,-49.9925 55.5089,-45.5016"/>
</g>
<!-- Node3 -->
<g id="node3" class="node">
<title>Node3</title>
<g id="a_node3"><a xlink:href="interfacelocomotor_1_1components_1_1_j_s_o_n_displayable.html" target="_top" xlink:title="JSONDisplayable">
<polygon fill="#ffffff" stroke="#000000" points="0,-110.5 0,-128.5 94.3643,-128.5 94.3643,-110.5 0,-110.5"/>
<text text-anchor="middle" x="47.1821" y="-116.5" font-family="Helvetica,sans-Serif" font-size="10.00" fill="#000000">JSONDisplayable</text>
</a>
</g>
</g>
<!-- Node3&#45;&gt;Node2 -->
<g id="edge2" class="edge">
<title>Node3&#45;&gt;Node2</title>
<path fill="none" stroke="#191970" d="M46.1394,-100.383C45.648,-91.3738 45.0842,-81.0373 44.6883,-73.7795"/>
<polygon fill="#191970" stroke="#191970" points="42.6472,-100.6234 46.6867,-110.4179 49.6368,-100.2421 42.6472,-100.6234"/>
</g>
<!-- Node4 -->
<g id="node4" class="node">
<title>Node4</title>
<g id="a_node4"><a xlink:href="interfacelocomotor_1_1components_1_1types_1_1_c_universe_type.html" target="_top" xlink:title="CUniverseType">
<polygon fill="#ffffff" stroke="#000000" points="95,-55.5 95,-73.5 179.3643,-73.5 179.3643,-55.5 95,-55.5"/>
<text text-anchor="middle" x="137.1821" y="-61.5" font-family="Helvetica,sans-Serif" font-size="10.00" fill="#000000">CUniverseType</text>
</a>
</g>
</g>
<!-- Node3&#45;&gt;Node4 -->
<g id="edge5" class="edge">
<title>Node3&#45;&gt;Node4</title>
<path fill="none" stroke="#191970" d="M70.9863,-104.953C87.2693,-95.0023 108.3511,-82.1189 122.2984,-73.5956"/>
<polygon fill="#191970" stroke="#191970" points="68.7515,-102.2168 62.0438,-110.4179 72.4017,-108.1898 68.7515,-102.2168"/>
</g>
<!-- Node4&#45;&gt;Node1 -->
<g id="edge3" class="edge">
<title>Node4&#45;&gt;Node1</title>
<path fill="none" stroke="#191970" d="M122.8474,-47.7253C114.7204,-38.215 104.8593,-26.6754 98.1118,-18.7795"/>
<polygon fill="#191970" stroke="#191970" points="120.2637,-50.0893 129.421,-55.4179 125.5853,-45.5417 120.2637,-50.0893"/>
</g>
<!-- Node5 -->
<g id="node5" class="node">
<title>Node5</title>
<g id="a_node5"><a xlink:href="interfacelocomotor_1_1components_1_1types_1_1_c_type.html" target="_top" xlink:title="CType">
<polygon fill="#ffffff" stroke="#000000" points="114.729,-110.5 114.729,-128.5 159.6353,-128.5 159.6353,-110.5 114.729,-110.5"/>
<text text-anchor="middle" x="137.1821" y="-116.5" font-family="Helvetica,sans-Serif" font-size="10.00" fill="#000000">CType</text>
</a>
</g>
</g>
<!-- Node5&#45;&gt;Node4 -->
<g id="edge4" class="edge">
<title>Node5&#45;&gt;Node4</title>
<path fill="none" stroke="#191970" d="M137.1821,-100.383C137.1821,-91.3738 137.1821,-81.0373 137.1821,-73.7795"/>
<polygon fill="#191970" stroke="#191970" points="133.6822,-100.4178 137.1821,-110.4179 140.6822,-100.4179 133.6822,-100.4178"/>
</g>
</g>
</svg>
