<?xml version="1.0" encoding="UTF-8" standalone="no"?>
<!DOCTYPE svg PUBLIC "-//W3C//DTD SVG 1.1//EN"
 "http://www.w3.org/Graphics/SVG/1.1/DTD/svg11.dtd">
<!-- Generated by graphviz version 2.40.1 (20161225.0304)
 -->
<!-- Title: CInterval Pages: 1 -->
<svg width="445pt" height="158pt"
 viewBox="0.00 0.00 444.86 158.00" xmlns="http://www.w3.org/2000/svg" xmlns:xlink="http://www.w3.org/1999/xlink">
<g id="graph0" class="graph" transform="scale(1 1) rotate(0) translate(4 154)">
<title>CInterval</title>
<polygon fill="#ffffff" stroke="transparent" points="-4,4 -4,-154 440.8604,-154 440.8604,4 -4,4"/>
<!-- Node1 -->
<g id="node1" class="node">
<title>Node1</title>
<polygon fill="#bfbfbf" stroke="#000000" points="0,-73.5 0,-91.5 56.0146,-91.5 56.0146,-73.5 0,-73.5"/>
<text text-anchor="middle" x="28.0073" y="-79.5" font-family="Helvetica,sans-Serif" font-size="10.00" fill="#000000">CInterval</text>
</g>
<!-- Node2 -->
<g id="node2" class="node">
<title>Node2</title>
<g id="a_node2"><a xlink:href="classlocomotor_1_1components_1_1types_1_1_c_interval.html#a8977ca8c87b00639da116d1441a878ec" target="_top" xlink:title="min">
<polygon fill="#ffffff" stroke="#000000" points="153.1694,-131.5 153.1694,-149.5 185.2827,-149.5 185.2827,-131.5 153.1694,-131.5"/>
<text text-anchor="middle" x="169.2261" y="-137.5" font-family="Helvetica,sans-Serif" font-size="10.00" fill="#000000">min</text>
</a>
</g>
</g>
<!-- Node1&#45;&gt;Node2 -->
<g id="edge1" class="edge">
<title>Node1&#45;&gt;Node2</title>
<path fill="none" stroke="#191970" d="M40.0916,-91.7625C52.4907,-100.8416 72.6532,-114.4555 92.0146,-122.5 108.2774,-129.2571 127.5707,-133.7561 142.8031,-136.5664"/>
<polygon fill="#191970" stroke="#191970" points="142.6288,-140.0873 153.0755,-138.3223 143.8083,-133.1873 142.6288,-140.0873"/>
</g>
<!-- Node3 -->
<g id="node3" class="node">
<title>Node3</title>
<g id="a_node3"><a xlink:href="classlocomotor_1_1components_1_1types_1_1_c_interval.html#a63edd36c00e0027edd899384e6f168f9" target="_top" xlink:title="max">
<polygon fill="#ffffff" stroke="#000000" points="151.7803,-94.5 151.7803,-112.5 186.6719,-112.5 186.6719,-94.5 151.7803,-94.5"/>
<text text-anchor="middle" x="169.2261" y="-100.5" font-family="Helvetica,sans-Serif" font-size="10.00" fill="#000000">max</text>
</a>
</g>
</g>
<!-- Node1&#45;&gt;Node3 -->
<g id="edge2" class="edge">
<title>Node1&#45;&gt;Node3</title>
<path fill="none" stroke="#191970" d="M56.2456,-86.6992C81.0663,-90.3902 116.9716,-95.7295 141.606,-99.3927"/>
<polygon fill="#191970" stroke="#191970" points="141.3234,-102.8891 151.7294,-100.8982 142.353,-95.9653 141.3234,-102.8891"/>
</g>
<!-- Node4 -->
<g id="node4" class="node">
<title>Node4</title>
<g id="a_node4"><a xlink:href="classlocomotor_1_1components_1_1logging_1_1_error_handler.html#a75e8f6535bdb8db9a7d570e1b839af47" target="_top" xlink:title="locomotor.components.logging.\lErrorHandler.getInstance">
<polygon fill="#ffffff" stroke="#000000" points="92.0146,-47.5 92.0146,-75.5 246.4375,-75.5 246.4375,-47.5 92.0146,-47.5"/>
<text text-anchor="start" x="100.0146" y="-63.5" font-family="Helvetica,sans-Serif" font-size="10.00" fill="#000000">locomotor.components.logging.</text>
<text text-anchor="middle" x="169.2261" y="-53.5" font-family="Helvetica,sans-Serif" font-size="10.00" fill="#000000">ErrorHandler.getInstance</text>
</a>
</g>
</g>
<!-- Node1&#45;&gt;Node4 -->
<g id="edge3" class="edge">
<title>Node1&#45;&gt;Node4</title>
<path fill="none" stroke="#191970" d="M56.2456,-78.3008C63.93,-77.1581 72.6768,-75.8574 81.8226,-74.4974"/>
<polygon fill="#191970" stroke="#191970" points="82.4957,-77.9359 91.8721,-73.003 81.466,-71.012 82.4957,-77.9359"/>
</g>
<!-- Node5 -->
<g id="node5" class="node">
<title>Node5</title>
<g id="a_node5"><a xlink:href="classlocomotor_1_1components_1_1logging_1_1_error_handler.html#abd00a9c37627740763cef91d76a77437" target="_top" xlink:title="locomotor.components.logging.\lErrorHandler.push">
<polygon fill="#ffffff" stroke="#000000" points="92.0146,-.5 92.0146,-28.5 246.4375,-28.5 246.4375,-.5 92.0146,-.5"/>
<text text-anchor="start" x="100.0146" y="-16.5" font-family="Helvetica,sans-Serif" font-size="10.00" fill="#000000">locomotor.components.logging.</text>
<text text-anchor="middle" x="169.2261" y="-6.5" font-family="Helvetica,sans-Serif" font-size="10.00" fill="#000000">ErrorHandler.push</text>
</a>
</g>
</g>
<!-- Node1&#45;&gt;Node5 -->
<g id="edge4" class="edge">
<title>Node1&#45;&gt;Node5</title>
<path fill="none" stroke="#191970" d="M39.1567,-73.2774C51.4458,-63.4972 72.1187,-48.1551 92.0146,-38.5 96.7091,-36.2219 101.6681,-34.0994 106.7159,-32.1353"/>
<polygon fill="#191970" stroke="#191970" points="108.3018,-35.2818 116.4865,-28.5541 105.8928,-28.7093 108.3018,-35.2818"/>
</g>
<!-- Node6 -->
<g id="node6" class="node">
<title>Node6</title>
<g id="a_node6"><a xlink:href="classlocomotor_1_1components_1_1logging_1_1_error_context.html#afcf30b71bfc65c74878c7ab77c951842" target="_top" xlink:title="locomotor.components.logging.\lErrorContext.push">
<polygon fill="#ffffff" stroke="#000000" points="282.4375,-.5 282.4375,-28.5 436.8604,-28.5 436.8604,-.5 282.4375,-.5"/>
<text text-anchor="start" x="290.4375" y="-16.5" font-family="Helvetica,sans-Serif" font-size="10.00" fill="#000000">locomotor.components.logging.</text>
<text text-anchor="middle" x="359.6489" y="-6.5" font-family="Helvetica,sans-Serif" font-size="10.00" fill="#000000">ErrorContext.push</text>
</a>
</g>
</g>
<!-- Node5&#45;&gt;Node6 -->
<g id="edge5" class="edge">
<title>Node5&#45;&gt;Node6</title>
<path fill="none" stroke="#191970" d="M246.6783,-14.5C255.0236,-14.5 263.5575,-14.5 272.0113,-14.5"/>
<polygon fill="#191970" stroke="#191970" points="272.2653,-18.0001 282.2653,-14.5 272.2653,-11.0001 272.2653,-18.0001"/>
</g>
</g>
</svg>
