<?xml version="1.0" encoding="UTF-8" standalone="no"?>
<!DOCTYPE svg PUBLIC "-//W3C//DTD SVG 1.1//EN"
 "http://www.w3.org/Graphics/SVG/1.1/DTD/svg11.dtd">
<!-- Generated by graphviz version 2.40.1 (20161225.0304)
 -->
<!-- Title: changePassword Pages: 1 -->
<svg width="544pt" height="168pt"
 viewBox="0.00 0.00 544.35 168.00" xmlns="http://www.w3.org/2000/svg" xmlns:xlink="http://www.w3.org/1999/xlink">
<g id="graph0" class="graph" transform="scale(1 1) rotate(0) translate(4 164)">
<title>changePassword</title>
<polygon fill="#ffffff" stroke="transparent" points="-4,4 -4,-164 540.3525,-164 540.3525,4 -4,4"/>
<!-- Node1 -->
<g id="node1" class="node">
<title>Node1</title>
<polygon fill="#bfbfbf" stroke="#000000" points="0,-65.5 0,-83.5 92.7139,-83.5 92.7139,-65.5 0,-65.5"/>
<text text-anchor="middle" x="46.3569" y="-71.5" font-family="Helvetica,sans-Serif" font-size="10.00" fill="#000000">changePassword</text>
</g>
<!-- Node2 -->
<g id="node2" class="node">
<title>Node2</title>
<g id="a_node2"><a xlink:href="classlocomotor_1_1components_1_1logging_1_1_error_handler.html#a75e8f6535bdb8db9a7d570e1b839af47" target="_top" xlink:title="locomotor.components.logging.\lErrorHandler.getInstance">
<polygon fill="#ffffff" stroke="#000000" points="160.1104,-131.5 160.1104,-159.5 314.5332,-159.5 314.5332,-131.5 160.1104,-131.5"/>
<text text-anchor="start" x="168.1104" y="-147.5" font-family="Helvetica,sans-Serif" font-size="10.00" fill="#000000">locomotor.components.logging.</text>
<text text-anchor="middle" x="237.3218" y="-137.5" font-family="Helvetica,sans-Serif" font-size="10.00" fill="#000000">ErrorHandler.getInstance</text>
</a>
</g>
</g>
<!-- Node1&#45;&gt;Node2 -->
<g id="edge1" class="edge">
<title>Node1&#45;&gt;Node2</title>
<path fill="none" stroke="#191970" d="M59.1086,-83.6831C74.7606,-94.5295 102.4656,-112.3738 128.7139,-122.5 135.5133,-125.1231 142.6736,-127.4731 149.9398,-129.5735"/>
<polygon fill="#191970" stroke="#191970" points="149.3215,-133.0326 159.8899,-132.2851 151.1621,-126.2789 149.3215,-133.0326"/>
</g>
<!-- Node3 -->
<g id="node3" class="node">
<title>Node3</title>
<g id="a_node3"><a xlink:href="classlocomotor_1_1components_1_1logging_1_1_error_handler.html#abd00a9c37627740763cef91d76a77437" target="_top" xlink:title="locomotor.components.logging.\lErrorHandler.push">
<polygon fill="#ffffff" stroke="#000000" points="160.1104,-84.5 160.1104,-112.5 314.5332,-112.5 314.5332,-84.5 160.1104,-84.5"/>
<text text-anchor="start" x="168.1104" y="-100.5" font-family="Helvetica,sans-Serif" font-size="10.00" fill="#000000">locomotor.components.logging.</text>
<text text-anchor="middle" x="237.3218" y="-90.5" font-family="Helvetica,sans-Serif" font-size="10.00" fill="#000000">ErrorHandler.push</text>
</a>
</g>
</g>
<!-- Node1&#45;&gt;Node3 -->
<g id="edge2" class="edge">
<title>Node1&#45;&gt;Node3</title>
<path fill="none" stroke="#191970" d="M93.0722,-80.3711C110.1855,-82.5218 130.1558,-85.0316 149.6854,-87.4861"/>
<polygon fill="#191970" stroke="#191970" points="149.4821,-90.988 159.8405,-88.7623 150.355,-84.0426 149.4821,-90.988"/>
</g>
<!-- Node5 -->
<g id="node5" class="node">
<title>Node5</title>
<g id="a_node5"><a xlink:href="classlocomotor_1_1core_1_1_password_storage.html#a94489a4402c7c9e62b25fd69c050b4f2" target="_top" xlink:title="locomotor.core.PasswordStorage.verify\lPassword">
<polygon fill="#ffffff" stroke="#000000" points="142.3369,-37.5 142.3369,-65.5 332.3066,-65.5 332.3066,-37.5 142.3369,-37.5"/>
<text text-anchor="start" x="150.3369" y="-53.5" font-family="Helvetica,sans-Serif" font-size="10.00" fill="#000000">locomotor.core.PasswordStorage.verify</text>
<text text-anchor="middle" x="237.3218" y="-43.5" font-family="Helvetica,sans-Serif" font-size="10.00" fill="#000000">Password</text>
</a>
</g>
</g>
<!-- Node1&#45;&gt;Node5 -->
<g id="edge4" class="edge">
<title>Node1&#45;&gt;Node5</title>
<path fill="none" stroke="#191970" d="M93.0722,-68.8736C105.0674,-67.4289 118.4662,-65.8151 132.1331,-64.169"/>
<polygon fill="#191970" stroke="#191970" points="132.6061,-67.6374 142.1158,-62.9667 131.769,-60.6877 132.6061,-67.6374"/>
</g>
<!-- Node6 -->
<g id="node6" class="node">
<title>Node6</title>
<g id="a_node6"><a xlink:href="classlocomotor_1_1core_1_1_password_storage.html#a8aed671707607cbe03d43c3d785f177e" target="_top" xlink:title="locomotor.core.PasswordStorage.createHash">
<polygon fill="#ffffff" stroke="#000000" points="128.7139,-.5 128.7139,-18.5 345.9297,-18.5 345.9297,-.5 128.7139,-.5"/>
<text text-anchor="middle" x="237.3218" y="-6.5" font-family="Helvetica,sans-Serif" font-size="10.00" fill="#000000">locomotor.core.PasswordStorage.createHash</text>
</a>
</g>
</g>
<!-- Node1&#45;&gt;Node6 -->
<g id="edge5" class="edge">
<title>Node1&#45;&gt;Node6</title>
<path fill="none" stroke="#191970" d="M59.3904,-65.3825C75.0951,-54.8434 102.6327,-37.7636 128.7139,-28.5 137.2579,-25.4653 146.3584,-22.9031 155.5169,-20.7426"/>
<polygon fill="#191970" stroke="#191970" points="156.4419,-24.1228 165.4541,-18.5523 154.9351,-17.2869 156.4419,-24.1228"/>
</g>
<!-- Node4 -->
<g id="node4" class="node">
<title>Node4</title>
<g id="a_node4"><a xlink:href="classlocomotor_1_1components_1_1logging_1_1_error_context.html#afcf30b71bfc65c74878c7ab77c951842" target="_top" xlink:title="locomotor.components.logging.\lErrorContext.push">
<polygon fill="#ffffff" stroke="#000000" points="381.9297,-84.5 381.9297,-112.5 536.3525,-112.5 536.3525,-84.5 381.9297,-84.5"/>
<text text-anchor="start" x="389.9297" y="-100.5" font-family="Helvetica,sans-Serif" font-size="10.00" fill="#000000">locomotor.components.logging.</text>
<text text-anchor="middle" x="459.1411" y="-90.5" font-family="Helvetica,sans-Serif" font-size="10.00" fill="#000000">ErrorContext.push</text>
</a>
</g>
</g>
<!-- Node3&#45;&gt;Node4 -->
<g id="edge3" class="edge">
<title>Node3&#45;&gt;Node4</title>
<path fill="none" stroke="#191970" d="M314.592,-98.5C333.0334,-98.5 352.8453,-98.5 371.7078,-98.5"/>
<polygon fill="#191970" stroke="#191970" points="371.7724,-102.0001 381.7724,-98.5 371.7723,-95.0001 371.7724,-102.0001"/>
</g>
</g>
</svg>
