<?xml version="1.0" encoding="UTF-8" standalone="no"?>
<!DOCTYPE svg PUBLIC "-//W3C//DTD SVG 1.1//EN"
 "http://www.w3.org/Graphics/SVG/1.1/DTD/svg11.dtd">
<!-- Generated by graphviz version 2.40.1 (20161225.0304)
 -->
<!-- Title: getTree Pages: 1 -->
<svg width="604pt" height="160pt"
 viewBox="0.00 0.00 604.32 160.00" xmlns="http://www.w3.org/2000/svg" xmlns:xlink="http://www.w3.org/1999/xlink">
<g id="graph0" class="graph" transform="scale(1 1) rotate(0) translate(4 156)">
<title>getTree</title>
<polygon fill="#ffffff" stroke="transparent" points="-4,4 -4,-156 600.3164,-156 600.3164,4 -4,4"/>
<!-- Node1 -->
<g id="node1" class="node">
<title>Node1</title>
<polygon fill="#bfbfbf" stroke="#000000" points="0,-59.5 0,-77.5 50.0967,-77.5 50.0967,-59.5 0,-59.5"/>
<text text-anchor="middle" x="25.0483" y="-65.5" font-family="Helvetica,sans-Serif" font-size="10.00" fill="#000000">getTree</text>
</g>
<!-- Node2 -->
<g id="node2" class="node">
<title>Node2</title>
<g id="a_node2"><a xlink:href="classlocomotor_1_1components_1_1types_1_1_c_tree.html#ae9dea42fcae074448f7cf65759642b7e" target="_top" xlink:title="locomotor.components.types.\lCTree.getData">
<polygon fill="#ffffff" stroke="#000000" points="86.0967,-123.5 86.0967,-151.5 232.1699,-151.5 232.1699,-123.5 86.0967,-123.5"/>
<text text-anchor="start" x="94.0967" y="-139.5" font-family="Helvetica,sans-Serif" font-size="10.00" fill="#000000">locomotor.components.types.</text>
<text text-anchor="middle" x="159.1333" y="-129.5" font-family="Helvetica,sans-Serif" font-size="10.00" fill="#000000">CTree.getData</text>
</a>
</g>
</g>
<!-- Node1&#45;&gt;Node2 -->
<g id="edge1" class="edge">
<title>Node1&#45;&gt;Node2</title>
<path fill="none" stroke="#191970" d="M35.1167,-77.8201C46.656,-88.0688 66.5103,-104.4172 86.0967,-114.5 89.6518,-116.3301 93.3798,-118.0477 97.1909,-119.6539"/>
<polygon fill="#191970" stroke="#191970" points="96.1969,-123.0237 106.7844,-123.4178 98.7536,-116.5072 96.1969,-123.0237"/>
</g>
<!-- Node3 -->
<g id="node3" class="node">
<title>Node3</title>
<g id="a_node3"><a xlink:href="classlocomotor_1_1components_1_1types_1_1_c_tree.html#aa4f5971d4294394c235a62bbf96660f1" target="_top" xlink:title="locomotor.components.types.\lCTree.getChildren">
<polygon fill="#ffffff" stroke="#000000" points="86.0967,-76.5 86.0967,-104.5 232.1699,-104.5 232.1699,-76.5 86.0967,-76.5"/>
<text text-anchor="start" x="94.0967" y="-92.5" font-family="Helvetica,sans-Serif" font-size="10.00" fill="#000000">locomotor.components.types.</text>
<text text-anchor="middle" x="159.1333" y="-82.5" font-family="Helvetica,sans-Serif" font-size="10.00" fill="#000000">CTree.getChildren</text>
</a>
</g>
</g>
<!-- Node1&#45;&gt;Node3 -->
<g id="edge2" class="edge">
<title>Node1&#45;&gt;Node3</title>
<path fill="none" stroke="#191970" d="M50.2687,-72.638C57.8454,-73.8812 66.6086,-75.319 75.8071,-76.8283"/>
<polygon fill="#191970" stroke="#191970" points="75.4891,-80.3228 85.9238,-78.4882 76.6225,-73.4151 75.4891,-80.3228"/>
</g>
<!-- Node4 -->
<g id="node4" class="node">
<title>Node4</title>
<g id="a_node4"><a xlink:href="classlocomotor_1_1components_1_1types_1_1_c_tree.html#a74382cb3a3153edc32f1cfed8c4ee364" target="_top" xlink:title="locomotor.components.types.\lCTree.addChild">
<polygon fill="#ffffff" stroke="#000000" points="268.1699,-14.5 268.1699,-42.5 414.2432,-42.5 414.2432,-14.5 268.1699,-14.5"/>
<text text-anchor="start" x="276.1699" y="-30.5" font-family="Helvetica,sans-Serif" font-size="10.00" fill="#000000">locomotor.components.types.</text>
<text text-anchor="middle" x="341.2065" y="-20.5" font-family="Helvetica,sans-Serif" font-size="10.00" fill="#000000">CTree.addChild</text>
</a>
</g>
</g>
<!-- Node1&#45;&gt;Node4 -->
<g id="edge3" class="edge">
<title>Node1&#45;&gt;Node4</title>
<path fill="none" stroke="#191970" d="M50.121,-65.3278C94.5274,-59.7096 188.8437,-47.7768 258.133,-39.0104"/>
<polygon fill="#191970" stroke="#191970" points="258.6839,-42.4687 268.1655,-37.7411 257.8052,-35.524 258.6839,-42.4687"/>
</g>
<!-- Node6 -->
<g id="node6" class="node">
<title>Node6</title>
<g id="a_node6"><a xlink:href="classlocomotor_1_1components_1_1types_1_1_type_factory.html#aa1f74ce70c02a7665f32b4ec438a6c3c" target="_top" xlink:title="getTree">
<polygon fill="#ffffff" stroke="#000000" points="134.085,-.5 134.085,-18.5 184.1816,-18.5 184.1816,-.5 134.085,-.5"/>
<text text-anchor="middle" x="159.1333" y="-6.5" font-family="Helvetica,sans-Serif" font-size="10.00" fill="#000000">getTree</text>
</a>
</g>
</g>
<!-- Node1&#45;&gt;Node6 -->
<g id="edge5" class="edge">
<title>Node1&#45;&gt;Node6</title>
<path fill="none" stroke="#191970" d="M39.1704,-59.3023C51.2746,-51.6909 69.3567,-40.9561 86.0967,-33.5 98.1937,-28.1119 111.8848,-23.2953 124.1173,-19.4165"/>
<polygon fill="#191970" stroke="#191970" points="125.4505,-22.6684 133.9824,-16.3869 123.3955,-15.9769 125.4505,-22.6684"/>
</g>
<!-- Node5 -->
<g id="node5" class="node">
<title>Node5</title>
<g id="a_node5"><a xlink:href="classlocomotor_1_1components_1_1types_1_1_c_tree.html#af0e7a198496b1627d0ff15ce0e6de1f2" target="_top" xlink:title="locomotor.components.types.\lCTree.CTree">
<polygon fill="#ffffff" stroke="#000000" points="450.2432,-14.5 450.2432,-42.5 596.3164,-42.5 596.3164,-14.5 450.2432,-14.5"/>
<text text-anchor="start" x="458.2432" y="-30.5" font-family="Helvetica,sans-Serif" font-size="10.00" fill="#000000">locomotor.components.types.</text>
<text text-anchor="middle" x="523.2798" y="-20.5" font-family="Helvetica,sans-Serif" font-size="10.00" fill="#000000">CTree.CTree</text>
</a>
</g>
</g>
<!-- Node4&#45;&gt;Node5 -->
<g id="edge4" class="edge">
<title>Node4&#45;&gt;Node5</title>
<path fill="none" stroke="#191970" d="M414.4757,-28.5C422.8356,-28.5 431.4035,-28.5 439.8824,-28.5"/>
<polygon fill="#191970" stroke="#191970" points="440.1607,-32.0001 450.1606,-28.5 440.1606,-25.0001 440.1607,-32.0001"/>
</g>
<!-- Node6&#45;&gt;Node4 -->
<g id="edge6" class="edge">
<title>Node6&#45;&gt;Node4</title>
<path fill="none" stroke="#191970" d="M184.4498,-12.1419C203.598,-14.1401 231.0522,-17.005 257.6492,-19.7805"/>
<polygon fill="#191970" stroke="#191970" points="257.4725,-23.281 267.7817,-20.8379 258.199,-16.3188 257.4725,-23.281"/>
</g>
</g>
</svg>
