<?xml version="1.0" encoding="UTF-8" standalone="no"?>
<!DOCTYPE svg PUBLIC "-//W3C//DTD SVG 1.1//EN"
 "http://www.w3.org/Graphics/SVG/1.1/DTD/svg11.dtd">
<!-- Generated by graphviz version 2.40.1 (20161225.0304)
 -->
<!-- Title: addParam Pages: 1 -->
<!--zoomable 234 -->
<svg id="main" version="1.1" xmlns="http://www.w3.org/2000/svg" xmlns:xlink="http://www.w3.org/1999/xlink" xml:space="preserve" onload="init(evt)">
<style type="text/css"><![CDATA[
.edge:hover path { stroke: red; }
.edge:hover polygon { stroke: red; fill: red; }
]]></style>
<script type="text/javascript"><![CDATA[
var edges = document.getElementsByTagName('g');
if (edges && edges.length) {
  for (var i=0;i<edges.length;i++) {
    if (edges[i].id.substr(0,4)=='edge') {
      edges[i].setAttribute('class','edge');
    }
  }
}
]]></script>
        <defs>
                <circle id="rim" cx="0" cy="0" r="7"/>
                <circle id="rim2" cx="0" cy="0" r="3.5"/>
                <g id="zoomPlus">
                        <use xlink:href="#rim" fill="#404040">
                                <set attributeName="fill" to="#808080" begin="zoomplus.mouseover" end="zoomplus.mouseout"/>
                        </use>
                        <path d="M-4,0h8M0,-4v8" fill="none" stroke="white" stroke-width="1.5" pointer-events="none"/>
                </g>
                <g id="zoomMin">
                        <use xlink:href="#rim" fill="#404040">
                                <set attributeName="fill" to="#808080" begin="zoomminus.mouseover" end="zoomminus.mouseout"/>
                        </use>
                        <path d="M-4,0h8" fill="none" stroke="white" stroke-width="1.5" pointer-events="none"/>
                </g>
                <g id="dirArrow">
                        <path fill="none" stroke="white" stroke-width="1.5" d="M0,-3.0v7 M-2.5,-0.5L0,-3.0L2.5,-0.5"/>
                </g>
               <g id="resetDef">
                       <use xlink:href="#rim2" fill="#404040">
                               <set attributeName="fill" to="#808080" begin="reset.mouseover" end="reset.mouseout"/>
                       </use>
               </g>
        </defs>

<script type="text/javascript">
var viewWidth = 510;
var viewHeight = 234;
var sectionId = 'dynsection-2';
</script>
<script xlink:href="svgpan.js"/>
<svg id="graph" class="graph">
<g id="viewport">
<title>addParam</title>
<polygon fill="#ffffff" stroke="transparent" points="-4,4 -4,-230 505.8848,-230 505.8848,4 -4,4"/>
<!-- Node1 -->
<g id="node1" class="node">
<title>Node1</title>
<polygon fill="#bfbfbf" stroke="#000000" points="0,-95.5 0,-113.5 62.1377,-113.5 62.1377,-95.5 0,-95.5"/>
<text text-anchor="middle" x="31.0688" y="-101.5" font-family="Helvetica,sans-Serif" font-size="10.00" fill="#000000">addParam</text>
</g>
<!-- Node2 -->
<g id="node2" class="node">
<title>Node2</title>
<g id="a_node2"><a xlink:href="classlocomotor_1_1front_1_1components_1_1_front_resource_manager.html#aa21c4cd4a2808249949e545c69057811" target="_top" xlink:title="locomotor.front.components.\lFrontResourceManager.getInstance">
<polygon fill="#ffffff" stroke="#000000" points="118.1426,-197.5 118.1426,-225.5 293.6836,-225.5 293.6836,-197.5 118.1426,-197.5"/>
<text text-anchor="start" x="126.1426" y="-213.5" font-family="Helvetica,sans-Serif" font-size="10.00" fill="#000000">locomotor.front.components.</text>
<text text-anchor="middle" x="205.9131" y="-203.5" font-family="Helvetica,sans-Serif" font-size="10.00" fill="#000000">FrontResourceManager.getInstance</text>
</a>
</g>
</g>
<!-- Node1&#45;&gt;Node2 -->
<g id="edge1" class="edge">
<title>Node1&#45;&gt;Node2</title>
<path fill="none" stroke="#191970" d="M41.8346,-122.3728C53.5099,-140.2299 73.7789,-167.1695 98.1377,-182.5 107.9771,-188.6926 119.1246,-193.5754 130.4265,-197.4222"/>
<polygon fill="#191970" stroke="#191970" points="44.5502,-120.1166 36.2611,-113.518 38.626,-123.8455 44.5502,-120.1166"/>
</g>
<!-- Node3 -->
<g id="node3" class="node">
<title>Node3</title>
<g id="a_node3"><a xlink:href="classlocomotor_1_1front_1_1user_1_1_bridge.html#afa7ac789194b4e4f08000205a0f96f11" target="_top" xlink:title="locomotor.front.user.Bridge.get\lModel">
<polygon fill="#ffffff" stroke="#000000" points="349.6885,-154.5 349.6885,-182.5 501.8848,-182.5 501.8848,-154.5 349.6885,-154.5"/>
<text text-anchor="start" x="357.6885" y="-170.5" font-family="Helvetica,sans-Serif" font-size="10.00" fill="#000000">locomotor.front.user.Bridge.get</text>
<text text-anchor="middle" x="425.7866" y="-160.5" font-family="Helvetica,sans-Serif" font-size="10.00" fill="#000000">Model</text>
</a>
</g>
</g>
<!-- Node1&#45;&gt;Node3 -->
<g id="edge8" class="edge">
<title>Node1&#45;&gt;Node3</title>
<path fill="none" stroke="#191970" d="M48.9566,-120.4089C61.7077,-130.7141 79.7803,-143.3259 98.1377,-149.5 180.7674,-177.2907 281.6627,-178.6495 349.4757,-175.2441"/>
<polygon fill="#191970" stroke="#191970" points="50.9467,-117.5093 41.041,-113.7505 46.4406,-122.8662 50.9467,-117.5093"/>
</g>
<!-- Node4 -->
<g id="node4" class="node">
<title>Node4</title>
<g id="a_node4"><a xlink:href="classlocomotor_1_1front_1_1components_1_1_front_resource_manager.html#a90ec9cbe2d393ac172e03972abf97f1d" target="_top" xlink:title="locomotor.front.components.\lFrontResourceManager.getRemoteResource">
<polygon fill="#ffffff" stroke="#000000" points="98.1377,-111.5 98.1377,-139.5 313.6885,-139.5 313.6885,-111.5 98.1377,-111.5"/>
<text text-anchor="start" x="106.1377" y="-127.5" font-family="Helvetica,sans-Serif" font-size="10.00" fill="#000000">locomotor.front.components.</text>
<text text-anchor="middle" x="205.9131" y="-117.5" font-family="Helvetica,sans-Serif" font-size="10.00" fill="#000000">FrontResourceManager.getRemoteResource</text>
</a>
</g>
</g>
<!-- Node1&#45;&gt;Node4 -->
<g id="edge3" class="edge">
<title>Node1&#45;&gt;Node4</title>
<path fill="none" stroke="#191970" d="M72.3237,-109.455C80.2662,-110.4089 88.9215,-111.4485 97.8833,-112.5249"/>
<polygon fill="#191970" stroke="#191970" points="72.6735,-105.9719 62.3275,-108.2544 71.8387,-112.922 72.6735,-105.9719"/>
</g>
<!-- Node5 -->
<g id="node5" class="node">
<title>Node5</title>
<g id="a_node5"><a xlink:href="classlocomotor_1_1front_1_1user_1_1_bridge.html#a581292d008b50003a8bd95e9c511ad00" target="_top" xlink:title="locomotor.front.user.Bridge.auth">
<polygon fill="#ffffff" stroke="#000000" points="127.0342,-74.5 127.0342,-92.5 284.792,-92.5 284.792,-74.5 127.0342,-74.5"/>
<text text-anchor="middle" x="205.9131" y="-80.5" font-family="Helvetica,sans-Serif" font-size="10.00" fill="#000000">locomotor.front.user.Bridge.auth</text>
</a>
</g>
</g>
<!-- Node1&#45;&gt;Node5 -->
<g id="edge5" class="edge">
<title>Node1&#45;&gt;Node5</title>
<path fill="none" stroke="#191970" d="M72.7183,-99.4976C90.1717,-97.4013 111.0152,-94.8979 130.9728,-92.5008"/>
<polygon fill="#191970" stroke="#191970" points="71.8387,-96.078 62.3275,-100.7456 72.6735,-103.0281 71.8387,-96.078"/>
</g>
<!-- Node6 -->
<g id="node6" class="node">
<title>Node6</title>
<g id="a_node6"><a xlink:href="classlocomotor_1_1front_1_1user_1_1_bridge.html#a1780491711ed9d08ecb55808f269c1ff" target="_top" xlink:title="locomotor.front.user.Bridge.tokenAuth">
<polygon fill="#ffffff" stroke="#000000" points="114.2485,-37.5 114.2485,-55.5 297.5776,-55.5 297.5776,-37.5 114.2485,-37.5"/>
<text text-anchor="middle" x="205.9131" y="-43.5" font-family="Helvetica,sans-Serif" font-size="10.00" fill="#000000">locomotor.front.user.Bridge.tokenAuth</text>
</a>
</g>
</g>
<!-- Node1&#45;&gt;Node6 -->
<g id="edge6" class="edge">
<title>Node1&#45;&gt;Node6</title>
<path fill="none" stroke="#191970" d="M52.2361,-89.5864C64.982,-81.2859 81.8508,-71.4562 98.1377,-65.5 109.4685,-61.3562 121.8092,-58.0992 133.9618,-55.5438"/>
<polygon fill="#191970" stroke="#191970" points="50.1027,-86.803 43.7511,-95.2828 54.0045,-92.6147 50.1027,-86.803"/>
</g>
<!-- Node7 -->
<g id="node7" class="node">
<title>Node7</title>
<g id="a_node7"><a xlink:href="classlocomotor_1_1front_1_1user_1_1_bridge.html#ae0a6da5df3d6b00c1721fd865cbd8098" target="_top" xlink:title="locomotor.front.user.Bridge.register">
<polygon fill="#ffffff" stroke="#000000" points="120.0933,-.5 120.0933,-18.5 291.7329,-18.5 291.7329,-.5 120.0933,-.5"/>
<text text-anchor="middle" x="205.9131" y="-6.5" font-family="Helvetica,sans-Serif" font-size="10.00" fill="#000000">locomotor.front.user.Bridge.register</text>
</a>
</g>
</g>
<!-- Node1&#45;&gt;Node7 -->
<g id="edge7" class="edge">
<title>Node1&#45;&gt;Node7</title>
<path fill="none" stroke="#191970" d="M41.6796,-86.6469C53.231,-68.897 73.4026,-42.3722 98.1377,-28.5 105.5119,-24.3643 113.579,-21.0923 121.8753,-18.5087"/>
<polygon fill="#191970" stroke="#191970" points="38.4992,-85.1324 36.1748,-95.4691 44.438,-88.838 38.4992,-85.1324"/>
</g>
<!-- Node2&#45;&gt;Node3 -->
<g id="edge2" class="edge">
<title>Node2&#45;&gt;Node3</title>
<path fill="none" stroke="#191970" d="M287.5306,-195.5383C309.4121,-191.259 332.8998,-186.6656 354.1934,-182.5013"/>
<polygon fill="#191970" stroke="#191970" points="286.746,-192.1254 277.6037,-197.4797 288.0895,-198.9952 286.746,-192.1254"/>
</g>
<!-- Node4&#45;&gt;Node3 -->
<g id="edge4" class="edge">
<title>Node4&#45;&gt;Node3</title>
<path fill="none" stroke="#191970" d="M287.5306,-141.4617C309.4121,-145.741 332.8998,-150.3344 354.1934,-154.4987"/>
<polygon fill="#191970" stroke="#191970" points="288.0895,-138.0048 277.6037,-139.5203 286.746,-144.8746 288.0895,-138.0048"/>
</g>
</g>
</svg>
        <g id="navigator" transform="translate(0 0)" fill="#404254">
                <rect fill="#f2f5e9" fill-opacity="0.5" stroke="#606060" stroke-width=".5" x="0" y="0" width="60" height="60"/>
                <use id="zoomplus" xlink:href="#zoomPlus" x="17" y="9" onmousedown="handleZoom(evt,'in')"/>
                <use id="zoomminus" xlink:href="#zoomMin" x="42" y="9" onmousedown="handleZoom(evt,'out')"/>
                <use id="reset" xlink:href="#resetDef" x="30" y="36" onmousedown="handleReset()"/>
                <g id="arrowUp" xlink:href="#dirArrow" transform="translate(30 24)" onmousedown="handlePan(0,-1)">
                  <use xlink:href="#rim" fill="#404040">
                        <set attributeName="fill" to="#808080" begin="arrowUp.mouseover" end="arrowUp.mouseout"/>
                  </use>
                  <path fill="none" stroke="white" stroke-width="1.5" d="M0,-3.0v7 M-2.5,-0.5L0,-3.0L2.5,-0.5"/>
                </g>
                <g id="arrowRight" xlink:href="#dirArrow" transform="rotate(90) translate(36 -43)" onmousedown="handlePan(1,0)">
                  <use xlink:href="#rim" fill="#404040">
                        <set attributeName="fill" to="#808080" begin="arrowRight.mouseover" end="arrowRight.mouseout"/>
                  </use>
                  <path fill="none" stroke="white" stroke-width="1.5" d="M0,-3.0v7 M-2.5,-0.5L0,-3.0L2.5,-0.5"/>
                </g>
                <g id="arrowDown" xlink:href="#dirArrow" transform="rotate(180) translate(-30 -48)" onmousedown="handlePan(0,1)">
                  <use xlink:href="#rim" fill="#404040">
                        <set attributeName="fill" to="#808080" begin="arrowDown.mouseover" end="arrowDown.mouseout"/>
                  </use>
                  <path fill="none" stroke="white" stroke-width="1.5" d="M0,-3.0v7 M-2.5,-0.5L0,-3.0L2.5,-0.5"/>
                </g>
                <g id="arrowLeft" xlink:href="#dirArrow" transform="rotate(270) translate(-36 17)" onmousedown="handlePan(-1,0)">
                  <use xlink:href="#rim" fill="#404040">
                        <set attributeName="fill" to="#808080" begin="arrowLeft.mouseover" end="arrowLeft.mouseout"/>
                  </use>
                  <path fill="none" stroke="white" stroke-width="1.5" d="M0,-3.0v7 M-2.5,-0.5L0,-3.0L2.5,-0.5"/>
                </g>
        </g>
        <svg viewBox="0 0 15 15" width="100%" height="30px" preserveAspectRatio="xMaxYMin meet">
         <g id="arrow_out" transform="scale(0.3 0.3)">
          <a xlink:href="classlocomotor_1_1front_1_1components_1_1network_1_1_client_request_a5177dbc0e509337643b1931cab9832ca_icgraph_org.svg" target="_base">
           <rect id="button" ry="5" rx="5" y="6" x="6" height="38" width="38"
                fill="#f2f5e9" fill-opacity="0.5" stroke="#606060" stroke-width="1.0"/>
           <path id="arrow"
             d="M 11.500037,31.436501 C 11.940474,20.09759 22.043105,11.32322 32.158766,21.979434 L 37.068811,17.246167 C 37.068811,17.246167 37.088388,32 37.088388,32 L 22.160133,31.978069 C 22.160133,31.978069 26.997745,27.140456 26.997745,27.140456 C 18.528582,18.264221 13.291696,25.230495 11.500037,31.436501 z"
             style="fill:#404040;"/>
          </a>
         </g>
        </svg>
</svg>
