<?xml version="1.0" encoding="UTF-8" standalone="no"?>
<!DOCTYPE svg PUBLIC "-//W3C//DTD SVG 1.1//EN"
 "http://www.w3.org/Graphics/SVG/1.1/DTD/svg11.dtd">
<!-- Generated by graphviz version 2.40.1 (20161225.0304)
 -->
<!-- Title: getValue Pages: 1 -->
<svg width="834pt" height="176pt"
 viewBox="0.00 0.00 834.38 176.00" xmlns="http://www.w3.org/2000/svg" xmlns:xlink="http://www.w3.org/1999/xlink">
<g id="graph0" class="graph" transform="scale(1 1) rotate(0) translate(4 172)">
<title>getValue</title>
<polygon fill="#ffffff" stroke="transparent" points="-4,4 -4,-172 830.3828,-172 830.3828,4 -4,4"/>
<!-- Node1 -->
<g id="node1" class="node">
<title>Node1</title>
<polygon fill="#bfbfbf" stroke="#000000" points="0,-79.5 0,-97.5 54.7402,-97.5 54.7402,-79.5 0,-79.5"/>
<text text-anchor="middle" x="27.3701" y="-85.5" font-family="Helvetica,sans-Serif" font-size="10.00" fill="#000000">getValue</text>
</g>
<!-- Node2 -->
<g id="node2" class="node">
<title>Node2</title>
<g id="a_node2"><a xlink:href="classlocomotor_1_1components_1_1network_1_1_network_response.html#ab1be964e3a5f4dfc34483da5bfd13a8a" target="_top" xlink:title="locomotor.components.network.\lNetworkResponse.failure">
<polygon fill="#ffffff" stroke="#000000" points="90.7402,-74.5 90.7402,-102.5 247.9268,-102.5 247.9268,-74.5 90.7402,-74.5"/>
<text text-anchor="start" x="98.7402" y="-90.5" font-family="Helvetica,sans-Serif" font-size="10.00" fill="#000000">locomotor.components.network.</text>
<text text-anchor="middle" x="169.3335" y="-80.5" font-family="Helvetica,sans-Serif" font-size="10.00" fill="#000000">NetworkResponse.failure</text>
</a>
</g>
</g>
<!-- Node1&#45;&gt;Node2 -->
<g id="edge1" class="edge">
<title>Node1&#45;&gt;Node2</title>
<path fill="none" stroke="#191970" d="M64.8436,-88.5C72.8916,-88.5 81.6854,-88.5 90.645,-88.5"/>
<polygon fill="#191970" stroke="#191970" points="64.7421,-85.0001 54.7421,-88.5 64.742,-92.0001 64.7421,-85.0001"/>
</g>
<!-- Node3 -->
<g id="node3" class="node">
<title>Node3</title>
<g id="a_node3"><a xlink:href="classlocomotor_1_1components_1_1network_1_1_a_p_i.html#a547463fbc7fb7b485886f0917e2c0b78" target="_top" xlink:title="locomotor.components.network.\lAPI.createHooks">
<polygon fill="#ffffff" stroke="#000000" points="502.6992,-139.5 502.6992,-167.5 659.8857,-167.5 659.8857,-139.5 502.6992,-139.5"/>
<text text-anchor="start" x="510.6992" y="-155.5" font-family="Helvetica,sans-Serif" font-size="10.00" fill="#000000">locomotor.components.network.</text>
<text text-anchor="middle" x="581.2925" y="-145.5" font-family="Helvetica,sans-Serif" font-size="10.00" fill="#000000">API.createHooks</text>
</a>
</g>
</g>
<!-- Node2&#45;&gt;Node3 -->
<g id="edge2" class="edge">
<title>Node2&#45;&gt;Node3</title>
<path fill="none" stroke="#191970" d="M207.0323,-106.6964C228.9507,-116.4056 257.403,-127.55 283.9268,-133.5 356.7555,-149.8375 441.925,-154.1135 502.4043,-154.7335"/>
<polygon fill="#191970" stroke="#191970" points="208.3121,-103.434 197.7584,-102.5018 205.4274,-109.8119 208.3121,-103.434"/>
</g>
<!-- Node5 -->
<g id="node5" class="node">
<title>Node5</title>
<g id="a_node5"><a xlink:href="classlocomotor_1_1components_1_1network_1_1_i_endpoint_handler.html#ab14119ba2d6d06adbe73a9805f5130c6" target="_top" xlink:title="locomotor.components.network.\lIEndpointHandler.handle">
<polygon fill="#ffffff" stroke="#000000" points="296.7197,-96.5 296.7197,-124.5 453.9063,-124.5 453.9063,-96.5 296.7197,-96.5"/>
<text text-anchor="start" x="304.7197" y="-112.5" font-family="Helvetica,sans-Serif" font-size="10.00" fill="#000000">locomotor.components.network.</text>
<text text-anchor="middle" x="375.313" y="-102.5" font-family="Helvetica,sans-Serif" font-size="10.00" fill="#000000">IEndpointHandler.handle</text>
</a>
</g>
</g>
<!-- Node2&#45;&gt;Node5 -->
<g id="edge4" class="edge">
<title>Node2&#45;&gt;Node5</title>
<path fill="none" stroke="#191970" d="M258.2427,-97.9961C271.0034,-99.359 284.058,-100.7534 296.603,-102.0932"/>
<polygon fill="#191970" stroke="#191970" points="258.4024,-94.4933 248.0872,-96.9114 257.6589,-101.4537 258.4024,-94.4933"/>
</g>
<!-- Node6 -->
<g id="node6" class="node">
<title>Node6</title>
<g id="a_node6"><a xlink:href="classlocomotor_1_1components_1_1network_1_1_network_handler.html#a63d431845f1fd2adc1f96432f6003e25" target="_top" xlink:title="locomotor.components.network.\lNetworkHandler.init">
<polygon fill="#ffffff" stroke="#000000" points="502.6992,-92.5 502.6992,-120.5 659.8857,-120.5 659.8857,-92.5 502.6992,-92.5"/>
<text text-anchor="start" x="510.6992" y="-108.5" font-family="Helvetica,sans-Serif" font-size="10.00" fill="#000000">locomotor.components.network.</text>
<text text-anchor="middle" x="581.2925" y="-98.5" font-family="Helvetica,sans-Serif" font-size="10.00" fill="#000000">NetworkHandler.init</text>
</a>
</g>
</g>
<!-- Node2&#45;&gt;Node6 -->
<g id="edge8" class="edge">
<title>Node2&#45;&gt;Node6</title>
<path fill="none" stroke="#191970" d="M258.1306,-83.5945C317.3258,-81.3831 396.8054,-80.4465 466.6992,-86.5 481.4875,-87.7808 497.2302,-89.9748 512.1602,-92.452"/>
<polygon fill="#191970" stroke="#191970" points="257.9213,-80.1 248.0665,-83.9901 258.1963,-87.0946 257.9213,-80.1"/>
</g>
<!-- Node7 -->
<g id="node7" class="node">
<title>Node7</title>
<g id="a_node7"><a xlink:href="classlocomotor_1_1components_1_1network_1_1_i_endpoint_handler.html#a754e26560b323ad92f51d07b4cd02d2a" target="_top" xlink:title="locomotor.components.network.\lIEndpointHandler.sendDefaultMissing\lParametersMessage">
<polygon fill="#ffffff" stroke="#000000" points="283.9268,-.5 283.9268,-38.5 466.6992,-38.5 466.6992,-.5 283.9268,-.5"/>
<text text-anchor="start" x="291.9268" y="-26.5" font-family="Helvetica,sans-Serif" font-size="10.00" fill="#000000">locomotor.components.network.</text>
<text text-anchor="start" x="291.9268" y="-16.5" font-family="Helvetica,sans-Serif" font-size="10.00" fill="#000000">IEndpointHandler.sendDefaultMissing</text>
<text text-anchor="middle" x="375.313" y="-6.5" font-family="Helvetica,sans-Serif" font-size="10.00" fill="#000000">ParametersMessage</text>
</a>
</g>
</g>
<!-- Node2&#45;&gt;Node7 -->
<g id="edge7" class="edge">
<title>Node2&#45;&gt;Node7</title>
<path fill="none" stroke="#191970" d="M221.2393,-71.1123C250.8303,-61.1998 287.9556,-48.7634 318.3485,-38.5822"/>
<polygon fill="#191970" stroke="#191970" points="219.8839,-67.8751 211.5136,-74.3703 222.1074,-74.5126 219.8839,-67.8751"/>
</g>
<!-- Node4 -->
<g id="node4" class="node">
<title>Node4</title>
<g id="a_node4"><a xlink:href="classlocomotor_1_1core_1_1_main.html#a8b260eecbaabcef8473fd87ada040682" target="_top" xlink:title="locomotor.core.Main.main">
<polygon fill="#ffffff" stroke="#000000" points="695.8857,-120.5 695.8857,-138.5 826.3828,-138.5 826.3828,-120.5 695.8857,-120.5"/>
<text text-anchor="middle" x="761.1343" y="-126.5" font-family="Helvetica,sans-Serif" font-size="10.00" fill="#000000">locomotor.core.Main.main</text>
</a>
</g>
</g>
<!-- Node3&#45;&gt;Node4 -->
<g id="edge3" class="edge">
<title>Node3&#45;&gt;Node4</title>
<path fill="none" stroke="#191970" d="M670.0855,-141.6505C678.7738,-140.4911 687.4761,-139.3297 695.868,-138.2098"/>
<polygon fill="#191970" stroke="#191970" points="669.3612,-138.2161 659.9121,-143.0082 670.2872,-145.1545 669.3612,-138.2161"/>
</g>
<!-- Node5&#45;&gt;Node6 -->
<g id="edge5" class="edge">
<title>Node5&#45;&gt;Node6</title>
<path fill="none" stroke="#191970" d="M464.2222,-108.7734C476.9829,-108.5256 490.0375,-108.2721 502.5825,-108.0285"/>
<polygon fill="#191970" stroke="#191970" points="463.9968,-105.2771 454.0667,-108.9706 464.1328,-112.2757 463.9968,-105.2771"/>
</g>
<!-- Node6&#45;&gt;Node4 -->
<g id="edge6" class="edge">
<title>Node6&#45;&gt;Node4</title>
<path fill="none" stroke="#191970" d="M670.0855,-117.8558C678.7738,-118.9669 687.4761,-120.0798 695.868,-121.1531"/>
<polygon fill="#191970" stroke="#191970" points="670.2753,-114.3516 659.9121,-116.5547 669.3873,-121.2951 670.2753,-114.3516"/>
</g>
</g>
</svg>
