<?xml version="1.0" encoding="UTF-8" standalone="no"?>
<!DOCTYPE svg PUBLIC "-//W3C//DTD SVG 1.1//EN"
 "http://www.w3.org/Graphics/SVG/1.1/DTD/svg11.dtd">
<!-- Generated by graphviz version 2.40.1 (20161225.0304)
 -->
<!-- Title: isAdmin Pages: 1 -->
<svg width="611pt" height="89pt"
 viewBox="0.00 0.00 611.32 88.65" xmlns="http://www.w3.org/2000/svg" xmlns:xlink="http://www.w3.org/1999/xlink">
<g id="graph0" class="graph" transform="scale(1 1) rotate(0) translate(4 84.6511)">
<title>isAdmin</title>
<polygon fill="#ffffff" stroke="transparent" points="-4,4 -4,-84.6511 607.3184,-84.6511 607.3184,4 -4,4"/>
<!-- Node1 -->
<g id="node1" class="node">
<title>Node1</title>
<polygon fill="#bfbfbf" stroke="#000000" points="0,-47.5 0,-65.5 51.5664,-65.5 51.5664,-47.5 0,-47.5"/>
<text text-anchor="middle" x="25.7832" y="-53.5" font-family="Helvetica,sans-Serif" font-size="10.00" fill="#000000">isAdmin</text>
</g>
<!-- Node2 -->
<g id="node2" class="node">
<title>Node2</title>
<g id="a_node2"><a xlink:href="classlocomotor_1_1components_1_1network_1_1_a_p_i.html#a547463fbc7fb7b485886f0917e2c0b78" target="_top" xlink:title="locomotor.components.network.\lAPI.createHooks">
<polygon fill="#ffffff" stroke="#000000" points="279.6348,-42.5 279.6348,-70.5 436.8213,-70.5 436.8213,-42.5 279.6348,-42.5"/>
<text text-anchor="start" x="287.6348" y="-58.5" font-family="Helvetica,sans-Serif" font-size="10.00" fill="#000000">locomotor.components.network.</text>
<text text-anchor="middle" x="358.228" y="-48.5" font-family="Helvetica,sans-Serif" font-size="10.00" fill="#000000">API.createHooks</text>
</a>
</g>
</g>
<!-- Node1&#45;&gt;Node2 -->
<g id="edge1" class="edge">
<title>Node1&#45;&gt;Node2</title>
<path fill="none" stroke="#191970" d="M58.9691,-68.6909C68.1095,-71.5001 78.1128,-74.0792 87.5664,-75.5 153.2475,-85.3712 228.6847,-78.6049 283.206,-70.5337"/>
<polygon fill="#191970" stroke="#191970" points="60.0486,-65.3616 49.4564,-65.5962 57.883,-72.0182 60.0486,-65.3616"/>
</g>
<!-- Node4 -->
<g id="node4" class="node">
<title>Node4</title>
<g id="a_node4"><a xlink:href="classlocomotor_1_1core_1_1_d_b_h.html#ad707f520f60fe68ea8a8818698560d9d" target="_top" xlink:title="locomotor.core.DBH.authAdmin">
<polygon fill="#ffffff" stroke="#000000" points="87.5664,-47.5 87.5664,-65.5 243.6348,-65.5 243.6348,-47.5 87.5664,-47.5"/>
<text text-anchor="middle" x="165.6006" y="-53.5" font-family="Helvetica,sans-Serif" font-size="10.00" fill="#000000">locomotor.core.DBH.authAdmin</text>
</a>
</g>
</g>
<!-- Node1&#45;&gt;Node4 -->
<g id="edge3" class="edge">
<title>Node1&#45;&gt;Node4</title>
<path fill="none" stroke="#191970" d="M61.7613,-56.5C69.7544,-56.5 78.5286,-56.5 87.4851,-56.5"/>
<polygon fill="#191970" stroke="#191970" points="61.7541,-53.0001 51.7541,-56.5 61.7541,-60.0001 61.7541,-53.0001"/>
</g>
<!-- Node5 -->
<g id="node5" class="node">
<title>Node5</title>
<g id="a_node5"><a xlink:href="classlocomotor_1_1core_1_1_d_b_h.html#a3d7a9a94e400a13566495c07c3b1be00" target="_top" xlink:title="locomotor.core.DBH.admin\lStillExists">
<polygon fill="#ffffff" stroke="#000000" points="97.8521,-.5 97.8521,-28.5 233.3491,-28.5 233.3491,-.5 97.8521,-.5"/>
<text text-anchor="start" x="105.8521" y="-16.5" font-family="Helvetica,sans-Serif" font-size="10.00" fill="#000000">locomotor.core.DBH.admin</text>
<text text-anchor="middle" x="165.6006" y="-6.5" font-family="Helvetica,sans-Serif" font-size="10.00" fill="#000000">StillExists</text>
</a>
</g>
</g>
<!-- Node1&#45;&gt;Node5 -->
<g id="edge5" class="edge">
<title>Node1&#45;&gt;Node5</title>
<path fill="none" stroke="#191970" d="M61.5333,-45.761C78.9593,-40.5263 100.1398,-34.1639 118.8323,-28.5488"/>
<polygon fill="#191970" stroke="#191970" points="60.3244,-42.4695 51.7541,-48.6986 62.3383,-49.1736 60.3244,-42.4695"/>
</g>
<!-- Node3 -->
<g id="node3" class="node">
<title>Node3</title>
<g id="a_node3"><a xlink:href="classlocomotor_1_1core_1_1_main.html#a8b260eecbaabcef8473fd87ada040682" target="_top" xlink:title="locomotor.core.Main.main">
<polygon fill="#ffffff" stroke="#000000" points="472.8213,-47.5 472.8213,-65.5 603.3184,-65.5 603.3184,-47.5 472.8213,-47.5"/>
<text text-anchor="middle" x="538.0698" y="-53.5" font-family="Helvetica,sans-Serif" font-size="10.00" fill="#000000">locomotor.core.Main.main</text>
</a>
</g>
</g>
<!-- Node2&#45;&gt;Node3 -->
<g id="edge2" class="edge">
<title>Node2&#45;&gt;Node3</title>
<path fill="none" stroke="#191970" d="M447.0211,-56.5C455.7094,-56.5 464.4117,-56.5 472.8036,-56.5"/>
<polygon fill="#191970" stroke="#191970" points="446.8477,-53.0001 436.8476,-56.5 446.8476,-60.0001 446.8477,-53.0001"/>
</g>
<!-- Node4&#45;&gt;Node2 -->
<g id="edge4" class="edge">
<title>Node4&#45;&gt;Node2</title>
<path fill="none" stroke="#191970" d="M253.6884,-56.5C262.2694,-56.5 270.9381,-56.5 279.4194,-56.5"/>
<polygon fill="#191970" stroke="#191970" points="253.6719,-53.0001 243.6718,-56.5 253.6718,-60.0001 253.6719,-53.0001"/>
</g>
<!-- Node5&#45;&gt;Node2 -->
<g id="edge6" class="edge">
<title>Node5&#45;&gt;Node2</title>
<path fill="none" stroke="#191970" d="M239.7924,-30.6766C257.6279,-34.5654 276.5334,-38.6875 293.8788,-42.4694"/>
<polygon fill="#191970" stroke="#191970" points="240.5266,-27.2545 230.0105,-28.5438 239.0354,-34.0938 240.5266,-27.2545"/>
</g>
</g>
</svg>
