<?xml version="1.0" encoding="UTF-8" standalone="no"?>
<!DOCTYPE svg PUBLIC "-//W3C//DTD SVG 1.1//EN"
 "http://www.w3.org/Graphics/SVG/1.1/DTD/svg11.dtd">
<!-- Generated by graphviz version 2.40.1 (20161225.0304)
 -->
<!-- Title: AccreditationLevel Pages: 1 -->
<svg width="157pt" height="102pt"
 viewBox="0.00 0.00 156.58 102.00" xmlns="http://www.w3.org/2000/svg" xmlns:xlink="http://www.w3.org/1999/xlink">
<g id="graph0" class="graph" transform="scale(1 1) rotate(0) translate(4 98)">
<title>AccreditationLevel</title>
<polygon fill="#ffffff" stroke="transparent" points="-4,4 -4,-98 152.583,-98 152.583,4 -4,4"/>
<!-- Node1 -->
<g id="node1" class="node">
<title>Node1</title>
<polygon fill="#bfbfbf" stroke="#000000" points="25.4346,-.5 25.4346,-18.5 123.1484,-18.5 123.1484,-.5 25.4346,-.5"/>
<text text-anchor="middle" x="74.2915" y="-6.5" font-family="Helvetica,sans-Serif" font-size="10.00" fill="#000000">AccreditationLevel</text>
</g>
<!-- Node2 -->
<g id="node2" class="node">
<title>Node2</title>
<polygon fill="#ffffff" stroke="#bfbfbf" points="0,-65.5 0,-93.5 148.583,-93.5 148.583,-65.5 0,-65.5"/>
<text text-anchor="start" x="8" y="-81.5" font-family="Helvetica,sans-Serif" font-size="10.00" fill="#000000">Map&lt; Integer, locomotor.core.</text>
<text text-anchor="middle" x="74.2915" y="-71.5" font-family="Helvetica,sans-Serif" font-size="10.00" fill="#000000">AccreditationLevel &gt;</text>
</g>
<!-- Node2&#45;&gt;Node1 -->
<g id="edge1" class="edge">
<title>Node2&#45;&gt;Node1</title>
<path fill="none" stroke="#9a32cd" stroke-dasharray="5,2" d="M74.2915,-55.007C74.2915,-42.4648 74.2915,-27.9386 74.2915,-18.7368"/>
<polygon fill="#9a32cd" stroke="#9a32cd" points="70.7916,-55.3344 74.2915,-65.3345 77.7916,-55.3345 70.7916,-55.3344"/>
<text text-anchor="middle" x="88.188" y="-39" font-family="Helvetica,sans-Serif" font-size="10.00" fill="#000000"> _map</text>
</g>
</g>
</svg>
