<?xml version="1.0" encoding="UTF-8" standalone="no"?>
<!DOCTYPE svg PUBLIC "-//W3C//DTD SVG 1.1//EN"
 "http://www.w3.org/Graphics/SVG/1.1/DTD/svg11.dtd">
<!-- Generated by graphviz version 2.40.1 (20161225.0304)
 -->
<!-- Title: valueOf Pages: 1 -->
<!--zoomable 191 -->
<svg id="main" version="1.1" xmlns="http://www.w3.org/2000/svg" xmlns:xlink="http://www.w3.org/1999/xlink" xml:space="preserve" onload="init(evt)">
<style type="text/css"><![CDATA[
.edge:hover path { stroke: red; }
.edge:hover polygon { stroke: red; fill: red; }
]]></style>
<script type="text/javascript"><![CDATA[
var edges = document.getElementsByTagName('g');
if (edges && edges.length) {
  for (var i=0;i<edges.length;i++) {
    if (edges[i].id.substr(0,4)=='edge') {
      edges[i].setAttribute('class','edge');
    }
  }
}
]]></script>
        <defs>
                <circle id="rim" cx="0" cy="0" r="7"/>
                <circle id="rim2" cx="0" cy="0" r="3.5"/>
                <g id="zoomPlus">
                        <use xlink:href="#rim" fill="#404040">
                                <set attributeName="fill" to="#808080" begin="zoomplus.mouseover" end="zoomplus.mouseout"/>
                        </use>
                        <path d="M-4,0h8M0,-4v8" fill="none" stroke="white" stroke-width="1.5" pointer-events="none"/>
                </g>
                <g id="zoomMin">
                        <use xlink:href="#rim" fill="#404040">
                                <set attributeName="fill" to="#808080" begin="zoomminus.mouseover" end="zoomminus.mouseout"/>
                        </use>
                        <path d="M-4,0h8" fill="none" stroke="white" stroke-width="1.5" pointer-events="none"/>
                </g>
                <g id="dirArrow">
                        <path fill="none" stroke="white" stroke-width="1.5" d="M0,-3.0v7 M-2.5,-0.5L0,-3.0L2.5,-0.5"/>
                </g>
               <g id="resetDef">
                       <use xlink:href="#rim2" fill="#404040">
                               <set attributeName="fill" to="#808080" begin="reset.mouseover" end="reset.mouseout"/>
                       </use>
               </g>
        </defs>

<script type="text/javascript">
var viewWidth = 809;
var viewHeight = 191;
var sectionId = 'dynsection-3';
</script>
<script xlink:href="svgpan.js"/>
<svg id="graph" class="graph">
<g id="viewport">
<title>valueOf</title>
<polygon fill="#ffffff" stroke="transparent" points="-4,4 -4,-187 804.9043,-187 804.9043,4 -4,4"/>
<!-- Node1 -->
<g id="node1" class="node">
<title>Node1</title>
<polygon fill="#bfbfbf" stroke="#000000" points="0,-69.5 0,-87.5 50.4629,-87.5 50.4629,-69.5 0,-69.5"/>
<text text-anchor="middle" x="25.2314" y="-75.5" font-family="Helvetica,sans-Serif" font-size="10.00" fill="#000000">valueOf</text>
</g>
<!-- Node2 -->
<g id="node2" class="node">
<title>Node2</title>
<g id="a_node2"><a xlink:href="classlocomotor_1_1core_1_1_d_b_h.html#a17eef13d222e2f7d4cc413a965de3069" target="_top" xlink:title="locomotor.core.DBH.registerUser">
<polygon fill="#ffffff" stroke="#000000" points="278.502,-164.5 278.502,-182.5 441.2207,-182.5 441.2207,-164.5 278.502,-164.5"/>
<text text-anchor="middle" x="359.8613" y="-170.5" font-family="Helvetica,sans-Serif" font-size="10.00" fill="#000000">locomotor.core.DBH.registerUser</text>
</a>
</g>
</g>
<!-- Node1&#45;&gt;Node2 -->
<g id="edge1" class="edge">
<title>Node1&#45;&gt;Node2</title>
<path fill="none" stroke="#191970" d="M45.6069,-93.6675C57.0817,-101.5444 71.9804,-110.7074 86.4629,-116.5 149.3758,-141.6635 225.0747,-156.3399 280.8515,-164.4801"/>
<polygon fill="#191970" stroke="#191970" points="47.3938,-90.644 37.2118,-87.7152 43.345,-96.3543 47.3938,-90.644"/>
</g>
<!-- Node5 -->
<g id="node5" class="node">
<title>Node5</title>
<g id="a_node5"><a xlink:href="classlocomotor_1_1core_1_1_d_b_h.html#a34b259b9443e3b412e5a704b154546a1" target="_top" xlink:title="locomotor.core.DBH.authUser">
<polygon fill="#ffffff" stroke="#000000" points="90.064,-88.5 90.064,-106.5 238.9009,-106.5 238.9009,-88.5 90.064,-88.5"/>
<text text-anchor="middle" x="164.4824" y="-94.5" font-family="Helvetica,sans-Serif" font-size="10.00" fill="#000000">locomotor.core.DBH.authUser</text>
</a>
</g>
</g>
<!-- Node1&#45;&gt;Node5 -->
<g id="edge5" class="edge">
<title>Node1&#45;&gt;Node5</title>
<path fill="none" stroke="#191970" d="M60.8352,-83.3579C72.3536,-84.9295 85.5192,-86.7259 98.5143,-88.499"/>
<polygon fill="#191970" stroke="#191970" points="61.1536,-79.869 50.7722,-81.9849 60.2072,-86.8048 61.1536,-79.869"/>
</g>
<!-- Node7 -->
<g id="node7" class="node">
<title>Node7</title>
<g id="a_node7"><a xlink:href="classlocomotor_1_1core_1_1_d_b_h.html#a3d7a9a94e400a13566495c07c3b1be00" target="_top" xlink:title="locomotor.core.DBH.admin\lStillExists">
<polygon fill="#ffffff" stroke="#000000" points="292.1128,-41.5 292.1128,-69.5 427.6099,-69.5 427.6099,-41.5 292.1128,-41.5"/>
<text text-anchor="start" x="300.1128" y="-57.5" font-family="Helvetica,sans-Serif" font-size="10.00" fill="#000000">locomotor.core.DBH.admin</text>
<text text-anchor="middle" x="359.8613" y="-47.5" font-family="Helvetica,sans-Serif" font-size="10.00" fill="#000000">StillExists</text>
</a>
</g>
</g>
<!-- Node1&#45;&gt;Node7 -->
<g id="edge9" class="edge">
<title>Node1&#45;&gt;Node7</title>
<path fill="none" stroke="#191970" d="M60.93,-76.0463C115.8362,-72.2725 221.973,-64.9774 291.8672,-60.1734"/>
<polygon fill="#191970" stroke="#191970" points="60.3942,-72.5748 50.6577,-76.7524 60.8742,-79.5583 60.3942,-72.5748"/>
</g>
<!-- Node8 -->
<g id="node8" class="node">
<title>Node8</title>
<g id="a_node8"><a xlink:href="classlocomotor_1_1core_1_1jwt_1_1_j_w_t_h.html#a5bfe06ebb1f388e7fb4fb42c6c2a3875" target="_top" xlink:title="locomotor.core.jwt.JWTH.check\lToken">
<polygon fill="#ffffff" stroke="#000000" points="86.4629,-.5 86.4629,-28.5 242.502,-28.5 242.502,-.5 86.4629,-.5"/>
<text text-anchor="start" x="94.4629" y="-16.5" font-family="Helvetica,sans-Serif" font-size="10.00" fill="#000000">locomotor.core.jwt.JWTH.check</text>
<text text-anchor="middle" x="164.4824" y="-6.5" font-family="Helvetica,sans-Serif" font-size="10.00" fill="#000000">Token</text>
</a>
</g>
</g>
<!-- Node1&#45;&gt;Node8 -->
<g id="edge11" class="edge">
<title>Node1&#45;&gt;Node8</title>
<path fill="none" stroke="#191970" d="M48.253,-64.1511C59.5369,-57.4281 73.4658,-49.5804 86.4629,-43.5 97.9812,-38.1115 110.7998,-33.0008 122.6636,-28.6137"/>
<polygon fill="#191970" stroke="#191970" points="46.2134,-61.2945 39.475,-69.4704 49.8412,-67.2811 46.2134,-61.2945"/>
</g>
<!-- Node3 -->
<g id="node3" class="node">
<title>Node3</title>
<g id="a_node3"><a xlink:href="classlocomotor_1_1components_1_1network_1_1_a_p_i.html#a547463fbc7fb7b485886f0917e2c0b78" target="_top" xlink:title="locomotor.components.network.\lAPI.createHooks">
<polygon fill="#ffffff" stroke="#000000" points="477.2207,-99.5 477.2207,-127.5 634.4072,-127.5 634.4072,-99.5 477.2207,-99.5"/>
<text text-anchor="start" x="485.2207" y="-115.5" font-family="Helvetica,sans-Serif" font-size="10.00" fill="#000000">locomotor.components.network.</text>
<text text-anchor="middle" x="555.814" y="-105.5" font-family="Helvetica,sans-Serif" font-size="10.00" fill="#000000">API.createHooks</text>
</a>
</g>
</g>
<!-- Node2&#45;&gt;Node3 -->
<g id="edge2" class="edge">
<title>Node2&#45;&gt;Node3</title>
<path fill="none" stroke="#191970" d="M401.1591,-161.4701C414.0085,-157.6862 428.2148,-153.4609 441.2207,-149.5 464.5607,-142.3919 490.5024,-134.2615 511.7926,-127.5279"/>
<polygon fill="#191970" stroke="#191970" points="399.8025,-158.2206 391.1939,-164.3966 401.7749,-164.937 399.8025,-158.2206"/>
</g>
<!-- Node4 -->
<g id="node4" class="node">
<title>Node4</title>
<g id="a_node4"><a xlink:href="classlocomotor_1_1core_1_1_main.html#a8b260eecbaabcef8473fd87ada040682" target="_top" xlink:title="locomotor.core.Main.main">
<polygon fill="#ffffff" stroke="#000000" points="670.4072,-125.5 670.4072,-143.5 800.9043,-143.5 800.9043,-125.5 670.4072,-125.5"/>
<text text-anchor="middle" x="735.6558" y="-131.5" font-family="Helvetica,sans-Serif" font-size="10.00" fill="#000000">locomotor.core.Main.main</text>
</a>
</g>
</g>
<!-- Node2&#45;&gt;Node4 -->
<g id="edge4" class="edge">
<title>Node2&#45;&gt;Node4</title>
<path fill="none" stroke="#191970" d="M451.6371,-163.9755C519.3043,-156.953 609.7334,-147.5682 670.199,-141.2931"/>
<polygon fill="#191970" stroke="#191970" points="450.9884,-160.5239 441.4031,-165.0376 451.711,-167.4865 450.9884,-160.5239"/>
</g>
<!-- Node3&#45;&gt;Node4 -->
<g id="edge3" class="edge">
<title>Node3&#45;&gt;Node4</title>
<path fill="none" stroke="#191970" d="M644.607,-123.8683C653.2953,-124.8828 661.9976,-125.899 670.3895,-126.8789"/>
<polygon fill="#191970" stroke="#191970" points="644.7721,-120.3639 634.4336,-122.6804 643.9601,-127.3166 644.7721,-120.3639"/>
</g>
<!-- Node5&#45;&gt;Node3 -->
<g id="edge6" class="edge">
<title>Node5&#45;&gt;Node3</title>
<path fill="none" stroke="#191970" d="M218.0933,-108.3069C237.0882,-111.6375 258.6671,-114.8587 278.502,-116.5 345.3187,-122.029 421.4962,-120.6554 477.0815,-118.2526"/>
<polygon fill="#191970" stroke="#191970" points="218.5899,-104.8401 208.1273,-106.5091 217.3471,-111.7289 218.5899,-104.8401"/>
</g>
<!-- Node6 -->
<g id="node6" class="node">
<title>Node6</title>
<g id="a_node6"><a xlink:href="classlocomotor_1_1core_1_1_d_b_h.html#ad707f520f60fe68ea8a8818698560d9d" target="_top" xlink:title="locomotor.core.DBH.authAdmin">
<polygon fill="#ffffff" stroke="#000000" points="281.8271,-88.5 281.8271,-106.5 437.8955,-106.5 437.8955,-88.5 281.8271,-88.5"/>
<text text-anchor="middle" x="359.8613" y="-94.5" font-family="Helvetica,sans-Serif" font-size="10.00" fill="#000000">locomotor.core.DBH.authAdmin</text>
</a>
</g>
</g>
<!-- Node5&#45;&gt;Node6 -->
<g id="edge7" class="edge">
<title>Node5&#45;&gt;Node6</title>
<path fill="none" stroke="#191970" d="M249.1917,-97.5C260.0093,-97.5 271.043,-97.5 281.7496,-97.5"/>
<polygon fill="#191970" stroke="#191970" points="248.9042,-94.0001 238.9042,-97.5 248.9041,-101.0001 248.9042,-94.0001"/>
</g>
<!-- Node6&#45;&gt;Node3 -->
<g id="edge8" class="edge">
<title>Node6&#45;&gt;Node3</title>
<path fill="none" stroke="#191970" d="M448.1232,-104.7068C457.7507,-105.4929 467.5046,-106.2893 477.008,-107.0653"/>
<polygon fill="#191970" stroke="#191970" points="448.4035,-101.2181 438.1518,-103.8926 447.8338,-108.1949 448.4035,-101.2181"/>
</g>
<!-- Node7&#45;&gt;Node3 -->
<g id="edge10" class="edge">
<title>Node7&#45;&gt;Node3</title>
<path fill="none" stroke="#191970" d="M417.3175,-72.4366C425.3456,-74.8066 433.4902,-77.213 441.2207,-79.5 463.3089,-86.0347 487.7865,-93.2947 508.4287,-99.4225"/>
<polygon fill="#191970" stroke="#191970" points="418.2001,-69.0479 407.6183,-69.5741 416.2186,-75.7616 418.2001,-69.0479"/>
</g>
<!-- Node8&#45;&gt;Node3 -->
<g id="edge12" class="edge">
<title>Node8&#45;&gt;Node3</title>
<path fill="none" stroke="#191970" d="M252.7053,-7.6714C308.3258,-6.3127 380.7969,-10.0424 441.2207,-31.5 482.2552,-46.0721 521.6273,-80.0236 541.8102,-99.3599"/>
<polygon fill="#191970" stroke="#191970" points="252.4115,-4.1786 242.5226,-7.9812 252.6244,-11.1754 252.4115,-4.1786"/>
</g>
</g>
</svg>
        <g id="navigator" transform="translate(0 0)" fill="#404254">
                <rect fill="#f2f5e9" fill-opacity="0.5" stroke="#606060" stroke-width=".5" x="0" y="0" width="60" height="60"/>
                <use id="zoomplus" xlink:href="#zoomPlus" x="17" y="9" onmousedown="handleZoom(evt,'in')"/>
                <use id="zoomminus" xlink:href="#zoomMin" x="42" y="9" onmousedown="handleZoom(evt,'out')"/>
                <use id="reset" xlink:href="#resetDef" x="30" y="36" onmousedown="handleReset()"/>
                <g id="arrowUp" xlink:href="#dirArrow" transform="translate(30 24)" onmousedown="handlePan(0,-1)">
                  <use xlink:href="#rim" fill="#404040">
                        <set attributeName="fill" to="#808080" begin="arrowUp.mouseover" end="arrowUp.mouseout"/>
                  </use>
                  <path fill="none" stroke="white" stroke-width="1.5" d="M0,-3.0v7 M-2.5,-0.5L0,-3.0L2.5,-0.5"/>
                </g>
                <g id="arrowRight" xlink:href="#dirArrow" transform="rotate(90) translate(36 -43)" onmousedown="handlePan(1,0)">
                  <use xlink:href="#rim" fill="#404040">
                        <set attributeName="fill" to="#808080" begin="arrowRight.mouseover" end="arrowRight.mouseout"/>
                  </use>
                  <path fill="none" stroke="white" stroke-width="1.5" d="M0,-3.0v7 M-2.5,-0.5L0,-3.0L2.5,-0.5"/>
                </g>
                <g id="arrowDown" xlink:href="#dirArrow" transform="rotate(180) translate(-30 -48)" onmousedown="handlePan(0,1)">
                  <use xlink:href="#rim" fill="#404040">
                        <set attributeName="fill" to="#808080" begin="arrowDown.mouseover" end="arrowDown.mouseout"/>
                  </use>
                  <path fill="none" stroke="white" stroke-width="1.5" d="M0,-3.0v7 M-2.5,-0.5L0,-3.0L2.5,-0.5"/>
                </g>
                <g id="arrowLeft" xlink:href="#dirArrow" transform="rotate(270) translate(-36 17)" onmousedown="handlePan(-1,0)">
                  <use xlink:href="#rim" fill="#404040">
                        <set attributeName="fill" to="#808080" begin="arrowLeft.mouseover" end="arrowLeft.mouseout"/>
                  </use>
                  <path fill="none" stroke="white" stroke-width="1.5" d="M0,-3.0v7 M-2.5,-0.5L0,-3.0L2.5,-0.5"/>
                </g>
        </g>
        <svg viewBox="0 0 15 15" width="100%" height="30px" preserveAspectRatio="xMaxYMin meet">
         <g id="arrow_out" transform="scale(0.3 0.3)">
          <a xlink:href="enumlocomotor_1_1core_1_1_accreditation_level_a9ba37c7260408517fd4e4c0196cf4a28_icgraph_org.svg" target="_base">
           <rect id="button" ry="5" rx="5" y="6" x="6" height="38" width="38"
                fill="#f2f5e9" fill-opacity="0.5" stroke="#606060" stroke-width="1.0"/>
           <path id="arrow"
             d="M 11.500037,31.436501 C 11.940474,20.09759 22.043105,11.32322 32.158766,21.979434 L 37.068811,17.246167 C 37.068811,17.246167 37.088388,32 37.088388,32 L 22.160133,31.978069 C 22.160133,31.978069 26.997745,27.140456 26.997745,27.140456 C 18.528582,18.264221 13.291696,25.230495 11.500037,31.436501 z"
             style="fill:#404040;"/>
          </a>
         </g>
        </svg>
</svg>
