<?xml version="1.0" encoding="UTF-8" standalone="no"?>
<!DOCTYPE svg PUBLIC "-//W3C//DTD SVG 1.1//EN"
 "http://www.w3.org/Graphics/SVG/1.1/DTD/svg11.dtd">
<!-- Generated by graphviz version 2.40.1 (20161225.0304)
 -->
<!-- Title: getValue Pages: 1 -->
<!--zoomable 121 -->
<svg id="main" version="1.1" xmlns="http://www.w3.org/2000/svg" xmlns:xlink="http://www.w3.org/1999/xlink" xml:space="preserve" onload="init(evt)">
<style type="text/css"><![CDATA[
.edge:hover path { stroke: red; }
.edge:hover polygon { stroke: red; fill: red; }
]]></style>
<script type="text/javascript"><![CDATA[
var edges = document.getElementsByTagName('g');
if (edges && edges.length) {
  for (var i=0;i<edges.length;i++) {
    if (edges[i].id.substr(0,4)=='edge') {
      edges[i].setAttribute('class','edge');
    }
  }
}
]]></script>
        <defs>
                <circle id="rim" cx="0" cy="0" r="7"/>
                <circle id="rim2" cx="0" cy="0" r="3.5"/>
                <g id="zoomPlus">
                        <use xlink:href="#rim" fill="#404040">
                                <set attributeName="fill" to="#808080" begin="zoomplus.mouseover" end="zoomplus.mouseout"/>
                        </use>
                        <path d="M-4,0h8M0,-4v8" fill="none" stroke="white" stroke-width="1.5" pointer-events="none"/>
                </g>
                <g id="zoomMin">
                        <use xlink:href="#rim" fill="#404040">
                                <set attributeName="fill" to="#808080" begin="zoomminus.mouseover" end="zoomminus.mouseout"/>
                        </use>
                        <path d="M-4,0h8" fill="none" stroke="white" stroke-width="1.5" pointer-events="none"/>
                </g>
                <g id="dirArrow">
                        <path fill="none" stroke="white" stroke-width="1.5" d="M0,-3.0v7 M-2.5,-0.5L0,-3.0L2.5,-0.5"/>
                </g>
               <g id="resetDef">
                       <use xlink:href="#rim2" fill="#404040">
                               <set attributeName="fill" to="#808080" begin="reset.mouseover" end="reset.mouseout"/>
                       </use>
               </g>
        </defs>

<script type="text/javascript">
var viewWidth = 815;
var viewHeight = 121;
var sectionId = 'dynsection-1';
</script>
<script xlink:href="svgpan.js"/>
<svg id="graph" class="graph">
<g id="viewport">
<title>getValue</title>
<polygon fill="#ffffff" stroke="transparent" points="-4,4 -4,-117 810.8516,-117 810.8516,4 -4,4"/>
<!-- Node1 -->
<g id="node1" class="node">
<title>Node1</title>
<polygon fill="#bfbfbf" stroke="#000000" points="0,-72.5 0,-90.5 54.7402,-90.5 54.7402,-72.5 0,-72.5"/>
<text text-anchor="middle" x="27.3701" y="-78.5" font-family="Helvetica,sans-Serif" font-size="10.00" fill="#000000">getValue</text>
</g>
<!-- Node2 -->
<g id="node2" class="node">
<title>Node2</title>
<g id="a_node2"><a xlink:href="classlocomotor_1_1core_1_1_d_b_h.html#a17eef13d222e2f7d4cc413a965de3069" target="_top" xlink:title="locomotor.core.DBH.registerUser">
<polygon fill="#ffffff" stroke="#000000" points="284.4492,-94.5 284.4492,-112.5 447.168,-112.5 447.168,-94.5 284.4492,-94.5"/>
<text text-anchor="middle" x="365.8086" y="-100.5" font-family="Helvetica,sans-Serif" font-size="10.00" fill="#000000">locomotor.core.DBH.registerUser</text>
</a>
</g>
</g>
<!-- Node1&#45;&gt;Node2 -->
<g id="edge1" class="edge">
<title>Node1&#45;&gt;Node2</title>
<path fill="none" stroke="#191970" d="M65.0127,-83.9469C117.6981,-87.3717 214.7764,-93.6822 284.4094,-98.2087"/>
<polygon fill="#191970" stroke="#191970" points="64.9853,-80.4379 54.7793,-83.2817 64.5312,-87.4231 64.9853,-80.4379"/>
</g>
<!-- Node5 -->
<g id="node5" class="node">
<title>Node5</title>
<g id="a_node5"><a xlink:href="classlocomotor_1_1core_1_1jwt_1_1_j_w_t_h.html#af3751461e4a7ff92b13b5988200d76d7" target="_top" xlink:title="locomotor.core.jwt.JWTH.create\lToken">
<polygon fill="#ffffff" stroke="#000000" points="90.7402,-46.5 90.7402,-74.5 248.4492,-74.5 248.4492,-46.5 90.7402,-46.5"/>
<text text-anchor="start" x="98.7402" y="-62.5" font-family="Helvetica,sans-Serif" font-size="10.00" fill="#000000">locomotor.core.jwt.JWTH.create</text>
<text text-anchor="middle" x="169.5947" y="-52.5" font-family="Helvetica,sans-Serif" font-size="10.00" fill="#000000">Token</text>
</a>
</g>
</g>
<!-- Node1&#45;&gt;Node5 -->
<g id="edge5" class="edge">
<title>Node1&#45;&gt;Node5</title>
<path fill="none" stroke="#191970" d="M64.831,-75.9688C72.8268,-74.7881 81.5603,-73.4986 90.4636,-72.184"/>
<polygon fill="#191970" stroke="#191970" points="64.1739,-72.5277 54.7925,-77.451 65.1965,-79.4527 64.1739,-72.5277"/>
</g>
<!-- Node3 -->
<g id="node3" class="node">
<title>Node3</title>
<g id="a_node3"><a xlink:href="classlocomotor_1_1components_1_1network_1_1_a_p_i.html#a547463fbc7fb7b485886f0917e2c0b78" target="_top" xlink:title="locomotor.components.network.\lAPI.createHooks">
<polygon fill="#ffffff" stroke="#000000" points="483.168,-46.5 483.168,-74.5 640.3545,-74.5 640.3545,-46.5 483.168,-46.5"/>
<text text-anchor="start" x="491.168" y="-62.5" font-family="Helvetica,sans-Serif" font-size="10.00" fill="#000000">locomotor.components.network.</text>
<text text-anchor="middle" x="561.7612" y="-52.5" font-family="Helvetica,sans-Serif" font-size="10.00" fill="#000000">API.createHooks</text>
</a>
</g>
</g>
<!-- Node2&#45;&gt;Node3 -->
<g id="edge2" class="edge">
<title>Node2&#45;&gt;Node3</title>
<path fill="none" stroke="#191970" d="M416.7706,-92.3169C441.4589,-86.8992 471.3674,-80.3361 497.5927,-74.5812"/>
<polygon fill="#191970" stroke="#191970" points="415.9041,-88.9236 406.8867,-94.4858 417.4045,-95.761 415.9041,-88.9236"/>
</g>
<!-- Node4 -->
<g id="node4" class="node">
<title>Node4</title>
<g id="a_node4"><a xlink:href="classlocomotor_1_1core_1_1_main.html#a8b260eecbaabcef8473fd87ada040682" target="_top" xlink:title="locomotor.core.Main.main">
<polygon fill="#ffffff" stroke="#000000" points="676.3545,-72.5 676.3545,-90.5 806.8516,-90.5 806.8516,-72.5 676.3545,-72.5"/>
<text text-anchor="middle" x="741.603" y="-78.5" font-family="Helvetica,sans-Serif" font-size="10.00" fill="#000000">locomotor.core.Main.main</text>
</a>
</g>
</g>
<!-- Node2&#45;&gt;Node4 -->
<g id="edge4" class="edge">
<title>Node2&#45;&gt;Node4</title>
<path fill="none" stroke="#191970" d="M457.5843,-98.1272C525.2516,-94.1658 615.6806,-88.8718 676.1463,-85.332"/>
<polygon fill="#191970" stroke="#191970" points="457.1287,-94.6478 447.3504,-98.7263 457.5379,-101.6358 457.1287,-94.6478"/>
</g>
<!-- Node3&#45;&gt;Node4 -->
<g id="edge3" class="edge">
<title>Node3&#45;&gt;Node4</title>
<path fill="none" stroke="#191970" d="M650.5543,-70.8683C659.2426,-71.8828 667.9449,-72.899 676.3368,-73.8789"/>
<polygon fill="#191970" stroke="#191970" points="650.7193,-67.3639 640.3808,-69.6804 649.9074,-74.3166 650.7193,-67.3639"/>
</g>
<!-- Node6 -->
<g id="node6" class="node">
<title>Node6</title>
<g id="a_node6"><a xlink:href="classlocomotor_1_1core_1_1jwt_1_1_j_w_t_h.html#a1ced72f10559e8525f069895d88d129e" target="_top" xlink:title="locomotor.core.jwt.JWTH.create\lShortToken">
<polygon fill="#ffffff" stroke="#000000" points="286.9541,-47.5 286.9541,-75.5 444.6631,-75.5 444.6631,-47.5 286.9541,-47.5"/>
<text text-anchor="start" x="294.9541" y="-63.5" font-family="Helvetica,sans-Serif" font-size="10.00" fill="#000000">locomotor.core.jwt.JWTH.create</text>
<text text-anchor="middle" x="365.8086" y="-53.5" font-family="Helvetica,sans-Serif" font-size="10.00" fill="#000000">ShortToken</text>
</a>
</g>
</g>
<!-- Node5&#45;&gt;Node6 -->
<g id="edge6" class="edge">
<title>Node5&#45;&gt;Node6</title>
<path fill="none" stroke="#191970" d="M258.6436,-60.9538C267.9967,-61.0015 277.4606,-61.0497 286.6912,-61.0968"/>
<polygon fill="#191970" stroke="#191970" points="258.572,-57.4535 248.5543,-60.9024 258.5363,-64.4534 258.572,-57.4535"/>
</g>
<!-- Node7 -->
<g id="node7" class="node">
<title>Node7</title>
<g id="a_node7"><a xlink:href="classlocomotor_1_1core_1_1jwt_1_1_j_w_t_h.html#aecfcf9e71a9ee5c1446176865a746a5c" target="_top" xlink:title="locomotor.core.jwt.JWTH.create\lLongToken">
<polygon fill="#ffffff" stroke="#000000" points="286.9541,-.5 286.9541,-28.5 444.6631,-28.5 444.6631,-.5 286.9541,-.5"/>
<text text-anchor="start" x="294.9541" y="-16.5" font-family="Helvetica,sans-Serif" font-size="10.00" fill="#000000">locomotor.core.jwt.JWTH.create</text>
<text text-anchor="middle" x="365.8086" y="-6.5" font-family="Helvetica,sans-Serif" font-size="10.00" fill="#000000">LongToken</text>
</a>
</g>
</g>
<!-- Node5&#45;&gt;Node7 -->
<g id="edge8" class="edge">
<title>Node5&#45;&gt;Node7</title>
<path fill="none" stroke="#191970" d="M239.3634,-44.1436C261.1111,-39.0451 284.891,-33.4702 305.901,-28.5446"/>
<polygon fill="#191970" stroke="#191970" points="238.4686,-40.7584 229.5315,-46.4485 240.0664,-47.5736 238.4686,-40.7584"/>
</g>
<!-- Node6&#45;&gt;Node3 -->
<g id="edge7" class="edge">
<title>Node6&#45;&gt;Node3</title>
<path fill="none" stroke="#191970" d="M455.0074,-61.0448C464.334,-60.9972 473.7676,-60.9491 482.9663,-60.9021"/>
<polygon fill="#191970" stroke="#191970" points="454.9272,-57.5451 444.9452,-61.0961 454.963,-64.545 454.9272,-57.5451"/>
</g>
<!-- Node7&#45;&gt;Node3 -->
<g id="edge9" class="edge">
<title>Node7&#45;&gt;Node3</title>
<path fill="none" stroke="#191970" d="M435.4844,-30.8564C457.2032,-35.9549 480.9514,-41.5298 501.9334,-46.4554"/>
<polygon fill="#191970" stroke="#191970" points="436.2009,-27.4295 425.6656,-28.5515 434.601,-34.2443 436.2009,-27.4295"/>
</g>
</g>
</svg>
        <g id="navigator" transform="translate(0 0)" fill="#404254">
                <rect fill="#f2f5e9" fill-opacity="0.5" stroke="#606060" stroke-width=".5" x="0" y="0" width="60" height="60"/>
                <use id="zoomplus" xlink:href="#zoomPlus" x="17" y="9" onmousedown="handleZoom(evt,'in')"/>
                <use id="zoomminus" xlink:href="#zoomMin" x="42" y="9" onmousedown="handleZoom(evt,'out')"/>
                <use id="reset" xlink:href="#resetDef" x="30" y="36" onmousedown="handleReset()"/>
                <g id="arrowUp" xlink:href="#dirArrow" transform="translate(30 24)" onmousedown="handlePan(0,-1)">
                  <use xlink:href="#rim" fill="#404040">
                        <set attributeName="fill" to="#808080" begin="arrowUp.mouseover" end="arrowUp.mouseout"/>
                  </use>
                  <path fill="none" stroke="white" stroke-width="1.5" d="M0,-3.0v7 M-2.5,-0.5L0,-3.0L2.5,-0.5"/>
                </g>
                <g id="arrowRight" xlink:href="#dirArrow" transform="rotate(90) translate(36 -43)" onmousedown="handlePan(1,0)">
                  <use xlink:href="#rim" fill="#404040">
                        <set attributeName="fill" to="#808080" begin="arrowRight.mouseover" end="arrowRight.mouseout"/>
                  </use>
                  <path fill="none" stroke="white" stroke-width="1.5" d="M0,-3.0v7 M-2.5,-0.5L0,-3.0L2.5,-0.5"/>
                </g>
                <g id="arrowDown" xlink:href="#dirArrow" transform="rotate(180) translate(-30 -48)" onmousedown="handlePan(0,1)">
                  <use xlink:href="#rim" fill="#404040">
                        <set attributeName="fill" to="#808080" begin="arrowDown.mouseover" end="arrowDown.mouseout"/>
                  </use>
                  <path fill="none" stroke="white" stroke-width="1.5" d="M0,-3.0v7 M-2.5,-0.5L0,-3.0L2.5,-0.5"/>
                </g>
                <g id="arrowLeft" xlink:href="#dirArrow" transform="rotate(270) translate(-36 17)" onmousedown="handlePan(-1,0)">
                  <use xlink:href="#rim" fill="#404040">
                        <set attributeName="fill" to="#808080" begin="arrowLeft.mouseover" end="arrowLeft.mouseout"/>
                  </use>
                  <path fill="none" stroke="white" stroke-width="1.5" d="M0,-3.0v7 M-2.5,-0.5L0,-3.0L2.5,-0.5"/>
                </g>
        </g>
        <svg viewBox="0 0 15 15" width="100%" height="30px" preserveAspectRatio="xMaxYMin meet">
         <g id="arrow_out" transform="scale(0.3 0.3)">
          <a xlink:href="enumlocomotor_1_1core_1_1_accreditation_level_aae714dc01fe7f5bb1a175d0d1068bb92_icgraph_org.svg" target="_base">
           <rect id="button" ry="5" rx="5" y="6" x="6" height="38" width="38"
                fill="#f2f5e9" fill-opacity="0.5" stroke="#606060" stroke-width="1.0"/>
           <path id="arrow"
             d="M 11.500037,31.436501 C 11.940474,20.09759 22.043105,11.32322 32.158766,21.979434 L 37.068811,17.246167 C 37.068811,17.246167 37.088388,32 37.088388,32 L 22.160133,31.978069 C 22.160133,31.978069 26.997745,27.140456 26.997745,27.140456 C 18.528582,18.264221 13.291696,25.230495 11.500037,31.436501 z"
             style="fill:#404040;"/>
          </a>
         </g>
        </svg>
</svg>
