<?xml version="1.0" encoding="UTF-8" standalone="no"?>
<!DOCTYPE svg PUBLIC "-//W3C//DTD SVG 1.1//EN"
 "http://www.w3.org/Graphics/SVG/1.1/DTD/svg11.dtd">
<!-- Generated by graphviz version 2.40.1 (20161225.0304)
 -->
<!-- Title: valueOf Pages: 1 -->
<svg width="1003pt" height="85pt"
 viewBox="0.00 0.00 1002.69 85.00" xmlns="http://www.w3.org/2000/svg" xmlns:xlink="http://www.w3.org/1999/xlink">
<g id="graph0" class="graph" transform="scale(1 1) rotate(0) translate(4 81)">
<title>valueOf</title>
<polygon fill="#ffffff" stroke="transparent" points="-4,4 -4,-81 998.6914,-81 998.6914,4 -4,4"/>
<!-- Node1 -->
<g id="node1" class="node">
<title>Node1</title>
<polygon fill="#bfbfbf" stroke="#000000" points="0,-53.5 0,-71.5 50.4629,-71.5 50.4629,-53.5 0,-53.5"/>
<text text-anchor="middle" x="25.2314" y="-59.5" font-family="Helvetica,sans-Serif" font-size="10.00" fill="#000000">valueOf</text>
</g>
<!-- Node2 -->
<g id="node2" class="node">
<title>Node2</title>
<g id="a_node2"><a xlink:href="classlocomotor_1_1core_1_1_d_b_h.html#a910cd77455fb55ffce6f9b65cb8104cc" target="_top" xlink:title="locomotor.core.DBH.getCategories\lModel">
<polygon fill="#ffffff" stroke="#000000" points="86.4629,-48.5 86.4629,-76.5 256.9844,-76.5 256.9844,-48.5 86.4629,-48.5"/>
<text text-anchor="start" x="94.4629" y="-64.5" font-family="Helvetica,sans-Serif" font-size="10.00" fill="#000000">locomotor.core.DBH.getCategories</text>
<text text-anchor="middle" x="171.7236" y="-54.5" font-family="Helvetica,sans-Serif" font-size="10.00" fill="#000000">Model</text>
</a>
</g>
</g>
<!-- Node1&#45;&gt;Node2 -->
<g id="edge1" class="edge">
<title>Node1&#45;&gt;Node2</title>
<path fill="none" stroke="#191970" d="M60.95,-62.5C68.8298,-62.5 77.5035,-62.5 86.4224,-62.5"/>
<polygon fill="#191970" stroke="#191970" points="60.7485,-59.0001 50.7484,-62.5 60.7484,-66.0001 60.7485,-59.0001"/>
</g>
<!-- Node3 -->
<g id="node3" class="node">
<title>Node3</title>
<g id="a_node3"><a xlink:href="classlocomotor_1_1components_1_1network_1_1_a_p_i.html#a547463fbc7fb7b485886f0917e2c0b78" target="_top" xlink:title="locomotor.components.network.\lAPI.createHooks">
<polygon fill="#ffffff" stroke="#000000" points="671.0078,-32.5 671.0078,-60.5 828.1943,-60.5 828.1943,-32.5 671.0078,-32.5"/>
<text text-anchor="start" x="679.0078" y="-48.5" font-family="Helvetica,sans-Serif" font-size="10.00" fill="#000000">locomotor.components.network.</text>
<text text-anchor="middle" x="749.6011" y="-38.5" font-family="Helvetica,sans-Serif" font-size="10.00" fill="#000000">API.createHooks</text>
</a>
</g>
</g>
<!-- Node2&#45;&gt;Node3 -->
<g id="edge2" class="edge">
<title>Node2&#45;&gt;Node3</title>
<path fill="none" stroke="#191970" d="M267.3207,-68.0482C361.1273,-72.3311 508.1645,-75.9443 635.0078,-65.5 648.3732,-64.3995 662.5273,-62.5887 676.1586,-60.5108"/>
<polygon fill="#191970" stroke="#191970" points="267.4349,-64.5498 257.2821,-67.578 267.1074,-71.5421 267.4349,-64.5498"/>
</g>
<!-- Node5 -->
<g id="node5" class="node">
<title>Node5</title>
<g id="a_node5"><a xlink:href="classlocomotor_1_1core_1_1_d_b_h.html#ad067053be75a3170dc9c2ce7b922e176" target="_top" xlink:title="locomotor.core.DBH.checking\lParsingItem">
<polygon fill="#ffffff" stroke="#000000" points="292.9844,-27.5 292.9844,-55.5 440.7129,-55.5 440.7129,-27.5 292.9844,-27.5"/>
<text text-anchor="start" x="300.9844" y="-43.5" font-family="Helvetica,sans-Serif" font-size="10.00" fill="#000000">locomotor.core.DBH.checking</text>
<text text-anchor="middle" x="366.8486" y="-33.5" font-family="Helvetica,sans-Serif" font-size="10.00" fill="#000000">ParsingItem</text>
</a>
</g>
</g>
<!-- Node2&#45;&gt;Node5 -->
<g id="edge4" class="edge">
<title>Node2&#45;&gt;Node5</title>
<path fill="none" stroke="#191970" d="M267.104,-52.2348C275.7128,-51.3083 284.3444,-50.3794 292.7303,-49.4769"/>
<polygon fill="#191970" stroke="#191970" points="266.5925,-48.7696 257.0244,-53.3196 267.3416,-55.7294 266.5925,-48.7696"/>
</g>
<!-- Node4 -->
<g id="node4" class="node">
<title>Node4</title>
<g id="a_node4"><a xlink:href="classlocomotor_1_1core_1_1_main.html#a8b260eecbaabcef8473fd87ada040682" target="_top" xlink:title="locomotor.core.Main.main">
<polygon fill="#ffffff" stroke="#000000" points="864.1943,-37.5 864.1943,-55.5 994.6914,-55.5 994.6914,-37.5 864.1943,-37.5"/>
<text text-anchor="middle" x="929.4429" y="-43.5" font-family="Helvetica,sans-Serif" font-size="10.00" fill="#000000">locomotor.core.Main.main</text>
</a>
</g>
</g>
<!-- Node3&#45;&gt;Node4 -->
<g id="edge3" class="edge">
<title>Node3&#45;&gt;Node4</title>
<path fill="none" stroke="#191970" d="M838.3941,-46.5C847.0824,-46.5 855.7847,-46.5 864.1766,-46.5"/>
<polygon fill="#191970" stroke="#191970" points="838.2207,-43.0001 828.2207,-46.5 838.2206,-50.0001 838.2207,-43.0001"/>
</g>
<!-- Node6 -->
<g id="node6" class="node">
<title>Node6</title>
<g id="a_node6"><a xlink:href="classlocomotor_1_1core_1_1_d_b_h.html#ae26eef1ee7482f2e0167c6a18924d214" target="_top" xlink:title="locomotor.core.DBH.addItem">
<polygon fill="#ffffff" stroke="#000000" points="483.6636,-37.5 483.6636,-55.5 628.0571,-55.5 628.0571,-37.5 483.6636,-37.5"/>
<text text-anchor="middle" x="555.8604" y="-43.5" font-family="Helvetica,sans-Serif" font-size="10.00" fill="#000000">locomotor.core.DBH.addItem</text>
</a>
</g>
</g>
<!-- Node5&#45;&gt;Node6 -->
<g id="edge5" class="edge">
<title>Node5&#45;&gt;Node6</title>
<path fill="none" stroke="#191970" d="M451.0626,-43.7277C461.9099,-44.0147 472.9403,-44.3065 483.573,-44.5878"/>
<polygon fill="#191970" stroke="#191970" points="450.8267,-40.2204 440.7376,-43.4546 450.6415,-47.2179 450.8267,-40.2204"/>
</g>
<!-- Node7 -->
<g id="node7" class="node">
<title>Node7</title>
<g id="a_node7"><a xlink:href="classlocomotor_1_1core_1_1_d_b_h.html#aa0e39c547d06fd9d0ad2de70251c9cc0" target="_top" xlink:title="locomotor.core.DBH.updateItem">
<polygon fill="#ffffff" stroke="#000000" points="476.7129,-.5 476.7129,-18.5 635.0078,-18.5 635.0078,-.5 476.7129,-.5"/>
<text text-anchor="middle" x="555.8604" y="-6.5" font-family="Helvetica,sans-Serif" font-size="10.00" fill="#000000">locomotor.core.DBH.updateItem</text>
</a>
</g>
</g>
<!-- Node5&#45;&gt;Node7 -->
<g id="edge7" class="edge">
<title>Node5&#45;&gt;Node7</title>
<path fill="none" stroke="#191970" d="M450.9713,-27.2579C468.4782,-24.2939 486.4662,-21.2485 502.493,-18.5352"/>
<polygon fill="#191970" stroke="#191970" points="450.013,-23.8702 440.7376,-28.9905 451.1815,-30.772 450.013,-23.8702"/>
</g>
<!-- Node6&#45;&gt;Node3 -->
<g id="edge6" class="edge">
<title>Node6&#45;&gt;Node3</title>
<path fill="none" stroke="#191970" d="M638.4596,-46.5C649.1739,-46.5 660.1263,-46.5 670.7769,-46.5"/>
<polygon fill="#191970" stroke="#191970" points="638.2778,-43.0001 628.2778,-46.5 638.2777,-50.0001 638.2778,-43.0001"/>
</g>
<!-- Node7&#45;&gt;Node3 -->
<g id="edge8" class="edge">
<title>Node7&#45;&gt;Node3</title>
<path fill="none" stroke="#191970" d="M613.3166,-20.4728C633.0592,-24.2432 655.435,-28.5165 676.2654,-32.4946"/>
<polygon fill="#191970" stroke="#191970" points="613.7337,-16.9893 603.2547,-18.5512 612.4206,-23.865 613.7337,-16.9893"/>
</g>
</g>
</svg>
