<?xml version="1.0" encoding="UTF-8" standalone="no"?>
<!DOCTYPE svg PUBLIC "-//W3C//DTD SVG 1.1//EN"
 "http://www.w3.org/Graphics/SVG/1.1/DTD/svg11.dtd">
<!-- Generated by graphviz version 2.40.1 (20161225.0304)
 -->
<!-- Title: Graphical Class Hierarchy Pages: 1 -->
<svg width="747pt" height="622pt"
 viewBox="0.00 0.00 746.89 622.00" xmlns="http://www.w3.org/2000/svg" xmlns:xlink="http://www.w3.org/1999/xlink">
<g id="graph0" class="graph" transform="scale(1 1) rotate(0) translate(4 618)">
<title>Graphical Class Hierarchy</title>
<polygon fill="#ffffff" stroke="transparent" points="-4,4 -4,-618 742.8877,-618 742.8877,4 -4,4"/>
<!-- Node1 -->
<g id="node1" class="node">
<title>Node1</title>
<g id="a_node1"><a xlink:href="classlocomotor_1_1components_1_1models_1_1_category.html" target="_top" xlink:title="Category">
<polygon fill="#ffffff" stroke="#000000" points="0,-576.5 0,-594.5 56.5762,-594.5 56.5762,-576.5 0,-576.5"/>
<text text-anchor="middle" x="28.2881" y="-582.5" font-family="Helvetica,sans-Serif" font-size="10.00" fill="#000000">Category</text>
</a>
</g>
</g>
<!-- Node2 -->
<g id="node2" class="node">
<title>Node2</title>
<g id="a_node2"><a xlink:href="classlocomotor_1_1components_1_1models_1_1_item_category.html" target="_top" xlink:title="ItemCategory">
<polygon fill="#ffffff" stroke="#000000" points="108.9702,-595.5 108.9702,-613.5 184.9946,-613.5 184.9946,-595.5 108.9702,-595.5"/>
<text text-anchor="middle" x="146.9824" y="-601.5" font-family="Helvetica,sans-Serif" font-size="10.00" fill="#000000">ItemCategory</text>
</a>
</g>
</g>
<!-- Node1&#45;&gt;Node2 -->
<g id="edge1" class="edge">
<title>Node1&#45;&gt;Node2</title>
<path fill="none" stroke="#191970" d="M66.6833,-591.6461C80.2119,-593.8117 95.407,-596.2441 108.9089,-598.4054"/>
<polygon fill="#191970" stroke="#191970" points="67.1459,-588.1757 56.7183,-590.051 66.0394,-595.0877 67.1459,-588.1757"/>
</g>
<!-- Node4 -->
<g id="node4" class="node">
<title>Node4</title>
<g id="a_node4"><a xlink:href="classlocomotor_1_1components_1_1models_1_1_user_category.html" target="_top" xlink:title="UserCategory">
<polygon fill="#ffffff" stroke="#000000" points="108.1377,-558.5 108.1377,-576.5 185.8271,-576.5 185.8271,-558.5 108.1377,-558.5"/>
<text text-anchor="middle" x="146.9824" y="-564.5" font-family="Helvetica,sans-Serif" font-size="10.00" fill="#000000">UserCategory</text>
</a>
</g>
</g>
<!-- Node1&#45;&gt;Node4 -->
<g id="edge3" class="edge">
<title>Node1&#45;&gt;Node4</title>
<path fill="none" stroke="#191970" d="M66.8928,-579.6456C80.0704,-577.6472 94.8088,-575.4121 108.0147,-573.4095"/>
<polygon fill="#191970" stroke="#191970" points="66.0805,-576.2287 56.7183,-581.1886 67.1301,-583.1495 66.0805,-576.2287"/>
</g>
<!-- Node3 -->
<g id="node3" class="node">
<title>Node3</title>
<g id="a_node3"><a xlink:href="classlocomotor_1_1components_1_1models_1_1_item_category_full.html" target="_top" xlink:title="ItemCategoryFull">
<polygon fill="#ffffff" stroke="#000000" points="271.7173,-595.5 271.7173,-613.5 363.855,-613.5 363.855,-595.5 271.7173,-595.5"/>
<text text-anchor="middle" x="317.7861" y="-601.5" font-family="Helvetica,sans-Serif" font-size="10.00" fill="#000000">ItemCategoryFull</text>
</a>
</g>
</g>
<!-- Node2&#45;&gt;Node3 -->
<g id="edge2" class="edge">
<title>Node2&#45;&gt;Node3</title>
<path fill="none" stroke="#191970" d="M195.5798,-604.5C219.4793,-604.5 248.1338,-604.5 271.6873,-604.5"/>
<polygon fill="#191970" stroke="#191970" points="195.3141,-601.0001 185.3141,-604.5 195.3141,-608.0001 195.3141,-601.0001"/>
</g>
<!-- Node5 -->
<g id="node5" class="node">
<title>Node5</title>
<g id="a_node5"><a xlink:href="interfacelocomotor_1_1components_1_1types_1_1_c_comparable.html" target="_top" xlink:title="CComparable\&lt; CBoolean,\l CBoolean \&gt;">
<polygon fill="#ffffff" stroke="#000000" points="251.2803,-84.5 251.2803,-112.5 384.292,-112.5 384.292,-84.5 251.2803,-84.5"/>
<text text-anchor="start" x="259.2803" y="-100.5" font-family="Helvetica,sans-Serif" font-size="10.00" fill="#000000">CComparable&lt; CBoolean,</text>
<text text-anchor="middle" x="317.7861" y="-90.5" font-family="Helvetica,sans-Serif" font-size="10.00" fill="#000000"> CBoolean &gt;</text>
</a>
</g>
</g>
<!-- Node6 -->
<g id="node6" class="node">
<title>Node6</title>
<g id="a_node6"><a xlink:href="classlocomotor_1_1components_1_1types_1_1_c_boolean.html" target="_top" xlink:title="CBoolean">
<polygon fill="#ffffff" stroke="#000000" points="485.0869,-84.5 485.0869,-102.5 545.0078,-102.5 545.0078,-84.5 485.0869,-84.5"/>
<text text-anchor="middle" x="515.0474" y="-90.5" font-family="Helvetica,sans-Serif" font-size="10.00" fill="#000000">CBoolean</text>
</a>
</g>
</g>
<!-- Node5&#45;&gt;Node6 -->
<g id="edge4" class="edge">
<title>Node5&#45;&gt;Node6</title>
<path fill="none" stroke="#191970" d="M394.4362,-96.5571C426.07,-95.7553 460.8821,-94.8729 484.9405,-94.2631"/>
<polygon fill="#191970" stroke="#191970" points="394.2029,-93.0618 384.2948,-96.8142 394.3803,-100.0596 394.2029,-93.0618"/>
</g>
<!-- Node7 -->
<g id="node7" class="node">
<title>Node7</title>
<g id="a_node7"><a xlink:href="interfacelocomotor_1_1components_1_1types_1_1_c_comparable.html" target="_top" xlink:title="CComparable\&lt; CIntervalDouble,\l CIntervalDouble \&gt;">
<polygon fill="#ffffff" stroke="#000000" points="237.3887,-363.5 237.3887,-391.5 398.1836,-391.5 398.1836,-363.5 237.3887,-363.5"/>
<text text-anchor="start" x="245.3887" y="-379.5" font-family="Helvetica,sans-Serif" font-size="10.00" fill="#000000">CComparable&lt; CIntervalDouble,</text>
<text text-anchor="middle" x="317.7861" y="-369.5" font-family="Helvetica,sans-Serif" font-size="10.00" fill="#000000"> CIntervalDouble &gt;</text>
</a>
</g>
</g>
<!-- Node8 -->
<g id="node8" class="node">
<title>Node8</title>
<g id="a_node8"><a xlink:href="classlocomotor_1_1components_1_1types_1_1_c_float.html" target="_top" xlink:title="CFloat">
<polygon fill="#ffffff" stroke="#000000" points="492.3208,-373.5 492.3208,-391.5 537.7739,-391.5 537.7739,-373.5 492.3208,-373.5"/>
<text text-anchor="middle" x="515.0474" y="-379.5" font-family="Helvetica,sans-Serif" font-size="10.00" fill="#000000">CFloat</text>
</a>
</g>
</g>
<!-- Node7&#45;&gt;Node8 -->
<g id="edge5" class="edge">
<title>Node7&#45;&gt;Node8</title>
<path fill="none" stroke="#191970" d="M408.7002,-379.8044C439.5207,-380.5856 471.3522,-381.3925 492.0579,-381.9173"/>
<polygon fill="#191970" stroke="#191970" points="408.3898,-376.2955 398.3043,-379.5409 408.2124,-383.2933 408.3898,-376.2955"/>
</g>
<!-- Node9 -->
<g id="node9" class="node">
<title>Node9</title>
<g id="a_node9"><a xlink:href="classlocomotor_1_1components_1_1types_1_1_c_interval_double.html" target="_top" xlink:title="CIntervalDouble">
<polygon fill="#ffffff" stroke="#000000" points="641.5474,-371.5 641.5474,-389.5 729.2515,-389.5 729.2515,-371.5 641.5474,-371.5"/>
<text text-anchor="middle" x="685.3994" y="-377.5" font-family="Helvetica,sans-Serif" font-size="10.00" fill="#000000">CIntervalDouble</text>
</a>
</g>
</g>
<!-- Node7&#45;&gt;Node9 -->
<g id="edge6" class="edge">
<title>Node7&#45;&gt;Node9</title>
<path fill="none" stroke="#191970" d="M386.9268,-395.5427C390.8265,-397.354 394.6093,-399.3351 398.1836,-401.5 417.8083,-413.3866 413.0469,-429.5748 434.1836,-438.5 500.4011,-466.461 526.983,-458.8837 595.9111,-438.5 628.4008,-428.892 660.169,-403.3824 675.645,-389.6151"/>
<polygon fill="#191970" stroke="#191970" points="388.2317,-392.2945 377.6585,-391.618 385.5021,-398.7404 388.2317,-392.2945"/>
</g>
<!-- Node10 -->
<g id="node10" class="node">
<title>Node10</title>
<g id="a_node10"><a xlink:href="interfacelocomotor_1_1components_1_1types_1_1_c_comparable.html" target="_top" xlink:title="CComparable\&lt; CIntervalInteger,\l CIntervalInteger \&gt;">
<polygon fill="#ffffff" stroke="#000000" points="435.2017,-242.5 435.2017,-270.5 594.8931,-270.5 594.8931,-242.5 435.2017,-242.5"/>
<text text-anchor="start" x="443.2017" y="-258.5" font-family="Helvetica,sans-Serif" font-size="10.00" fill="#000000">CComparable&lt; CIntervalInteger,</text>
<text text-anchor="middle" x="515.0474" y="-248.5" font-family="Helvetica,sans-Serif" font-size="10.00" fill="#000000"> CIntervalInteger &gt;</text>
</a>
</g>
</g>
<!-- Node11 -->
<g id="node11" class="node">
<title>Node11</title>
<g id="a_node11"><a xlink:href="classlocomotor_1_1components_1_1types_1_1_c_integer.html" target="_top" xlink:title="CInteger">
<polygon fill="#ffffff" stroke="#000000" points="658.2222,-219.5 658.2222,-237.5 712.5767,-237.5 712.5767,-219.5 658.2222,-219.5"/>
<text text-anchor="middle" x="685.3994" y="-225.5" font-family="Helvetica,sans-Serif" font-size="10.00" fill="#000000">CInteger</text>
</a>
</g>
</g>
<!-- Node10&#45;&gt;Node11 -->
<g id="edge7" class="edge">
<title>Node10&#45;&gt;Node11</title>
<path fill="none" stroke="#191970" d="M605.3137,-241.6633C624.5662,-238.4989 643.4706,-235.3916 658.0737,-232.9914"/>
<polygon fill="#191970" stroke="#191970" points="604.5351,-238.2443 595.2351,-243.3199 605.6704,-245.1516 604.5351,-238.2443"/>
</g>
<!-- Node12 -->
<g id="node12" class="node">
<title>Node12</title>
<g id="a_node12"><a xlink:href="classlocomotor_1_1components_1_1types_1_1_c_interval_integer.html" target="_top" xlink:title="CIntervalInteger">
<polygon fill="#ffffff" stroke="#000000" points="641.8257,-270.5 641.8257,-288.5 728.9731,-288.5 728.9731,-270.5 641.8257,-270.5"/>
<text text-anchor="middle" x="685.3994" y="-276.5" font-family="Helvetica,sans-Serif" font-size="10.00" fill="#000000">CIntervalInteger</text>
</a>
</g>
</g>
<!-- Node10&#45;&gt;Node12 -->
<g id="edge8" class="edge">
<title>Node10&#45;&gt;Node12</title>
<path fill="none" stroke="#191970" d="M605.4027,-268.6993C618.0666,-270.4091 630.5773,-272.0982 641.8094,-273.6147"/>
<polygon fill="#191970" stroke="#191970" points="605.6136,-265.1961 595.2351,-267.3265 604.6769,-272.1331 605.6136,-265.1961"/>
</g>
<!-- Node13 -->
<g id="node13" class="node">
<title>Node13</title>
<g id="a_node13"><a xlink:href="interfacelocomotor_1_1components_1_1types_1_1_c_comparable.html" target="_top" xlink:title="CComparable\&lt; CMappedString\lList, CGraphStringList \&gt;">
<polygon fill="#ffffff" stroke="#000000" points="437.1499,-.5 437.1499,-28.5 592.9448,-28.5 592.9448,-.5 437.1499,-.5"/>
<text text-anchor="start" x="445.1499" y="-16.5" font-family="Helvetica,sans-Serif" font-size="10.00" fill="#000000">CComparable&lt; CMappedString</text>
<text text-anchor="middle" x="515.0474" y="-6.5" font-family="Helvetica,sans-Serif" font-size="10.00" fill="#000000">List, CGraphStringList &gt;</text>
</a>
</g>
</g>
<!-- Node14 -->
<g id="node14" class="node">
<title>Node14</title>
<g id="a_node14"><a xlink:href="classlocomotor_1_1components_1_1types_1_1_c_mapped_string_list.html" target="_top" xlink:title="CMappedStringList">
<polygon fill="#ffffff" stroke="#000000" points="634.8774,-45.5 634.8774,-63.5 735.9214,-63.5 735.9214,-45.5 634.8774,-45.5"/>
<text text-anchor="middle" x="685.3994" y="-51.5" font-family="Helvetica,sans-Serif" font-size="10.00" fill="#000000">CMappedStringList</text>
</a>
</g>
</g>
<!-- Node13&#45;&gt;Node14 -->
<g id="edge9" class="edge">
<title>Node13&#45;&gt;Node14</title>
<path fill="none" stroke="#191970" d="M585.0305,-30.9326C606.1665,-35.8955 628.5924,-41.1613 646.8728,-45.4536"/>
<polygon fill="#191970" stroke="#191970" points="585.6424,-27.4812 575.1071,-28.6025 584.0423,-34.2958 585.6424,-27.4812"/>
</g>
<!-- Node15 -->
<g id="node15" class="node">
<title>Node15</title>
<g id="a_node15"><a xlink:href="interfacelocomotor_1_1components_1_1types_1_1_c_comparable.html" target="_top" xlink:title="CComparable\&lt; CTree,\l CGraphTree \&gt;">
<polygon fill="#ffffff" stroke="#000000" points="259.5322,-37.5 259.5322,-65.5 376.04,-65.5 376.04,-37.5 259.5322,-37.5"/>
<text text-anchor="start" x="267.5322" y="-53.5" font-family="Helvetica,sans-Serif" font-size="10.00" fill="#000000">CComparable&lt; CTree,</text>
<text text-anchor="middle" x="317.7861" y="-43.5" font-family="Helvetica,sans-Serif" font-size="10.00" fill="#000000"> CGraphTree &gt;</text>
</a>
</g>
</g>
<!-- Node16 -->
<g id="node16" class="node">
<title>Node16</title>
<g id="a_node16"><a xlink:href="classlocomotor_1_1components_1_1types_1_1_c_tree.html" target="_top" xlink:title="CTree">
<polygon fill="#ffffff" stroke="#000000" points="493.3389,-47.5 493.3389,-65.5 536.7559,-65.5 536.7559,-47.5 493.3389,-47.5"/>
<text text-anchor="middle" x="515.0474" y="-53.5" font-family="Helvetica,sans-Serif" font-size="10.00" fill="#000000">CTree</text>
</a>
</g>
</g>
<!-- Node15&#45;&gt;Node16 -->
<g id="edge10" class="edge">
<title>Node15&#45;&gt;Node16</title>
<path fill="none" stroke="#191970" d="M386.5124,-53.242C423.8451,-54.1883 467.4909,-55.2946 493.1143,-55.9441"/>
<polygon fill="#191970" stroke="#191970" points="386.2559,-49.7345 376.1703,-52.9799 386.0784,-56.7322 386.2559,-49.7345"/>
</g>
<!-- Node17 -->
<g id="node17" class="node">
<title>Node17</title>
<g id="a_node17"><a xlink:href="interfacelocomotor_1_1components_1_1types_1_1_c_comparable.html" target="_top" xlink:title="CComparable\&lt; CWeightedString\lList, CWeightedStringList \&gt;">
<polygon fill="#ffffff" stroke="#000000" points="434.1836,-158.5 434.1836,-186.5 595.9111,-186.5 595.9111,-158.5 434.1836,-158.5"/>
<text text-anchor="start" x="442.1836" y="-174.5" font-family="Helvetica,sans-Serif" font-size="10.00" fill="#000000">CComparable&lt; CWeightedString</text>
<text text-anchor="middle" x="515.0474" y="-164.5" font-family="Helvetica,sans-Serif" font-size="10.00" fill="#000000">List, CWeightedStringList &gt;</text>
</a>
</g>
</g>
<!-- Node18 -->
<g id="node18" class="node">
<title>Node18</title>
<g id="a_node18"><a xlink:href="classlocomotor_1_1components_1_1types_1_1_c_weighted_integer.html" target="_top" xlink:title="CWeightedInteger">
<polygon fill="#ffffff" stroke="#000000" points="637.187,-172.5 637.187,-190.5 733.6118,-190.5 733.6118,-172.5 637.187,-172.5"/>
<text text-anchor="middle" x="685.3994" y="-178.5" font-family="Helvetica,sans-Serif" font-size="10.00" fill="#000000">CWeightedInteger</text>
</a>
</g>
</g>
<!-- Node17&#45;&gt;Node18 -->
<g id="edge11" class="edge">
<title>Node17&#45;&gt;Node18</title>
<path fill="none" stroke="#191970" d="M606.3226,-177.3222C616.8293,-177.8773 627.2116,-178.4258 636.8256,-178.9338"/>
<polygon fill="#191970" stroke="#191970" points="606.4028,-173.8217 596.2321,-176.7891 606.0334,-180.8119 606.4028,-173.8217"/>
</g>
<!-- Node19 -->
<g id="node19" class="node">
<title>Node19</title>
<g id="a_node19"><a xlink:href="classlocomotor_1_1components_1_1models_1_1_criteria.html" target="_top" xlink:title="Criteria">
<polygon fill="#ffffff" stroke="#000000" points="4.1748,-456.5 4.1748,-474.5 52.4014,-474.5 52.4014,-456.5 4.1748,-456.5"/>
<text text-anchor="middle" x="28.2881" y="-462.5" font-family="Helvetica,sans-Serif" font-size="10.00" fill="#000000">Criteria</text>
</a>
</g>
</g>
<!-- Node20 -->
<g id="node20" class="node">
<title>Node20</title>
<g id="a_node20"><a xlink:href="classlocomotor_1_1components_1_1models_1_1_item_criteria.html" target="_top" xlink:title="ItemCriteria">
<polygon fill="#ffffff" stroke="#000000" points="113.145,-503.5 113.145,-521.5 180.8198,-521.5 180.8198,-503.5 113.145,-503.5"/>
<text text-anchor="middle" x="146.9824" y="-509.5" font-family="Helvetica,sans-Serif" font-size="10.00" fill="#000000">ItemCriteria</text>
</a>
</g>
</g>
<!-- Node19&#45;&gt;Node20 -->
<g id="edge12" class="edge">
<title>Node19&#45;&gt;Node20</title>
<path fill="none" stroke="#191970" d="M60.5761,-478.2852C80.7072,-486.2567 106.1239,-496.3211 124.1672,-503.4657"/>
<polygon fill="#191970" stroke="#191970" points="61.7598,-474.9896 51.1735,-474.5621 59.1826,-481.4979 61.7598,-474.9896"/>
</g>
<!-- Node22 -->
<g id="node22" class="node">
<title>Node22</title>
<g id="a_node22"><a xlink:href="classlocomotor_1_1components_1_1models_1_1_user_criteria.html" target="_top" xlink:title="UserCriteria">
<polygon fill="#ffffff" stroke="#000000" points="112.3125,-410.5 112.3125,-428.5 181.6523,-428.5 181.6523,-410.5 112.3125,-410.5"/>
<text text-anchor="middle" x="146.9824" y="-416.5" font-family="Helvetica,sans-Serif" font-size="10.00" fill="#000000">UserCriteria</text>
</a>
</g>
</g>
<!-- Node19&#45;&gt;Node22 -->
<g id="edge14" class="edge">
<title>Node19&#45;&gt;Node22</title>
<path fill="none" stroke="#191970" d="M58.3741,-452.4131C69.1095,-447.8634 81.3289,-442.821 92.5762,-438.5 101.4486,-435.0913 111.2284,-431.596 120.0202,-428.5478"/>
<polygon fill="#191970" stroke="#191970" points="56.8228,-449.2698 49.0027,-456.418 59.5736,-455.7066 56.8228,-449.2698"/>
</g>
<!-- Node21 -->
<g id="node21" class="node">
<title>Node21</title>
<g id="a_node21"><a xlink:href="classlocomotor_1_1components_1_1models_1_1_item_criteria_full.html" target="_top" xlink:title="ItemCriteriaFull">
<polygon fill="#ffffff" stroke="#000000" points="275.8921,-558.5 275.8921,-576.5 359.6802,-576.5 359.6802,-558.5 275.8921,-558.5"/>
<text text-anchor="middle" x="317.7861" y="-564.5" font-family="Helvetica,sans-Serif" font-size="10.00" fill="#000000">ItemCriteriaFull</text>
</a>
</g>
</g>
<!-- Node20&#45;&gt;Node21 -->
<g id="edge13" class="edge">
<title>Node20&#45;&gt;Node21</title>
<path fill="none" stroke="#191970" d="M175.5247,-525.6263C193.094,-533.3413 216.2287,-542.8532 237.3887,-549.5 249.6701,-553.3579 263.253,-556.7279 275.7043,-559.4763"/>
<polygon fill="#191970" stroke="#191970" points="176.9432,-522.4267 166.3844,-521.5547 174.0948,-528.821 176.9432,-522.4267"/>
</g>
<!-- Node23 -->
<g id="node23" class="node">
<title>Node23</title>
<g id="a_node23"><a xlink:href="interfacelocomotor_1_1components_1_1types_1_1_c_type.html" target="_top" xlink:title="CType">
<polygon fill="#ffffff" stroke="#000000" points="5.835,-242.5 5.835,-260.5 50.7412,-260.5 50.7412,-242.5 5.835,-242.5"/>
<text text-anchor="middle" x="28.2881" y="-248.5" font-family="Helvetica,sans-Serif" font-size="10.00" fill="#000000">CType</text>
</a>
</g>
</g>
<!-- Node24 -->
<g id="node24" class="node">
<title>Node24</title>
<g id="a_node24"><a xlink:href="interfacelocomotor_1_1components_1_1types_1_1_c_comparable_type.html" target="_top" xlink:title="CComparableType">
<polygon fill="#ffffff" stroke="#000000" points="97.293,-187.5 97.293,-205.5 196.6719,-205.5 196.6719,-187.5 97.293,-187.5"/>
<text text-anchor="middle" x="146.9824" y="-193.5" font-family="Helvetica,sans-Serif" font-size="10.00" fill="#000000">CComparableType</text>
</a>
</g>
</g>
<!-- Node23&#45;&gt;Node24 -->
<g id="edge15" class="edge">
<title>Node23&#45;&gt;Node24</title>
<path fill="none" stroke="#191970" d="M50.6911,-237.1059C62.7837,-229.7254 78.152,-220.9565 92.5762,-214.5 100.0225,-211.1669 108.2805,-208.1223 116.0664,-205.5233"/>
<polygon fill="#191970" stroke="#191970" points="48.7945,-234.1638 42.1522,-242.418 52.4921,-240.1075 48.7945,-234.1638"/>
</g>
<!-- Node32 -->
<g id="node32" class="node">
<title>Node32</title>
<g id="a_node32"><a xlink:href="interfacelocomotor_1_1components_1_1types_1_1_c_universe_type.html" target="_top" xlink:title="CUniverseType">
<polygon fill="#ffffff" stroke="#000000" points="275.604,-289.5 275.604,-307.5 359.9683,-307.5 359.9683,-289.5 275.604,-289.5"/>
<text text-anchor="middle" x="317.7861" y="-295.5" font-family="Helvetica,sans-Serif" font-size="10.00" fill="#000000">CUniverseType</text>
</a>
</g>
</g>
<!-- Node23&#45;&gt;Node32 -->
<g id="edge35" class="edge">
<title>Node23&#45;&gt;Node32</title>
<path fill="none" stroke="#191970" d="M61.1451,-256.8343C113.8548,-265.3918 217.2744,-282.1819 275.4485,-291.6265"/>
<polygon fill="#191970" stroke="#191970" points="61.4362,-253.3358 51.0045,-255.188 60.3144,-260.2454 61.4362,-253.3358"/>
</g>
<!-- Node25 -->
<g id="node25" class="node">
<title>Node25</title>
<g id="a_node25"><a xlink:href="interfacelocomotor_1_1components_1_1types_1_1_c_item_type.html" target="_top" xlink:title="CItemType">
<polygon fill="#ffffff" stroke="#000000" points="285.6089,-206.5 285.6089,-224.5 349.9634,-224.5 349.9634,-206.5 285.6089,-206.5"/>
<text text-anchor="middle" x="317.7861" y="-212.5" font-family="Helvetica,sans-Serif" font-size="10.00" fill="#000000">CItemType</text>
</a>
</g>
</g>
<!-- Node24&#45;&gt;Node25 -->
<g id="edge16" class="edge">
<title>Node24&#45;&gt;Node25</title>
<path fill="none" stroke="#191970" d="M207.1234,-203.19C233.4678,-206.1205 263.3362,-209.4431 285.3972,-211.8971"/>
<polygon fill="#191970" stroke="#191970" points="207.1708,-199.6738 196.8451,-202.0467 206.3968,-206.6309 207.1708,-199.6738"/>
</g>
<!-- Node31 -->
<g id="node31" class="node">
<title>Node31</title>
<g id="a_node31"><a xlink:href="interfacelocomotor_1_1components_1_1types_1_1_c_user_type.html" target="_top" xlink:title="CUserType">
<polygon fill="#ffffff" stroke="#000000" points="284.7764,-148.5 284.7764,-166.5 350.7959,-166.5 350.7959,-148.5 284.7764,-148.5"/>
<text text-anchor="middle" x="317.7861" y="-154.5" font-family="Helvetica,sans-Serif" font-size="10.00" fill="#000000">CUserType</text>
</a>
</g>
</g>
<!-- Node24&#45;&gt;Node31 -->
<g id="edge30" class="edge">
<title>Node24&#45;&gt;Node31</title>
<path fill="none" stroke="#191970" d="M196.7113,-185.1453C225.0273,-178.6798 259.7218,-170.758 284.7016,-165.0543"/>
<polygon fill="#191970" stroke="#191970" points="195.5675,-181.8163 186.5975,-187.4546 197.1258,-188.6407 195.5675,-181.8163"/>
</g>
<!-- Node25&#45;&gt;Node6 -->
<g id="edge17" class="edge">
<title>Node25&#45;&gt;Node6</title>
<path fill="none" stroke="#191970" d="M354.9786,-202.5321C369.6795,-196.0781 385.948,-187.1302 398.1836,-175.5 421.8383,-153.0157 407.9817,-130.9562 434.1836,-111.5 448.733,-100.6964 468.5494,-96.1671 484.9236,-94.353"/>
<polygon fill="#191970" stroke="#191970" points="353.5017,-199.3554 345.6026,-206.4163 356.1808,-205.8225 353.5017,-199.3554"/>
</g>
<!-- Node25&#45;&gt;Node8 -->
<g id="edge18" class="edge">
<title>Node25&#45;&gt;Node8</title>
<path fill="none" stroke="#191970" d="M359.9722,-219.9494C373.7202,-223.3458 388.0384,-229.2561 398.1836,-239.5 438.8656,-280.5779 392.0679,-324.8934 434.1836,-364.5 449.6899,-379.0825 474.294,-382.8201 492.294,-383.3783"/>
<polygon fill="#191970" stroke="#191970" points="360.6345,-216.5122 350.1302,-217.8945 359.2038,-223.3645 360.6345,-216.5122"/>
</g>
<!-- Node25&#45;&gt;Node16 -->
<g id="edge29" class="edge">
<title>Node25&#45;&gt;Node16</title>
<path fill="none" stroke="#191970" d="M358.4509,-202.4718C372.6127,-196.225 387.5907,-187.4382 398.1836,-175.5 429.8126,-139.8543 398.4731,-106.0559 434.1836,-74.5 450.3499,-60.2145 475.3337,-56.49 493.2517,-55.8549"/>
<polygon fill="#191970" stroke="#191970" points="356.7743,-199.3759 348.8409,-206.3982 359.4219,-205.8559 356.7743,-199.3759"/>
</g>
<!-- Node26 -->
<g id="node26" class="node">
<title>Node26</title>
<g id="a_node26"><a xlink:href="classlocomotor_1_1components_1_1types_1_1_c_integer_list.html" target="_top" xlink:title="CIntegerList">
<polygon fill="#ffffff" stroke="#000000" points="480.0894,-336.5 480.0894,-354.5 550.0054,-354.5 550.0054,-336.5 480.0894,-336.5"/>
<text text-anchor="middle" x="515.0474" y="-342.5" font-family="Helvetica,sans-Serif" font-size="10.00" fill="#000000">CIntegerList</text>
</a>
</g>
</g>
<!-- Node25&#45;&gt;Node26 -->
<g id="edge19" class="edge">
<title>Node25&#45;&gt;Node26</title>
<path fill="none" stroke="#191970" d="M360.0957,-220.7698C373.5723,-224.2419 387.6905,-229.99 398.1836,-239.5 429.4949,-267.8775 401.8839,-300.2528 434.1836,-327.5 446.8259,-338.1647 464.428,-342.8802 479.9827,-344.8394"/>
<polygon fill="#191970" stroke="#191970" points="360.5057,-217.276 349.9858,-218.5338 358.994,-224.1108 360.5057,-217.276"/>
</g>
<!-- Node27 -->
<g id="node27" class="node">
<title>Node27</title>
<g id="a_node27"><a xlink:href="classlocomotor_1_1components_1_1types_1_1_c_interval.html" target="_top" xlink:title="CInterval\&lt; T extends\l Number \&gt;">
<polygon fill="#ffffff" stroke="#000000" points="460.9512,-289.5 460.9512,-317.5 569.1436,-317.5 569.1436,-289.5 460.9512,-289.5"/>
<text text-anchor="start" x="468.9512" y="-305.5" font-family="Helvetica,sans-Serif" font-size="10.00" fill="#000000">CInterval&lt; T extends</text>
<text text-anchor="middle" x="515.0474" y="-295.5" font-family="Helvetica,sans-Serif" font-size="10.00" fill="#000000"> Number &gt;</text>
</a>
</g>
</g>
<!-- Node25&#45;&gt;Node27 -->
<g id="edge20" class="edge">
<title>Node25&#45;&gt;Node27</title>
<path fill="none" stroke="#191970" d="M359.7645,-223.2861C372.7464,-226.9066 386.6532,-232.1067 398.1836,-239.5 418.5973,-252.5894 413.6854,-267.5434 434.1836,-280.5 442.2031,-285.569 451.3633,-289.5466 460.568,-292.6604"/>
<polygon fill="#191970" stroke="#191970" points="360.6268,-219.8941 350.0721,-220.8152 358.8975,-226.6771 360.6268,-219.8941"/>
</g>
<!-- Node28 -->
<g id="node28" class="node">
<title>Node28</title>
<g id="a_node28"><a xlink:href="classlocomotor_1_1components_1_1types_1_1_c_long.html" target="_top" xlink:title="CLong">
<polygon fill="#ffffff" stroke="#000000" points="492.3135,-205.5 492.3135,-223.5 537.7813,-223.5 537.7813,-205.5 492.3135,-205.5"/>
<text text-anchor="middle" x="515.0474" y="-211.5" font-family="Helvetica,sans-Serif" font-size="10.00" fill="#000000">CLong</text>
</a>
</g>
</g>
<!-- Node25&#45;&gt;Node28 -->
<g id="edge23" class="edge">
<title>Node25&#45;&gt;Node28</title>
<path fill="none" stroke="#191970" d="M360.4686,-215.2836C400.9274,-215.0785 460.1536,-214.7783 492.2806,-214.6154"/>
<polygon fill="#191970" stroke="#191970" points="360.3419,-211.7841 350.3598,-215.3349 360.3775,-218.784 360.3419,-211.7841"/>
</g>
<!-- Node29 -->
<g id="node29" class="node">
<title>Node29</title>
<g id="a_node29"><a xlink:href="classlocomotor_1_1components_1_1types_1_1_c_string_list.html" target="_top" xlink:title="CStringList">
<polygon fill="#ffffff" stroke="#000000" points="482.5942,-121.5 482.5942,-139.5 547.5005,-139.5 547.5005,-121.5 482.5942,-121.5"/>
<text text-anchor="middle" x="515.0474" y="-127.5" font-family="Helvetica,sans-Serif" font-size="10.00" fill="#000000">CStringList</text>
</a>
</g>
</g>
<!-- Node25&#45;&gt;Node29 -->
<g id="edge26" class="edge">
<title>Node25&#45;&gt;Node29</title>
<path fill="none" stroke="#191970" d="M347.6036,-202.2532C363.0592,-194.9941 382.0297,-185.4615 398.1836,-175.5 415.207,-165.0022 416.0148,-156.8604 434.1836,-148.5 449.3397,-141.5259 467.3637,-137.1763 482.5447,-134.5047"/>
<polygon fill="#191970" stroke="#191970" points="346.1015,-199.0916 338.4911,-206.4626 349.0371,-205.4463 346.1015,-199.0916"/>
</g>
<!-- Node27&#45;&gt;Node9 -->
<g id="edge21" class="edge">
<title>Node27&#45;&gt;Node9</title>
<path fill="none" stroke="#191970" d="M578.9852,-320.8651C584.7759,-322.9198 590.4945,-325.1354 595.9111,-327.5 624.5399,-339.9978 655.3426,-359.8081 672.3069,-371.3401"/>
<polygon fill="#191970" stroke="#191970" points="579.8067,-317.4483 569.2124,-317.5611 577.5647,-324.0796 579.8067,-317.4483"/>
</g>
<!-- Node27&#45;&gt;Node12 -->
<g id="edge22" class="edge">
<title>Node27&#45;&gt;Node12</title>
<path fill="none" stroke="#191970" d="M579.4637,-294.4247C600.2668,-291.4939 622.8293,-288.3152 641.7646,-285.6475"/>
<polygon fill="#191970" stroke="#191970" points="578.8301,-290.9793 569.4162,-295.8403 579.8067,-297.9109 578.8301,-290.9793"/>
</g>
<!-- Node28&#45;&gt;Node11 -->
<g id="edge24" class="edge">
<title>Node28&#45;&gt;Node11</title>
<path fill="none" stroke="#191970" d="M548.2193,-217.2262C580.2274,-219.8567 628.1086,-223.7917 658.0102,-226.2491"/>
<polygon fill="#191970" stroke="#191970" points="548.2749,-213.719 538.0218,-216.3881 547.7015,-220.6955 548.2749,-213.719"/>
</g>
<!-- Node28&#45;&gt;Node18 -->
<g id="edge25" class="edge">
<title>Node28&#45;&gt;Node18</title>
<path fill="none" stroke="#191970" d="M548.043,-208.1082C573.8307,-203.1127 609.9998,-196.1061 638.7497,-190.5368"/>
<polygon fill="#191970" stroke="#191970" points="547.1736,-204.7115 538.0218,-210.0495 548.505,-211.5837 547.1736,-204.7115"/>
</g>
<!-- Node29&#45;&gt;Node14 -->
<g id="edge27" class="edge">
<title>Node29&#45;&gt;Node14</title>
<path fill="none" stroke="#191970" d="M557.559,-123.3244C570.1829,-120.4504 583.8528,-116.5835 595.9111,-111.5 626.1239,-98.7632 657.586,-76.1813 673.9534,-63.6029"/>
<polygon fill="#191970" stroke="#191970" points="556.7621,-119.9156 547.7099,-125.4208 558.2195,-126.7622 556.7621,-119.9156"/>
</g>
<!-- Node30 -->
<g id="node30" class="node">
<title>Node30</title>
<g id="a_node30"><a xlink:href="classlocomotor_1_1components_1_1types_1_1_c_weighted_string_list.html" target="_top" xlink:title="CWeightedStringList">
<polygon fill="#ffffff" stroke="#000000" points="631.9111,-121.5 631.9111,-139.5 738.8877,-139.5 738.8877,-121.5 631.9111,-121.5"/>
<text text-anchor="middle" x="685.3994" y="-127.5" font-family="Helvetica,sans-Serif" font-size="10.00" fill="#000000">CWeightedStringList</text>
</a>
</g>
</g>
<!-- Node29&#45;&gt;Node30 -->
<g id="edge28" class="edge">
<title>Node29&#45;&gt;Node30</title>
<path fill="none" stroke="#191970" d="M558.1108,-130.5C580.515,-130.5 608.1135,-130.5 631.8788,-130.5"/>
<polygon fill="#191970" stroke="#191970" points="557.893,-127.0001 547.893,-130.5 557.8929,-134.0001 557.893,-127.0001"/>
</g>
<!-- Node31&#45;&gt;Node6 -->
<g id="edge31" class="edge">
<title>Node31&#45;&gt;Node6</title>
<path fill="none" stroke="#191970" d="M347.3501,-144.319C370.606,-134.3182 404.0108,-120.7573 434.1836,-111.5 450.6834,-106.4377 469.4826,-102.1662 484.8,-99.0565"/>
<polygon fill="#191970" stroke="#191970" points="345.8195,-141.1679 338.0437,-148.3641 348.61,-147.5877 345.8195,-141.1679"/>
</g>
<!-- Node31&#45;&gt;Node16 -->
<g id="edge34" class="edge">
<title>Node31&#45;&gt;Node16</title>
<path fill="none" stroke="#191970" d="M356.2952,-144.7949C370.3436,-139.0346 385.8053,-131.2883 398.1836,-121.5 418.8229,-105.1793 412.0041,-88.6568 434.1836,-74.5 452.005,-63.125 476.0226,-58.8783 493.2443,-57.3243"/>
<polygon fill="#191970" stroke="#191970" points="354.9031,-141.5808 346.8506,-148.4661 357.4393,-148.1053 354.9031,-141.5808"/>
</g>
<!-- Node31&#45;&gt;Node27 -->
<g id="edge32" class="edge">
<title>Node31&#45;&gt;Node27</title>
<path fill="none" stroke="#191970" d="M358.0494,-170.3646C372.1666,-176.4732 387.219,-185.0104 398.1836,-196.5 426.2252,-225.8844 403.6876,-253.6715 434.1836,-280.5 441.745,-287.1521 451.1049,-291.8892 460.7444,-295.2603"/>
<polygon fill="#191970" stroke="#191970" points="359.0707,-167.0029 348.487,-166.5171 356.4577,-173.497 359.0707,-167.0029"/>
</g>
<!-- Node31&#45;&gt;Node29 -->
<g id="edge33" class="edge">
<title>Node31&#45;&gt;Node29</title>
<path fill="none" stroke="#191970" d="M361.1798,-151.5605C397.8093,-146.5469 449.4401,-139.48 482.579,-134.9441"/>
<polygon fill="#191970" stroke="#191970" points="360.2362,-148.157 350.8032,-152.9808 361.1855,-155.0923 360.2362,-148.157"/>
</g>
<!-- Node32&#45;&gt;Node6 -->
<g id="edge36" class="edge">
<title>Node32&#45;&gt;Node6</title>
<path fill="none" stroke="#191970" d="M369.9631,-293.6647C380.4809,-290.4521 390.6155,-285.3923 398.1836,-277.5 450.4342,-223.0111 380.9482,-165.0271 434.1836,-111.5 447.2669,-98.345 467.6977,-93.8772 484.749,-92.6818"/>
<polygon fill="#191970" stroke="#191970" points="369.0926,-290.2746 360.2589,-296.124 370.8123,-297.0601 369.0926,-290.2746"/>
</g>
<!-- Node32&#45;&gt;Node27 -->
<g id="edge39" class="edge">
<title>Node32&#45;&gt;Node27</title>
<path fill="none" stroke="#191970" d="M370.468,-299.8353C398.3863,-300.543 432.6299,-301.411 460.7819,-302.1245"/>
<polygon fill="#191970" stroke="#191970" points="370.1891,-296.3272 360.1036,-299.5726 370.0117,-303.325 370.1891,-296.3272"/>
</g>
<!-- Node32&#45;&gt;Node29 -->
<g id="edge40" class="edge">
<title>Node32&#45;&gt;Node29</title>
<path fill="none" stroke="#191970" d="M370.2625,-293.1343C380.5723,-289.9334 390.5451,-285.0124 398.1836,-277.5 440.6224,-235.762 390.9908,-189.4572 434.1836,-148.5 446.916,-136.4266 465.878,-131.7726 482.2403,-130.2085"/>
<polygon fill="#191970" stroke="#191970" points="369.1426,-289.8088 360.3397,-295.7047 370.8979,-296.5852 369.1426,-289.8088"/>
</g>
<!-- Node33 -->
<g id="node33" class="node">
<title>Node33</title>
<g id="a_node33"><a xlink:href="classlocomotor_1_1components_1_1types_1_1_c_graph_string_list.html" target="_top" xlink:title="CGraphStringList">
<polygon fill="#ffffff" stroke="#000000" points="468.6978,-486.5 468.6978,-504.5 561.397,-504.5 561.397,-486.5 468.6978,-486.5"/>
<text text-anchor="middle" x="515.0474" y="-492.5" font-family="Helvetica,sans-Serif" font-size="10.00" fill="#000000">CGraphStringList</text>
</a>
</g>
</g>
<!-- Node32&#45;&gt;Node33 -->
<g id="edge37" class="edge">
<title>Node32&#45;&gt;Node33</title>
<path fill="none" stroke="#191970" d="M370.1035,-302.5735C380.423,-305.5172 390.4399,-310.1864 398.1836,-317.5 438.9742,-356.025 401.4468,-392.933 434.1836,-438.5 449.9175,-460.4005 476.7668,-476.8771 495.18,-486.3456"/>
<polygon fill="#191970" stroke="#191970" points="370.7158,-299.1223 360.1812,-300.25 369.1197,-305.9379 370.7158,-299.1223"/>
</g>
<!-- Node34 -->
<g id="node34" class="node">
<title>Node34</title>
<g id="a_node34"><a xlink:href="classlocomotor_1_1components_1_1types_1_1_c_graph_tree.html" target="_top" xlink:title="CGraphTree">
<polygon fill="#ffffff" stroke="#000000" points="479.4424,-410.5 479.4424,-428.5 550.6523,-428.5 550.6523,-410.5 479.4424,-410.5"/>
<text text-anchor="middle" x="515.0474" y="-416.5" font-family="Helvetica,sans-Serif" font-size="10.00" fill="#000000">CGraphTree</text>
</a>
</g>
</g>
<!-- Node32&#45;&gt;Node34 -->
<g id="edge38" class="edge">
<title>Node32&#45;&gt;Node34</title>
<path fill="none" stroke="#191970" d="M369.8007,-303.3583C380.0487,-306.2619 390.1132,-310.7163 398.1836,-317.5 429.276,-343.635 402.9214,-375.5683 434.1836,-401.5 446.6925,-411.876 463.9138,-416.599 479.2502,-418.638"/>
<polygon fill="#191970" stroke="#191970" points="370.5165,-299.931 359.9783,-301.0242 368.8982,-306.7413 370.5165,-299.931"/>
</g>
<!-- Node35 -->
<g id="node35" class="node">
<title>Node35</title>
<g id="a_node35"><a xlink:href="classlocomotor_1_1components_1_1models_1_1_item.html" target="_top" xlink:title="Item">
<polygon fill="#ffffff" stroke="#000000" points="129.2583,-326.5 129.2583,-344.5 164.7065,-344.5 164.7065,-326.5 129.2583,-326.5"/>
<text text-anchor="middle" x="146.9824" y="-332.5" font-family="Helvetica,sans-Serif" font-size="10.00" fill="#000000">Item</text>
</a>
</g>
</g>
<!-- Node36 -->
<g id="node36" class="node">
<title>Node36</title>
<g id="a_node36"><a xlink:href="classlocomotor_1_1components_1_1models_1_1_item_full.html" target="_top" xlink:title="ItemFull">
<polygon fill="#ffffff" stroke="#000000" points="292.0054,-326.5 292.0054,-344.5 343.5669,-344.5 343.5669,-326.5 292.0054,-326.5"/>
<text text-anchor="middle" x="317.7861" y="-332.5" font-family="Helvetica,sans-Serif" font-size="10.00" fill="#000000">ItemFull</text>
</a>
</g>
</g>
<!-- Node35&#45;&gt;Node36 -->
<g id="edge41" class="edge">
<title>Node35&#45;&gt;Node36</title>
<path fill="none" stroke="#191970" d="M175.0802,-335.5C207.4707,-335.5 260.2789,-335.5 291.7649,-335.5"/>
<polygon fill="#191970" stroke="#191970" points="174.9386,-332.0001 164.9386,-335.5 174.9385,-339.0001 174.9386,-332.0001"/>
</g>
<!-- Node37 -->
<g id="node37" class="node">
<title>Node37</title>
<g id="a_node37"><a xlink:href="interfacelocomotor_1_1components_1_1_j_s_o_n_convertissable.html" target="_top" xlink:title="JSONConvertissable">
<polygon fill="#ffffff" stroke="#000000" points="92.5762,-224.5 92.5762,-242.5 201.3887,-242.5 201.3887,-224.5 92.5762,-224.5"/>
<text text-anchor="middle" x="146.9824" y="-230.5" font-family="Helvetica,sans-Serif" font-size="10.00" fill="#000000">JSONConvertissable</text>
</a>
</g>
</g>
<!-- Node37&#45;&gt;Node25 -->
<g id="edge43" class="edge">
<title>Node37&#45;&gt;Node25</title>
<path fill="none" stroke="#191970" d="M211.7272,-226.6769C236.8922,-224.0249 264.603,-221.1047 285.387,-218.9144"/>
<polygon fill="#191970" stroke="#191970" points="211.0735,-223.2263 201.4954,-227.7552 211.8072,-230.1878 211.0735,-223.2263"/>
</g>
<!-- Node37&#45;&gt;Node31 -->
<g id="edge44" class="edge">
<title>Node37&#45;&gt;Node31</title>
<path fill="none" stroke="#191970" d="M185.0119,-220.917C190.5492,-218.8835 196.1471,-216.7149 201.3887,-214.5 217.8664,-207.5369 221.341,-204.4039 237.3887,-196.5 258.4034,-186.1498 282.5988,-174.4409 298.9114,-166.5771"/>
<polygon fill="#191970" stroke="#191970" points="183.446,-217.7593 175.2004,-224.4122 185.7951,-224.3534 183.446,-217.7593"/>
</g>
<!-- Node38 -->
<g id="node38" class="node">
<title>Node38</title>
<g id="a_node38"><a xlink:href="classlocomotor_1_1components_1_1models_1_1_universe.html" target="_top" xlink:title="Universe">
<polygon fill="#ffffff" stroke="#000000" points="290.0571,-249.5 290.0571,-267.5 345.5151,-267.5 345.5151,-249.5 290.0571,-249.5"/>
<text text-anchor="middle" x="317.7861" y="-255.5" font-family="Helvetica,sans-Serif" font-size="10.00" fill="#000000">Universe</text>
</a>
</g>
</g>
<!-- Node37&#45;&gt;Node38 -->
<g id="edge42" class="edge">
<title>Node37&#45;&gt;Node38</title>
<path fill="none" stroke="#191970" d="M211.7094,-242.9739C238.8014,-246.9392 268.8467,-251.3369 290.0244,-254.4366"/>
<polygon fill="#191970" stroke="#191970" points="211.8969,-239.4641 201.4954,-241.4789 210.8831,-246.3903 211.8969,-239.4641"/>
</g>
<!-- Node39 -->
<g id="node39" class="node">
<title>Node39</title>
<g id="a_node39"><a xlink:href="interfacelocomotor_1_1components_1_1_j_s_o_n_displayable.html" target="_top" xlink:title="JSONDisplayable">
<polygon fill="#ffffff" stroke="#000000" points="99.8003,-447.5 99.8003,-465.5 194.1646,-465.5 194.1646,-447.5 99.8003,-447.5"/>
<text text-anchor="middle" x="146.9824" y="-453.5" font-family="Helvetica,sans-Serif" font-size="10.00" fill="#000000">JSONDisplayable</text>
</a>
</g>
</g>
<!-- Node39&#45;&gt;Node3 -->
<g id="edge46" class="edge">
<title>Node39&#45;&gt;Node3</title>
<path fill="none" stroke="#191970" d="M173.8716,-470.8025C183.5816,-477.0303 193.9667,-485.0749 201.3887,-494.5 228.5532,-528.9962 204.0629,-557.9116 237.3887,-586.5 246.9421,-594.6954 259.4277,-599.3834 271.7006,-602.007"/>
<polygon fill="#191970" stroke="#191970" points="175.6201,-467.7698 165.2485,-465.6063 172.0072,-473.7654 175.6201,-467.7698"/>
</g>
<!-- Node39&#45;&gt;Node21 -->
<g id="edge47" class="edge">
<title>Node39&#45;&gt;Node21</title>
<path fill="none" stroke="#191970" d="M172.0439,-471.1087C181.8525,-477.5342 192.7888,-485.6371 201.3887,-494.5 221.7335,-515.4671 213.3714,-532.8656 237.3887,-549.5 248.5593,-557.2368 262.5108,-561.7102 275.6409,-564.2769"/>
<polygon fill="#191970" stroke="#191970" points="173.7809,-468.0665 163.4525,-465.7055 170.0543,-473.9921 173.7809,-468.0665"/>
</g>
<!-- Node39&#45;&gt;Node25 -->
<g id="edge52" class="edge">
<title>Node39&#45;&gt;Node25</title>
<path fill="none" stroke="#191970" d="M198.1789,-441.7357C199.3156,-440.7272 200.3897,-439.6502 201.3887,-438.5 260.3243,-370.6398 177.4615,-306.4862 237.3887,-239.5 249.4318,-226.0383 268.6709,-219.9868 285.3094,-217.3252"/>
<polygon fill="#191970" stroke="#191970" points="196.1459,-438.8861 189.9019,-447.4455 200.1208,-444.6481 196.1459,-438.8861"/>
</g>
<!-- Node39&#45;&gt;Node32 -->
<g id="edge56" class="edge">
<title>Node39&#45;&gt;Node32</title>
<path fill="none" stroke="#191970" d="M197.4966,-442.0006C198.8709,-440.9167 200.1742,-439.7519 201.3887,-438.5 240.4565,-398.229 196.5981,-356.025 237.3887,-317.5 247.6072,-307.8491 261.784,-302.8028 275.3911,-300.25"/>
<polygon fill="#191970" stroke="#191970" points="195.5732,-439.0756 188.9744,-447.3646 199.302,-444.9998 195.5732,-439.0756"/>
</g>
<!-- Node39&#45;&gt;Node36 -->
<g id="edge48" class="edge">
<title>Node39&#45;&gt;Node36</title>
<path fill="none" stroke="#191970" d="M196.5526,-442.3511C198.2559,-441.1687 199.8771,-439.8877 201.3887,-438.5 231.3091,-411.0311 206.2962,-380.635 237.3887,-354.5 252.5397,-341.7647 274.7186,-337.2385 291.9457,-335.7716"/>
<polygon fill="#191970" stroke="#191970" points="194.4626,-439.5119 187.4792,-447.4795 197.907,-445.6059 194.4626,-439.5119"/>
</g>
<!-- Node39&#45;&gt;Node38 -->
<g id="edge51" class="edge">
<title>Node39&#45;&gt;Node38</title>
<path fill="none" stroke="#191970" d="M198.04,-441.7358C199.2226,-440.7275 200.3432,-439.6504 201.3887,-438.5 249.8274,-385.2004 187.5701,-332.5122 237.3887,-280.5 250.9019,-266.3917 272.5208,-261.0453 289.9384,-259.143"/>
<polygon fill="#191970" stroke="#191970" points="195.8554,-438.9856 189.474,-447.443 199.7367,-444.8111 195.8554,-438.9856"/>
</g>
<!-- Node40 -->
<g id="node40" class="node">
<title>Node40</title>
<g id="a_node40"><a xlink:href="classlocomotor_1_1components_1_1models_1_1_booking.html" target="_top" xlink:title="Booking">
<polygon fill="#ffffff" stroke="#000000" points="291.7173,-447.5 291.7173,-465.5 343.855,-465.5 343.855,-447.5 291.7173,-447.5"/>
<text text-anchor="middle" x="317.7861" y="-453.5" font-family="Helvetica,sans-Serif" font-size="10.00" fill="#000000">Booking</text>
</a>
</g>
</g>
<!-- Node39&#45;&gt;Node40 -->
<g id="edge45" class="edge">
<title>Node39&#45;&gt;Node40</title>
<path fill="none" stroke="#191970" d="M204.7511,-456.5C234.2161,-456.5 268.5998,-456.5 291.6384,-456.5"/>
<polygon fill="#191970" stroke="#191970" points="204.5608,-453.0001 194.5608,-456.5 204.5607,-460.0001 204.5608,-453.0001"/>
</g>
<!-- Node41 -->
<g id="node41" class="node">
<title>Node41</title>
<g id="a_node41"><a xlink:href="classlocomotor_1_1components_1_1models_1_1_unit.html" target="_top" xlink:title="Unit">
<polygon fill="#ffffff" stroke="#000000" points="300.8945,-410.5 300.8945,-428.5 334.6777,-428.5 334.6777,-410.5 300.8945,-410.5"/>
<text text-anchor="middle" x="317.7861" y="-416.5" font-family="Helvetica,sans-Serif" font-size="10.00" fill="#000000">Unit</text>
</a>
</g>
</g>
<!-- Node39&#45;&gt;Node41 -->
<g id="edge49" class="edge">
<title>Node39&#45;&gt;Node41</title>
<path fill="none" stroke="#191970" d="M198.7688,-445.2819C233.5129,-437.7555 277.0895,-428.3158 300.6884,-423.2038"/>
<polygon fill="#191970" stroke="#191970" points="197.798,-441.9109 188.7657,-447.4488 199.2801,-448.7522 197.798,-441.9109"/>
</g>
<!-- Node42 -->
<g id="node42" class="node">
<title>Node42</title>
<g id="a_node42"><a xlink:href="classlocomotor_1_1components_1_1models_1_1_unit_alt.html" target="_top" xlink:title="UnitAlt">
<polygon fill="#ffffff" stroke="#000000" points="295.0596,-521.5 295.0596,-539.5 340.5127,-539.5 340.5127,-521.5 295.0596,-521.5"/>
<text text-anchor="middle" x="317.7861" y="-527.5" font-family="Helvetica,sans-Serif" font-size="10.00" fill="#000000">UnitAlt</text>
</a>
</g>
</g>
<!-- Node39&#45;&gt;Node42 -->
<g id="edge50" class="edge">
<title>Node39&#45;&gt;Node42</title>
<path fill="none" stroke="#191970" d="M167.2018,-471.7876C184.8577,-484.4404 211.6229,-501.9865 237.3887,-512.5 256.0618,-520.1194 278.5547,-524.806 294.995,-527.4791"/>
<polygon fill="#191970" stroke="#191970" points="168.9904,-468.7594 158.8529,-465.6801 164.8574,-474.4091 168.9904,-468.7594"/>
</g>
<!-- Node43 -->
<g id="node43" class="node">
<title>Node43</title>
<g id="a_node43"><a xlink:href="classlocomotor_1_1components_1_1types_1_1_c_set_graph.html" target="_top" xlink:title="CSetGraph">
<polygon fill="#ffffff" stroke="#000000" points="284.7739,-484.5 284.7739,-502.5 350.7983,-502.5 350.7983,-484.5 284.7739,-484.5"/>
<text text-anchor="middle" x="317.7861" y="-490.5" font-family="Helvetica,sans-Serif" font-size="10.00" fill="#000000">CSetGraph</text>
</a>
</g>
</g>
<!-- Node39&#45;&gt;Node43 -->
<g id="edge53" class="edge">
<title>Node39&#45;&gt;Node43</title>
<path fill="none" stroke="#191970" d="M198.7688,-467.7181C226.6962,-473.7678 260.3302,-481.0537 284.7087,-486.3347"/>
<polygon fill="#191970" stroke="#191970" points="199.2801,-464.2478 188.7657,-465.5512 197.798,-471.0891 199.2801,-464.2478"/>
</g>
<!-- Node43&#45;&gt;Node33 -->
<g id="edge54" class="edge">
<title>Node43&#45;&gt;Node33</title>
<path fill="none" stroke="#191970" d="M361.1262,-493.9394C392.941,-494.262 436.0941,-494.6995 468.6133,-495.0292"/>
<polygon fill="#191970" stroke="#191970" points="360.8382,-490.4364 350.8032,-493.8348 360.7672,-497.4361 360.8382,-490.4364"/>
</g>
<!-- Node43&#45;&gt;Node34 -->
<g id="edge55" class="edge">
<title>Node43&#45;&gt;Node34</title>
<path fill="none" stroke="#191970" d="M361.0571,-485.6968C373.2237,-482.9971 386.3579,-479.5977 398.1836,-475.5 435.5976,-462.5358 476.8037,-440.9286 498.9039,-428.6902"/>
<polygon fill="#191970" stroke="#191970" points="360.1738,-482.3061 351.1146,-487.8 361.6225,-489.1546 360.1738,-482.3061"/>
</g>
</g>
</svg>
