<?xml version="1.0" encoding="UTF-8" standalone="no"?>
<!DOCTYPE svg PUBLIC "-//W3C//DTD SVG 1.1//EN"
 "http://www.w3.org/Graphics/SVG/1.1/DTD/svg11.dtd">
<!-- Generated by graphviz version 2.40.1 (20161225.0304)
 -->
<!-- Title: Graphical Class Hierarchy Pages: 1 -->
<svg width="269pt" height="84pt"
 viewBox="0.00 0.00 269.43 84.00" xmlns="http://www.w3.org/2000/svg" xmlns:xlink="http://www.w3.org/1999/xlink">
<g id="graph0" class="graph" transform="scale(1 1) rotate(0) translate(4 80)">
<title>Graphical Class Hierarchy</title>
<polygon fill="#ffffff" stroke="transparent" points="-4,4 -4,-80 265.4326,-80 265.4326,4 -4,4"/>
<!-- Node1 -->
<g id="node1" class="node">
<title>Node1</title>
<polygon fill="#ffffff" stroke="#bfbfbf" points="0,-28.5 0,-46.5 59.916,-46.5 59.916,-28.5 0,-28.5"/>
<text text-anchor="middle" x="29.958" y="-34.5" font-family="Helvetica,sans-Serif" font-size="10.00" fill="#000000">Exception</text>
</g>
<!-- Node2 -->
<g id="node2" class="node">
<title>Node2</title>
<g id="a_node2"><a xlink:href="classlocomotor_1_1core_1_1_password_storage_1_1_cannot_perform_operation_exception.html" target="_top" xlink:title="PasswordStorage.CannotPerform\lOperationException">
<polygon fill="#ffffff" stroke="#000000" points="95.916,-47.5 95.916,-75.5 261.4326,-75.5 261.4326,-47.5 95.916,-47.5"/>
<text text-anchor="start" x="103.916" y="-63.5" font-family="Helvetica,sans-Serif" font-size="10.00" fill="#000000">PasswordStorage.CannotPerform</text>
<text text-anchor="middle" x="178.6743" y="-53.5" font-family="Helvetica,sans-Serif" font-size="10.00" fill="#000000">OperationException</text>
</a>
</g>
</g>
<!-- Node1&#45;&gt;Node2 -->
<g id="edge1" class="edge">
<title>Node1&#45;&gt;Node2</title>
<path fill="none" stroke="#191970" d="M70.1479,-43.9859C78.1557,-45.2782 86.8391,-46.6795 95.6877,-48.1075"/>
<polygon fill="#191970" stroke="#191970" points="70.4829,-40.4947 60.053,-42.3568 69.3676,-47.4053 70.4829,-40.4947"/>
</g>
<!-- Node3 -->
<g id="node3" class="node">
<title>Node3</title>
<g id="a_node3"><a xlink:href="classlocomotor_1_1core_1_1_password_storage_1_1_invalid_hash_exception.html" target="_top" xlink:title="PasswordStorage.InvalidHash\lException">
<polygon fill="#ffffff" stroke="#000000" points="103.6943,-.5 103.6943,-28.5 253.6543,-28.5 253.6543,-.5 103.6943,-.5"/>
<text text-anchor="start" x="111.6943" y="-16.5" font-family="Helvetica,sans-Serif" font-size="10.00" fill="#000000">PasswordStorage.InvalidHash</text>
<text text-anchor="middle" x="178.6743" y="-6.5" font-family="Helvetica,sans-Serif" font-size="10.00" fill="#000000">Exception</text>
</a>
</g>
</g>
<!-- Node1&#45;&gt;Node3 -->
<g id="edge2" class="edge">
<title>Node1&#45;&gt;Node3</title>
<path fill="none" stroke="#191970" d="M70,-31.3072C80.3683,-29.7037 91.8767,-27.9238 103.4142,-26.1395"/>
<polygon fill="#191970" stroke="#191970" points="69.4005,-27.8582 60.053,-32.8456 70.4705,-34.776 69.4005,-27.8582"/>
</g>
</g>
</svg>
