<?xml version="1.0" encoding="UTF-8" standalone="no"?>
<!DOCTYPE svg PUBLIC "-//W3C//DTD SVG 1.1//EN"
 "http://www.w3.org/Graphics/SVG/1.1/DTD/svg11.dtd">
<!-- Generated by graphviz version 2.40.1 (20161225.0304)
 -->
<!-- Title: Graphical Class Hierarchy Pages: 1 -->
<svg width="268pt" height="64pt"
 viewBox="0.00 0.00 267.75 64.00" xmlns="http://www.w3.org/2000/svg" xmlns:xlink="http://www.w3.org/1999/xlink">
<g id="graph0" class="graph" transform="scale(1 1) rotate(0) translate(4 60)">
<title>Graphical Class Hierarchy</title>
<polygon fill="#ffffff" stroke="transparent" points="-4,4 -4,-60 263.7529,-60 263.7529,4 -4,4"/>
<!-- Node1 -->
<g id="node1" class="node">
<title>Node1</title>
<g id="a_node1"><a xlink:href="classlocomotor_1_1components_1_1network_1_1_network_response.html" target="_top" xlink:title="NetworkResponse">
<polygon fill="#ffffff" stroke="#000000" points="0,-18.5 0,-36.5 97.7041,-36.5 97.7041,-18.5 0,-18.5"/>
<text text-anchor="middle" x="48.8521" y="-24.5" font-family="Helvetica,sans-Serif" font-size="10.00" fill="#000000">NetworkResponse</text>
</a>
</g>
</g>
<!-- Node2 -->
<g id="node2" class="node">
<title>Node2</title>
<g id="a_node2"><a xlink:href="classlocomotor_1_1components_1_1network_1_1_network_binary_response.html" target="_top" xlink:title="NetworkBinaryResponse">
<polygon fill="#ffffff" stroke="#000000" points="133.7041,-37.5 133.7041,-55.5 259.7529,-55.5 259.7529,-37.5 133.7041,-37.5"/>
<text text-anchor="middle" x="196.7285" y="-43.5" font-family="Helvetica,sans-Serif" font-size="10.00" fill="#000000">NetworkBinaryResponse</text>
</a>
</g>
</g>
<!-- Node1&#45;&gt;Node2 -->
<g id="edge1" class="edge">
<title>Node1&#45;&gt;Node2</title>
<path fill="none" stroke="#191970" d="M108.1182,-35.1149C116.4678,-36.1876 125.0774,-37.2939 133.4978,-38.3758"/>
<polygon fill="#191970" stroke="#191970" points="108.4573,-31.6297 98.0928,-33.8267 107.5652,-38.5727 108.4573,-31.6297"/>
</g>
<!-- Node3 -->
<g id="node3" class="node">
<title>Node3</title>
<g id="a_node3"><a xlink:href="classlocomotor_1_1components_1_1network_1_1_network_json_response.html" target="_top" xlink:title="NetworkJsonResponse">
<polygon fill="#ffffff" stroke="#000000" points="137.3149,-.5 137.3149,-18.5 256.1421,-18.5 256.1421,-.5 137.3149,-.5"/>
<text text-anchor="middle" x="196.7285" y="-6.5" font-family="Helvetica,sans-Serif" font-size="10.00" fill="#000000">NetworkJsonResponse</text>
</a>
</g>
</g>
<!-- Node1&#45;&gt;Node3 -->
<g id="edge2" class="edge">
<title>Node1&#45;&gt;Node3</title>
<path fill="none" stroke="#191970" d="M108.263,-20.2683C117.7857,-19.1092 127.643,-17.9093 137.1691,-16.7498"/>
<polygon fill="#191970" stroke="#191970" points="107.5966,-16.8235 98.0928,-21.5063 108.4424,-23.7722 107.5966,-16.8235"/>
</g>
</g>
</svg>
