<?xml version="1.0" encoding="UTF-8" standalone="no"?>
<!DOCTYPE svg PUBLIC "-//W3C//DTD SVG 1.1//EN"
 "http://www.w3.org/Graphics/SVG/1.1/DTD/svg11.dtd">
<!-- Generated by graphviz version 2.40.1 (20161225.0304)
 -->
<!-- Title: Graphical Class Hierarchy Pages: 1 -->
<svg width="264pt" height="64pt"
 viewBox="0.00 0.00 263.87 64.00" xmlns="http://www.w3.org/2000/svg" xmlns:xlink="http://www.w3.org/1999/xlink">
<g id="graph0" class="graph" transform="scale(1 1) rotate(0) translate(4 60)">
<title>Graphical Class Hierarchy</title>
<polygon fill="#ffffff" stroke="transparent" points="-4,4 -4,-60 259.8711,-60 259.8711,4 -4,4"/>
<!-- Node1 -->
<g id="node1" class="node">
<title>Node1</title>
<g id="a_node1"><a xlink:href="classlocomotor_1_1components_1_1_resource_manager.html" target="_top" xlink:title="ResourceManager">
<polygon fill="#ffffff" stroke="#000000" points="0,-18.5 0,-36.5 98.2656,-36.5 98.2656,-18.5 0,-18.5"/>
<text text-anchor="middle" x="49.1328" y="-24.5" font-family="Helvetica,sans-Serif" font-size="10.00" fill="#000000">ResourceManager</text>
</a>
</g>
</g>
<!-- Node2 -->
<g id="node2" class="node">
<title>Node2</title>
<g id="a_node2"><a xlink:href="classlocomotor_1_1core_1_1_core_resource_manager.html" target="_top" xlink:title="CoreResourceManager">
<polygon fill="#ffffff" stroke="#000000" points="135.0981,-37.5 135.0981,-55.5 255.0386,-55.5 255.0386,-37.5 135.0981,-37.5"/>
<text text-anchor="middle" x="195.0684" y="-43.5" font-family="Helvetica,sans-Serif" font-size="10.00" fill="#000000">CoreResourceManager</text>
</a>
</g>
</g>
<!-- Node1&#45;&gt;Node2 -->
<g id="edge1" class="edge">
<title>Node1&#45;&gt;Node2</title>
<path fill="none" stroke="#191970" d="M108.6322,-35.2465C117.3602,-36.3828 126.3546,-37.5539 135.0922,-38.6914"/>
<polygon fill="#191970" stroke="#191970" points="108.9081,-31.753 98.5399,-33.9325 108.0043,-38.6944 108.9081,-31.753"/>
</g>
<!-- Node3 -->
<g id="node3" class="node">
<title>Node3</title>
<g id="a_node3"><a xlink:href="classlocomotor_1_1front_1_1components_1_1_front_resource_manager.html" target="_top" xlink:title="FrontResourceManager">
<polygon fill="#ffffff" stroke="#000000" points="134.2656,-.5 134.2656,-18.5 255.8711,-18.5 255.8711,-.5 134.2656,-.5"/>
<text text-anchor="middle" x="195.0684" y="-6.5" font-family="Helvetica,sans-Serif" font-size="10.00" fill="#000000">FrontResourceManager</text>
</a>
</g>
</g>
<!-- Node1&#45;&gt;Node3 -->
<g id="edge2" class="edge">
<title>Node1&#45;&gt;Node3</title>
<path fill="none" stroke="#191970" d="M108.6202,-20.1627C117.0099,-19.1279 125.646,-18.0627 134.0637,-17.0244"/>
<polygon fill="#191970" stroke="#191970" points="108.0362,-16.7081 98.5399,-21.406 108.8932,-23.6555 108.0362,-16.7081"/>
</g>
</g>
</svg>
