<?xml version="1.0" encoding="UTF-8" standalone="no"?>
<!DOCTYPE svg PUBLIC "-//W3C//DTD SVG 1.1//EN"
 "http://www.w3.org/Graphics/SVG/1.1/DTD/svg11.dtd">
<!-- Generated by graphviz version 2.40.1 (20161225.0304)
 -->
<!-- Title: CUserType Pages: 1 -->
<svg width="444pt" height="257pt"
 viewBox="0.00 0.00 444.34 257.00" xmlns="http://www.w3.org/2000/svg" xmlns:xlink="http://www.w3.org/1999/xlink">
<g id="graph0" class="graph" transform="scale(1 1) rotate(0) translate(4 253)">
<title>CUserType</title>
<polygon fill="#ffffff" stroke="transparent" points="-4,4 -4,-253 440.3403,-253 440.3403,4 -4,4"/>
<!-- Node1 -->
<g id="node1" class="node">
<title>Node1</title>
<polygon fill="#bfbfbf" stroke="#000000" points="171.8423,-120.5 171.8423,-138.5 237.8618,-138.5 237.8618,-120.5 171.8423,-120.5"/>
<text text-anchor="middle" x="204.8521" y="-126.5" font-family="Helvetica,sans-Serif" font-size="10.00" fill="#000000">CUserType</text>
</g>
<!-- Node5 -->
<g id="node5" class="node">
<title>Node5</title>
<g id="a_node5"><a xlink:href="classlocomotor_1_1components_1_1types_1_1_c_boolean.html" target="_top" xlink:title="CBoolean">
<polygon fill="#ffffff" stroke="#000000" points="18.8916,-60.5 18.8916,-78.5 78.8125,-78.5 78.8125,-60.5 18.8916,-60.5"/>
<text text-anchor="middle" x="48.8521" y="-66.5" font-family="Helvetica,sans-Serif" font-size="10.00" fill="#000000">CBoolean</text>
</a>
</g>
</g>
<!-- Node1&#45;&gt;Node5 -->
<g id="edge4" class="edge">
<title>Node1&#45;&gt;Node5</title>
<path fill="none" stroke="#191970" d="M171.5803,-116.7032C141.7139,-105.2161 98.6321,-88.6462 72.2569,-78.5019"/>
<polygon fill="#191970" stroke="#191970" points="170.5691,-120.0642 181.159,-120.3873 173.082,-113.5307 170.5691,-120.0642"/>
</g>
<!-- Node6 -->
<g id="node6" class="node">
<title>Node6</title>
<g id="a_node6"><a xlink:href="classlocomotor_1_1components_1_1types_1_1_c_interval.html" target="_top" xlink:title="CInterval\&lt; T extends\l Number \&gt;">
<polygon fill="#ffffff" stroke="#000000" points="96.7559,-55.5 96.7559,-83.5 204.9482,-83.5 204.9482,-55.5 96.7559,-55.5"/>
<text text-anchor="start" x="104.7559" y="-71.5" font-family="Helvetica,sans-Serif" font-size="10.00" fill="#000000">CInterval&lt; T extends</text>
<text text-anchor="middle" x="150.8521" y="-61.5" font-family="Helvetica,sans-Serif" font-size="10.00" fill="#000000"> Number &gt;</text>
</a>
</g>
</g>
<!-- Node1&#45;&gt;Node6 -->
<g id="edge5" class="edge">
<title>Node1&#45;&gt;Node6</title>
<path fill="none" stroke="#191970" d="M189.7666,-112.7384C181.5867,-103.6496 171.5818,-92.533 163.7649,-83.8477"/>
<polygon fill="#191970" stroke="#191970" points="187.3594,-115.2957 196.6506,-120.3873 192.5625,-110.6129 187.3594,-115.2957"/>
</g>
<!-- Node9 -->
<g id="node9" class="node">
<title>Node9</title>
<g id="a_node9"><a xlink:href="classlocomotor_1_1components_1_1types_1_1_c_string_list.html" target="_top" xlink:title="CStringList">
<polygon fill="#ffffff" stroke="#000000" points="226.3989,-60.5 226.3989,-78.5 291.3052,-78.5 291.3052,-60.5 226.3989,-60.5"/>
<text text-anchor="middle" x="258.8521" y="-66.5" font-family="Helvetica,sans-Serif" font-size="10.00" fill="#000000">CStringList</text>
</a>
</g>
</g>
<!-- Node1&#45;&gt;Node9 -->
<g id="edge8" class="edge">
<title>Node1&#45;&gt;Node9</title>
<path fill="none" stroke="#191970" d="M219.9916,-112.6783C229.8958,-101.6737 242.4572,-87.7165 250.5734,-78.6985"/>
<polygon fill="#191970" stroke="#191970" points="217.1416,-110.6129 213.0535,-120.3873 222.3447,-115.2957 217.1416,-110.6129"/>
</g>
<!-- Node12 -->
<g id="node12" class="node">
<title>Node12</title>
<g id="a_node12"><a xlink:href="classlocomotor_1_1components_1_1types_1_1_c_tree.html" target="_top" xlink:title="CTree">
<polygon fill="#ffffff" stroke="#000000" points="309.1436,-60.5 309.1436,-78.5 352.5605,-78.5 352.5605,-60.5 309.1436,-60.5"/>
<text text-anchor="middle" x="330.8521" y="-66.5" font-family="Helvetica,sans-Serif" font-size="10.00" fill="#000000">CTree</text>
</a>
</g>
</g>
<!-- Node1&#45;&gt;Node12 -->
<g id="edge11" class="edge">
<title>Node1&#45;&gt;Node12</title>
<path fill="none" stroke="#191970" d="M233.3135,-115.9469C257.3548,-104.4987 291.1082,-88.4257 311.9481,-78.5019"/>
<polygon fill="#191970" stroke="#191970" points="231.5126,-112.9279 223.9887,-120.3873 234.5221,-119.2479 231.5126,-112.9279"/>
</g>
<!-- Node2 -->
<g id="node2" class="node">
<title>Node2</title>
<g id="a_node2"><a xlink:href="interfacelocomotor_1_1components_1_1types_1_1_c_comparable_type.html" target="_top" xlink:title="CComparableType">
<polygon fill="#ffffff" stroke="#000000" points="94.1626,-175.5 94.1626,-193.5 193.5415,-193.5 193.5415,-175.5 94.1626,-175.5"/>
<text text-anchor="middle" x="143.8521" y="-181.5" font-family="Helvetica,sans-Serif" font-size="10.00" fill="#000000">CComparableType</text>
</a>
</g>
</g>
<!-- Node2&#45;&gt;Node1 -->
<g id="edge1" class="edge">
<title>Node2&#45;&gt;Node1</title>
<path fill="none" stroke="#191970" d="M161.5042,-168.5841C172.2251,-158.9177 185.5376,-146.9147 194.5603,-138.7795"/>
<polygon fill="#191970" stroke="#191970" points="159.0081,-166.122 153.925,-175.4179 163.6956,-171.3209 159.0081,-166.122"/>
</g>
<!-- Node3 -->
<g id="node3" class="node">
<title>Node3</title>
<g id="a_node3"><a xlink:href="interfacelocomotor_1_1components_1_1types_1_1_c_type.html" target="_top" xlink:title="CType">
<polygon fill="#ffffff" stroke="#000000" points="121.3989,-230.5 121.3989,-248.5 166.3052,-248.5 166.3052,-230.5 121.3989,-230.5"/>
<text text-anchor="middle" x="143.8521" y="-236.5" font-family="Helvetica,sans-Serif" font-size="10.00" fill="#000000">CType</text>
</a>
</g>
</g>
<!-- Node3&#45;&gt;Node2 -->
<g id="edge2" class="edge">
<title>Node3&#45;&gt;Node2</title>
<path fill="none" stroke="#191970" d="M143.8521,-220.383C143.8521,-211.3738 143.8521,-201.0373 143.8521,-193.7795"/>
<polygon fill="#191970" stroke="#191970" points="140.3522,-220.4178 143.8521,-230.4179 147.3522,-220.4179 140.3522,-220.4178"/>
</g>
<!-- Node4 -->
<g id="node4" class="node">
<title>Node4</title>
<g id="a_node4"><a xlink:href="interfacelocomotor_1_1components_1_1_j_s_o_n_convertissable.html" target="_top" xlink:title="JSONConvertissable">
<polygon fill="#ffffff" stroke="#000000" points="211.4458,-175.5 211.4458,-193.5 320.2583,-193.5 320.2583,-175.5 211.4458,-175.5"/>
<text text-anchor="middle" x="265.8521" y="-181.5" font-family="Helvetica,sans-Serif" font-size="10.00" fill="#000000">JSONConvertissable</text>
</a>
</g>
</g>
<!-- Node4&#45;&gt;Node1 -->
<g id="edge3" class="edge">
<title>Node4&#45;&gt;Node1</title>
<path fill="none" stroke="#191970" d="M248.1999,-168.5841C237.479,-158.9177 224.1665,-146.9147 215.1438,-138.7795"/>
<polygon fill="#191970" stroke="#191970" points="246.0085,-171.3209 255.7791,-175.4179 250.696,-166.122 246.0085,-171.3209"/>
</g>
<!-- Node7 -->
<g id="node7" class="node">
<title>Node7</title>
<g id="a_node7"><a xlink:href="classlocomotor_1_1components_1_1types_1_1_c_interval_double.html" target="_top" xlink:title="CIntervalDouble">
<polygon fill="#ffffff" stroke="#000000" points="0,-.5 0,-18.5 87.7041,-18.5 87.7041,-.5 0,-.5"/>
<text text-anchor="middle" x="43.8521" y="-6.5" font-family="Helvetica,sans-Serif" font-size="10.00" fill="#000000">CIntervalDouble</text>
</a>
</g>
</g>
<!-- Node6&#45;&gt;Node7 -->
<g id="edge6" class="edge">
<title>Node6&#45;&gt;Node7</title>
<path fill="none" stroke="#191970" d="M116.814,-50.4132C97.8597,-39.7847 75.132,-27.0402 60.1358,-18.6311"/>
<polygon fill="#191970" stroke="#191970" points="115.3311,-53.5944 125.7653,-55.4327 118.7549,-47.4888 115.3311,-53.5944"/>
</g>
<!-- Node8 -->
<g id="node8" class="node">
<title>Node8</title>
<g id="a_node8"><a xlink:href="classlocomotor_1_1components_1_1types_1_1_c_interval_integer.html" target="_top" xlink:title="CIntervalInteger">
<polygon fill="#ffffff" stroke="#000000" points="105.2783,-.5 105.2783,-18.5 192.4258,-18.5 192.4258,-.5 105.2783,-.5"/>
<text text-anchor="middle" x="148.8521" y="-6.5" font-family="Helvetica,sans-Serif" font-size="10.00" fill="#000000">CIntervalInteger</text>
</a>
</g>
</g>
<!-- Node6&#45;&gt;Node8 -->
<g id="edge7" class="edge">
<title>Node6&#45;&gt;Node8</title>
<path fill="none" stroke="#191970" d="M150.0426,-45.2151C149.7296,-35.8253 149.3907,-25.6598 149.1549,-18.5842"/>
<polygon fill="#191970" stroke="#191970" points="146.5468,-45.403 150.3781,-55.2808 153.5429,-45.1698 146.5468,-45.403"/>
</g>
<!-- Node10 -->
<g id="node10" class="node">
<title>Node10</title>
<g id="a_node10"><a xlink:href="classlocomotor_1_1components_1_1types_1_1_c_mapped_string_list.html" target="_top" xlink:title="CMappedStringList">
<polygon fill="#ffffff" stroke="#000000" points="210.3301,-.5 210.3301,-18.5 311.374,-18.5 311.374,-.5 210.3301,-.5"/>
<text text-anchor="middle" x="260.8521" y="-6.5" font-family="Helvetica,sans-Serif" font-size="10.00" fill="#000000">CMappedStringList</text>
</a>
</g>
</g>
<!-- Node9&#45;&gt;Node10 -->
<g id="edge9" class="edge">
<title>Node9&#45;&gt;Node10</title>
<path fill="none" stroke="#191970" d="M259.4896,-50.3734C259.8427,-39.7812 260.2655,-27.0976 260.5454,-18.6985"/>
<polygon fill="#191970" stroke="#191970" points="255.991,-50.2762 259.1558,-60.3873 262.9871,-50.5095 255.991,-50.2762"/>
</g>
<!-- Node11 -->
<g id="node11" class="node">
<title>Node11</title>
<g id="a_node11"><a xlink:href="classlocomotor_1_1components_1_1types_1_1_c_weighted_string_list.html" target="_top" xlink:title="CWeightedStringList">
<polygon fill="#ffffff" stroke="#000000" points="329.3638,-.5 329.3638,-18.5 436.3403,-18.5 436.3403,-.5 329.3638,-.5"/>
<text text-anchor="middle" x="382.8521" y="-6.5" font-family="Helvetica,sans-Serif" font-size="10.00" fill="#000000">CWeightedStringList</text>
</a>
</g>
</g>
<!-- Node9&#45;&gt;Node11 -->
<g id="edge10" class="edge">
<title>Node9&#45;&gt;Node11</title>
<path fill="none" stroke="#191970" d="M286.8618,-55.9469C310.5214,-44.4987 343.739,-28.4257 364.2482,-18.5019"/>
<polygon fill="#191970" stroke="#191970" points="285.1621,-52.8811 277.685,-60.3873 288.2111,-59.1822 285.1621,-52.8811"/>
</g>
</g>
</svg>
