<?xml version="1.0" encoding="UTF-8" standalone="no"?>
<!DOCTYPE svg PUBLIC "-//W3C//DTD SVG 1.1//EN"
 "http://www.w3.org/Graphics/SVG/1.1/DTD/svg11.dtd">
<!-- Generated by graphviz version 2.40.1 (20161225.0304)
 -->
<!-- Title: compare Pages: 1 -->
<svg width="1278pt" height="37pt"
 viewBox="0.00 0.00 1277.60 37.00" xmlns="http://www.w3.org/2000/svg" xmlns:xlink="http://www.w3.org/1999/xlink">
<g id="graph0" class="graph" transform="scale(1 1) rotate(0) translate(4 33)">
<title>compare</title>
<polygon fill="#ffffff" stroke="transparent" points="-4,4 -4,-33 1273.6016,-33 1273.6016,4 -4,4"/>
<!-- Node1 -->
<g id="node1" class="node">
<title>Node1</title>
<polygon fill="#bfbfbf" stroke="#000000" points="0,-5.5 0,-23.5 54.9063,-23.5 54.9063,-5.5 0,-5.5"/>
<text text-anchor="middle" x="27.4531" y="-11.5" font-family="Helvetica,sans-Serif" font-size="10.00" fill="#000000">compare</text>
</g>
<!-- Node2 -->
<g id="node2" class="node">
<title>Node2</title>
<g id="a_node2"><a xlink:href="classlocomotor_1_1core_1_1_comparator.html#a686a6117a0c0951d6b70fb883b2b5937" target="_top" xlink:title="locomotor.core.Comparator.compute\lGradeOfCriteria">
<polygon fill="#ffffff" stroke="#000000" points="90.9063,-.5 90.9063,-28.5 268.6592,-28.5 268.6592,-.5 90.9063,-.5"/>
<text text-anchor="start" x="98.9063" y="-16.5" font-family="Helvetica,sans-Serif" font-size="10.00" fill="#000000">locomotor.core.Comparator.compute</text>
<text text-anchor="middle" x="179.7827" y="-6.5" font-family="Helvetica,sans-Serif" font-size="10.00" fill="#000000">GradeOfCriteria</text>
</a>
</g>
</g>
<!-- Node1&#45;&gt;Node2 -->
<g id="edge1" class="edge">
<title>Node1&#45;&gt;Node2</title>
<path fill="none" stroke="#191970" d="M65.0522,-14.5C73.0395,-14.5 81.7955,-14.5 90.7975,-14.5"/>
<polygon fill="#191970" stroke="#191970" points="65.0389,-11.0001 55.0389,-14.5 65.0388,-18.0001 65.0389,-11.0001"/>
</g>
<!-- Node3 -->
<g id="node3" class="node">
<title>Node3</title>
<g id="a_node3"><a xlink:href="classlocomotor_1_1core_1_1_comparator.html#a3f526c90b5b3a645974bbb81e30d3c74" target="_top" xlink:title="locomotor.core.Comparator.compute\lGradeOfCategory">
<polygon fill="#ffffff" stroke="#000000" points="304.6592,-.5 304.6592,-28.5 482.4121,-28.5 482.4121,-.5 304.6592,-.5"/>
<text text-anchor="start" x="312.6592" y="-16.5" font-family="Helvetica,sans-Serif" font-size="10.00" fill="#000000">locomotor.core.Comparator.compute</text>
<text text-anchor="middle" x="393.5356" y="-6.5" font-family="Helvetica,sans-Serif" font-size="10.00" fill="#000000">GradeOfCategory</text>
</a>
</g>
</g>
<!-- Node2&#45;&gt;Node3 -->
<g id="edge2" class="edge">
<title>Node2&#45;&gt;Node3</title>
<path fill="none" stroke="#191970" d="M278.8981,-14.5C287.4649,-14.5 296.0985,-14.5 304.5773,-14.5"/>
<polygon fill="#191970" stroke="#191970" points="278.8854,-11.0001 268.8854,-14.5 278.8853,-18.0001 278.8854,-11.0001"/>
</g>
<!-- Node4 -->
<g id="node4" class="node">
<title>Node4</title>
<g id="a_node4"><a xlink:href="classlocomotor_1_1core_1_1_comparator.html#a589b06b817cbbc74ceb4812d0ba6c245" target="_top" xlink:title="locomotor.core.Comparator.compute\lGradeOfItem">
<polygon fill="#ffffff" stroke="#000000" points="518.4121,-.5 518.4121,-28.5 696.165,-28.5 696.165,-.5 518.4121,-.5"/>
<text text-anchor="start" x="526.4121" y="-16.5" font-family="Helvetica,sans-Serif" font-size="10.00" fill="#000000">locomotor.core.Comparator.compute</text>
<text text-anchor="middle" x="607.2886" y="-6.5" font-family="Helvetica,sans-Serif" font-size="10.00" fill="#000000">GradeOfItem</text>
</a>
</g>
</g>
<!-- Node3&#45;&gt;Node4 -->
<g id="edge3" class="edge">
<title>Node3&#45;&gt;Node4</title>
<path fill="none" stroke="#191970" d="M492.651,-14.5C501.2178,-14.5 509.8515,-14.5 518.3302,-14.5"/>
<polygon fill="#191970" stroke="#191970" points="492.6383,-11.0001 482.6383,-14.5 492.6383,-18.0001 492.6383,-11.0001"/>
</g>
<!-- Node5 -->
<g id="node5" class="node">
<title>Node5</title>
<g id="a_node5"><a xlink:href="classlocomotor_1_1core_1_1_comparator.html#a092fb76ad264eeccd8f30eadb70e36e3" target="_top" xlink:title="locomotor.core.Comparator.compute\lGradeOfItems">
<polygon fill="#ffffff" stroke="#000000" points="732.165,-.5 732.165,-28.5 909.918,-28.5 909.918,-.5 732.165,-.5"/>
<text text-anchor="start" x="740.165" y="-16.5" font-family="Helvetica,sans-Serif" font-size="10.00" fill="#000000">locomotor.core.Comparator.compute</text>
<text text-anchor="middle" x="821.0415" y="-6.5" font-family="Helvetica,sans-Serif" font-size="10.00" fill="#000000">GradeOfItems</text>
</a>
</g>
</g>
<!-- Node4&#45;&gt;Node5 -->
<g id="edge4" class="edge">
<title>Node4&#45;&gt;Node5</title>
<path fill="none" stroke="#191970" d="M706.4039,-14.5C714.9707,-14.5 723.6044,-14.5 732.0832,-14.5"/>
<polygon fill="#191970" stroke="#191970" points="706.3913,-11.0001 696.3912,-14.5 706.3912,-18.0001 706.3913,-11.0001"/>
</g>
<!-- Node6 -->
<g id="node6" class="node">
<title>Node6</title>
<g id="a_node6"><a xlink:href="classlocomotor_1_1components_1_1network_1_1_a_p_i.html#a547463fbc7fb7b485886f0917e2c0b78" target="_top" xlink:title="locomotor.components.network.\lAPI.createHooks">
<polygon fill="#ffffff" stroke="#000000" points="945.918,-.5 945.918,-28.5 1103.1045,-28.5 1103.1045,-.5 945.918,-.5"/>
<text text-anchor="start" x="953.918" y="-16.5" font-family="Helvetica,sans-Serif" font-size="10.00" fill="#000000">locomotor.components.network.</text>
<text text-anchor="middle" x="1024.5112" y="-6.5" font-family="Helvetica,sans-Serif" font-size="10.00" fill="#000000">API.createHooks</text>
</a>
</g>
</g>
<!-- Node5&#45;&gt;Node6 -->
<g id="edge5" class="edge">
<title>Node5&#45;&gt;Node6</title>
<path fill="none" stroke="#191970" d="M920.0467,-14.5C928.6359,-14.5 937.2511,-14.5 945.6472,-14.5"/>
<polygon fill="#191970" stroke="#191970" points="919.9903,-11.0001 909.9903,-14.5 919.9903,-18.0001 919.9903,-11.0001"/>
</g>
<!-- Node7 -->
<g id="node7" class="node">
<title>Node7</title>
<g id="a_node7"><a xlink:href="classlocomotor_1_1core_1_1_main.html#a8b260eecbaabcef8473fd87ada040682" target="_top" xlink:title="locomotor.core.Main.main">
<polygon fill="#ffffff" stroke="#000000" points="1139.1045,-5.5 1139.1045,-23.5 1269.6016,-23.5 1269.6016,-5.5 1139.1045,-5.5"/>
<text text-anchor="middle" x="1204.353" y="-11.5" font-family="Helvetica,sans-Serif" font-size="10.00" fill="#000000">locomotor.core.Main.main</text>
</a>
</g>
</g>
<!-- Node6&#45;&gt;Node7 -->
<g id="edge6" class="edge">
<title>Node6&#45;&gt;Node7</title>
<path fill="none" stroke="#191970" d="M1113.3043,-14.5C1121.9926,-14.5 1130.6949,-14.5 1139.0868,-14.5"/>
<polygon fill="#191970" stroke="#191970" points="1113.1309,-11.0001 1103.1308,-14.5 1113.1308,-18.0001 1113.1309,-11.0001"/>
</g>
</g>
</svg>
