<?xml version="1.0" encoding="UTF-8" standalone="no"?>
<!DOCTYPE svg PUBLIC "-//W3C//DTD SVG 1.1//EN"
 "http://www.w3.org/Graphics/SVG/1.1/DTD/svg11.dtd">
<!-- Generated by graphviz version 2.40.1 (20161225.0304)
 -->
<!-- Title: CUniverseType Pages: 1 -->
<svg width="627pt" height="202pt"
 viewBox="0.00 0.00 627.45 202.00" xmlns="http://www.w3.org/2000/svg" xmlns:xlink="http://www.w3.org/1999/xlink">
<g id="graph0" class="graph" transform="scale(1 1) rotate(0) translate(4 198)">
<title>CUniverseType</title>
<polygon fill="#ffffff" stroke="transparent" points="-4,4 -4,-198 623.4487,-198 623.4487,4 -4,4"/>
<!-- Node1 -->
<g id="node1" class="node">
<title>Node1</title>
<polygon fill="#bfbfbf" stroke="#000000" points="181.7783,-120.5 181.7783,-138.5 266.1426,-138.5 266.1426,-120.5 181.7783,-120.5"/>
<text text-anchor="middle" x="223.9604" y="-126.5" font-family="Helvetica,sans-Serif" font-size="10.00" fill="#000000">CUniverseType</text>
</g>
<!-- Node4 -->
<g id="node4" class="node">
<title>Node4</title>
<g id="a_node4"><a xlink:href="classlocomotor_1_1components_1_1types_1_1_c_boolean.html" target="_top" xlink:title="CBoolean">
<polygon fill="#ffffff" stroke="#000000" points="0,-60.5 0,-78.5 59.9209,-78.5 59.9209,-60.5 0,-60.5"/>
<text text-anchor="middle" x="29.9604" y="-66.5" font-family="Helvetica,sans-Serif" font-size="10.00" fill="#000000">CBoolean</text>
</a>
</g>
</g>
<!-- Node1&#45;&gt;Node4 -->
<g id="edge3" class="edge">
<title>Node1&#45;&gt;Node4</title>
<path fill="none" stroke="#191970" d="M181.0891,-117.7917C149.8298,-109.0422 106.5452,-96.4862 68.9604,-84 63.8876,-82.3147 58.4887,-80.3922 53.3762,-78.5103"/>
<polygon fill="#191970" stroke="#191970" points="180.2209,-121.183 190.7932,-120.4937 182.0986,-114.4395 180.2209,-121.183"/>
</g>
<!-- Node5 -->
<g id="node5" class="node">
<title>Node5</title>
<g id="a_node5"><a xlink:href="classlocomotor_1_1components_1_1types_1_1_c_graph_string_list.html" target="_top" xlink:title="CGraphStringList">
<polygon fill="#ffffff" stroke="#000000" points="77.6108,-60.5 77.6108,-78.5 170.3101,-78.5 170.3101,-60.5 77.6108,-60.5"/>
<text text-anchor="middle" x="123.9604" y="-66.5" font-family="Helvetica,sans-Serif" font-size="10.00" fill="#000000">CGraphStringList</text>
</a>
</g>
</g>
<!-- Node1&#45;&gt;Node5 -->
<g id="edge4" class="edge">
<title>Node1&#45;&gt;Node5</title>
<path fill="none" stroke="#191970" d="M200.0887,-115.177C181.1061,-103.7874 155.1357,-88.2051 138.9636,-78.5019"/>
<polygon fill="#191970" stroke="#191970" points="198.3969,-118.2435 208.7726,-120.3873 201.9984,-112.2411 198.3969,-118.2435"/>
</g>
<!-- Node6 -->
<g id="node6" class="node">
<title>Node6</title>
<g id="a_node6"><a xlink:href="classlocomotor_1_1components_1_1types_1_1_c_graph_tree.html" target="_top" xlink:title="CGraphTree">
<polygon fill="#ffffff" stroke="#000000" points="188.3555,-60.5 188.3555,-78.5 259.5654,-78.5 259.5654,-60.5 188.3555,-60.5"/>
<text text-anchor="middle" x="223.9604" y="-66.5" font-family="Helvetica,sans-Serif" font-size="10.00" fill="#000000">CGraphTree</text>
</a>
</g>
</g>
<!-- Node1&#45;&gt;Node6 -->
<g id="edge5" class="edge">
<title>Node1&#45;&gt;Node6</title>
<path fill="none" stroke="#191970" d="M223.9604,-110.3734C223.9604,-99.7812 223.9604,-87.0976 223.9604,-78.6985"/>
<polygon fill="#191970" stroke="#191970" points="220.4605,-110.3873 223.9604,-120.3873 227.4605,-110.3873 220.4605,-110.3873"/>
</g>
<!-- Node7 -->
<g id="node7" class="node">
<title>Node7</title>
<g id="a_node7"><a xlink:href="classlocomotor_1_1components_1_1types_1_1_c_interval.html" target="_top" xlink:title="CInterval\&lt; T extends\l Number \&gt;">
<polygon fill="#ffffff" stroke="#000000" points="277.8643,-55.5 277.8643,-83.5 386.0566,-83.5 386.0566,-55.5 277.8643,-55.5"/>
<text text-anchor="start" x="285.8643" y="-71.5" font-family="Helvetica,sans-Serif" font-size="10.00" fill="#000000">CInterval&lt; T extends</text>
<text text-anchor="middle" x="331.9604" y="-61.5" font-family="Helvetica,sans-Serif" font-size="10.00" fill="#000000"> Number &gt;</text>
</a>
</g>
</g>
<!-- Node1&#45;&gt;Node7 -->
<g id="edge6" class="edge">
<title>Node1&#45;&gt;Node7</title>
<path fill="none" stroke="#191970" d="M249.31,-115.4169C266.5555,-105.8361 289.2886,-93.2066 306.5475,-83.6183"/>
<polygon fill="#191970" stroke="#191970" points="247.4051,-112.4713 240.3633,-120.3873 250.8047,-118.5904 247.4051,-112.4713"/>
</g>
<!-- Node10 -->
<g id="node10" class="node">
<title>Node10</title>
<g id="a_node10"><a xlink:href="classlocomotor_1_1components_1_1types_1_1_c_string_list.html" target="_top" xlink:title="CStringList">
<polygon fill="#ffffff" stroke="#000000" points="411.5073,-60.5 411.5073,-78.5 476.4136,-78.5 476.4136,-60.5 411.5073,-60.5"/>
<text text-anchor="middle" x="443.9604" y="-66.5" font-family="Helvetica,sans-Serif" font-size="10.00" fill="#000000">CStringList</text>
</a>
</g>
</g>
<!-- Node1&#45;&gt;Node10 -->
<g id="edge9" class="edge">
<title>Node1&#45;&gt;Node10</title>
<path fill="none" stroke="#191970" d="M268.8708,-117.9126C303.4139,-108.9124 352.295,-95.9865 394.9604,-84 401.1099,-82.2724 407.6763,-80.3695 413.9386,-78.5267"/>
<polygon fill="#191970" stroke="#191970" points="267.8775,-114.5544 259.0801,-120.4584 269.6391,-121.3291 267.8775,-114.5544"/>
</g>
<!-- Node2 -->
<g id="node2" class="node">
<title>Node2</title>
<g id="a_node2"><a xlink:href="interfacelocomotor_1_1components_1_1types_1_1_c_type.html" target="_top" xlink:title="CType">
<polygon fill="#ffffff" stroke="#000000" points="157.5073,-175.5 157.5073,-193.5 202.4136,-193.5 202.4136,-175.5 157.5073,-175.5"/>
<text text-anchor="middle" x="179.9604" y="-181.5" font-family="Helvetica,sans-Serif" font-size="10.00" fill="#000000">CType</text>
</a>
</g>
</g>
<!-- Node2&#45;&gt;Node1 -->
<g id="edge1" class="edge">
<title>Node2&#45;&gt;Node1</title>
<path fill="none" stroke="#191970" d="M193.6112,-167.4365C201.1746,-157.9823 210.2839,-146.5956 216.5369,-138.7795"/>
<polygon fill="#191970" stroke="#191970" points="190.7401,-165.4227 187.2262,-175.4179 196.2062,-169.7956 190.7401,-165.4227"/>
</g>
<!-- Node3 -->
<g id="node3" class="node">
<title>Node3</title>
<g id="a_node3"><a xlink:href="interfacelocomotor_1_1components_1_1_j_s_o_n_displayable.html" target="_top" xlink:title="JSONDisplayable">
<polygon fill="#ffffff" stroke="#000000" points="220.7783,-175.5 220.7783,-193.5 315.1426,-193.5 315.1426,-175.5 220.7783,-175.5"/>
<text text-anchor="middle" x="267.9604" y="-181.5" font-family="Helvetica,sans-Serif" font-size="10.00" fill="#000000">JSONDisplayable</text>
</a>
</g>
</g>
<!-- Node3&#45;&gt;Node1 -->
<g id="edge2" class="edge">
<title>Node3&#45;&gt;Node1</title>
<path fill="none" stroke="#191970" d="M254.3097,-167.4365C246.7463,-157.9823 237.637,-146.5956 231.384,-138.7795"/>
<polygon fill="#191970" stroke="#191970" points="251.7147,-169.7956 260.6947,-175.4179 257.1808,-165.4227 251.7147,-169.7956"/>
</g>
<!-- Node8 -->
<g id="node8" class="node">
<title>Node8</title>
<g id="a_node8"><a xlink:href="classlocomotor_1_1components_1_1types_1_1_c_interval_double.html" target="_top" xlink:title="CIntervalDouble">
<polygon fill="#ffffff" stroke="#000000" points="183.1084,-.5 183.1084,-18.5 270.8125,-18.5 270.8125,-.5 183.1084,-.5"/>
<text text-anchor="middle" x="226.9604" y="-6.5" font-family="Helvetica,sans-Serif" font-size="10.00" fill="#000000">CIntervalDouble</text>
</a>
</g>
</g>
<!-- Node7&#45;&gt;Node8 -->
<g id="edge7" class="edge">
<title>Node7&#45;&gt;Node8</title>
<path fill="none" stroke="#191970" d="M298.5586,-50.4132C279.9586,-39.7847 257.6557,-27.0402 242.9398,-18.6311"/>
<polygon fill="#191970" stroke="#191970" points="296.9237,-53.5101 307.3426,-55.4327 300.3967,-47.4324 296.9237,-53.5101"/>
</g>
<!-- Node9 -->
<g id="node9" class="node">
<title>Node9</title>
<g id="a_node9"><a xlink:href="classlocomotor_1_1components_1_1types_1_1_c_interval_integer.html" target="_top" xlink:title="CIntervalInteger">
<polygon fill="#ffffff" stroke="#000000" points="288.3867,-.5 288.3867,-18.5 375.5342,-18.5 375.5342,-.5 288.3867,-.5"/>
<text text-anchor="middle" x="331.9604" y="-6.5" font-family="Helvetica,sans-Serif" font-size="10.00" fill="#000000">CIntervalInteger</text>
</a>
</g>
</g>
<!-- Node7&#45;&gt;Node9 -->
<g id="edge8" class="edge">
<title>Node7&#45;&gt;Node9</title>
<path fill="none" stroke="#191970" d="M331.9604,-45.2151C331.9604,-35.8253 331.9604,-25.6598 331.9604,-18.5842"/>
<polygon fill="#191970" stroke="#191970" points="328.4605,-45.2808 331.9604,-55.2808 335.4605,-45.2809 328.4605,-45.2808"/>
</g>
<!-- Node11 -->
<g id="node11" class="node">
<title>Node11</title>
<g id="a_node11"><a xlink:href="classlocomotor_1_1components_1_1types_1_1_c_mapped_string_list.html" target="_top" xlink:title="CMappedStringList">
<polygon fill="#ffffff" stroke="#000000" points="393.4385,-.5 393.4385,-18.5 494.4824,-18.5 494.4824,-.5 393.4385,-.5"/>
<text text-anchor="middle" x="443.9604" y="-6.5" font-family="Helvetica,sans-Serif" font-size="10.00" fill="#000000">CMappedStringList</text>
</a>
</g>
</g>
<!-- Node10&#45;&gt;Node11 -->
<g id="edge10" class="edge">
<title>Node10&#45;&gt;Node11</title>
<path fill="none" stroke="#191970" d="M443.9604,-50.3734C443.9604,-39.7812 443.9604,-27.0976 443.9604,-18.6985"/>
<polygon fill="#191970" stroke="#191970" points="440.4605,-50.3873 443.9604,-60.3873 447.4605,-50.3873 440.4605,-50.3873"/>
</g>
<!-- Node12 -->
<g id="node12" class="node">
<title>Node12</title>
<g id="a_node12"><a xlink:href="classlocomotor_1_1components_1_1types_1_1_c_weighted_string_list.html" target="_top" xlink:title="CWeightedStringList">
<polygon fill="#ffffff" stroke="#000000" points="512.4722,-.5 512.4722,-18.5 619.4487,-18.5 619.4487,-.5 512.4722,-.5"/>
<text text-anchor="middle" x="565.9604" y="-6.5" font-family="Helvetica,sans-Serif" font-size="10.00" fill="#000000">CWeightedStringList</text>
</a>
</g>
</g>
<!-- Node10&#45;&gt;Node12 -->
<g id="edge11" class="edge">
<title>Node10&#45;&gt;Node12</title>
<path fill="none" stroke="#191970" d="M471.5184,-55.9469C494.7965,-44.4987 527.4783,-28.4257 547.6566,-18.5019"/>
<polygon fill="#191970" stroke="#191970" points="469.9185,-52.8333 462.4896,-60.3873 473.0078,-59.1148 469.9185,-52.8333"/>
</g>
</g>
</svg>
