<?xml version="1.0" encoding="UTF-8" standalone="no"?>
<!DOCTYPE svg PUBLIC "-//W3C//DTD SVG 1.1//EN"
 "http://www.w3.org/Graphics/SVG/1.1/DTD/svg11.dtd">
<!-- Generated by graphviz version 2.40.1 (20161225.0304)
 -->
<!-- Title: CUserType Pages: 1 -->
<svg width="234pt" height="137pt"
 viewBox="0.00 0.00 234.10 137.00" xmlns="http://www.w3.org/2000/svg" xmlns:xlink="http://www.w3.org/1999/xlink">
<g id="graph0" class="graph" transform="scale(1 1) rotate(0) translate(4 133)">
<title>CUserType</title>
<polygon fill="#ffffff" stroke="transparent" points="-4,4 -4,-133 230.0957,-133 230.0957,4 -4,4"/>
<!-- Node1 -->
<g id="node1" class="node">
<title>Node1</title>
<polygon fill="#bfbfbf" stroke="#000000" points="77.6797,-.5 77.6797,-18.5 143.6992,-18.5 143.6992,-.5 77.6797,-.5"/>
<text text-anchor="middle" x="110.6895" y="-6.5" font-family="Helvetica,sans-Serif" font-size="10.00" fill="#000000">CUserType</text>
</g>
<!-- Node2 -->
<g id="node2" class="node">
<title>Node2</title>
<g id="a_node2"><a xlink:href="interfacelocomotor_1_1components_1_1types_1_1_c_comparable_type.html" target="_top" xlink:title="CComparableType">
<polygon fill="#ffffff" stroke="#000000" points="0,-55.5 0,-73.5 99.3789,-73.5 99.3789,-55.5 0,-55.5"/>
<text text-anchor="middle" x="49.6895" y="-61.5" font-family="Helvetica,sans-Serif" font-size="10.00" fill="#000000">CComparableType</text>
</a>
</g>
</g>
<!-- Node2&#45;&gt;Node1 -->
<g id="edge1" class="edge">
<title>Node2&#45;&gt;Node1</title>
<path fill="none" stroke="#191970" d="M67.3416,-48.5841C78.0625,-38.9177 91.375,-26.9147 100.3977,-18.7795"/>
<polygon fill="#191970" stroke="#191970" points="64.8455,-46.122 59.7624,-55.4179 69.533,-51.3209 64.8455,-46.122"/>
</g>
<!-- Node3 -->
<g id="node3" class="node">
<title>Node3</title>
<g id="a_node3"><a xlink:href="interfacelocomotor_1_1components_1_1types_1_1_c_type.html" target="_top" xlink:title="CType">
<polygon fill="#ffffff" stroke="#000000" points="27.2363,-110.5 27.2363,-128.5 72.1426,-128.5 72.1426,-110.5 27.2363,-110.5"/>
<text text-anchor="middle" x="49.6895" y="-116.5" font-family="Helvetica,sans-Serif" font-size="10.00" fill="#000000">CType</text>
</a>
</g>
</g>
<!-- Node3&#45;&gt;Node2 -->
<g id="edge2" class="edge">
<title>Node3&#45;&gt;Node2</title>
<path fill="none" stroke="#191970" d="M49.6895,-100.383C49.6895,-91.3738 49.6895,-81.0373 49.6895,-73.7795"/>
<polygon fill="#191970" stroke="#191970" points="46.1896,-100.4178 49.6895,-110.4179 53.1896,-100.4179 46.1896,-100.4178"/>
</g>
<!-- Node4 -->
<g id="node4" class="node">
<title>Node4</title>
<g id="a_node4"><a xlink:href="interfacelocomotor_1_1components_1_1_j_s_o_n_convertissable.html" target="_top" xlink:title="JSONConvertissable">
<polygon fill="#ffffff" stroke="#000000" points="117.2832,-55.5 117.2832,-73.5 226.0957,-73.5 226.0957,-55.5 117.2832,-55.5"/>
<text text-anchor="middle" x="171.6895" y="-61.5" font-family="Helvetica,sans-Serif" font-size="10.00" fill="#000000">JSONConvertissable</text>
</a>
</g>
</g>
<!-- Node4&#45;&gt;Node1 -->
<g id="edge3" class="edge">
<title>Node4&#45;&gt;Node1</title>
<path fill="none" stroke="#191970" d="M154.0373,-48.5841C143.3164,-38.9177 130.0039,-26.9147 120.9812,-18.7795"/>
<polygon fill="#191970" stroke="#191970" points="151.8459,-51.3209 161.6165,-55.4179 156.5334,-46.122 151.8459,-51.3209"/>
</g>
</g>
</svg>
