<?xml version="1.0" encoding="UTF-8" standalone="no"?>
<!DOCTYPE svg PUBLIC "-//W3C//DTD SVG 1.1//EN"
 "http://www.w3.org/Graphics/SVG/1.1/DTD/svg11.dtd">
<!-- Generated by graphviz version 2.40.1 (20161225.0304)
 -->
<!-- Title: CItemType Pages: 1 -->
<!--zoomable 275 -->
<svg id="main" version="1.1" xmlns="http://www.w3.org/2000/svg" xmlns:xlink="http://www.w3.org/1999/xlink" xml:space="preserve" onload="init(evt)">
<style type="text/css"><![CDATA[
.edge:hover path { stroke: red; }
.edge:hover polygon { stroke: red; fill: red; }
]]></style>
<script type="text/javascript"><![CDATA[
var edges = document.getElementsByTagName('g');
if (edges && edges.length) {
  for (var i=0;i<edges.length;i++) {
    if (edges[i].id.substr(0,4)=='edge') {
      edges[i].setAttribute('class','edge');
    }
  }
}
]]></script>
        <defs>
                <circle id="rim" cx="0" cy="0" r="7"/>
                <circle id="rim2" cx="0" cy="0" r="3.5"/>
                <g id="zoomPlus">
                        <use xlink:href="#rim" fill="#404040">
                                <set attributeName="fill" to="#808080" begin="zoomplus.mouseover" end="zoomplus.mouseout"/>
                        </use>
                        <path d="M-4,0h8M0,-4v8" fill="none" stroke="white" stroke-width="1.5" pointer-events="none"/>
                </g>
                <g id="zoomMin">
                        <use xlink:href="#rim" fill="#404040">
                                <set attributeName="fill" to="#808080" begin="zoomminus.mouseover" end="zoomminus.mouseout"/>
                        </use>
                        <path d="M-4,0h8" fill="none" stroke="white" stroke-width="1.5" pointer-events="none"/>
                </g>
                <g id="dirArrow">
                        <path fill="none" stroke="white" stroke-width="1.5" d="M0,-3.0v7 M-2.5,-0.5L0,-3.0L2.5,-0.5"/>
                </g>
               <g id="resetDef">
                       <use xlink:href="#rim2" fill="#404040">
                               <set attributeName="fill" to="#808080" begin="reset.mouseover" end="reset.mouseout"/>
                       </use>
               </g>
        </defs>

<script type="text/javascript">
var viewWidth = 585;
var viewHeight = 275;
var sectionId = 'dynsection-0';
</script>
<script xlink:href="svgpan.js"/>
<svg id="graph" class="graph">
<g id="viewport">
<title>CItemType</title>
<polygon fill="#ffffff" stroke="transparent" points="-4,4 -4,-271 581.2422,-271 581.2422,4 -4,4"/>
<!-- Node1 -->
<g id="node1" class="node">
<title>Node1</title>
<polygon fill="#bfbfbf" stroke="#000000" points="225.7188,-132.5 225.7188,-150.5 290.0732,-150.5 290.0732,-132.5 225.7188,-132.5"/>
<text text-anchor="middle" x="257.896" y="-138.5" font-family="Helvetica,sans-Serif" font-size="10.00" fill="#000000">CItemType</text>
</g>
<!-- Node6 -->
<g id="node6" class="node">
<title>Node6</title>
<g id="a_node6"><a xlink:href="classlocomotor_1_1components_1_1types_1_1_c_boolean.html" target="_top" xlink:title="CBoolean">
<polygon fill="#ffffff" stroke="#000000" points="350.209,-248.5 350.209,-266.5 410.1299,-266.5 410.1299,-248.5 350.209,-248.5"/>
<text text-anchor="middle" x="380.1694" y="-254.5" font-family="Helvetica,sans-Serif" font-size="10.00" fill="#000000">CBoolean</text>
</a>
</g>
</g>
<!-- Node1&#45;&gt;Node6 -->
<g id="edge5" class="edge">
<title>Node1&#45;&gt;Node6</title>
<path fill="none" stroke="#191970" d="M266.0793,-159.7447C276.8227,-181.7095 297.7017,-218.2837 326.0732,-239.5 333.128,-244.7756 341.8159,-248.5586 350.1486,-251.2491"/>
<polygon fill="#191970" stroke="#191970" points="269.1687,-158.0893 261.7481,-150.5272 262.8332,-161.0664 269.1687,-158.0893"/>
</g>
<!-- Node7 -->
<g id="node7" class="node">
<title>Node7</title>
<g id="a_node7"><a xlink:href="classlocomotor_1_1components_1_1types_1_1_c_float.html" target="_top" xlink:title="CFloat">
<polygon fill="#ffffff" stroke="#000000" points="357.4429,-211.5 357.4429,-229.5 402.896,-229.5 402.896,-211.5 357.4429,-211.5"/>
<text text-anchor="middle" x="380.1694" y="-217.5" font-family="Helvetica,sans-Serif" font-size="10.00" fill="#000000">CFloat</text>
</a>
</g>
</g>
<!-- Node1&#45;&gt;Node7 -->
<g id="edge6" class="edge">
<title>Node1&#45;&gt;Node7</title>
<path fill="none" stroke="#191970" d="M272.9258,-158.3221C285.8483,-171.8952 305.5935,-190.6225 326.0732,-202.5 335.6629,-208.0616 347.2159,-212.2022 357.1789,-215.1005"/>
<polygon fill="#191970" stroke="#191970" points="275.1784,-155.6034 265.8158,-150.6443 270.0424,-160.3596 275.1784,-155.6034"/>
</g>
<!-- Node8 -->
<g id="node8" class="node">
<title>Node8</title>
<g id="a_node8"><a xlink:href="classlocomotor_1_1components_1_1types_1_1_c_integer_list.html" target="_top" xlink:title="CIntegerList">
<polygon fill="#ffffff" stroke="#000000" points="345.2114,-174.5 345.2114,-192.5 415.1274,-192.5 415.1274,-174.5 345.2114,-174.5"/>
<text text-anchor="middle" x="380.1694" y="-180.5" font-family="Helvetica,sans-Serif" font-size="10.00" fill="#000000">CIntegerList</text>
</a>
</g>
</g>
<!-- Node1&#45;&gt;Node8 -->
<g id="edge7" class="edge">
<title>Node1&#45;&gt;Node8</title>
<path fill="none" stroke="#191970" d="M293.7201,-153.8053C312.8642,-160.3812 336.0297,-168.3383 353.5602,-174.3599"/>
<polygon fill="#191970" stroke="#191970" points="294.7214,-150.4486 284.1267,-150.5101 292.4473,-157.0689 294.7214,-150.4486"/>
</g>
<!-- Node9 -->
<g id="node9" class="node">
<title>Node9</title>
<g id="a_node9"><a xlink:href="classlocomotor_1_1components_1_1types_1_1_c_interval.html" target="_top" xlink:title="CInterval\&lt; T extends\l Number \&gt;">
<polygon fill="#ffffff" stroke="#000000" points="326.0732,-127.5 326.0732,-155.5 434.2656,-155.5 434.2656,-127.5 326.0732,-127.5"/>
<text text-anchor="start" x="334.0732" y="-143.5" font-family="Helvetica,sans-Serif" font-size="10.00" fill="#000000">CInterval&lt; T extends</text>
<text text-anchor="middle" x="380.1694" y="-133.5" font-family="Helvetica,sans-Serif" font-size="10.00" fill="#000000"> Number &gt;</text>
</a>
</g>
</g>
<!-- Node1&#45;&gt;Node9 -->
<g id="edge8" class="edge">
<title>Node1&#45;&gt;Node9</title>
<path fill="none" stroke="#191970" d="M300.411,-141.5C308.6087,-141.5 317.3001,-141.5 325.8139,-141.5"/>
<polygon fill="#191970" stroke="#191970" points="300.342,-138.0001 290.342,-141.5 300.342,-145.0001 300.342,-138.0001"/>
</g>
<!-- Node12 -->
<g id="node12" class="node">
<title>Node12</title>
<g id="a_node12"><a xlink:href="classlocomotor_1_1components_1_1types_1_1_c_long.html" target="_top" xlink:title="CLong">
<polygon fill="#ffffff" stroke="#000000" points="357.4355,-90.5 357.4355,-108.5 402.9033,-108.5 402.9033,-90.5 357.4355,-90.5"/>
<text text-anchor="middle" x="380.1694" y="-96.5" font-family="Helvetica,sans-Serif" font-size="10.00" fill="#000000">CLong</text>
</a>
</g>
</g>
<!-- Node1&#45;&gt;Node12 -->
<g id="edge11" class="edge">
<title>Node1&#45;&gt;Node12</title>
<path fill="none" stroke="#191970" d="M293.1778,-128.9497C303.7438,-125.2264 315.3673,-121.1652 326.0732,-117.5 336.2804,-114.0055 347.6026,-110.2236 357.2399,-107.0325"/>
<polygon fill="#191970" stroke="#191970" points="291.6986,-125.7602 283.436,-132.392 294.0308,-132.3603 291.6986,-125.7602"/>
</g>
<!-- Node15 -->
<g id="node15" class="node">
<title>Node15</title>
<g id="a_node15"><a xlink:href="classlocomotor_1_1components_1_1types_1_1_c_string_list.html" target="_top" xlink:title="CStringList">
<polygon fill="#ffffff" stroke="#000000" points="347.7163,-37.5 347.7163,-55.5 412.6226,-55.5 412.6226,-37.5 347.7163,-37.5"/>
<text text-anchor="middle" x="380.1694" y="-43.5" font-family="Helvetica,sans-Serif" font-size="10.00" fill="#000000">CStringList</text>
</a>
</g>
</g>
<!-- Node1&#45;&gt;Node15 -->
<g id="edge14" class="edge">
<title>Node1&#45;&gt;Node15</title>
<path fill="none" stroke="#191970" d="M274.6507,-125.0524C288.0472,-112.2679 307.5822,-94.4263 326.0732,-80.5 338.3011,-71.2907 353.0655,-62.1302 364.0785,-55.642"/>
<polygon fill="#191970" stroke="#191970" points="271.9294,-122.8147 267.1669,-132.2788 276.7918,-127.8503 271.9294,-122.8147"/>
</g>
<!-- Node18 -->
<g id="node18" class="node">
<title>Node18</title>
<g id="a_node18"><a xlink:href="classlocomotor_1_1components_1_1types_1_1_c_tree.html" target="_top" xlink:title="CTree">
<polygon fill="#ffffff" stroke="#000000" points="358.4609,-.5 358.4609,-18.5 401.8779,-18.5 401.8779,-.5 358.4609,-.5"/>
<text text-anchor="middle" x="380.1694" y="-6.5" font-family="Helvetica,sans-Serif" font-size="10.00" fill="#000000">CTree</text>
</a>
</g>
</g>
<!-- Node1&#45;&gt;Node18 -->
<g id="edge17" class="edge">
<title>Node1&#45;&gt;Node18</title>
<path fill="none" stroke="#191970" d="M264.3141,-122.8258C273.8954,-97.643 294.2901,-53.0192 326.0732,-27.5 335.3349,-20.0637 347.8001,-15.6439 358.4305,-13.0465"/>
<polygon fill="#191970" stroke="#191970" points="260.9915,-121.7217 260.8682,-132.3158 267.5711,-124.1108 260.9915,-121.7217"/>
</g>
<!-- Node2 -->
<g id="node2" class="node">
<title>Node2</title>
<g id="a_node2"><a xlink:href="interfacelocomotor_1_1components_1_1types_1_1_c_comparable_type.html" target="_top" xlink:title="CComparableType">
<polygon fill="#ffffff" stroke="#000000" points="85.623,-169.5 85.623,-187.5 185.002,-187.5 185.002,-169.5 85.623,-169.5"/>
<text text-anchor="middle" x="135.3125" y="-175.5" font-family="Helvetica,sans-Serif" font-size="10.00" fill="#000000">CComparableType</text>
</a>
</g>
</g>
<!-- Node2&#45;&gt;Node1 -->
<g id="edge1" class="edge">
<title>Node2&#45;&gt;Node1</title>
<path fill="none" stroke="#191970" d="M175.0438,-166.5077C192.1811,-161.3351 211.8955,-155.3845 227.7934,-150.586"/>
<polygon fill="#191970" stroke="#191970" points="173.8618,-163.2084 165.2998,-169.4488 175.8846,-169.9098 173.8618,-163.2084"/>
</g>
<!-- Node3 -->
<g id="node3" class="node">
<title>Node3</title>
<g id="a_node3"><a xlink:href="interfacelocomotor_1_1components_1_1types_1_1_c_type.html" target="_top" xlink:title="CType">
<polygon fill="#ffffff" stroke="#000000" points="0,-169.5 0,-187.5 44.9063,-187.5 44.9063,-169.5 0,-169.5"/>
<text text-anchor="middle" x="22.4531" y="-175.5" font-family="Helvetica,sans-Serif" font-size="10.00" fill="#000000">CType</text>
</a>
</g>
</g>
<!-- Node3&#45;&gt;Node2 -->
<g id="edge2" class="edge">
<title>Node3&#45;&gt;Node2</title>
<path fill="none" stroke="#191970" d="M55.1233,-178.5C64.5423,-178.5 75.0418,-178.5 85.2588,-178.5"/>
<polygon fill="#191970" stroke="#191970" points="55.0207,-175.0001 45.0207,-178.5 55.0206,-182.0001 55.0207,-175.0001"/>
</g>
<!-- Node4 -->
<g id="node4" class="node">
<title>Node4</title>
<g id="a_node4"><a xlink:href="interfacelocomotor_1_1components_1_1_j_s_o_n_displayable.html" target="_top" xlink:title="JSONDisplayable">
<polygon fill="#ffffff" stroke="#000000" points="88.1304,-132.5 88.1304,-150.5 182.4946,-150.5 182.4946,-132.5 88.1304,-132.5"/>
<text text-anchor="middle" x="135.3125" y="-138.5" font-family="Helvetica,sans-Serif" font-size="10.00" fill="#000000">JSONDisplayable</text>
</a>
</g>
</g>
<!-- Node4&#45;&gt;Node1 -->
<g id="edge3" class="edge">
<title>Node4&#45;&gt;Node1</title>
<path fill="none" stroke="#191970" d="M192.8816,-141.5C204.0585,-141.5 215.4011,-141.5 225.4154,-141.5"/>
<polygon fill="#191970" stroke="#191970" points="192.7065,-138.0001 182.7065,-141.5 192.7064,-145.0001 192.7065,-138.0001"/>
</g>
<!-- Node5 -->
<g id="node5" class="node">
<title>Node5</title>
<g id="a_node5"><a xlink:href="interfacelocomotor_1_1components_1_1_j_s_o_n_convertissable.html" target="_top" xlink:title="JSONConvertissable">
<polygon fill="#ffffff" stroke="#000000" points="80.9063,-95.5 80.9063,-113.5 189.7188,-113.5 189.7188,-95.5 80.9063,-95.5"/>
<text text-anchor="middle" x="135.3125" y="-101.5" font-family="Helvetica,sans-Serif" font-size="10.00" fill="#000000">JSONConvertissable</text>
</a>
</g>
</g>
<!-- Node5&#45;&gt;Node1 -->
<g id="edge4" class="edge">
<title>Node5&#45;&gt;Node1</title>
<path fill="none" stroke="#191970" d="M175.0438,-116.4923C192.1811,-121.6649 211.8955,-127.6155 227.7934,-132.414"/>
<polygon fill="#191970" stroke="#191970" points="175.8846,-113.0902 165.2998,-113.5512 173.8618,-119.7916 175.8846,-113.0902"/>
</g>
<!-- Node10 -->
<g id="node10" class="node">
<title>Node10</title>
<g id="a_node10"><a xlink:href="classlocomotor_1_1components_1_1types_1_1_c_interval_double.html" target="_top" xlink:title="CIntervalDouble">
<polygon fill="#ffffff" stroke="#000000" points="479.9019,-185.5 479.9019,-203.5 567.606,-203.5 567.606,-185.5 479.9019,-185.5"/>
<text text-anchor="middle" x="523.7539" y="-191.5" font-family="Helvetica,sans-Serif" font-size="10.00" fill="#000000">CIntervalDouble</text>
</a>
</g>
</g>
<!-- Node9&#45;&gt;Node10 -->
<g id="edge9" class="edge">
<title>Node9&#45;&gt;Node10</title>
<path fill="none" stroke="#191970" d="M426.4023,-159.145C440.466,-164.4591 455.9799,-170.2678 470.2656,-175.5 479.2415,-178.7875 489.0947,-182.3115 497.8716,-185.4208"/>
<polygon fill="#191970" stroke="#191970" points="427.5219,-155.8265 416.9305,-155.5582 425.0429,-162.3729 427.5219,-155.8265"/>
</g>
<!-- Node11 -->
<g id="node11" class="node">
<title>Node11</title>
<g id="a_node11"><a xlink:href="classlocomotor_1_1components_1_1types_1_1_c_interval_integer.html" target="_top" xlink:title="CIntervalInteger">
<polygon fill="#ffffff" stroke="#000000" points="480.1802,-148.5 480.1802,-166.5 567.3276,-166.5 567.3276,-148.5 480.1802,-148.5"/>
<text text-anchor="middle" x="523.7539" y="-154.5" font-family="Helvetica,sans-Serif" font-size="10.00" fill="#000000">CIntervalInteger</text>
</a>
</g>
</g>
<!-- Node9&#45;&gt;Node11 -->
<g id="edge10" class="edge">
<title>Node9&#45;&gt;Node11</title>
<path fill="none" stroke="#191970" d="M444.4821,-148.6665C456.5378,-150.0099 468.8778,-151.385 480.1226,-152.638"/>
<polygon fill="#191970" stroke="#191970" points="444.7787,-145.178 434.4526,-147.5489 444.0034,-152.1349 444.7787,-145.178"/>
</g>
<!-- Node13 -->
<g id="node13" class="node">
<title>Node13</title>
<g id="a_node13"><a xlink:href="classlocomotor_1_1components_1_1types_1_1_c_integer.html" target="_top" xlink:title="CInteger">
<polygon fill="#ffffff" stroke="#000000" points="496.5767,-111.5 496.5767,-129.5 550.9312,-129.5 550.9312,-111.5 496.5767,-111.5"/>
<text text-anchor="middle" x="523.7539" y="-117.5" font-family="Helvetica,sans-Serif" font-size="10.00" fill="#000000">CInteger</text>
</a>
</g>
</g>
<!-- Node12&#45;&gt;Node13 -->
<g id="edge12" class="edge">
<title>Node12&#45;&gt;Node13</title>
<path fill="none" stroke="#191970" d="M413.1162,-104.3186C438.3489,-108.0091 472.742,-113.0392 496.4505,-116.5067"/>
<polygon fill="#191970" stroke="#191970" points="413.3221,-100.8116 402.9208,-102.8275 412.309,-107.7379 413.3221,-100.8116"/>
</g>
<!-- Node14 -->
<g id="node14" class="node">
<title>Node14</title>
<g id="a_node14"><a xlink:href="classlocomotor_1_1components_1_1types_1_1_c_weighted_integer.html" target="_top" xlink:title="CWeightedInteger">
<polygon fill="#ffffff" stroke="#000000" points="475.5415,-74.5 475.5415,-92.5 571.9663,-92.5 571.9663,-74.5 475.5415,-74.5"/>
<text text-anchor="middle" x="523.7539" y="-80.5" font-family="Helvetica,sans-Serif" font-size="10.00" fill="#000000">CWeightedInteger</text>
</a>
</g>
</g>
<!-- Node12&#45;&gt;Node14 -->
<g id="edge13" class="edge">
<title>Node12&#45;&gt;Node14</title>
<path fill="none" stroke="#191970" d="M412.8774,-95.8553C431.3198,-93.8002 454.7118,-91.1935 475.2515,-88.9048"/>
<polygon fill="#191970" stroke="#191970" points="412.4717,-92.3787 402.9208,-96.9648 413.247,-99.3357 412.4717,-92.3787"/>
</g>
<!-- Node16 -->
<g id="node16" class="node">
<title>Node16</title>
<g id="a_node16"><a xlink:href="classlocomotor_1_1components_1_1types_1_1_c_mapped_string_list.html" target="_top" xlink:title="CMappedStringList">
<polygon fill="#ffffff" stroke="#000000" points="473.2319,-37.5 473.2319,-55.5 574.2759,-55.5 574.2759,-37.5 473.2319,-37.5"/>
<text text-anchor="middle" x="523.7539" y="-43.5" font-family="Helvetica,sans-Serif" font-size="10.00" fill="#000000">CMappedStringList</text>
</a>
</g>
</g>
<!-- Node15&#45;&gt;Node16 -->
<g id="edge15" class="edge">
<title>Node15&#45;&gt;Node16</title>
<path fill="none" stroke="#191970" d="M423.1998,-46.5C438.8646,-46.5 456.7182,-46.5 472.9909,-46.5"/>
<polygon fill="#191970" stroke="#191970" points="422.751,-43.0001 412.751,-46.5 422.7509,-50.0001 422.751,-43.0001"/>
</g>
<!-- Node17 -->
<g id="node17" class="node">
<title>Node17</title>
<g id="a_node17"><a xlink:href="classlocomotor_1_1components_1_1types_1_1_c_weighted_string_list.html" target="_top" xlink:title="CWeightedStringList">
<polygon fill="#ffffff" stroke="#000000" points="470.2656,-.5 470.2656,-18.5 577.2422,-18.5 577.2422,-.5 470.2656,-.5"/>
<text text-anchor="middle" x="523.7539" y="-6.5" font-family="Helvetica,sans-Serif" font-size="10.00" fill="#000000">CWeightedStringList</text>
</a>
</g>
</g>
<!-- Node15&#45;&gt;Node17 -->
<g id="edge16" class="edge">
<title>Node15&#45;&gt;Node17</title>
<path fill="none" stroke="#191970" d="M422.7213,-35.5349C443.7759,-30.1094 468.8772,-23.6411 488.7927,-18.5091"/>
<polygon fill="#191970" stroke="#191970" points="421.5612,-32.2194 412.751,-38.1041 423.308,-38.998 421.5612,-32.2194"/>
</g>
</g>
</svg>
        <g id="navigator" transform="translate(0 0)" fill="#404254">
                <rect fill="#f2f5e9" fill-opacity="0.5" stroke="#606060" stroke-width=".5" x="0" y="0" width="60" height="60"/>
                <use id="zoomplus" xlink:href="#zoomPlus" x="17" y="9" onmousedown="handleZoom(evt,'in')"/>
                <use id="zoomminus" xlink:href="#zoomMin" x="42" y="9" onmousedown="handleZoom(evt,'out')"/>
                <use id="reset" xlink:href="#resetDef" x="30" y="36" onmousedown="handleReset()"/>
                <g id="arrowUp" xlink:href="#dirArrow" transform="translate(30 24)" onmousedown="handlePan(0,-1)">
                  <use xlink:href="#rim" fill="#404040">
                        <set attributeName="fill" to="#808080" begin="arrowUp.mouseover" end="arrowUp.mouseout"/>
                  </use>
                  <path fill="none" stroke="white" stroke-width="1.5" d="M0,-3.0v7 M-2.5,-0.5L0,-3.0L2.5,-0.5"/>
                </g>
                <g id="arrowRight" xlink:href="#dirArrow" transform="rotate(90) translate(36 -43)" onmousedown="handlePan(1,0)">
                  <use xlink:href="#rim" fill="#404040">
                        <set attributeName="fill" to="#808080" begin="arrowRight.mouseover" end="arrowRight.mouseout"/>
                  </use>
                  <path fill="none" stroke="white" stroke-width="1.5" d="M0,-3.0v7 M-2.5,-0.5L0,-3.0L2.5,-0.5"/>
                </g>
                <g id="arrowDown" xlink:href="#dirArrow" transform="rotate(180) translate(-30 -48)" onmousedown="handlePan(0,1)">
                  <use xlink:href="#rim" fill="#404040">
                        <set attributeName="fill" to="#808080" begin="arrowDown.mouseover" end="arrowDown.mouseout"/>
                  </use>
                  <path fill="none" stroke="white" stroke-width="1.5" d="M0,-3.0v7 M-2.5,-0.5L0,-3.0L2.5,-0.5"/>
                </g>
                <g id="arrowLeft" xlink:href="#dirArrow" transform="rotate(270) translate(-36 17)" onmousedown="handlePan(-1,0)">
                  <use xlink:href="#rim" fill="#404040">
                        <set attributeName="fill" to="#808080" begin="arrowLeft.mouseover" end="arrowLeft.mouseout"/>
                  </use>
                  <path fill="none" stroke="white" stroke-width="1.5" d="M0,-3.0v7 M-2.5,-0.5L0,-3.0L2.5,-0.5"/>
                </g>
        </g>
        <svg viewBox="0 0 15 15" width="100%" height="30px" preserveAspectRatio="xMaxYMin meet">
         <g id="arrow_out" transform="scale(0.3 0.3)">
          <a xlink:href="interfacelocomotor_1_1components_1_1types_1_1_c_item_type__inherit__graph_org.svg" target="_base">
           <rect id="button" ry="5" rx="5" y="6" x="6" height="38" width="38"
                fill="#f2f5e9" fill-opacity="0.5" stroke="#606060" stroke-width="1.0"/>
           <path id="arrow"
             d="M 11.500037,31.436501 C 11.940474,20.09759 22.043105,11.32322 32.158766,21.979434 L 37.068811,17.246167 C 37.068811,17.246167 37.088388,32 37.088388,32 L 22.160133,31.978069 C 22.160133,31.978069 26.997745,27.140456 26.997745,27.140456 C 18.528582,18.264221 13.291696,25.230495 11.500037,31.436501 z"
             style="fill:#404040;"/>
          </a>
         </g>
        </svg>
</svg>
