<?xml version="1.0" encoding="UTF-8" standalone="no"?>
<!DOCTYPE svg PUBLIC "-//W3C//DTD SVG 1.1//EN"
 "http://www.w3.org/Graphics/SVG/1.1/DTD/svg11.dtd">
<!-- Generated by graphviz version 2.40.1 (20161225.0304)
 -->
<!-- Title: CComparableType Pages: 1 -->
<svg width="577pt" height="312pt"
 viewBox="0.00 0.00 577.47 312.00" xmlns="http://www.w3.org/2000/svg" xmlns:xlink="http://www.w3.org/1999/xlink">
<g id="graph0" class="graph" transform="scale(1 1) rotate(0) translate(4 308)">
<title>CComparableType</title>
<polygon fill="#ffffff" stroke="transparent" points="-4,4 -4,-308 573.4736,-308 573.4736,4 -4,4"/>
<!-- Node1 -->
<g id="node1" class="node">
<title>Node1</title>
<polygon fill="#bfbfbf" stroke="#000000" points="80.9063,-147.5 80.9063,-165.5 180.2852,-165.5 180.2852,-147.5 80.9063,-147.5"/>
<text text-anchor="middle" x="130.5957" y="-153.5" font-family="Helvetica,sans-Serif" font-size="10.00" fill="#000000">CComparableType</text>
</g>
<!-- Node3 -->
<g id="node3" class="node">
<title>Node3</title>
<g id="a_node3"><a xlink:href="interfacelocomotor_1_1components_1_1types_1_1_c_item_type.html" target="_top" xlink:title="CItemType">
<polygon fill="#ffffff" stroke="#000000" points="217.1177,-129.5 217.1177,-147.5 281.4722,-147.5 281.4722,-129.5 217.1177,-129.5"/>
<text text-anchor="middle" x="249.2949" y="-135.5" font-family="Helvetica,sans-Serif" font-size="10.00" fill="#000000">CItemType</text>
</a>
</g>
</g>
<!-- Node1&#45;&gt;Node3 -->
<g id="edge2" class="edge">
<title>Node1&#45;&gt;Node3</title>
<path fill="none" stroke="#191970" d="M190.7524,-147.3776C199.7827,-146.0082 208.7881,-144.6426 216.9321,-143.4076"/>
<polygon fill="#191970" stroke="#191970" points="189.953,-143.9587 180.5908,-148.9185 191.0026,-150.8796 189.953,-143.9587"/>
</g>
<!-- Node17 -->
<g id="node17" class="node">
<title>Node17</title>
<g id="a_node17"><a xlink:href="interfacelocomotor_1_1components_1_1types_1_1_c_user_type.html" target="_top" xlink:title="CUserType">
<polygon fill="#ffffff" stroke="#000000" points="216.2852,-166.5 216.2852,-184.5 282.3047,-184.5 282.3047,-166.5 216.2852,-166.5"/>
<text text-anchor="middle" x="249.2949" y="-172.5" font-family="Helvetica,sans-Serif" font-size="10.00" fill="#000000">CUserType</text>
</a>
</g>
</g>
<!-- Node1&#45;&gt;Node17 -->
<g id="edge16" class="edge">
<title>Node1&#45;&gt;Node17</title>
<path fill="none" stroke="#191970" d="M190.5421,-166.0955C199.3866,-167.5113 208.2134,-168.9241 216.2367,-170.2084"/>
<polygon fill="#191970" stroke="#191970" points="191.0184,-162.6273 180.5908,-164.5026 189.9119,-169.5393 191.0184,-162.6273"/>
</g>
<!-- Node2 -->
<g id="node2" class="node">
<title>Node2</title>
<g id="a_node2"><a xlink:href="interfacelocomotor_1_1components_1_1types_1_1_c_type.html" target="_top" xlink:title="CType">
<polygon fill="#ffffff" stroke="#000000" points="0,-147.5 0,-165.5 44.9063,-165.5 44.9063,-147.5 0,-147.5"/>
<text text-anchor="middle" x="22.4531" y="-153.5" font-family="Helvetica,sans-Serif" font-size="10.00" fill="#000000">CType</text>
</a>
</g>
</g>
<!-- Node2&#45;&gt;Node1 -->
<g id="edge1" class="edge">
<title>Node2&#45;&gt;Node1</title>
<path fill="none" stroke="#191970" d="M55.2197,-156.5C63.2876,-156.5 72.1087,-156.5 80.7828,-156.5"/>
<polygon fill="#191970" stroke="#191970" points="55.1234,-153.0001 45.1234,-156.5 55.1233,-160.0001 55.1234,-153.0001"/>
</g>
<!-- Node4 -->
<g id="node4" class="node">
<title>Node4</title>
<g id="a_node4"><a xlink:href="classlocomotor_1_1components_1_1types_1_1_c_boolean.html" target="_top" xlink:title="CBoolean">
<polygon fill="#ffffff" stroke="#000000" points="342.4404,-129.5 342.4404,-147.5 402.3613,-147.5 402.3613,-129.5 342.4404,-129.5"/>
<text text-anchor="middle" x="372.4009" y="-135.5" font-family="Helvetica,sans-Serif" font-size="10.00" fill="#000000">CBoolean</text>
</a>
</g>
</g>
<!-- Node3&#45;&gt;Node4 -->
<g id="edge3" class="edge">
<title>Node3&#45;&gt;Node4</title>
<path fill="none" stroke="#191970" d="M291.7064,-138.5C308.3874,-138.5 327.1511,-138.5 342.3842,-138.5"/>
<polygon fill="#191970" stroke="#191970" points="291.6396,-135.0001 281.6396,-138.5 291.6395,-142.0001 291.6396,-135.0001"/>
</g>
<!-- Node5 -->
<g id="node5" class="node">
<title>Node5</title>
<g id="a_node5"><a xlink:href="classlocomotor_1_1components_1_1types_1_1_c_float.html" target="_top" xlink:title="CFloat">
<polygon fill="#ffffff" stroke="#000000" points="349.6743,-92.5 349.6743,-110.5 395.1274,-110.5 395.1274,-92.5 349.6743,-92.5"/>
<text text-anchor="middle" x="372.4009" y="-98.5" font-family="Helvetica,sans-Serif" font-size="10.00" fill="#000000">CFloat</text>
</a>
</g>
</g>
<!-- Node3&#45;&gt;Node5 -->
<g id="edge4" class="edge">
<title>Node3&#45;&gt;Node5</title>
<path fill="none" stroke="#191970" d="M289.1884,-126.5099C309.1658,-120.5056 332.6321,-113.4527 349.5431,-108.37"/>
<polygon fill="#191970" stroke="#191970" points="287.9794,-123.2185 279.41,-129.4488 289.9943,-129.9222 287.9794,-123.2185"/>
</g>
<!-- Node6 -->
<g id="node6" class="node">
<title>Node6</title>
<g id="a_node6"><a xlink:href="classlocomotor_1_1components_1_1types_1_1_c_integer_list.html" target="_top" xlink:title="CIntegerList">
<polygon fill="#ffffff" stroke="#000000" points="337.4429,-55.5 337.4429,-73.5 407.3589,-73.5 407.3589,-55.5 337.4429,-55.5"/>
<text text-anchor="middle" x="372.4009" y="-61.5" font-family="Helvetica,sans-Serif" font-size="10.00" fill="#000000">CIntegerList</text>
</a>
</g>
</g>
<!-- Node3&#45;&gt;Node6 -->
<g id="edge5" class="edge">
<title>Node3&#45;&gt;Node6</title>
<path fill="none" stroke="#191970" d="M265.6963,-122.3018C278.9507,-109.9632 298.5852,-93.3102 318.3047,-82.5 324.7274,-78.9791 331.9571,-75.9897 338.9906,-73.5187"/>
<polygon fill="#191970" stroke="#191970" points="263.143,-119.9004 258.3244,-129.3361 267.9754,-124.9648 263.143,-119.9004"/>
</g>
<!-- Node7 -->
<g id="node7" class="node">
<title>Node7</title>
<g id="a_node7"><a xlink:href="classlocomotor_1_1components_1_1types_1_1_c_interval.html" target="_top" xlink:title="CInterval\&lt; T extends\l Number \&gt;">
<polygon fill="#ffffff" stroke="#000000" points="318.3047,-203.5 318.3047,-231.5 426.4971,-231.5 426.4971,-203.5 318.3047,-203.5"/>
<text text-anchor="start" x="326.3047" y="-219.5" font-family="Helvetica,sans-Serif" font-size="10.00" fill="#000000">CInterval&lt; T extends</text>
<text text-anchor="middle" x="372.4009" y="-209.5" font-family="Helvetica,sans-Serif" font-size="10.00" fill="#000000"> Number &gt;</text>
</a>
</g>
</g>
<!-- Node3&#45;&gt;Node7 -->
<g id="edge6" class="edge">
<title>Node3&#45;&gt;Node7</title>
<path fill="none" stroke="#191970" d="M275.9367,-152.957C278.1426,-154.4157 280.2946,-155.9378 282.3047,-157.5 300.4205,-171.5797 299.3755,-181.5344 318.3047,-194.5 323.1039,-197.7872 328.4478,-200.7508 333.8559,-203.372"/>
<polygon fill="#191970" stroke="#191970" points="277.7039,-149.9351 267.3486,-147.6947 274.0466,-155.9038 277.7039,-149.9351"/>
</g>
<!-- Node10 -->
<g id="node10" class="node">
<title>Node10</title>
<g id="a_node10"><a xlink:href="classlocomotor_1_1components_1_1types_1_1_c_long.html" target="_top" xlink:title="CLong">
<polygon fill="#ffffff" stroke="#000000" points="349.667,-18.5 349.667,-36.5 395.1348,-36.5 395.1348,-18.5 349.667,-18.5"/>
<text text-anchor="middle" x="372.4009" y="-24.5" font-family="Helvetica,sans-Serif" font-size="10.00" fill="#000000">CLong</text>
</a>
</g>
</g>
<!-- Node3&#45;&gt;Node10 -->
<g id="edge9" class="edge">
<title>Node3&#45;&gt;Node10</title>
<path fill="none" stroke="#191970" d="M258.3663,-120.274C269.6671,-99.3493 290.8773,-65.3641 318.3047,-45.5 327.5235,-38.8233 339.3763,-34.5129 349.6362,-31.7901"/>
<polygon fill="#191970" stroke="#191970" points="255.1405,-118.8912 253.6309,-129.3779 261.3506,-122.1214 255.1405,-118.8912"/>
</g>
<!-- Node13 -->
<g id="node13" class="node">
<title>Node13</title>
<g id="a_node13"><a xlink:href="classlocomotor_1_1components_1_1types_1_1_c_string_list.html" target="_top" xlink:title="CStringList">
<polygon fill="#ffffff" stroke="#000000" points="339.9478,-250.5 339.9478,-268.5 404.854,-268.5 404.854,-250.5 339.9478,-250.5"/>
<text text-anchor="middle" x="372.4009" y="-256.5" font-family="Helvetica,sans-Serif" font-size="10.00" fill="#000000">CStringList</text>
</a>
</g>
</g>
<!-- Node3&#45;&gt;Node13 -->
<g id="edge12" class="edge">
<title>Node3&#45;&gt;Node13</title>
<path fill="none" stroke="#191970" d="M278.4618,-153.7323C279.8334,-154.9191 281.1267,-156.175 282.3047,-157.5 309.2914,-187.8561 288.4077,-214.0055 318.3047,-241.5 324.2788,-246.994 331.976,-250.8153 339.6796,-253.4716"/>
<polygon fill="#191970" stroke="#191970" points="280.1799,-150.6583 270.0086,-147.6926 276.1104,-156.3539 280.1799,-150.6583"/>
</g>
<!-- Node16 -->
<g id="node16" class="node">
<title>Node16</title>
<g id="a_node16"><a xlink:href="classlocomotor_1_1components_1_1types_1_1_c_tree.html" target="_top" xlink:title="CTree">
<polygon fill="#ffffff" stroke="#000000" points="350.6924,-166.5 350.6924,-184.5 394.1094,-184.5 394.1094,-166.5 350.6924,-166.5"/>
<text text-anchor="middle" x="372.4009" y="-172.5" font-family="Helvetica,sans-Serif" font-size="10.00" fill="#000000">CTree</text>
</a>
</g>
</g>
<!-- Node3&#45;&gt;Node16 -->
<g id="edge15" class="edge">
<title>Node3&#45;&gt;Node16</title>
<path fill="none" stroke="#191970" d="M289.0444,-150.4469C309.36,-156.5528 333.3146,-163.7525 350.3187,-168.8631"/>
<polygon fill="#191970" stroke="#191970" points="289.9943,-147.0778 279.41,-147.5512 287.9794,-153.7815 289.9943,-147.0778"/>
</g>
<!-- Node8 -->
<g id="node8" class="node">
<title>Node8</title>
<g id="a_node8"><a xlink:href="classlocomotor_1_1components_1_1types_1_1_c_interval_double.html" target="_top" xlink:title="CIntervalDouble">
<polygon fill="#ffffff" stroke="#000000" points="472.1333,-210.5 472.1333,-228.5 559.8374,-228.5 559.8374,-210.5 472.1333,-210.5"/>
<text text-anchor="middle" x="515.9854" y="-216.5" font-family="Helvetica,sans-Serif" font-size="10.00" fill="#000000">CIntervalDouble</text>
</a>
</g>
</g>
<!-- Node7&#45;&gt;Node8 -->
<g id="edge7" class="edge">
<title>Node7&#45;&gt;Node8</title>
<path fill="none" stroke="#191970" d="M436.9649,-218.3993C448.7781,-218.5639 460.8551,-218.7321 471.8989,-218.8859"/>
<polygon fill="#191970" stroke="#191970" points="436.7318,-214.8958 426.684,-218.2561 436.6343,-221.8951 436.7318,-214.8958"/>
</g>
<!-- Node9 -->
<g id="node9" class="node">
<title>Node9</title>
<g id="a_node9"><a xlink:href="classlocomotor_1_1components_1_1types_1_1_c_interval_integer.html" target="_top" xlink:title="CIntervalInteger">
<polygon fill="#ffffff" stroke="#000000" points="472.4116,-173.5 472.4116,-191.5 559.5591,-191.5 559.5591,-173.5 472.4116,-173.5"/>
<text text-anchor="middle" x="515.9854" y="-179.5" font-family="Helvetica,sans-Serif" font-size="10.00" fill="#000000">CIntervalInteger</text>
</a>
</g>
</g>
<!-- Node7&#45;&gt;Node9 -->
<g id="edge8" class="edge">
<title>Node7&#45;&gt;Node9</title>
<path fill="none" stroke="#191970" d="M436.6374,-201.8418C451.1535,-198.3033 466.0863,-194.6633 479.0263,-191.5091"/>
<polygon fill="#191970" stroke="#191970" points="435.5706,-198.4992 426.684,-204.268 437.2285,-205.3001 435.5706,-198.4992"/>
</g>
<!-- Node11 -->
<g id="node11" class="node">
<title>Node11</title>
<g id="a_node11"><a xlink:href="classlocomotor_1_1components_1_1types_1_1_c_integer.html" target="_top" xlink:title="CInteger">
<polygon fill="#ffffff" stroke="#000000" points="488.8081,-37.5 488.8081,-55.5 543.1626,-55.5 543.1626,-37.5 488.8081,-37.5"/>
<text text-anchor="middle" x="515.9854" y="-43.5" font-family="Helvetica,sans-Serif" font-size="10.00" fill="#000000">CInteger</text>
</a>
</g>
</g>
<!-- Node10&#45;&gt;Node11 -->
<g id="edge10" class="edge">
<title>Node10&#45;&gt;Node11</title>
<path fill="none" stroke="#191970" d="M405.3476,-31.8597C430.5803,-35.1987 464.9735,-39.7498 488.6819,-42.887"/>
<polygon fill="#191970" stroke="#191970" points="405.525,-28.3528 395.1523,-30.5106 404.6067,-35.2923 405.525,-28.3528"/>
</g>
<!-- Node12 -->
<g id="node12" class="node">
<title>Node12</title>
<g id="a_node12"><a xlink:href="classlocomotor_1_1components_1_1types_1_1_c_weighted_integer.html" target="_top" xlink:title="CWeightedInteger">
<polygon fill="#ffffff" stroke="#000000" points="467.7729,-.5 467.7729,-18.5 564.1978,-18.5 564.1978,-.5 467.7729,-.5"/>
<text text-anchor="middle" x="515.9854" y="-6.5" font-family="Helvetica,sans-Serif" font-size="10.00" fill="#000000">CWeightedInteger</text>
</a>
</g>
</g>
<!-- Node10&#45;&gt;Node12 -->
<g id="edge11" class="edge">
<title>Node10&#45;&gt;Node12</title>
<path fill="none" stroke="#191970" d="M405.1089,-23.3997C423.5512,-21.0877 446.9432,-18.1552 467.4829,-15.5804"/>
<polygon fill="#191970" stroke="#191970" points="404.6392,-19.9311 395.1523,-24.6478 405.51,-26.8767 404.6392,-19.9311"/>
</g>
<!-- Node14 -->
<g id="node14" class="node">
<title>Node14</title>
<g id="a_node14"><a xlink:href="classlocomotor_1_1components_1_1types_1_1_c_mapped_string_list.html" target="_top" xlink:title="CMappedStringList">
<polygon fill="#ffffff" stroke="#000000" points="465.4634,-285.5 465.4634,-303.5 566.5073,-303.5 566.5073,-285.5 465.4634,-285.5"/>
<text text-anchor="middle" x="515.9854" y="-291.5" font-family="Helvetica,sans-Serif" font-size="10.00" fill="#000000">CMappedStringList</text>
</a>
</g>
</g>
<!-- Node13&#45;&gt;Node14 -->
<g id="edge13" class="edge">
<title>Node13&#45;&gt;Node14</title>
<path fill="none" stroke="#191970" d="M414.9297,-269.8668C435.2738,-274.8258 459.4003,-280.7069 478.9767,-285.4788"/>
<polygon fill="#191970" stroke="#191970" points="415.5269,-266.4099 404.9824,-267.442 413.869,-273.2108 415.5269,-266.4099"/>
</g>
<!-- Node15 -->
<g id="node15" class="node">
<title>Node15</title>
<g id="a_node15"><a xlink:href="classlocomotor_1_1components_1_1types_1_1_c_weighted_string_list.html" target="_top" xlink:title="CWeightedStringList">
<polygon fill="#ffffff" stroke="#000000" points="462.4971,-248.5 462.4971,-266.5 569.4736,-266.5 569.4736,-248.5 462.4971,-248.5"/>
<text text-anchor="middle" x="515.9854" y="-254.5" font-family="Helvetica,sans-Serif" font-size="10.00" fill="#000000">CWeightedStringList</text>
</a>
</g>
</g>
<!-- Node13&#45;&gt;Node15 -->
<g id="edge14" class="edge">
<title>Node13&#45;&gt;Node15</title>
<path fill="none" stroke="#191970" d="M415.3577,-258.9017C430.1438,-258.6957 446.8871,-258.4625 462.4129,-258.2462"/>
<polygon fill="#191970" stroke="#191970" points="414.9327,-255.4071 404.9824,-259.0462 415.0302,-262.4065 414.9327,-255.4071"/>
</g>
<!-- Node17&#45;&gt;Node4 -->
<g id="edge17" class="edge">
<title>Node17&#45;&gt;Node4</title>
<path fill="none" stroke="#191970" d="M289.1956,-163.5077C306.4059,-158.3351 326.2044,-152.3845 342.17,-147.586"/>
<polygon fill="#191970" stroke="#191970" points="287.9794,-160.2185 279.41,-166.4488 289.9943,-166.9222 287.9794,-160.2185"/>
</g>
<!-- Node17&#45;&gt;Node7 -->
<g id="edge18" class="edge">
<title>Node17&#45;&gt;Node7</title>
<path fill="none" stroke="#191970" d="M285.2249,-187.7582C299.57,-192.6523 316.1752,-198.3175 331.0204,-203.3822"/>
<polygon fill="#191970" stroke="#191970" points="286.2987,-184.4265 275.7042,-184.5101 284.0384,-191.0516 286.2987,-184.4265"/>
</g>
<!-- Node17&#45;&gt;Node13 -->
<g id="edge19" class="edge">
<title>Node17&#45;&gt;Node13</title>
<path fill="none" stroke="#191970" d="M263.486,-192.8488C276.4006,-207.6295 296.6996,-228.4857 318.3047,-241.5 324.9179,-245.4837 332.5232,-248.7108 339.9021,-251.2726"/>
<polygon fill="#191970" stroke="#191970" points="265.9222,-190.3104 256.7814,-184.9535 260.5865,-194.8415 265.9222,-190.3104"/>
</g>
<!-- Node17&#45;&gt;Node16 -->
<g id="edge20" class="edge">
<title>Node17&#45;&gt;Node16</title>
<path fill="none" stroke="#191970" d="M292.7953,-175.5C312.2568,-175.5 334.3597,-175.5 350.3287,-175.5"/>
<polygon fill="#191970" stroke="#191970" points="292.6092,-172.0001 282.6092,-175.5 292.6091,-179.0001 292.6092,-172.0001"/>
</g>
</g>
</svg>
