<?xml version="1.0" encoding="UTF-8" standalone="no"?>
<!DOCTYPE svg PUBLIC "-//W3C//DTD SVG 1.1//EN"
 "http://www.w3.org/Graphics/SVG/1.1/DTD/svg11.dtd">
<!-- Generated by graphviz version 2.40.1 (20161225.0304)
 -->
<!-- Title: CType Pages: 1 -->
<!--zoomable 333 -->
<svg id="main" version="1.1" xmlns="http://www.w3.org/2000/svg" xmlns:xlink="http://www.w3.org/1999/xlink" xml:space="preserve" onload="init(evt)">
<style type="text/css"><![CDATA[
.edge:hover path { stroke: red; }
.edge:hover polygon { stroke: red; fill: red; }
]]></style>
<script type="text/javascript"><![CDATA[
var edges = document.getElementsByTagName('g');
if (edges && edges.length) {
  for (var i=0;i<edges.length;i++) {
    if (edges[i].id.substr(0,4)=='edge') {
      edges[i].setAttribute('class','edge');
    }
  }
}
]]></script>
        <defs>
                <circle id="rim" cx="0" cy="0" r="7"/>
                <circle id="rim2" cx="0" cy="0" r="3.5"/>
                <g id="zoomPlus">
                        <use xlink:href="#rim" fill="#404040">
                                <set attributeName="fill" to="#808080" begin="zoomplus.mouseover" end="zoomplus.mouseout"/>
                        </use>
                        <path d="M-4,0h8M0,-4v8" fill="none" stroke="white" stroke-width="1.5" pointer-events="none"/>
                </g>
                <g id="zoomMin">
                        <use xlink:href="#rim" fill="#404040">
                                <set attributeName="fill" to="#808080" begin="zoomminus.mouseover" end="zoomminus.mouseout"/>
                        </use>
                        <path d="M-4,0h8" fill="none" stroke="white" stroke-width="1.5" pointer-events="none"/>
                </g>
                <g id="dirArrow">
                        <path fill="none" stroke="white" stroke-width="1.5" d="M0,-3.0v7 M-2.5,-0.5L0,-3.0L2.5,-0.5"/>
                </g>
               <g id="resetDef">
                       <use xlink:href="#rim2" fill="#404040">
                               <set attributeName="fill" to="#808080" begin="reset.mouseover" end="reset.mouseout"/>
                       </use>
               </g>
        </defs>

<script type="text/javascript">
var viewWidth = 596;
var viewHeight = 333;
var sectionId = 'dynsection-0';
</script>
<script xlink:href="svgpan.js"/>
<svg id="graph" class="graph">
<g id="viewport">
<title>CType</title>
<polygon fill="#ffffff" stroke="transparent" points="-4,4 -4,-329 591.8184,-329 591.8184,4 -4,4"/>
<!-- Node1 -->
<g id="node1" class="node">
<title>Node1</title>
<polygon fill="#bfbfbf" stroke="#000000" points="0,-109.5 0,-127.5 44.9063,-127.5 44.9063,-109.5 0,-109.5"/>
<text text-anchor="middle" x="22.4531" y="-115.5" font-family="Helvetica,sans-Serif" font-size="10.00" fill="#000000">CType</text>
</g>
<!-- Node2 -->
<g id="node2" class="node">
<title>Node2</title>
<g id="a_node2"><a xlink:href="interfacelocomotor_1_1components_1_1types_1_1_c_comparable_type.html" target="_top" xlink:title="CComparableType">
<polygon fill="#ffffff" stroke="#000000" points="80.9063,-130.5 80.9063,-148.5 180.2852,-148.5 180.2852,-130.5 80.9063,-130.5"/>
<text text-anchor="middle" x="130.5957" y="-136.5" font-family="Helvetica,sans-Serif" font-size="10.00" fill="#000000">CComparableType</text>
</a>
</g>
</g>
<!-- Node1&#45;&gt;Node2 -->
<g id="edge1" class="edge">
<title>Node1&#45;&gt;Node2</title>
<path fill="none" stroke="#191970" d="M55.2197,-124.8629C64.2545,-126.6173 74.234,-128.5552 83.8936,-130.431"/>
<polygon fill="#191970" stroke="#191970" points="55.6072,-121.3728 45.1234,-122.9023 54.2728,-128.2445 55.6072,-121.3728"/>
</g>
<!-- Node18 -->
<g id="node18" class="node">
<title>Node18</title>
<g id="a_node18"><a xlink:href="interfacelocomotor_1_1components_1_1types_1_1_c_universe_type.html" target="_top" xlink:title="CUniverseType">
<polygon fill="#ffffff" stroke="#000000" points="216.2852,-80.5 216.2852,-98.5 300.6494,-98.5 300.6494,-80.5 216.2852,-80.5"/>
<text text-anchor="middle" x="258.4673" y="-86.5" font-family="Helvetica,sans-Serif" font-size="10.00" fill="#000000">CUniverseType</text>
</a>
</g>
</g>
<!-- Node1&#45;&gt;Node18 -->
<g id="edge21" class="edge">
<title>Node1&#45;&gt;Node18</title>
<path fill="none" stroke="#191970" d="M55.0426,-114.4956C96.9825,-109.3423 169.9303,-100.3789 216.1258,-94.7027"/>
<polygon fill="#191970" stroke="#191970" points="54.5816,-111.0258 45.0832,-115.7194 55.4354,-117.9736 54.5816,-111.0258"/>
</g>
<!-- Node3 -->
<g id="node3" class="node">
<title>Node3</title>
<g id="a_node3"><a xlink:href="interfacelocomotor_1_1components_1_1types_1_1_c_item_type.html" target="_top" xlink:title="CItemType">
<polygon fill="#ffffff" stroke="#000000" points="226.29,-185.5 226.29,-203.5 290.6445,-203.5 290.6445,-185.5 226.29,-185.5"/>
<text text-anchor="middle" x="258.4673" y="-191.5" font-family="Helvetica,sans-Serif" font-size="10.00" fill="#000000">CItemType</text>
</a>
</g>
</g>
<!-- Node2&#45;&gt;Node3 -->
<g id="edge2" class="edge">
<title>Node2&#45;&gt;Node3</title>
<path fill="none" stroke="#191970" d="M160.9053,-152.5367C184.4453,-162.6617 216.4857,-176.4429 237.3205,-185.4044"/>
<polygon fill="#191970" stroke="#191970" points="162.2803,-149.3182 151.7111,-148.5821 159.5145,-155.7486 162.2803,-149.3182"/>
</g>
<!-- Node17 -->
<g id="node17" class="node">
<title>Node17</title>
<g id="a_node17"><a xlink:href="interfacelocomotor_1_1components_1_1types_1_1_c_user_type.html" target="_top" xlink:title="CUserType">
<polygon fill="#ffffff" stroke="#000000" points="225.4575,-130.5 225.4575,-148.5 291.4771,-148.5 291.4771,-130.5 225.4575,-130.5"/>
<text text-anchor="middle" x="258.4673" y="-136.5" font-family="Helvetica,sans-Serif" font-size="10.00" fill="#000000">CUserType</text>
</a>
</g>
</g>
<!-- Node2&#45;&gt;Node17 -->
<g id="edge16" class="edge">
<title>Node2&#45;&gt;Node17</title>
<path fill="none" stroke="#191970" d="M190.7276,-139.5C202.5772,-139.5 214.6017,-139.5 225.1653,-139.5"/>
<polygon fill="#191970" stroke="#191970" points="190.4004,-136.0001 180.4003,-139.5 190.4003,-143.0001 190.4004,-136.0001"/>
</g>
<!-- Node4 -->
<g id="node4" class="node">
<title>Node4</title>
<g id="a_node4"><a xlink:href="classlocomotor_1_1components_1_1types_1_1_c_boolean.html" target="_top" xlink:title="CBoolean">
<polygon fill="#ffffff" stroke="#000000" points="360.7852,-158.5 360.7852,-176.5 420.7061,-176.5 420.7061,-158.5 360.7852,-158.5"/>
<text text-anchor="middle" x="390.7456" y="-164.5" font-family="Helvetica,sans-Serif" font-size="10.00" fill="#000000">CBoolean</text>
</a>
</g>
</g>
<!-- Node3&#45;&gt;Node4 -->
<g id="edge3" class="edge">
<title>Node3&#45;&gt;Node4</title>
<path fill="none" stroke="#191970" d="M300.6727,-185.8852C320.1419,-181.9113 342.8094,-177.2845 360.5343,-173.6666"/>
<polygon fill="#191970" stroke="#191970" points="299.9242,-182.4658 290.8262,-187.8951 301.3242,-189.3244 299.9242,-182.4658"/>
</g>
<!-- Node5 -->
<g id="node5" class="node">
<title>Node5</title>
<g id="a_node5"><a xlink:href="classlocomotor_1_1components_1_1types_1_1_c_float.html" target="_top" xlink:title="CFloat">
<polygon fill="#ffffff" stroke="#000000" points="368.019,-306.5 368.019,-324.5 413.4722,-324.5 413.4722,-306.5 368.019,-306.5"/>
<text text-anchor="middle" x="390.7456" y="-312.5" font-family="Helvetica,sans-Serif" font-size="10.00" fill="#000000">CFloat</text>
</a>
</g>
</g>
<!-- Node3&#45;&gt;Node5 -->
<g id="edge4" class="edge">
<title>Node3&#45;&gt;Node5</title>
<path fill="none" stroke="#191970" d="M267.7587,-212.6923C280.3695,-235.6437 305.0073,-274.8448 336.6494,-297.5 345.9044,-304.1264 357.7609,-308.4318 368.0139,-311.1642"/>
<polygon fill="#191970" stroke="#191970" points="270.7508,-210.8642 262.9666,-203.6769 264.5698,-214.1498 270.7508,-210.8642"/>
</g>
<!-- Node6 -->
<g id="node6" class="node">
<title>Node6</title>
<g id="a_node6"><a xlink:href="classlocomotor_1_1components_1_1types_1_1_c_integer_list.html" target="_top" xlink:title="CIntegerList">
<polygon fill="#ffffff" stroke="#000000" points="355.7876,-269.5 355.7876,-287.5 425.7036,-287.5 425.7036,-269.5 355.7876,-269.5"/>
<text text-anchor="middle" x="390.7456" y="-275.5" font-family="Helvetica,sans-Serif" font-size="10.00" fill="#000000">CIntegerList</text>
</a>
</g>
</g>
<!-- Node3&#45;&gt;Node6 -->
<g id="edge5" class="edge">
<title>Node3&#45;&gt;Node6</title>
<path fill="none" stroke="#191970" d="M274.576,-211.3362C289.478,-226.0726 312.8587,-247.1561 336.6494,-260.5 342.9513,-264.0347 350.058,-267.0171 356.998,-269.4749"/>
<polygon fill="#191970" stroke="#191970" points="276.7387,-208.5453 267.2206,-203.8917 271.7593,-213.4652 276.7387,-208.5453"/>
</g>
<!-- Node7 -->
<g id="node7" class="node">
<title>Node7</title>
<g id="a_node7"><a xlink:href="classlocomotor_1_1components_1_1types_1_1_c_interval.html" target="_top" xlink:title="CInterval\&lt; T extends\l Number \&gt;">
<polygon fill="#ffffff" stroke="#000000" points="336.6494,-74.5 336.6494,-102.5 444.8418,-102.5 444.8418,-74.5 336.6494,-74.5"/>
<text text-anchor="start" x="344.6494" y="-90.5" font-family="Helvetica,sans-Serif" font-size="10.00" fill="#000000">CInterval&lt; T extends</text>
<text text-anchor="middle" x="390.7456" y="-80.5" font-family="Helvetica,sans-Serif" font-size="10.00" fill="#000000"> Number &gt;</text>
</a>
</g>
</g>
<!-- Node3&#45;&gt;Node7 -->
<g id="edge6" class="edge">
<title>Node3&#45;&gt;Node7</title>
<path fill="none" stroke="#191970" d="M278.1656,-178.5525C285.5018,-172.2762 293.7226,-164.826 300.6494,-157.5 318.4855,-138.636 316.0513,-127.3017 336.6494,-111.5 341.0219,-108.1457 345.9567,-105.1831 351.0221,-102.5963"/>
<polygon fill="#191970" stroke="#191970" points="275.5176,-176.2043 270.0904,-185.3035 280.0074,-181.5748 275.5176,-176.2043"/>
</g>
<!-- Node10 -->
<g id="node10" class="node">
<title>Node10</title>
<g id="a_node10"><a xlink:href="classlocomotor_1_1components_1_1types_1_1_c_long.html" target="_top" xlink:title="CLong">
<polygon fill="#ffffff" stroke="#000000" points="368.0117,-232.5 368.0117,-250.5 413.4795,-250.5 413.4795,-232.5 368.0117,-232.5"/>
<text text-anchor="middle" x="390.7456" y="-238.5" font-family="Helvetica,sans-Serif" font-size="10.00" fill="#000000">CLong</text>
</a>
</g>
</g>
<!-- Node3&#45;&gt;Node10 -->
<g id="edge9" class="edge">
<title>Node3&#45;&gt;Node10</title>
<path fill="none" stroke="#191970" d="M293.2411,-207.0054C306.7826,-211.8617 322.4349,-217.4584 336.6494,-222.5 346.8753,-226.1269 358.2003,-230.1098 367.8346,-233.488"/>
<polygon fill="#191970" stroke="#191970" points="294.3991,-203.7025 283.8046,-203.6187 292.0344,-210.291 294.3991,-203.7025"/>
</g>
<!-- Node13 -->
<g id="node13" class="node">
<title>Node13</title>
<g id="a_node13"><a xlink:href="classlocomotor_1_1components_1_1types_1_1_c_string_list.html" target="_top" xlink:title="CStringList">
<polygon fill="#ffffff" stroke="#000000" points="358.2925,-121.5 358.2925,-139.5 423.1987,-139.5 423.1987,-121.5 358.2925,-121.5"/>
<text text-anchor="middle" x="390.7456" y="-127.5" font-family="Helvetica,sans-Serif" font-size="10.00" fill="#000000">CStringList</text>
</a>
</g>
</g>
<!-- Node3&#45;&gt;Node13 -->
<g id="edge12" class="edge">
<title>Node3&#45;&gt;Node13</title>
<path fill="none" stroke="#191970" d="M280.5526,-179.8077C295.8536,-170.0582 316.9398,-157.4564 336.6494,-148.5 343.9485,-145.1832 352.0444,-142.1633 359.702,-139.5844"/>
<polygon fill="#191970" stroke="#191970" points="278.3285,-177.0781 271.8372,-185.4515 282.1334,-182.9537 278.3285,-177.0781"/>
</g>
<!-- Node16 -->
<g id="node16" class="node">
<title>Node16</title>
<g id="a_node16"><a xlink:href="classlocomotor_1_1components_1_1types_1_1_c_tree.html" target="_top" xlink:title="CTree">
<polygon fill="#ffffff" stroke="#000000" points="369.0371,-195.5 369.0371,-213.5 412.4541,-213.5 412.4541,-195.5 369.0371,-195.5"/>
<text text-anchor="middle" x="390.7456" y="-201.5" font-family="Helvetica,sans-Serif" font-size="10.00" fill="#000000">CTree</text>
</a>
</g>
</g>
<!-- Node3&#45;&gt;Node16 -->
<g id="edge15" class="edge">
<title>Node3&#45;&gt;Node16</title>
<path fill="none" stroke="#191970" d="M300.8463,-197.7038C323.4047,-199.4092 350.2162,-201.436 368.6541,-202.8299"/>
<polygon fill="#191970" stroke="#191970" points="301.0616,-194.2102 290.8262,-196.9463 300.5339,-201.1902 301.0616,-194.2102"/>
</g>
<!-- Node8 -->
<g id="node8" class="node">
<title>Node8</title>
<g id="a_node8"><a xlink:href="classlocomotor_1_1components_1_1types_1_1_c_interval_double.html" target="_top" xlink:title="CIntervalDouble">
<polygon fill="#ffffff" stroke="#000000" points="490.478,-81.5 490.478,-99.5 578.1821,-99.5 578.1821,-81.5 490.478,-81.5"/>
<text text-anchor="middle" x="534.3301" y="-87.5" font-family="Helvetica,sans-Serif" font-size="10.00" fill="#000000">CIntervalDouble</text>
</a>
</g>
</g>
<!-- Node7&#45;&gt;Node8 -->
<g id="edge7" class="edge">
<title>Node7&#45;&gt;Node8</title>
<path fill="none" stroke="#191970" d="M455.3096,-89.3993C467.1229,-89.5639 479.1999,-89.7321 490.2436,-89.8859"/>
<polygon fill="#191970" stroke="#191970" points="455.0765,-85.8958 445.0287,-89.2561 454.979,-92.8951 455.0765,-85.8958"/>
</g>
<!-- Node9 -->
<g id="node9" class="node">
<title>Node9</title>
<g id="a_node9"><a xlink:href="classlocomotor_1_1components_1_1types_1_1_c_interval_integer.html" target="_top" xlink:title="CIntervalInteger">
<polygon fill="#ffffff" stroke="#000000" points="490.7563,-44.5 490.7563,-62.5 577.9038,-62.5 577.9038,-44.5 490.7563,-44.5"/>
<text text-anchor="middle" x="534.3301" y="-50.5" font-family="Helvetica,sans-Serif" font-size="10.00" fill="#000000">CIntervalInteger</text>
</a>
</g>
</g>
<!-- Node7&#45;&gt;Node9 -->
<g id="edge8" class="edge">
<title>Node7&#45;&gt;Node9</title>
<path fill="none" stroke="#191970" d="M454.9822,-72.8418C469.4982,-69.3033 484.431,-65.6633 497.371,-62.5091"/>
<polygon fill="#191970" stroke="#191970" points="453.9154,-69.4992 445.0287,-75.268 455.5732,-76.3001 453.9154,-69.4992"/>
</g>
<!-- Node11 -->
<g id="node11" class="node">
<title>Node11</title>
<g id="a_node11"><a xlink:href="classlocomotor_1_1components_1_1types_1_1_c_integer.html" target="_top" xlink:title="CInteger">
<polygon fill="#ffffff" stroke="#000000" points="507.1528,-250.5 507.1528,-268.5 561.5073,-268.5 561.5073,-250.5 507.1528,-250.5"/>
<text text-anchor="middle" x="534.3301" y="-256.5" font-family="Helvetica,sans-Serif" font-size="10.00" fill="#000000">CInteger</text>
</a>
</g>
</g>
<!-- Node10&#45;&gt;Node11 -->
<g id="edge10" class="edge">
<title>Node10&#45;&gt;Node11</title>
<path fill="none" stroke="#191970" d="M423.6923,-245.6303C448.9251,-248.7935 483.3182,-253.1051 507.0266,-256.0772"/>
<polygon fill="#191970" stroke="#191970" points="423.8547,-242.1233 413.497,-244.3522 422.9839,-249.0689 423.8547,-242.1233"/>
</g>
<!-- Node12 -->
<g id="node12" class="node">
<title>Node12</title>
<g id="a_node12"><a xlink:href="classlocomotor_1_1components_1_1types_1_1_c_weighted_integer.html" target="_top" xlink:title="CWeightedInteger">
<polygon fill="#ffffff" stroke="#000000" points="486.1177,-213.5 486.1177,-231.5 582.5425,-231.5 582.5425,-213.5 486.1177,-213.5"/>
<text text-anchor="middle" x="534.3301" y="-219.5" font-family="Helvetica,sans-Serif" font-size="10.00" fill="#000000">CWeightedInteger</text>
</a>
</g>
</g>
<!-- Node10&#45;&gt;Node12 -->
<g id="edge11" class="edge">
<title>Node10&#45;&gt;Node12</title>
<path fill="none" stroke="#191970" d="M423.4536,-237.1719C441.896,-234.7315 465.288,-231.6361 485.8276,-228.9181"/>
<polygon fill="#191970" stroke="#191970" points="422.9514,-233.7077 413.497,-238.4894 423.8697,-240.6472 422.9514,-233.7077"/>
</g>
<!-- Node14 -->
<g id="node14" class="node">
<title>Node14</title>
<g id="a_node14"><a xlink:href="classlocomotor_1_1components_1_1types_1_1_c_mapped_string_list.html" target="_top" xlink:title="CMappedStringList">
<polygon fill="#ffffff" stroke="#000000" points="483.8081,-157.5 483.8081,-175.5 584.8521,-175.5 584.8521,-157.5 483.8081,-157.5"/>
<text text-anchor="middle" x="534.3301" y="-163.5" font-family="Helvetica,sans-Serif" font-size="10.00" fill="#000000">CMappedStringList</text>
</a>
</g>
</g>
<!-- Node13&#45;&gt;Node14 -->
<g id="edge13" class="edge">
<title>Node13&#45;&gt;Node14</title>
<path fill="none" stroke="#191970" d="M433.1467,-141.1309C453.8748,-146.328 478.5538,-152.5156 498.3495,-157.4788"/>
<polygon fill="#191970" stroke="#191970" points="433.8781,-137.7061 423.3271,-138.669 432.1757,-144.4959 433.8781,-137.7061"/>
</g>
<!-- Node15 -->
<g id="node15" class="node">
<title>Node15</title>
<g id="a_node15"><a xlink:href="classlocomotor_1_1components_1_1types_1_1_c_weighted_string_list.html" target="_top" xlink:title="CWeightedStringList">
<polygon fill="#ffffff" stroke="#000000" points="480.8418,-120.5 480.8418,-138.5 587.8184,-138.5 587.8184,-120.5 480.8418,-120.5"/>
<text text-anchor="middle" x="534.3301" y="-126.5" font-family="Helvetica,sans-Serif" font-size="10.00" fill="#000000">CWeightedStringList</text>
</a>
</g>
</g>
<!-- Node13&#45;&gt;Node15 -->
<g id="edge14" class="edge">
<title>Node13&#45;&gt;Node15</title>
<path fill="none" stroke="#191970" d="M433.7024,-130.2008C448.4886,-130.0978 465.2318,-129.9812 480.7577,-129.8731"/>
<polygon fill="#191970" stroke="#191970" points="433.3025,-126.7034 423.3271,-130.2731 433.3513,-133.7033 433.3025,-126.7034"/>
</g>
<!-- Node17&#45;&gt;Node4 -->
<g id="edge17" class="edge">
<title>Node17&#45;&gt;Node4</title>
<path fill="none" stroke="#191970" d="M301.5358,-148.6165C320.7563,-152.685 342.9486,-157.3826 360.3905,-161.0746"/>
<polygon fill="#191970" stroke="#191970" points="302.0135,-145.1402 291.5055,-146.4934 300.5639,-151.9884 302.0135,-145.1402"/>
</g>
<!-- Node17&#45;&gt;Node7 -->
<g id="edge18" class="edge">
<title>Node17&#45;&gt;Node7</title>
<path fill="none" stroke="#191970" d="M291.3226,-126.8326C310.4858,-119.4442 334.691,-110.1119 354.4202,-102.5053"/>
<polygon fill="#191970" stroke="#191970" points="289.8829,-123.6365 281.8115,-130.4996 292.4011,-130.1679 289.8829,-123.6365"/>
</g>
<!-- Node17&#45;&gt;Node13 -->
<g id="edge19" class="edge">
<title>Node17&#45;&gt;Node13</title>
<path fill="none" stroke="#191970" d="M301.6726,-136.5604C320.0393,-135.3107 341.0992,-133.8779 358.1285,-132.7192"/>
<polygon fill="#191970" stroke="#191970" points="301.2448,-133.0813 291.5055,-137.2521 301.72,-140.0652 301.2448,-133.0813"/>
</g>
<!-- Node17&#45;&gt;Node16 -->
<g id="edge20" class="edge">
<title>Node17&#45;&gt;Node16</title>
<path fill="none" stroke="#191970" d="M280.8782,-154.2633C296.1769,-163.9426 317.1329,-176.4358 336.6494,-185.5 346.9413,-190.2799 358.7944,-194.5705 368.7774,-197.8597"/>
<polygon fill="#191970" stroke="#191970" points="282.4527,-151.1149 272.1471,-148.656 278.67,-157.0048 282.4527,-151.1149"/>
</g>
<!-- Node18&#45;&gt;Node4 -->
<g id="edge22" class="edge">
<title>Node18&#45;&gt;Node4</title>
<path fill="none" stroke="#191970" d="M279.2279,-104.584C286.0784,-109.6074 293.7173,-115.2585 300.6494,-120.5 316.8176,-132.7251 318.8552,-138.7927 336.6494,-148.5 344.0771,-152.552 352.5361,-156.0079 360.5228,-158.8168"/>
<polygon fill="#191970" stroke="#191970" points="281.2242,-101.7079 271.0848,-98.6349 277.0948,-107.3602 281.2242,-101.7079"/>
</g>
<!-- Node18&#45;&gt;Node7 -->
<g id="edge25" class="edge">
<title>Node18&#45;&gt;Node7</title>
<path fill="none" stroke="#191970" d="M310.7528,-89.1047C319.1661,-89.0411 327.8925,-88.9752 336.3539,-88.9112"/>
<polygon fill="#191970" stroke="#191970" points="310.6579,-85.6052 300.6847,-89.1808 310.7109,-92.605 310.6579,-85.6052"/>
</g>
<!-- Node18&#45;&gt;Node13 -->
<g id="edge26" class="edge">
<title>Node18&#45;&gt;Node13</title>
<path fill="none" stroke="#191970" d="M297.4969,-101.5973C317.9765,-107.945 342.6496,-115.5925 361.4708,-121.4262"/>
<polygon fill="#191970" stroke="#191970" points="298.4121,-98.2168 287.8241,-98.5992 296.3396,-104.903 298.4121,-98.2168"/>
</g>
<!-- Node19 -->
<g id="node19" class="node">
<title>Node19</title>
<g id="a_node19"><a xlink:href="classlocomotor_1_1components_1_1types_1_1_c_graph_string_list.html" target="_top" xlink:title="CGraphStringList">
<polygon fill="#ffffff" stroke="#000000" points="344.396,-37.5 344.396,-55.5 437.0952,-55.5 437.0952,-37.5 344.396,-37.5"/>
<text text-anchor="middle" x="390.7456" y="-43.5" font-family="Helvetica,sans-Serif" font-size="10.00" fill="#000000">CGraphStringList</text>
</a>
</g>
</g>
<!-- Node18&#45;&gt;Node19 -->
<g id="edge23" class="edge">
<title>Node18&#45;&gt;Node19</title>
<path fill="none" stroke="#191970" d="M295.9225,-77.3244C317.2737,-70.3837 343.5713,-61.835 363.0522,-55.5023"/>
<polygon fill="#191970" stroke="#191970" points="294.6253,-74.0657 286.1972,-80.4858 296.7893,-80.7228 294.6253,-74.0657"/>
</g>
<!-- Node20 -->
<g id="node20" class="node">
<title>Node20</title>
<g id="a_node20"><a xlink:href="classlocomotor_1_1components_1_1types_1_1_c_graph_tree.html" target="_top" xlink:title="CGraphTree">
<polygon fill="#ffffff" stroke="#000000" points="355.1406,-.5 355.1406,-18.5 426.3506,-18.5 426.3506,-.5 355.1406,-.5"/>
<text text-anchor="middle" x="390.7456" y="-6.5" font-family="Helvetica,sans-Serif" font-size="10.00" fill="#000000">CGraphTree</text>
</a>
</g>
</g>
<!-- Node18&#45;&gt;Node20 -->
<g id="edge24" class="edge">
<title>Node18&#45;&gt;Node20</title>
<path fill="none" stroke="#191970" d="M275.2629,-73.2853C290.3077,-59.5042 313.5083,-40.0175 336.6494,-27.5 343.0918,-24.0152 350.3298,-21.041 357.3652,-18.5734"/>
<polygon fill="#191970" stroke="#191970" points="272.7053,-70.8852 267.796,-80.274 277.4887,-75.9959 272.7053,-70.8852"/>
</g>
</g>
</svg>
        <g id="navigator" transform="translate(0 0)" fill="#404254">
                <rect fill="#f2f5e9" fill-opacity="0.5" stroke="#606060" stroke-width=".5" x="0" y="0" width="60" height="60"/>
                <use id="zoomplus" xlink:href="#zoomPlus" x="17" y="9" onmousedown="handleZoom(evt,'in')"/>
                <use id="zoomminus" xlink:href="#zoomMin" x="42" y="9" onmousedown="handleZoom(evt,'out')"/>
                <use id="reset" xlink:href="#resetDef" x="30" y="36" onmousedown="handleReset()"/>
                <g id="arrowUp" xlink:href="#dirArrow" transform="translate(30 24)" onmousedown="handlePan(0,-1)">
                  <use xlink:href="#rim" fill="#404040">
                        <set attributeName="fill" to="#808080" begin="arrowUp.mouseover" end="arrowUp.mouseout"/>
                  </use>
                  <path fill="none" stroke="white" stroke-width="1.5" d="M0,-3.0v7 M-2.5,-0.5L0,-3.0L2.5,-0.5"/>
                </g>
                <g id="arrowRight" xlink:href="#dirArrow" transform="rotate(90) translate(36 -43)" onmousedown="handlePan(1,0)">
                  <use xlink:href="#rim" fill="#404040">
                        <set attributeName="fill" to="#808080" begin="arrowRight.mouseover" end="arrowRight.mouseout"/>
                  </use>
                  <path fill="none" stroke="white" stroke-width="1.5" d="M0,-3.0v7 M-2.5,-0.5L0,-3.0L2.5,-0.5"/>
                </g>
                <g id="arrowDown" xlink:href="#dirArrow" transform="rotate(180) translate(-30 -48)" onmousedown="handlePan(0,1)">
                  <use xlink:href="#rim" fill="#404040">
                        <set attributeName="fill" to="#808080" begin="arrowDown.mouseover" end="arrowDown.mouseout"/>
                  </use>
                  <path fill="none" stroke="white" stroke-width="1.5" d="M0,-3.0v7 M-2.5,-0.5L0,-3.0L2.5,-0.5"/>
                </g>
                <g id="arrowLeft" xlink:href="#dirArrow" transform="rotate(270) translate(-36 17)" onmousedown="handlePan(-1,0)">
                  <use xlink:href="#rim" fill="#404040">
                        <set attributeName="fill" to="#808080" begin="arrowLeft.mouseover" end="arrowLeft.mouseout"/>
                  </use>
                  <path fill="none" stroke="white" stroke-width="1.5" d="M0,-3.0v7 M-2.5,-0.5L0,-3.0L2.5,-0.5"/>
                </g>
        </g>
        <svg viewBox="0 0 15 15" width="100%" height="30px" preserveAspectRatio="xMaxYMin meet">
         <g id="arrow_out" transform="scale(0.3 0.3)">
          <a xlink:href="interfacelocomotor_1_1components_1_1types_1_1_c_type__inherit__graph_org.svg" target="_base">
           <rect id="button" ry="5" rx="5" y="6" x="6" height="38" width="38"
                fill="#f2f5e9" fill-opacity="0.5" stroke="#606060" stroke-width="1.0"/>
           <path id="arrow"
             d="M 11.500037,31.436501 C 11.940474,20.09759 22.043105,11.32322 32.158766,21.979434 L 37.068811,17.246167 C 37.068811,17.246167 37.088388,32 37.088388,32 L 22.160133,31.978069 C 22.160133,31.978069 26.997745,27.140456 26.997745,27.140456 C 18.528582,18.264221 13.291696,25.230495 11.500037,31.436501 z"
             style="fill:#404040;"/>
          </a>
         </g>
        </svg>
</svg>
