<?xml version="1.0" encoding="UTF-8" standalone="no"?>
<!DOCTYPE svg PUBLIC "-//W3C//DTD SVG 1.1//EN"
 "http://www.w3.org/Graphics/SVG/1.1/DTD/svg11.dtd">
<!-- Generated by graphviz version 2.40.1 (20161225.0304)
 -->
<!-- Title: JSONConvertissable Pages: 1 -->
<!--zoomable 312 -->
<svg id="main" version="1.1" xmlns="http://www.w3.org/2000/svg" xmlns:xlink="http://www.w3.org/1999/xlink" xml:space="preserve" onload="init(evt)">
<style type="text/css"><![CDATA[
.edge:hover path { stroke: red; }
.edge:hover polygon { stroke: red; fill: red; }
]]></style>
<script type="text/javascript"><![CDATA[
var edges = document.getElementsByTagName('g');
if (edges && edges.length) {
  for (var i=0;i<edges.length;i++) {
    if (edges[i].id.substr(0,4)=='edge') {
      edges[i].setAttribute('class','edge');
    }
  }
}
]]></script>
        <defs>
                <circle id="rim" cx="0" cy="0" r="7"/>
                <circle id="rim2" cx="0" cy="0" r="3.5"/>
                <g id="zoomPlus">
                        <use xlink:href="#rim" fill="#404040">
                                <set attributeName="fill" to="#808080" begin="zoomplus.mouseover" end="zoomplus.mouseout"/>
                        </use>
                        <path d="M-4,0h8M0,-4v8" fill="none" stroke="white" stroke-width="1.5" pointer-events="none"/>
                </g>
                <g id="zoomMin">
                        <use xlink:href="#rim" fill="#404040">
                                <set attributeName="fill" to="#808080" begin="zoomminus.mouseover" end="zoomminus.mouseout"/>
                        </use>
                        <path d="M-4,0h8" fill="none" stroke="white" stroke-width="1.5" pointer-events="none"/>
                </g>
                <g id="dirArrow">
                        <path fill="none" stroke="white" stroke-width="1.5" d="M0,-3.0v7 M-2.5,-0.5L0,-3.0L2.5,-0.5"/>
                </g>
               <g id="resetDef">
                       <use xlink:href="#rim2" fill="#404040">
                               <set attributeName="fill" to="#808080" begin="reset.mouseover" end="reset.mouseout"/>
                       </use>
               </g>
        </defs>

<script type="text/javascript">
var viewWidth = 506;
var viewHeight = 312;
var sectionId = 'dynsection-0';
</script>
<script xlink:href="svgpan.js"/>
<svg id="graph" class="graph">
<g id="viewport">
<title>JSONConvertissable</title>
<polygon fill="#ffffff" stroke="transparent" points="-4,4 -4,-308 502.001,-308 502.001,4 -4,4"/>
<!-- Node1 -->
<g id="node1" class="node">
<title>Node1</title>
<polygon fill="#bfbfbf" stroke="#000000" points="0,-166.5 0,-184.5 108.8125,-184.5 108.8125,-166.5 0,-166.5"/>
<text text-anchor="middle" x="54.4063" y="-172.5" font-family="Helvetica,sans-Serif" font-size="10.00" fill="#000000">JSONConvertissable</text>
</g>
<!-- Node2 -->
<g id="node2" class="node">
<title>Node2</title>
<g id="a_node2"><a xlink:href="classlocomotor_1_1components_1_1models_1_1_universe.html" target="_top" xlink:title="Universe">
<polygon fill="#ffffff" stroke="#000000" points="150.0933,-203.5 150.0933,-221.5 205.5513,-221.5 205.5513,-203.5 150.0933,-203.5"/>
<text text-anchor="middle" x="177.8223" y="-209.5" font-family="Helvetica,sans-Serif" font-size="10.00" fill="#000000">Universe</text>
</a>
</g>
</g>
<!-- Node1&#45;&gt;Node2 -->
<g id="edge1" class="edge">
<title>Node1&#45;&gt;Node2</title>
<path fill="none" stroke="#191970" d="M94.3569,-187.4772C112.5462,-192.9303 133.628,-199.2506 150.0532,-204.1749"/>
<polygon fill="#191970" stroke="#191970" points="95.1811,-184.0704 84.5972,-184.5512 93.1709,-190.7756 95.1811,-184.0704"/>
</g>
<!-- Node3 -->
<g id="node3" class="node">
<title>Node3</title>
<g id="a_node3"><a xlink:href="interfacelocomotor_1_1components_1_1types_1_1_c_item_type.html" target="_top" xlink:title="CItemType">
<polygon fill="#ffffff" stroke="#000000" points="145.645,-129.5 145.645,-147.5 209.9995,-147.5 209.9995,-129.5 145.645,-129.5"/>
<text text-anchor="middle" x="177.8223" y="-135.5" font-family="Helvetica,sans-Serif" font-size="10.00" fill="#000000">CItemType</text>
</a>
</g>
</g>
<!-- Node1&#45;&gt;Node3 -->
<g id="edge2" class="edge">
<title>Node1&#45;&gt;Node3</title>
<path fill="none" stroke="#191970" d="M94.4074,-163.5077C111.6611,-158.3351 131.5094,-152.3845 147.5153,-147.586"/>
<polygon fill="#191970" stroke="#191970" points="93.1709,-160.2244 84.5972,-166.4488 95.1811,-166.9296 93.1709,-160.2244"/>
</g>
<!-- Node17 -->
<g id="node17" class="node">
<title>Node17</title>
<g id="a_node17"><a xlink:href="interfacelocomotor_1_1components_1_1types_1_1_c_user_type.html" target="_top" xlink:title="CUserType">
<polygon fill="#ffffff" stroke="#000000" points="144.8125,-166.5 144.8125,-184.5 210.832,-184.5 210.832,-166.5 144.8125,-166.5"/>
<text text-anchor="middle" x="177.8223" y="-172.5" font-family="Helvetica,sans-Serif" font-size="10.00" fill="#000000">CUserType</text>
</a>
</g>
</g>
<!-- Node1&#45;&gt;Node17 -->
<g id="edge16" class="edge">
<title>Node1&#45;&gt;Node17</title>
<path fill="none" stroke="#191970" d="M118.9015,-175.5C127.7679,-175.5 136.5575,-175.5 144.5359,-175.5"/>
<polygon fill="#191970" stroke="#191970" points="118.8976,-172.0001 108.8976,-175.5 118.8975,-179.0001 118.8976,-172.0001"/>
</g>
<!-- Node4 -->
<g id="node4" class="node">
<title>Node4</title>
<g id="a_node4"><a xlink:href="classlocomotor_1_1components_1_1types_1_1_c_boolean.html" target="_top" xlink:title="CBoolean">
<polygon fill="#ffffff" stroke="#000000" points="270.9678,-129.5 270.9678,-147.5 330.8887,-147.5 330.8887,-129.5 270.9678,-129.5"/>
<text text-anchor="middle" x="300.9282" y="-135.5" font-family="Helvetica,sans-Serif" font-size="10.00" fill="#000000">CBoolean</text>
</a>
</g>
</g>
<!-- Node3&#45;&gt;Node4 -->
<g id="edge3" class="edge">
<title>Node3&#45;&gt;Node4</title>
<path fill="none" stroke="#191970" d="M220.2338,-138.5C236.9147,-138.5 255.6784,-138.5 270.9115,-138.5"/>
<polygon fill="#191970" stroke="#191970" points="220.1669,-135.0001 210.1669,-138.5 220.1669,-142.0001 220.1669,-135.0001"/>
</g>
<!-- Node5 -->
<g id="node5" class="node">
<title>Node5</title>
<g id="a_node5"><a xlink:href="classlocomotor_1_1components_1_1types_1_1_c_float.html" target="_top" xlink:title="CFloat">
<polygon fill="#ffffff" stroke="#000000" points="278.2017,-92.5 278.2017,-110.5 323.6548,-110.5 323.6548,-92.5 278.2017,-92.5"/>
<text text-anchor="middle" x="300.9282" y="-98.5" font-family="Helvetica,sans-Serif" font-size="10.00" fill="#000000">CFloat</text>
</a>
</g>
</g>
<!-- Node3&#45;&gt;Node5 -->
<g id="edge4" class="edge">
<title>Node3&#45;&gt;Node5</title>
<path fill="none" stroke="#191970" d="M217.7157,-126.5099C237.6932,-120.5056 261.1594,-113.4527 278.0704,-108.37"/>
<polygon fill="#191970" stroke="#191970" points="216.5067,-123.2185 207.9374,-129.4488 218.5216,-129.9222 216.5067,-123.2185"/>
</g>
<!-- Node6 -->
<g id="node6" class="node">
<title>Node6</title>
<g id="a_node6"><a xlink:href="classlocomotor_1_1components_1_1types_1_1_c_integer_list.html" target="_top" xlink:title="CIntegerList">
<polygon fill="#ffffff" stroke="#000000" points="265.9702,-55.5 265.9702,-73.5 335.8862,-73.5 335.8862,-55.5 265.9702,-55.5"/>
<text text-anchor="middle" x="300.9282" y="-61.5" font-family="Helvetica,sans-Serif" font-size="10.00" fill="#000000">CIntegerList</text>
</a>
</g>
</g>
<!-- Node3&#45;&gt;Node6 -->
<g id="edge5" class="edge">
<title>Node3&#45;&gt;Node6</title>
<path fill="none" stroke="#191970" d="M194.7804,-122.2855C208.0806,-110.2682 227.5154,-94.1869 246.832,-83.5 253.8871,-79.5968 261.8934,-76.2614 269.5426,-73.5253"/>
<polygon fill="#191970" stroke="#191970" points="192.3139,-119.7992 187.3479,-129.1582 197.0663,-124.9388 192.3139,-119.7992"/>
</g>
<!-- Node7 -->
<g id="node7" class="node">
<title>Node7</title>
<g id="a_node7"><a xlink:href="classlocomotor_1_1components_1_1types_1_1_c_interval.html" target="_top" xlink:title="CInterval\&lt; T extends\l Number \&gt;">
<polygon fill="#ffffff" stroke="#000000" points="246.832,-203.5 246.832,-231.5 355.0244,-231.5 355.0244,-203.5 246.832,-203.5"/>
<text text-anchor="start" x="254.832" y="-219.5" font-family="Helvetica,sans-Serif" font-size="10.00" fill="#000000">CInterval&lt; T extends</text>
<text text-anchor="middle" x="300.9282" y="-209.5" font-family="Helvetica,sans-Serif" font-size="10.00" fill="#000000"> Number &gt;</text>
</a>
</g>
</g>
<!-- Node3&#45;&gt;Node7 -->
<g id="edge6" class="edge">
<title>Node3&#45;&gt;Node7</title>
<path fill="none" stroke="#191970" d="M204.464,-152.957C206.6699,-154.4157 208.822,-155.9378 210.832,-157.5 228.9478,-171.5797 227.9029,-181.5344 246.832,-194.5 251.6312,-197.7872 256.9751,-200.7508 262.3833,-203.372"/>
<polygon fill="#191970" stroke="#191970" points="206.2312,-149.9351 195.876,-147.6947 202.5739,-155.9038 206.2312,-149.9351"/>
</g>
<!-- Node10 -->
<g id="node10" class="node">
<title>Node10</title>
<g id="a_node10"><a xlink:href="classlocomotor_1_1components_1_1types_1_1_c_long.html" target="_top" xlink:title="CLong">
<polygon fill="#ffffff" stroke="#000000" points="278.1943,-18.5 278.1943,-36.5 323.6621,-36.5 323.6621,-18.5 278.1943,-18.5"/>
<text text-anchor="middle" x="300.9282" y="-24.5" font-family="Helvetica,sans-Serif" font-size="10.00" fill="#000000">CLong</text>
</a>
</g>
</g>
<!-- Node3&#45;&gt;Node10 -->
<g id="edge9" class="edge">
<title>Node3&#45;&gt;Node10</title>
<path fill="none" stroke="#191970" d="M187.1751,-120.2343C198.6188,-99.5861 219.8454,-66.2797 246.832,-46.5 256.0649,-39.7328 267.919,-35.2114 278.1763,-32.2836"/>
<polygon fill="#191970" stroke="#191970" points="183.9891,-118.7702 182.3608,-129.2391 190.1622,-122.0706 183.9891,-118.7702"/>
</g>
<!-- Node13 -->
<g id="node13" class="node">
<title>Node13</title>
<g id="a_node13"><a xlink:href="classlocomotor_1_1components_1_1types_1_1_c_string_list.html" target="_top" xlink:title="CStringList">
<polygon fill="#ffffff" stroke="#000000" points="268.4751,-250.5 268.4751,-268.5 333.3813,-268.5 333.3813,-250.5 268.4751,-250.5"/>
<text text-anchor="middle" x="300.9282" y="-256.5" font-family="Helvetica,sans-Serif" font-size="10.00" fill="#000000">CStringList</text>
</a>
</g>
</g>
<!-- Node3&#45;&gt;Node13 -->
<g id="edge12" class="edge">
<title>Node3&#45;&gt;Node13</title>
<path fill="none" stroke="#191970" d="M206.9892,-153.7323C208.3607,-154.9191 209.6541,-156.175 210.832,-157.5 237.8187,-187.8561 216.935,-214.0055 246.832,-241.5 252.8062,-246.994 260.5034,-250.8153 268.2069,-253.4716"/>
<polygon fill="#191970" stroke="#191970" points="208.7072,-150.6583 198.5359,-147.6926 204.6377,-156.3539 208.7072,-150.6583"/>
</g>
<!-- Node16 -->
<g id="node16" class="node">
<title>Node16</title>
<g id="a_node16"><a xlink:href="classlocomotor_1_1components_1_1types_1_1_c_tree.html" target="_top" xlink:title="CTree">
<polygon fill="#ffffff" stroke="#000000" points="279.2197,-166.5 279.2197,-184.5 322.6367,-184.5 322.6367,-166.5 279.2197,-166.5"/>
<text text-anchor="middle" x="300.9282" y="-172.5" font-family="Helvetica,sans-Serif" font-size="10.00" fill="#000000">CTree</text>
</a>
</g>
</g>
<!-- Node3&#45;&gt;Node16 -->
<g id="edge15" class="edge">
<title>Node3&#45;&gt;Node16</title>
<path fill="none" stroke="#191970" d="M217.5717,-150.4469C237.8873,-156.5528 261.842,-163.7525 278.8461,-168.8631"/>
<polygon fill="#191970" stroke="#191970" points="218.5216,-147.0778 207.9374,-147.5512 216.5067,-153.7815 218.5216,-147.0778"/>
</g>
<!-- Node8 -->
<g id="node8" class="node">
<title>Node8</title>
<g id="a_node8"><a xlink:href="classlocomotor_1_1components_1_1types_1_1_c_interval_double.html" target="_top" xlink:title="CIntervalDouble">
<polygon fill="#ffffff" stroke="#000000" points="400.6606,-210.5 400.6606,-228.5 488.3647,-228.5 488.3647,-210.5 400.6606,-210.5"/>
<text text-anchor="middle" x="444.5127" y="-216.5" font-family="Helvetica,sans-Serif" font-size="10.00" fill="#000000">CIntervalDouble</text>
</a>
</g>
</g>
<!-- Node7&#45;&gt;Node8 -->
<g id="edge7" class="edge">
<title>Node7&#45;&gt;Node8</title>
<path fill="none" stroke="#191970" d="M365.4922,-218.3993C377.3055,-218.5639 389.3825,-218.7321 400.4262,-218.8859"/>
<polygon fill="#191970" stroke="#191970" points="365.2592,-214.8958 355.2114,-218.2561 365.1616,-221.8951 365.2592,-214.8958"/>
</g>
<!-- Node9 -->
<g id="node9" class="node">
<title>Node9</title>
<g id="a_node9"><a xlink:href="classlocomotor_1_1components_1_1types_1_1_c_interval_integer.html" target="_top" xlink:title="CIntervalInteger">
<polygon fill="#ffffff" stroke="#000000" points="400.939,-173.5 400.939,-191.5 488.0864,-191.5 488.0864,-173.5 400.939,-173.5"/>
<text text-anchor="middle" x="444.5127" y="-179.5" font-family="Helvetica,sans-Serif" font-size="10.00" fill="#000000">CIntervalInteger</text>
</a>
</g>
</g>
<!-- Node7&#45;&gt;Node9 -->
<g id="edge8" class="edge">
<title>Node7&#45;&gt;Node9</title>
<path fill="none" stroke="#191970" d="M365.1648,-201.8418C379.6809,-198.3033 394.6136,-194.6633 407.5536,-191.5091"/>
<polygon fill="#191970" stroke="#191970" points="364.098,-198.4992 355.2114,-204.268 365.7558,-205.3001 364.098,-198.4992"/>
</g>
<!-- Node11 -->
<g id="node11" class="node">
<title>Node11</title>
<g id="a_node11"><a xlink:href="classlocomotor_1_1components_1_1types_1_1_c_integer.html" target="_top" xlink:title="CInteger">
<polygon fill="#ffffff" stroke="#000000" points="417.3354,-37.5 417.3354,-55.5 471.6899,-55.5 471.6899,-37.5 417.3354,-37.5"/>
<text text-anchor="middle" x="444.5127" y="-43.5" font-family="Helvetica,sans-Serif" font-size="10.00" fill="#000000">CInteger</text>
</a>
</g>
</g>
<!-- Node10&#45;&gt;Node11 -->
<g id="edge10" class="edge">
<title>Node10&#45;&gt;Node11</title>
<path fill="none" stroke="#191970" d="M333.8749,-31.8597C359.1077,-35.1987 393.5008,-39.7498 417.2092,-42.887"/>
<polygon fill="#191970" stroke="#191970" points="334.0524,-28.3528 323.6796,-30.5106 333.134,-35.2923 334.0524,-28.3528"/>
</g>
<!-- Node12 -->
<g id="node12" class="node">
<title>Node12</title>
<g id="a_node12"><a xlink:href="classlocomotor_1_1components_1_1types_1_1_c_weighted_integer.html" target="_top" xlink:title="CWeightedInteger">
<polygon fill="#ffffff" stroke="#000000" points="396.3003,-.5 396.3003,-18.5 492.7251,-18.5 492.7251,-.5 396.3003,-.5"/>
<text text-anchor="middle" x="444.5127" y="-6.5" font-family="Helvetica,sans-Serif" font-size="10.00" fill="#000000">CWeightedInteger</text>
</a>
</g>
</g>
<!-- Node10&#45;&gt;Node12 -->
<g id="edge11" class="edge">
<title>Node10&#45;&gt;Node12</title>
<path fill="none" stroke="#191970" d="M333.6362,-23.3997C352.0786,-21.0877 375.4706,-18.1552 396.0103,-15.5804"/>
<polygon fill="#191970" stroke="#191970" points="333.1666,-19.9311 323.6796,-24.6478 334.0373,-26.8767 333.1666,-19.9311"/>
</g>
<!-- Node14 -->
<g id="node14" class="node">
<title>Node14</title>
<g id="a_node14"><a xlink:href="classlocomotor_1_1components_1_1types_1_1_c_mapped_string_list.html" target="_top" xlink:title="CMappedStringList">
<polygon fill="#ffffff" stroke="#000000" points="393.9907,-285.5 393.9907,-303.5 495.0347,-303.5 495.0347,-285.5 393.9907,-285.5"/>
<text text-anchor="middle" x="444.5127" y="-291.5" font-family="Helvetica,sans-Serif" font-size="10.00" fill="#000000">CMappedStringList</text>
</a>
</g>
</g>
<!-- Node13&#45;&gt;Node14 -->
<g id="edge13" class="edge">
<title>Node13&#45;&gt;Node14</title>
<path fill="none" stroke="#191970" d="M343.4571,-269.8668C363.8011,-274.8258 387.9277,-280.7069 407.5041,-285.4788"/>
<polygon fill="#191970" stroke="#191970" points="344.0542,-266.4099 333.5098,-267.442 342.3964,-273.2108 344.0542,-266.4099"/>
</g>
<!-- Node15 -->
<g id="node15" class="node">
<title>Node15</title>
<g id="a_node15"><a xlink:href="classlocomotor_1_1components_1_1types_1_1_c_weighted_string_list.html" target="_top" xlink:title="CWeightedStringList">
<polygon fill="#ffffff" stroke="#000000" points="391.0244,-248.5 391.0244,-266.5 498.001,-266.5 498.001,-248.5 391.0244,-248.5"/>
<text text-anchor="middle" x="444.5127" y="-254.5" font-family="Helvetica,sans-Serif" font-size="10.00" fill="#000000">CWeightedStringList</text>
</a>
</g>
</g>
<!-- Node13&#45;&gt;Node15 -->
<g id="edge14" class="edge">
<title>Node13&#45;&gt;Node15</title>
<path fill="none" stroke="#191970" d="M343.8851,-258.9017C358.6712,-258.6957 375.4144,-258.4625 390.9403,-258.2462"/>
<polygon fill="#191970" stroke="#191970" points="343.46,-255.4071 333.5098,-259.0462 343.5576,-262.4065 343.46,-255.4071"/>
</g>
<!-- Node17&#45;&gt;Node4 -->
<g id="edge17" class="edge">
<title>Node17&#45;&gt;Node4</title>
<path fill="none" stroke="#191970" d="M217.7229,-163.5077C234.9332,-158.3351 254.7317,-152.3845 270.6974,-147.586"/>
<polygon fill="#191970" stroke="#191970" points="216.5067,-160.2185 207.9374,-166.4488 218.5216,-166.9222 216.5067,-160.2185"/>
</g>
<!-- Node17&#45;&gt;Node7 -->
<g id="edge18" class="edge">
<title>Node17&#45;&gt;Node7</title>
<path fill="none" stroke="#191970" d="M213.7523,-187.7582C228.0974,-192.6523 244.7026,-198.3175 259.5477,-203.3822"/>
<polygon fill="#191970" stroke="#191970" points="214.8261,-184.4265 204.2316,-184.5101 212.5658,-191.0516 214.8261,-184.4265"/>
</g>
<!-- Node17&#45;&gt;Node13 -->
<g id="edge19" class="edge">
<title>Node17&#45;&gt;Node13</title>
<path fill="none" stroke="#191970" d="M205.2691,-190.1284C207.2169,-191.5161 209.0948,-192.9772 210.832,-194.5 230.6188,-211.8445 225.4045,-226.2289 246.832,-241.5 253.1997,-246.0382 260.789,-249.4896 268.2394,-252.0928"/>
<polygon fill="#191970" stroke="#191970" points="206.8175,-186.9651 196.5018,-184.549 203.0592,-192.8707 206.8175,-186.9651"/>
</g>
<!-- Node17&#45;&gt;Node16 -->
<g id="edge20" class="edge">
<title>Node17&#45;&gt;Node16</title>
<path fill="none" stroke="#191970" d="M221.3227,-175.5C240.7842,-175.5 262.8871,-175.5 278.8561,-175.5"/>
<polygon fill="#191970" stroke="#191970" points="221.1365,-172.0001 211.1365,-175.5 221.1365,-179.0001 221.1365,-172.0001"/>
</g>
</g>
</svg>
        <g id="navigator" transform="translate(0 0)" fill="#404254">
                <rect fill="#f2f5e9" fill-opacity="0.5" stroke="#606060" stroke-width=".5" x="0" y="0" width="60" height="60"/>
                <use id="zoomplus" xlink:href="#zoomPlus" x="17" y="9" onmousedown="handleZoom(evt,'in')"/>
                <use id="zoomminus" xlink:href="#zoomMin" x="42" y="9" onmousedown="handleZoom(evt,'out')"/>
                <use id="reset" xlink:href="#resetDef" x="30" y="36" onmousedown="handleReset()"/>
                <g id="arrowUp" xlink:href="#dirArrow" transform="translate(30 24)" onmousedown="handlePan(0,-1)">
                  <use xlink:href="#rim" fill="#404040">
                        <set attributeName="fill" to="#808080" begin="arrowUp.mouseover" end="arrowUp.mouseout"/>
                  </use>
                  <path fill="none" stroke="white" stroke-width="1.5" d="M0,-3.0v7 M-2.5,-0.5L0,-3.0L2.5,-0.5"/>
                </g>
                <g id="arrowRight" xlink:href="#dirArrow" transform="rotate(90) translate(36 -43)" onmousedown="handlePan(1,0)">
                  <use xlink:href="#rim" fill="#404040">
                        <set attributeName="fill" to="#808080" begin="arrowRight.mouseover" end="arrowRight.mouseout"/>
                  </use>
                  <path fill="none" stroke="white" stroke-width="1.5" d="M0,-3.0v7 M-2.5,-0.5L0,-3.0L2.5,-0.5"/>
                </g>
                <g id="arrowDown" xlink:href="#dirArrow" transform="rotate(180) translate(-30 -48)" onmousedown="handlePan(0,1)">
                  <use xlink:href="#rim" fill="#404040">
                        <set attributeName="fill" to="#808080" begin="arrowDown.mouseover" end="arrowDown.mouseout"/>
                  </use>
                  <path fill="none" stroke="white" stroke-width="1.5" d="M0,-3.0v7 M-2.5,-0.5L0,-3.0L2.5,-0.5"/>
                </g>
                <g id="arrowLeft" xlink:href="#dirArrow" transform="rotate(270) translate(-36 17)" onmousedown="handlePan(-1,0)">
                  <use xlink:href="#rim" fill="#404040">
                        <set attributeName="fill" to="#808080" begin="arrowLeft.mouseover" end="arrowLeft.mouseout"/>
                  </use>
                  <path fill="none" stroke="white" stroke-width="1.5" d="M0,-3.0v7 M-2.5,-0.5L0,-3.0L2.5,-0.5"/>
                </g>
        </g>
        <svg viewBox="0 0 15 15" width="100%" height="30px" preserveAspectRatio="xMaxYMin meet">
         <g id="arrow_out" transform="scale(0.3 0.3)">
          <a xlink:href="interfacelocomotor_1_1components_1_1_j_s_o_n_convertissable__inherit__graph_org.svg" target="_base">
           <rect id="button" ry="5" rx="5" y="6" x="6" height="38" width="38"
                fill="#f2f5e9" fill-opacity="0.5" stroke="#606060" stroke-width="1.0"/>
           <path id="arrow"
             d="M 11.500037,31.436501 C 11.940474,20.09759 22.043105,11.32322 32.158766,21.979434 L 37.068811,17.246167 C 37.068811,17.246167 37.088388,32 37.088388,32 L 22.160133,31.978069 C 22.160133,31.978069 26.997745,27.140456 26.997745,27.140456 C 18.528582,18.264221 13.291696,25.230495 11.500037,31.436501 z"
             style="fill:#404040;"/>
          </a>
         </g>
        </svg>
</svg>
