<?xml version="1.0" encoding="UTF-8" standalone="no"?>
<!DOCTYPE svg PUBLIC "-//W3C//DTD SVG 1.1//EN"
 "http://www.w3.org/Graphics/SVG/1.1/DTD/svg11.dtd">
<!-- Generated by graphviz version 2.40.1 (20161225.0304)
 -->
<!-- Title: CUniverseType Pages: 1 -->
<svg width="166pt" height="82pt"
 viewBox="0.00 0.00 165.64 82.00" xmlns="http://www.w3.org/2000/svg" xmlns:xlink="http://www.w3.org/1999/xlink">
<g id="graph0" class="graph" transform="scale(1 1) rotate(0) translate(4 78)">
<title>CUniverseType</title>
<polygon fill="#ffffff" stroke="transparent" points="-4,4 -4,-78 161.6353,-78 161.6353,4 -4,4"/>
<!-- Node1 -->
<g id="node1" class="node">
<title>Node1</title>
<polygon fill="#bfbfbf" stroke="#000000" points="24.271,-.5 24.271,-18.5 108.6353,-18.5 108.6353,-.5 24.271,-.5"/>
<text text-anchor="middle" x="66.4531" y="-6.5" font-family="Helvetica,sans-Serif" font-size="10.00" fill="#000000">CUniverseType</text>
</g>
<!-- Node2 -->
<g id="node2" class="node">
<title>Node2</title>
<g id="a_node2"><a xlink:href="interfacelocomotor_1_1components_1_1types_1_1_c_type.html" target="_top" xlink:title="CType">
<polygon fill="#ffffff" stroke="#000000" points="0,-55.5 0,-73.5 44.9063,-73.5 44.9063,-55.5 0,-55.5"/>
<text text-anchor="middle" x="22.4531" y="-61.5" font-family="Helvetica,sans-Serif" font-size="10.00" fill="#000000">CType</text>
</a>
</g>
</g>
<!-- Node2&#45;&gt;Node1 -->
<g id="edge1" class="edge">
<title>Node2&#45;&gt;Node1</title>
<path fill="none" stroke="#191970" d="M36.1039,-47.4365C43.6673,-37.9823 52.7766,-26.5956 59.0296,-18.7795"/>
<polygon fill="#191970" stroke="#191970" points="33.2328,-45.4227 29.7188,-55.4179 38.6989,-49.7956 33.2328,-45.4227"/>
</g>
<!-- Node3 -->
<g id="node3" class="node">
<title>Node3</title>
<g id="a_node3"><a xlink:href="interfacelocomotor_1_1components_1_1_j_s_o_n_displayable.html" target="_top" xlink:title="JSONDisplayable">
<polygon fill="#ffffff" stroke="#000000" points="63.271,-55.5 63.271,-73.5 157.6353,-73.5 157.6353,-55.5 63.271,-55.5"/>
<text text-anchor="middle" x="110.4531" y="-61.5" font-family="Helvetica,sans-Serif" font-size="10.00" fill="#000000">JSONDisplayable</text>
</a>
</g>
</g>
<!-- Node3&#45;&gt;Node1 -->
<g id="edge2" class="edge">
<title>Node3&#45;&gt;Node1</title>
<path fill="none" stroke="#191970" d="M96.8023,-47.4365C89.2389,-37.9823 80.1296,-26.5956 73.8767,-18.7795"/>
<polygon fill="#191970" stroke="#191970" points="94.2074,-49.7956 103.1874,-55.4179 99.6735,-45.4227 94.2074,-49.7956"/>
</g>
</g>
</svg>
