<?xml version="1.0" encoding="UTF-8" standalone="no"?>
<!DOCTYPE svg PUBLIC "-//W3C//DTD SVG 1.1//EN"
 "http://www.w3.org/Graphics/SVG/1.1/DTD/svg11.dtd">
<!-- Generated by graphviz version 2.40.1 (20161225.0304)
 -->
<!-- Title: CItemType Pages: 1 -->
<svg width="347pt" height="137pt"
 viewBox="0.00 0.00 347.10 137.00" xmlns="http://www.w3.org/2000/svg" xmlns:xlink="http://www.w3.org/1999/xlink">
<g id="graph0" class="graph" transform="scale(1 1) rotate(0) translate(4 133)">
<title>CItemType</title>
<polygon fill="#ffffff" stroke="transparent" points="-4,4 -4,-133 343.0957,-133 343.0957,4 -4,4"/>
<!-- Node1 -->
<g id="node1" class="node">
<title>Node1</title>
<polygon fill="#bfbfbf" stroke="#000000" points="132.5122,-.5 132.5122,-18.5 196.8667,-18.5 196.8667,-.5 132.5122,-.5"/>
<text text-anchor="middle" x="164.6895" y="-6.5" font-family="Helvetica,sans-Serif" font-size="10.00" fill="#000000">CItemType</text>
</g>
<!-- Node2 -->
<g id="node2" class="node">
<title>Node2</title>
<g id="a_node2"><a xlink:href="interfacelocomotor_1_1components_1_1types_1_1_c_comparable_type.html" target="_top" xlink:title="CComparableType">
<polygon fill="#ffffff" stroke="#000000" points="0,-55.5 0,-73.5 99.3789,-73.5 99.3789,-55.5 0,-55.5"/>
<text text-anchor="middle" x="49.6895" y="-61.5" font-family="Helvetica,sans-Serif" font-size="10.00" fill="#000000">CComparableType</text>
</a>
</g>
</g>
<!-- Node2&#45;&gt;Node1 -->
<g id="edge1" class="edge">
<title>Node2&#45;&gt;Node1</title>
<path fill="none" stroke="#191970" d="M77.7989,-51.0563C98.8851,-40.9716 127.1836,-27.4376 145.6713,-18.5956"/>
<polygon fill="#191970" stroke="#191970" points="76.1906,-47.9458 68.6794,-55.4179 79.2108,-54.2607 76.1906,-47.9458"/>
</g>
<!-- Node3 -->
<g id="node3" class="node">
<title>Node3</title>
<g id="a_node3"><a xlink:href="interfacelocomotor_1_1components_1_1types_1_1_c_type.html" target="_top" xlink:title="CType">
<polygon fill="#ffffff" stroke="#000000" points="27.2363,-110.5 27.2363,-128.5 72.1426,-128.5 72.1426,-110.5 27.2363,-110.5"/>
<text text-anchor="middle" x="49.6895" y="-116.5" font-family="Helvetica,sans-Serif" font-size="10.00" fill="#000000">CType</text>
</a>
</g>
</g>
<!-- Node3&#45;&gt;Node2 -->
<g id="edge2" class="edge">
<title>Node3&#45;&gt;Node2</title>
<path fill="none" stroke="#191970" d="M49.6895,-100.383C49.6895,-91.3738 49.6895,-81.0373 49.6895,-73.7795"/>
<polygon fill="#191970" stroke="#191970" points="46.1896,-100.4178 49.6895,-110.4179 53.1896,-100.4179 46.1896,-100.4178"/>
</g>
<!-- Node4 -->
<g id="node4" class="node">
<title>Node4</title>
<g id="a_node4"><a xlink:href="interfacelocomotor_1_1components_1_1_j_s_o_n_displayable.html" target="_top" xlink:title="JSONDisplayable">
<polygon fill="#ffffff" stroke="#000000" points="117.5073,-55.5 117.5073,-73.5 211.8716,-73.5 211.8716,-55.5 117.5073,-55.5"/>
<text text-anchor="middle" x="164.6895" y="-61.5" font-family="Helvetica,sans-Serif" font-size="10.00" fill="#000000">JSONDisplayable</text>
</a>
</g>
</g>
<!-- Node4&#45;&gt;Node1 -->
<g id="edge3" class="edge">
<title>Node4&#45;&gt;Node1</title>
<path fill="none" stroke="#191970" d="M164.6895,-45.383C164.6895,-36.3738 164.6895,-26.0373 164.6895,-18.7795"/>
<polygon fill="#191970" stroke="#191970" points="161.1896,-45.4178 164.6895,-55.4179 168.1896,-45.4179 161.1896,-45.4178"/>
</g>
<!-- Node5 -->
<g id="node5" class="node">
<title>Node5</title>
<g id="a_node5"><a xlink:href="interfacelocomotor_1_1components_1_1_j_s_o_n_convertissable.html" target="_top" xlink:title="JSONConvertissable">
<polygon fill="#ffffff" stroke="#000000" points="230.2832,-55.5 230.2832,-73.5 339.0957,-73.5 339.0957,-55.5 230.2832,-55.5"/>
<text text-anchor="middle" x="284.6895" y="-61.5" font-family="Helvetica,sans-Serif" font-size="10.00" fill="#000000">JSONConvertissable</text>
</a>
</g>
</g>
<!-- Node5&#45;&gt;Node1 -->
<g id="edge4" class="edge">
<title>Node5&#45;&gt;Node1</title>
<path fill="none" stroke="#191970" d="M255.6547,-51.1924C233.6211,-41.0937 203.9129,-27.4774 184.5345,-18.5956"/>
<polygon fill="#191970" stroke="#191970" points="254.3249,-54.433 264.8739,-55.4179 257.2415,-48.0695 254.3249,-54.433"/>
</g>
</g>
</svg>
