<?xml version="1.0" encoding="UTF-8" standalone="no"?>
<!DOCTYPE svg PUBLIC "-//W3C//DTD SVG 1.1//EN"
 "http://www.w3.org/Graphics/SVG/1.1/DTD/svg11.dtd">
<!-- Generated by graphviz version 2.40.1 (20161225.0304)
 -->
<!-- Title: JSONDisplayable Pages: 1 -->
<!--zoomable 555 -->
<svg id="main" version="1.1" xmlns="http://www.w3.org/2000/svg" xmlns:xlink="http://www.w3.org/1999/xlink" xml:space="preserve" onload="init(evt)">
<style type="text/css"><![CDATA[
.edge:hover path { stroke: red; }
.edge:hover polygon { stroke: red; fill: red; }
]]></style>
<script type="text/javascript"><![CDATA[
var edges = document.getElementsByTagName('g');
if (edges && edges.length) {
  for (var i=0;i<edges.length;i++) {
    if (edges[i].id.substr(0,4)=='edge') {
      edges[i].setAttribute('class','edge');
    }
  }
}
]]></script>
        <defs>
                <circle id="rim" cx="0" cy="0" r="7"/>
                <circle id="rim2" cx="0" cy="0" r="3.5"/>
                <g id="zoomPlus">
                        <use xlink:href="#rim" fill="#404040">
                                <set attributeName="fill" to="#808080" begin="zoomplus.mouseover" end="zoomplus.mouseout"/>
                        </use>
                        <path d="M-4,0h8M0,-4v8" fill="none" stroke="white" stroke-width="1.5" pointer-events="none"/>
                </g>
                <g id="zoomMin">
                        <use xlink:href="#rim" fill="#404040">
                                <set attributeName="fill" to="#808080" begin="zoomminus.mouseover" end="zoomminus.mouseout"/>
                        </use>
                        <path d="M-4,0h8" fill="none" stroke="white" stroke-width="1.5" pointer-events="none"/>
                </g>
                <g id="dirArrow">
                        <path fill="none" stroke="white" stroke-width="1.5" d="M0,-3.0v7 M-2.5,-0.5L0,-3.0L2.5,-0.5"/>
                </g>
               <g id="resetDef">
                       <use xlink:href="#rim2" fill="#404040">
                               <set attributeName="fill" to="#808080" begin="reset.mouseover" end="reset.mouseout"/>
                       </use>
               </g>
        </defs>

<script type="text/javascript">
var viewWidth = 518;
var viewHeight = 555;
var sectionId = 'dynsection-0';
</script>
<script xlink:href="svgpan.js"/>
<svg id="graph" class="graph">
<g id="viewport">
<title>JSONDisplayable</title>
<polygon fill="#ffffff" stroke="transparent" points="-4,4 -4,-551 513.6709,-551 513.6709,4 -4,4"/>
<!-- Node1 -->
<g id="node1" class="node">
<title>Node1</title>
<polygon fill="#bfbfbf" stroke="#000000" points="0,-361.5 0,-379.5 94.3643,-379.5 94.3643,-361.5 0,-361.5"/>
<text text-anchor="middle" x="47.1821" y="-367.5" font-family="Helvetica,sans-Serif" font-size="10.00" fill="#000000">JSONDisplayable</text>
</g>
<!-- Node2 -->
<g id="node2" class="node">
<title>Node2</title>
<g id="a_node2"><a xlink:href="classlocomotor_1_1components_1_1models_1_1_booking.html" target="_top" xlink:title="Booking">
<polygon fill="#ffffff" stroke="#000000" points="150.3643,-528.5 150.3643,-546.5 202.502,-546.5 202.502,-528.5 150.3643,-528.5"/>
<text text-anchor="middle" x="176.4331" y="-534.5" font-family="Helvetica,sans-Serif" font-size="10.00" fill="#000000">Booking</text>
</a>
</g>
</g>
<!-- Node1&#45;&gt;Node2 -->
<g id="edge1" class="edge">
<title>Node1&#45;&gt;Node2</title>
<path fill="none" stroke="#191970" d="M52.9598,-389.225C63.4808,-420.3987 88.6157,-483.1007 130.3643,-519.5 136.0599,-524.4659 143.2835,-528.1446 150.3115,-530.8344"/>
<polygon fill="#191970" stroke="#191970" points="56.256,-388.0428 49.8446,-379.6081 49.5967,-390.2 56.256,-388.0428"/>
</g>
<!-- Node3 -->
<g id="node3" class="node">
<title>Node3</title>
<g id="a_node3"><a xlink:href="classlocomotor_1_1components_1_1models_1_1_item_category_full.html" target="_top" xlink:title="ItemCategoryFull">
<polygon fill="#ffffff" stroke="#000000" points="130.3643,-491.5 130.3643,-509.5 222.502,-509.5 222.502,-491.5 130.3643,-491.5"/>
<text text-anchor="middle" x="176.4331" y="-497.5" font-family="Helvetica,sans-Serif" font-size="10.00" fill="#000000">ItemCategoryFull</text>
</a>
</g>
</g>
<!-- Node1&#45;&gt;Node3 -->
<g id="edge2" class="edge">
<title>Node1&#45;&gt;Node3</title>
<path fill="none" stroke="#191970" d="M56.4003,-388.6215C69.6744,-413.0668 96.3592,-456.5292 130.3643,-482.5 135.0048,-486.0441 140.4305,-488.9754 145.8968,-491.3694"/>
<polygon fill="#191970" stroke="#191970" points="59.4539,-386.9087 51.6933,-379.6959 53.2622,-390.174 59.4539,-386.9087"/>
</g>
<!-- Node4 -->
<g id="node4" class="node">
<title>Node4</title>
<g id="a_node4"><a xlink:href="classlocomotor_1_1components_1_1models_1_1_item_criteria_full.html" target="_top" xlink:title="ItemCriteriaFull">
<polygon fill="#ffffff" stroke="#000000" points="134.5391,-454.5 134.5391,-472.5 218.3271,-472.5 218.3271,-454.5 134.5391,-454.5"/>
<text text-anchor="middle" x="176.4331" y="-460.5" font-family="Helvetica,sans-Serif" font-size="10.00" fill="#000000">ItemCriteriaFull</text>
</a>
</g>
</g>
<!-- Node1&#45;&gt;Node4 -->
<g id="edge3" class="edge">
<title>Node1&#45;&gt;Node4</title>
<path fill="none" stroke="#191970" d="M62.3793,-387.3842C78.0672,-403.9946 103.9174,-429.1723 130.3643,-445.5 135.9173,-448.9283 142.2334,-451.9075 148.3702,-454.402"/>
<polygon fill="#191970" stroke="#191970" points="64.8987,-384.9536 55.5362,-379.9945 59.7627,-389.7098 64.8987,-384.9536"/>
</g>
<!-- Node5 -->
<g id="node5" class="node">
<title>Node5</title>
<g id="a_node5"><a xlink:href="classlocomotor_1_1components_1_1models_1_1_item_full.html" target="_top" xlink:title="ItemFull">
<polygon fill="#ffffff" stroke="#000000" points="150.6523,-417.5 150.6523,-435.5 202.2139,-435.5 202.2139,-417.5 150.6523,-417.5"/>
<text text-anchor="middle" x="176.4331" y="-423.5" font-family="Helvetica,sans-Serif" font-size="10.00" fill="#000000">ItemFull</text>
</a>
</g>
</g>
<!-- Node1&#45;&gt;Node5 -->
<g id="edge4" class="edge">
<title>Node1&#45;&gt;Node5</title>
<path fill="none" stroke="#191970" d="M75.5441,-383.9337C91.5444,-391.3917 111.9607,-400.7083 130.3643,-408.5 137.4809,-411.5131 145.2876,-414.6323 152.4195,-417.4106"/>
<polygon fill="#191970" stroke="#191970" points="76.7501,-380.6336 66.2097,-379.5604 73.7802,-386.9724 76.7501,-380.6336"/>
</g>
<!-- Node6 -->
<g id="node6" class="node">
<title>Node6</title>
<g id="a_node6"><a xlink:href="classlocomotor_1_1components_1_1models_1_1_unit.html" target="_top" xlink:title="Unit">
<polygon fill="#ffffff" stroke="#000000" points="159.5415,-380.5 159.5415,-398.5 193.3247,-398.5 193.3247,-380.5 159.5415,-380.5"/>
<text text-anchor="middle" x="176.4331" y="-386.5" font-family="Helvetica,sans-Serif" font-size="10.00" fill="#000000">Unit</text>
</a>
</g>
</g>
<!-- Node1&#45;&gt;Node6 -->
<g id="edge5" class="edge">
<title>Node1&#45;&gt;Node6</title>
<path fill="none" stroke="#191970" d="M104.5391,-378.9315C124.4251,-381.8548 145.2409,-384.9147 159.3259,-386.9852"/>
<polygon fill="#191970" stroke="#191970" points="104.9792,-375.4587 94.5765,-377.467 103.9611,-382.3843 104.9792,-375.4587"/>
</g>
<!-- Node7 -->
<g id="node7" class="node">
<title>Node7</title>
<g id="a_node7"><a xlink:href="classlocomotor_1_1components_1_1models_1_1_unit_alt.html" target="_top" xlink:title="UnitAlt">
<polygon fill="#ffffff" stroke="#000000" points="153.7065,-343.5 153.7065,-361.5 199.1597,-361.5 199.1597,-343.5 153.7065,-343.5"/>
<text text-anchor="middle" x="176.4331" y="-349.5" font-family="Helvetica,sans-Serif" font-size="10.00" fill="#000000">UnitAlt</text>
</a>
</g>
</g>
<!-- Node1&#45;&gt;Node7 -->
<g id="edge6" class="edge">
<title>Node1&#45;&gt;Node7</title>
<path fill="none" stroke="#191970" d="M104.6623,-362.4951C121.9935,-360.0815 140.0187,-357.5712 153.6695,-355.6701"/>
<polygon fill="#191970" stroke="#191970" points="103.9981,-359.0537 94.5765,-363.8997 104.9637,-365.9868 103.9981,-359.0537"/>
</g>
<!-- Node8 -->
<g id="node8" class="node">
<title>Node8</title>
<g id="a_node8"><a xlink:href="classlocomotor_1_1components_1_1models_1_1_universe.html" target="_top" xlink:title="Universe">
<polygon fill="#ffffff" stroke="#000000" points="148.7041,-306.5 148.7041,-324.5 204.1621,-324.5 204.1621,-306.5 148.7041,-306.5"/>
<text text-anchor="middle" x="176.4331" y="-312.5" font-family="Helvetica,sans-Serif" font-size="10.00" fill="#000000">Universe</text>
</a>
</g>
</g>
<!-- Node1&#45;&gt;Node8 -->
<g id="edge7" class="edge">
<title>Node1&#45;&gt;Node8</title>
<path fill="none" stroke="#191970" d="M77.2634,-357.3325C93.0459,-350.4617 112.7191,-341.9563 130.3643,-334.5 138.1741,-331.1998 146.7558,-327.6419 154.3738,-324.5073"/>
<polygon fill="#191970" stroke="#191970" points="75.7597,-354.1698 67.9923,-361.3753 78.5577,-360.5863 75.7597,-354.1698"/>
</g>
<!-- Node9 -->
<g id="node9" class="node">
<title>Node9</title>
<g id="a_node9"><a xlink:href="interfacelocomotor_1_1components_1_1types_1_1_c_item_type.html" target="_top" xlink:title="CItemType">
<polygon fill="#ffffff" stroke="#000000" points="144.2559,-129.5 144.2559,-147.5 208.6104,-147.5 208.6104,-129.5 144.2559,-129.5"/>
<text text-anchor="middle" x="176.4331" y="-135.5" font-family="Helvetica,sans-Serif" font-size="10.00" fill="#000000">CItemType</text>
</a>
</g>
</g>
<!-- Node1&#45;&gt;Node9 -->
<g id="edge8" class="edge">
<title>Node1&#45;&gt;Node9</title>
<path fill="none" stroke="#191970" d="M57.2543,-352.4208C83.3031,-305.6643 152.1989,-181.9994 171.4013,-147.5318"/>
<polygon fill="#191970" stroke="#191970" points="54.0583,-350.9661 52.2489,-361.4053 60.1733,-354.3729 54.0583,-350.9661"/>
</g>
<!-- Node23 -->
<g id="node23" class="node">
<title>Node23</title>
<g id="a_node23"><a xlink:href="classlocomotor_1_1components_1_1types_1_1_c_set_graph.html" target="_top" xlink:title="CSetGraph">
<polygon fill="#ffffff" stroke="#000000" points="143.4209,-269.5 143.4209,-287.5 209.4453,-287.5 209.4453,-269.5 143.4209,-269.5"/>
<text text-anchor="middle" x="176.4331" y="-275.5" font-family="Helvetica,sans-Serif" font-size="10.00" fill="#000000">CSetGraph</text>
</a>
</g>
</g>
<!-- Node1&#45;&gt;Node23 -->
<g id="edge22" class="edge">
<title>Node1&#45;&gt;Node23</title>
<path fill="none" stroke="#191970" d="M62.9637,-353.7573C78.8067,-337.6883 104.511,-313.5554 130.3643,-297.5 136.5379,-293.666 143.6202,-290.3024 150.3501,-287.5133"/>
<polygon fill="#191970" stroke="#191970" points="60.0661,-351.7187 55.6292,-361.3397 65.0975,-356.5855 60.0661,-351.7187"/>
</g>
<!-- Node26 -->
<g id="node26" class="node">
<title>Node26</title>
<g id="a_node26"><a xlink:href="interfacelocomotor_1_1components_1_1types_1_1_c_universe_type.html" target="_top" xlink:title="CUniverseType">
<polygon fill="#ffffff" stroke="#000000" points="134.251,-232.5 134.251,-250.5 218.6152,-250.5 218.6152,-232.5 134.251,-232.5"/>
<text text-anchor="middle" x="176.4331" y="-238.5" font-family="Helvetica,sans-Serif" font-size="10.00" fill="#000000">CUniverseType</text>
</a>
</g>
</g>
<!-- Node1&#45;&gt;Node26 -->
<g id="edge25" class="edge">
<title>Node1&#45;&gt;Node26</title>
<path fill="none" stroke="#191970" d="M56.7517,-352.4404C70.264,-328.4775 97.0452,-286.2128 130.3643,-260.5 135.5697,-256.4829 141.7446,-253.1764 147.8547,-250.5126"/>
<polygon fill="#191970" stroke="#191970" points="53.681,-350.7608 51.9398,-361.2116 59.8182,-354.1277 53.681,-350.7608"/>
</g>
<!-- Node10 -->
<g id="node10" class="node">
<title>Node10</title>
<g id="a_node10"><a xlink:href="classlocomotor_1_1components_1_1types_1_1_c_boolean.html" target="_top" xlink:title="CBoolean">
<polygon fill="#ffffff" stroke="#000000" points="282.6377,-232.5 282.6377,-250.5 342.5586,-250.5 342.5586,-232.5 282.6377,-232.5"/>
<text text-anchor="middle" x="312.5981" y="-238.5" font-family="Helvetica,sans-Serif" font-size="10.00" fill="#000000">CBoolean</text>
</a>
</g>
</g>
<!-- Node9&#45;&gt;Node10 -->
<g id="edge9" class="edge">
<title>Node9&#45;&gt;Node10</title>
<path fill="none" stroke="#191970" d="M188.8856,-155.6901C203.5439,-174.7756 229.5831,-205.2855 258.502,-223.5 265.7883,-228.0893 274.37,-231.6382 282.5251,-234.3238"/>
<polygon fill="#191970" stroke="#191970" points="191.6062,-153.484 182.8113,-147.5762 186.0025,-157.6791 191.6062,-153.484"/>
</g>
<!-- Node11 -->
<g id="node11" class="node">
<title>Node11</title>
<g id="a_node11"><a xlink:href="classlocomotor_1_1components_1_1types_1_1_c_float.html" target="_top" xlink:title="CFloat">
<polygon fill="#ffffff" stroke="#000000" points="289.8716,-.5 289.8716,-18.5 335.3247,-18.5 335.3247,-.5 289.8716,-.5"/>
<text text-anchor="middle" x="312.5981" y="-6.5" font-family="Helvetica,sans-Serif" font-size="10.00" fill="#000000">CFloat</text>
</a>
</g>
</g>
<!-- Node9&#45;&gt;Node11 -->
<g id="edge10" class="edge">
<title>Node9&#45;&gt;Node11</title>
<path fill="none" stroke="#191970" d="M185.3209,-120.2882C198.179,-95.7709 224.2335,-52.364 258.502,-27.5 267.715,-20.8153 279.5672,-16.5041 289.8282,-13.7828"/>
<polygon fill="#191970" stroke="#191970" points="182.1779,-118.7474 180.7707,-129.2483 188.4193,-121.9169 182.1779,-118.7474"/>
</g>
<!-- Node12 -->
<g id="node12" class="node">
<title>Node12</title>
<g id="a_node12"><a xlink:href="classlocomotor_1_1components_1_1types_1_1_c_integer_list.html" target="_top" xlink:title="CIntegerList">
<polygon fill="#ffffff" stroke="#000000" points="277.6401,-111.5 277.6401,-129.5 347.5562,-129.5 347.5562,-111.5 277.6401,-111.5"/>
<text text-anchor="middle" x="312.5981" y="-117.5" font-family="Helvetica,sans-Serif" font-size="10.00" fill="#000000">CIntegerList</text>
</a>
</g>
</g>
<!-- Node9&#45;&gt;Node12 -->
<g id="edge11" class="edge">
<title>Node9&#45;&gt;Node12</title>
<path fill="none" stroke="#191970" d="M218.7644,-132.9041C237.5228,-130.4244 259.3399,-127.5403 277.2139,-125.1775"/>
<polygon fill="#191970" stroke="#191970" points="218.1574,-129.4538 208.7023,-134.2343 219.0748,-136.3935 218.1574,-129.4538"/>
</g>
<!-- Node13 -->
<g id="node13" class="node">
<title>Node13</title>
<g id="a_node13"><a xlink:href="classlocomotor_1_1components_1_1types_1_1_c_interval.html" target="_top" xlink:title="CInterval\&lt; T extends\l Number \&gt;">
<polygon fill="#ffffff" stroke="#000000" points="258.502,-185.5 258.502,-213.5 366.6943,-213.5 366.6943,-185.5 258.502,-185.5"/>
<text text-anchor="start" x="266.502" y="-201.5" font-family="Helvetica,sans-Serif" font-size="10.00" fill="#000000">CInterval&lt; T extends</text>
<text text-anchor="middle" x="312.5981" y="-191.5" font-family="Helvetica,sans-Serif" font-size="10.00" fill="#000000"> Number &gt;</text>
</a>
</g>
</g>
<!-- Node9&#45;&gt;Node13 -->
<g id="edge12" class="edge">
<title>Node9&#45;&gt;Node13</title>
<path fill="none" stroke="#191970" d="M204.8005,-151.9033C220.5616,-159.2826 240.557,-168.5331 258.502,-176.5 265.1244,-179.4401 272.2345,-182.5186 279.0524,-185.4324"/>
<polygon fill="#191970" stroke="#191970" points="206.1297,-148.6609 195.5903,-147.5787 203.1545,-154.9972 206.1297,-148.6609"/>
</g>
<!-- Node16 -->
<g id="node16" class="node">
<title>Node16</title>
<g id="a_node16"><a xlink:href="classlocomotor_1_1components_1_1types_1_1_c_long.html" target="_top" xlink:title="CLong">
<polygon fill="#ffffff" stroke="#000000" points="289.8643,-74.5 289.8643,-92.5 335.332,-92.5 335.332,-74.5 289.8643,-74.5"/>
<text text-anchor="middle" x="312.5981" y="-80.5" font-family="Helvetica,sans-Serif" font-size="10.00" fill="#000000">CLong</text>
</a>
</g>
</g>
<!-- Node9&#45;&gt;Node16 -->
<g id="edge15" class="edge">
<title>Node9&#45;&gt;Node16</title>
<path fill="none" stroke="#191970" d="M204.9922,-125.3383C220.6683,-118.2747 240.5224,-109.5891 258.502,-102.5 268.6883,-98.4836 280.1086,-94.4108 289.8217,-91.0717"/>
<polygon fill="#191970" stroke="#191970" points="203.4855,-122.1784 195.8255,-129.498 206.3781,-128.5528 203.4855,-122.1784"/>
</g>
<!-- Node19 -->
<g id="node19" class="node">
<title>Node19</title>
<g id="a_node19"><a xlink:href="classlocomotor_1_1components_1_1types_1_1_c_string_list.html" target="_top" xlink:title="CStringList">
<polygon fill="#ffffff" stroke="#000000" points="280.145,-148.5 280.145,-166.5 345.0513,-166.5 345.0513,-148.5 280.145,-148.5"/>
<text text-anchor="middle" x="312.5981" y="-154.5" font-family="Helvetica,sans-Serif" font-size="10.00" fill="#000000">CStringList</text>
</a>
</g>
</g>
<!-- Node9&#45;&gt;Node19 -->
<g id="edge18" class="edge">
<title>Node9&#45;&gt;Node19</title>
<path fill="none" stroke="#191970" d="M218.6968,-144.3973C238.4882,-147.159 261.6966,-150.3974 280.0887,-152.9637"/>
<polygon fill="#191970" stroke="#191970" points="219.0901,-140.9184 208.7023,-143.0027 218.1226,-147.8512 219.0901,-140.9184"/>
</g>
<!-- Node22 -->
<g id="node22" class="node">
<title>Node22</title>
<g id="a_node22"><a xlink:href="classlocomotor_1_1components_1_1types_1_1_c_tree.html" target="_top" xlink:title="CTree">
<polygon fill="#ffffff" stroke="#000000" points="290.8896,-37.5 290.8896,-55.5 334.3066,-55.5 334.3066,-37.5 290.8896,-37.5"/>
<text text-anchor="middle" x="312.5981" y="-43.5" font-family="Helvetica,sans-Serif" font-size="10.00" fill="#000000">CTree</text>
</a>
</g>
</g>
<!-- Node9&#45;&gt;Node22 -->
<g id="edge21" class="edge">
<title>Node9&#45;&gt;Node22</title>
<path fill="none" stroke="#191970" d="M191.7783,-121.4412C207.2407,-105.1357 232.4784,-80.8307 258.502,-65.5 268.4507,-59.6391 280.4906,-55.1885 290.6838,-52.0735"/>
<polygon fill="#191970" stroke="#191970" points="188.8641,-119.4363 184.6311,-129.1488 193.997,-124.196 188.8641,-119.4363"/>
</g>
<!-- Node14 -->
<g id="node14" class="node">
<title>Node14</title>
<g id="a_node14"><a xlink:href="classlocomotor_1_1components_1_1types_1_1_c_interval_double.html" target="_top" xlink:title="CIntervalDouble">
<polygon fill="#ffffff" stroke="#000000" points="412.3306,-225.5 412.3306,-243.5 500.0347,-243.5 500.0347,-225.5 412.3306,-225.5"/>
<text text-anchor="middle" x="456.1826" y="-231.5" font-family="Helvetica,sans-Serif" font-size="10.00" fill="#000000">CIntervalDouble</text>
</a>
</g>
</g>
<!-- Node13&#45;&gt;Node14 -->
<g id="edge13" class="edge">
<title>Node13&#45;&gt;Node14</title>
<path fill="none" stroke="#191970" d="M376.8347,-215.1582C391.3508,-218.6967 406.2835,-222.3367 419.2235,-225.4909"/>
<polygon fill="#191970" stroke="#191970" points="377.4257,-211.6999 366.8813,-212.732 375.7679,-218.5008 377.4257,-211.6999"/>
</g>
<!-- Node15 -->
<g id="node15" class="node">
<title>Node15</title>
<g id="a_node15"><a xlink:href="classlocomotor_1_1components_1_1types_1_1_c_interval_integer.html" target="_top" xlink:title="CIntervalInteger">
<polygon fill="#ffffff" stroke="#000000" points="412.6089,-188.5 412.6089,-206.5 499.7563,-206.5 499.7563,-188.5 412.6089,-188.5"/>
<text text-anchor="middle" x="456.1826" y="-194.5" font-family="Helvetica,sans-Serif" font-size="10.00" fill="#000000">CIntervalInteger</text>
</a>
</g>
</g>
<!-- Node13&#45;&gt;Node15 -->
<g id="edge14" class="edge">
<title>Node13&#45;&gt;Node15</title>
<path fill="none" stroke="#191970" d="M376.9108,-198.6042C388.9665,-198.4363 401.3065,-198.2644 412.5513,-198.1077"/>
<polygon fill="#191970" stroke="#191970" points="376.8315,-195.1048 366.8813,-198.7439 376.9291,-202.1042 376.8315,-195.1048"/>
</g>
<!-- Node17 -->
<g id="node17" class="node">
<title>Node17</title>
<g id="a_node17"><a xlink:href="classlocomotor_1_1components_1_1types_1_1_c_integer.html" target="_top" xlink:title="CInteger">
<polygon fill="#ffffff" stroke="#000000" points="429.0054,-76.5 429.0054,-94.5 483.3599,-94.5 483.3599,-76.5 429.0054,-76.5"/>
<text text-anchor="middle" x="456.1826" y="-82.5" font-family="Helvetica,sans-Serif" font-size="10.00" fill="#000000">CInteger</text>
</a>
</g>
</g>
<!-- Node16&#45;&gt;Node17 -->
<g id="edge16" class="edge">
<title>Node16&#45;&gt;Node17</title>
<path fill="none" stroke="#191970" d="M345.5449,-83.9589C370.7776,-84.3104 405.1707,-84.7895 428.8792,-85.1197"/>
<polygon fill="#191970" stroke="#191970" points="345.3973,-80.4566 335.3495,-83.8169 345.2998,-87.4559 345.3973,-80.4566"/>
</g>
<!-- Node18 -->
<g id="node18" class="node">
<title>Node18</title>
<g id="a_node18"><a xlink:href="classlocomotor_1_1components_1_1types_1_1_c_weighted_integer.html" target="_top" xlink:title="CWeightedInteger">
<polygon fill="#ffffff" stroke="#000000" points="407.9702,-39.5 407.9702,-57.5 504.395,-57.5 504.395,-39.5 407.9702,-39.5"/>
<text text-anchor="middle" x="456.1826" y="-45.5" font-family="Helvetica,sans-Serif" font-size="10.00" fill="#000000">CWeightedInteger</text>
</a>
</g>
</g>
<!-- Node16&#45;&gt;Node18 -->
<g id="edge17" class="edge">
<title>Node16&#45;&gt;Node18</title>
<path fill="none" stroke="#191970" d="M345.1959,-75.554C367.147,-70.2032 396.1475,-63.1341 418.9989,-57.5639"/>
<polygon fill="#191970" stroke="#191970" points="344.2361,-72.1854 335.3495,-77.9541 345.894,-78.9863 344.2361,-72.1854"/>
</g>
<!-- Node20 -->
<g id="node20" class="node">
<title>Node20</title>
<g id="a_node20"><a xlink:href="classlocomotor_1_1components_1_1types_1_1_c_mapped_string_list.html" target="_top" xlink:title="CMappedStringList">
<polygon fill="#ffffff" stroke="#000000" points="405.6606,-150.5 405.6606,-168.5 506.7046,-168.5 506.7046,-150.5 405.6606,-150.5"/>
<text text-anchor="middle" x="456.1826" y="-156.5" font-family="Helvetica,sans-Serif" font-size="10.00" fill="#000000">CMappedStringList</text>
</a>
</g>
</g>
<!-- Node19&#45;&gt;Node20 -->
<g id="edge19" class="edge">
<title>Node19&#45;&gt;Node20</title>
<path fill="none" stroke="#191970" d="M355.6285,-158.0994C371.2933,-158.3176 389.147,-158.5663 405.4196,-158.7929"/>
<polygon fill="#191970" stroke="#191970" points="355.2275,-154.5935 345.1797,-157.9538 355.1299,-161.5929 355.2275,-154.5935"/>
</g>
<!-- Node21 -->
<g id="node21" class="node">
<title>Node21</title>
<g id="a_node21"><a xlink:href="classlocomotor_1_1components_1_1types_1_1_c_weighted_string_list.html" target="_top" xlink:title="CWeightedStringList">
<polygon fill="#ffffff" stroke="#000000" points="402.6943,-113.5 402.6943,-131.5 509.6709,-131.5 509.6709,-113.5 402.6943,-113.5"/>
<text text-anchor="middle" x="456.1826" y="-119.5" font-family="Helvetica,sans-Serif" font-size="10.00" fill="#000000">CWeightedStringList</text>
</a>
</g>
</g>
<!-- Node19&#45;&gt;Node21 -->
<g id="edge20" class="edge">
<title>Node19&#45;&gt;Node21</title>
<path fill="none" stroke="#191970" d="M355.127,-147.1332C375.471,-142.1742 399.5976,-136.2931 419.174,-131.5212"/>
<polygon fill="#191970" stroke="#191970" points="354.0663,-143.7892 345.1797,-149.558 355.7241,-150.5901 354.0663,-143.7892"/>
</g>
<!-- Node24 -->
<g id="node24" class="node">
<title>Node24</title>
<g id="a_node24"><a xlink:href="classlocomotor_1_1components_1_1types_1_1_c_graph_string_list.html" target="_top" xlink:title="CGraphStringList">
<polygon fill="#ffffff" stroke="#000000" points="266.2485,-269.5 266.2485,-287.5 358.9478,-287.5 358.9478,-269.5 266.2485,-269.5"/>
<text text-anchor="middle" x="312.5981" y="-275.5" font-family="Helvetica,sans-Serif" font-size="10.00" fill="#000000">CGraphStringList</text>
</a>
</g>
</g>
<!-- Node23&#45;&gt;Node24 -->
<g id="edge23" class="edge">
<title>Node23&#45;&gt;Node24</title>
<path fill="none" stroke="#191970" d="M220.0633,-278.5C234.7243,-278.5 251.13,-278.5 266.0094,-278.5"/>
<polygon fill="#191970" stroke="#191970" points="219.7429,-275.0001 209.7428,-278.5 219.7428,-282.0001 219.7429,-275.0001"/>
</g>
<!-- Node25 -->
<g id="node25" class="node">
<title>Node25</title>
<g id="a_node25"><a xlink:href="classlocomotor_1_1components_1_1types_1_1_c_graph_tree.html" target="_top" xlink:title="CGraphTree">
<polygon fill="#ffffff" stroke="#000000" points="276.9932,-306.5 276.9932,-324.5 348.2031,-324.5 348.2031,-306.5 276.9932,-306.5"/>
<text text-anchor="middle" x="312.5981" y="-312.5" font-family="Helvetica,sans-Serif" font-size="10.00" fill="#000000">CGraphTree</text>
</a>
</g>
</g>
<!-- Node23&#45;&gt;Node25 -->
<g id="edge24" class="edge">
<title>Node23&#45;&gt;Node25</title>
<path fill="none" stroke="#191970" d="M219.502,-290.2031C238.7823,-295.4421 261.171,-301.5258 279.1604,-306.414"/>
<polygon fill="#191970" stroke="#191970" points="220.3107,-286.796 209.7428,-287.5512 218.4751,-293.551 220.3107,-286.796"/>
</g>
<!-- Node26&#45;&gt;Node10 -->
<g id="edge26" class="edge">
<title>Node26&#45;&gt;Node10</title>
<path fill="none" stroke="#191970" d="M228.9187,-241.5C247.0212,-241.5 266.6784,-241.5 282.3893,-241.5"/>
<polygon fill="#191970" stroke="#191970" points="228.7702,-238.0001 218.7702,-241.5 228.7701,-245.0001 228.7702,-238.0001"/>
</g>
<!-- Node26&#45;&gt;Node13 -->
<g id="edge29" class="edge">
<title>Node26&#45;&gt;Node13</title>
<path fill="none" stroke="#191970" d="M215.3059,-229.5097C231.4535,-224.529 250.3063,-218.7139 267.0937,-213.5358"/>
<polygon fill="#191970" stroke="#191970" points="214.168,-226.1979 205.6439,-232.4899 216.2313,-232.8869 214.168,-226.1979"/>
</g>
<!-- Node26&#45;&gt;Node19 -->
<g id="edge30" class="edge">
<title>Node26&#45;&gt;Node19</title>
<path fill="none" stroke="#191970" d="M193.1605,-225.4773C208.9536,-211.056 233.8327,-190.0992 258.502,-176.5 265.563,-172.6075 273.5714,-169.2761 281.2209,-166.5404"/>
<polygon fill="#191970" stroke="#191970" points="190.7133,-222.9736 185.7792,-232.3494 195.4831,-228.097 190.7133,-222.9736"/>
</g>
<!-- Node26&#45;&gt;Node24 -->
<g id="edge27" class="edge">
<title>Node26&#45;&gt;Node24</title>
<path fill="none" stroke="#191970" d="M219.502,-253.2031C238.7823,-258.4421 261.171,-264.5258 279.1604,-269.414"/>
<polygon fill="#191970" stroke="#191970" points="220.3107,-249.796 209.7428,-250.5512 218.4751,-256.551 220.3107,-249.796"/>
</g>
<!-- Node26&#45;&gt;Node25 -->
<g id="edge28" class="edge">
<title>Node26&#45;&gt;Node25</title>
<path fill="none" stroke="#191970" d="M212.7612,-254.8017C216.1537,-256.5381 219.4572,-258.4386 222.502,-260.5 241.5011,-273.3628 239.0646,-285.3095 258.502,-297.5 264.2039,-301.0761 270.6936,-304.0224 277.1502,-306.4212"/>
<polygon fill="#191970" stroke="#191970" points="214.2343,-251.6268 203.6902,-250.5913 211.2872,-257.9762 214.2343,-251.6268"/>
</g>
</g>
</svg>
        <g id="navigator" transform="translate(0 0)" fill="#404254">
                <rect fill="#f2f5e9" fill-opacity="0.5" stroke="#606060" stroke-width=".5" x="0" y="0" width="60" height="60"/>
                <use id="zoomplus" xlink:href="#zoomPlus" x="17" y="9" onmousedown="handleZoom(evt,'in')"/>
                <use id="zoomminus" xlink:href="#zoomMin" x="42" y="9" onmousedown="handleZoom(evt,'out')"/>
                <use id="reset" xlink:href="#resetDef" x="30" y="36" onmousedown="handleReset()"/>
                <g id="arrowUp" xlink:href="#dirArrow" transform="translate(30 24)" onmousedown="handlePan(0,-1)">
                  <use xlink:href="#rim" fill="#404040">
                        <set attributeName="fill" to="#808080" begin="arrowUp.mouseover" end="arrowUp.mouseout"/>
                  </use>
                  <path fill="none" stroke="white" stroke-width="1.5" d="M0,-3.0v7 M-2.5,-0.5L0,-3.0L2.5,-0.5"/>
                </g>
                <g id="arrowRight" xlink:href="#dirArrow" transform="rotate(90) translate(36 -43)" onmousedown="handlePan(1,0)">
                  <use xlink:href="#rim" fill="#404040">
                        <set attributeName="fill" to="#808080" begin="arrowRight.mouseover" end="arrowRight.mouseout"/>
                  </use>
                  <path fill="none" stroke="white" stroke-width="1.5" d="M0,-3.0v7 M-2.5,-0.5L0,-3.0L2.5,-0.5"/>
                </g>
                <g id="arrowDown" xlink:href="#dirArrow" transform="rotate(180) translate(-30 -48)" onmousedown="handlePan(0,1)">
                  <use xlink:href="#rim" fill="#404040">
                        <set attributeName="fill" to="#808080" begin="arrowDown.mouseover" end="arrowDown.mouseout"/>
                  </use>
                  <path fill="none" stroke="white" stroke-width="1.5" d="M0,-3.0v7 M-2.5,-0.5L0,-3.0L2.5,-0.5"/>
                </g>
                <g id="arrowLeft" xlink:href="#dirArrow" transform="rotate(270) translate(-36 17)" onmousedown="handlePan(-1,0)">
                  <use xlink:href="#rim" fill="#404040">
                        <set attributeName="fill" to="#808080" begin="arrowLeft.mouseover" end="arrowLeft.mouseout"/>
                  </use>
                  <path fill="none" stroke="white" stroke-width="1.5" d="M0,-3.0v7 M-2.5,-0.5L0,-3.0L2.5,-0.5"/>
                </g>
        </g>
        <svg viewBox="0 0 15 15" width="100%" height="30px" preserveAspectRatio="xMaxYMin meet">
         <g id="arrow_out" transform="scale(0.3 0.3)">
          <a xlink:href="interfacelocomotor_1_1components_1_1_j_s_o_n_displayable__inherit__graph_org.svg" target="_base">
           <rect id="button" ry="5" rx="5" y="6" x="6" height="38" width="38"
                fill="#f2f5e9" fill-opacity="0.5" stroke="#606060" stroke-width="1.0"/>
           <path id="arrow"
             d="M 11.500037,31.436501 C 11.940474,20.09759 22.043105,11.32322 32.158766,21.979434 L 37.068811,17.246167 C 37.068811,17.246167 37.088388,32 37.088388,32 L 22.160133,31.978069 C 22.160133,31.978069 26.997745,27.140456 26.997745,27.140456 C 18.528582,18.264221 13.291696,25.230495 11.500037,31.436501 z"
             style="fill:#404040;"/>
          </a>
         </g>
        </svg>
</svg>
